<?xml version="1.0" encoding="utf-8"?>
<!-- Generator: Adobe Illustrator 15.0.2, SVG Export Plug-In . SVG Version: 6.00 Build 0)  -->
<!DOCTYPE svg PUBLIC "-//W3C//DTD SVG 1.1//EN" "http://www.w3.org/Graphics/SVG/1.1/DTD/svg11.dtd">
<svg version="1.1" id="Layer_1" xmlns="http://www.w3.org/2000/svg" xmlns:xlink="http://www.w3.org/1999/xlink" x="0px" y="0px"
	 width="1190.55px" height="841.89px" viewBox="0 0 1190.55 841.89" enable-background="new 0 0 1190.55 841.89"
	 xml:space="preserve">
<path id="EyeBall2" fill="#FFFFFF" d="M45.48-36.99c3.8,10.33,0.34,30.16-12.12,34.91C20.32,2.9,3.49-7.95-2.81-25.64
	c-0.13-0.38-0.26-0.75-0.39-1.12c-2.12-6.29-2.98-11.97-2.72-16.91c0.45-8.48,4.21-14.79,10.6-18.29
	C16.91-68.66,38.98-54.61,45.48-36.99z M29.32-20c8.03-4.18,10.4-15.52,5.3-25.34c-5.11-9.81-18.23-13.96-23.79-10.21
	c-0.34,0.23-0.67,0.49-0.99,0.76c2.95,1.29,5.25,3.93,5.94,7.33c1.13,5.55-2.45,10.96-8,12.09c-1.39,0.28-2.77,0.27-4.08,0
	c0.37,1.73,0.96,3.46,1.84,5.16C10.64-20.4,21.29-15.83,29.32-20z"/>
<path id="EyeBall1" fill="#FFFFFF" d="M-23.31-55.01C-12.2-53.44-5.13-33.36-9.73-18.55c-2.7,8.67-14.74,20.06-25.03,17.09
	c-10.76-3.11-16.09-18.52-11.33-33.27C-41.33-49.49-32.69-56.34-23.31-55.01z M-16.41-29.68c1.57-9.24-4.68-18.66-10.01-18.91
	c-2.91-0.14-6.23,1.06-9.09,3.33c2.69,0.14,5.05,2.05,5.62,4.81c0.66,3.28-1.45,6.47-4.72,7.14c-2.87,0.58-5.68-0.97-6.78-3.57
	c-0.3,0.9-0.56,1.84-0.73,2.83c-1.57,9.24,2.91,17.7,10.02,18.91C-25.01-13.94-17.98-20.45-16.41-29.68z"/>
<path id="Iris2" fill="#594A42" d="M34.62-45.34c5.1,9.82,2.73,21.16-5.3,25.34c-8.03,4.17-18.68-0.4-23.78-10.21
	c-0.88-1.7-1.47-3.43-1.84-5.16c1.31,0.27,2.69,0.28,4.08,0c5.55-1.13,9.13-6.54,8-12.09c-0.69-3.4-2.99-6.04-5.94-7.33
	c0.32-0.27,0.65-0.53,0.99-0.76C16.39-59.3,29.51-55.15,34.62-45.34z"/>
<path id="Iris1" fill="#594A42" d="M-26.42-48.59c5.33,0.25,11.58,9.67,10.01,18.91c-1.57,9.23-8.6,15.74-15.69,14.54
	c-7.11-1.21-11.59-9.67-10.02-18.91c0.17-0.99,0.43-1.93,0.73-2.83c1.1,2.6,3.91,4.15,6.78,3.57c3.27-0.67,5.38-3.86,4.72-7.14
	c-0.57-2.76-2.93-4.67-5.62-4.81C-32.65-47.53-29.33-48.73-26.42-48.59z"/>
<path id="EyeBorder" d="M49.49-36.63C43.22-58.15,18.07-72.32,4.11-64.54C-3-60.59-7.19-53.44-7.76-43.77
	c-0.02,0.25-0.03,0.51-0.04,0.76c-3.04-7.53-8.36-13.15-14.59-13.99c-10.76-1.45-20.79,6.82-26.48,24.43
	c-5.68,17.62,1.26,35.04,13.82,37.68c10.58,2.23,22.03-6.82,27.69-21.46c1.15-2.95,1.82-6.03,2.11-9.12c0.39,1.3,0.82,2.62,1.3,3.96
	C3.56-0.39,23.52,11.21,37.99,4.46C50.19-1.23,54.81-18.39,49.49-36.63z M-9.73-18.55c-2.7,8.67-14.74,20.06-25.03,17.09
	c-10.76-3.11-16.09-18.52-11.33-33.27c4.76-14.76,13.4-21.61,22.78-20.28C-12.2-53.44-5.13-33.36-9.73-18.55z M33.36-2.08
	C20.32,2.9,3.49-7.95-2.81-25.64c-0.13-0.38-0.26-0.75-0.39-1.12c-2.12-6.29-2.98-11.97-2.72-16.91c0.45-8.48,4.21-14.79,10.6-18.29
	c12.23-6.7,34.3,7.35,40.8,24.97C49.28-26.66,45.82-6.83,33.36-2.08z"/>
<path id="Mouth" d="M-60.92,24.5c-2.006-5.606-12.621,24.183,14.979,17.558c27.592-6.627,48.259-13.173,70.407-14.564
	c22.144-1.393,29.106,6.086,49.146-0.511c20.045-6.594,4.653-10.965,2.016-17.47C73,3.011,77.088,22.851,70.155,22.931
	c-6.928,0.079-43.84-2.846-54.102-0.512c-10.259,2.334-53.3,13.461-60.772,12.179C-51.555,33.427-56.286,37.46-60.92,24.5z"/>
<path id="Lip" d="M30.311,41.177c-20.794-0.492-43.346,6.635-48.494,8.118c-5.153,1.481-20.868,9.05,2.775,4.629
	c23.65-4.421,50.662-4.048,56.957-3.671C74.137,52.208,41.619,41.445,30.311,41.177z"/>
</svg>
