<?xml version="1.0" encoding="utf-8"?>
<!-- Generator: Adobe Illustrator 16.0.4, SVG Export Plug-In . SVG Version: 6.00 Build 0)  -->
<!DOCTYPE svg PUBLIC "-//W3C//DTD SVG 1.1//EN" "http://www.w3.org/Graphics/SVG/1.1/DTD/svg11.dtd">
<svg version="1.1" xmlns="http://www.w3.org/2000/svg" xmlns:xlink="http://www.w3.org/1999/xlink" x="0px" y="0px" width="841.9px"
	 height="595.3px" viewBox="0 0 841.9 595.3" enable-background="new 0 0 841.9 595.3" xml:space="preserve">
<g id="N9">
	<path fill="#6CBE45" d="M0.5-18.9c4.5,0,7.9,1.4,10,4.3c1.8,2.4,2.7,4.9,2.7,8.9C13.2,1.8,9.7,9,2.7,14.5l-2.5,2.2
		c-1.2,1-2.1,1.5-2.7,1.5c-0.7,0-1.3-0.2-1.8-0.6c-0.5-0.4-0.6-0.8-0.6-1.4c0-0.5,0.7-1.4,2.5-2.9L3,8.8c1.4-1.2,3-4.2,4-6.7
		C5.5,2.7,3.7,3,2.6,3.3C1.4,3.6,0.5,3.8-0.2,3.8c-4.1,0-7.2-0.9-9.4-2.8C-11.8-1-12.9-3-12.9-6.4c0-3.6,1.2-6.6,3.5-8.9
		C-6.9-17.7-3.6-18.9,0.5-18.9z M0.5-0.9c1.5,0,2.8-0.2,4-0.7c0.5-0.2,2-1,3.8-1.9c0.1-0.8,0-1.5,0-2.3c0-2.7-0.5-4.4-1.5-6.1
		c-1.3-2.2-3.7-3.1-6.5-3.1c-2.6,0-5.1,0.7-6.6,2.3c-1.3,1.5-2,3.2-2,5.7c0,2.1,1.1,3.5,2.5,4.5C-4.4-1.4-2.3-0.9,0.5-0.9z"/>
</g>
<g id="N8">
	<path fill="#6CBE45" d="M-0.3,18.4c-3.8,0-6.8-0.7-9.1-2.2c-2.6-1.6-4-4-4-7.2c-0.1-5.1,2-8.6,6.1-10.4c-3.2-1.7-4.8-4.1-4.8-7.3
		c0-3,1.2-5.5,3.7-7.4c2.3-1.9,5.2-2.9,8.5-2.9c7.5-0.1,11.2,3.2,11.2,9.8c0,1.9-0.4,3.3-1.3,4.4C9.3-3.9,8-3,6-2.1
		c2.7,1.2,4.5,2.5,5.6,3.8c1.2,1.6,1.9,3.8,1.9,6.6c0,3.2-1.3,5.7-4,7.6C6.9,17.6,3.7,18.4-0.3,18.4z M-0.5,0.3
		c-2.8,1.2-4.7,2.2-5.7,3c-1.5,1.3-2.2,3.2-2.1,5.5c0.1,2,1.1,3.4,3.1,4.4c1.4,0.7,3.1,1,4.9,1c3.1,0,5.3-0.7,6.6-2
		c1-1,1.5-2.6,1.5-4.7c0-2.1-0.9-3.7-2.7-5C3.9,1.7,2,1-0.5,0.3z M0-14.7c-2.3,0-4.1,0.6-5.3,1.7c-1.1,1.1-1.6,2.5-1.6,4.4
		c0,2.2,2.1,3.8,6.2,4.7C1.4-4.5,2.9-5,3.9-5.6c1.5-0.9,2.2-2.1,2.2-3.5c0-2.1-0.5-3.6-1.6-4.5C3.5-14.3,2-14.7,0-14.7z"/>
</g>
<g id="N7">
	<path fill="#6CBE45" d="M12.1-13.5c0,0-13.7,22.2-14.7,25.2c-0.8,2.3-2.2,4.3-2.9,5.5c-0.4,0.7-1.1,1.1-1.9,1.1
		c-0.6,0-1.2-0.2-1.7-0.7c-0.5-0.4-0.7-1-0.7-1.6c0-0.6,0.5-2.1,1.5-4.6c0,0,11.3-22.2,13.8-24.9L6-14.7l-11.8,0.4l-5.3,1.1
		c-1.5-0.1-2.3-0.9-2.3-2.3c0-0.7,0.2-1.2,0.7-1.6c0.4-0.4,1-0.4,1.6-0.6c2.1-0.9,4.9-1.3,8.9-1.8c4.7-0.6,13,1,13,1
		c1.7,0,2.6,1,2.6,2C13.5-15.6,13-14.6,12.1-13.5z"/>
</g>
<g id="N6">
	<path fill="#6CBE45" d="M-0.5,18.4c-4.5,0-7.9-1.4-10-4.3c-1.8-2.4-2.7-4.9-2.7-8.9c0-7.5,3.5-14.7,10.5-20.2l2.5-2.2
		c1.2-1,2.1-1.5,2.7-1.5c0.7,0,1.3,0.2,1.8,0.6c0.5,0.4,0.6,0.8,0.6,1.4c0,0.5-0.7,1.4-2.5,2.9L-3-9.3c-1.4,1.2-3,4.2-4,6.7
		c1.5-0.6,3.3-0.9,4.4-1.2c1.1-0.3,2.1-0.4,2.8-0.4c4.1,0,7.2,0.9,9.4,2.8c2.2,1.9,3.3,3.9,3.3,7.4c0,3.6-1.2,6.6-3.5,8.9
		C6.9,17.2,3.6,18.4-0.5,18.4z M-0.5,0.3c-1.5,0-2.8,0.2-4,0.7c-0.5,0.2-2,1-3.8,1.9c-0.1,0.8,0,1.5,0,2.3c0,2.7,0.5,4.4,1.5,6.1
		c1.3,2.2,3.7,3.1,6.5,3.1c2.6,0,5.1-0.7,6.6-2.3c1.3-1.5,2-3.2,2-5.7c0-2.1-1.1-3.5-2.5-4.5C4.3,0.8,2.2,0.3-0.5,0.3z"/>
</g>
<g id="N5">
	<path fill="#6CBE45" d="M-1.5,17.9c-4.8,0-8.4-1.6-10.7-4.8c-0.3-0.4-0.5-0.9-0.5-1.3c0-0.6,0.3-1.1,0.8-1.5
		c0.5-0.4,1.1-0.7,1.8-0.7c0.7,0,1.4,0.3,2,1c0.9,1,1.6,1.6,2,1.9c1.1,0.7,2.6,1,4.5,1c3,0,5.4-1,7.3-3c1.9-1.9,2.8-2.3,2.8-5
		c0-2.2-0.4-3.4-1.2-4.8C6.3-1,4.7-1.8,2.5-1.8C0.7-1.8-0.8-1.6-2-1.2c-0.9,0.4-1.9,1-2.8,1.8l-2.8,2.7c-0.8,0.7-1.5,1-2.3,1
		c-0.7,0-1.3-0.2-1.7-0.7c-0.5-0.4-0.7-1-0.7-1.6c0-0.3-0.5-1.7-0.2-4.1c0.6-4.8,0.6-13.6,0.6-13.9c0-0.9,0.9-2.7,2.7-2.7
		c0.3,0,0.9,0,1.5,0.1c0.7,0.1,11.6-1,18.1,0.3c0.7,0.1,1.3,0.2,1.9,0.3c2.4,0.7,1,3.4,0.6,3.8c-1.4,1.4-2.7,0-6.7,0
		c-0.5,0-1.2,0-2,0c-0.8,0-1.3,0-1.5,0l-4.3,0.1L-7-13.7C-7-13.1-7.4-8-8-3.6c2.3-1.7,6.6-2.6,10.5-2.6c3.8,0,6.6,1.3,8.6,3.9
		c1.7,2.2,2.5,4.4,2.5,7.9c0,4.1-1.3,5.6-4,8.2C6.8,16.6,3.1,17.9-1.5,17.9z"/>
</g>
<g id="N4">
	<path fill="#6CBE45" d="M8.4,6.6v9.2c0,1.4-0.7,2.2-2.1,2.2c-1.6,0-2.4-1.1-2.4-3.4c0-0.3,0-0.7,0-1.2c0-0.5,0-0.9,0-1l0-5.9
		L-6.1,6.2c-2.1,0-3.5-0.1-4.3-0.2c-1.4-0.2-2.1-0.8-2.1-1.6c0-0.7,0.4-1.6,1.3-2.6l2-2.4l11.3-16c1-1.4,2.3-2.2,3.9-2.2
		c1.7,0,2.6,0.8,2.6,2.3V2.1c0.3,0,0.6,0,0.9,0c2.8,0,4.2,0.8,4.2,2.3c0,1.1-0.6,1.8-1.7,2.1C11.3,6.6,10.1,6.7,8.4,6.6z M4-12.4
		C-0.1-5.8-3.3-1.5-5.6,1.8L4,2V-12.4z"/>
</g>
<g id="N3">
	<path fill="#6CBE45" d="M13.4,7.4C13,3,8.5,1,6.1,0.2C6.5,0.1,6.8,0,7.1-0.1c3.5-1.2,5.2-3.6,5.2-7.3c0-0.4,0-0.7-0.1-1.1
		c-0.1-2.6-1.6-4.9-3.9-6.8c-2.6-2.1-5.7-3.2-9.3-3.2c-2.8,0-4,0.5-6.2,1.5c-2.5,1.1-4.2,2.7-5,4.8c-0.1,0.3-0.2,0.6-0.2,0.8
		c0,0.6,0.3,1.1,0.8,1.6s1.2,0.6,1.9,0.6c0.7,0,1.4-0.3,1.9-0.9l1.3-1.6c0.7-0.8,1.6-1.3,2.7-1.7c1.1-0.4,1.2-0.6,2.7-0.6
		c2,0,3.8,0.5,5.3,1.6C6-11.2,7-10.2,7.3-8.5c0.1,0.4,0.1,0.8,0.1,1.2c0,1-0.3,1.8-1,2.4C5.8-4.2,4.8-3.7,3.6-3.3L-3-1.9
		c-1.6,0.5-2.4,1.2-2.4,2.1c0,1.2,1,1.9,3.1,2.1c3,0.3,10,0.9,10.2,5.9c0.1,1.6-0.8,3-2.4,4.1C3.9,13.4,2.2,14,0.2,14
		c-1.6,0-2.9-0.2-4-0.6c-1.1-0.4-2-1-2.7-1.7l-1.3-1.6c-0.5-0.6-1.2-0.9-1.9-0.9s-1.4,0.2-1.9,0.6c-0.6,0.4-0.8,0.9-0.8,1.6
		c0,0.3,0.1,0.5,0.2,0.8c0.9,2.1,2.5,3.7,5,4.8c2.2,1,4.7,1.5,7.5,1.5c3.7,0,6.8-1.1,9.3-3.2C12.1,13.1,13.6,10.5,13.4,7.4z"/>
</g>
<g id="N2">
	<path fill="#6CBE45" d="M10.8,17.9c-0.5,0-11.6,0.2-12.6,0.2c-0.7,0-5.8-0.2-6.5-0.2c-0.2,0-1.6-0.2-1.8-0.2
		c-1.3,0-2.1-0.5-2.5-1.6c-0.2-0.6-0.7-0.9-0.3-2.3c1.1-4,3.8-8.2,6.2-10.5c1.1-1.1,1.4-1.7,6.2-4.5C2.1-2.8,3.9-4,4.8-4.9
		c1.6-1.6,2.4-3.4,2.4-5.5c0-1-0.8-2-2.3-2.8c-1.4-0.7-2.7-1.1-4-1.1c-1.7,0-3.4,0.4-4.9,1.3l-4,2.7C-9-9.7-9.6-9.4-10.1-9.4
		c-1.9,0-2.9-0.7-2.9-2c0-0.8,0.4-1.4,1.1-2c2.2-1.8,4.1-3.1,5.7-3.9c2.3-1.1,4.6-1.7,7-1.7c3,0,5.8,0.7,8.2,2.1
		c2.7,1.6,4,3.7,4,6.2c0,1.7-0.3,3.2-0.8,4.6c-0.5,1.4-1.4,2.7-2.5,3.8C8.3-0.7,5.9,0.9,2.5,2.7C-1,4.6-1.9,5.6-3,6.6
		c-2.1,1.9-3.4,4.5-4.5,7.3l5.8-0.5c4-0.2,6.8-0.3,8.5-0.3c1.4,0,2.6,0.1,4,0.3c1.8,0.2,2.6,1.1,2.6,2.1c0,0.6-0.3,1.2-0.8,1.7
		C12.2,17.7,11.5,17.9,10.8,17.9z"/>
</g>
<g id="N1">
	<path fill="#6CBE45" d="M10.7,18H0.9l-10.4,0c-1.1,0-1.8-0.1-2.2-0.2c-0.8-0.3-1.2-0.9-1.2-1.8c0-1.6,1.2-2.4,3.6-2.4l1.1,0l6.1,0
		c0-0.8-0.2-11.7,0.1-15.8c0.3-4,0.5-7.1,0.5-9.1c-2,1.6-5.7,3.7-6.2,3.7c-0.6,0-1.1-0.2-1.6-0.7c-0.4-0.5-0.7-1-0.7-1.6
		c0-0.7,0.7-1.6,2-2.7c0.8-0.6,4.3-2.8,5.8-4.1c1.3-1.4,2.6-2.1,3.8-2.1c1,0,1.5,0.6,1.5,1.8C3.3-16.7,3-4.6,2.6-1
		C2.2,2.5,2.4,12.7,2.4,13.5l8.3,0c0.6,0,1.2,0.2,1.6,0.6c0.4,0.4,0.6,1,0.6,1.6c0,0.7-0.2,1.2-0.6,1.6C11.9,17.8,11.3,18,10.7,18z"
		/>
</g>
<g id="N0">
	<path fill="#6CBE45" d="M0.2,18.2c-4.9,0-8.4-2.1-10.6-6.4C-12.1,8.6-13,4.4-13-0.9c0-4.4,1.1-8.3,3.3-11.6
		c2.6-3.9,6.1-5.8,10.6-5.8c4.2,0,7.5,1.7,9.8,5.1c2,3,3,6.6,3,10.8c0,6.8-1.1,12-3.4,15.4C8.2,16.5,4.8,18.2,0.2,18.2z M0.9-13.8
		c-3,0-5.3,1.4-7.1,4.3c-1.5,2.4-2.2,5.2-2.2,8.3c0,5,0.7,8.8,2.1,11.3c1.4,2.5,3.6,3.8,6.4,3.8c3.4,0,5.8-1.8,7.3-5.5
		C8.5,5.8,9,2.5,9-1.4c0-4.1-0.7-7.2-2-9.3C5.7-12.8,3.6-13.8,0.9-13.8z"/>
	<path fill="#6CBE45" d="M6-9.4C5.5-9.9,5-10.1,4.3-10.1c-0.7,0-1.3,0.3-1.9,0.9C1.4-8-2.8,1.9-2.8,1.9c-0.7,1.5-1.6,3-2.6,4.3
		c-0.3,0.4-0.5,0.9-0.5,1.3c0,0.7,0.2,1.2,0.7,1.7c0.5,0.5,1,0.7,1.7,0.8c0.7,0,1.4-0.2,1.9-0.8c1.1-1.1,2.1-2.8,3.1-5
		c0,0,3.9-9.2,4.9-10.6c0.3-0.5,0.5-0.9,0.5-1.4C6.8-8.4,6.6-8.9,6-9.4z"/>
</g>
<g id="Y">
	<path fill="#6CBE45" d="M12.2-13.2c-0.4,0.6-0.8,1.5-1.4,2.7L7-0.7C5.5,3,4.1,6.3,2.8,9L0,14.2l-1.2,2.5c-0.5,0.9-1.1,1.3-2,1.3
		c-0.6,0-1.1-0.2-1.6-0.7c-0.5-0.4-0.7-1-0.7-1.7c0-0.5,0.7-2.2,2.1-4.9l2.7-5.2C-3.2,2-7.5-6.7-9.1-9.2c-2.1-3.3-3.4-5.4-3.7-6.1
		c-0.2-0.4-0.3-0.8-0.3-1.3c0-0.7,0.2-1.2,0.7-1.7c0.5-0.5,1-0.7,1.6-0.7c0.7,0,1.3,0.4,1.8,1.1C-9-17.8,0.2-2.3,1.8,0l4.8-12.3
		C7.2-13.4,8-15,9-17.2c0.4-1.1,1.1-1.6,2.1-1.6c0.6,0,1.1,0.2,1.6,0.6c0.5,0.4,0.7,1,0.7,1.7C13.4-15.8,13-14.7,12.2-13.2z"/>
</g>
<g id="Z">
	<path fill="#6CBE45" d="M10-12.4c0,0-7.3,8.3-10.4,13.1l-5.3,7.8c-0.3,0.6-2.7,4.5-3.1,5l7.6,0.3c3.4-0.2,5.8-0.5,7.6-0.5
		c1.8,0,3.1,0.1,4.5,0.4c1.1,0.3,1.2,0.9,1.2,2c0,0.8-0.2,1.4-0.6,1.8c-0.4,0.4-0.9,0.6-1.5,0.6c-0.4,0-19.7,0.2-21.8,0.2
		c-1.5,0-2.3-0.8-2.3-2.4c0-1,4.5-9.2,5.4-10.7l5.3-8.5c3-4.6,6.3-8.5,8.9-11l-7.6,0c0,0-8.2,0-8.3,0c-1.4,0-3.1,0-3.1-1.6
		c0-1.1,0.1-2,0.8-2.3c0.4-0.2,3-0.5,4-0.5c0.9,0,15,0,16.1,0c3.4,0,5,1.4,5,2.9C12.3-14.9,11.6-13.8,10-12.4z"/>
</g>
<g id="X">
	<path fill="#6CBE45" d="M12.8-14.6C11-12.1,4.2-1.3,3.4-0.2c0,0,8.1,12.7,9.4,14.5c0.4,0.5,0.5,1,0.5,1.6c0,0.6-0.2,1.2-0.6,1.7
		c-0.4,0.5-0.9,0.7-1.5,0.7c-0.5,0-1-0.2-1.4-0.7c-1-1.1-9.3-14.2-9.3-14.2l-6.9,9.1l-3.7,4.7c-0.4,0.5-0.9,0.8-1.5,0.8
		c-0.6,0-1-0.2-1.5-0.7c-0.4-0.5-0.6-1-0.6-1.7c0-0.5,0.2-1.1,0.5-1.6L-1.9-0.6c-1.5-2.2-10.2-12.9-11-13.6
		c-0.6-0.5-0.8-1.2-0.8-1.9c0-0.6,0.2-1.2,0.6-1.7c0.4-0.5,0.9-0.7,1.5-0.7c1.1,0,2.6,1.4,4.4,4.1c0.6,0.9,6.8,8.1,8.2,10.2l4.6-7.3
		c3-4.7,4.9-7.1,5.8-7.1c0.6,0,1,0.2,1.5,0.7c0.4,0.5,0.6,1,0.6,1.7C13.4-15.6,13.2-15.1,12.8-14.6z"/>
</g>
<g id="W">
	<path fill="#6CBE45" d="M-11.2-19.1c0.6,0,1.5,0.5,1.9,1.3c0.3,0.8,0.3,1.9,0.6,3.7l0.4,3.9C-7.8-7.6-7.6-5.5-6.6,3l2.8-11.3
		c0,0,1.6-5.8,2-6.9c0.5-1.2,1.1-1.8,1.9-1.8c0.7,0,2.1-0.2,2.8,1.7C3.1-14.7,4-11.4,4-11.4c1.1,5.5,1.6,7,2.5,13.3l0.8-3.6l1.1-9.2
		c0.1-1.5,0.3-3.6,0.7-6.4c0.3-1.2,1.9-1.3,2.6-1.3c0.5,0,1,0.3,1.3,0.8c0.3,0.5,0.4,1,0.4,1.7c0,2.6-0.4,5.8-1.1,9.6L11.2,3
		L10,10.3c-0.5,3.5-0.5,5.9-1.1,7c-0.4,0.9-1.4,1.2-2.1,1.2c-0.7,0-1.9-0.6-2.3-1.7c-0.4-1.4-1.2-4.6-1.7-8.8
		C2.3,2.8,1.4-0.6,0.1-6.6C-1.5-0.6-2,3.6-3.2,10.1l-0.7,3.5c-0.2,1.4-0.3,2.6-0.6,3.4c-0.4,1.2-1.6,1.7-2.3,1.7c-1,0-2-1.2-2.5-3.8
		c-0.2-0.9-1.2-5.8-1.5-8.6c-0.7-7.1-1-10.1-1.7-15.2l-0.6-4.1c-0.4-2.2-0.4-3.4-0.4-3.9c0-0.7,0.2-1.2,0.5-1.7
		C-12.6-18.9-11.6-19.1-11.2-19.1z"/>
</g>
<g id="V">
	<path fill="#6CBE45" d="M12.9-14.8c-0.9,1.4-1.7,2.9-2.3,4.5l-1.7,5l-6,16.6c-0.7,2-1.5,3.9-2.5,5.7c-0.5,0.9-1.1,1.4-2,1.4
		c-1.1,0-2-0.6-2.4-1.8c-1.8-4.6-3.8-11.3-6-20l-1.8-6.3C-12.6-12.9-13-15-13-16c0-0.7,0.2-1.2,0.7-1.7c0.4-0.4,1-0.6,1.6-0.6
		c1.1,0,1.9,0.6,2.2,1.9l0.8,4l2.1,7.8C-4.2,1-2.8,5.9-1.4,10l0.1-0.4L4.7-7l1.9-5.6c0.8-2.3,1.8-4,2.7-5.1c0.5-0.6,1.1-0.9,1.7-0.9
		c0.6,0,1.1,0.2,1.6,0.7c0.5,0.5,0.7,1,0.7,1.7C13.3-15.8,13.2-15.3,12.9-14.8z"/>
</g>
<g id="U">
	<path fill="#6CBE45" d="M0.5,18c-4.6,0-8-1.4-10.2-4.2c-1.8-2.3-3-5.6-3.4-10.1c-0.2-2-0.3-16-0.2-17.4c0.1-1.4,0.2-2.4,0.4-3
		c0.4-1.2,1-1.7,2-1.7c1.3,0,2.7,1.3,2.7,4v13.9c0,9.6,2.4,13.7,8.6,13.7c5.9,0,8.1-7.4,8.1-23.5c0-0.6,0.1-6.1,0.5-6.8
		c0.4-0.9,1.7-1.4,2.5-1.4c1.5,0,2.2,1.1,2.2,3.2c0,0.6,0,5.2,0,5.9C13.7,8.8,9.3,18,0.5,18z"/>
</g>
<g id="T">
	<path fill="#6CBE45" d="M11.7-13.5c-1,0-2.5-0.1-4.6-0.3C5-13.9,4.2-14,3.1-14H1.7c0,2.1,0.2,7.6,0.5,12.4
		c0.3,4.5-0.1,17.4-0.4,18.1c-0.4,1-1.7,1.5-2.5,1.5c-0.5,0-1.7-0.2-2.2-0.7c-0.4-0.4-0.6-1-0.6-1.7c0-0.2,0.5-14.3,0.2-18.3
		C-3.6-6.9-3.8-12-3.8-13.9l-1.2,0c-3,0-5.3,1.1-7,0.6c-1.1-0.3-1.6-0.4-1.6-1.6c0-0.6,0.2-1.2,0.5-1.7c0.4-0.5,1.3-1.3,2-1.2
		c0.5,0,8.2-0.8,9.8-0.8c1.6,0,2.9-0.1,3.7-0.1c1,0,8.2,0.5,9.3,0.5c0.6,0,1.1,0.2,1.5,0.7c0.4,0.5,0.6,1,0.6,1.7
		c0,0.7-0.2,1.2-0.6,1.7C12.8-13.7,12.3-13.5,11.7-13.5z"/>
</g>
<g id="S">
	<path fill="#6CBE45" d="M-13.6,10.6c0-0.7,0.2-1.2,0.7-1.7c0.5-0.4,1-0.6,1.7-0.6c0.8,0,1.4,0.5,2,1.4c0.8,1.2,1.5,2.1,2.1,2.5
		c1.3,0.9,3.2,1.4,5.7,1.4c2.4,0,4.6-0.5,6.6-1.6C7.7,10.5,9,8.6,9,6.1c0-2-1.1-3.6-3.3-4.8c-1.9-1-4.1-1.6-6.9-1.6
		C-3.6-0.4-5.6-1-7.3-2c-2.2-1.3-3.3-3.2-3.3-5.6c0-2.9,1.5-5.5,4.6-7.9c3-2.2,6-3.4,9.2-3.4c1.5,0,3.2,0.3,5,0.8
		c2.5,0.7,3.7,1.6,3.7,2.7c0,1.4-0.7,2.1-2.1,2.1c-0.6,0-1.7-0.2-3.2-0.5c-1.5-0.3-2.7-0.5-3.6-0.5c-2.4,0-4.4,0.7-6.1,1.9
		c-1.7,1.2-2.6,2.8-2.6,4.5c0,1.3,1.1,2.3,3.4,2.8c0.8,0.2,2.5,0.4,4.9,0.6C6.2-4.2,9-3.1,10.9-1c1.8,1.9,2.7,4.2,2.7,6.9
		c0,3.8-1.7,6.9-5,9.2c-2.9,2-6.3,3-10.2,3c-2.8,0-5.4-0.6-7.7-1.7C-12.1,15-13.5,13-13.6,10.6z"/>
</g>
<g id="R">
	<path fill="#6CBE45" d="M10.7,17.6c-0.6,0-1.2-0.2-1.7-0.8C3.9,11.8-2.5,3.2-8.3,2.6L-8,15.8c0,0.7-0.2,1.3-0.7,1.7
		c-0.4,0.5-1,0.7-1.7,0.7s-1.2-0.2-1.7-0.7c-0.4-0.5-0.7-1-0.7-1.7c0-5.2,0.1-31.4,0.1-28.2c0-0.9,0.3-3.7,0.8-4.4
		c0.6-0.8,2.9-1.9,3.9-1.8l4.2-0.2c2.2,0.3,4,0,5.6,0.4c6.1,1.6,11.5,5.3,11.2,10.1C13-4,11-1.9,9.1-0.1c-2,1.9-5,2.5-7.7,2.6
		c1.3,0,8.7,8.3,11.1,11.2c0.4,0.5,0.6,1,0.6,1.6c0,0.7-0.2,1.2-0.7,1.7C11.9,17.4,11.4,17.6,10.7,17.6z M-4.3-14.4l-3,0l-0.2,3.6
		c0.1,1.2,0.1,1.6-0.1,3.5l-0.5,4.7c0.2,0,2,0,2.4,0c0.5,0,1.3,0,1.6,0c4,0,5.8,0.5,7.8-0.5C4.6-3.6,5.6-4,6.4-4.8
		C7.2-5.7,8-7.2,7.8-8.7c-0.3-2.2-1.6-2.7-3.1-3.8C3-13.8-1.6-14.7-4.3-14.4z"/>
</g>
<g id="Q">
	<path fill="#6CBE45" d="M8.6,12.3c0.3-0.5,0.7-1.1,1-1.7c2.3-4.3,3.5-9.2,3.5-14.6c0-5.2-1-9-3.1-11.4c-2-2.3-5-3.5-9.1-3.5
		c-4.2,0-7.8,2.5-10.6,7.4c-2.5,4.4-3.8,9.3-3.8,14.7c0,4.4,1.3,8.1,3.9,10.9c2.4,2.6,5.4,4,8.9,4c2.4,0,4.6-0.8,6.5-2.4
		C7.1,16.8,8.6,18,8.9,18c0.7,0,1.2-0.2,1.7-0.7c0.5-0.5,0.7-1.1,0.7-1.7c0-0.6-0.3-1.2-0.9-1.8C10.4,13.8,9.6,13.2,8.6,12.3z
		 M-7,9.9c-1.8-1.9-2-3.7-2-6.7c0-4.2,1-8.1,2.9-11.6c2.1-3.8,4-5.7,7.1-5.7c3,0,4.4,0.6,5.7,2.1c1.3,1.5,2.1,4.3,2.1,8
		c0,4.3-0.9,8.1-2.6,11.5C5.8,8.1,5.5,8.6,5.2,9.1C5.1,8.9,5,8.8,4.9,8.6C4.3,7.9,3.7,7.5,2.9,7.5c-0.6,0-1.2,0.2-1.7,0.7
		c-0.5,0.4-0.7,1-0.7,1.7c0,1.3,0.5,1.4,1.7,2.6c-0.9,0.5-1.8,0.8-2.9,0.8C-3.2,13.3-5.3,11.7-7,9.9z"/>
</g>
<g id="P">
	<path fill="#6CBE45" d="M-4.3,2c-0.6,0-1.8-0.1-3.6-0.3C-8.1,4-8.2,10.1-8.2,15.9c0,0.6-0.3,1.1-0.8,1.6c-0.5,0.4-1.2,0.6-1.9,0.6
		c-0.8,0-1.4-0.2-2-0.6c-0.5-0.4-0.8-0.9-0.8-1.6V9.1c0-2.3,0.2-5.5,0.5-9.6c0.4-4.5,0.6-7.7,0.7-9.6l-0.2-2.4
		c0-1.5-0.1-2.5,0.1-3.2c0.5-1.4,1.4-2.2,3.3-2.6c0.6-0.1,2.2-0.5,3.3-0.5c1.2-0.1,1.9-0.1,3.6-0.1c3.6,0,7,1,10.2,2.9
		c3.5,2.1,5.2,4.7,5.2,7.7c0,3.8-1.9,6.9-5.6,9.1C4.3,2.9,0.3,2-4.3,2z M-2.8-14.4c-0.9,0-1.6,0-2.3,0c-0.7,0-1.9,0.1-2.4,0.1
		L-7.6-10l-0.6,7.2l3.9,0.3C-1-2.4,2.8-2.3,5-3.7c1.1-0.7,2.8-2.1,2.8-4.6c0-1.7-1-3.2-3.4-4.5C2.2-13.9-0.3-14.4-2.8-14.4z"/>
</g>
<g id="O">
	<path fill="#6CBE45" d="M-0.4,18c-3.5,0-6.4-1.3-8.9-4c-2.6-2.8-3.9-6.4-3.9-10.9c0-5.4,1.3-10.3,3.8-14.7
		c2.8-4.9,6.4-7.4,10.6-7.4c4.1,0,7.1,1.2,9.1,3.5c2.1,2.4,3.1,6.2,3.1,11.4c0,5.4-1.2,10.3-3.5,14.6C7.3,15.5,3.8,18-0.4,18z
		 M1.3-14.1c-3,0-4.9,1.9-7.1,5.7C-7.7-4.9-8.7-1.1-8.7,3.2c0,3,0.2,4.8,2,6.7c1.7,1.8,3.8,3.3,6.3,3.3c3,0,4.8-1.9,6.8-5.7
		C8.1,4,9,0.2,9-4.1c0-3.7-0.8-6.5-2.1-8C5.7-13.5,4.3-14.1,1.3-14.1z"/>
</g>
<g id="N">
	<path fill="#6CBE45" d="M13.2,11.8c0,0.7-0.1,1.9-0.4,3.6c-0.2,1.5-1.1,2.3-2.4,2.3c-0.8,0-1.8-0.5-3-1.6C1.2,10.2-0.6,2.3-7.4-9.8
		l-0.1,5.1c0,0,0.1,15.2,0.1,16.5c0,4.1-0.8,6.1-2.4,6.1c-0.8,0-1.9-0.1-2.3-0.6c-0.4-0.5-1-1.5-0.9-2.8C-13,13.3-12-15.3-12-16.2
		c0-0.7,0.3-1.3,0.9-1.9c0.6-0.6,1.3-0.9,2-0.9c0.8,0,1.8,0.9,3,2.6c3.8,5.6,6.5,10.6,8.8,14.8C5.6,3.7,4.9,3.3,8.9,9.7
		C8.5,9.2,9.1-9.3,9-10.9C9-12,8.9-15.4,8.9-16c0-1.8,0.8-2.6,2.4-2.6c2.7,0,2,4.9,2,14.7c0,1.7-0.1,4.4-0.2,7.8
		C13.1,7.2,13.2,10.1,13.2,11.8z"/>
</g>
<g id="M">
	<path fill="#6CBE45" d="M11.7,18.4c-0.6,0-1.5-0.5-1.9-1.3c-0.3-0.7-0.3-1.9-0.6-3.6L8.8,9.5c-0.5-2.5-0.7-4.6-1.7-13l-3,11.4
		L3,11.6c-0.4,1.7-1,3-1.4,4.1c-0.5,1.2-1.1,1.8-1.9,1.8c-0.7,0-2.1-0.1-2.4-1.1c-0.2-0.6-0.7-1.7-0.9-2.7l-0.6-2.7
		c-1.1-5.5-1.1-8.8-2-15.1l-0.5,5.3l-1.1,9.1c-0.1,1.4-0.3,3.5-0.7,6.3c-0.3,1.2-1.9,1.3-2.6,1.3c-0.5,0-1-0.3-1.3-0.8
		c-0.3-0.5-0.4-1-0.4-1.7c0-2.6,0.4-5.7,1.1-9.5l1.1-9.4l1.1-7.2c0.5-3.4,0.5-5.9,1.1-6.9c0.4-0.9,1.4-1.2,2.1-1.2
		c0.7,0,1.9,0.6,2.3,1.7c0.4,1.4,1.2,4.5,1.7,8.7c0.6,5.1,1.2,8.1,2.4,14C1.7-0.3,2.5-4,3.7-10.5L4.4-14c0.2-1.4,0.3-2.6,0.6-3.4
		c0.4-1.1,1.6-1.7,2.3-1.7c1,0,2,1.2,2.5,3.8c0.2,0.9,1.2,5.7,1.5,8.5c0.7,7,1,10,1.7,15l0.6,4c0.4,2.1,0.4,3.4,0.4,3.9
		c0,0.7-0.2,1.2-0.5,1.7S12.2,18.4,11.7,18.4z"/>
</g>
<g id="L">
	<path d="M12.3,17.6C10.1,18.4-5.3,18.1-8,18.1c-1.9,0-3.3-0.2-4.1-0.7c-1.1-0.6-1.7-1.8-1.7-3.5c0,0,1.3-22.2,1.3-30.6
		c0-0.7,0.3-1.2,0.8-1.7s1.2-0.7,2-0.7c0.8,0,1.5,0.2,2,0.7s0.8,1,0.8,1.7c0,8.6-1.3,29.2-1.3,30.2c4.9,0,10.5,0.1,18.6-0.2
		c0.3,0,0.6-0.1,0.9-0.1c0.8,0,1.5,0.3,2,0.8c0.5,0.5,0.7,1,0.7,1.6C14.1,16.4,13.5,17.1,12.3,17.6z"/>
</g>
<g id="K">
	<path fill="#6CBE45" d="M11.2,17c-2.6,0-6.3-3.3-11.1-7.4l-7.7-6.9V3l0,13.3c0,1.5-0.7,2.3-2.2,2.3c-1,0-1.8-0.4-2.3-1.1
		c-0.5-0.6-0.7-1.3-0.7-2c0-3.6,0.7-28.4,0.7-32c0-0.7,0.2-1.2,0.7-1.7c0.5-0.5,1.1-0.7,1.8-0.7c0.7,0,1.3,0.2,1.8,0.7
		c0.5,0.5,0.7,1,0.7,1.7c0,1.5-0.6,10.9-0.6,12.5C-5.4-6-0.1-7.6,2.8-10.5l6.6-5.6c0.6-0.6,1.2-0.9,1.9-0.9c0.7,0,1.3,0.2,1.8,0.7
		c0.5,0.5,0.8,1,0.8,1.7c0,1-2.5,3.5-7.6,7.3C2.8-4.8-0.8-3.6-4-0.7c2,1.9,5.3,4.7,9.6,8.3c0,0,4.7,4.5,5.8,4.8c1.3,0.4,2,1.2,2,2.3
		c0,0.5-0.2,1-0.5,1.5C12.5,16.7,11.9,17,11.2,17z"/>
</g>
<g id="J">
	<path fill="#6CBE45" d="M12-14.2c-0.3,0-4.7-0.3-5.7-0.3l0.1,2.7c0,11.5-0.8,19.8-2.3,25c-1,3.4-2.8,5.2-5.4,5.2
		c-2.7,0-5.4-1-8-2.9c-2.9-2.2-4.4-4.6-4.4-7.4c0-1.9,0.8-2.8,2.4-2.8S-8.9,6.2-8.9,8c0,1.3,0.9,2.5,2.7,3.8c1.8,1.2,3.4,1.8,5,1.8
		C0.1,13.7,1,9.8,1.5,2c0.2-3.7,0.3-8.3,0.3-13.8c0-0.4,0-1.3-0.1-2.5c0,0-6.3-0.1-6.9-0.1c-0.7,0-1.3-0.2-1.7-0.6
		c-0.5-0.4-0.7-1-0.7-1.8c0-1.6,1.1-2.4,3.2-2.4c0.5,0,1.3,0,2.4,0.1c1,0,1.8,0.1,2.3,0.1c1,0,2.4-0.1,4.4-0.2
		c1.9-0.1,3.4-0.2,4.4-0.2c3.5,0,5.3,0.9,5.3,2.7c0,0.6-0.2,1.2-0.6,1.6C13.3-14.5,12.7-14.2,12-14.2z"/>
</g>
<g id="I">
	<path fill="#6CBE45" d="M11.5-12.9c-1.2,0-2.7-0.1-4.5-0.3l-4.5-0.5C2.2-9,2-4.5,2-0.2C2,0.9,2.2,7,2.2,8.2c0,1.5-0.1,3.6-0.2,4.8
		l8.7-0.1c0.8,0,1.4,0.2,2,0.7c0.5,0.5,0.8,1.1,0.8,1.8c0,0.7-0.3,1.3-0.8,1.8c-0.5,0.5-1.2,0.7-2,0.7c-1,0-2.6,0-4.6,0.1
		C4,18,2.5,18,1.4,18c-1.2,0-9.7,0.2-11,0.2c-0.8,0-1.4-0.2-2-0.7c-0.5-0.5-0.8-1.1-0.8-1.8c0-0.7,0.3-1.3,0.8-1.8
		c0.5-0.5,1.2-0.7,2-0.7c1.2,0,3.2-0.2,6-0.5c0.2-1.3-0.1-11.5-0.1-12.6c0-3.7,0.3-8.4,0.8-14l-3.6,0.1l-3.6,0.1
		c-0.8,0-1.5-0.2-2-0.7c-0.5-0.5-0.8-1.1-0.8-1.8c0-1.5,0.9-2.3,2.6-2.5c1.5-0.1,4.3-0.2,8.4-0.2c3.7,0,8.3,0.3,13.8,1
		c1.6,0.2,2.5,1.1,2.5,2.6c0,0.8-0.3,1.4-0.9,1.8C12.9-13.1,12.2-12.9,11.5-12.9z"/>
</g>
<g id="H">
	<path fill="#6CBE45" d="M13.3,10.2c0.2,2.3,0.2,4.1,0.2,5.2c0,0.6-0.2,1.2-0.6,1.6c-0.4,0.4-0.9,0.6-1.4,0.6
		c-0.6,0-1.5-0.2-1.9-0.6c-0.4-0.4-0.6-1.1-0.6-1.7c0-1.2-0.1-2.6-0.3-4.9c-0.2-2.3-0.2-4-0.2-5.2c0-1.1,0.1-3.3,0.1-4.4
		C6.4,0.9,4.6,1.1,1,1.5l-8.9,0.4c0,1.4-0.2,6.2-0.4,8.7C-8.6,13-8.7,15-8.7,16.4c0,0.6-0.2,1.2-0.6,1.6c-0.4,0.4-1.1,0.6-1.7,0.6
		c-0.6,0-1-0.2-1.4-0.7c-0.4-0.4-0.6-1-0.6-1.6c0-1.6,0.1-4,0.4-7.2c0.2-3.2,0.6-24.5,0.6-25.7c0-0.6,0.2-1.2,0.6-1.6
		c0.4-0.4,1.2-0.7,1.8-0.7c1.9,0,2.4,1.4,2.4,2c0,1.2-0.3,14.1-0.3,14.1l9.2-0.4c4.1-0.2,4.8-0.6,7.2-0.6C9-5.9,9.1-8.2,9.1-12.6
		c0-1.2,0.1-2,0.1-3.2c0-1.9,1.7-2.8,2.5-2.8c0.5,0,1.6,0.1,2,0.5s0.6,0.9,0.6,1.6C14.2-16.2,13.2,7.9,13.3,10.2z"/>
</g>
<g id="G">
	<path fill="#6CBE45" d="M7.7,13.9c-2.9,2.8-6.2,4.2-10.1,4.2c-3.5,0-6.2-1-8-3.1c-1.8-2.1-2.7-5.2-2.7-9.4c0-3.9,0.9-8,2.6-12.2
		c1.8-4.2,4-7.6,6.8-10.1c1.8-1.7,3.8-2.6,5.8-2.6c1.3,0,3,0.5,5.2,1.4c2.6,1.1,3.9,2.3,3.9,3.6c0,0.6-0.2,1.2-0.6,1.7
		C10.3-12.2,9.8-12,9.2-12c-0.3,0-0.8-0.2-1.3-0.6c-2.2-1.4-4.1-2.1-5.6-2.1c-1.1,0-2.2,0.6-3.4,1.8c-0.6,0.6-1.4,1.7-2.5,3.2
		c-3.3,4.7-5,9.7-5,15.2c0,2.9,0.4,4.9,1.2,6c0.9,1.2,2.6,1.9,5,1.9c2.6,0,4.8-0.9,6.7-2.6c2-1.8,3.4-5.7,4.2-9.1
		c-4,0.2-6.6,0-9.8,0.3c-0.4,0-0.7,0-1-0.1c-0.6-0.2-1-0.7-1.2-1.3c-0.2-0.6-0.2-1.2,0-1.8C-3.2-2-2.6-2.5-1.7-2.7
		C1.9-3.4,4-3.1,11.6-3.1c0.6,0,2.3-0.1,2.3,1.2C13.9,0.8,10.6,11.1,7.7,13.9z"/>
</g>
<g id="F">
	<path fill="#6CBE45" d="M11.7-17.8C9.4-18.6,6.2-19,2.2-19c-1.5,0-14.4-0.1-14.7,3.3c0,0.5-0.5,29.1-0.5,30.8
		c0,0.6,0.2,1.1,0.7,1.6c0.5,0.4,1.1,0.6,1.8,0.6c0.7,0,1.3-0.2,1.7-0.6c0.5-0.4,0.4-1,0.4-1.6c0,0,0.1-13,0.1-13.4l6.8-0.3L4.5,1
		C6,0.8,6.7,0.1,6.7-1.2c0-0.7-0.2-1.2-0.7-1.6C5.5-3.3,4.9-3.5,4.2-3.5C3.4-3.5,1.5-3.3-1.7-3l-6.5,0.3C-7.9-6.2-7.8-9-7.8-11
		c0-0.6-0.3-1.8,0.5-2.4c1.5-1.1,8.1-1.1,9.4-1.1c2.6,0,5.2,0.3,8,1c0.3,0.1,0.5,0.1,0.8,0.1c0.7,0,1.3-0.2,1.8-0.7
		c0.4-0.4,0.6-1,0.6-1.5C13.4-16.7,12.8-17.4,11.7-17.8z"/>
</g>
<g id="E">
	<path fill="#6CBE45" d="M11-13.4c-0.2,0-0.5,0-0.8-0.1c-2.8-0.7-5.4-1-8-1c-1.3,0-7.3,0.1-8.8,1.1c-0.8,0.6-1.2,2.1-1.2,2.7
		c0,2-0.1,4.4-0.4,7.9L-1.7-3c3.2-0.3,5.1-0.4,5.8-0.4c0.7,0,1.3,0.2,1.8,0.6c0.5,0.4,0.7,0.9,0.7,1.6c0,1.3-0.8,2-2.3,2.2l-5.9,0.5
		l-6.7,0.3c-0.1,1-0.1,2.2-0.1,3.1c0,0.9-0.1,2.6-0.1,3.4c0,3.2,0.6,4.1,1.1,4.6c0.4,0.4,1.7,0.6,3.9,0.6c1,0,2.5,0,4.6-0.1
		c2-0.1,3.6-0.1,4.6-0.1c0.3,0,0.8,0,1.5-0.1C7.9,13,8.3,13,8.6,13c1.7,0,2.6,0.8,2.6,2.2c0,1.2-0.7,1.9-2.1,2.2
		c-1.5,0.3-4.9,0.4-10,0.4c-5.1,0-8.3-0.6-9.8-1.8c-1.6-1.3-2.4-4.2-2.4-8.9c0-0.9,0-1.9,0.1-3c0-1.1,0.3-19.3,0.4-19.9
		C-12.2-19.1,0.7-19,2.2-19c4,0,7.2,0.4,9.5,1.3c1.1,0.4,1.6,1.1,1.6,2.1c0,0.6-0.2,1.1-0.6,1.5C12.3-13.7,11.7-13.4,11-13.4z"/>
</g>
<g id="D">
	<path fill="#6CBE45" d="M7,15.7c-2.4,1.6-5.8,2.4-10.2,2.4c-1.1,0-2.4-0.2-3.8-0.5c-1.7-0.4-3-0.9-3.9-1.6h-0.2
		c-0.7,0-1.2-0.2-1.6-0.7c-0.4-0.5-0.7-1-0.7-1.7c0-1.6,0.1-4,0.2-7.2c0.1-3.2,0.2-5.6,0.2-7.2c0-1.8,0-4.4-0.1-8
		c-0.1-3.5-0.1-5.6-0.1-7.3c0-0.6,0.3-1.3,1-2c0.6-0.7,1.3-1,1.9-1c8.6-0.4,16.1,4.8,19.1,7.9c3.6,3.6,5,9.3,5,13.6
		c0,2.6-0.6,5.1-1.8,7.5C10.8,12.3,9.1,14.3,7,15.7z M2.3-10.4c-3.2-2.1-5-3.4-10.9-3.3l0.1,6.6l0.1,6.6l-0.4,12.5
		c0.1,0,0.3,0.1,0.5,0.3c1.3,0.9,3,1.3,5.1,1.3c3.5,0,6-0.5,7.6-1.6c1.5-1,2.7-2.4,3.5-4.1c0.9-1.7,1.3-3.5,1.3-5.3
		C9.2-1.7,7-7.3,2.3-10.4z"/>
</g>
<g id="C">
	<path fill="#6CBE45" d="M11.5-10.1c-1,0-1.1-0.6-1.7-1.8c-0.5-1.1-1.5-2.3-1.9-2.6c-0.3-0.2-1.2-0.3-2.5-0.3
		c-2.3,0-5.6,2.5-8.4,6.1C-6.9-3.7-8.8,0.9-8.8,5.3c0,2.1,1.3,4.6,2.6,6.1c1.4,1.6,3,2.4,4.9,2.4c1.7,0,4-1.1,5.6-1.9
		c0.9-0.5,2.4-1.5,4.3-2.9c0.9-0.7,1-1,1.4-1c0.7,0,1.3,0.3,1.7,0.8c0.5,0.5,0.7,1.1,0.7,1.8c0,0.7-0.3,1.4-0.9,1.9
		c-4.2,3.8-8.5,5.8-12.9,5.8c-3.3,0-6.1-1.3-8.4-3.9c-2.2-2.5-3.3-5.5-3.3-9c0-5.6,2.3-11.3,6.8-17.1c3.8-4.9,7.6-7.3,11.5-7.3
		c0.8,0,1.5,0.1,2.1,0.1c4.2,0.1,6.3,4.3,6.3,6.2c0,0.7-0.2,1.3-0.5,1.8C12.9-10.4,12.3-10.1,11.5-10.1z"/>
</g>
<g id="B">
	<path fill="#6CBE45" d="M5.2,15.7c-4,1.3-9,2-15.2,2c-0.8,0-1.5-0.3-2.2-0.9c-0.7-0.6-1-1.3-1-1.9V8.2c0-2.2,0.4-16.8,0.4-18.8
		c0-1.4,0-2.9,0.2-5.7c0.1-0.8,0.5-1.8,0.9-2.1c2.4-0.6,5.8-1,8.8-1c3.1,0,6.1,0.9,8.9,2.7c3.3,2.1,4.9,4.7,4.9,7.8
		c0,3.9-1.3,8-6.4,8c4.1,0,6.5,3,7.5,4.3c1,1.3,1.5,2.7,1.5,4.1c0,1.8-1.2,3.6-3.5,5.4C8.7,14.2,7,15.1,5.2,15.7z M1,1.1
		c-2.7-0.8-8.3-0.8-9.4-0.9c-0.1,1.9-0.2,6.6-0.2,8.1l-0.1,4.5C-3.9,12.5,1,12.3,4,11.3c1.3-0.4,2.5-1.1,3.7-1.9
		c1.1-0.8,1.3-1.3,1.3-1.7C9.1,7,8.1,5.4,6.4,4C4.4,2.4,2.8,1.6,1,1.1z M-2.4-14.6c-2,0-5.3,0.3-6.2,0.4l0,3.6l0.5,7
		c2.7,0.2,6.3-0.2,6.5-0.3C1.3-4.1,2.8-4,4.6-5.3c1.9-1.4,2.2-1.3,2.2-3.5c0-1.4-1-2.8-2.9-4C1.9-14-0.2-14.6-2.4-14.6z"/>
</g>
<g id="A">
	<path fill="#6CBE45" d="M11.5,17.7C10.2,17.7,9,15.8,8,12c-0.4-1.5-0.9-4.5-1.5-8.2C5,4-4.7,4.7-4.7,4.7c-0.7,2.1-2.8,7.4-4.6,11.5
		c-0.5,0.9-1.1,1.4-1.9,1.4c-0.6,0-1.1-0.2-1.6-0.7c-0.5-0.5-0.7-1.1-0.7-1.8c0-0.8,9-20.4,11.6-24.9C1.7-15.9,3.9-19,4.7-19
		c1.2,0,2,0.9,2.4,2.7l1.4,8.2l3.3,16.9l1.3,3.8c0.4,1.3,0.6,2.2,0.6,2.6c0,0.7-0.2,1.3-0.7,1.8C12.7,17.5,12.1,17.7,11.5,17.7z
		 M3.6-10.1l-5.7,10C0.3-0.8,1.6,0,5.4-0.7L3.6-10.1z"/>
</g>
</svg>
