<svg xmlns="http://www.w3.org/2000/svg" xmlns:xlink="http://www.w3.org/1999/xlink" viewBox="0 0 352.65 279.85"><defs><style>.cls-1,.cls-3{fill:#fff;}.cls-10,.cls-11,.cls-12,.cls-13,.cls-14,.cls-15,.cls-16,.cls-2,.cls-3,.cls-4,.cls-5,.cls-6,.cls-7,.cls-8,.cls-9{stroke:#231f20;stroke-miterlimit:10;}.cls-2{fill:url(#linear-gradient);}.cls-4{fill:none;}.cls-5{fill:url(#linear-gradient-2);}.cls-6{fill:url(#linear-gradient-3);}.cls-7{fill:url(#linear-gradient-4);}.cls-8{fill:url(#linear-gradient-5);}.cls-9{fill:url(#linear-gradient-6);}.cls-10{fill:url(#linear-gradient-7);}.cls-11{fill:url(#linear-gradient-8);}.cls-12{fill:url(#linear-gradient-9);}.cls-13{fill:url(#radial-gradient);}.cls-14{fill:url(#linear-gradient-10);}.cls-15{fill:url(#linear-gradient-11);}.cls-16{fill:#231f20;}</style><linearGradient id="linear-gradient" x1="107.96" y1="173.82" x2="351.72" y2="173.82" gradientUnits="userSpaceOnUse"><stop offset="0.02" stop-color="#e93e3a"/><stop offset="0.14" stop-color="#ed683c"/><stop offset="0.39" stop-color="#f3903f"/><stop offset="0.79" stop-color="#fdc70c"/><stop offset="0.83" stop-color="#fdca10"/><stop offset="0.87" stop-color="#fed51b"/><stop offset="0.91" stop-color="#fee72e"/><stop offset="0.93" stop-color="#fff33b"/></linearGradient><linearGradient id="linear-gradient-2" x1="111.92" y1="153.55" x2="173.56" y2="117.88" gradientUnits="userSpaceOnUse"><stop offset="0" stop-color="#ea513b"/><stop offset="0.12" stop-color="#e87237"/><stop offset="0.2" stop-color="#ef7c3f"/><stop offset="0.57" stop-color="#fcc215"/><stop offset="0.77" stop-color="#fdc70c"/><stop offset="0.84" stop-color="#fdca10"/><stop offset="0.9" stop-color="#fed51b"/><stop offset="0.96" stop-color="#fee72e"/><stop offset="0.99" stop-color="#fff33b"/></linearGradient><linearGradient id="linear-gradient-3" x1="191.05" y1="119.83" x2="271.61" y2="38.25" xlink:href="#linear-gradient-2"/><linearGradient id="linear-gradient-4" x1="295.94" y1="160.15" x2="326.34" y2="113.66" xlink:href="#linear-gradient-2"/><linearGradient id="linear-gradient-5" x1="322.04" y1="253.03" x2="304.87" y2="194.87" xlink:href="#linear-gradient-2"/><linearGradient id="linear-gradient-6" x1="225.94" y1="288.87" x2="243.9" y2="227.37" xlink:href="#linear-gradient-2"/><linearGradient id="linear-gradient-7" x1="202.79" y1="231.26" x2="250.63" y2="135.44" xlink:href="#linear-gradient-2"/><linearGradient id="linear-gradient-8" x1="126.54" y1="252.9" x2="156.42" y2="196.2" xlink:href="#linear-gradient-2"/><linearGradient id="linear-gradient-9" x1="297.53" y1="497.17" x2="297.53" y2="497.17" gradientUnits="userSpaceOnUse"><stop offset="0.02" stop-color="#ab2b27"/><stop offset="0.14" stop-color="#bc532e"/><stop offset="0.45" stop-color="#f3903f"/><stop offset="0.66" stop-color="#fcc215"/><stop offset="0.75" stop-color="#fdc70c"/><stop offset="0.8" stop-color="#fdca10"/><stop offset="0.86" stop-color="#fed51b"/><stop offset="0.91" stop-color="#fee72e"/><stop offset="0.93" stop-color="#fff33b"/></linearGradient><radialGradient id="radial-gradient" cx="141.11" cy="284.63" fx="120.76376222453612" fy="262.8663371905595" r="52.62" gradientTransform="translate(0 156.04) scale(1 0.45)" gradientUnits="userSpaceOnUse"><stop offset="0.24" stop-color="#231f20"/><stop offset="0.65" stop-color="#231f20"/><stop offset="1" stop-color="#231f20"/></radialGradient><linearGradient id="linear-gradient-10" x1="212.2" y1="291.69" x2="320.4" y2="291.69" gradientUnits="userSpaceOnUse"><stop offset="0.41" stop-color="#9b9da0"/><stop offset="0.85" stop-color="#fff"/><stop offset="1" stop-color="#231f20"/></linearGradient><linearGradient id="linear-gradient-11" x1="201.59" y1="10.93" x2="250.28" y2="10.93" xlink:href="#linear-gradient-10"/></defs><g id="Layer_2" data-name="Layer 2"><polygon class="cls-1" points="291.62 68.75 169.74 69.72 107.96 174.79 168.06 278.89 289.94 277.92 351.72 172.85 291.62 68.75"/><polygon class="cls-1" points="264.97 240.44 193.07 240.02 157.51 177.53 193.85 115.45 265.75 115.87 301.31 178.36 264.97 240.44"/><line class="cls-1" x1="193.85" y1="115.45" x2="169.74" y2="69.72"/><line class="cls-1" x1="107.96" y1="174.79" x2="157.51" y2="177.53"/><line class="cls-1" x1="168.06" y1="278.89" x2="193.07" y2="240.02"/><line class="cls-1" x1="289.94" y1="277.92" x2="264.97" y2="240.44"/><line class="cls-1" x1="301.31" y1="178.36" x2="351.72" y2="172.85"/><line class="cls-1" x1="265.75" y1="115.87" x2="291.62" y2="68.75"/><line class="cls-1" x1="130.69" y1="36.79" x2="130.69" y2="44.21"/><line class="cls-1" x1="211.15" y1="37.7" x2="211.15" y2="43.3"/><polygon class="cls-1" points="169.74 69.72 107.96 174.79 157.51 177.53 193.85 115.45 169.74 69.72"/><polygon class="cls-1" points="265.75 115.87 291.62 68.75 169.74 69.72 193.85 115.45 265.75 115.87"/><polygon class="cls-1" points="301.31 178.36 351.72 172.85 291.62 68.75 265.75 115.87 301.31 178.36"/><polygon class="cls-1" points="301.31 178.36 351.72 172.85 289.94 277.92 264.97 240.44 301.31 178.36"/><polygon class="cls-1" points="193.07 240.02 264.97 240.44 289.94 277.92 168.06 278.89 193.07 240.02"/><polygon class="cls-1" points="157.51 177.53 193.85 115.45 265.75 115.87 301.31 178.36 264.97 240.44 193.07 240.02 157.51 177.53"/><polygon class="cls-1" points="107.96 174.79 157.51 177.53 193.07 240.02 168.06 278.89 107.96 174.79"/><path class="cls-1" d="M297.53,497.17" transform="translate(-77.51 -246.32)"/><path class="cls-1" d="M212.2,283.57c-4.28-15.8-32.54-28-66.8-28C108.18,255.56,78,270,78,287.73s30.17,32.18,67.39,32.18c34.26,0,62.52-12.21,66.8-28Z" transform="translate(-77.51 -246.32)"/><path class="cls-1" d="M290.83,268.21v16.33C279.35,283.6,262.19,283,243,283c-11.21,0-21.71.2-30.81.56v7.57c9.1.35,19.6.56,30.81.56,19.18,0,36.34-.6,47.82-1.54v25H320.4v-47Z" transform="translate(-77.51 -246.32)"/><rect class="cls-1" x="201.59" y="0.5" width="48.7" height="20.87"/><ellipse class="cls-1" cx="247.89" cy="6.59" rx="2.39" ry="4.78"/><rect class="cls-1" x="190.67" y="163.27" width="76.07" height="28.51"/><rect class="cls-1" x="197.45" y="167.82" width="62.5" height="19.43"/><polygon class="cls-2" points="291.62 68.75 169.74 69.72 107.96 174.79 168.06 278.89 289.94 277.92 351.72 172.85 291.62 68.75"/><polygon class="cls-3" points="264.97 240.44 193.07 240.02 157.51 177.53 193.85 115.45 265.75 115.87 301.31 178.36 264.97 240.44"/><line class="cls-4" x1="193.85" y1="115.45" x2="169.74" y2="69.72"/><line class="cls-4" x1="107.96" y1="174.79" x2="157.51" y2="177.53"/><line class="cls-4" x1="168.06" y1="278.89" x2="193.07" y2="240.02"/><line class="cls-4" x1="289.94" y1="277.92" x2="264.97" y2="240.44"/><line class="cls-4" x1="301.31" y1="178.36" x2="351.72" y2="172.85"/><line class="cls-4" x1="265.75" y1="115.87" x2="291.62" y2="68.75"/><line class="cls-4" x1="130.69" y1="36.79" x2="130.69" y2="44.21"/><line class="cls-4" x1="211.15" y1="37.7" x2="211.15" y2="43.3"/><polygon class="cls-5" points="169.74 69.72 107.96 174.79 157.51 177.53 193.85 115.45 169.74 69.72"/><polygon class="cls-6" points="265.75 115.87 291.62 68.75 169.74 69.72 193.85 115.45 265.75 115.87"/><polygon class="cls-7" points="301.31 178.36 351.72 172.85 291.62 68.75 265.75 115.87 301.31 178.36"/><polygon class="cls-8" points="301.31 178.36 351.72 172.85 289.94 277.92 264.97 240.44 301.31 178.36"/><polygon class="cls-9" points="193.07 240.02 264.97 240.44 289.94 277.92 168.06 278.89 193.07 240.02"/><polygon class="cls-10" points="157.51 177.53 193.85 115.45 265.75 115.87 301.31 178.36 264.97 240.44 193.07 240.02 157.51 177.53"/><polygon class="cls-11" points="107.96 174.79 157.51 177.53 193.07 240.02 168.06 278.89 107.96 174.79"/><path class="cls-12" d="M297.53,497.17" transform="translate(-77.51 -246.32)"/><path class="cls-13" d="M212.2,283.57c-4.28-15.8-32.54-28-66.8-28C108.18,255.56,78,270,78,287.73s30.17,32.18,67.39,32.18c34.26,0,62.52-12.21,66.8-28Z" transform="translate(-77.51 -246.32)"/><path class="cls-14" d="M290.83,268.21v16.33C279.35,283.6,262.19,283,243,283c-11.21,0-21.71.2-30.81.56v7.57c9.1.35,19.6.56,30.81.56,19.18,0,36.34-.6,47.82-1.54v25H320.4v-47Z" transform="translate(-77.51 -246.32)"/><rect class="cls-15" x="201.59" y="0.5" width="48.7" height="20.87"/><ellipse class="cls-3" cx="247.89" cy="6.59" rx="2.39" ry="4.78"/><rect class="cls-16" x="190.67" y="163.27" width="76.07" height="28.51"/><rect class="cls-3" x="197.45" y="167.82" width="62.5" height="19.43"/><polygon class="cls-4" points="291.62 68.75 169.74 69.72 107.96 174.79 168.06 278.89 289.94 277.92 351.72 172.85 291.62 68.75"/><polygon class="cls-4" points="264.97 240.44 193.07 240.02 157.51 177.53 193.85 115.45 265.75 115.87 301.31 178.36 264.97 240.44"/><line class="cls-4" x1="193.85" y1="115.45" x2="169.74" y2="69.72"/><line class="cls-4" x1="107.96" y1="174.79" x2="157.51" y2="177.53"/><line class="cls-4" x1="168.06" y1="278.89" x2="193.07" y2="240.02"/><line class="cls-4" x1="289.94" y1="277.92" x2="264.97" y2="240.44"/><line class="cls-4" x1="301.31" y1="178.36" x2="351.72" y2="172.85"/><line class="cls-4" x1="265.75" y1="115.87" x2="291.62" y2="68.75"/><line class="cls-4" x1="130.69" y1="36.79" x2="130.69" y2="44.21"/><line class="cls-4" x1="211.15" y1="37.7" x2="211.15" y2="43.3"/><polygon class="cls-4" points="169.74 69.72 107.96 174.79 157.51 177.53 193.85 115.45 169.74 69.72"/><polygon class="cls-4" points="265.75 115.87 291.62 68.75 169.74 69.72 193.85 115.45 265.75 115.87"/><polygon class="cls-4" points="301.31 178.36 351.72 172.85 291.62 68.75 265.75 115.87 301.31 178.36"/><polygon class="cls-4" points="301.31 178.36 351.72 172.85 289.94 277.92 264.97 240.44 301.31 178.36"/><polygon class="cls-4" points="193.07 240.02 264.97 240.44 289.94 277.92 168.06 278.89 193.07 240.02"/><polygon class="cls-4" points="157.51 177.53 193.85 115.45 265.75 115.87 301.31 178.36 264.97 240.44 193.07 240.02 157.51 177.53"/><polygon class="cls-4" points="107.96 174.79 157.51 177.53 193.07 240.02 168.06 278.89 107.96 174.79"/><path class="cls-4" d="M297.53,497.17" transform="translate(-77.51 -246.32)"/><path class="cls-4" d="M212.2,283.57c-4.28-15.8-32.54-28-66.8-28C108.18,255.56,78,270,78,287.73s30.17,32.18,67.39,32.18c34.26,0,62.52-12.21,66.8-28Z" transform="translate(-77.51 -246.32)"/><path class="cls-4" d="M290.83,268.21v16.33C279.35,283.6,262.19,283,243,283c-11.21,0-21.71.2-30.81.56v7.57c9.1.35,19.6.56,30.81.56,19.18,0,36.34-.6,47.82-1.54v25H320.4v-47Z" transform="translate(-77.51 -246.32)"/><rect class="cls-4" x="201.59" y="0.5" width="48.7" height="20.87"/><ellipse class="cls-4" cx="247.89" cy="6.59" rx="2.39" ry="4.78"/><rect class="cls-4" x="190.67" y="163.27" width="76.07" height="28.51"/><rect class="cls-4" x="197.45" y="167.82" width="62.5" height="19.43"/></g></svg>