<?xml version="1.0" encoding="utf-8"?>
<!-- Generator: Adobe Illustrator 16.0.4, SVG Export Plug-In . SVG Version: 6.00 Build 0)  -->
<!DOCTYPE svg PUBLIC "-//W3C//DTD SVG 1.1//EN" "http://www.w3.org/Graphics/SVG/1.1/DTD/svg11.dtd">
<svg version="1.1" xmlns="http://www.w3.org/2000/svg" xmlns:xlink="http://www.w3.org/1999/xlink" x="0px" y="0px" width="180px"
	 height="500px" viewBox="0 0 180 500" enable-background="new 0 0 180 500" xml:space="preserve">
<g id="Rough">
	<path fill="#009444" stroke="#009444" stroke-miterlimit="10" d="M89,14c-20.549,0-41.893-0.802-58.754,11.171
		C10.589,39.127,11.115,61.071,10,82.997c-1.118,21.968,8.879,40.601,18.278,59.284c11.482,22.825,6.485,50.282,13.507,74.692
		c5.853,20.349,7.277,49.297,4.461,71.023C43.212,311.398,32,330.069,32,353c0,22.114,1.79,44.116,2,65.804
		c0.187,19.228,8.586,42.783,27.174,51.474c19.469,9.103,49.691,9.289,66.051-4.254c22.572-18.686,18.43-48.066,22.049-74.443
		c3.513-25.6,2.813-53.603,1.722-79.561c-1.119-26.621-10.966-50.899-10.996-77.82c-0.029-26.084,16.153-48.12,15.996-74.228
		c-0.076-12.684-3.618-24.091-4.996-36.271c-1.362-12.046,1.005-19.979,3.223-31.482c3.819-19.814,9.115-47.111-6.248-63.793
		C135.57,14.955,109.785,10.337,91.948,11C85.103,11.254,79.492,13.045,73,14"/>
</g>
<g id="Layer_1">
	<path fill="#39B54A" d="M105.021,452.96v-18.645c0.101-0.604,0.212-1.209,0.349-1.817c0.496-2.217,0.987-4.766,0.604-6.998
		c-0.12-0.696-0.425-1.218-0.952-1.628v-1.705H79.174v36.961c-0.06,0.387-0.107,0.782-0.12,1.205
		c-0.008,0.269,0.036,0.525,0.12,0.771v3.729h21.535c0.261,0.022,0.521,0.022,0.784,0h3.527v-3.251
		C105.602,458.804,105.374,455.88,105.021,452.96z"/>
	<rect x="99.917" y="441.75" fill="#F1F2F2" width="2.952" height="4.568"/>
	<rect x="82.167" y="441.75" fill="#F1F2F2" width="2.952" height="4.568"/>
</g>
<g id="Fairway">
	<path fill="#39B54A" stroke="#39B54A" stroke-miterlimit="10" d="M131.882,353.912c2.839-11.348,4.351-24.598,3.365-38.07
		c-0.51-6.973-3.217-13.273-4.831-20.018c-1.702-7.105-5.018-14.031-7.811-20.777c-2.743-6.627-6.121-12.973-8.373-19.785
		c-0.711-2.152-1.328-4.346-1.867-6.561c-0.846-4.088-1.551-8.273-2.123-12.5c0.078-5.196,0.191-10.425-0.22-15.573
		c-0.304-3.796-0.372-7.618-0.653-11.417c0.119-0.721,0.17-1.42,0.16-2.103c1.676-3.959,2.893-8.217,3.219-12.486
		c0.011-0.141,0.033-0.288,0.057-0.435c0.921-1.891,1.776-3.796,2.385-5.734c0.1-0.318,0.219-0.635,0.346-0.951
		c0.202-0.43,0.395-0.854,0.572-1.271c0.629-1.271,1.389-2.525,2.1-3.769c0.467-0.527,0.753-1.115,0.934-1.738
		c0.07-0.141,0.146-0.282,0.213-0.423c0.602-1.277,0.998-1.916,1.42-3.264c0.039-0.126,0.076-0.23,0.114-0.337
		c3.288-4.292,4.749-9.744,5.795-15.004c0.479-1.022,0.946-2.062,1.396-3.126c0.466-1.103,0.884-2.239,1.262-3.394
		c0.218-0.531,0.42-1.071,0.585-1.634c0.116-0.398,0.194-0.81,0.245-1.229c0.518-2.044,0.889-4.129,1.094-6.216
		c0.134-0.522,0.232-1.063,0.265-1.64c0.018-0.316-0.026-0.592-0.1-0.846c0.048-1.433,0.015-2.856-0.108-4.257
		c0.002-1.789-0.188-3.464-0.858-4.99c-0.33-1.248-0.75-2.455-1.258-3.617c-0.977-3.391-2.729-6.571-5.625-9.392
		c-3.322-3.235-7.459-4.597-11.673-4.552c-0.765-0.389-1.528-0.776-2.282-1.172c-3.274-1.718-6.733-2.171-10.245-2.167
		c-3.906-1.877-9.726-2.05-13.684-2.174c-4.962-0.156-10.947-0.856-15.594,1.354c-1.916,0.214-3.779,0.537-5.553,1.019
		c-3.657,0.145-7.43,1.938-10.313,5.818c-0.277,0.373-0.538,0.754-0.784,1.144c-1.854,2.371-3.276,5.376-4.126,9.181
		c-0.109,0.488-0.209,0.99-0.312,1.487c-1.993,3.806-2.278,8.043-1.628,12.242c-0.134,2.476-0.137,4.966,0.027,7.433
		c-0.888,4.478-1.134,8.929,0.851,13.695c1.688,4.052,3.628,7.351,6.594,10.632c2.721,3.011,6.671,4.637,9.926,6.944
		c0.229,0.163,0.455,0.311,0.682,0.462c1.515,1.361,3.02,2.713,4.476,4.106c0.3,0.346,0.629,0.663,0.984,0.957
		c0.533,0.527,1.056,1.063,1.571,1.608c0.199,0.292,0.436,0.566,0.705,0.827c0.006,0.192,0.03,0.388,0.085,0.589
		c0.24,0.873,1.048,1.616,1.954,1.808c0.181,0.679,0.671,1.275,1.293,1.638c1.14,1.603,2.173,3.326,3.07,5.21
		c1.541,4.884,1.419,10.29,1.836,15.731c0.666,8.678,2.648,17.062,2.958,25.781c0.309,8.684,0.132,17.396,0.132,26.083
		c0,7.379-0.219,12.916,1.136,18.582c-0.009,0.816-0.015,1.631-0.019,2.443c-0.422,1.496-0.294,3.275-0.218,4.691
		c0.052,0.969,0.127,2.08,0.274,3.211c0.058,2.717,0.164,5.412,0.322,8.082c-0.264,2.141-0.087,4.543,0.433,6.492
		c0.011,0.051,0.028,0.1,0.04,0.148c0.024,0.508,0.032,0.996,0.032,1.479c0,0.184,0,0.369,0,0.555
		c-0.044,2.443-0.396,4.559-0.984,6.438c-0.39,0.707-0.781,1.414-1.176,2.123c-0.656,1.176-1.271,2.455-1.884,3.766
		c-0.876,1.15-1.863,2.207-2.927,3.217c-0.934,0.453-1.869,0.891-2.79,1.293c-6.818,2.986-12.675,7.934-15.333,15.018
		c-0.776,2.068-1.39,4.172-1.892,6.295c-2.162,6.479-2.948,14.393-1.66,20.9c0.11,5.449,0.7,10.66,3.686,15.66
		c3.734,6.252,5.074,11.141,11.923,15.377c4.452,2.754,10.458,3.109,16.017,2.979c0.084,0.02,0.169,0.037,0.255,0.055
		c5.695,1.705,11.661,0.545,16.796-2.371c3.537-0.562,6.775-2.754,9.135-5.877c0.15-0.137,0.309-0.26,0.452-0.406
		c0.832-0.848,1.569-1.816,2.243-2.859c0.48-0.498,0.943-1.021,1.371-1.582c0.27-0.121,0.514-0.289,0.703-0.521
		c0.65-0.805,1.154-1.604,1.33-2.561c0.84-0.811,1.54-1.773,2.028-2.898c2.104-4.85,4.55-9.291,4.927-14.67
		c0.113-1.617,0.156-3.25,0.176-4.885c0.062-0.209,0.125-0.418,0.186-0.629c0.198-0.344,0.392-0.693,0.575-1.057
		c1.577-3.119,1.907-6.443,1.851-9.857c0.062-0.398,0.135-0.799,0.192-1.199C131.776,354.283,131.835,354.1,131.882,353.912z"/>
</g>
<g id="Trees">
	<g id="Tree">
		<g>
			<path fill="#754C29" d="M15.581,240.813c0-0.884,0-1.768,0-2.652c0-1.548-0.833-2.841-1.833-2.841s-1.833,1.293-1.833,2.841
				c0,0.884,0,1.768,0,2.652c0,1.548,0.833,2.841,1.833,2.841S15.581,242.361,15.581,240.813L15.581,240.813z"/>
		</g>
		<path fill="#006838" d="M18.783,231.032c0.518-0.476,0.917-1.049,1.136-1.745c0.632-2.014-0.777-2.639-2.14-3.272
			c0.725-1.771,0.66-3.62-0.388-5.67c-1.248-2.442-4.717-3.32-6.744-1.293c-1.146,1.146-1.77,2.95-2.725,4.259
			c-0.874,1.198-1.607,2.431-1.975,3.879c-0.34,1.346,0.131,2.638,1.205,3.455c0.118,0.09,0.231,0.168,0.345,0.243
			c-1.051,2.022-2.11,4.312-0.991,6.221c1.354,2.313,4.008,1.614,6.086,0.709c1.257,0.557,2.736,0.448,4.42-0.743
			c1.638-1.158,3.926-2.789,2.548-5.14C19.348,231.573,19.077,231.287,18.783,231.032z M12.039,225.946
			c-0.001-0.001-0.003-0.003-0.004-0.004c0.003-0.004,0.006-0.008,0.009-0.012C12.042,225.936,12.042,225.941,12.039,225.946z"/>
	</g>
	<g id="Tree_1_">
		<g>
			<path fill="#754C29" d="M155.333,230.19c0-0.884,0-1.768,0-2.652c0-1.548-0.833-2.841-1.833-2.841s-1.833,1.293-1.833,2.841
				c0,0.884,0,1.768,0,2.652c0,1.548,0.833,2.841,1.833,2.841S155.333,231.738,155.333,230.19L155.333,230.19z"/>
		</g>
		<path fill="#006838" d="M158.535,220.409c0.518-0.476,0.917-1.049,1.136-1.745c0.632-2.014-0.777-2.639-2.14-3.272
			c0.725-1.771,0.66-3.62-0.388-5.67c-1.248-2.442-4.717-3.32-6.744-1.293c-1.146,1.146-1.77,2.95-2.725,4.259
			c-0.874,1.198-1.607,2.431-1.975,3.879c-0.34,1.346,0.131,2.638,1.205,3.455c0.118,0.09,0.231,0.168,0.345,0.243
			c-1.051,2.022-2.11,4.312-0.991,6.221c1.354,2.313,4.008,1.614,6.086,0.709c1.257,0.557,2.736,0.448,4.42-0.743
			c1.638-1.158,3.926-2.789,2.548-5.14C159.101,220.95,158.829,220.664,158.535,220.409z M151.791,215.323
			c-0.001-0.001-0.003-0.003-0.004-0.004c0.003-0.004,0.006-0.008,0.009-0.012C151.794,215.312,151.794,215.318,151.791,215.323z"/>
	</g>
	<g id="Tree_2_">
		<g>
			<path fill="#754C29" d="M158.734,260.872c0-0.884,0-1.769,0-2.652c0-1.548-0.833-2.841-1.833-2.841s-1.833,1.293-1.833,2.841
				c0,0.884,0,1.769,0,2.652c0,1.548,0.833,2.841,1.833,2.841S158.734,262.42,158.734,260.872L158.734,260.872z"/>
		</g>
		<path fill="#006838" d="M161.937,251.092c0.518-0.476,0.917-1.049,1.136-1.745c0.632-2.014-0.777-2.639-2.14-3.272
			c0.725-1.771,0.66-3.62-0.388-5.67c-1.248-2.442-4.717-3.32-6.744-1.293c-1.146,1.146-1.77,2.95-2.725,4.259
			c-0.874,1.198-1.607,2.431-1.975,3.879c-0.34,1.346,0.131,2.638,1.205,3.455c0.118,0.09,0.231,0.168,0.345,0.243
			c-1.051,2.022-2.11,4.311-0.991,6.221c1.354,2.313,4.008,1.614,6.086,0.709c1.257,0.557,2.736,0.448,4.42-0.743
			c1.638-1.158,3.926-2.789,2.548-5.14C162.502,251.633,162.23,251.346,161.937,251.092z M155.192,246.005
			c-0.001-0.001-0.003-0.003-0.004-0.004c0.003-0.004,0.006-0.008,0.009-0.012C155.195,245.995,155.195,246,155.192,246.005z"/>
	</g>
	<g id="Tree_3_">
		<g>
			<path fill="#754C29" d="M31.242,234.764c0-0.884,0-1.768,0-2.652c0-1.547-0.833-2.84-1.833-2.84s-1.833,1.293-1.833,2.84
				c0,0.885,0,1.769,0,2.652c0,1.549,0.833,2.842,1.833,2.842S31.242,236.312,31.242,234.764L31.242,234.764z"/>
		</g>
		<path fill="#006838" d="M34.444,224.983c0.518-0.476,0.917-1.049,1.136-1.745c0.632-2.014-0.777-2.639-2.14-3.272
			c0.725-1.771,0.66-3.62-0.388-5.67c-1.248-2.442-4.717-3.32-6.744-1.293c-1.146,1.146-1.77,2.95-2.725,4.259
			c-0.874,1.198-1.607,2.431-1.975,3.879c-0.34,1.346,0.131,2.638,1.205,3.455c0.118,0.09,0.231,0.168,0.345,0.243
			c-1.051,2.022-2.11,4.312-0.991,6.222c1.354,2.312,4.008,1.613,6.086,0.709c1.257,0.557,2.736,0.447,4.42-0.744
			c1.638-1.158,3.926-2.789,2.548-5.139C35.009,225.524,34.738,225.238,34.444,224.983z M27.7,219.897
			c-0.001-0.001-0.003-0.003-0.004-0.004c0.003-0.004,0.006-0.008,0.009-0.012C27.703,219.887,27.703,219.893,27.7,219.897z"/>
	</g>
	<g id="Tree_4_">
		<g>
			<path fill="#754C29" d="M21.5,260.492c0-0.884,0-1.768,0-2.652c0-1.547-0.833-2.84-1.833-2.84s-1.833,1.293-1.833,2.84
				c0,0.885,0,1.769,0,2.652c0,1.549,0.833,2.842,1.833,2.842S21.5,262.041,21.5,260.492L21.5,260.492z"/>
		</g>
		<path fill="#006838" d="M24.702,250.712c0.518-0.476,0.917-1.049,1.136-1.745c0.632-2.014-0.777-2.639-2.14-3.272
			c0.725-1.771,0.66-3.62-0.388-5.67c-1.248-2.442-4.717-3.32-6.744-1.293c-1.146,1.146-1.77,2.95-2.725,4.259
			c-0.874,1.198-1.607,2.431-1.975,3.879c-0.34,1.346,0.131,2.638,1.205,3.455c0.118,0.09,0.231,0.168,0.345,0.243
			c-1.051,2.022-2.11,4.312-0.991,6.222c1.354,2.312,4.008,1.613,6.086,0.709c1.257,0.557,2.736,0.447,4.42-0.744
			c1.638-1.158,3.926-2.789,2.548-5.139C25.268,251.253,24.996,250.967,24.702,250.712z M17.958,245.626
			c-0.001-0.001-0.003-0.003-0.004-0.004c0.003-0.004,0.006-0.008,0.009-0.012C17.961,245.615,17.961,245.621,17.958,245.626z"/>
	</g>
	<g id="Tree_5_">
		<g>
			<path fill="#754C29" d="M32.033,262.373c0-0.883,0-1.768,0-2.652c0-1.547-0.833-2.84-1.833-2.84s-1.833,1.293-1.833,2.84
				c0,0.885,0,1.77,0,2.652c0,1.549,0.833,2.842,1.833,2.842S32.033,263.922,32.033,262.373L32.033,262.373z"/>
		</g>
		<path fill="#006838" d="M35.235,252.594c0.518-0.477,0.917-1.049,1.136-1.745c0.632-2.014-0.777-2.639-2.14-3.272
			c0.725-1.771,0.66-3.62-0.388-5.67c-1.248-2.442-4.717-3.32-6.744-1.293c-1.146,1.146-1.77,2.95-2.725,4.259
			c-0.874,1.198-1.607,2.431-1.975,3.879c-0.34,1.346,0.131,2.638,1.205,3.455c0.118,0.091,0.231,0.169,0.345,0.243
			c-1.051,2.021-2.11,4.311-0.991,6.221c1.354,2.312,4.008,1.613,6.086,0.709c1.257,0.557,2.736,0.447,4.42-0.744
			c1.638-1.158,3.926-2.789,2.548-5.139C35.8,253.135,35.529,252.848,35.235,252.594z M28.491,247.507
			c-0.001-0.001-0.003-0.003-0.004-0.004c0.003-0.004,0.006-0.008,0.009-0.012C28.494,247.497,28.494,247.502,28.491,247.507z"/>
	</g>
	<g id="Tree_6_">
		<g>
			<path fill="#754C29" d="M41.774,252.158c0-0.885,0-1.768,0-2.653c0-1.547-0.833-2.84-1.833-2.84s-1.833,1.293-1.833,2.84
				c0,0.885,0,1.768,0,2.653c0,1.549,0.833,2.842,1.833,2.842S41.774,253.707,41.774,252.158L41.774,252.158z"/>
		</g>
		<path fill="#006838" d="M44.977,242.377c0.518-0.476,0.917-1.049,1.136-1.745c0.632-2.014-0.777-2.639-2.14-3.272
			c0.725-1.771,0.66-3.62-0.388-5.67c-1.248-2.442-4.717-3.32-6.744-1.293c-1.146,1.146-1.77,2.95-2.725,4.259
			c-0.874,1.198-1.607,2.431-1.975,3.879c-0.34,1.346,0.131,2.638,1.205,3.455c0.118,0.09,0.231,0.168,0.345,0.243
			c-1.051,2.022-2.11,4.312-0.991,6.222c1.354,2.312,4.008,1.613,6.086,0.709c1.257,0.557,2.736,0.447,4.42-0.744
			c1.638-1.158,3.926-2.789,2.548-5.139C45.542,242.918,45.271,242.632,44.977,242.377z M38.232,237.292
			c-0.001-0.001-0.003-0.003-0.004-0.004c0.003-0.004,0.006-0.008,0.009-0.012C38.235,237.281,38.235,237.287,38.232,237.292z"/>
	</g>
	<g id="Tree_7_">
		<g>
			<path fill="#754C29" d="M20.458,290.217c0-0.884,0-1.768,0-2.652c0-1.547-0.833-2.84-1.833-2.84s-1.833,1.293-1.833,2.84
				c0,0.885,0,1.769,0,2.652c0,1.549,0.833,2.842,1.833,2.842S20.458,291.766,20.458,290.217L20.458,290.217z"/>
		</g>
		<path fill="#006838" d="M23.66,280.437c0.518-0.476,0.917-1.049,1.136-1.745c0.632-2.014-0.777-2.639-2.14-3.271
			c0.725-1.771,0.66-3.621-0.388-5.67c-1.248-2.443-4.717-3.32-6.744-1.293c-1.146,1.145-1.77,2.949-2.725,4.258
			c-0.874,1.199-1.607,2.432-1.975,3.879c-0.34,1.346,0.131,2.639,1.205,3.455c0.118,0.091,0.231,0.169,0.345,0.243
			c-1.051,2.022-2.11,4.312-0.991,6.222c1.354,2.312,4.008,1.613,6.086,0.709c1.257,0.557,2.736,0.447,4.42-0.744
			c1.638-1.158,3.926-2.789,2.548-5.139C24.226,280.978,23.954,280.691,23.66,280.437z M16.916,275.351
			c-0.001-0.001-0.003-0.003-0.004-0.005c0.003-0.004,0.006-0.008,0.009-0.012C16.919,275.34,16.919,275.346,16.916,275.351z"/>
	</g>
	<g id="Tree_8_">
		<g>
			<path fill="#754C29" d="M38.359,285.63c0-0.884,0-1.768,0-2.652c0-1.547-0.833-2.84-1.833-2.84s-1.833,1.293-1.833,2.84
				c0,0.885,0,1.769,0,2.652c0,1.549,0.833,2.842,1.833,2.842S38.359,287.179,38.359,285.63L38.359,285.63z"/>
		</g>
		<path fill="#006838" d="M41.562,275.85c0.518-0.476,0.917-1.049,1.136-1.744c0.632-2.014-0.777-2.64-2.14-3.273
			c0.725-1.771,0.66-3.619-0.388-5.67c-1.248-2.441-4.717-3.32-6.744-1.293c-1.146,1.146-1.77,2.951-2.725,4.26
			c-0.874,1.197-1.607,2.43-1.975,3.879c-0.34,1.346,0.131,2.637,1.205,3.455c0.118,0.09,0.231,0.168,0.345,0.242
			c-1.051,2.022-2.11,4.312-0.991,6.222c1.354,2.312,4.008,1.613,6.086,0.709c1.257,0.557,2.736,0.447,4.42-0.744
			c1.638-1.158,3.926-2.789,2.548-5.139C42.127,276.391,41.855,276.104,41.562,275.85z M34.817,270.764
			c-0.001-0.002-0.003-0.003-0.004-0.004c0.003-0.004,0.006-0.008,0.009-0.012C34.82,270.753,34.82,270.759,34.817,270.764z"/>
	</g>
</g>
<g id="Water_Hazards">
	<path fill="#27AAE1" d="M132.095,205.173c-5.062,1.131-9.476,4.529-12.503,8.565c-3.466,4.62-3.842,9.884-3.842,15.412
		c0,6.313-0.374,11.789,1.913,17.765c1.282,3.348,3.124,6.147,5.039,8.917c0.834,2.278,2.476,5.382,4.518,6.866
		c1.328,1.914,4.53,0.949,4.53-1.447c0-0.077,0-0.154,0-0.23c0.058-0.113,0.114-0.229,0.161-0.354
		c1.608-4.308,0.339-10.847,0.339-15.406c0-6.972-0.328-13.378,1.911-20.095c0.82-2.461,1.436-5.085,2-7.625
		c0.583-2.626,1.839-5.044,1.839-7.79C138,205.696,136.166,204.262,132.095,205.173z"/>
</g>
<g id="Bunkers">
	<path fill="#F7941E" d="M67.792,30.649c-0.565-0.714-1.62-0.8-2.433-0.643c-4.572,0.885-9.839,5.058-13.504,7.807
		c-3.736,2.802-6.882,6.822-7.874,11.445c-0.511,2.379-0.705,6.849,1.944,8.202c0.762,1.316,2.657,1.936,3.813,0.772
		c0.849-0.257,1.838-0.656,2.821-1.17c1.792-0.71,3.568-1.478,5.254-2.32c0.718-0.359,1.335-0.835,1.895-1.375
		c2.685-1.311,4.578-3.235,6.252-5.772c1.543-2.34,2.591-5.721,2.591-8.512C68.552,35.88,69.956,33.383,67.792,30.649z
		 M48.336,51.354c0.104,0.002,0.208-0.002,0.313-0.016c-0.113,0.111-0.226,0.215-0.339,0.322
		C48.31,51.562,48.328,51.457,48.336,51.354z"/>
	<path fill="#F7941E" d="M137.619,70.705c-5.098,2.317-7.221,7.908-10.036,12.258c-0.046,0.07-0.087,0.142-0.132,0.212
		c-0.25,0.078-0.504,0.194-0.76,0.388c-1.779,1.349-3.327,2.329-4.828,4.045c-1.182,1.351-2.831,3.63-3.266,5.403
		c-0.879,3.585,0.528,8.522,4.69,9.122c0.904,0.13,1.939-0.083,2.562-0.746c1.422,0.239,3.2-0.199,4.497-0.667
		c4.707-1.7,8.297-5.44,9.371-10.34C140.591,86.396,149.438,65.332,137.619,70.705z"/>
	<path fill="#F7941E" d="M75.016,281.557c0.054-1.65,0.069-3.309,0.041-4.969c0.569-4.521,1.161-9.029,1.434-13.581
		c0.551-9.206,0.256-18.487,0.256-27.706c0-6.824-3.926-12.903-9.238-16.998c-0.946-0.729-2.409-0.323-3.183,0.556
		c-3.186-0.396-7.679,1.237-9.382,3.083c-3.635,3.939-3.297,9.06-3.113,14.104c0.22,6.038,3.082,10.959,6.594,15.732
		c0.187,0.252,0.357,0.512,0.533,0.77c0.234,0.935,0.536,1.857,0.922,2.764c0.804,1.885,1.842,3.697,2.906,5.5
		c0.133,0.459,0.256,0.92,0.37,1.385c0.324,6.68-0.347,13.233-1.014,19.786c-1.743,3.287-3.379,6.608-4.546,10.265
		c-1.547,4.838-1.346,12.408,4.287,14.486c3.824,1.412,6.98,0.926,9.621-0.764c0.031-0.01,0.07-0.018,0.102-0.025
		c1.233-0.311,2.062-1.162,2.587-2.271c1.077-1.176,2.052-2.566,2.935-4.105C80.859,293.053,78.625,287.086,75.016,281.557z
		 M58.874,242.897c-0.017,0.079-0.035,0.157-0.051,0.235c-0.044-0.083-0.089-0.167-0.131-0.25
		C58.752,242.888,58.813,242.896,58.874,242.897z"/>
</g>
<g id="Green">
	<g>
		<path fill="#39B54A" stroke="#000000" stroke-miterlimit="10" d="M131,59.999c0.976-14.765-20.168-24.926-31.9-29.26
			c-6.544-2.417-18.181-7.324-23.945-0.759c-4.313,4.92,0.449,14.754-3.429,21.066c-5.368,8.737-13.335,9.444-21.331,13.927
			c-14.438,8.096-9.285,22.266,1.829,29.25c11.462,7.202,49.416,14.128,57.521-1.398c3.204-6.137,1.317-8.771,6.043-13.885
			C122.102,72.118,130.271,71.037,131,59.999z"/>
	</g>
	<path fill="#ED1C24" d="M86.418,31.833h-0.25h-0.033l-0.02-0.051l-8.543,3.25L77.75,35.5l-0.141,0.48l8.543,2.5l0.024-0.084h0.241
		h0.125V38v-2.25v-3.5v-0.271v-0.146H86.418z M85.424,33.125h-0.025l0.026-0.01C85.425,33.118,85.425,33.122,85.424,33.125z"/>
	<circle fill="#8DC63F" cx="85.293" cy="55.6" r="3.537"/>
	<circle fill="#3C2415" cx="86.293" cy="56.538" r="3.537"/>
	<line fill="#FFFFFF" stroke="#A7A9AC" stroke-width="2" stroke-miterlimit="10" x1="86.293" y1="56.538" x2="86.293" y2="32.25"/>
	<line fill="#FFFFFF" stroke="#F1F2F2" stroke-width="2" stroke-miterlimit="10" x1="87.083" y1="56.538" x2="87.083" y2="32.25"/>
</g>
</svg>
