<?xml version="1.0" encoding="utf-8"?>
<!-- Generator: Adobe Illustrator 16.0.4, SVG Export Plug-In . SVG Version: 6.00 Build 0)  -->
<!DOCTYPE svg PUBLIC "-//W3C//DTD SVG 1.1//EN" "http://www.w3.org/Graphics/SVG/1.1/DTD/svg11.dtd">
<svg version="1.1" id="Layer_9" xmlns="http://www.w3.org/2000/svg" xmlns:xlink="http://www.w3.org/1999/xlink" x="0px" y="0px"
	 width="516px" height="563px" viewBox="0 0 516 563" enable-background="new 0 0 516 563" xml:space="preserve">
<rect id="S37" x="414.33" y="364.42" fill="#ED1C24" width="32.17" height="59.58"/>
<rect id="S36" x="379.5" y="364.42" fill="#ED1C24" width="33" height="59.58"/>
<rect id="S35" x="414.33" y="311.92" fill="#ED1C24" width="32.17" height="50.66"/>
<rect id="S34" x="379.5" y="311.92" fill="#ED1C24" width="33" height="50.66"/>
<rect id="S33" x="414.33" y="266.67" fill="#ED1C24" width="32.17" height="43.41"/>
<rect id="S32" x="379.5" y="266.67" fill="#ED1C24" width="33" height="43.41"/>
<path id="S31" fill="#ED1C24" d="M446.5,251.54v12.96h-32.27c-0.761-10.79-4.187-20.42-12.506-27.19l29.135-29.401
	C441.1,219.799,446.5,234.45,446.5,251.54z"/>
<path id="S30" fill="#ED1C24" d="M429.408,206.221l-29.718,29.568c-7.29-5.95-16.761-9.128-27.19-9.539V184h7.92
	C400.19,184,417.299,192.15,429.408,206.221z"/>
<path id="S29" fill="#ED1C24" d="M412.47,264.5l-32.97-0.375c-0.64-3.38-3.55-7.025-7-7.455v-28.42
	C394.15,228.73,411.65,245.07,412.47,264.5z"/>
<rect id="S28" x="290.58" y="229" fill="#ED1C24" width="79.75" height="29"/>
<rect id="S27_1_" x="290.58" y="184" fill="#ED1C24" width="79.75" height="43.17"/>
<rect id="S26_1_" x="210.92" y="229" fill="#ED1C24" width="77.83" height="29"/>
<rect id="S25_1_" x="210.92" y="184" fill="#ED1C24" width="77.83" height="43.17"/>
<rect id="S24_1_" x="129.33" y="229" fill="#ED1C24" width="79.75" height="29"/>
<rect id="S23_1_" x="129.33" y="184" fill="#ED1C24" width="79.75" height="43.17"/>
<path id="S22_1_" fill="#ED1C24" d="M127.5,229v29h-2c-3.91,0-7.15,2.8-7.85,6.5H84.58c0.88-11,6.84-20.71,15.74-27.18
	c7.16-5.21,16.23-8.32,26.1-8.32H127.5z"/>
<path id="S21" fill="#ED1C24" d="M127.5,184v43.18c-10.78,0.13-20.65,3.47-28.38,8.94l-29.708-30.535
	C81.462,192.435,97.56,184,116.58,184H127.5z"/>
<path id="S20" fill="#ED1C24" d="M67.208,206.651l30.21,30.738C88.268,245.08,83.18,253.09,82.62,264.5H50.5v-12.96
	C50.5,233.68,56.138,218.731,67.208,206.651z"/>
<rect id="S19" x="50.92" y="266.67" fill="#ED1C24" width="31.66" height="43.41"/>
<rect id="S17" x="84.42" y="266.67" fill="#ED1C24" width="33.5" height="43.41"/>
<rect id="S16" x="50.92" y="311.92" fill="#ED1C24" width="31.66" height="50.66"/>
<rect id="S15" x="84.42" y="311.92" fill="#ED1C24" width="33.5" height="50.66"/>
<rect id="S14" x="50.92" y="364.42" fill="#ED1C24" width="31.66" height="59.58"/>
<rect id="S13" x="84.42" y="364.42" fill="#ED1C24" width="33.5" height="59.58"/>
<path id="S12" fill="#ED1C24" d="M97.833,455.666L73.4,480.1c-14.02-12.39-22.9-30.71-22.9-51.14V426h32.29
	C83.92,437.49,89.073,448.416,97.833,455.666z"/>
<path id="S11" fill="#ED1C24" d="M127.5,466.11v30.39h-10.92c-16.51,0-29.398-4.319-40.978-14.54l24.473-24.717
	C107.855,463.714,116.4,465.54,127.5,466.11z"/>
<path id="S10" fill="#ED1C24" d="M127.5,433.67v30.62c-22.9-0.86-40.567-17.43-42.167-38.29h32.188c0.17,4.26,3.67,7.67,7.98,7.67
	H127.5z"/>
<rect id="S9" x="129.33" y="467.17" fill="#ED1C24" width="79.75" height="29.58"/>
<rect id="S8" x="129.33" y="433.92" fill="#ED1C24" width="79.75" height="31.41"/>
<rect id="S7_1_" x="210.92" y="467.17" fill="#ED1C24" width="77.83" height="29.58"/>
<rect id="S6_1_" x="210.92" y="433.92" fill="#ED1C24" width="77.83" height="31.41"/>
<rect id="S5_1_" x="290.58" y="467.17" fill="#ED1C24" width="79.75" height="29.58"/>
<rect id="S4_1_" x="290.58" y="433.92" fill="#ED1C24" width="79.75" height="31.41"/>
<path id="S3_1_" fill="#ED1C24" d="M400.56,454.06l24.601,25.19c-11.771,11.07-27.48,17.25-44.74,17.25h-7.92v-30.42
	C383.36,465.46,393.17,461,400.56,454.06z"/>
<path id="S2" fill="#ED1C24" d="M446.5,426v2.96c0,19.66-6.103,36.309-19.223,48.659L402.5,452.688
	c7.66-7.189,10.77-15.678,11.67-26.688H446.5z"/>
<path id="S1" fill="#ED1C24" d="M379.48,426h32.869c-1.699,20.81-18.729,37.32-39.85,38.29V433.6
	C376.33,433.12,379.32,429.93,379.48,426z"/>
<rect id="Whiteback" x="124.333" y="264.396" fill="#FFFFFF" width="248.17" height="161.5"/>
<path fill="#359946" d="M372.503,264.396v161.5h-248.17v-161.5H372.503z M369.833,272.837v-5.77h-0.16v-0.171h-236.07h-5.77v6.431
	v19.069h-0.09v105.5h0.09v20.131v5.77h6.439h229.631h5.77v-6.44v-19.26v-105.5v-19.72L369.833,272.837z"/>
<path fill="#359946" d="M368.673,418.227v4.57h-4c-0.06-0.25-0.08-0.479-0.08-0.71c0-2.13,1.74-3.87,3.87-3.87
	C368.533,418.217,368.603,418.217,368.673,418.227z"/>
<path fill="#359946" d="M368.673,398.097v19.13c-0.07-0.01-0.14-0.01-0.21-0.01c-2.69,0-4.87,2.18-4.87,4.87
	c0,0.23,0.021,0.46,0.061,0.71h-114.4v-53.6c12.78-0.431,23.04-10.971,23.04-23.851c0-12.89-10.26-23.43-23.04-23.859v-53.591
	h114.03c-0.021,0.131-0.03,0.25-0.03,0.381c0,2.68,2.19,4.869,4.88,4.869c0.17,0,0.351-0.01,0.54-0.04v19.49h-46.01v32.771
	c-6.771,4.439-10.811,11.88-10.811,19.979c0,8.09,4.04,15.54,10.811,19.971v32.779H368.673z"/>
<path fill="#359946" d="M368.673,369.027v28.069h-45.01v-31.13v-41.24v-31.13h45.01v27.681h-16.88v47.75H368.673z M340.333,345.347
	c0-0.47-0.38-0.85-0.85-0.85c-0.471,0-0.851,0.38-0.851,0.85c0,0.471,0.38,0.851,0.851,0.851
	C339.953,346.197,340.333,345.817,340.333,345.347z"/>
<path fill="#359946" d="M368.673,268.067v4.029c-0.189,0.04-0.37,0.05-0.54,0.05c-2.14,0-3.88-1.739-3.88-3.869
	c0-0.07,0-0.141,0.01-0.21H368.673z"/>
<rect x="352.793" y="322.277" fill="#359946" width="15.79" height="45.75"/>
<path fill="#359946" d="M322.663,326.577v37.54c-6.16-4.29-9.811-11.24-9.811-18.771
	C312.853,337.817,316.503,330.867,322.663,326.577z"/>
<path fill="#359946" d="M249.253,322.487c6.265,0.226,11.894,2.981,15.896,7.274c3.811,4.089,6.145,9.57,6.145,15.585
	c0,6.113-2.412,11.674-6.335,15.78c-3.988,4.176-9.539,6.848-15.705,7.07v-21.71c0.54-0.2,0.93-0.73,0.93-1.341
	c0-0.609-0.39-1.14-0.93-1.34V322.487z"/>
<path fill="#359946" d="M248.253,369.217v53.58h-113.85c0.01-0.07,0.01-0.14,0.01-0.21c0-2.69-2.18-4.87-4.87-4.87
	c-0.229,0-0.46,0.021-0.71,0.061v-19.881h45.92v-32.77c6.77-4.44,10.811-11.88,10.811-19.98c0-8.09-4.041-15.54-10.811-19.97v-32.78
	h-45.92v-18.93c0.07,0.01,0.141,0.01,0.21,0.01c2.69,0,4.87-2.189,4.87-4.87c0-0.229-0.02-0.46-0.061-0.71h114.4v53.57
	c-13.09,0.09-23.71,10.771-23.71,23.88C224.543,358.447,235.163,369.127,248.253,369.217z"/>
<path fill="#359946" d="M248.253,346.487v21.729c-6.546-0.047-12.446-2.856-16.591-7.316c-3.795-4.085-6.119-9.555-6.119-15.554
	c0-6.82,3.004-12.959,7.76-17.156c3.994-3.526,9.225-5.683,14.95-5.724v21.34c-0.54,0.2-0.93,0.73-0.93,1.34
	C247.323,345.757,247.713,346.287,248.253,346.487z"/>
<path fill="#359946" d="M174.753,326.377c6.16,4.29,9.811,11.24,9.811,18.77c0,7.53-3.65,14.48-9.811,18.771V326.377z"/>
<path fill="#359946" d="M173.753,365.767v31.13h-44.92v-27.68h16.8v-47.75h-16.8v-28.07h44.92v31.131V365.767z M158.782,345.146
	c0-0.47-0.379-0.85-0.85-0.85c-0.47,0-0.85,0.38-0.85,0.85c0,0.471,0.38,0.851,0.85,0.851
	C158.403,345.997,158.782,345.617,158.782,345.146z"/>
<rect x="128.833" y="322.467" fill="#359946" width="15.8" height="45.75"/>
<path fill="#359946" d="M133.413,422.587c0,0.07,0,0.14-0.01,0.21h-4.57v-4c0.25-0.06,0.48-0.08,0.71-0.08
	C131.683,418.717,133.413,420.457,133.413,422.587z"/>
<path fill="#359946" d="M132.843,267.896c0.051,0.25,0.07,0.48,0.07,0.71c0,2.131-1.73,3.87-3.87,3.87c-0.069,0-0.14,0-0.21-0.01
	v-4.57H132.843z"/>
</svg>
