<?xml version="1.0" encoding="utf-8"?>
<!-- Generator: Adobe Illustrator 15.0.2, SVG Export Plug-In . SVG Version: 6.00 Build 0)  -->
<!DOCTYPE svg PUBLIC "-//W3C//DTD SVG 1.1//EN" "http://www.w3.org/Graphics/SVG/1.1/DTD/svg11.dtd">
<svg version="1.1" id="Layer_1" xmlns="http://www.w3.org/2000/svg" xmlns:xlink="http://www.w3.org/1999/xlink" x="0px" y="0px"
	 width="595.28px" height="841.89px" viewBox="0 0 595.28 841.89" enable-background="new 0 0 595.28 841.89" xml:space="preserve">
<polygon fill-rule="evenodd" clip-rule="evenodd" fill="#E7EBEC" stroke="#000000" stroke-miterlimit="10" points="239.939,562.587 
	6.629,427.886 6.629,104.921 239.939,239.621 "/>
<polyline fill="#EEF1F2" stroke="#000000" stroke-miterlimit="10" points="6.629,104.935 239.939,239.635 416.939,137.635 
	183.525,2.921 7.004,105.033 "/>
<polygon fill="#DCE0E0" stroke="#000000" stroke-miterlimit="10" points="416.904,460.836 416.939,460.61 416.939,137.621 
	240.043,239.635 239.939,562.587 "/>
<path fill="#FBFDFF" d="M239.294,232.843L16.735,104.42l33.877-19.358L23.335,104.42c43.758,19.942,121.427,64.232,121.427,64.232
	s76.992,62.914,96.79,52.355c13.719-7.316,45.354-23.063,68.154-28.802L239.294,232.843z"/>
<polygon fill-rule="evenodd" clip-rule="evenodd" fill="#E6EAEA" points="236.43,556 8.076,424.159 8.076,108.056 236.43,239.896 
	"/>
<path fill-rule="evenodd" clip-rule="evenodd" fill="#EFF3F5" d="M9.879,111.671c0,1.592,0,5.172,0,5.172
	s186.179,108.02,191.23,107.756c5.05-0.267-79.592-44.494-105.368-62.427C69.965,144.242,9.879,111.671,9.879,111.671z"/>
<path fill-rule="evenodd" clip-rule="evenodd" fill="#F3F8FA" d="M9.819,110.456c0,2.321,0.232,6.403,0.232,6.403
	s78.023,41.098,111.927,61.602C155.884,198.967,9.819,110.456,9.819,110.456z"/>
<path fill-rule="evenodd" clip-rule="evenodd" fill="#F2F5F6" d="M33.971,171.075c0.053,13.012,179.814,102.035,196.455,115.861
	c4.899,15.214-72.224-29.486-71.406-21.372c-41.173-42.529-71.058-45.554-95.441-44.653c-55.732,8.926-29.607,121.19,35.181,171.136
	c1.61,16.423-48.865-22.371-42.496-3.287c1.984,7.465-37.271-10.891-37.271-7.236c-16.902-102.426-6.039-220.478-6.618-222.22
	C16.582,161.732,26.308,191.034,33.971,171.075z"/>
<path fill-rule="evenodd" clip-rule="evenodd" fill="#DEE1E3" d="M10.169,149.554c5.225,2.145,10.102,4.787,14.456-1.408
	c4.354-6.193,209.865,120.296,209.865,120.296l-0.349,14.95L9.995,154.155L10.169,149.554z"/>
<path fill-rule="evenodd" clip-rule="evenodd" fill="#C6CCCF" d="M29.614,152.318v7.481c0,0,0.261,2.575,6.042,5.712
	c5.78,3.133,40.72,23.71,40.72,23.71s5.257-1.399-14.186-11.628c-3.94-2.07-8.932-7.581-7.619-7.024
	c7.75,3.28-3.939-3.487-0.262-2.78C57.985,168.498,29.349,150.952,29.614,152.318z"/>
<g>
	<path fill="#A6ABAE" d="M76.088,190.978l-45.651-26.356c-1.86-1.074-3.375-4.854-3.375-6.716v-21.414
		c0-1.859,1.515-3.894,3.375-2.819l47.044,27.162c1.859,1.071,3.375,4.854,3.375,6.714v21.414
		C80.855,190.823,77.946,192.051,76.088,190.978z M30.372,134.629c-1.426-0.823-2.206,1.365-2.206,2.791l-0.314,20.939
		c0,1.427,1.159,4.651,2.585,5.473l45.651,26.357c1.426,0.823,3.979-0.258,3.979-1.684v-21.413c0-1.427-1.394-4.577-3.252-5.649
		L30.372,134.629z"/>
</g>
<polygon fill-rule="evenodd" clip-rule="evenodd" fill="#A6ABAE" points="239.167,251.252 7.341,117.407 7.341,115.98 
	239.167,249.826 "/>
<path fill="#C6CCCF" d="M120.39,210.867c-1.334-0.076,2.09,5.021,1.699,5.041c-0.392,0.021,6.534,3.404,6.925,3.384
	c0.392-0.019,2.743-1.861,4.182-1.031c1.438,0.83,3.398-8.622-2.875-16.796c-6.272-8.175-2.222,2.902-2.222,4.501
	C128.099,207.566,125.354,211.148,120.39,210.867z"/>
<path fill-rule="evenodd" clip-rule="evenodd" fill="#A6ABAE" d="M128.655,199.905l0.001,12.143c0,0-1.376,1.287-7.716-3.603
	l-0.005,0.007c1.626,2.564-0.394,1.858,0.813,3.14C129.37,219.69,136.067,211.286,128.655,199.905z"/>
<path fill-rule="evenodd" clip-rule="evenodd" fill="#F2F5F6" d="M119.135,192.715c4.18,0.6,6.938,2.812,9.057,4.865
	c0.463,0.449,0.521,0.966,0.521,0.966l0.001,13.479c0,0-1.453,1.397-8.36-4.1c-0.74-0.592-1.279-1.767-1.279-1.767l-0.116-13.121
	L119.135,192.715z"/>
<polygon fill="#A6ABAE" points="113.737,187.695 101.895,180.856 101.895,179.551 113.737,186.389 "/>
<polygon fill="#A6ABAE" points="111.996,191.827 102.765,186.498 102.765,185.191 111.996,190.521 "/>
<polygon fill="#A6ABAE" points="112.257,197.116 98.759,189.322 98.759,188.017 112.257,195.811 "/>
<polygon fill="#A6ABAE" points="113.563,202.485 104.333,197.156 104.333,195.85 113.563,201.18 "/>
<polygon fill="#A6ABAE" points="136.204,200.666 148.047,207.504 148.047,206.197 136.204,199.36 "/>
<polygon fill="#A6ABAE" points="137.946,206.81 147.176,212.139 147.176,210.833 137.946,205.503 "/>
<polygon fill="#A6ABAE" points="137.685,211.796 151.182,219.589 151.182,218.282 137.685,210.49 "/>
<polygon fill="#A6ABAE" points="136.378,215.658 145.609,220.987 145.609,219.682 136.378,214.352 "/>
<path fill-rule="evenodd" clip-rule="evenodd" fill="#C6CCCF" d="M120.353,195.147l0.176-0.322c3.683,0.529,6.261,2.311,8.271,4.131
	v-0.359c0,0-0.059-0.517-0.521-0.966c-2.118-2.054-4.876-4.266-9.056-4.866l-0.176,0.321l0.116,13.122c0,0,0.539,1.176,1.279,1.767
	c0.009,0.007,0.016,0.012,0.024,0.019L120.353,195.147z"/>
<polygon fill-rule="evenodd" clip-rule="evenodd" fill="#8D9194" points="124.301,199.075 123.316,198.507 123.316,194.095 
	124.301,194.663 "/>
<path fill-rule="evenodd" clip-rule="evenodd" fill="#DEE1E3" d="M234.025,525.971l0.113-3.163c-0.036-0.02-0.077-0.041-0.113-0.059
	V400.014l-6.851,102.516l-24.615-1.208c-27.989-14.315-54.708-21.196-63.63-28.373c-10.217-8.222-19.97-11.529-19.97-7.813
	c0,3.715-5.574-0.897-8.825-1.381c-3.25-0.482,2.788,5.324-1.392,5.234c-4.18-0.091-21.362-8.152-19.041-3.098
	s143.51,82.855,143.51,82.855l0.707-19.8l0.106,0.064V525.971z"/>
<polygon fill-rule="evenodd" clip-rule="evenodd" fill="#A6ABAE" points="235.301,517.555 9.354,387.105 9.354,384.784 
	235.301,515.233 "/>
<polygon fill-rule="evenodd" clip-rule="evenodd" fill="#7F878D" points="225.549,275.763 179.222,249.017 179.222,241.236 
	225.549,267.982 "/>
<polygon fill-rule="evenodd" clip-rule="evenodd" fill="#DEE1E3" points="224.62,274.418 179.803,248.543 179.803,242.277 
	224.62,268.152 "/>
<path fill-rule="evenodd" clip-rule="evenodd" fill="#F2F5F6" d="M180.499,243.488c0,0.706,0,3.94,0,3.94s14.156,3.628,37.42,20.089
	c5.148,3.644,6.584,1.377,6.584,1.377L180.499,243.488z"/>
<polygon fill-rule="evenodd" clip-rule="evenodd" fill="#7F878D" points="190.717,254.742 189.788,254.206 189.788,248.143 
	190.717,248.681 "/>
<polygon fill-rule="evenodd" clip-rule="evenodd" fill="#7F878D" points="201.979,261.244 201.05,260.707 201.05,254.646 
	201.979,255.183 "/>
<polygon fill-rule="evenodd" clip-rule="evenodd" fill="#7F878D" points="213.589,268.048 212.66,267.512 212.66,261.45 
	213.589,261.986 "/>
<polygon fill-rule="evenodd" clip-rule="evenodd" fill="#7F878D" points="225.315,246.02 179.104,219.338 179.104,238.496 
	225.315,265.177 "/>
<polygon fill-rule="evenodd" clip-rule="evenodd" fill="#44535C" points="224.157,246.975 180.962,222.035 180.962,238.523 
	224.157,263.463 "/>
<path fill-rule="evenodd" clip-rule="evenodd" fill="#F2F5F6" d="M203.488,368.102c0,45.913-37.22,61.644-83.133,35.136
	c-45.914-26.509-83.133-85.218-83.133-131.131s37.22-61.643,83.133-35.134C166.268,263.48,203.488,322.188,203.488,368.102z"/>
<path fill-rule="evenodd" clip-rule="evenodd" fill="#A6ABAE" d="M195.579,328.431c-10.723-27.521-28.006-52.228-50.811-74.57
	c4.091,3.038,7.235,6.479,11.115,9.61c-0.146-1.181-1.97-1.64-2.118-2.819c-1.771-1.193-3.335-2.474-4.233-4.041
	c-26.834-25.255-63.326-39.488-79.391-33.596c4.104,0.104,8.772-1.723,13.232,0.72c-10.571-0.592-19.248,1.819-26.463,6.541
	c0.754,0.308,0.893-0.361,1.586-0.147c2.481-1.752,5.303-2.961,8.469-3.626c2.243-1.063,4.714-1.762,7.939-1.27
	c0.697-0.672,1.737-0.797,3.174-0.295c12.833-2.553,40.18,8.494,60.867,26.626c0.177,0.104,0.354,0.204,0.529,0.307
	c31.673,26.175,52.231,59.945,59.808,94.662c-0.769-0.153-2.735-2.201-2.645-0.996c1.234,0.713,2.468,1.425,3.704,2.139
	c3,13.162,2.661,32.577-0.452,42.034c0,0-0.092,0.223-0.078,0.233c-11.667,27.87-39.542,42.298-87.859,10.473
	c-9.789-6.448-18.105-14.564-25.935-22.957c-7.024-6.926-12.819-14.378-17.994-22.095c-5.765-7.823-10.153-16.231-14.82-24.523
	c-4.239-6.345-5.979-13.759-9.527-20.401c0,0.356,0,0.71,0,1.064c6.574,17.056,15.38,33.15,25.935,48.5
	c1.933,1.481,2.582,3.509,4.235,5.106c11.069,13.532,23.239,26.592,40.224,37.593c40.579,23.603,63.295,18.938,78.862,2.957
	C205.839,395.351,207.974,356.654,195.579,328.431z"/>
<path fill-rule="evenodd" clip-rule="evenodd" fill="#44535C" d="M138.271,412.472c30.722,11.6,53.689,1.604,61.07-24.964
	c0.034-0.122-0.886-0.093,0-1.048c4.394-4.743,3.58-24.36,1.514-35.26c-6.037-31.866-22.843-59.921-44.415-85.343
	c-0.628-0.74-4.569-4.051-2.523-3.552c28.872,30.339,53.387,69.479,50.471,112.928c-2.422,36.089-29.87,51.796-63.594,39.22
	C140.834,414.468,133.111,411.523,138.271,412.472z"/>
<path fill-rule="evenodd" clip-rule="evenodd" fill="#44535C" d="M38.969,246.156c6.464-13.24,15.843-21.783,29.778-22.986
	c-14.541,5.097-27.051,13.466-30.788,35.97c-0.708,2.858-1.196,6.071-1.009,10.375c-0.837,0.586-0.837,5.229,0,6.781
	c0.129,12.813,3.117,24.319,7.066,35.389c-0.247,1.37,2.09,4.207,1.01,4.234c-5.974-15.535-10.691-31.646-10.095-50.18
	c0-0.175,0-0.349,0-0.521c0.73-4.215,1.152-8.928,2.019-12.925C37.813,250.556,38.636,248.75,38.969,246.156z"/>
<path fill="#E6EAEA" d="M65.088,306.656c-9.405,1.537-10.798,19.891-10.798,19.891s16.383,45.438,65.833,75.279
	c40.057,24.172,66.181,3.378,67.575,1.396c1.393-1.982-14.63-31.784-14.63-31.784s-9.056,31.693-56.777,2.75
	C80.75,352.629,65.088,306.656,65.088,306.656z"/>
<path fill-rule="evenodd" clip-rule="evenodd" fill="#E2E6E7" d="M50.251,242.011l17.034-7.812l13.527,4.558l9.019-0.366
	l4.509,4.462c0,0-40.581,3.041-33.567,43.781c7.013,40.74,19.039,65.33,40.583,74.982c21.543,9.65,26.053,2.039,30.061,11.318
	c4.008,9.281,1.583-11.629,13.026-5.949c11.443,5.679,8.016-19.058,15.03-8.504c7.015,10.55,14.028-4.444,15.03-18.726
	c1.003-14.282,5.512-20.968,1.003-29.144s-6.389-11.817-9.896-18.485c-3.506-6.669-13.15-20.365-13.15-20.365
	s28.933,30.522,39.455,60.282c10.521,29.761,12.148,61.468-9.896,69.642c-22.044,8.172-49.681-18.698-53.608-2.854
	c-3.928,15.846-35.072-17.693-48.6-33.863c-13.527-16.17-36.072-54.731-37.576-86.253C40.731,247.196,45.742,252.878,50.251,242.011
	z"/>
<path fill-rule="evenodd" clip-rule="evenodd" fill="#FFFFFF" d="M41.053,280.676c-1.265-0.949,2.775-2.539,2.438-3.788
	c-0.363-2.257,1.476-5.346,0.174-7.301c0-0.509,1.306-3.266,1.306-3.774c1.312-1.962-0.845-2.632-0.474-5.983
	c0.561,1.418,1.258,0.587,1.258,0.078c2.387,0.642,1.959-3.931,2.177-6.493c0-0.17,1.655-2.792,1.655-2.963
	c2.142-3.451,2.603-5.855,5.747-7.828c1.264-0.677,3.205-2.874,3.832-4.493c10.624-8.147,25.341-6.182,39.645-8.016
	C64.043,223.181,39.042,235.335,41.053,280.676z"/>
<path fill-rule="evenodd" clip-rule="evenodd" fill="#E2E6E7" d="M174.176,351.754c-3.072,3.145-2.733,27.666,0.819,30.811
	c3.554,3.145,29.243,17.702,30.063,17.356c0.82-0.347,6.259-13.77,1.912-46.995c-4.099-31.336-0.272,0.663-12.844,0.509
	C181.554,353.282,175.542,350.358,174.176,351.754z"/>
<path fill="#F3F8FA" d="M28.862,132.131c14.166,6.787-15.674-11.14-16.719-10.001c-1.045,1.138-2.09,23.524-1.045,24.476
	c1.045,0.952,2.786-1.177,2.786-1.177s2.787,5.439,2.787-0.134s2.786-0.83,4.528,2.615c1.742,3.442,0-17.765,0-17.765
	S20.188,127.976,28.862,132.131z"/>
<path fill-rule="evenodd" clip-rule="evenodd" fill="#E6EAEA" d="M178.028,326.678c-4.099,11.022-3.006,27.78-3.006,27.78
	s12.571,4.798,20.224,2.111c7.651-2.688,9.838-5.785,9.838-16.186C205.084,339.564,178.028,326.678,178.028,326.678z"/>
<path fill-rule="evenodd" clip-rule="evenodd" fill="#A6ABAE" d="M209.002,354.562c-1.536-11.748-1.96-14.589-2.551-13.564V340.9
	l-27.329-15.777v1.639l26.874,15.516c-0.085,0.293-0.176,0.618-0.274,0.976c0.264,1.896,0.577,4.263,0.958,7.183
	c4.348,33.226-1.092,46.648-1.912,46.995c-0.779,0.331-23.977-12.78-29.352-16.793c0.431,1.716,0.968,2.994,1.611,3.562
	c3.553,3.146,29.243,17.705,30.062,17.356C207.909,401.211,213.349,387.787,209.002,354.562z"/>
<polygon fill-rule="evenodd" clip-rule="evenodd" fill="#44535C" points="222.241,518.827 23.464,404.064 23.464,400.701 
	222.241,515.465 "/>
<polygon fill-rule="evenodd" clip-rule="evenodd" fill="#44535C" points="221.893,526.054 23.115,411.289 23.115,407.927 
	221.893,522.69 "/>
<polygon fill-rule="evenodd" clip-rule="evenodd" fill="#44535C" points="222.066,533.72 23.29,418.956 23.29,415.593 
	222.066,530.356 "/>
<polygon fill-rule="evenodd" clip-rule="evenodd" fill="#44535C" points="221.718,540.944 22.941,426.182 22.941,422.818 
	221.718,537.581 "/>
<polygon fill-rule="evenodd" clip-rule="evenodd" fill="#A6ABAE" points="416.78,148.669 240.841,250.248 240.841,251.33 
	416.78,149.752 "/>
<path fill="#C6CCCF" d="M413.904,457.836l0.035-0.226L412,172c-7.796,38.626-27.148,151.115-20,184c10,46,8,71-16,85
	c-23.158,13.509-101.168,60.124-120.162,107.721L413.904,457.836z"/>
</svg>
