<?xml version="1.0" encoding="utf-8"?>
<!-- Generator: Adobe Illustrator 15.0.2, SVG Export Plug-In . SVG Version: 6.00 Build 0)  -->
<!DOCTYPE svg PUBLIC "-//W3C//DTD SVG 1.1//EN" "http://www.w3.org/Graphics/SVG/1.1/DTD/svg11.dtd">
<svg version="1.1" id="Layer_1" xmlns="http://www.w3.org/2000/svg" xmlns:xlink="http://www.w3.org/1999/xlink" x="0px" y="0px"
	 width="1190.55px" height="841.89px" viewBox="0 0 1190.55 841.89" enable-background="new 0 0 1190.55 841.89"
	 xml:space="preserve">
<circle fill="#8DC63F" cx="0.654" cy="-1.168" r="117.272"/>
<path fill="#006838" d="M131.454,7.536c4.904-19.036-5.908-44.631-13.332-61.881c-11.408-26.333-27.877-47.315-51.826-62.956
	c-0.152-9.233-16.691-14.594-27.918-12.748c-12.074,12.201-41.697,0.129-56.787,1.237c-19.176,0.47-41.504,15.994-56.664,26.967
	c-24.877,18.007-43.152,40.893-52.883,69.888c-6.309,1.754-12.887,18.169-6.08,26.917c2.433,20.265,0.344,40.708,10.855,60.924
	c10.059,19.343,34.792,27.448,43.776,46.442c4.386,9.41,24.297,13.363,34.743,17.68c42.413,17.518,87.737,0.562,127.63-13.264
	c18.205-10.335,35.543-36.338,37.328-57.52c-4.391-4.936,8.023-21.865,11.133-26.38C132.782,20.885,130.723,11.394,131.454,7.536
	C132.95,1.737,131.127,9.246,131.454,7.536z M110.534-27.068c2.512,10.104,5.807,20.913,5.764,31.406
	c-0.006,1.723-3.953,26.524-6.908,23.02c-4.018-4.76-12.055,10.726-14.832,16.568c-2.447,5.146-6.285,13.23-3.508,17.535
	c-1.508,1.589-13.459,11.718-9.906,14.523c-12.73,12.305-26.877,16.576-41.361,26.643c-23.938,16.641-78.6,7.936-102.017-6.824
	c-17.254-10.875-30.649-27.115-40.7-44.528c-0.646-2.901,1.284-4.778,2.201-6.192c2.21-3.424,2.09-5.354,0.667-13.748
	c-1.188-7.064-5.945-13.698-5.963-20.578c-5.771-5.114-0.97-8.673-3.263-16.774c-4.407-15.591,0.195-31.458,8.794-46.181
	c14.947-26.375,56.891-60.896,85.281-59.641c0.965,0.043,13.353,2.838,18.052,2.885c3.385,0.034,14.354-5.287,15.359-5.027
	c2.42-1.624,27.928,8.044,31.154,9.22C78.907-94.006,103.418-56.447,110.534-27.068C112.313-19.912,108.827-34.119,110.534-27.068z"
	/>
<circle fill="#D7DF23" cx="-41.985" cy="-18.326" r="30.021"/>
<circle fill="#F9ED32" cx="38.828" cy="61.138" r="21.938"/>
</svg>
