<?xml version="1.0" encoding="utf-8"?>
<!-- Generator: Adobe Illustrator 15.0.2, SVG Export Plug-In . SVG Version: 6.00 Build 0)  -->
<!DOCTYPE svg PUBLIC "-//W3C//DTD SVG 1.1//EN" "http://www.w3.org/Graphics/SVG/1.1/DTD/svg11.dtd">
<svg version="1.1" id="Layer_1" xmlns="http://www.w3.org/2000/svg" xmlns:xlink="http://www.w3.org/1999/xlink" x="0px" y="0px"
	 width="1190.55px" height="841.89px" viewBox="0 0 1190.55 841.89" enable-background="new 0 0 1190.55 841.89"
	 xml:space="preserve">
<g id="Glasseyes">
	<path fill-rule="evenodd" clip-rule="evenodd" d="M-14.079-42.696c5.567-1.198,10.986-2.809,16.14-2.344
		c6.397-12.401,13.384-25.831,33.073-29.182c23.144-3.94,33.754,15.479,48.986,22.74c-0.235,3.096,1,7.229-0.156,9.678
		c-1.04,2.809-2.916,1.893-4.442,3.53c-2.255,2.416-3.731,8.057-4.984,10.976C70-16.747,63.211-6.558,48.345-3.449
		C27.568,0.899,16.319-9.76,6.828-22.891C2.71-28.586,0.124-36.554-6.126-33.97c-3.407,1.411-2.001,4.103-2.988,9.253
		c-1.462,7.602-5.639,18.343-9.665,23.737c-11.004,14.729-36.417,16.568-49.827,6.814c-2.569-1.866-5.235-5.084-7.796-7.838
		c-3.97-4.258-6.717-9.018-13.167-9.662c-1.695-2.413-2.201-6.511-3.489-9.504c11.316-11.219,15.089-30.823,34.513-36.783
		C-37.723-64.343-24.937-53.438-14.079-42.696z M-80.413-22.444c1.667,23.81,28.956,39.469,51.235,25.109
		c9.491-6.114,16.364-19.688,14.069-32.775c-3.461-19.771-22.386-29.77-40.218-25.186C-71.154-51.224-81.563-38.838-80.413-22.444z
		 M7.703-36.373c3.551,44.807,72.602,35.7,65.301-7.665c-3.082-18.327-21.281-31.407-42.449-24.795
		C16.472-64.434,6.494-51.626,7.703-36.373z"/>
	<path fill-rule="evenodd" clip-rule="evenodd" fill="#27AAE1" d="M-55.327-55.295c17.832-4.584,36.757,5.414,40.218,25.186
		c2.295,13.087-4.578,26.661-14.069,32.775c-22.279,14.36-49.568-1.299-51.235-25.109C-81.563-38.838-71.154-51.224-55.327-55.295z"
		/>
	<path fill-rule="evenodd" clip-rule="evenodd" fill="#27AAE1" d="M30.554-68.833c21.168-6.612,39.367,6.468,42.449,24.795
		c7.301,43.364-61.75,52.472-65.301,7.665C6.494-51.626,16.472-64.434,30.554-68.833z"/>
	<circle fill-rule="evenodd" clip-rule="evenodd" fill="#FFFFFF" cx="-62.169" cy="-36.544" r="8.5"/>
	<circle fill-rule="evenodd" clip-rule="evenodd" fill="#FFFFFF" cx="27.332" cy="-49.044" r="8.5"/>
</g>
<path d="M-61.86,28.525c-2.091-5.849-13.157,25.212,15.618,18.305c28.769-6.909,50.317-13.734,73.407-15.187
	c23.09-1.451,30.349,6.345,51.243-0.531c20.898-6.876,4.85-11.432,2.102-18.215c-2.743-6.779,1.521,13.905-5.705,13.992
	c-7.225,0.082-45.712-2.971-56.41-0.537C7.697,28.786-37.176,40.389-44.97,39.052C-52.096,37.829-57.027,42.037-61.86,28.525z"/>
<path id="Mouth" d="M30.259,50.912c-21.682-0.514-45.191,6.917-50.561,8.464c-5.373,1.543-21.755,9.435,2.896,4.826
	c24.657-4.609,52.819-4.221,59.382-3.827C75.953,62.413,42.05,51.19,30.259,50.912z"/>
</svg>
