<?xml version="1.0" encoding="utf-8"?>
<!-- Generator: Adobe Illustrator 16.0.4, SVG Export Plug-In . SVG Version: 6.00 Build 0)  -->
<!DOCTYPE svg PUBLIC "-//W3C//DTD SVG 1.1//EN" "http://www.w3.org/Graphics/SVG/1.1/DTD/svg11.dtd">
<svg version="1.1" id="Layer_1" xmlns="http://www.w3.org/2000/svg" xmlns:xlink="http://www.w3.org/1999/xlink" x="0px" y="0px"
	 width="1190.55px" height="841.89px" viewBox="0 0 1190.55 841.89" enable-background="new 0 0 1190.55 841.89"
	 xml:space="preserve">
<path fill="#875296" d="M39.325-68.979c-11.14-6.046-23.902-9.48-37.468-9.48c-43.442,0-78.659,35.217-78.659,78.659
	c0,33.35,20.765,61.831,50.063,73.274c-7.021-13.728-11.006-29.398-11.006-46.042C-37.745-20.666-4.509-60.667,39.325-68.979z"/>
<path fill="#FF8BEE" d="M80.517,0.2c0-29.877-16.658-55.863-41.192-69.179c-43.834,8.312-77.07,48.313-77.07,96.411
	c0,16.644,3.985,32.314,11.006,46.042c8.866,3.463,18.504,5.384,28.596,5.384C45.299,78.858,80.517,43.642,80.517,0.2z"/>
<path id="EyeBorder" d="M65.499-22.835C57.371-50.733,24.766-69.103,6.668-59.018C-2.549-53.896-7.98-44.627-8.719-32.092
	c-0.026,0.324-0.04,0.662-0.052,0.986c-3.941-9.762-10.838-17.048-18.915-18.137c-13.949-1.88-26.952,8.841-34.329,31.671
	c-7.363,22.842,1.634,45.425,17.917,48.848c13.715,2.891,28.559-8.841,35.897-27.821c1.49-3.824,2.359-7.817,2.735-11.822
	c0.506,1.685,1.063,3.396,1.685,5.134c9.736,27.379,35.612,42.417,54.372,33.667C66.406,23.057,72.396,0.811,65.499-22.835z"/>
<path fill="#FFFFFF" d="M-60.681,49.403c-8.122-3.862,8.679,18.88,19.013,16.324s68.192-16.034,90.223-5.664
	c5.544,2.61,42.608-19.647,21.596-21.969c-21.012-2.322-54.346-2.664-60.346-1.215C3.805,38.329-56.5,51.391-60.681,49.403z"/>
<g>
	<path fill="#02190D" d="M89.59,6.038c-0.01,0.051-0.014,0.112-0.022,0.166C89.624,6.141,90.479,2.593,89.59,6.038z"/>
	<path fill="#02190D" d="M89.59,6.038c3.29-12.768-3.962-29.936-8.942-41.506C72.996-53.131,61.95-67.205,45.886-77.696
		c-0.102-6.193-11.195-9.789-18.725-8.551c-8.099,8.184-27.968,0.086-38.09,0.83c-12.862,0.316-27.839,10.728-38.007,18.088
		C-65.623-55.251-77.88-39.9-84.407-20.452c-4.231,1.176-8.644,12.187-4.078,18.054c1.632,13.593,0.231,27.305,7.281,40.864
		c6.747,12.975,23.336,18.411,29.363,31.151c2.941,6.312,16.297,8.963,23.303,11.859c28.448,11.75,58.849,0.376,85.607-8.896
		c12.21-6.933,23.84-24.374,25.037-38.581c-2.945-3.311,5.381-14.666,7.468-17.694c0.89-1.287-0.416-7.421-0.006-10.101
		C89.561,6.211,89.565,6.169,89.59,6.038z M-71.888-3.053c-2.956-10.457,0.13-21.1,5.898-30.976
		c10.026-17.691,38.16-40.845,57.202-40.003c0.647,0.029,8.957,1.904,12.108,1.935c2.271,0.022,9.627-3.546,10.302-3.372
		c1.623-1.089,18.732,5.396,20.896,6.185c19.827,7.214,36.267,32.406,41.04,52.112c0.379,1.525,0.401,1.601,0.292,1.15
		c1.638,6.445,3.601,13.272,3.574,19.915c-0.004,1.156-2.651,17.791-4.633,15.441c-0.787-0.932-1.804-0.702-2.895,0.182
		c-0.531-1.113-0.683-0.638-0.736,0.68c-2.461,2.538-5.119,7.73-6.317,10.251c-0.518,1.088-1.127,2.372-1.661,3.709
		c-11.721-0.452-42.571-2.622-51.899-0.458c-10.494,2.434-54.511,14.037-62.157,12.7c-4.011-0.702-7.313,0.38-10.295-1.121
		c-2.344-3.189-4.497-6.51-6.454-9.901c-0.433-1.945,0.861-3.204,1.477-4.153c1.482-2.297,1.402-3.592,0.448-9.221
		c-0.797-4.739-3.988-9.188-4-13.803C-73.57,4.768-70.351,2.381-71.888-3.053z M22.454,50.885
		c-3.604-0.083-7.257,0.042-10.874,0.312c0.945-4.27,2.456-8.698,3.328-11.188c0.083-0.238,0.111-0.438,0.113-0.62
		c1.616-0.158,3.236-0.298,4.864-0.402c6.916-0.443,12.38-0.023,17.223,0.577c-0.397,4.906-2.399,10.198-3.461,13.019
		C29.458,51.622,25.323,50.951,22.454,50.885z M-21.912,56.766c-1.454-3.35-1.099-7.212-0.667-9.5
		c0.008-0.04,4.828-1.795,4.833-1.833c9.256-2.265,18.019-4.144,26.797-5.337c-0.001,0.003-0.005,0.007-0.006,0.011
		c-0.206,0.893,0.965,5.498,0.467,11.262C0.429,52.188-14.885,55.125-21.912,56.766z M-40.325,65.242
		c-4.811-3.032-9.168-6.693-13.109-10.768c0.428-0.09,0.865-0.19,1.312-0.299c10.468-2.563,15.384-3.943,24.342-6.213
		c1.986,2.888,2.732,6.865,3.296,9.83c-4.825,1.222-3.611,1.07-5.36,1.558c-5.558,1.543-22.503,9.435,2.996,4.826
		c25.504-4.609,54.634-4.221,61.422-3.827c4.003,0.232,7.086,0.291,9.405,0.214c-5.139,2.947-10.472,5.501-15.876,9.257
		C12.046,80.981-24.618,75.143-40.325,65.242z M55.845,51.949c-2.342,2.264-4.758,4.115-7.228,5.759
		c-1.852-1.217-5.686-2.631-10.016-3.857c0.375-3.951,1.589-10.396,3.329-13.63c6.542,0.935,12.372,1.75,19.988,0.381
		c0.091,0.588,0.267,1.133,0.571,1.605C61.478,43.273,53.462,50.067,55.845,51.949z"/>
</g>
<path fill="#FFFFFF" d="M61.4-20.571C52.973-43.413,24.362-61.627,8.507-52.941C0.223-48.404-4.651-40.224-5.234-29.23
	c-0.337,6.404,0.778,13.768,3.525,21.922c0.169,0.479,0.337,0.959,0.506,1.452c8.167,22.933,29.985,36.999,46.891,30.543
	C61.84,18.529,66.326-7.179,61.4-20.571z M40.45,1.455C30.041,6.861,16.234,0.937,9.622-11.781c-1.141-2.204-1.906-4.447-2.385-6.69
	c1.698,0.35,3.487,0.364,5.289,0c7.195-1.464,11.836-8.478,10.371-15.673c-0.895-4.408-3.876-7.831-7.701-9.503
	c0.416-0.35,0.843-0.687,1.284-0.984c7.208-4.862,24.216,0.518,30.841,13.236C53.933-18.665,50.86-3.964,40.45,1.455z"/>
<path fill="#FFFFFF" d="M-27.779-43.931c-12.16-1.724-23.36,7.156-29.531,26.291c-6.171,19.122,0.739,39.099,14.688,43.131
	c13.339,3.85,28.948-10.916,32.448-22.155C-4.21-15.864-13.376-41.896-27.779-43.931z M-18.834-11.094
	C-20.869,0.872-29.982,9.312-39.174,7.755c-9.217-1.568-15.025-12.536-12.99-24.514c0.22-1.284,0.557-2.502,0.946-3.668
	c1.426,3.37,5.069,5.379,8.79,4.628c4.239-0.869,6.975-5.004,6.119-9.257c-0.739-3.578-3.798-6.054-7.286-6.235
	c3.708-2.943,8.011-4.499,11.784-4.317C-24.9-35.284-16.798-23.072-18.834-11.094z"/>
</svg>
