<?xml version="1.0" encoding="utf-8"?>
<!-- Generator: Adobe Illustrator 16.0.4, SVG Export Plug-In . SVG Version: 6.00 Build 0)  -->
<!DOCTYPE svg PUBLIC "-//W3C//DTD SVG 1.1//EN" "http://www.w3.org/Graphics/SVG/1.1/DTD/svg11.dtd">
<svg version="1.1" id="Layer_1" xmlns="http://www.w3.org/2000/svg" xmlns:xlink="http://www.w3.org/1999/xlink" x="0px" y="0px"
	 width="1190.6px" height="841.9px" viewBox="0 0 1190.6 841.9" enable-background="new 0 0 1190.6 841.9" xml:space="preserve">
<g id="Body">
	<circle fill="#8DC63F" cx="3.2" cy="-2.7" r="117.3"/>
	<path fill="#006838" d="M134,6c4.9-19-5.9-44.6-13.3-61.9c-11.4-26.3-27.9-47.3-51.8-63c-0.2-9.2-16.7-14.6-27.9-12.7
		c-12.1,12.2-41.7,0.1-56.8,1.2c-19.2,0.5-41.5,16-56.7,27c-24.9,18-43.2,40.9-52.9,69.9c-6.3,1.8-12.9,18.2-6.1,26.9
		c2.4,20.3,0.3,40.7,10.9,60.9c10.1,19.3,34.8,27.4,43.8,46.4c4.4,9.4,24.3,13.4,34.7,17.7C0.3,136,45.6,119,85.5,105.2
		c18.2-10.3,35.5-36.3,37.3-57.5c-4.4-4.9,8-21.9,11.1-26.4C135.3,19.4,133.2,9.9,134,6C135.5,0.2,133.6,7.7,134,6z M113-28.6
		c2.5,10.1,5.8,20.9,5.8,31.4c0,1.7-4,26.5-6.9,23c-4-4.8-12.1,10.7-14.8,16.6c-2.4,5.1-6.3,13.2-3.5,17.5
		c-1.5,1.6-13.5,11.7-9.9,14.5C70.9,86.8,56.8,91,42.3,101.1c-23.9,16.6-78.6,7.9-102-6.8C-77,83.4-90.4,67.2-100.4,49.7
		c-0.6-2.9,1.3-4.8,2.2-6.2c2.2-3.4,2.1-5.4,0.7-13.7c-1.2-7.1-5.9-13.7-6-20.6c-5.8-5.1-1-8.7-3.3-16.8
		c-4.4-15.6,0.2-31.5,8.8-46.2c14.9-26.4,56.9-60.9,85.3-59.6c1,0,13.4,2.8,18.1,2.9c3.4,0,14.4-5.3,15.4-5c2.4-1.6,27.9,8,31.2,9.2
		C81.4-95.5,105.9-58,113-28.6C114.8-21.4,111.3-35.7,113-28.6z"/>
	<circle fill="#D7DF23" cx="-39.5" cy="-19.9" r="30"/>
	<circle fill="#F9ED32" cx="41.3" cy="59.6" r="21.9"/>
	<radialGradient id="SVGID_1_" cx="-3.2" cy="0.45" r="106.6068" gradientUnits="userSpaceOnUse">
		<stop  offset="1.488760e-02" style="stop-color:#8DC63F;stop-opacity:0.2"/>
		<stop  offset="0.2617" style="stop-color:#8AC43F;stop-opacity:0.3503"/>
		<stop  offset="0.4249" style="stop-color:#81BE3E;stop-opacity:0.4498"/>
		<stop  offset="0.564" style="stop-color:#72B43E;stop-opacity:0.5344"/>
		<stop  offset="0.6894" style="stop-color:#5DA63D;stop-opacity:0.6108"/>
		<stop  offset="0.8058" style="stop-color:#42943B;stop-opacity:0.6817"/>
		<stop  offset="0.9139" style="stop-color:#207E3A;stop-opacity:0.7475"/>
		<stop  offset="1" style="stop-color:#006838;stop-opacity:0.8"/>
	</radialGradient>
	<circle fill="url(#SVGID_1_)" cx="2.6" cy="-4.5" r="117.3"/>
</g>
<g id="Face">
	<path id="EyeBall2" fill="#FFFFFF" d="M45.5-37c3.8,10.3,0.3,30.2-12.1,34.9C20.3,2.9,3.5-8-2.8-25.6c-0.1-0.4-0.3-0.8-0.4-1.1
		c-2.1-6.3-3-12-2.7-16.9C-5.5-52.1-1.7-58.5,4.7-62C16.9-68.7,39-54.6,45.5-37z M29.3-20c8-4.2,10.4-15.5,5.3-25.3
		c-5.1-9.8-18.2-14-23.8-10.2c-0.3,0.2-0.7,0.5-1,0.8c3,1.3,5.2,3.9,5.9,7.3c1.1,5.5-2.5,11-8,12.1c-1.4,0.3-2.8,0.3-4.1,0
		c0.4,1.7,1,3.5,1.8,5.2C10.6-20.4,21.3-15.8,29.3-20z"/>
	<path id="EyeBall1" fill="#FFFFFF" d="M-23.3-55c11.1,1.6,18.2,21.7,13.6,36.5c-2.7,8.7-14.7,20.1-25,17.1
		C-45.5-4.6-50.8-20-46.1-34.7C-41.3-49.5-32.7-56.3-23.3-55z M-16.4-29.7c1.6-9.2-4.7-18.7-10-18.9c-2.9-0.1-6.2,1.1-9.1,3.3
		c2.7,0.1,5,2,5.6,4.8c0.7,3.3-1.5,6.5-4.7,7.1c-2.9,0.6-5.7-1-6.8-3.6c-0.3,0.9-0.6,1.8-0.7,2.8c-1.6,9.2,2.9,17.7,10,18.9
		C-25-13.9-18-20.5-16.4-29.7z"/>
	<path id="Iris2" d="M34.6-45.3c5.1,9.8,2.7,21.2-5.3,25.3c-8,4.2-18.7-0.4-23.8-10.2c-0.9-1.7-1.5-3.4-1.8-5.2
		c1.3,0.3,2.7,0.3,4.1,0c5.5-1.1,9.1-6.5,8-12.1c-0.7-3.4-3-6-5.9-7.3c0.3-0.3,0.7-0.5,1-0.8C16.4-59.3,29.5-55.1,34.6-45.3z"/>
	<path id="Iris1" d="M-26.4-48.6c5.3,0.2,11.6,9.7,10,18.9C-18-20.5-25-13.9-32.1-15.1c-7.1-1.2-11.6-9.7-10-18.9
		c0.2-1,0.4-1.9,0.7-2.8c1.1,2.6,3.9,4.2,6.8,3.6c3.3-0.7,5.4-3.9,4.7-7.1c-0.6-2.8-2.9-4.7-5.6-4.8C-32.6-47.5-29.3-48.7-26.4-48.6
		z"/>
	<path id="EyeBorder" d="M49.5-36.6C43.2-58.1,18.1-72.3,4.1-64.5C-3-60.6-7.2-53.4-7.8-43.8c0,0.2,0,0.5,0,0.8
		c-3-7.5-8.4-13.2-14.6-14c-10.8-1.5-20.8,6.8-26.5,24.4c-5.7,17.6,1.3,35,13.8,37.7c10.6,2.2,22-6.8,27.7-21.5c1.1-3,1.8-6,2.1-9.1
		c0.4,1.3,0.8,2.6,1.3,4c7.6,21.1,27.5,32.7,42,26C50.2-1.2,54.8-18.4,49.5-36.6z M-9.7-18.6c-2.7,8.7-14.7,20.1-25,17.1
		C-45.5-4.6-50.8-20-46.1-34.7c4.8-14.8,13.4-21.6,22.8-20.3C-12.2-53.4-5.1-33.4-9.7-18.6z M33.4-2.1C20.3,2.9,3.5-8-2.8-25.6
		c-0.1-0.4-0.3-0.8-0.4-1.1c-2.1-6.3-3-12-2.7-16.9C-5.5-52.1-1.7-58.5,4.7-62c12.2-6.7,34.3,7.4,40.8,25
		C49.3-26.7,45.8-6.8,33.4-2.1z"/>
	<path id="Mouth" d="M-60.9,24.5c-2-5.6-12.6,24.2,15,17.6c27.6-6.6,48.3-13.2,70.4-14.6c22.1-1.4,29.1,6.1,49.1-0.5
		c20-6.6,4.7-11,2-17.5C73,3,77.1,22.9,70.2,22.9c-6.9,0.1-43.8-2.8-54.1-0.5C5.8,24.8-37.2,35.9-44.7,34.6
		C-51.6,33.4-56.3,37.5-60.9,24.5z"/>
	<path id="Lip" d="M30.3,41.2C9.5,40.7-13,47.8-18.2,49.3s-20.9,9.1,2.8,4.6c23.7-4.4,50.7-4,57-3.7C74.1,52.2,41.6,41.4,30.3,41.2z
		"/>
</g>
</svg>
