<?xml version="1.0" encoding="utf-8"?>
<!-- Generator: Adobe Illustrator 26.5.0, SVG Export Plug-In . SVG Version: 6.00 Build 0)  -->
<svg version="1.1" xmlns="http://www.w3.org/2000/svg" xmlns:xlink="http://www.w3.org/1999/xlink" x="0px" y="0px"
	 viewBox="0 0 930 400" style="enable-background:new 0 0 930 400;" xml:space="preserve">
<style type="text/css">
	.st0{fill:#000102;}
</style>
<g id="H20A">
	<path id="H20" class="st0" d="M57.6-17.1c-2.7-4.1-14.2-15.4-12.7-20.5c-1.1,1.2-1.8,0.6-2.3-1.9c-2,1.4-1,3.7-1.1,5.6
		c-5.8-4.8-8.7,2.7-14.2,0.5c0.5,0.7,0.7,1.4,0.5,2.1c-1.9-0.4-3.3,6.1-7,3.5c-5.4-4.2-8.9-6.7-11.3-13.1c-0.2-0.5-3.2-3.3-2.8-4.4
		c1.7-4.3,1.2,3.6,2.8-3.8c1.5-7-4.3-8.1-9.1-4.9c0.6,2,2.8,1.6,4.3,2.3c-0.6,0.3-4.1,1.1-2.9,2.4c2.3,2.2-2.3,6.7-3.1,8.8
		C-3.6-33.9-7.1-22.6-2.9-16c-8.1,1.1-17.1-2.8-24.9,0c-4.1,1.5-7.8,0.4-12,1c-4.3,0.6-8.2,4.7-11.1,7.5c-3.7,3.7-6.6,8.7-9.3,13.2
		c-1.8,2.9-3.6,5.7-5.4,8.5c-1.5,2.3-4.2,2.4-4.7,4.5c0.3-1.1,3-0.9,3.9-1.6c3.8-2.7,7.5-5.5,10.7-8.9c2.2-2.3,5.3-7.8,8.9-8.1
		c-1-1,1.5-5.2,2.9-2.2c1.1-1.2,2-1.5,3.6-2C-40.8-0.5-40,6.3-42.8,9.1c-3.5,3.4-6.2,5.3-8.5,9.6c-1.9,3.7-4.1,8.4-7.6,10.8
		c1.4,3.2-1.4,5.4,0.5,8c3.5-7.2,7.4-14.4,13.5-19.7C-42.8,16-31.4,5-28.5,6c5.5,2-6.1,10.4-0.7,13.6c5.2,3.4,11.8,11,16.1,12.2
		c-0.4,1.5-0.6,3.8,2,2.5c-1-2.9-1.8-6.8-3.9-9.2c-1.9-2.2-9.8-4.8-9-8.5c0.8-3.6,4.7-6.5,6.4-9.7c2.8-5.2,4.4-2.5,10.1-1
		c2.5,0.7,19.5,2.2,17.2,8.2C8,19.4,7.3,23.8,1.9,25.9c-5,1.9-8.7-2.5-11.8,3.6c8.4,1.4,10.5-0.9,17.7-3.6C13.5,23.7,13,12,18.4,12
		c-1.3-7.8,17,4.5,19.2,6.7c4.9,4.8,6.6,14.6,14.8,11.8c-4.6-5-9-9.6-13-15.1c-2-2.8-4.9-4.9-7.1-7.7c-3.9-5-1.3-3.8-1.1-9
		c0.1-2.4,2-19.2,6.5-17.9c3.6,1.1,11.3,8.7,13.6,7.7c-0.5-1-1.8-3-0.7-4.1c1.6,0.5,2,2.6,3.5,3C55.9-12.1,58.5-15.6,57.6-17.1
		C55.7-19.9,57.8-16.7,57.6-17.1z M18.1-23.4c-1.6,2.5-4.8,1.6-7.4,1.8c-6,0.4-2.6-3.8-2.4-6.9C9.6-28.1,18.5-24.1,18.1-23.4
		C17.5-22.5,18.5-24,18.1-23.4z"/>
</g>
<g id="H19A">
	<path id="H19" class="st0" d="M44.9,30.7c-5.3,0.8-4.1-14-6.9-17c-3-3.2-21.2-7-20-1.9c-5.6-0.3-7.8,8.5-12.1,11.7
		C4.5,24.4-8.1,37.2-7,37.8c-6-2.7,1.3-6.9,1.3-8.9c7.1-4.8,10-9.2,14.1-16.8C3.3,7.3-0.6,7.7-7.3,6c-2.7-0.7-5.4-1.9-8.2-2.4
		c-2.1-0.4-2.4,2.5-3.7,3.6c-2.5,2.2-11.6,7.2-6.7,10.9c5,3.8,10.5,6.7,8.8,14.1c-2.2-0.6-1.7-2.6-3.2-4.3c-2.5-2.8-4.1-4.8-7.3-6.9
		c-7.5-5-8.2-4.5-2.8-11.2c-1.6-2-12.8,8.3-14.2,9.6c-4.3,3.9-7.5,10.8-5.2,16.3c-9,1.5-1.5-18.6,2.8-21.8c5.3-4.3,6.8-5.3,7-12.1
		c0.2-4.7,0.4-6.8-3.5-4.5c-0.5-2.9-1.1-3.7-1.7-0.9c-0.4,1.7-4.4,5.6-5.7,6.9c-4.1,4.4-11.7,13.9-18.5,13
		c6.7-4.5,9.1-12.8,14.6-18.5c3-3.1,4.2-6.3,8.1-8.8c6.4-4.2,12.1-2.5,18.7-5c5.9-2.2,13.2-0.2,19.3,0.1c8.3,0.4,3.8-4.6,4.3-11.5
		c0.5-6.4,2.5-11.9,5.4-17.6c0.7-1.3,2.2-2.7,0.9-4.3C0.5-51,3.6-50.4,3.4-52c-1.5,0.1-2.5-0.6-3-2c3.6-1.3,8.9-3.6,9.2,2.8
		c0.1,3.1-0.9,3.9-2.8,5.7c-1.3,1.2,1.8,3.9,2.2,4.7c2.5,5.1,4.1,7.4,8.8,11.1c5.8,4.7,4.8-0.7,9.5-0.1c-0.3-1.7-0.3-3.3,0.1-4.9
		c1.2,0.1,2.4,0.5,3.6,1.1c3.2,0,5-2.6,8.3-1c1.9,0.9,0.5-3.4,2.2-4.1c3.1,3.4,5.8,7.9,9.3,12.6c1.5,2.1,7,7.8,6.6,10.5
		c-0.7,5.3-4.9,2.3-6.8,0.3c-1.8,1.6,1.9,5-1.8,4.4c-1.4-0.2-3.9-4.5-5.2-5.3c-1.4-0.9-6.4-4.3-7.8-1.9c-1.9,3.4-5.2,7.6-4.8,11.7
		c0.2,2.3-2.1,8.4-1.3,10c1.5,3,7.2,4.3,9.7,6.4C44.3,14,45.7,24.8,44.9,30.7C44.5,30.8,45.1,29,44.9,30.7z M17.1-24
		c-3.2-1.5-7.7-6-9.7-2.4C4.1-20.5,16.5-19.6,17.1-24C15.7-24.6,16.9-22.5,17.1-24z"/>
</g>
<g id="H18A">
	<path id="H18" class="st0" d="M-32.1,15.1c6.2,5.3,10.8,8.4,9.1,17c-1.6-0.4-2.7-4.9-3.4-6.5c-1.7-3.7-9.3-11-12.8-8.8
		c-6.5,4-10.3,13.3-3.7,18.6c-1.4,0.6-2.8,1.1-4.1,1.7c0.1-2-1.4-2.3-2.9-2.7c-0.9-2.7,0.3-6.2,0.8-8.9c1.2-5.9,0.7-9.2,5.6-13
		c5.3-4,4-7.9,3.6-14c-0.2-3-2.6-4.8-3.7-1.2C-45-3.5-43.6-5.2-44.9-6c-1.2,0.4-4,7-5.5,8.5c-4.7,4.8-12.2,12.9-19.4,13.4
		c2.2-3.6,5.6-5.2,7.5-9.2c1.8-3.7,5-7.2,7.2-10.8c6.2-10.4,16.5-8.1,26.4-11.5c5.2-1.8,10.6-0.6,15.9,0c3,0.3,5.9,0.7,8.9,0.4
		c0.5-1.9-1.1-3.3-0.7-5.6c1.2-5.8,0.8-11.5,2.5-17.3c0.9-3.1,2.6-5.2,4.1-7.9c2.3-4.1-3.3-2.5,2.1-5.7c-1.7,0-2.9-0.7-3.7-2.2
		c4.3-2.1,7.1-3.7,9.2,1.8c1.4,3.6-3.3,6-3.1,7.4c0.8,5.1,6,10.6,9.8,13.8c2.3,1.9,4.4,5.6,7.6,3.8c3.7-2-2.2-3.5,4-2.8
		c-4.9-8.7,7.7-2.7,11.6-4.1c0-6.4,1.7-0.4,4.7-2.9c0.3,6.8,6.8,11.9,10.5,17.5c2.3,3.5,3.1,4.4,0.2,7.7c-1.8,1.9-3.6-2.3-5.3-2.7
		c-0.5,6.9-0.1,3-4.3,0.4c-1.7-1.1-6.4-4.7-8.7-4.3c-2.7,0.5-6.1,10.1-5.9,12.7C31-3.1,28.2,2.4,29,4.3c1,2.5,7.9,3.1,10,5
		c6.4,5.7,1.8,14.5-1.7,19.9c-1.9,2.9-2.7-2.9-2.6-3.8c0.2-2.8,3-1.4,3.6-3.8c3.4-12.6-9.4-10-17.2-11C12.7,9.4-6,30.1,0.9,38.3
		c-1.7,1-3.1-1.3-4.6-0.2C-6.2,39.8-4,32.9-4,32.6C-5.7,26.6,8.5,17.3,6.8,11.1c-1-3.5-18.1-5.4-21.5-6.4
		C-19.2,3.5-28.7,11.6-32.1,15.1C-30.1,16.9-31.3,14.2-32.1,15.1z M6.4-23.9c1.8,2.2,2.1,3.1,5.1,2.9c0.8,0,7.6-0.8,6-3.4
		c0.4,1.3-6.1-2.3-5.6-2C7.9-29,8.4-27.9,6.4-23.9C6.6-23.7,7.2-25.6,6.4-23.9z"/>
</g>
<g id="H17A">
	<path id="H17" class="st0" d="M56.6-16c-2.6-4.1-5.2-8.2-8.3-12c-2.7-3.2-2.9-5.3-4.7-8.6c-1.2,2.9-2.4,2.7-3.8-0.5
		c-0.8,1.2-1.1,2.5-0.9,4c-2-1.4-4.5-3.2-6.7-3.6c-0.4,1.2-5.4,2.7-7.3,3.1c0.9,0.8,1.8,1.5,2.6,2.3c-1.4,0.2-2.9,0.4-4.3,0.7
		c2.2,1.8,1.4,4.4-1.3,3.3c-2.2-0.9-4.5-3.2-6.4-4.7c-3.6-2.9-7.5-8.4-8.8-12.8C6.4-46,12-49.4,9.1-53.7c-2.7-4-5.6-2.2-8.9,0.2
		c0.8,0.9,1.7,1.8,2.5,2.6c-1.8,0.7-1.7,1.8,0.3,3.3c-1,1.7-2,3.4-3,5.1c-2.3,4-2.8,9.3-3.7,13.8C-4.4-24.5-5-18.4-3.5-14.5
		c-10,0-17.8-2.1-27.6,0.4c-4.1,1-8.4,1-12.6,1.8c-1.5,0.9-3.2,1.3-4.9,1.2c-0.4,2.3-2,3.6-4.2,4.2c1.3,1.7-7,11.9-8.8,14
		c-2.8,3.1-9.8,6.8-8.6,11.6c0.9-2.2,4.3-2.7,6.2-3.5c3.3-1.3,5.2-3.7,7.6-6.2c2.4-2.6,5.9-3.7,8-6.6c0.8-1.1,1.9-1.9,3.3-2.2
		c-0.2-1.8,0.1-3.5,0.8-5.1c1.4,0.9,0.5,2.7,1.4,3.9c3.5-7.3,5.1,1.4,5.7,5.2c0.5,2.8,1.9,3.7-1.2,4.9c-3.7,1.5-3.1,2.8-1,5.6
		C-44,19-43,21-42.2,27.3c0.9,7.1,1.3,8.6,6.9,11.7c0.3-2.2,1.8-1.1,3.1-1.5c-0.1-3.2-4.9-1.9-5.7-5.2c-1.3-5.1-2-9.4,2.4-13
		c1.7,2,3.5,4.1,4,6.8c0.4,1.8,0.8,5.9,1.9,7.1c1.8-3.2,2.7-8.3,0.1-11.3c-2.3-2.8-4.4-3.6-1.3-6.5c2-1.7,3.9-3.8,6.1-5.2
		c1.9-1.2,5.9-4.7,8.1-4.6c4.2,0.1,8.5,2.9,12.6,3.5C-1,9.6,7,9.5,8.6,12.3c0.9,1.6-2.9,11.6-3.7,14.1c-0.7,1.8-1.4,3.7-2.1,5.5
		c-1.3,3.6,1.7,2.5,2.5,4.8c0.6,2.1-2.4,2.1,1.1,2.6c1.4,0.2,3.8,0.4,5.1-0.4C6.8,34.2,5.2,32.3,8.1,26c2.3-5,4.8-13.2,10.5-13.4
		c3.5-0.1,17.8-3.5,17.6,2.9c-0.1,2.7-0.4,5.8-3.7,5.8c-2.3,0.1-5.4,2.9-3.9,5.5c9.6-3,8.9-3.3,10.6-12.6c0.7-4.3-3.4-5.6-6.5-6.6
		C26,5.2,30.4,4.2,31-1.4c0.6-5.2,2.6-18.1,10.3-14.6c3.3,1.5,4,4.1,6.4,6c3.7,3,1.7-2.5,2.2-3.7c1.5,0.6,2.6,3,4.1,3.1
		C56.3-10.4,57.6-14.5,56.6-16C55-18.5,57.7-14.3,56.6-16z M16.4-20.5c0.2-0.4,0.4-0.9,0.6-1.3c-1.7,0.8-6.8,3.6-8.4,1.2
		c-2.3-3.4-0.3-4.3,0-7.8c4.9,1.6,7.4,5.1,12.3,4.6C20.4-21.6,18.4-20.9,16.4-20.5C16.6-21.1,19.3-21.1,16.4-20.5z"/>
</g>
<g id="H16A">
	<path id="H16" class="st0" d="M56.9-15c-3.6-7.3-11.4-12.4-13.8-20c-2.2,1.3-2.2,0.1-3.9-1.5c-0.2,1.2-0.3,2.4-0.5,3.6
		c-4.9-3-10-3.6-13,1.8c-2.9,5.2-3.3,4.4-9.1-0.2C15-32.7,5.1-45.7,7.6-46c2.8-0.4,2.3-5.4,1.6-7c-2.2-5-4.6-2.6-8.4-1
		c0.7,1.3,1.7,2.1,3.2,2.5c-3.7,2.8,0.4,2.7-2.1,6.2C-0.4-41.9-1.7-38-2.3-34c-1,6.3-2.3,13.7-0.6,19.2c-7.4,0-16.8-4.1-23.9-0.7
		c-5.8,2.9-17.2-0.5-21.1,5.4c-2.5,3.6-3.5,1.7-4.9,5.9c-1.1,3.1-3.7,5.8-5.2,8.7c-1.4,2.7-4.2,4.7-6.6,6.4
		c-3.3,2.3-1.3,0.1-1.8,4.5c6.7-1,10.1-6.6,15.1-10.3c1.8-1.3,4.2-3.6,5.6-5.2c1-1.1,0.8-4.6,2.6-4.9c1,2.6,2.1,0.3,4.7,0.6
		c-1.4-3.2-1.1-8.1,3.9-5.7c-2.4,2.8-2.7,5.5-1.4,9c1.6,6.1,4.2,7.8-3.4,8.8c-6,0.9,0.2,10.7,1.2,13.6c1.3,3.3-0.9,9,0.4,11.4
		c2.1-0.8,2.3-2.9,2.9-4.7c3.9,5.5,3.9,13.4,12,8.6c-1.5-2.7-5.4-1.9-7.1-5.9c-1.9-4.5-2.6-7.4,0.7-11.5c3.7-4.4,6.8-9.8,11.1-13.7
		C-15.9,3.7-6,8.6-3.3,9c4.9,0.7,8.7,1.6,13.3,3.2c3.8,1.3,2,6.1,1.8,9.1c-0.5,8.3-1.9,18.5,8.3,17c-0.2-2.4-3.1-2.4-4.5-3.7
		c-1.9-1.9-1.5-5.2-1.1-7.4c0.6-3.3,1.4-15.8,6.1-15.2c2.1,0.3,14.9,0,12.6,4.9c-2.9,6.4-8,1.1-10.7,6.4c6.7,2,13.3-0.3,14.1-8.6
		c0.4-3.6-5-5.2-7.4-6.5c-2.5-1.4,0.1-4,0.7-5.6c2.6-6.5,2.2-12.5,7.1-18.5c4.1-4.9,9.8,7,13.2,6.2c-0.4-2.5-0.8-6.4,2.5-2.9
		C54.4-10.7,58.1-12.6,56.9-15C56.3-16.2,57-14.7,56.9-15z M-31.8,13.3c-1.2,1.9-2.2,4-4.2,5.3C-41,11.8-31.3,12.5-31.8,13.3
		C-32.9,15.1-31.4,12.7-31.8,13.3z M20.2-22.1c-2.5,0.8-5.6,2.4-10,3c-5.5,0.7-1.7-8.5-1.6-10.1C10.8-28.4,23.9-23.2,20.2-22.1
		C19.7-21.9,20.9-22.3,20.2-22.1z"/>
</g>
<g id="H15A">
	<path id="H15" class="st0" d="M50.4-23.5c-3.3-4.3-6.8-8.7-10.8-12.2c-1.2,1,0,2.5-0.6,3.8c-4-3.2-9.9-3.6-13,1.8
		c-3.9,6.6-8.3,1.3-13-3.1C11-35.1,4-45.4,7.7-46.5c2-1,1.2-5.6,0.5-7c-2-3.9-4.5-1.7-7.8-0.2c1.3,0.8,2.5,1.5,3.8,2.3
		c-5.5,3.3,0.2,0.8-1.3,4.3c-1,2.7-2.8,5-3.9,7.7c-2,5.4-3.4,12.1-2.8,17.9c0.1,1.5,2.6,6.6,0.3,7.2c-6.1,1.6-13-3.5-19.1-3
		c-4.3,0.3-8.2,4.8-12.8,3.5c-5-1.4-10.5,1.3-14.1,4.6c-4.1,3.8-6.4,8.9-9.3,13.5c-1.7,2.7-12.9,6.9-9.1,9.2c-0.9,0.4-1.2,1.1-0.9,2
		c5.5-1.4,9.7-3.7,13.7-7.8c1.9-1.9,8.7-10.8,10.8-9.4c0.8-3.4,4.5-1.2,3.8-4.4c-1.3-5.3,5.3-5.5,4.4-3.1
		c-1.5,3.9-1.7,13.4,3.9,14.9c-1.8-0.5-13.8,2-13.1,5.3c0.9,3.6,2,10.3,0.6,13.9c-1,2.7-3.8,4.6-3.1,7.7c5.4-4.1,6.3-6.2,6-12.9
		c-0.3-6.9,5.9-9,12.3-9c4.7-0.2-2.5,11.5,0.2,13.8c5,4.2,6.8,17.9,15.8,14.4c-0.2-3.2-5.3-3.3-7-5.7c-2.1-2.7-4.6-5.9-4.4-9.6
		c0.2-3.7,2.7-7.7,3.9-11.1c1.3-3.5,1.6-9.4,6.3-6.8c4.2,2,8.7,3.7,13.4,4.2c2.9,0.3,6.7,2,9.3,2c1.7-0.1,6.7,1.6,7.8,2.8
		c2,2.1,0.1,4,3.2,5.5c-1.4,0.8-2.8,1.6-4.2,2.4c8.1,6.2,2.6,17.3,15.8,17.3c-2.4-2.3-13.5-8.6-8.8-13.7c2-2.2,5.4-4,7.9-5.5
		c5.3-3.2-1.1-7.5-3.4-10C24,8.4,32.6-8.5,34.4-11.7c2.1-3.9,3-6,7.5-3.8c2.6,1.2,5.2,6.5,7.9,5.7c-2.8-7.4,2.3-1.1,4.3-1.1
		C61.2-11,51.5-22.1,50.4-23.5C48.9-25.5,52.8-20.5,50.4-23.5z M17.4-22.8c0.3,0.9,0.7,1.9,1,2.8c-1.8,0.5-9.3,2.5-10.6,0.9
		c-2.8-3.5-0.7-6.2-0.3-10c2.6-1.4,7.1,4.2,9.7,4.8c1.3-0.6,2.6-0.5,3.9,0C22.4-21.5,18.2-22.5,17.4-22.8
		C17.8-21.6,18.3-22.5,17.4-22.8z M27.6,16.1c4,2.1-4,8.1-6.2,6.1C20,21,20.6,17,20.8,15.4C21,12.2,26.3,15.4,27.6,16.1
		C28.8,16.7,26,15.3,27.6,16.1z"/>
</g>
<g id="H14A">
	<path id="H14" class="st0" d="M55.4-15.2c-4.5-6.6-9.6-16.8-16.4-21c-1.3,5.5-2.7,0.5-7.3,2.5c-2.9,1.3-5.2,1.7-6.7,4.8
		c-3,6.2-14.7-4.8-15.5-8.6c-0.4-1.6-4-6.9-3.6-8.1c0.9-2.9,3.3-0.8,3.1-5.3c-0.1-2-1.5-6.1-4.3-5.3c-5.7,1.6-2.4,1.8-1.1,4.6
		c-1.1,0.7-3.7,9.1-4.7,11.4c-1.8,4.4-2.2,9.2-2.8,13.7c-0.9,7.2,4.8,12.1-4.9,10.6c-7.7-1.2-12.2-3-19.7-0.6
		c-9.7,3.2-20.4,1.1-25.5,12.7c-2.2,4.9-5.6,8-10.2,10.5c-0.9,0.5-5.2,2.2-5.3,3.5c-0.1,3.3,3.2-1.1,1,3.3c7.9,0.7,17.4-9.3,21.7-15
		c1.6-2.3,5.2-2.3,6.6-4c0.4-0.5,0.7-10.7,4.8-5.6c2.7-0.5-2.3-2.7,2.9-2c-9.2,2.1-1,15.8-4.8,19.2c-2.7,2.4-8.9-1.3-9.3,4.3
		c-0.3,4-1.1,7.8-1.9,11.7c-0.4,3.5-6,2.7-6,7.2c8.1-3.5,8.3-3.7,9.9-12.9c0.6-3.6,5.1-4.8,8.1-5c3.3-0.3,5.2-1.6,8.4-2.7
		c4.1-1.4,3.2,6.3,3.1,8.2c-0.1,5,1.6,6.4,4.7,10.1c4.2,5.1,7.5,13.1,14.5,11.6c-6.4-6.9-14.5-12-14-22.5c0.1-2.4,0.2-11.8,2.5-12.9
		c1.9-0.8,12,4.5,14.8,5C0.2,9,5,10.7,7.2,10.7c1.7,0,3.3,0.5,4.7,1.5c2.8,1.1,3.4-1.5,4.4-0.6c1.4,1.3,8.9,8.2,4,9.5
		c-5.5,1.5-7.9-2.4-12.6,0.8c4.2,1.5,7,3.3,11.3,1.5c5.1-2.1,6.5,3.1,8,7.6c0.8,2.3,3.4,9.3,6.6,7.9c5.8-2.6-1.3-2.8-3.8-7.1
		c-2.7-4.9-3.2-11.8-4.2-17.2c-1-5.9,1.9-9.2,2.7-15c0.6-3.9,4.6-14.9,8.4-16.5c5.4-2.3,8.4,8.4,12.2,6.9c-1.3-4.2,0.4-4.3,3.2-1.7
		C53.8-10,56.5-13.7,55.4-15.2C53.7-17.6,56-14.4,55.4-15.2z M17.5-20.5c-5.7,2.7-13.4,2-10.5-6.2C9.8-34.3,18.2-20.9,17.5-20.5
		C16.7-20.2,18.4-21,17.5-20.5z"/>
</g>
<g id="H13A">
	<path id="H13" class="st0" d="M56-15.7C51-22.9,45.8-32.6,40.1-37.4c-3.8,1.6,1.8,2.4-4.3,3.2c-4.1,0.5-6.4,1.5-9.4,4.3
		c-6,5.6-10.2,0-15.3-5.2c-2-2.1-0.4-5.8-3-7.5c-2.6-1.3-1.4-3.7,0.7-4.3c2-7.2-0.9-10.5-7.6-7.7C1.7-53,2.7-52.2,4.3-52
		c-3.1,2-2.2,5.9-4.5,9.6c-2.7,4.2-3.5,11.3-3.5,16.2c0,1.2,1.8,10.2,1,10.4c-5.6,1.6-13.1-3.1-18.9-2.9c-4.5,0.2-7.7,2.6-12.2,3.2
		c-5.3,0.7-10.9,1-15,5.3c-3.8,3.7-5.3,11-10,13.8c-3,1.8-6,3.6-9.1,5.1c-4,2,2.2,2-1.4,4.8c7.9,1,22.3-16.4,25.7-14.8
		c1.3-2.2,4.6-3.4,4.6-4.8c0.1-1.8,1.4-8.3,5-5.9c-1.6,2.5-2.8,4.5-2.9,7.6c-0.4,3.7,2.5,8.3-0.7,10.9c-2.4,2-6,1.4-8.2,3.2
		c-2.3,1.9-1.5,10.1-5.3,8.1c0,1.7,0,6.8-3.2,5.4c-1.7-0.7-6.3,1.6-5.8,3.5c2.8,0.3,5.4,0.4,8.2,0.5c3,0.1,4.6-6.6,6.1-8.6
		c2.5-3.3,17.9-13.2,21.3-10.1c1.7,1.6,1.3,7.8,1,9.6c-0.6,3.9,6,7.2,8.4,9.4c4,3.7,7.6,10.6,13.5,7.8c-4.8-4.8-15.1-9.8-15.8-17.2
		c-0.2-2.3-0.2-13.6,1.9-14.9C-13.7,2.2-5,6.8-2.9,7.5c8.2,2.9,15.6,0.8,19.7,10.2c3.1,7-4.6,3.7-9,3.7c-4-0.3-2.8-2.1-6.9,1.6
		c5.5,0.8,9.1,2.3,14.8,1.6c2.2-0.3,5-0.3,5.9-2.9c0.8-2.4-2.6-8.8-0.7-10.4c1.9-1.3,10.4,11.8,12.1,13.8c2.7,3.1,7.9,9.2,7.7,12.8
		c6.7,0,8-0.7,1.8-5.1c-7.1-5.1-10.2-16.4-13.8-24c-1.9-4.1,2.8-16,4.7-19.6c2-3.8,2.7-8.2,7.8-5.6c2.9,1.5,5.1,6.3,8.3,6.1
		c0.6-1.6-1.7-2.6-0.2-4.2c1.8,0.2,2.8,3.2,4.3,3.2C55.1-11.2,56.9-14.5,56-15.7C53.4-19.5,56.6-14.9,56-15.7z M7.9-26.9
		c0.3-0.8,0.3-1.5,0.2-2.3c3,0.9,5.5,3.1,8.1,4.8c3.6,2.3-0.7,4.9,0.3,1.7c-1.9,1.3-5.3,3.5-7.9,2.3C6.6-21.3,6.3-25.5,7.9-26.9
		C8.3-27.2,6-25.2,7.9-26.9z"/>
</g>
<g id="H12A">
	<path id="H12" class="st0" d="M55.5-16c-4.2-6-11.9-13.6-11.9-20.9c-0.9-0.4-1.5,0.1-1.8,1.5c-1.1-0.8-0.5-2.4-2.2-2.6
		c-2.1,4.5-2.7,3.1-7.4,5.1c-3.6,1.5-5.1,3.4-7.7,5.7c-3,2.7-7.9-2.5-10-4.1c-4.1-3.1-3.7-4.3-5.1-8.8c-0.4-1.3-5.1-5-1.6-5.7
		c0.7-0.3,2.4-3,1.8-4.1c-0.6-0.9-0.9-3.4-1.7-4.9c-1.9-3.5-5.7-0.6-8,0.8c0.5,1.9,1.7,2.7,3.4,2.2c0,5.3-4.5-3-1.1,3.9
		C0.4-44.2-1.6-40.9-2.6-37c-1.6,6.3-3.2,14.2,0.2,20.2c-3.6,1.2-9.6-0.6-13.3-1.2c-7.2-1.1-13.1,1.8-20.2,2.6
		c-10.6,1.2-12.7,6.6-19,14.3c-2.6,3.2-5.4,5.3-9,7.2c-1.3,0.7-9.1,4-3.9,4.9c-3,2.6,2.6,1.9,3.8,1.3c3.4-1.6,6.5-3.5,9.6-5.7
		c4.4-3,10.9-10.7,15.9-10.5c0-3.4-1.6-6.3,2.4-6.8c-0.6,4.8-3.4,12.4-0.6,16.8c-3.1,1.4-1.6,2.7-5,4.8c-2.6-4.7-8.5,6.9-9.4,8.7
		c-2.8,6.3-7.7,0.2-11.7,5.9c9.6,4,11.5-0.5,17.2-7c5.2-5.7,13.8-9,20.5-12.5c2.5,2.9,0.3,7.3-0.5,10.5c-0.9,3.6,4.8,5.8,7.2,7.3
		c5.3,3.2,8.4,11.2,14.2,9.7c-2-3.5-4.4-7.2-7.9-9.5c-1.6-1.1-4.4-2.2-5.4-4c-3.4-4.9,0.9-12,2.2-17.7c4.8,1.9,9.4,3.8,14.5,4.6
		C5.1,8.1,12,8,12.2,15.1c0.1,5.9,0.5,8.3-6.5,8.5C-0.9,23.7,0,20.2-6,24.4c6.7,2.4,11.6,2.4,18.4,0.9c7-1.3,2.5-19.4,11.1-14.9
		C29,13.3,34.6,21,38.5,25.7c3.8,4.6,9.1,12,14,5.2C42.3,27.7,28.8,13.3,30.2,1.7c0.4-3.1-0.9-5.5,0.6-8.7c1.7-3.6,3.6-7.1,5.4-10.7
		c1.4-2.7,11.4,7.2,12.8,6.9c-0.6-1.3-0.7-2.7-0.5-4.1c1.4,0.5,3,3.2,4.2,3.3C54.3-11.4,56.4-14.7,55.5-16
		C53.9-18.3,56-15.3,55.5-16z M12.5-21.2c-4.9-0.9-7.1-0.3-4.2-6.7c2.7,1.2,5.1,3,7.7,4.3C15.6-21.9,14.5-21,12.5-21.2
		C11.7-21.4,14.5-21,12.5-21.2z"/>
</g>
<g id="H11A">
	<path id="H11" class="st0" d="M50.8,27.5c-0.3-1.4-7.6-5.7-9-7.1c-3.2-3.2-5.8-7.1-9-10.4C28,5.2,29.6,5,29.9-1.2
		c0.1-6.7,3.5-13.3,7.6-18.4c1.7,2.3,8.6,8.9,10.9,9.1c-0.8-5,1.1-5.3,3.9-0.9c4.1-4.3,1.9-6.3-1.3-11.1c-2.6-4-7.8-8.1-7.8-13
		c-2.5,1.2-1.7-1.4-3.1-2.2C39-37,39.7-34,38.5-34c-3.4,0.1-5.8,2.6-8.9,2.9c-3.1,0.5-3.7,5.1-6.9,4.5c-1.1-0.3-2,0-2.8,0.8
		c-1.9-2.2-4-3.9-6.2-5.8c-2.4-2-10-13.6-6.6-14.7c2.5-0.8,2.3-5,1.2-7c-2.2-4-3.8-2.6-7.5-0.9c0.5,1.9,2.8,0.8,3.7,2.3
		c-3,1.8-3.6,2.7,0,4.1c-4.6,0.8-1.1,4.7-3.3,5.4c-3,0.9-5.2,9.9-3,11c-3,2.6-2.4,11,0.6,13.8c-4,4.2-16.1-2.1-21.4-0.7
		c-3.8,0.9-8.3,3.1-12.3,2.4c-3.5-0.7-6.9,0.2-9.7,2.4c-4.6,3.4-9.6,15.9-14.9,17c-2.9,0.8-4.8,3.1-7.5,4.2
		c-1.7,2.8,3.7-0.6,0.7,2.8c4.9,2.2,17.8-9.1,20.8-12.2C-44.4-3-38.7-4.6-39-7c-0.4-4.5,1.8-5.3,5.4-6c-1.8,3.4-3.5,6.8-3.7,10.6
		c-0.3,1.8,0.6,9.3-0.2,10c-2.6,2.3-6.4,2.2-8.9,4.4c-2.1,1.9-1.1,3.2-2.8,5.3c-1.9,2.3-3.8,7.5-7.3,7.8c-1.7,0.2-5.5,1.6-6,3.5
		c8.8,1.3,9.9-2.5,15.1-8.4c5.3-6,13.3-10.5,20.2-14.3c3.2-1.8-2.4,10.9,0.4,12.4c3.7,2,7.1,4.6,10.2,7.4c3.8,3.5,1.7,5.4,6.7,7.6
		c0.8-7.6-5.6-11.2-11.2-15.3c-2.8-2.2,1.2-7.2,2.3-9.1c2.6-4.5,1.3-8.5,7.1-5.6C-5,6.7,13.2,4.3,9.8,14.6c-1.6,5-1.9,8.7-7.3,10.5
		c-4.7,1.6-8.4-1.3-12.5,2.3c6.9,3.3,11.6,1.2,17.9-2c5.6-2.8,5.6-14,11-15.8c6.2-2.1,15.4,7.4,19.7,11.2c5,4.3,7.6,11.8,14.5,9.2
		C51.9,29.5,51.1,28.7,50.8,27.5C50.7,27.3,50.9,28.8,50.8,27.5z M14.8-21.5c-5,0.6-5.9,0.9-8.8-2.5c2.3-4,2.2-4.6,6.4-2
		C13.5-25.3,20.2-22.3,14.8-21.5C14-21.4,16.1-21.7,14.8-21.5z"/>
</g>
<g id="H10A">
	<path id="H10" class="st0" d="M53.6-20.3c-1.8-3.1-4.2-6-6.3-8.9c-1.8-2.5-2.1-5.5-3.6-7.6c-1.6,3.1-1.6,0.5-2.9-1.3
		c-1.7,0.8-0.6,2.3-1.1,3.7c-3.2,0.7-6.3,1.6-9.5,2.5c-1.5,0.4-4.2,0-4.5,2.8c-0.2,2.5-4,1.6-5.9,4.1C19.8-26.8,1.3-44.4,7.7-45.9
		c3.5-0.9,1.3-8.3-0.9-9.9c-1.4-1.1-5.3,1.5-6.6,2c-0.5,0,3.8,2.1,3.9,2.1c-3.4,0.5-3.9,1.8-1.6,3.8c-1.4,2.7-3.2,5-4.1,8
		C-3.5-34.2-3.9-28.8-4.2-23c-0.3,5.9,4.3,7.1-4,6.2c-6.7-0.7-12.3-1.8-18.8,0.1c-4.7,1.4-9.4-0.2-13.9,1.2C-45.5-14-50-10.1-52.7-6
		c-3.5,7-17.9,11.7-17.9,18.1c11.2-2.2,17.9-9.1,26.3-16.3c1,2.8,3.2,0.4,3.9-1.4c5.6,3.6-0.1,14.2-3.9,16.9
		c-4.1,2.9-13.6,15-12.9,19.6c-1.3-0.4-2.4-0.2-3.3,0.6c1.1,1.1,1.3,2.4,0.6,3.8c5.9-3.3,7.6-8.4,12.1-13.4
		c5.5-6.1,12.3-10.8,19.3-14.9c2.7,6.7-9.9,6.1,0.1,12.4c3.8,2.4,7,5.2,9.8,8.6c-1.2,2.8,0.8,4.7,3.9,5.2c-0.5-3.6-0.6-8.9-4.2-11
		c-1.7-1.1-6.8-3.5-7.2-5.8c-0.5-2.9,5.4-6.6,6.9-8.7c0.4-0.5,1.6-4.5,2.9-4.5C-12.5,3-8.1,5.4-4.6,6.5C0,7.9,6.2,8.8,11.1,9
		c-3.9,3.6-4.2,10.6-8,14c-3.1,2.7-8.3,3.4-9.2,7.6c-3-0.6-5.2,3.8-2.9,6.5c4.7-5.3,10.6-9.1,15.8-14c3.2-2.9,9.5-15.7,14.8-13.3
		c2.3,1.1,6.5,1,9.2,1.9c4.8,1.7,8.4,3.6,11.1,8.1c2,3.4,3.7,4.6,4.5,7.9c0.8,2.9,5.9,0.2,6.3,0.7c-6.4-9.6-15.2-17.3-23.9-24.8
		c3-6.5,2.9-13.3,6.4-19.8c4.1-7.7,10.1,5.4,13.9,5.4c-0.6-1.5-0.8-3.1-0.5-4.8c1.8,0.2,3.9,4.4,5.1,3.4
		C57-15.4,55.8-16.5,53.6-20.3C53-21.4,54.6-18.6,53.6-20.3z M14.5-21.3c-1.9,0-3.9-0.6-5.7,0.6C7.7-20,7.3-22.9,6-23.3
		c4.3-8.1,4.5-0.1,11.4-0.5C17.1-22.2,16.1-21.3,14.5-21.3z"/>
</g>
<g id="H9A">
	<path id="H9" class="st0" d="M56.6-15.5c-2.3-4.4-4.9-8.6-7.8-12.6c-2.2-3.1-3.2-6.7-5.1-9.5c-1.7,1.2-3.7-2-4,0.7
		c-0.5,4.3-5.2,2.5-9.1,2.4c-3.2-0.2-5.6,1.9-6.9,4.6c-2.8,5.8-7.3-0.9-10.5-3.8c-3.1-2.8-2.6-7.3-5.8-9.5c-2.2-1.5,1.8-3.5,2.3-6
		c0.4-2.8-0.8-6.1-3.6-7.2c-2.9-1.1-9.1,3.3-2.8,4.7C1-50.7,1.3-50.1,2.5-48c-2.1,3.3-4.1,6.6-5,10.4c-1.7,6.9-2.1,14.1,0,20.8
		c-6,0.8-12.1-1.3-18.1-1.4c-3.3,0-6,1.2-9.1,1.9c-2.8,0.6-5.3-0.4-8.1,0C-49.7-14.8-53.3-3.1-62.3,3c-1.9,1.2-11.8,7.3-4.4,7.1
		c1.8,0,5.5,3.7,5.5,0c0-3.4,8-6.9,10.8-9.2c2.4-2,6.4-7.5,7-3.6c1.3-1.2,6.7-12.6,9-9.6c-2.4,3-3.4,5.1-4.3,8.8
		c-1.1,5.1,1.8,9.8-3.4,13.6c-5.4,3.9-6.8,9.3-9.9,14.9c-2.3,4.1-1.2,7-2.8,10.8c4,2.1,3.5-4.7,4.2-6.1c2.2-4.4,4.3-7.5,7.4-11.2
		c5.5-6.3,6.9-4,12.8-0.2c2.6,1.6,4.9,3.7,6.7,6.1c1.7,2.4,0.2,5.1,3.6,6.5c0.5-2.7,1.3-8.1-1.3-10.1c-2.9-2.1-11.6-6.2-5.5-9.5
		c2.2-1.3,4.3-2.4,6.3-4c1.2-1,2.2-4,3.6-4.5c3.8-1.3,13,3.9,17.2,4.5c6.4,0.9,9.5,0.3,5.3,7.3C3,19.1,0.9,23.3-2.5,27.4
		c-0.9,1.1-3,8.8-1.8,9.8c1,0.9,4.1,1,5.3,0.1c-3.9-6.2,1.1-11.9,5.9-16.1c2.3-2.1,3.3-4.7,5.5-6.9c3.3-3.4,3.8-1.1,7-2.5
		c-1.6-3.5,2.4-1.8,4.7-1.9c3.8-0.2,7.7-0.6,11.5,0.2c5.3,1,5.2,5.7,6.4,9.8c0.8,2.7-1.5,8.1,4.2,8.5C45.8,22,45.5,9.4,38.6,6.5
		c-2.9-1.2-8.9-1.4-8-5.1C31.4-2.1,31-6.7,32.5-10c1.2-3,2.8-5.7,4.4-8.5c2.6,0.8,4.6,1.5,6.8,3c1.8,1.3,2.6,4.1,4.2,5
		c3.5,1.9,0.8-3.3,1.5-4.5c1.1,0.7,2.8,3.3,3.9,3.5C54.7-11.2,57.4-14.2,56.6-15.5C55.6-17.4,56.8-15.2,56.6-15.5z M16.2-22.6
		c-2.4,0.5-4.8,0.8-7.2,1c0-2.2,0-4.4,0-6.7c2,0.8,6.7,5.5,8.9,3.6C17.8-23.5,17.2-22.9,16.2-22.6C14.9-22.3,17.1-22.8,16.2-22.6z"
		/>
</g>
<g id="H8A">
	<path id="H8" class="st0" d="M56.6-15.3c-4.2-6.4-11.1-13.4-13.3-20.7c-1.6,1-2.7,0.5-3.3-1.4c-0.7,1.2-0.9,2.4-0.7,3.8
		c-3.6-0.4-6.8-2.9-10.3-2.5c1.1,4-3.6,0.1-4.3,3.9c-0.5,3.3,0,3.9-3.1,5.4c-2.3-4.1-8.6-5.9-11.4-10.2c-1.4-2-1.5-4.3-3.2-6.5
		c-0.9-1.3,1.8-3.2,2.3-5.2c1.4-6.7-4.4-8.9-9.3-5c0.7,1.8,2,2.4,3.7,1.9c-0.4,0.9-1.2,1.4-2.4,1.4c2.3,4.8-3.3,11.1-3.9,16.7
		c-0.7,6.2-1.2,11.6,0.6,17.7c-8.1,1-15.9-2.7-24-0.8c-4.1,0.9-7.2,0.9-11.3,1.2c-4.3,0.2-8.8,4.8-12.9,3.7c0.6,2.8-3.9,8.6-7.1,9.3
		c2.3,2.7-7.7,7.7-10.5,7.6c0.4,1.2-0.9,3.9-1.1,5.1c3.3,0.3,6.6,0.4,9-2.4C-59,9-61.7,9.3-61,10.6c2.3-1.3,14.5-13,15.6-11.2
		c1.2-1.2,0.6-3.2,2.4-3.9c0.9,4.5,0.7-0.6,4.1-0.3c-0.1-3.9,1.1-5.7,4.6-7.4c0.2,1.5-2.1,3.5-2.5,5.3c-0.6,2.6-0.5,5.4-0.3,8
		c0.1,1.7,1.4,6.1-0.2,7.5c-1.9,1.8-5.8,4.3-7.1,6.5c-2.9,5-6.2,24.6,4,21.7c-0.8-0.7-0.7-1.6,0.2-2.6c-1.8-1.2-3.9-2.3-3.4-5
		c1.1-6,2.3-8.6,7-12.7c5.2-4.6,9.7,12.6,10.6,15c2.2-3.8,3.7-8.7-0.1-12.1c-5-4.5-7.6-6.8,0.3-9c3.7-1.1,7-5.8,10.1-6.4
		C-11.1,3.1-4,7.5,0.8,8.1c2.7,0.3,9.5-0.6,8.3,3.7c-1.2,4.7-3.2,10.3-5.2,14.8c-2.1,4.7-0.8,12.3,4.2,9.8c-0.1,1.9,0.9,2.3,2.8,1.3
		c-5-7.1-5.5-8.3-1-16.5c1.1-2,3.7-8.7,6-9.4c2.3-0.6,2.1,1,5.3-0.2c3.5-1.4,15.5-5.1,17.5-0.3c3.6,8-6.1,8.2-1.7,15
		c4-4.9,6.2-6.4,5.1-12.8C40.6,5.1,37.4,6.1,29.8,4c1.6-4.7,1.8-19,7.3-21.4c5.8-2.5,9.4,8.7,13.2,7.7c0.2-1.8-1.8-2.6-0.6-4.5
		c0.7,0.5,2.9,3.5,3.8,3.5C55-10.7,57.5-13.8,56.6-15.3C53.9-19.3,57-14.6,56.6-15.3z M9.6-28.6c2,0.3,6.5,3.3,7.5,4.9
		c-1.9,1.7-6.5,1.1-7.7,3.8C7.1-23.7,8.1-24.7,9.6-28.6C10.9-28.4,8.8-26.6,9.6-28.6z"/>
</g>
<g id="H7A">
	<path id="H7" class="st0" d="M56.3-15.3c-2-3-4.2-6.2-6.1-9.3c-2.1-3.4-7.1-6.7-7.5-10.9c-1.8,1.5-2.4-0.5-3.9-1
		c0.5,7.2-6.1-0.9-9.2-1.1c3.6,5.6-3.8-0.3-3.8,5.7c0.1,2.8-2.7,3.7-2.4,6.3c-2.8-1.1-5.9-5-8.4-6.9c-1.6-1.2-4-2.6-5-4.5
		c-1.1-2-0.3-4.3-2.6-5.7c-3.3-2.2,0.8-4.6,1.3-7.4c1-7.3-4.6-5.8-8.5-4.1c0.5,1.9,2.4,1.3,3.5,2.5c-5.2,2.7,0.2,1.6-2.4,6
		c-2.1,3.7-3.2,7.9-3.8,12.2c-0.8,5.3-1.8,12.9,1,17.5c-4.7,1.9-10.9,0-15.8-0.6c-5.9-0.8-10.4,1.7-16.2,1.9
		c-10.2,0.4-14.1,2.3-20.6,10c-2.7,3.2-5.9,6.3-9.1,8.8c-1.9,1.6-10.4,6.8-1.9,5.7c4.2-0.5,7.6-3,10.8-5.5c2.7-2.1,5.4-4.1,8.2-6
		c1.7-2.2,1.5-4.9,3.3-0.8c0-2.6,1-3.5,3-2.6c0.3-2.9,0.5-8.9,5.6-6.1C-38-6.6-36.6-2-35.6,3.5c1.1,5.7-9.4,2.5-4.2,9.1
		c2.6,3.3-1.4,2.3-2.3,5.2c-0.7,2.2,0.8,6.3,1.1,8.5c0.7,5.4,1.7,14.3,8.7,8.6c-4.9-2.5-9.5-11.2-3.2-15.4c4.6,3.5-0.6,7.5,2.9,11.5
		c2.2-2.4,1.2-3.7,2.5-6.2c2.7-5.8-6-4.8,0.1-10.1c3.9-3.4,8.3-6.1,12.2-9.5C-15,2.5-8.7,6.8-5.7,7.6c4.7,1.3,11.9-0.1,16.1,2.1
		c2.7,1.4,0.3,8.6,0.1,10.8c-0.6,3.7-0.3,7.6-0.8,11.4c-0.5,4.1,2.9,2.8,4,5.8c1.3-0.7,2.5-1.4,3.8-2.1c-0.8-1.8-3.5-1.3-4.6-3
		c-1.4-2.2,0.1-7.5,0.8-9.8c1-3.3,2.2-6.5,3.3-9.8c0.6-1.7,3.5-1.2,5-1.7c2-0.6,6.7,0.3,7.7-0.8c1.5-1.4,5.6-1.9,6.5,0.4
		c3,7.4-6.5,6.3-7.5,12.4c6.6-2.1,9.1-1.8,9.9-8.7c1-8.9-3.1-7.9-10.3-10.4c3.3-6.6,4.3-13.4,7.7-20.3c3.5-7.2,11.1,6.5,14.1,5.9
		c-0.8-1.7-1.9-6.5,1.4-3.3C53.6-11,58.1-12.3,56.3-15.3C56.1-15.6,56.4-15.1,56.3-15.3z M8.2-29.4c1.7,0.5,9.1,3.2,8.9,5.6
		c-0.1,1-9,3.9-9.8,3.9C7.6-20.3,9-27.6,8.2-29.4C9.3-29,9.4-26.7,8.2-29.4z"/>
</g>
<g id="H6A">
	<path id="H6" class="st0" d="M51.3-22.4c-2.1-2.8-8.5-7.7-8.5-11.4c0,0.7-3.8-2.1-4.5-2.9c-0.1,1.3-0.3,2.6-0.4,3.9
		c-2-1.2-3.9-2.7-5.8-4c-0.7,3.1-9.4,5.9-7.9,11.6c-3.3-2.4-6.1-5.2-9.4-7.6c-4.4-3.1-4.4-7.1-7.9-10.6c-2-1.9,2.9-4.7,1.9-8.6
		c-1.6-5.4-4.4-4-8.5-2.3c0.9,1.4,2.1,2.2,3.7,2.5c-3.5,1.8-1.5,4.6-3.8,8.8c-1.8,3.3-2.2,7.2-2.3,10.9c-0.2,4.5-2.1,12.6,1.5,15.8
		c-5.4,3.5-15-1.5-21.2-1c-3.3,0.3-6.3,2-9.6,2.4c-4.2,0.5-7.7-0.5-11.8,0.9C-49.1-12-54.5-4.6-58.2-0.2c-2.9,3.5-8.3,5.7-8.3,9.8
		c3.9-0.8,6.2-2.5,9.7-3.8c-2.4,4.3,7.4-4.9,8.5-6.3c1.8-2.3,4.4-5.4,6.2-3.1c0.6-1.3,1.6-1.9,3-1.6c-0.2-1.3-0.2-2.6,0-3.9
		c0.2-2.2,3.9-4,5.6-1.9c-2.1,2.9-3.8,5.7-2.1,9.4c1,2.2,4.9,6.9,0.7,7.7c-7.9,1.5-8.4,0.8-6,9c2,6.8,0.3,10.2,0.3,16.5
		c2.3-1.4,3.1-6.1,5.4-6.7c3.6,5.4,3.9,16.5,12.3,10.5c-5.1-1.5-10.6-7.4-8-13.5c2.6-5.9,10.6-10.1,12.4-16.3
		c0.9-3.2,16,3.6,19.1,3.8c2.7,0.2,10.8-1,13.4,0.6c-0.4,0.3,2.9,14.8,3.5,16.1c0.9,1.5,0.8,5.5,1,7.3c0.5,3.8,3.2,2.6,4.6,5.3
		c1.3-0.8,2.6-1.6,3.8-2.4c-0.6-1.2-3.4-1.4-4.4-2c-2.1-1.2-2.4-5.3-2.5-7.4c-0.1-2.8-1.4-13.7,1.8-15c2.3-0.9,12.2-0.8,11.2,3.1
		c-1.9,7.3-8,0.9-11.6,6.2c8.1,3.1,10.7,1,14.6-5.8c3.5-6-5-6.6-8.3-9c1.9-3.7,2.6-5.4,2.8-9.3c0.3-4.2,4.2-6.6,5.3-10.5
		c3.1-10.5,10.4,5.2,14.3,4.1c-0.8-1.5-2.1-2.9-1-4.6c1.3,0.6,4.1,4.2,5.3,2.7C58.1-15.6,54.3-18.4,51.3-22.4
		C49.3-25,53.2-19.8,51.3-22.4z M-33.3,21.3c0-0.8,0-0.8,0.9-0.8C-32.7,20.8-33,21-33.3,21.3z M-31.8,12.7c-2.2,3.6-5.1,9.2-6.2,1.9
		c-0.3-1.9,5.3-4.1,6.7-3.2C-31.4,11.9-31.6,12.3-31.8,12.7C-32.9,14.5-31.5,12.3-31.8,12.7z M7.4-24.9c0.7-1,0.5-4.9,2.1-4.3
		c2.8,1.1,5.6,3.4,8.1,5.1c-1.8,2-5.1,3.4-7.6,4.7C7.4-17.9,6.5-23.7,7.4-24.9C8.2-26,7-24.4,7.4-24.9z"/>
</g>
<g id="H5A">
	<path id="H5_1_" class="st0" d="M-13.1,37.6c-1.7-0.5-4.2,0.7-5.8,0.8c-3.8,0.2-6.1-5.9-7.7-8.4c-1.3-2-5.3-6-4.1-8.7
		c0.6-1.4,4.1-7,2.3-8.6c-2.4-2.1-13.2,0.8-13.2,4.6c0,8.2-0.2,11.1-8.3,14.8c-1.7-6.6,2.7-4.1,4.6-7.7c1.9-3.6-2.5-13.9,1.1-15.9
		c2.5-1.4,12.5,0.5,9.4-5.2c-1.4-2.1-2.6-4.4-2.5-7c0-1.8,2.5-5.4,2-6.7c-1.3-0.5-3,1-4.3,1.3c0,1.9,0,3.8,0,5.7
		c-2.5-0.6-3.2,1.1-3.3,3.2c-1.7-1.2,0.1-3.2-1.3-4.4c-1.6,1.4-1.4,3.7-2.4,5.4c-2.7-2.7-6.6,4.3-9,6.4c-3.5,3.2-9.5,3.6-13.6,6.4
		c0-7.7,3.8-6.4,8.9-11.6c5.3-5.4,9.5-12.4,16.9-15.2c3.7-1.4,7,0.2,10.6-0.8c3.4-0.9,7-2.5,10.5-2.8c3.8-0.3,18.6,4.5,20.8,1.2
		c-3.4-2-1.9-13.8-1.4-16.6c0.6-4.2,1.5-8.1,3.5-11.9c2.2-4-0.6-5.2,3.2-7.3c-1.3-0.7-3.3-0.5-3.4-2.5c6.4-2.5,10.5,0.3,7.6,8
		C7.8-43.7,3.7-46,7-43c2.2,2.1,1.9,5.1,3.8,7.2c1.5,1.7,9.1,8.5,11.2,8.4c4.8-0.4,4-1.2,5.8-5.3c1.3-3.3,4.3-1,4.3-5.2
		c2.3,1.5,6.5,7.7,6.5,2c0.7-0.2,4.8,3.6,4.8,1c0.1,3.7,4.9,7.5,7.1,10.1c0.9,1.1,8.1,8.7,6.7,10.5c-3.9,5.1-2.8-0.6-7.4-0.2
		c-1,1.9,0.6,3,1,4.7C48.5-8.7,41-21,37.5-17.3c-3.1,3.3-6.6,11.6-7,16.1c-0.2,3.2-1.3,8.2-4.1,9.9c2.4,2,7.3,4.4,6.5,8.3
		c-0.6,2.7-4.2,2.3-5.1,4.6c-1,2.4,1.1,8.1,2.1,10.2c1.8,4.1,6.9,3.5,9.3,7.3c-1.4-0.4-3.6-2.8-4.9-1c-1,1.6-5-1-5.8-2.4
		c-1.6-2.8-1.9-6.2-3.4-9.1c-2.1-4.1-6.5-4.4-10.6-5.7c2.9-5.1,4.5-0.9,6.9-0.7c2.4,0.2-1-7-2.5-7.7c-3.7-1.8-6.1-2.3-10.2-2.2
		c-8.8,0-16.4-2.4-24.5-5.4c-1.5-0.4-8.4,17.3-8.5,19.6c0,2.8,2.2,6,3.9,8.1C-18.8,34.7-13.3,35.1-13.1,37.6z M17.6-23.9
		C15.8-26,10.9-29,8.1-29c1.5,3.3-2.1,5.6-0.3,8.8C9.6-17.1,16.4-22,17.6-23.9C17.3-24.3,16.2-21.7,17.6-23.9z M26.9,14.2
		c-0.5,1.4-0.5,2.8,0.1,4.2C30.8,17.9,29.5,15.1,26.9,14.2C26.4,15.8,28,14.6,26.9,14.2z"/>
</g>
<g id="H4A">
	<path id="H4" class="st0" d="M56.6-17.2c-3.8-6.5-11.8-11.7-13.4-19.1c-1.4,2.1-2.8,1.8-4.1-0.8c-0.6,0.8-0.8,1.7-0.5,2.7
		c-3.3-0.1-4.2-3.9-8.1-3.4c-1.9,3.1-4.4,14.1-10.5,8.6c-3.2-2.9-7-5-10.1-8c-1-0.8-3.1-6.5-4.1-8c3.5-1.3,4.3-4.9,2.4-8.1
		C5.9-57,4-55.6,0.4-54.2c0.6,1.3,1.6,2,2.9,2.3c-2,3.4-4.5,9.9-5.6,14.4c-1.2,5.1-3.7,17.8,0.7,21.7c-3.1,1.5-8-0.1-11.2-0.6
		c-5.9-0.9-9.8-1.1-15.5,0.6c-3.8,1.1-7.1,0.7-10.9,1.3c-1.7,0.6-3.5,0.7-5.2,0.2c-0.5,2.8-3.3,3-5.4,2c1,3.9-11.1,15.5-12.4,13
		c-1,0.9-2,1.8-2.9,2.6c1.2,0,2.3,0,3.5,0c-6.9,4.8-7.2,3-7.2,12.2C-64,10.3-58,9-53.1,4.6c1.8-1.7,3.8-3.4,6.1-4.4
		c2.2-1,1.2-3.5,2.8-4.9c0.6,1.3,1,2.7,1.3,4.1c1.7-3.8,3.4-0.7,3.9-5.1c0.2-1.9,1.3-5.5,4.1-5.5c-0.7,5-3.3,6.7-1.5,12.6
		c2.5,8.1-2.8,6-8.4,8.1c-2.8,1.1-3.9,11.4-4.6,14.1c-2.6,1.4-8.2-1.1-7.6,4.9c2.9-0.2,5.7-0.5,8.6-0.8c3-0.3,3.1-7.7,4.3-9.7
		c3-5.2,12.2-5.4,17.3-7.5c5-2,2.2,11.1,5.2,14.2c3.5,3.7,10.6,10.1,12.4,14.5c2.1-1.7,5,0.5,8.6-0.3c-5.8-0.8-12.8-8.2-15.6-13.3
		c-1.7-3.2-1.8-6.9-1.2-10.4c0.5-0.8,1.1-1.7,1.6-2.5c0.2-1.4-1.6-2-1.2-3.8c1-4.1,1-5.1,5.1-3.6c5.2,2,10.4,3.1,15.9,3.7
		c8.9,1,14.5,2.2,20.9,9.3c-5.8,6.9-14.3-5.2-17.5,3c4.6,1,8.5,3.1,13.3,1.7c5.5-1.5,6.6-5,10-0.7c2.1,2.7,5.3,11.5,8.8,12
		c2.3,0.3-0.6,3.5,1.5,3.5c1.8,0,3.7,0,5.5,0c2.8,0-2.4-3.9-2.7-4c-3.4-1.7-6.4-6.2-8-9.5c-1.8-3.7-3.5-7.7-5-11.6
		C28.3,6.9,30.7,5.8,30.4,0C30.2-6.3,34.1-20.7,42-16.7c3.2,1.6,4.1,4.4,6.6,6.2c3.4,2.4,1-3.6,1.2-4.4c3.4-0.1,2.7,3.4,4.4,3.4
		C56.5-11.6,57.6-15.5,56.6-17.2C56-18.2,57.7-15.4,56.6-17.2z M16.1-22.5c-5.2,3-7.8,3.2-9.1-2.6c2.2-1.1,0-5.9,3-3.8
		C11.5-28.2,20.1-24.7,16.1-22.5C14.8-21.8,17.9-23.5,16.1-22.5z"/>
</g>
<g id="H3A">
	<path id="H3" class="st0" d="M56.2-16.6c-5.1-6.9-10.4-16.7-17.2-20.9c0.2,4.4-0.3,3.6-3.9,1.9c-3.2-1.5-4.2,0.5-6.1,2.4
		c-4.1,4-4.9,8.4-10.7,4c-6-4.6-8.8-8.1-12.3-14.4c-1.1-1.9,3.6-4.3,2.7-8c-1.1-5-4.7-3.7-8.4-2.5c0.9,1.3,2.1,2,3.7,2.3
		c-3.3,2.3-1.5,4.7-3.9,8.6c-2.8,4.4-3,9.7-3.7,14.7c-0.3,2.1,1.7,13,0.6,13.2c-4.6,0.6-9.8-1.1-14.4-1.7c-7.3-1-18.4,1.4-25.6,3.6
		C-51.2-11.1-55.5-3.2-62.5,1c1.8,2.4-3.3,4.4-5.3,5.1c-2.8,1.1-1.5,5.1-1.5,7.6c4.7-0.8,10.8-7.1,15.4-9.5c2-1.1,4.8-2.9,6.5-4.5
		c1.1-1,1.7-5,3.3-5c0.1,1.6,0.3,3.3,0.7,4.8c0.1-1.4,0.7-2.3,2-2.9c3.1-1.1,1.9-3,2.1-6.4c3.4,0.6,1.4,8.2,1.7,11
		c0.5,4.7-0.7,10.3-7,9.7c-3-0.3-7.1,10.5-9.1,12.8c-3.5-0.7-5.4-1.1-8,2.1c9.4,3.1,9.2,1.1,14.3-5.4c4.9-6.2,14.5-9.1,21.6-11.7
		c2.9-0.9,2.3,5.6,2.3,6.6c0,5.2-0.2,5.6,3.9,9c3.4,2.8,13,14.9,17.5,11c-5.2-6.8-16.4-9.7-15.6-19.8c0.1-1.7,0.2-11.7,2.6-11.8
		c4.4-0.2,10.8,3.5,15.4,4.3c3.3,0.6,6.7,0.9,10,1.1c4.9,0.4,6.7,7.8,8.5,11.5C14,26.8,2.2,14,0.8,22.8c6.9,1.4,10.9,1.8,18,1
		c6.3-0.7-0.8-18.3,5.3-13.3c5.2,4.1,19.7,29.4,26.7,23c-4.7-3.5-8.9-6.1-12.4-11.1c-2-2.8-10.2-14.8-8.6-18.2
		c1.9-3.9-1.2-7.8,1-11.8c1.2-2.3,3.6-10,6-11c5.5-2.3,9.9,8.7,13.1,7.7c-1.1-2.5-1.5-7.3,2.2-3.6C54.2-12.4,57.9-14.3,56.2-16.6
		C54.5-18.8,56.7-15.8,56.2-16.6z M7.5-26.7c0-1,0-1.9,0-2.9c5.2,1.2,15.3,6.6,4.9,8.6C6.8-19.5,6.2-22.3,7.5-26.7
		C7.7-27.5,7.2-25.9,7.5-26.7z"/>
</g>
<g id="H2A">
	<path id="H2" class="st0" d="M55.6-17.6c-3.6-4.9-7.1-9.9-11.2-14.4c-1.1-1.3-1.3-3.7-2.5-4.8c-4.3-3.7-2.2,0.3-2.6,2.1
		c-1.7,1.7-5-1.8-7.8,0.4c-2.7,2.1-6.7,4.1-7.4,7.8c-2.3,2.3-12.9-6.7-14.4-8.3c-2-2.2-0.4-5.4-3-7.3c-3.3-2.4-0.2-2.4,0.8-4
		C10.9-51,6.5-58.3,1-53.3c3.7,1.3,3.9,2.5,0.4,3.6c0.9,1,1.1,2,0.7,3.2c-0.9,2.1-2.4,3.1,0.7,2.9c-5.7,5.7-7.3,14-6.1,22.3
		c0.4,2.8,3.8,5.8-0.7,6c-5.8,0.2-11.5-1.6-17.2-1.5c-3.6,0-6.9,1.8-10.4,2.5c-4.7,0.9-9.2-0.5-13.7,1.9
		c-6.9,3.7-9.4,11.1-17.3,13.3c0.8,0,1.5,0.4,2,1c-1.5,5.9-11.1,2.7-8.1,11.6c4.5-0.8,7.3-5.3,11.1-7.6c5.2-3,9.4-8.4,14.2-11.2
		c0,1.2,0,2.5,0,3.7c2.1-3.4,4.5-1.2,4.1-6.1c-0.1-1.6,3.7-3.4,4.9-2.8c-1.1,2.7-2.1,4-2.8,6.9c-1.6,6,1.3,11.4-4.9,15.2
		c-5.2,3.2-6.2,6.6-10.1,11.3c-3,3.7-6.6,1.9-10.6,5c10.6,5.3,12.1-4.6,18.9-9.6c2.4-1.8,18.4-12.1,19.6-9.9c1.6,2.9-0.3,6.9-1,9.8
		c-1.1,4,7.7,7.1,10.5,8.7c3.9,2.3,8,7.3,10.7,7.3c-3-7-16.6-10.5-15-18.4c0.7-3.4,1.5-9,3.5-11.9c0.8-1.1,13.6,3.5,15.7,3.9
		c2.6,0.4,5.2,0.6,7.8,0.9c6.3,1.2,5.3,5.7,5.9,11.1c0.6,4.9-5.5,5.2-9.1,4.8c-3.6-0.4-6.4-5.1-9.1,0.7c6.3,1.2,13.6,3.8,19.6-0.4
		c3.8-2.6,0.9-18.4,8.5-15.6c4.3,1.5,26.3,26.5,29.1,22c-2.5-3.9-6.6-5-10.1-8.8C40,19.8,28.4,6.9,30.2,3c1.3-2.7-0.7-5.7-0.1-8.6
		c0.9-4.1,3.5-8,5.2-11.8c2.9-5.9,11.9,5.6,14.2,6.5c0.6-1.8-1.9-3.1-0.5-4.8c2.3-0.4,2.9,2.8,4.8,2.6
		C55.9-13.3,56.5-16.5,55.6-17.6C54.1-19.8,56.7-16.2,55.6-17.6z M7.4-25.8c0.1-1,0.3-2,0.4-2.9c2.3,0.4,3.7,1.6,5.6,2.8
		c1.4,0.8,2.8,1.5,4.3,2.1c0.8-1.3,1.7-1.6,2.9-1.1C24.4-21-1.5-18.5,7.4-25.8C7.7-26,6-24.7,7.4-25.8z"/>
</g>
<g id="H1A">
	<path id="H1" class="st0" d="M51.9-24.1c-1.2-1.6-9.5-14.7-10.7-14.7c-2.7-0.6-1.8,0.8-2.2,3.5c-1.5-0.1-6.8,0.3-4.4-2.4
		c-1.5-0.5-2.7-0.2-3.6,1.1c4,0-2.1,7.1-5.6,3.9c-1.6,8-7.2,3.9-11.8,0.4c-4.6-3.6-4.6-8-8.1-12.6c5.6-0.6,3.5-6.4,2.5-9.6
		C6.6-58.8-3.5-55,3-51.5c-3.4,1.6,0,2.6-2.4,6.2c-1.7,2.5-2.9,5.3-3.3,8.3C-3.8-30-5.2-22.8-1.6-16.4c-6.4,0.8-12.6-0.9-19-0.8
		c-2.7,0-5,1-7.5,1.7c-3.9,1.1-7,0.2-10.9,0.3c-5.8,0.2-10.4,5.6-14.5,9.1c-2.5,2-5.1,3.8-8,5.7c3.7,0.5-4.8,5.6-6.6,7
		c1.9,2.2-0.8,3,0.4,4.1c1.7,1.7,5-2.1,6.2-2.9c6-4.4,12.5-8.2,17.8-13.5c-0.2,1.3-0.5,2.6-0.7,3.9c1.6-1.8,1.5-2.8,4-2.1
		c2.3-1.9,1.1-4.9,2.4-7.2c1.5,2,2.3-0.6,3.9-0.1c-2.6,4.2-3.9,7.8-4.2,12.7C-38.8,8.2-41,9.1-46,13c-3.6,2.6-5.5,9.5-8.1,13.1
		c-1.6,2.3-7.3,3-6.6,6.7c7.8-1.7,8.7-5.4,13.4-10.9c5.4-6.4,12.9-9.8,19.6-14.4c3.5-2.4-1.7,10-1,10.8c2.3,2.6,16.8,8.3,14.6,12.2
		c2.2,0.9,1.9,3.7,4.8,3.1c-0.8-2.9-1.9-7.7-4.7-9.5c-2.4-1.5-9.8-4.7-8.4-8.4c1.6-4.2,5-7.5,5.9-12c0.3-1.3,10.6,2.8,12.4,3.2
		c4.5,1,9.4,0.6,13.7,2.2c4.3,1.6,0.7,6.6-0.3,9.5C7.9,23.3,6,26,0.5,27c-4.6,0.8-5.8-2.8-9.1,2.9c7.6,1,11.2,0.4,17.5-3.9
		c4.7-3.3,7.7-17,13.5-16.8c7.6,0.4,16.4,8,21.1,13.5c3.3,3.9,5.4,8.3,11.2,6.7c-4-5-10.1-8.5-13.6-14c-2.1-3.2-5.6-5-8-7.9
		c-3.1-3.8-2.8-3.6-1.9-7.6c1.1-4.5,0.1-16.4,5.9-18.8c5.4-2.2,9.3,7.2,13.1,7.2c-0.2-1.2-1.1-3.2-0.6-4.5c4,1.1,3.4,4.8,6.9,0.9
		C58.3-17.5,53.3-22.3,51.9-24.1C49.8-27,53.5-22.1,51.9-24.1z M18.4-22.8c-1.7,0.4-8.2,2.2-9.7,1.6c-3.3-1.2-0.5-5.4-0.4-7.4
		c2.6,0.6,9.2,3.3,11.3,4.8C19.2-23.4,18.8-23.1,18.4-22.8C16.6-22.4,18.8-22.9,18.4-22.8z"/>
</g>
</svg>
