<?xml version="1.0" encoding="utf-8"?>
<!-- Generator: Adobe Illustrator 16.0.4, SVG Export Plug-In . SVG Version: 6.00 Build 0)  -->
<!DOCTYPE svg PUBLIC "-//W3C//DTD SVG 1.1//EN" "http://www.w3.org/Graphics/SVG/1.1/DTD/svg11.dtd">
<svg version="1.1" xmlns="http://www.w3.org/2000/svg" xmlns:xlink="http://www.w3.org/1999/xlink" x="0px" y="0px"
	 width="595.28px" height="425.2px" viewBox="0 0 595.28 425.2" enable-background="new 0 0 595.28 425.2" xml:space="preserve">
<g id="Palette">
	<rect x="1.072" y="39.941" fill-rule="evenodd" clip-rule="evenodd" fill="#B9D0E5" width="8.544" height="12.19"/>
	<rect x="60.977" y="39.941" fill-rule="evenodd" clip-rule="evenodd" fill="#46171C" width="8.544" height="12.19"/>
	<rect x="52.189" y="39.941" fill-rule="evenodd" clip-rule="evenodd" fill="#5F230F" width="8.544" height="12.19"/>
	<rect x="43.869" y="39.941" fill-rule="evenodd" clip-rule="evenodd" fill="#8C371D" width="8.544" height="12.19"/>
	<rect x="35.147" y="39.941" fill-rule="evenodd" clip-rule="evenodd" fill="#C26734" width="8.544" height="12.19"/>
	<rect x="26.613" y="39.941" fill-rule="evenodd" clip-rule="evenodd" fill="#FAA959" width="8.544" height="12.19"/>
	<rect x="18.069" y="39.941" fill-rule="evenodd" clip-rule="evenodd" fill="#4E629B" width="8.544" height="12.19"/>
	<rect x="9.525" y="39.941" fill-rule="evenodd" clip-rule="evenodd" fill="#839FCC" width="8.544" height="12.19"/>
	<rect x="69.438" y="39.941" fill-rule="evenodd" clip-rule="evenodd" fill="#E02826" width="8.544" height="12.19"/>
	<rect x="77.982" y="39.941" fill-rule="evenodd" clip-rule="evenodd" fill="#B22024" width="8.544" height="12.19"/>
</g>
<g id="Frame_Stand">
	<path fill-rule="evenodd" clip-rule="evenodd" fill="#5F230F" d="M-16.948-19.872c-0.505-0.063-1.519,3.063-0.849,3.65
		c-1.643,0.267-3.432,0.495-3.918,2.424c-0.533,2.119,2.062,2.854,3.12,4.044c2.245,2.525-0.147,8.313,4.29,9.399
		c-0.763,0.337-1.55,0.41-2.363,0.221c-0.718,0.847-1.414,1.729-1.939,2.713c-0.884,1.658-0.648,4.067,0.427,5.577
		c0.824,1.155,2.524,1.76,3.904,1.66c0.924,2.243,0.533,4.596,2.279,6.532c2.035,2.256,5.86,3.698,3.799,7.559
		c-1.092,2.044-5.057,4.539-0.815,6.167c3.538,1.358,15.721,2.048,16.802-3.213c0.284-1.382-0.867-2.701-1.124-4.011
		c-0.448-2.289,0.281-5.017,0.974-7.184c0.714-2.235,2.139-3.981,2.998-6.11c0.37-0.918,0.382-2.416,1.376-2.93
		c1.299-0.672,2.93-0.324,4.312-0.794c1.913-0.651,3.678-1.987,4.794-3.675c2.184-3.303,0.248-4.909-1.413-7.333
		c-1.902-2.778-3.768-3.608-6.882-4.558c-1.264-0.385-1.813-1.115-2.723-2.015c-1.297-1.284-3.06-1.751-4.271-3.065
		c-1.112-1.109-2.688-6.91-4.426-6.816c-1.401-1.381-0.236-3.677-1.205-5.256c-1.216-1.981-4.621-2.918-6.782-2.967
		c-3.314-0.075-6.058,2.026-9.146,2.117c-1.732,0.05-2.903,1.025-3.195,2.734c-0.444,2.597,1.378,2.962,1.939,5.099 M-13.315-24.675
		C-13.648-24.688-13.648-24.688-13.315-24.675C-13.4-24.675-13.315-24.675-13.315-24.675z M-13.9-24.772
		c0.061,0.021,0.126,0.033,0.189,0.049C-13.774-24.739-13.839-24.751-13.9-24.772z"/>
	<path fill-rule="evenodd" clip-rule="evenodd" fill="#AFC1E1" d="M-9.229-14.665c1.506,0.723,2.728,1.822,3.84,3.033
		c1.152,1.254,1.039,2.414-0.512,3.201c-3.652,1.852-6.012,5.02-8.547,8.029c-0.002,0-0.188,0.012-0.188,0.012l-0.186-0.002
		c-0.264-0.672-0.859-0.947-1.459-1.219c-0.916-2.15-1.842-4.271-1.519-6.738c0.108-0.836-0.847-1.422-1.257-2.158
		c0.576-0.439,1.101-0.992,1.743-1.287c0.817-0.377,1.79-1.043,2.476,0.268c-0.365,0.379-0.717,0.77-1.1,1.129
		c-0.374,0.35-1.014,0.623-0.762,1.232c0.336,0.814,0.995,0.295,1.531,0.189c0.259-0.051,0.514-0.115,0.771-0.174
		c0.941,0.949,1.686,0.641,2.682-0.113C-9.867-10.665-9.395-12.563-9.229-14.665z"/>
	<path fill-rule="evenodd" clip-rule="evenodd" fill="#581F13" d="M-14.642-18.421c0.055-0.119,0.109-0.238,0.167-0.359
		c1.193-1.031,2.389-0.99,2.927,0.514c0.462,1.293,2.547,1.531,2.011,3.342c-0.535,0.154-1.16,0.23-1.456-0.271
		C-11.868-16.683-12.813-18.038-14.642-18.421z"/>
	<path fill-rule="evenodd" clip-rule="evenodd" fill="#4E629B" d="M-14.836-11.526c0.414,0.744-0.094,1.658,0.441,2.377
		c-0.258,0.059-0.513,0.123-0.771,0.174c-0.536,0.105-1.195,0.625-1.531-0.189c-0.252-0.609,0.388-0.883,0.762-1.232
		C-15.553-10.757-15.202-11.147-14.836-11.526z"/>
	<path fill-rule="evenodd" clip-rule="evenodd" fill="#C26734" d="M-9.524-14.897c-0.535,0.156-1.16,0.23-1.457-0.271
		c-0.873-1.486-1.818-2.84-3.648-3.225c0.055-0.117,0.109-0.238,0.168-0.357c-1.027,0.037-1.51-1.123-2.51-1.148
		c-1.092,1.102-0.809,2.33-0.33,3.578c-0.455,0.061-0.906,0.16-1.361,0.182c-1.561,0.074-2.746,1.102-3.053,2.318
		c-0.348,1.383,0.811,2.502,2.109,3.18c0.17,0.088,0.375,0.111,0.564,0.164c0.576-0.439,1.1-0.992,1.742-1.287
		c0.818-0.377,1.791-1.045,2.477,0.268c0.414,0.742-0.094,1.656,0.441,2.377c0.941,0.947,1.686,0.641,2.682-0.115
		c1.846-1.4,2.318-3.299,2.484-5.4C-9.319-14.724-9.42-14.81-9.524-14.897z"/>
	<path fill-rule="evenodd" clip-rule="evenodd" fill="#FBB568" d="M-18.488-14.017c-0.191,0.555-0.615,0.867-1.169,0.801
		c-0.557-0.066-0.957-0.441-0.763-1.072c0.19-0.607,0.729-0.648,1.263-0.58C-18.671-14.808-18.468-14.495-18.488-14.017z"/>
	<path fill-rule="evenodd" clip-rule="evenodd" fill="#B9D0E5" d="M-17.071-19.823c-0.396,0.469-0.903,1.299-0.363,1.867
		c0.542,0.566-0.775,0.818-0.773,1.193c0.004,0.375,1.894,1.779,2.291,1.164c0.398-0.615,1.154-3.496,0-4
		S-17.071-19.823-17.071-19.823z"/>
	<path fill-rule="evenodd" clip-rule="evenodd" fill="#46171C" d="M-17.608-18.431c0.99,0.549,1,1.432,1.045,2.303
		c-0.656,0.004-1.338,0.057-1.641-0.627C-18.258-17.38-17.469-17.784-17.608-18.431z"/>
	<path fill-rule="evenodd" clip-rule="evenodd" fill="#FAA959" d="M-15.265-14.294c-0.053-0.393,0.145-0.688,0.397-0.943
		c0.498-0.502,0.979-1.139,1.795-0.535c0.52,0.387,0.818,0.885,0.409,1.523c-0.542,0.846-1.212,0.795-1.954,0.25
		c-0.186-0.137-0.429-0.193-0.646-0.289C-15.264-14.288-15.265-14.294-15.265-14.294z"/>
	<path fill-rule="evenodd" clip-rule="evenodd" fill="#839FCC" d="M-14.229-0.421c-0.25,0.022-0.412,0.254-0.724,0.282
		c-0.757,0.015-1.446,0.704-2.056-0.536c-0.868-2.145-1.302-5.031-0.864-7.523c0.168-0.957-0.868-1.551-1.313-2.334
		c0.89-0.928,1.943-1.592,3.166-1.988c0.41,0.033,0.82,0.068,1.229,0.104c0.172,1.432-1.254,2.17-1.643,3.447
		c0.809,0.268,1.455-0.529,2.186,0.082c0.945,0.791,1.697,0.227,2.576-0.461c1.801-1.406,2.297-3.252,2.342-5.357
		c1.197,0.217,1.883,1.131,2.64,1.945c-0.614,0.061-1.437-0.314-1.69,0.594c-0.522,1.873-2.264,2.701-3.376,4.064
		c-0.743,0.91-1.52,1.035-2.563,0.26c-1.15-0.855-2.008-0.391-2.125,1.004c-0.05,0.59-0.045,1.201,0.044,1.785
		c0.337,2.205,1.312,3.127,2.981,2.891C-13.35-1.425-14.155-1.093-14.229-0.421z"/>
	<path fill-rule="evenodd" clip-rule="evenodd" fill="#89A0C9" d="M10.09-9.757c0.031-3.01-1.312-4.051-4.573-3.539
		c-0.072,0.188-0.402,1.088-0.217,0.559c-0.179,0.012-0.357,0.023-0.537,0.035c-1.025,1.691-0.817,3.057,0.963,4.596
		C6.955-7.044,8.18-7.595,9.259-8.558c0.195-0.176,0.416-0.322,0.625-0.48C9.873-9.265,9.861-9.493,9.85-9.72
		C9.925-9.767,10.005-9.778,10.09-9.757z"/>
	<path fill-rule="evenodd" clip-rule="evenodd" fill="#B9D0E5" d="M7.466-12.515c0.513,0.346,1.628-0.227,1.666,0.809
		c0.028,0.787-0.653,1.482-1.46,1.52c-0.819,0.037-1.473-0.598-1.5-1.43C6.15-12.278,6.737-12.589,7.466-12.515z"/>
	<path fill-rule="evenodd" clip-rule="evenodd" fill="#4E629B" d="M9.37-9.638c0.01,0.221,0.021,0.439,0.031,0.658
		C9.211-8.827,9.013-8.687,8.835-8.519c-0.978,0.928-2.087,1.457-3.2,0.434c-1.61-1.479-1.799-2.793-0.871-4.42
		c0.163-0.012,0.324-0.023,0.486-0.033c-0.336,1.018-0.623,1.943,0.34,2.885c0.871,0.855,1.553,0.975,2.405,0.086
		C8.401-9.989,8.872-10.593,9.37-9.638z"/>
	<path fill-rule="evenodd" clip-rule="evenodd" fill="#B22024" d="M-0.101-21.091c1.642,1.312,1.864,2.909,2.667,4.662
		c0.229,0.502,2.076,2.753,1.641,3.222c-0.49,0.525-1.277,0.346-1.689,0c-2.9-2.447-7.07-6.739-10.699-7.998
		c-0.094-0.094-0.189-0.189-0.281-0.284c-0.215-1.65-1.826-2.175-2.637-3.346c-0.496-0.719-1.819-1.167-1.22-2.253
		c0.594-1.076,1.464-2.173,2.929-2.105c1.803,0.083,3.72-0.53,5.324,0.932c0.467,0.427,1.131,0.26,1.68-0.081
		c0.109,0.046,0.592,0.758,0.633,0.87c0.256,1.656-0.299,1.228-0.299,3.108C-1.502-23.489-1.274-21.479-0.101-21.091z"/>
	<path fill-rule="evenodd" clip-rule="evenodd" fill="#E52425" d="M-4.417-26.615c-0.05,0.415-0.073,0.909,0.281,1.129
		c0.776,0.483,0.707,1.176,0.64,1.901c-2.258,1.303-4.427,0.989-6.349-0.917c-0.429-0.426-0.858-0.85-1.278-1.282
		c-0.387-0.396-0.908-0.8-0.639-1.422c0.299-0.691,0.801-1.287,1.613-1.388C-7.924-28.867-5.963-28.329-4.417-26.615z"/>
	<path fill-rule="evenodd" clip-rule="evenodd" fill="#BC2426" d="M-6.805,9.719c-0.724-0.006-1.448-0.029-2.171-0.018
		c-1.51,0.029-2.37-0.928-2.701-2.17c-0.284-1.064-0.156-2.219-1.076-3.08c-0.312-0.291-0.188-0.729,0.061-1.09
		c1.109-1.615,1.844-3.32,2.311-5.287c0.346-1.455,1.561-2.852,3.164-3.629c1.707-0.826,3.496-1.463,4.998-2.75
		c1.234-1.059,2.5,0.135,3.381,0.787c2.405,1.777,4.454,3.947,5.433,6.9c0.66,1.988,0.33,2.494-2.236,3.408
		C3.74,2.746,3.122,2.701,2.504,2.656C2.319,2.363,2.133,2.068,1.948,1.773C1.899-0.195,0.475-0.863-1.076-1.4
		C-1.58-1.574-2.168-1.777-2.544-1.264C-2.99-0.654-2.61-0.074-2.133,0.295c1.206,0.936,1.499,2.053,1.015,3.486
		c-0.136,0.4,0.055,0.91,0.096,1.371C-1.628,5.949-1.414,7.203-2.467,7.75c-0.869,0.113-1.665,0.416-2.381,0.918
		C-5.642,8.75-6.168,9.338-6.805,9.719z"/>
	<path fill-rule="evenodd" clip-rule="evenodd" fill="#E52425" d="M-3.023-6.75c2.54-0.359,4.441,0.691,5.922,2.68
		c0.354,0.479,1.13,0.882,0.687,1.561C3.199-1.918,2.678-2.863,2.336-2.722c-2.697,1.12-3.365-1.58-4.939-2.554
		C-3.139-5.607-3.307-6.109-3.265-6.71C-3.187-6.738-3.105-6.752-3.023-6.75z"/>
	<path fill-rule="evenodd" clip-rule="evenodd" fill="#E52425" d="M-9.285,2.574C-9.665,0.936-9.024-0.367-7.7-1.396
		c0.378-0.294,0.726-0.78,1.265-0.472C-5.966-1.6-6.28-1.125-6.315-0.732c-0.081,0.903-0.114,1.77,0.327,2.648
		c0.5,0.999-1.271,3.697-2.38,3.743c-0.627,0.026-0.866-0.417-0.904-0.935C-9.323,4.031-9.285,3.332-9.285,2.574z"/>
	<path fill-rule="evenodd" clip-rule="evenodd" fill="#4E629B" d="M11,9.13c-0.113-0.279-0.225-0.561-0.339-0.84
		c-0.506-0.352-1.008-0.706-1.514-1.06C7.861,7.273,6.993,7.986,6.302,8.986C6.158,9.006,6.07,9.084,6.04,9.217
		C4.34,8.513,5.351,7.565,5.803,6.666C7.305,5.759,6.464,4.64,6.082,3.56c-0.621-0.19-1.24-0.381-1.859-0.571
		C4.101,2.646,3.98,2.303,3.859,1.959c-1.285,0.146-2.31,0.648-2.797,1.947c-0.17,0.451-0.443,0.839-1.027,0.793
		C-0.77,5.367-0.844,6.694-2.051,7.004c0.008,0.356-0.298,0.843-0.285,1.195c-0.09,0.426-0.414,1.191-0.508,1.624
		c-0.518,0.623-0.289,1.076-1.25,1.52c-2.097,0.695-3.164,2.043-5.518,1.678c-1.609-0.626-1.99,0.069-1.588,1.516
		c0.141,0.501,0.598,0.906,0.494,1.492l0.021,0.041c1.302,0.84,2.546-0.011,3.814-0.121c5.88-0.507,11.41-2.023,16.255-5.541
		c0.495-0.359,1.09-0.58,1.638-0.864C11.048,9.402,11.039,9.267,11,9.13z"/>
	<path fill-rule="evenodd" clip-rule="evenodd" fill="#AFC1E1" d="M6.463,9.513c0.737,0.109,1.499-0.28,2.616,0.283
		c-1.725,0.928-3.019,1.721-4.838,2.288c-3.131,0.977-4.299-1.464-6.372-2.21c0.093-0.432,0.185-0.857,0.274-1.283
		c3.047-2.408,3.941-2.263,5.672,1.18c0.932,1.851,1.604,0.731,2.385-0.027C6.231,9.609,6.318,9.532,6.463,9.513z"/>
	<path fill-rule="evenodd" clip-rule="evenodd" fill="#AFC1E1" d="M-3.026,12.026c1.111,0.52,3.154-0.094,3.225,1.559
		c0.078,1.875-2.017,1.051-3.099,1.508c-1.547,0.652-3.247,0.511-4.897,0.574c-1.576,0.062-2.223-0.545-1.654-2.119
		C-7.098,13.912-5.122,12.721-3.026,12.026z"/>
	<path fill-rule="evenodd" clip-rule="evenodd" fill="#AFC1E1" d="M5.963,7.192C5.287,7.146,4.609,7.13,3.936,7.051
		C2.517,6.886,1.918,6.024,2.082,4.658c0.177-1.49,1.232-1.354,2.3-1.145c0.62,0.192,1.239,0.382,1.859,0.572
		C6.625,5.165,7.465,6.284,5.963,7.192z"/>
	<path fill-rule="evenodd" clip-rule="evenodd" fill="#8C371D" d="M8.973-3.682c-0.125-1.793,2.562-3.439,4.194-2.677
		c1.807,0.844,3.911,1.02,5.259,2.838c0.871,1.177,0.762,2.584,1.324,3.804c-1.626,0.575-2.225,2.86-4.099,2.767
		c-1.097-0.055-2.058,1.41-2.909,0.459c-1.439-1.607-3.046-3.186-3.57-5.418C9.038-2.483,9.037-3.09,8.973-3.682z"/>
	<path fill-rule="evenodd" clip-rule="evenodd" fill="#B22024" d="M-1.735,16.202c0.248-0.048,0.545-0.025,0.738-0.156
		c0.816-0.555,1.898-1.024,2.455-0.159c0.607,0.942,1.889,2.033,0.691,3.445c-1.131,0.105-2.252,0.162-3.199-0.644
		c-0.027-0.116-0.078-0.221-0.15-0.312c-0.223-0.654-1.014-0.951-1.084-1.705C-2.1,16.515-1.918,16.358-1.735,16.202z"/>
	<path fill-rule="evenodd" clip-rule="evenodd" fill="#8C371D" d="M-1.937,16.475c0.506-1.694,1.977-1.952,3.318-1.807
		c1.364,0.148,2.375,1.251,2.638,2.602c0.231,1.194,0.647,1.811,1.899,1.671c0.312,0.906,0.242,1.848,0.252,2.781
		c-0.384-0.026-0.767-0.053-1.15-0.077c-0.796-0.91-1.588-1.829-2.968-1.756c-0.065-0.084-0.101-0.178-0.104-0.284
		c1.197-1.412-0.083-2.503-0.69-3.445c-0.558-0.865-1.64-0.396-2.456,0.159C-1.391,16.449-1.688,16.427-1.937,16.475z"/>
	<path fill-rule="evenodd" clip-rule="evenodd" fill="#4E629B" d="M4.794,21.121c-0.656-0.393-1.201-1.113-2.125-0.836
		c-0.084-0.07-0.104-0.156-0.06-0.256c-6.067-1.853-5.494,0.199-6.523-0.486c-1.388-0.928-2.29-0.178-3.247,0.641
		c-0.212,0.463-0.426,0.93-0.64,1.395c0.622,0.986,1.317,1.633,2.516,0.734c0.655-0.492,1.39-0.506,1.993,0.1
		c2.203,2.211,4.963,1.264,7.531,1.33c0.617,0.016,1.096-0.459,1.256-1.111C5.662,21.953,5.342,21.449,4.794,21.121z"/>
	<path fill-rule="evenodd" clip-rule="evenodd" fill="#AFC1E1" d="M2.201,20.47c0.117,0.299,0.221,0.602,0.354,0.893
		c0.221,0.482,1.261,0.531,0.821,1.328c-0.381,0.689-1.145,0.932-1.883,0.82c-0.965-0.145-1.949-0.354-2.844-0.729
		c-0.696-0.291-1.506-0.826-1.426-1.691c0.091-0.994,1.186-0.852,1.854-1.186c1.009,0.213,2.005,0.572,3.063,0.309
		C2.097,20.313,2.117,20.399,2.201,20.47z"/>
	<path fill-rule="evenodd" clip-rule="evenodd" fill="#B22024" d="M-5.805,18.761c-0.56-0.263-1.574,0.473-1.77-0.544
		c-0.148-0.774,0.419-1.565,1.211-1.725c0.803-0.162,1.546,0.365,1.7,1.184C-4.541,18.327-5.073,18.724-5.805,18.761z"/>
	<path fill-rule="evenodd" clip-rule="evenodd" fill="#4E629B" d="M-14.395,2.295c-0.206,0.646-0.383,1.3-0.619,1.936
		c-0.498,1.339-1.477,1.715-2.766,1.232c-1.404-0.525-1.022-1.519-0.564-2.506c0.334-0.558,0.665-1.112,0.997-1.67
		C-16.208,1.171-14.92,0.62-14.395,2.295z"/>
	<path fill-rule="evenodd" clip-rule="evenodd" fill="#DED524" d="M-12.018,9.197c0.043,1.248,0.899,0.667,1.498,0.667
		c0.012,0.973,0.037,1.941,0.719,2.738c-0.236,0.149-0.473,0.298-0.709,0.447c-0.335-0.135-0.67-0.269-1.005-0.402
		c-0.181-0.818,0.347-2.145-1.347-1.876C-13.751,9.619-13.09,9.298-12.018,9.197z"/>
	<g>
		<path fill="#4E629B" d="M-1.639-13.81c-0.381-0.67-1.084-1.152-1.618-1.742c-1.272-1.398-2.154-1.307-2.656-3.295
			c-0.094-0.094-4.234-3.742-4.917-4.542c-1.008-1.181-4.088-2.976-3.82-4.316c-3.638-0.437-4.513,1.581-4.396,4.443
			c0.058,1.417,1.681,2.015,2.027,3.333c1,0.025,1.482,1.186,2.512,1.148c1.191-1.031,2.387-0.99,2.925,0.514
			c0.462,1.293,2.547,1.531,2.011,3.342c0.104,0.086,0.205,0.174,0.309,0.26c1.506,0.723,2.728,1.822,3.84,3.033
			c1.152,1.254,1.039,2.414-0.512,3.201c-3.652,1.852-6.012,5.02-8.547,8.029c0.587,0.201,0.982-0.082,1.396-0.475
			c2.617-2.477,4.678-5.588,8.164-7.082c0.672-0.289,1.137-0.934,1.22-1.723c0.087-0.832,0.476-1.238,1.328-1.461
			C-0.738-11.568-1.046-12.771-1.639-13.81z"/>
		<polygon fill="#AFC1E1" points="-13.189,-24.755 -13.174,-24.74 -13.165,-24.74 		"/>
	</g>
	<path fill-rule="evenodd" clip-rule="evenodd" fill="#AFC1E1" d="M-12.939-23.889l1.103,1.093c1.818,1.895,2.402,1.831,4.163,3.778
		c0.622,0.689,1.834,1.746,1.154,2.428c-0.945,0.945-1.825-0.436-2.547-1.082c-1.128-1.006-2.131-2.152-3.197-3.229
		c-0.596-0.6-1.21-1.33-1.555,0.215c-0.165,0.734-0.732,0.939-1.377,0.619c-0.648-0.321-0.877-0.988-0.314-1.451
		c1.267-1.042,0.329-1.501-0.412-2.059c-0.315-0.237-0.674-0.428-0.953-0.701c-0.428-0.418-0.501-0.938-0.136-1.434
		c0.415-0.562,0.942-0.664,1.556-0.273C-14.695-25.502-13.999-23.815-12.939-23.889z"/>
	<path fill-rule="evenodd" clip-rule="evenodd" fill="#46171C" d="M-0.369,24.251c-2.406,0.184-3.167-0.813-3.731-1.165
		c-0.564-0.351-2.683-1.373-3.499,0.451c-0.815,1.823-2.964,3.304-2.202,4.001s-0.347,3.572,9.645,2.447s6.708-3.731,6.85-4.116
		c0.142-0.384,0.855-2.668-2.202-1.853S-0.369,24.251-0.369,24.251z"/>
	<path fill-rule="evenodd" clip-rule="evenodd" fill="none" stroke="#000000" stroke-miterlimit="10" d="M19.707-5.177
		c-1.902-2.778-3.768-3.608-6.882-4.558c-1.264-0.385-1.813-1.115-2.723-2.015c-0.168-0.166-0.344-0.318-0.525-0.46
		c-0.363-0.606-0.938-0.97-1.737-1.118c-0.721-0.423-1.428-0.857-2.009-1.487c-1.112-1.109-2.688-6.91-4.426-6.816
		c-1.401-1.381-0.236-3.677-1.205-5.256c-1.216-1.981-4.621-2.918-6.782-2.967c-3.245-0.074-5.944,1.928-8.955,2.097
		c-2.889-0.017-3.615,1.885-3.508,4.496c0.058,1.417,1.681,2.015,2.027,3.333c0.009,0,0.017,0.004,0.025,0.004
		c0.002,0.007,0.005,0.012,0.007,0.02l0.011,0.009c-0.002,0.002-0.003,0.004-0.004,0.005c-0.071,0.016-0.088,0.048-0.091,0.061
		c-0.131,0.088-0.281,0.321-0.422,0.634c-0.044,0.088-0.083,0.178-0.112,0.27c-0.178,0.46-0.325,1.018-0.385,1.516
		c-0.125,0.197-0.227,0.401-0.213,0.635c0,0.004-0.005,0.009-0.005,0.013c0.001,0.102,0.147,0.281,0.359,0.474
		c0.012,0.016,0.022,0.034,0.036,0.047c-0.283,0.046-0.566,0.089-0.851,0.103c-1.02,0.048-1.874,0.508-2.433,1.157
		c-0.034,0.037-0.062,0.08-0.094,0.119c-0.082,0.105-0.156,0.213-0.222,0.326c-0.03,0.052-0.061,0.103-0.087,0.158
		c-0.091,0.18-0.168,0.365-0.217,0.558c-0.009,0.037-0.006,0.072-0.014,0.109c-0.191,0.893,0.176,1.538,0.744,2.076
		c0.28,0.286,0.614,0.542,0.974,0.762c0.527,0.369,1.06,0.719,1.417,1.121c0.337,0.379,0.562,0.838,0.729,1.337
		c0.001,0.072,0.007,0.142-0.006,0.218c-0.438,2.492-0.004,5.379,0.864,7.523c0.133,0.271,0.271,0.438,0.413,0.552
		c-0.024-0.005-0.048-0.005-0.073-0.011c-0.718,0.847-1.414,1.729-1.939,2.713c-0.884,1.658-0.648,4.067,0.427,5.577
		c0.824,1.155,2.524,1.76,3.904,1.66c0.924,2.243,0.533,4.596,2.279,6.532c1.495,1.657,3.946,2.878,4.332,4.937
		c-0.045,0.098-0.09,0.196-0.135,0.293c0.061,0.097,0.124,0.187,0.186,0.275c-0.002,0.605-0.17,1.279-0.583,2.053
		c-1.092,2.044-5.057,4.539-0.815,6.167c3.538,1.358,15.721,2.048,16.802-3.213c0.284-1.382-0.867-2.701-1.124-4.011
		c-0.448-2.289,0.281-5.017,0.974-7.184c0.689-2.157,2.035-3.861,2.901-5.89c0.161-0.076,0.324-0.15,0.481-0.232
		C11.048,9.402,11.039,9.267,11,9.13c-0.045-0.111-0.09-0.222-0.135-0.334c0.208-0.836,0.398-1.783,1.148-2.171
		c1.299-0.672,2.93-0.324,4.312-0.794c1.913-0.651,3.678-1.987,4.794-3.675C23.304-1.146,21.368-2.752,19.707-5.177z"/>
</g>
<g id="Frame_Walk1">
	<path fill-rule="evenodd" clip-rule="evenodd" fill="#5F230F" d="M20.796-7.52c-1.213-2.562-3.542-4.627-6.156-5.684
		c-3.055-1.235-6.241,0.1-9.252-0.731c-1.889-0.521,0.834-2.978,1.224-3.758c0.613-1.23,1.764-3.078,1.955-4.422
		c0.485-0.073,0.965-0.973,1.512-1.242c1.27-0.627,2.082-1.553,1.808-3.059c-0.029-2.455-3.565-3.961-5.037-1.739
		c-0.944,1.424-0.068,3.319-2.111,3.361c-3.122,0.065-4.38-2.591-6.986-3.567c-3.786-1.417-14.272-3.03-16.329,2.412l-0.521,0.867
		c0.214,1.033,0.321,0.726,0.094,1.68c-0.201,0.846,0.727,1.525,1.055,2.2c0.511,1.049,0.004,1.538,0.315,2.671
		c-0.621,2.274-1.928,2.163-3.522,3.428c-1.578,1.253,0.66,4.017,1.839,4.714c2.792,1.464,1.427,2.085,1.202,5.06
		c-0.1,1.319-2.656,1.822-2.284,3.57c0.036,0.169-1.523,3.324,0.83,7.315c1.351,2.09,0.967,1.681,3.23,1.571
		c1.72-0.083,1.391-1.051,2.349-0.294c0.334,0.264,0.603,0.349,0.84,0.326c-0.352,0.979-1.684,1.625-1.001,2.956
		c-0.992,0.025-1.006,0.859-0.553,1.174c1.965,1.361,2.525,2.822,0.855,4.795c-0.165,0.195-0.009,0.645-0.043,0.971
		c-0.322,3.025-2.021,4.627-5.035,4.775c-1.536,0.076-2.66,0.924-3.285,2.219c-0.619,1.283,0.479,2.049,1.287,2.816
		c1.354,1.287,3.035,2.842,5.166,3.233c2.091,0.385,4.758,0.61,6.883,0.61c0.193-1.879,1.376-3.49,1.459-5.398c0,0,0,0-0.001,0
		c-0.002-0.611-0.004-1.225-0.006-1.84c0.068-0.385,0.178-0.768,0.197-1.156c0.137-2.699,2.018-5.652,4.525-5.748
		c2.749-0.105,5.03-1.826,7.749-1.633c0.359,0.014,0.721,0.027,1.083,0.041c0.433-0.006,0.866-0.01,1.3-0.016
		c0.045,0.115,0.125,0.23,0.196,0.346c-0.017-0.009-0.035-0.02-0.051-0.027c1.792,4.594,9.921,3.348,8.342-2.246
		c-0.077-0.273-0.181-0.521-0.301-0.756c-0.548-1.352-1.739-2.347-2.874-3.381c-0.268-0.243-0.46-0.467-0.607-0.683
		c-0.222-1.394,4.169-2.48,5.037-2.998C21.746,2.481,22.943-2.99,20.796-7.52z"/>
	<path fill-rule="evenodd" clip-rule="evenodd" fill="#AFC1E1" d="M-9.319-14.622c1.506,0.723,2.728,1.822,3.84,3.033
		c1.152,1.254,1.039,2.414-0.512,3.201c-3.652,1.852-6.012,5.02-8.547,8.029c-0.002,0-0.188,0.012-0.188,0.012l-0.186-0.002
		c-0.264-0.672-0.859-0.947-1.459-1.219c-0.916-2.15-1.842-4.271-1.519-6.738c0.108-0.836-0.847-1.422-1.257-2.158
		c0.576-0.439,1.101-0.992,1.743-1.287c0.817-0.377,1.79-1.043,2.476,0.268c-0.365,0.379-0.717,0.77-1.1,1.129
		c-0.374,0.35-1.014,0.623-0.762,1.232c0.336,0.814,0.995,0.295,1.531,0.189c0.259-0.051,0.514-0.115,0.771-0.174
		c0.941,0.949,1.686,0.641,2.682-0.113C-9.957-10.622-9.485-12.52-9.319-14.622z"/>
	<path fill-rule="evenodd" clip-rule="evenodd" fill="#581F13" d="M-14.732-18.377c0.055-0.119,0.109-0.238,0.167-0.359
		c1.193-1.031,2.389-0.99,2.927,0.514c0.462,1.293,2.547,1.531,2.011,3.342c-0.535,0.154-1.16,0.23-1.456-0.271
		C-11.958-16.639-12.903-17.995-14.732-18.377z"/>
	<path fill-rule="evenodd" clip-rule="evenodd" fill="#4E629B" d="M-14.927-11.483c0.414,0.744-0.094,1.658,0.441,2.377
		c-0.258,0.059-0.513,0.123-0.771,0.174c-0.536,0.105-1.195,0.625-1.531-0.189c-0.252-0.609,0.388-0.883,0.762-1.232
		C-15.644-10.713-15.292-11.104-14.927-11.483z"/>
	<path fill-rule="evenodd" clip-rule="evenodd" fill="#C26734" d="M-9.614-14.854c-0.535,0.156-1.16,0.23-1.457-0.271
		c-0.873-1.486-1.818-2.84-3.648-3.225c0.055-0.117,0.109-0.238,0.168-0.357c-1.027,0.037-1.51-1.123-2.51-1.148
		c-1.092,1.102-0.809,2.33-0.33,3.578c-0.455,0.061-0.906,0.16-1.361,0.182c-1.561,0.074-2.746,1.102-3.053,2.318
		c-0.348,1.383,0.811,2.502,2.109,3.18c0.17,0.088,0.375,0.111,0.564,0.164c0.576-0.439,1.1-0.992,1.742-1.287
		c0.818-0.377,1.791-1.045,2.477,0.268c0.414,0.742-0.094,1.656,0.441,2.377c0.941,0.947,1.686,0.641,2.682-0.115
		c1.846-1.4,2.318-3.299,2.484-5.4C-9.409-14.68-9.511-14.766-9.614-14.854z"/>
	<path fill-rule="evenodd" clip-rule="evenodd" fill="#FBB568" d="M-18.578-13.973c-0.191,0.555-0.615,0.867-1.169,0.801
		c-0.557-0.066-0.957-0.441-0.763-1.072c0.19-0.607,0.729-0.648,1.263-0.58C-18.762-14.764-18.559-14.452-18.578-13.973z"/>
	<path fill-rule="evenodd" clip-rule="evenodd" fill="#B9D0E5" d="M-17.161-19.78c-0.396,0.469-0.903,1.299-0.363,1.867
		c0.542,0.566-0.775,0.818-0.773,1.193c0.004,0.375,1.894,1.779,2.291,1.164c0.398-0.615,1.154-3.496,0-4
		S-17.161-19.78-17.161-19.78z"/>
	<path fill-rule="evenodd" clip-rule="evenodd" fill="#46171C" d="M-17.698-18.387c0.99,0.549,1,1.432,1.045,2.303
		c-0.656,0.004-1.338,0.057-1.641-0.627C-18.349-17.336-17.56-17.741-17.698-18.387z"/>
	<path fill-rule="evenodd" clip-rule="evenodd" fill="#FAA959" d="M-15.355-14.25c-0.053-0.393,0.145-0.688,0.397-0.943
		c0.498-0.502,0.979-1.139,1.795-0.535c0.52,0.387,0.818,0.885,0.409,1.523c-0.542,0.846-1.212,0.795-1.954,0.25
		c-0.186-0.137-0.429-0.193-0.646-0.289C-15.354-14.245-15.355-14.25-15.355-14.25z"/>
	<path fill-rule="evenodd" clip-rule="evenodd" fill="#839FCC" d="M-14.319-0.377c-0.25,0.023-0.412,0.254-0.724,0.283
		c-0.757,0.014-1.446,0.703-2.056-0.537c-0.868-2.145-1.302-5.031-0.864-7.523c0.168-0.957-0.868-1.551-1.313-2.334
		c0.89-0.928,1.943-1.592,3.166-1.988c0.41,0.033,0.82,0.068,1.229,0.104c0.172,1.432-1.254,2.17-1.643,3.447
		c0.809,0.268,1.455-0.529,2.186,0.082c0.945,0.791,1.697,0.227,2.576-0.461c1.801-1.406,2.297-3.252,2.342-5.357
		c1.197,0.217,1.883,1.131,2.64,1.945c-0.614,0.061-1.437-0.314-1.69,0.594c-0.522,1.873-2.264,2.701-3.376,4.064
		c-0.743,0.91-1.52,1.035-2.563,0.26c-1.15-0.855-2.008-0.391-2.125,1.004c-0.05,0.59-0.045,1.201,0.044,1.785
		c0.337,2.205,1.312,3.127,2.981,2.891C-13.44-1.381-14.245-1.049-14.319-0.377z"/>
	<path fill-rule="evenodd" clip-rule="evenodd" fill="#4E629B" d="M-1.701-13.779c-0.381-0.67-1.084-1.152-1.618-1.742
		c-1.272-1.398-2.937-2.5-3.438-4.488c-0.094-0.094-0.189-0.188-0.283-0.281c-1.126-0.33-1.133-1.449-1.816-2.249
		c-1.008-1.181-4.188-2.25-5.75-2.5c-3.638-0.437-4.618-1.054-4.5,1.809c0.058,1.417,1.681,2.015,2.027,3.333
		c1,0.025,1.482,1.186,2.512,1.148c1.191-1.031,2.387-0.99,2.925,0.514c0.462,1.293,2.547,1.531,2.011,3.342
		c0.104,0.086,0.205,0.174,0.309,0.26c1.506,0.723,2.728,1.822,3.84,3.033c1.152,1.254,1.039,2.414-0.512,3.201
		c-3.401,1.725-5.081,2.708-7.425,5.525c-0.1-0.72-0.902-0.921-1.064-1.644c-0.753-0.251-2.243-1.807-3.546-1.537
		c-1.306-0.243-2.684,0.687-3.392,2.354c-0.871,2.052,0.532,4.917,2.277,5.056c0.828,0.067,2.917-0.654,3.752-0.639
		c0.863-0.706,1.979-1.308,2.247-1.561c2.617-2.477,4.678-5.588,8.164-7.082c0.672-0.289,1.137-0.934,1.22-1.723
		c0.087-0.832,0.476-1.238,1.328-1.461C-0.801-11.537-1.108-12.74-1.701-13.779z"/>
	<path fill-rule="evenodd" clip-rule="evenodd" fill="#89A0C9" d="M12.173-25.522c0.031-3.01-1.312-4.051-4.573-3.539
		c-0.072,0.188-0.402,1.088-0.217,0.559c-0.179,0.012-0.357,0.023-0.537,0.035c-1.025,1.691-0.817,3.057,0.963,4.596
		c1.229,1.062,2.454,0.512,3.533-0.451c0.195-0.176,0.416-0.322,0.625-0.48c-0.012-0.227-0.023-0.455-0.034-0.682
		C12.008-25.532,12.088-25.543,12.173-25.522z"/>
	<path fill-rule="evenodd" clip-rule="evenodd" fill="#B9D0E5" d="M9.549-28.28c0.513,0.346,1.628-0.227,1.666,0.809
		c0.028,0.787-0.653,1.482-1.46,1.52c-0.819,0.037-1.473-0.598-1.5-1.43C8.233-28.043,8.82-28.354,9.549-28.28z"/>
	<path fill-rule="evenodd" clip-rule="evenodd" fill="#4E629B" d="M11.453-25.403c0.01,0.221,0.021,0.439,0.031,0.658
		c-0.189,0.152-0.388,0.293-0.565,0.461c-0.978,0.928-2.087,1.457-3.2,0.434c-1.61-1.479-1.799-2.793-0.871-4.42
		c0.163-0.012,0.324-0.023,0.486-0.033c-0.336,1.018-0.623,1.943,0.34,2.885c0.871,0.855,1.553,0.975,2.405,0.086
		C10.484-25.754,10.955-26.358,11.453-25.403z"/>
	<path fill-rule="evenodd" clip-rule="evenodd" fill="#B22024" d="M-10.506-25.04c-1.066-0.588-1.801-0.332-2.874-0.911
		c-0.607-0.328-1.749-0.622-1.542-1.425c0.508-1.318,2.815-1.753,4-1.811c3.094-0.15,3.776,0.622,6.85,1.431
		c3.08,2.035,5.445,5.21,10.095,3.473c0.26,0.271,0.52,0.543,0.78,0.812c-1.62,2.622-3.813,4.666-6.646,5.824
		c-1.562,0.64-2.637-1.062-4.014-1.523c-1.719-0.574-3.029-3.16-3.225-3.189C-7.08-22.358-9.344-24.575-10.506-25.04z"/>
	<path fill-rule="evenodd" clip-rule="evenodd" fill="#8C371D" d="M8.883,0.656c-2.199,0.493-3.54-0.612-5.167-1.985
		C1.543-3.162,0.27-5.118,0.114-7.896C0.078-8.528-0.439-8.955-0.892-9.325c-1.07-0.875-0.92-1.684-0.145-2.705
		c0.88-1.159,1.515-0.542,2.292,0.055c0.707,0.543,1.426,0.289,2.234,0.029c4.286-1.379,8.523-1.386,12.511,0.972
		c2.688,1.589,2.895,4.9,0.503,7.023c-0.913,0.81-2.296,1.388-0.998,2.95c0.204,0.244,0.091,0.643-0.172,0.905
		c-0.37,0.366-0.754,0.237-1.043-0.069c-0.86-0.912-1.359-0.483-2.038,0.313C11.347,1.209,9.993,0.477,8.883,0.656z"/>
	<path fill-rule="evenodd" clip-rule="evenodd" fill="#AFC1E1" d="M-9.514-21.448c0.101,0.73,0.802,1.016,1.155,1.559
		c0.282,0.435,0.753,0.905,0.354,1.41c-0.409,0.52-1.003,0.191-1.447-0.053c-1.428-0.789-2.816-1.648-4.242-2.441
		c-0.862-0.479-1.742-0.943-2.657-1.305c-0.702-0.277-1.251-0.681-1.014-1.422c0.289-0.902,1.072-0.494,1.688-0.354
		c2.213,0.5,4.008,1.991,6.17,2.614L-9.514-21.448z"/>
	<path fill-rule="evenodd" clip-rule="evenodd" fill="#E02826" d="M-14.444-0.488c1.268-3.425,2.881,3.106,3.648-0.679
		c-0.248-0.967,2.109-2.459,1.792-3.25c0.31-0.555,5.022-3.292,4.917-3.875c2.25-0.38,5.477,2.519,4.381,7.708
		c-0.636,3.01-2.996,1.377-3.552,0.156c-0.306-0.672-0.889-5.868-2.952-2.147c-2.112,3.81-4.68,9.147-8.853,3.814
		C-15.689,0.44-15.269,0.444-14.444-0.488z"/>
	<path fill-rule="evenodd" clip-rule="evenodd" fill="#BC2426" d="M-3.017-8.48c2.712,1.045,3.86,3.188,4.154,5.927
		c0.035,0.329,0.01,0.665,0.053,0.992c0.355,2.708,0.069,3.216-1.898,3.329c-2.868,0.164-3.711-0.572-3.74-3.223
		C-4.455-2.017-4.233-2.65-4.897-3.201C-6.134-2.002-6.373-0.3-7.109,1.114c-1.672,3.212-1.947,3.483-5.365,2.583
		c-1.482-0.391-2.755-2.306-4.179-2.922c0.793,0.043,1.165-0.083,1.774-0.448c2.842,3.085,5.012,3.725,6.789-0.017
		c0.342-0.719,1.228-1.797,1.649-2.468c0.532-0.847,0.512-2.406,1.833-2.304c1.307,0.101,0.795,1.621,1.181,2.468
		C-2.889-0.813-2.27,0.622-0.9,0.359c1.504-0.289,1.263-1.948,1.265-3.187c0-0.381-0.176-0.769-0.305-1.142
		C-0.567-5.78-2.037-7.065-3.546-8.208C-3.521-8.338-3.147-8.505-3.017-8.48z"/>
	<path fill-rule="evenodd" clip-rule="evenodd" fill="#AFC1E1" d="M8.751,15.929c-0.112,0.153-0.225,0.307-0.339,0.46
		c-0.362-0.014-0.724-0.027-1.083-0.04c-0.179-0.586-0.358-1.173-0.537-1.759c0.373-1.139,0.215-2.294,0.107-3.448
		c0.076-0.049,0.138-0.112,0.185-0.188c0.903-0.631,1.739,0.209,2.618,0.12l0.006-0.055c0.051,1.51-1.008,2.826-0.762,4.37
		l0.004-0.008C8.471,15.414,8.49,15.627,8.751,15.929z"/>
	<path fill-rule="evenodd" clip-rule="evenodd" fill="#B22024" d="M7.002,11.043c-3.074-1.268-5.811,0.225-8.571,1.158
		c-0.956,0.324-0.997,1.283-0.262,2.131c1.165,1.342,3.235,1.598,5.061,0.312c1.286-0.904,2.408-0.91,3.665-0.154
		C7.268,13.352,7.11,12.197,7.002,11.043z"/>
	<path fill-rule="evenodd" clip-rule="evenodd" fill="#E02826" d="M0.59,14.866c-0.813,0.05-1.449-0.313-1.689-1.073
		c-0.301-0.952,0.42-1.273,1.157-1.487c1.571-0.455,3.05-1.305,4.773-1.107c0.552,0.063,1.08,0.163,1.126,0.853
		c0.038,0.57-0.364,0.799-0.843,0.925C3.517,13.395,2.333,14.792,0.59,14.866z"/>
	<path fill="#4E629B" d="M10.419,8.019C8.058,7.742,6,6.868,4.341,5.125C3.906,4.668,3.314,4.534,2.705,4.561
		C1.627,4.607,0.778,4.492,0.646,3.093C0.565,2.237-0.219,1.992-1.013,2.064C-1.85,2.141-2.431,2.622-2.331,3.474
		c0.088,0.746-0.156,1.358-0.436,1.963c-2.243,0.497-4.22,0.71-5.479,1.484l0,0c-1.034,0.112-2.048,0.237-2.559,1.476
		c-0.234,1.085-1.791,1.722-1.066,3.133c0.195,0.268,0.391,0.536,0.585,0.805c1.597,1.353,3.101,0.311,4.631-0.174
		c3.757-1.188,7.345-2.943,11.399-3.112c1.508-0.062,2.263,0.405,2.338,1.907c0.904-0.633,1.74,0.207,2.619,0.118
		c-0.301-1.463,0.895-1.853,1.771-2.473c0-0.001,0.023-0.112,0.023-0.112C11.138,8.326,10.792,8.062,10.419,8.019z"/>
	<path fill-rule="evenodd" clip-rule="evenodd" fill="#AFC1E1" d="M-3.377,6.183c1.559,0.4,2.8-1.04,4.381-0.73
		c0.626,0.123,1.281-0.024,1.888,0.374c0.633,0.416,1.306,0.863,1.171,1.66c-0.127,0.761-0.951,0.52-1.5,0.619
		c-3.831,0.691-7.5,1.865-10.99,3.6c-0.727,0.361-1.621,1.06-2.251-0.013c-0.562-0.956,0.06-1.789,0.765-2.437
		c1.165-1.07,2.814-1.033,4.155-1.73c0.802-0.417,1.806-0.463,2.349-1.336L-3.377,6.183z"/>
	<path fill-rule="evenodd" clip-rule="evenodd" fill="#BC2426" d="M-13.548,17.179c-0.744,1.315-2.078,2.34-2,4.059
		c0.591,0.195,1.207,0.362,1.337,1.112c0-0.001,0.078,0.04,0.078,0.04l0.156-0.033c0,0,0.087,0.133,0.088,0.133
		c0.207,0.066,0.413,0.132,0.619,0.197c0.081-0.127,0.162-0.255,0.244-0.383c0,0,0.123,0.033,0.123,0.033l0.102-0.077
		c0.139-0.155,0.278-0.312,0.417-0.468c2.411-1.279,3.137-3.326,2.688-5.906c-0.043-2.085-1.852-1.925-3.118-2.456
		c0.317,1.241-1.88,1.935-0.73,3.357C-13.52,16.917-13.521,17.048-13.548,17.179"/>
	<path fill-rule="evenodd" clip-rule="evenodd" fill="#E02826" d="M-13.28,19.519l-0.069,0.05c0,0-0.083-0.021-0.082-0.021
		c-0.902-0.504-0.535-1.242-0.369-1.938c0.113-0.476,0.553-0.942,0.019-1.424c0.019-0.085,0.02-0.171,0.002-0.257
		c0.779-0.543,1.41-1.705,2.588-0.591c0.301,1.692-0.187,3.035-1.808,3.874C-13.093,19.314-13.187,19.416-13.28,19.519z"/>
	<path fill-rule="evenodd" clip-rule="evenodd" fill="#46171C" d="M-7.715,25.297c-0.475,1.791-1.13,2.978-1.604,4.769
		c-2.125,0-6.555-0.444-7.097-0.577c-1.877-0.455-2.903-1.99-4.161-3.219c-0.567-0.553-1.6-1.055-0.984-2.096
		c0.581-0.982,1.427-1.781,2.692-1.746c0.652,0.018,1.3,0.205,1.949,0.316c-0.058,0.48-0.041,0.996,0.408,1.246
		C-13.749,25.52-10.9,26.57-7.715,25.297z"/>
	<path fill-rule="evenodd" clip-rule="evenodd" fill="#46171C" d="M10.793,8.332c0.1,0.557,0.337,1.037,0.945,1.125
		c2.189,0.314,3.27,2.113,4.612,3.504c0.982,1.018,0.764,3.537-0.194,4.572c-1.197,1.293-2.388,1.283-3.817,0.225
		c-0.922-0.684-2.107-1.014-3.174-1.502c-0.358-0.012-0.716-0.023-1.073-0.033c0.073-0.182,0.145-0.363,0.217-0.543
		c0.038-0.137,0.075-0.273,0.113-0.41l-0.007,0.023c0.911-1.008,1.754-2.273,1.214-3.517C8.888,10.069,9.534,9.183,10.793,8.332z"/>
	<path fill-rule="evenodd" clip-rule="evenodd" fill="#839FCC" d="M-15.399-4.259c-1.093-0.751-2.854-1.856-4.457-0.568
		c-1.227,0.986-1.25,0.521-1.462,2.124c-0.716,2.125,2.403,3.082,4.156,3.604c0.422,1.313,1.894,1.973,3.086,1.021
		c0.845-1.146,2.149-1.146,2.151-2.952c-0.625-0.761-0.312-1.083-1.163-1.708C-14.651-3.5-14.522-3.656-15.399-4.259z"/>
	<path fill-rule="evenodd" clip-rule="evenodd" fill="#AFC1E1" d="M-16.618-0.712c-0.677-0.047-1.354-0.062-2.027-0.142
		c-1.419-0.165-2.018-1.026-1.854-2.393c0.177-1.49,1.232-1.354,2.3-1.145c0.62,0.192,0.794,0.636,1.414,0.826
		C-16.402-2.485-15.116-1.62-16.618-0.712z"/>
	<path fill-rule="evenodd" clip-rule="evenodd" fill="#CADCF0" d="M-15.907,0.836c0.81-0.39,0.78-1.325,1.252-1.933
		c0.448-0.577,1.083-0.925,1.695-0.44c0.766,0.607,0.217,1.058-0.34,1.541c-0.679,0.587-1.239,1.313-1.85,1.979
		C-15.665,1.775-15.838,1.341-15.907,0.836z"/>
	<path fill-rule="evenodd" clip-rule="evenodd" fill="#E52425" d="M-4.822-26.901c0.018,0.277,0.062,0.603,0.319,0.704
		c0.566,0.222,0.604,0.683,0.647,1.165c-1.318,1.123-2.772,1.18-4.258,0.167c-0.332-0.227-0.664-0.452-0.99-0.684
		c-0.3-0.212-0.69-0.413-0.589-0.852c0.112-0.488,0.368-0.938,0.887-1.101C-7.384-27.949-6.039-27.834-4.822-26.901z"/>
	<g>
		<path fill-rule="evenodd" clip-rule="evenodd" fill="none" stroke="#000000" stroke-miterlimit="10" d="M14.892-13.182
			c-3.055-1.235-6.241,0.1-9.252-0.731c-1.889-0.521,0.834-2.978,1.224-3.758c0.613-1.23,1.764-3.078,1.955-4.422
			c0.485-0.073,0.965-0.973,1.512-1.242c0.559-0.276,1.02-0.614,1.347-1.029c0.175-0.146,0.36-0.279,0.542-0.416
			c-0.012-0.227-0.023-0.455-0.034-0.682c0.075-0.047,0.155-0.059,0.24-0.037c0.024-2.319-0.779-3.458-2.636-3.63
			c-0.481-0.117-0.979-0.109-1.44,0.04c-0.167,0.019-0.318,0.024-0.497,0.052c-0.017,0.044-0.049,0.13-0.084,0.225
			c-0.143,0.098-0.278,0.215-0.403,0.351c-0.089,0.006-0.177,0.012-0.266,0.018c-0.482,0.795-0.68,1.517-0.582,2.22
			c-0.145,0.799-0.36,1.428-1.526,1.452c-3.122,0.065-4.38-2.591-6.986-3.567c-3.786-1.417-14.272-3.03-16.329,2.412l-0.521,0.867
			c0.037,0.178,0.069,0.307,0.098,0.419c-0.101,0.333-0.134,0.792-0.108,1.434c0.033,0.798,0.561,1.337,1.079,1.891
			c0.027,0.045,0.058,0.091,0.08,0.136c0.459,0.942,0.102,1.437,0.249,2.348c-0.02,0.064-0.034,0.129-0.043,0.193
			c-0.049,0.208-0.07,0.417-0.066,0.63c-0.671,1.744-1.884,1.769-3.346,2.929c-0.336,0.268-0.492,0.606-0.528,0.976
			c-0.046,0.115-0.092,0.231-0.122,0.351c-0.348,1.383,0.811,2.502,2.109,3.18c0.044,0.022,0.094,0.034,0.142,0.049
			c0.083,0.061,0.163,0.114,0.238,0.159c0.062,0.032,0.11,0.062,0.168,0.094c0.487,0.692,1.339,1.265,1.185,2.142
			c-0.119,0.676-0.168,1.381-0.167,2.092c-1.276-0.179-2.603,0.736-3.292,2.361c-0.551,1.298-0.19,2.92,0.59,3.973
			c-0.125,1.324,0.028,3.185,1.265,5.283c1.351,2.09,0.967,1.681,3.23,1.571c1.72-0.083,1.391-1.051,2.349-0.294
			c0.334,0.264,0.603,0.349,0.84,0.326c-0.352,0.979-1.684,1.625-1.001,2.956c-0.992,0.025-1.006,0.859-0.553,1.174
			c1.247,0.864,1.921,1.769,1.827,2.817c-0.281,0.685-1.108,1.25-0.988,2.021c-0.122,0.21,0.006,0.62-0.026,0.927
			c-0.033,0.309-0.09,0.593-0.151,0.872c-0.606,0.836-1.299,1.63-1.47,2.681c-0.833,0.737-1.968,1.151-3.414,1.223
			c-1.536,0.076-2.66,0.924-3.285,2.219c-0.619,1.283,0.479,2.049,1.287,2.816c1.354,1.287,3.035,2.842,5.166,3.233
			c2.091,0.385,4.758,0.61,6.883,0.61c0.193-1.879,1.376-3.49,1.459-5.398c0,0,0,0-0.001,0c-0.002-0.611-0.004-1.225-0.006-1.84
			c0.068-0.385,0.178-0.768,0.197-1.156c0.137-2.699,2.018-5.652,4.525-5.748c2.749-0.105,5.03-1.826,7.749-1.633
			c0.359,0.014,0.721,0.027,1.083,0.041c0.257-0.003,0.516-0.006,0.774-0.009c0.141,0.462,0.282,0.924,0.423,1.385
			c0.292,0.01,0.587,0.021,0.882,0.033c1.087,1.373,2.905,1.889,4.525,1.639c1.255,0.777,2.336,0.684,3.42-0.487
			c0.958-1.035,1.176-3.555,0.194-4.572c-0.293-0.304-0.575-0.628-0.857-0.951c-0.589-1.218-1.689-2.152-2.748-3.117
			c-0.268-0.243-0.46-0.467-0.607-0.683c-0.222-1.394,4.169-2.48,5.037-2.998c4.571-2.73,5.769-8.202,3.622-12.732
			C19.834-10.06,17.506-12.125,14.892-13.182z"/>
	</g>
	<path fill-rule="evenodd" clip-rule="evenodd" fill="#4E629B" d="M-9.942,25.976c-1.966,0.248-3.774-0.875-5.624-1.626
		c-0.665-0.272-0.918-0.876-1.151-1.478c0.103-0.893,0.412-1.563,1.501-1.399c1.671,0.92,3.529,1.415,4.956,2.89
		C-9.901,24.894-9.56,25.426-9.942,25.976z"/>
	<path fill-rule="evenodd" clip-rule="evenodd" fill="#839FCC" d="M-12.068,22.846c0.591,0.608,1.443,0.626,2.161,0.952
		c0.618,0.279,1.343,0.494,0.997,1.391c-0.264,0.688-0.87,1.092-1.59,0.895c-1.206-0.33-2.406-0.727-3.544-1.236
		c-0.618-0.277-1.539-0.627-1.39-1.477c0.139-0.8,1.158-0.398,1.7-0.742c0.262-0.048,0.524-0.096,0.785-0.145
		C-12.657,22.604-12.363,22.725-12.068,22.846z"/>
</g>
<g id="Frame_Walk2">
	<path fill-rule="evenodd" clip-rule="evenodd" fill="#5F230F" d="M12.334,13.7c3.907,0.044,9.629-3.562,10.943-7.339
		C25.07,1.209,20.622-3.75,16.24-5.759C13.532-7.001,5.678-7.141,4.036-9.599c-0.605-0.903,3.817-1.747,4.328-1.915
		c2.834-0.93,4.346,2.108,6.889,0.315c3.682-2.596-0.568-9.385-4.822-4.484c-1.801,0.668-3.266-2.979-3.881-4.006
		c-1.492-2.495-1.975-5.058-4.244-7.24c-3.055-2.938-8.737-4.197-12.798-2.868c-2.143,0.7-3.524,2.279-5.361,2.859
		c-3.037,0.958,0.92,3.581-0.089,5.394c-3.722,0.983,0.443,2.6-0.211,3.975c-0.758,1.593-4.286,1.257-3.016,4.09
		c0.813,1.386,2.361,1.955,2.293,3.475c-0.8,0.506-0.845,1.529-1.527,2.131c-1.467-0.388-2.354,0.56-3.24,1.545
		c-2.15,2.394-0.393,2.388,0.821,4.685c1.232,2.331,1.01,4.635,3.001,6.682c1.597,1.642,3.415,0.574,4.889,1.655
		c0.924,0.678-2.265,4.413-1.92,5.614c0.751,2.62,1.953,2.628-0.211,4.977c-1.125,1.221-0.249,1.377-2.033,2.211
		c-1.129,0.527-2.326,1.004-3.394,1.654c-5.296,3.223,5.535,5.923,7.506,5.824c2.078-0.104,4.629,0.301,5.465-2.145
		c0.76-2.221,0.616-2.678,2.175-4.383c0.702-0.768-0.051-1.559-0.667-2.056c0.266-0.845,0.771-1.999,1.711-2.31
		c1.474-0.486,5.629,3.438,6.962,4.266c1.735,1.078,3.315,2.148,4.638,3.715c0.648,0.768,1.393,1.391,2.457,1.412
		c1,1.025,2.042,2.01,3.021,3.056c1.168,1.249,3.36,3.045,4.901,3.045c2.367,0,3.347-3.348,1.729-5.096
		c-2.224-2.402-1.651-6.798-5.606-7.603c0-1.556-3.016-1.781-3.963-1.706C9.127,15.238,10.295,13.676,12.334,13.7
		C13.627,13.715,10.14,13.674,12.334,13.7z"/>
	<path fill-rule="evenodd" clip-rule="evenodd" fill="#8C371D" d="M2.676-9.703C2.2-8.41,3.407-6.922,5.368-6.639
		c2.369,0.342,4.52,1.837,7.06,1.284c0.543-0.118,0.976,0.321,1.395,0.663c1.333,1.087,2.692,2.143,4.021,3.236
		c1.499,1.232,2.355,2.344,0.996,4.518c-0.833,1.333-0.744,3.166-2.43,4.206c-1.075,0.664-2.055,1.101-3.301,0.965
		c-2.115-0.229-4.236-0.219-6.353-0.004C4.416,8.466,2.02,6.647,1.297,4.374C0.385,1.499,0.228-1.297,1.237-4.171
		c0.23-0.655,0.398-1.735,0.047-2.121C-0.41-8.149,1.092-9.43,1.946-10.781c0.539-0.854,1.31-1.734,2.168-0.19
		C3.46-10.746,2.642-10.708,2.676-9.703z"/>
	<path fill-rule="evenodd" clip-rule="evenodd" fill="#89A0C9" d="M15.959-13.509c0.031-3.01-1.311-4.051-4.572-3.539
		c-0.072,0.188-0.402,1.088-0.217,0.559c-0.18,0.012-0.357,0.023-0.537,0.035c-1.025,1.691-0.818,3.057,0.963,4.596
		c1.229,1.062,2.453,0.512,3.533-0.451c0.195-0.176,0.416-0.322,0.625-0.48c-0.012-0.227-0.023-0.455-0.035-0.682
		C15.795-13.519,15.875-13.531,15.959-13.509z"/>
	<path fill-rule="evenodd" clip-rule="evenodd" fill="#B9D0E5" d="M13.336-16.267c0.512,0.346,1.627-0.227,1.666,0.809
		c0.027,0.787-0.654,1.482-1.461,1.52c-0.818,0.037-1.473-0.598-1.5-1.43C12.02-16.031,12.606-16.341,13.336-16.267z"/>
	<path fill-rule="evenodd" clip-rule="evenodd" fill="#4E629B" d="M15.239-13.39c0.01,0.221,0.021,0.439,0.031,0.658
		c-0.189,0.152-0.387,0.293-0.564,0.461c-0.979,0.928-2.088,1.457-3.201,0.434c-1.609-1.479-1.799-2.793-0.871-4.42
		c0.164-0.012,0.324-0.023,0.486-0.033c-0.336,1.018-0.623,1.943,0.34,2.885c0.871,0.855,1.553,0.975,2.406,0.086
		C14.27-13.742,14.741-14.345,15.239-13.39z"/>
	<path fill-rule="evenodd" clip-rule="evenodd" fill="#B22024" d="M2.79-18.606c-1.17,1.166,0.062,1.439,1.477,2.538
		c0.713,0.554,1.553,1.165,1.811,2.283C0.905-15.482-4.078-17.234-8.62-20.026c-0.379-0.233-0.271-0.636-0.706-0.774
		c-0.244-0.248-0.772-0.443-1.018-0.693c-0.134-1.133-1.182-1.598-1.968-2.312c-1.605-1.457-1.504-2.224,0.583-2.816
		c1.155-0.328,1.793-0.738,1.493-2.007c6.567-2.467,9.274,1.427,12.321,5.533C3.059-21.781,2.653-20.378,2.79-18.606z"/>
	<path fill-rule="evenodd" clip-rule="evenodd" fill="#E52425" d="M-3.498-24.96c0.018,0.277,0.061,0.603,0.318,0.704
		c0.566,0.222,0.604,0.683,0.648,1.165c-1.318,1.123-2.773,1.18-4.258,0.167c-0.332-0.227-0.664-0.452-0.99-0.684
		c-0.3-0.212-0.69-0.413-0.589-0.852c0.112-0.488,0.368-0.938,0.887-1.101C-6.061-26.009-4.715-25.894-3.498-24.96z"/>
	<path fill-rule="evenodd" clip-rule="evenodd" fill="#AFC1E1" d="M-9.454-14.841c1.506,0.723,2.728,1.822,3.84,3.033
		c1.152,1.254,1.039,2.414-0.512,3.201c-3.652,1.852-6.012,5.02-8.547,8.029c-0.002,0-0.188,0.012-0.188,0.012l-0.186-0.002
		c-0.264-0.672-0.859-0.947-1.459-1.219c-0.916-2.15-1.842-4.271-1.519-6.738c0.108-0.836-0.847-1.422-1.257-2.158
		c0.576-0.439,1.101-0.992,1.743-1.287c0.817-0.377,1.79-1.043,2.476,0.268c-0.365,0.379-0.717,0.77-1.1,1.129
		c-0.374,0.35-1.014,0.623-0.762,1.232c0.336,0.814,0.995,0.295,1.531,0.189c0.259-0.051,0.514-0.115,0.771-0.174
		c0.941,0.949,1.686,0.641,2.682-0.113C-10.091-10.841-9.62-12.739-9.454-14.841z"/>
	<path fill-rule="evenodd" clip-rule="evenodd" fill="#581F13" d="M-14.867-18.597c0.055-0.119,0.109-0.238,0.167-0.359
		c1.193-1.031,2.389-0.99,2.927,0.514c0.462,1.293,2.547,1.531,2.011,3.342c-0.535,0.154-1.16,0.23-1.456-0.271
		C-12.092-16.858-13.038-18.214-14.867-18.597z"/>
	<path fill-rule="evenodd" clip-rule="evenodd" fill="#4E629B" d="M-15.061-11.702c0.414,0.744-0.094,1.658,0.441,2.377
		c-0.258,0.059-0.513,0.123-0.771,0.174c-0.536,0.105-1.195,0.625-1.531-0.189c-0.252-0.609,0.388-0.883,0.762-1.232
		C-15.778-10.933-15.426-11.323-15.061-11.702z"/>
	<path fill-rule="evenodd" clip-rule="evenodd" fill="#C26734" d="M-9.749-15.073c-0.535,0.156-1.16,0.23-1.457-0.271
		c-0.873-1.486-1.818-2.84-3.648-3.225c0.055-0.117,0.109-0.238,0.168-0.357c-1.027,0.037-1.51-1.123-2.51-1.148
		c-1.092,1.102-0.809,2.33-0.33,3.578c-0.455,0.061-0.906,0.16-1.361,0.182c-1.561,0.074-2.746,1.102-3.053,2.318
		c-0.348,1.383,0.811,2.502,2.109,3.18c0.17,0.088,0.375,0.111,0.564,0.164c0.576-0.439,1.1-0.992,1.742-1.287
		c0.818-0.377,1.791-1.045,2.477,0.268c0.414,0.742-0.094,1.656,0.441,2.377c0.941,0.947,1.686,0.641,2.682-0.115
		c1.846-1.4,2.318-3.299,2.484-5.4C-9.543-14.899-9.645-14.985-9.749-15.073z"/>
	<path fill-rule="evenodd" clip-rule="evenodd" fill="#FBB568" d="M-18.712-14.192c-0.191,0.555-0.615,0.867-1.169,0.801
		c-0.557-0.066-0.957-0.441-0.763-1.072c0.19-0.607,0.729-0.648,1.263-0.58C-18.896-14.983-18.693-14.671-18.712-14.192z"/>
	<path fill-rule="evenodd" clip-rule="evenodd" fill="#B9D0E5" d="M-17.295-19.999c-0.396,0.469-0.903,1.299-0.363,1.867
		c0.542,0.566-0.775,0.818-0.773,1.193c0.004,0.375,1.894,1.779,2.291,1.164c0.398-0.615,1.154-3.496,0-4
		S-17.295-19.999-17.295-19.999z"/>
	<path fill-rule="evenodd" clip-rule="evenodd" fill="#46171C" d="M-17.833-18.606c0.99,0.549,1,1.432,1.045,2.303
		c-0.656,0.004-1.338,0.057-1.641-0.627C-18.483-17.556-17.694-17.96-17.833-18.606z"/>
	<path fill-rule="evenodd" clip-rule="evenodd" fill="#FAA959" d="M-15.49-14.47c-0.053-0.393,0.145-0.688,0.397-0.943
		c0.498-0.502,0.979-1.139,1.795-0.535c0.52,0.387,0.818,0.885,0.409,1.523c-0.542,0.846-1.212,0.795-1.954,0.25
		c-0.186-0.137-0.429-0.193-0.646-0.289C-15.489-14.464-15.49-14.47-15.49-14.47z"/>
	<path fill-rule="evenodd" clip-rule="evenodd" fill="#839FCC" d="M-14.454-0.597c-0.25,0.022-0.412,0.254-0.724,0.282
		c-0.757,0.015-1.446,0.704-2.056-0.536c-0.868-2.145-1.302-5.031-0.864-7.523c0.168-0.957-0.868-1.551-1.313-2.334
		c0.89-0.928,1.943-1.592,3.166-1.988c0.41,0.033,0.82,0.068,1.229,0.104c0.172,1.432-1.254,2.17-1.643,3.447
		c0.809,0.268,1.455-0.529,2.186,0.082c0.945,0.791,1.697,0.227,2.576-0.461c1.801-1.406,2.297-3.252,2.342-5.357
		c1.197,0.217,1.883,1.131,2.64,1.945c-0.614,0.061-1.437-0.314-1.69,0.594c-0.522,1.873-2.264,2.701-3.376,4.064
		c-0.743,0.91-1.52,1.035-2.563,0.26c-1.15-0.855-2.008-0.391-2.125,1.004c-0.05,0.59-0.045,1.201,0.044,1.785
		c0.337,2.205,1.312,3.127,2.981,2.891C-13.575-1.601-14.379-1.269-14.454-0.597z"/>
	<g>
		<path fill-rule="evenodd" clip-rule="evenodd" fill="#4E629B" d="M-13.821-21.754C-13.821-21.753-13.82-21.753-13.821-21.754
			L-13.821-21.754z"/>
		<path fill-rule="evenodd" clip-rule="evenodd" fill="#4E629B" d="M-17.407-24.968C-17.403-24.96-17.335-24.936-17.407-24.968
			C-17.406-24.965-17.407-24.968-17.407-24.968z"/>
		<path fill-rule="evenodd" clip-rule="evenodd" fill="#4E629B" d="M-13.424-21.362C-13.423-21.359-13.408-21.343-13.424-21.362
			C-13.424-21.36-13.424-21.362-13.424-21.362z"/>
	</g>
	<path fill="#4E629B" d="M-3.673-13.786c-0.225-0.397-2.892-1.305-3.242-1.632c0,0,0,0,0,0.001c-3.074-3.19-6.37-6.052-9.465-9.272
		c-0.054-0.009-0.29-0.951-0.599-0.982c1.051-0.941-1.495-1.09-2.02,0.2c-0.323,0.793-0.137,2.305,0.288,2.875
		c0.815,1.094,5.606,4.97,7.088,6.09c0.011,1.166,2.949,3.163,2.07,1.368c0.854,0.731,1.171,1.516,1.925,2.343
		c0.272,0.299,1.118,0.746,1.958,1.07c-0.04,0.063-0.085,0.126-0.147,0.187c0.003,0.003,0.006,0.006,0.009,0.01
		c1.152,1.254,1.039,2.414-0.512,3.201c-3.652,1.852-6.012,5.02-8.547,8.029c0.587,0.201,0.982-0.082,1.396-0.475
		c2.617-2.477,4.678-5.588,8.164-7.082c0.672-0.289,1.137-0.934,1.22-1.723c0.087-0.832,0.476-1.238,1.328-1.461
		C-1.125-11.463-3.08-12.747-3.673-13.786z"/>
	<path fill-rule="evenodd" clip-rule="evenodd" fill="#839FCC" d="M-16.032-5.061c-0.005-2.343-1.062-3.352-3.094-3.031
		c-1.555,0.246-1.834,0.152-2.814,1.438c-1.678,1.488,0.552,3.869,1.813,5.193c-0.287,1.349,0.662,2.653,2.17,2.42
		c0.492-2.087,1.429-2.185,3.334-1.491c-0.164-0.971,0.268-1.095-0.159-2.06C-15.761-4.029-16.03-3.996-16.032-5.061z"/>
	<path fill-rule="evenodd" clip-rule="evenodd" fill="#CADCF0" d="M-20.26-7.031c0.066,0.003,0.135,0.02,0.197,0.007
		c1.366-0.28,2.812-0.092,2.921,1.439c0.101,1.406-1.604,1.634-2.629,1.857c-1.71,0.373-1.596-1.069-1.637-2.196
		c0-0.001-0.002,0.029-0.002,0.029c0.269-0.239,0.537-0.478,0.806-0.716c0,0-0.088,0.093-0.088,0.092
		c0.159-0.162,0.318-0.324,0.478-0.486L-20.26-7.031z"/>
	<path fill-rule="evenodd" clip-rule="evenodd" fill="#CADCF0" d="M-19.52-1.708c0.895-0.093,1.183-0.983,1.833-1.395
		c0.617-0.392,1.332-0.504,1.744,0.159c0.516,0.83-0.153,1.069-0.841,1.334c-0.838,0.323-1.61,0.817-2.411,1.237
		C-19.609-0.744-19.626-1.211-19.52-1.708z"/>
	<path fill-rule="evenodd" clip-rule="evenodd" fill="#B22024" d="M-5.684-1.215c1.172,0.502,0.766,1.35,0.455,2.154
		c-1.235,3.192-1.239,3.19,1.567,4.943c0.611-0.03,1.223-0.061,1.835-0.091C-0.415,5.273,0.6,4.332,0.674,2.794
		C0.791,0.363,0.845-2.081,0.731-4.51C0.629-6.67-1.533-7.956-3.38-7.126c-1.819,0.944-2.104,0.321-4.116,0.355l-2.812,0.994
		c-0.617,2.201-1.045,3.085-2,5.12c-0.354,0.754-1.208,1.483-2,0.426c-2.357-0.855-3.058-0.748-3.562,1.391
		c-0.764,0.117-1.188,0.282-1.803-0.061c0.33,2.6,1.631,4.543,3.924,5.819c0.274-1.058,1.458-0.494,2.254-0.509
		c2.956-0.054,5.619-3.005,6.242-5.939C-6.997-0.339-6.308-0.747-5.684-1.215"/>
	<path fill-rule="evenodd" clip-rule="evenodd" fill="#E02826" d="M-8.246,0.285c-1.072,1.132-0.757,2.877-1.908,3.922
		c-2.612,2.374-6.535,1.195-7.218-2.117c0.504-2.139,1.194-0.416,3.551,0.439c0.792,1.057,1.491-1.376,1.845-2.13
		c0.955-2.035,2.476-3.773,3.093-5.975l0.035,0.032c2.012-0.034,3.979-0.285,5.797-1.229c1.526,0.246,3.074,0.938,3.234,2.457
		c0.275,2.598,0.115,5.257-0.061,7.878C0.063,4.49-0.764,5.157-1.821,5.24c-1.089,0.084-1.321-0.635-1.708-1.5
		c-0.539-1.205-0.843-2.285-0.377-3.57c0.198-0.547,0.133-1.238-0.481-1.58C-4.905-1.7-6.219-2.122-6.309-1.527
		C-6.933-1.059-7.988-0.524-8.246,0.285z"/>
	<path fill-rule="evenodd" clip-rule="evenodd" fill="#839FCC" d="M-14.815-18.967c-0.677-1.026-4.603-3.792-2.968-4.915
		c1.434-0.986,5.677,3.35,6.689,4.548c0.583,0.691,4.507,5.027,0.996,3.83C-10.773-16.675-13.433-18.004-14.815-18.967
		C-15.514-20.025-13.886-18.32-14.815-18.967z"/>
	<path fill-rule="evenodd" clip-rule="evenodd" fill="#46171C" d="M-6.651,21.462c-0.106,0.648-0.25,1.294-0.311,1.946
		c-0.167,1.783-1.267,3.12-2.982,3.064c-2.507-0.081-5.174,0.767-7.467-1.058c-0.304-0.241-0.894-0.119-1.351-0.171
		c-1.421-0.159-2.399-1.035-2.62-2.326c-0.218-1.273,0.936-1.961,1.929-2.484c1.32-0.695,2.706-1.27,4.063-1.894
		C-12.62,19.944-10.023,21.861-6.651,21.462z"/>
	<path fill-rule="evenodd" clip-rule="evenodd" fill="#4E629B" d="M-6.108,17.491c-1.515-0.106-1.651-1.224-3.207-1.03
		c-1.082,0.135-1.662-0.279-2.697-0.09c-0.834-2.582-3.658,0.115-3.662,1.733c2.347,1.189,4.628,2.784,7.338,2.96
		C-6.072,21.21-3.942,19.146-6.108,17.491C-7.009,17.428-4.444,18.762-6.108,17.491z"/>
	<path fill-rule="evenodd" clip-rule="evenodd" fill="#839FCC" d="M-11.215,16.774c0.591,0.608,1.443,0.626,2.161,0.952
		c0.618,0.279,1.343,0.494,0.997,1.391c-0.264,0.688-0.87,1.092-1.59,0.895c-1.206-0.33-2.406-0.727-3.544-1.236
		c-0.618-0.277-1.539-0.627-1.39-1.477c0.139-0.8,1.158-0.398,1.7-0.742c0.262-0.048,0.524-0.096,0.785-0.145
		C-11.805,16.533-11.51,16.653-11.215,16.774z"/>
	<path fill-rule="evenodd" clip-rule="evenodd" fill="#B22024" d="M-10.001,16.15c-0.244-0.241-0.488-0.482-0.731-0.723
		c0.285-1.625,1.133-2.294,2.139-1.988c1.034,0.312,1.322,1.393,0.693,2.891C-8.602,16.27-9.302,16.21-10.001,16.15z"/>
	<path fill-rule="evenodd" clip-rule="evenodd" fill="#B22024" d="M7.223,19.469c0.719-0.348,0.656-1.149,0.998-1.717
		c0.059-0.152,0.117-0.305,0.176-0.457c-0.943-2.652-3.453-3.111-5.658-3.813c-0.989-0.314-2.315,0.038-3.127,0.853
		c-0.994,1,0.462,1.387,0.758,2.074c0.109,0.254,0.238,0.49,0.022,0.717c-0.276,0.291-0.646,0.233-0.901,0.027
		c-0.668-0.535-1.236-1.209-1.944-1.678c-0.953-0.629-2.073-0.83-2.85,0.197c-0.417,0.551-2.14,0.668-0.916,2
		c0.467-0.455,0.935-0.908,1.399-1.366c0.676-0.665,1.367-0.73,2.076-0.058c2.606,2.471,5.938,3.885,8.771,6.023
		c0.405-0.738,0.81-1.477,1.215-2.214c0,0,0.023-0.015,0.021-0.015c-0.014-0.191-0.027-0.382-0.041-0.572"/>
	<path fill-rule="evenodd" clip-rule="evenodd" fill="#E02826" d="M7.928,18.049c-0.342,0.567-0.279,1.369-0.998,1.717
		c-1.076-0.471-2.174-0.896-3.217-1.429c-0.76-0.387-1.309-1.073-0.85-1.935c0.422-0.793,1.252-0.504,1.955-0.348
		C6.096,16.342,6.632,17.788,7.928,18.049z"/>
	<path fill-rule="evenodd" clip-rule="evenodd" fill="#46171C" d="M14.174,19.553c3.559,0.725,3.527,4.277,5.135,6.537
		c0.222,0.311,0.223,0.797,0.473,1.066c1.777,1.922,0.45,3.484-0.534,5.096c-0.797,0-1.595,0-2.392,0
		c-0.309-1.484-1.979-1.049-2.756-1.977c-1.225-1.459-2.639-2.758-3.971-4.123C12.268,24.436,12.725,21.691,14.174,19.553z"/>
	<path fill-rule="evenodd" clip-rule="evenodd" fill="#4E629B" d="M8.512,18.717c0.416-0.584,1.048-0.746,1.7-0.869
		c1.622-0.129,3.077,0.127,3.963,1.705c-1.45,2.139-1.907,4.883-4.046,6.6c-1.929-0.039-2.531-1.836-3.74-2.822
		c0.12-0.738,0.84-1.285,0.675-2.113C7.637,20.436,8.221,19.662,8.512,18.717z M11.268,19.396c-1.986-0.035-3.523,1.191-3.476,2.77
		c0.032,1.059,0.39,1.977,1.614,2.119c0.973,0.111,3.193-2.883,3.111-4.133C12.458,19.242,11.733,19.477,11.268,19.396z"/>
	<path fill-rule="evenodd" clip-rule="evenodd" fill="#839FCC" d="M11.268,19.396c0.465,0.08,1.189-0.154,1.25,0.756
		c0.082,1.25-2.139,4.244-3.111,4.133c-1.225-0.143-1.582-1.061-1.614-2.119C7.745,20.588,9.282,19.361,11.268,19.396z"/>
	<path fill-rule="evenodd" clip-rule="evenodd" fill="#4E629B" d="M9.124,10.016C8.04,9.45,6.763,9.287,5.426,9.246
		c0,0.003,0,0.006-0.001,0.008l0,0c0,0.001,0,0.002,0,0.002s0-0.001,0-0.002c-0.64,0.08-0.886-0.17-1.001-0.526
		C4.194,8.624,3.965,8.52,3.735,8.416c-0.611-0.972-1.879-1.082-3.246-1.05c-1.133,0.027-1.951-0.191-1.958-1.055
		c-0.003-0.367-0.288-0.65-0.618-0.923c-0.463,0.006-0.929,0.013-1.396,0.02c-0.73,0.607-0.402,1.723-2.093,1.864
		c-1.868,0.157-3.488,0.781-5.234,1.166c-1.214,0.268-2.319,0.553-2.097,1.57c0.229,1.052,1.531,1.006,2.738,1.082
		c4.347,0.276,8.455-0.596,12.641-1.093C2.468,9.998,2.466,9.998,2.463,10c2.013,0.469,3.915,1.208,6.183,1.036
		c0.575-0.044,1.356,0.112,1.583-0.324C10.522,10.145,9.535,10.23,9.124,10.016z M4.938,9.977C4.963,9.975,4.977,9.97,5,9.967
		C4.977,9.97,4.963,9.975,4.938,9.977z M5.165,9.939c0.02-0.006,0.029-0.016,0.045-0.022C5.194,9.924,5.184,9.934,5.165,9.939z
		 M5.305,9.867c0.01-0.008,0.013-0.019,0.021-0.027C5.319,9.849,5.315,9.859,5.305,9.867z M5.383,9.753
		C5.381,9.757,5.381,9.762,5.38,9.766C5.381,9.762,5.381,9.757,5.383,9.753z"/>
	<path fill-rule="evenodd" clip-rule="evenodd" fill="#839FCC" d="M-5.16,10.532c-1.265,0.56-2.635,0.611-3.972,0.823
		c-0.486-0.598-1.883-0.105-1.797-1.189c0.098-1.219,1.371-0.623,2.058-0.953c1.493-0.72,3.253-0.688,4.617-1.716
		c1.921-0.763,3.586,0.671,5.425,0.631C1.239,8.189,1.259,8.256,1.235,8.33c0.121,1.232-0.613,1.504-1.633,1.455
		C-1.562,9.489-2.727,9.397-3.89,9.796C-4.47,9.77-4.994,9.842-5.16,10.532z"/>
	<g>
		<path fill-rule="evenodd" clip-rule="evenodd" fill="none" stroke="#000000" stroke-miterlimit="10" d="M16.236-6.135
			C13.527-7.377,5.674-7.517,4.031-9.975c-0.605-0.903,3.818-1.747,4.328-1.915c2.834-0.93,4.346,2.108,6.889,0.315
			c3.132-2.208,0.523-7.446-2.943-5.946c-0.293,0.02-0.591,0.044-0.922,0.096c-0.045,0.116-0.187,0.501-0.246,0.657
			c-0.002,0.002-0.005,0.004-0.007,0.006c0.009-0.026,0.019-0.053,0.036-0.104c-0.18,0.012-0.357,0.023-0.537,0.035
			c-0.17,0.281-0.293,0.55-0.395,0.816c-1.712,0.355-3.097-3.06-3.689-4.05c-1.492-2.495-1.975-5.058-4.244-7.24
			c-3.055-2.938-8.736-4.197-12.798-2.868c-2.144,0.7-3.524,2.279-5.36,2.859c-0.534,0.168-0.843,0.391-1.009,0.648
			c-0.429-0.278-1.771-0.079-2.137,0.819c-0.323,0.793-0.138,2.305,0.288,2.875c0.24,0.322,0.83,0.889,1.574,1.553
			c-0.457,0.335-0.435,0.71-0.209,1.108c-0.23,0.284-0.478,0.672-0.533,1.058c-0.063,0.272-0.076,0.549-0.051,0.83
			c-0.183,0.36-0.521,0.681-0.496,1.095c-0.001,0.004-0.006,0.009-0.006,0.013c0.001,0.11,0.173,0.309,0.412,0.518
			c-0.289,0.047-0.577,0.091-0.867,0.105c-1.561,0.074-2.746,1.102-3.053,2.318c-0.348,1.383,0.811,2.502,2.109,3.18
			c0.132,0.068,0.285,0.099,0.437,0.133c0.452,0.771,1.462,1.363,1.296,2.31c-0.01,0.058-0.014,0.118-0.023,0.176
			c-0.017,0.024-0.031,0.05-0.05,0.074c-0.293-0.024-0.604-0.023-0.955,0.032c-1.556,0.246-1.834,0.152-2.814,1.438
			c-0.516,0.457-0.66,0.999-0.579,1.568c-0.546,1.25,0.74,1.634,1.695,3.443c0.744,1.407,0.963,2.804,1.453,4.141
			c0.566,1.906,1.762,3.387,3.621,4.421c0.274-1.058,1.457-0.494,2.254-0.509c0.017,0,0.033-0.003,0.05-0.004
			c0.175,0.074,0.346,0.166,0.513,0.288c0.924,0.678-2.265,4.413-1.92,5.614c0.494,1.724,1.178,2.319,0.975,3.191
			c-0.919,0.474-1.793,1.705-1.795,2.604c0.008,0.004,0.017,0.009,0.024,0.013c-0.136,0.286-0.182,0.493-0.387,0.713
			c-1.148,0.516-2.306,1.018-3.417,1.603c-0.507,0.267-1.053,0.578-1.439,0.985c-4.292,3.103,5.992,5.651,7.908,5.556
			c1.757-0.088,3.849,0.181,4.959-1.21c0.596-0.554,0.973-1.383,1.063-2.356c0.018-0.188,0.052-0.374,0.079-0.56
			c0.275-0.789,0.594-1.366,1.539-2.401c0.381-0.417,0.327-0.839,0.105-1.218c0.066-0.381-0.021-0.788-0.321-1.188
			c-0.048,0.003-0.162-0.045-0.286-0.111c0.02-0.05,0.038-0.101,0.06-0.152c0.085,0.087,0.161,0.175,0.227,0.263
			c0.06-0.003,0.019-0.082-0.218-0.285c0.297-0.708,0.76-1.437,1.479-1.674c0.5-0.165,1.31,0.182,2.21,0.738
			c0.872,0.741,1.802,1.396,2.762,2.008c0.834,0.661,1.561,1.252,1.991,1.52c1.373,0.854,2.643,1.713,3.771,2.806
			c-0.017,0.058-0.036,0.116-0.046,0.176c1.209,0.986,1.812,2.783,3.74,2.822c1.332,1.365,2.746,2.664,3.971,4.123
			c0.777,0.928,2.447,0.492,2.756,1.977c0.797,0,1.596,0,2.393,0c0.946-1.548,2.199-3.052,0.72-4.873
			c-0.106-0.265-0.25-0.514-0.434-0.743c-0.06-0.193-0.114-0.391-0.226-0.546c-1.032-1.452-1.394-3.434-2.459-4.86
			c-0.603-1.122-1.457-2.029-3.047-2.353c0-1.556-3.016-1.781-3.963-1.706c-0.713-1.933,0.455-3.495,2.494-3.471
			c-1.387-0.017-0.504-0.006,0.007,0c3.907,0.04,9.623-3.563,10.937-7.339C25.066,0.833,20.617-4.126,16.236-6.135z"/>
		<path fill-rule="evenodd" clip-rule="evenodd" fill="none" stroke="#000000" stroke-miterlimit="10" d="M12.337,13.324
			c-0.003,0-0.005,0-0.007,0C12.806,13.33,12.634,13.328,12.337,13.324z"/>
	</g>
</g>
<g id="Frame_Walk3">
	<path fill-rule="evenodd" clip-rule="evenodd" fill="#5F230F" d="M12.608-6.328c-0.635-0.278,0.424-2.119,0.168-3.104
		c-0.381-1.46-1.587-2.9-3.916-2.9c-1.77-3.453-0.871-0.764-2.658-4.176c-0.689-1.318-4.751-8.088-5.727-9.22
		c-0.706-0.82-3.752-2.228-3.976-2.999c-0.36-1.246-8.091-0.544-10.057-0.544c-3.522,0.655-5.403,1.967-5.837,4.093
		c-0.444,2.175,1.295,2.866,1.24,4.876c-0.137,1.004-0.123,2.006,0.041,3.006c-1.152,1.872-1.434,0.508-2.887,1.707
		c-3.58,2.954,3.319,5.027,2.803,8.509c-0.236,1.589,0.137,3.141,1.616,3.978c0.617,0.229,1.208,0.512,1.774,0.849
		c0.616,0.567-0.15,2.001,0.595,0.659c-0.266,0.479-0.554,0.962-0.881,1.395c-0.566,0.751-1.919,1.159-3.214,0.833
		c-2.176-0.548-3.139,0.577-4.523,2.045c-1.985,1.95,0.725,3.512,1.885,4.816c1.518,1.706,3.438,0.539,5.413,0.899
		c-1.718,1.452-1.56,3.049,0.237,4.303c0.118,1.9,0.972,3.574,2.21,4.988c0.485,0.545,0.999,1.063,1.54,1.555
		c1.259,1.164,1.479,0.847,1.133,2.301c-0.068,0.615,0.104,1.159,0.512,1.633c-0.844,0.797-2.123,1.611-2.484,2.791
		c-1.453,4.746,6.439,2.646,8.288,1.63c1.211-0.665,4.347-2.562,3.744-4.333c-0.376-1.107-2.957-4.306-4.054-4.512
		c2.189-1.486,5.635,3.881,7.575,5.004c1.95,1.129,2.05,0.884,2.559,3.033c0.396,1.675-1.179,2.751-1.13,4.518
		c0.068,2.53,2.293,2.045,4.064,2.045c2.929,0,3.957-0.342,4.373-3.518c0.229-1.745,0.451-8.219-1.463-8.93
		c-2.596-0.966-6.135-5.93-3.715-8.477c1.561-1.642,1.846-1.297,4.043-1.959c1.927-0.581,3.836-1.921,5.299-3.29
		c4.52-4.229,2.917-12.241-2.844-12.721C13.777-5.592,13.684-5.857,12.608-6.328z"/>
	<path fill-rule="evenodd" clip-rule="evenodd" fill="#AFC1E1" d="M-9.462-14.835c1.506,0.723,2.729,1.822,3.84,3.033
		c1.152,1.254,1.039,2.414-0.512,3.201c-3.652,1.852-6.012,5.02-8.547,8.029c-0.002,0-0.188,0.012-0.188,0.012l-0.186-0.002
		c-0.264-0.672-0.859-0.947-1.459-1.219c-0.916-2.15-1.842-4.271-1.518-6.738c0.107-0.836-0.848-1.422-1.258-2.158
		c0.576-0.439,1.102-0.992,1.744-1.287c0.816-0.377,1.789-1.043,2.475,0.268c-0.365,0.379-0.717,0.77-1.1,1.129
		c-0.373,0.35-1.014,0.623-0.762,1.232c0.336,0.814,0.996,0.295,1.531,0.189c0.26-0.051,0.514-0.115,0.771-0.174
		c0.941,0.949,1.686,0.641,2.682-0.113C-10.099-10.835-9.628-12.734-9.462-14.835z"/>
	<path fill-rule="evenodd" clip-rule="evenodd" fill="#581F13" d="M-14.875-18.591c0.055-0.119,0.109-0.238,0.166-0.359
		c1.193-1.031,2.389-0.99,2.928,0.514c0.461,1.293,2.547,1.531,2.01,3.342c-0.535,0.154-1.16,0.23-1.455-0.271
		C-12.101-16.853-13.046-18.208-14.875-18.591z"/>
	<path fill-rule="evenodd" clip-rule="evenodd" fill="#4E629B" d="M-15.07-11.697c0.414,0.744-0.094,1.658,0.441,2.377
		c-0.258,0.059-0.512,0.123-0.771,0.174c-0.535,0.105-1.195,0.625-1.531-0.189c-0.252-0.609,0.389-0.883,0.762-1.232
		C-15.787-10.927-15.435-11.318-15.07-11.697z"/>
	<path fill-rule="evenodd" clip-rule="evenodd" fill="#C26734" d="M-9.757-15.068c-0.535,0.156-1.16,0.23-1.457-0.271
		c-0.873-1.486-1.818-2.84-3.648-3.225c0.055-0.117,0.109-0.238,0.168-0.357c-1.027,0.037-1.51-1.123-2.51-1.148
		c-1.092,1.102-0.809,2.33-0.33,3.578c-0.455,0.061-0.906,0.16-1.361,0.182c-1.561,0.074-2.746,1.102-3.053,2.318
		c-0.348,1.383,0.811,2.502,2.109,3.18c0.17,0.088,0.375,0.111,0.564,0.164c0.576-0.439,1.1-0.992,1.742-1.287
		c0.818-0.377,1.791-1.045,2.477,0.268c0.414,0.742-0.094,1.656,0.441,2.377c0.941,0.947,1.686,0.641,2.682-0.115
		c1.846-1.4,2.318-3.299,2.484-5.4C-9.552-14.894-9.654-14.98-9.757-15.068z"/>
	<path fill-rule="evenodd" clip-rule="evenodd" fill="#FBB568" d="M-18.72-14.187c-0.191,0.555-0.615,0.867-1.17,0.801
		c-0.557-0.066-0.957-0.441-0.762-1.072c0.189-0.607,0.729-0.648,1.262-0.58C-18.904-14.978-18.701-14.666-18.72-14.187z"/>
	<path fill-rule="evenodd" clip-rule="evenodd" fill="#B9D0E5" d="M-17.304-19.994c-0.396,0.469-0.902,1.299-0.363,1.867
		c0.543,0.566-0.775,0.818-0.773,1.193c0.004,0.375,1.895,1.779,2.291,1.164c0.398-0.615,1.154-3.496,0-4
		S-17.304-19.994-17.304-19.994z"/>
	<path fill-rule="evenodd" clip-rule="evenodd" fill="#46171C" d="M-17.841-18.601c0.99,0.549,1,1.432,1.045,2.303
		c-0.656,0.004-1.338,0.057-1.641-0.627C-18.492-17.55-17.703-17.955-17.841-18.601z"/>
	<path fill-rule="evenodd" clip-rule="evenodd" fill="#FAA959" d="M-15.498-14.464c-0.053-0.393,0.145-0.688,0.396-0.943
		c0.498-0.502,0.98-1.139,1.795-0.535c0.52,0.387,0.818,0.885,0.41,1.523c-0.543,0.846-1.213,0.795-1.955,0.25
		c-0.186-0.137-0.428-0.193-0.645-0.289C-15.498-14.458-15.498-14.464-15.498-14.464z"/>
	<path fill-rule="evenodd" clip-rule="evenodd" fill="#839FCC" d="M-14.462-0.591c-0.25,0.022-0.412,0.254-0.723,0.282
		c-0.758,0.015-1.447,0.704-2.057-0.536c-0.867-2.145-1.301-5.031-0.863-7.523c0.168-0.957-0.869-1.551-1.314-2.334
		c0.891-0.928,1.943-1.592,3.166-1.988c0.41,0.033,0.82,0.068,1.229,0.104c0.172,1.432-1.254,2.17-1.643,3.447
		c0.809,0.268,1.455-0.529,2.186,0.082c0.945,0.791,1.697,0.227,2.576-0.461c1.801-1.406,2.297-3.252,2.342-5.357
		c1.197,0.217,1.883,1.131,2.641,1.945c-0.615,0.061-1.438-0.314-1.691,0.594c-0.521,1.873-2.264,2.701-3.375,4.064
		c-0.744,0.91-1.52,1.035-2.564,0.26c-1.15-0.855-2.008-0.391-2.125,1.004c-0.049,0.59-0.045,1.201,0.045,1.785
		c0.336,2.205,1.312,3.127,2.98,2.891C-13.583-1.595-14.388-1.263-14.462-0.591z"/>
	<g>
		<path fill="#4E629B" d="M-1.872-13.98c-0.381-0.67-1.084-1.152-1.618-1.742c-1.272-1.398-2.154-1.307-2.656-3.295
			c-0.094-0.094-4.234-3.742-4.916-4.542c-1.009-1.181-4.088-2.976-3.82-4.316c-3.638-0.437-4.513,1.581-4.396,4.443
			c0.058,1.417,1.681,2.015,2.027,3.333c1,0.025,1.482,1.186,2.512,1.148c1.191-1.031,2.387-0.99,2.925,0.514
			c0.462,1.293,2.547,1.531,2.011,3.342c0.104,0.086,0.205,0.174,0.309,0.26c1.506,0.723,2.728,1.822,3.84,3.033
			c1.152,1.254,1.039,2.414-0.512,3.201c-3.652,1.852-6.012,5.02-8.547,8.029c0.587,0.201,0.982-0.082,1.396-0.475
			c2.617-2.477,4.678-5.588,8.164-7.082c0.672-0.289,1.137-0.934,1.22-1.723c0.087-0.832,0.476-1.238,1.328-1.461
			C-0.971-11.738-1.279-12.941-1.872-13.98z"/>
		<polygon fill="#AFC1E1" points="-13.421,-24.926 -13.408,-24.911 -13.398,-24.91 		"/>
	</g>
	<path fill-rule="evenodd" clip-rule="evenodd" fill="#AFC1E1" d="M-6.416-15.904c0.072,0.045,0.131,0.104,0.176,0.176
		c0.152,0.937-0.151,1.124-1.053,0.794c-0.931-0.339-1.506-1.492-2.709-1.17l-0.027-0.018c0.049-0.307-0.096-0.415-0.385-0.378
		l-0.017-0.017c0.042-0.297-0.083-0.425-0.382-0.381l-0.016-0.017c-0.018-1.088-0.622-1.689-1.627-1.956l0.008,0.006
		c0.02-0.281-0.105-0.424-0.395-0.407l0.001,0.001c0.026-0.292-0.105-0.425-0.397-0.4l-0.003,0.015
		c-0.534-1.36-1.683-2.092-2.856-2.8c-0.389-0.234-0.836-0.418-1.133-0.74c-0.439-0.478-0.96-1.105-0.568-1.753
		c0.465-0.768,1.186-0.272,1.748-0.004c0.826,0.393,1.611,0.872,2.414,1.314l-0.002-0.034c1.45,1.414,2.9,2.829,4.351,4.243
		L-9.3-19.445c0.022,0.302,0.18,0.493,0.471,0.572l-0.023-0.024C-8.267-17.714-7.628-16.576-6.416-15.904z"/>
	<path fill-rule="evenodd" clip-rule="evenodd" fill="#B22024" d="M-4.259-28.349c2.736,1.013,3.33,2.721,3.615,2.99
		c3.466,3.262,4.553,5.669,6.166,9.743c0.363,0.814,1.875,1.613,2.371,2.354c1.16,1.886-0.221,1.379-1.367,2.812
		c-1.619,0.268-1.859-2.24-3.018-2.992c-1.535-0.996-2.979-2.034-4.505-3.042c-0.937-0.618-1.982-1.053-3.069-1.322
		c-1.344-0.333-1.776-2.152-3.084-2.464c-0.614-0.768-4.674-3.813-4.253-4.641c0.876-1.719-1.056-2.195,0.835-3.571
		c1.271-0.925,1.432-0.755,3.564-0.579C-6.007-28.978-6.916-28.349-4.259-28.349z"/>
	<path fill-rule="evenodd" clip-rule="evenodd" fill="#89A0C9" d="M12.146-7.983c0.031-3.01-1.312-4.051-4.573-3.539
		C7.5-11.334,7.17-10.434,7.356-10.963c-0.179,0.012-0.357,0.023-0.537,0.035C5.793-9.237,6.001-7.872,7.782-6.333
		c1.229,1.062,2.454,0.512,3.533-0.451c0.195-0.176,0.416-0.322,0.625-0.48c-0.012-0.227-0.023-0.455-0.034-0.682
		C11.981-7.993,12.061-8.004,12.146-7.983z"/>
	<path fill-rule="evenodd" clip-rule="evenodd" fill="#B9D0E5" d="M9.522-10.741c0.513,0.346,1.628-0.227,1.666,0.809
		c0.028,0.787-0.653,1.482-1.46,1.52c-0.819,0.037-1.473-0.598-1.5-1.43C8.206-10.504,8.792-10.815,9.522-10.741z"/>
	<path fill-rule="evenodd" clip-rule="evenodd" fill="#4E629B" d="M11.425-7.864c0.01,0.221,0.021,0.439,0.031,0.658
		c-0.189,0.152-0.388,0.293-0.565,0.461c-0.978,0.928-2.087,1.457-3.2,0.434c-1.61-1.479-1.799-2.793-0.871-4.42
		c0.163-0.012,0.324-0.023,0.486-0.033C6.97-9.747,6.683-8.821,7.646-7.879c0.871,0.855,1.553,0.975,2.405,0.086
		C10.457-8.215,10.927-8.819,11.425-7.864z"/>
	<path fill-rule="evenodd" clip-rule="evenodd" fill="#8C371D" d="M11.389-5.23c-0.586,0.097-1.181,0.161-1.758,0.3
		C9.083-4.799,8.28-4.769,8.54-3.897c0.182,0.605,0.826,1.032,1.422,0.735c1.535-0.763,2.531,0.173,3.178,1.176
		c0.801,1.243,1.447,2.71,0.035,4.133c-0.55,0.553-0.896,1.306-1.344,1.961c-1.215,1.777-3.621,2.278-5.402,1.126
		C6.04,4.983,5.637,4.747,5.276,4.46c-1.041-0.827-2.41-0.984-2.641-3.006c-0.199-1.739,0.47-2.658,1.182-3.833
		c0.167-0.276,0.258-0.6,0.382-0.902C4.78-3.405,5.364-3.529,5.946-3.653c0.752,0.274,0.83-0.168,0.789-0.74
		C6.85-4.914,7.384-5.3,7.224-5.909c0.11-0.031,0.21-0.082,0.3-0.151c0.59,0.55,1.273,0.5,1.994,0.352
		C10.206-5.849,10.936-6.052,11.389-5.23z"/>
	<path fill-rule="evenodd" clip-rule="evenodd" fill="#46171C" d="M-2.829,19.915c0.489,0.947,1.126,1.777,1.925,2.484
		c1.146,1.016,1.009,1.934-0.033,3.014c-2.463,2.551-5.404,3.781-8.947,3.686c-0.938-0.023-1.725-0.191-2.133-1.084
		c-0.441-0.967-0.4-1.971,0.303-2.795c0.596-0.697,1.325-1.281,1.995-1.916c0.599,0.285,1.214,0.557,1.866,0.197
		C-6.042,22.497-3.988,21.833-2.829,19.915z"/>
	<path fill-rule="evenodd" clip-rule="evenodd" fill="#4E629B" d="M-2.829,19.915c-1.159,1.918-3.214,2.582-5.024,3.586
		c-0.652,0.359-1.268,0.088-1.866-0.197c-0.583-0.816-0.862-1.633,0-2.449c1.812-0.711,3.441-1.93,5.493-1.975
		C-3.592,18.999-2.97,19.133-2.829,19.915z"/>
	<path fill-rule="evenodd" clip-rule="evenodd" fill="#E02826" d="M-7.328,18.055c-0.033,0.561-0.283,0.963-0.818,0.988
		c-0.726,0.033-1.082-0.445-1.118-1.121c-0.026-0.506,0.194-0.963,0.767-0.967C-7.79,16.95-7.472,17.454-7.328,18.055z"/>
	<path fill-rule="evenodd" clip-rule="evenodd" fill="#4E629B" d="M8.186,21.188c0.113-0.861,0.881-1.029,1.469-1.387
		c1.969,0.137,2.443,1.266,1.994,3.006c-0.961,0.894-1.912,1.796-2.883,2.678c-1.033,0.938-2.204,1.408-3.613,0.973
		c-0.002-0.146-0.004-0.292-0.006-0.438c1.607-0.381,3.021-1.098,4.211-2.271c0.568-0.562,1.27-1.051,0.887-1.978
		C9.827,20.759,8.932,21.177,8.186,21.188z"/>
	<path fill-rule="evenodd" clip-rule="evenodd" fill="#AFC1E1" d="M8.186,21.188c0.746-0.011,1.641-0.429,2.059,0.582
		c0.383,0.927-0.318,1.415-0.887,1.978c-1.189,1.174-2.604,1.891-4.211,2.271c-0.428-0.583-0.678-1.163,0.031-1.727
		c0.241-0.237,0.484-0.475,0.727-0.712c0,0-0.046,0.044-0.046,0.043c0.438-0.101,0.728-0.346,0.78-0.815
		c0.252-0.273,0.503-0.548,0.752-0.821c0.387,0.043,0.488-0.2,0.519-0.516C7.988,21.363,8.08,21.268,8.186,21.188z"/>
	<path fill-rule="evenodd" clip-rule="evenodd" fill="#B22024" d="M-0.046-3.517c-1.475-4.165-3.527-6.385-7.822-3.642
		c-0.166,0.157-0.492,0.093-0.658,0.251c-0.158,0.301-0.251,0.586-0.559,0.502c-0.648,0.25-1.984,1.42-2.255,2.059
		c-0.979,2.309-1.749,3.058-3.447,4.901c0.007,0.171,0.333,0.951,0.339,1.122c0.076,1.292,0.881,2.711-0.656,3.717
		c0.089,0.107,0.113,0.228,0.072,0.361c-0.275,0.053-0.188-0.176-0.465-0.124c0.018,0.444-0.099,0.76-0.082,1.204
		c1.466-0.816,2.87-0.841,4.21-1.975c1.278-1.081,2.095-2.531,3.323-3.618c0.412-0.363,0.716-1.138,1.401-0.819
		c0.55,0.255,0.283,0.945,0.302,1.445c0.042,1.175-0.17,2.373,0.355,3.498c0.637,0.114,3.106,0.988,3.742,1.102
		c0.458-0.17,1.322-0.174,1.781-0.344C0.086,6.235,0.205,4.73,0.756,4.842c0.438-0.797,0.605-1.05,0.281-1.5
		c0.004-0.35,0.164-0.807,0.169-1.156C1.194,0.135,0.629-1.612-0.046-3.517z"/>
	<path fill-rule="evenodd" clip-rule="evenodd" fill="#E02826" d="M-8.369-6.499c0.166-0.158,0.334-0.316,0.5-0.473
		c5.205-0.5,6.979,0.945,7.631,6.24c0.148,1.206-0.212,2.551,0.994,3.45c-0.005,0.349-0.01,0.699-0.014,1.048
		C0.071,4.35-0.61,4.924-1.048,5.721C-1.6,5.608-2.152,5.497-2.704,5.385C-4.23,3.976-5.546,2.491-5.242,0.157
		c0.06-0.46-0.303-0.999-0.537-1.467c-0.402-0.805-0.982-1.004-1.391-0.07c-1.157,2.65-3.595,4.162-5.41,6.224
		c-0.629,0.715-1.463,1.117-2.453,1.097c0.041-0.133,0.017-0.254-0.072-0.361c1.537-1.006,0.732-2.426,0.656-3.717
		c-0.006-0.171-0.013-0.342-0.02-0.513c1.698-1.844,3.055-3.912,4.034-6.221c0.271-0.639,0.7-1.099,1.349-1.348
		C-8.778-6.135-8.527-6.198-8.369-6.499z"/>
	<path fill-rule="evenodd" clip-rule="evenodd" fill="#B22024" d="M9.292,18.649c-1.74-1.273-3.217-2.713-3.043-5.127
		c-0.589,1.405-1.295,2.154-3.053,1.374c-1.05-0.466-2.652-0.694-3.395,0.665c-0.753,1.378-0.041,2.67,0.945,3.758
		c0.494,0.545,1.077,0.951,1.763,1.247c1.398,0.604,2.773,1.263,4.158,1.898c0.146,0.005,0.292,0.009,0.437,0.014
		c0.147-0.147,0.295-0.294,0.441-0.44c0.104-0.254,0.207-0.508,0.311-0.762l0,0c0.117-0.024,0.191-0.095,0.223-0.211
		c0.066,0.07,0.131,0.144,0.191,0.219c0.071-0.074,0.146-0.146,0.223-0.216c0.098-0.896,0.9-1.109,1.486-1.534
		C9.979,19.057,9.616,18.886,9.292,18.649z"/>
	<path fill-rule="evenodd" clip-rule="evenodd" fill="#E02826" d="M7.477,21.717c-1.904-0.045-3.592-0.708-5.126-1.803
		c-1.048-0.746-2.171-1.516-1.394-3.033c0.422-0.824,2.75-0.814,3.612,0.134c1.226,1.348,2.532,2.687,3.129,4.491
		C7.668,21.622,7.594,21.692,7.477,21.717z"/>
	<path fill-rule="evenodd" clip-rule="evenodd" fill="#839FCC" d="M-14.788,0.554L-14.788,0.554
		c-0.582,0.013-0.409,0.342-0.488,0.027c-0.192-0.068-0.386-0.129-0.579-0.186c-0.627,0.6-1.357,0.99-2.327,0.863
		c-1.237,0.562-2.419,0.109-3.649,0.701c-0.311,0.322-0.611,0.721-0.922,1.043c-0.117,1.127-1.266,1.312,0.391,3.3l-0.002,0.019
		c0,0,1.115,1.011,1.518,1.216c-0.002,0.002-0.006,0.004-0.006,0.006c0.017,0.008,0.033,0.011,0.05,0.018
		c0.007,0.002,0.017,0.01,0.022,0.012c0.006,0.001,0.014,0.001,0.02,0.002c2.363,0.958,3.105-1.599,3.852-1.934l1.531,1.594
		c0,0,1.126,0.174,1.689-0.795C-12.992,5.243-13.476,1.695-14.788,0.554z"/>
	<path fill-rule="evenodd" clip-rule="evenodd" fill="#CADCF0" d="M-21.242,6.835c-0.082-0.077-0.157-0.16-0.225-0.251
		c-0.001-0.287-0.568-0.883-0.824-0.888c0,0-0.006-0.019-0.006-0.02c-0.061-2.953,0.928-3.874,3.086-2.939
		c1.219,0.528,1.615,1.235,0.857,2.419c-0.277,0.436-0.521,0.894-0.781,1.341C-19.836,6.611-20.539,6.723-21.242,6.835z"/>
	<path fill-rule="evenodd" clip-rule="evenodd" fill="#CADCF0" d="M-14.532,1.526c0.076,1.292,0.88,2.711-0.655,3.717
		c-0.418-0.239-0.838-0.466-1.337-0.229c-0.067-0.062-0.083-0.136-0.048-0.221c-0.01-0.193,0.033-0.409-0.039-0.575
		c-0.354-0.817-1.531-1.411-0.63-2.555C-16.377,0.569-15.43,1.638-14.532,1.526z"/>
	<path fill-rule="evenodd" clip-rule="evenodd" fill="#4E629B" d="M-20.984,6.699c1.318-0.217,2.691-0.145,3.622-1.495
		c0.751-1.09,1.273,0.109,1.864,0.428c-0.009,0.854-0.53,1.992,1.057,1.986c2.004-0.007,3.934,0.331,5.85,0.952
		c1.157,0.374,2.165,0.039,2.061-1.518c-0.076-1.132,0.338-1.82,1.555-1.764c1.119,0.052,1.689,0.604,1.551,1.8
		c-0.113,0.974,0.2,1.771,1.309,1.838c3.607,0.218,7.203,0.496,10.697,1.508c-0.582,0.822-1.156,1.651-1.988,2.248
		C3.172,13.89-0.4,14.215-3.925,13.686c-3.177-0.477-6.455-0.453-9.534-1.642c-0.652-0.252-1.555,0.144-2.343,0.241
		c-1.753-1.223-2.247-2.604-0.237-4.303c-0.847-0.154-1.409-0.257-1.968-0.36C-18.976,7.25-20.292,7.98-20.984,6.699z
		 M-1.739,13.211c1.509,0.036,2.786-0.79,4.19-1.144c0.305-0.076,0.632-0.293,0.521-0.713c-0.101-0.385-0.477-0.422-0.785-0.493
		c-2.358-0.543-4.759-1.046-7.115-1.398c-2.639-0.395-5.376-0.262-7.996-1.032c-0.896-0.264-1.64-0.037-1.842,0.938
		c-0.225,1.083,0.618,1.354,1.432,1.495c2.216,0.383,4.428,0.912,6.66,1.024C-4.883,11.979-3.531,13.358-1.739,13.211z"/>
	<path fill-rule="evenodd" clip-rule="evenodd" fill="#AFC1E1" d="M-1.74,13.211c-1.791,0.146-3.144-1.232-4.934-1.322
		c-2.232-0.112-4.444-0.642-6.66-1.024c-0.813-0.141-1.656-0.412-1.432-1.495c0.202-0.976,0.945-1.202,1.842-0.938
		c2.62,0.771,5.357,0.638,7.996,1.032c2.356,0.353,4.757,0.855,7.115,1.398c0.309,0.071,0.685,0.108,0.785,0.493
		c0.11,0.42-0.217,0.637-0.521,0.713C1.047,12.421-0.23,13.248-1.74,13.211z"/>
	<path fill-rule="evenodd" clip-rule="evenodd" fill="#46171C" d="M12.489,23.211c0.414,2.28,0.891,4.66,0.34,6.964
		c-0.9,3.767-3.965,2.668-7.172,2.668c-1.647-1.618-0.829-3.275,0.033-5.021c0.921-1.866,3.598-0.474,4.402-3.14
		C10.686,24.381,11.589,23.483,12.489,23.211C13.086,26.5,12.026,23.351,12.489,23.211z"/>
	<path fill-rule="evenodd" clip-rule="evenodd" fill="#E52425" d="M-2.972-25.393c-0.05,0.415-0.073,0.909,0.281,1.129
		c0.776,0.483,0.707,1.176,0.64,1.901c-2.258,1.303-4.427,0.989-6.349-0.917c-0.429-0.426-0.858-0.85-1.278-1.282
		c-0.387-0.396-0.908-0.8-0.639-1.422c0.299-0.691,0.801-1.287,1.613-1.388C-6.479-27.645-4.518-27.106-2.972-25.393z"/>
	<path fill-rule="evenodd" clip-rule="evenodd" fill="none" stroke="#000000" stroke-miterlimit="10" d="M11.75,10.466
		c1.927-0.581,3.836-1.921,5.299-3.29c4.52-4.229,2.917-12.241-2.844-12.721c-0.579-0.048-0.672-0.312-1.748-0.784
		c-0.635-0.278,0.424-2.119,0.168-3.104c-0.381-1.46-1.587-2.9-3.916-2.9c-1.77-3.453-0.871-0.764-2.658-4.176
		c-0.689-1.318-4.751-8.088-5.727-9.22c-0.706-0.82-3.752-2.228-3.976-2.999c-0.36-1.246-8.091-0.544-10.057-0.544
		c-3.522,0.655-5.403,1.967-5.837,4.093c-0.14,0.683-0.053,1.212,0.115,1.689c0,0.019,0,0.038,0.001,0.057
		c0.025,0.629,0.363,1.095,0.757,1.536c0.216,0.46,0.384,0.959,0.367,1.595c-0.119,0.872-0.102,1.741,0.006,2.609
		c-0.156,0.233-0.303,0.469-0.288,0.747c0,0.004-0.005,0.009-0.005,0.013c0,0.018,0.023,0.047,0.032,0.069
		c-0.244,0.32-0.45,0.487-0.643,0.573c-0.232,0.021-0.453,0.064-0.666,0.125c-0.331,0.032-0.718,0.11-1.282,0.576
		c-0.878,0.724-1.123,1.396-1.005,2.048c-0.022,0.997,0.72,1.832,1.652,2.431c0.969,1.024,2.023,2.104,2.166,3.368
		c-0.273,2.339,0.149,4.929,0.945,6.897c0.609,1.24,1.299,0.551,2.057,0.536c0.074-0.007,0.138-0.026,0.198-0.05
		c-0.037,0.052-0.067,0.11-0.105,0.16c-0.18,0.239-0.447,0.438-0.759,0.595c-0.001,0-0.002,0-0.003-0.001
		c-0.003,0.003-0.006,0.005-0.009,0.007c-0.668,0.331-1.565,0.452-2.442,0.231c-2.176-0.548-3.139,0.577-4.523,2.045
		c-1.048,1.029-0.784,1.95-0.133,2.782c0.138,0.242,0.328,0.516,0.6,0.842l-0.002,0.019c0,0,0.91,0.823,1.381,1.132
		c0.012,0.014,0.026,0.027,0.039,0.041c1.291,1.451,2.874,0.826,4.534,0.828c-1.563,1.544-1.025,2.823,0.609,3.963
		c0,0,0.001,0,0.001,0c0.154,0.14,0.316,0.279,0.507,0.412c0.118,1.9,0.972,3.574,2.21,4.988c0.485,0.545,0.999,1.063,1.54,1.555
		c1.259,1.164,1.479,0.847,1.133,2.301c-0.068,0.615,0.104,1.159,0.512,1.633c-0.844,0.797-2.123,1.611-2.484,2.791
		c-0.422,1.378-0.042,2.167,0.735,2.585c0.438,0.43,1.059,0.53,1.765,0.548c3.543,0.096,6.484-1.135,8.947-3.686
		c0.953-0.987,1.137-1.84,0.288-2.755c-0.469-0.803-1.348-1.935-2.189-2.778c-0.135-0.653-0.618-0.84-1.154-0.954
		c-0.152-0.088-0.292-0.152-0.413-0.175c2.189-1.486,5.635,3.881,7.575,5.004c0.822,0.476,1.306,0.71,1.639,0.98
		c-0.195,0.423,0.021,0.853,0.338,1.285C4.998,26.165,5,26.311,5.002,26.457c0.178,0.055,0.352,0.095,0.523,0.122
		c0.018,0.073,0.033,0.128,0.052,0.208c0.08,0.339,0.065,0.649,0.014,0.95c-0.016,0.03-0.036,0.053-0.052,0.084
		c-0.427,0.864-0.841,1.706-0.953,2.532c-0.086,0.299-0.148,0.61-0.139,0.951c0.068,2.53,2.293,2.045,4.064,2.045
		c2.929,0,3.957-0.342,4.373-3.518c0.225-1.715,0.439-7.987-1.372-8.875c-0.233-0.609-0.795-1-1.765-1.121
		c-0.054-0.047-0.107-0.095-0.161-0.144c0.083-0.051,0.164-0.103,0.241-0.159c0-0.477-0.363-0.647-0.688-0.885
		c-0.427-0.313-0.838-0.636-1.213-0.981c-1.088-1.778-1.53-3.863-0.22-5.242C9.268,10.784,9.553,11.128,11.75,10.466z"/>
</g>
<g id="Frame_Walk4">
	<path fill-rule="evenodd" clip-rule="evenodd" fill="#5F230F" d="M16.91-2.743c-1.801-2.89-4.203-5.352-7.328-5.85
		c-2.707-0.433-5.253-2.28-8.184-1.344c-0.279,0.09-0.701-0.01-0.801-0.41c-0.107-0.429,0.264-0.546,0.559-0.674
		c2.049-0.893,4.002-1.938,5.632-3.503c0,0,0-0.001,0-0.001c0.372,0.354,0.78,0.681,1.112,1.072
		c0.893,1.047,1.906,1.541,3.254,0.881c1.266-0.62,2.121-1.479,1.818-3.036c-0.449-2.423-1.84-3.186-4.227-2.314
		c-0.16-0.033-0.32-0.066-0.48-0.1c-0.162-0.111-0.33-0.326-0.484-0.317c-2.379,0.138-3.851-0.889-4.418-3.249
		c-0.095-0.39-0.588-0.691-0.913-1.018c-1.349-1.357-2.654-2.762-4.066-4.051c-2.163-1.973-4.604-3.217-7.665-2.418
		c-2.125-0.599-3.547,1.633-5.585,1.391c-1.065-0.109-2.601-0.723-2.857,0.721c-0.329,1.843-0.818,3.95,0.89,5.569
		c-1.355,1.321-1.774,2.824-1.052,4.547c-0.093,0.217-0.164,0.443-0.216,0.679c-0.053,0.062-0.105,0.123-0.157,0.184
		c-0.015,0.176-0.029,0.352-0.044,0.527c0.015-0.176,0.029-0.352,0.043-0.527c-1.66-0.674-2.35,0.382-2.924,1.643
		c-0.102,0.096-0.204,0.191-0.307,0.287c-0.855,0.275-0.753,0.674-0.146,1.139c0.457,0.936,1.143,1.625,2.151,1.964
		c0.162,0.159,0.328,0.319,0.493,0.479c1.56,1.497,0.952,3.437,1.032,5.222c0.045,0.994-0.018,1.956,0.822,2.72
		c1.015,0.923,1.973,1.909,2.955,2.868c0.059,0.196,0.118,0.393,0.178,0.589c-0.854,1.347-0.512,2.759-0.229,4.168
		c-0.115,0.281-0.229,0.562-0.345,0.843l-0.147,0.021l-0.021,0.146c-0.31,0.091-0.486,0.275-0.441,0.614
		c-1.908,0.888-2.059,1.542-0.672,2.929c0.596,0.596,1.258,1.057,1.592,1.956c0.953,2.558,3.396,3.123,5.646,3.897
		c1.888,2.412,3.999,4.668,5.245,7.527c-0.051,0.439-0.103,0.879-0.154,1.32c-1.215,1.203-4.686,4.271-4.099,6.512
		c3.985,0,9.604-2.223,13.589-2.223c0.127-0.697,0.649-1.119,1.139-1.531c1.224-1.033,1.684-2.264,1.123-3.811
		c0.426-1.826-1.412-2.084-2.159-3.096c-0.726-1.549-1.813-3.029-0.929-4.883c2.056-1.272,4.307-2.296,5.648-4.47
		c1.984,0.015,3.469-1.233,4.984-2.202c1.245-0.795,2.406-2.003,2.316-3.71C17.943,2.35,18.456-0.259,16.91-2.743z"/>
	<path fill-rule="evenodd" clip-rule="evenodd" fill="#B22024" d="M6.9-15.739c-3.202,0.45-4.717,2.397-8.232,1.304
		c-2.211-0.688-4.137-2.768-6.475-2.203c0.016-0.386-1.758-1.765-1.986-1.994c-0.018-0.231-0.67-1.651-1.094-1.463
		c0,0-1.549-3.233-1.591-2.826c0.772-2.73,2.84-6.119,5.864-5.83c3.93,0.375,6.682,4.098,9.252,6.684
		c0.906,0.911,1.005,1.951,1.781,2.939c1.166,1.484,2.742,0.755,4.033,1.645C7.936-16.902,7.418-16.32,6.9-15.739
		C4.913-15.46,7.418-16.32,6.9-15.739z"/>
	<path fill-rule="evenodd" clip-rule="evenodd" fill="#8C371D" d="M5.338-4.518C5.211-6.311,7.898-7.957,9.531-7.195
		c1.807,0.844,3.911,1.02,5.258,2.838c0.873,1.177,0.762,2.584,1.326,3.804c-1.627,0.575-2.226,2.861-4.1,2.767
		c-1.098-0.055-2.057,1.411-2.909,0.458C7.667,1.065,6.061-0.513,5.537-2.745C5.401-3.319,5.4-3.926,5.338-4.518z"/>
	<path fill-rule="evenodd" clip-rule="evenodd" fill="#4E629B" d="M8.857,5.406C7.724,4.91,6.835,5.431,6.074,6.28
		c-0.577,0.644-1.25,1.134-2.095,1.416C3.48,7.862,3.499,8.052,2.812,8.499c0,0-1.417,0.574-1.417,0.575
		C0.131,8.964,0.557,8.984-0.558,9.636c-1.392,0.814-2.129,0.439-2.041-1.237c0.054-1.006-0.079-1.95-1.349-1.969
		c-1.307-0.02-1.387,0.958-1.352,1.947c0.02,0.54,0.547,2.225-1.875,1.228c-0.486-0.2-0.475-0.255-0.981-0.392
		c-1.532-0.414-1.57-0.4-0.616-1.89c1.87-0.549,1.063-2.296,0.074-4.416l-0.125-0.002L-8.881,2.79
		c-0.178-0.36-0.41-0.664-0.819-0.784c-1.335,0.102-2.522,0.52-3.315,1.672c-0.674,0.98-1.695,0.254-2.502,0.558l-0.146,0.021
		l-0.021,0.146c-0.143,0.203-0.283,0.404-0.426,0.606c-1.925,0.892-2.078,1.546-0.688,2.937c0.596,0.596,1.258,1.057,1.593,1.956
		c0.952,2.558,3.396,3.123,5.646,3.896c2.721,1.217,5.542,1.424,8.469,0.977c1.084-0.166,2.011-0.585,2.948-1.085
		c0.743-0.396,1.552-0.191,2.337-0.075c2.057-1.271,4.307-2.296,5.648-4.47c0.02-0.395,0.062-0.789,0.051-1.182
		C9.864,6.984,9.977,5.897,8.857,5.406z"/>
	<path fill-rule="evenodd" clip-rule="evenodd" fill="#AFC1E1" d="M-9.764,7.316c-0.718-0.122-1.246,0.066-1.605,0.774
		c-0.651,1.283-1.676,2.26-3.132,1.507c-1.362-0.704-1.927-2.058-1.514-3.658c0.001,0-0.033,0.031-0.033,0.031
		c0.147-0.21,0.294-0.419,0.441-0.629l0.021-0.146l0.147-0.021c0.807-0.304,1.827,0.423,2.503-0.558
		c0.793-1.152,1.979-1.57,3.314-1.672c0.408,0.12,0.641,0.424,0.818,0.784l0.059,0.116l0.126,0.002
		C-7.629,5.968-7.893,6.768-9.764,7.316z"/>
	<path fill-rule="evenodd" clip-rule="evenodd" fill="#AFC1E1" d="M3.516,8.832c1.669,0.12,2.062-0.758,3.135-1.877
		c0.527-0.55,1.176-1.117,1.797-0.232c0.43,0.614,0.376,1.266-0.376,1.862c-2.979,2.364-6.292,4.141-9.847,5.385
		c-3.695,1.295-6.746-0.821-9.861-2.33c-0.373-0.18-0.55-0.601-0.422-1.023c0.193-0.641,0.768-0.725,1.295-0.646
		c1.568,0.233,3.127,0.524,4.631,1.066c2.658,0.957,6.964,0.481,8.527-1.484C2.395,9.551,3.516,8.832,3.516,8.832z"/>
	<path fill-rule="evenodd" clip-rule="evenodd" fill="#E02826" d="M-9.086,2.455c-0.589-0.323-0.311-0.292-0.973-0.179
		c-0.826-1.151,0.221-0.998,0.674-1.966c0.607-1.301,1.371-4.745,0.982-6.075c0.475-0.396,0.947,0.429,0.807-0.807
		c1.53,0.232,2.187-0.992,3.627-1.103c2.09-0.16,3.804,0.872,5.553,1.896C1.693-2.966,7.973,2.042,5.041,4.317
		c-5.389,4.182-5.645-1.134-6.34-3.698c-0.794-2.922-2.623,0.625-3.072,1.408c-0.57,0.996-2.465,2.259-3.537,2.715
		c-0.656,0.049-0.131-0.658-0.25-1.046C-8.383,2.967-8.803,3.372-9.086,2.455z"/>
	<path fill-rule="evenodd" clip-rule="evenodd" fill="#B22024" d="M-6.803,4.316c1.509-0.641,2.314-1.893,2.947-3.32
		c0.289-0.655,0.601-1.514,1.447-1.422c0.947,0.102,1.231,1.085,1.185,1.824C-1.324,2.991-0.281,3.84,0.506,4.979
		c1.382,1.995,2.562,0.376,3.698-0.032c1.11-0.399,1.359-1.59,1.097-2.677C5.118,1.517,4.611,0.847,4.293,0.121
		C4.139-0.231,4.088-0.628,3.99-1.005C5.732,0.432,6.597,2.28,6.278,4.522c-0.32,2.26-2.665,1.815-4.021,2.677
		c-0.893,0.566-1.982,0.09-2.709-0.97c-0.941-1.372-2.512-2.444-1.58-4.485c0.144-0.313,0.025-0.876-0.488-0.917
		c-0.443-0.035-0.644,0.403-0.82,0.76c-0.706,1.43-2.65,3.475-4.332,4.044c-0.217-0.218-0.021-0.674-0.236-0.891
		C-7.835,4.698-6.887,4.33-6.803,4.316z"/>
	<path fill-rule="evenodd" clip-rule="evenodd" fill="#4E629B" d="M5.6,19.409c-0.705,0.121-1.334-0.604-2.064-0.182
		c-0.029,0.242-0.428,0.367-0.223,0.688c-0.086,0.156-0.172,0.314-0.258,0.471c-0.474,0.129-0.948,0.258-1.423,0.387
		c-0.529-0.309-1.063-0.203-1.598-0.016c-0.479,0.014-0.959,0.029-1.438,0.043c-0.443,0.973-1.428,0.973-2.255,1.256
		c-0.084,0.504-0.168,1.01-0.253,1.516c0.718,0.752,1.65,0.734,2.587,0.752c3.164,0.061,6.023-1.393,9.091-1.807
		C8.214,20.669,6.395,20.396,5.6,19.409z"/>
	<path fill-rule="evenodd" clip-rule="evenodd" fill="#AFC1E1" d="M3.015,19.754c-0.128,0.009-0.259-0.004-0.388-0.008
		c-0.086,0.156-0.172,0.313-0.259,0.471c-0.474,0.129-0.948,0.258-1.423,0.387c-0.529-0.309-1.062-0.204-1.598-0.016
		c-0.171,0.669-0.787,0.84-1.279,1.152c-0.493,0.311-1.217,0.587-0.975,1.295c0.27,0.787,1.102,0.695,1.713,0.524
		c0.947-0.266,1.989-0.101,2.865-0.651c0.504-0.185,1.007-0.369,1.511-0.554c0.978,0.011,1.995-0.185,1.911-1.359
		C5.014,19.887,4.002,19.69,3.015,19.754z"/>
	<path fill-rule="evenodd" clip-rule="evenodd" fill="#B22024" d="M4.814,18.567c-0.395-0.221-0.764-0.473-1.07-0.781
		c-1.883-1.902-4.128-1.809-6.6-0.824c-0.663,0.264-1.395,0.355-2.096,0.525c0.907,1.176,1.439,3.203,2.939,4.01
		c0.693-0.686,0.943-0.898,2.256-1.055c0.48-0.014,0.59,0.062,1.068,0.049c1.4-0.08,1.027-1.057,1.557-0.748
		c0.475-0.129,0.869-0.422,1.344-0.551c0.085-0.156,0.273,0.168,0.359,0.012C4.367,18.884,4.783,18.812,4.814,18.567z"/>
	<path fill-rule="evenodd" clip-rule="evenodd" fill="#E02826" d="M-0.266,17.649c0.869,0.381,2.186,0.236,2.382,1.576
		c0.09,0.615-0.625,0.808-1.14,0.813c-1.1,0.013-1.872-0.586-2.16-1.621C-1.346,17.839-0.818,17.679-0.266,17.649z"/>
	<path fill-rule="evenodd" clip-rule="evenodd" fill="#46171C" d="M8.022,22.663c0.16,0.637-0.425,2.3-0.222,2.923
		c0.555,1.702,0.076,3.366-1.521,3.996c-2.333,0.921-6.445,2.757-9.273,1.992c-0.375-0.101-0.868,0.245-1.309,0.38
		c-1.367,0.417-2.613,0-3.327-1.096c-0.706-1.084,2.08-2.173,2.784-3.047c0.938-1.162,1.98-2.238,2.979-3.35
		C1.233,24.651,5.086,24.366,8.022,22.663z"/>
	<path fill-rule="evenodd" clip-rule="evenodd" fill="#89A0C9" d="M13.162-14.496c0.031-3.01-1.312-4.051-4.574-3.539
		c-0.072,0.188-0.402,1.088-0.217,0.559c-0.178,0.012-0.357,0.023-0.537,0.035c-1.025,1.691-0.816,3.057,0.963,4.596
		c1.229,1.062,2.455,0.512,3.533-0.451c0.195-0.176,0.416-0.322,0.625-0.48c-0.012-0.227-0.023-0.455-0.033-0.682
		C12.996-14.506,13.076-14.518,13.162-14.496z"/>
	<path fill-rule="evenodd" clip-rule="evenodd" fill="#B9D0E5" d="M10.537-17.254c0.514,0.346,1.629-0.227,1.666,0.809
		c0.029,0.787-0.652,1.482-1.459,1.52c-0.82,0.037-1.473-0.598-1.5-1.43C9.221-17.018,9.809-17.328,10.537-17.254z"/>
	<path fill-rule="evenodd" clip-rule="evenodd" fill="#4E629B" d="M12.441-14.377c0.01,0.221,0.02,0.439,0.031,0.658
		c-0.189,0.152-0.389,0.293-0.566,0.461c-0.977,0.928-2.086,1.457-3.199,0.434c-1.611-1.479-1.799-2.793-0.871-4.42
		c0.162-0.012,0.324-0.023,0.486-0.033c-0.336,1.018-0.623,1.943,0.34,2.885c0.871,0.855,1.553,0.975,2.404,0.086
		C11.473-14.729,11.943-15.332,12.441-14.377z"/>
	<path fill-rule="evenodd" clip-rule="evenodd" fill="#AFC1E1" d="M-9.562-14.858c1.506,0.723,2.728,1.822,3.84,3.033
		c1.152,1.254,1.039,2.414-0.512,3.201c-3.652,1.852-6.012,5.02-8.547,8.029c-0.002,0-0.188,0.012-0.188,0.012l-0.186-0.002
		c-0.264-0.672-0.859-0.947-1.459-1.219c-0.916-2.15-1.842-4.271-1.519-6.738c0.108-0.836-0.847-1.422-1.257-2.158
		c0.576-0.439,1.101-0.992,1.743-1.287c0.817-0.377,1.79-1.043,2.476,0.268c-0.365,0.379-0.717,0.77-1.1,1.129
		c-0.374,0.35-1.014,0.623-0.762,1.232c0.336,0.814,0.995,0.295,1.531,0.189c0.259-0.051,0.514-0.115,0.771-0.174
		c0.941,0.949,1.686,0.641,2.682-0.113C-10.2-10.858-9.729-12.756-9.562-14.858z"/>
	<path fill-rule="evenodd" clip-rule="evenodd" fill="#581F13" d="M-14.976-18.614c0.055-0.119,0.109-0.238,0.167-0.359
		c1.193-1.031,2.389-0.99,2.927,0.514c0.462,1.293,2.547,1.531,2.011,3.342c-0.535,0.154-1.16,0.23-1.456-0.271
		C-12.201-16.875-13.146-18.231-14.976-18.614z"/>
	<path fill-rule="evenodd" clip-rule="evenodd" fill="#4E629B" d="M-15.17-11.719c0.414,0.744-0.094,1.658,0.441,2.377
		c-0.258,0.059-0.513,0.123-0.771,0.174c-0.536,0.105-1.195,0.625-1.531-0.189c-0.252-0.609,0.388-0.883,0.762-1.232
		C-15.887-10.95-15.535-11.34-15.17-11.719z"/>
	<path fill-rule="evenodd" clip-rule="evenodd" fill="#C26734" d="M-9.857-15.09c-0.535,0.156-1.16,0.23-1.457-0.271
		c-0.873-1.486-1.818-2.84-3.648-3.225c0.055-0.117,0.109-0.238,0.168-0.357c-1.027,0.037-1.51-1.123-2.51-1.148
		c-1.092,1.102-0.809,2.33-0.33,3.578c-0.455,0.061-0.906,0.16-1.361,0.182c-1.561,0.074-2.746,1.102-3.053,2.318
		c-0.348,1.383,0.811,2.502,2.109,3.18c0.17,0.088,0.375,0.111,0.564,0.164c0.576-0.439,1.1-0.992,1.742-1.287
		c0.818-0.377,1.791-1.045,2.477,0.268c0.414,0.742-0.094,1.656,0.441,2.377c0.941,0.947,1.686,0.641,2.682-0.115
		c1.846-1.4,2.318-3.299,2.484-5.4C-9.652-14.917-9.754-15.002-9.857-15.09z"/>
	<path fill-rule="evenodd" clip-rule="evenodd" fill="#FBB568" d="M-18.821-14.209c-0.191,0.555-0.615,0.867-1.169,0.801
		c-0.557-0.066-0.957-0.441-0.763-1.072c0.19-0.607,0.729-0.648,1.263-0.58C-19.005-15-18.802-14.688-18.821-14.209z"/>
	<path fill-rule="evenodd" clip-rule="evenodd" fill="#B9D0E5" d="M-17.404-20.016c-0.396,0.469-0.903,1.299-0.363,1.867
		c0.542,0.566-0.775,0.818-0.773,1.193c0.004,0.375,1.894,1.779,2.291,1.164c0.398-0.615,1.154-3.496,0-4
		S-17.404-20.016-17.404-20.016z"/>
	<path fill-rule="evenodd" clip-rule="evenodd" fill="#46171C" d="M-17.941-18.624c0.99,0.549,1,1.432,1.045,2.303
		c-0.656,0.004-1.338,0.057-1.641-0.627C-18.592-17.573-17.803-17.977-17.941-18.624z"/>
	<path fill-rule="evenodd" clip-rule="evenodd" fill="#FAA959" d="M-15.599-14.487c-0.053-0.393,0.145-0.688,0.397-0.943
		c0.498-0.502,0.979-1.139,1.795-0.535c0.52,0.387,0.818,0.885,0.409,1.523c-0.542,0.846-1.212,0.795-1.954,0.25
		c-0.186-0.137-0.429-0.193-0.646-0.289C-15.598-14.481-15.599-14.487-15.599-14.487z"/>
	<path fill-rule="evenodd" clip-rule="evenodd" fill="#839FCC" d="M-14.562-0.614c-0.25,0.022-0.412,0.254-0.724,0.282
		c-0.757,0.015-1.446,0.704-2.056-0.536c-0.868-2.145-1.302-5.031-0.864-7.523c0.168-0.957-0.868-1.551-1.313-2.334
		c0.89-0.928,1.943-1.592,3.166-1.988c0.41,0.033,0.82,0.068,1.229,0.104c0.172,1.432-1.254,2.17-1.643,3.447
		c0.809,0.268,1.455-0.529,2.186,0.082c0.945,0.791,1.697,0.227,2.576-0.461c1.801-1.406,2.297-3.252,2.342-5.357
		c1.197,0.217,1.883,1.131,2.64,1.945c-0.614,0.061-1.437-0.314-1.69,0.594c-0.522,1.873-2.264,2.701-3.376,4.064
		c-0.743,0.91-1.52,1.035-2.563,0.26c-1.15-0.855-2.008-0.391-2.125,1.004c-0.05,0.59-0.045,1.201,0.044,1.785
		c0.337,2.205,1.312,3.127,2.981,2.891C-13.684-1.618-14.488-1.286-14.562-0.614z"/>
	<g>
		<path fill="#4E629B" d="M-1.973-14.003c-0.381-0.67-1.084-1.152-1.617-1.742c-1.273-1.398-2.154-1.307-2.656-3.295
			c-0.094-0.094-4.234-3.742-4.917-4.542c-1.009-1.181-4.088-2.976-3.819-4.316c-3.639-0.437-4.514,1.581-4.396,4.443
			c0.059,1.417,1.682,2.015,2.027,3.333c1,0.025,1.482,1.186,2.512,1.148c1.191-1.031,2.387-0.99,2.926,0.514
			c0.461,1.293,2.547,1.531,2.01,3.342c0.104,0.086,0.205,0.174,0.309,0.26c1.506,0.723,2.729,1.822,3.84,3.033
			c1.152,1.254,1.039,2.414-0.512,3.201c-3.652,1.852-6.012,5.02-8.547,8.029c0.588,0.201,0.982-0.082,1.396-0.475
			c2.617-2.477,4.678-5.588,8.164-7.082c0.672-0.289,1.137-0.934,1.221-1.723c0.086-0.832,0.475-1.238,1.328-1.461
			C-1.072-11.761-1.379-12.964-1.973-14.003z"/>
		<polygon fill="#AFC1E1" points="-13.522,-24.948 -13.508,-24.933 -13.498,-24.933 		"/>
	</g>
	<path fill-rule="evenodd" clip-rule="evenodd" fill="#AFC1E1" d="M-13.272-24.082l1.103,1.093c1.818,1.895,2.402,1.831,4.163,3.778
		c0.622,0.689,1.834,1.746,1.154,2.428c-0.945,0.945-1.825-0.436-2.547-1.082c-1.128-1.006-2.131-2.152-3.197-3.229
		c-0.596-0.6-1.21-1.33-1.555,0.215c-0.165,0.734-0.732,0.939-1.377,0.619c-0.648-0.321-0.877-0.988-0.314-1.451
		c1.267-1.042,0.329-1.501-0.412-2.059c-0.315-0.237-0.674-0.428-0.953-0.701c-0.428-0.418-0.501-0.938-0.136-1.434
		c0.415-0.562,0.942-0.664,1.556-0.273C-15.028-25.695-14.332-24.008-13.272-24.082z"/>
	<path fill-rule="evenodd" clip-rule="evenodd" fill="#E52425" d="M-1.721-24.044c-0.051,0.415-0.074,0.909,0.281,1.129
		c0.775,0.483,0.707,1.176,0.639,1.901c-2.258,1.303-4.426,0.989-6.348-0.917c-0.43-0.426-0.859-0.85-1.279-1.282
		c-0.387-0.396-0.908-0.8-0.639-1.422c0.299-0.691,0.801-1.287,1.613-1.388C-5.229-26.296-3.268-25.758-1.721-24.044z"/>
	<path fill-rule="evenodd" clip-rule="evenodd" fill="none" stroke="#000000" stroke-miterlimit="10" d="M16.908-2.876
		c-1.801-2.89-4.203-5.352-7.328-5.85c-2.707-0.433-5.253-2.28-8.184-1.344c-0.279,0.09-0.701-0.01-0.801-0.41
		c-0.107-0.429,0.264-0.546,0.559-0.674c2.049-0.893,4.002-1.938,5.632-3.503c0,0,0-0.001,0-0.001
		c0.372,0.354,0.78,0.681,1.112,1.072c0.492,0.577,1.023,0.976,1.624,1.116c0.023,0.007,0.047,0.009,0.07,0.015
		c0.081,0.016,0.161,0.031,0.244,0.037c0.081,0.007,0.162,0.009,0.243,0.004c0.786,0.052,1.549-0.391,2.25-1.017
		c0.195-0.176,0.416-0.322,0.625-0.48c-0.01-0.187-0.019-0.375-0.027-0.563c0.013-0.042,0.027-0.082,0.037-0.125
		c0.063-0.028,0.127-0.048,0.197-0.03c0.016-1.511-0.316-2.524-1.063-3.096c-0.612-0.65-1.503-0.822-2.674-0.531
		c-0.269,0.021-0.537,0.04-0.837,0.087c-0.007,0.018-0.018,0.046-0.028,0.074c-0.098-0.021-0.196-0.041-0.294-0.061
		c-0.162-0.111-0.33-0.326-0.484-0.317c-2.379,0.138-3.851-0.889-4.418-3.249c-0.095-0.39-0.588-0.691-0.913-1.018
		c-1.349-1.357-2.654-2.762-4.066-4.051c-2.163-1.973-4.604-3.217-7.665-2.418c-2.125-0.599-3.547,1.633-5.585,1.391
		c-0.04-0.004-0.084-0.013-0.125-0.018c-0.002-0.066-0.003-0.132,0.009-0.196c-0.734-0.088-1.351-0.072-1.875,0.026
		c-0.062,0.011-0.122,0.022-0.179,0.04c-1.922,0.456-2.434,2.16-2.343,4.377c0.051,1.247,1.312,1.86,1.85,2.887
		c-0.582,0.838-0.809,1.746-0.64,2.729c-0.179,0.275-0.385,0.543-0.367,0.87c0,0.004-0.005,0.009-0.005,0.013
		c0.001,0.11,0.172,0.309,0.412,0.518c-0.289,0.047-0.577,0.091-0.867,0.105c-1.561,0.074-2.746,1.102-3.053,2.318
		c-0.036,0.143-0.046,0.28-0.051,0.417c-0.003,0.02-0.008,0.039-0.008,0.06c-0.01,1.163,1.022,2.105,2.168,2.703
		c0.132,0.068,0.285,0.099,0.436,0.133c0.453,0.771,1.463,1.363,1.297,2.31c-0.438,2.492-0.004,5.379,0.864,7.523
		c0.609,1.24,1.299,0.551,2.056,0.536c0.126-0.011,0.225-0.058,0.318-0.109c0.262,0.26,0.523,0.52,0.787,0.777
		c0.059,0.196,0.118,0.393,0.178,0.589c-0.672,1.061-0.601,2.161-0.404,3.27c-0.38-0.033-0.765-0.09-1.11,0.04l-0.146,0.021
		l-0.021,0.146c-0.143,0.203-0.283,0.404-0.426,0.606c-1.925,0.892-2.078,1.546-0.688,2.937c0.014,0.014,0.029,0.027,0.043,0.042
		c-0.108,0.45,0.198,0.962,0.896,1.66c0.352,0.352,0.72,0.667,1.038,1.043c0.094,0.159,0.205,0.297,0.312,0.438
		c0.089,0.148,0.176,0.297,0.242,0.475c0.953,2.558,3.396,3.123,5.646,3.897c1.733,2.215,3.647,4.305,4.915,6.845
		c-0.068,0.409-0.136,0.818-0.205,1.228c0.136,0.143,0.282,0.25,0.432,0.343c-0.017,0.144-0.034,0.288-0.051,0.433
		c-1.104,1.094-4.063,3.728-4.153,5.88c-0.086,0.209-0.083,0.42,0.054,0.631c0.714,1.096,1.96,1.513,3.327,1.096
		c0.44-0.135,0.934-0.48,1.309-0.38c2.828,0.765,6.94-1.071,9.273-1.992c1.416-0.558,1.949-1.929,1.667-3.417
		c0.546-0.825,0.675-1.766,0.274-2.871c0.182-0.779-0.058-1.267-0.44-1.655c-0.219-1.014-1.358-1.389-2.037-2.085
		c-0.672-1.324-1.373-2.643-0.611-4.238c2.056-1.272,4.307-2.296,5.648-4.47c1.984,0.015,3.469-1.233,4.984-2.202
		c1.245-0.795,2.406-2.003,2.316-3.71C17.941,2.216,18.454-0.393,16.908-2.876z"/>
</g>
</svg>
