<?xml version="1.0" encoding="utf-8"?>
<!-- Generator: Adobe Illustrator 16.0.4, SVG Export Plug-In . SVG Version: 6.00 Build 0)  -->
<!DOCTYPE svg PUBLIC "-//W3C//DTD SVG 1.1//EN" "http://www.w3.org/Graphics/SVG/1.1/DTD/svg11.dtd">
<svg version="1.1" id="Layer_1" xmlns="http://www.w3.org/2000/svg" xmlns:xlink="http://www.w3.org/1999/xlink" x="0px" y="0px"
	 width="841.9px" height="595.3px" viewBox="0 0 841.9 595.3" style="enable-background:new 0 0 841.9 595.3;" xml:space="preserve"
	>
<style type="text/css">
<![CDATA[
	.st0{display:inline;fill-rule:evenodd;clip-rule:evenodd;fill:url(#SVGID_1_);}
	.st1{display:inline;fill-rule:evenodd;clip-rule:evenodd;fill:url(#SVGID_2_);}
	.st2{display:inline;fill-rule:evenodd;clip-rule:evenodd;fill:url(#SVGID_3_);}
	.st3{display:inline;fill-rule:evenodd;clip-rule:evenodd;fill:url(#SVGID_4_);}
	.st4{display:inline;fill-rule:evenodd;clip-rule:evenodd;fill:url(#SVGID_5_);}
	.st5{display:inline;fill-rule:evenodd;clip-rule:evenodd;fill:url(#SVGID_6_);}
	.st6{display:inline;fill-rule:evenodd;clip-rule:evenodd;fill:url(#SVGID_7_);}
	.st7{display:inline;fill-rule:evenodd;clip-rule:evenodd;fill:url(#SVGID_10_);}
	.st8{display:inline;fill-rule:evenodd;clip-rule:evenodd;fill:url(#SVGID_11_);}
	.st9{display:inline;fill-rule:evenodd;clip-rule:evenodd;fill:url(#SVGID_12_);}
	.st10{display:inline;fill-rule:evenodd;clip-rule:evenodd;fill:url(#SVGID_13_);}
	.st11{display:none;}
	.st12{fill-rule:evenodd;clip-rule:evenodd;fill:url(#SVGID_8_);}
	.st13{fill-rule:evenodd;clip-rule:evenodd;fill:url(#SVGID_9_);}
]]>
</style>
<g id="Frame4" class="st11">
	<radialGradient id="SVGID_1_" cx="1.2402" cy="-2.7427" r="172.5341" gradientUnits="userSpaceOnUse">
		<stop  offset="0.1569" style="stop-color:#FFDF43"/>
		<stop  offset="0.6487" style="stop-color:#ED683C"/>
		<stop  offset="1" style="stop-color:#B72F2B"/>
	</radialGradient>
	<path class="st0" d="M-70.1-105.4c1.8,3,2.7,5.6-1.3,7.3c1.9,3.4,3.6,6.4,5.3,9.4c-0.5,0.4-0.9,0.9-1.4,1.3
		c-4.2-3-8.3-5.9-12.5-8.9c-0.4,0.4-0.7,0.9-1.1,1.3c1.1,1.5,2.3,3,3.4,4.6c2.5,3.5,5,7,7.3,10.7c1.9,3.2,2.6,6.5-1.9,9.1
		c2.3,2.5,4.2,4.8,6.3,6.8c8.1,7.9,17.6,13.7,28,18c5.4,2.2,7.1,1,6.4-4.9c-0.4-2.9-1.7-5.7-2.3-8.6c-0.3-1.4,0.3-2.9,0.5-4.3
		c1.6,0.5,3.4,0.7,4.7,1.6c1.6,1.1,2.5,3.2,4.2,4.2c2,1.2,4.4,1.6,6.7,2.3c0.7-2.1,2.1-4.3,1.9-6.3c-0.9-9.9-2.2-19.8-3.3-29.7
		c-0.2-1.8-0.3-3.5-0.5-5.3c0.3,0,0.6-0.1,1-0.1c3.6,7.1,7.2,14.3,11,21.6c2.1-1.4,3.3-2.2,4.2-2.8c1.9,2.4,3.6,4.4,5.3,6.4
		c0.6-0.2,1.2-0.3,1.7-0.5c5.4-15.6,4.5-32.1,6.4-48.2c1.4,4.7,2.2,9.6,3.7,14.2c1.8,5.4,3.1,5.5,6.6,1c1.2,0.7,2.4,1.4,4.7,2.8
		c4.4-16.4,6.5-32.6,9.5-49.7c-2.7,1.6-4.1,2.5-5.8,3.5c-2.4-8.4,4.3-16.6-0.9-24.3c-0.4,0.9-0.2,1.9-0.3,2.7
		c-0.8,4-0.6,9.1-3.1,11.6c-2.6,2.7-4.9,5.2-6.9,8.4c-1.6,2.4-3.6,1.6-4.2-1c-0.9-3.5-1.8-7.2-2-10.8c-0.6-13.1-0.8-26.2-1.1-39.3
		c-1,0-2,0-3,0C5.7-196.1,4.5-191,3-186c-0.3,1.1-2,1.7-3.1,2.6c-0.8-1.2-1.6-2.4-2.3-3.7c-0.3-0.6-0.4-1.3-0.5-2
		c-1.5,1.8-1.8,3.6-2.3,5.4c-2.1,7.7-4.3,15.3-6.6,23c-0.2,0.8-1.2,1.6-2,2c-0.4,0.2-1.5-0.5-1.9-1.1c-2.2-3.4-4.2-6.9-6.7-10.9
		c-1.4,3.6-2.6,6.4-3.7,9.2c-0.8-0.1-1.6-0.1-2.4-0.2c-1.5-6.1-3-12.1-4.5-18.2c-0.4,0-0.9,0-1.3,0c-0.3,12.1-0.7,24.1-1,36.2
		c-0.6,0.2-1.3,0.3-1.9,0.5c-2.7-3.5-5.3-6.9-8-10.4c-0.3,0.2-0.7,0.3-1,0.5c0.4,4.7,0.8,9.4,1.2,14.1c-0.7,0.3-1.5,0.5-2.2,0.8
		c-10.4-12-17.1-26.4-25.9-39.7c6.9,17.3,12.7,34.8,17.1,52.8c-0.5,0.4-1,0.7-1.5,1.1c-3.2-2.2-6.5-4.3-10.4-7
		c0.2,1.6,0.3,2.2,0.3,2.8c-0.1,1.9-0.2,3.9-0.3,5.8c-1.9-0.7-4.3-0.8-5.5-2.1c-4.4-4.7-8.4-9.8-12.6-14.7c-1.4-1.6-3-2.9-4.5-4.4
		c-0.4,0.4-0.8,0.7-1.2,1.1c1.2,2.1,2.4,4.1,3.6,6.2C-82.2-126-76.2-115.6-70.1-105.4z"/>
	<radialGradient id="SVGID_2_" cx="1.2407" cy="-2.7422" r="172.5341" gradientUnits="userSpaceOnUse">
		<stop  offset="0.1569" style="stop-color:#FFDF43"/>
		<stop  offset="0.6487" style="stop-color:#ED683C"/>
		<stop  offset="1" style="stop-color:#B72F2B"/>
	</radialGradient>
	<path class="st1" d="M11.1,103.6c-2.1-0.1-4.2-1.9-6.2-3c-1.9-1-4.3-3.3-5.6-2.8c-1.9,0.8-3.1,3.4-4.3,5.4
		c-0.9,1.5-1.2,3.4-1.7,5.1c-0.4-0.1-0.9-0.1-1.3-0.2c-0.4-1.7-0.5-3.6-1.3-5.1c-1-1.8-2.5-4-4.2-4.5c-1.2-0.4-3.4,1.5-4.7,2.9
		c-1.5,1.6-2.3,3.7-3.4,5.6c-0.4-5.4,0.1-10.4,0.1-15.5c0-6.2-0.9-6.8-7-6.3c0-2.5,0.2-4.9-0.1-7.3c-0.3-2.5-0.6-5.1-1.7-7.2
		c-0.9-1.7-2.8-3.7-4.4-3.9c-1.2-0.2-3.1,2-4.3,3.5c-1.2,1.5-1.9,3.5-3.2,6.2C-44,67-44,67-49.7,71.1c-4.9-5.8-7.3-5.8-11,1.3
		c-4.9,9.6-9.1,19.6-13.5,29.5c-0.2,0.6,0.1,1.4,0.4,3.5c2.3-2.8,3.9-4.6,5.4-6.5c1.5-1.8,3-3.6,5.2-6.3c0.7,3.6,1.2,5.9,1.8,9.3
		c1.6-2.8,2.5-4.3,3.7-6.2c3,5.9,1.8,22.9,1.6,34.2c-0.1,2.2-0.3,4.3-0.4,6.5c-0.2,3.8-2,7,1.2,11.5c3.9,5.3,6.7-10.5,13.2-8.4
		c1.3,0.4,3.2,23.2,3.2,24.6c-0.1,4.7-0.7,9.4-1.2,14c0.9,0,7.6-45.3,14-29.3c2-1.3,4.1-15,5.3-14.2c2.4,1.5,12.3,33.1,14,27.8
		c0.5-1.7,3.6-26.3,4.7-27.8c6.7-7.4,9.1,27.1,10.2,28.7c0.7-1.7,3.4-18.8,2.2-20.2c-2.4-3.1,0-6.7,1-6.7
		c10.3-0.2,16.9,19.5,22.9,11.1c1.2,1.2,2.1,2.3,3.1,3.3c0.4-0.1,0.9-0.2,1.3-0.3c0-5.9,0-11.8,0-17.7
		C38.8,116.3,27.7,104.8,11.1,103.6z"/>
	<radialGradient id="SVGID_3_" cx="1.2397" cy="-2.7422" r="172.5345" gradientUnits="userSpaceOnUse">
		<stop  offset="0.1569" style="stop-color:#FFDF43"/>
		<stop  offset="0.6487" style="stop-color:#ED683C"/>
		<stop  offset="1" style="stop-color:#B72F2B"/>
	</radialGradient>
	<path class="st2" d="M144.2-1.3c0.2-0.5,0.3-0.9,0.5-1.4c2.7-0.3,5.4-0.7,8.1-1c-1.3-1.8-2.7-2.3-3.8-3c-1-0.7-1.8-1.7-2.6-2.5
		c1-0.7,2-1.8,3.1-2c4.1-0.6,8.2-0.9,12.4-1.1c2.7-0.2,5.3,0,8,0c-2.3-3.6-9-1.6-7-7.7c-5-1.1-9.6-2.1-14.2-3.1c0-0.7,0-1.3,0-2
		c15.3-5.7,30.6-11.5,47.2-13.9c-1.9-0.9-3.7-1.2-5.5-1.3c-6.8-0.3-13.6-0.5-20.4-1c-1.3-0.1-2.6-1-4-1.5c0.7-1.2,1.3-2.4,2-3.6
		c0.3-0.5,0.8-1,1.2-1.5c-0.1-0.5-0.2-1-0.2-1.5c-7.5,0.7-14.9,1.4-20.7,2c-2.3-2.8-3.7-4.5-5.5-6.7c8.4-6.6,20.3-5.7,29.1-12.1
		c-1.9-0.3-3.6,0-5.3,0.3c-8.8,1.7-17.6,3.7-26.4,4.9c-7,1-7,0.6-4-5.9c0.1-0.2-0.1-0.6-0.2-1c-2.1,0.4-4.3,0.8-7.4,1.4
		c0.9-3.2,1.5-5.4,2.4-8.2c-1.5,0.5-2.2,0.8-3,0.9c-1.5,0.2-3.1,0.2-4.6,0.3c0.2-1.6-0.1-3.4,0.7-4.6c2.5-3.9,5.2-7.7,8.3-11.1
		c2-2.1,4.8-3.5,7.3-5.1c-0.7-0.8-1.3-1.5-2-2.3c-11.7,5.6-21.8,14.6-35.9,18.9c1.7-5.6,3.1-9.8,4.4-14c-0.5-0.2-1-0.4-1.5-0.6
		c-5.9,7.5-11.8,15-17.6,22.7c-1.8,2.4-3.1,5.2-4.1,7.9c-0.5,1.3-0.4,3.7,0.4,4.5c0.9,0.9,3.1,0.8,4.6,0.4c2.1-0.5,4-1.8,5.3-2.4
		c0.3,2.4,0,5.5,1,6.1c1.9,1.1,4.6,0.7,8,0.9c-2.2,2.1-3.9,3.3-5.1,5c-1.1,1.5-2.7,3.7-2.2,4.9c0.5,1.4,3,2.5,4.7,2.8
		c3.7,0.7,7.5,0.7,12.2,1.1c-3,4.4,0.9,4.9,3.6,6.6c-9.7,2.6-18.9,5-28.3,7.5c1.1,2.7,1.6,4,2.2,5.4c-4.1,1-8,1.7-11.7,3
		c-1.3,0.5-2.2,2.2-3.3,3.3c1.1,1.1,2.2,2.2,3.4,3.1c1,0.7,2.2,1.1,3.3,1.6c-0.1,0.4-0.1,0.9-0.2,1.3c-2.6,0-5.2-0.4-7.7,0.1
		c-3.4,0.7-8.6,0.2-8.7,4.8c0,2.5,3.6,5.6,6.2,7.5c3.2,2.4,7.2,3.9,9.7,5.3c0,3.1-0.8,5.7,0.2,7.3c2.5,4.3,0.3,7.6-2.4,9.8
		c-3.2,2.6-2.3,4.6-0.1,6.5c2.8,2.5,5.8,5,9.2,6.9c17,9.4,34.1,18.7,51.2,27.9c0.6,0.3,1.4,0,3.8,0c-3.9-3.7-6.9-6.3-9.5-9.2
		c-0.8-0.9-0.7-2.7-1.1-4.1c1.4,0,2.9-0.5,4.1,0c3,1.4,5.8,3.2,8.8,4.7c2.2,1.2,4.4,2.2,6.6,3.3c0.3-0.5,0.5-0.9,0.8-1.4
		c-1.7-1.4-3.5-2.8-5.2-4.2c-5-4.1-10.1-8.1-14.8-12.5c-1.2-1.1-1-3.5-1.5-5.3c1.7-0.4,3.5-1.2,5.1-0.9c2.6,0.5,5.1,2.5,7.5,2.4
		c9.9-0.4,18.2,4.8,27.3,7.3c1,0.3,2.1,0.3,3.2,0.5c0.1-0.4,0.2-0.8,0.3-1.2c-1.5-0.9-3.2-1.6-4.6-2.7c-0.8-0.7-1.1-2-1.7-3.1
		c1.2-0.4,2.4-1.3,3.5-1.2c1.6,0.1,3.1,1,4.7,1.5c0.2-0.4,0.4-0.8,0.6-1.2c-5-3.6-10.1-7.1-15.6-11.1c1.8-0.8,3.1-1.4,4.7-2.1
		c-2.6-2-4.9-3.6-7.1-5.3c-0.6-0.5-1.3-1.8-1.1-2.5c0.2-0.7,1.5-1.5,2.2-1.5c7.9,0.8,15.8,1.8,23.7,2.7c2,0.2,4,0.3,6,0.5
		c-0.1-0.3-0.1-0.6-0.2-0.9C173.8,14.1,159,6.4,144.2-1.3z"/>
	<radialGradient id="SVGID_4_" cx="1.2407" cy="-2.7407" r="172.5328" gradientUnits="userSpaceOnUse">
		<stop  offset="0.1569" style="stop-color:#FFDF43"/>
		<stop  offset="0.6487" style="stop-color:#ED683C"/>
		<stop  offset="1" style="stop-color:#B72F2B"/>
	</radialGradient>
	<path class="st3" d="M110.3,73.1c-2.3-2.1-5-6.1-9.4-2.3c-0.4,0.4-2.3-0.5-3.3-1.2c-1.8-1.2-3.3-2.8-5.1-3.9
		c-1.1-0.7-2.6-0.8-4-1.1c-0.3,1.7-1.3,3.5-0.9,5c0.9,3.1,2.5,5.9,3.9,8.9c-2.1-0.8-3.3-2.2-4.7-3.5c-3.5-3.5-7-7.1-10.8-10.3
		c-1-0.9-3.2-1.2-4.4-0.8c-0.9,0.4-1.7,2.4-1.7,3.7c0,3.1,0.3,6.3,0.9,9.4c1,4.9,2.3,9.8,3.6,14.9c-7.9-3.8-7.9-3.8-11,1.7
		c-0.9-0.9-1.3-1.8-2-2.1c-2.4-1-5.1-2.6-7.3-2.2c-1.4,0.2-3.1,3.6-3.2,5.7c-0.2,4.1-6.4,7.1-6.3,11.2c0.1,1.7,5.8,7.8,5.9,6.3
		c0.5-13.4,13.6-13.4,14.6,7.2c2.5-1.6,4.1-1.9,5,1.7c0.5,2,2,3.8,3.1,5.7c0.5-0.2,0.9-0.5,1.4-0.7c-0.2-2.7-0.5-5.3-0.8-9.1
		c2.8,1.3,5.1,1.8,6.5,3.2c3.7,3.5,6.7,3.5,9.8-0.6c0.6-0.8-1.4-15.5-1.2-15.2c3.4,4.7,14.6,7.2,14.1,27.4c0.5-7,3.2-24.3,14.8-11.2
		c0-8.3,0-15.3,0-22.6c2,1,4,2.1,6.7,3.4c-0.7-2.9-1.1-4.7-1.9-7.8c5.9,3.3,10.6,6,15.2,8.6c0.6-1.9,0.5-2.8,0-3.3
		C128.7,90.4,119.7,81.5,110.3,73.1z"/>
	<radialGradient id="SVGID_5_" cx="1.2397" cy="-2.7417" r="172.5326" gradientUnits="userSpaceOnUse">
		<stop  offset="0.1569" style="stop-color:#FFDF43"/>
		<stop  offset="0.6487" style="stop-color:#ED683C"/>
		<stop  offset="1" style="stop-color:#B72F2B"/>
	</radialGradient>
	<path class="st4" d="M-65.9-8.2c-0.8-1.9-2.2-3.8-3.8-5.2c-2.5-2.2-5.3-4-8.3-6.2c7.1-2.6,8.1-4.7,5-10.9c-1.5-3-4.2-5.4-6.5-8
		c-1.1-1.3-2.4-2.3-3.5-3.3c2.6-0.8,5.9-0.9,6.3-2.1c0.6-1.7-0.3-4.6-1.6-6.2c-5.2-6.4-10.7-12.7-16.3-18.8
		c-3.5-3.8-7.6-7.1-11.4-10.6c-0.4,0.2-0.7,0.5-1.1,0.7c0.2,2.1,0.4,4.2,0.7,6.3c-0.4,0.3-0.8,0.7-1.1,1c-3.7-3.1-7.5-6.1-11.2-9.2
		c-0.3,0.2-0.7,0.4-1,0.7c1.2,3.4,2.3,6.7,3.5,10.1c-0.6,0.4-1.3,0.8-1.9,1.2c-9.9-8.2-19.7-16.4-30.1-24.9c0.9,2.7,1.6,4.7,2.5,7.3
		c-2.3,0-3.7,0-5.7,0c0.7,1.1,1.1,1.6,1.3,2.2c0.6,1.6,1,3.3,1.5,4.9c-1.5,0-3.2,0.5-4.6,0c-5.8-2.1-11.4-4.5-17.1-6.7
		c-1.4-0.5-3-0.6-4.5-0.9c0.5,1.8,1.2,2.3,2,2.9c11.5,7.5,23.1,15,34.6,22.6c3.6,2.4,6.9,5.2,10.2,8c2.1,1.8,2.3,4.5-0.7,4.7
		c-3.2,0.3-5,1.4-6.7,3.9c-0.5,0.8-2.8,1-4,0.6c-3-1-5.8-2.4-8.7-3.7c-1.5-0.6-3-1.3-4.4-1.9c1.3,4.3,3.2,7.7,5,11.1
		c0.6,1.1,1.5,2.6,1.1,3.4c-0.4,0.9-2,1.7-3.2,1.9c-2.2,0.3-4.4,0.1-6.7,0.1c-0.1,0.6-0.3,1.3-0.4,1.9c6.1,2.4,12.4,4.6,17.2,12
		c-7.2,0.6-13.1,1-20.3,1.6c3.3,2.2,5.3,3.6,7.4,5c-0.1,0.7-0.2,1.3-0.3,2c-7.2,0-14.4,0-21.6,0c0,0.7,0,1.4,0,2.1
		c1.9,0.3,3.7,0.4,5.6,0.8c10.3,2,20.6,3.9,30.8,6.1c1.5,0.3,2.7,2.4,4,3.6c-1.5,0.7-3,1.5-4.5,2.1c-1.3,0.5-2.7,0.7-4.1,1
		c0.1,0.7,0.2,1.5,0.4,2.2c14.1-1.5,28.5,2.4,43.2-3.5c-2-2.5-3.3-4-4.4-5.4c1.6-0.8,4-1.3,4.4-2.4c1.2-3.4,3-1.9,5.1-1.6
		C-86-4.5-77.9-3-69.6-2.3C-65.6-1.9-64.2-4.4-65.9-8.2z"/>
	<radialGradient id="SVGID_6_" cx="1.2397" cy="-2.7427" r="172.5343" gradientUnits="userSpaceOnUse">
		<stop  offset="0.1569" style="stop-color:#FFDF43"/>
		<stop  offset="0.6487" style="stop-color:#ED683C"/>
		<stop  offset="1" style="stop-color:#B72F2B"/>
	</radialGradient>
	<path class="st5" d="M52.4-105.9c-0.6,2.1-1.5,4.1-1.6,6.1c-0.1,2.1,0.7,4.3,1.1,6.4c1.9-0.7,4-1.2,5.7-2.3
		c2.7-1.8,5.1-4.1,7.6-6.1c0.3,0.3,0.6,0.7,0.9,1c-1.2,1.6-2.4,3.1-3.5,4.7c-3.5,5.4-7.1,10.8-10.2,16.4c-1.1,2.1-0.8,4.9-1.1,7.4
		c2.6-0.7,5.5-0.7,7.6-2.1c4-2.6,7.4-5.9,11.2-9c2.4,5.4,2.6,5.5,6.7,1.6c1.6-1.5,3.2-2.9,4.6-4.5c14.5-17.1,29-34.3,43.5-51.4
		c0.7-0.8,1-2,1.5-3.1c-3.7,1.5-6.3,4.1-9.3,5.9c-2,1.2-4.7,1.2-7.1,1.8c0.7-2.2,1.3-4.5,2.2-6.6c0.4-1,1.6-1.7,2.2-2.7
		c0.4-0.8,0.5-1.8,0.7-2.8c-0.3-0.1-0.6-0.3-0.9-0.4c-3,2.7-6,5.4-9.3,8.4c-0.9-1.8-1.6-3.3-2.2-4.8c0,0.9,0,1.8,0,2.6
		c-3.3,2.5-6.5,5.2-9.9,7.6c-1.2,0.8-2.8,1-4.3,1.5c0-1.5-0.5-3.2,0.2-4.4c5.3-10,10.8-19.8,16.2-29.7c0.5-0.8,0.8-1.8,1.2-2.6
		c-5.7,4.9-10.6,10.3-15.6,15.5c-5.1,5.2-10.4,10.3-15.7,15.4c-0.5-0.3-1-0.6-1.5-0.9c0.3-1.9,0.5-3.9,0.8-5.8
		c-0.4-0.2-0.7-0.5-1.1-0.7c-1,1.2-1.9,2.5-3,3.5c-1.9,1.7-3.9,3.1-5.9,4.7c0-2.6-0.3-5.2,0.2-7.7c0.5-2.7,1.8-5.2,2.7-7.7
		c-0.7-0.3-1.4-0.6-2.1-0.8c-1.7,3.4-3.5,6.8-5.2,10.2c-4.4,8.4-8.9,16.7-13,25.3C43.6-109.8,45.6-106.7,52.4-105.9z"/>
	<radialGradient id="SVGID_7_" cx="1.2397" cy="-2.7422" r="172.5337" gradientUnits="userSpaceOnUse">
		<stop  offset="0.1569" style="stop-color:#FFDF43"/>
		<stop  offset="0.6487" style="stop-color:#ED683C"/>
		<stop  offset="1" style="stop-color:#B72F2B"/>
	</radialGradient>
	<path class="st6" d="M-100,65.6c-0.1-0.1-3.6-1.4-4.5-1.6c0.1-1.5,3.5-1.6,2.2-5s-4.4-3.2-12.1,1c-0.9,0.5-2,0.9-3,1.4
		c0.7-0.6,1.4-1.1,2-1.7c3.8-3.6,1.6-12-1.7-14c0.9-0.6,1.7-1.3,2.6-2c1.6-1.4,2.6-3.6,3.9-5.4c-1.9-0.6-3.8-1.2-5.7-1.9
		c-0.3-0.1-0.4-0.4-0.9-0.9c0.5-0.7,1.1-1.5,1.4-2.4c0.5-1.2,1.3-3.3,1-3.5c-1.6-1-3.7-2.4-5.4-2.1c-13,2.5-26,5.4-39,8.3
		c-0.6,0.1-0.9,1.1-1.8,2.1c3.3,0.9,6.1,1.6,10.1,2.7c-2.6,1.6-3.9,2.5-5.5,3.5c3.1,3.1,0.8,4.4-1.8,5.9c-6.5,3.9-12.9,8-19.3,12.1
		c-0.9,0.6-1.5,1.6-2.3,2.4c0.1,0.3,0.2,0.5,0.3,0.8c3.2-1,6.2-2.4,9.5-2.9c1.2-0.2,3.6,1.3,4,2.6c0.4,1.2-0.8,3.3-1.9,4.3
		c-2.5,2.4-5.3,4.4-8,6.6c0.3,0.4,0.5,0.8,0.8,1.2c-4.2,3-8,5.7-11,7.8c-0.9,0.6-1.5,1.7-2.2,2.6c4-0.6,7.1-2.5,10.4-3.5
		c2.2-0.7,4.9-0.1,7.3,0c-1.2,2-2.3,4.1-3.7,5.9c-0.7,0.9-2,1.3-2.8,2.1c-0.6,0.7-0.9,1.7-1.3,2.5c0.2,0.2,0.5,0.4,0.7,0.6
		c3.6-1.9,7.1-3.8,11.1-5.9c0.4,2,0.7,3.6,1,5.2c0.2-0.9,0.4-1.7,0.6-2.6c3.8-1.7,7.6-3.5,11.4-5c1.4-0.5,3-0.3,4.5-0.4
		c-0.4,1.4-0.3,3.2-1.2,4.2c-2.2,2.4-4.5,4.7-6.8,6.3c-0.1,0.4,0,0.8,0.2,1.1c-5.4,5.9-10.8,11.7-16.2,17.6
		c-0.7,0.7-1.2,1.5-1.8,2.3c6.7-3.4,12.7-7.5,18.9-11.3c2.9-1.8,5.9-3.6,8.9-5.3c-0.4,0.8-0.6,1.2-0.4,1.1c7.8-3.1,15.6,2.9-5.3,8.9
		c-1.6,7.1,9.2,6.3,7.6,13.5c2.9-2.1,4.9-3.6,6.9-5.1c0.4,0.4,0.7,0.9,1.1,1.3c-3,3.4,38.3-19.2,31.5-23c-1.3-0.7-2.9-2.9-2.7-4.2
		c0.5-3.3,1.4-6.6,2.3-9.9c0.4-0.4,0.7-0.8,1.1-1.3c0.9-1.1,1.5-2,1.9-3c3.5-0.8,7.6-4.4,8.4-7.9C-93.4,67.5-97.5,67.2-100,65.6z"/>
</g>
<g id="Frame3">
	<radialGradient id="SVGID_8_" cx="2.2002" cy="-1.1016" r="158.9168" gradientUnits="userSpaceOnUse">
		<stop  offset="0" style="stop-color:#F3903F"/>
		<stop  offset="0.4998" style="stop-color:#ED683C"/>
		<stop  offset="1" style="stop-color:#B8392A"/>
	</radialGradient>
	<path class="st12" d="M-49.1,110.5c-1.4,1.4-2.9,2.9-4.6,4.6c-2.7-3-4.7-1.5-6.9,1.1c-7.1,8.3-14.5,16.5-21.8,24.7
		c-1.1,1.3-2.4,2.4-3.6,3.5c-0.3-0.2-0.7-0.5-1-0.7c2.6-4.9,5.2-9.7,7.7-14.6c-0.5-0.5-1-0.9-1.5-1.4c-2.9,1.4-5.7,2.7-10,4.7
		c3.2-6.1,5.8-10.8,8-15.6c4.3-9.5,8.6-19.1,12.5-28.8c0.9-2.3,0.6-5.1,0.8-7.6c-2.6,0.7-5.5,0.8-7.7,2.1c-3.6,2-6.8,4.7-10.2,7
		c-1,0.7-2.1,1.2-4,1c1.9-3.4,4-6.7,5.7-10.2c2.1-4.2,4-8.4,5.8-12.7c0.4-1.1,0.1-2.4,0.2-3.7c-1.4,0.2-2.9,0.1-4.1,0.7
		c-2,1.2-3.8,2.7-5.5,4.3c-8.4,7.6-16.6,15.2-25,22.7c-1.6,1.4-3.5,2.5-6.1,3c2-2.9,4.1-5.9,6.1-8.8c-0.5-0.4-1-0.9-1.4-1.3
		c-3.2,2.2-6.4,4.5-9.6,6.7c-0.4-0.4-0.8-0.8-1.2-1.2c0.9-1.2,1.7-2.4,2.6-3.5c4.6-5.7,9.2-11.3,13.7-17.1c0.6-0.7,0.3-2.1,0.5-3.2
		c-1.7-0.1-3.3-0.1-6.2-0.2c1.5-2.7,3-5.3,4.5-7.8c-0.2-0.4-0.3-0.8-0.5-1.2c-5.7,1.6-11.5,3.3-17.2,4.9c-0.2-0.4-0.5-0.8-0.7-1.3
		c1-1.1,2-2.3,3-3.4c3.1-3.3,6.3-6.4,9.1-9.9c3.7-4.4,3.3-5.6-2.6-6.3c-5.6-0.7-11.2-0.6-16.9-0.7c-1.4,0-2.8,0.1-4.7-1
		c0.9-0.6,1.8-1.4,2.8-1.9c9.5-5.1,19-10.1,28.5-15.4c1.3-0.7,2-2.7,2.9-4.2c-1.6-0.6-3.2-1.3-4.8-1.9c-1.5-0.6-3-1.2-4.5-1.8
		c0.1-0.4,0.2-0.8,0.4-1.2c3-0.8,6-1.4,8.9-2.4c1.1-0.4,1.7-1.8,2.6-2.7c-1-0.8-1.8-2.1-2.9-2.3c-2.6-0.5-5.3-0.4-7.9-0.7
		c-1.2-0.1-2.3-0.7-3.4-1c0.6-0.9,1-1.9,1.7-2.7c1.1-1.5,2.4-2.9,3.6-4.3c-1.7-1.1-3.3-2.9-5.2-3.3c-12.5-2.7-25.1-5-37.6-7.5
		c-1.4-0.3-2.8-0.6-4.2-0.8c-0.1-0.5-0.1-1-0.2-1.4c2.9-0.6,5.7-1,8.5-1.8c4.3-1.2,8.6-2.4,12.8-3.9c2.5-0.9,3-3.1,0.5-4.3
		c-3.9-1.9-8.2-3.3-12.4-4.8c-1.9-0.7-3.8-1.2-5.7-1.8c0.1-0.5,0.2-1,0.3-1.5c1.8,0,3.7,0,5.5,0c7.3-0.2,14.8,0.4,19.5-7.2
		c0.6-0.9,2.6-1.1,4-1.2c2.5-0.1,5,0.5,7.4,0.2c1.9-0.3,4.8-1.4,5.1-2.7c0.5-2.1,0-5.3-1.3-6.8c-2.9-3.1-6.7-5.3-10.1-7.9
		c-2.1-1.5-4.2-3.1-6.2-4.6c0.2-0.4,0.4-0.8,0.6-1.3c1.9,0.7,3.7,1.6,5.6,2c11,2.2,22.1,4.6,33.2,6.1c5.7,0.8,6.7-1.3,3.5-6.3
		c-2.2-3.4-5.4-6.2-8.1-9.4c-1.5-1.8-3-3.7-4.4-5.5c0.3-0.4,0.6-0.7,1-1.1c1.2,0.6,2.4,1.3,3.6,1.9c8,4.1,16,8.1,24,12.2
		c0.9,0.4,1.9,0.9,2.8,0.9c1.7,0.1,3.5-0.2,5.2-0.3c-0.2-1.7,0-3.8-0.8-5.2c-2.1-3.6-3.4-6.8-1.6-11.2c0.6-1.6-1.5-4.4-2.6-6.5
		c-1.4-2.6-3-5-3.8-8.2c6.5,5,13,9.2,22.4,11.1c-4.1-12.4-11.2-22-17.3-31.9c-6.1-9.9-13-19.3-19.3-29.3c3,1.7,5.9,4.5,7.6-0.5
		c6.1,6.4,11.9,12.7,18,18.8c2,2,4.3,3.8,6.7,5.2c1.4,0.8,3.9,1.3,4.9,0.5c1.1-0.8,1.8-3.4,1.4-4.9c-1.2-4.8-2.9-9.5-4.5-14.2
		c-0.7-2-1.9-3.8-2.8-5.7c0.4-0.3,0.9-0.6,1.3-1c1.7,2.1,3.4,4.2,5.1,6.3c5.1,6.3,10.2,12.6,15.4,18.8c0.7,0.9,2.4,1.7,3.3,1.4
		c0.8-0.3,1.4-2,1.6-3.2c0.4-2.4,0.4-4.8,0.6-7.2c0.5-0.1,0.9-0.3,1.4-0.4c0.6,1.6,1.2,3.2,1.9,4.8c1.3,3.1,1.1,7.7,6.8,6.5
		c5.9-1.2,8.2-3.5,7.9-9.2c-0.1-2.1-0.5-4.2-0.7-6.2c0.6-0.2,1.1-0.4,1.7-0.7c1.6,3.7,3.2,7.3,5.2,12c1.4-2.4,2.3-3.9,4.1-6.8
		c0.9,3.5,1.3,5.9,2.2,8.2c0.6,1.5,1.9,2.8,2.9,4.2c0.9-1.4,2.3-2.8,2.6-4.3c1.9-9.8,3.5-19.6,5.3-29.4c0.1-0.6,0.1-1.7,0.5-1.8
		c4.9-2.1,0.9,95.2,38.5,6c-1.6,14.5-3.1,29-4.7,43.4c0.6,0.4,1.2,0.8,1.9,1.2c2.7-1.9,5.3-3.8,9-6.5c-0.5,3.4-1.1,5.7-1.2,8
		c-0.1,1,0.6,2.1,1,3.1c1.1-0.5,2.7-0.8,3.2-1.6c3.1-5.1,6-10.3,8.9-15.5c1.2-2.1,2-3.6,5.2-3.4c2.1,0.2,4.6-2,6.5-3.6
		c2-1.7,3.6-3.9,5.4-5.9c0.4,0.3,0.8,0.6,1.2,0.8c-0.2,0.8-0.1,1.9-0.6,2.5c-7.5,9.9-10.7,21.7-14.9,33c-0.3,0.9-0.6,2-0.6,2.9
		c0,1.7-0.2,4.5,0.6,4.9c1.7,0.8,4,0.5,6,0.3c1.7-0.2,3.2-1.1,5.9-2c-1.3,3.1-2.1,5.1-2.9,7c7.8-1.7,12.7-6.9,17-12.2
		c1.8,1.6,3.3,3.1,4.9,4.5c1.1-1.5,2.2-3.1,3.3-4.6c1.7,3.8,0.6,5.5-3.1,8.7c-8,6.7-15.8,13.7-23.2,21.1c-2.1,2.1-2.2,6.1-3.2,9.2
		c3.6,0.4,7.6,2,10.9,1.1c8.6-2.4,16.8-6,25.2-9c0.9-0.3,1.8-0.4,2.8-0.7c-0.4,7.9-0.4,7.9,10.9,6.3c-0.7,1.5-1,2.6-1.6,3.6
		c-2.6,4-1.8,6.4,3,6.6c5.2,0.2,10.5-0.7,15.8-1.3c2.9-0.3,5.7-0.9,8.5-1.4c0.1,0.5,0.3,1,0.4,1.4c-3,1.2-6.1,2.4-9.1,3.6
		c-6.3,2.6-12.5,5.1-18.7,7.8c-0.7,0.3-1,1.4-1.5,2.2c1.1,0.6,2.2,1.6,3.3,1.6c2.5,0.1,5-0.3,7.4-0.4c0.1,0.5,0.2,1,0.3,1.5
		c-4.5,2.1-9.1,4.1-13.6,6.2c0.2,0.6,0.3,1.2,0.5,1.8c15,4.3,30.6,4.5,46.2,4c0,0.5,0.1,1.1,0.1,1.6c-1.8,0.4-3.6,0.8-5.4,1.2
		c-12.5,2.7-24.9,5.4-37.4,8.3c-1.4,0.3-2.6,1.7-3.9,2.6c1.1,1.3,2.2,2.6,3.5,3.8c0.9,0.8,2.1,1.3,4.5,2.7
		c-5.6,1.3-9.7,2.1-13.7,3.2c-4.2,1.1-8.3,2.3-12.4,3.8c-1.1,0.4-1.9,1.8-2.8,2.7c1.1,0.9,2,2.3,3.3,2.6c2.5,0.6,5.1,0.5,7.7,0.7
		c0.1,0.5,0.2,1,0.2,1.5c-2.2,0.6-4.5,0.9-6.5,1.9c-1.9,0.9-3.5,2.5-5.2,3.7c1.6,1.2,3.1,3.2,4.8,3.6c7.3,1.6,14.7,2.8,22,4.1
		c1.7,0.3,3.5,0.5,5.2,0.8c0.1,0.5,0.1,1,0.2,1.4c-2.1,0.4-4.2,0.8-6.3,1.3c-5.8,1.4-11.7,2.5-17.4,4.3c-2.3,0.7-5.4,2.8-5.7,4.6
		c-0.3,1.8,2.2,4.8,4.2,6c13.6,8.6,27.4,16.9,41.1,25.3c0.9,0.6,1.9,1.1,2.8,1.7c-0.2,0.4-0.3,0.9-0.5,1.3
		c-3.4-1.1-6.8-2.3-10.2-3.4c-6-1.9-11.9-4.1-18.1-5.4c-6.1-1.3-6.6-0.4-5.3,5.9c-3.8-1.1-7.5-2.4-11.2-3.2
		c-1.6-0.3-3.4,0.3-5.2,0.4c0.4,1.8,0.2,4.1,1.2,5.4c2.6,3.4,5.7,6.4,8.5,9.7c1.4,1.6,2.7,3.4,3.4,5.8c-2.4-1.6-4.7-3.5-7.3-4.6
		c-3.8-1.7-7.8-2.7-11.7-4.2c-1.8-0.7-3.6-1.5-5.3-2.4c-3.6-2-5.9-0.9-5.8,3.2c0.1,2.6,0.9,5.2,1.4,7.8c0.4,1.7,0.9,3.4,1.4,5
		c-0.8,0.4-1.3,0.7-1.4,0.6c-5.8-3.8-11.8-7.5-17.4-11.6c-5-3.6-7.7-3-8.3,3.2c-0.5,4.9,0.2,9.9,0.4,14.8c0,1.2,0.3,2.3,0.4,3.5
		c-0.5,0.2-1,0.4-1.5,0.6c-1.1-1.8-2-3.8-3.3-5.5c-1.2-1.5-2.7-2.7-4.1-4c-1.2,1.2-2.4,2.5-3.8,4c-0.6-0.9-1.4-2-2.2-3.1
		c-0.6,0.2-1.3,0.3-1.5,0.6c-0.6,1.5-1.2,3.1-1.4,4.7c-1.6,16.5-4.9,32.9-4,50.1c-0.6-1.2-1.4-2.4-1.7-3.7
		c-1.9-7.6-3.5-15.2-5.8-22.7c-0.7-2.3-3.2-4.2-4.9-6.2c-1.5,2.3-3,4.5-4.4,6.8c-0.4,0.6-0.5,1.5-1.3,3.8c-1.5-3.5-2.4-5.6-3.9-9
		c-1.5,2.7-3,4.3-3.4,6.1C8.6,135.3,7.4,142.1,6,149c-0.2,1-1.3,1.8-1.9,2.7c-0.4-1-0.9-1.9-1-2.9c-2.5-13.7-5-27.4-7.7-41
		c-0.3-1.6-2.4-2.8-3.6-4.1c-1.1,1.3-2.3,2.6-3.3,4c-2.3,3.4-5.4,6.6-6.3,10.3c-1.8,6.9-2.2,14-3.2,21.1c-0.4,2.4-0.9,4.7-1.4,7
		c-0.5,0-1.1,0-1.6,0c-0.1-2.1-0.3-4.3-0.4-6.4c-0.8-11.7-1.4-23.5-2.3-35.2c-0.1-1.4-1.3-2.7-2-4.1c-1.2,1.2-2.7,2.2-3.7,3.5
		c-1,1.4-1.5,3.2-2.4,5.1c-1.4-0.6-2.5-1.1-4.6-1.9c-3.6,9.5-7.1,18.9-10.6,28.3c-0.5-0.2-1.1-0.3-1.6-0.5c1.7-7.8,3.3-15.6,5-23.4
		C-47.6,111.1-48.4,110.8-49.1,110.5z"/>
	
		<radialGradient id="SVGID_9_" cx="333.4526" cy="-46.1855" r="85.3949" gradientTransform="matrix(0.9306 -0.366 0.366 0.9306 -302.207 159.8979)" gradientUnits="userSpaceOnUse">
		<stop  offset="0" style="stop-color:#FFFFFF"/>
		<stop  offset="0.6649" style="stop-color:#FFDF43"/>
		<stop  offset="1" style="stop-color:#F69F43"/>
	</radialGradient>
	<path class="st13" d="M-8,87.1c-0.6-3-1-5.1-1.3-7.2c-0.4-3-0.5-6.2-1.2-9.1c-0.9-3.7-2.1-6.3-7.2-4c-2.3,1-6.8,0-8.9-1.8
		c-3.9-3.3-5.5-1-7.2,1.7c-4.3,6.6-8.4,13.3-12.7,20c-0.9,1.5-2.1,2.8-3.1,4.2c-0.6-0.2-1.2-0.5-1.7-0.7c0.4-2.4,0.8-4.9,1.4-7.3
		c1.7-6.7,3.7-13.3,5.4-20c0.9-3.5,0.2-5.6-4.3-4.9c-1.6,0.2-4.4-1-5-2.3c-1.9-4.7-4.4-3.1-7.2-1.3c-2.2,1.4-4.4,2.7-6.5,4.1
		c-0.5-0.4-0.9-0.7-1.4-1.1c1.2-2.4,2.4-4.9,3.6-7.3c2-4.2,4.4-8.2,5.8-12.5c1.7-5.1-0.7-7.7-6.2-7.2c-1.9,0.2-3.9,1.2-5.7,0.9
		c-1.8-0.4-3.4-1.8-4.8-3.1c-0.7-0.7-0.4-2.6-1.2-3.1c-3.9-2.7-3.2-5.2-0.7-8.6c3.2-4.2,1.9-7.1-3.4-8.3c-4.6-1-9.2-1.6-13.8-2.4
		c-0.1-0.7-0.2-1.4-0.3-2.1c3.7-1.1,7.4-2.3,11.1-3.4c4.1-1.2,7.7-2.8,7.6-8c0-0.4,0.1-0.9,0.3-1.1c4.7-3.8,3.3-7.7-0.5-11.6
		c0.3-0.5,0.6-1,0.9-1.5c6.5,1,13,2,20.4,3.2c-2.2-5.4-2-8.6,4.2-9.3c3.7-0.4,2.6-3.6,0.9-5.8c-2-2.5-4.2-4.8-6.3-7.2
		c0.2-0.5,0.4-0.9,0.7-1.4c2.3,0.4,4.7,0.5,6.8,1.4c4.7,2.1,7,0,6.8-4.3c-0.2-3.7-1.5-7.4-2.9-10.9c-1.3-3.3-2.5-5.7-0.3-9.5
		c1.5-2.5-0.6-6.9-0.5-10.5c0-2.4,0.9-4.8,1.4-7.2c2.1,1.3,4.7,2.1,6,3.9c4.4,6.1,4.2,6.1,10.4,2c0.9-0.6,3.5,0.3,4.7,1.3
		c5.4,4.6,12.2,3.2,14.8-3.4c1.5-3.7,2.8-7.4,4.4-11.6c2.2,1.4,3.6,3,5,3c7,0,6.5,4.4,5.6,9.1c-0.2,1.1-0.4,2.3-0.4,3.4
		c-0.1,4.8,1.2,5.8,5.2,3.3c2.9-1.7,4.9-2.2,6.3,1.4c1.2,3.2,3,2.3,5.4,1c4.4-2.4,9.1-4.3,13.7-6.4c0.4,0.4,0.8,0.9,1.2,1.3
		c-0.7,2-1.4,4.1-2.1,6.1c-2.3,6.1-5,12.1-6.9,18.3c-1.6,5.2,0.9,7.3,6.2,5.8c0.9-0.3,1.8-0.6,2.7-1c7.5-3.3,7.7-3.2,7.5,5.1
		c-0.1,4.9,2.9,5.2,6.6,4.5c8.1-1.7,8-1.7,6.1,5.9c-0.3,1.2,0.3,3.7,0.9,3.9c5.4,1.5,8.9,7.8,15.5,6.2c0.6-0.1,1.3,0.6,3,1.4
		c-1.9,1.7-3.1,3.2-4.7,4.2c-2.9,1.9-6.2,3.3-8.8,5.5c-6.4,5.1-7.3,10.5-3.4,16.7c4,6.4,3.6,11.2-2.7,16c-4.7,3.5-3.8,5.9,0,8.9
		c5.1,4.1,10.4,7.9,15.4,12.2c1.6,1.4,2.2,3.9,3.2,5.9c-2.5,0.8-5.2,2.6-7.5,2.1c-6.9-1.5-13.6-4-20.5-5.8c-7.9-2-8.5-1.2-12.5,5.7
		c-1.1,1.9-4.7,3.2-7.2,3.2c-10.1-0.1-11.1,0.5-11.1,10.3c0,3.4-1.5,5.6-4.6,5.2C1.7,69.9-4.5,73.8-5.6,84.7
		C-5.6,85.3-6.5,85.7-8,87.1z"/>
</g>
<g id="Frame2" class="st11">
	<radialGradient id="SVGID_10_" cx="-6.5312" cy="0.1328" r="84.0657" gradientUnits="userSpaceOnUse">
		<stop  offset="0" style="stop-color:#F3903F"/>
		<stop  offset="0.4998" style="stop-color:#ED683C"/>
		<stop  offset="1" style="stop-color:#B8392A"/>
	</radialGradient>
	<path class="st7" d="M66.1,33.8c-2.6-2-5.6-3.6-8-5.9c-2.3-2.3-6.8-4.6-1.7-8.6c0.3-0.2,0.4-1,0.2-1.4c-1.8-5,2-5,5-5.7
		c1.3-0.3,2.6-0.5,3.9-0.8c-1.1-1.8-2.3-2.1-3.3-2.8c-2.1-1.7-5.2-3.2-6-5.4c-1.7-4.9,1.4-10.4,6-13.6c1.6-1.1,2.7-2.8,4.1-4.3
		c-0.4-0.4-0.8-0.8-1.1-1.1c-2.1,0.8-4.2,2-6.4,2.4c-1.9,0.4-4-0.1-6.1-0.2c1-1.7,2-3.3,3-5c0.3-0.5,0.6-1,1-1.7
		c-3.9-0.5-7.5-1-11.1-1.5c0.8-3.3,1.7-6.7,2.5-10.2c-3.4-0.2-5.2-2.8-2.9-6.2c3.3-4.9,7.4-9.2,11.2-13.7c1.3-1.5,2.6-3.1,3.9-4.6
		c-3.2,0.2-5.5,1.3-7.9,1.6c-1.2,0.2-2.9-0.5-3.8-1.4c-0.5-0.5,0.2-2.4,0.8-3.4c1.1-1.9,2.5-3.6,3.8-5.4c-2.1-0.2-3.6,0.4-5,1.2
		c-4.2,2.3-8.6,4.4-12.4,7.2c-3.4,2.5-4.9,1.2-5.9-2c-3.5,2.5-7.3,5.6-10.5,2.2c-3.1-3.2,0.1-7.1,2.1-10.3c0.4-0.7,1.2-1.2,1.5-2
		c0.4-1.2,0.5-2.6,0.8-3.9c-3.5,2.3-6,4.8-8.6,7.4c-2.9,3-5.9,5.1-9.4,0.3c-1,1-1.6,1.7-2.4,2.3c-1.6,1-3.3,1.9-4.9,2.9
		c-0.8-1.7-2.2-3.4-2.3-5.2c-0.2-5.6,0-11.3,0.1-16.9c0-2.6,0-5.3,0-7.9c-0.6,0-1.2-0.1-1.9-0.1c-0.6,3.7-0.9,7.4-1.8,10.9
		c-0.6,2.3-2,4.5-3.1,6.7c-0.9-2.1-1.7-4.3-2.6-6.4c-0.1-0.1-0.2-0.2-1.6-1.3c-0.2,2.8-0.4,4.8-0.5,6.8c-0.2,4,0,8-0.5,12
		c-0.4,3.7-1.4,7.4-5.7,7.2c-1.3,2.3-2.3,4-3.3,5.8c-1.6-1.5-3.7-2.8-4.7-4.6c-2-3.8-3.4-7.9-5.1-11.9c-0.5-1.3-1.2-2.5-1.8-3.7
		c-0.6,0.2-1.3,0.3-2,0.5c0.7,3,1.7,6,1.9,9.1c0.2,3-0.4,6-0.8,9c-0.2,1.7-0.9,3.3-1.3,5c-0.5,2.6-1,5.2-1.5,7.9
		c-2.6-0.7-5.2-1.3-7.8-2c-1.6-0.5-3.2-1.2-4.8-1.8c-0.3,0.3-0.6,0.6-0.9,0.9c3,3.5,3.6,6.6-0.6,8.1c0.3,2.5,1.3,5.5,0.5,6.2
		c-1.7,1.4-4.4,1.7-6.7,2c-2.3,0.2-5.4-1.3-6.7-0.2c-4.2,3.3-8.7,2.7-13.3,2.9c-1.3,0.1-2.6,0.7-3.9,1c0,0.6,0,1.1,0,1.7
		c3.3,0.4,6.8,0.4,9.9,1.5c3.6,1.3,6.8,3.6,10.2,5.5C-66-9.2-67.8-7.1-69.7-5c-0.2,0.2-0.1,0.6,0,0.2c3.2,1.5,6.2,2.8,9,4.3
		c3.7,2,3.9,4.4,0.5,6.9c-2,1.5-4.3,2.6-7.1,4.2c1.2,0.6,1.8,0.9,2.3,1.1c5.1,1.3,5.8,2.8,2.2,6.4c-3,3-6.7,5.4-10,8.1
		c-1.8,1.4-3.6,2.8-5.9,4.6c9.6-2.1,18-4.3,26.6-5.8c5.4-0.9,7,1.2,6.2,6.6c-0.3,2.3-0.9,4.7-1.4,7c6.6,0.8,7.4,1.7,6.4,7.6
		c-0.7,4.4-13.7,33.8-14.8,38.2c-0.3,1.1-0.4,2.3-0.7,4c3-1.8,6.5-13.4,12.3-10.1c5.2,0.8-1.3,9.6-1,11.8
		c28.6-33.3,30.3-22.5,41.6-20.6c0.5-3.1,1.9-5,5.5-4.9c2.8,0.1,5.5,0,8.3,0c0.4-3,0.6-5.9,1.1-8.7c0.5-2.9,1.4-5.7,2-8.6
		c0.8-4.5,2.7-5.2,6.5-2.7c1.4,0.9,4.2,1.9,4.8,1.3c2.8-2.7,4.9-1.3,6.9,0.6c2.9,2.7,5.7,5.6,8.6,8.4c0.5-0.3,0.9-0.5,1.4-0.8
		c-0.9-2.7-1.9-5.4-2.7-8.1c-1.8-5.5-1.3-6.3,4.3-7.8c0.9-0.3,2.1-0.6,2.6-1.3c2.1-2.7,4.3-1.8,7.1-1.2c5.5,1.1,11.1,1.5,18.1,2.3
		C68.9,36.2,67.6,34.9,66.1,33.8z"/>
	
		<radialGradient id="SVGID_11_" cx="580.2227" cy="1377.2412" r="29.7527" gradientTransform="matrix(-0.6859 -0.8654 0.9094 -0.7208 -855.2554 1493.0039)" gradientUnits="userSpaceOnUse">
		<stop  offset="0" style="stop-color:#FFFFFF"/>
		<stop  offset="0.6649" style="stop-color:#FFDF43"/>
		<stop  offset="1" style="stop-color:#F69F43"/>
	</radialGradient>
	<path class="st8" d="M-19.1,31c2.2-16.3,2.2-16.3-2.3-18.3c-1.9-4.2-3.2-7.2-4.5-10.3c-0.5-1.3-1.4-2.7-1.2-3.9
		c1.5-8.1,3.3-16.2,5.2-25.4c7.5-0.6,17.8,10.6,23.2-6.6c7.3,11.9,15.2,18.2,27,12.4c1,9.4,1.5,18.3,2.9,27.1c0.7,4,0.3,5.8-3.9,7.2
		c-2.5,0.9-4.7,3.4-6.5,5.6c-1.5,1.9-1.9,5.9-3.3,6.2C13.3,26,7.1,27.4,4.6,25.3c-6-5.2-10.5-1.7-15.6,1C-13.3,27.6-15.6,29-19.1,31
		z"/>
</g>
<g id="Frame1" class="st11">
	<radialGradient id="SVGID_12_" cx="0" cy="2" r="49.6217" gradientUnits="userSpaceOnUse">
		<stop  offset="0" style="stop-color:#F3903F"/>
		<stop  offset="0.4998" style="stop-color:#ED683C"/>
		<stop  offset="1" style="stop-color:#B8392A"/>
	</radialGradient>
	<path class="st9" d="M-39.6,9.1c2.3-0.3,4.8-0.4,7-1.1c1.1-0.4,2-1.8,2.9-2.8c-1-1-1.9-2.5-3.2-2.9c-2.5-0.8-5.1-1-8.6-1.6
		c3.7-4.8,9-1.2,12.8-3.8c-0.6-1.5-1.2-3-1.7-4.5c0.3-0.4,0.5-0.8,0.7-0.9c2.2-1.3,4.4-2.6,6.5-3.9c-1.7-2.3-3.3-4.7-5.1-6.9
		c-1.6-2-3.6-3.7-5.6-5.7c6.1,1,11.7,3.4,16.4,2.2c4.5-1.2,9.2-5.3,6.7-13.4c3.4,2.7,5.4,4.1,7.2,5.7c3.9,3.4,6.4,1.9,8.7-2
		c4.3-7.2,11.4-12.7,12.1-22.1c0.6,0.2,1.3,0.4,1.9,0.7c-0.6,4.2-1.4,8.4-1.8,12.6c-0.4,3.6-0.8,7.3-0.8,10.9c0,1.5,0.7,3.3,1.7,4.2
		c0.5,0.4,2.8-0.5,3.8-1.4c2.9-2.8,5.6-5.9,9-9.5c0.8,6.8-7.6,10.7-3.8,17.5c1.6-0.5,3.1-1,4.9-1.5c-0.2,1.5-0.4,2.7-0.7,4.7
		c3.3-0.5,6.1-0.8,8.9-1.2c0.2,0.5,0.5,1.1,0.7,1.6c-2.4,1.1-4.7,2.4-7.2,3.2c-3.8,1.3-5.1,3-1.7,6.2c-6.2,4-6.2,4.9,0.2,8.8
		c3,1.8,6.1,3.3,9.2,4.9c-0.2,0.5-0.3,1-0.5,1.6c-1.5-0.1-3.1-0.1-4.6-0.3C30,7.8,21.1,13.1,19,18.9c-0.3,0.9-0.9,2.2-0.6,2.8
		c2,3.8,0.4,6.7-2.9,9.8c-2.2-2.2-4.5-4.7-6.9-7c-2.3-2.3-4.1-2.2-5.1,1.1c-1,3.3-1.9,6.7-2.9,10c-1.1,3.5-2.9,5.9-7.4,4.5
		c4.7-3.7,5.5-7.1,2.1-12.5c-6.6,10.7-12.8,20.8-19,30.9c-0.3-0.2-0.6-0.3-0.9-0.5c1.9-6.4,3.5-12.9,5.8-19.2
		c1.2-3.3,1.1-6.3-1.6-7.9c-1.4-0.8-4.3,0.9-6.4,1.7c-1.3,0.5-2.4,1.4-3.6,2.1c-0.3-0.3-0.6-0.6-1-0.9c3.9-5.6,7.9-11.1,12.5-17.7
		c-3.4,0.1-5.3,0.1-8,0.2c2-1.9,3.4-3.3,5.7-5.6c-7,0-12.8,0.1-18.6,0.1C-39.7,10.4-39.7,9.8-39.6,9.1z"/>
	<radialGradient id="SVGID_13_" cx="0.1689" cy="-1.0576" r="19.7674" gradientUnits="userSpaceOnUse">
		<stop  offset="0" style="stop-color:#FFFFFF"/>
		<stop  offset="0.6649" style="stop-color:#FFDF43"/>
		<stop  offset="1" style="stop-color:#F69F43"/>
	</radialGradient>
	<path class="st10" d="M19.6,3.1c-1.5,2-3.4,4.7-5.3,7.3c-0.4,0.6-1.5,0.9-1.7,1.5c-1.9,5.7-8.5,5.3-13.5,6.9
		c-3.4,1.1-5.6-0.6-7.6-2.6c-2.4-2.4-5.2-4.5-7.7-6.8c-0.8-0.8-1.4-1.8-1.6-2.8c-0.6-2.8-0.9-5.6-1.3-8.4c-0.1-0.8-0.2-2,0.3-2.3
		c5.2-3.6,4.8-9,6.9-13.7c1.9-4.3,1.9-3.9,6.6-1.7C-1-17.5,4.3-16.7,8.9-15c2.6,1,5.9,2.5,6.9,4.5C17.6-6.6,18.1-2.4,19.6,3.1z"/>
</g>
</svg>
