<?xml version="1.0" encoding="utf-8"?>
<!-- Generator: Adobe Illustrator 16.0.4, SVG Export Plug-In . SVG Version: 6.00 Build 0)  -->
<!DOCTYPE svg PUBLIC "-//W3C//DTD SVG 1.1//EN" "http://www.w3.org/Graphics/SVG/1.1/DTD/svg11.dtd">
<svg version="1.1" id="Layer_1" xmlns="http://www.w3.org/2000/svg" xmlns:xlink="http://www.w3.org/1999/xlink" x="0px" y="0px"
	 width="841.9px" height="595.301px" viewBox="0 0 841.9 595.301" style="enable-background:new 0 0 841.9 595.301;"
	 xml:space="preserve">
<g id="Frame4">
	
		<radialGradient id="SVGID_1_" cx="1.2957" cy="597.905" r="172.5325" gradientTransform="matrix(1 0 0 -1 -0.0552 595.1597)" gradientUnits="userSpaceOnUse">
		<stop  offset="0.1569" style="stop-color:#FFDF43"/>
		<stop  offset="0.6487" style="stop-color:#ED683C"/>
		<stop  offset="1" style="stop-color:#B72F2B"/>
	</radialGradient>
	<path style="fill:url(#SVGID_1_);" d="M-70.1-105.4c1.8,3,2.7,5.6-1.3,7.3C-69.5-94.7-67.8-91.7-66.1-88.7
		c-0.5,0.4-0.9,0.9-1.4,1.301c-4.2-3-8.3-5.9-12.5-8.9c-0.399,0.4-0.7,0.9-1.1,1.3c1.1,1.5,2.3,3,3.399,4.601
		c2.5,3.5,5,7,7.301,10.699c1.899,3.2,2.6,6.5-1.9,9.101c2.3,2.5,4.2,4.8,6.3,6.8c8.101,7.9,17.601,13.7,28,18
		c5.4,2.2,7.101,1,6.4-4.9c-0.4-2.899-1.7-5.699-2.3-8.6c-0.301-1.4,0.3-2.9,0.5-4.3C-31.8-63.1-30-62.9-28.7-62
		c1.601,1.101,2.5,3.2,4.2,4.2c2,1.2,4.4,1.6,6.7,2.3c0.7-2.1,2.1-4.3,1.9-6.3c-0.9-9.9-2.2-19.8-3.301-29.7
		c-0.199-1.8-0.3-3.5-0.5-5.3c0.301,0,0.601-0.1,1-0.1c3.601,7.1,7.2,14.3,11,21.6c2.101-1.4,3.301-2.2,4.2-2.8
		C-1.6-75.7,0.1-73.7,1.8-71.7C2.4-71.9,3-72,3.5-72.2C8.9-87.8,8-104.3,9.9-120.4c1.399,4.699,2.2,9.6,3.7,14.199
		c1.8,5.4,3.1,5.5,6.6,1c1.2,0.7,2.4,1.4,4.7,2.801c4.399-16.4,6.5-32.601,9.5-49.7c-2.7,1.6-4.101,2.5-5.8,3.5
		c-2.4-8.4,4.3-16.601-0.9-24.3C27.3-172,27.5-171,27.4-170.2c-0.8,4-0.601,9.101-3.101,11.601c-2.6,2.7-4.899,5.2-6.899,8.399
		c-1.601,2.4-3.601,1.601-4.2-1c-0.9-3.5-1.8-7.199-2-10.8c-0.6-13.1-0.8-26.2-1.1-39.3c-1,0-2,0-3,0C5.7-196.1,4.5-191,3-186
		c-0.3,1.101-2,1.7-3.1,2.601c-0.8-1.2-1.601-2.4-2.3-3.7c-0.301-0.601-0.4-1.3-0.5-2c-1.5,1.8-1.801,3.6-2.301,5.399
		c-2.1,7.7-4.3,15.301-6.6,23c-0.2,0.801-1.2,1.601-2,2c-0.4,0.2-1.5-0.5-1.9-1.1c-2.199-3.4-4.199-6.9-6.699-10.9
		c-1.4,3.601-2.601,6.4-3.7,9.2c-0.8-0.1-1.601-0.1-2.4-0.2c-1.5-6.1-3-12.1-4.5-18.199c-0.399,0-0.899,0-1.3,0
		c-0.3,12.1-0.7,24.1-1,36.199c-0.6,0.2-1.3,0.301-1.9,0.5c-2.699-3.5-5.3-6.899-8-10.399c-0.3,0.2-0.699,0.3-1,0.5
		c0.4,4.7,0.801,9.399,1.2,14.1c-0.7,0.301-1.5,0.5-2.2,0.801c-10.399-12-17.1-26.4-25.899-39.7c6.899,17.3,12.7,34.8,17.1,52.8
		c-0.5,0.4-1,0.7-1.5,1.1c-3.2-2.199-6.5-4.3-10.399-7c0.199,1.601,0.3,2.2,0.3,2.801c-0.101,1.899-0.2,3.899-0.3,5.8
		c-1.9-0.7-4.301-0.8-5.5-2.101c-4.4-4.699-8.4-9.8-12.601-14.699c-1.399-1.601-3-2.9-4.5-4.4c-0.399,0.4-0.8,0.7-1.2,1.1
		c1.2,2.101,2.4,4.101,3.601,6.2C-82.2-126-76.2-115.6-70.1-105.4z"/>
	
		<radialGradient id="SVGID_2_" cx="1.2961" cy="597.9041" r="172.536" gradientTransform="matrix(1 0 0 -1 -0.0552 595.1597)" gradientUnits="userSpaceOnUse">
		<stop  offset="0.1569" style="stop-color:#FFDF43"/>
		<stop  offset="0.6487" style="stop-color:#ED683C"/>
		<stop  offset="1" style="stop-color:#B72F2B"/>
	</radialGradient>
	<path style="fill:url(#SVGID_2_);" d="M11.1,103.6c-2.101-0.101-4.2-1.9-6.2-3C3,99.6,0.6,97.3-0.7,97.8
		C-2.6,98.6-3.8,101.2-5,103.2c-0.899,1.5-1.2,3.4-1.7,5.1C-7.1,108.2-7.6,108.2-8,108.1C-8.4,106.4-8.5,104.5-9.3,103
		c-1-1.8-2.5-4-4.2-4.5c-1.2-0.399-3.399,1.5-4.7,2.9c-1.5,1.6-2.3,3.7-3.399,5.6C-22,101.6-21.5,96.6-21.5,91.5
		c0-6.2-0.899-6.8-7-6.3c0-2.5,0.2-4.9-0.1-7.3c-0.3-2.5-0.601-5.101-1.7-7.2c-0.9-1.7-2.8-3.7-4.4-3.9c-1.199-0.199-3.1,2-4.3,3.5
		s-1.899,3.5-3.2,6.2C-44,67-44,67-49.7,71.1C-54.6,65.3-57,65.3-60.7,72.4C-65.6,82-69.8,92-74.2,101.9
		c-0.199,0.6,0.101,1.399,0.4,3.5c2.3-2.8,3.9-4.601,5.4-6.5c1.5-1.8,3-3.601,5.199-6.3c0.7,3.6,1.2,5.899,1.801,9.3
		c1.6-2.8,2.5-4.3,3.699-6.2c3,5.9,1.801,22.9,1.601,34.2c-0.101,2.2-0.3,4.3-0.4,6.5c-0.2,3.8-2,7,1.2,11.5
		c3.9,5.3,6.7-10.5,13.2-8.4c1.3,0.4,3.2,23.2,3.2,24.601c-0.101,4.699-0.7,9.399-1.2,14c0.899,0,7.6-45.301,14-29.301
		c2-1.3,4.1-15,5.3-14.199c2.4,1.5,12.3,33.1,14,27.8c0.5-1.7,3.6-26.3,4.7-27.8C4.6,127.2,7,161.7,8.1,163.3
		C8.8,161.6,11.5,144.5,10.3,143.1c-2.399-3.101,0-6.7,1-6.7c10.301-0.2,16.9,19.5,22.9,11.1c1.2,1.2,2.1,2.301,3.1,3.301
		c0.4-0.101,0.9-0.2,1.301-0.301c0-5.899,0-11.8,0-17.699C38.8,116.3,27.7,104.8,11.1,103.6z"/>
	
		<radialGradient id="SVGID_3_" cx="1.2942" cy="597.9021" r="172.5352" gradientTransform="matrix(1 0 0 -1 -0.0552 595.1597)" gradientUnits="userSpaceOnUse">
		<stop  offset="0.1569" style="stop-color:#FFDF43"/>
		<stop  offset="0.6487" style="stop-color:#ED683C"/>
		<stop  offset="1" style="stop-color:#B72F2B"/>
	</radialGradient>
	<path style="fill:url(#SVGID_3_);" d="M144.2-1.3c0.2-0.5,0.3-0.9,0.5-1.4c2.7-0.3,5.4-0.699,8.1-1c-1.3-1.8-2.699-2.3-3.8-3
		c-1-0.699-1.8-1.699-2.6-2.5c1-0.699,2-1.8,3.1-2c4.101-0.6,8.2-0.899,12.4-1.1c2.7-0.2,5.3,0,8,0c-2.3-3.6-9-1.6-7-7.7
		c-5-1.1-9.601-2.1-14.2-3.1c0-0.7,0-1.3,0-2c15.3-5.7,30.6-11.5,47.2-13.9c-1.9-0.899-3.7-1.2-5.5-1.3c-6.8-0.3-13.601-0.5-20.4-1
		c-1.3-0.1-2.6-1-4-1.5c0.7-1.2,1.3-2.4,2-3.6c0.3-0.5,0.8-1,1.2-1.5c-0.1-0.5-0.2-1-0.2-1.5c-7.5,0.699-14.899,1.399-20.7,2
		c-2.3-2.801-3.699-4.5-5.5-6.7C151.2-60.7,163.1-59.8,171.9-66.2c-1.9-0.3-3.601,0-5.3,0.301C157.8-64.2,149-62.2,140.2-61
		c-7,1-7,0.601-4-5.899c0.1-0.2-0.1-0.601-0.2-1c-2.1,0.399-4.3,0.8-7.399,1.399c0.899-3.2,1.5-5.399,2.399-8.2
		c-1.5,0.5-2.2,0.801-3,0.9c-1.5,0.2-3.1,0.2-4.6,0.3c0.2-1.6-0.101-3.399,0.7-4.6c2.5-3.9,5.199-7.7,8.3-11.1
		c2-2.101,4.8-3.5,7.3-5.101c-0.7-0.8-1.3-1.5-2-2.3C126-91,115.9-82,101.8-77.699c1.7-5.601,3.101-9.801,4.4-14
		c-0.5-0.2-1-0.4-1.5-0.601c-5.9,7.5-11.8,15-17.6,22.7C85.3-67.199,84-64.4,83-61.699c-0.5,1.3-0.399,3.699,0.4,4.5
		C84.3-56.3,86.5-56.4,88-56.8c2.101-0.5,4-1.8,5.3-2.399c0.301,2.399,0,5.5,1,6.1c1.9,1.1,4.601,0.7,8,0.9
		c-2.199,2.1-3.899,3.3-5.1,5c-1.1,1.5-2.7,3.699-2.2,4.899c0.5,1.4,3,2.5,4.7,2.8c3.7,0.7,7.5,0.7,12.2,1.101
		c-3,4.399,0.899,4.899,3.6,6.6c-9.7,2.601-18.899,5-28.3,7.5c1.1,2.7,1.6,4,2.2,5.4c-4.101,1-8,1.7-11.7,3
		c-1.3,0.5-2.2,2.2-3.3,3.3c1.1,1.1,2.2,2.2,3.399,3.1C78.8-8.8,80-8.4,81.1-7.9C81-7.5,81-7,80.9-6.6c-2.601,0-5.2-0.4-7.7,0.1
		c-3.4,0.7-8.6,0.2-8.7,4.801c0,2.5,3.601,5.6,6.2,7.5c3.2,2.399,7.2,3.899,9.7,5.3c0,3.1-0.8,5.7,0.2,7.3c2.5,4.3,0.3,7.6-2.4,9.8
		c-3.2,2.601-2.3,4.601-0.1,6.5c2.8,2.5,5.8,5,9.199,6.9c17,9.399,34.101,18.7,51.2,27.899c0.601,0.301,1.4,0,3.8,0
		c-3.899-3.699-6.899-6.3-9.5-9.199c-0.8-0.9-0.699-2.7-1.1-4.101c1.4,0,2.9-0.5,4.1,0c3,1.4,5.801,3.2,8.801,4.7
		c2.199,1.2,4.399,2.2,6.6,3.3c0.3-0.5,0.5-0.899,0.8-1.399c-1.7-1.4-3.5-2.801-5.2-4.2c-5-4.101-10.1-8.101-14.8-12.5
		c-1.2-1.101-1-3.5-1.5-5.3c1.7-0.4,3.5-1.2,5.101-0.9c2.6,0.5,5.1,2.5,7.5,2.4c9.899-0.4,18.199,4.8,27.3,7.3
		c1,0.3,2.1,0.3,3.2,0.5c0.1-0.4,0.199-0.8,0.3-1.2c-1.5-0.9-3.2-1.6-4.601-2.7c-0.8-0.7-1.1-2-1.699-3.1
		c1.199-0.4,2.399-1.3,3.5-1.2c1.6,0.1,3.1,1,4.699,1.5c0.2-0.4,0.4-0.8,0.601-1.2c-5-3.6-10.101-7.1-15.601-11.1
		c1.801-0.8,3.101-1.4,4.7-2.101c-2.6-2-4.899-3.6-7.1-5.3c-0.601-0.5-1.3-1.8-1.101-2.5c0.2-0.7,1.5-1.5,2.2-1.5
		c7.9,0.8,15.8,1.8,23.7,2.7c2,0.2,4,0.3,6,0.5c-0.1-0.3-0.1-0.6-0.2-0.9C173.8,14.1,159,6.4,144.2-1.3z"/>
	
		<radialGradient id="SVGID_4_" cx="1.2961" cy="597.9001" r="172.5328" gradientTransform="matrix(1 0 0 -1 -0.0552 595.1597)" gradientUnits="userSpaceOnUse">
		<stop  offset="0.1569" style="stop-color:#FFDF43"/>
		<stop  offset="0.6487" style="stop-color:#ED683C"/>
		<stop  offset="1" style="stop-color:#B72F2B"/>
	</radialGradient>
	<path style="fill:url(#SVGID_4_);" d="M110.3,73.1C108,71,105.3,67,100.9,70.8c-0.4,0.4-2.3-0.5-3.3-1.199
		C95.8,68.4,94.3,66.8,92.5,65.7c-1.1-0.7-2.6-0.8-4-1.1c-0.3,1.699-1.3,3.5-0.899,5C88.5,72.7,90.1,75.5,91.5,78.5
		c-2.1-0.8-3.3-2.2-4.7-3.5c-3.5-3.5-7-7.1-10.8-10.3c-1-0.9-3.2-1.2-4.399-0.8c-0.9,0.399-1.7,2.399-1.7,3.7
		c0,3.1,0.3,6.3,0.899,9.399c1,4.9,2.301,9.8,3.601,14.9c-7.9-3.8-7.9-3.8-11,1.7c-0.9-0.9-1.3-1.801-2-2.101
		c-2.4-1-5.101-2.6-7.3-2.2C52.7,89.5,51,92.9,50.9,95c-0.2,4.101-6.4,7.101-6.3,11.2c0.1,1.7,5.8,7.8,5.899,6.3
		C51,99.1,64.1,99.1,65.1,119.7c2.5-1.6,4.1-1.9,5,1.7c0.5,2,2,3.8,3.1,5.7c0.5-0.2,0.9-0.5,1.4-0.7c-0.2-2.7-0.5-5.3-0.801-9.101
		c2.801,1.301,5.101,1.801,6.5,3.2C84,124,87,124,90.1,119.9c0.6-0.8-1.4-15.5-1.2-15.2c3.399,4.7,14.6,7.2,14.1,27.4
		c0.5-7,3.2-24.301,14.8-11.2c0-8.3,0-15.3,0-22.601c2,1,4,2.101,6.7,3.4c-0.7-2.9-1.1-4.7-1.899-7.8c5.899,3.3,10.6,6,15.199,8.6
		c0.601-1.899,0.5-2.8,0-3.3C128.7,90.4,119.7,81.5,110.3,73.1z"/>
	
		<radialGradient id="SVGID_5_" cx="1.2957" cy="597.9021" r="172.533" gradientTransform="matrix(1 0 0 -1 -0.0552 595.1597)" gradientUnits="userSpaceOnUse">
		<stop  offset="0.1569" style="stop-color:#FFDF43"/>
		<stop  offset="0.6487" style="stop-color:#ED683C"/>
		<stop  offset="1" style="stop-color:#B72F2B"/>
	</radialGradient>
	<path style="fill:url(#SVGID_5_);" d="M-65.9-8.2C-66.7-10.1-68.1-12-69.7-13.4c-2.5-2.2-5.3-4-8.3-6.2
		c7.101-2.601,8.101-4.7,5-10.9c-1.5-3-4.2-5.399-6.5-8c-1.1-1.3-2.399-2.3-3.5-3.3c2.601-0.8,5.9-0.9,6.3-2.1
		c0.601-1.7-0.3-4.601-1.6-6.2c-5.2-6.4-10.7-12.7-16.3-18.8C-98.1-72.7-102.2-76-106-79.5c-0.399,0.2-0.7,0.5-1.1,0.7
		c0.2,2.1,0.399,4.2,0.7,6.3c-0.4,0.3-0.801,0.7-1.101,1c-3.7-3.1-7.5-6.1-11.2-9.2c-0.3,0.2-0.699,0.4-1,0.7
		c1.2,3.4,2.301,6.7,3.5,10.101c-0.6,0.399-1.3,0.8-1.899,1.199C-128-76.9-137.8-85.1-148.2-93.6c0.9,2.7,1.601,4.7,2.5,7.3
		c-2.3,0-3.699,0-5.699,0c0.699,1.1,1.1,1.6,1.3,2.2c0.6,1.6,1,3.3,1.5,4.899c-1.5,0-3.2,0.5-4.601,0
		c-5.8-2.1-11.399-4.5-17.1-6.699c-1.4-0.5-3-0.601-4.5-0.9c0.5,1.8,1.2,2.3,2,2.9c11.5,7.5,23.1,15,34.6,22.6
		c3.601,2.4,6.9,5.2,10.2,8c2.101,1.8,2.3,4.5-0.7,4.7c-3.199,0.3-5,1.399-6.699,3.899c-0.5,0.801-2.801,1-4,0.601
		c-3-1-5.801-2.4-8.7-3.7c-1.5-0.6-3-1.3-4.4-1.9c1.3,4.301,3.2,7.7,5,11.101c0.601,1.1,1.5,2.6,1.101,3.399c-0.4,0.9-2,1.7-3.2,1.9
		c-2.2,0.3-4.4,0.1-6.7,0.1c-0.1,0.601-0.3,1.301-0.4,1.9c6.101,2.4,12.4,4.6,17.2,12c-7.2,0.6-13.1,1-20.3,1.6
		c3.3,2.2,5.3,3.601,7.4,5c-0.101,0.7-0.2,1.301-0.301,2c-7.199,0-14.399,0-21.6,0c0,0.7,0,1.4,0,2.101c1.9,0.3,3.7,0.399,5.6,0.8
		c10.301,2,20.601,3.9,30.801,6.1c1.5,0.301,2.699,2.4,4,3.601c-1.5,0.7-3,1.5-4.5,2.1c-1.301,0.5-2.7,0.7-4.101,1
		c0.101,0.7,0.2,1.5,0.4,2.2c14.1-1.5,28.5,2.4,43.2-3.5c-2-2.5-3.301-4-4.4-5.4c1.6-0.8,4-1.3,4.4-2.399c1.199-3.4,3-1.9,5.1-1.601
		C-86-4.5-77.9-3-69.6-2.3C-65.6-1.9-64.2-4.4-65.9-8.2z"/>
	
		<radialGradient id="SVGID_6_" cx="1.2952" cy="597.905" r="172.533" gradientTransform="matrix(1 0 0 -1 -0.0552 595.1597)" gradientUnits="userSpaceOnUse">
		<stop  offset="0.1569" style="stop-color:#FFDF43"/>
		<stop  offset="0.6487" style="stop-color:#ED683C"/>
		<stop  offset="1" style="stop-color:#B72F2B"/>
	</radialGradient>
	<path style="fill:url(#SVGID_6_);" d="M52.4-105.9c-0.601,2.1-1.5,4.1-1.601,6.1c-0.1,2.1,0.7,4.3,1.101,6.4
		c1.899-0.7,4-1.2,5.7-2.301c2.699-1.8,5.1-4.1,7.6-6.1c0.3,0.3,0.6,0.7,0.9,1c-1.2,1.6-2.4,3.1-3.5,4.7
		C59.1-90.7,55.5-85.3,52.4-79.7C51.3-77.6,51.6-74.8,51.3-72.3C53.9-73,56.8-73,58.9-74.4c4-2.601,7.399-5.9,11.2-9
		C72.5-78,72.7-77.9,76.8-81.8c1.601-1.5,3.2-2.9,4.601-4.5c14.5-17.1,29-34.3,43.5-51.4c0.7-0.8,1-2,1.5-3.1
		c-3.7,1.5-6.3,4.1-9.3,5.9c-2,1.199-4.7,1.199-7.101,1.8c0.7-2.2,1.3-4.5,2.2-6.601c0.4-1,1.6-1.699,2.2-2.699
		c0.399-0.801,0.5-1.801,0.7-2.801c-0.301-0.1-0.601-0.3-0.9-0.399c-3,2.7-6,5.399-9.3,8.399c-0.9-1.8-1.601-3.3-2.2-4.8
		c0,0.9,0,1.8,0,2.601c-3.3,2.5-6.5,5.199-9.9,7.6c-1.199,0.8-2.8,1-4.3,1.5c0-1.5-0.5-3.2,0.2-4.4c5.3-10,10.8-19.8,16.2-29.699
		c0.5-0.801,0.8-1.801,1.2-2.601c-5.7,4.9-10.601,10.3-15.601,15.5c-5.1,5.2-10.399,10.3-15.7,15.4c-0.5-0.3-1-0.601-1.5-0.9
		c0.301-1.899,0.5-3.899,0.801-5.8c-0.4-0.2-0.7-0.5-1.101-0.7c-1,1.2-1.899,2.5-3,3.5c-1.899,1.7-3.899,3.101-5.899,4.7
		c0-2.6-0.301-5.2,0.199-7.7c0.5-2.7,1.801-5.2,2.7-7.7c-0.7-0.3-1.399-0.6-2.1-0.8c-1.7,3.4-3.5,6.8-5.2,10.2
		c-4.4,8.4-8.9,16.7-13,25.3C43.6-109.8,45.6-106.7,52.4-105.9z"/>
	
		<radialGradient id="SVGID_7_" cx="1.2961" cy="597.9021" r="172.5353" gradientTransform="matrix(1 0 0 -1 -0.0552 595.1597)" gradientUnits="userSpaceOnUse">
		<stop  offset="0.1569" style="stop-color:#FFDF43"/>
		<stop  offset="0.6487" style="stop-color:#ED683C"/>
		<stop  offset="1" style="stop-color:#B72F2B"/>
	</radialGradient>
	<path style="fill:url(#SVGID_7_);" d="M-100,65.6c-0.1-0.101-3.6-1.4-4.5-1.601c0.101-1.5,3.5-1.6,2.2-5c-1.3-3.399-4.4-3.2-12.1,1
		c-0.9,0.5-2,0.9-3,1.4c0.699-0.601,1.399-1.101,2-1.7c3.8-3.6,1.6-12-1.7-14c0.899-0.6,1.7-1.3,2.6-2c1.601-1.4,2.601-3.6,3.9-5.4
		c-1.9-0.6-3.8-1.199-5.7-1.899c-0.3-0.101-0.4-0.4-0.9-0.9c0.5-0.7,1.101-1.5,1.4-2.399c0.5-1.2,1.3-3.301,1-3.5
		c-1.6-1-3.7-2.4-5.4-2.101c-13,2.5-26,5.4-39,8.3C-159.8,35.9-160.1,36.9-161,37.9c3.3,0.899,6.101,1.6,10.101,2.7
		c-2.601,1.6-3.9,2.5-5.5,3.5c3.1,3.1,0.8,4.399-1.801,5.899c-6.5,3.9-12.899,8-19.3,12.101c-0.899,0.6-1.5,1.6-2.3,2.399
		c0.1,0.3,0.2,0.5,0.3,0.8c3.2-1,6.2-2.399,9.5-2.899c1.2-0.2,3.601,1.3,4,2.6c0.4,1.2-0.8,3.3-1.899,4.3
		c-2.5,2.4-5.301,4.4-8,6.601c0.3,0.399,0.5,0.8,0.8,1.2c-4.2,3-8,5.699-11,7.8c-0.9,0.6-1.5,1.7-2.2,2.6c4-0.6,7.1-2.5,10.4-3.5
		c2.199-0.7,4.899-0.1,7.3,0c-1.2,2-2.3,4.101-3.7,5.9c-0.7,0.899-2,1.3-2.8,2.1c-0.601,0.7-0.9,1.7-1.3,2.5
		c0.199,0.2,0.5,0.4,0.699,0.601c3.601-1.9,7.101-3.801,11.101-5.9c0.399,2,0.7,3.6,1,5.2c0.2-0.9,0.399-1.7,0.6-2.601
		c3.8-1.699,7.601-3.5,11.4-5c1.399-0.5,3-0.3,4.5-0.399c-0.4,1.399-0.3,3.2-1.2,4.2c-2.2,2.399-4.5,4.699-6.8,6.3
		c-0.101,0.399,0,0.8,0.2,1.1c-5.4,5.9-10.801,11.7-16.2,17.601c-0.7,0.699-1.2,1.5-1.8,2.3c6.699-3.4,12.699-7.5,18.899-11.3
		c2.9-1.801,5.9-3.601,8.9-5.301c-0.4,0.801-0.601,1.2-0.4,1.101c7.8-3.101,15.601,2.899-5.3,8.899c-1.6,7.101,9.2,6.301,7.6,13.5
		c2.9-2.1,4.9-3.6,6.9-5.1c0.4,0.4,0.7,0.9,1.1,1.3c-3,3.4,38.301-19.2,31.5-23c-1.3-0.7-2.899-2.899-2.699-4.2
		c0.5-3.3,1.399-6.6,2.3-9.899c0.399-0.4,0.7-0.8,1.1-1.3c0.9-1.101,1.5-2,1.9-3c3.5-0.801,7.6-4.4,8.399-7.9
		C-93.4,67.5-97.5,67.2-100,65.6z"/>
</g>
<g id="Frame3">
	
		<radialGradient id="SVGID_8_" cx="2.4548" cy="596.0759" r="158.9045" gradientTransform="matrix(1 0 0 -1 -0.0552 595.1597)" gradientUnits="userSpaceOnUse">
		<stop  offset="0" style="stop-color:#F3903F"/>
		<stop  offset="0.4998" style="stop-color:#ED683C"/>
		<stop  offset="1" style="stop-color:#B8392A"/>
	</radialGradient>
	<path style="fill:url(#SVGID_8_);" d="M-49.1,110.5c-1.4,1.4-2.9,2.9-4.601,4.601c-2.699-3-4.699-1.5-6.899,1.1
		c-7.101,8.3-14.5,16.5-21.8,24.7c-1.101,1.3-2.4,2.399-3.601,3.5c-0.3-0.2-0.7-0.5-1-0.7c2.601-4.9,5.2-9.7,7.7-14.6
		c-0.5-0.5-1-0.9-1.5-1.4c-2.9,1.4-5.7,2.7-10,4.7c3.2-6.101,5.8-10.8,8-15.601c4.3-9.5,8.6-19.1,12.5-28.8c0.9-2.3,0.6-5.1,0.8-7.6
		c-2.6,0.7-5.5,0.8-7.7,2.1c-3.6,2-6.8,4.7-10.199,7c-1,0.7-2.101,1.2-4,1c1.899-3.399,4-6.7,5.699-10.2
		C-83.6,76.1-81.7,71.9-79.9,67.6c0.399-1.101,0.1-2.4,0.199-3.7c-1.399,0.2-2.899,0.1-4.1,0.7c-2,1.199-3.8,2.699-5.5,4.3
		c-8.4,7.6-16.6,15.2-25,22.7c-1.6,1.399-3.5,2.5-6.1,3c2-2.9,4.1-5.9,6.1-8.801c-0.5-0.399-1-0.899-1.4-1.3
		c-3.199,2.2-6.399,4.5-9.6,6.7c-0.4-0.4-0.8-0.8-1.2-1.2c0.9-1.2,1.7-2.399,2.601-3.5c4.6-5.7,9.199-11.3,13.699-17.1
		c0.601-0.7,0.301-2.101,0.5-3.2c-1.699-0.1-3.3-0.1-6.199-0.2c1.5-2.7,3-5.3,4.5-7.8c-0.2-0.4-0.301-0.8-0.5-1.2
		c-5.7,1.601-11.5,3.3-17.2,4.9c-0.2-0.4-0.5-0.8-0.7-1.3c1-1.101,2-2.301,3-3.4c3.1-3.3,6.3-6.4,9.1-9.9
		c3.7-4.399,3.301-5.6-2.6-6.3c-5.6-0.7-11.2-0.6-16.9-0.7c-1.399,0-2.8,0.101-4.699-1c0.899-0.6,1.8-1.399,2.8-1.899
		c9.5-5.101,19-10.101,28.5-15.4c1.3-0.7,2-2.7,2.899-4.2c-1.6-0.6-3.199-1.3-4.8-1.899c-1.5-0.601-3-1.2-4.5-1.8
		c0.101-0.4,0.2-0.801,0.4-1.2c3-0.8,6-1.4,8.899-2.4c1.101-0.399,1.7-1.8,2.601-2.7c-1-0.8-1.8-2.1-2.9-2.3
		c-2.6-0.5-5.3-0.399-7.899-0.7c-1.2-0.1-2.301-0.699-3.4-1c0.6-0.899,1-1.899,1.7-2.699c1.1-1.5,2.399-2.9,3.6-4.301
		c-1.7-1.1-3.3-2.899-5.2-3.3c-12.5-2.7-25.1-5-37.6-7.5c-1.4-0.3-2.8-0.6-4.2-0.8c-0.1-0.5-0.1-1-0.2-1.4c2.9-0.6,5.7-1,8.5-1.8
		C-148.4-19.2-144.1-20.4-139.9-21.9c2.5-0.9,3-3.101,0.5-4.301c-3.9-1.899-8.2-3.3-12.4-4.8c-1.9-0.7-3.8-1.2-5.7-1.8
		c0.101-0.5,0.2-1,0.3-1.5c1.801,0,3.7,0,5.5,0c7.301-0.2,14.801,0.4,19.5-7.2c0.601-0.899,2.601-1.1,4-1.2c2.5-0.1,5,0.5,7.4,0.2
		c1.9-0.3,4.8-1.399,5.1-2.7c0.5-2.1,0-5.3-1.3-6.8c-2.899-3.1-6.7-5.3-10.1-7.899c-2.101-1.5-4.2-3.101-6.2-4.601
		c0.2-0.399,0.4-0.8,0.6-1.3c1.9,0.7,3.7,1.6,5.601,2c11,2.2,22.1,4.6,33.2,6.1C-88.2-56.9-87.2-59-90.4-64
		c-2.2-3.399-5.4-6.2-8.101-9.399c-1.5-1.801-3-3.7-4.399-5.5c0.3-0.4,0.6-0.7,1-1.101c1.199,0.601,2.399,1.3,3.6,1.9
		c8,4.1,16,8.1,24,12.2C-73.4-65.5-72.4-65-71.5-65c1.7,0.101,3.5-0.2,5.2-0.3c-0.2-1.7,0-3.8-0.8-5.2
		c-2.101-3.6-3.4-6.8-1.601-11.2c0.601-1.6-1.5-4.399-2.6-6.5c-1.4-2.6-3-5-3.8-8.199c6.5,5,13,9.199,22.399,11.1
		c-4.1-12.4-11.199-22-17.3-31.9c-6.1-9.899-13-19.3-19.3-29.3c3,1.7,5.9,4.5,7.6-0.5c6.101,6.4,11.9,12.7,18,18.801
		c2,2,4.301,3.8,6.7,5.199c1.4,0.801,3.9,1.301,4.9,0.5c1.1-0.8,1.8-3.399,1.399-4.899c-1.199-4.8-2.899-9.5-4.5-14.2
		c-0.699-2-1.899-3.8-2.8-5.7c0.4-0.3,0.9-0.6,1.3-1c1.7,2.101,3.4,4.2,5.101,6.3c5.1,6.301,10.2,12.601,15.399,18.801
		c0.7,0.899,2.4,1.699,3.301,1.399c0.8-0.3,1.399-2,1.6-3.2c0.4-2.399,0.4-4.8,0.6-7.199c0.5-0.101,0.9-0.301,1.4-0.4
		c0.6,1.6,1.2,3.2,1.9,4.8c1.3,3.101,1.1,7.7,6.8,6.5c5.899-1.2,8.2-3.5,7.899-9.2c-0.1-2.1-0.5-4.199-0.699-6.199
		c0.6-0.2,1.1-0.4,1.699-0.7c1.601,3.7,3.2,7.3,5.2,12c1.4-2.4,2.3-3.9,4.101-6.8C-1.5-128.699-1.1-126.3-0.2-124
		c0.601,1.5,1.9,2.801,2.9,4.2c0.9-1.399,2.3-2.8,2.6-4.3c1.9-9.8,3.5-19.6,5.301-29.4c0.1-0.6,0.1-1.699,0.5-1.8
		c4.899-2.1,0.899,95.2,38.5,6c-1.601,14.5-3.101,29-4.7,43.4c0.6,0.399,1.2,0.8,1.899,1.2c2.7-1.9,5.301-3.801,9-6.5
		c-0.5,3.399-1.1,5.699-1.199,8c-0.101,1,0.6,2.1,1,3.1c1.1-0.5,2.699-0.8,3.199-1.6c3.101-5.101,6-10.301,8.9-15.5
		c1.2-2.101,2-3.601,5.2-3.4c2.1,0.2,4.6-2,6.5-3.6c2-1.7,3.6-3.9,5.399-5.9c0.4,0.3,0.801,0.6,1.2,0.8c-0.2,0.8-0.1,1.9-0.6,2.5
		c-7.5,9.9-10.7,21.7-14.9,33c-0.3,0.9-0.6,2-0.6,2.9c0,1.7-0.2,4.5,0.6,4.899c1.7,0.801,4,0.5,6,0.301c1.7-0.2,3.2-1.101,5.9-2
		c-1.3,3.1-2.101,5.1-2.9,7c7.8-1.7,12.7-6.9,17-12.2c1.8,1.6,3.3,3.1,4.9,4.5c1.1-1.5,2.2-3.101,3.3-4.601
		c1.7,3.801,0.6,5.5-3.1,8.7c-8,6.7-15.801,13.7-23.2,21.101C76.3-61.1,76.2-57.1,75.2-54c3.6,0.4,7.6,2,10.9,1.101
		c8.6-2.4,16.8-6,25.199-9c0.9-0.3,1.801-0.4,2.801-0.7c-0.4,7.9-0.4,7.9,10.899,6.3c-0.7,1.5-1,2.601-1.6,3.601
		c-2.601,4-1.8,6.399,3,6.6c5.2,0.2,10.5-0.7,15.8-1.3c2.9-0.3,5.7-0.9,8.5-1.4c0.101,0.5,0.3,1,0.4,1.4
		c-3,1.2-6.101,2.399-9.101,3.6c-6.3,2.601-12.5,5.101-18.7,7.8c-0.699,0.301-1,1.4-1.5,2.2c1.101,0.601,2.2,1.601,3.301,1.601
		c2.5,0.1,5-0.301,7.399-0.4c0.101,0.5,0.2,1,0.3,1.5c-4.5,2.1-9.1,4.1-13.6,6.2c0.2,0.6,0.3,1.2,0.5,1.8c15,4.3,30.6,4.5,46.2,4
		c0,0.5,0.1,1.1,0.1,1.6c-1.8,0.4-3.6,0.801-5.399,1.2c-12.5,2.7-24.9,5.4-37.4,8.3c-1.399,0.301-2.6,1.7-3.899,2.601
		c1.1,1.3,2.199,2.6,3.5,3.8c0.899,0.8,2.1,1.3,4.5,2.7c-5.601,1.3-9.7,2.1-13.7,3.2c-4.2,1.1-8.3,2.3-12.4,3.8
		c-1.1,0.399-1.899,1.8-2.8,2.7c1.1,0.899,2,2.3,3.3,2.6c2.5,0.6,5.101,0.5,7.7,0.7c0.1,0.5,0.2,1,0.2,1.5
		c-2.2,0.6-4.5,0.899-6.5,1.899c-1.9,0.9-3.5,2.5-5.2,3.7c1.6,1.2,3.1,3.2,4.8,3.601c7.3,1.6,14.7,2.8,22,4.1
		c1.7,0.3,3.5,0.5,5.2,0.8c0.1,0.5,0.1,1,0.2,1.4c-2.101,0.399-4.2,0.8-6.3,1.3c-5.801,1.4-11.7,2.5-17.4,4.3
		c-2.3,0.7-5.4,2.8-5.7,4.601c-0.3,1.8,2.2,4.8,4.2,6c13.6,8.6,27.4,16.899,41.1,25.3c0.9,0.6,1.9,1.1,2.801,1.7
		c-0.2,0.399-0.301,0.899-0.5,1.3c-3.4-1.101-6.801-2.3-10.2-3.4c-6-1.899-11.9-4.1-18.101-5.399c-6.1-1.301-6.6-0.4-5.3,5.899
		c-3.8-1.1-7.5-2.399-11.2-3.2c-1.6-0.3-3.399,0.301-5.199,0.4c0.399,1.8,0.199,4.1,1.199,5.4C102.1,78.7,105.2,81.7,108,85
		c1.4,1.601,2.7,3.4,3.4,5.8c-2.4-1.6-4.7-3.5-7.3-4.6c-3.8-1.7-7.8-2.7-11.7-4.2c-1.8-0.699-3.6-1.5-5.3-2.399
		c-3.601-2-5.9-0.9-5.8,3.2C81.4,85.4,82.2,88,82.7,90.6c0.4,1.699,0.9,3.399,1.4,5c-0.8,0.399-1.3,0.699-1.4,0.6
		c-5.8-3.8-11.8-7.5-17.399-11.6c-5-3.601-7.7-3-8.301,3.199c-0.5,4.9,0.2,9.9,0.4,14.801c0,1.199,0.3,2.3,0.4,3.5
		c-0.5,0.199-1,0.399-1.5,0.6c-1.101-1.8-2-3.8-3.301-5.5c-1.199-1.5-2.699-2.7-4.1-4c-1.2,1.2-2.4,2.5-3.8,4
		c-0.601-0.9-1.4-2-2.2-3.1c-0.6,0.199-1.3,0.3-1.5,0.6c-0.6,1.5-1.2,3.1-1.4,4.7c-1.6,16.5-4.899,32.899-4,50.1
		c-0.6-1.199-1.399-2.399-1.699-3.699c-1.9-7.601-3.5-15.2-5.801-22.7c-0.699-2.3-3.199-4.2-4.899-6.2c-1.5,2.3-3,4.5-4.4,6.8
		c-0.399,0.601-0.5,1.5-1.3,3.8c-1.5-3.5-2.4-5.6-3.9-9c-1.5,2.7-3,4.301-3.399,6.101C8.6,135.3,7.4,142.1,6,149
		c-0.2,1-1.3,1.8-1.899,2.7c-0.4-1-0.9-1.9-1-2.9c-2.5-13.699-5-27.399-7.7-41c-0.3-1.6-2.4-2.8-3.601-4.1c-1.1,1.3-2.3,2.6-3.3,4
		c-2.3,3.4-5.399,6.6-6.3,10.3c-1.8,6.9-2.2,14-3.2,21.101c-0.399,2.399-0.899,4.699-1.399,7c-0.5,0-1.101,0-1.601,0
		c-0.1-2.101-0.3-4.301-0.399-6.4c-0.801-11.7-1.4-23.5-2.301-35.2c-0.1-1.399-1.3-2.7-2-4.1c-1.199,1.2-2.699,2.2-3.699,3.5
		c-1,1.399-1.5,3.2-2.4,5.1c-1.4-0.6-2.5-1.1-4.6-1.899C-43,116.6-46.5,126-50,135.4c-0.5-0.2-1.1-0.3-1.6-0.5
		c1.7-7.8,3.3-15.601,5-23.4C-47.6,111.1-48.4,110.8-49.1,110.5z"/>
	
		<radialGradient id="SVGID_9_" cx="333.6409" cy="641.4763" r="85.3566" gradientTransform="matrix(0.9306 -0.366 -0.366 -0.9306 -84.406 713.9194)" gradientUnits="userSpaceOnUse">
		<stop  offset="0" style="stop-color:#FFFFFF"/>
		<stop  offset="0.6649" style="stop-color:#FFDF43"/>
		<stop  offset="1" style="stop-color:#F69F43"/>
	</radialGradient>
	<path style="fill:url(#SVGID_9_);" d="M-8,87.1c-0.6-3-1-5.101-1.3-7.2c-0.4-3-0.5-6.2-1.2-9.101c-0.899-3.699-2.1-6.3-7.2-4
		c-2.3,1-6.8,0-8.899-1.8c-3.9-3.3-5.5-1-7.2,1.7c-4.3,6.6-8.4,13.3-12.7,20c-0.899,1.5-2.1,2.8-3.1,4.2c-0.601-0.2-1.2-0.5-1.7-0.7
		c0.4-2.4,0.8-4.9,1.4-7.3c1.699-6.7,3.699-13.3,5.399-20c0.9-3.5,0.2-5.601-4.3-4.9c-1.6,0.2-4.4-1-5-2.3c-1.9-4.7-4.4-3.1-7.2-1.3
		c-2.2,1.399-4.399,2.7-6.5,4.1C-68,58.1-68.4,57.8-68.9,57.4c1.199-2.4,2.399-4.9,3.6-7.3c2-4.2,4.4-8.2,5.8-12.5
		c1.7-5.101-0.7-7.7-6.2-7.2C-67.6,30.6-69.6,31.6-71.4,31.3c-1.801-0.399-3.4-1.8-4.801-3.1c-0.699-0.7-0.399-2.6-1.199-3.1
		c-3.9-2.7-3.2-5.2-0.7-8.601c3.2-4.2,1.899-7.1-3.4-8.3c-4.6-1-9.2-1.6-13.8-2.4C-95.4,5.1-95.5,4.4-95.6,3.7
		c3.7-1.1,7.399-2.3,11.1-3.4c4.101-1.199,7.7-2.8,7.601-8c0-0.399,0.1-0.899,0.3-1.1c4.7-3.8,3.3-7.7-0.5-11.6
		c0.3-0.5,0.6-1,0.899-1.5c6.5,1,13,2,20.4,3.199c-2.2-5.399-2-8.6,4.2-9.3c3.7-0.399,2.6-3.6,0.899-5.8c-2-2.5-4.199-4.8-6.3-7.2
		c0.2-0.5,0.4-0.899,0.7-1.399C-54-42-51.6-41.9-49.5-41c4.7,2.101,7,0,6.8-4.3C-42.9-49-44.2-52.7-45.6-56.2
		c-1.3-3.3-2.5-5.699-0.3-9.5c1.5-2.5-0.601-6.899-0.5-10.5C-46.4-78.6-45.5-81-45-83.4c2.101,1.3,4.7,2.1,6,3.899
		c4.4,6.101,4.2,6.101,10.4,2c0.899-0.6,3.5,0.3,4.7,1.3C-18.5-71.6-11.7-73-9.1-79.6C-7.6-83.3-6.3-87-4.7-91.2
		c2.2,1.4,3.601,3,5,3c7,0,6.5,4.4,5.601,9.101C5.7-78,5.5-76.8,5.5-75.7C5.4-70.9,6.7-69.9,10.7-72.4c2.9-1.7,4.9-2.2,6.3,1.399
		c1.2,3.2,3,2.3,5.4,1C26.8-72.4,31.5-74.3,36.1-76.4C36.5-76,36.9-75.5,37.3-75.1C36.6-73.1,35.9-71,35.2-69
		c-2.3,6.101-5,12.101-6.9,18.3c-1.6,5.2,0.9,7.301,6.2,5.801c0.9-0.301,1.8-0.601,2.7-1c7.5-3.301,7.7-3.2,7.5,5.1
		c-0.1,4.9,2.9,5.2,6.6,4.5c8.101-1.7,8-1.7,6.101,5.9C57.1-29.2,57.7-26.7,58.3-26.5c5.4,1.5,8.9,7.8,15.5,6.2
		c0.601-0.1,1.301,0.6,3,1.4C74.9-17.2,73.7-15.7,72.1-14.7c-2.9,1.9-6.2,3.301-8.801,5.5C56.9-4.1,56,1.3,59.9,7.5
		c4,6.4,3.6,11.2-2.7,16c-4.7,3.5-3.8,5.9,0,8.9c5.1,4.1,10.4,7.899,15.4,12.2C74.2,46,74.8,48.5,75.8,50.5
		C73.3,51.3,70.6,53.1,68.3,52.6c-6.899-1.5-13.6-4-20.5-5.801c-7.899-2-8.5-1.199-12.5,5.7c-1.1,1.9-4.699,3.2-7.199,3.2
		C18,55.6,17,56.2,17,66c0,3.4-1.5,5.601-4.6,5.2c-10.7-1.3-16.9,2.6-18,13.5C-5.6,85.3-6.5,85.7-8,87.1z"/>
</g>
<g id="Frame2">
	
		<radialGradient id="SVGID_10_" cx="-6.5452" cy="595.0593" r="84.0291" gradientTransform="matrix(1 0 0 -1 -0.0552 595.1597)" gradientUnits="userSpaceOnUse">
		<stop  offset="0" style="stop-color:#F3903F"/>
		<stop  offset="0.4998" style="stop-color:#ED683C"/>
		<stop  offset="1" style="stop-color:#B8392A"/>
	</radialGradient>
	<path style="fill:url(#SVGID_10_);" d="M66.1,33.8c-2.601-2-5.601-3.6-8-5.899C55.8,25.6,51.3,23.3,56.4,19.3
		c0.3-0.199,0.399-1,0.2-1.399c-1.801-5,2-5,5-5.7c1.3-0.3,2.6-0.5,3.899-0.8c-1.1-1.8-2.3-2.101-3.3-2.8c-2.1-1.7-5.2-3.2-6-5.4
		c-1.7-4.9,1.4-10.4,6-13.6c1.6-1.101,2.7-2.801,4.1-4.301c-0.399-0.399-0.8-0.8-1.1-1.1c-2.1,0.8-4.2,2-6.4,2.4
		C56.9-13,54.8-13.5,52.7-13.6c1-1.7,2-3.3,3-5c0.3-0.5,0.6-1,1-1.7c-3.9-0.5-7.5-1-11.1-1.5c0.8-3.3,1.699-6.7,2.5-10.2
		c-3.4-0.2-5.2-2.8-2.9-6.2C48.5-43.1,52.6-47.4,56.4-51.9C57.7-53.4,59-55,60.3-56.5C57.1-56.3,54.8-55.2,52.4-54.9
		c-1.2,0.199-2.9-0.5-3.8-1.4c-0.5-0.5,0.199-2.4,0.8-3.4c1.1-1.899,2.5-3.6,3.8-5.399c-2.1-0.2-3.6,0.399-5,1.2
		C44-61.6,39.6-59.5,35.8-56.7c-3.399,2.5-4.899,1.2-5.899-2c-3.5,2.5-7.3,5.601-10.5,2.2c-3.101-3.2,0.1-7.1,2.1-10.3
		c0.4-0.7,1.2-1.2,1.5-2c0.4-1.2,0.5-2.6,0.8-3.9c-3.5,2.301-6,4.801-8.6,7.4c-2.9,3-5.9,5.1-9.4,0.3c-1,1-1.6,1.7-2.399,2.3
		c-1.601,1-3.3,1.9-4.9,2.9c-0.8-1.7-2.2-3.4-2.3-5.2C-4-70.6-3.8-76.3-3.7-81.9c0-2.601,0-5.301,0-7.9c-0.6,0-1.199-0.1-1.899-0.1
		C-6.2-86.2-6.5-82.5-7.4-79c-0.601,2.3-2,4.5-3.101,6.7c-0.899-2.1-1.7-4.3-2.6-6.4C-13.2-78.8-13.3-78.9-14.7-80
		c-0.199,2.8-0.399,4.8-0.5,6.8c-0.199,4,0,8-0.5,12C-16.1-57.5-17.1-53.8-21.4-54c-1.301,2.3-2.301,4-3.301,5.8
		c-1.6-1.5-3.699-2.8-4.699-4.6c-2-3.8-3.4-7.9-5.101-11.9c-0.5-1.3-1.2-2.5-1.8-3.699c-0.6,0.199-1.3,0.3-2,0.5
		c0.7,3,1.7,6,1.9,9.1c0.199,3-0.4,6-0.801,9c-0.199,1.7-0.899,3.3-1.3,5c-0.5,2.6-1,5.2-1.5,7.9c-2.6-0.7-5.2-1.301-7.8-2
		c-1.6-0.5-3.2-1.2-4.8-1.801c-0.3,0.301-0.601,0.601-0.9,0.9c3,3.5,3.601,6.6-0.6,8.1c0.3,2.5,1.3,5.5,0.5,6.2
		c-1.7,1.4-4.4,1.7-6.7,2c-2.3,0.2-5.4-1.3-6.7-0.2c-4.2,3.301-8.7,2.7-13.3,2.9c-1.3,0.1-2.6,0.7-3.9,1c0,0.6,0,1.1,0,1.7
		C-80.9-17.7-77.4-17.7-74.3-16.6c3.6,1.3,6.8,3.6,10.2,5.5C-66-9.2-67.8-7.1-69.7-5c-0.199,0.2-0.1,0.601,0,0.2
		c3.2,1.5,6.2,2.8,9,4.3c3.7,2,3.9,4.4,0.5,6.9c-2,1.5-4.3,2.6-7.1,4.2c1.2,0.6,1.8,0.899,2.3,1.1c5.101,1.3,5.8,2.8,2.2,6.4
		c-3,3-6.7,5.399-10,8.1c-1.8,1.4-3.6,2.8-5.9,4.6c9.601-2.1,18-4.3,26.601-5.8c5.399-0.899,7,1.2,6.2,6.601
		c-0.301,2.3-0.9,4.699-1.4,7c6.6,0.8,7.4,1.699,6.4,7.6C-41.6,50.6-54.6,80-55.7,84.4c-0.3,1.1-0.399,2.3-0.699,4
		c3-1.8,6.5-13.4,12.3-10.101c5.2,0.801-1.3,9.601-1,11.801C-16.5,56.8-14.8,67.6-3.5,69.5c0.5-3.1,1.9-5,5.5-4.899
		c2.8,0.1,5.5,0,8.3,0c0.4-3,0.601-5.9,1.101-8.7c0.5-2.9,1.399-5.7,2-8.601c0.8-4.5,2.7-5.199,6.5-2.699
		c1.399,0.899,4.2,1.899,4.8,1.3c2.8-2.7,4.9-1.3,6.9,0.6c2.899,2.7,5.699,5.601,8.6,8.4c0.5-0.3,0.9-0.5,1.4-0.8
		c-0.9-2.7-1.9-5.4-2.7-8.101c-1.8-5.5-1.3-6.3,4.3-7.8c0.9-0.3,2.1-0.6,2.6-1.3c2.101-2.7,4.301-1.8,7.101-1.2
		C58.4,36.8,64,37.2,71,38C68.9,36.2,67.6,34.9,66.1,33.8z"/>
	
		<radialGradient id="SVGID_11_" cx="580.9031" cy="-781.821" r="29.7473" gradientTransform="matrix(-0.6859 -0.8654 -0.9094 0.7208 -313.3224 1064.4186)" gradientUnits="userSpaceOnUse">
		<stop  offset="0" style="stop-color:#FFFFFF"/>
		<stop  offset="0.6649" style="stop-color:#FFDF43"/>
		<stop  offset="1" style="stop-color:#F69F43"/>
	</radialGradient>
	<path style="fill:url(#SVGID_11_);" d="M-19.1,31c2.2-16.3,2.2-16.3-2.3-18.3c-1.9-4.2-3.2-7.2-4.5-10.3c-0.5-1.3-1.4-2.7-1.2-3.9
		c1.5-8.1,3.3-16.2,5.2-25.399C-14.4-27.5-4.1-16.3,1.3-33.5c7.301,11.9,15.2,18.2,27,12.4c1,9.399,1.5,18.3,2.9,27.1
		c0.7,4,0.3,5.8-3.9,7.2c-2.5,0.9-4.699,3.4-6.5,5.6c-1.5,1.9-1.899,5.9-3.3,6.2C13.3,26,7.1,27.4,4.6,25.3
		C-1.4,20.1-5.9,23.6-11,26.3C-13.3,27.6-15.6,29-19.1,31z"/>
</g>
<g id="Frame1">
	
		<radialGradient id="SVGID_12_" cx="0.0549" cy="593.2097" r="49.599" gradientTransform="matrix(1 0 0 -1 -0.0552 595.1597)" gradientUnits="userSpaceOnUse">
		<stop  offset="0" style="stop-color:#F3903F"/>
		<stop  offset="0.4998" style="stop-color:#ED683C"/>
		<stop  offset="1" style="stop-color:#B8392A"/>
	</radialGradient>
	<path style="fill:url(#SVGID_12_);" d="M-39.6,9.1c2.3-0.301,4.8-0.4,7-1.101c1.1-0.399,2-1.8,2.899-2.8c-1-1-1.899-2.5-3.199-2.9
		C-35.4,1.5-38,1.3-41.5,0.7c3.7-4.8,9-1.2,12.8-3.8c-0.6-1.5-1.199-3-1.699-4.5c0.3-0.4,0.5-0.8,0.699-0.9
		c2.2-1.3,4.4-2.6,6.5-3.899c-1.699-2.301-3.3-4.7-5.1-6.9c-1.6-2-3.6-3.7-5.6-5.7c6.1,1,11.699,3.4,16.399,2.2
		c4.5-1.2,9.2-5.3,6.7-13.4c3.4,2.7,5.4,4.101,7.2,5.7c3.899,3.4,6.399,1.9,8.7-2C9.4-39.7,16.5-45.2,17.2-54.6
		c0.6,0.2,1.3,0.399,1.9,0.7C18.5-49.7,17.7-45.5,17.3-41.3c-0.399,3.6-0.8,7.3-0.8,10.9c0,1.5,0.7,3.3,1.7,4.199
		c0.5,0.4,2.8-0.5,3.8-1.399c2.9-2.8,5.601-5.9,9-9.5c0.8,6.8-7.6,10.7-3.8,17.5c1.6-0.5,3.1-1,4.9-1.5c-0.2,1.5-0.4,2.7-0.7,4.7
		c3.3-0.5,6.1-0.801,8.899-1.2c0.2,0.5,0.5,1.1,0.7,1.6c-2.399,1.101-4.7,2.4-7.2,3.2c-3.8,1.3-5.1,3-1.699,6.2
		c-6.2,4-6.2,4.899,0.199,8.8c3,1.8,6.101,3.3,9.2,4.9c-0.2,0.5-0.3,1-0.5,1.6c-1.5-0.1-3.1-0.1-4.6-0.3C30,7.8,21.1,13.1,19,18.9
		c-0.3,0.899-0.899,2.2-0.6,2.8c2,3.8,0.399,6.7-2.9,9.8c-2.2-2.2-4.5-4.7-6.899-7C6.3,22.2,4.5,22.3,3.5,25.6
		C2.5,28.9,1.6,32.3,0.6,35.6C-0.5,39.1-2.3,41.5-6.8,40.1C-2.1,36.4-1.3,33-4.7,27.6C-11.3,38.3-17.5,48.4-23.7,58.5
		c-0.3-0.2-0.6-0.3-0.899-0.5C-22.7,51.6-21.1,45.1-18.8,38.8c1.2-3.3,1.1-6.3-1.6-7.899c-1.4-0.8-4.301,0.899-6.4,1.7
		c-1.3,0.5-2.4,1.399-3.6,2.1c-0.301-0.3-0.601-0.6-1-0.9C-27.5,28.2-23.5,22.7-18.9,16.1c-3.4,0.1-5.301,0.1-8,0.199
		c2-1.899,3.399-3.3,5.699-5.6c-7,0-12.8,0.1-18.6,0.1C-39.7,10.4-39.7,9.8-39.6,9.1z"/>
	
		<radialGradient id="SVGID_13_" cx="0.2244" cy="596.2175" r="19.7679" gradientTransform="matrix(1 0 0 -1 -0.0552 595.1597)" gradientUnits="userSpaceOnUse">
		<stop  offset="0" style="stop-color:#FFFFFF"/>
		<stop  offset="0.6649" style="stop-color:#FFDF43"/>
		<stop  offset="1" style="stop-color:#F69F43"/>
	</radialGradient>
	<path style="fill:url(#SVGID_13_);" d="M19.6,3.1c-1.5,2-3.4,4.699-5.301,7.3C13.9,11,12.8,11.3,12.6,11.9
		c-1.9,5.7-8.5,5.3-13.5,6.899C-4.3,19.9-6.5,18.2-8.5,16.2c-2.399-2.4-5.2-4.5-7.7-6.8C-17,8.6-17.6,7.6-17.8,6.6
		C-18.4,3.8-18.7,1-19.1-1.8c-0.101-0.8-0.2-2,0.3-2.3c5.2-3.601,4.8-9,6.9-13.7C-10-22.1-10-21.7-5.3-19.5c4.3,2,9.6,2.8,14.2,4.5
		c2.6,1,5.899,2.5,6.899,4.5C17.6-6.6,18.1-2.4,19.6,3.1z"/>
</g>
</svg>
