<?xml version="1.0" encoding="utf-8"?>
<!-- Generator: Adobe Illustrator 16.0.4, SVG Export Plug-In . SVG Version: 6.00 Build 0)  -->
<!DOCTYPE svg PUBLIC "-//W3C//DTD SVG 1.1//EN" "http://www.w3.org/Graphics/SVG/1.1/DTD/svg11.dtd">
<svg version="1.1" id="Layer_1" xmlns="http://www.w3.org/2000/svg" xmlns:xlink="http://www.w3.org/1999/xlink" x="0px" y="0px"
	 width="600px" height="600px" viewBox="0 0 600 600" style="enable-background:new 0 0 600 600;" xml:space="preserve">
<g id="F1">
	<g id="RedF1">
		
			<linearGradient id="SVGID_1_" gradientUnits="userSpaceOnUse" x1="5.3621" y1="533.2087" x2="5.362" y2="948.8687" gradientTransform="matrix(1 0 0 -1 -0.0552 599.8589)">
			<stop  offset="0" style="stop-color:#EB5C16"/>
			<stop  offset="1" style="stop-color:#F68122"/>
		</linearGradient>
		<path style="fill:url(#SVGID_1_);" d="M0.666-233.311c-3.461-13.246-7.602-26.498-5.209-40.426
			c0.774-4.521,3.176-9.111,5.94-12.851c3.461-4.676,8.115-3.938,11.377,0.915c4.342,6.459,4.228,9.614-1.082,15.286
			c-7.053,7.535-8.618,16.979-9.528,26.635c-0.324,3.433-0.053,6.92-0.053,10.383C1.631-233.349,1.148-233.33,0.666-233.311z"/>
		
			<linearGradient id="SVGID_2_" gradientUnits="userSpaceOnUse" x1="16.1243" y1="533.2146" x2="16.1242" y2="948.8673" gradientTransform="matrix(1 0 0 -1 -0.0552 599.8589)">
			<stop  offset="0" style="stop-color:#EB5C16"/>
			<stop  offset="1" style="stop-color:#F68122"/>
		</linearGradient>
		<path style="fill:url(#SVGID_2_);" d="M10.748-225.393c0.359-3.688,0.295-6.408,0.996-8.914c0.409-1.465,1.977-3.55,3.143-3.631
			c1.576-0.109,3.866,1.021,4.797,2.354c2.861,4.104,1.896,16.477-1.188,20.545c-2.119,2.795-5.236,2.434-6.308-1.122
			C11.203-219.429,11.099-222.961,10.748-225.393z"/>
		
			<linearGradient id="SVGID_3_" gradientUnits="userSpaceOnUse" x1="-30.6233" y1="714.2673" x2="-30.6233" y2="730.5305" gradientTransform="matrix(1 0 0 -1 -0.0552 599.8589)">
			<stop  offset="0" style="stop-color:#EB5C16"/>
			<stop  offset="1" style="stop-color:#F68122"/>
		</linearGradient>
		<path style="fill:url(#SVGID_3_);" d="M-31.146-124.745c1.936,2.678,3.806,4.135,3.809,5.597c0.004,1.356-1.765,3.313-3.185,3.844
			c-0.781,0.29-3.493-1.818-3.496-2.851C-34.022-119.922-32.584-121.691-31.146-124.745z"/>
		
			<linearGradient id="SVGID_4_" gradientUnits="userSpaceOnUse" x1="2.4626" y1="531.0906" x2="2.4626" y2="950.0836" gradientTransform="matrix(1 0 0 -1 -0.0552 599.8589)">
			<stop  offset="0" style="stop-color:#EB5C16"/>
			<stop  offset="1" style="stop-color:#F68122"/>
		</linearGradient>
		<path style="fill:url(#SVGID_4_);" d="M50.549-32.527c-0.934-11.556-1.773-26.535-10.856-32.576
			c0-5.938-9.105-11.426-8.976-15.907c0.208-7.094,4.809-10.325,6.098-17.23c1.189-6.37-0.625-12.091-3.797-17.824
			c-0.932-1.686-1.369-3.657-1.931-5.529c-1.542-5.141-3.104-10.277-4.516-15.455c-1.182-4.337-5.448-6.881-5.518-12.176
			c-0.203-15.787-5.328-29.888-10.85-44.607c-0.486-1.295-1.271-2.476-1.918-3.71c-0.392,12.681-1.276,24.984-5.134,37.081
			c-1.6-2.891-2.108-5.951-3.248-8.757c-0.738-1.82-2.396-3.268-3.642-4.882c-1.287,1.378-2.971,2.555-3.791,4.17
			c-3.081,6.062-5.179,12.747-8.958,18.303c-4.998,7.347-7.48,15.106-7.835,23.791c-0.142,3.492-0.663,6.98-0.629,10.467
			c0.017,1.697-0.21,3.08-0.815,4.165c6.412-0.29,3.657,12.869,4.302,20.698c0.151,0.688-4.89-0.83-4.89,0.732
			c-3.602,0.778-3.43,8.98-7.479,10.862c-10.063,4.679-15.638,16.724-10.161,25.808c0.616,0.189,1.183,0.884,1.64,2.306
			c0.036,0.043,0.068,0.088,0.105,0.131c3.762,4.436,4.23,8.425,2.942,13.648c-0.984,3.999-1.699,8.064-2.464,12.562
			c-0.435,6.646-1.396,12.225-2.769,16.946c1.817,3.528,3.024,7.447,3.532,12.002c1.913,17.17,14.133,31.886,27.859,41.833
			c5,3.623,23.33,1.664,28.713-0.25c15.994-5.687,28.11-18.805,31.822-35.375C50.475-5.064,51.658-18.787,50.549-32.527z"/>
	</g>
	
		<linearGradient id="OraF1_1_" gradientUnits="userSpaceOnUse" x1="3.9402" y1="548.7527" x2="3.9402" y2="885.196" gradientTransform="matrix(1 0 0 -1 -0.0552 599.8589)">
		<stop  offset="0" style="stop-color:#F8F95A"/>
		<stop  offset="1" style="stop-color:#F88243"/>
	</linearGradient>
	<path id="OraF1" style="fill:url(#OraF1_1_);" d="M-14.664,40.631C-34.379,26.794-40.233,2.221-38.547-21.177
		c1.09-15.12,5.377-30.013,8.291-44.995c1.049-5.387,2.237-10.747,3.44-16.102c0.383-1.705,1.021-3.354,1.542-5.027
		c0.429-0.024,0.856-0.05,1.285-0.074c1.009,3.284,2.017,6.569,3.105,10.114c3.356-2.746,6.841-4.697,9.032-7.617
		c2.721-3.621,0.104-7.043-1.904-10.452c-3.261-5.529-6.027-11.353-8.935-17.087c-0.266-0.521-0.035-1.296-0.035-2.312
		c1.309,0,2.515,0,4.461,0c-0.884-1.002-1.262-1.688-1.842-2.041c-2.041-1.247-3.455-3.502-1.012-4.594
		c7.111-3.178,7.459-10.657,10.951-16.047c2.594-4,4.396-6.803,10.02-5.312c5.039,1.334,10.496,1.022,15.736,1.693
		c1.347,0.173,3.022,0.986,3.773,2.053c3.719,5.269,7.272,10.66,10.706,16.12c6.345,10.085,6.002,17.109-1.084,26.611
		c-8.929,11.974-9.166,19.616,2.119,28.731c8.997,7.267,12.342,16.076,13.236,26.637c0.938,11.104,2.16,22.229,2.25,33.354
		c0.16,19.877-11.018,41.407-29.626,48.537C11.402,43.144-9.915,43.964-14.664,40.631z"/>
	<g id="YelF1">
		
			<linearGradient id="SVGID_5_" gradientUnits="userSpaceOnUse" x1="1.6643" y1="556.4001" x2="1.6642" y2="823.0587" gradientTransform="matrix(1 0 0 -1 -0.0552 599.8589)">
			<stop  offset="0" style="stop-color:#EBFA27"/>
			<stop  offset="1" style="stop-color:#F6FF7C"/>
		</linearGradient>
		<path style="fill:url(#SVGID_5_);" d="M-11.01-52.155c2.514-2.915,11.258-6.188,11.221-10.787
			c-0.039-4.551,3.748-9.12,3.531-13.65c-0.163-3.416-1.355-6.78-2.054-10.175c-0.266-1.288-0.987-2.847-0.539-3.853
			c1.693-3.781-0.364-6.19-2.341-8.996c-2.568-3.647-5.177-5.284-10.004-4.031c-5.646,1.465-9.689-1.073-10.931-5.758
			c2.769,0.783,5.35,1.976,8.002,2.162c4.156,0.294,5.471-1.669,3.555-5.349c-4.669-8.964-0.498-16.047,4.615-22.89
			c0.421-0.563,3.459-0.259,3.771,0.38c1.134,2.322,1.872,4.916,2.312,7.483c1.073,6.299,3.662,7.688,9.283,4.71
			c6.051-3.207,7.341-2.773,9.615,3.603c2.663,7.464,4.001,14.848-1.663,21.74c-2.492,3.032,0.364,2.66,1.802,4.73
			c1.635,2.356,1.704,4.833-0.333,9.89c-6.136-5.737-4.867,0.82-4.201,2.635c2.212,6.023,3.999,9.848,6.862,15.6
			c0.175,0.352,0.947,1.471,2.483,1.061c1.458-0.39,2.88-0.913,4.316-1.378c-0.445,1.548-0.588,3.287-1.412,4.597
			c-1.122,1.784,1.235,3.24-1.076,5.841c3.888,3.181,3.816,5.896,7.12,9.229c3.892,3.926,5.254,3.378,8.815,7.627
			c0.401,0.479-1.169,6.11-1.13,6.696c0.885,12.894-0.947,25.758-4.21,38.717c-3.99,15.855-4.551,21.717-20.056,27.295
			c-4.152,1.494-22.928,4.863-28.979,0.362c-13.395-9.962-21.979-18.951-24.613-35.609c-0.183-1.144-0.226-2.32-0.189-3.479
			c0.019-0.615,0.339-1.221,0.595-2.062c1.883,0.14-3.511-3.271-1.125-9.93c2.171,1.202,2.186-13.293,2.995-21.896
			c0.312,1.934,0.624,3.867,1.18,7.307c1.363-2.285,2.276-3.147,2.385-4.103c0.738-6.561,5.364-8.75,10.79-10.899
			C-17.03-46.759-11.01-52.155-11.01-52.155z"/>
		
			<linearGradient id="SVGID_6_" gradientUnits="userSpaceOnUse" x1="-18.9324" y1="567.0681" x2="-18.9324" y2="802.4426" gradientTransform="matrix(1 0 0 -1 -0.0552 599.8589)">
			<stop  offset="0" style="stop-color:#EBFA27"/>
			<stop  offset="1" style="stop-color:#F6FF7C"/>
		</linearGradient>
		<path style="fill:url(#SVGID_6_);" d="M-12.908-54.258c-5.421,4.01-5.328,6.581-12.135,4.686
			c-1.463-0.407-4.616-6.996-4.372-8.136c1.945-9.076,7.568-14.185,8.884-10.89c1.363-1.301,1.4-4.211,2.348-5.207
			c3.615-3.805,4.875-6.663,7.354-1.952c3.993,7.594,2.423,14.791-2.179,21.604C-13.01-54.155-12.908-54.258-12.908-54.258z"/>
	</g>
	
		<linearGradient id="WhiF1_1_" gradientUnits="userSpaceOnUse" x1="-2.3821" y1="559.49" x2="-2.3821" y2="717.4247" gradientTransform="matrix(1 0 0 -1 -0.0552 599.8589)">
		<stop  offset="0" style="stop-color:#FEFDF6"/>
		<stop  offset="1" style="stop-color:#FAF874"/>
	</linearGradient>
	<path id="WhiF1" style="fill:url(#WhiF1_1_);" d="M-35.056-14.712c5.663,3.257,6.96,2.426,7.215-3.99
		c0.402-10.23,2.647-14.848,10.942-21.867c1.873-1.586,4.002-3.464,6.261-3.89c6.243-1.174,10.021-10.517,14.276-14.489
		c2.42-2.261,5.434-3.884,7.451-5.286c-4.594-1.08-6.069-5.518-4.221-17.188c5.669,3.813,7.721,9.858,11.081,15.003
		c5.177,7.928,4.172,16.702,4.83,25.378c0.383,5.021,1.234,10.391,3.456,14.808c4.096,8.143,4.575,16.578,4.175,25.246
		c-0.094,2.013-0.887,4.57-2.294,5.829c-3.369,3.012-3.66,6.601-4.119,10.704c-0.455,4.073-1.799,8.404-4.02,11.795
		c-1.43,2.186-9.146,7.495-17.146,6.495s-11.161-1.195-13.292-3.031c-2.965-2.555-6.675-5.073-8.084-8.438
		c-3.39-8.088-5.981-16.566-8.154-25.076c-0.932-3.646-1.762-5.963-5.854-6.628C-35.637-9.841-35.737-15.105-35.056-14.712z"/>
</g>
<g id="F2">
	<g id="RedF2">
		
			<linearGradient id="SVGID_7_" gradientUnits="userSpaceOnUse" x1="6.0554" y1="532.1589" x2="6.0554" y2="952.5593" gradientTransform="matrix(1 0 0 -1 -0.0552 599.8589)">
			<stop  offset="0" style="stop-color:#EB5C16"/>
			<stop  offset="1" style="stop-color:#F68122"/>
		</linearGradient>
		<path style="fill:url(#SVGID_7_);" d="M-14.294-131.079c-5.291,1.416-7.271-1.718-9.066-6.07
			c-5.908-14.329-5.781-28.762-2.212-43.598c3.396-14.11,9.596-26.889,16.833-39.311c3.401-5.839,6.309-11.963,9.608-17.864
			c0.785-1.406,2.246-2.436,3.396-3.639c0.378,0.233,0.757,0.468,1.136,0.702c-1.588,5.474-3.175,10.946-4.449,15.342
			c2.627,1.191,5.211,1.6,6.569,3.11c7.336,8.15,15.146,16.083,18.883,26.729c1.417,4.033,2.913,8.404,2.756,12.561
			c-0.523,13.763,0.368,27.509-0.853,41.23c-0.369,4.15-2.223,7.846-7.146,7.757c-0.43,2.553-1.238,4.751-1.071,6.873
			c0.447,5.675,3.292,11.319,4.044,16.968c0.083,0.621,0.708,1.153,0.875,1.782c2.441,9.215-0.152,11.439,2.262,20.662
			c0.484,0.103,3.97-5.794,4.454-5.69c2.061-5.553,5.119-13.105,7.567-19.707c1.389,2.731,6.426,12.104,6.76,14.693
			c1.08,8.396-0.791,24.913,0.339,33.298c0.828,6.153,0.801,12.145,1.989,18.259c1.133,5.828,2.93,11.773,2.653,17.582
			c-0.883,18.58-4.644,36.708-13.12,53.384c-2.999,5.896-7.886,10.955-12.486,15.854c-1.708,1.819-13.021,8.085-32.766,6.159
			c-19.745-1.926-27.049-21.389-29.829-34.087c-2.877-13.136-2.581-26.087,1.631-38.904c0.309-0.939,0.685-1.972,0.587-2.915
			c-1.082-10.375,3.121-19.827,5.016-29.682c0.262-1.357-0.257-2.883-0.5-4.315c-0.945-5.562-4.494-14.091-4.77-19.683
			c-0.483-9.799-0.103-15.021,9.449-15.396C-22.821-104.777-13.46-121.934-14.294-131.079z"/>
		
			<linearGradient id="SVGID_8_" gradientUnits="userSpaceOnUse" x1="3.5789" y1="535.6433" x2="3.5788" y2="951.3062" gradientTransform="matrix(1 0 0 -1 -0.0552 599.8589)">
			<stop  offset="0" style="stop-color:#EB5C16"/>
			<stop  offset="1" style="stop-color:#F68122"/>
		</linearGradient>
		<path style="fill:url(#SVGID_8_);" d="M4.646-294.786c2.521-4.928,1.421-6.667-3.034-7.137c-2.184-0.229-4.791-1.866-6.123-3.668
			c-3.145-4.253-1.058-8.19,4.213-8.811c0.165-0.021,0.332-0.024,0.498-0.038c8.39-0.714,10.887,0.22,12.203,4.564
			C14.237-303.823,12.238-299.407,4.646-294.786z"/>
		
			<linearGradient id="SVGID_9_" gradientUnits="userSpaceOnUse" x1="18.2244" y1="535.6404" x2="18.2243" y2="951.3085" gradientTransform="matrix(1 0 0 -1 -0.0552 599.8589)">
			<stop  offset="0" style="stop-color:#EB5C16"/>
			<stop  offset="1" style="stop-color:#F68122"/>
		</linearGradient>
		<path style="fill:url(#SVGID_9_);" d="M18.349-253.696c-3.135-3.598-4.525-7.388-2.773-11.655c0.346-0.844,2.811-1.811,3.38-1.411
			C22.645-264.173,22.305-256.739,18.349-253.696z"/>
	</g>
	
		<linearGradient id="OraF2_1_" gradientUnits="userSpaceOnUse" x1="6.8074" y1="551.45" x2="6.8074" y2="885.322" gradientTransform="matrix(1 0 0 -1 -0.0552 599.8589)">
		<stop  offset="0" style="stop-color:#F8F95A"/>
		<stop  offset="1" style="stop-color:#F88243"/>
	</linearGradient>
	<path id="OraF2" style="fill:url(#OraF2_1_);" d="M-9.349-137.004c4.467,0.313,7.842-5.932,5.856-11.063
		c-3.061-7.912-6.069-15.852-9.443-23.629c-1.5-3.461-1.303-6.185,0.781-9.31c2.109-3.163,3.341-6.907,5.42-10.095
		c2.768-4.243,5.785-8.371,9.162-12.129c0.732-0.815,3.916-0.497,5.163,0.409c5.015,3.646,8.688,8.522,9.042,14.905
		c0.624,11.271,1.588,22.609-4.467,33.108c-1.614,2.798-2.121,6.305-2.769,9.56c-0.304,1.53-0.357,3.938,0.545,4.736
		c3.568,3.16,2.613,6.644,1.924,10.494c-0.385,2.143-0.362,5.227,0.887,6.645c5.398,6.13,5.376,13.752,6.771,21.031
		c1.094,5.709,2.23,11.418,3.643,17.054c0.356,1.428,1.857,3.62,2.802,3.604c1.47-0.025,3.538-1.303,4.256-2.639
		c2.79-5.193,5.147-10.618,8.161-17.01c1.146,4.384,2.591,7.94,2.929,11.601c0.703,7.618,0.558,15.313,1.281,22.93
		c0.416,4.382,1.895,8.657,2.818,12.997c1.194,5.612,3.396,11.266,3.271,16.857c-0.432,18.968-4.201,37.422-12.566,54.541
		c-2.766,5.657-7.062,10.896-11.676,15.244c-6.923,6.527-20.024,10.389-29.524,8.224c-25.056-5.711-24.733-19.874-28.05-35.168
		c-3.438-15.849-3.147-31.34,5.52-45.896c2.443-4.104,4.164-8.742,5.566-13.333c1.422-4.655,2.601-8.53-1.867-13.765
		c-5.988-7.015-6.2-16.979-4.255-26.237c0.75-3.569,3.448-5.206,7.225-4.112c2.046,0.592,4.047,1.345,6.205,2.071
		C-6.298-101.935-3.544-122.531-9.349-137.004z"/>
	<g id="YelF2">
		
			<linearGradient id="SVGID_10_" gradientUnits="userSpaceOnUse" x1="6.0837" y1="554.864" x2="6.0837" y2="843.5312" gradientTransform="matrix(1 0 0 -1 -0.0552 599.8589)">
			<stop  offset="0" style="stop-color:#EBFA27"/>
			<stop  offset="1" style="stop-color:#F6FF7C"/>
		</linearGradient>
		<path style="fill:url(#SVGID_10_);" d="M3.165-94.987c15.531,13.108,17.87,24.588,27.75,41.799
			c6.75-17.5,13.231,7.068,13.84,10.449c2.453,13.635,2.765,26.818-0.117,39.978c-2.644,12.074-6.062,20.016-13.854,29.858
			c-3.043,3.846-8.57,8.799-12.938,11.229c-3.961,2.205-10.479,3.512-24.58-0.002c-14.101-3.514-23.334-15.137-25.737-26.085
			c-3.586-16.341-3.304-32.139,5.299-47.354c3.947-6.984,6.938-14.823,8.57-22.649c0.66-3.163,2.016-4.447,3.641-6.479
			c2.791-3.487,4.963-7.465,7.611-11.076C-4.363-79.393,0.232-91.254,3.165-94.987z"/>
		
			<linearGradient id="SVGID_11_" gradientUnits="userSpaceOnUse" x1="2.1511" y1="554.2937" x2="2.1511" y2="827.7137" gradientTransform="matrix(1 0 0 -1 -0.0552 599.8589)">
			<stop  offset="0" style="stop-color:#EBFA27"/>
			<stop  offset="1" style="stop-color:#F6FF7C"/>
		</linearGradient>
		<path style="fill:url(#SVGID_11_);" d="M3.789-199.254c11.556,8.584,15.06,19.941,11.23,33.942
			c-3.224-4.572-6.331-8.979-9.847-13.963c-6.361,9.898-12.324,18.678-7.628,30.605c-0.663-0.034-1.325-0.067-1.988-0.102
			c-1.816-4.71-3.022-9.788-5.59-14.046c-4.252-7.055-2.018-12.521,2.265-18.393C-3.644-186.863-0.177-192.998,3.789-199.254z"/>
	</g>
	
		<linearGradient id="WhiF2_1_" gradientUnits="userSpaceOnUse" x1="8.0662" y1="558.5066" x2="8.0662" y2="720.823" gradientTransform="matrix(1 0 0 -1 -0.0552 599.8589)">
		<stop  offset="0" style="stop-color:#FEFDF6"/>
		<stop  offset="1" style="stop-color:#FAF874"/>
	</linearGradient>
	<path id="WhiF2" style="fill:url(#WhiF2_1_);" d="M-8.938-62.702c0.778,1.126,1.558,2.252,3.317,4.798
		c3.474-10.351,0.31-21.725,8.873-29.017c0.243,0.134,0.742,0.269,0.754,0.438c0.604,8.129,5.271,13.997,10.256,20.002
		c4.948,5.962,8.317,13.269,13.443,19.041c10.548,11.878,8.197,26.388,8.247,39.938c0.043,12.104-6.414,22.914-12.841,33.156
		c-0.792,1.262-1.673,2.525-2.744,3.543c-4,3.802-19.712,6.055-21.452,0.854c-1.043-3.116-11.589-5.165-15.532-15.301
		c-4.555-11.708-4.714-23.273-0.21-35.441c3.111-8.406,3.787-17.75,5.218-26.729c0.796-4.994,0.91-10.098,1.331-15.151
		C-9.832-62.614-9.385-62.658-8.938-62.702z"/>
</g>
<g id="F3">
	<g id="RedF3">
		
			<linearGradient id="SVGID_12_" gradientUnits="userSpaceOnUse" x1="1.4695" y1="527.1814" x2="1.4695" y2="942.871" gradientTransform="matrix(1 0 0 -1 -0.0552 599.8589)">
			<stop  offset="0" style="stop-color:#EB5C16"/>
			<stop  offset="1" style="stop-color:#F68122"/>
		</linearGradient>
		<path style="fill:url(#SVGID_12_);" d="M7.599-298.691c-2.991,1.448-4.883,3.149-6.696,3.07c-3.113-0.136-6.389-2.023-5.535-5.562
			c0.514-2.133,3.563-3.655,5.476-5.451C2.793-304.34,4.745-302.046,7.599-298.691z"/>
		
			<linearGradient id="SVGID_13_" gradientUnits="userSpaceOnUse" x1="34.5886" y1="530.2136" x2="34.5886" y2="945.8663" gradientTransform="matrix(1 0 0 -1 -0.0552 599.8589)">
			<stop  offset="0" style="stop-color:#EB5C16"/>
			<stop  offset="1" style="stop-color:#F68122"/>
		</linearGradient>
		<path style="fill:url(#SVGID_13_);" d="M37.751-104.964c-0.616,3.438-0.883,5.922-1.565,8.284
			c-0.305,1.054-1.447,1.865-2.209,2.787c-0.758-0.771-2.062-1.47-2.172-2.322c-0.367-2.877-0.765-5.896-0.223-8.682
			c0.273-1.408,2.541-2.43,3.906-3.625C36.361-107.15,37.232-105.78,37.751-104.964z"/>
		
			<linearGradient id="SVGID_14_" gradientUnits="userSpaceOnUse" x1="3.302" y1="526.9441" x2="3.302" y2="942.968" gradientTransform="matrix(1 0 0 -1 -0.0552 599.8589)">
			<stop  offset="0" style="stop-color:#EB5C16"/>
			<stop  offset="1" style="stop-color:#F68122"/>
		</linearGradient>
		<path style="fill:url(#SVGID_14_);" d="M48.415-18.948c-2.667-10.322-3.108-22.723-0.326-40.009
			c0.892-5.542,0.654-12.147,1.511-16.355c-1.113,1.012-4.076,1.931-4.728,2.52c-4.954-4.479,1.638-6.445-2.733-10.452
			c-0.463-0.425-13.87-6.045-14.027-6.646c-1.147-4.383-5.114-4.905-7.095-8.858c-3.212-6.413,2.063-11.495-1.634-17.676
			c-1.022-1.711-1.473-3.764-2.465-6.399c-4.138-0.579-10.309-2.299-8.957-7.397c-2.393,2.633-2.614,1.979-3.937,3.433
			C2.09-130.932,4-137.939,7.06-138.217c0.518,1.036,3.067,1.144,4.174,3.36c7.689-6.716,13.293-11.471,14.948-21.312
			c3.274-19.466-0.312-38.211-8.238-56.004c-2.48-5.571-6.88-10.418-10.984-15.083c-2.116-2.403-5.529-3.295-8.956-0.57
			c0.994,0.712,1.717,1.111,2.297,1.661c2.961,2.807,5.178,11.511,3.042,14.423c-1.729,2.356-4.642,3.82-6.929,5.797
			c-5.688,4.909-8.815,11.457-9.375,18.643c-0.228,2.901-0.579,5.14-1.953,7.671c-5.28,9.724-7.293,20.037-3.672,30.783
			c0.758,2.248,2.922,5.172,4.85,5.521c1.626,0.297,3.904-2.625,5.78-4.254c0.695-0.604,1.069-1.581,1.604-2.409
			c0.369,2.253-0.031,5.226,1.173,6.187c4.306,3.435,2.856,6.688,0.889,10.451c-1.615,3.089-3.093,6.312-4.117,9.636
			c-3.12,10.116-4.991,9.311-7.814,18.976c-0.88-1.391-2.856,1.675-4.192,0.03c-3.421-4.209-8.813,1.923-11.896,6.153
			c-2.741,3.759-2.846,15.725-0.062,20.088c1.959-1.22,1.921-6.44,3.884-7.661c0.416,0.308,0.832,4.613,1.248,4.92
			c-0.886,2.745-1.791,5.483-2.646,8.237c-0.385,1.236,0.66,2.878,1.114,3.695c2.619,4.709-5.865,7.069-8.855,10.366
			c-9.428,10.391-3.975,25.08-3.274,37.955c0.719,13.254,2.762,26.47,4.812,39.608c1.876,12.019,6.427,22.702,17.654,29.33
			c8.354,4.932,29.484,3.412,33.383,0.762c4.652-3.163,9.503-6.165,13.646-9.921c13.88-12.58,19.17-28.296,18.174-45.849
			C46.551-10.758,48.295-15.425,48.415-18.948z"/>
	</g>
	<g id="OraF3">
		
			<linearGradient id="SVGID_15_" gradientUnits="userSpaceOnUse" x1="3.1433" y1="547.9656" x2="3.1433" y2="875.4205" gradientTransform="matrix(1 0 0 -1 -0.0552 599.8589)">
			<stop  offset="0" style="stop-color:#F8F95A"/>
			<stop  offset="1" style="stop-color:#F88243"/>
		</linearGradient>
		<path style="fill:url(#SVGID_15_);" d="M-18.794,40.2c-6.812-4.764-11.515-11.055-13.395-19.173
			c-4.287-18.519-7.038-37.312-6.316-56.304c0.267-7.04,3.256-14.07,5.636-20.886c0.839-2.4,3.282-4.529,5.475-6.121
			c9.542-6.921,15.582-16.275,19.049-27.295c0.657-2.092-0.145-5.14-1.277-7.19c-2.188-3.957-3.144-17.104-0.496-20.271
			c0.787-0.942,2.91-0.897,4.446-1.06c2.71-0.283,5.723,0.298,8.098-0.699c4.264-1.79,8.014-1.297,12.013,0.434
			c3.993,1.728,4.634,4.548,2.843,8.065c-1.428,2.807-3.352,5.356-4.876,8.12c-2.512,4.557-1.781,7.46,2.927,9.79
			c3.245,1.606,6.793,2.7,10.307,3.649c10.235,2.765,15.123,8.104,16.589,18.727c1.498,10.848,0.771,21.491-2.387,32.065
			c-1.997,6.688-2.082,13.36,2.986,19.291c1.357,1.589,2.135,4.356,1.94,6.471c-0.739,8.07-1.233,16.281-3.2,24.094
			C37.969,26.201,27.869,35.399,15.28,42.2C11.694,44.137-10.046,46.317-18.794,40.2z"/>
		
			<linearGradient id="SVGID_16_" gradientUnits="userSpaceOnUse" x1="9.3425" y1="548.2136" x2="9.3425" y2="875.197" gradientTransform="matrix(1 0 0 -1 -0.0552 599.8589)">
			<stop  offset="0" style="stop-color:#F8F95A"/>
			<stop  offset="1" style="stop-color:#F88243"/>
		</linearGradient>
		<path style="fill:url(#SVGID_16_);" d="M19.229-173.154c-1.415-2.229-2.83,4.541-4.244,2.312c-0.535,0.22-1.071-3.561-1.606-3.34
			c-1.217,3.168-2.442,1.333-3.647,4.506c-1.368,3.601-1.551,2.459-5.025,1.196c-11.396-4.143-5.464-13.517-6.562-20.5
			c-0.344-2.188,3.217-5.33,5.502-7.494c2.288-2.166,5.217-3.656,8.584-5.928c6.998,7.781,8.465,17.746,8.787,28.085
			C20.421-173.93,19.825-173.542,19.229-173.154z"/>
		
			<linearGradient id="SVGID_17_" gradientUnits="userSpaceOnUse" x1="-25.051" y1="548.2087" x2="-25.051" y2="875.205" gradientTransform="matrix(1 0 0 -1 -0.0552 599.8589)">
			<stop  offset="0" style="stop-color:#F8F95A"/>
			<stop  offset="1" style="stop-color:#F88243"/>
		</linearGradient>
		<path style="fill:url(#SVGID_17_);" d="M-32.371-94.476c2.44-1.9,4.024-3.445,5.888-4.497c2.027-1.146,4.283-2.302,6.505-2.446
			c0.707-0.046,2.447,3.204,2.304,4.82c-0.662,7.442-1.123,15.131-8.479,19.959c0.977-3.112,2.081-6.191,2.889-9.348
			c0.78-3.054-0.444-4.347-3.712-3.807C-32.691-88.849-32.855-89.099-32.371-94.476z"/>
	</g>
	<g id="YelF3">
		
			<linearGradient id="SVGID_18_" gradientUnits="userSpaceOnUse" x1="3.1174" y1="545.2888" x2="3.1174" y2="839.1829" gradientTransform="matrix(1 0 0 -1 -0.0552 599.8589)">
			<stop  offset="0" style="stop-color:#EBFA27"/>
			<stop  offset="1" style="stop-color:#F6FF7C"/>
		</linearGradient>
		<path style="fill:url(#SVGID_18_);" d="M-37.949-29.286c0.596,1.073,1.191,2.146,1.961,3.529
			c5.867-14.723,14.562-26.848,25.512-37.476c3.334-3.235,6.209-6.94,9.359-10.37C2.119-77.125,4.44-88.853,7.774-85.5
			c5.879,5.913,26.761,17.75,24.682,38.852c-0.377,3.826,0.979,7.644,1.403,11.477c-0.58,0.169,0.334,12.541,3.093,14.854
			c-0.57,5.418,2.614,2.657,6.6,8.534c1.854,2.739,1.354,7.406,1.152,11.158c-1.037,19.419-13.488,35.296-30.8,45.591
			c-7.176,4.268-23.041,4.895-27.971,2.464c-8.791-4.337-15.342-11.078-17.35-20.708c-2.604-12.496-4.217-25.208-5.97-37.867
			c-0.817-5.901-0.959-11.896-1.407-17.85C-38.512-29.094-38.23-29.189-37.949-29.286z"/>
		
			<linearGradient id="SVGID_19_" gradientUnits="userSpaceOnUse" x1="10.1794" y1="547.8591" x2="10.1794" y2="821.2739" gradientTransform="matrix(1 0 0 -1 -0.0552 599.8589)">
			<stop  offset="0" style="stop-color:#EBFA27"/>
			<stop  offset="1" style="stop-color:#F6FF7C"/>
		</linearGradient>
		<path style="fill:url(#SVGID_19_);" d="M12.791-198.103c3.709,7.275,7.463,13.964,6.91,22.089
			c-0.992,0.226-1.488,0.463-1.597,0.346c-4.309-10.729-8.227-7.417-11.719-4.074c-2.297,2.199-6.322,2.995-5.855-0.408
			c0.281-2.053,1.099-4.253,2.322-5.906C5.758-189.982,9.049-193.621,12.791-198.103z"/>
	</g>
	
		<linearGradient id="WhiF3_1_" gradientUnits="userSpaceOnUse" x1="7.8289" y1="544.8269" x2="7.8288" y2="714.2982" gradientTransform="matrix(1 0 0 -1 -0.0552 599.8589)">
		<stop  offset="0" style="stop-color:#FEFDF6"/>
		<stop  offset="1" style="stop-color:#FAF874"/>
	</linearGradient>
	<path id="WhiF3" style="fill:url(#WhiF3_1_);" d="M27-36.5c-0.385,1.439-1.13,8.036-1,9c0.966,7.199,4.748,14.664,8.74,21.159
		c1.54,2.508,2.594,6.147,2.078,8.942c-2.137,11.604-6.25,22.43-15.224,30.746c-4.33,4.014-11.867,12.354-15.845,8.187
		c-0.689-0.723-2,1.136-9-3.045c-4.512,4.846-10.997-3.126-13.663-9.051c-3.927-8.728-5.808-17.667-3.458-27.223
		c0.461-1.877,0.468-4.042,0.043-5.931c-1.856-8.261,0.907-16.144,1.423-24.194c0.908-14.155,8.285-24.562,16.667-34.811
		c1.788-2.187,3.265-4.624,4.953-6.895c1.734-2.331,3.345-2.519,5.731-0.369c3.012,2.71,6.629,4.733,9.862,7.212
		c4.728,3.621,8.505,7.628,9.956,13.985C29.724-42.393,29.914-34.439,27-36.5z"/>
</g>
<g id="F4">
	<g id="RedF4">
		
			<linearGradient id="SVGID_20_" gradientUnits="userSpaceOnUse" x1="1.7292" y1="527.3181" x2="1.7292" y2="945.1062" gradientTransform="matrix(1 0 0 -1 -0.0552 599.8589)">
			<stop  offset="0" style="stop-color:#EB5C16"/>
			<stop  offset="1" style="stop-color:#F68122"/>
		</linearGradient>
		<path style="fill:url(#SVGID_20_);" d="M3.339,51c-8.656,0.973-21.041-2.189-24.94-4.999
			C-32.58,38.095-45.756,15.325-41.331-3.561c1.449-6.189,0.986-12.816,2.335-19.04c1.746-8.06,4.429-15.913,6.713-23.854
			c0.045-0.155,0.197-0.287,0.226-0.441c0.986-5.562,2.281-11.095,2.849-16.698c0.507-5.016-0.296-10.181,0.369-15.16
			c1.521-11.391-2.001-17.969,6.936-23.079c-2.748-2.373,6.247-3.747,9.16-4.912c2.115-0.846,4.012-2.232,6.021-3.349
			c3.391-1.878,6.518-5.884,10.27-2.067c2.489,2.531,3.874-0.079,4.235-2.312c0.36-2.237,0.078-2.579,0.078-5.918
			c2.593,1.743,5.219,3,7.185,4.93c4.946,4.856,10.269,9.543,14.215,15.159c7.082,10.081,2.4,20.384-0.732,30.603
			c-0.897,2.932-1.96,12.47-1.271,15.469c2.04,8.86,10.624,11.598,13.04,20.371c1.871,6.794,3.521,13.46,4.586,20.374
			c3.052,19.851-4.54,38.432-16.588,54.904c-1.651,2.259-3.793,4.205-5.909,6.068C17.479,51.802,11.995,50.028,3.339,51z"/>
		
			<linearGradient id="SVGID_21_" gradientUnits="userSpaceOnUse" x1="0.1199" y1="528.3044" x2="0.1197" y2="943.9572" gradientTransform="matrix(1 0 0 -1 -0.0552 599.8589)">
			<stop  offset="0" style="stop-color:#EB5C16"/>
			<stop  offset="1" style="stop-color:#F68122"/>
		</linearGradient>
		<path style="fill:url(#SVGID_21_);" d="M13.036-232.214c-0.893,10.004,1.851,17.312,6.394,24.916
			c3.134,5.245,2.531,12.756,3.458,19.273c0.459,3.229,0.601,6.503,0.953,10.54c-2.404,5.863-5.478,12.783-8.071,19.88
			c-1.737,4.758-7.209,9-12.896,9.15c-5.053,0.135-8.033,3.457-7.072,8.291c0.677,3.404,1.851,6.709,2.537,9.129
			c-2.276,2.888-4.416,5.124-5.995,7.704c-2.98,4.871-6.242,5.229-8.677,0.022c-2.94-6.287-5.5-12.887-7.114-19.617
			c-1.358-5.661,2.75-9.617,6.94-12.876c2.487-1.934,6.235-3.087,7.44-5.557c0.914-1.873-1.589-5.221-2.051-7.997
			c-1.215-7.309-2.812-14.65-2.952-22.004c-0.091-4.763,1.33-9.955,3.461-14.27c4.005-8.104,7.359-16.909,15.576-22.104
			C7.306-229.209,9.805-230.43,13.036-232.214z"/>
	</g>
	<g id="OraF4">
		
			<linearGradient id="SVGID_22_" gradientUnits="userSpaceOnUse" x1="2.1833" y1="544.8464" x2="2.1833" y2="880.97" gradientTransform="matrix(1 0 0 -1 -0.0552 599.8589)">
			<stop  offset="0" style="stop-color:#F8F95A"/>
			<stop  offset="1" style="stop-color:#F88243"/>
		</linearGradient>
		<path style="fill:url(#SVGID_22_);" d="M7.01-108.959c1.241,1.143,2.816,2.828,4.624,4.211c6.305,4.823,12.756,9.46,18.963,14.402
			c0.789,0.628,0.965,2.816,0.572,4c-1.718,5.189-3.514,10.38-5.718,15.377c-4.647,10.534-3.976,20.351,3.252,29.495
			c0.812,1.027,1.656,2.38,2.769,2.76c5.588,1.906,7.286,6.562,8.29,11.543c4.335,21.506,4.781,42.141-8.386,60.564
			c-2.701,3.778-8.624,10.881-12.489,13.567c-2.859,1.988-31.466,1.991-37.342-2.844c-5.769-4.745-11.067-14.654-14.885-21.059
			c-4.786-10.438-8.797-33.861,1.861-50.314c3.517-5.428,6.657-11.105,9.798-16.766c2.624-4.728,2.671-9.562-0.319-14.203
			c-7.728-11.993-6.362-24.272-1.416-36.777c2.355-5.959,8.83-9.446,16.184-8.973C-2.422-103.663,2.556-107.942,7.01-108.959z"/>
		
			<linearGradient id="SVGID_23_" gradientUnits="userSpaceOnUse" x1="6.5339" y1="549.3044" x2="6.5339" y2="876.2878" gradientTransform="matrix(1 0 0 -1 -0.0552 599.8589)">
			<stop  offset="0" style="stop-color:#F8F95A"/>
			<stop  offset="1" style="stop-color:#F88243"/>
		</linearGradient>
		<path style="fill:url(#SVGID_23_);" d="M10.399-183.063c-2.845-2.213-6.271-3.996-8.329-6.789
			c-1.356-1.842-1.586-5.439-0.769-7.688c0.743-2.041,3.583-3.318,5.499-4.934c1.521,1.957,3.932,3.731,4.374,5.908
			c0.889,4.367,0.701,8.953,0.958,13.449C11.556-183.098,10.978-183.081,10.399-183.063z"/>
		
			<linearGradient id="SVGID_24_" gradientUnits="userSpaceOnUse" x1="-12.5413" y1="549.3044" x2="-12.5413" y2="876.2878" gradientTransform="matrix(1 0 0 -1 -0.0552 599.8589)">
			<stop  offset="0" style="stop-color:#F8F95A"/>
			<stop  offset="1" style="stop-color:#F88243"/>
		</linearGradient>
		<path style="fill:url(#SVGID_24_);" d="M-13.775-152.511c5.271,3.039,5.678,6.627,4.048,10.423c-0.562,1.31-2.562,2-3.904,2.974
			c-0.953-1.553-2.779-3.165-2.675-4.643C-16.108-146.534-14.796-149.231-13.775-152.511z"/>
	</g>
	
		<linearGradient id="YelF4_1_" gradientUnits="userSpaceOnUse" x1="2.4695" y1="549.2849" x2="2.4695" y2="831.5406" gradientTransform="matrix(1 0 0 -1 -0.0552 599.8589)">
		<stop  offset="0" style="stop-color:#EBFA27"/>
		<stop  offset="1" style="stop-color:#F6FF7C"/>
	</linearGradient>
	<path id="YelF4" style="fill:url(#YelF4_1_);" d="M13.794-98.364c-0.316,1.862-2.339,10.168-2.769,11.321
		c-2.136,5.764,0.126,8.16,4.886,13.288c1.225,1.32-1.185,10.33-1.782,12.047c-2.45,7.021-0.462,7.821,3.723,10.618
		c3.876,2.591,5.517,5.738,7.234,9.521c1.193,2.632,2.67,6.021,4.955,7.109c7.592,3.616,5.353,10.016,6.494,17.386
		c3.07,19.843,0.675,38.545-11.182,55.229c-2.526,3.558-6.076,4.559-9.63,7.168c-3.039,2.23-24.102-0.841-29.851-5.562
		c-5.774-4.743-8.098-5.66-11.878-12.088c-4.917-8.356-9.861-42.52-4.779-50.345c4.95-7.622,10.671-14.944,12.021-24.44
		c0.2-1.407,1.729-2.834,2.976-3.844c3.538-2.865,0.076-8.514-2.587-11.672C-26.43-72.173-17.423-93.24-6.79-94.893
		C-3.022-95.478,9.498-96.651,13.794-98.364z"/>
	
		<linearGradient id="WhiF4_1_" gradientUnits="userSpaceOnUse" x1="0.3528" y1="552.95" x2="0.3528" y2="712.9999" gradientTransform="matrix(1 0 0 -1 -0.0552 599.8589)">
		<stop  offset="0" style="stop-color:#FEFDF6"/>
		<stop  offset="1" style="stop-color:#FAF874"/>
	</linearGradient>
	<path id="WhiF4" style="fill:url(#WhiF4_1_);" d="M8.604-91.196c-0.811,2.074-1.45,3.532-1.954,5.035
		c-1.541,4.607-2.076,9.022,1.553,13.136c2.914,3.302,2.653,7.169,1.731,11.324c-1.324,5.975-2.16,12.066-2.953,18.143
		c-0.554,4.232,0.771,8.059,4.292,10.617c9.539,6.93,13.36,17.041,15.9,27.902c0.337,1.44,0.655,3.007,0.445,4.436
		c-1.356,9.207-2.675,18.428-4.386,27.573c-1.123,6.001-2.304,6.474-8.042,4.915c-0.614-0.166-1.364-0.203-1.96-0.013
		c-3.632,1.169-7.996,5.514-15.527,5.524c-7.532,0.011-8.638-6.321-12.604-9.76c-1.576-1.365-2.468-3.588-3.464-5.526
		c-0.512-0.998-0.442-2.279-0.851-3.351c-2.279-5.974-4.908-11.829-6.88-17.899c-2.733-8.423,0.521-15.805,5.494-22.303
		c3.217-4.2,7.422-7.638,11.151-11.447c6.521-6.66,7.249-15.031,1.935-22.69c-1.519-2.188-3.048-4.406-4.855-6.348
		c-8.207-8.806-1.376-20.143,5.931-23.862C-1.96-88.069,3.076-89.256,8.604-91.196z"/>
</g>
<g id="F5">
	<g id="RedF5">
		
			<linearGradient id="SVGID_25_" gradientUnits="userSpaceOnUse" x1="1.7263" y1="525.5916" x2="1.7263" y2="943.2483" gradientTransform="matrix(1 0 0 -1 -0.0552 599.8589)">
			<stop  offset="0" style="stop-color:#EB5C16"/>
			<stop  offset="1" style="stop-color:#F68122"/>
		</linearGradient>
		<path style="fill:url(#SVGID_25_);" d="M20.416-76.873c0.424,0.052,2.849,4.103,3.272,4.152
			c0.675-3.938,7.352-15.878,8.025-19.817c6.749,10.753,11.863,32.905,7.376,45.046c-2.366,6.404,3.978,15.427,7.898,20.916
			c5.744,8.042,0.763,18.938-0.589,28.635c-2.325,16.704-9.84,32.24-22.719,44.119c-1.823,1.681-3.768,3.344-5.924,4.527
			c-5.826,3.201-35.884,4.696-42.898-2.137c-9.437-9.191-14.521-20.899-16.698-33.417c-2.211-12.712-2.669-25.75-3.463-38.672
			c-0.181-2.953-1.617-6.024-0.797-9.025c0.522-1.908,0.613-3.773,0.66-5.68c0.188-7.562,2.372-16.948,6.916-22.563
			c3.199-3.953,9.268-5.06,8.934-9.927c-0.142-2.06,0.41-4.166,0.67-6.447c-9.242-6.542-11.562-16.794-5.598-31.302
			c4.886-11.881,12.17-22.834,18.953-33.852c3.783-6.146,8.715-11.581,13.774-17.283c-2.016,9.866,3.987,14.956,10.47,19.981
			c6.164,4.78,12.338,9.613,17.994,14.966c7.457,7.055,7.379,15.929,0.463,23.493C25.343-99.195,19.337-85.331,20.416-76.873z"/>
		
			<linearGradient id="SVGID_26_" gradientUnits="userSpaceOnUse" x1="-10.6599" y1="529.7234" x2="-10.6601" y2="945.3627" gradientTransform="matrix(1 0 0 -1 -0.0552 599.8589)">
			<stop  offset="0" style="stop-color:#EB5C16"/>
			<stop  offset="1" style="stop-color:#F68122"/>
		</linearGradient>
		<path style="fill:url(#SVGID_26_);" d="M0.884-224.144c-13.407-6.722-16.476,3.3-21.284,10.276
			c-4.852-11.194-0.089-24.964,9.864-29.302c4.559-1.984,7.705-1.209,9.151,3.494C0.014-235.131,0.069-230.172,0.884-224.144z"/>
		
			<linearGradient id="SVGID_27_" gradientUnits="userSpaceOnUse" x1="6.303" y1="525.7224" x2="6.3028" y2="941.3626" gradientTransform="matrix(1 0 0 -1 -0.0552 599.8589)">
			<stop  offset="0" style="stop-color:#EB5C16"/>
			<stop  offset="1" style="stop-color:#F68122"/>
		</linearGradient>
		<path style="fill:url(#SVGID_27_);" d="M2.936-173.422c-0.714-11.145-1.396-21.791-2.078-32.439
			c6.077-0.473,11.735,3.854,10.645,9.944c-1.29,7.198-4.434,14.069-6.868,21.049C4.418-174.25,3.494-173.879,2.936-173.422z"/>
		
			<linearGradient id="SVGID_28_" gradientUnits="userSpaceOnUse" x1="-24.9211" y1="529.7146" x2="-24.9212" y2="945.3673" gradientTransform="matrix(1 0 0 -1 -0.0552 599.8589)">
			<stop  offset="0" style="stop-color:#EB5C16"/>
			<stop  offset="1" style="stop-color:#F68122"/>
		</linearGradient>
		<path style="fill:url(#SVGID_28_);" d="M-20.259-175.334c-2.68,10.668-2.68,10.668-0.4,23.287
			c-3.744-0.118-8.23-5.332-8.962-10.415C-30.312-167.261-25.926-173.29-20.259-175.334z"/>
	</g>
	
		<linearGradient id="OraF5_1_" gradientUnits="userSpaceOnUse" x1="0.0579" y1="547.8689" x2="0.0578" y2="874.5833" gradientTransform="matrix(1 0 0 -1 -0.0552 599.8589)">
		<stop  offset="0" style="stop-color:#F8F95A"/>
		<stop  offset="1" style="stop-color:#F88243"/>
	</linearGradient>
	<path id="OraF5" style="fill:url(#OraF5_1_);" d="M-10.836,44.89c-5.016,0.913-9.747,0.624-13.695-3.64
		C-32.6,32.54-37.443,22.064-39.58,10.766c-2.309-12.205-3.202-24.722-3.979-37.147c-0.253-4.046,1.813-8.233,2.807-12.36
		c0.618-2.572,1.562-5.128,1.748-7.733c0.5-7.033,4.324-12.337,8.733-17.656c0.569,9.646-3.521,19.528,2.267,30.051
		c2.003-2.457,4.207-4.104,4.953-6.255c3.812-10.987,7.476-22.041,10.729-33.206c1.801-6.182,0.049-8.335-6.39-9.787
		c-12.238-2.762-12.152-2.705-5.17-13.414c1.374-2.105,2.498-4.836,2.494-7.276c-0.005-4.146,1.521-7.178,4.751-9.326
		c6.532-4.345,8.967-10.906,10.271-18.138c0.87-4.825,2.479-5.694,6.675-3.232c5.862,3.441,8.813,8.002,8.854,15.448
		c0.023,4.304,3.763,8.763,6.376,12.797c1.15,1.777,3.665,2.672,4.804,3.45c-3.337,5.705-7.312,10.926-9.604,16.803
		c-3.142,8.054,1.569,17.507,9.446,21.291c4.275,2.055,6.765,1.402,8.169-3.104c1.616-5.187,2.438-10.62,3.518-15.551
		c5.3,6.725,7.258,24.672,1.062,34.115c-3.992,6.084-4.053,9.157,0.918,14.278C44.5-24.217,44.744-11.556,42.354,2.437
		c-2.47,14.46-7.827,27.068-18.439,37.27c-1.666,1.602-3.511,3.134-5.524,4.233C12.531,47.138-5.865,43.985-10.836,44.89z"/>
	<g id="YelF5">
		
			<linearGradient id="SVGID_29_" gradientUnits="userSpaceOnUse" x1="0.7253" y1="545.8875" x2="0.7253" y2="818.2112" gradientTransform="matrix(1 0 0 -1 -0.0552 599.8589)">
			<stop  offset="0" style="stop-color:#EBFA27"/>
			<stop  offset="1" style="stop-color:#F6FF7C"/>
		</linearGradient>
		<path style="fill:url(#SVGID_29_);" d="M43.758-5.323c-1.534,18.705-4.334,28.366-18.835,41.753
			c-1.578,1.457-6.264,8.89-8.123,9.934c-6.271,3.522-23.57,2.268-27.632,3.174c-4.55,1.017-9.002-2.312-12.515-5.8
			c-8.812-8.748-13.279-16.864-15.987-28.613c-1.744-7.57-2.555-15.415-3.07-23.185c-0.188-2.823,1.421-5.91,2.699-8.649
			c1.325-2.842,3.148-5.473,4.928-8.078c1.749-2.562,2.631-6.132,7.34-5.169c1.149,0.235,3.386-2.46,4.352-4.229
			c1.744-3.193,2.878-6.718,4.326-10.078c0.88-2.039,0.531-5.254,4.462-4.569c0.41,0.071,1.377-2.058,1.812-3.265
			c2.503-6.948,4.745-13.996,7.483-20.848c0.764-1.914,3.229-4.798,4.346-4.561c1.999,0.425,4.178,2.575,5.168,4.562
			c1.454,2.914,2.221,6.269,2.77,9.521C9.24-51.82,17.73-45.302,25.867-38.187C35.777-29.52,43.938-19.548,43.758-5.323z"/>
		
			<linearGradient id="SVGID_30_" gradientUnits="userSpaceOnUse" x1="-5.7517" y1="545.3591" x2="-5.7517" y2="818.7739" gradientTransform="matrix(1 0 0 -1 -0.0552 599.8589)">
			<stop  offset="0" style="stop-color:#EBFA27"/>
			<stop  offset="1" style="stop-color:#F6FF7C"/>
		</linearGradient>
		<path style="fill:url(#SVGID_30_);" d="M7.914-116.154c-0.917,7.217-1.602,13.672-2.602,20.076
			c-0.636,4.07-3.218,5.748-7.25,4.361c-4.557-1.568-9.211-2.989-13.528-5.082c-4.791-2.322-5.456-6.224-1.394-9.441
			c5.437-4.305,9.105-9.352,11.308-15.975c0.738-2.227,4.39-4.957,6.536-4.816c2.019,0.132,4.102,3.562,5.594,5.897
			C7.586-119.552,7.622-117.35,7.914-116.154z"/>
	</g>
	
		<linearGradient id="WhiF5_1_" gradientUnits="userSpaceOnUse" x1="0.4978" y1="551.3601" x2="0.4978" y2="711.4086" gradientTransform="matrix(1 0 0 -1 -0.0552 599.8589)">
		<stop  offset="0" style="stop-color:#FEFDF6"/>
		<stop  offset="1" style="stop-color:#FAF874"/>
	</linearGradient>
	<path id="WhiF5" style="fill:url(#WhiF5_1_);" d="M2.823-60.091c1.915,5.272,3.765,10.569,5.765,15.811
		c2.145,5.618,2.729,5.825,8.26,3.643c0.284,0.156,0.811,0.31,0.813,0.477c0.289,11.493,9.854,19,12.474,29.803
		c3.255,13.429,1.625,25.332-5.33,36.792c-2.227,3.669-4.825,7.232-7.826,10.281c-4.372,4.442-9.854,3.361-13.042-2.094
		c-0.333-0.571-7.707,0.104-7.704,0.095c-3.259,0-6.265-0.567-8.959,0.107c-7.971,1.998-11.726,0.037-13.451-7.933
		c-1.652-7.641-3.573-15.264-4.519-22.998c-0.548-4.482,0.396-9.2,1.053-13.756c0.462-3.193,1.655-6.216,5.734-6.428
		c0.305-0.017,0.752-0.196,0.874-0.434c4.33-8.466,14.236-12.442,17.593-21.601c2.611-7.125,4.763-14.419,7.118-21.638
		C2.059-60.005,2.44-60.048,2.823-60.091z"/>
</g>
<g id="F6">
	<g id="RedF6">
		
			<linearGradient id="SVGID_31_" gradientUnits="userSpaceOnUse" x1="-6.1106" y1="526.1941" x2="-6.1106" y2="941.8729" gradientTransform="matrix(1 0 0 -1 -0.0552 599.8589)">
			<stop  offset="0" style="stop-color:#EB5C16"/>
			<stop  offset="1" style="stop-color:#F68122"/>
		</linearGradient>
		<path style="fill:url(#SVGID_31_);" d="M-3.423-241.973c-2.642-3.316-5.573-5.975-7.006-9.283
			c-0.608-1.407,1.799-4.266,3.199-6.201c0.164-0.225,3.442,0.888,3.94,1.984C-1.327-251.147-1.252-246.642-3.423-241.973z"/>
		
			<linearGradient id="SVGID_32_" gradientUnits="userSpaceOnUse" x1="-25.2991" y1="526.2341" x2="-25.2991" y2="941.8535" gradientTransform="matrix(1 0 0 -1 -0.0552 599.8589)">
			<stop  offset="0" style="stop-color:#EB5C16"/>
			<stop  offset="1" style="stop-color:#F68122"/>
		</linearGradient>
		<path style="fill:url(#SVGID_32_);" d="M-29.781-169.078c1.972-4.574,3.549-8.395,5.372-12.093
			c0.12-0.242,2.861,0.125,3.136,0.753C-19.655-176.71-23.911-170.07-29.781-169.078z"/>
		
			<linearGradient id="SVGID_33_" gradientUnits="userSpaceOnUse" x1="6.8425" y1="526.2136" x2="6.8425" y2="941.8663" gradientTransform="matrix(1 0 0 -1 -0.0552 599.8589)">
			<stop  offset="0" style="stop-color:#EB5C16"/>
			<stop  offset="1" style="stop-color:#F68122"/>
		</linearGradient>
		<path style="fill:url(#SVGID_33_);" d="M1.103-102.77c3.912-0.926,7.988-1.893,12.064-2.856c1.449-0.593,3.683-0.11,4.554-0.986
			c10.959-10.998,19.578-23.46,23.16-38.883c1.481-6.382,1.417-12.608-2.253-18.319c-5.035-7.837-9.938-15.776-15.337-23.358
			c-8.749-12.284-20.091-15.459-31.076-9.474c-3.659,1.994-5.228,3.948-3.204,8.214c0.993,2.095,0.812,4.902,0.661,7.355
			c-0.572,9.295-4.643,17.332-9.805,24.782c-5.832,8.415-8.517,17.635-8.021,27.758c0.337,6.896,2.549,13.17,8.281,17.466
			C-15.191-107.564,13-98.247,1.103-102.77z"/>
		
			<linearGradient id="SVGID_34_" gradientUnits="userSpaceOnUse" x1="1.2" y1="526.197" x2="1.1999" y2="941.8969" gradientTransform="matrix(1 0 0 -1 -0.0552 599.8589)">
			<stop  offset="0" style="stop-color:#EB5C16"/>
			<stop  offset="1" style="stop-color:#F68122"/>
		</linearGradient>
		<path style="fill:url(#SVGID_34_);" d="M29.69-66.804c-0.186-0.186-8.398,0.657-8.588,0.47c-5.251-5.205-5.503-5.537-13.508-4.672
			c-0.702-7.323-7.403-10.637-8.102-17.916c-5.896-0.403-10.547,2.446-12.399,8.552c-1.129,3.717-2.768,4.823-6.598,4.83
			c-14.331,0.025-23.071,12.646-18.327,26.225c2.677,7.662,1.824,14.861-0.663,21.836c-0.91,3.985-3.311,10.013-6.382,16.16
			c2.252,3.305,3.886,7.062,4.312,11.681c0.576,6.253,3.493,12.304,3.965,18.55c0.565,7.487,2.147,14.389,5.719,20.967
			c4.656,8.578,11.475,12.988,21.455,12.505c4.176-0.201,20.688,1.479,24.684,0.305c8.048-2.365,18.677-6.604,18.032-17.355
			c-0.306-5.072-3.367-11.078,2.296-13.759c0.619-0.293,0.992-1.326,1.269-2.093c2.2-6.106,4.508-12.185,6.431-18.38
			c0.656-2.121,2.685-16.087,2.476-19.025C45.196-25.871,55-41.5,29.69-66.804z"/>
	</g>
	<g id="OraF6">
		
			<linearGradient id="SVGID_35_" gradientUnits="userSpaceOnUse" x1="2.7439" y1="547.1892" x2="2.7439" y2="874.2346" gradientTransform="matrix(1 0 0 -1 -0.0552 599.8589)">
			<stop  offset="0" style="stop-color:#F8F95A"/>
			<stop  offset="1" style="stop-color:#F88243"/>
		</linearGradient>
		<path style="fill:url(#SVGID_35_);" d="M-2.553-72.643c-0.329-1.719-0.594-3.091-0.855-4.464c0.371-0.338,0.742-0.675,1.112-1.014
			c1.178,1.063,3.005,1.916,3.43,3.225c3.188,9.812,10.466,12.241,19.854,12.307c6.438,0.046,11.578,2.526,15.084,9.103
			c7.886,14.79,8.117,30.045,4.218,45.594C38.482-0.698,34.61,5.958,32.543,13.11c-1.585,5.485-2.161,11.34-2.552,17.073
			c-0.538,7.886-7.492,15.695-15.417,15.743c-2.022,0.012-18.12,0.117-25.527-0.253c-7.996-0.398-13.663-4.269-17.643-11.179
			c-4.832-8.392-7.109-17.255-5.271-26.81c0.569-2.957-5.049-16.113-3.104-18.372c3.387-3.93,5.635-8.759,4.222-13.635
			c-2.497-8.612,0.1-6.314-1.424-15.098c-1.946-11.211,0.963-21.496,9.969-29.294c1.348-1.168,3.188-2.748,4.663-2.615
			c5.698,0.517,7.23-2.562,6.903-8.922C-8.709-77.287-5.818-75.106-2.553-72.643z"/>
		
			<linearGradient id="SVGID_36_" gradientUnits="userSpaceOnUse" x1="9.7839" y1="505.0408" x2="9.7839" y2="889.3874" gradientTransform="matrix(1 0 0 -1 -0.0552 599.8589)">
			<stop  offset="0" style="stop-color:#F8F95A"/>
			<stop  offset="1" style="stop-color:#F88243"/>
		</linearGradient>
		<path style="fill:url(#SVGID_36_);" d="M-2.536-142.671c-0.31-1.775-10.663,0.178-11.074-2.188
			c-1.716,0.332,1.915-4.402,0.627-4.152c-0.31-0.552-1.67-4.908-1.597-5.105c1.997-5.412,9.325-6.243,12.271-11.088
			c2.896-4.759,4.898-9.251,4.431-14.854c-0.183-2.173,0.374-4.407,0.702-7.697c3.358,3.147,5.747,5.585,8.351,7.768
			c2.539,2.126,5.049,4.554,8.008,5.86c8.481,3.749,12.769,7.699,12.852,16.044c0.04,4.086,2.007,7.172,2.007,11.258
			c-0.66,0.228-1.321,12.452-1.981,12.679c-2.907-5.424-9.813,1.151-12.721-4.272c-0.347,0.082-0.693-2.836-1.039-2.754
			c0,4.273-4-8.453-4-4.977c-3.478-0.543-3.332-2.02-6.855-1.448C3.954-147.037,0.798-144.409-2.536-142.671z"/>
	</g>
	<g id="YelF6">
		
			<linearGradient id="SVGID_37_" gradientUnits="userSpaceOnUse" x1="2.9275" y1="545.2869" x2="2.9275" y2="817.7878" gradientTransform="matrix(1 0 0 -1 -0.0552 599.8589)">
			<stop  offset="0" style="stop-color:#EBFA27"/>
			<stop  offset="1" style="stop-color:#F6FF7C"/>
		</linearGradient>
		<path style="fill:url(#SVGID_37_);" d="M-12.566,50.168c-11.945-1.003-18.966-13.907-20.836-24.945
			c-0.632-3.729-0.698-7.734-0.057-11.446c0.566-3.28-0.139-6.833,1.937-9.364c3.394-4.143,4.68-8.29,3.082-13.345
			c-1.652-5.235,4.248-9.909,2.377-15.066c-1.021-2.812-1.856-7.189,0.708-9c2.96-2.089-1.618-4.441,1.229-7.174
			c-2.814-1.617-3.171-1.673-6.185-3.594c-2.938-1.873-4.034-4.648-1.974-7.673c3.049-4.478,6.374-8.774,9.778-12.99
			c0.752-0.932,2.407-1.819,3.505-1.67c4.982,0.679,6.892-1.864,7.052-6.813c6.771,3.05,9.722,8.007,10.857,14.66
			c0.385,2.257,2.445,4.203,3.614,6.359c0.651,1.2,3.043-4.459,3.397-3.571c3.817-1.694,6.131,2.55,10.816,1.551
			c4.655-0.991,9.688-0.218,15.695-0.218c-3.885,4.492-3.564,8.747-7.642,13.461c7.78,0.315,4.496,8.06,9.189,11.646
			c2.161,1.651,3.368,4.513,5.202,6.657c0.549,0.642-1.243,7.717,0.387,8.318c0.21,11.033,0.466,15.811-4.805,26.679
			c-3.559,7.344-6.146,12.583-5.973,20.565c0.162,7.455-4.101,13.769-11.602,14.45C13.788,47.954-4.361,50.857-12.566,50.168z"/>
		
			<linearGradient id="SVGID_38_" gradientUnits="userSpaceOnUse" x1="10.783" y1="544.8533" x2="10.7829" y2="818.2767" gradientTransform="matrix(1 0 0 -1 -0.0552 599.8589)">
			<stop  offset="0" style="stop-color:#EBFA27"/>
			<stop  offset="1" style="stop-color:#F6FF7C"/>
		</linearGradient>
		<path style="fill:url(#SVGID_38_);" d="M27.125-140.781c-1.547-3.356-3.119-6.701-4.638-10.07
			c-2.866-6.368-4.849-7.377-11.233-4.396c-4.957,2.313-9.563,5.378-14.33,8.102c-1.091,0.623-2.198,1.215-3.298,1.822
			c-0.469-0.303-0.938-0.604-1.408-0.905c2.404-4.943,4.751-9.916,7.241-14.815c0.899-1.77,2.339-3.271,3.194-5.057
			c3.107-6.479,11.617-7.57,15.905-1.69c2.817,3.865,5.496,8.004,7.27,12.41c1.766,4.39,2.322,9.265,3.41,13.927
			C28.534-141.232,27.83-141.007,27.125-140.781z"/>
	</g>
	
		<linearGradient id="WhiF6_1_" gradientUnits="userSpaceOnUse" x1="1.3445" y1="558.3953" x2="1.3444" y2="707.396" gradientTransform="matrix(1 0 0 -1 -0.0552 599.8589)">
		<stop  offset="0" style="stop-color:#FEFDF6"/>
		<stop  offset="1" style="stop-color:#FAF874"/>
	</linearGradient>
	<path id="WhiF6" style="fill:url(#WhiF6_1_);" d="M-9.25,40.402c-5.283-1.718-8.115-5.754-11-7.652
		c-6.527-4.294-4.749-2.51-5.155-9.668c-0.195-3.428,0.548-6.953,1.186-10.374c1.112-5.97,1.216-5.95-1.843-10.863
		c2.374-1.129,4.743-2.255,7.112-3.381c-0.109-0.271-0.219-0.542-0.329-0.812c-1.257,0.255-2.534,0.774-3.765,0.68
		c-0.953-0.073-2.644-0.924-2.638-1.411c0.034-2.508-0.432-6.089,0.991-7.329c6.396-5.573,3.539-13.062,4.908-19.62
		c0.647-3.101,1.222-6.24,1.462-9.391c0.135-1.769-0.99-3.693-0.661-5.376c1.177-6.01,4.871-10.522,9.654-14.099
		c3.301-2.467,5.721-1.271,6.928,2.833c0.689,2.344,1.67,4.646,2.863,6.773c0.436,0.778,2.229,1.672,2.785,1.369
		c5.247-2.852,9.051,1.93,13.626,2.4c0.58,0.06,1.325,0.573,1.613,1.089c3.329,5.947,8.002,11.61,9.47,18.003
		c1.505,6.556,0.144,13.861-0.5,20.789c-0.545,5.879-1.941,11.676-2.764,17.536c-0.194,1.396,0.666,2.921,0.588,4.361
		c-0.371,6.719-0.125,13.618-1.716,20.057c-0.752,3.047-8.232,1.215-11.067,3.656C11.095,41.182,4.125,39.496,1.289,39
		S-3.967,42.12-9.25,40.402z"/>
</g>
<g id="F7">
	<g id="RedF7">
		
			<linearGradient id="SVGID_39_" gradientUnits="userSpaceOnUse" x1="6.4714" y1="526.2175" x2="6.4714" y2="941.8649" gradientTransform="matrix(1 0 0 -1 -0.0552 599.8589)">
			<stop  offset="0" style="stop-color:#EB5C16"/>
			<stop  offset="1" style="stop-color:#F68122"/>
		</linearGradient>
		<path style="fill:url(#SVGID_39_);" d="M13.384-150.568c-4.51,9.308-12.309,12.384-20.079,9.282
			c-4.541-1.812-2.515-4.553-2.15-7.451c-0.864,0.681-1.577,1.241-2.433,1.915c-5.164-8.411-4.72-17.641-5.214-26.716
			c-0.461-8.442,1.387-16.21,6.266-23.151c4.511-6.417,10.657-10.537,18.814-13.393c-0.688,2.273-1.138,3.628-1.506,5.006
			c-2.228,8.319,1.894,14.619,10.496,15.619c3.923,0.456,6.199,2.306,7.893,5.836c7.588,15.827,3.973,34.721-9.162,46.537
			c-0.692,0.623-1.587,1.023-2.925,1.866C13.384-140.541,13.384-145.259,13.384-150.568z"/>
		
			<linearGradient id="SVGID_40_" gradientUnits="userSpaceOnUse" x1="-7.5388" y1="526.2439" x2="-7.5388" y2="941.8503" gradientTransform="matrix(1 0 0 -1 -0.0552 599.8589)">
			<stop  offset="0" style="stop-color:#EB5C16"/>
			<stop  offset="1" style="stop-color:#F68122"/>
		</linearGradient>
		<path style="fill:url(#SVGID_40_);" d="M-5.139-263.583c0,2.702,0.218,5.433-0.123,8.09c-0.11,0.87-1.807,2.284-2.526,2.146
			c-0.949-0.183-2.469-1.827-2.316-2.535c0.618-2.862,1.784-5.605,2.748-8.394C-6.618-264.045-5.878-263.814-5.139-263.583z"/>
		
			<linearGradient id="SVGID_41_" gradientUnits="userSpaceOnUse" x1="25.571" y1="526.2136" x2="25.571" y2="941.8663" gradientTransform="matrix(1 0 0 -1 -0.0552 599.8589)">
			<stop  offset="0" style="stop-color:#EB5C16"/>
			<stop  offset="1" style="stop-color:#F68122"/>
		</linearGradient>
		<path style="fill:url(#SVGID_41_);" d="M24.277-89.188c-0.395-1.533-1.209-3.107-1.064-4.588c0.144-1.465,1.254-2.835,1.939-4.246
			c0.953,1.311,2.609,2.585,2.682,3.941c0.088,1.68-1.141,3.427-1.8,5.145C25.448-89.02,24.863-89.104,24.277-89.188z"/>
		
			<linearGradient id="SVGID_42_" gradientUnits="userSpaceOnUse" x1="1.2126" y1="526.2136" x2="1.2126" y2="941.8663" gradientTransform="matrix(1 0 0 -1 -0.0552 599.8589)">
			<stop  offset="0" style="stop-color:#EB5C16"/>
			<stop  offset="1" style="stop-color:#F68122"/>
		</linearGradient>
		<path style="fill:url(#SVGID_42_);" d="M40.375-58.178c-2.518-3.454-11.973-6.984-13.923-10.57
			c-1.96-3.603-4.195-6.673-4.708-11.09c-0.094-0.798-0.56-1.562-0.909-2.317c-3.197-6.89-6.148-13.912-9.74-20.59
			c-1.429-2.652-4.276-4.548-6.495-6.77c-3.058-3.062-5.708-1.259-8.627,0.616c0.663-1.763,1.326-3.523,2.045-5.433
			c-7.817-0.309-3.332-7.166-6.382-10.801c-1.02,1.439-1.959,2.645-2.77,3.93c-6.11,9.7-8.665,20.452-9.277,31.759
			c-0.142,2.593-0.396,4.623-4.004,3.921c-8.048-1.564-11.314-0.314-14.708,7.066c-5.401,11.753-5.75,23.78-0.045,35.706
			c0.003,0.006,0.006,0.013,0.009,0.019c1.219-2.43,1.979-4.753,2.135-7.337c-0.196-2.134-0.343-4.267-0.334-6.398
			c0.004-1.103,2.054-2.196,3.164-3.295c0.931,1.193,2.729,2.456,2.639,3.568c-0.347,4.338-1.291,8.628-2.013,12.937
			c-0.124-0.006-0.248-0.012-0.372-0.018c-0.801,1.396-2.202,2.993-3.739,4.479c0.053,0.36,0.073,0.715,0.034,1.059
			c-0.985,8.531-4.229,7.523-5.667,18.485c-0.301,2.294,1.082,14.68,1.541,16.87c2.312,11.048,4.231,22.249,7.592,32.988
			c3.526,11.271,11.704,18.35,23.697,20.394c6.521,1.111,21.712,0.866,23.176,1.102c10.105,1.624,24.726-6.776,25.447-16.934
			c0.305-4.297,1.646-8.656,1.853-12.968c0.194-4.051-5.041-8.074-4.536-12.111c0.775-6.209,2.498-12.495,2.002-18.603
			c-0.363-4.479,2.042-8.271,3.546-12.338C45.97-34.274,48.617-46.866,40.375-58.178z"/>
	</g>
	<g id="OraF7">
		
			<linearGradient id="O_1_" gradientUnits="userSpaceOnUse" x1="1.5759" y1="542.8289" x2="1.5759" y2="896.4183" gradientTransform="matrix(1 0 0 -1 -0.0552 599.8589)">
			<stop  offset="0" style="stop-color:#F8F95A"/>
			<stop  offset="1" style="stop-color:#F88243"/>
		</linearGradient>
		<path id="O" style="fill:url(#O_1_);" d="M-15.784,46.386c-7.4-2.993-10.597-8.242-13.527-15.393
			c-5.812-14.174-10.768-32.956-9.266-48.347c0.596-6.092,3.12-11.375,7.464-15.953c3.866-4.075,7.273-8.625,10.572-13.19
			c7.145-9.889,9.957-20.667,5.232-32.432c-3.043-7.578,2.694-20.515,7.062-24.004c4.906-3.922,9.815,5.598,14.144,9.421
			c4.541,4.012,8.479,8.857,11.937,13.853c1.018,1.471-0.503,4.686-0.833,7.104c-0.444,3.252-0.854,6.28,4.305,5.16
			c1.104-0.239,2.817,1.189,3.903,2.218c3.646,3.453,5.714,8.771,11.704,9.46c0.699,0.081,1.342,1.694,1.799,2.693
			c3.558,7.795,4.604,16.229,0.664,23.665c-8.75,16.512-7.765,33.54-5.146,51.029c1.287,8.6-0.689,19.288-8.95,24.04
			c-1.285,0.739-6.613,1.501-8.021,1.917C9.013,50.066-4.324,51.02-15.784,46.386z"/>
		
			<linearGradient id="SVGID_43_" gradientUnits="userSpaceOnUse" x1="7.0906" y1="547.2136" x2="7.0906" y2="874.197" gradientTransform="matrix(1 0 0 -1 -0.0552 599.8589)">
			<stop  offset="0" style="stop-color:#F8F95A"/>
			<stop  offset="1" style="stop-color:#F88243"/>
		</linearGradient>
		<path style="fill:url(#SVGID_43_);" d="M7.78-179.862c2.259,8.375-7.197,6.588-7.864,11.509c-0.566-0.015-1.133-0.026-1.698-0.039
			c-1.253-3.448-3.349-6.845-3.563-10.356c-0.326-5.363,0.522-10.822,1.168-16.207c0.125-1.042,1.457-2.229,2.524-2.734
			c0.473-0.226,2.066,0.893,2.476,1.729c2.307,4.729,6.013,7.104,11.132,8.245c6.123,1.365,9.065,9.136,6.748,17.326
			C14.964-173.631,11.372-176.747,7.78-179.862z"/>
	</g>
	
		<linearGradient id="YelF7_1_" gradientUnits="userSpaceOnUse" x1="-0.6448" y1="550.53" x2="-0.6448" y2="826.5265" gradientTransform="matrix(1 0 0 -1 -0.0552 599.8589)">
		<stop  offset="0" style="stop-color:#EBFA27"/>
		<stop  offset="1" style="stop-color:#F6FF7C"/>
	</linearGradient>
	<path id="YelF7" style="fill:url(#YelF7_1_);" d="M-14.416,41.419c-8.634-3.08-8.209-3.229-11.249-11.564
		c-4.231-11.61-7.246-14.527-6.777-27.058c0.044-1.163-3.348-11.729-2.746-12.425c6.268-7.241,2.512-18.143,10.265-24.727
		c3.304-2.807,5.363-6.82,9.938-8.5c2.209-0.812,4.708-3.437,5.249-5.681c1.495-6.19,0.521-12.593,0.799-18.952
		c0.276-6.279,1.867-19.521,6.538-25.238c0.866,3.993,6.222,12.186,6.692,14.882C6.2-66.921,5.129-66.046,13.558-58.383
		c2.698,2.452,5.062,7.069,8.535,3.81c2.968-2.784,9.319,5.61,9.769,8.415c0.726,4.527,1.52,9.448,0.472,13.764
		c-1.6,6.589-4.292,11.65,0.055,16.546c1.085,1.222,1.757,3.763,1.274,5.266c-2.856,8.897-1.599,17.757-0.641,26.714
		c0.653,6.102,0.974,12.288,0.787,18.416C33.55,43.144,22.85,45.67,14.517,43.955C12.986,43.64-4.258,45.042-14.416,41.419z"/>
	
		<linearGradient id="WhiF7_1_" gradientUnits="userSpaceOnUse" x1="0.8738" y1="544.9939" x2="0.8738" y2="712.0249" gradientTransform="matrix(1 0 0 -1 -0.0552 599.8589)">
		<stop  offset="0" style="stop-color:#FEFDF6"/>
		<stop  offset="1" style="stop-color:#FAF874"/>
	</linearGradient>
	<path id="WhiF7" style="fill:url(#WhiF7_1_);" d="M-2.122-85.414c0.538,2.679,1.241,5.335,1.586,8.037
		C0.843-66.554,5.145-57.262,13.496-50.05c2.882,2.488,5.666,4.61,9.604,1.28c2.511-2.122,4.02,0.141,4.617,2.376
		c1.607,6.001,1.553,12.102-1.845,17.396c-3.132,4.882-3.282,9.903-2.898,15.316c0.67,9.462,1.299,18.938,1.472,28.417
		c0.075,4.096-0.604,8.331-1.709,12.289c-1.26,4.514-9.537,15.697-18.404,12.948s-14.73-3.962-16.189-6.348
		C-16.689,25.72-21.941,17.96-25.68,9.543c-1.779-4.008-1.896-9.909-0.315-14.011c3.065-7.966,7.847-15.274,11.945-22.84
		c3.863-7.136,8.333-14.021,11.388-21.484c1.332-3.257-0.054-7.7-0.464-11.578c-0.624-5.899-1.729-11.76-2.104-17.67
		c-0.153-2.437,1.059-4.958,1.648-7.44C-3.096-85.458-2.608-85.436-2.122-85.414z"/>
</g>
<g id="F8">
	<g id="RedF8">
		
			<linearGradient id="SVGID_44_" gradientUnits="userSpaceOnUse" x1="2.5056" y1="524.4275" x2="2.5056" y2="939.7375" gradientTransform="matrix(1 0 0 -1 -0.0552 599.8589)">
			<stop  offset="0" style="stop-color:#EB5C16"/>
			<stop  offset="1" style="stop-color:#F68122"/>
		</linearGradient>
		<path style="fill:url(#SVGID_44_);" d="M-4.51,54.059c-33.282-4.095-29.252-9.507-31.737-17.327
			c-4.25-13.371-11.239-30.037-6.817-44.054c1.852-5.866,4.019-10.636,6.113-16.423c1.803-4.978,6.46-7.67,4.181-12.962
			c-0.912-2.116-3.78-5.592-2.761-8.348c0.047-0.128-0.12-4.457,1.232-3.787c0.888,0.44,1.443-5.452,2.563-4.744
			c-1.729-4.176,7.181,1.601,9.025-2.474c1.239-2.74-1.079-5.356-3.504-8.273c-10.323-12.419-13.754-29.332,1.338-43.726
			c1.321-1.262,2.502-2.673,3.755-4.007c6.517-6.938,11.912-14.361,11.666-24.567c-0.035-1.422,1.147-2.873,1.768-4.311
			c1.394,0.976,3.236,1.666,4.077,2.991c1.4,2.207,1.988,4.913,3.23,7.242c1.47,2.755,3.271,5.332,4.93,7.986
			c0.591-0.179,1.182-0.357,1.771-0.535c0.844-4.715,1.687-9.429,2.529-14.143c0.479,0.001,0.957,0.002,1.437,0.004
			c0.363,3.804,1.116,7.617,1.021,11.41c-0.329,13.135,5.293,23.384,14.602,32.123c10.446,9.81,15.194,10.271,10.196,23.801
			c-1.989,5.385-1.099,9.097-2.606,14.659c0.373,0.244-2.254,5.489-1.882,5.734c2.107-1.728,10.89,5.942,11.306,4.034
			c0.235-1.076-14.09,7.835-7.249,15.351c0.896,0.985,1.799,1.97,2.727,2.926c5.533,5.7,9.302,5.584,5.938,12.506
			c-1.022,2.105,1.919,5.27,2.656,7.547c4.734,14.608,1.465,29.391-1.639,44.335C43.356,46.679,28.772,58.153-4.51,54.059z"/>
		
			<linearGradient id="SVGID_45_" gradientUnits="userSpaceOnUse" x1="1.0393" y1="524.2488" x2="1.0393" y2="939.9015" gradientTransform="matrix(1 0 0 -1 -0.0552 599.8589)">
			<stop  offset="0" style="stop-color:#EB5C16"/>
			<stop  offset="1" style="stop-color:#F68122"/>
		</linearGradient>
		<path style="fill:url(#SVGID_45_);" d="M1.056-232.639c5.579-0.742,8.817,1.37,10.054,6.92c0.86,3.857,0.882,7.904,1.242,11.869
			c0.322,3.529,0.283,7.095,0.687,10.619c1.196,10.501-1.154,15.07-12.308,18.149c0.333,4.619,0.674,9.354,1.067,14.828
			c-7.806-3.615-11.565-9.854-12.608-17.093c-0.979-6.795-0.422-13.878,0.064-20.792c0.269-3.82,2.273-6.707,6.208-8.851
			C1.242-220.138,1.792-226.262,1.056-232.639z"/>
		
			<linearGradient id="SVGID_46_" gradientUnits="userSpaceOnUse" x1="18.6609" y1="524.2498" x2="18.6609" y2="939.9025" gradientTransform="matrix(1 0 0 -1 -0.0552 599.8589)">
			<stop  offset="0" style="stop-color:#EB5C16"/>
			<stop  offset="1" style="stop-color:#F68122"/>
		</linearGradient>
		<path style="fill:url(#SVGID_46_);" d="M22.469-148.006c-3.284-6.719-5.945-12.579-8.975-18.241
			c-2.86-5.345-2.961-10.829-1.407-16.405c1.006-3.612,3.554-5.792,7.184-6.131c1.964,6.048,3.778,11.858,5.741,17.618
			C27.735-163.172,24.911-155.964,22.469-148.006z"/>
		
			<linearGradient id="SVGID_47_" gradientUnits="userSpaceOnUse" x1="-41.9587" y1="524.2517" x2="-41.9588" y2="939.8977" gradientTransform="matrix(1 0 0 -1 -0.0552 599.8589)">
			<stop  offset="0" style="stop-color:#EB5C16"/>
			<stop  offset="1" style="stop-color:#F68122"/>
		</linearGradient>
		<path style="fill:url(#SVGID_47_);" d="M-40.246-53.637c-5.056-6.867-8.677-14.334-7.136-22.939
			c0.485-2.715,2.668-5.562,4.881-7.351c1.119-0.904,5.828,0.299,5.859,0.76c0.237,3.439,0.973,8.95-0.797,10.057
			c-7.316,4.573-4.981,10.214-3.407,16.121C-40.553-55.898-40.441-54.756-40.246-53.637z"/>
	</g>
	
		<linearGradient id="OraF8_1_" gradientUnits="userSpaceOnUse" x1="2.1443" y1="539.9734" x2="2.1443" y2="897.4017" gradientTransform="matrix(1 0 0 -1 -0.0552 599.8589)">
		<stop  offset="0" style="stop-color:#F8F95A"/>
		<stop  offset="1" style="stop-color:#F88243"/>
	</linearGradient>
	<path id="OraF8" style="fill:url(#OraF8_1_);" d="M-27.929-49.599c2.018,1.291,4.032,2.581,6.05,3.871
		c0.868-2.724,2.8-5.617,2.394-8.135c-0.959-5.939-2.543-11.898-4.812-17.468c-1.685-4.128-0.073-6.553,2.292-9.203
		c5.369-6.019,7.046-11.798,12.003-18.139c2.239-2.865,2.062-6.839,3.54-10.335c0.288-0.042,5.854-10.217,5.904-10.118
		c4.182,7.886,13.521,19.719,18.93,26.162c2.126,2.533,1.734,8.717,3.544,11.444c2.235,3.376,7.341,2.354,12.56,0.716
		c-1.773,5.784-3.373,10.953-4.945,16.131c-4.583,15.097-1.816,29.114,5.849,42.604c9.427,16.589,10.484,34.52,7.084,52.8
		c-1.86,9.996-17.606,23.486-27.405,20.829c-1.875-0.508-20.193,1.925-23.037,0.827c-6.04-2.33-12.445-3.068-17.935-6.34
		c-4.98-2.966-5.708-8.457-8.913-15.825c-7.513-17.28-6.592-34.671,0.64-51.872c3.03-7.21,7.669-14.201,2.988-22.309
		c-0.808-1.397,1.217-4.432,1.933-6.709C-28.823-50.309-28.376-49.955-27.929-49.599z"/>
	<g id="YelF8">
		
			<linearGradient id="SVGID_48_" gradientUnits="userSpaceOnUse" x1="2.3962" y1="547.8748" x2="2.3962" y2="821.3246" gradientTransform="matrix(1 0 0 -1 -0.0552 599.8589)">
			<stop  offset="0" style="stop-color:#EBFA27"/>
			<stop  offset="1" style="stop-color:#F6FF7C"/>
		</linearGradient>
		<path style="fill:url(#SVGID_48_);" d="M0.827-108.361c1.874,3.928,7.135,10.514,8.347,13.121c4.6,9.896,7.632,20.16,5.776,31.083
			c-1.633,9.601-1.358,16.256,4.823,23.055c-1.578,2.976-2.75,8.504,0.088,10.318C31.72-23.197,30.259-13.913,33.786-1.45
			c2.998,10.596,4.384,18.62,3.463,29.689c-0.791,9.502-8.126,21.468-19.996,19.072c-2.125-0.431-21.463,0.817-24.818-0.55
			c-5.531-2.257-11.506-2.738-16.543-5.787c-3.441-2.084-5.551-2.863-7.188-6.597c-0.938-12.6-2.579-18.619-0.663-33.668
			c0.138-1.081,7.974-25.489,8.847-26.191c3.438-2.768,3.016-5.366,6.404-8.192c3.046-2.54,2.857-5.356,5.869-7.942
			c6.762-5.808,5.696-17.27,0.116-24.421c-1.271-1.631-0.528-12.743-0.664-14.712C-12.164-92.127-4.219-96.917,0.827-108.361z"/>
		
			<linearGradient id="SVGID_49_" gradientUnits="userSpaceOnUse" x1="25.1023" y1="542.905" x2="25.1023" y2="816.2902" gradientTransform="matrix(1 0 0 -1 -0.0552 599.8589)">
			<stop  offset="0" style="stop-color:#EBFA27"/>
			<stop  offset="1" style="stop-color:#F6FF7C"/>
		</linearGradient>
		<path style="fill:url(#SVGID_49_);" d="M29.411-31.539c-2.707-1.56-4.475-1.397-6.023-2.533c-1.059-0.775-1.812-2.966-2.704-3.97
			c1.084-0.883,2.106-2.357,3.27-2.478c1.123-0.115,2.932,0.88,3.473,1.899C28.381-36.815,28.604-34.622,29.411-31.539z"/>
	</g>
	
		<linearGradient id="Whif8_1_" gradientUnits="userSpaceOnUse" x1="1.8679" y1="555.1863" x2="1.8679" y2="705.4836" gradientTransform="matrix(1 0 0 -1 -0.0552 599.8589)">
		<stop  offset="0" style="stop-color:#FEFDF6"/>
		<stop  offset="1" style="stop-color:#FAF874"/>
	</linearGradient>
	<path id="Whif8" style="fill:url(#Whif8_1_);" d="M-22.792,36.631c-1.02,0.488-5.116-7.366-8.021-5.976
		c0.893-2.269,1.08-3.756,1.904-4.675c3.571-3.982,3.945-8.4,2.738-13.398c-3.612-14.956,3.292-26.844,11.556-38.247
		c1.655-2.285,3.545-4.415,5.455-6.498c9.966-10.866,10.99-24.08,2.797-36.252C-7-69.361-7.544-70.445-7.823-71.544
		c-1.684-6.6,3.182-20.835,8.731-26.972c1.293,2.484,2.696,10.673,3.621,13.048c3.648,9.378,6.317,9.8,4.036,20.157
		c-2.259,10.26-1.007,20.133,5.358,29.027c2.755,3.852,5.285,7.947,7.25,12.237c0.844,1.841-0.248,4.484-0.021,6.719
		c0.188,1.867,0.793,3.778,1.618,5.474c0.984,2.021,2.399,3.832,4.146,6.538C25.336-2.859,26.816-0.209,29,3.087
		c5.382,8.12,7.311,17.056,3.298,26.561c-2.013,4.767-3.881,9.595-6.128,15.172c0.366,0.329-12.283-4.84-10.629-3.354
		c-4.388,3.141-16.801,0.174-20.5-1.167C-7.146,39.505-20.204,40.239-22.792,36.631z"/>
</g>
</svg>
