<?xml version="1.0" encoding="utf-8"?>
<!-- Generator: Adobe Illustrator 16.0.4, SVG Export Plug-In . SVG Version: 6.00 Build 0)  -->
<!DOCTYPE svg PUBLIC "-//W3C//DTD SVG 1.1//EN" "http://www.w3.org/Graphics/SVG/1.1/DTD/svg11.dtd">
<svg version="1.1" id="Anvil" xmlns="http://www.w3.org/2000/svg" xmlns:xlink="http://www.w3.org/1999/xlink" x="0px" y="0px"
	 width="841.89px" height="595.28px" viewBox="0 0 841.89 595.28" enable-background="new 0 0 841.89 595.28" xml:space="preserve">
<path fill-rule="evenodd" clip-rule="evenodd" fill="#513E46" d="M-146.606-3.96c2.493,1.19,30.498,16.996,63.296,15.495
	s59.312-4.08,59.312-4.08s3.333-1.961,3.159,4.184s-1.75-2.573,0.891,8.89c1.728,7.498,5.96,9.406,10.847,13.628
	s9.422,7.377,9.074,13.127S2.49,55.64,5.92,56.308s-2.592-8.405,13.567-7.274s16.251,7.438,22.396,7.005s20.757-2.705,22.34-7.236
	c1.141-3.264,1.43-4.562-2.896-2.555c-3.842,1.783-14.218,2.37-20.727-4.759c-6.435-7.048-11.613-8.599-11.613-10.777
	S48.62-28.806,90.66-35.751c3.786-0.625,2.551-7.481,2.551-7.481l11.902-2.875v-6.254l-13.968-6.933c0,0-9.289-7.96-13.255-7
	C75.117-65.624,1.606-53.042-37.443-41.961c-2.386,0.677,0.312,4.594-1.868,5.237c-13.17,3.886-17.676,6.268-18.297,7.855
	c-2.404,6.152-65.205,18.1-76.305,19.876S-153.058-7.038-146.606-3.96z"/>
<polygon fill-rule="evenodd" clip-rule="evenodd" fill="#9A8597" points="-35.077,-41.111 -18.642,-23.446 105.113,-52.361 
	80.07,-64.792 "/>
<path fill-rule="evenodd" clip-rule="evenodd" fill="#DFCBCD" d="M-18.734-26.498c-1.568-4.587-6.637-6.471-8.828-11.804
	c6.022,1.103,11.693-2.072,17.27,1.337c1.174,0.718,1.751-0.684,2.101-1.499c0.761-1.771,1.97-1.062,3.29-1.015
	c3.146,0.112,0.35,1.391,0.496,2.061c0.487,2.233,2.212,2.169,3.866,1.973c3.253-0.386,6.492-0.898,9.899-1.381
	c-3.606,6.354-10.207,5.8-15.729,7.5c-1.07,0.33-2.388-0.046-2.85,1.433c-0.91,0.005-1.818,0.01-2.728,0.015
	c-1.982-0.904-3.532,0.149-5.101,1.125C-17.609-26.667-18.172-26.583-18.734-26.498z"/>
<path fill-rule="evenodd" clip-rule="evenodd" fill="#DFCBCD" d="M14.758-34.161c-1.8,0.082-3.6,0.163-5.398,0.244
	c6.29-2.88,11.905-6.291,17.103-10.972c2.467-2.222,7.915-1.991,11.854-1.527c6.575,0.773,12.62-2.145,19.079-1.79
	c2.134,0.117,2.063-2.651,3.011-4.093c0.417-0.119,0.834-0.238,1.251-0.357c3.608,0.106,1.688-3.613,3.462-4.978
	c2.802-2.155,7.653-3.316,10.262-5.717c9.411,1.76,14.959,5.605,23.41,9.615c2.34,1.11-2.493,1.479-3.663,2.467
	c-7.242-0.036-10.812,2.754-17.815,4.235c-12.767,2.7-25.547,5.303-38.468,7.267c-4.04,0.614-7.958,2.792-12.225,3.216
	c-0.496,0.119-0.991,0.239-1.486,0.358c-0.853,0.184-1.706,0.367-2.561,0.551c-1.232-0.326-2.395-0.331-3.333,0.713
	C17.746-34.673,16.252-34.417,14.758-34.161z"/>
<path fill-rule="evenodd" clip-rule="evenodd" fill="#DFCBCD" d="M-34.504-36.724c-8.877,2.922-15.736,4.072-15.736,4.072
	s-5.621,0.01-5.51,7.588c0.059,3.977-11.262,4.304-15.762,6.566s-88.75,14.08-73.797,14.77s48.201,1.941,58.291,0.899
	s34.301,2.781,37.231-1.675s10.099-7.629,12.825-8.292s14.134-4.2,14.134-4.2s1.605-2.528-2.794-8.691S-34.504-36.724-34.504-36.724
	z"/>
<path fill-rule="evenodd" clip-rule="evenodd" fill="#9A8597" d="M-145.383-3.682c14.385,0.621,28.765,1.447,43.156,1.768
	c6.195,0.138,12.44-0.546,18.616-1.259c10.062-1.161,16.278-3.962,26.181-2.034c3.862,0.752,15.322-6.998,17.957-6.731
	c1.232,0.671-5.022,6.718-4.247,8.327c-4.363,1.479-8.815,4.537-12.604,3.864c-4.362-0.775-8.38,0.22-12.53-0.133
	c-4.592-0.392-9.124,0.47-13.681,1.041c-8.075,1.012-16.142-0.33-24.206-0.722c-1.465-0.071-2.938-0.454-4.413-0.159
	c-8.228,1.645-16.209,0.118-24.074-2.073c-3.259-0.907-6.447-1.499-9.795-1.114C-145.254-3.111-145.376-3.37-145.383-3.682z"/>
<path fill-rule="evenodd" clip-rule="evenodd" fill="#DFCBCD" d="M49.235,29.315c-5.329,0.266-24.747-0.08-17.245,4.39
	s13.443,14.204,15.129,14.477s11.462-1.173,14.208-1.934s1.942-1.756,1.622-4.147s-9.793-11.84-9.793-11.84L49.235,29.315z"/>
<path fill-rule="evenodd" clip-rule="evenodd" fill="#DFCBCD" d="M-11.646,34.27c-5.329,0.266-27.433,2.11-19.931,6.58
	s13.443,14.204,15.129,14.477s14.147-3.363,16.894-4.124s-0.876-1.541-0.473-3.919c0.918-5.412-7.698-12.068-7.698-12.068
	L-11.646,34.27z"/>
<path fill-rule="evenodd" clip-rule="evenodd" fill="#513E46" d="M-35.077,41.816c-0.167,10.813,4.819,9.786,10.051,14.526
	c6.512,5.901,6.032,9.244,11.282,8.954s18.934,0.877,20.135-6.424s-0.953-8.363-6.953-7.363s-16.163,6.2-18.663,1.2
	S-34.976,35.238-35.077,41.816z"/>
<path id="Outline" fill-rule="evenodd" clip-rule="evenodd" fill="none" stroke="#000000" stroke-width="2" stroke-miterlimit="10" d="
	M105.465-51.301l-13.969-6.934c-0.013-0.011-9.291-7.959-13.254-7C75.469-64.563,1.958-51.981-37.092-40.901
	c-2.386,0.677,0.312,4.594-1.868,5.237c-13.17,3.886-17.676,6.268-18.297,7.855c-2.404,6.152-65.205,18.1-76.305,19.876
	C-144.387-6.2-152.3-5.986-146.699-3.121c-0.11,0.164,0.126,0.289,0.745,0.371c0.246,0.125,0.586,0.302,1.011,0.521
	c0.061,0.142,0.146,0.271,0.271,0.382c0.138-0.016,0.273-0.021,0.41-0.033c7.348,3.742,32.469,15.794,61.303,14.475
	c32.798-1.501,59.312-4.08,59.312-4.08s3.333-1.961,3.159,4.184s-1.75-2.573,0.891,8.89c1.728,7.498,5.96,9.406,10.847,13.628
	c0.399,0.345,0.794,0.681,1.187,1.014l-3.731-0.9c-5.048,0.251-25.126,1.921-20.862,5.894c-1.517-0.518-2.54-0.154-2.568,1.653
	c-0.167,10.813,4.819,9.786,10.051,14.526c6.512,5.901,6.032,9.244,11.282,8.954s18.934,0.877,20.135-6.424
	c0.163-0.994,0.259-1.862,0.297-2.635c1.687-0.957-1.764-8.222,12.8-7.203c16.159,1.131,16.251,7.438,22.396,7.005
	s20.757-2.705,22.34-7.236c0.999-2.859-1.03-4.877-1.274-6.702c-0.32-2.391-9.793-11.84-9.793-11.84l-3.921-0.946
	c-5.329,0.266-20.248,3.575-20.248,1.397S48.972-27.745,91.012-34.69c3.786-0.625,2.551-7.481,2.551-7.481l11.902-2.875V-51.301z"/>
</svg>
