<?xml version="1.0" encoding="utf-8"?>
<!-- Generator: Adobe Illustrator 16.0.4, SVG Export Plug-In . SVG Version: 6.00 Build 0)  -->
<!DOCTYPE svg PUBLIC "-//W3C//DTD SVG 1.1//EN" "http://www.w3.org/Graphics/SVG/1.1/DTD/svg11.dtd">
<svg version="1.1" xmlns="http://www.w3.org/2000/svg" xmlns:xlink="http://www.w3.org/1999/xlink" x="0px" y="0px"
	 width="841.89px" height="595.28px" viewBox="0 0 841.89 595.28" enable-background="new 0 0 841.89 595.28" xml:space="preserve">
<g id="Eyes">
	<rect x="44.782" y="176.827" fill-rule="evenodd" clip-rule="evenodd" fill="#FFFEFE" width="223.464" height="59.842"/>
	<g>
		<path fill-rule="evenodd" clip-rule="evenodd" fill="#845F55" d="M95.754,216.818c-0.073-4.984,0.501-9.624,6.154-11.556
			c0.021,0.573,0.043,1.146,0.064,1.718c-0.091,0.248-0.188,0.491-0.296,0.731c-4.957,2.487-2.994,7.316-3.795,11.21l0.016,0.04
			C96.812,218.618,96.263,217.738,95.754,216.818z"/>
		<path fill-rule="evenodd" clip-rule="evenodd" fill="#B59A96" d="M113.11,218.768c-0.072,0.381-0.145,0.763-0.217,1.143
			c-2.807,1.715-6.076-0.139-8.936,1.162c-1.742-1.514-3.704-2.411-6.076-2.15c0.801-3.895-1.162-8.724,3.795-11.209
			c0.242,1.436,0.48,2.871,1.789,3.804c-0.727,1.448-0.678,2.821,0.537,3.977c0.669,0.637,1.422,0.516,2.165-0.016
			c1.739-1.246,0.922-2.867,0.693-4.407c0.28-1.01,1.146-1.091,1.97-1.236c1.037,1.044,2.074,2.089,3.111,3.134
			C112.95,214.778,114.813,216.414,113.11,218.768z"/>
		<path fill-rule="evenodd" clip-rule="evenodd" fill="#9D7970" d="M111.942,212.97c-1.037-1.045-2.074-2.089-3.11-3.132
			c-0.573-5.062-4.438-2.225-6.859-2.857c-0.021-0.572-0.043-1.145-0.064-1.718c6.021-2.199,11.123,1.02,11.298,7.178
			C113.212,212.605,112.383,212.792,111.942,212.97z"/>
		<path fill-rule="evenodd" clip-rule="evenodd" fill="#F9D9C2" d="M101.973,206.98c2.421,0.632,6.286-2.205,6.859,2.857
			c-0.825,0.144-1.69,0.224-1.97,1.235c-1.215-0.483-2.345-0.321-3.396,0.445c-1.309-0.933-1.547-2.369-1.789-3.804
			C101.784,207.472,101.882,207.228,101.973,206.98z"/>
		<path fill-rule="evenodd" clip-rule="evenodd" fill="#613633" d="M103.466,211.518c1.052-0.766,2.182-0.928,3.396-0.445
			c0.228,1.54,1.045,3.161-0.694,4.407c-0.743,0.532-1.496,0.652-2.165,0.016C102.788,214.339,102.739,212.966,103.466,211.518z"/>
		<path fill-rule="evenodd" clip-rule="evenodd" fill="#845F55" d="M207.686,215.591c-0.073-4.984,0.501-9.624,6.154-11.556
			c0.021,0.573,0.043,1.146,0.064,1.718c-0.091,0.248-0.188,0.491-0.296,0.731c-4.957,2.487-2.994,7.316-3.795,11.21l0.016,0.04
			C208.744,217.39,208.195,216.51,207.686,215.591z"/>
		<path fill-rule="evenodd" clip-rule="evenodd" fill="#B59A96" d="M225.042,217.54c-0.072,0.381-0.145,0.763-0.217,1.143
			c-2.807,1.715-6.076-0.139-8.936,1.162c-1.742-1.514-3.704-2.411-6.076-2.15c0.801-3.895-1.162-8.724,3.795-11.209
			c0.242,1.436,0.48,2.871,1.789,3.804c-0.727,1.448-0.678,2.821,0.537,3.977c0.669,0.637,1.422,0.516,2.165-0.016
			c1.739-1.246,0.922-2.867,0.693-4.407c0.28-1.01,1.146-1.091,1.97-1.236c1.037,1.044,2.074,2.089,3.111,3.134
			C224.882,213.55,226.746,215.186,225.042,217.54z"/>
		<path fill-rule="evenodd" clip-rule="evenodd" fill="#9D7970" d="M223.875,211.742c-1.037-1.045-2.074-2.089-3.11-3.132
			c-0.573-5.062-4.438-2.225-6.859-2.857c-0.021-0.572-0.043-1.145-0.064-1.718c6.021-2.199,11.123,1.02,11.298,7.178
			C225.144,211.377,224.315,211.565,223.875,211.742z"/>
		<path fill-rule="evenodd" clip-rule="evenodd" fill="#F9D9C2" d="M213.905,205.753c2.421,0.632,6.286-2.205,6.859,2.857
			c-0.825,0.144-1.69,0.224-1.97,1.235c-1.215-0.483-2.345-0.321-3.396,0.445c-1.309-0.933-1.547-2.369-1.789-3.804
			C213.716,206.244,213.814,206,213.905,205.753z"/>
		<path fill-rule="evenodd" clip-rule="evenodd" fill="#613633" d="M215.398,210.29c1.052-0.766,2.182-0.928,3.396-0.445
			c0.228,1.54,1.045,3.161-0.694,4.407c-0.743,0.532-1.496,0.652-2.165,0.016C214.72,213.111,214.671,211.738,215.398,210.29z"/>
	</g>
</g>
<g id="Face">
	<path fill-rule="evenodd" clip-rule="evenodd" fill="#D3896A" d="M300.726,143.114c5.248-8.367,1.74-16.013-1.932-23.646
		c-5.682-3.648-7.383-10.059-4.585-17.271c0.162-1.649,0.324-3.301,0.486-4.954c-0.183-2.574-0.839-5.221-0.458-7.707
		c0.971-6.32-2.4-9.658-6.951-13.231c-5.005-3.932-9.281-8.797-13.795-13.361v-5.551c0.105,0.043,0.207,0.093,0.318,0.125
		c0.243-4.617,0.486-9.233,0.73-13.85c-2.346,0.264-3.6-1.313-4.094-3.116c-1.731-6.31-6.725-7.675-12.115-8.076
		c-4.853-0.361-7.812-3.568-11.129-6.373c-0.496,1.601,0.841,5.436-3.244,2.637c-2.44-1.672-5.965-1.381-7.646-4.623
		c-0.539-1.037-2.434-2.062-3.607-1.958c-8.05,0.716-13.403-3.966-18.592-8.99c-1.244-1.205-2.443-1.385-3.812-0.676
		c-2.266,1.173-4.018,0.426-5.822-1.074c-2.66-2.21-5.062-4.674-9.322-2.824c-1.897,0.824-2.33-1.673-2.09-3.459
		c-1.051,0-2.102-0.004-3.153-0.008c0.12,0.975-0.151,1.834-1.229,1.836c-1.068,0.001-1.361-0.853-1.258-1.83
		c-2.975-0.743-6.211-0.249-8.994-1.908c-3.246-0.126-6.205,8.011-9.713,0.339c-1.02,0.062-2.039,0.123-3.059,0.185
		c0.146,2.876-2.059,3.158-4.043,4.042c-4.033,1.795-8.667,2.52-11.697,6.268c-0.732,0.905-2.214,2.037-3.016,1.177
		c-5.563-5.97-12.717-2.855-19.022-3.048c-4.321-0.131-7.036-3.763-11.264-3.232c-4.396,0.553-8.848,0.662-13.275,0.964
		c-0.649,0.295-1.298,0.591-1.947,0.886c-1.373,3.854-3.814,6.779-8.037,7.026c-6.121,0.358-10.302,3.823-14.248,7.91
		c-0.614,0.502-1.228,1.002-1.841,1.504c-0.571,1.946-2.301,2.258-3.881,2.775c-0.298,2.783-0.255,5.662-0.979,8.332
		c-1.123,4.15-12.988,9.728-17.498,8.533c-1.824,1.362-1.995,4.282-4.595,4.911c-0.256,0.296-0.357,0.638-0.305,1.027
		c-0.238,0.615-0.476,1.229-0.714,1.842c-2.293,6.292-8.27,11.089-7.512,18.623c-0.523,1.413-1.045,2.827-1.567,4.24
		c-5.308,2.704-7.813,7.183-8.189,13.013c-1.352,5.88-2.969,11.714-3.973,17.653c-0.799,4.732,0.81,10.56-7.434,9.883
		c-1.933-0.159-2.07,3.269-2.695,5.218c-0.156,0.465-0.313,0.93-0.469,1.394c-3.807,4.809-3.502,11.898-8.208,16.005
		c-4.827,4.213-4.801,9.271-4.128,14.746c0.736,5.984,4.316,10.545,7.662,15.218c1.535,2.438,3.072,4.875,4.608,7.314
		c-1.127,3.803,0,7.35,0.694,11.11c1.382,7.504,7.632,15.446-0.898,22.648c-0.435,0.367-0.502,1.333-0.51,2.023
		c-0.085,7.302-1.166,14.655,0.558,21.869v6.567h0.004c-0.732,10.492,3.717,20.112,6.35,30.038c0.272,0.541,0.545,1.081,0.815,1.622
		c-0.001,0,0.057,0.129,0.057,0.129c1.465,6.903-0.698,14.137,1.891,20.938c0.671,4.852,1.997,9.301,7.009,11.484
		c6.543,1.662,11.644,0.268,13.576-6.85c2.933,0.492,2.192,3.99,4.643,4.297c0.252,0.586,0.504,1.171,0.756,1.756
		c1.307,3.091,2.615,6.182,3.922,9.271c-0.102,1.965,0.806,3.471,2.157,4.772c0.343,6.587,4.592,11.812,6.146,18.032
		c2.779,11.129,11.84,20.604,16.446,31.053c15,13.235,23.742,25.619,25.668,29.921c2.989,6.676,25.863,24.715,42.593,23.862
		s39.151,2.769,51.44-13.209s41.729-69.863,45.956-72.769c2.041-1.403,5.191-4.957,8.622-8.268c-0.131-1.766-0.37-3.538-0.688-5.315
		c0.041-1.358,0.084-2.72,0.127-4.08c0.178-0.761,0.355-1.522,0.533-2.285c0.127-1.339,0.252-2.675,0.379-4.012
		c4.062-3.661,3.602-8.714,4.111-13.465c3.238-3.557,2.873,0.297,3.5,1.772c3.289,7.734,9.013,9.038,15.855,3.562
		c-0.001-0.002-0.002-0.004-0.004-0.005c0.666-0.366,1.338-0.731,2.01-1.095c5.866-4.363,3.131-9.765,1.795-14.996
		c2.772-5.326,0.654-11.474,2.816-16.9c3.521-9.083,7.303-18.114,5.311-28.24c0.787-4.748,0.21-9.397-1.008-14.002
		c-0.564-5.715,5.113-11.751-0.871-17.19c-1.135,0.766-2.172,1.599-3.164,2.464v0c0.992-0.865,2.028-1.699,3.162-2.464
		c1.307-7.654-0.467-15.887,4.436-22.878c1.424-2.03,1.211-4.509,0.918-6.889c5.929-10.714,4.887-22.741,6.414-34.288
		C300.857,146.352,300.792,144.733,300.726,143.114z M115.867,218.926c-0.165,0.122-0.339,0.208-0.534,0.205
		c-2.25-0.036-16-1.714-19.902-2.17c-0.842-0.099-1.399-0.316-1.781-0.605c-2.568-0.906-3.979-3.014-4.577-5.967
		c1.373-3.743,3.893-6.372,7.469-8.15c4.982-2.476,10.184-2.291,15.463-1.627c2.662,1.336,5.121,2.972,7.307,5.004
		c0.479,0.512,0.957,1.024,1.436,1.537c0.495,2.053,2.305,3.598,2.267,5.857C121.582,218.159,120.946,219.11,115.867,218.926z
		 M229.986,216.817c-0.419,0.232-1.001,0.369-1.848,0.348c-3.927-0.098-17.776-0.374-20.009-0.655
		c-0.194-0.024-0.354-0.134-0.5-0.278c-5.054-0.533-5.55-1.564-6.242-6.864c0.281-2.243,2.29-3.517,3.069-5.479
		c0.546-0.44,1.092-0.88,1.638-1.32c2.45-1.704,5.115-2.977,7.939-3.924c5.32,0.087,10.495,0.636,15.079,3.79
		c3.29,2.264,5.414,5.222,6.246,9.121C234.35,214.394,232.656,216.282,229.986,216.817z"/>
	<path fill-rule="evenodd" clip-rule="evenodd" fill="#5C3631" d="M65.744,92.338c-0.485,0.524-0.97,1.047-1.454,1.572
		c-4.639,0.582-9.281,1.161-13.923,1.741l0.069,0.059c-1.839-3.279-6.067-8.075-5.116-9.583c4.828-7.663-2.953-5.576-5.102-7.68
		c0.522-1.413,1.044-2.827,1.567-4.24c5.57,1.992,9.936,0.454,13.305-4.4c0.929-1.337,2.224-3.406,3.388-3.432
		c7.899-0.175,3.262-3.093,1.418-5.575c-0.494-0.665-0.564-1.646-0.997-3.011c5.298-0.045,10.037,0.515,11.953,5.514
		c1.772,4.624,6.128,3.625,8.849,4.068c2.667,0.434,0.342-4.583,1.282-5.616c3.146-3.453-0.565-6.584,0.164-10.575
		c1.505,1.292,2.493,2.14,3.482,2.989c0.074,0.163,0.123,0.349,0.232,0.482c0.064,0.078,0.228,0.075,0.346,0.107
		c-0.205-0.184-0.411-0.367-0.616-0.551c5.874-6.051,5.39-15.346,11.21-21.832c0.145,2.815,0.277,5.388,0.434,8.427
		c2.86-0.906,6.54-6.877,7.726,1.102c0.214,1.44,2.382,0.694,3.37-0.593c3.523-4.596,3.68-1.671,4.688,1.728
		c1.001,3.377,0.109,8.015,5.913,10.592c-2.781-4.989-2.991-8.977-1.424-12.638c8.482,0.859,8.158,7.525,8.266,13.314
		c6.589-0.722,6.836-4.516,5.126-8.798c-1.144-2.862-1.123-5.933-2.596-8.786c-2.806-5.434-0.733-10.351,3.015-14.663
		c3.219-3.704,7.691-2.928,11.245-1.752c3.528,1.167-0.914,4.577,0.374,6.909c-0.956,1.777-1.913,3.554-2.87,5.331
		c-7.572,6.176-7.564,6.388,0.834,23.153c2.893-2.996,0.464-7.734,2.952-11.079c2.855,2.042,0.713,5.437,3.114,7.3
		c2.426-2.275,0.525-5.515,2.481-8.691c1.048,1.502,2.347,6.329,4.271,1.091c0.194-0.529,1.135-1.176,1.728-0.373
		c0.5,0.677,1.049,1.758,0.844,2.438c-0.562,1.862-1.101,3.685-0.335,5.544c0.581,1.409,1.72,2.293,3.351,2.036
		c1.504-0.238,1.802-1.447,1.62-2.677c-0.91-6.16,3.062-12.199,0.403-18.47c-0.307-0.722,0.474-2.646,2.184-2.919
		c1.252,2.5-0.598,5.94,1.731,7.333c3.882,0.933,1.937-4.335,6.462-3.616c-3.617,5.162-2.203,9.081,2.418,12.028
		c0.182,3.281,0.363,6.562,0.546,9.843c-2.231,1.282-3.151,3.22-0.854,4.812c1.218,0.844,4.601,2.085,5.034,0.097
		c1.65-7.604,12.617-5.372,12.352-14.71c2.912,3.843-1.905,7.539,2.352,9.534c2.406,1.128,2.965-1.701,4.373-2.722l0.451,0.428
		c0.027,1.021,0.068,2.035,1.16,2.574l0.273,0.271c0.49,2.379-1.504,7.501,4.455,3.444c2.496-1.701,1.758,0.896,1.903,2.529
		c0.435,4.889,2.711,6.361,6.778,4.955c0.553-0.191,1.598-0.29,1.783-0.01c5.096,7.689,6.93-0.051,8.853-2.338
		c4.267-5.078,7.273-10.904,7.948-17.888c0.211-2.178-0.225-5.77,3.223-7.101c2.441,8.441-1.43,15.13-5.011,21.794
		c-1.071,1.995-2.573,3.665-0.237,5.505c2.676,2.107,3.199-0.673,4.754-1.985c5.994-5.057,7.267-11.911,8.061-19.053
		c0.195-1.761,0.641-3.359,2.541-3.836c1.66-0.416,2.551,0.924,3.467,1.995c1.194,1.393,2.367,4.183,4.232,2.963
		c4.824-3.156,8.08,1.937,12.451,1.703c5.75-0.308,5.084,6.931,8.775,9.468c-0.132,1.616-0.264,3.228-0.395,4.841
		c-2.121,2.068-0.965,4.963-1.825,7.413c-1.091,3.11-1.868,5.893-6.018,5.464c-4.251-0.44-4.446-3.625-4.608-6.732
		c-0.16-3.072-0.012-6.16-0.076-9.239c-0.027-1.303-0.662-2.335-2.107-2.241c-0.529,0.034-1.501,0.955-1.452,1.051
		c2.194,4.319-3.022,8.822,0.271,13.024c4.375,5.584,3.328,11.261,0.494,17.021c-0.109,0.202-0.219,0.403-0.328,0.604
		c0.113-0.197,0.227-0.394,0.342-0.59c0.697,0.117,1.488,0.062,2.078,0.38c7.029,3.789,6.691,3.771,7.225-3.698
		c0.127-1.756-1.416-5.833,3.611-6.129c8.889-0.525,19.514,9.131,19.257,17.817c-0.494,16.729,3.989,32.314,11.468,47.128
		c0.066,1.619,0.131,3.237,0.195,4.853c-5.342,10.823-7.475,22.255-6.414,34.288c0.293,2.38,0.506,4.859-0.918,6.889
		c-4.902,6.992-3.129,15.224-4.436,22.878c-9.885,6.668-13.936,17.33-19.299,28.613c-1.037-20.171,3.774-39.517-1.811-58.419
		c-1.449-3.284,2.365-7.386-1.586-10.28c-0.174-0.888-0.347-1.777-0.512-2.664c5.133-7.972,7.867-16.819,8.01-26.184
		c0.084-5.378-2.197-10.802-2.061-16.17c0.197-7.757-4.152-13.594-6.734-20.194c-0.992-2.537-2.846-3.288-5.53-3.442
		c-3.968-0.229-7.501-2.501-9.32-5.706c-1.78-3.14-4.146-5.803-6.505-8.1c-4.072-3.964-8.164-9.575-15.406-6.001
		c-0.448,0.428-0.896,0.855-1.346,1.283c-0.895-0.021-1.791-0.044-2.686-0.065c-2.211-2.923-5.316-2.425-8.352-2.209
		c-2.566-2.846-5.033-1.21-7.504,0.165c-1.029,0.056-2.057,0.112-3.081,0.162c0.24-1.414,2.077-3.989-0.517-3.857
		c-4.543,0.23-8.623-2.214-12.812-1.935c-12.545,0.838-25.005,4.231-37.621,0.615l-0.09-0.091c0.705-3.492,6.386-4.318,4.734-9.242
		c-6.552,5.646-14.059,6.373-22.117,4.547c-1.512-0.342-3.528-0.721-4.663-0.022c-3.179,1.958-4.81,2.552-9.159,0.414
		c-3.384-1.665-5.034-3.754-6.724-6.544c-5.733,6.167-12.877,6.958-22.219,2.907c-2.371,6.275-5.753,7.432-15.424,4.801
		c2.842,3.824,0.631,5.55-2.002,7.602C73.006,85.893,67.542,86.983,65.744,92.338z M291.296,134.298
		c-0.164-0.085-0.33-0.169-0.494-0.254c0.158,0.092,0.316,0.183,0.476,0.274c0.04,2.8,0.78,5.147,3.718,7.044
		C295.929,136.963,293.187,135.904,291.296,134.298z M256.755,101.85c5.074-1.309,8.25,0.24,11.611,0.81
		c1.615,0.273,2.688-0.675,2.738-2.357c0.018-0.619,0.508-2.373-1.066-1.554C266.275,100.705,261.906,96.21,256.755,101.85z
		 M224.727,81.952c-0.172-0.061-0.344-0.121-0.516-0.181c-0.028,0.258-0.056,0.515-0.084,0.772c0.183-0.044,0.399-0.043,0.536-0.148
		C224.748,82.331,224.71,82.105,224.727,81.952z"/>
	<path fill-rule="evenodd" clip-rule="evenodd" fill="#9C6554" d="M198.541,55.502c-1.092-0.539-1.133-1.552-1.16-2.576
		c0.71-0.289,1.918,0.032,1.773-1.309c-0.037-0.332-0.533-0.836-0.861-0.875c-1.299-0.152-1.094,1.016-1.363,1.757
		c-1.408,1.021-1.967,3.851-4.373,2.722c-4.257-1.995,0.561-5.691-2.352-9.534c0.266,9.338-10.701,7.106-12.352,14.71
		c-0.434,1.988-3.816,0.747-5.034-0.097c-2.298-1.592-1.378-3.531,0.849-4.811c3.855-3.669,6.241-7.896,6.346-14.15
		c-3.398,1.518-4.016,4.661-6.887,4.305c-4.621-2.947-6.035-6.866-2.418-12.028c-4.525-0.719-2.58,4.549-6.462,3.616
		c-2.329-1.393-0.479-4.833-1.731-7.333c-1.71,0.273-2.49,2.197-2.184,2.919c2.658,6.271-1.313,12.31-0.403,18.47
		c0.182,1.229-0.116,2.439-1.62,2.677c-1.631,0.258-2.77-0.626-3.351-2.036c-0.766-1.859-0.227-3.682,0.335-5.544
		c0.205-0.68-0.343-1.76-0.844-2.438c-0.593-0.804-1.534-0.156-1.728,0.373c-1.924,5.237-3.224,0.411-4.271-1.091
		c-1.956,3.177-0.055,6.417-2.481,8.691c-2.4-1.863-0.258-5.258-3.114-7.3c-2.488,3.345-0.059,8.083-2.952,11.079
		c-8.399-16.766-8.407-16.978-0.836-23.152c2.301,0.306,2.073,1.624,1.894,3.542c-0.308,3.319,2.519,4.725,4.98,4.512
		c2.204-0.191,3.106-3.108,2.575-5.078c-0.96-3.564-0.876-8.379-6.578-8.309c-1.288-2.332,3.154-5.742-0.374-6.909
		c-3.554-1.176-8.026-1.951-11.245,1.752c-3.748,4.312-5.821,9.229-3.015,14.663c1.473,2.853,1.453,5.924,2.596,8.786
		c1.71,4.282,1.463,8.076-5.126,8.798c-0.107-5.789,0.216-12.456-8.266-13.314c-1.567,3.662-1.357,7.649,1.424,12.638
		c-5.804-2.577-4.912-7.215-5.913-10.592c-1.008-3.398-1.165-6.324-4.688-1.728c-0.988,1.287-3.156,2.033-3.37,0.593
		c-1.186-7.979-4.865-2.008-7.726-1.102c-0.157-3.039-0.289-5.611-0.434-8.427c-5.82,6.486-5.336,15.781-11.21,21.832l0.038-0.039
		c-0.989-0.849-1.978-1.696-3.482-2.989c-0.729,3.991,2.981,7.122-0.164,10.575c-0.94,1.032,1.386,6.049-1.282,5.616
		c-2.72-0.442-7.077,0.556-8.849-4.068c-1.916-4.999-6.655-5.559-11.953-5.514c0.432,1.364,0.502,2.346,0.997,3.011
		c1.844,2.481,6.481,5.399-1.418,5.575c-1.164,0.026-2.459,2.095-3.388,3.432c-3.369,4.854-7.734,6.393-13.305,4.4
		c-0.757-7.534,5.219-12.33,7.512-18.623c0.238-0.614,0.476-1.228,0.714-1.842c-0.052-0.389,0.049-0.731,0.305-1.027
		c2.6-0.629,2.771-3.549,4.595-4.911c4.51,1.195,16.375-4.383,17.498-8.533c0.723-2.67,0.681-5.549,0.979-8.332
		c1.581-0.517,3.311-0.829,3.881-2.775c0.614-0.501,1.228-1.002,1.841-1.504c3.946-4.087,8.127-7.552,14.248-7.91
		c4.223-0.247,6.664-3.173,8.037-7.026c0.648-0.295,1.297-0.591,1.947-0.886c4.427-0.302,8.878-0.412,13.275-0.964
		c4.229-0.531,6.943,3.101,11.264,3.232c6.305,0.193,13.458-2.922,19.022,3.048c0.801,0.86,2.284-0.272,3.016-1.177
		c3.03-3.749,7.664-4.473,11.697-6.268c1.984-0.884,4.189-1.166,4.043-4.042c1.02-0.062,2.039-0.123,3.059-0.185
		c3.508,7.672,6.467-0.466,9.713-0.339c2.783,1.659,6.02,1.165,8.994,1.908c-0.104,0.978,0.189,1.831,1.258,1.83
		c1.078-0.002,1.35-0.861,1.229-1.836c1.052,0.004,2.103,0.008,3.153,0.008c-0.24,1.787,0.192,4.284,2.09,3.459
		c4.26-1.85,6.662,0.614,9.322,2.824c1.805,1.5,3.557,2.247,5.822,1.074c1.369-0.709,2.568-0.529,3.812,0.676
		c5.188,5.023,10.542,9.706,18.592,8.99c1.174-0.104,3.068,0.921,3.607,1.958c1.682,3.242,5.206,2.951,7.646,4.623
		c4.085,2.799,2.748-1.036,3.244-2.637c3.316,2.805,6.276,6.012,11.129,6.373c5.391,0.401,10.384,1.766,12.115,8.076
		c0.494,1.803,1.748,3.38,4.094,3.116c-0.244,4.616-0.487,9.232-0.73,13.85c-0.373-0.107-0.713-0.281-1.02-0.521
		c-3.691-2.533-3.025-9.772-8.775-9.464c-4.371,0.234-7.627-4.859-12.451-1.703c-1.865,1.22-3.038-1.57-4.232-2.963
		c-0.916-1.071-1.807-2.411-3.467-1.995c-1.9,0.477-2.346,2.075-2.541,3.836c-0.794,7.142-2.066,13.996-8.061,19.053
		c-1.555,1.312-2.078,4.093-4.754,1.985c-2.336-1.84-0.834-3.51,0.237-5.505c3.581-6.664,7.452-13.353,5.011-21.794
		c-3.447,1.331-3.012,4.923-3.223,7.101c-0.675,6.983-3.682,12.81-7.948,17.888c-1.923,2.287-3.757,10.027-8.853,2.338
		c-0.186-0.28-1.23-0.182-1.783,0.01c-4.067,1.406-6.344-0.066-6.778-4.955c-0.146-1.633,0.593-4.229-1.903-2.529
		c-5.959,4.057-3.965-1.065-4.459-3.447c0.184-0.28,0.369-0.56,0.555-0.837C199.09,55.122,198.815,55.312,198.541,55.502z
		 M56.095,62.791c-0.068-0.184-0.1-0.394-0.214-0.54c-0.069-0.087-0.264-0.075-0.402-0.107c0.215,0.206,0.43,0.412,0.645,0.618
		c0.067,0.182,0.1,0.391,0.212,0.537c0.068,0.088,0.262,0.077,0.399,0.11C56.521,63.203,56.308,62.997,56.095,62.791z
		 M191.486,29.839c3.225,2.812,3.608,5.801,0.863,9.263c-0.879,1.108-0.924,2.743,0.041,3.98c0.246,0.315,1.639,0.3,1.775,0.045
		c2.287-4.308,10.812-5.098,6.283-12.876c2.639,0.238,4.191,0.686,4.805,2.515c0.441,1.314-1.807,3.553,1.076,3.964
		c2.314,0.329,3.176-1.538,3.746-3.492c0.777-2.66,1.645-5.291,2.473-7.935c-2.451,0.987-5.113-1.528-6.727,0.862
		c-2.938,4.351-3.705,2.035-4.414-1.264c-0.342-1.596,0.938-4.611-2.105-4.187c-2.301,0.322-5.303-0.105-6.791,2.933
		c-1.01,2.062-0.881,4.132-0.967,6.247c-3.092,1.439-5.469,3.636-5.881,7.123c-0.219,1.857,1.759,1.285,2.596,1.05
		C192.826,36.788,191.187,32.904,191.486,29.839z M159.082,16.436c-1.58,5.295-3.534,8.652-1.435,13.382
		C159.775,25.637,160.871,22.248,159.082,16.436z M188.305,27.066c-0.089-0.188-0.179-0.375-0.268-0.562
		c-0.124,0.162-0.333,0.315-0.349,0.487c-0.017,0.178,0.154,0.373,0.244,0.56C188.057,27.389,188.181,27.228,188.305,27.066z"/>
	<path fill-rule="evenodd" clip-rule="evenodd" fill="#5C3631" d="M46.391,181.711c-4.525,12.945-6.493,26.187-4.589,39.877
		c-1.691,2.759-2.85,5.503-1.136,8.796c1.82,3.5-1.114,3.715-3.285,4.361l-0.08-0.114c0.347-1.75-0.413-2.837-2.027-3.413
		c-2.152-8.561-12.011-12.829-10.823-24.119c0.98-9.32-3.04-19.185-7.057-28.208c-1.536-2.438-3.073-4.876-4.608-7.314
		c1.375-0.436,1.898-1.241,1.071-2.582c-3.268-5.299-2.85-10.825-2.191-16.843c1-9.134,5.861-17.305,5.819-26.578
		c0,0-0.03,0.048-0.029,0.048c1.201-0.115,1.454-0.553,0.474-1.408c0.625-1.949,0.762-5.377,2.695-5.218
		c8.243,0.676,6.635-5.151,7.434-9.883c1.003-5.939,2.621-11.773,3.973-17.653c6.411,0.833,5.833,0.528,3.182,5.588
		c-1.467,2.798-6.054,7.744,1.648,9.9c2.151,0.602,2.43,2.029,0.765,4.281c-2.714,3.669-0.223,9.095,4.194,10.16l0.084,0.085
		c-0.122,3.514-0.122,7.003-0.583,10.537c-0.272,2.086-0.786,7.465,2.878,6.525c4.493-1.153,3.055,0.628,2.722,2.797
		c-0.729,4.754-6.143,10.037,1.553,13.929c0.389,0.197,0.162,1.738,0.125,2.649C48.276,165.883,48.705,173.926,46.391,181.711z"/>
	<path fill-rule="evenodd" clip-rule="evenodd" fill="#9C6554" d="M46.391,181.711c2.314-7.785,1.886-15.828,2.207-23.799
		c0.037-0.911,0.264-2.452-0.125-2.649c-7.696-3.892-2.281-9.174-1.553-13.929c0.333-2.169,1.771-3.95-2.722-2.797
		c-3.664,0.94-3.15-4.439-2.878-6.525c0.461-3.534,0.461-7.022,0.583-10.537c0.199-0.224,0.399-0.447,0.599-0.67
		c-0.228,0.195-0.456,0.391-0.683,0.585c-4.417-1.065-6.908-6.491-4.194-10.16c1.665-2.251,1.386-3.679-0.765-4.281
		c-7.702-2.157-3.115-7.102-1.648-9.9c2.651-5.06,3.229-4.755-3.182-5.588c0.375-5.83,2.881-10.309,8.189-13.013
		c2.149,2.104,9.929,0.017,5.102,7.68c-0.951,1.508,3.276,6.304,5.116,9.583c-1.41,0.272-4.07-0.614-3.643,1.699
		c0.5,2.703,3.323,3.135,5.825,3.527c0.442-2.643-1.796-3.532-2.251-5.285c4.642-0.58,9.284-1.159,13.923-1.741
		c-2.201,5.111-3.932,10.625-8.049,14.497c-4.408,4.143-2.325,9.856-4.378,14.479c-0.108,0.177-0.215,0.355-0.324,0.533
		c0.089-0.196,0.179-0.392,0.269-0.587c4.396,4.013,5.505,9.872,6.855,15.021c2.409,9.183,2.052,19.031,5.964,27.964l0.065-0.065
		c-6.175,1.38-11.843,3.225-13.362,10.684C50.832,178.881,49.592,181.429,46.391,181.711z M56.682,103.335
		c0.125-0.423,0.202-0.683,0.279-0.944c-0.168,0.05-0.475,0.093-0.478,0.15C56.473,102.74,56.571,102.943,56.682,103.335z"/>
	<path fill-rule="evenodd" clip-rule="evenodd" fill="#9C6554" d="M300.726,144.032c-7.479-14.814-11.962-30.399-11.468-47.128
		c0.257-8.686-10.368-18.342-19.257-17.817c-5.027,0.297-3.484,4.373-3.611,6.129c-0.533,7.47-0.195,7.487-7.225,3.698
		c-0.59-0.318-1.381-0.263-2.078-0.38l-0.014-0.015c2.834-5.76,3.881-11.437-0.494-17.021c-3.293-4.202,1.924-8.705-0.271-13.024
		c-0.049-0.096,0.923-1.017,1.452-1.051c1.445-0.094,2.08,0.938,2.107,2.241c0.064,3.08-0.084,6.167,0.076,9.239
		c0.162,3.107,0.357,6.292,4.608,6.732c4.149,0.429,4.927-2.354,6.018-5.464c0.86-2.45-0.296-5.345,1.825-7.414
		c4.926,4.87,9.481,10.215,14.891,14.464c4.551,3.573,7.922,6.911,6.951,13.231c-0.381,2.486,0.275,5.133,0.458,7.707
		c-0.162,1.653-0.324,3.305-0.486,4.954c-2.798,7.213-1.097,13.623,4.585,17.271C302.466,128.019,305.974,135.665,300.726,144.032z"
		/>
	<path fill-rule="evenodd" clip-rule="evenodd" fill="#F4BDA1" d="M278.437,303.152c-0.268-4.059-5.183-3.279-6.604-6.588
		c-1.459-3.4-4.408-6.429,2.527-5.5c1.037,0.139,2.043,0.135,2.188-0.971c0.104-0.783-0.248-2.082-0.826-2.427
		c-5.994-3.584-6.758-6.644,0.707-9.091c1.078-0.354,1.666-0.996,1.272-2.024c-0.567-1.487-1.933-1.823-3.4-2.116
		c-2.964-0.591-5.862,2.457-8.812,0.094c-0.238-6.205,1.389-11.963,4.154-17.449c2.774,1.219,2.684,3.195,2.094,5.851
		c-0.539,2.433-0.113,5.083-0.113,7.81c3.253-0.875,2.68-3.498,2.432-5.223c-0.793-5.498,3.367-10.337,6.299-10.71
		c8.248-1.05,4.465-6.929,5.537-10.641c0.525-1.815-1-4.187,1.32-5.704c2.527,1.038,0.379,5.254,3.822,5.67
		c1.992,10.125-1.789,19.156-5.311,28.24c-6.116,4.764-5.217,10.707-2.816,16.9c1.336,5.23,4.071,10.632-1.795,14.995
		C280.523,303.168,279.486,303.146,278.437,303.152z"/>
	<path fill-rule="evenodd" clip-rule="evenodd" fill="#F4BDA1" d="M26.144,268.834c1.85-0.975,2.972-2.212,2.067-4.529
		c-0.963-2.471-1.123-4.982,0.192-7.457c7.337,1.984,8.026,8.014,8.827,14.266c2.316-5.898-2.475-12.863,3.143-17.924
		c-0.137,7.796,4.707,14.738,3.863,22.658c-3.06,2.329-4.692-2.521-7.665-1.5c-1.536,0.529-3.629,0.322-4.011,2.186
		c-0.532,2.594,2.222,0.565,2.866,1.643c1.708,2.857,6.499,5.664,0.242,8.764c-3.616,1.791-2.135,4.393-0.586,6.414
		c1.377,1.797,3.262,3.943,0.911,5.225c-4.215,2.299-2.761,5.553-2.629,8.744c-5.012-2.184-6.337-6.633-7.009-11.485
		c4.857-6.128,1.782-13.747,3.757-20.456c0.613-2.083-1.835-2.25-3.347-2.704C26.558,271.396,26.35,270.115,26.144,268.834z"/>
	<path fill-rule="evenodd" clip-rule="evenodd" fill="#D3896A" d="M33.363,307.322c-0.131-3.191-1.585-6.445,2.629-8.744
		c2.351-1.281,0.466-3.428-0.911-5.225c-1.548-2.021-3.029-4.623,0.586-6.414c6.257-3.1,1.467-5.906-0.242-8.764
		c-0.644-1.077-3.398,0.951-2.866-1.643c0.382-1.863,2.476-1.656,4.011-2.186c2.972-1.021,4.605,3.829,7.667,1.5
		c0.991,0.971,1.978,1.941,2.966,2.913c1.466,8.671,2.932,17.341,4.398,26.013c-2.477-0.289-1.721-3.808-4.663-4.301
		C45.007,307.59,39.907,308.983,33.363,307.322z"/>
	<path fill-rule="evenodd" clip-rule="evenodd" fill="#9C6554" d="M17.484,125.576c0.042,9.273-4.819,17.444-5.819,26.578
		c-0.659,6.018-1.077,11.544,2.191,16.843c0.828,1.341,0.304,2.146-1.071,2.582c-3.345-4.673-6.925-9.233-7.662-15.218
		c-0.673-5.475-0.699-10.533,4.128-14.746C13.968,137.498,13.649,130.384,17.484,125.576z"/>
	<path fill-rule="evenodd" clip-rule="evenodd" fill="#F4BDA1" d="M155.892,251.617c0.532-2.025,0.874-4.125,1.629-6.064
		c2.08-5.324,2.148-10.191-3.043-13.746c-2.236-1.531-3.089-3.404-2.853-5.966c0,0.001-0.043,0.055-0.043,0.055
		c6.119-4.688,4.19-11.198,3.388-17.145c-0.279-2.064-1.519-2.707,0.896-4.823c2.802-2.454-0.869-4.631-3.068-5.183
		c-9.757-2.447-13.785-9.767-15.101-18.566c-0.708-4.734-3.996-8.737-3.239-13.711c0.421-1.2,1.373-2.538,2.299-1.069
		c1.298,2.059,2.13,3.562,4.677,1.656c2.172-1.625,1.799-3.83,1.173-5.757c-1.187-3.649-17.74-10.854-21.105-9.13
		c-0.876,0.449-0.965,2.448-1.415,3.736c-5.681-3.503-13.133-2.133-18.5-7.075c-1.374-1.266-5.755-4.051-7.318,1.267
		c-4.155-1.525-8.354,1.43-12.229,0.207c-2.283-0.72-0.681-2.101,0.987-3.246c4.837-3.323,10.143-4.956,15.855-5.375
		c2.9-0.212,5.542-0.912,8.803-2.857c-6.421-3.086-12.098-4.14-17.944-0.225c-1.386,0.928-2.893,2.208-4.361,0.493
		c-1.202-1.405-1.21-3.458,0.458-4.375c2.885-1.585,0.178-3.603,0.479-5.361c1.265-7.394,5.12-10.729,12.339-11.055
		c1.439-0.064,3.28-0.607,4.105-3.411c-6.017,0.911-11.662,1.54-17.199,2.69c-3.033,0.631-4.314,0.161-3.169-2.963
		c0.858-2.341,0.144-4.698-1.004-6.086c-4.756-5.751,3.137-4.306,3.653-6.929c4.7,3.209,5.076-1.323,6.214-3.746
		c1.315-2.801,3.507-3.883,6.2-3.92c3.919-0.055,5.102-2.026,4.232-5.446c1.802-0.73,2.152,4.112,5.008,0.208
		c1.592-2.174,7.184-1.898,10.964-1.86c8.964,0.092,17.718-2.958,27.076,1.292c4.374,1.986,11.257,1.463,16.923,1.869
		c12.993,0.931,25.914-3.789,38.982,0.585c5.706,1.911,12.281,0.688,18.066,3.999c4.221,2.417,3.957,7.103,6.559,10.396
		c3.681,4.661-0.122,7.903-4.965,9.765c-2.107,0.81-2.035,2.68,0.145,3.54c2.853,1.124,2.682,2.827,1.59,5.072
		c-1,2.055-2.734,2.785-4.706,2.214c-11.089-3.218-21.54-0.076-31.891,3.291c-3.79,1.233-7.739,1.137-11.642,1.519
		c0.008,0.713,0.018,1.427,0.025,2.14c4.844,0,10.061,1.136,14.434-0.304c4.854-1.598,10.047-1.685,14.686-3.995
		c8.072-4.02,15.615,2.097,23.539,1.476c-0.555,3.178,3.592,4.949,3.031,7.197c-0.691,2.773-3.904,1.483-6.174,1.091
		c-12.531-2.17-24.709-0.369-37.752,3.178c3.223,2.659,5.871,1.452,8.49,1.146c12.408-1.455,24.827-2.312,37.1,0.998
		c6.418,1.731,5.889,4.089,6.783,8.495c2.608,12.838-4.936,5.951-9.344,5.651c-8.486-0.578-16.123,3.497-24.305,4.628
		c-0.857-2.795,3.478-5.592,0.142-8.29c-3.255-2.634-6.406-1.247-9.474,0.671c-0.748,0.467-1.689,0.833-2.555,0.861
		c-7.383,0.245-9.602,2.95-7.881,9.979c0.373,1.528,0.74,3.511,2.547,3.916c1.732,0.388,2.151-1.607,2.84-2.655
		c1.852-2.817,3.867-4.78,7.499-3.229c-2.487,3.165-5.47,6.017-7.045,10.014c2.524,0.693,2.587-1.625,3.937-1.892l0.1,0.1
		c-0.006,1.419,0.288,3.278-1.195,3.841c-5.082,1.929-5.838,4.761-2.862,9.268c1.3,1.971,0.899,2.383-2.331,2.334
		c-1.818-0.026-1.527,1.3-2.043,2.217c-1.814,3.234,0.491,10.792-7.664,7.445c-0.73,4.75-9.335,4.181-6.928,11.862
		c1.742,5.559-0.227,12.062,3.723,17.579c2.483,3.47-0.684,7.318-0.777,11.056c-0.178,7.143-1.33,14.348-0.643,21.385
		c0.342,3.502,4.371,5.934,8.6,6.059c1.148,0.033,2.301,0.006,2.949,0.006c1.227,8.332-7.1,9.779-10.025,15.12
		c-0.534,0.974-3.441,1.884-3.648,1.608c-4.753-6.328-17.209-0.306-19.03-12.072c-0.233-1.504-1.248-2.693,0.177-3.844
		c4.412-3.562,5.964-7.121,1.242-11.775c-1.082-1.068,0.748-1.777,1.909-2.01c0.079,0.17,0.126,0.367,0.246,0.498
		c0.074,0.082,0.258,0.061,0.393,0.086C156.306,252.018,156.099,251.818,155.892,251.617z M162.357,177.366
		c3.19,3.904,2.709-4.24,6.497-1.897c3.822,2.363,10.675-2.039,11.101-6.433c0.119-1.243,1.132-4.131-1.748-3.396
		c-3.33,0.85-5.299-1.395-7.911-2.148c-2.604-0.75-6.624-1.855-7.853,0.817c-2.295,4.991-4.391,3.463-7.214,1.079
		c-2.328-1.967-4.565-0.625-6.515,0.595c-2.2,1.376-2.722,3.768-2.518,6.274c0.174,2.132,2.622,3.35,3.412,2.921
		C154.561,172.486,157.879,177.614,162.357,177.366z M169.181,132.679c-7.854-0.607-15.396-2.597-22.874-4.44
		c-7.416-1.828-14.654-2.746-22.173-0.817C139.56,126.272,153.149,139.667,169.181,132.679z M141.302,137.749
		c-3.772,1.098-7.054-0.337-10.43-0.304c-5.56,0.056-10.986-2.916-16.657-0.598c-1.428,0.583-3.685,0.009-3.733,2.296
		c-0.052,2.452,2.156,2.06,3.671,2.083c7.284,0.109,14.57,0.199,21.854,0.1C138.008,141.298,140.24,141.003,141.302,137.749z
		 M158.124,148.027c3.804,2.486,7.53,1.778,11.213,1.691c1.411-0.034,2.917-0.67,2.747-2.447c-0.15-1.586-1.715-1.43-2.755-1.27
		C165.58,146.582,161.856,147.337,158.124,148.027z M91.313,127.408c7.734,1.05,7.734,1.05,12.418-1.797
		C96.615,123.482,94.334,123.812,91.313,127.408z M117.953,126.115c-0.301,0.255-0.755,0.639-1.208,1.022
		c0.602,0.562,1.127,1.261,1.824,1.648c0.752,0.418,1.256-0.149,1.281-0.906C119.884,126.835,119.274,126.259,117.953,126.115z
		 M111.387,127.063c-0.562-1.915-1.732-2.675-3.537-2.035c-0.371,0.131-0.486,0.99-0.719,1.513
		C108.486,126.979,109.765,128.112,111.387,127.063z M182.91,169.685c0.182-0.092,0.361-0.184,0.543-0.276
		c-0.155-0.125-0.303-0.336-0.469-0.351c-0.17-0.016-0.357,0.161-0.537,0.253C182.601,169.436,182.755,169.56,182.91,169.685z"/>
	<path fill-rule="evenodd" clip-rule="evenodd" fill="#F4BDA1" d="M195.994,278.789c0.277-6.049-2.773-11.347-3.883-16.903
		c-1.816-9.099-6.795-16.691-9.215-25.345c-1.395-4.986-7.539-9.173-2.564-15.239c1.518-1.852-0.333-3.58-0.188-5.38
		c0.676-0.302,1.352-0.603,2.027-0.903c0.86,0.152,1.721,0.304,2.582,0.456c1.766,0.149,3.531,0.298,5.297,0.447
		c2.736,0.613,5.199,0.115,7.316-1.803c4.252,0.11,8.451,0.076,10.086,5.417c0.463,1.51,2.53,1.804,4.166,1.989
		c0.172,0.631,0.347,1.261,0.52,1.891c0.234-0.598,0.469-1.196,0.703-1.794c0.986,0.003,1.971,0.006,2.955,0.008
		c-1.511,3.325,4.963,5.86,0.924,9.569c-0.482,0.445,0.82,0.888,1.359,0.641c4.27-1.955,6.904,5.277,11.826,1.947
		c1.193-0.807,3.186,2.316,2.422,4.705c-1.148,3.592,1.477,5.582,3.611,6.854c3.006,1.792,3.342-2.212,5.051-3.37
		c3.735-2.529,6.445-9.406,11.258-6.839c4.754,2.536,5.521,9.649,5.984,14.848c0.52,5.817-1.254,11.959-2.744,17.774
		c-0.5,1.949-1.211,4.018-1.873,6.016c-0.223,0.676-0.375,1.803-0.791,1.924c-4.548,1.323-7.662,3.233-9.191,8.631
		c-0.879,3.104-3.025-4.773-4.576-1.975c-3.627,6.551-12.062-0.121-15.771,6.406c-0.373,0.658-8.459,0.379-11.674-4.102
		c-1.893-2.636-4.154-4.932-5.726,1.215c-1.536,6.011-4.978-0.758-7.611-0.066C199.077,282.959,198.912,280.422,195.994,278.789z"/>
	<path fill-rule="evenodd" clip-rule="evenodd" fill="#F4BDA1" d="M124.852,211.318c5.971,2.936,11.43,8.431,18.911,3.806
		c1.659,2.818,4.779,1.707,7.013,2.699c4.189,1.86,0.111,5.37,0.808,8.073c-0.001,0,0.042-0.054,0.042-0.055
		c-4.428,6.546-6.167,13.979-7.479,21.647c-0.636,3.719-3.789,6.793-5.835,9.428c-4.324,5.57-4.528,11.513-5.34,17.662
		c-4.425,1.297-4.557,4.684-4.047,8.383c-0.986,0.348-5.544-1.648-6.942-2.572c-3.236-2.141,0.821-3.569,0.179-6.092
		c-5.397,1.096-9.777,3.207-11.56,9.019l-0.116,0.138c-5.087,2.186-9.021,0.588-12.123-3.729c-4.348,3.852-5.772-6.925-10.319-2.078
		c-1.09-1.927-3.774-3.311-2.562-6.051c1.558-3.521-1.105-6.408-1.102-9.663c-5.03,2.96-3.826-3.812-6.419-4.19
		c-6.542-0.956-6.065-7.389-8.794-11.225c-1.083-1.521-1.389-3.816-2.855-5.473c-2.567-2.9-2.372-5.404,1.297-7.445
		c2.676-1.49,4.773-4.727,7.35,0.599c1.698,3.511,4.964,6.415,9.678,5.952c0.18,0.113,0.359,0.227,0.539,0.338
		c-0.196-0.096-0.393-0.191-0.589-0.287c0.223-2.635-0.919-4.943,4.344-3.891c4.94,0.987,10.689-1.881,16.005-3.338
		c0.555-0.152,4.603-1.879,0.383-3.462c-1.573-0.591-2.437-1.696-1.78-3.201c0.577-1.322,2.16-2.417,3.485-1.875
		c4.89,1.998,5.319-2.027,6.784-4.719C119.558,219.664,124.86,219.011,124.852,211.318z M104.785,251.051
		c13.223,8.85,24.342,3.453,27.36-14.639C123.038,241.781,111.237,240.858,104.785,251.051z"/>
	<path fill-rule="evenodd" clip-rule="evenodd" fill="#5C3631" d="M110.013,344.766c-0.005-0.965-0.01-1.927-0.015-2.891
		c1.516-5.52,3.207-11.902,9.766-12.053c3.94-0.091,7.77-0.785,11.663-0.91c6.67,0.214,4.565,0.037,8.362-0.338
		c0.843,0.002,2.719,0.48,3.562,0.48c4.017,1.412,4.557,0.225,8.267,0.449c0.341,0.66,2.139-0.59,2.48,0.07
		c1.667,0.758,1.395-0.25,3.52-0.125c2.125-0.238,1.393,0.408,3.625,0.125c1.24,0.222,3.354-0.456,5.098,0.041
		c5.367,1.533,12.38-0.6,12.068-0.322c1.473-0.072,2.945-0.144,4.418-0.215c2.443,2.586,5.188,3.975,8.929,4.616
		c5.222,0.896,11.745-1.087,15.202,5.216c0.299,2.354-7.541,42.339-7.061,44.655c6.102,29.41-13.333,6.63-1.064,7.435
		c-3.688-0.243-7.005,0.381-10.381,1.469c-1.453-1.264-3.019-2.055-4.979-1.213c-1.065,0.172-2.131,0.342-3.194,0.514
		c-0.165-1.926,2.444-4.984-1.954-5.197c-3.939-0.191-8.179-1.1-11.768,0.006c-5.826,1.793-13.653,0.039-16.614,7.971
		c-2.215,0.01-4.287-1.616-6.595-0.586c-0.632-1.744-1.787-2.375-3.561-1.692c-3.856-0.103-7.962-2.968-11.449,1.04
		c0,0-0.203-0.021-0.204-0.023c-0.563-4.703-3.269-1.103-4.994-1.299c0.052-2.852-0.99-4.703-4.146-3.803
		c-1.749,0.498-2.292-4.074-4.254-4.949C113.498,380.469,111.251,347.534,110.013,344.766z"/>
	<path fill-rule="evenodd" clip-rule="evenodd" fill="#9C6554" d="M47.204,278.761c-0.988-0.972-1.976-1.942-2.966-2.913
		c0.842-7.92-4.001-14.862-3.865-22.658c1.713-6.591-3.758-12.01-2.991-18.445c2.169-0.645,5.104-0.859,3.284-4.359
		c-1.713-3.293-0.555-6.038,1.136-8.796c2.159-0.049,4.126,0.882,4.164,3.015c0.106,6.095,2.003,12.209-1.931,18.2
		c-2.801,4.264,1.161,9.48,3.921,10.34c6.553,2.039,8.773,5.354,9.242,11.967c0.69,9.729,10.03,13.355,16.187,18.545
		c3.096,2.611,4.881,7.593,9.817,8.051l-0.038-0.045c0.244,0.627,0.486,1.252,0.73,1.877c0.244-0.619,0.487-1.24,0.73-1.86
		l-0.015,0.018c4.435-1.417,6.625,0.864,6.962,4.876c0.484,5.77-0.356,11.414-1.644,17.141c-1.136,5.059,0.081,10.621-0.82,15.77
		c-1.633,9.342-0.723,18.785-1.906,28.111c-1.836-3.465-4.151-6.711-5.469-10.746c0,2.804,0.09,5.611-0.033,8.411
		c-0.076,1.739,0.988,4.358-1.676,4.759c-2.866,0.43-2.421-2.33-2.646-4.053c-1.191-9.129-3.013-18.165-2.949-27.462
		c0.053-7.607,0.049-15.239-2.489-22.671c-0.885-2.59-1.653-4.118-4.135-5.811c-4.67-3.184-6.005-9.269-9.004-13.967
		c-2.886-4.521-4.421-9.908-6.592-14.896c-0.7-1.609-1.837-2.723-3.762-2.658C46.577,271.752,54.084,276.135,47.204,278.761z
		 M47.169,263.629c-0.168,0.385-0.55,0.85-0.444,1.131c0.104,0.273,0.703,0.361,1.084,0.531c0.167-0.387,0.542-0.844,0.44-1.135
		C48.154,263.887,47.552,263.797,47.169,263.629z"/>
	<path fill-rule="evenodd" clip-rule="evenodd" fill="#9C6554" d="M224.369,85.61c0.895,0.021,1.791,0.044,2.687,0.065
		c0.448-0.427,0.897-0.854,1.345-1.282c7.242-3.574,11.334,2.037,15.406,6.001c2.359,2.296,4.725,4.96,6.505,8.1
		c1.819,3.205,5.353,5.477,9.32,5.706c2.685,0.155,4.538,0.906,5.53,3.442c2.582,6.6,6.932,12.437,6.734,20.194
		c-0.137,5.369,2.145,10.792,2.061,16.17c-0.143,9.364-2.877,18.212-8.01,26.184c-2.41-0.979-2.001-2.979-1.59-4.815
		c0.365-1.639,2.1-3.723-1.129-3.787c-0.443-0.009-5.242-1.595-4.002,3.396c0.832,3.351-4.627,3.351-5.762,6.287
		c-3.543-1.783-2.264-4.966-1.62-7.398c3.294-12.46,4.47-25.278,4.99-37.986c0.399-9.75,0.804-20.037-11.565-25.625
		c-7.064-3.193-13.084-9.297-20.508-12.65C224.404,87.45,224.49,86.3,224.369,85.61z"/>
	<path fill-rule="evenodd" clip-rule="evenodd" fill="#9C6554" d="M147.731,329.712c-0.843-0.002-4.79-1.136-5.633-1.138
		c-4.945,0.339-7.717-0.674-10.672,0.338c-3.893,0.125-7.723,0.819-11.663,0.91c-6.559,0.15-8.25,6.533-9.766,12.053
		c-6.319-7.273-6.863-14.792-2.007-23.283c1.902-3.326,1.589-7.82,3.781-11.332c2.299-3.684,4.848-4.914,7.278-0.373
		c3.568,6.668,7.864,10.58,16.294,8.225c2.957-0.826,6.931,1.007,10.136,2.354c3.485,1.465,6.345,1.496,9.077-1.197
		c1.307,0.003,2.615,0.007,3.921,0.012c6.026,6.381,13.231,3.883,20.261,2.713c1.396-0.072,2.79-0.146,4.185-0.221
		c0.094,3.197,2.625,3.473,4.543,2.896c4.352-1.309,8.336,1.262,12.742,0.438c4.964-0.93,7.309,4.945,11.713,6.133
		c-1.082,3.826-2.456,7.514-4.963,10.672c-3.459-6.303-9.982-4.32-15.204-5.216c-3.741-0.642-6.485-2.03-8.929-4.616
		c1-0.553-2.481-0.078-4.418,0.215c-4.898,0.744-3.432,0.565-9.799,0.756c-4.332,0.078-5.094-0.65-9.424-0.572
		c-1.453,0.127-6.538,1.146-7.568,0.027C148.546,328.795,150.303,328.891,147.731,329.712z"/>
	<path fill-rule="evenodd" clip-rule="evenodd" fill="#9C6554" d="M65.744,92.338c1.798-5.355,7.262-6.446,11.075-9.417
		c2.634-2.052,4.845-3.778,2.002-7.602c9.671,2.631,13.053,1.474,15.424-4.801c9.342,4.052,16.486,3.26,22.219-2.907
		c1.69,2.79,3.339,4.879,6.724,6.544c4.349,2.139,5.98,1.545,9.159-0.414c1.135-0.699,3.151-0.32,4.663,0.022
		c8.058,1.826,15.565,1.099,22.117-4.547c1.652,4.924-4.029,5.75-4.734,9.242c-0.196,0.227-0.394,0.452-0.592,0.678
		c0.228-0.196,0.455-0.391,0.682-0.587c12.616,3.616,25.076,0.224,37.621-0.615c4.189-0.28,8.27,2.165,12.812,1.935
		c2.594-0.131,0.757,2.443,0.517,3.857c-6.305,2.66-12.505,2.84-19.198,0.817c-3.953-1.197-8.389-1.651-12.812,0.566
		c-2.652,1.329-6.02,1.476-9.52,0.979c-9.55-1.355-18.652-5.023-28.708-4.378c-3.884,0.249-8.188-2.731-12.687-0.889
		c-0.433,0.177-1.324-0.343-1.799-0.769c-5.164-4.62-15.588-4.662-20.209,0.105c-0.753,0.777-0.844,2.458-2.356,2.083
		c-11.267-2.801-18.779,5.135-27.279,9.872C68.688,93.326,67.438,92.486,65.744,92.338z"/>
	<path fill-rule="evenodd" clip-rule="evenodd" fill="#9C6554" d="M64.627,165.816c4.441,2.121,8.495,0.092,11.827-2.149
		c6.623-4.454,12.279-9.263,21.625-6.66c6.159,1.716,12.81,1.952,19.014,4.325c6.041,2.31,4.575,7.625,3.524,11.032
		c-1.16,3.761-5.107,0.858-7.025-0.522c-2.482-1.784-3.235-2.361-5.812,0.396c-3.528,3.776-12.539,2.147-17.104-2.003
		c-8.849-5.868-14.091-3.322-16.012,7.775c0.604,4.618,0.504,8.754-5.68,9.217c-1.428,0.106-3.078,0.682-2.236,2.63
		c1.461,3.379-0.317,5.734-1.809,8.497c-1.35,2.498-1.791,5.491-3.121,9.874c-2.098-6.131-0.64-10.093,1.567-13.804
		c0.898-1.511,1.249-2.586-0.437-3.389c-2.896-1.383-2.934-1.305,0.308-3.82c0.064,0.172,0.097,0.366,0.203,0.507
		c0.062,0.082,0.238,0.077,0.363,0.112c-0.206-0.188-0.413-0.377-0.619-0.566c0.287-4.717-1.172-9.548,3.114-13.747
		c1.822-1.785-3.221-4.61-1.626-7.771C64.692,165.751,64.627,165.816,64.627,165.816z"/>
	<path fill-rule="evenodd" clip-rule="evenodd" fill="#F4BDA1" d="M158.478,316.279c-1.307-0.005-2.615-0.009-3.921-0.012
		c-1.493-2.626-4.303-1.324-6.398-2.156c-2.136-0.848-4.224-1.318-5.859-3.523c-2.761-3.723-1.309-7.471-0.382-10.836
		c0.562-2.04,3.432,0.598,5.708,0.027c5.278-1.324,11.267,1.178,15.308,3.061c5.458,2.543,7.521-1.311,10.033-2.549
		c8.868-4.371,11.688-4.57,15,1.678c4.271,8.057,2.768,13.066-5.043,16.805c-1.395,0.072-2.789,0.146-4.186,0.219
		C172.287,315.822,165.267,316.918,158.478,316.279z"/>
	<path fill-rule="evenodd" clip-rule="evenodd" fill="#9C6554" d="M143.065,210.12c-6.745-0.201-6.55-7.784-11.621-9.961
		c0.024,5.387-2.275,7.407-8.057,4.225c-1.922-1.058-1.011,1.846-1.576,2.837c-5.447-6.926-12.796-7.265-20.829-6.822
		c-6.786,0.375-10.619,2.765-10.726,9.868c-3.732,1.566-6.898,1.532-8.464-3.02l-0.057,0.058c1.072-0.79,1.813-2.228,1.027-3.056
		c-5.11-5.377-1.319-6.341,3.121-8.991c4.559-2.722,9.781-5.034,14.18-5.5c4.834-0.513,10.389-1.383,15.576,0.07
		c1.264,0.354,3.268,0.423,4.07-0.317c5.589-5.158,8.346-1.388,11.029,3.185c2.287,3.896,4.801,6.413,10.271,5.802
		c3.416-0.381,5.011,3.758,3.506,7.121c-0.679,1.517-1.356,2.893-1.481,4.539L143.065,210.12z"/>
	<path fill-rule="evenodd" clip-rule="evenodd" fill="#9C6554" d="M230.003,175.822c-4.533,2.379-8.805,1.942-13.033-0.919
		c-2.807-1.901-6.295-0.258-9.551-1.865c-3.119-1.54-3.76-0.777-1.895-3.151c4.031-5.133,9.32-8.023,15.943-6.957
		c6.697,1.078,13.31,2.697,19.959,4.081c-3.452,5.971-11.17,1.095-15.207,6.146C227.494,174.053,228.748,174.937,230.003,175.822z"
		/>
	<path fill-rule="evenodd" clip-rule="evenodd" fill="#9C6554" d="M128.924,282.961c-0.51-3.699-0.378-7.086,4.047-8.383
		c5.188,1.074,9.986,5.007,15.761,1.889c1.58-0.853,3.975,0.266,4.438,1.359c2.303,5.445,8.433,4.83,11.983,8.157
		c4.43,4.149,8.266-2.016,12.545-0.817c0.346,2.008,0.693,4.018,1.041,6.029c-0.678,3.273-2.132,5.182-5.746,3.295
		c0.102-1.4,2.688-1.463,1.795-3.484c-7.867,1.895-14.344-0.857-20.355-5.834c-4.431-3.67-9.03-8.502-14.774-1.535
		c-1.129,1.37-2.647,0.024-3.976-0.179c-1.751-0.268-3.402-0.409-3.681,2.011C130.977,284.633,129.951,283.797,128.924,282.961z"/>
	<path fill-rule="evenodd" clip-rule="evenodd" fill="#5C3631" d="M230.003,175.822c-1.256-0.885-2.51-1.769-3.783-2.667
		c4.037-5.051,11.755-0.175,15.207-6.146c5.955,0.726,6.744,6.692,10.109,10.045c0.523,2.577-2.293,6.366,2.646,7.338
		c0.019,2.378,0.036,4.757,0.054,7.135c-0.919-0.015-1.838-0.028-2.757-0.042C246.271,183.57,239.609,177.661,230.003,175.822z"/>
	<path fill-rule="evenodd" clip-rule="evenodd" fill="#5C3631" d="M132.003,285.469c0.279-2.42,1.93-2.278,3.681-2.011
		c1.329,0.203,2.847,1.549,3.976,0.179c5.744-6.967,10.343-2.135,14.774,1.535c6.011,4.977,12.488,7.729,20.355,5.834
		c0.894,2.021-1.693,2.084-1.795,3.484c-1.379,0.57-2.758,1.141-4.137,1.711c-4.33-0.291-8.703-0.256-12.872-1.744
		c-3.412-3.617-7.698-5.436-12.557-5.67C139.312,288.588,135.539,287.52,132.003,285.469z"/>
	<path fill-rule="evenodd" clip-rule="evenodd" fill="#FEFEFE" d="M197.432,163.334c-3.632-1.55-5.647,0.413-7.499,3.229
		c-0.688,1.048-1.107,3.043-2.84,2.655c-1.807-0.405-2.174-2.388-2.547-3.916c-1.721-7.028,0.498-9.734,7.881-9.979
		c0.865-0.028,1.807-0.395,2.555-0.861c3.067-1.917,6.219-3.305,9.474-0.671c3.336,2.698-0.999,5.495-0.142,8.29
		c-1.334-0.034-2.668-0.072-4.004-0.113c-0.984-0.268-1.415,0.176-1.445,1.133C198.386,163.179,197.91,163.256,197.432,163.334z"/>
	<path fill-rule="evenodd" clip-rule="evenodd" fill="#FEFEFE" d="M120.087,155.904c0.45-1.288,0.538-3.287,1.415-3.736
		c3.365-1.724,19.918,5.48,21.105,9.13c0.626,1.927,1,4.131-1.173,5.757c-2.546,1.906-3.379,0.402-4.677-1.656
		c-0.926-1.469-1.878-0.131-2.299,1.069c-1.988-1.102-3.977-2.207-5.962-3.314c0.561-5.379-3.466-5.966-7.157-6.904
		C120.938,156.072,120.521,155.957,120.087,155.904z"/>
	<path fill-rule="evenodd" clip-rule="evenodd" fill="#9C6554" d="M110.602,283.315c4.885-0.384,4.633,3.443,3.324,5.614
		c-6.854,11.367-10.526,23.823-13.568,36.564c-0.123,0.514-0.895,0.871-1.723,1.629c-0.398-13.896,5.849-25.52,9.944-37.686
		c0.669-1.988,2.064-3.729,1.905-5.988C110.486,283.453,110.602,283.315,110.602,283.315z"/>
	<path fill-rule="evenodd" clip-rule="evenodd" fill="#9C6554" d="M269.644,257.08c-2.766,5.486-4.393,11.244-4.154,17.449
		c-1.408,4.678-2.801,9.359-4.236,14.028c-0.432,1.403-1.215,2.979-2.863,2.39c-1.773-0.637-1.186-2.35-0.451-3.565
		c5.333-8.83,3.299-19.611,7.642-28.748C267.187,255.257,266.75,255.049,269.644,257.08z"/>
	<path fill-rule="evenodd" clip-rule="evenodd" fill="#9C6554" d="M78.884,207.248c-1.108,4.71-5.632,5.884-9.025,7.12
		c-1.683,0.612-5.173-2.813-4.705-6.458c0.233-1.815,1.036-3.557,1.622-5.467c4.544,0.604,6.941,6.4,12.162,4.861L78.884,207.248z"
		/>
	<path fill-rule="evenodd" clip-rule="evenodd" fill="#5C3631" d="M74.664,178.011c1.921-11.097,7.164-13.644,16.012-7.775
		C86.041,174.285,80.513,176.482,74.664,178.011z"/>
	<path fill-rule="evenodd" clip-rule="evenodd" fill="#5C3631" d="M178.74,291.195c-0.348-2.012-0.695-4.021-1.041-6.029
		c2.838-2.389,6.357-1.784,9.64-2.211c2.165,2.859,5.095,3.602,8.479,3.082c-1.061,6.898-5.817,1.421-8.59,2.586
		c-3.172-2.242-4.932-0.686-6.16,2.306C180.292,291.018,179.517,291.105,178.74,291.195z"/>
	<path fill-rule="evenodd" clip-rule="evenodd" fill="#9C6554" d="M251.479,191.485c0.919,0.014,1.838,0.028,2.757,0.042
		c3.982,6.873,5.893,13.763-0.816,21.906C252.386,205.47,256.412,197.842,251.479,191.485z"/>
	<path fill-rule="evenodd" clip-rule="evenodd" fill="#9C6554" d="M195.818,286.037c-3.385,0.52-6.314-0.223-8.479-3.082
		c2.923-1.307,6.712-0.801,8.653-4.166c2.92,1.633,3.085,4.17,2.282,7.02c-0.477-0.061-0.951-0.119-1.425-0.177
		c-0.338,0.118-0.677,0.235-1.017,0.353L195.818,286.037z"/>
	<path fill-rule="evenodd" clip-rule="evenodd" fill="#9C6554" d="M155.985,294.457c4.169,1.488,8.542,1.453,12.872,1.744
		c-0.42,2.01-0.468,4.908-3.617,3.379C162.087,298.05,155.919,301.775,155.985,294.457z"/>
	<path fill-rule="evenodd" clip-rule="evenodd" fill="#F4BDA1" d="M81.937,228.143c-1.952-2.673-4.161-5.293-1.895-8.607
		c0.368-0.538,2.376-0.76,2.496-0.532C84.103,222,83.152,225.035,81.937,228.143z"/>
	<path fill-rule="evenodd" clip-rule="evenodd" fill="#F4BDA1" d="M266.093,290.998c0.752,4.684,1.26,7.844,1.855,11.551
		C263.847,298.467,263.847,298.467,266.093,290.998z"/>
	<path fill-rule="evenodd" clip-rule="evenodd" fill="#9C6554" d="M266.458,172.854c3.951,2.894,0.137,6.996,1.586,10.28
		C266.115,179.924,261.671,177.105,266.458,172.854z"/>
	<path fill-rule="evenodd" clip-rule="evenodd" fill="#9C6554" d="M254.182,184.393c-4.938-0.972-2.122-4.761-2.646-7.338
		C256.12,178.157,256.595,180.75,254.182,184.393z"/>
	<path fill-rule="evenodd" clip-rule="evenodd" fill="#F4BDA1" d="M121.339,156.25c3.69,0.938,7.718,1.525,7.157,6.904
		C124.86,162.157,122.175,160.168,121.339,156.25z"/>
	<path fill-rule="evenodd" clip-rule="evenodd" fill="#9C6554" d="M181.068,290.929c1.229-2.991,2.988-4.548,6.16-2.306
		C185.626,290.609,183.728,291.795,181.068,290.929z"/>
	<path fill-rule="evenodd" clip-rule="evenodd" fill="#9C6554" d="M208.513,83.566c2.471-1.375,4.938-3.011,7.504-0.165
		C213.609,87.764,211.017,83.646,208.513,83.566z"/>
	<path fill-rule="evenodd" clip-rule="evenodd" fill="#9C6554" d="M78.938,207.303c0.227-1.059,0.17-2.535,1.761-2.224
		c0.472,0.092,0.699,1.449,1.038,2.226l0.057-0.058c-0.969,0-1.939,0-2.909,0.001L78.938,207.303z"/>
	<path fill-rule="evenodd" clip-rule="evenodd" fill="#9C6554" d="M220.789,86.319c0.139-0.166,0.332-0.492,0.405-0.467
		c0.36,0.125,0.69,0.343,1.03,0.529c-0.139,0.164-0.332,0.492-0.406,0.466C221.457,86.723,221.128,86.505,220.789,86.319z"/>
	<path fill-rule="evenodd" clip-rule="evenodd" fill="#9C6554" d="M51.249,250.596c-0.164-0.061-0.329-0.123-0.494-0.184
		c0.23-0.135,0.461-0.268,0.692-0.402C51.381,250.205,51.315,250.4,51.249,250.596z"/>
	<path fill-rule="evenodd" clip-rule="evenodd" fill="#F4BDA1" d="M195.755,416.184c0.196,0.094,0.393,0.186,0.589,0.279
		c-0.177-0.113-0.353-0.227-0.528-0.342L195.755,416.184z"/>
	<path fill-rule="evenodd" clip-rule="evenodd" fill="#5C3631" d="M195.833,285.984c0.34-0.117,0.679-0.234,1.017-0.353
		c-0.001,0-0.443,0.366-0.443,0.366L195.833,285.984z"/>
	<path fill-rule="evenodd" clip-rule="evenodd" fill="#F4BDA1" d="M278.49,303.094c-0.006,0.495-0.011,0.99-0.016,1.484
		C277.43,304.072,277.3,303.576,278.49,303.094z"/>
	<path fill-rule="evenodd" clip-rule="evenodd" fill="#9C6554" d="M205.791,194.431c0.111-0.203,0.221-0.405,0.33-0.607
		c-0.127,0.184-0.255,0.367-0.383,0.552L205.791,194.431z"/>
	<path fill-rule="evenodd" clip-rule="evenodd" fill="#F4BDA1" d="M194.324,171.457c0.249-0.211,0.5-0.421,0.75-0.632
		c-0.217,0.243-0.435,0.487-0.65,0.73C194.423,171.556,194.324,171.457,194.324,171.457z"/>
	<path fill-rule="evenodd" clip-rule="evenodd" fill="#F4BDA1" d="M198.865,163.101c0.03-0.957,0.461-1.4,1.445-1.133
		C199.83,162.347,199.347,162.725,198.865,163.101z"/>
	<path fill-rule="evenodd" clip-rule="evenodd" fill="#9C6554" d="M256.755,101.85c5.15-5.64,9.52-1.146,13.283-3.102
		c1.574-0.818,1.084,0.936,1.066,1.554c-0.051,1.682-1.123,2.63-2.738,2.357C265.005,102.09,261.83,100.541,256.755,101.85z"/>
	<path fill-rule="evenodd" clip-rule="evenodd" fill="#9C6554" d="M291.296,134.298c1.891,1.606,4.633,2.665,3.699,7.064
		c-2.938-1.897-3.678-4.244-3.718-7.044L291.296,134.298z"/>
	<path fill-rule="evenodd" clip-rule="evenodd" fill="#9C6554" d="M224.727,81.952c-0.017,0.153,0.021,0.379-0.063,0.444
		c-0.137,0.104-0.354,0.104-0.536,0.148c0.028-0.258,0.056-0.515,0.084-0.772C224.383,81.831,224.555,81.891,224.727,81.952z"/>
	<path fill-rule="evenodd" clip-rule="evenodd" fill="#9C6554" d="M84.592,54.208c0.205,0.184,0.411,0.367,0.616,0.551
		c-0.118-0.033-0.282-0.029-0.346-0.107c-0.11-0.133-0.159-0.319-0.232-0.482L84.592,54.208z"/>
	<path fill-rule="evenodd" clip-rule="evenodd" fill="#9C6554" d="M291.278,134.317c-0.159-0.091-0.317-0.182-0.476-0.274
		c0.164,0.085,0.33,0.169,0.494,0.254L291.278,134.317z"/>
	<path fill-rule="evenodd" clip-rule="evenodd" fill="#9C6554" d="M257.087,88.535c-0.115,0.196-0.229,0.393-0.342,0.59
		c0.109-0.201,0.219-0.403,0.328-0.604L257.087,88.535z"/>
	<path fill-rule="evenodd" clip-rule="evenodd" fill="#D3896A" d="M228.4,84.393c-0.447,0.428-0.896,0.855-1.345,1.282
		C227.503,85.249,227.952,84.821,228.4,84.393z"/>
	<path fill-rule="evenodd" clip-rule="evenodd" fill="#5C3631" d="M191.544,29.896c0.086-2.115-0.043-4.185,0.967-6.248
		c1.488-3.038,4.49-2.611,6.791-2.933c3.043-0.425,1.764,2.59,2.105,4.187c0.709,3.299,1.477,5.615,4.414,1.264
		c1.613-2.39,4.275,0.125,6.727-0.862c-0.828,2.644-1.695,5.275-2.473,7.935c-0.57,1.954-1.432,3.82-3.746,3.492
		c-2.883-0.411-0.635-2.65-1.076-3.964c-0.613-1.829-2.166-2.276-4.805-2.515c4.529,7.778-3.996,8.568-6.283,12.876
		c-0.137,0.254-1.529,0.27-1.775-0.045c-0.965-1.237-0.92-2.873-0.041-3.98c2.745-3.462,2.361-6.451-0.863-9.263L191.544,29.896z"/>
	<path fill-rule="evenodd" clip-rule="evenodd" fill="#5C3631" d="M191.486,29.839c-0.299,3.065,1.34,6.949-3.227,8.229
		c-0.837,0.235-2.814,0.807-2.596-1.05c0.412-3.487,2.789-5.684,5.881-7.123C191.544,29.896,191.486,29.839,191.486,29.839z"/>
	<path fill-rule="evenodd" clip-rule="evenodd" fill="#5C3631" d="M159.082,16.436c1.789,5.812,0.693,9.201-1.435,13.382
		C155.548,25.088,157.501,21.731,159.082,16.436z"/>
	<path fill-rule="evenodd" clip-rule="evenodd" fill="#5C3631" d="M196.929,52.5c0.27-0.741,0.064-1.909,1.363-1.757
		c0.328,0.039,0.824,0.543,0.861,0.875c0.145,1.341-1.063,1.02-1.773,1.309C197.38,52.928,196.929,52.5,196.929,52.5z"/>
	<path fill-rule="evenodd" clip-rule="evenodd" fill="#5C3631" d="M188.305,27.066c-0.124,0.161-0.248,0.323-0.372,0.484
		c-0.09-0.187-0.261-0.382-0.244-0.56c0.016-0.172,0.225-0.325,0.349-0.487C188.126,26.692,188.216,26.879,188.305,27.066z"/>
	<path fill-rule="evenodd" clip-rule="evenodd" fill="#5C3631" d="M56.095,62.791c0.213,0.206,0.426,0.412,0.64,0.618
		c-0.137-0.034-0.331-0.022-0.399-0.11c-0.113-0.146-0.146-0.355-0.212-0.537L56.095,62.791z"/>
	<path fill-rule="evenodd" clip-rule="evenodd" fill="#5C3631" d="M56.124,62.761c-0.215-0.206-0.43-0.412-0.645-0.618
		c0.139,0.032,0.333,0.02,0.402,0.107c0.114,0.146,0.146,0.356,0.214,0.54L56.124,62.761z"/>
	<path fill-rule="evenodd" clip-rule="evenodd" fill="#5C3631" d="M198.541,55.502c0.274-0.19,0.55-0.38,0.824-0.569
		c-0.186,0.278-0.371,0.557-0.555,0.837C198.814,55.773,198.541,55.502,198.541,55.502z"/>
	<path fill-rule="evenodd" clip-rule="evenodd" fill="#9C6554" d="M37.3,234.632c-1.875-0.417-2.52-1.573-2.03-3.411
		C36.887,231.795,37.647,232.882,37.3,234.632z"/>
	<path fill-rule="evenodd" clip-rule="evenodd" fill="#5C3631" d="M50.367,95.652c0.455,1.752,2.693,2.642,2.251,5.285
		c-2.501-0.393-5.325-0.824-5.825-3.527c-0.427-2.313,2.233-1.426,3.643-1.699L50.367,95.652z"/>
	<path fill-rule="evenodd" clip-rule="evenodd" fill="#5C3631" d="M56.682,103.335c-0.11-0.393-0.208-0.596-0.199-0.794
		c0.003-0.058,0.31-0.101,0.478-0.15C56.884,102.652,56.807,102.913,56.682,103.335z"/>
	<path fill-rule="evenodd" clip-rule="evenodd" fill="#D3896A" d="M51.808,122.832c-0.089,0.195-0.179,0.392-0.269,0.587
		c0.108-0.177,0.216-0.355,0.324-0.533L51.808,122.832z"/>
	<path fill-rule="evenodd" clip-rule="evenodd" fill="#5C3631" d="M41.819,121.39c0.228-0.195,0.456-0.391,0.683-0.585
		c-0.2,0.223-0.4,0.446-0.599,0.67C41.903,121.475,41.819,121.39,41.819,121.39z"/>
	<path fill-rule="evenodd" clip-rule="evenodd" fill="#F4BDA1" d="M21.726,254.838c-2.124-6.305-1.965-12.549,0.506-18.727
		c1.088-0.338,3.596-1.375,3.076-0.607C21.208,241.547,25.655,248.988,21.726,254.838z"/>
	<path fill-rule="evenodd" clip-rule="evenodd" fill="#FEFEFE" d="M162.357,177.366c-4.478,0.249-7.796-4.88-12.75-2.188
		c-0.79,0.429-3.238-0.79-3.412-2.921c-0.204-2.507,0.318-4.898,2.518-6.274c1.95-1.22,4.187-2.562,6.515-0.595
		c2.824,2.384,4.919,3.912,7.214-1.079c1.229-2.672,5.249-1.567,7.853-0.817c2.612,0.753,4.581,2.998,7.911,2.148
		c2.88-0.735,1.867,2.154,1.748,3.396c-0.426,4.394-7.278,8.796-11.101,6.433C165.066,173.125,165.547,181.27,162.357,177.366z"/>
	<path fill-rule="evenodd" clip-rule="evenodd" fill="#FEFEFE" d="M158.124,148.027c3.732-0.69,7.456-1.446,11.205-2.025
		c1.04-0.161,2.604-0.316,2.755,1.27c0.17,1.777-1.336,2.413-2.747,2.447C165.654,149.806,161.927,150.513,158.124,148.027z"/>
	<path fill-rule="evenodd" clip-rule="evenodd" fill="#FEFEFE" d="M182.91,169.685c-0.154-0.125-0.309-0.249-0.463-0.374
		c0.18-0.092,0.367-0.269,0.537-0.253c0.166,0.015,0.313,0.226,0.469,0.351C183.271,169.501,183.091,169.593,182.91,169.685z"/>
	<path fill-rule="evenodd" clip-rule="evenodd" fill="#D3896A" d="M155.892,251.617c0.208,0.201,0.415,0.4,0.622,0.602
		c-0.135-0.025-0.318-0.004-0.393-0.086c-0.119-0.131-0.167-0.328-0.246-0.498L155.892,251.617z"/>
	<path fill-rule="evenodd" clip-rule="evenodd" fill="#FEFEFE" d="M104.785,251.051c6.452-10.192,18.252-9.27,27.36-14.639
		C129.127,254.504,118.008,259.9,104.785,251.051z"/>
	<path fill-rule="evenodd" clip-rule="evenodd" fill="#D3896A" d="M84.584,240.201c0.196,0.096,0.393,0.191,0.589,0.287
		c-0.179-0.111-0.359-0.225-0.539-0.338L84.584,240.201z"/>
	<path fill-rule="evenodd" clip-rule="evenodd" fill="#9C6554" d="M178.886,393.65c-9.577,2.598-19.186,4.113-28.943,0.898
		c2.96-7.932,10.787-6.178,16.613-7.971c3.589-1.105,7.828-0.197,11.768-0.006c4.398,0.213,1.789,3.271,1.953,5.197
		C179.812,392.396,179.349,393.023,178.886,393.65z"/>
	<path fill-rule="evenodd" clip-rule="evenodd" fill="#5C3631" d="M47.171,263.628c0.381,0.169,0.983,0.259,1.078,0.528
		c0.102,0.291-0.273,0.748-0.44,1.135c-0.381-0.17-0.98-0.258-1.084-0.531C46.62,264.479,47.001,264.014,47.171,263.628z"/>
	<path fill-rule="evenodd" clip-rule="evenodd" fill="#D3896A" d="M158.478,316.279c6.789,0.639,13.809-0.457,20.26,2.713
		C171.709,320.162,164.504,322.66,158.478,316.279z"/>
	<path fill-rule="evenodd" clip-rule="evenodd" fill="#5C3631" d="M154.482,78.55c-0.227,0.196-0.454,0.391-0.682,0.587
		c0.198-0.226,0.396-0.451,0.592-0.678L154.482,78.55z"/>
	<path fill-rule="evenodd" clip-rule="evenodd" fill="#D3896A" d="M63.205,187.269c0.206,0.189,0.413,0.377,0.619,0.566
		c-0.125-0.035-0.301-0.03-0.363-0.112c-0.106-0.141-0.139-0.335-0.203-0.507C63.257,187.215,63.205,187.269,63.205,187.269z"/>
	<path fill-rule="evenodd" clip-rule="evenodd" fill="#9C6554" d="M234.293,383.236c0.208,0.219,0.416,0.438,0.625,0.658
		c-0.144-0.029-0.343-0.008-0.419-0.096c-0.122-0.14-0.162-0.351-0.238-0.531L234.293,383.236z"/>
	<g>
		<path fill-rule="evenodd" clip-rule="evenodd" fill="#F6D4BE" d="M133.912,324.668c-1.147-1.713-3.087-3.348-4.182-3.453
			c-1.095-0.104-4.251,2.035-6.114,3.065s-2.535,2.893-0.006,2.907s8.326,0.945,9.428,0.044c4.321,4.123,4.627-0.736,6.197-2.768
			C136.577,322.916,134.928,322.934,133.912,324.668z"/>
		<path fill-rule="evenodd" clip-rule="evenodd" fill="#F6D4BE" d="M200.687,328.921c-0.42-2.095-0.634-3.134-2.713-3.567
			c-2.08-0.434-4.459-1.744-6.209-2.071s-10.286-3.459-12.125-1.452c-0.729,0.797-1.488,1.187-2.141,1.371
			c-0.808-1.475-2.408-1.982-4.959-1.513c-2.066,0.38-4.25,0.128-6.381,0.162c-0.251,1.237-0.65,2.134-1.986,0.862
			c-1.078-0.363-2.16-0.729-3.242-1.095c-2.856,1.824-5.235-0.031-7.725-1.005c-0.979,0.195-1.961,0.39-2.942,0.585
			c-3.123-0.695-6.647-3.441-8.642,1.697c1.162,6.43,4.649,3.095,7.648,1.832c0.293,0.734,0.587,1.474,0.881,2.212
			c3.975-0.846,7.769,0.747,11.667,0.87c1.028-0.757,1.119-2.64,3.557-1.153c4.023,2.453,8.618,3.183,12.762-0.382
			c0-0.12-0.018-0.218-0.021-0.335c0.461,0.229,1.112,0.466,2.058,0.783c2.614,0.877,8.787,3.238,12.252,3.861
			C195.89,331.205,201.106,331.016,200.687,328.921z"/>
	</g>
	<g>
		<path fill="#5C3631" d="M51.602,304.773c-0.002-0.012-0.004-0.022-0.006-0.034c-0.011-0.001-0.018-0.004-0.029-0.005
			C51.567,304.734,51.601,304.774,51.602,304.773z"/>
		<path fill="#5C3631" d="M96.24,391.734c-0.061-0.461-0.094-0.937-0.091-1.43c-2.061-1.89-2.437-4.467-2.854-7.029
			c-4.049-4.576-3.694-10.34-4.248-15.859c0.609-3.508-1.847-6.434-1.848-9.824c-1.835-3.465-4.149-6.711-5.467-10.746
			c0,2.804,0.09,5.611-0.033,8.411c-0.076,1.739,0.988,4.358-1.676,4.759c-2.866,0.43-2.421-2.33-2.646-4.053
			c-1.191-9.129-3.013-18.165-2.949-27.462c0.053-7.607,0.049-15.239-2.489-22.671c-0.885-2.59-1.653-4.118-4.135-5.811
			c-4.67-3.184-6.005-9.269-9.004-13.967c-2.886-4.521-4.421-9.908-6.592-14.896c-0.7-1.609-1.837-2.723-3.762-2.658
			c-1.869,3.254,5.638,7.637-1.242,10.263c1.464,8.66,2.928,17.318,4.392,25.979c1.298,0.139,1.188,0.888,0.743,1.785
			c1.307,3.091,2.615,6.182,3.922,9.271c6.392-2.88,8.873-1.901,9.572,5.034c0.419,4.152,2.54,8.175,0.881,14.459
			c-0.628-6.693-6.271-9.995-3.801-15.82c0.418-0.986-0.12-2.16-1-2.332c-2.597-0.508-1.327,3.273-3.495,3.432
			c0.343,6.588,4.592,11.812,6.146,18.033c3.317,13.28,15.765,26.368,21.078,38.91C89.683,379.297,89.384,384.079,96.24,391.734z"/>
	</g>
	<g>
		<path fill="#9C6554" d="M205.738,194.375c0.003,0.021,0.006,0.042,0.01,0.063c0.015-0.002,0.028-0.006,0.043-0.008
			L205.738,194.375z"/>
		<path fill="#9C6554" d="M243.941,204.033c-10.113-10.896-21.695-14.541-35.588-7.526c-1.907,0.963-2.383-0.559-2.605-2.068
			c-5.89,0.751-10.991,3.858-16.402,5.637c-9.225,3.033-13.634,7.54-9.201,15.847c0.676-0.302,1.352-0.603,2.027-0.903
			c-0.434-1.917-1.812-4.843,1.645-4.514c3.559,0.338,0.15,3.341,0.934,4.972c1.77,0.147,3.535,0.296,5.301,0.445
			c-0.584-6.365,4.979-6.237,9.609-9.3c-1.025,3.352-1.66,5.428-2.294,7.5c4.253,0.107,8.452,0.073,10.087,5.414
			c0.463,1.51,2.53,1.804,4.166,1.989c0.416-0.075,0.824-0.042,1.225,0.097c0.984,0.003,1.969,0.006,2.953,0.008
			c2.566-0.485,5.131-0.972,7.697-1.458c-0.303-0.623-0.405-1.437-0.449-2.308c-3.815-0.27-0.735,0-6.962-0.864
			c-6.167-0.333-2.667-0.917-8.397-1.228c-3.958-0.345-5.935-2.748-6.681-6.43c1.373-3.743,3.893-6.372,7.469-8.15
			c4.982-2.476,10.184-2.291,15.463-1.627c2.662,1.336,5.121,2.972,7.307,5.004c0.479,0.512,0.957,1.024,1.436,1.537
			c0.495,2.053,2.305,3.598,2.267,5.857c-0.132,0.474-0.256,0.9-0.378,1.305c0.318,1.378,0.647,2.726,1.05,3.883
			c0.996,0.413,1.517,1.183,1.222,2.217c-0.467,1.639-3.193,2.674-1.345,4.889c0.354,0.424,1.472,0.798,1.776,0.571
			c1.807-1.34,0.881-3.47,1.297-5.234c1.272-5.396-1.709-12.945,8.486-14.099C245.173,204.632,244.376,204.502,243.941,204.033z"/>
	</g>
	
		<path id="OutlineF" fill-rule="evenodd" clip-rule="evenodd" fill="none" stroke="#000000" stroke-width="5" stroke-miterlimit="10" d="
		M254.235,341.438c1.19-7.744-3.868-15.393-0.437-18.703c-0.131-1.766,0.317,1.777,0,0c0.041-1.357,0.084-2.719,0.127-4.08
		c0.178-0.76,0.355-1.521,0.533-2.285c0.127-1.338,0.252-2.674,0.379-4.012c4.062-3.66,3.602-8.713,4.111-13.464
		c3.238-3.557,2.873,0.296,3.5,1.773c3.289,7.734,9.013,9.037,15.855,3.561c-0.001-0.002-0.002-0.004-0.004-0.004
		c0.666-0.367,1.338-0.732,2.01-1.096c5.866-4.363,3.131-9.764,1.795-14.996c2.772-5.326,0.654-11.474,2.816-16.9
		c3.521-9.083,7.303-18.114,5.311-28.24c0.787-4.748,0.21-9.397-1.008-14.002c-0.564-5.715,5.113-11.751-0.871-17.19
		c-1.135,0.766-2.172,1.599-3.164,2.464v0c0.992-0.865,2.028-1.699,3.162-2.464c1.307-7.654-0.467-15.887,4.436-22.878
		c1.424-2.03,1.211-4.509,0.918-6.889c5.929-10.714,4.887-22.741,6.414-34.288c-0.064-1.615-0.129-3.233-0.195-4.853
		c5.248-8.367,1.74-16.013-1.932-23.646c-5.682-3.648-7.383-10.059-4.585-17.271c0.162-1.649,0.324-3.301,0.486-4.954
		c-0.183-2.574-0.839-5.221-0.458-7.707c0.971-6.32-2.4-9.658-6.951-13.231c-5.005-3.932-9.281-8.797-13.795-13.361v-5.551
		c0.105,0.043,0.207,0.093,0.318,0.125c0.243-4.617,0.486-9.233,0.73-13.85c-2.346,0.264-3.6-1.313-4.094-3.116
		c-1.731-6.31-6.725-7.675-12.115-8.076c-4.853-0.361-7.812-3.568-11.129-6.373c-0.496,1.601,0.841,5.436-3.244,2.637
		c-2.44-1.672-5.965-1.381-7.646-4.623c-0.539-1.037-2.434-2.062-3.607-1.958c-8.05,0.716-13.403-3.966-18.592-8.99
		c-1.244-1.205-2.443-1.385-3.812-0.676c-2.266,1.173-4.018,0.426-5.822-1.074c-2.66-2.21-5.062-4.674-9.322-2.824
		c-1.897,0.824-2.33-1.673-2.09-3.459c-1.051,0-2.102-0.004-3.153-0.008c0.12,0.975-0.151,1.834-1.229,1.836
		c-1.068,0.001-1.361-0.853-1.258-1.83c-2.975-0.743-6.211-0.249-8.994-1.908c-3.246-0.126-6.205,8.011-9.713,0.339
		c-1.02,0.062-2.039,0.123-3.059,0.185c0.146,2.876-2.059,3.158-4.043,4.042c-4.033,1.795-8.667,2.52-11.697,6.268
		c-0.732,0.905-2.214,2.037-3.016,1.177c-5.563-5.97-12.717-2.855-19.022-3.048c-4.321-0.131-7.036-3.763-11.264-3.232
		c-4.396,0.553-8.848,0.662-13.275,0.964c-0.649,0.295-1.298,0.591-1.947,0.886c-1.373,3.854-3.814,6.779-8.037,7.026
		c-6.121,0.358-10.302,3.823-14.248,7.91c-0.614,0.502-1.228,1.002-1.841,1.504c-0.571,1.946-2.301,2.258-3.881,2.775
		c-0.298,2.783-0.255,5.662-0.979,8.332c-1.123,4.15-12.988,9.728-17.498,8.533c-1.824,1.362-1.995,4.282-4.595,4.911
		c-0.256,0.296-0.357,0.638-0.305,1.027c-0.238,0.615-0.476,1.229-0.714,1.842c-2.293,6.292-8.27,11.089-7.512,18.623
		c-0.523,1.413-1.045,2.827-1.567,4.24c-5.308,2.704-7.813,7.183-8.189,13.013c-1.352,5.88-2.969,11.714-3.973,17.653
		c-0.799,4.732,0.81,10.56-7.434,9.883c-1.933-0.159-2.07,3.269-2.695,5.218c-0.156,0.465-0.313,0.93-0.469,1.394
		c-3.807,4.809-3.502,11.898-8.208,16.005c-4.827,4.213-4.801,9.271-4.128,14.746c0.736,5.984,4.316,10.545,7.662,15.218
		c1.535,2.438,3.072,4.875,4.608,7.314c-1.127,3.803,0,7.35,0.694,11.11c1.382,7.504,7.632,15.446-0.898,22.648
		c-0.435,0.367-0.502,1.333-0.51,2.023c-0.085,7.302-1.166,14.655,0.558,21.869v6.567h0.004c-0.732,10.492,3.717,20.112,6.35,30.038
		c0.272,0.541,0.545,1.081,0.815,1.622c-0.001,0,0.057,0.129,0.057,0.129c1.465,6.903-0.698,14.137,1.891,20.938
		c0.671,4.851,1.997,9.3,7.009,11.484c6.543,1.662,11.644,0.268,13.576-6.85c2.933,0.492,2.192,3.99,4.643,4.297
		c0.252,0.586,0.504,1.172,0.756,1.756c1.307,3.092,2.615,6.182,3.922,9.271c-0.102,1.965,0.806,3.471,2.157,4.773
		c0.343,6.586,2.124,10.293,3.677,16.514c3.287,13.161,14.798,21.636,19.717,32.795"/>
</g>
<g id="Jaw">
	<path fill-rule="evenodd" clip-rule="evenodd" fill="#D3896A" d="M158.899,349.259c-27.982-0.254-60.034-24.379-92.471-31.438
		c0.194,0.585,0.375,1.175,0.526,1.776c4.832,19.348,15.745,36.403,21.193,55.561c0.621,2.184,2.253,4.234,3.844,5.946
		c2.667,2.869,4.252,6.116,5.375,9.859c3.215,10.722,11.016,18.145,20.719,21.861c5.851,2.241,10.523,5.265,15.539,8.59
		c4.731,3.137,9.753,7.12,16.319,5.517c1.772,0.383,3.505,0.395,5.14-0.55c3.943,0.185,7.893,0.367,11.84,0.55
		c5.188-0.281,10.643,0.35,15.496-1.076c6.195-1.82,10.889-6.321,13.118-12.801c10.579-5.828,18.106-15.314,27.231-22.888
		c3.322-1.392,5.641-3.736,6.789-7.196c0.488-0.544,0.976-1.088,1.463-1.632c1.943-0.833,3.229-2.272,3.91-4.271
		c2.303-3.463,4.608-6.927,6.912-10.391c1.507-1.539,2.81-3.151,3.939-4.846l0.103-0.109l-0.007-0.033
		c2.389-3.631,3.903-7.682,4.354-12.494c0.811-8.667,2.342-17.342,5.619-25.539c1.332-3.33-4.421-35.716-4.372-39.12
		C210.721,349.652,217.035,349.786,158.899,349.259z"/>
	<path fill="#5C3631" d="M167.118,422.457c-8.239-1.873-16.464-3.93-24.802-5.221c-7.925-1.229-13.986-6.041-20.654-9.682
		c-1.122-0.613-1.363-2.854-2.013-4.34c-0.001,0.002-0.079-0.09-0.079-0.09c-1.918-0.205-2.755-1.227-2.369-3.168
		c-0.11-0.402-0.226-0.803-0.347-1.2c-1.878-0.032-2.833-0.962-2.772-2.877l-0.038-0.039c-3.876-2.151-5.451-5.659-5.782-9.896
		c-0.001,0-0.025-0.009-0.025-0.009c-4.131-1.624-4.861-5.632-6.335-9.118c-0.119-0.404-0.293-0.783-0.519-1.138
		c-2.226-1.255-2.86-3.312-2.844-5.694c-2.061-1.89-2.437-4.467-2.854-7.029c-4.049-4.576-3.694-10.34-4.248-15.859
		c0.609-3.508-1.847-6.434-1.848-9.824c-1.835-3.465-4.149-6.711-5.467-10.746c0,2.804,0.09,5.611-0.033,8.411
		c-0.076,1.739,0.988,4.358-1.676,4.759c-2.866,0.43-2.421-2.33-2.646-4.053c-0.75-5.749-1.749-11.462-2.371-17.226
		c-2.722-1.074,0.333-9.88-2.345-11.643c-0.059,0.271-3.593-3.499-3.667-3.219c-0.034-0.361-4.375-7.089-4.437-7.432
		c-1.774-1.188-5.658-15.348-7.408-16.815c1.234,2.726,3.23,46.484,3.959,49.405c4.832,19.348,19.199,25.97,24.647,45.128
		c0.621,2.183,2.253,4.234,3.844,5.945c2.667,2.869,4.252,6.117,5.375,9.859c3.215,10.723,11.016,18.145,20.719,21.861
		c5.851,2.242,10.523,5.266,15.539,8.59c4.731,3.137,9.753,7.12,16.319,5.518c1.585-1.404,3.313-1.461,5.14-0.551
		c3.943,0.186,7.893,0.367,11.84,0.551c0.959-0.586,2.631-1.07,2.732-1.781C169.893,422.178,167.991,422.655,167.118,422.457z"/>
	<path fill-rule="evenodd" clip-rule="evenodd" fill="#9C6554" d="M195.47,411.778c1.997-6.498,7.496-10.68,10.738-16.358
		c3.725-6.527,10.766-11.174,11.049-19.65c-0.385-2.01,0.787-3.203,2.224-4.256c1.962-0.919,4.026-1.799,1.664-4.375
		c0.569-1.361,1.14-2.725,1.71-4.088c2.144-5.971,8.197-8.363,11.748-12.898c4.424-5.646,2.645-13.371,4.801-19.982
		c1.84-5.637,2.271-11.736,4.128-17.54c1.69,8.544-3.202,16.671-1.997,25.579c9.656-9.971,16.416-20.607,15.457-34.65
		c1.135,6.354,1.315,12.643-1.141,18.783c-3.277,8.197-4.809,16.871-5.619,25.539c-0.667,7.129-3.621,12.609-8.389,17.482
		c-0.365-0.385-0.73-0.768-1.096-1.152c0.055-1.922,0.459-3.633,1.754-5.231c2.648-3.271,1.676-6.268-1.265-9.179
		c0.165,5.129-5.933,7.758-4.553,13.117l-0.032,0.031c-5.896,0.814-5.716,5.988-7.131,10.018l0.035-0.039
		c-2.367,0.232-3.447,1.916-4.494,3.913c2.365,0.56,5.021,0.333,5.959,3.183c-0.487,0.545-0.975,1.088-1.463,1.633
		c-3.906,0.834-6.443,2.974-6.789,7.195C213.624,396.441,206.085,405.953,195.47,411.778z"/>
	<path fill-rule="evenodd" clip-rule="evenodd" fill="#9C6554" d="M163.899,365.961c3.029,3.891,7.04,0.346,10.457,1.383
		c1.799,0.545,4.963-1.028,4.932,2.332c-0.033,3.519-2.812,1.928-4.779,1.875c-12.062-0.318-24.117-0.462-35.368,5.021
		c-1.36,0.664-3.066,0.958-4.051,0.002c-3.836-3.727-8.743-2.67-12.767-1.967c-4.047,0.707-6.088-0.395-8.07-3.264
		c-0.515-0.535-1.027-1.072-1.541-1.607c-0.372-0.381-0.745-0.76-1.119-1.139c-1.394-4.079-2.785-8.16-4.176-12.24
		c0.212-4.406,6.748-5.893,4.989-11.612c-0.513-1.667,2.087-1.778,3.311,0.122c3.135,4.867,9.07,7.764,9.95,14.227
		c0.032,0.234,0.002,0.531,0.134,0.686c0.285,0.33,0.661,0.84,0.991,0.834c9.485-0.199,16.834,11.383,27.42,5.018
		C157.44,365.742,160.669,365.852,163.899,365.961z"/>
	<path fill-rule="evenodd" clip-rule="evenodd" fill="#F4BDA1" d="M147.853,348.4c1.04,1.148,2.365,1.361,3.845,1.337
		c4.646-0.079,7.2,2.116,6.743,7.628c4.935-7.109,19.337-10.158,25.453-5.986c0.887,4.107,1.075,6.531-4.661,8.071
		c-5.103,1.37-11.093,2.356-15.333,6.509c-3.23-0.107-6.459-0.217-9.687-0.328c-0.43-3.257-0.772-5.312-5.422-6.09
		c-6.033-1.01-11.177-5.16-11.682-12.516c2.21,1.701,4.822,1.516,7.38,1.578C145.609,348.537,146.731,348.469,147.853,348.4z"/>
	<path fill-rule="evenodd" clip-rule="evenodd" fill="#F4BDA1" d="M222.854,363.051c-0.57,1.363-1.141,2.727-1.711,4.09
		c-1.925,0.934-1.658,2.705-1.663,4.373c-1.437,1.053-2.608,2.246-2.224,4.256c-4.402,2.684-8.367,5.75-9.277,11.863
		c-3.965-2.597-2.316-5.229-1.166-7.617c3.512-7.293,8.151-14.059,10.166-22.047c0.258-1.026,0.77-1.844,1.895-1.461
		c1.27,0.43,3.026,0.712,2.982,2.477C221.817,360.504,220.408,362.189,222.854,363.051z"/>
	<path fill-rule="evenodd" clip-rule="evenodd" fill="#F4BDA1" d="M165.331,394.648c-3.107-0.888-6.969-1.721-10.588-3.163
		c-1.443-0.575-3.804-1.399-3.31-3.944c0.373-1.924,2.652-3.145,3.599-2.812c4.823,1.701,9.901-3.982,14.49,0.707
		c1.833,1.873,4.411,3.979,3.314,6.444C171.878,394.033,168.638,394.329,165.331,394.648z"/>
	<path fill-rule="evenodd" clip-rule="evenodd" fill="#F4BDA1" d="M198.206,395.803c-0.926,0.092-2.335,0.262-2.024,1.314
		c1.366,4.637-0.421,6.309-4.181,3.638c-3.339-2.372-2.866,2.515-5.494,1.407c-0.349-2.459,1.419-5.02,1.036-8.016
		c-0.526-4.123,9.456-8.638,13.301-6.463c2.144,1.213,1.752,2.808-0.265,3.59c-2.334,0.904-2.397,2.653-2.434,4.592L198.206,395.803
		z"/>
	<path fill-rule="evenodd" clip-rule="evenodd" fill="#F4BDA1" d="M107.417,356.357c1.391,4.08,2.782,8.161,4.176,12.24
		c-1.895-0.096-3.792-0.193-5.692-0.287c-0.61-1.254-1.219-2.509-1.827-3.764c1.542-4.855-3.791-8.627-2.149-13.892
		C105.293,351.248,104.713,355.502,107.417,356.357z"/>
	<path fill-rule="evenodd" clip-rule="evenodd" fill="#F4BDA1" d="M112.403,324.447c1.238,2.769,2.476,5.537,3.715,8.305
		C110.788,333.607,110.233,332.367,112.403,324.447z"/>
	<path fill-rule="evenodd" clip-rule="evenodd" fill="#9C6554" d="M181.382,416.998c-18.24,0.326-34.521-10.174-52.881-9.576
		c-2.814,0.093-4.276-5.037-8.125-4.386c-0.142-1.255-0.702-2.103-1.619-2.601c0.218-2.615-0.824-4.08-3.068-4.45
		c0.243-4.319-1.974-7.351-6.049-9.405c0.039-4.727-1.476-8.445-6.942-9.606c-0.364-2.661,0.92-6.034-3.619-6.892
		c0.2-0.465,0.228-1.198-0.039-2.389c-1.594-7.104-3.351-14.17-7.507-19.418c0.576,7.899,0.208,16.151,4.417,22.702
		c0.772-0.236,1.9,0.048,2.614-0.324c0.11,2.546,1.027,4.743,3.613,6.219c-0.093-0.017-0.178-0.038-0.273-0.054
		c1.629,3.566,2.524,7.611,6.424,9.705c0.468,4.012,2.119,7.402,5.773,9.742c0.04,2.238,1.101,3.546,3.112,3.986
		c-0.38,3.025,0.687,4.638,3.063,4.966c0.006-0.038,0.006-0.068,0.012-0.105c0.325,1.061,0.682,2.063,1.375,2.442
		c6.668,3.641,12.729,8.453,20.654,9.682c8.338,1.291,16.563,3.348,24.802,5.221c0.873,0.198,2.774-0.279,2.537,1.379
		c-0.102,0.711-1.773,1.195-2.732,1.781c5.188-0.282,10.643,0.35,15.496-1.077c6.207-1.823,10.906-6.337,13.132-12.837
		C190.626,412.916,186.771,416.902,181.382,416.998z"/>
	<path fill-rule="evenodd" clip-rule="evenodd" fill="#F4BDA1" d="M198.146,395.865c0.196,0.094,0.393,0.186,0.589,0.279
		c-0.177-0.113-0.353-0.227-0.528-0.342L198.146,395.865z"/>
	<path fill-rule="evenodd" clip-rule="evenodd" fill="#9C6554" d="M181.276,337.332c-9.577,2.598-19.186,4.113-28.943,0.898
		c2.96-7.932,10.787-6.178,16.613-7.971c3.589-1.105,7.828-0.197,11.768-0.006c4.398,0.213,1.789,3.271,1.953,5.197
		C182.202,336.078,181.739,336.705,181.276,337.332z"/>
	<path fill-rule="evenodd" clip-rule="evenodd" fill="#D3896A" d="M144.488,348.604c-0.769-4.217-1.538-8.434-2.31-12.651
		c1.772-0.683,2.927-0.052,3.559,1.692c0.709,3.587,1.415,7.172,2.118,10.756C146.731,348.469,145.609,348.537,144.488,348.604z"/>
	<path fill-rule="evenodd" clip-rule="evenodd" fill="#9C6554" d="M236.684,362.918c0.208,0.219,0.416,0.438,0.625,0.658
		c-0.144-0.029-0.343-0.008-0.419-0.096c-0.122-0.14-0.162-0.351-0.238-0.531L236.684,362.918z"/>
	<path fill-rule="evenodd" clip-rule="evenodd" fill="#F6D4BE" d="M136.755,329.919c0.047,0.873,0.249,1.727,1.216,1.935
		c1.731,0.373,3.998-0.021,4.512,2.294c0.712,3.207,2.142,6.8,1.321,9.673c-1.242,4.348-4.333,1.688-6.688,0.258
		c-0.012-0.604-0.023-1.205-0.032-1.807c0.347-1.69,0.458-3.369-0.161-5.528c-1.724,1.793-2.507,3.405-2.262,5.461
		c0,0-0.142,0.205-0.142,0.203c-1.04-0.058-2.078-0.112-3.117-0.168c-2.425-4.173-0.186-7.604,1.762-11.08
		C133.894,329.394,135.204,329.306,136.755,329.919z"/>
	<path fill-rule="evenodd" clip-rule="evenodd" fill="#F6D4BE" d="M125.619,331.915c0.84,0.365,1.617,0.463,2.149-0.498
		c0.587-0.144,1.174-0.288,1.762-0.432c0,0,0.071,0.181,0.071,0.182c-0.078,1.312,0.11,2.713-0.297,3.911
		c-0.562,1.654-1.115,3.702-3.277,3.925c-1.53,0.158-1.531-1.457-1.914-2.483C123.399,334.603,122.53,332.602,125.619,331.915z"/>
	<path fill-rule="evenodd" clip-rule="evenodd" fill="#F6D4BE" d="M199.458,333.686c-1.668-1.65-3.893-1.961-6.21-0.185
		c-1.272,0.976-1.921-0.461-2.038-1.746c-0.499-1.404-1.813-1.109-2.857-1.376c-0.625,0.269-1.248,0.536-1.872,0.805
		c-1.086,1.211-2.538,0.499-3.812,0.728c-0.752,0.829-1.504,1.658-2.256,2.487c0,2.872,0,5.744,0,9.838
		c-3.151-3.647,0.495-8.956-4.856-9.974c-1.024,0.076-2.05,0.152-3.073,0.229c-0.35-0.014-0.697-0.026-1.047-0.039
		c-2.336,3.043-5.408,1.088-8.099,1.021c-4.284-0.108-8.733,0.953-12.815-1.279c-0.336-0.064-0.674-0.129-1.012-0.193
		c-2.596,0.04-3.581,1.422-3.183,3.888c0.466,2.89,0.075,6.242,2.943,8.065c1.369,0.87,2.885,0.164,3.316-1.797
		c0.373-1.698,0.886-3.365,1.471-5.544c1.948,2.639,0.488,5.902,1.593,8.633c2.661,0.062,7.727,0.755,13.806,0.75
		c0.319-0.271,0.757-0.412,1.269-0.36c6.992,0.705,13.648-1.111,20.336-2.67c-0.003-0.002,0.193-0.169,0.193-0.169
		c1.462-2.747,5.125-1.529,6.849-3.803c0.106-0.813,0.161-1.639,0.333-2.438C198.796,336.899,201.049,335.259,199.458,333.686z"/>
	<path fill="#9C6554" d="M89.073,303.559c-4.312-0.776-10.077-10.23-14.41-11.062c0.616,5.953,4.329,37.213,5.104,43.147
		c0.225,1.723-0.22,4.482,2.646,4.053c2.664-0.4,1.6-3.02,1.676-4.759c0.123-2.8,0.033-5.607,0.033-8.411
		c1.318,4.035,3.632,7.281,5.469,10.746C90.305,331.641,88.864,309.229,89.073,303.559z"/>
	
		<path id="Outline" fill-rule="evenodd" clip-rule="evenodd" fill="none" stroke="#000000" stroke-width="5" stroke-miterlimit="10" d="
		M59.239,284.536c0,43.788,14.992,64.752,27.476,85.993c1.15,1.957,2.686,8.631,4.277,10.343c2.667,2.869,4.252,6.116,5.375,9.859
		c3.215,10.722,11.016,18.145,20.719,21.861c5.851,2.241,10.523,5.265,15.539,8.59c4.731,3.137,9.753,7.12,16.319,5.517
		c1.772,0.383,3.505,0.395,5.14-0.55c3.943,0.185,7.893,0.367,11.84,0.55c5.188-0.281,10.643,0.35,15.496-1.076
		c6.195-1.82,10.889-6.321,13.118-12.801c10.579-5.828,18.106-15.314,27.231-22.888c3.322-1.392,5.641-3.736,6.789-7.196
		c0.488-0.544,0.976-1.088,1.463-1.632c1.943-0.833,3.229-2.272,3.91-4.271c2.303-3.463,4.608-6.927,6.912-10.391
		c1.507-1.539,2.81-3.151,3.939-4.846l0.103-0.109l-0.007-0.033c2.389-3.631,3.903-7.682,4.354-12.494
		c0.811-8.667,2.342-17.342,5.619-25.539c1.332-3.33,0.715-23.639,0.765-27.043"/>
</g>
</svg>
