<?xml version="1.0" encoding="utf-8"?>
<!-- Generator: Adobe Illustrator 16.0.4, SVG Export Plug-In . SVG Version: 6.00 Build 0)  -->
<!DOCTYPE svg PUBLIC "-//W3C//DTD SVG 1.1//EN" "http://www.w3.org/Graphics/SVG/1.1/DTD/svg11.dtd">
<svg version="1.1" id="Layer_2" xmlns="http://www.w3.org/2000/svg" xmlns:xlink="http://www.w3.org/1999/xlink" x="0px" y="0px"
	 width="841.9px" height="595.3px" viewBox="0 0 841.9 595.3" enable-background="new 0 0 841.9 595.3" xml:space="preserve">
<g id="Balloon_1_">
	<g id="Balloon">
		<radialGradient id="SVGID_1_" cx="-21.6704" cy="-27.4048" r="95.4701" gradientUnits="userSpaceOnUse">
			<stop  offset="0" style="stop-color:#FCF8E7"/>
			<stop  offset="1" style="stop-color:#D9BF74"/>
		</radialGradient>
		<path fill="url(#SVGID_1_)" stroke="#EC008C" stroke-miterlimit="10" d="M70.3-20.6c-2.5-25.6-11.2-30.6-16.9-35.4
			c-0.8-0.8-1.6-1.7-2.5-2.5c-29.2-26.9-63.7-28-95.9-2.8c0,0-24.3,14.5-23.8,38.1C-68.3,0.4-57,30-28.5,61.2l0,0l18.7,24.8H0.8h11
			l17.7-24.1l0,0C29.5,61.9,73.6,14.1,70.3-20.6z"/>
		<path fill="#DE775E" stroke="#EC008C" stroke-miterlimit="10" d="M-44.9-61.4c0,0-24.3,14.5-23.8,38.1
			C-68.1,0.4-56.9,30-28.4,61.2l2.6,0.3l3.5,0.4c0,0-25.7-36-31.7-55C-63.5-23.5-59.2-50-44.9-61.4z"/>
		<path fill="#C66A53" stroke="#EC008C" stroke-miterlimit="10" d="M-4-77.8c0,0-39.2-4.8-37.8,57.4c0.9,42.7,29.2,84,29.2,84
			l3.3,0.4l6.1,0.5c0,0-16.5-48.2-15.5-81.7C-18-50.8-16.2-68.4-4-77.8z"/>
		<path fill="#A65945" stroke="#EC008C" stroke-miterlimit="10" d="M7.5-77.9c0,0,14.9,9.3,14.6,53.2c-0.3,46.8-9.4,76.4-14.9,89.1
			h2.2l7.6-0.8c0,0,29.6-49.8,28.5-87.1C44.8-48.1,34.5-79.2,7.5-77.9z"/>
		<path fill="#98503E" d="M51-58.6c0,0,12.9,14.3,12.2,36.1s-11.7,47.9-37.7,85l2.1-0.3l2-0.3c0,0,44.1-47.8,40.8-82.6
			C67.6-50.5,56.1-52.3,51-58.6z"/>
		<g>
			<ellipse fill="#C8C7B5" cx="-65.1" cy="-34.6" rx="1.9" ry="2.7"/>
			<ellipse fill="#C8C7B5" cx="-53.8" cy="-37" rx="1.9" ry="2.7"/>
			<ellipse fill="#A6BCB4" cx="-35.6" cy="-39.5" rx="1.9" ry="2.7"/>
			<ellipse fill="#A6BCB4" cx="-13.6" cy="-40.7" rx="1.9" ry="2.7"/>
			<ellipse fill="#A6BCB4" cx="14.8" cy="-41.3" rx="1.9" ry="2.7"/>
			<ellipse fill="#899C96" cx="37" cy="-39.2" rx="1.9" ry="2.7"/>
			<ellipse fill="#899C96" cx="55.2" cy="-36.9" rx="1.9" ry="2.7"/>
			<ellipse fill="#7E908A" cx="65.8" cy="-34.9" rx="1.9" ry="2.7"/>
			<path fill="#C8C7B5" d="M-65.3-35.4l0.1,1.1c0,0,1.3,4.1,5.1,3.3c6.1-1.3,6.4-5.2,6.4-5.2V-37c0,0-2.6,2.4-5.1,3.2
				C-61.1-33.2-63.1-32.3-65.3-35.4z"/>
			<path fill="#C8C7B5" d="M-65.3-34.3l-0.4,0.7c0,0,0.6,11.7,4.9,10.6c6-1.5,7.2-12.7,7.2-12.7l-0.4-1.1c0,0-3.3,9-7,8.9
				C-63.3-27.9-63.5-30.5-65.3-34.3z"/>
			<path fill="#A6BCB4" d="M-53.5-37.3l0.1,1.1c0,0,4.5,6.1,8.4,5.3c6.1-1.3,9.4-8.5,9.4-8.5l-0.1-0.6c0,0-5.8,4.7-8.2,5.4
				C-46.3-34-51.3-34.2-53.5-37.3z"/>
			<path fill="#A6BCB4" d="M-53.4-36.2l-0.4,0.7c0,0,4.9,13.7,9.2,12.6c6-1.5,9.6-16.4,9.6-16.4h-0.7c0,0-3.7,10.6-9.6,11.5
				C-47.6-27.5-51.7-32.4-53.4-36.2z"/>
			<path fill="#A6BCB4" d="M-35.4-39.6l0.1,1.1c0,0,6.6,6.5,10.5,6.5c6.3,0.1,12.1-8.8,12.1-8.8l-0.5-0.2c0,0-7,5.5-10.8,5.5
				C-26.3-35.4-33.1-36.4-35.4-39.6z"/>
			<path fill="#A6BCB4" d="M-35.3-38.4l-0.4,0.7c0,0,6.8,14.6,11.1,13.5c6-1.5,11.9-15.5,11.9-15.5l-0.9-1c0,0-5.1,10.9-11.1,11.8
				C-26.9-28.6-33.6-34.6-35.3-38.4z"/>
			<path fill="#A6BCB4" d="M-13.3-39.5l0.1,1.1c0,0,9.7,6.8,13.6,6.8c6.3,0.1,14.5-9.7,14.5-9.7l-0.8,0.1c0,0-9.5,4.8-13.3,4.8
				C-1.5-36.4-11.1-36.3-13.3-39.5z"/>
			<path fill="#A6BCB4" d="M-13.2-38.4l-0.4,0.7c0,0,7.7,16.3,13.5,16.1c8.9-0.3,15.8-19,15.8-19L15-40.8c0,0-6.2,13-15.4,12.8
				C-4.4-28.1-11.5-34.6-13.2-38.4z"/>
			<path fill="#7E908A" d="M67-35.8l-0.1,1.1c0,0-1.3,4.1-5.1,3.3c-6.1-1.3-6.4-5.2-6.4-5.2v-0.9c0,0,2.6,2.4,5.1,3.2
				C62.8-33.5,64.8-32.6,67-35.8z"/>
			<path fill="#7E908A" d="M66.9-34.6l0.4,0.7c0,0-0.6,11.7-4.9,10.6c-6-1.5-7.2-12.7-7.2-12.7l0.4-1.1c0,0,3.3,9,7,8.9
				C65-28.2,65.2-30.8,66.9-34.6z"/>
			<path fill="#899C96" d="M55.1-37.7l-0.1,1.1c0,0-4.5,6.1-8.4,5.3c-6.1-1.3-9.4-8.5-9.4-8.5l0.1-0.6c0,0,5.8,4.7,8.2,5.4
				C48-34.3,52.9-34.5,55.1-37.7z"/>
			<path fill="#899C96" d="M55.1-36.5l0.4,0.7c0,0-4.9,13.7-9.2,12.6c-6-1.5-9.6-16.4-9.6-16.4h0.7c0,0,3.7,10.6,9.6,11.5
				C49.2-27.9,53.3-32.7,55.1-36.5z"/>
			<path fill="#A6BCB4" d="M37-39.9L37-38.8c0,0-6.6,6.5-10.5,6.5c-6.3,0.1-12.1-8.8-12.1-8.8l0.5-0.2c0,0,7,5.5,10.8,5.5
				C28-35.7,34.8-36.8,37-39.9z"/>
			<path fill="#A6BCB4" d="M37-38.8l0.4,0.7c0,0-6.8,14.6-11.1,13.5c-6-1.5-11.9-15.5-11.9-15.5l0.9-1c0,0,5.1,10.9,11.1,11.8
				C28.6-29,35.2-35,37-38.8z"/>
		</g>
		<path fill="#AC5C48" stroke="#EC008C" stroke-miterlimit="10" d="M29.7,61.9c0,0-17,2.8-26.8,2.6C-6.8,64.2,1,86.1,1,86.1h11
			L29.7,61.9z"/>
		<path fill="#DE775E" stroke="#EC008C" stroke-miterlimit="10" d="M2.9,64.5L1,86.1H-9.7l-18.7-24.8C-28.4,61.2-5.7,65.3,2.9,64.5z
			"/>
	</g>
	<g id="Line">
		<line fill="none" stroke="#000000" stroke-miterlimit="10" x1="-16.9" y1="76.5" x2="-13.2" y2="106.6"/>
		<line fill="none" stroke="#000000" stroke-miterlimit="10" x1="-9.8" y1="86.1" x2="-6.7" y2="106.6"/>
		<line fill="none" stroke="#000000" stroke-miterlimit="10" x1="-6.7" y1="106.6" x2="-2" y2="87.3"/>
		<line fill="none" stroke="#000000" stroke-miterlimit="10" x1="-2" y1="87.3" x2="1.3" y2="106.6"/>
		<line fill="none" stroke="#000000" stroke-miterlimit="10" x1="1.3" y1="106.6" x2="4.4" y2="87.8"/>
		<line fill="none" stroke="#000000" stroke-miterlimit="10" x1="4.4" y1="87.8" x2="8.9" y2="107.1"/>
		<line fill="none" stroke="#000000" stroke-miterlimit="10" x1="8.9" y1="107.1" x2="11.5" y2="86.7"/>
		<line fill="none" stroke="#000000" stroke-miterlimit="10" x1="11.5" y1="86.7" x2="14.7" y2="107.1"/>
		<path fill="none" stroke="#000000" stroke-miterlimit="10" d="M-65.4-4.9c8.5,34.5,9.2,65.1,52.1,111.5l3.4-20.5"/>
		<path fill="none" stroke="#000000" stroke-miterlimit="10" d="M65.9-4.9C55.3,41.2,52.4,70.7,14.6,106.6l3.2-30.1"/>
	</g>
	<g>
		<path fill="#A97C50" stroke="#754C29" stroke-miterlimit="10" d="M14.3,107.5c-10.6-2.3-19.1-1.1-27.5,0v23.3
			c0,0,5.3-1.7,13.8-1.7c8.5,0,13.5,0.9,14.2,2.2c0.2,0.4-0.7-23.9-0.7-23.9"/>
		<ellipse fill="#603913" cx="0.6" cy="131.3" rx="14.2" ry="2.2"/>
		<polygon fill="#603913" points="-13.3,107.4 -13.3,111.5 -11.2,111.3 -11.2,107 		"/>
		<polygon fill="#603913" points="-13.3,115.2 -13.3,118.8 -11.2,118.5 -11.2,115 		"/>
		<polygon fill="#603913" points="-13.3,122.6 -13.3,126.6 -11.2,126.3 -11.2,122.3 		"/>
		<polygon fill="#603913" points="-7.1,129.2 -7.1,125.9 -11.2,126.3 -11.2,129.9 		"/>
		<polygon fill="#603913" points="-7.1,118.1 -7.1,121.8 -11.2,122.3 -11.2,118.5 		"/>
		<polygon fill="#603913" points="-7.1,114.5 -11.2,115 -11.2,111.3 -7.1,110.8 		"/>
		<polygon fill="#603913" points="-2.7,106.2 -2.7,110.4 -7.1,110.8 -7.1,106.5 		"/>
		<polygon fill="#603913" points="-2.7,114.1 -7.1,114.4 -7.1,118.2 -2.7,117.7 		"/>
		<polygon fill="#603913" points="-2.7,125.4 -7.1,125.9 -7.1,121.7 -2.7,121.4 		"/>
		<polygon fill="#603913" points="14.5,107.5 14.5,111.5 12.4,111.3 12.4,107 		"/>
		<polygon fill="#603913" points="14.5,115.2 14.5,118.8 12.4,118.5 12.4,115 		"/>
		<polygon fill="#603913" points="14.5,122.6 14.5,126.6 12.4,126.3 12.4,122.3 		"/>
		<polygon fill="#603913" points="8.2,129.3 8.2,125.9 12.4,126.3 12.4,129.9 		"/>
		<polygon fill="#603913" points="8.2,118.1 8.2,121.8 12.4,122.3 12.4,118.5 		"/>
		<polygon fill="#603913" points="8.2,114.5 12.4,115 12.4,111.3 8.2,110.8 		"/>
		<polygon fill="#603913" points="3.9,106.2 3.9,110.4 8.2,110.8 8.2,106.5 		"/>
		<polygon fill="#603913" points="3.9,114.1 8.3,114.4 8.2,118.2 3.9,117.7 		"/>
		<polygon fill="#603913" points="3.9,125.4 8.2,125.9 8.2,121.7 3.9,121.4 		"/>
		<polygon fill="#603913" points="3.9,128.9 -2.7,128.9 -2.7,125.4 3.9,125.4 		"/>
		<polygon fill="#603913" points="-2.7,117.7 -2.7,121.4 3.9,121.4 3.9,117.7 		"/>
		<polygon fill="#603913" points="-2.7,110.4 -2.7,114.1 3.9,114.1 3.9,110.4 		"/>
	</g>
</g>
</svg>
