<?xml version="1.0" encoding="utf-8"?>
<!-- Generator: Adobe Illustrator 16.0.4, SVG Export Plug-In . SVG Version: 6.00 Build 0)  -->
<!DOCTYPE svg PUBLIC "-//W3C//DTD SVG 1.1//EN" "http://www.w3.org/Graphics/SVG/1.1/DTD/svg11.dtd">
<svg version="1.1" id="FlyingSaucer" xmlns="http://www.w3.org/2000/svg" xmlns:xlink="http://www.w3.org/1999/xlink" x="0px"
	 y="0px" width="841.89px" height="595.28px" viewBox="0 0 841.89 595.28" enable-background="new 0 0 841.89 595.28"
	 xml:space="preserve">
<path id="WhiteWalker" display="none" opacity="0.6" fill="#D8E5ED" enable-background="new    " d="M83.975,10.144
	C83.819-4.865,61.148-10.234,49.922-12.559c-0.292-0.168-0.858-0.432-1.298-0.459c-0.36-0.373-0.741-0.728-1.135-1.069
	c-0.067-9.885,0.296-24.239,0.296-30.804c0-27.083-21.999-49.038-49.138-49.038c-27.138,0-49.456,20.878-49.138,49.039
	c0.093,8.348,0.013,11.812-0.001,32.812c-9.319,2.267-19.56,5.409-26.706,11.875c-7.64,6.854-6.747,14.449-0.141,21.21
	c0.03,0.06,0.994,1.114,1.024,1.174c-0.064,0.059,0.599,1.352,0.709,1.271c4.077,7.941,13.054,12.431,20.715,16.403
	c5.149,2.672,10.422,5.008,15.86,7.021c8.448,5.884,18.01,10.292,28.137,12.262c0.875,0.298,1.726,0.461,2.653,0.395l0.771,0.238
	c0.196,0.063,0.422-0.059,0.579-0.101c7.718,0.555,16.268,0.827,23.818-0.939c9.861-2.311,19.209-6.801,27.38-12.757
	c11.358-4.82,29.268-12.293,34.934-24.163c-0.017,0.014-0.057,0.036-0.087,0.054C82.596,19.27,83.88,14.179,83.975,10.144z
	 M-0.888,28.36c0.104,0.228,0.212,0.447,0.322,0.664c-0.149-0.214-0.284-0.44-0.42-0.665C-0.952,28.359-0.92,28.359-0.888,28.36z
	 M49.024-12.503c-0.018-0.006-0.034-0.011-0.05-0.016l0.051-0.03C49.03-12.536,49.022-12.518,49.024-12.503z"/>
<g id="Saucer">
	<g>
		<path fill="#C2A5C5" d="M-39.658,46.214c-0.661-0.471-1.02-0.745-1.02-0.745S-40.424,45.76-39.658,46.214z"/>
		<path fill="#C2A5C5" d="M63.049,30.022c-13.15,6.182-31.846,8.766-52.035,9.4c-3.82,0.12-7.422,0.146-10.822,0.104v-0.001
			c-0.016,0-0.031,0-0.045,0c-0.018,0-0.031,0-0.049,0v0.001c-3.398,0.041-7,0.015-10.822-0.104
			c-20.188-0.636-38.96-4.473-51.753-10.873c-12.793-6.399-13.848-6.805-13.848-6.805s5.586,12.234,33.494,23.426
			c1.698,0.683,3.438,1.294,5.208,1.846c5.854,3.877,19.833,11.962,34.407,11.856c1.65-0.012,8.012-0.012,9.662,0
			c16.48,0.119,32.414-10.506,36.486-13.404c-0.25,0-0.514,0.021-0.795,0.056c0.328-0.119,0.66-0.229,0.986-0.354
			c32.488-12.267,37.32-28.106,37.32-28.106S75.995,23.938,63.049,30.022z"/>
	</g>
	<path fill="#A784AE" d="M-2.517,26.901c-1.346-3.114,3.104-27.83,5.242-41.448c-1.094-0.007-2.195-0.012-3.303-0.012
		c-42.815,0-78.409,6.928-78.409,25.051c0,13.841,35.384,23.88,78.198,23.88c1.383,0,4.182,0.127,6,0.017
		C1.026,32.148-1.14,30.095-2.517,26.901z"/>
	<path fill="#C2A5C5" d="M76.946,9.921c0-17.403-32.934-24.771-74.221-25.05C0.586-1.512-3.863,23.205-2.517,26.319
		c1.377,3.194,1.871,5.181,6.055,7.421C44.434,33.048,76.946,23.316,76.946,9.921z"/>
	<path fill="#C2A5C5" d="M-69.705,9.915c0-17.733,31.653-24.757,73.198-25.051c-0.992-0.006-1.99-0.011-2.996-0.011
		c-42.814,0-77.779,7.765-77.779,25.887c0,13.842,34.965,24.237,77.779,24.237c0.957,0,1.906-0.008,2.854-0.02
		C-38.127,34.467-69.705,23.444-69.705,9.915z"/>
	<path fill="#ECDFEE" d="M1.741-14.994C1.663-14.484,1.827-15.533,1.741-14.994c39.662,0.569,70.627,7.984,70.521,26.59
		c-0.031,5.436-5.391,10.466-14.479,14.571c11.314-4.355,18.826-9.104,18.826-15.24C76.61-7.482,43.028-14.715,1.741-14.994z"/>
	<path fill="#D3BED9" d="M-0.521-16.92c-45.537,0-81.929,10.682-81.929,27.28c0,16.598,36.914,30.055,82.451,30.055
		c45.535,0,82.451-11.865,82.451-30.055C82.452-6.239,45.016-16.92-0.521-16.92z M-0.669,33.74c-43.328,0-76.896-9.34-76.613-23
		c0.395-19.263,33.367-24.551,76.697-24.551c43.33,0,76.363,5.169,77.195,24.737C76.766,23.051,42.661,33.74-0.669,33.74z"/>
	<path fill="#ECDFEE" d="M50.366,34.161c0.074-1.354-3.463-2.362-7.939-0.479c-0.75,0.314-7.816-0.605-13.572-1.043
		c-9.947,1.438-18.822,1.5-30.479,1.112c-2.916-0.097-36.251,1.612-58.987-6.905c0.223,1.294,0.562,2.78,1.306,4.384
		c14.995,5.662,36.031,9.188,59.33,9.188C18.977,40.415,36.438,38.082,50.366,34.161z"/>
	<path fill="#D3BED9" d="M66.905,3.312h-3.807C63.202,3.78,63.26,4.253,63.26,4.73c0,11.035-28.545,7.018-63.547,7.018
		c27.994,0,50.688-8.272,50.688-18.476S27.385-23.498-0.607-23.498c-25.334,0-46.063,5.378-49.774,13.963
		c0.002-0.175,0.011-0.3,0.021-0.357L-66.186,3.312c-0.035,0.317-0.058,0.638-0.058,0.961c0,13.407,29.817,24.277,66.603,24.277
		c36.783,0,66.605-10.87,66.605-24.277C66.963,3.949,66.94,3.629,66.905,3.312z M-0.646-21.588c26.637,0,48.23,6.809,48.23,15.208
		c0,8.397-21.596,15.207-48.23,15.207c-26.638,0-48.229-6.81-48.229-15.207C-48.877-14.779-27.282-21.588-0.646-21.588z"/>
	<path fill="#C2A5C5" d="M62.075-2.289c2.092,1.979,10.787,4.873-0.707,11.067c-11.496,6.193-60.873,2.967-60.873,2.967l12.012-0.59
		c0,0,29.195-2.227,36.676-13.836c1.766-2.743-0.553-7.562-1.195-9.498C47.344-14.115,62.075-2.289,62.075-2.289z"/>
	<path fill="#ECDFEE" d="M-49.206-0.478c1.095,0.723,6.091,3.063,6.494,3.057c0.406-0.007,0.804,1.886,0.774,3.242
		C-41.967,7.177-41.226,19.128-40,20.039c1.222,0.911,0.058,0.88-0.532,0.826c-0.587-0.054-18.78-3.579-21.71-14.146
		c-0.751-2.713,0.474-2.304,1.16-2.486C-60.396,4.048-50.429-1.287-49.206-0.478z"/>
	<path fill="#D3BED9" d="M-14.908,54.017c-0.619,1.388,2.48,5.188,5.568,5.025c3.09-0.163,1.377,1.043,0.611-1.103
		c-0.863-2.416,1.055-3.12,2.025-4.147c1.156-1.222,1.396-2.412-0.104-2.443C-21.167,51.05-13.785,51.495-14.908,54.017z"/>
	<path fill="#A784AE" d="M76.766,23.051c0,0-1.326,1.382-14.119,7.782c-9.27,4.637-21.828,7.156-35.725,8.434l0,0
		c5.441,1.389,20.43,3.224,7.197,9.014c-8.264,2.188-20.02,3.865-36.889,2.933C-0.47,52.08,8.848,52.98,8.848,54.631
		c0,2.647-1.223,3.377-2.854,4.54c-0.066,0.049-0.199,0.096-0.383,0.142c0.123,0.001,0.234,0.002,0.33,0.002
		c15.094,0.108,31.855-9.241,37.512-13.632C70.731,34.58,76.766,23.051,76.766,23.051z"/>
	<path fill="#ECDFEE" d="M-30.919,7.675c-3.492-1.273-4.579-1.623-4.896,1.916s2.383,13.887,2.383,13.887s0.968,1.691,1.438-1.337
		c0.468-3.028,1.554-8.871,2.876-11.017C-27.02,7.71-29.402,8.229-30.919,7.675z"/>
	<path fill="#3D1C49" d="M47.622-6.513c0-8.399-21.594-15.208-48.23-15.208l0,0c-26.636,0-48.229,6.808-48.229,15.208l0,0
		c0,8.397,21.596,15.207,48.229,15.207l0,0C26.028,8.693,47.622,1.884,47.622-6.513L47.622-6.513z"/>
	<path fill="#D3BED9" d="M-46.447,36.518c0.605,0.119,13.422,1.988,13.546,1.895c0.124-0.096,7.77,7.987,13.648,7.06
		c0.842-0.133-1.834,2.633-1.115,2.819c0.717,0.187,1.275,2.04,1.074,2.146c-0.203,0.104-2.962,0.26-10.301-1.937
		c-1.651-0.495-2.939-3.284-3.159-3.472C-35.076,43.021-47.124,36.383-46.447,36.518z"/>
</g>
<g id="Outline">
	<path fill="#0E0E0E" d="M83.293,10.316C83.139-4.694,60.469-10.062,49.241-12.387c-0.291-0.168-0.855-0.433-1.295-0.459
		c-5.371-5.528-14.27-7.617-21.523-9.019c-8.836-1.708-17.863-2.293-26.852-2.27c-8.977,0.059-17.986,0.722-26.803,2.479
		c-7.312,1.457-16.281,3.54-21.6,9.191c-9.906,2.314-21.294,5.421-29.047,12.434c-7.638,6.854-6.745,14.449-0.139,21.209
		c0.03,0.061,0.994,1.115,1.024,1.175c-0.064,0.059,0.599,1.352,0.709,1.271c4.077,7.941,13.054,12.43,20.715,16.403
		c5.147,2.672,10.422,5.008,15.86,7.021c8.446,5.883,18.01,10.292,28.137,12.262c0.875,0.298,1.725,0.461,2.65,0.395l0.773,0.238
		c0.197,0.063,0.422-0.059,0.58-0.101c7.717,0.555,16.266,0.827,23.818-0.939c9.859-2.311,19.209-6.801,27.379-12.757
		c11.357-4.82,29.268-12.293,34.934-24.163c-0.016,0.014-0.057,0.036-0.086,0.054C81.915,19.442,83.198,14.351,83.293,10.316z
		 M37.581,48.652c-14.066,8.45-29.148,10.873-45.279,9.732l-0.926-0.583c-4.271-1.099-7.826-0.863-12.102-2.455
		c-7.794-2.901-14.418-7.877-22.056-10.897c-5.731-2.267-11.201-5.037-16.508-8.157c-5.771-3.393-13.454-8.729-16.408-14.926
		l-0.032,0.015c0.01-0.008,0.017-0.013,0.026-0.021l-0.394-0.221c0.704-0.563-1.037-1.021-0.881-1.144
		c-2.492-2.491-3.907-4.634-4.715-8.115c-1.271-5.479,2.98-10.498,7.078-13.514c3.974-3.104,8.823-5.166,13.529-6.855
		c2.947-1.058,5.969-1.918,9.004-2.688c3.185-0.806,3.74-1.479,6.416-3.283c6.688-4.509,15.39-6.117,23.239-7.195
		c8.316-1.142,16.757-1.448,25.146-1.244c8.361,0.205,16.793,0.935,24.99,2.646c6.73,1.405,14.801,3.292,19.814,8.363l0.816-0.488
		c0.068,0.174-0.188,0.473-0.363,0.423c2.221,0.124,5.199,1.646,7.354,2.32c4.189,1.311,8.324,2.854,12.271,4.78
		C73.633-1.914,81.2,2.84,81.403,10.336c-0.027,2.915-0.467,5.761-1.732,8.411c-0.969,1.951-2.787,3.149-3.74,5.013
		c0.029-0.022,0.057-0.046,0.086-0.068C67.458,36.267,49.977,41.203,37.581,48.652z"/>
</g>
<g id="Alien">
	<path fill="#7DAB41" d="M-39.302,1.98c8.713,3.016,12.226,5.771,36.535,6.697c24.312,0.926,41.588-4.884,41.254-9.24
		c-0.336-4.354,9.891-86.612-35.676-88.311C-51.143-90.883-39.302,1.98-39.302,1.98z"/>
	<path fill="#667F37" d="M2.811-88.872c-6.227-0.23-11.562,0.79-16.15,2.756c1.525-0.106,3.109-0.136,4.758-0.073
		C26.29-84.891,27.061-23.184,25.633,6.473C33.684,4.18,38.569,2.951,38.44,1.275C38.102-3.082,48.377-87.175,2.811-88.872z"/>
	<ellipse fill="#ACD255" cx="1.18" cy="-50.894" rx="26.938" ry="28.36"/>
	<ellipse fill="#667F37" cx="0.985" cy="-51.21" rx="25.105" ry="25.875"/>
	<ellipse fill="#FEF3F8" cx="1.903" cy="-50.304" rx="22.256" ry="22.939"/>
	<ellipse fill="#7FCAE9" cx="1.905" cy="-50.304" rx="14.379" ry="14.894"/>
	<ellipse fill="#C1E8FB" cx="1.905" cy="-50.304" rx="10.248" ry="10.614"/>
	<ellipse fill="#4DB0B7" cx="3.958" cy="-50.66" rx="8.727" ry="9.037"/>
	<ellipse fill="#201723" cx="3.958" cy="-50.304" rx="5.99" ry="6.078"/>
	<circle fill="#FFFFFF" cx="8.655" cy="-53.677" r="3.328"/>
	<circle fill="#FFFFFF" cx="8.614" cy="-45.635" r="1.717"/>
	<path fill="#667F37" d="M0.985-18.713c-7.043,0-18.086-4.672-22.886-9.333c4.582,6.286,17.644,13.5,25.857,13.5
		c13.865,0,23.967-7.549,23.967-27.196c0-0.879-0.045-1.746-0.127-2.604C26.491-29.962,14.987-18.713,0.985-18.713z"/>
	<path fill="#010101" d="M1.79,4.179C0.616,4.106-0.57,4.122-1.73,3.941c-1.875-0.294-3.74-0.679-5.586-1.125
		c-0.301-0.073-0.676-0.68-0.662-1.025c0.021-0.608,0.541-0.949,1.166-0.822c0.684,0.141,1.336,0.426,2.018,0.576
		c1.389,0.31,2.775,0.687,4.186,0.825c3.676,0.365,7.25-0.097,10.645-1.646c0.262-0.119,0.529-0.235,0.809-0.295
		c0.549-0.118,1.133-0.172,1.342,0.521c0.199,0.646-0.283,0.926-0.775,1.118c-1.188,0.463-2.369,0.948-3.584,1.33
		C6.858,3.702,5.854,3.955,4.848,4.069C3.84,4.182,2.811,4.094,1.793,4.094C1.792,4.122,1.792,4.151,1.79,4.179z"/>
	<path fill="#667F37" d="M26.868-10.621C23.411-2.931,15.264,1.61,9.584,2.724C3.899,3.839,25.311,0.921,27.188-1.931
		C29.065-4.781,26.868-10.621,26.868-10.621z"/>
	<path fill="#667F37" d="M25.44-25.335C14.016-1.834-0.609-9.718-12.476-9.777c-9.646-0.048,13.398,12.624,29.75,1.63
		c7.838-5.271,9.775-5.703,11.607-9.165C30.717-20.774,25.44-25.335,25.44-25.335z"/>
	<path fill="#010101" d="M30.124-14.175c-1.537-2.347-3.844-3.562-6.529-4.112c-0.348-0.071-0.836-0.048-1.084,0.151
		c-0.355,0.283-0.549,0.769-0.812,1.167c0.363,0.194,0.719,0.417,1.098,0.578c0.645,0.271,1.303,0.506,1.953,0.755
		c-0.334,0.662-0.557,1.417-1.021,1.969c-1.15,1.365-5.91,4.328-7.984,5.044c-2.377,0.82-4.822,1.438-7.225,2.2
		C6.731-5.854,4.967-5.812,3.196-5.196C2.559-4.976,0.717-4.829,0.077-4.74C-0.56-4.828-1.197-4.975-1.832-5.196
		c-1.773-0.615-3.535-0.965-5.324-1.532c-2.398-0.763-4.848-1.075-7.227-1.896c-3.041-1.05-5.863-2.529-7.983-5.044
		c-0.465-0.552-0.688-1.307-1.021-1.969c0.651-0.249,1.312-0.483,1.954-0.755c0.38-0.16,0.732-0.384,1.097-0.578
		c-0.264-0.398-0.455-0.884-0.812-1.167c-0.249-0.199-0.737-0.223-1.084-0.151c-2.688,0.552-4.99,1.766-6.529,4.112
		c-0.284,0.434-0.493,1.378-0.268,1.595c0.598,0.571,0.961-0.237,1.318-0.6c1.4-1.416,1.937-1.413,3.234,0.101
		c0.104,0.12,0.196,0.254,0.314,0.359c1.249,1.125,2.444,2.317,3.77,3.349c1.996,1.555,4.455,2.171,6.779,3.014
		c2.514,0.911,5.084,1.062,7.645,1.841C-3.992-3.916-2.011-3.016,0-2.922c0.023,0.001,0.053,0,0.074,0.001v-0.002
		c0.283,0,1.266,0.001,1.285,0.001c2.01-0.094,3.99-0.383,5.967-0.985c2.562-0.777,5.133-1.541,7.646-2.452
		c2.326-0.843,4.783-1.459,6.779-3.014c1.32-1.031,2.52-2.224,3.771-3.349c0.117-0.105,0.209-0.239,0.312-0.359
		c1.301-1.514,1.834-1.517,3.234-0.101c0.357,0.362,0.725,1.171,1.318,0.6C30.618-12.797,30.407-13.741,30.124-14.175z"/>
</g>
<g id="Glass">
	<path id="Dome" opacity="0.5" fill="#A9C7DA" enable-background="new    " d="M47.106-44.719c0,8.828-0.662,31.753-0.037,38.937
		C47.965,4.565,18.797,10.513-5.64,10.513c-18.173,0-45.533-8.596-45.533-16.429c0-26.43,0.104-29.715,0.003-38.802
		c-0.316-28.161,22-49.039,49.139-49.039C25.106-93.757,47.106-71.802,47.106-44.719z"/>
	<path id="Highlight" opacity="0.6" fill="#D8E5ED" enable-background="new    " d="M-28.812,3.123c0,0,4.071-7.927,4.071-14.92
		c0-23.593,0.688-25.815,0.608-33.927c-0.212-22.493,7.912-39.101,23.853-46.556c-0.646-0.041-1.311-0.202-1.951-0.062
		c-19.078,4.17-36.935,22.373-36.696,47.511c0.075,8.112-0.003,11.044-0.003,34.637c0,6.993,0,11.177,0,11.177
		C-35.424,0.983-29.547,7.939-28.812,3.123z"/>
</g>
</svg>
