<?xml version="1.0" encoding="utf-8"?>
<!-- Generator: Adobe Illustrator 16.0.4, SVG Export Plug-In . SVG Version: 6.00 Build 0)  -->
<!DOCTYPE svg PUBLIC "-//W3C//DTD SVG 1.1//EN" "http://www.w3.org/Graphics/SVG/1.1/DTD/svg11.dtd">
<svg version="1.1" id="Background_1_" xmlns="http://www.w3.org/2000/svg" xmlns:xlink="http://www.w3.org/1999/xlink" x="0px"
	 y="0px" width="841.89px" height="595.28px" viewBox="0 0 841.89 595.28" enable-background="new 0 0 841.89 595.28"
	 xml:space="preserve">
<rect id="Back" x="0.748" y="-0.293" fill="#3C3544" width="595.622" height="842.891"/>
<g id="Moon">
	<path fill="#829E3C" d="M194.933,719.836c-137.64-39-101.178-35.5-194.157-36.5l1.143,159.398H338.84
		c2.951,2.104,46.312,0,46.312,0S332.57,758.836,194.933,719.836z"/>
	<g>
		<path fill="#6E8A44" d="M338.84,841.734c-2.95-2.105-9.047-13.396-23.165-7.396c-14.115,6-36.881-17-43.409-22
			s-38.472-19.5-57.643,0c-19.168,19.5-40.829,3-61.855-8.5c-21.024-11.5-14.474-17-45.422-4s-33.052,3-48.152,3.5
			c-15.104,0.5-70.896-21-53.273-56.5c17.625-35.5-4.046-34-4.046-34l-0.217-6.012l-0.881-0.203V842.67h351.02
			C345.105,842.66,339.809,842.422,338.84,841.734z"/>
		<path fill="#6E8A44" d="M352.055,840.277h16.85l-0.393-0.291C363.107,840.15,357.188,840.279,352.055,840.277z"/>
	</g>
	<path fill="#B9C67E" d="M0.487,679.357c0,0,57.646-19,211.042,40.666c111.383,43.322,126.599,56.688,179.739,122.645l-33.771-0.58
		c0,0-19.831-56.123-66.312-80.062c-46.481-23.941-92.597-24.666-127.174-44.334c-65.896-37.48-19.685-1.666-119.854-32.492
		C28.256,680.305,0,685.359,0,685.359L0.487,679.357z"/>
	<path fill="#6E8A44" d="M88.269,722.389c27.965,18.479,36.886,36.668,14.119,56c-22.768,19.334-37.204,10.666-44.317,7.334
		c-7.114-3.334-65.519-30.32-24.438-59.334C55.364,711.043,80.109,717,88.269,722.389z"/>
	<path fill="#5B6F31" d="M31.004,732.207c21.73-15.348,46.478-9.393,54.637-4c19.057,12.59,29.257,25.049,26.625,37.826
		c8.354-15.104-1.814-29.662-24.125-44.402c-8.159-5.393-32.903-11.348-54.637,4c-8.958,6.326-13.185,12.561-14.243,18.467
		C21.532,740.211,25.309,736.229,31.004,732.207z"/>
	<path fill="#B9C67E" d="M18.245,739.512c1.165-2.871,5.904-8.143,3.83-0.643c-2.073,7.5-3.83,21.385,6.862,28.088
		c10.69,6.699,40.053,22.979,56.488,18.67c16.437-4.311,14.682-5.27,15.639-5.904s7.659-3.189,1.755,1.117
		c-5.905,4.311-16.597,11.646-28.245,10.371c-11.647-1.275-41.967-15.639-50.104-23.615
		C16.329,759.619,13.777,750.523,18.245,739.512z"/>
	<path fill="#6E8A44" d="M203.093,767.471c20.589,12.104,27.155,24.023,10.396,36.689c-16.762,12.668-27.394,6.988-32.63,4.809
		c-5.238-2.188-48.239-19.867-17.993-38.877C178.865,760.039,197.084,763.941,203.093,767.471z"/>
	<path fill="#5B6F31" d="M162.755,775.875c16-10.059,31.771-6.518,37.779-2.982c14.029,8.25,22.162,14.807,20.227,23.178
		c6.148-9.896-1.337-19.436-17.764-29.096c-6.008-3.531-24.227-7.438-40.227,2.621c-6.598,4.145-9.708,8.229-10.488,12.102
		C153.956,779.15,158.561,778.51,162.755,775.875z"/>
	<path fill="#B9C67E" d="M151.536,778.693c0.857-1.885,6.729-5.146,5.203-0.232c-1.526,4.916-1.854,12.312,6.017,16.703
		c7.872,4.395,28.084,14.174,40.188,11.354c12.103-2.822,8.663-2.996,9.571-1.479c0.396,0.666,5.641-2.092,1.293,0.73
		c-4.349,2.824-12.22,7.635-20.797,6.799c-8.576-0.836-30.897-10.246-36.893-15.477
		C150.126,791.867,148.246,785.908,151.536,778.693z"/>
	<path fill="#5B6F31" d="M74.484,758.545c-6.727,3.34-12.709-2.32-13.343-5.012c-1.649-7-5.598-7.154-4.343-10.57
		c-2.956,3.82-3.894,12.098,1.779,17.08c2.075,1.82,8.786,4.48,15.512,1.145c2.771-1.375,4.212-2.922,4.748-4.508
		C78.043,757.66,76.246,757.67,74.484,758.545z"/>
	<path fill="#B9C67E" d="M78.892,757.84c-0.443,0.744-9.19,0.811-8.307-1.172c0.885-1.982,1.619-5.414-1.112-7.701
		c-2.732-2.287-5.188-2.883-9.979-2.369c-4.792,0.516-1.991-2.562-2.245-3.254c-0.108-0.303-2.279,0.562-0.446-0.381
		c1.833-0.945,5.132-2.529,8.354-1.699c3.223,0.832,11.159,6.039,13.124,8.574C80.242,752.375,80.593,754.988,78.892,757.84z"/>
	<path fill="#6E8A44" d="M295.255,777.959c10.368,8.107,13.096,15.1,3.018,20.803c-10.078,5.701-15.477,1.826-18.179,0.254
		c-2.703-1.572-24.912-14.355-7.007-22.547C282.56,772.137,292.23,775.59,295.255,777.959z"/>
	<path fill="#5B6F31" d="M272.607,779.621c9.473-4.332,17.832-1.252,20.855,1.115c7.065,5.523,11.032,9.695,9.366,14.131
		c4.08-4.961,0.685-10.715-7.592-17.188c-3.024-2.365-12.694-5.82-22.168-1.488c-3.905,1.783-5.9,3.789-6.608,5.848
		C267.562,780.768,270.124,780.754,272.607,779.621z"/>
	<path fill="#B9C67E" d="M266.273,780.342c0.604-0.967,4.051-2.322,2.856,0.252c-1.188,2.574-1.906,6.592,2.072,9.561
		c3.981,2.973,14.315,9.783,21.134,9.119c6.815-0.662,4.95-1.01,5.335-0.107c0.171,0.395,3.234-0.73,0.654,0.492
		c-2.58,1.229-7.229,3.283-11.855,2.203c-4.625-1.08-16.139-7.846-19.03-11.139C264.544,787.439,263.95,784.045,266.273,780.342z"/>
</g>
<g id="Stars">
	<path fill="#E5D5D0" d="M321.774,587.42c-0.079,1.416-0.684,2.514-2.122,2.641c-1.961,0.174-2.581-1.355-2.863-2.885
		c-0.281-1.531,1.216-1.74,2.109-1.939C320.513,584.875,321.427,585.9,321.774,587.42z"/>
	<path fill="#E3E491" d="M119.356,361.613c-0.092,1.289-0.777,2.221-2.002,2.23c-1.434,0.01-2.262-1.018-2.178-2.438
		c0.072-1.234,0.938-2.049,2.185-1.988C118.629,359.479,119.246,360.393,119.356,361.613z"/>
	<path fill="#E5D5D0" d="M256.268,526.553c-0.185,0.369-0.365,0.74-0.547,1.105c-0.183,0.271-0.401,0.5-0.666,0.689l-0.123,0.008
		c-2.01,0.281-3.604-0.24-4.146-2.396c-0.353-1.391,0.354-2.486,1.545-3.084c2.358-1.182,3.042,1.029,4.203,2.24
		c-0.194,0.197-0.181,0.379,0.042,0.545C256.495,525.965,256.394,526.264,256.268,526.553z"/>
	<path fill="#E5D5D0" d="M197.037,470.32c-0.15,0.516-0.306,1.029-0.458,1.545c-1.188,0.982-2.395,1.98-3.882,0.494
		c-0.726-0.727-1.009-1.6-0.597-2.605c0.756-1.846,2.263-1.615,3.775-1.354c0.21,0.145,0.42,0.291,0.63,0.438
		C197.733,468.959,197.331,469.658,197.037,470.32z"/>
	<path fill="#E5D5D0" d="M350.61,527.998c1.195,0.393,1.717,1.301,1.645,2.518c-0.059,0.936-0.612,1.635-1.594,1.496
		c-1.354-0.186-1.717-1.264-1.649-2.461C349.059,528.629,349.539,528.004,350.61,527.998z"/>
	<path fill="#E5D5D0" d="M247.685,588.164c0.82-1.564-0.566-5.377,3.51-3.619c1.354,0.584,2.061,1.971,1.437,3.523
		c-0.854,2.117-2.567,1.68-4.23,1.229C248.159,588.92,247.921,588.543,247.685,588.164z"/>
	<path fill="#E5D5D0" d="M243.503,662.748c-0.108,1.889-0.878,3.096-2.496,3.027c-1.523-0.064-2.526-1.271-2.535-2.793
		c-0.01-1.361,0.957-2.369,2.332-2.479C242.479,660.373,243.174,661.572,243.503,662.748z"/>
	<path fill="#E5D5D0" d="M429.301,833.586c-0.58,1.473-1.239,2.66-2.729,2.486c-1.633-0.188-2.334-1.395-2.186-2.996
		c0.123-1.295,0.934-2.111,2.209-2.027C428.21,831.156,428.822,832.436,429.301,833.586z"/>
	<path fill="#E5D5D0" d="M318.598,704.809c-0.136,2.096-0.929,3.645-3.322,2.846c-1.445-0.484-2.229-1.895-1.367-3.363
		c1.354-2.307,2.955-1.229,4.451-0.016C318.272,704.525,318.354,704.703,318.598,704.809z"/>
	<path fill="#E5D5D0" d="M459.397,719.047c-0.217,1.545-1.199,1.686-2.449,1.502c-1.153-0.168-2.396-0.395-2.397-1.779
		c-0.002-1.805,1.561-1.588,2.766-1.68C458.729,716.984,459.309,717.789,459.397,719.047z"/>
	<path fill="#E5D5D0" d="M426.315,751.094c-0.277,1.217-0.873,2.104-1.93,1.994c-1.148-0.121-1.986-0.998-1.924-2.256
		c0.058-1.074,0.812-1.799,1.885-1.77C425.671,749.098,426.087,750.141,426.315,751.094z"/>
	<path fill="#E5D5D0" d="M480.466,668.061c1.551,1.264,1.733,2.646,0.36,4.164c-1.396,0.051-2.469-0.514-2.647-1.936
		C477.973,668.709,479.132,668.221,480.466,668.061z"/>
	<path fill="#E5D5D0" d="M490.315,721.15c-0.055,1.059-0.5,1.885-1.674,1.961c-1.191,0.078-1.756-0.75-1.915-1.793
		c-0.183-1.174,0.483-1.902,1.603-1.969C489.455,719.281,490.039,720.08,490.315,721.15z"/>
	<path fill="#E5D5D0" d="M54.603,517.547l0.024,0.307c-0.104,0.701-0.514,1.111-1.201,1.254c-0.443,0.178-0.889,0.357-1.329,0.533
		c-1.84-0.648-3.436-1.598-2.999-3.875c0.25-1.311,1.289-2.387,2.675-2.271C54.156,513.686,54.313,515.729,54.603,517.547z"/>
	<path fill="#E5D5D0" d="M120.294,534.547c-0.179,1.188-0.836,1.877-1.931,1.865c-1.348-0.012-1.996-0.938-1.92-2.182
		c0.067-1.059,0.787-1.854,1.893-1.805C119.605,532.494,120.272,533.33,120.294,534.547z"/>
	<path fill="#E5D5D0" d="M217.08,548.26c-1.115-0.146-1.824-0.783-1.859-1.896c-0.039-1.186,0.729-1.799,1.862-1.785
		c0.977,0.014,1.541,0.693,1.621,1.607C218.803,547.307,218.236,548.043,217.08,548.26z"/>
	<path fill="#E5D5D0" d="M156.284,537.568c-1.77,0.416-3.05,0.053-2.928-2.084c0.054-0.908,0.833-1.578,1.68-1.457
		c2.146,0.309,2.045,1.777,1.466,3.373L156.284,537.568z"/>
	<path fill="#E5D5D0" d="M71.604,481.357c-0.29,1.238-0.864,1.982-2.018,1.848c-1.105-0.131-1.717-0.908-1.619-2.006
		c0.096-1.096,0.81-1.758,1.938-1.68C71.1,479.605,71.351,480.588,71.604,481.357z"/>
	<path fill="#E5D5D0" d="M158.68,618.719c-1.453-0.15-2.269-0.982-2.362-2.414c-0.083-1.283,0.611-2.193,1.854-2.381
		c1.521-0.229,2.344,0.762,2.553,2.131C160.948,617.537,160.104,618.383,158.68,618.719z"/>
	<path fill="#E5D5D0" d="M100.6,617.328c-0.825-1.381-1.69-2.887,0.442-3.77c1.238-0.512,2.271,0.412,2.499,1.582
		c0.478,2.422-1.274,2.312-2.885,2.236L100.6,617.328z"/>
	<path fill="#E5D5D0" d="M128.47,599.83c-0.192,1.049-0.622,1.793-1.602,1.822c-1.165,0.033-1.814-0.713-1.825-1.834
		c-0.008-0.922,0.503-1.621,1.516-1.648C127.742,598.139,128.258,598.908,128.47,599.83z"/>
	<path fill="#E5D5D0" d="M235.541,580.123l-0.094-0.314l-0.323-0.049c0.562-1.164-0.53-1.729-0.916-2.561
		c-0.71-1.527-0.23-2.691,1.146-3.545c1.401-0.867,2.443-0.127,3.2,0.938c0.938,1.326,0.615,2.535-0.562,3.699
		C237.244,579.035,235.629,578.566,235.541,580.123z"/>
	<path fill="#E5D5D0" d="M310.723,667.338c-0.979,0.051-1.957,0.102-2.935,0.148c-0.002,0-0.096,0-0.096,0
		c-0.412-0.104-0.646-0.361-0.728-0.771l-0.067-0.084c-0.767-0.338-0.871-0.922-0.613-1.643c0.021-0.449,0.041-0.898,0.062-1.354
		c-0.287-0.529-0.127-0.852,0.473-0.939c0.893-0.416,1.779-0.834,2.67-1.25c0.562-0.061,1.146-0.188,1.277,0.623
		c0.408,0.465,0.815,0.93,1.227,1.395C311.94,664.877,311.731,666.238,310.723,667.338z"/>
	<path fill="#E5D5D0" d="M267.465,569.711c-0.489,0.523-0.981,1.049-1.475,1.57c-2.568,0.031-3.459-1.508-3.553-3.793
		c0.627-0.576,1.254-1.15,1.882-1.729c0.206-0.631,0.497-0.674,0.875-0.129l0.158,0.148l0.171-0.141
		C267.611,566.314,269.011,567.309,267.465,569.711z"/>
	<path fill="#E5D5D0" d="M220.451,545.012c-0.335,2.666-1.712,4.596-4.207,4.596c-2.275-0.002-3.841-1.939-3.916-4.182
		c-0.081-2.354,1.692-4.156,3.867-4.217C218.348,541.148,219.947,542.822,220.451,545.012z"/>
	<path fill="#E5D5D0" d="M278.227,538.207c0.34-1.861,1.343-3.301,3.227-3.217c1.759,0.082,3.174,1.268,3.062,3.262
		c-0.104,1.828-1.144,3.291-3.119,3.193C279.557,541.354,278.484,540.055,278.227,538.207z"/>
	<path fill="#E5D5D0" d="M261.432,669.301c-2.157,0.639-3.104,3.246-5.371,2.686c-1.868-0.463-3.559-1.846-3.15-4.221
		c0.334-1.947,1.717-3.48,3.656-3.186C258.861,664.936,259.929,667.145,261.432,669.301z"/>
	<path fill="#E5D5D0" d="M261.191,663.885c-0.84-0.525-2.12-0.17-1.803-1.744c0.252-1.25,0.71-2.219,2.006-2.24
		c1.122-0.02,1.771,0.938,1.781,1.971C263.19,663.18,262.309,663.787,261.191,663.885z"/>
	<path fill="#E5D5D0" d="M387.315,657.51c2.021,0.131,4.836,3.906,4.444,5.998c-0.438,2.346-2.82,1.602-4.067,1.715
		c-2.229,0.205-3.933-1.471-3.889-3.873C383.848,659.184,385.437,658,387.315,657.51z"/>
	<path fill="#E5D5D0" d="M318.664,681.422c-0.299,1.256-1.25,2.221-2.627,1.938c-2.301-0.477-2.729-2.609-3.09-4.5
		c-0.287-1.518,1.086-1.354,1.975-1.287C317.168,677.744,318.949,679.561,318.664,681.422z"/>
	<path fill="#E5D5D0" d="M138.458,640.666c0.272,0.037,0.546,0.08,0.819,0.115c2.177,0.271,2.945,1.562,2.199,3.521
		c-0.438,1.145-1.588,1.699-2.77,0.994c-2.209-1.324-1.41-2.98-0.312-4.604C138.397,640.701,138.458,640.666,138.458,640.666z"/>
	<path fill="#E5D5D0" d="M336.856,610.248c-0.23,2.16-1.326,3.619-3.396,3.561c-1.78-0.053-3.082-1.354-3.186-3.225
		c-0.109-2.037,0.984-3.656,3.063-3.68C335.324,606.883,336.518,608.332,336.856,610.248z"/>
	<path fill="#E5D5D0" d="M398.42,588.049c-1.461-0.088-2.262-0.814-2.414-2.035c-0.188-1.496,0.656-2.48,2.109-2.443
		c1.182,0.029,2.033,0.893,2.062,2.191C400.201,587.035,399.518,587.807,398.42,588.049z"/>
	<path fill="#E5D5D0" d="M451.368,440.586c-0.156,0.32-0.315,0.645-0.479,0.967c-0.155,0.232-0.352,0.438-0.579,0.602l-0.106,0.006
		c-1.752,0.244-3.146-0.211-3.616-2.092c-0.31-1.215,0.311-2.17,1.352-2.691c2.059-1.031,2.653,0.896,3.668,1.955
		c-0.172,0.172-0.157,0.33,0.035,0.475C451.569,440.072,451.479,440.332,451.368,440.586z"/>
	<path fill="#E5D5D0" d="M399.676,391.508c-0.134,0.449-0.269,0.898-0.396,1.348c-1.039,0.857-2.09,1.73-3.391,0.432
		c-0.634-0.633-0.88-1.395-0.521-2.271c0.66-1.611,1.978-1.41,3.296-1.186c0.187,0.127,0.366,0.256,0.552,0.383
		C400.281,390.318,399.934,390.93,399.676,391.508z"/>
	<path fill="#E5D5D0" d="M526.061,315.912c1.047,0.344,1.5,1.137,1.435,2.197c-0.05,0.811-0.532,1.422-1.389,1.305
		c-1.187-0.16-1.5-1.102-1.443-2.146C524.709,316.465,525.128,315.918,526.061,315.912z"/>
	<path fill="#E5D5D0" d="M443.88,494.359c0.718-1.367-0.494-4.695,3.062-3.16c1.185,0.51,1.798,1.721,1.253,3.074
		c-0.744,1.85-2.242,1.467-3.69,1.072C444.296,495.018,444.088,494.689,443.88,494.359z"/>
	<path fill="#E5D5D0" d="M440.229,559.453c-0.098,1.648-0.768,2.701-2.18,2.643c-1.332-0.057-2.207-1.104-2.215-2.438
		c-0.01-1.189,0.835-2.068,2.032-2.164C439.339,557.379,439.942,558.426,440.229,559.453z"/>
	<path fill="#E5D5D0" d="M594.739,582.621c-0.507,1.285-1.083,2.324-2.382,2.172c-1.426-0.166-2.037-1.211-1.905-2.615
		c0.104-1.131,0.812-1.844,1.93-1.77C593.786,580.502,594.322,581.617,594.739,582.621z"/>
	<path fill="#E5D5D0" d="M495.153,472.297c-0.117,1.828-0.812,3.182-2.898,2.48c-1.265-0.422-1.943-1.65-1.19-2.938
		c1.178-2.016,2.579-1.074,3.883-0.016C494.869,472.049,494.94,472.205,495.153,472.297z"/>
	<path fill="#E5D5D0" d="M534.944,541.611c-0.188,1.35-1.047,1.471-2.139,1.312c-1.01-0.146-2.094-0.346-2.095-1.557
		c-0.003-1.572,1.356-1.385,2.411-1.465C534.361,539.811,534.865,540.514,534.944,541.611z"/>
	<path fill="#E5D5D0" d="M506.071,569.582c-0.24,1.061-0.764,1.836-1.684,1.74c-1.004-0.105-1.734-0.871-1.68-1.971
		c0.049-0.936,0.711-1.566,1.646-1.543C505.509,567.84,505.871,568.75,506.071,569.582z"/>
	<path fill="#E5D5D0" d="M553.33,497.113c1.354,1.102,1.518,2.309,0.317,3.633c-1.219,0.045-2.153-0.447-2.312-1.689
		C551.155,497.678,552.168,497.254,553.33,497.113z"/>
	<path fill="#E5D5D0" d="M561.93,543.449c-0.047,0.924-0.438,1.643-1.459,1.711c-1.041,0.066-1.531-0.656-1.674-1.564
		c-0.157-1.02,0.426-1.662,1.396-1.719C561.182,541.816,561.69,542.514,561.93,543.449z"/>
	<path fill="#E5D5D0" d="M230.688,538.492c-0.081,1.125-0.679,1.936-1.748,1.943c-1.25,0.01-1.977-0.887-1.9-2.127
		c0.064-1.076,0.819-1.785,1.906-1.734C230.055,536.627,230.594,537.426,230.688,538.492z"/>
	<path fill="#E5D5D0" d="M275.362,432.725l0.023,0.27c-0.094,0.611-0.448,0.971-1.052,1.094c-0.387,0.154-0.772,0.312-1.158,0.467
		c-1.604-0.561-2.997-1.395-2.617-3.383c0.218-1.143,1.125-2.082,2.335-1.979C274.974,429.357,275.11,431.139,275.362,432.725z"/>
	<path fill="#E5D5D0" d="M409.521,333.598c-0.976-0.129-1.594-0.686-1.624-1.656c-0.034-1.035,0.638-1.57,1.626-1.559
		c0.854,0.012,1.346,0.604,1.415,1.402C411.023,332.764,410.529,333.406,409.521,333.598z"/>
	<path fill="#E5D5D0" d="M290.201,401.141c-0.253,1.08-0.756,1.73-1.76,1.613c-0.966-0.115-1.499-0.793-1.415-1.752
		c0.084-0.955,0.707-1.535,1.691-1.467C289.761,399.609,289.979,400.469,290.201,401.141z"/>
	<path fill="#E5D5D0" d="M472.745,399c-0.066,1.234-0.595,2.191-1.853,2.305c-1.713,0.148-2.254-1.186-2.498-2.52
		c-0.247-1.336,1.059-1.52,1.84-1.691C471.645,396.777,472.44,397.672,472.745,399z"/>
	<path fill="#E5D5D0" d="M366.196,521.025c-1.271-0.133-1.979-0.859-2.062-2.107c-0.07-1.119,0.532-1.914,1.618-2.076
		c1.324-0.199,2.044,0.664,2.229,1.857C368.179,519.994,367.441,520.732,366.196,521.025z"/>
	<path fill="#E5D5D0" d="M315.509,519.811c-0.723-1.203-1.479-2.52,0.391-3.287c1.079-0.447,1.979,0.359,2.18,1.381
		c0.416,2.113-1.11,2.02-2.52,1.951L315.509,519.811z"/>
	<path fill="#E5D5D0" d="M339.83,504.541c-0.168,0.912-0.543,1.562-1.396,1.59c-1.018,0.027-1.585-0.623-1.595-1.604
		c-0.006-0.811,0.438-1.414,1.32-1.438C339.196,503.064,339.647,503.734,339.83,504.541z"/>
	<path fill="#E5D5D0" d="M433.279,487.34l-0.082-0.273l-0.278-0.043c0.487-1.018-0.468-1.514-0.802-2.236
		c-0.617-1.332-0.201-2.35,1-3.094c1.228-0.756,2.138-0.111,2.793,0.82c0.816,1.156,0.539,2.213-0.486,3.229
		C434.768,486.391,433.357,485.982,433.279,487.34z"/>
	<path fill="#E5D5D0" d="M491.25,437.525c-0.854,0.043-1.706,0.088-2.562,0.131c-0.001,0-0.083,0-0.083,0
		c-0.359-0.086-0.562-0.316-0.635-0.676l-0.062-0.072c-0.667-0.295-0.761-0.807-0.534-1.434c0.018-0.393,0.033-0.785,0.053-1.178
		c-0.248-0.469-0.109-0.742,0.412-0.824c0.773-0.361,1.553-0.729,2.33-1.09c0.484-0.057,1-0.158,1.114,0.545
		c0.354,0.404,0.712,0.809,1.065,1.213C492.312,435.377,492.13,436.564,491.25,437.525z"/>
	<path fill="#E5D5D0" d="M461.144,478.254c-0.429,0.457-0.856,0.914-1.285,1.371c-2.241,0.025-3.021-1.316-3.103-3.312
		c0.547-0.51,1.095-1.012,1.645-1.516c0.18-0.551,0.437-0.588,0.764-0.105l0.141,0.133l0.144-0.117
		C461.27,475.289,462.49,476.156,461.144,478.254z"/>
	<path fill="#E5D5D0" d="M420.11,456.697c-0.293,2.326-1.494,4.01-3.672,4.008c-1.986,0-3.354-1.691-3.417-3.646
		c-0.07-2.053,1.479-3.629,3.376-3.682C418.274,453.324,419.672,454.785,420.11,456.697z"/>
	<path fill="#E5D5D0" d="M462.888,324.822c0.297-1.625,1.174-2.881,2.812-2.807c1.535,0.07,2.771,1.105,2.675,2.846
		c-0.093,1.596-0.996,2.871-2.724,2.787C464.05,327.57,463.112,326.436,462.888,324.822z"/>
	<path fill="#E5D5D0" d="M449.654,556.057c-0.273,1.193-0.854,2.354-2.289,2.188c-1.271-0.145-2.147-1.176-2.146-2.504
		c0.007-1.383,0.947-2.32,2.295-2.215C448.806,553.627,449.605,554.582,449.654,556.057z"/>
	<path fill="#E5D5D0" d="M455.669,560.445c-0.731-0.459-1.853-0.148-1.574-1.523c0.223-1.09,0.621-1.936,1.751-1.955
		c0.979-0.016,1.545,0.818,1.557,1.721C457.411,559.83,456.644,560.359,455.669,560.445z"/>
	<path fill="#E5D5D0" d="M472.033,487.904c1.767,0.113,4.224,3.408,3.882,5.234c-0.384,2.047-2.466,1.395-3.554,1.496
		c-1.942,0.18-3.432-1.283-3.394-3.379C469.008,489.365,470.395,488.332,472.033,487.904z"/>
	<path fill="#E5D5D0" d="M495.216,451.887c-0.265,1.096-1.095,1.938-2.294,1.689c-2.011-0.408-2.389-2.277-2.696-3.928
		c-0.25-1.318,0.948-1.188,1.725-1.123C493.905,448.676,495.464,450.26,495.216,451.887z"/>
	<path fill="#E5D5D0" d="M348.551,540.18c0.235,0.035,0.479,0.072,0.715,0.104c1.897,0.242,2.569,1.369,1.921,3.076
		c-0.382,0.994-1.389,1.482-2.415,0.867c-1.932-1.154-1.229-2.605-0.273-4.018C348.495,540.211,348.551,540.18,348.551,540.18z"/>
	<path fill="#E5D5D0" d="M514.059,387.697c-0.2,1.887-1.155,3.158-2.96,3.107c-1.555-0.045-2.688-1.188-2.778-2.814
		c-0.1-1.775,0.861-3.189,2.679-3.211C512.721,384.762,513.762,386.025,514.059,387.697z"/>
	<path fill="#E5D5D0" d="M567.786,368.322c-1.271-0.076-1.972-0.711-2.104-1.775c-0.164-1.307,0.576-2.164,1.846-2.133
		c1.026,0.025,1.771,0.777,1.797,1.912C569.346,367.438,568.746,368.111,567.786,368.322z"/>
	<path fill="#E5D5D0" d="M243.871,284.958c-0.159,0.322-0.316,0.646-0.478,0.968c-0.158,0.234-0.352,0.438-0.581,0.601l-0.106,0.007
		c-1.752,0.244-3.146-0.212-3.619-2.093c-0.307-1.214,0.311-2.17,1.351-2.691c2.06-1.03,2.654,0.897,3.668,1.955
		c-0.169,0.172-0.156,0.33,0.037,0.476C244.071,284.444,243.981,284.705,243.871,284.958z"/>
	<path fill="#E5D5D0" d="M192.178,235.879c-0.135,0.45-0.268,0.899-0.399,1.35c-1.038,0.856-2.09,1.729-3.389,0.431
		c-0.635-0.633-0.88-1.395-0.521-2.271c0.659-1.61,1.977-1.409,3.296-1.186c0.186,0.127,0.367,0.255,0.55,0.382
		C192.785,234.691,192.435,235.303,192.178,235.879z"/>
	<path fill="#E5D5D0" d="M318.563,160.285c1.046,0.343,1.499,1.136,1.434,2.198c-0.05,0.81-0.533,1.422-1.389,1.305
		c-1.188-0.162-1.5-1.103-1.443-2.146C317.21,160.836,317.629,160.291,318.563,160.285z"/>
	<path fill="#E5D5D0" d="M387.241,426.994c-0.507,1.285-1.083,2.324-2.382,2.172c-1.424-0.166-2.037-1.211-1.905-2.615
		c0.106-1.131,0.812-1.844,1.93-1.77C386.288,424.875,386.824,425.99,387.241,426.994z"/>
	<path fill="#E5D5D0" d="M287.655,316.67c-0.117,1.828-0.811,3.182-2.901,2.48c-1.262-0.422-1.941-1.65-1.19-2.934
		c1.179-2.016,2.58-1.074,3.883-0.016C287.372,316.422,287.442,316.576,287.655,316.67z"/>
	<path fill="#E5D5D0" d="M327.446,385.984c-0.188,1.35-1.047,1.469-2.139,1.312c-1.011-0.146-2.095-0.346-2.096-1.555
		c-0.003-1.574,1.357-1.387,2.412-1.465C326.863,384.186,327.367,384.887,327.446,385.984z"/>
	<path fill="#E5D5D0" d="M298.573,413.955c-0.24,1.061-0.763,1.834-1.683,1.738c-1.004-0.104-1.735-0.869-1.682-1.969
		c0.051-0.938,0.711-1.566,1.646-1.543C298.01,412.213,298.374,413.121,298.573,413.955z"/>
	<path fill="#E5D5D0" d="M345.834,341.484c1.354,1.104,1.516,2.311,0.315,3.635c-1.219,0.043-2.153-0.447-2.312-1.689
		C343.657,342.051,344.669,341.627,345.834,341.484z"/>
	<path fill="#E5D5D0" d="M354.432,387.82c-0.047,0.924-0.438,1.645-1.459,1.711c-1.041,0.068-1.531-0.654-1.675-1.562
		c-0.156-1.025,0.427-1.662,1.397-1.719C353.684,386.189,354.192,386.887,354.432,387.82z"/>
	<path fill="#E5D5D0" d="M23.19,382.863c-0.081,1.125-0.679,1.938-1.748,1.945c-1.25,0.008-1.975-0.887-1.9-2.127
		c0.064-1.076,0.819-1.787,1.907-1.734C22.557,381,23.096,381.799,23.19,382.863z"/>
	<path fill="#E5D5D0" d="M67.864,277.098l0.022,0.269c-0.094,0.611-0.448,0.97-1.052,1.093c-0.387,0.155-0.772,0.312-1.158,0.468
		c-1.604-0.566-2.997-1.396-2.617-3.384c0.218-1.143,1.125-2.082,2.335-1.982C67.476,273.729,67.612,275.511,67.864,277.098z"/>
	<path fill="#E5D5D0" d="M117.551,166c-0.156,1.039-0.729,1.639-1.687,1.63c-1.177-0.011-1.742-0.818-1.676-1.902
		c0.06-0.919,0.688-1.614,1.649-1.569C116.949,164.208,117.532,164.939,117.551,166z"/>
	<path fill="#E5D5D0" d="M202.022,177.97c-0.975-0.13-1.592-0.686-1.624-1.656c-0.033-1.034,0.639-1.569,1.626-1.559
		c0.852,0.012,1.346,0.604,1.415,1.403C203.525,177.137,203.032,177.78,202.022,177.97z"/>
	<path fill="#E5D5D0" d="M148.961,168.639c-1.544,0.362-2.659,0.045-2.554-1.819c0.046-0.793,0.729-1.377,1.465-1.271
		c1.873,0.27,1.785,1.554,1.279,2.944C149.152,168.492,148.961,168.639,148.961,168.639z"/>
	<path fill="#E5D5D0" d="M82.703,245.514c-0.253,1.08-0.755,1.729-1.76,1.611c-0.966-0.113-1.499-0.793-1.415-1.752
		c0.085-0.955,0.707-1.534,1.691-1.465C82.263,243.983,82.481,244.84,82.703,245.514z"/>
	<path fill="#E5D5D0" d="M265.248,243.372c-0.067,1.236-0.596,2.193-1.854,2.306c-1.71,0.149-2.252-1.186-2.498-2.52
		c-0.247-1.335,1.06-1.519,1.84-1.692C264.146,241.151,264.942,242.044,265.248,243.372z"/>
	<path fill="#E5D5D0" d="M158.699,365.396c-1.269-0.131-1.979-0.857-2.062-2.105c-0.073-1.119,0.531-1.914,1.616-2.076
		c1.327-0.199,2.044,0.664,2.229,1.857C160.681,364.365,159.943,365.104,158.699,365.396z"/>
	<path fill="#E5D5D0" d="M108.01,364.184c-0.722-1.205-1.479-2.52,0.388-3.289c1.081-0.445,1.979,0.361,2.182,1.381
		c0.416,2.115-1.114,2.021-2.519,1.953L108.01,364.184z"/>
	<path fill="#E5D5D0" d="M132.333,348.912c-0.168,0.914-0.542,1.564-1.396,1.592c-1.019,0.027-1.585-0.623-1.593-1.604
		c-0.009-0.803,0.438-1.414,1.32-1.438C131.698,347.436,132.149,348.107,132.333,348.912z"/>
	<path fill="#E5D5D0" d="M283.75,281.897c-0.854,0.044-1.706,0.088-2.56,0.132c-0.001-0.001-0.083,0-0.083,0
		c-0.358-0.086-0.563-0.317-0.633-0.676l-0.062-0.073c-0.667-0.295-0.762-0.805-0.536-1.433c0.019-0.394,0.035-0.785,0.054-1.179
		c-0.248-0.467-0.111-0.741,0.41-0.822c0.776-0.363,1.555-0.729,2.33-1.092c0.487-0.054,1-0.157,1.117,0.545
		c0.354,0.405,0.712,0.81,1.066,1.215C284.814,279.749,284.63,280.937,283.75,281.897z"/>
	<path fill="#E5D5D0" d="M212.612,301.068c-0.293,2.326-1.494,4.01-3.671,4.01c-1.986-0.002-3.354-1.691-3.417-3.646
		c-0.069-2.053,1.479-3.628,3.375-3.683C210.776,297.696,212.172,299.158,212.612,301.068z"/>
	<path fill="#E5D5D0" d="M255.39,169.196c0.297-1.625,1.172-2.882,2.813-2.808c1.536,0.069,2.771,1.105,2.673,2.847
		c-0.09,1.595-0.997,2.871-2.722,2.786C256.549,171.943,255.614,170.809,255.39,169.196z"/>
	<path fill="#E5D5D0" d="M245.411,411.611c-1.884,0.559-2.709,2.834-4.688,2.344c-1.63-0.402-3.104-1.609-2.75-3.684
		c0.292-1.699,1.499-3.037,3.189-2.777C243.167,407.803,244.1,409.732,245.411,411.611z"/>
	<path fill="#E5D5D0" d="M248.169,404.816c-0.731-0.459-1.851-0.146-1.572-1.521c0.22-1.092,0.618-1.938,1.75-1.955
		c0.979-0.018,1.545,0.818,1.555,1.721C249.914,404.201,249.145,404.732,248.169,404.816z"/>
	<path fill="#E5D5D0" d="M264.536,332.275c1.766,0.115,4.221,3.41,3.88,5.236c-0.382,2.047-2.464,1.396-3.552,1.496
		c-1.945,0.18-3.431-1.283-3.393-3.379C261.509,333.736,262.896,332.703,264.536,332.275z"/>
	<path fill="#E5D5D0" d="M141.053,384.553c0.236,0.035,0.477,0.072,0.715,0.104c1.897,0.24,2.568,1.369,1.919,3.076
		c-0.38,0.994-1.386,1.482-2.416,0.867c-1.931-1.156-1.229-2.605-0.272-4.018C140.998,384.584,141.053,384.553,141.053,384.553z"/>
	<path fill="#E5D5D0" d="M306.561,232.07c-0.202,1.887-1.157,3.159-2.962,3.104c-1.556-0.045-2.688-1.187-2.778-2.812
		c-0.1-1.777,0.861-3.191,2.68-3.212C305.223,229.134,306.264,230.399,306.561,232.07z"/>
	<path fill="#E5D5D0" d="M360.288,212.696c-1.271-0.076-1.972-0.712-2.104-1.776c-0.162-1.306,0.576-2.165,1.846-2.133
		c1.026,0.026,1.771,0.778,1.797,1.912C361.848,211.811,361.25,212.485,360.288,212.696z"/>
	<path fill="#E5D5D0" d="M439.268,150.511c-0.157,0.321-0.316,0.646-0.477,0.967c-0.158,0.234-0.354,0.437-0.582,0.601l-0.104,0.007
		c-1.755,0.244-3.146-0.212-3.618-2.093c-0.309-1.214,0.312-2.17,1.352-2.69c2.062-1.031,2.652,0.896,3.668,1.954
		c-0.169,0.173-0.157,0.33,0.034,0.476C439.468,149.997,439.378,150.257,439.268,150.511z"/>
	<path fill="#E5D5D0" d="M387.572,101.433c-0.133,0.449-0.268,0.898-0.396,1.349c-1.039,0.857-2.091,1.729-3.392,0.431
		c-0.633-0.633-0.88-1.395-0.521-2.271c0.659-1.61,1.977-1.409,3.299-1.186c0.184,0.127,0.365,0.256,0.551,0.383
		C388.182,100.244,387.828,100.855,387.572,101.433z"/>
	<path fill="#E5D5D0" d="M513.961,25.837c1.046,0.344,1.499,1.137,1.435,2.198c-0.051,0.811-0.534,1.422-1.39,1.305
		c-1.188-0.161-1.5-1.103-1.442-2.146C512.604,26.39,513.023,25.844,513.961,25.837z"/>
	<path fill="#E5D5D0" d="M428.129,269.377c-0.099,1.649-0.77,2.702-2.182,2.644c-1.33-0.057-2.206-1.11-2.214-2.438
		c-0.007-1.188,0.835-2.066,2.036-2.163C427.233,267.305,427.843,268.352,428.129,269.377z"/>
	<path fill="#E5D5D0" d="M582.639,292.545c-0.507,1.285-1.083,2.324-2.382,2.173c-1.424-0.165-2.037-1.212-1.905-2.614
		c0.106-1.131,0.812-1.846,1.929-1.771C581.687,290.427,582.222,291.542,582.639,292.545z"/>
	<path fill="#E5D5D0" d="M483.052,182.222c-0.117,1.829-0.812,3.182-2.899,2.481c-1.264-0.422-1.94-1.651-1.189-2.935
		c1.178-2.015,2.578-1.074,3.883-0.015C482.769,181.975,482.84,182.129,483.052,182.222z"/>
	<path fill="#E5D5D0" d="M522.843,251.537c-0.188,1.35-1.047,1.47-2.14,1.312c-1.01-0.146-2.094-0.345-2.095-1.555
		c-0.003-1.573,1.357-1.386,2.412-1.465C522.26,249.737,522.765,250.439,522.843,251.537z"/>
	<path fill="#E5D5D0" d="M493.97,279.507c-0.238,1.062-0.762,1.836-1.685,1.739c-1.004-0.104-1.733-0.87-1.68-1.969
		c0.049-0.938,0.711-1.567,1.646-1.543C493.404,277.766,493.77,278.674,493.97,279.507z"/>
	<path fill="#E5D5D0" d="M541.229,207.038c1.354,1.103,1.515,2.31,0.315,3.634c-1.22,0.044-2.153-0.447-2.312-1.688
		C539.055,207.603,540.063,207.179,541.229,207.038z"/>
	<path fill="#E5D5D0" d="M549.825,253.374c-0.047,0.924-0.438,1.645-1.459,1.711c-1.041,0.068-1.53-0.654-1.674-1.563
		c-0.157-1.024,0.426-1.661,1.397-1.719C549.077,251.742,549.59,252.438,549.825,253.374z"/>
	<path fill="#E5D5D0" d="M218.586,248.417c-0.081,1.125-0.679,1.938-1.748,1.944c-1.25,0.009-1.976-0.887-1.899-2.126
		c0.063-1.077,0.818-1.787,1.907-1.735C217.952,246.552,218.49,247.351,218.586,248.417z"/>
	<path fill="#E5D5D0" d="M263.26,142.65l0.021,0.269c-0.093,0.611-0.448,0.971-1.051,1.094c-0.387,0.154-0.773,0.312-1.159,0.467
		c-1.604-0.566-2.997-1.396-2.617-3.383c0.218-1.144,1.125-2.082,2.335-1.983C262.871,139.282,263.007,141.063,263.26,142.65z"/>
	<path fill="#E5D5D0" d="M312.946,31.554c-0.156,1.039-0.729,1.638-1.688,1.63c-1.177-0.012-1.742-0.819-1.676-1.903
		c0.062-0.919,0.688-1.614,1.649-1.569C312.346,29.762,312.928,30.492,312.946,31.554z"/>
	<path fill="#E5D5D0" d="M397.419,43.522c-0.976-0.129-1.594-0.686-1.624-1.656c-0.032-1.034,0.639-1.569,1.627-1.558
		c0.854,0.011,1.345,0.604,1.414,1.402C398.922,42.689,398.428,43.333,397.419,43.522z"/>
	<path fill="#E5D5D0" d="M344.356,34.191c-1.543,0.363-2.66,0.045-2.556-1.819c0.046-0.793,0.729-1.377,1.466-1.271
		c1.872,0.269,1.785,1.553,1.278,2.943L344.356,34.191z"/>
	<path fill="#E5D5D0" d="M278.1,111.066c-0.253,1.08-0.755,1.729-1.761,1.612c-0.966-0.114-1.497-0.793-1.413-1.752
		c0.084-0.955,0.705-1.534,1.689-1.466C277.658,109.536,277.876,110.394,278.1,111.066z"/>
	<path fill="#E5D5D0" d="M460.645,108.925c-0.069,1.235-0.597,2.192-1.854,2.305c-1.712,0.149-2.254-1.186-2.497-2.52
		c-0.247-1.335,1.062-1.519,1.84-1.691C459.543,106.704,460.34,107.598,460.645,108.925z"/>
	<path fill="#E5D5D0" d="M354.096,230.95c-1.271-0.132-1.979-0.857-2.062-2.105c-0.072-1.12,0.533-1.915,1.617-2.077
		c1.325-0.198,2.045,0.664,2.229,1.857C356.074,229.918,355.34,230.657,354.096,230.95z"/>
	<path fill="#E5D5D0" d="M303.404,229.736c-0.723-1.205-1.479-2.521,0.389-3.289c1.081-0.446,1.979,0.36,2.183,1.381
		c0.415,2.114-1.112,2.021-2.521,1.952L303.404,229.736z"/>
	<path fill="#E5D5D0" d="M327.729,214.465c-0.168,0.914-0.542,1.564-1.396,1.591c-1.019,0.028-1.587-0.623-1.595-1.603
		c-0.008-0.804,0.438-1.414,1.319-1.438C327.095,212.989,327.545,213.66,327.729,214.465z"/>
	<path fill="#E5D5D0" d="M479.145,147.45c-0.854,0.044-1.705,0.088-2.56,0.132c-0.001-0.001-0.083,0-0.083,0
		c-0.357-0.086-0.562-0.316-0.636-0.676l-0.062-0.073c-0.667-0.295-0.761-0.805-0.535-1.433c0.018-0.394,0.034-0.785,0.053-1.178
		c-0.248-0.468-0.108-0.742,0.412-0.823c0.774-0.363,1.553-0.729,2.33-1.091c0.485-0.055,1-0.158,1.115,0.545
		c0.354,0.405,0.713,0.809,1.066,1.214C480.212,145.302,480.025,146.49,479.145,147.45z"/>
	<path fill="#E5D5D0" d="M408.009,166.622c-0.294,2.326-1.495,4.01-3.672,4.009c-1.987-0.001-3.354-1.691-3.418-3.646
		c-0.069-2.053,1.479-3.628,3.375-3.682C406.172,163.249,407.567,164.71,408.009,166.622z"/>
	<path fill="#E5D5D0" d="M450.783,34.749c0.297-1.625,1.172-2.882,2.812-2.808c1.536,0.07,2.771,1.105,2.676,2.847
		c-0.093,1.596-0.997,2.871-2.725,2.786C451.944,37.496,451.011,36.361,450.783,34.749z"/>
	<path fill="#E5D5D0" d="M440.807,277.165c-1.883,0.558-2.709,2.833-4.688,2.345c-1.631-0.403-3.104-1.61-2.75-3.685
		c0.291-1.7,1.498-3.038,3.189-2.777C438.563,273.355,439.493,275.285,440.807,277.165z"/>
	<path fill="#E5D5D0" d="M437.555,265.982c-0.275,1.191-0.856,2.354-2.29,2.188c-1.271-0.146-2.149-1.176-2.146-2.504
		c0.01-1.382,0.947-2.32,2.296-2.215C436.701,263.553,437.505,264.507,437.555,265.982z"/>
	<path fill="#E5D5D0" d="M443.564,270.37c-0.733-0.459-1.853-0.147-1.573-1.521c0.222-1.092,0.619-1.938,1.75-1.955
		c0.979-0.018,1.545,0.817,1.558,1.72C445.311,269.754,444.538,270.285,443.564,270.37z"/>
	<path fill="#E5D5D0" d="M336.446,250.105c0.236,0.034,0.479,0.072,0.716,0.103c1.898,0.241,2.57,1.369,1.918,3.076
		c-0.38,0.994-1.386,1.483-2.413,0.867c-1.931-1.155-1.229-2.604-0.271-4.017C336.395,250.136,336.446,250.105,336.446,250.105z"/>
	<path fill="#E5D5D0" d="M501.954,97.623c-0.199,1.888-1.154,3.159-2.96,3.107c-1.555-0.045-2.688-1.188-2.777-2.813
		c-0.101-1.776,0.86-3.19,2.679-3.212C500.616,94.686,501.657,95.952,501.954,97.623z"/>
	<path fill="#E5D5D0" d="M555.687,78.249c-1.273-0.076-1.973-0.712-2.105-1.775c-0.163-1.307,0.576-2.165,1.847-2.134
		c1.025,0.026,1.771,0.778,1.797,1.912C557.241,77.364,556.645,78.038,555.687,78.249z"/>
	<path fill="#E5D5D0" d="M72.558,70.772l0.021,0.269c-0.092,0.611-0.448,0.971-1.05,1.094c-0.388,0.154-0.774,0.312-1.16,0.467
		c-1.604-0.566-2.997-1.396-2.617-3.383c0.22-1.144,1.125-2.082,2.335-1.983C72.168,67.404,72.306,69.185,72.558,70.772z"/>
	<path fill="#E5D5D0" d="M87.396,39.188c-0.253,1.08-0.755,1.729-1.759,1.612c-0.968-0.114-1.499-0.794-1.415-1.753
		c0.084-0.954,0.707-1.533,1.689-1.465C86.956,37.658,87.174,38.515,87.396,39.188z"/>
	<path fill="#E5D5D0" d="M95.77,52.001c-0.24,1.062-0.764,1.835-1.684,1.739c-1.004-0.104-1.734-0.87-1.68-1.969
		c0.049-0.938,0.711-1.567,1.646-1.543C95.204,50.26,95.569,51.168,95.77,52.001z"/>
	<path fill="#E5D5D0" d="M42.606,49.66c-1.883,0.558-2.709,2.833-4.688,2.344c-1.63-0.402-3.104-1.609-2.75-3.684
		c0.292-1.7,1.499-3.038,3.19-2.777C40.363,45.85,41.294,47.78,42.606,49.66z"/>
	<path fill="#E5D5D0" d="M45.364,42.865c-0.733-0.459-1.851-0.147-1.574-1.521c0.222-1.092,0.62-1.938,1.75-1.955
		c0.979-0.018,1.545,0.817,1.557,1.72C47.109,42.249,46.339,42.78,45.364,42.865z"/>
</g>
<g id="Nebula">
	<path opacity="0.5" fill="#674145" enable-background="new    " d="M0.748,232.165c85.778,43.542,144.658,200.712,217.218,131.126
		c72.562-69.585,137.104-69.991,174.833-12.787c37.729,57.203,83.091,312.381,200.791,251.148V721.23
		c0,0-40.097,63.99-112.639,28.514c-48.914-23.922-19.83-134.738-118.128-139.389s22.178-105.887-72.302-56.838
		s-191.09,47.479-140.061,2.371c51.031-45.109-1.332-63.318-45.842-72.67c-44.511-9.352-18.937-61.037-61.017-102.275
		C1.525,339.705,16.459,492.555,8.993,506.131C3.611,515.916,1.705,369.27,1.06,286.609C0.81,254.584,0.748,232.165,0.748,232.165z"
		/>
	<path opacity="0.5" fill="#674145" enable-background="new    " d="M80.521,317.672c-44.403,3.426-49.993-12.594-49.326-25.298
		c1.268-24.151,11.5-45.233,3.333-32c-37.055,60.044-32.223-49.632-32.223-49.632v114.092c0,0,2.432,56.172,18.23,18.471
		c25.533-60.925,44.824,138.906,94.647,124.92c46.217-12.973,91.803,16.664,58.676,81.383
		c-33.127,64.717,88.257,1.686,77.926-23.648c-10.331-25.332,2.867-14.684,32.463-65.252c29.596-50.566,78.404,28.371,108.55-9.648
		c30.146-38.016-4.479,33.664-47.979-24.078c-57.84-76.777-181.692-18.178-217.062,2.201c-35.365,20.383-79.031-64.051-6.462-26.41
		c3.855,2,15.265-30.393-3.854-37.369C60.072,344.467,80.521,317.672,80.521,317.672z"/>
</g>
<g id="Starburst">
	<polygon fill="#674145" points="120.882,136.786 130.773,136.786 125.828,70.23 	"/>
	<polygon fill="#674145" points="120.882,186.478 130.773,186.478 125.828,253.033 	"/>
	<polygon fill="#674145" points="99.907,166.25 99.907,156.36 33.353,161.307 	"/>
	<polygon fill="#674145" points="151.748,166.25 151.748,156.36 218.304,161.307 	"/>
	<circle fill="#674145" cx="125.765" cy="160.189" r="28.814"/>
	<circle fill="#746282" cx="125.395" cy="160.561" r="22.623"/>
	<circle fill="#948FAB" cx="125.394" cy="160.56" r="18.042"/>
	<path fill="#9BB0D0" d="M139.896,160.936c0,7.567-6.136,13.707-13.705,13.707s-13.707-6.14-13.707-13.707
		s6.137-13.705,13.707-13.705C133.76,147.23,139.896,153.368,139.896,160.936z"/>
	<ellipse fill="#E5D5D0" cx="125.331" cy="160.805" rx="10.521" ry="10.722"/>
	<polygon fill="#E5D5D0" points="122.108,153.357 128.556,153.357 125.331,109.979 	"/>
	<polygon fill="#E5D5D0" points="122.108,170.337 128.556,170.337 125.331,213.715 	"/>
	<polygon fill="#E5D5D0" points="116.841,164.158 116.841,157.711 73.463,160.936 	"/>
	<polygon fill="#E5D5D0" points="133.822,164.158 133.822,157.711 177.2,160.936 	"/>
</g>
<g id="Planet">
	<ellipse fill="#674145" cx="484.594" cy="315.016" rx="60.688" ry="61.298"/>
	<ellipse fill="#D1BCD8" cx="489.994" cy="309.598" rx="50.627" ry="51.136"/>
	<path fill="#BB8AAF" d="M491.969,361.131c-28.194,0-51.058-25.082-51.058-56.027c0-7.909,1.503-15.431,4.195-22.252
		c-4.822,8.554-7.611,18.631-7.611,29.428c0,30.943,22.859,56.027,51.058,56.027c20.99,0,39.015-13.904,46.856-33.773
		C526.415,350.492,510.324,361.131,491.969,361.131z"/>
	<path opacity="0.6" fill="#D2C6A4" enable-background="new    " d="M473.399,252.486l-17.168,6.875c0,0-22.3-15.559-34.93-6.875
		c-12.63,8.683-9.866,38.282,29.995,73.014c39.859,34.732,90.038,72.236,110.109,49.729c13.021-14.602-17.779-43.625-17.39-45.598
		c0.396-1.973,3.575-17.549,3.575-17.549s52.098,50.121,38.283,81.695c-13.812,31.574-105.771-32.363-105.771-32.363
		s-85.646-62.751-89.195-109.717C387.362,204.731,467.876,244.987,473.399,252.486z"/>
	<path opacity="0.6" fill="#F3F2C5" enable-background="new    " d="M569.787,399.277c-29.188,0-87.249-40.135-87.832-40.539
		c-0.775-0.57-84.406-62.358-87.807-107.288c-0.48-6.374,0.709-11.154,3.541-14.208c2.89-3.116,7.692-4.696,14.283-4.696
		c18.219,0,46.604,14.478,57.082,21.047l-5.59,2.87c-3.418-2.191-24.378-10.218-33.413-13.733
		c-6.853-2.666-22.688,0.046-26.006,2.328c-4.797,3.298-2.598,2.359-2.994,9.338c-0.479,8.397,12.562,42.61,48.087,73.563
		c44.908,39.127,86.324,60.873,106.58,64.27c8.396,1.408,13.815,0.75,18.5-4.5c11.948-13.395-14.033-44.762-20.689-53.744
		c-0.847-1.141-7.953-8.27-8.414-8.973c0.105-2.117,1.306-3.439,1.165-7.615c12.887,13.986,46.649,52.096,36.602,75.076
		C580.878,397.053,576.596,399.277,569.787,399.277z"/>
	<path fill="#BB8AAF" d="M486.589,284.076c5.799,5.842,7.21,11.021,1.256,15.534c-5.954,4.514-8.979,1.734-10.506,0.617
		c-1.521-1.119-14.056-10.19-3.521-16.751C479.392,280.004,484.895,282.371,486.589,284.076z"/>
	<path fill="#674145" d="M473.567,284.414c5.75-4.813,10.439-2.228,12.068-0.05c3.805,5.082,5.879,8.995,4.664,13.479
		c2.646-5.141,0.989-10.65-3.464-16.604c-1.628-2.176-7.062-5.062-12.812-0.247c-2.369,1.981-3.644,4.078-4.168,6.157
		C470.57,285.831,472.061,285.677,473.567,284.414z"/>
	<path fill="#F6DBE9" d="M469.846,285.48c0.405-0.989,2.481-2.523,1.646,0.091c-0.836,2.617-1.477,6.636,0.68,9.359
		c2.148,2.722,7.781,8.896,11.781,7.863c4.002-1.033,2.938-1.275,3.11-0.404c0.075,0.381,1.921-0.904,0.354,0.453
		c-1.568,1.357-4.39,3.65-7.021,2.838c-2.632-0.814-8.95-6.875-10.451-9.978C468.446,292.604,468.289,289.277,469.846,285.48z"/>
	<path fill="#BB8AAF" d="M505.561,301.631c3.045,3.066,3.783,5.787,0.657,8.154c-3.126,2.371-4.716,0.91-5.519,0.324
		c-0.801-0.586-7.379-5.35-1.851-8.795C501.779,299.492,504.673,300.734,505.561,301.631z"/>
	<path fill="#674145" d="M498.725,301.809c3.021-2.527,5.479-1.17,6.337-0.025c1.998,2.668,3.089,4.723,2.449,7.076
		c1.392-2.699,0.521-5.592-1.817-8.717c-0.854-1.143-3.706-2.659-6.727-0.129c-1.244,1.039-1.912,2.141-2.188,3.23
		C497.149,302.553,497.934,302.473,498.725,301.809z"/>
	<path fill="#F6DBE9" d="M496.77,302.367c0.213-0.52,1.305-1.324,0.863,0.049c-0.438,1.375-0.771,3.482,0.354,4.912
		c1.13,1.432,4.088,4.674,6.188,4.131c2.104-0.543,1.542-0.672,1.633-0.215c0.041,0.201,1.012-0.475,0.188,0.238
		c-0.82,0.715-2.303,1.918-3.685,1.49c-1.383-0.428-4.699-3.609-5.487-5.238C496.034,306.107,495.951,304.361,496.77,302.367z"/>
	<path fill="#BB8AAF" d="M483.746,325.246c3.071,3.139,3.814,5.926,0.65,8.359c-3.163,2.438-4.768,0.943-5.573,0.344
		c-0.81-0.602-7.442-5.471-1.853-9.012C479.937,323.062,482.853,324.33,483.746,325.246z"/>
</g>
</svg>
