<?xml version="1.0" encoding="utf-8"?>
<!-- Generator: Adobe Illustrator 16.0.4, SVG Export Plug-In . SVG Version: 6.00 Build 0)  -->
<!DOCTYPE svg PUBLIC "-//W3C//DTD SVG 1.1//EN" "http://www.w3.org/Graphics/SVG/1.1/DTD/svg11.dtd">
<svg version="1.1" id="Layer_1" xmlns="http://www.w3.org/2000/svg" xmlns:xlink="http://www.w3.org/1999/xlink" x="0px" y="0px"
	 width="841.89px" height="595.28px" viewBox="0 0 841.89 595.28" enable-background="new 0 0 841.89 595.28" xml:space="preserve">
<g id="Rocket_1_">
	<g id="Fuego">
		<g>
			<path fill="#CA333E" d="M1.373,94.372c0.326-4.533,1.312-8.974,1.338-13.562c0.016-3.152-0.07-6.359,0.75-9.447
				c-0.465-1.106-0.654-2.205,0.021-3.273c0.564,1.021,0.744,2.087,0.461,3.207c0.979,1.214,0.678,2.687,0.912,4.052
				c0.061,0.352,0.141,1.004,0.199,1.005c0.578,0.003,0.881-0.39,0.977-0.934c0.664-3.753,1.363-7.502,1.973-11.267
				c1.732-10.695,2.832-21.469,2.188-32.372c-0.229-3.861-0.125-7.847-2.393-11.41c-2.113-3.32-6.105-4.827-9.458-3.277
				c-3.561,1.646-5.854,4.348-6.385,8.339c-0.234,1.763-0.354,3.551-0.403,5.334c-0.333,11.938,1.406,23.725,3.6,35.476
				c0.134,0.713,0.146,1.52,1.057,1.771c0.174-0.163,0.663,0,0.521-3.705c-0.336-0.539-0.495-2.638,0.043-2.641
				c0.904-0.007,0.438,2.404,0.438,2.406c0.074,0.218,1.266,14.733,1.79,19.796c0.367,3.528,0.901,7.044,1.395,10.562
				c0.039,0.284-0.106,0.854,0.467,0.795C1.289,95.184,1.346,94.75,1.373,94.372z"/>
			<path fill="#CA333E" d="M-3.728,68.033c-0.022-0.006-0.04-0.015-0.062-0.021c-0.005,0.005-0.008,0.007-0.015,0.012L-3.728,68.033
				z"/>
		</g>
		<path fill="#F17327" d="M1.266,86.648c0.289-3.982,1.16-7.885,1.188-11.917c0.016-2.77-0.059-5.587,0.67-8.302
			c-0.41-0.973-0.574-1.938,0.021-2.877c0.494,0.896,3.438-0.156,3.977-3.463c1.531-9.4,2.508-18.868,1.951-28.449
			c-0.195-3.396-0.182-6.847-2.09-10.025c-2.617-4.355-5.258-5.33-8.203-3.965c-3.128,1.451-5.253,4.921-5.723,8.429
			c-0.208,1.549-0.312,3.121-0.359,4.688c-0.306,10.49,3.102,27.881,3.572,27.876c0.796-0.004,1.364,1.385,1.365,1.387
			c0.062,0.189,1.098,12.944,1.554,17.395c0.319,3.101,0.787,6.188,1.214,9.281c0.035,0.249-0.095,0.751,0.41,0.696
			C1.189,87.364,1.238,86.982,1.266,86.648z"/>
		<path fill="#F9C224" d="M0.456,69.237c-0.613-1.759-0.778-3.571-0.909-5.027c-0.061-0.644-0.113-1.247-0.196-1.753
			c-0.218-1.315-0.218-1.476-0.242-2.651c-0.021-1.038-0.043-2.787-0.879-3.332c-1.061-0.692-1.378-4.492-1.546-6.252
			c-0.022-0.258-0.049-0.507-0.073-0.725c-0.855-7.532-0.77-14.956-0.567-21.226c0.084-2.645,0.542-4.971,1.362-6.912
			c1.053-2.479,2.424-3.791,3.968-3.791c0.355,0,0.729,0.068,1.104,0.207c1.277,0.473,2.961,2.026,3.701,6.764
			c0.738,4.715,0.777,9.438,0.816,14.007l0.01,1.312c0.07,7.348-0.889,14.338-1.73,20.508c-0.146,0.982-0.611,2.056-1.469,2.056
			c-0.09,0-0.197-0.011-0.312-0.046c-0.014,0.351-0.85,0.835-0.854,1.282c-0.021,1.573-0.631,3.532-1.178,5.459l0.297,3.85
			L0.456,69.237z"/>
		<path fill="#EFF4F6" d="M1.689,39.988c-0.867,1.301-0.121,2.971-0.908,4.414c-0.687-1.023-0.609-2.153-0.934-3.17
			c-0.528-1.664,0.493-3.969-2.12-4.854c-0.349-0.119-0.451-1.142-0.587-1.759c-0.771-3.531-0.757-7.089-0.539-10.646
			c0.062-1.031,0.393-1.979,1.051-2.79c0.957-1.176,2.188-1.658,3.706-1.366c1.418,0.271,2.225,1.218,2.619,2.536
			c0.748,2.487,0.719,5.048,0.768,7.583c0.064,3.531-0.801,6.914-1.688,10.278c-0.008,0.021-0.215,0.025-0.301-0.02
			c-0.109-0.054-0.189-0.167-0.281-0.254c-0.021-0.441,0.043-0.995-0.662-0.825C1.703,39.145,1.729,39.684,1.689,39.988z"/>
	</g>
	<g id="Coete">
		<path fill="#989B9B" d="M-15.376-72.15l0.653,66.686l13.584-4.562l-0.021-66.28c0,0-4.67-0.151-7.615,0.587
			C-11.699-74.987-15.106-74.182-15.376-72.15z"/>
		<path fill="#25241E" d="M15.891-6.828L-1.314-8.965v-67.236c0,0,5.513-0.666,10.062,0.774c4.547,1.44,6.34,4.252,6.672,5.408
			C15.752-68.861,15.891-6.828,15.891-6.828z"/>
		<polygon fill="#25241E" points="11.375,6.687 12.143,30.478 25.85,38.673 33.154,38.673 30.893,5.209 		"/>
		<polygon fill="#B2B3AF" points="-28.796,-12.914 -30.498,6.166 -19.572,7.022 -16.729,-11.898 		"/>
		<polyline fill="#989B9B" points="-11.232,-11.355 -9.625,7.325 -19.572,7.022 -16.729,-11.898 -11.875,-11.274 		"/>
		<polygon fill="#25241E" points="12.143,-11.898 10.975,7.327 -9.812,7.327 -11.45,-11.292 		"/>
		<polygon fill="#989B9B" points="28.818,-13.74 30.959,6.166 10.975,7.327 12.143,-11.898 		"/>
		<polygon fill="#25241E" points="13.686,-35.212 12.143,-11.898 28.818,-13.74 		"/>
		<path fill="#989B9B" d="M15.439-69.739v-1.789c0,0,1.955-41.647-17.353-77.161v73.879C5.219-74.876,13.025-73.292,15.439-69.739z"
			/>
		<path fill="#25241E" d="M5.635-131.671c-1.84-5.566-4.57-12.754-7.18-18.257c0,0-4.076,7.793-7.229,18.875
			c0.526-0.122,3.749-1.791,4.306-2.062C-0.565-135.012,2.154-132.753,5.635-131.671z"/>
		<path fill="#FFFFFF" d="M5.561-74.261c0,0,3.27,0.546,6.189,1.643c2.854,1.068-5.225-44.96-5.225-44.96l-6.771-24.966
			C-0.244-142.544,5.092-96.042,5.561-74.261z"/>
		<polygon fill="#868687" points="-15.376,-77.47 -16.729,-11.684 -6.965,-11.292 -9.868,-78.864 		"/>
		<path fill="#25241E" d="M-1.15-148.728c0,0-15.822,26.893-14.437,74.536l0.074,3.214c0,0,4.476-3.358,12.331-3.771
			c0.675-0.035,1.177-0.054,1.866-0.061l0.185-73.882C-1.139-148.701-1.144-148.716-1.15-148.728z"/>
		<polygon fill="#25241E" points="-13.36,-35.092 -28.796,-12.914 -11.45,-11.292 		"/>
		<path fill="#E02B28" d="M-12.165-115.244l-0.471,2.411c0,0,2.969-2.262,9.963-2.557c6.993-0.296,12.438,1.13,13.854,2.557
			l-0.531-2.288c0,0-3.281-2.4-11.781-2.284C-9.631-117.289-12.165-115.244-12.165-115.244z"/>
		<polygon fill="#868687" points="-9.812,7.327 -6.965,12.868 8.809,12.868 10.975,7.327 		"/>
		<polygon fill="#636666" points="-9.812,7.327 -6.965,12.868 -2.514,12.868 -6.163,7.306 		"/>
		<polygon fill="#B2B3AF" points="8.453,7.327 6.73,12.868 4.561,12.868 6.73,7.306 		"/>
		<path fill="#868687" d="M5.561-74.261c0,0,2.377,0.504,3.52,0.792c1.045,0.264,3.082,1.091,3.082,1.091L11.566-32.95L9.273-59.918
			L7.891-70.646"/>
		<path fill="#E61F60" d="M-16.031-45.443l-0.052,2.55c0,0,5.102-2.725,14.114-3.019c9.015-0.296,15.898,1.493,17.722,2.918
			l-0.01-2.084c0,0-5.031-3.21-15.987-3.095C-11.199-48.056-16.031-45.443-16.031-45.443z"/>
		<polygon fill="#25241E" points="-30.498,6.166 -34.827,39.491 -25.907,39.491 -10.363,30.008 -9.812,7.327 		"/>
		<path fill="#020202" d="M29.672-13.196l-13.785-18.16c-0.031-13.069-0.078-26.139-0.139-39.208c0,0.002,0-0.003,0-0.007
			c0.516-13.221-1.279-26.389-3.752-39.34c0.068,0.068-0.193-1.3-0.396-2.052c-0.004-0.021-0.008-0.044-0.012-0.064l-0.004,0.003
			c-3.539-13.089-7.605-25.83-13.367-38.134c-9.667,22.132-15.424,44.87-15.529,69.223c-0.074,16.968-0.101,33.961,0.297,50.928
			c-3.679,4.915-7.358,9.831-11.04,14.748c-1.991,2.663-2.123,2.845-2.292,6.439c-0.153,3.325-0.354,6.651-0.6,9.971
			c-0.958,13.098-2.589,26.16-3.973,39.219c3.451-0.085,7.526,0.66,10.597-1.039c4.631-2.567,9.26-5.135,13.89-7.7
			c1.7-0.941,0.734-9.399,0.782-11.184c0.082-3.072,0.188-6.147,0.262-9.224c0.579,1.111,1.188,2.213,1.754,3.315
			c5.561,0.005,11.118,0.008,16.678,0.009c0.516-1.109,1.027-2.217,1.543-3.327c0.158,3.562,0.316,7.122,0.479,10.684
			c0.064,1.454-0.611,8.591,0.76,9.398c4.223,2.484,8.443,4.971,12.664,7.455c2.416,1.423,6.215,0.725,8.98,0.928
			C32.209,22.058,30.938,4.432,29.672-13.196z M25.646,38.134L12.75,30.339c-0.326-8.354-1.021-14.658-1.352-23.013h-0.424
			c-0.799,1.703-1.283,3.229-2.168,5.541H-6.965L-9.407,7.95l-0.404-0.624l-0.679-0.037l-0.461-0.026l-0.296,23.304l-14.895,8.336
			l-7.415,0.206c1.823-16.861,3.188-33.859,5.674-50.64c0.886-1.368,1.771-2.738,2.655-4.108c2.949-4.562,5.896-9.126,8.849-13.688
			c1.428-2.211,0.649-7.599,0.774-10.292c0.497-10.763,0.854-21.526,1.146-32.295c0.378-13.97,0.444-27.639,3.065-41.454
			c2.166-11.43,5.072-23.507,9.622-34.34c5.021,11.608,8.808,23.596,12.044,35.831c2.674,13.766,4.395,27.258,4.396,41.346
			c0.004,13.091,0.381,26.192,0.596,39.282c3.432,6.523,8.197,12.645,12.244,18.84c1.619,17.003,3.238,34.006,4.855,51.008
			C30.127,38.442,27.885,38.29,25.646,38.134z"/>
	</g>
</g>
</svg>
