<?xml version="1.0" encoding="utf-8"?>
<!-- Generator: Adobe Illustrator 26.5.0, SVG Export Plug-In . SVG Version: 6.00 Build 0)  -->
<svg version="1.1" id="Layer_1" xmlns="http://www.w3.org/2000/svg" xmlns:xlink="http://www.w3.org/1999/xlink" x="0px" y="0px"
	 viewBox="0 0 841.9 595.3" enable-background="new 0 0 841.9 595.3" xml:space="preserve">
<g id="Rocket">
	<g id="Rocket_1_">
		<g id="Fuego">
			<g>
				<path fill="#CA333E" d="M1.4,94.4c0.3-4.5,1.3-9,1.3-13.6c0-3.2-0.1-6.4,0.8-9.4c-0.5-1.1-0.7-2.2,0-3.3c0.6,1,0.7,2.1,0.5,3.2
					c1,1.2,0.7,2.7,0.9,4.1c0.1,0.4,0.1,1,0.2,1c0.6,0,0.9-0.4,1-0.9c0.7-3.8,1.4-7.5,2-11.3c1.7-10.7,2.8-21.5,2.2-32.4
					c-0.2-3.9-0.1-7.8-2.4-11.4c-2.1-3.3-6.1-4.8-9.5-3.3c-3.6,1.6-5.9,4.3-6.4,8.3c-0.2,1.8-0.4,3.6-0.4,5.3
					c-0.4,12,1.4,23.8,3.6,35.5c0.1,0.7,0.1,1.5,1.1,1.8c0.2-0.2,0.7,0,0.5-3.7c-0.3-0.5-0.5-2.6,0-2.6c0.9,0,0.4,2.4,0.4,2.4
					c0.1,0.2,1.3,14.7,1.8,19.8c0.4,3.5,0.9,7,1.4,10.6c0,0.3-0.1,0.9,0.5,0.8C1.3,95.2,1.3,94.8,1.4,94.4z"/>
				<path fill="#CA333E" d="M-3.7,68C-3.8,68-3.8,68-3.7,68C-3.8,68-3.8,68-3.7,68L-3.7,68z"/>
			</g>
			<path fill="#F17327" d="M1.3,86.6c0.3-4,1.2-7.9,1.2-11.9c0-2.8-0.1-5.6,0.7-8.3c-0.4-1-0.6-1.9,0-2.9c0.5,0.9,3.4-0.2,4-3.5
				c1.5-9.4,2.5-18.9,2-28.4C9,28.2,9,24.8,7.1,21.6c-2.6-4.4-5.3-5.3-8.2-4c-3.1,1.5-5.3,4.9-5.7,8.4c-0.2,1.5-0.3,3.1-0.4,4.7
				c-0.3,10.5,3.1,27.9,3.6,27.9c0.8,0,1.4,1.4,1.4,1.4c0.1,0.2,1.1,12.9,1.6,17.4c0.3,3.1,0.8,6.2,1.2,9.3c0,0.2-0.1,0.8,0.4,0.7
				C1.2,87.4,1.2,87,1.3,86.6z"/>
			<path fill="#F9C224" d="M0.5,69.2c-0.6-1.8-0.8-3.6-0.9-5c-0.1-0.6-0.1-1.2-0.2-1.8c-0.2-1.3-0.2-1.5-0.2-2.7c0-1,0-2.8-0.9-3.3
				c-1.1-0.7-1.4-4.5-1.5-6.3c0-0.3,0-0.5-0.1-0.7C-4.2,42-4.2,34.5-4,28.3c0.1-2.6,0.5-5,1.4-6.9c1.1-2.5,2.4-3.8,4-3.8
				c0.4,0,0.7,0.1,1.1,0.2c1.3,0.5,3,2,3.7,6.8C6.9,29.3,7,34,7,38.5v1.3c0.1,7.3-0.9,14.3-1.7,20.5c-0.1,1-0.6,2.1-1.5,2.1
				c-0.1,0-0.2,0-0.3,0c0,0.4-0.9,0.8-0.9,1.3c0,1.6-0.6,3.5-1.2,5.5L1.8,73L0.5,69.2z"/>
			<path fill="#EFF4F6" d="M1.7,40c-0.9,1.3-0.1,3-0.9,4.4c-0.7-1-0.6-2.2-0.9-3.2c-0.5-1.7,0.5-4-2.1-4.9c-0.3-0.1-0.5-1.1-0.6-1.8
				c-0.8-3.5-0.8-7.1-0.5-10.6c0.1-1,0.4-2,1.1-2.8c1-1.2,2.2-1.7,3.7-1.4C2.8,20.1,3.6,21,4,22.4c0.7,2.5,0.7,5,0.8,7.6
				c0.1,3.5-0.8,6.9-1.7,10.3c0,0-0.2,0-0.3,0c-0.1-0.1-0.2-0.2-0.3-0.3c0-0.4,0-1-0.7-0.8C1.7,39.1,1.7,39.7,1.7,40z"/>
		</g>
		<g id="Coete">
			<path fill="#989B9B" d="M-15.4-72.2l0.7,66.7L-1.1-10v-66.3c0,0-4.7-0.2-7.6,0.6C-11.7-75-15.1-74.2-15.4-72.2z"/>
			<path fill="#25241E" d="M15.9-6.8L-1.3-9v-67.2c0,0,5.5-0.7,10.1,0.8c4.5,1.4,6.3,4.3,6.7,5.4C15.8-68.9,15.9-6.8,15.9-6.8z"/>
			<polygon fill="#25241E" points="11.4,6.7 12.1,30.5 25.9,38.7 33.2,38.7 30.9,5.2 			"/>
			<polygon fill="#B2B3AF" points="-28.8,-12.9 -30.5,6.2 -19.6,7 -16.7,-11.9 			"/>
			<polyline fill="#989B9B" points="-11.2,-11.4 -9.6,7.3 -19.6,7 -16.7,-11.9 -11.9,-11.3 			"/>
			<polygon fill="#25241E" points="12.1,-11.9 11,7.3 -9.8,7.3 -11.4,-11.3 			"/>
			<polygon fill="#989B9B" points="28.8,-13.7 31,6.2 11,7.3 12.1,-11.9 			"/>
			<polygon fill="#25241E" points="13.7,-35.2 12.1,-11.9 28.8,-13.7 			"/>
			<path fill="#989B9B" d="M15.4-69.7v-1.8c0,0,2-41.6-17.4-77.2v73.9C5.2-74.9,13-73.3,15.4-69.7z"/>
			<path fill="#25241E" d="M5.6-131.7C3.8-137.3,1-144.5-1.6-150c0,0-4.1,7.8-7.2,18.9c0.5-0.1,3.7-1.8,4.3-2.1
				C-0.6-135,2.2-132.8,5.6-131.7z"/>
			<path fill="#FFFFFF" d="M5.6-74.3c0,0,3.3,0.5,6.2,1.6s-5.2-45-5.2-45l-6.8-25C-0.2-142.5,5.1-96,5.6-74.3z"/>
			<polygon fill="#868687" points="-15.4,-77.5 -16.7,-11.7 -7,-11.3 -9.9,-78.9 			"/>
			<path fill="#25241E" d="M-1.1-148.7c0,0-15.8,26.9-14.4,74.5l0.1,3.2c0,0,4.5-3.4,12.3-3.8c0.7,0,1.2-0.1,1.9-0.1L-1.1-148.7
				L-1.1-148.7z"/>
			<polygon fill="#25241E" points="-13.4,-35.1 -28.8,-12.9 -11.4,-11.3 			"/>
			<path fill="#E02B28" d="M-12.2-115.2l-0.5,2.4c0,0,3-2.3,10-2.6c7-0.3,12.4,1.1,13.9,2.6l-0.5-2.3c0,0-3.3-2.4-11.8-2.3
				S-12.2-115.2-12.2-115.2z"/>
			<polygon fill="#868687" points="-9.8,7.3 -7,12.9 8.8,12.9 11,7.3 			"/>
			<polygon fill="#636666" points="-9.8,7.3 -7,12.9 -2.5,12.9 -6.2,7.3 			"/>
			<polygon fill="#B2B3AF" points="8.5,7.3 6.7,12.9 4.6,12.9 6.7,7.3 			"/>
			<path fill="#868687" d="M5.6-74.3c0,0,2.4,0.5,3.5,0.8c1,0.3,3.1,1.1,3.1,1.1L11.6-33L9.3-60L7.9-70.6"/>
			<path fill="#E61F60" d="M-16-45.4l-0.1,2.5c0,0,5.1-2.7,14.1-3s15.9,1.5,17.7,2.9v-2.1c0,0-5-3.2-16-3.1
				C-11.2-48.1-16-45.4-16-45.4z"/>
			<polygon fill="#25241E" points="-30.5,6.2 -34.8,39.5 -25.9,39.5 -10.4,30 -9.8,7.3 			"/>
			<path fill="#020202" d="M29.7-13.2L15.9-31.4c0-13.1-0.1-26.1-0.1-39.2l0,0c0.5-13.2-1.3-26.4-3.8-39.3c0.1,0.1-0.2-1.3-0.4-2.1
				c0,0,0,0,0-0.1l0,0C8-125.1,4-137.9-1.8-150.2c-9.7,22.1-15.4,44.9-15.5,69.2c-0.1,17-0.1,34,0.3,51c-3.7,4.9-7.4,9.8-11,14.7
				c-2,2.7-2.1,2.8-2.3,6.4c-0.2,3.3-0.4,6.7-0.6,10c-1,13.1-2.6,26.2-4,39.2c3.5-0.1,7.5,0.7,10.6-1c4.6-2.6,9.3-5.1,13.9-7.7
				c1.7-0.9,0.7-9.4,0.8-11.2c0.1-3.1,0.2-6.1,0.3-9.2c0.6,1.1,1.2,2.2,1.8,3.3c5.6,0,11.1,0,16.7,0c0.5-1.1,1-2.2,1.5-3.3
				c0.2,3.6,0.3,7.1,0.5,10.7c0.1,1.5-0.6,8.6,0.8,9.4c4.2,2.5,8.4,5,12.7,7.5c2.4,1.4,6.2,0.7,9,0.9C32.2,22.1,30.9,4.4,29.7-13.2z
				 M25.6,38.1l-12.9-7.8c-0.3-8.4-1-14.7-1.4-23H11c-0.8,1.7-1.3,3.2-2.2,5.5H-7l-2.4-4.9l-0.4-0.6h-0.7H-11l-0.3,23.3l-14.9,8.3
				l-7.4,0.2c1.8-16.9,3.2-33.9,5.7-50.6c0.9-1.4,1.8-2.7,2.7-4.1c2.9-4.6,5.9-9.1,8.8-13.7c1.4-2.2,0.6-7.6,0.8-10.3
				c0.5-10.8,0.9-21.5,1.1-32.3c0.4-14,0.4-27.6,3.1-41.5c2.2-11.4,5.1-23.5,9.6-34.3c5,11.6,8.8,23.6,12,35.8
				c2.7,13.8,4.4,27.3,4.4,41.3c0,13.1,0.4,26.2,0.6,39.3c3.4,6.5,8.2,12.6,12.2,18.8c1.6,17,3.2,34,4.9,51
				C30.1,38.4,27.9,38.3,25.6,38.1z"/>
		</g>
	</g>
</g>
<g id="Hadouken">
	<g id="Fireball">
		<path fill="#5174A1" d="M-14.3,18.9c-0.3-1.2-0.7-2.4-1.1-3.5s-1.9-1.4-2-2.3c-0.1-1.4-0.2-2.9-0.3-4.3c0-0.2,0-1.6-0.3-1.8
			c-0.6-0.3-1-0.8-1.1-1.5C-19.5,4-18.9-2.2-17.4-3c0.7-1.4,1.3-2.9,2.2-4.2c3.6-5.2,10.7-9.2,17.2-7.6c1.8,0.4,3.4,0,5.1,0.8
			c1.4,0.7,2.7,1.6,3.9,2.4c2.6,1.9,4.8,4.2,6.2,7.1c0.9,1.8,1.2,3.8,1.5,5.8c0.5,2.6,0.4,5.2-0.4,7.8c-1.3,4.3-4,7.4-7.9,9.4
			C9,19.2,7.7,18.3,6.5,19c-0.5,0.2-0.8,0.7-1.4,0.8c-0.9,0.5-1.9,0.7-2.9,0.8c-1.9,0.2-3.4,2.1-3.2,4c0.2,1.3,1.5,4.9-0.9,4.5
			c-2.5-0.4-4.8-1.1-6.8-2.7c-1.1-1.1-2.1-2.3-2.8-3.7C-11.9,21.3-13.6,20.2-14.3,18.9C-14.3,18.8-13.6,20.3-14.3,18.9z"/>
		<path fill="#5EBCE3" d="M-12.5,12.1c0.7-2.4-0.1-5.1,0.9-7.6c0.1-0.3,0.3-0.6,0.4-0.8c0.5-1.1,0.1-1.7-1-1.6c-0.8,0-1.5,0-1.2-1.1
			c0.1-0.3,0-0.6-0.2-0.9c-0.7-1.2-0.6-2.8,0.2-3.9c0.2-0.2,0.6-0.5,0.4-0.8c-1.1-1.9,0.6-2.9,1.5-4c2.5-3.1,6.3-3.4,9.9-4.2
			c3.3-0.7,6.2,0,9.1,1.4c1.1,0.5,2.4,0.9,3.3,1.8c3,2.8,5.3,5.9,5.7,10.3c0.2,3.3-0.2,6.4-1.8,9.3c-0.1,0.1-0.1,0.3-0.2,0.4
			c-2.3,1-3.5,3.3-5.7,4.5c-1.8,1-3.7,1.6-5.8,1.3c-1.2-0.2-2.4,0-3.6-0.1c-1.5-0.2-2.8-0.9-4.2-1.5c-1.7-0.8-3,0.1-2.9,2
			c0.1,0.8,0.2,1.6,0.4,2.3c0.3,0.9-0.1,1.4-0.6,1.8c-0.6,0.4-0.9-0.3-1.2-0.7c-0.7-0.8-0.9-1.9-1.4-2.9c-0.1-0.2-0.2-0.6-0.3-0.7
			C-12.9,15.4-12.1,13.6-12.5,12.1z"/>
		<path fill="#84D2DF" d="M2.2,14.3c-2.6-0.1-4.8-0.7-6.9-1.9c-0.7-0.4-1.4-0.6-2-1c-0.9-0.5-1.5-1-1.7-2.1c-0.1-0.5-0.2-0.9-0.8-1
			c-0.7-0.1-0.5-0.8-0.7-1.2c-0.7-1.6,0.3-3.8,2-4.3c0.4-0.1,0.5-0.4,0.6-0.7c0.9-3.6,1.2-4.4,4.9-5.6C-1.6-3.6-1.2-4.2-1-5
			c0.1-0.4,0-0.8-0.4-1c-0.7-0.4-1.4-0.4-2,0.2c-1.4,1.4-3.1,2.1-5,2.5c-0.4,0.1-0.9,0.4-1.2-0.2c-0.4-0.6,0-0.9,0.4-1.1
			C-9-4.8-8.7-5-8.5-5.3c1.3-1.7,3-2.2,5.1-1.9C-2.5-7-1.7-7.7-1-8.3c0.4-0.4-0.1-0.8-0.4-1c-0.3-0.3-0.8-0.5-0.7-1
			c0.1-0.6,0.8-0.5,1.2-0.5c1,0,2.3-0.4,2.9,0c1.4,0.8,3,0.4,4.1,1.4C6.5-9,7-8.8,7.5-8.7c2,0.5,2.9,2.3,4.2,3.5
			c1.9,1.8,2.7,4,2.8,6.4c0.1,1.6,0.3,3.4-0.2,4.9c-1.2,3.5-3.7,5.9-7.1,7.4C5.6,14.2,3.8,13.9,2.2,14.3z"/>
		<path fill="#DDECD3" d="M5.4-6.8c1.1,0.3,2.2,0.3,2.9,1.3c0.4,0.6,1.2,0.8,1.8,1.2c0.6,0.5,1,1,1.2,1.7c0.3,1,0.7,1.9,1.2,2.7
			c0.6,1.1,0.5,2.4,0.4,3.6c-0.1,1.5-0.9,2.6-1.7,3.8c-0.7,1-1.4,1.8-2.2,2.8c-0.6,0.8-1.4,1-2.2,0.4c-0.4-0.3-0.6-0.3-1-0.1
			c-1.6,1.1-3.3,0.7-5,0.1c-0.4-0.2-0.8-0.5-1.3-0.6c-1.2-0.4-1.7-1.2-1.9-2.5c-0.3-1.5-0.9-2.9-1.9-4C-5.2,2.8-5,2-4.6,1.3
			C-4,0.1-2.8-0.6-1.8-1.4c0.6-0.4,1-1.1,1.8-1.2c1.4-0.2,2.4,0.4,3.1,1.5C4,0.2,4.1,1.5,3.4,3C3,4.2,3.8,5,5.1,5
			c2-0.1,2.9-1.8,3.1-4.2C8.3-0.7,8.2-2,7-3.1C6.4-3.8,6-4.6,6-5.6C6-6.1,5.5-6.2,5.4-6.8z"/>
		<path fill="#242C47" d="M-17.9-3L-17.9-3L-17.9-3z"/>
		<path fill="#242C47" d="M19.6,3.4L19.6,3.4C19-6.1,12.7-14.1,3.1-15.3C-5.8-16.4-15.3-11.7-18-2.6l0,0c-0.6,1.7-1,3.8-1.2,5.6
			c-0.1,1.4-0.8,5.1,0.4,6.1c0.8-0.4,0.6-1,1,0.1s0.1,2.5,0.4,3.6c0.1,0.4,0.3,3.5,1.1,3c1.3-0.8,1.4,1.5,1.8,2.3l0,0
			c0.1,1.3,1.1,3.2,2,3.8l0,0c0.7,2.9,3.4,5.1,5.9,6.4c1.4,0.7,2.9,1.2,4.4,1.4c1.7,0.1,3.6,0.8,5.3,0.2c-2.5-1.3-5-4.7-3-7.5
			c0.6-0.9,7.3-3.1,7.3-3.1c0.6-0.2,1.1,0.2,1.7,0c1-0.2,2-0.5,2.9-1c1.5-0.8,2.9-1.9,4-3.2C18.5,11.8,19.8,7.7,19.6,3.4z
			 M16.2,11.7c-0.8,2.4-1.3,2.1-3.1,4c-0.8,0.9-1.7,1.2-2.8,1.8s-1.6,0.2-2.7,0.6c0,0-0.9,0-0.3,0.5c-2.2,0.2-5.3,0.6-7.2,1.8
			c-1.6,1-2.3,3.3-2.2,5c0.1,1,1.7,3.8-0.6,2.5c-1.2-0.7-2.5-0.5-3.8-1C-8.6,26-10,24-11.3,22c-0.5-1-1.5-2-2.5-3.1
			c-0.2-1.3-0.8-2.6-1.2-3.8c-0.2-0.5-0.3-0.9-0.5-1.4c-0.2-0.9-0.8,0-1.2-0.1c-0.1-0.8-0.6-7.4-1.1-7.3C-20,6.8-18.1,0.7-18-0.5
			c0.1-0.9,0.9-1.8,0.9-1.8c1.5-3.4,4.1-6.5,7-8.7c4.7-3.5,9.2-3.5,14.8-2.7c4.3,0.6,9,5.1,11.1,8.7c2.5,4.2,3.1,9,1.5,13.6
			C17,9.5,17,9.6,16.2,11.7z"/>
	</g>
</g>
<g id="Aliens">
	<g id="Saucer">
		<g>
			<path fill="#C2A5C5" d="M-39.3,63c-0.7-0.5-1-0.7-1-0.7S-40.1,62.5-39.3,63z"/>
			<path fill="#C2A5C5" d="M63.4,46.8c-13.1,6.2-31.8,8.8-52,9.4C7.6,56.3,4,56.3,0.6,56.3l0,0l0,0l0,0l0,0c-3.4,0-7,0-10.8-0.1
				c-20.2-0.6-39-4.5-51.8-10.9c-12.9-6.4-14-6.8-14-6.8s5.6,12.2,33.5,23.4c1.7,0.7,3.4,1.3,5.2,1.8c5.9,3.9,19.8,12,34.4,11.9
				c1.7,0,8,0,9.7,0c16.5,0.1,32.4-10.5,36.5-13.4c-0.2,0-0.5,0-0.8,0.1c0.3-0.1,0.7-0.2,1-0.4C76,49.7,80.8,33.8,80.8,33.8
				S76.3,40.7,63.4,46.8z"/>
		</g>
		<path fill="#A784AE" d="M-2.2,43.6C-3.5,40.5,0.9,15.8,3,2.2c-1.1,0-2.2,0-3.3,0c-42.8,0-78.4,6.9-78.4,25.1
			c0,13.8,35.4,23.9,78.2,23.9c1.4,0,4.2,0.1,6,0C1.4,48.9-0.8,46.8-2.2,43.6z"/>
		<path fill="#C2A5C5" d="M77.3,26.7c0-17.4-32.9-24.8-74.2-25C0.9,15.2-3.5,40-2.2,43.1c1.4,3.2,1.9,5.2,6.1,7.4
			C44.8,49.8,77.3,40.1,77.3,26.7z"/>
		<path fill="#C2A5C5" d="M-69.4,26.7C-69.4,9-37.7,1.9,3.8,1.6c-1,0-2,0-3,0C-42,1.6-77,9.4-77,27.5c0,13.8,35,24.2,77.8,24.2
			c1,0,1.9,0,2.9,0C-37.8,51.2-69.4,40.2-69.4,26.7z"/>
		<path fill="#ECDFEE" d="M2.1,1.8C2,2.3,2.2,1.2,2.1,1.8c39.7,0.6,70.6,8,70.5,26.6c0,5.4-5.4,10.5-14.5,14.6
			C69.4,38.6,77,33.8,77,27.7C77,9.3,43.4,2,2.1,1.8z"/>
		<path fill="#D3BED9" d="M-0.2-0.2c-45.5,0-81.9,10.7-81.9,27.3s36.9,30.1,82.5,30.1c45.5,0,82.5-11.9,82.5-30.1
			C82.8,10.5,45.4-0.2-0.2-0.2z M-0.3,50.5c-43.3,0-76.9-9.3-76.6-23C-76.5,8.2-43.6,2.9-0.2,2.9S76.1,8.1,77,27.7
			C77.1,39.8,43,50.5-0.3,50.5z"/>
		<path fill="#ECDFEE" d="M50.7,50.9c0.1-1.4-3.5-2.4-7.9-0.5c-0.8,0.3-7.8-0.6-13.6-1c-9.9,1.4-18.8,1.5-30.5,1.1
			c-2.9-0.1-36.3,1.6-59-6.9c0.2,1.3,0.6,2.8,1.3,4.4c15,5.7,36,9.2,59.3,9.2C19.3,57.2,36.8,54.8,50.7,50.9z"/>
		<path fill="#D3BED9" d="M67.3,20.1h-3.8c0.1,0.5,0.2,0.9,0.2,1.4c0,11-28.5,7-63.5,7c28,0,50.7-8.3,50.7-18.5s-23-16.8-51-16.8
			c-25.3,0-46.1,5.4-49.8,14c0-0.2,0-0.3,0-0.4L-65.7,20c0,0.3-0.1,0.6-0.1,1c0,13.4,29.8,24.3,66.6,24.3S67.4,34.4,67.4,21
			C67.3,20.7,67.3,20.4,67.3,20.1z M-0.3-4.8c26.6,0,48.2,6.8,48.2,15.2S26.3,25.6-0.3,25.6s-48.2-6.8-48.2-15.2S-26.9-4.8-0.3-4.8z
			"/>
		<path fill="#C2A5C5" d="M62.4,14.5c2.1,2,10.8,4.9-0.7,11.1s-60.9,3-60.9,3l12-0.6c0,0,29.2-2.2,36.7-13.8
			c1.8-2.7-0.6-7.6-1.2-9.5C47.7,2.6,62.4,14.5,62.4,14.5z"/>
		<path fill="#ECDFEE" d="M-48.9,16.3c1.1,0.7,6.1,3.1,6.5,3.1s0.8,1.9,0.8,3.2c0,1.4,0.7,13.3,1.9,14.2c1.2,0.9,0.1,0.9-0.5,0.8
			c-0.6,0-18.8-3.6-21.7-14.1c-0.8-2.7,0.5-2.3,1.2-2.5S-50.1,15.5-48.9,16.3z"/>
		<path fill="#D3BED9" d="M-14.6,70.8c-0.6,1.4,2.5,5.2,5.6,5s1.4,1,0.6-1.1c-0.9-2.4,1.1-3.1,2-4.1c1.2-1.2,1.4-2.4-0.1-2.4
			C-20.8,67.8-13.4,68.2-14.6,70.8z"/>
		<path fill="#A784AE" d="M77.1,39.8c0,0-1.3,1.4-14.1,7.8c-9.3,4.6-21.8,7.2-35.7,8.4l0,0c5.4,1.4,20.4,3.2,7.2,9
			c-8.3,2.2-20,3.9-36.9,2.9c2.3,0.9,11.6,1.8,11.6,3.4c0,2.6-1.2,3.4-2.9,4.5C6.3,76,6.1,76,6,76.1c0.1,0,0.2,0,0.3,0
			c15.1,0.1,31.9-9.2,37.5-13.6C71.1,51.3,77.1,39.8,77.1,39.8z"/>
		<path fill="#ECDFEE" d="M-30.6,24.4c-3.5-1.3-4.6-1.6-4.9,1.9s2.4,13.9,2.4,13.9s1,1.7,1.4-1.3c0.5-3,1.6-8.9,2.9-11
			C-26.7,24.5-29.1,25-30.6,24.4z"/>
		<path fill="#3D1C49" d="M48,10.2C48,1.8,26.4-5-0.3-5l0,0c-26.6,0-48.2,6.8-48.2,15.2l0,0c0,8.4,21.6,15.2,48.2,15.2l0,0
			C26.4,25.4,48,18.6,48,10.2L48,10.2z"/>
		<path fill="#D3BED9" d="M-46.1,53.3c0.6,0.1,13.4,2,13.5,1.9s7.8,8,13.6,7.1c0.8-0.1-1.8,2.6-1.1,2.8c0.7,0.2,1.3,2,1.1,2.1
			c-0.2,0.1-3,0.3-10.3-1.9c-1.7-0.5-2.9-3.3-3.2-3.5C-34.7,59.8-46.8,53.1-46.1,53.3z"/>
	</g>
	<g id="Outline">
		<path fill="#0E0E0E" d="M83.6,27.1c-0.2-15-22.8-20.4-34.1-22.7c-0.3-0.2-0.9-0.4-1.3-0.5c-5.4-5.5-14.3-7.6-21.5-9
			C17.9-6.8,8.9-7.4-0.1-7.4c-9,0.1-18,0.7-26.8,2.5c-7.3,1.5-16.3,3.5-21.6,9.2c-9.9,2.3-21.3,5.4-29,12.4
			c-7.6,6.9-6.7,14.4-0.1,21.2c0,0.1,1,1.1,1,1.2c-0.1,0.1,0.6,1.4,0.7,1.3c4.1,7.9,13.1,12.4,20.7,16.4c5.1,2.7,10.4,5,15.9,7
			c8.4,5.9,18,10.3,28.1,12.3c0.9,0.3,1.7,0.5,2.6,0.4l0.8,0.2c0.2,0.1,0.4-0.1,0.6-0.1c7.7,0.6,16.3,0.8,23.8-0.9
			c9.9-2.3,19.2-6.8,27.4-12.8c11.4-4.8,29.3-12.3,34.9-24.2c0,0-0.1,0-0.1,0.1C82.3,36.2,83.5,31.1,83.6,27.1z M37.9,65.4
			c-14,8.4-29.1,10.9-45.3,9.7l-0.9-0.6c-4.3-1.1-7.8-0.9-12.1-2.5c-7.8-2.9-14.4-7.9-22.1-10.9c-5.7-2.3-11.2-5-16.5-8.2
			c-5.8-3.4-13.5-8.7-16.4-14.9l0,0l0,0l-0.4-0.2c0.7-0.6-1-1-0.9-1.1c-2.5-2.5-3.9-4.6-4.7-8.1c-1.3-5.5,3-10.5,7.1-13.5
			c4-3.1,8.8-5.2,13.5-6.9c2.9-1.1,6-1.9,9-2.7c3.2-0.8,3.7-1.5,6.4-3.3C-38.7-2.3-30-3.9-22.2-5c8.4-1,16.9-1.4,25.3-1.2
			c8.4,0.2,16.8,0.9,25,2.6c6.7,1.4,14.8,3.3,19.8,8.4l0.8-0.5c0.1,0.2-0.2,0.5-0.4,0.4c2.2,0.1,5.2,1.6,7.4,2.3
			C59.9,8.3,64,9.9,68,11.8c6,2.9,13.6,7.7,13.8,15.2c0,2.9-0.5,5.8-1.7,8.4c-1,2-2.8,3.1-3.7,5c0,0,0.1,0,0.1-0.1
			C67.8,53,50.3,58,37.9,65.4z"/>
	</g>
	<g id="Alien">
		<g id="Body">
			<path fill="#7DAB41" d="M-39,18.7c8.7,3,12.2,5.8,36.5,6.7c24.3,0.9,41.6-4.9,41.3-9.2c-0.3-4.4,9.9-86.6-35.7-88.3
				C-50.8-74.1-39,18.7-39,18.7z"/>
			<path fill="#667F37" d="M3.2-72.1c-6.2-0.2-11.6,0.8-16.1,2.8c1.5-0.1,3.1-0.1,4.8-0.1c34.9,1.3,35.6,63,34.2,92.7
				c8.1-2.3,12.9-3.5,12.8-5.2C38.4,13.7,48.7-70.4,3.2-72.1z"/>
			<ellipse fill="#ACD255" cx="1.5" cy="-34.1" rx="26.9" ry="28.4"/>
			<ellipse fill="#667F37" cx="1.3" cy="-34.5" rx="25.1" ry="25.9"/>
		</g>
		<g id="Eye">
			<ellipse fill="#FEF3F8" cx="2.2" cy="-33.6" rx="22.3" ry="22.9"/>
			<ellipse fill="#7FCAE9" cx="2.3" cy="-33.6" rx="14.4" ry="14.9"/>
			<ellipse fill="#C1E8FB" cx="2.3" cy="-33.6" rx="10.2" ry="10.6"/>
			<ellipse fill="#4DB0B7" cx="4.3" cy="-33.9" rx="8.7" ry="9"/>
			<ellipse fill="#201723" cx="4.3" cy="-33.6" rx="6" ry="6.1"/>
			<circle fill="#FFFFFF" cx="9" cy="-36.9" r="3.3"/>
			<circle fill="#FFFFFF" cx="9" cy="-28.9" r="1.7"/>
		</g>
		<g id="Mouth">
			<path fill="#667F37" d="M1.3-2c-7,0-18.1-4.7-22.9-9.3C-17-5-3.9,2.2,4.3,2.2c13.9,0,24-7.5,24-27.2c0-0.9,0-1.7-0.1-2.6
				C26.8-13.2,15.3-2,1.3-2z"/>
			<path fill="#010101" d="M2.1,20.9c-1.2-0.1-2.4-0.1-3.5-0.2C-3.3,20.4-5.1,20-7,19.6c-0.3-0.1-0.7-0.7-0.7-1
				c0-0.6,0.5-0.9,1.2-0.8s1.3,0.4,2,0.6c1.4,0.3,2.8,0.7,4.2,0.8C3.4,19.5,7,19,10.4,17.5c0.3-0.1,0.5-0.2,0.8-0.3
				c0.5-0.1,1.1-0.2,1.3,0.5c0.2,0.6-0.3,0.9-0.8,1.1c-1.2,0.5-2.4,0.9-3.6,1.3c-1,0.3-2,0.6-3,0.7C4.2,20.9,3.2,20.8,2.1,20.9
				L2.1,20.9z"/>
			<path fill="#667F37" d="M27.2,6.1c-3.5,7.7-11.6,12.2-17.3,13.3s15.7-1.8,17.6-4.7C29.4,12,27.2,6.1,27.2,6.1z"/>
			<path fill="#667F37" d="M25.8-8.6C14.4,14.9-0.3,7-12.1,7c-9.6,0,13.4,12.6,29.8,1.6c7.8-5.3,9.8-5.7,11.6-9.2
				C31.1-4,25.8-8.6,25.8-8.6z"/>
			<path fill="#010101" d="M30.5,2.6C29,0.3,26.7-1,24-1.5c-0.3-0.1-0.8,0-1.1,0.2c-0.4,0.3-0.5,0.8-0.8,1.2
				c0.4,0.2,0.7,0.4,1.1,0.6c0.6,0.3,1.3,0.5,2,0.8c-0.3,0.7-0.6,1.4-1,2c-1.1,1.4-5.9,4.3-8,5c-2.4,0.8-4.8,1.4-7.2,2.2
				c-1.8,0.6-3.6,0.6-5.3,1.2c-0.6,0.2-2.5,0.4-3.1,0.5C0,12.1-0.7,12-1.3,11.7c-1.8-0.6-3.5-1-5.3-1.5c-2.4-0.8-4.8-1.1-7.2-1.9
				c-3-1.1-5.9-2.5-8-5c-0.5-0.6-0.7-1.3-1-2c0.7-0.2,1.3-0.5,2-0.8c0.4-0.2,0.7-0.4,1.1-0.6C-20-0.5-20.2-1-20.5-1.3
				c-0.2-0.2-0.7-0.2-1.1-0.2c-2.7,0.6-5,1.8-6.5,4.1C-28.4,3-28.6,4-28.4,4.2c0.6,0.6,1-0.2,1.3-0.6c1.4-1.4,1.9-1.4,3.2,0.1
				c0.1,0.1,0.2,0.3,0.3,0.4c1.2,1.1,2.4,2.3,3.8,3.3c2,1.6,4.5,2.2,6.8,3c2.5,0.9,5.1,1.1,7.6,1.8c2,0.6,4,1.5,6,1.6h0.1l0,0
				c0.3,0,1.3,0,1.3,0c2-0.1,4-0.4,6-1c2.6-0.8,5.1-1.5,7.6-2.5c2.3-0.8,4.8-1.5,6.8-3c1.3-1,2.5-2.2,3.8-3.3
				c0.1-0.1,0.2-0.2,0.3-0.4c1.3-1.5,1.8-1.5,3.2-0.1c0.4,0.4,0.7,1.2,1.3,0.6C31,4,30.8,3,30.5,2.6z"/>
		</g>
	</g>
	<g id="Glass" opacity="0.48">
		<path id="Dome" opacity="0.5" fill="#A9C7DA" enable-background="new    " d="M47.5-28c0,8.8-0.7,31.8,0,38.9
			c0.9,10.3-28.3,16.3-52.7,16.3c-18.2,0-45.5-8.6-45.5-16.4c0-26.4,0.1-29.7,0-38.8c-0.3-28.2,22-49,49.1-49
			c13.3,0,25.4,5.3,34.3,13.9C41.8-54.2,47.5-41.8,47.5-28z"/>
		<path id="Highlight" opacity="0.43" fill="#D8E5ED" enable-background="new    " d="M-28.5,19.9c0,0,4.1-7.9,4.1-14.9
			c0-23.6,0.7-25.8,0.6-33.9C-24-51.5-15.9-68.1,0.1-75.5c-0.6,0-1.3-0.2-2-0.1C-21-71.4-38.8-53.2-38.6-28.1c0.1,8.1,0,11,0,34.6
			c0,7,0,11.2,0,11.2C-35.1,17.7-29.2,24.7-28.5,19.9z"/>
	</g>
</g>
<g id="Bombs">
	<g id="Bomb">
		<path fill="#546C31" d="M21.8,17.8c0-4.1-0.3-3.2,0-6.5c0.4-4.8-13-7.5-24.2-7.5c-8.4,0-20.9,4-20.9,7.6c0,12.2,0,2.3,0,6.5
			c-0.1,12.9,10.1,22.5,22.6,22.5C11.7,40.4,21.8,30.3,21.8,17.8z"/>
		<path opacity="0.6" fill="#D8E4EB" enable-background="new    " d="M-16.7,7.8c0,0,1.6,3.2,1.6,6c0,9.5,0.3-1,0.2,2.3
			c-0.1,9.1,3.1,15.8,9.2,18.8C-6,35-6.3,35-6.5,35c-7.4-1.7-14.2-9-14.1-19.2c0-3.3,0,6.9,0-2.6c0-2.8,0-4.5,0-4.5
			C-19.3,8.7-17,5.9-16.7,7.8z"/>
		<path fill="#546C31" d="M-23.3,5c1-7.1,19-31.6,22.1-31.9C1.9-27.2,20.5-4.6,20.9,4.6c0,0-2.9-1.5-10.5-3.3C9.1,1,3,0.1,0.9,0.1
			c-5.1-0.1-9.8,0-11.5,0.5C-22.3,3.6-23.3,5-23.3,5z"/>
		<path fill="#546C31" d="M14-18L14-18C14-18,13.9-18,14-18c-0.1-0.2-0.3-0.3-0.4-0.4c-1.6-1.4-7.2-5.8-15.8-5.8
			c-7.8,0-12.4,4.4-13.9,7.2c-0.8,1.4,0,0,0,0c-0.3,0.4-0.6,1-0.6,1.8c0,1.2,0.6,2.1,1.2,2.1c0.2,0,0.3-0.1,0.4-0.1l0,0l0,0
			c0.2-0.1,0.3-0.3,0.5-0.6c1.4-1.6,6-4.4,13.3-4.4c7.5,0.1,12,1.5,13.4,3.2c0.1,0.2,0.3,0.4,0.4,0.6l0.1,0.1
			c0.1,0.2,0.2,0.2,0.3,0.1H13c0.7,0,1.2-1,1.2-2.1C14.4-17,14.2-17.6,14-18z"/>
		<g>
			<path fill="#C9EAF5" d="M-14.2-16.1c0,0-0.1,0.2-0.2,0.3C-14.4-15.9-14.3-16-14.2-16.1z"/>
			<path opacity="0.6" fill="#D8E4EB" enable-background="new    " d="M-14.8-14.3c0-0.8,0.2-1.4,0.6-1.8c1.5-2.8,6-7.2,13.9-7.2
				c5.3,0,9.4,1.7,12.2,3.3c-2.7-1.8-7.4-4.2-13.7-4.2c-7.8,0-12.4,4.4-13.9,7.2c-0.1,0.1-0.1,0.2-0.2,0.3c0.1-0.2,0.2-0.3,0.2-0.3
				c-0.3,0.4-0.6,1-0.6,1.8c0,1.2,0.6,2.1,1.2,2.1c0.2,0,0.3-0.1,0.4-0.1C-14.8-13.6-14.8-13.9-14.8-14.3z M-16.1-16.4
				c0,0,0.1-0.1,0.1-0.2C-16.1-16.5-16.1-16.5-16.1-16.4z"/>
			<path fill="#C9EAF5" d="M-14.5-15.7c-0.1,0.1-0.1,0.2-0.1,0.2S-14.5-15.6-14.5-15.7z"/>
		</g>
		<path fill="#285234" d="M12.3-15.5c-1.4-1.7-5.9-3.1-13.4-3.2C-8.4-18.8-13-16-14.4-14.3c-0.1,0.2-0.3,0.4-0.5,0.6l0,0l0,0
			c-0.1,0.1-0.3,0.1-0.4,0.1c-0.6,0-1-0.7-1.2-1.6c0,0.2-0.1,0.4-0.1,0.6c0,1.2,0.7,1.9,1.2,2.2c0.1,0.1,1.1,0.5,1.3,0.4l0.4-0.5
			l1.3-1.8c0.2-0.1,0.4-0.7,0.6-0.8c2.3-1.3,6-2.5,10.8-2.5c7.5,0.1,9.1,1.1,11.2,1.7c0.1,0.2,1.7,2.3,2.2,2.9c0.5-0.1,1-0.4,1-0.4
			c0.8-0.6,1.2-1.2,1.2-2.4c0-0.2,0-0.4-0.1-0.6C14.2-15.4,12.4-15.3,12.3-15.5z"/>
		<g>
			<path fill="#C9EAF5" d="M-4.7,39.3C-4.7,39.3-4.8,39.3-4.7,39.3C-4.8,39.3-4.8,39.3-4.7,39.3z"/>
			<path fill="#C9EAF5" d="M-4.8,39.3C-4.8,39.4-4.8,39.4-4.8,39.3C-4.8,39.4-4.8,39.4-4.8,39.3z"/>
		</g>
		<path fill="#285234" d="M21.8,17.8c0-5.7,0-4,0-5.7c0.1-3.2-0.4-2.7-6.4-5.3c0,10,0,8.8,0,11c0,8.2-4.4,15.4-11,19.4
			c-0.9-0.9-3-1.5-5.4-1.5c-3.2,0-5.8,1.1-5.8,2.4c0,1.3,2.6,2.4,5.8,2.4c1.1,0,2.2-0.1,3.1-0.4C13.3,38.8,21.8,29.3,21.8,17.8z"/>
		<path fill="#546C31" d="M-4.9,40.1c0-0.8,0.1,0.2,0-0.4c-0.1-0.9,2.4-1.4,4.5-1.4c1.5,0,3.9,0.7,3.9,1.4c0,2.3,0-0.3,0,0.4
			c0,2.4-1.9,4.2-4.2,4.2C-3.1,44.3-4.9,42.4-4.9,40.1z"/>
		<ellipse fill="#CBDB2E" cx="-1.8" cy="41.5" rx="1.5" ry="1.6"/>
		<path fill="#546C31" d="M3-23.9c1.5,0.4-1.8-11-1.8-11h-1.3L-3-34.8c0,0-2.8,10.6-1.9,10.6C-1.3-24.2,0-24.6,3-23.9z"/>
		<path opacity="0.6" fill="#D8E4EB" enable-background="new    " d="M-14.6-0.1c-1-2.6,8.3-17.1,8.3-17.1l-2.6,0.8
			c0,0-12.5,20.1-11.7,19.8C-16.3,2-13.8,1.9-14.6-0.1z"/>
		<path fill="#285234" d="M6.2-16.9c0,0,7,11,8.8,19.2l6,2.4c0,0-0.4-6.5-10.9-20.5L6.2-16.9z"/>
		<path fill="#285234" d="M-4.9-24.3c-19.4,4.9-11.5-20.1-11.5-20.1L-3-34.9L-4.9-24.3z"/>
		<path fill="#546C31" d="M3-23.9C22.4-19,14.6-44.4,14.6-44.4L1.2-34.9L3-23.9z"/>
		<path opacity="0.6" fill="#D8E4EB" enable-background="new    " d="M-0.8-23.8c0.4,0.4,0.6-11,0.6-11h-1.2c0,0-1.8,10.4-1.6,10.5
			C-2-24.3-1.6-24.6-0.8-23.8z"/>
		<polygon fill="#285234" points="1.2,-34.9 3,-23.9 1.5,-24.1 0.6,-34.8 		"/>
		<path fill="#546C31" d="M-14.4-43.2l-2-1.4c0,0-5.5,17.4,4,20.3C-17.7-28.3-15.4-39.3-14.4-43.2z"/>
		<path fill="#285234" d="M12.8-42.8l2-1.4c0,0,5.5,17.4-3.9,20.3C16.1-27.9,13.8-38.9,12.8-42.8z"/>
		<path fill="#546C31" d="M22.9,5.6L22.9,5.6L22.9,5.6c-0.2-0.2-0.5-0.3-0.7-0.4C19.7,4,10.7-0.1-3-0.1c-12.5,0-19.7,4.1-22.1,6.6
			c-1.3,1.3,0,0,0,0c-0.5,0.4-0.9,1-0.9,1.7c0,1.1,0.9,2,2,2c0.3,0,0.5-0.1,0.7-0.1l0,0l0,0c0.3-0.1,0.5-0.3,0.7-0.5
			C-20.3,8-13,3.8-1.4,3.8c12,0.1,19.1,3,21.4,4.5C20.2,8.5,21.4,9,21.5,9c1.1,0,2-0.9,2-2C23.6,6.5,23.3,6,22.9,5.6z"/>
		<g>
			<path fill="#C9EAF5" d="M-22.1,7.4c0,0-0.2,0.2-0.3,0.3C-22.3,7.6-22.2,7.5-22.1,7.4z"/>
			<path opacity="0.6" fill="#D8E4EB" enable-background="new    " d="M-23,9c0-0.7,0.4-1.3,0.9-1.7c2.4-2.5,9.6-6.6,22.1-6.6
				c8.4,0,15,1.5,19.5,3C15.2,2.1,7.7-0.1-2.4-0.1c-12.5,0-19.7,4.1-22.1,6.6c-0.1,0.1-0.2,0.2-0.3,0.3c0.1-0.2,0.3-0.3,0.3-0.3
				c-0.5,0.4-0.9,1-0.9,1.7c0,1.1,0.9,2,2,2c0.2,0,0.5-0.1,0.7-0.1C-22.9,9.7-23,9.4-23,9z M-25.1,7.1c0,0,0.1-0.1,0.2-0.2
				C-25,7-25,7.1-25.1,7.1z"/>
			<path fill="#C9EAF5" d="M-22.5,7.7c-0.1,0.1-0.2,0.2-0.2,0.2C-22.6,7.9-22.6,7.9-22.5,7.7z"/>
		</g>
		<path fill="#285234" d="M21.7,8.6c-0.1,0-1.3-0.5-1.5-0.7c-2.3-1.5-9.4-4.5-21.4-4.5c-11.7-0.1-19,4.1-21.3,5.6
			c-0.2,0.2-0.5,0.4-0.7,0.5l0,0l0,0c-0.2,0.1-0.5,0.1-0.7,0.1c-0.9,0-1.6-0.6-1.9-1.4c-0.1,0.2-0.1,0.4-0.1,0.6c0,1.1,0.9,2,2,2
			c0.3,0,0.5-0.1,0.7-0.1l0,0l0,0c0.3-0.1,0.5-0.3,0.7-0.5c2.3-1.5,9.6-5.7,21.2-5.6c12,0.1,19.1,3,21.4,4.5
			c0.2,0.2,1.4,0.7,1.5,0.7c1.1,0,2-0.9,2-2c0-0.2,0-0.4-0.1-0.5C23.3,8,22.6,8.6,21.7,8.6z"/>
		<g>
			<path fill="none" stroke="#020202" stroke-width="2" stroke-miterlimit="10" d="M3.8,40.2C3.8,40.2,3.8,40.3,3.8,40.2
				C3.8,40.6,3.8,41.1,3.8,40.2z"/>
			<path fill="none" stroke="#020202" stroke-width="2" stroke-miterlimit="10" d="M24,7.9c0-0.2,0-0.4-0.1-0.5v0.1
				c0.1-0.6-0.1-1.2-0.7-1.7l0,0c-0.7-0.4-1.3-0.7-2-1l0,0C21,0.4,16.8-7,12-13.5c0.2,0.3,0.5,0.6,0.6,0.7c1.5-0.4,2.4-1.8,2.2-3.4
				c0,0,0,0,0,0.1c0.1-0.6-0.1-1.2-0.4-1.8l0,0C13-19.1,11.5-20.1,10-21c0.8,0.4,1.6,0.8,2.2,1.1c-1.9-1.3-4.8-2.9-8.7-3.7
				c-0.1-0.1-0.1-0.1-0.2-0.2c5.1,1.3,8.3,0.5,10.3-1.4c5.8-5,1.4-18.9,1.4-18.9v0.1c-0.1-0.2-0.1-0.3-0.1-0.3L1.5-34.8
				c-0.9,0-1.8,0-2.6,0.1l0,0h-1.5c0,0,0,0.1-0.1,0.2l0.1-0.3l-11.5-8.1c0-0.1,0-0.1,0-0.2l-2-1.4c-1.5,4.9-2.6,11.2-0.6,16.2
				c2.3,5.8,7.6,4.2,12.4,4.2c0,0.1-0.1,0.1-0.1,0.2c-6.4,0.8-10.1,4.6-11.4,7c-0.1,0.1-0.1,0.1,0,0c-1,1.2,0,6.4,2,5.1l0.1-0.1
				c-4.7,6.6-8.8,13.7-9.3,17c0,0,0.1-0.2,0.7-0.5c-1.1,0.7-2,1.4-2.5,2c-0.8,0.5-1.1,1.4-0.8,2.3c0,1.4,1.4,2.3,2.7,1.9l0,0
				c0,0,0.1,0,0.1-0.1c-0.9,1.7-0.2,4.7-0.2,6.6c0-1.6,0,1.8,0,0c-0.2,11.1,7.2,20.8,18.4,22.8c0,5.5,8.3,5.5,8.4,0l0,0
				c0,0.1,0,0.1,0,0c7.5-1.4,13.9-6.7,16.8-13.7c1.6-3.9,3.6-13,1.1-16.7C22.8,10.2,24,9,24,7.9z"/>
		</g>
	</g>
</g>
</svg>
