<?xml version="1.0" encoding="utf-8"?>
<!-- Generator: Adobe Illustrator 16.0.4, SVG Export Plug-In . SVG Version: 6.00 Build 0)  -->
<!DOCTYPE svg PUBLIC "-//W3C//DTD SVG 1.1//EN" "http://www.w3.org/Graphics/SVG/1.1/DTD/svg11.dtd">
<svg version="1.1" id="Layer_1" xmlns="http://www.w3.org/2000/svg" xmlns:xlink="http://www.w3.org/1999/xlink" x="0px" y="0px"
	 width="841.89px" height="595.28px" viewBox="0 0 841.89 595.28" enable-background="new 0 0 841.89 595.28" xml:space="preserve">
<g id="Fireball">
	<path fill="#5174A1" d="M-14.264,16.485c-0.272-1.209-0.729-2.356-1.062-3.547c-0.333-1.191-1.901-1.359-1.984-2.256
		c-0.114-1.423-0.18-2.85-0.32-4.269c-0.021-0.205,0.005-1.573-0.327-1.771c-0.558-0.331-0.979-0.815-1.127-1.456
		c-0.38-1.646,0.188-7.876,1.664-8.653c0.652-1.401,1.326-2.908,2.221-4.174c3.647-5.162,10.684-9.223,17.156-7.624
		c1.75,0.433,3.393-0.001,5.094,0.816c1.368,0.656,2.674,1.562,3.9,2.449c2.573,1.857,4.794,4.208,6.202,7.075
		c0.904,1.841,1.157,3.843,1.504,5.81c0.461,2.604,0.396,5.194-0.371,7.787c-1.28,4.325-3.973,7.388-7.94,9.384
		c-1.307,0.655-2.598-0.212-3.892,0.454c-0.487,0.186-0.847,0.661-1.358,0.831c-0.906,0.462-1.868,0.692-2.885,0.789
		c-1.888,0.18-3.41,2.114-3.172,3.988c0.159,1.264,1.53,4.929-0.864,4.514c-2.512-0.438-4.812-1.149-6.833-2.742
		c-1.092-1.052-2.14-2.348-2.778-3.727C-11.94,18.895-13.586,17.781-14.264,16.485C-14.293,16.356-13.561,17.831-14.264,16.485z"/>
	<path fill="#5EBCE3" d="M-12.494,9.631c0.665-2.426-0.135-5.136,0.937-7.644c0.121-0.282,0.269-0.553,0.39-0.835
		c0.485-1.126,0.142-1.655-1.043-1.604C-13-0.417-13.668-0.5-13.401-1.579c0.077-0.318-0.034-0.589-0.203-0.87
		c-0.721-1.199-0.625-2.769,0.21-3.872c0.182-0.24,0.559-0.454,0.376-0.779c-1.087-1.946,0.578-2.853,1.511-4.002
		c2.534-3.13,6.295-3.429,9.851-4.24c3.253-0.741,6.188-0.015,9.122,1.395c1.142,0.547,2.389,0.938,3.302,1.8
		c2.965,2.805,5.35,5.886,5.671,10.26c0.245,3.327-0.226,6.382-1.85,9.274c-0.074,0.134-0.108,0.347-0.221,0.396
		c-2.274,1.017-3.537,3.312-5.715,4.471c-1.83,0.975-3.65,1.604-5.783,1.304c-1.159-0.165-2.362,0.018-3.555-0.122
		c-1.531-0.182-2.807-0.94-4.158-1.546c-1.74-0.78-3.043,0.121-2.897,2.014c0.061,0.763,0.153,1.556,0.427,2.261
		c0.329,0.854-0.072,1.423-0.63,1.791c-0.551,0.362-0.896-0.312-1.182-0.662c-0.688-0.846-0.916-1.931-1.36-2.904
		c-0.11-0.241-0.152-0.65-0.319-0.708C-12.861,12.977-12.134,11.172-12.494,9.631z"/>
	<path fill="#84D2DF" d="M2.227,11.876c-2.576-0.093-4.781-0.747-6.886-1.859c-0.658-0.351-1.36-0.625-2.024-0.991
		C-7.547,8.548-8.19,7.98-8.346,6.957C-8.415,6.491-8.562,6.098-9.167,6c-0.66-0.106-0.462-0.821-0.656-1.244
		c-0.733-1.604,0.291-3.813,1.957-4.292C-7.436,0.34-7.383,0.095-7.293-0.27c0.89-3.634,1.231-4.391,4.876-5.564
		c0.832-0.267,1.229-0.855,1.376-1.654c0.075-0.406-0.035-0.752-0.449-0.973c-0.727-0.386-1.405-0.39-2.015,0.205
		c-1.403,1.373-3.144,2.059-5.016,2.472c-0.423,0.094-0.935,0.433-1.228-0.177c-0.262-0.545,0.124-0.842,0.534-1.121
		c0.252-0.173,0.497-0.385,0.678-0.63c1.291-1.747,3.009-2.21,5.1-1.907c0.957,0.14,1.77-0.521,2.438-1.152
		c0.442-0.417-0.086-0.753-0.369-1.038c-0.292-0.294-0.803-0.488-0.683-0.985c0.146-0.606,0.775-0.475,1.18-0.487
		c0.993-0.031,2.312-0.397,2.913-0.024c1.315,0.811,2.937,0.461,4.104,1.417c0.438,0.358,0.932,0.566,1.442,0.691
		c1.999,0.485,2.876,2.262,4.24,3.502c1.944,1.77,2.691,3.951,2.816,6.409c0.083,1.641,0.263,3.414-0.235,4.919
		c-1.16,3.503-3.652,5.86-7.099,7.365C5.552,11.765,3.771,11.475,2.227,11.876z"/>
	<path fill="#DDECD3" d="M5.421-9.244c1.052,0.347,2.164,0.307,2.891,1.271c0.445,0.596,1.213,0.751,1.79,1.202
		c0.638,0.5,0.953,1.045,1.181,1.749c0.31,0.953,0.698,1.86,1.205,2.744c0.638,1.108,0.457,2.398,0.373,3.636
		c-0.104,1.479-0.854,2.58-1.701,3.776c-0.685,0.963-1.438,1.85-2.164,2.771c-0.63,0.793-1.4,0.997-2.247,0.365
		C6.354,7.975,6.108,7.972,5.73,8.213C4.092,9.268,2.407,8.948,0.731,8.321C0.298,8.16-0.086,7.866-0.521,7.715
		c-1.189-0.41-1.686-1.229-1.946-2.461c-0.312-1.458-0.931-2.896-1.938-4.016c-0.786-0.872-0.549-1.688-0.15-2.434
		C-3.93-2.37-2.784-3.112-1.743-3.898c0.566-0.429,1.017-1.056,1.812-1.186c1.42-0.23,2.354,0.438,3.119,1.528
		C4.104-2.25,4.146-0.91,3.535,0.539C3.003,1.797,3.751,2.582,5.121,2.5C7.078,2.387,8.021,0.75,8.237-1.739
		c0.128-1.46-0.033-2.788-1.203-3.913C6.422-6.24,5.96-7.09,5.962-8.024C5.963-8.503,5.471-8.689,5.421-9.244z"/>
	<polygon fill="#242C47" points="-17.943,-5.429 -17.941,-5.435 -17.942,-5.436 	"/>
	<path fill="#242C47" d="M19.575,0.934l-0.012-0.002c-0.585-9.503-6.879-17.474-16.508-18.66
		c-8.863-1.095-18.422,3.618-21.117,12.665c0.001-0.002,0.002,0,0.003-0.002c-0.628,1.69-1.05,3.76-1.237,5.565
		c-0.146,1.396-0.781,5.054,0.36,6.132c0.828-0.407,0.563-0.979,0.99,0.145c0.427,1.127,0.116,2.453,0.375,3.623
		c0.097,0.44,0.297,3.503,1.149,2.97c1.341-0.839,1.369,1.521,1.779,2.269c-0.012-0.01-0.023-0.02-0.035-0.027
		c0.071,1.34,1.063,3.164,2.016,3.822l0,0c0.688,2.85,3.411,5.112,5.896,6.401c1.364,0.71,2.886,1.248,4.429,1.353
		c1.73,0.117,3.627,0.792,5.328,0.219c-2.454-1.295-5.011-4.673-3.021-7.537c0.646-0.931,7.253-3.09,7.259-3.067
		c0.626-0.191,1.05,0.173,1.669,0.048c1.005-0.205,1.981-0.541,2.897-1.003c1.538-0.775,2.875-1.897,3.981-3.21
		C18.548,9.352,19.81,5.199,19.575,0.934z M16.24,9.222c-0.823,2.387-1.289,2.121-3.058,3.985c-0.838,0.885-1.694,1.235-2.787,1.781
		c-1.13,0.562-1.58,0.232-2.71,0.618c0,0-0.892,0-0.281,0.45c-2.2,0.219-5.299,0.633-7.188,1.796
		c-1.629,1.001-2.263,3.311-2.168,5.031c0.057,0.971,1.699,3.786-0.617,2.516c-1.192-0.653-2.479-0.453-3.757-0.968
		c-2.305-0.931-3.667-2.929-4.991-4.915c-0.492-1.05-1.531-2.004-2.452-3.055c-0.172-1.321-0.763-2.566-1.226-3.805
		c-0.182-0.466-0.336-0.938-0.464-1.423c-0.222-0.898-0.771-0.032-1.234-0.14c-0.098-0.788-0.599-7.413-1.071-7.303
		C-20.003,4.311-18.077-1.799-18-2.946c0.061-0.879,0.896-1.802,0.896-1.809c1.479-3.41,4.091-6.477,7.041-8.725
		c4.653-3.547,9.184-3.482,14.771-2.732c4.273,0.573,8.979,5.141,11.146,8.747c2.541,4.228,3.057,8.99,1.472,13.587
		C17.003,7.053,16.951,7.159,16.24,9.222z"/>
</g>
</svg>
