<?xml version="1.0" encoding="utf-8"?>
<!-- Generator: Adobe Illustrator 26.5.0, SVG Export Plug-In . SVG Version: 6.00 Build 0)  -->
<svg version="1.1" xmlns="http://www.w3.org/2000/svg" xmlns:xlink="http://www.w3.org/1999/xlink" x="0px" y="0px"
	 viewBox="0 0 841.9 595.3" style="enable-background:new 0 0 841.9 595.3;" xml:space="preserve">
<style type="text/css">
	.st0{fill:#3C3544;}
	.st1{fill:#829E3C;}
	.st2{fill:#6E8A44;}
	.st3{fill:#B9C67E;}
	.st4{fill:#5B6F31;}
	.st5{fill:#E5D5D0;}
	.st6{fill:#E3E491;}
	.st7{opacity:0.5;fill:#674145;enable-background:new    ;}
	.st8{fill:#674145;}
	.st9{fill:#746282;}
	.st10{fill:#948FAB;}
	.st11{fill:#9BB0D0;}
	.st12{fill:#D1BCD8;}
	.st13{fill:#BB8AAF;}
	.st14{opacity:0.6;fill:#D2C6A4;enable-background:new    ;}
	.st15{opacity:0.6;fill:#F3F2C5;enable-background:new    ;}
	.st16{fill:#F6DBE9;}
	.st17{fill:#1D2A19;}
	.st18{fill:#50612D;}
	.st19{fill:#85903D;}
	.st20{opacity:0.7;}
	.st21{fill:#D6D22F;}
	.st22{fill:none;stroke:#000000;stroke-width:2;stroke-miterlimit:10;}
</style>
<g id="Background_1_">
	<rect id="Back" x="0.7" y="-0.3" class="st0" width="595.6" height="842.9"/>
	<g id="Moon">
		<path class="st1" d="M194.9,719.8c-137.6-39-101.2-35.5-194.2-36.5l1.1,159.4h336.9c3,2.1,46.3,0,46.3,0S332.6,758.8,194.9,719.8z
			"/>
		<g>
			<path class="st2" d="M338.8,841.7c-3-2.1-9-13.4-23.2-7.4c-14.1,6-36.9-17-43.4-22s-38.5-19.5-57.6,0c-19.2,19.5-40.8,3-61.9-8.5
				c-21-11.5-14.5-17-45.4-4s-33.1,3-48.2,3.5c-15.1,0.5-70.9-21-53.3-56.5c17.6-35.5-4-34-4-34l-0.2-6l-0.9-0.2v136h351
				C345.1,842.7,339.8,842.4,338.8,841.7z"/>
			<path class="st2" d="M352.1,840.3h16.9l-0.4-0.3C363.1,840.2,357.2,840.3,352.1,840.3z"/>
		</g>
		<path class="st3" d="M0.5,679.4c0,0,57.6-19,211,40.7c111.4,43.3,126.6,56.7,179.7,122.6l-33.8-0.6c0,0-19.8-56.1-66.3-80.1
			c-46.5-23.9-92.6-24.7-127.2-44.3c-65.9-37.5-19.7-1.7-119.9-32.5C28.3,680.3,0,685.4,0,685.4L0.5,679.4z"/>
		<path class="st2" d="M88.3,722.4c28,18.5,36.9,36.7,14.1,56c-22.8,19.3-37.2,10.7-44.3,7.3c-7.1-3.3-65.5-30.3-24.4-59.3
			C55.4,711,80.1,717,88.3,722.4z"/>
		<path class="st4" d="M31,732.2c21.7-15.3,46.5-9.4,54.6-4c19.1,12.6,29.3,25,26.6,37.8c8.4-15.1-1.8-29.7-24.1-44.4
			c-8.2-5.4-32.9-11.3-54.6,4c-9,6.3-13.2,12.6-14.2,18.5C21.5,740.2,25.3,736.2,31,732.2z"/>
		<path class="st3" d="M18.2,739.5c1.2-2.9,5.9-8.1,3.8-0.6c-2.1,7.5-3.8,21.4,6.9,28.1c10.7,6.7,40.1,23,56.5,18.7
			c16.4-4.3,14.7-5.3,15.6-5.9s7.7-3.2,1.8,1.1c-5.9,4.3-16.6,11.6-28.2,10.4c-11.6-1.3-42-15.6-50.1-23.6
			C16.3,759.6,13.8,750.5,18.2,739.5z"/>
		<path class="st2" d="M203.1,767.5c20.6,12.1,27.2,24,10.4,36.7c-16.8,12.7-27.4,7-32.6,4.8c-5.2-2.2-48.2-19.9-18-38.9
			C178.9,760,197.1,763.9,203.1,767.5z"/>
		<path class="st4" d="M162.8,775.9c16-10.1,31.8-6.5,37.8-3c14,8.2,22.2,14.8,20.2,23.2c6.1-9.9-1.3-19.4-17.8-29.1
			c-6-3.5-24.2-7.4-40.2,2.6c-6.6,4.1-9.7,8.2-10.5,12.1C154,779.2,158.6,778.5,162.8,775.9z"/>
		<path class="st3" d="M151.5,778.7c0.9-1.9,6.7-5.1,5.2-0.2c-1.5,4.9-1.9,12.3,6,16.7c7.9,4.4,28.1,14.2,40.2,11.4
			c12.1-2.8,8.7-3,9.6-1.5c0.4,0.7,5.6-2.1,1.3,0.7c-4.3,2.8-12.2,7.6-20.8,6.8c-8.6-0.8-30.9-10.2-36.9-15.5
			C150.1,791.9,148.2,785.9,151.5,778.7z"/>
		<path class="st4" d="M74.5,758.5c-6.7,3.3-12.7-2.3-13.3-5c-1.6-7-5.6-7.2-4.3-10.6c-3,3.8-3.9,12.1,1.8,17.1
			c2.1,1.8,8.8,4.5,15.5,1.1c2.8-1.4,4.2-2.9,4.7-4.5C78,757.7,76.2,757.7,74.5,758.5z"/>
		<path class="st3" d="M78.9,757.8c-0.4,0.7-9.2,0.8-8.3-1.2c0.9-2,1.6-5.4-1.1-7.7c-2.7-2.3-5.2-2.9-10-2.4c-4.8,0.5-2-2.6-2.2-3.3
			c-0.1-0.3-2.3,0.6-0.4-0.4c1.8-0.9,5.1-2.5,8.4-1.7c3.2,0.8,11.2,6,13.1,8.6C80.2,752.4,80.6,755,78.9,757.8z"/>
		<path class="st2" d="M295.3,778c10.4,8.1,13.1,15.1,3,20.8c-10.1,5.7-15.5,1.8-18.2,0.3c-2.7-1.6-24.9-14.4-7-22.5
			C282.6,772.1,292.2,775.6,295.3,778z"/>
		<path class="st4" d="M272.6,779.6c9.5-4.3,17.8-1.3,20.9,1.1c7.1,5.5,11,9.7,9.4,14.1c4.1-5,0.7-10.7-7.6-17.2
			c-3-2.4-12.7-5.8-22.2-1.5c-3.9,1.8-5.9,3.8-6.6,5.8C267.6,780.8,270.1,780.8,272.6,779.6z"/>
		<path class="st3" d="M266.3,780.3c0.6-1,4.1-2.3,2.9,0.3c-1.2,2.6-1.9,6.6,2.1,9.6c4,3,14.3,9.8,21.1,9.1c6.8-0.7,5-1,5.3-0.1
			c0.2,0.4,3.2-0.7,0.7,0.5c-2.6,1.2-7.2,3.3-11.9,2.2c-4.6-1.1-16.1-7.8-19-11.1C264.5,787.4,264,784,266.3,780.3z"/>
	</g>
	<g id="Stars">
		<path class="st5" d="M321.8,587.4c-0.1,1.4-0.7,2.5-2.1,2.6c-2,0.2-2.6-1.4-2.9-2.9c-0.3-1.5,1.2-1.7,2.1-1.9
			C320.5,584.9,321.4,585.9,321.8,587.4z"/>
		<path class="st6" d="M119.4,361.6c-0.1,1.3-0.8,2.2-2,2.2c-1.4,0-2.3-1-2.2-2.4c0.1-1.2,0.9-2,2.2-2
			C118.6,359.5,119.2,360.4,119.4,361.6z"/>
		<path class="st5" d="M256.3,526.6c-0.2,0.4-0.4,0.7-0.5,1.1c-0.2,0.3-0.4,0.5-0.7,0.7l-0.1,0c-2,0.3-3.6-0.2-4.1-2.4
			c-0.4-1.4,0.4-2.5,1.5-3.1c2.4-1.2,3,1,4.2,2.2c-0.2,0.2-0.2,0.4,0,0.5C256.5,526,256.4,526.3,256.3,526.6z"/>
		<path class="st5" d="M197,470.3c-0.1,0.5-0.3,1-0.5,1.5c-1.2,1-2.4,2-3.9,0.5c-0.7-0.7-1-1.6-0.6-2.6c0.8-1.8,2.3-1.6,3.8-1.4
			c0.2,0.1,0.4,0.3,0.6,0.4C197.7,469,197.3,469.7,197,470.3z"/>
		<path class="st5" d="M350.6,528c1.2,0.4,1.7,1.3,1.6,2.5c-0.1,0.9-0.6,1.6-1.6,1.5c-1.4-0.2-1.7-1.3-1.6-2.5
			C349.1,528.6,349.5,528,350.6,528z"/>
		<path class="st5" d="M247.7,588.2c0.8-1.6-0.6-5.4,3.5-3.6c1.4,0.6,2.1,2,1.4,3.5c-0.9,2.1-2.6,1.7-4.2,1.2
			C248.2,588.9,247.9,588.5,247.7,588.2z"/>
		<path class="st5" d="M243.5,662.7c-0.1,1.9-0.9,3.1-2.5,3c-1.5-0.1-2.5-1.3-2.5-2.8c0-1.4,1-2.4,2.3-2.5
			C242.5,660.4,243.2,661.6,243.5,662.7z"/>
		<path class="st5" d="M429.3,833.6c-0.6,1.5-1.2,2.7-2.7,2.5c-1.6-0.2-2.3-1.4-2.2-3c0.1-1.3,0.9-2.1,2.2-2
			C428.2,831.2,428.8,832.4,429.3,833.6z"/>
		<path class="st5" d="M318.6,704.8c-0.1,2.1-0.9,3.6-3.3,2.8c-1.4-0.5-2.2-1.9-1.4-3.4c1.4-2.3,3-1.2,4.5,0
			C318.3,704.5,318.4,704.7,318.6,704.8z"/>
		<path class="st5" d="M459.4,719c-0.2,1.5-1.2,1.7-2.4,1.5c-1.2-0.2-2.4-0.4-2.4-1.8c0-1.8,1.6-1.6,2.8-1.7
			C458.7,717,459.3,717.8,459.4,719z"/>
		<path class="st5" d="M426.3,751.1c-0.3,1.2-0.9,2.1-1.9,2c-1.1-0.1-2-1-1.9-2.3c0.1-1.1,0.8-1.8,1.9-1.8
			C425.7,749.1,426.1,750.1,426.3,751.1z"/>
		<path class="st5" d="M480.5,668.1c1.6,1.3,1.7,2.6,0.4,4.2c-1.4,0.1-2.5-0.5-2.6-1.9C478,668.7,479.1,668.2,480.5,668.1z"/>
		<path class="st5" d="M490.3,721.2c-0.1,1.1-0.5,1.9-1.7,2c-1.2,0.1-1.8-0.8-1.9-1.8c-0.2-1.2,0.5-1.9,1.6-2
			C489.5,719.3,490,720.1,490.3,721.2z"/>
		<path class="st5" d="M54.6,517.5l0,0.3c-0.1,0.7-0.5,1.1-1.2,1.3c-0.4,0.2-0.9,0.4-1.3,0.5c-1.8-0.6-3.4-1.6-3-3.9
			c0.2-1.3,1.3-2.4,2.7-2.3C54.2,513.7,54.3,515.7,54.6,517.5z"/>
		<path class="st5" d="M120.3,534.5c-0.2,1.2-0.8,1.9-1.9,1.9c-1.3,0-2-0.9-1.9-2.2c0.1-1.1,0.8-1.9,1.9-1.8
			C119.6,532.5,120.3,533.3,120.3,534.5z"/>
		<path class="st5" d="M217.1,548.3c-1.1-0.1-1.8-0.8-1.9-1.9c0-1.2,0.7-1.8,1.9-1.8c1,0,1.5,0.7,1.6,1.6
			C218.8,547.3,218.2,548,217.1,548.3z"/>
		<path class="st5" d="M156.3,537.6c-1.8,0.4-3.1,0.1-2.9-2.1c0.1-0.9,0.8-1.6,1.7-1.5c2.1,0.3,2,1.8,1.5,3.4L156.3,537.6z"/>
		<path class="st5" d="M71.6,481.4c-0.3,1.2-0.9,2-2,1.8c-1.1-0.1-1.7-0.9-1.6-2c0.1-1.1,0.8-1.8,1.9-1.7
			C71.1,479.6,71.4,480.6,71.6,481.4z"/>
		<path class="st5" d="M158.7,618.7c-1.5-0.2-2.3-1-2.4-2.4c-0.1-1.3,0.6-2.2,1.9-2.4c1.5-0.2,2.3,0.8,2.6,2.1
			C160.9,617.5,160.1,618.4,158.7,618.7z"/>
		<path class="st5" d="M100.6,617.3c-0.8-1.4-1.7-2.9,0.4-3.8c1.2-0.5,2.3,0.4,2.5,1.6C104,617.6,102.3,617.5,100.6,617.3
			L100.6,617.3z"/>
		<path class="st5" d="M128.5,599.8c-0.2,1-0.6,1.8-1.6,1.8c-1.2,0-1.8-0.7-1.8-1.8c0-0.9,0.5-1.6,1.5-1.6
			C127.7,598.1,128.3,598.9,128.5,599.8z"/>
		<path class="st5" d="M235.5,580.1l-0.1-0.3l-0.3,0c0.6-1.2-0.5-1.7-0.9-2.6c-0.7-1.5-0.2-2.7,1.1-3.5c1.4-0.9,2.4-0.1,3.2,0.9
			c0.9,1.3,0.6,2.5-0.6,3.7C237.2,579,235.6,578.6,235.5,580.1z"/>
		<path class="st5" d="M310.7,667.3c-1,0.1-2,0.1-2.9,0.1c0,0-0.1,0-0.1,0c-0.4-0.1-0.6-0.4-0.7-0.8l-0.1-0.1
			c-0.8-0.3-0.9-0.9-0.6-1.6c0-0.4,0-0.9,0.1-1.4c-0.3-0.5-0.1-0.9,0.5-0.9c0.9-0.4,1.8-0.8,2.7-1.2c0.6-0.1,1.1-0.2,1.3,0.6
			c0.4,0.5,0.8,0.9,1.2,1.4C311.9,664.9,311.7,666.2,310.7,667.3z"/>
		<path class="st5" d="M267.5,569.7c-0.5,0.5-1,1-1.5,1.6c-2.6,0-3.5-1.5-3.6-3.8c0.6-0.6,1.3-1.2,1.9-1.7c0.2-0.6,0.5-0.7,0.9-0.1
			l0.2,0.1l0.2-0.1C267.6,566.3,269,567.3,267.5,569.7z"/>
		<path class="st5" d="M220.5,545c-0.3,2.7-1.7,4.6-4.2,4.6c-2.3,0-3.8-1.9-3.9-4.2c-0.1-2.4,1.7-4.2,3.9-4.2
			C218.3,541.1,219.9,542.8,220.5,545z"/>
		<path class="st5" d="M278.2,538.2c0.3-1.9,1.3-3.3,3.2-3.2c1.8,0.1,3.2,1.3,3.1,3.3c-0.1,1.8-1.1,3.3-3.1,3.2
			C279.6,541.4,278.5,540.1,278.2,538.2z"/>
		<path class="st5" d="M261.4,669.3c-2.2,0.6-3.1,3.2-5.4,2.7c-1.9-0.5-3.6-1.8-3.1-4.2c0.3-1.9,1.7-3.5,3.7-3.2
			C258.9,664.9,259.9,667.1,261.4,669.3z"/>
		<path class="st5" d="M261.2,663.9c-0.8-0.5-2.1-0.2-1.8-1.7c0.3-1.2,0.7-2.2,2-2.2c1.1,0,1.8,0.9,1.8,2
			C263.2,663.2,262.3,663.8,261.2,663.9z"/>
		<path class="st5" d="M387.3,657.5c2,0.1,4.8,3.9,4.4,6c-0.4,2.3-2.8,1.6-4.1,1.7c-2.2,0.2-3.9-1.5-3.9-3.9
			C383.8,659.2,385.4,658,387.3,657.5z"/>
		<path class="st5" d="M318.7,681.4c-0.3,1.3-1.2,2.2-2.6,1.9c-2.3-0.5-2.7-2.6-3.1-4.5c-0.3-1.5,1.1-1.4,2-1.3
			C317.2,677.7,318.9,679.6,318.7,681.4z"/>
		<path class="st5" d="M138.5,640.7c0.3,0,0.5,0.1,0.8,0.1c2.2,0.3,2.9,1.6,2.2,3.5c-0.4,1.1-1.6,1.7-2.8,1
			C136.5,644,137.3,642.3,138.5,640.7C138.4,640.7,138.5,640.7,138.5,640.7z"/>
		<path class="st5" d="M336.9,610.2c-0.2,2.2-1.3,3.6-3.4,3.6c-1.8-0.1-3.1-1.4-3.2-3.2c-0.1-2,1-3.7,3.1-3.7
			C335.3,606.9,336.5,608.3,336.9,610.2z"/>
		<path class="st5" d="M398.4,588c-1.5-0.1-2.3-0.8-2.4-2c-0.2-1.5,0.7-2.5,2.1-2.4c1.2,0,2,0.9,2.1,2.2
			C400.2,587,399.5,587.8,398.4,588z"/>
		<path class="st5" d="M451.4,440.6c-0.2,0.3-0.3,0.6-0.5,1c-0.2,0.2-0.4,0.4-0.6,0.6l-0.1,0c-1.8,0.2-3.1-0.2-3.6-2.1
			c-0.3-1.2,0.3-2.2,1.4-2.7c2.1-1,2.7,0.9,3.7,2c-0.2,0.2-0.2,0.3,0,0.5C451.6,440.1,451.5,440.3,451.4,440.6z"/>
		<path class="st5" d="M399.7,391.5c-0.1,0.4-0.3,0.9-0.4,1.3c-1,0.9-2.1,1.7-3.4,0.4c-0.6-0.6-0.9-1.4-0.5-2.3
			c0.7-1.6,2-1.4,3.3-1.2c0.2,0.1,0.4,0.3,0.6,0.4C400.3,390.3,399.9,390.9,399.7,391.5z"/>
		<path class="st5" d="M526.1,315.9c1,0.3,1.5,1.1,1.4,2.2c0,0.8-0.5,1.4-1.4,1.3c-1.2-0.2-1.5-1.1-1.4-2.1
			C524.7,316.5,525.1,315.9,526.1,315.9z"/>
		<path class="st5" d="M443.9,494.4c0.7-1.4-0.5-4.7,3.1-3.2c1.2,0.5,1.8,1.7,1.3,3.1c-0.7,1.9-2.2,1.5-3.7,1.1
			C444.3,495,444.1,494.7,443.9,494.4z"/>
		<path class="st5" d="M440.2,559.5c-0.1,1.6-0.8,2.7-2.2,2.6c-1.3-0.1-2.2-1.1-2.2-2.4c0-1.2,0.8-2.1,2-2.2
			C439.3,557.4,439.9,558.4,440.2,559.5z"/>
		<path class="st5" d="M594.7,582.6c-0.5,1.3-1.1,2.3-2.4,2.2c-1.4-0.2-2-1.2-1.9-2.6c0.1-1.1,0.8-1.8,1.9-1.8
			C593.8,580.5,594.3,581.6,594.7,582.6z"/>
		<path class="st5" d="M495.2,472.3c-0.1,1.8-0.8,3.2-2.9,2.5c-1.3-0.4-1.9-1.6-1.2-2.9c1.2-2,2.6-1.1,3.9,0
			C494.9,472,494.9,472.2,495.2,472.3z"/>
		<path class="st5" d="M534.9,541.6c-0.2,1.3-1,1.5-2.1,1.3c-1-0.1-2.1-0.3-2.1-1.6c0-1.6,1.4-1.4,2.4-1.5
			C534.4,539.8,534.9,540.5,534.9,541.6z"/>
		<path class="st5" d="M506.1,569.6c-0.2,1.1-0.8,1.8-1.7,1.7c-1-0.1-1.7-0.9-1.7-2c0-0.9,0.7-1.6,1.6-1.5
			C505.5,567.8,505.9,568.8,506.1,569.6z"/>
		<path class="st5" d="M553.3,497.1c1.4,1.1,1.5,2.3,0.3,3.6c-1.2,0-2.2-0.4-2.3-1.7C551.2,497.7,552.2,497.3,553.3,497.1z"/>
		<path class="st5" d="M561.9,543.4c0,0.9-0.4,1.6-1.5,1.7c-1,0.1-1.5-0.7-1.7-1.6c-0.2-1,0.4-1.7,1.4-1.7
			C561.2,541.8,561.7,542.5,561.9,543.4z"/>
		<path class="st5" d="M230.7,538.5c-0.1,1.1-0.7,1.9-1.7,1.9c-1.2,0-2-0.9-1.9-2.1c0.1-1.1,0.8-1.8,1.9-1.7
			C230.1,536.6,230.6,537.4,230.7,538.5z"/>
		<path class="st5" d="M275.4,432.7l0,0.3c-0.1,0.6-0.4,1-1.1,1.1c-0.4,0.2-0.8,0.3-1.2,0.5c-1.6-0.6-3-1.4-2.6-3.4
			c0.2-1.1,1.1-2.1,2.3-2C275,429.4,275.1,431.1,275.4,432.7z"/>
		<path class="st5" d="M409.5,333.6c-1-0.1-1.6-0.7-1.6-1.7c0-1,0.6-1.6,1.6-1.6c0.9,0,1.3,0.6,1.4,1.4
			C411,332.8,410.5,333.4,409.5,333.6z"/>
		<path class="st5" d="M290.2,401.1c-0.3,1.1-0.8,1.7-1.8,1.6c-1-0.1-1.5-0.8-1.4-1.8c0.1-1,0.7-1.5,1.7-1.5
			C289.8,399.6,290,400.5,290.2,401.1z"/>
		<path class="st5" d="M472.7,399c-0.1,1.2-0.6,2.2-1.9,2.3c-1.7,0.1-2.3-1.2-2.5-2.5c-0.2-1.3,1.1-1.5,1.8-1.7
			C471.6,396.8,472.4,397.7,472.7,399z"/>
		<path class="st5" d="M366.2,521c-1.3-0.1-2-0.9-2.1-2.1c-0.1-1.1,0.5-1.9,1.6-2.1c1.3-0.2,2,0.7,2.2,1.9
			C368.2,520,367.4,520.7,366.2,521z"/>
		<path class="st5" d="M315.5,519.8c-0.7-1.2-1.5-2.5,0.4-3.3c1.1-0.4,2,0.4,2.2,1.4C318.5,520,317,519.9,315.5,519.8L315.5,519.8z"
			/>
		<path class="st5" d="M339.8,504.5c-0.2,0.9-0.5,1.6-1.4,1.6c-1,0-1.6-0.6-1.6-1.6c0-0.8,0.4-1.4,1.3-1.4
			C339.2,503.1,339.6,503.7,339.8,504.5z"/>
		<path class="st5" d="M433.3,487.3l-0.1-0.3l-0.3,0c0.5-1-0.5-1.5-0.8-2.2c-0.6-1.3-0.2-2.4,1-3.1c1.2-0.8,2.1-0.1,2.8,0.8
			c0.8,1.2,0.5,2.2-0.5,3.2C434.8,486.4,433.4,486,433.3,487.3z"/>
		<path class="st5" d="M491.2,437.5c-0.9,0-1.7,0.1-2.6,0.1c0,0-0.1,0-0.1,0c-0.4-0.1-0.6-0.3-0.6-0.7l-0.1-0.1
			c-0.7-0.3-0.8-0.8-0.5-1.4c0-0.4,0-0.8,0.1-1.2c-0.2-0.5-0.1-0.7,0.4-0.8c0.8-0.4,1.6-0.7,2.3-1.1c0.5-0.1,1-0.2,1.1,0.5
			c0.4,0.4,0.7,0.8,1.1,1.2C492.3,435.4,492.1,436.6,491.2,437.5z"/>
		<path class="st5" d="M461.1,478.3c-0.4,0.5-0.9,0.9-1.3,1.4c-2.2,0-3-1.3-3.1-3.3c0.5-0.5,1.1-1,1.6-1.5c0.2-0.6,0.4-0.6,0.8-0.1
			l0.1,0.1l0.1-0.1C461.3,475.3,462.5,476.2,461.1,478.3z"/>
		<path class="st5" d="M420.1,456.7c-0.3,2.3-1.5,4-3.7,4c-2,0-3.4-1.7-3.4-3.6c-0.1-2.1,1.5-3.6,3.4-3.7
			C418.3,453.3,419.7,454.8,420.1,456.7z"/>
		<path class="st5" d="M462.9,324.8c0.3-1.6,1.2-2.9,2.8-2.8c1.5,0.1,2.8,1.1,2.7,2.8c-0.1,1.6-1,2.9-2.7,2.8
			C464,327.6,463.1,326.4,462.9,324.8z"/>
		<path class="st5" d="M449.7,556.1c-0.3,1.2-0.9,2.4-2.3,2.2c-1.3-0.1-2.1-1.2-2.1-2.5c0-1.4,0.9-2.3,2.3-2.2
			C448.8,553.6,449.6,554.6,449.7,556.1z"/>
		<path class="st5" d="M455.7,560.4c-0.7-0.5-1.9-0.1-1.6-1.5c0.2-1.1,0.6-1.9,1.8-2c1,0,1.5,0.8,1.6,1.7
			C457.4,559.8,456.6,560.4,455.7,560.4z"/>
		<path class="st5" d="M472,487.9c1.8,0.1,4.2,3.4,3.9,5.2c-0.4,2-2.5,1.4-3.6,1.5c-1.9,0.2-3.4-1.3-3.4-3.4
			C469,489.4,470.4,488.3,472,487.9z"/>
		<path class="st5" d="M495.2,451.9c-0.3,1.1-1.1,1.9-2.3,1.7c-2-0.4-2.4-2.3-2.7-3.9c-0.2-1.3,0.9-1.2,1.7-1.1
			C493.9,448.7,495.5,450.3,495.2,451.9z"/>
		<path class="st5" d="M348.6,540.2c0.2,0,0.5,0.1,0.7,0.1c1.9,0.2,2.6,1.4,1.9,3.1c-0.4,1-1.4,1.5-2.4,0.9
			C346.8,543.1,347.5,541.6,348.6,540.2C348.5,540.2,348.6,540.2,348.6,540.2z"/>
		<path class="st5" d="M514.1,387.7c-0.2,1.9-1.2,3.2-3,3.1c-1.6,0-2.7-1.2-2.8-2.8c-0.1-1.8,0.9-3.2,2.7-3.2
			C512.7,384.8,513.8,386,514.1,387.7z"/>
		<path class="st5" d="M567.8,368.3c-1.3-0.1-2-0.7-2.1-1.8c-0.2-1.3,0.6-2.2,1.8-2.1c1,0,1.8,0.8,1.8,1.9
			C569.3,367.4,568.7,368.1,567.8,368.3z"/>
		<path class="st5" d="M243.9,285c-0.2,0.3-0.3,0.6-0.5,1c-0.2,0.2-0.4,0.4-0.6,0.6l-0.1,0c-1.8,0.2-3.1-0.2-3.6-2.1
			c-0.3-1.2,0.3-2.2,1.4-2.7c2.1-1,2.7,0.9,3.7,2c-0.2,0.2-0.2,0.3,0,0.5C244.1,284.4,244,284.7,243.9,285z"/>
		<path class="st5" d="M192.2,235.9c-0.1,0.4-0.3,0.9-0.4,1.4c-1,0.9-2.1,1.7-3.4,0.4c-0.6-0.6-0.9-1.4-0.5-2.3
			c0.7-1.6,2-1.4,3.3-1.2c0.2,0.1,0.4,0.3,0.6,0.4C192.8,234.7,192.4,235.3,192.2,235.9z"/>
		<path class="st5" d="M318.6,160.3c1,0.3,1.5,1.1,1.4,2.2c0,0.8-0.5,1.4-1.4,1.3c-1.2-0.2-1.5-1.1-1.4-2.1
			C317.2,160.8,317.6,160.3,318.6,160.3z"/>
		<path class="st5" d="M387.2,427c-0.5,1.3-1.1,2.3-2.4,2.2c-1.4-0.2-2-1.2-1.9-2.6c0.1-1.1,0.8-1.8,1.9-1.8
			C386.3,424.9,386.8,426,387.2,427z"/>
		<path class="st5" d="M287.7,316.7c-0.1,1.8-0.8,3.2-2.9,2.5c-1.3-0.4-1.9-1.6-1.2-2.9c1.2-2,2.6-1.1,3.9,0
			C287.4,316.4,287.4,316.6,287.7,316.7z"/>
		<path class="st5" d="M327.4,386c-0.2,1.4-1,1.5-2.1,1.3c-1-0.1-2.1-0.3-2.1-1.6c0-1.6,1.4-1.4,2.4-1.5
			C326.9,384.2,327.4,384.9,327.4,386z"/>
		<path class="st5" d="M298.6,414c-0.2,1.1-0.8,1.8-1.7,1.7c-1-0.1-1.7-0.9-1.7-2c0.1-0.9,0.7-1.6,1.6-1.5
			C298,412.2,298.4,413.1,298.6,414z"/>
		<path class="st5" d="M345.8,341.5c1.4,1.1,1.5,2.3,0.3,3.6c-1.2,0-2.2-0.4-2.3-1.7C343.7,342.1,344.7,341.6,345.8,341.5z"/>
		<path class="st5" d="M354.4,387.8c0,0.9-0.4,1.6-1.5,1.7c-1,0.1-1.5-0.7-1.7-1.6c-0.2-1,0.4-1.7,1.4-1.7
			C353.7,386.2,354.2,386.9,354.4,387.8z"/>
		<path class="st5" d="M23.2,382.9c-0.1,1.1-0.7,1.9-1.7,1.9c-1.2,0-2-0.9-1.9-2.1c0.1-1.1,0.8-1.8,1.9-1.7
			C22.6,381,23.1,381.8,23.2,382.9z"/>
		<path class="st5" d="M67.9,277.1l0,0.3c-0.1,0.6-0.4,1-1.1,1.1c-0.4,0.2-0.8,0.3-1.2,0.5c-1.6-0.6-3-1.4-2.6-3.4
			c0.2-1.1,1.1-2.1,2.3-2C67.5,273.7,67.6,275.5,67.9,277.1z"/>
		<path class="st5" d="M117.6,166c-0.2,1-0.7,1.6-1.7,1.6c-1.2,0-1.7-0.8-1.7-1.9c0.1-0.9,0.7-1.6,1.6-1.6
			C116.9,164.2,117.5,164.9,117.6,166z"/>
		<path class="st5" d="M202,178c-1-0.1-1.6-0.7-1.6-1.7c0-1,0.6-1.6,1.6-1.6c0.9,0,1.3,0.6,1.4,1.4C203.5,177.1,203,177.8,202,178z"
			/>
		<path class="st5" d="M149,168.6c-1.5,0.4-2.7,0-2.6-1.8c0-0.8,0.7-1.4,1.5-1.3c1.9,0.3,1.8,1.6,1.3,2.9
			C149.2,168.5,149,168.6,149,168.6z"/>
		<path class="st5" d="M82.7,245.5c-0.3,1.1-0.8,1.7-1.8,1.6c-1-0.1-1.5-0.8-1.4-1.8c0.1-1,0.7-1.5,1.7-1.5
			C82.3,244,82.5,244.8,82.7,245.5z"/>
		<path class="st5" d="M265.2,243.4c-0.1,1.2-0.6,2.2-1.9,2.3c-1.7,0.1-2.3-1.2-2.5-2.5c-0.2-1.3,1.1-1.5,1.8-1.7
			C264.1,241.2,264.9,242,265.2,243.4z"/>
		<path class="st5" d="M158.7,365.4c-1.3-0.1-2-0.9-2.1-2.1c-0.1-1.1,0.5-1.9,1.6-2.1c1.3-0.2,2,0.7,2.2,1.9
			C160.7,364.4,159.9,365.1,158.7,365.4z"/>
		<path class="st5" d="M108,364.2c-0.7-1.2-1.5-2.5,0.4-3.3c1.1-0.4,2,0.4,2.2,1.4C111,364.4,109.5,364.3,108,364.2L108,364.2z"/>
		<path class="st5" d="M132.3,348.9c-0.2,0.9-0.5,1.6-1.4,1.6c-1,0-1.6-0.6-1.6-1.6c0-0.8,0.4-1.4,1.3-1.4
			C131.7,347.4,132.1,348.1,132.3,348.9z"/>
		<path class="st5" d="M283.8,281.9c-0.9,0-1.7,0.1-2.6,0.1c0,0-0.1,0-0.1,0c-0.4-0.1-0.6-0.3-0.6-0.7l-0.1-0.1
			c-0.7-0.3-0.8-0.8-0.5-1.4c0-0.4,0-0.8,0.1-1.2c-0.2-0.5-0.1-0.7,0.4-0.8c0.8-0.4,1.6-0.7,2.3-1.1c0.5-0.1,1-0.2,1.1,0.5
			c0.4,0.4,0.7,0.8,1.1,1.2C284.8,279.7,284.6,280.9,283.8,281.9z"/>
		<path class="st5" d="M212.6,301.1c-0.3,2.3-1.5,4-3.7,4c-2,0-3.4-1.7-3.4-3.6c-0.1-2.1,1.5-3.6,3.4-3.7
			C210.8,297.7,212.2,299.2,212.6,301.1z"/>
		<path class="st5" d="M255.4,169.2c0.3-1.6,1.2-2.9,2.8-2.8c1.5,0.1,2.8,1.1,2.7,2.8c-0.1,1.6-1,2.9-2.7,2.8
			C256.5,171.9,255.6,170.8,255.4,169.2z"/>
		<path class="st5" d="M245.4,411.6c-1.9,0.6-2.7,2.8-4.7,2.3c-1.6-0.4-3.1-1.6-2.8-3.7c0.3-1.7,1.5-3,3.2-2.8
			C243.2,407.8,244.1,409.7,245.4,411.6z"/>
		<path class="st5" d="M248.2,404.8c-0.7-0.5-1.9-0.1-1.6-1.5c0.2-1.1,0.6-1.9,1.8-2c1,0,1.5,0.8,1.6,1.7
			C249.9,404.2,249.1,404.7,248.2,404.8z"/>
		<path class="st5" d="M264.5,332.3c1.8,0.1,4.2,3.4,3.9,5.2c-0.4,2-2.5,1.4-3.6,1.5c-1.9,0.2-3.4-1.3-3.4-3.4
			C261.5,333.7,262.9,332.7,264.5,332.3z"/>
		<path class="st5" d="M141.1,384.6c0.2,0,0.5,0.1,0.7,0.1c1.9,0.2,2.6,1.4,1.9,3.1c-0.4,1-1.4,1.5-2.4,0.9
			C139.3,387.4,140,386,141.1,384.6C141,384.6,141.1,384.6,141.1,384.6z"/>
		<path class="st5" d="M306.6,232.1c-0.2,1.9-1.2,3.2-3,3.1c-1.6,0-2.7-1.2-2.8-2.8c-0.1-1.8,0.9-3.2,2.7-3.2
			C305.2,229.1,306.3,230.4,306.6,232.1z"/>
		<path class="st5" d="M360.3,212.7c-1.3-0.1-2-0.7-2.1-1.8c-0.2-1.3,0.6-2.2,1.8-2.1c1,0,1.8,0.8,1.8,1.9
			C361.8,211.8,361.2,212.5,360.3,212.7z"/>
		<path class="st5" d="M439.3,150.5c-0.2,0.3-0.3,0.6-0.5,1c-0.2,0.2-0.4,0.4-0.6,0.6l-0.1,0c-1.8,0.2-3.1-0.2-3.6-2.1
			c-0.3-1.2,0.3-2.2,1.4-2.7c2.1-1,2.7,0.9,3.7,2c-0.2,0.2-0.2,0.3,0,0.5C439.5,150,439.4,150.3,439.3,150.5z"/>
		<path class="st5" d="M387.6,101.4c-0.1,0.4-0.3,0.9-0.4,1.3c-1,0.9-2.1,1.7-3.4,0.4c-0.6-0.6-0.9-1.4-0.5-2.3
			c0.7-1.6,2-1.4,3.3-1.2c0.2,0.1,0.4,0.3,0.6,0.4C388.2,100.2,387.8,100.9,387.6,101.4z"/>
		<path class="st5" d="M514,25.8c1,0.3,1.5,1.1,1.4,2.2c-0.1,0.8-0.5,1.4-1.4,1.3c-1.2-0.2-1.5-1.1-1.4-2.1
			C512.6,26.4,513,25.8,514,25.8z"/>
		<path class="st5" d="M428.1,269.4c-0.1,1.6-0.8,2.7-2.2,2.6c-1.3-0.1-2.2-1.1-2.2-2.4c0-1.2,0.8-2.1,2-2.2
			C427.2,267.3,427.8,268.4,428.1,269.4z"/>
		<path class="st5" d="M582.6,292.5c-0.5,1.3-1.1,2.3-2.4,2.2c-1.4-0.2-2-1.2-1.9-2.6c0.1-1.1,0.8-1.8,1.9-1.8
			C581.7,290.4,582.2,291.5,582.6,292.5z"/>
		<path class="st5" d="M483.1,182.2c-0.1,1.8-0.8,3.2-2.9,2.5c-1.3-0.4-1.9-1.7-1.2-2.9c1.2-2,2.6-1.1,3.9,0
			C482.8,182,482.8,182.1,483.1,182.2z"/>
		<path class="st5" d="M522.8,251.5c-0.2,1.4-1,1.5-2.1,1.3c-1-0.1-2.1-0.3-2.1-1.6c0-1.6,1.4-1.4,2.4-1.5
			C522.3,249.7,522.8,250.4,522.8,251.5z"/>
		<path class="st5" d="M494,279.5c-0.2,1.1-0.8,1.8-1.7,1.7c-1-0.1-1.7-0.9-1.7-2c0-0.9,0.7-1.6,1.6-1.5
			C493.4,277.8,493.8,278.7,494,279.5z"/>
		<path class="st5" d="M541.2,207c1.4,1.1,1.5,2.3,0.3,3.6c-1.2,0-2.2-0.4-2.3-1.7C539.1,207.6,540.1,207.2,541.2,207z"/>
		<path class="st5" d="M549.8,253.4c0,0.9-0.4,1.6-1.5,1.7c-1,0.1-1.5-0.7-1.7-1.6c-0.2-1,0.4-1.7,1.4-1.7
			C549.1,251.7,549.6,252.4,549.8,253.4z"/>
		<path class="st5" d="M218.6,248.4c-0.1,1.1-0.7,1.9-1.7,1.9c-1.2,0-2-0.9-1.9-2.1c0.1-1.1,0.8-1.8,1.9-1.7
			C218,246.6,218.5,247.4,218.6,248.4z"/>
		<path class="st5" d="M263.3,142.6l0,0.3c-0.1,0.6-0.4,1-1.1,1.1c-0.4,0.2-0.8,0.3-1.2,0.5c-1.6-0.6-3-1.4-2.6-3.4
			c0.2-1.1,1.1-2.1,2.3-2C262.9,139.3,263,141.1,263.3,142.6z"/>
		<path class="st5" d="M312.9,31.6c-0.2,1-0.7,1.6-1.7,1.6c-1.2,0-1.7-0.8-1.7-1.9c0.1-0.9,0.7-1.6,1.6-1.6
			C312.3,29.8,312.9,30.5,312.9,31.6z"/>
		<path class="st5" d="M397.4,43.5c-1-0.1-1.6-0.7-1.6-1.7c0-1,0.6-1.6,1.6-1.6c0.9,0,1.3,0.6,1.4,1.4
			C398.9,42.7,398.4,43.3,397.4,43.5z"/>
		<path class="st5" d="M344.4,34.2c-1.5,0.4-2.7,0-2.6-1.8c0-0.8,0.7-1.4,1.5-1.3c1.9,0.3,1.8,1.6,1.3,2.9L344.4,34.2z"/>
		<path class="st5" d="M278.1,111.1c-0.3,1.1-0.8,1.7-1.8,1.6c-1-0.1-1.5-0.8-1.4-1.8c0.1-1,0.7-1.5,1.7-1.5
			C277.7,109.5,277.9,110.4,278.1,111.1z"/>
		<path class="st5" d="M460.6,108.9c-0.1,1.2-0.6,2.2-1.9,2.3c-1.7,0.1-2.3-1.2-2.5-2.5c-0.2-1.3,1.1-1.5,1.8-1.7
			C459.5,106.7,460.3,107.6,460.6,108.9z"/>
		<path class="st5" d="M354.1,230.9c-1.3-0.1-2-0.9-2.1-2.1c-0.1-1.1,0.5-1.9,1.6-2.1c1.3-0.2,2,0.7,2.2,1.9
			C356.1,229.9,355.3,230.7,354.1,230.9z"/>
		<path class="st5" d="M303.4,229.7c-0.7-1.2-1.5-2.5,0.4-3.3c1.1-0.4,2,0.4,2.2,1.4C306.4,229.9,304.9,229.8,303.4,229.7
			L303.4,229.7z"/>
		<path class="st5" d="M327.7,214.5c-0.2,0.9-0.5,1.6-1.4,1.6c-1,0-1.6-0.6-1.6-1.6c0-0.8,0.4-1.4,1.3-1.4
			C327.1,213,327.5,213.7,327.7,214.5z"/>
		<path class="st5" d="M479.1,147.4c-0.9,0-1.7,0.1-2.6,0.1c0,0-0.1,0-0.1,0c-0.4-0.1-0.6-0.3-0.6-0.7l-0.1-0.1
			c-0.7-0.3-0.8-0.8-0.5-1.4c0-0.4,0-0.8,0.1-1.2c-0.2-0.5-0.1-0.7,0.4-0.8c0.8-0.4,1.6-0.7,2.3-1.1c0.5-0.1,1-0.2,1.1,0.5
			c0.4,0.4,0.7,0.8,1.1,1.2C480.2,145.3,480,146.5,479.1,147.4z"/>
		<path class="st5" d="M408,166.6c-0.3,2.3-1.5,4-3.7,4c-2,0-3.4-1.7-3.4-3.6c-0.1-2.1,1.5-3.6,3.4-3.7
			C406.2,163.2,407.6,164.7,408,166.6z"/>
		<path class="st5" d="M450.8,34.7c0.3-1.6,1.2-2.9,2.8-2.8c1.5,0.1,2.8,1.1,2.7,2.8c-0.1,1.6-1,2.9-2.7,2.8
			C451.9,37.5,451,36.4,450.8,34.7z"/>
		<path class="st5" d="M440.8,277.2c-1.9,0.6-2.7,2.8-4.7,2.3c-1.6-0.4-3.1-1.6-2.8-3.7c0.3-1.7,1.5-3,3.2-2.8
			C438.6,273.4,439.5,275.3,440.8,277.2z"/>
		<path class="st5" d="M437.6,266c-0.3,1.2-0.9,2.4-2.3,2.2c-1.3-0.1-2.1-1.2-2.1-2.5c0-1.4,0.9-2.3,2.3-2.2
			C436.7,263.6,437.5,264.5,437.6,266z"/>
		<path class="st5" d="M443.6,270.4c-0.7-0.5-1.9-0.1-1.6-1.5c0.2-1.1,0.6-1.9,1.8-2c1,0,1.5,0.8,1.6,1.7
			C445.3,269.8,444.5,270.3,443.6,270.4z"/>
		<path class="st5" d="M336.4,250.1c0.2,0,0.5,0.1,0.7,0.1c1.9,0.2,2.6,1.4,1.9,3.1c-0.4,1-1.4,1.5-2.4,0.9
			C334.7,253,335.4,251.5,336.4,250.1C336.4,250.1,336.4,250.1,336.4,250.1z"/>
		<path class="st5" d="M502,97.6c-0.2,1.9-1.2,3.2-3,3.1c-1.6,0-2.7-1.2-2.8-2.8c-0.1-1.8,0.9-3.2,2.7-3.2
			C500.6,94.7,501.7,96,502,97.6z"/>
		<path class="st5" d="M555.7,78.2c-1.3-0.1-2-0.7-2.1-1.8c-0.2-1.3,0.6-2.2,1.8-2.1c1,0,1.8,0.8,1.8,1.9
			C557.2,77.4,556.6,78,555.7,78.2z"/>
		<path class="st5" d="M72.6,70.8l0,0.3c-0.1,0.6-0.4,1-1.1,1.1c-0.4,0.2-0.8,0.3-1.2,0.5c-1.6-0.6-3-1.4-2.6-3.4
			c0.2-1.1,1.1-2.1,2.3-2C72.2,67.4,72.3,69.2,72.6,70.8z"/>
		<path class="st5" d="M87.4,39.2c-0.3,1.1-0.8,1.7-1.8,1.6c-1-0.1-1.5-0.8-1.4-1.8c0.1-1,0.7-1.5,1.7-1.5
			C87,37.7,87.2,38.5,87.4,39.2z"/>
		<path class="st5" d="M95.8,52c-0.2,1.1-0.8,1.8-1.7,1.7c-1-0.1-1.7-0.9-1.7-2c0-0.9,0.7-1.6,1.6-1.5C95.2,50.3,95.6,51.2,95.8,52z
			"/>
		<path class="st5" d="M42.6,49.7c-1.9,0.6-2.7,2.8-4.7,2.3c-1.6-0.4-3.1-1.6-2.8-3.7c0.3-1.7,1.5-3,3.2-2.8
			C40.4,45.8,41.3,47.8,42.6,49.7z"/>
		<path class="st5" d="M45.4,42.9c-0.7-0.5-1.9-0.1-1.6-1.5c0.2-1.1,0.6-1.9,1.8-2c1,0,1.5,0.8,1.6,1.7
			C47.1,42.2,46.3,42.8,45.4,42.9z"/>
	</g>
	<g id="Nebula">
		<path class="st7" d="M0.7,232.2C86.5,275.7,145.4,432.9,218,363.3c72.6-69.6,137.1-70,174.8-12.8
			c37.7,57.2,83.1,312.4,200.8,251.1v119.6c0,0-40.1,64-112.6,28.5C432,725.8,461.1,615,362.8,610.4s22.2-105.9-72.3-56.8
			S99.4,601,150.5,555.9c51-45.1-1.3-63.3-45.8-72.7c-44.5-9.4-18.9-61-61-102.3C1.5,339.7,16.5,492.6,9,506.1
			c-5.4,9.8-7.3-136.9-7.9-219.5C0.8,254.6,0.7,232.2,0.7,232.2z"/>
		<path class="st7" d="M80.5,317.7c-44.4,3.4-50-12.6-49.3-25.3c1.3-24.2,11.5-45.2,3.3-32c-37.1,60-32.2-49.6-32.2-49.6v114.1
			c0,0,2.4,56.2,18.2,18.5c25.5-60.9,44.8,138.9,94.6,124.9c46.2-13,91.8,16.7,58.7,81.4c-33.1,64.7,88.3,1.7,77.9-23.6
			c-10.3-25.3,2.9-14.7,32.5-65.3c29.6-50.6,78.4,28.4,108.5-9.6c30.1-38-4.5,33.7-48-24.1c-57.8-76.8-181.7-18.2-217.1,2.2
			c-35.4,20.4-79-64.1-6.5-26.4c3.9,2,15.3-30.4-3.9-37.4C60.1,344.5,80.5,317.7,80.5,317.7z"/>
	</g>
	<g id="Starburst">
		<polygon class="st8" points="120.9,136.8 130.8,136.8 125.8,70.2 		"/>
		<polygon class="st8" points="120.9,186.5 130.8,186.5 125.8,253 		"/>
		<polygon class="st8" points="99.9,166.2 99.9,156.4 33.4,161.3 		"/>
		<polygon class="st8" points="151.7,166.2 151.7,156.4 218.3,161.3 		"/>
		<circle class="st8" cx="125.8" cy="160.2" r="28.8"/>
		<circle class="st9" cx="125.4" cy="160.6" r="22.6"/>
		
			<ellipse transform="matrix(7.088900e-02 -0.9975 0.9975 7.088900e-02 -43.6511 274.2566)" class="st10" cx="125.4" cy="160.6" rx="18" ry="18"/>
		<path class="st11" d="M139.9,160.9c0,7.6-6.1,13.7-13.7,13.7s-13.7-6.1-13.7-13.7s6.1-13.7,13.7-13.7
			C133.8,147.2,139.9,153.4,139.9,160.9z"/>
		<ellipse class="st5" cx="125.3" cy="160.8" rx="10.5" ry="10.7"/>
		<polygon class="st5" points="122.1,153.4 128.6,153.4 125.3,110 		"/>
		<polygon class="st5" points="122.1,170.3 128.6,170.3 125.3,213.7 		"/>
		<polygon class="st5" points="116.8,164.2 116.8,157.7 73.5,160.9 		"/>
		<polygon class="st5" points="133.8,164.2 133.8,157.7 177.2,160.9 		"/>
	</g>
	<g id="Planet">
		<ellipse class="st8" cx="484.6" cy="315" rx="60.7" ry="61.3"/>
		<ellipse class="st12" cx="490" cy="309.6" rx="50.6" ry="51.1"/>
		<path class="st13" d="M492,361.1c-28.2,0-51.1-25.1-51.1-56c0-7.9,1.5-15.4,4.2-22.3c-4.8,8.6-7.6,18.6-7.6,29.4
			c0,30.9,22.9,56,51.1,56c21,0,39-13.9,46.9-33.8C526.4,350.5,510.3,361.1,492,361.1z"/>
		<path class="st14" d="M473.4,252.5l-17.2,6.9c0,0-22.3-15.6-34.9-6.9c-12.6,8.7-9.9,38.3,30,73c39.9,34.7,90,72.2,110.1,49.7
			c13-14.6-17.8-43.6-17.4-45.6c0.4-2,3.6-17.5,3.6-17.5s52.1,50.1,38.3,81.7c-13.8,31.6-105.8-32.4-105.8-32.4
			s-85.6-62.8-89.2-109.7C387.4,204.7,467.9,245,473.4,252.5z"/>
		<path class="st15" d="M569.8,399.3c-29.2,0-87.2-40.1-87.8-40.5c-0.8-0.6-84.4-62.4-87.8-107.3c-0.5-6.4,0.7-11.2,3.5-14.2
			c2.9-3.1,7.7-4.7,14.3-4.7c18.2,0,46.6,14.5,57.1,21l-5.6,2.9c-3.4-2.2-24.4-10.2-33.4-13.7c-6.9-2.7-22.7,0-26,2.3
			c-4.8,3.3-2.6,2.4-3,9.3c-0.5,8.4,12.6,42.6,48.1,73.6c44.9,39.1,86.3,60.9,106.6,64.3c8.4,1.4,13.8,0.8,18.5-4.5
			c11.9-13.4-14-44.8-20.7-53.7c-0.8-1.1-8-8.3-8.4-9c0.1-2.1,1.3-3.4,1.2-7.6c12.9,14,46.6,52.1,36.6,75.1
			C580.9,397.1,576.6,399.3,569.8,399.3z"/>
		<path class="st13" d="M486.6,284.1c5.8,5.8,7.2,11,1.3,15.5c-6,4.5-9,1.7-10.5,0.6c-1.5-1.1-14.1-10.2-3.5-16.8
			C479.4,280,484.9,282.4,486.6,284.1z"/>
		<path class="st8" d="M473.6,284.4c5.8-4.8,10.4-2.2,12.1,0c3.8,5.1,5.9,9,4.7,13.5c2.6-5.1,1-10.6-3.5-16.6
			c-1.6-2.2-7.1-5.1-12.8-0.2c-2.4,2-3.6,4.1-4.2,6.2C470.6,285.8,472.1,285.7,473.6,284.4z"/>
		<path class="st16" d="M469.8,285.5c0.4-1,2.5-2.5,1.6,0.1c-0.8,2.6-1.5,6.6,0.7,9.4c2.1,2.7,7.8,8.9,11.8,7.9c4-1,2.9-1.3,3.1-0.4
			c0.1,0.4,1.9-0.9,0.4,0.5c-1.6,1.4-4.4,3.6-7,2.8c-2.6-0.8-9-6.9-10.5-10C468.4,292.6,468.3,289.3,469.8,285.5z"/>
		<path class="st13" d="M505.6,301.6c3,3.1,3.8,5.8,0.7,8.2c-3.1,2.4-4.7,0.9-5.5,0.3c-0.8-0.6-7.4-5.4-1.9-8.8
			C501.8,299.5,504.7,300.7,505.6,301.6z"/>
		<path class="st8" d="M498.7,301.8c3-2.5,5.5-1.2,6.3,0c2,2.7,3.1,4.7,2.4,7.1c1.4-2.7,0.5-5.6-1.8-8.7c-0.9-1.1-3.7-2.7-6.7-0.1
			c-1.2,1-1.9,2.1-2.2,3.2C497.1,302.6,497.9,302.5,498.7,301.8z"/>
		<path class="st16" d="M496.8,302.4c0.2-0.5,1.3-1.3,0.9,0c-0.4,1.4-0.8,3.5,0.4,4.9c1.1,1.4,4.1,4.7,6.2,4.1
			c2.1-0.5,1.5-0.7,1.6-0.2c0,0.2,1-0.5,0.2,0.2c-0.8,0.7-2.3,1.9-3.7,1.5c-1.4-0.4-4.7-3.6-5.5-5.2
			C496,306.1,496,304.4,496.8,302.4z"/>
		<path class="st13" d="M483.7,325.2c3.1,3.1,3.8,5.9,0.6,8.4c-3.2,2.4-4.8,0.9-5.6,0.3c-0.8-0.6-7.4-5.5-1.9-9
			C479.9,323.1,482.9,324.3,483.7,325.2z"/>
	</g>
</g>
<g id="Logo">
	<g id="Blast_1_">
		<g id="Blast">
			<g id="Shadows_1_">
				<path id="Shadows" class="st17" d="M392.2,564.3c-0.3-8.7,3.4-33.2,3-41.5c-0.3-7.1,0.6-14.9,1.4-22.2c0.7-4.6,0.4-9-1-13.4
					c-1.9-5.6,3.4-8.2,2-13.6c-1.4-5.1-9.1-12.1-6.2-17.4c7.6-13.9,1.8-6.2,13.5-2.3c-6.1,6.1-3.2,10.5-3.6,18.6
					c-0.6,11.6,15.7,1.3,17.2-5.2c3.1-12.9,12.1,0.5,20.1-6.2c2.9-2.5,16.6-6.9,20.4-7.2c3.6-1.1,12.6-9.1,13.5-12.7
					c1.9-6.1,11.4-2.9,4.2-10.7c-8.6-9.2-7.8-1.2-13.9,4.1c-7.3,6.2-18-5.9-21.8,7.3c-1.8-9.7,1.5-10.6,8.1-14.6
					c4.3-2.6,5.9-11.6,11.7-11.2c8.9,0.6,18.2,23.1,28.2,10c5-6.5,5.2-31.5,16.9-31c5.8,0.2,10.3,4.7,15.6,2.8
					c7.6-2.8,10.5-5.9,17.4-9.5c1.1,2.4-1.3,4.2-1.8,6.3c-1.6,6.1,9-1.3,9.1-1.3c3.4-1.4,5.1-5.2,8.4-6.6c8.2-3.7,2.1,10.9,2.3,11.5
					c13,3.9,15.2-0.1,25.5-6.3c4.1-2.4,4.8,3.5,7.9,2.4c4.9-1.7-2.1-8.9,4.6-4.5c0-9,0.2-12.3,0-20.8c0.2-1.5,0-2.8,0-3.1
					c0,2.7,0.1-2.9,0-3c0-8.6,2.1-22.5-6-19.6c-19,6.9-37.1,13.8-56.6,18.8c-9.3,2.4-33.9,14.3-39.9,6.1
					c-6.1-8.4-31.2,12.4-38.9,14.7c-8.1,2.5-14.3-0.3-22.8,3.5c-3.4,1.5-15,8.4-18.3,8.2c1.1-14.9-19.3,5.3-21,0.6
					c-3.3-9-21.5-6.2-27.9-5.2c-8.6,1.3-7.9,0.5-14.6,5.6c-1.8,1.4-16.3,12.5-17,7.3c-0.7-5,4-7,4.8-11c1.3-6.3-9.9-4.5-13-3.5
					c-5,1.6-9.7,4.4-14.3,6.9c-2.3,1.3-4.6,2.6-6.9,3.9c-6,3.3-2.6,0.4-8.5,0.3c-5.6-0.1-17.2,22-24.5,16.9c-3.4-2.4,0.3-11.3-8.2-8
					c-9.4,4.7-17.6,11.7-26.3,17.5c-6.9,4.6-16-8.7-20-13.7c3.5-2.2,3.6-11.7,0.2-13.8c-3.6-2.3-7.3,1.6-11.3-0.5
					c-4.9-2.6-8.2-8.3-14.9-5.1c-3.8,1.6-4.6,0.4-4.9-3c-0.1-5.4-8.4-3.2-10.9-2.9c-11.3,1.1-23.5,6.5-33.8,2.7
					c18.3-5,24.6-17,24.1-35.8c-0.5-18.4-8.6-37.9-29.4-36.5c2.5-0.3,4.8-1.1,7-2.3c6.5-4.5,2.1-3.3,10.4-1.7
					c6.6,1.2,14.4,0.9,19.8,0.9c-1.7,18.5,4.5,47.8-6.7,63.6c-7.4,10.4,22.8-0.5,26-2.1c19.2-9.2,8.7,10.5,25.8,10.5
					c14.6,0.1,23.5-7.8,30.8-18.8c1.2,2.7,4.7,15.4,7.2,16.2c2.5,0.9,12.1-5.3,14.7-6.5c-1.8-3.8-3.4-7.6-4.7-11.5
					c3.3,6.4,36.5-35.8,49.8-17.4c-0.2-0.3-3,12.2-3.2,12.9c-3,6.3-4.5,9.3-10,7.8c-6-1.7-13.2,4-18.6,1.4
					c-4.5-2.2-9.5-4.4-13.1,2.2c-1.4,2.6,33.9,5.3,40.1,5.8c25.8,2,20.6-49.3-3.3-45c-6.6,1.2-18.5,6.8-19.9-4.1
					c-2.1-17.3,19.3-8.9,26.3-3.7c15.2-27.4-41.9-23.5-40,6.6c0.8,12.1,19.4,17.3,4.4,25.4c-24.2,13.1-16.7-27.9-23.5-40.4
					c7.4-3.9,14.3-6.4,21.1-11.4c4-2.9,10.5-10.5,15.5-11.3c2.8-0.4,11-3.3,13.5-2.1c6.6,1.5,2.3,7.9,4.1,11.9
					c0.6,1.3,6.6-13.3,6.9-12.9c0.1,0.2,14.2-3,15.8-3.2c3,23.2-12.2,61.1,7.2,78.9c6.8,6.3,18,10.8,26.1,4.9
					c7.4-5.4,25.7-17,19.9-27.8c-4.6-8.5-18.6,17.2-27.6,18c-15.4,1.3-12.9-15.8-12.6-26.1c0.2-11.1,0.5-22.1,0-33.2
					c-0.3-6.6-5.3-19.6,5.5-17.9c2.5,0.4,5.5,1.9,7.1,4c1.4,1.9,1.4,21.8,2,21.1c2.5-5.1,1.9-14.5,3.3-20.5c2.1-8.2,1.1-6.7,6.2-15
					c4.6-7.5-12.3-4.3-14.9-1.5c-14.6,15.4-7.9-13.7-10.9-20.3c-2.6-5.7-6.9-9.4-11.8-2.7c-7,9.6,2.2,14.1-0.1,21.9
					c-3.8,13.1-39.3,10.3-51,13.6c-8.3,2.4,0.5,5.3-1.3,10c-3.6,9.5-15.9,13.7-24.9,15.9c-17.5,4.4-27.9,10.5-40.2,25.4
					c-3.8,0.2-11.8,16.8-12.7,22.3c-0.4,2.5-15.4,9.9-17.2,9.3c-4.6-1.6,0.5-40.1,0.7-42.6c1.8,0.5,43.1,11.1,36.7-1.8
					c0.2,0.5-15.7,3.5-16.7,3.4c-8.5-0.9-20.4-4.1-18.5-13.8c2.5-13.2,3.9-26.6,6.4-39.9c1-5.1,5.7-13.2,3.5-18.2
					c-3.1-7.3-16.2-5.9-15.5,2.9c1.2,16.5-5.6,33.4-7.5,49.9c-6.3,3.3-11.4,4.3-18.6,1.8c-13.3-4.5-5.1-10.6-5.8-21.2
					c-1.2-19.1-22-31.1-39.6-28c-13.6,2.4-24.1,10.6-37.8,12.4c-7.2,1-10.8,13.9-2.3,14.2c7,0.2,12-6.9,17.6-9.7
					c-3.2,30.8-7.3,61.1-11.9,91.7c-0.6,4.3-0.6,30-9.5,22.4c-4.4-3.8-10.1,0.5-14.9,0.3c-7.9-0.3-14.9-6.5-22.4-8.6
					c-7.6-2.1-27-23.5-26.8-1.2c0.1,6.4,5.8,23.2,14.9,17.3c2.5-1.6,19.6,11.4,19.9,15c2,7.4,10.7,11.9,16.9,6.9
					c5.4-4.3,18.5,2.8,24.6,3.5c4.7,0.5,10.3-1.9,14.9-2.7c3.8-0.6,7.6-1.1,11.4-1.6c1.1-1.7,2.5-3,4.3-3.9c5.3-0.8,4.7-7.6,9-8.4
					c2.3,1.3,4.7,2.5,7,3.8c3.4-0.8,6.6-2.4,9.4-4.6c8.5-4.6,22.1-5.8,21.2,7.6c-0.9,13.1,13.3,7.1,13.9,9.5
					c3.1,11.3,6.7,11.8,12.4,0.2c1.4,2.1-1.4,8.5,3.8,7.2c0.7-0.3,8.7-1.3,7.7,1.6c-1.3,3.6-8.4,5.8-10.2,9.7
					c-1.9,5-12,13.9-16.3,17.6c-2.9,2.8-9.3,5.3-10.8,9.3c0.1,0.9-15.3,19.9-15,19.8c-1.9-0.7-3.6-1.6-5.2-2.7
					c-3.1-0.8-8.2,4.9-10.7,6.2c-8.3,4.4-14.2,9.3-6.1,17c5.1,5.9,14.5,5.3,21.2,2.6c9-3.6,9.3-11.9,14-18.4c6.8,5.6-1.6,10,8.2,1.2
					c2.3-2.7,2.1-6.6,4.2-9.3c5.3-6.7,6.4,8.5,6.8,8.9c6-1.1,13.7-2.5,15.9-9.1c0.7-2.6,1.7-5,3-7.4c2.4-3.9,5.6,0.9,7.7-1.3
					c0.6-1.8,1-3.6,1-5.4c1.8-3.1,6.6-0.1,9.1-2c1.1-2.6,1.7-5.3,1.6-8.1c1.4-3.5,7.2-6.6,10.5-7.5c13.1-3.6,22.8,18.9,26.1,27.6
					c4.1,11.1-13.8,39.5-0.5,41.7c-3.1,8.5-2.4,22.8,4.4,29.8c7.7,7.9,4.5-17.2,4.1-16.2c0.1-10.4-0.7-17.1,1.7-27.4
					c3-10.4-2.3-23.2,1-32.4c1.6-4.5,4.4-0.5,7.1-0.7c3-0.2,5.8-9.4,6.2-10.4c5-11.8,10.8,4.5,17.2,3.7c1.1-0.4,5.8-12.6,9.7-6
					c9.4,13.5,7.7-1.3,15.5-7c1.3,5.3-1.4,10.6-1.9,15.8c-1.1,10.3,7.3,2.8,10.6,2.5c8.1,11.4,5.4-4.9,9-4.7
					c5.5,0.2,4.8,9.7,10.9,0.3c2.8,6.8-6.1,11.4-4.2,18.1c6.4,3.4,11.4-5.2,15.6-4.4c2.5,0.5,9.8,13.8,10,16.4
					c0.7,11.9,0.8,51.5,2,63.4L392.2,564.3z M218.5,344c3.1,3.2,2.7-0.5,4.6,5.3c0.7,2-2.9,5.6-0.7,7.4c0.5,0.4,5-17,7.3-18.8
					c3.8,0.8,11.7-10.1,16.5-10.7c-0.9,8.2,1.6,28-3.3,33.2c-4.8,5-18.7,17.2-26.1,10.3C208.8,363.2,211.1,350.5,218.5,344
					C219.3,344.9,211.8,349.9,218.5,344z M97.4,302.7c1.5-8.3,4-12.6,1.4-22.3c-1-3.8,4.8-3.9,7-2.4c3,2,6.9,15.8,5.8,16.7
					c2.2-3.3-0.2-16.7,3.4-18.3c6.1-2.7,11.6,6.7,13.2,11.3c4.5,12.7-1.6,14.2-10.5,19.8c-6.8,4.2-15,13.7-23.2,13.4
					C95.3,314.8,96.3,308.7,97.4,302.7C98.4,297.3,95.7,312,97.4,302.7z M133.7,372.3c-7.8,7-24,7.2-33.8,8.8
					c-7.4,1.3-15.3,6.7-12.5-3.5c2.2-8.2,1.2-36.2,7.1-39.9c0.4-0.5,10.7,1.6,11.6,2.6c1.5,1.5,1.7,20,3.7,19.5
					c3.2-0.7,1.4-17.9,3.3-20.7c10.2-15,14.3,2.5,20.4,5.5c-5.4-3.7,3.3-13.5,8.1-5.7C148.2,349.9,142.3,364.6,133.7,372.3
					C126.7,378.5,140.6,366.1,133.7,372.3z M528.8,377.9c0.3-0.1,0.6-0.1,1-0.2C529.4,378,529.1,378,528.8,377.9z"/>
			</g>
			<g id="Midlevel">
				<path class="st18" d="M133.7,344.8c0,0-0.1-0.1-0.1-0.1C134.2,345.2,134.7,345.2,133.7,344.8z"/>
				<path class="st18" d="M149.3,384.3c3.4-4.4,5.9-10.1,8-15.2c0.9-2.1,0.6-12.1,0.6-12.1c-6.5,6.5-2.1,15.4-11.3,20.9
					c-2.7,1.6-34.1,12.7-35.2,11.7C120,397.1,140.6,395.5,149.3,384.3C151.7,381.2,146.9,387.4,149.3,384.3z"/>
				<path class="st18" d="M398.7,378.5c16.3-0.9,31.5-5,47.5-7.1c7.7-1,18.1-3.9,24.9-7.5c4-2.1-11.6-2.2-12.8-1.7
					c-14,5.2-30.1,6.3-44.7,9.7C409.7,371.7,393.2,378.8,398.7,378.5C402.4,378.3,397.9,378.6,398.7,378.5z"/>
				<path class="st18" d="M51.4,389.5c-7.5,1.9-21.4-5.9-28.6-8.4c-4.6-1.6-10.5-1.2-14.9-3.4c-3.7-1.9-4-4.9-8.3-5.6
					c-2.4,10.5,25.4,14.1,33,13.7c6.2-0.4,11.1,9.3,19.9,7.9c4.6-0.7,15.9,1.9,18.8-0.4C65.1,390.6,58.3,387.8,51.4,389.5
					C45.8,390.9,58.2,387.8,51.4,389.5z"/>
				<path class="st18" d="M186.7,379.7c-4.1,8-16.7,4.7-23.5,6c-7.7,1.5-14.9,5.7-23,4.9c0.5,7.8,23.5-1.2,28.1-1.7
					c4.8-0.5,14.8,1.8,18.6-1.9C189.4,384.5,190.5,380.7,186.7,379.7C184.9,383.3,187.5,379.9,186.7,379.7z"/>
				<path class="st18" d="M213.2,389.6c1.8,3.4,7.5,3.8,10.5,2.2C223.7,391.8,211.2,385.6,213.2,389.6
					C214.7,392.5,213.1,389.4,213.2,389.6z"/>
				<path class="st18" d="M594.9,338.9c-7.5-2.3-17.9,7-25.3,8.3c-18.1,3.2-36.1,6.8-54.1,10.5c-12.3,2.5-24.7,4.9-36.9,8
					c-6.7,1.7-17.5,5.5-23.4,8.9c-8.5,5-18.8,5.4-29.1,8c-1.9,0.5-6.8,5.6-7.4,5.5c-4.8-1-3.4-4.6-9.3-3.1c-3,0.8-29.3,2.9-29.9,1.1
					c-2.8-8.2-22.3,2.5-28,2.6c0.7,0-14.6,13.1-13.5,3.3c0.2-1.3,5-22.3-3.2-12.2c-1.2,1.5-14-0.1-17.8,1.6
					c-8.4,3.6-16.1,9.1-24.8,12.2c-12.4,4.3-19.2,3.4-28.3,15.1c7.2,4,12.7,1.4,19.1-3.4c-0.5,3.8-7.2,5.7-6.2,9.2
					c5.1,0.5,17.8-16.8,19.1-12.2c1.5,5.5,15.2-7.5,18.4-9.3c3.9-2.2,14.7-2.2,16.7-4.1c6.4-6.2-0.3,16.8-0.1,17
					c3.4,5.9,19.4-9.9,22.6-11.8c4.6-2.8,9-1.3,13.8-2.9c7.5-2.5,4.9,3.7,12.3,0.8c12.1-4.8,7.5,13.7,17.5,5.3
					c4-3.3,5.4-5.3,10.8-6.1c7.6-1.1,0.3,3.1,2.2,5.5c1.7,2.1,6.3-0.4,7.2-2.1c3.1-5.8,5.8-3.8,10.9-3.1c1.5,0.2,1.1-4.1,4.7-4.3
					c6.2-0.4,10.2-5.1,16.6-1.2c4.6,2.8,20.5-9.7,24.4-12.5c2.9-2.1,27.8-7.8,19.9,1.3c-0.7,0.8-5.7-3.7-5.7-4.3
					c0.3,3.4,5.4,10,8.3,11.3c-8.3-14.9,81.6-24.3,95.7-36.3C594.5,343.4,595,358,594.9,338.9z"/>
				<path class="st18" d="M250.6,410c-7.4-0.5,6.7-13.7,9.6-16.9c5.4-6.1,7.7-1.9,13.8-2.7c3.9-0.5,10.5-6.8,15.1-8
					c-1.1,0.3,13.1-1.3,8.8-4c2.8-1.9,1.2-1.7,4.8-0.5c7.1,2.3,19.8-2.2,19.5-8.3c-0.5-11.7,3.4-19.1-4.9-31.2
					c-7.7-11.1-30.7,8.7-40.6,2.7c1.2,0.8,1.6-9.3,1.3-10.6c-0.1-0.5,8.5,8.9,7.9,6.7c-2.4-9.3-0.8-15,3.9-20
					c3.2-3.4,23.7,3.9,22.3,8c1.1-3,3.5-15.9-1-14.4c-12.6,4.3-24-6.4-33.7,7.3c-5.2,7.3-7.5,18.6,0.4,25.2c3.5,2.9,19.1,0.2,23.7,0
					c6.2-0.2,7.9-1.8,13,3.1c1.6,1.5,4,3.4,1.1,4.4c-3,1-1.3,4.1-0.8,6.2c1.1,4.5-4.2,5.1-3.4,10.6c1.1,6.9-11.6,5.2-14.1,4.1
					c-3.5-1.5-8,0.9-11.8,0.9c-3-0.3-6-0.9-8.9-2c-3.8-1.3-7.4,5.3-4.8,6.1c-17.2,2.2,0.2,7.1-12.1,13c-9.5,4.6-12.5,13.3-15.7,21.7
					c-0.7,1.9-13.3,3.5-15.9,3.2c-5.3-0.6-14.5-13.1-15.2-11.1c-0.8,2.1,6.7,4.4,4.9,6.2c-5.3,5.2-7.4,0.2-1.5,6.2
					c5.2,5.3-1.8,6.3,7.9,7c4.9,0.4,2,11,8.7,6.1c9.3-6.8,19-13,28.6-19.5C257.8,407.1,254.4,410.2,250.6,410
					C249.4,409.9,254.3,410.2,250.6,410z M285.6,374.9c2.3,1,4.6,2,6.9,2.9c-6.5-0.4-11.7-2.3-18.3-1.5
					C277.4,375.4,282.1,373.8,285.6,374.9C287,375.4,283,374,285.6,374.9z"/>
				<path class="st18" d="M82.1,393.2c-2.2-0.9-4.1-0.5-5.8,1.4c6,1.5,18.5,7.9,22.7-0.2C93.4,392.6,88,396.2,82.1,393.2
					C80.7,392.5,87.1,395.8,82.1,393.2z"/>
				<path class="st18" d="M104.4,394.6c3,1.8,5.7,1.5,8.2-1C109.7,392.4,107,393.2,104.4,394.6z"/>
				<path class="st18" d="M188.3,394.3c2.3-0.6,4.7-1.1,7.1-0.4C192.8,389.8,190.9,389.9,188.3,394.3z"/>
				<path class="st18" d="M182.9,390.5c-0.9,4.4-0.5,4.9,3.2,4.2C185.7,392.9,184.7,391.4,182.9,390.5z"/>
				<path class="st18" d="M356.6,375.8c1.1-0.9,17.9,7.6,16.8,0.6c-0.3-2.3-26-7.1-27.7-5.1C343,374.5,354.1,377.8,356.6,375.8
					C358.3,374.5,354,377.9,356.6,375.8z"/>
				<path class="st18" d="M393.5,378C392.7,377,394.2,379,393.5,378C393.4,377.9,393.5,378.1,393.5,378z"/>
				<path class="st18" d="M75.3,287.7c-0.1-1.2-2.3-1.7-3-1.6c10.9-2.5,33.6-22.8,40.3-4.3c-3.6-9.8,7.5-9,11.9-4.2
					c7.9,8.6,11.2,19,2.7,29.5c-10.9,13.5,4.6,9,8.7,0.2c6.5-13.7-0.7-25.5-9.2-35.2c-3.9-4.5-13.3-2.1-18.4-3.1
					c-11-2-20.2,5.6-31.2,6.2c-3.7,0.4-14.5-3.4-14.1,4.2c0.2,4.3,5.5,18.1,4.5,20.8c1-2.9-0.8-7.7,2.7-9.4
					C71.2,290.5,75.4,289.6,75.3,287.7C75.2,286.1,75.3,289,75.3,287.7z"/>
				<path class="st18" d="M87.3,346.8c0-16.7,6.8-34.8,10.3-51.3c5.6-26-11.4-10-10.8,6.7c0.4,11.8-2.9,27.9-6,39.6
					c-2.9,11-3.9,22.9-6.1,34.2c-2.2,11.5,4.9,14.4,7.6,2C84.5,367.9,87.3,357.1,87.3,346.8C87.3,341,87.3,353.6,87.3,346.8z"/>
				<path class="st18" d="M172.7,368.3c-8,5.2,4.3,20.5,4.3,1.4c0-10.4,3.7-22.1,3.6-33.9c-0.1-11.6,0.4-19.4,2.6-30.5
					c2.6-13.2,6.9-27.1,8.6-40.2c0.8-6.1-3.5-14.1-7.2-5.7c-6.5,14.6-6.2,31.1-8.8,46.8c-1.9,11.3-4.6,22.5-4.8,34
					C170.9,347,180.7,363,172.7,368.3C171.2,369.3,177.4,365.2,172.7,368.3z"/>
				<path class="st18" d="M183.5,373.7c-0.4,0.9-0.8,1.7-1.1,2.6c0.2,0.8,18.1-8.4,18.8-7.6C198.1,365.1,185.8,371.1,183.5,373.7
					C180.6,376.9,185.6,371.3,183.5,373.7z"/>
				<path class="st18" d="M207.6,352.9c1.4-1.4,9.6-15.5,11.9-13.5c5,4.3,7.8-9.6,8.8-10.9c0.1-0.2,16.4-3,16.9-2.8
					c3.1,1.4,5.6,7.3,7.8,8.2c-10.5-4.2-2.5,18.5-2.8,20.4c0.2,2.1,0.7,4.2,1.5,6.2c-2.8,1.1-6.2,2.7-8.1,5.1
					c-2.3,2.9-3.9,5.7-7,7.2c3.6-4.2-7.1,0.3-9.9,0.7c-2.7,0.4-17.2-2.7-14,5.4c-0.1-0.2,20.5-2,22.2-4.1c3.6-1.2,5.6,2.5,8.3-4
					c3.6-8.9,4.5-3.3,10.4-2.7c1.1,4.8,7.5,9.7,10.5,2.8c0.4-1-3.8-8.4-4.2-9.4c-3.8-10-0.3-16.9-0.4-27.1
					c-0.1-12.9-3.4-19-16.7-18.7c-12.8,0.3-14.9,2.5-21.7,11.5c-5.1,6.7-11.5,12.3-15.4,19.8c-3.3,6.4-8.4,19.6,0.3,25
					C208.8,374.1,206.1,354.4,207.6,352.9C211.6,348.9,203.5,357,207.6,352.9z"/>
				<path class="st18" d="M292.4,292.9c3-1.3,4.7-2.8,8.1-4.2c7.5-2.9,5.2,5.8,8.8,8c-0.1-0.1,3-9.9,6.7-8.9
					c5.5,1.4,12.2-1.4,16.6-4.1c-1.2,13.6,2.2,25-0.6,38.4c-1.4,6.9-3,9.5,0.7,15.1c2.2,3.4-2,12.2-1,17.3c0.3,1.8,6.8,13.2,9.1,6.6
					c2.2-6,0.7-14.3,1.2-21.8c0.6-9.5,0.2-16.8-4.1-25.3c-1.2-2.3,2.1-13.9,2.1-17.1c0.1-6.5,0.7-13.8-0.5-20.3
					c-1.3-7.6,6.2-15.3,0.7-23.1c-7.1-10.2-12,5.2-10.2,11.2c0.8,2.6,5.3,13.8,0.5,14.5c-7.1,0.9-14.1,1.9-21.2,3
					c-7.7,1.2-25.3,2-29.9,8.2C284.1,292.3,287.1,295.2,292.4,292.9C298,290.4,286.7,295.4,292.4,292.9z"/>
				<path class="st18" d="M355.4,371.5c6.8-0.9,11.2-2.7,16.9-8.1c1-1,8.1-18.5,10.5-17.1c-4.8-2.8-12.8,11.5-13.8,14.8
					c-1.5,4.7-15.3,4.2-19.1,4.3C346.1,367.7,353.8,371.7,355.4,371.5z"/>
				<path class="st18" d="M111.2,337c4.8-4.2,11.9-2.8,16-7.5c4.3,6.9,16.9-0.1,18.9,7c2.8,9.9-1,15.6-1.8,25.7
					c-0.6,7-15.8,15.8-15.6,17.9c0.3,4,15.5-7.1,16.2-8.1c2-2.7,4.2-17.5,4.7-17.7c1.5-0.5-0.1-19.1-0.3-20.9
					c-1.3-11.6-4.5-7.2-10.2-13.3c-1.1-1.2-18.8-0.1-18.8-0.4c0.3,2.7-10.9-2.3-13.5-1.8c-4.2,0.8-9.4,3.7-10.9,8.4
					c-0.5,1.5-2.8,9.5,1.4,9.8C99.4,336.4,109.9,338.2,111.2,337C116.2,332.7,108.4,339.5,111.2,337z"/>
			</g>
			<g id="Highlight">
				<path class="st19" d="M225,373.8c6.2,2.9,14.1-0.2,17.8-4.9c0.9-1.1,13.7-11.1,13.5-11.4c1.1,2.2-42.4,15.1-42.7,16.6
					C212.9,377.2,224.2,373.5,225,373.8C226.5,374.5,223.5,373.1,225,373.8z"/>
				<path class="st19" d="M353.7,366.4c3.2-0.4,8.4-4.3,9.6,0.4c1,3.8,6.2-1.7,6.1-3.9c-0.1-4.3,15.2-13.3,11.3-18.2
					c-2.2-2.8-10.2,11.8-12.2,13.1c-1.4,0.9-17,8.7-17.3,8C352.1,365.9,352.9,366.1,353.7,366.4C358.3,365.8,349.2,367,353.7,366.4z
					"/>
				<path class="st19" d="M594.8,335.4c2.1-3.8-28.3,4.9-37.6,6.7c-21.3,4-42.7,8-64,11.9c-14.6,2.7-29.4,5.2-43.9,8.5
					c-7.2,1.6-39.2,4.1-42,10.7c4.8,2.8,21.2-3.6,26.2-4.7c10.3-2.3,24.2-7.9,34.5-6c-21.8,9-45.4,12.3-68.8,14.2
					c2.2-1.6,6.1-0.2,6.7-3.8c-7-0.1-13.7,2.6-20.9,2.4c-8.7-0.2-16.7-4-25.4-4.1c-15.1-0.2-30,4.4-45.1,5.7
					c5.4-11.4,6.7-17.2,4.5-29.3c-0.9-5-2.4-10-8.5-10.2c-0.6,0-14.5-0.8-14.3,1.7c0,0.4,13.9,3.8,14.8,4c3.6,0.9,8,18.8,8.1,18.7
					c-1.7,1.2-4.7-1.3-5.6,2.5c-0.9,3.9-1.6,6.5-5.2,9c-6.3,4.4-5,3.4-12.8,1.9c-2.6-0.5-29.4-3.7-29.6-0.9c0.4-4.6,1.7-5.3-1.8-9.1
					c5.9-2,31-14.7,24.4-21.8c1.2,0.1,2-0.4,2.4-1.3c-3.2-2-8.9,1.4-12-1.4c0.7,0.6,0.4-12,0.7-11.9c1.2,0.2,2-12.2,7.5-13.8
					c5.3-1.6,8.8-0.3,13.8,1.2c2.1,0.6,7.3-2,8.1-1.6c2.8,1.4-2.7,6,2.1,5.5c4.6-0.5,5.5-5.1,1.3-8.7c-7.3-6.1-23.2-2.5-30.6,1.6
					c-6.5,3.6-8.1,17.4-7.2,24c0.9,6.8,4.5,8,11.3,6.9c1.8,8-5.2,13.1-11.7,15.7c-17.8,7.4-11.8-8.8-12.7-20.9
					c-1-12.2-10.6-23.2,3.3-28.6c2.2-0.9,23.6-19.7,24.3-18.6c4.8-0.8,2.5-5.6,8.2-6.9c6-1.4,12.9,0.1,12.7,7.6
					c4.1-9.7,1.9-5.7,7.5-6c1.5-0.1,1-2.8,2.2-3.4c3.9-2,2.8,7.6,6.8,1.7c2.6-3.8,6.2-2.9,10.1-4.5c4.2,6.4-3,12.9-1.9,19.5
					c0.5,3.3,1.6,6.3,1.7,9.7c-1.9,2.6-1.8,5.1,0.3,7.5c0.4,0.4-2.4,0-2.7,0.8c-1.1,2.9,2.9,9.2,2.2,9.6c-2.2,1.4-9.4,7-2.4,8.4
					c6.4,1.3-2,11.2-0.8,14.9c0.1,1.6,4.2,11.8,5.4,9.9c0.9-1.3-1.4-1.9-2.2-1.9c8.6-0.7,5-20.6,5.2-29c0.5-16.7-0.7-33.2-1.4-50.2
					c2.5-0.2,32.8-0.4,25.1-7.2c-4.4-3.8-18.1,5.3-25.2,4.9c-0.2-4.6,6.4-33.5-6.7-24.4c-6.2,4.3,2.8,18.9,3.6,23.9
					c0.2,1.4-35.5,6.9-37.3,7.2c-3.3,0.5-21.5,1.6-19.4,6.2c5.1,1.2-6.5,14.1-8.7,15.7c-10.2,7.3-21.9,5.5-32.9,8.9
					c-10.1,3.2-16.9,11.9-26.4,13.9c-8.4,1.7-16.7-0.7-24.3-4.3c-6.6-3.1-3.4-10.2-2.1-15.7c2.2-9.2,2-19.4,2.7-28.8
					c0.6-7.9,9.3-21.8,0.5-26.3c-7.1,0.5-8.8,6.6-6.2,12.4c0.9,2.1,3.4,12.6,2.7,13.1c-3.1,2.2,0.2,4.5-0.6,8.8
					c-0.8,4.6-4.5,8.2-4.3,13.7c0.2,3.9-1.7,15,0,17.2c0.3,0.4-2.4-0.3-2.8,0.4c-2.6,4.9-0.1,4.3,1.8,8.2c0.5,1.1-14.1,8.1-3,11.8
					c0.9,0.3,1.8,15.4,1.3,17.4c-0.8,2.8,0.6,14.9-1,15.5c-2.4,0.9-6.4,0.6-1.5,6.6c-10.7,1.6-21.5,3.3-32.2,4.8
					c0.3-3,5.2-2.7,6.9-5.6c2.5-4.3,5.3-7.2,7.1-11.9c2-5,5.2-8.8,3.5-14.5c-3.1-10.1-1.1-22.5-11.4-28.4c-1.4-0.8-15.7-4.8-15-6.2
					c11-3.3,11.5-24.3,8.2-33.1c-3-7.9-8-16.6-16-20.3c-8.2-3.8-14.6,1-22.6,1c-5.3,0-10.3,3.3-14.9,5.8c-7.2,3.9-14.4,4.2-21.6,7.2
					c-3.4,1.4-2.9,4.4-0.9,6.8c1.9,2.3,4.5-1.5,6.1-2.5c0.3-0.2,19-6.1,16.9-7.4c2.1,1.3,3.9,0.1,6.3-1.8c-0.1,1.5,0.5,2.2,1.7,2.2
					c1.5-9.7,11.3-1.4,13.9,1.3c-2.7-2.7,8.5-4.6,8.8-4.7c7.1-1.2,7.8,6.2,10,10c5.3,8.8,4,16.3,1.2,26.6c-0.2,0-0.3,0-0.1-0.1
					c-0.6-0.7-2.3,5.7-2.3,6c-1.9,0.5-3.5-4.5-5.3-5.1c-3.6-1-7.1,2.4-9.5,4.4c-4.1,3.3-20.6,9.9-10.2,15.6c7,2.1,7.2-3.9,14.2-3.5
					c3.5,0.2,6.3,0.4,9.8-0.4c5.5-1.2,6,4.2,9.5,3.9c7.8-0.8,11.6,0.8,12.3,11c0.2,1.3,0.9,14.3,0.1,14.5c-0.5,0.2-2.7,15-4.7,17.7
					c-4.4,5.9-14.2,6.8-15.4,7.3c-14.2,6.7-28.3,6.5-43.5,7.5c2.5-24.3,5.7-47.2,7.6-71.3c0.5-6,6.8-28.7,4-30.9
					c-16.2-12.6-5.4,22.9-6.5,23.7c-1.8,1.2-1.9,7.6-0.3,10.9c0,0-4,14.4-4,17c0,4.5-0.8,3.4-1.8,7.9c-3.1,14.3,2.2-2.6-1.6,4.4
					c-2.6,4.9-0.1,4.3,1.8,8.2c0.7,1.4-6.1,3.5-6.5,5.8c-0.7,4.1,3.3,2.7,4.3,5.6c1.2,3.6-3,6.5-4.3,9.3
					c-5.1,10.9,2.6,11.3-15.2,7.9C47.9,382,14.7,372.3-0.3,368l-0.1,6.2c8.8,6.2,21.7,6.9,31.6,10.2c4.9,1.6,8.9,5.8,14,6.8
					c6.7,1.2,14.4-3.2,20.4,1.6c4.5,3.7,21.8,3.7,27.1,3c7.3-1,15.6-2.4,22.8-1.9c9.9-0.2,19-2.9,29-2c5.4,0.5,11.3-3.2,16.5-4.3
					c7.1-1.6,16.5,0.6,22.9-3.5c8.1-5.3-6.6-6.2,1-11.5c8.2-5.7,12.3-3.1,20.1-1.5c-1.9-0.4-1.1-20.6,0.7-23.5
					c4.3-7.1,17.5-10.1,16.6-18c-1-8.6,14.2-4.6,18.9-5.5c2.8-0.5,7.2-3.5,9.5-2.4c3.9,1.9-1.4,7.5,4.6,9c8.2,2.1-5,8.7-4.9,8.4
					c-0.8,3.9,2.4,4,4.9,6c2.2,1.7-1.7,2.9,0,5.2c3.1,4.1,0.6,18.4,3.8,21.2c3.2,2.9-3.8,9-4.9,7.4c-4.5,5.1-16.2,11.3-16.3,18.7
					c-0.2,13.5-10.7-6.4-9.1-6c-13.8-0.4-19.9-7.1-33.5-10.3c-6.5-1.6-11.9,1.3-12.8,8.9c2.6,6.9,4.2,2.3,8.8,1.7
					c3-0.4,13,4,16.3,5.2c7.2,2.8,3.9,2.5,7.8,7.2c2.2,2.6,3.1,7.5,6,9.1c6.6,3.5,11.4,0.7,18.2,0.8c5,0.1,13.4-20,20.1-23.5
					c6.3-3.3,2.2-8.6,5.7-12c5-5,23.3-1,28.9,1.1c-7.2,0.6-14.1,2.9-19.7,7.4c-4,3.2-9.8-0.2-14.6,4.2c-2.5,2.2-20.9,19.8-9.9,19.5
					c14.7-0.3,20.5-12.2,33.8-15.2c4.7-1,8.9,1.5,13.1-0.7c3.9-2.1,7.6-4.6,11.4-6.9c9-5.5,13.3-7.4,22.9-6.3c2.3,0.3,7.2-4.5,8,0.3
					c0.6,3.8-5.9,10.8-0.6,13.6c6.6,3.4,9.5-5.1,14.3-5.9c7-1.1,13.6-4.8,20.6-5.6c5-0.6,7.2,4.2,13.5,2.3c4.8-1.4,11.7,2,17.4,0.7
					c5.3-1.2,10.3,2.2,14.4,1.4c5.1-1.1,11.4-5.8,17-7.4c13.1-3.8,26.9-5.8,39.2-12.9c9-5.2,23.8-5.7,33.8-7.7
					c19.1-3.8,38.2-7.5,57.4-11.1c7-1.3,28.7,1.1,28.8-11.8C595,335.6,595.7,337.6,594.8,335.4z M211,336c-9.2,7.3-9.6,40-28.1,34.8
					c-8.9-2.5,1.2-37.8,1.3-45.3c10.5-0.3,21.9,4.6,32.8,5C215.2,332.5,213.2,334.4,211,336C207.3,338.9,213.3,334.1,211,336z"/>
			</g>
		</g>
	</g>
	<g id="AndAttack">
		<g id="TransparentFill" class="st20">
			<g>
				<g>
					<path class="st21" d="M148.9,359.9c-10.5,0-19.1,8.2-19.7,18.6l0,0v48h11.5l0-18.5h16.5v18.5h11.5v-46.8
						C168.7,368.7,159.8,359.9,148.9,359.9z M157.2,397.5v7.3h-16.5l0-25.5c0.2-4.4,3.8-7.9,8.2-7.9c4.6,0,8.2,3.7,8.2,8.2V397.5z"
						/>
				</g>
			</g>
			<g>
				<path class="st21" d="M182.5,426.4v-54.8h8.3c4.5,0,8.2,3.7,8.2,8.2v46.5h11.5v-46.6c0-10.8-8.7-19.6-19.5-19.7v0h-19.9v9.8v1.7
					v54.8L182.5,426.4L182.5,426.4z"/>
			</g>
			<g>
				<g>
					<path class="st21" d="M232.6,359.9L232.6,359.9l-19.9,0v9.8v1.7v43.6v2.7v8.8h19.9v0c10.8-0.1,19.5-8.9,19.5-19.7v-27.1
						C252.1,368.8,243.4,360,232.6,359.9z M240.6,406.7c0,4.5-3.7,8.2-8.2,8.2h-8.3v-43.6h8.3c4.5,0,8.2,3.7,8.2,8.2V406.7z"/>
				</g>
			</g>
			<polygon class="st21" points="332.7,360.6 318.6,360.6 318.6,372.4 332.7,372.4 332.7,427.1 344.2,427.1 344.2,372.4 
				358.3,372.4 358.3,360.6 344.2,360.6 			"/>
			<path class="st21" d="M296.7,360.6c-10.5,0-19.1,8.2-19.7,18.5l0,0v48h11.5l0-18.5H305v18.5h11.5v-46.8
				C316.5,369.4,307.6,360.6,296.7,360.6z M305,398.2v7.3h-16.5l0-25.5c0.2-4.4,3.8-7.9,8.2-7.9c4.6,0,8.2,3.7,8.2,8.2V398.2z"/>
			<polygon class="st21" points="374.5,360.6 360.4,360.6 360.4,372.4 374.5,372.4 374.5,427.1 386,427.1 386,372.4 400,372.4 
				400,360.6 386,360.6 			"/>
			<path class="st21" d="M421.9,360.6c-10.9,0-19.7,8.8-19.7,19.7v46.8h11.5v-18.5h16.5l0,18.5h11.5v-48l0,0
				C441,368.8,432.4,360.6,421.9,360.6z M413.7,405.5v-7.3v-17.9c0-4.6,3.7-8.2,8.2-8.2c4.5,0,8.1,3.5,8.2,7.9l0,25.5L413.7,405.5
				L413.7,405.5z"/>
			<path class="st21" d="M463.4,360.6c-10.5,0-19.1,8.2-19.7,18.6l0,0v0.3v19.2v10h0c0.6,10.4,9.2,18.6,19.7,18.6
				c10.9,0,19.8-8.9,19.8-19.8v-2.2h-11.5v2.1c0,4.6-3.7,8.3-8.3,8.3c-4.5,0-8.1-3.5-8.3-8l0-16.8l0-11c0.2-4.4,3.8-8,8.3-8
				c4.6,0,8.3,3.7,8.3,8.3v0.8h11.5v-0.9v-0.9h0C482.7,369,474.1,360.6,463.4,360.6z"/>
			<path class="st21" d="M524.8,360.6h-11.5v27.3v1.5c0,4.3-3.3,7.9-7.6,8.2h-8.9v-37h-11.5V428h11.5v-18.8h9.1v0
				c4.2,0.4,7.4,3.9,7.4,8.2v1.5v9.3h11.5v-10.8c0-5.4-2.2-10.4-5.8-13.9c3.6-3.6,5.8-8.5,5.8-13.9L524.8,360.6L524.8,360.6z"/>
		</g>
		<g id="Outline">
			<g>
				<g>
					<path class="st22" d="M148.9,360.2c-10.5,0-19.1,8.2-19.7,18.5l0,0v48h11.5l0-18.5h16.5v18.5h11.5v-46.8
						C168.7,369.1,159.8,360.2,148.9,360.2z M157.2,397.8v7.3h-16.5l0-25.5c0.2-4.4,3.8-7.9,8.2-7.9c4.6,0,8.2,3.7,8.2,8.2V397.8z"
						/>
				</g>
			</g>
			<g>
				<path class="st22" d="M182.5,426.8V372h8.3c4.5,0,8.2,3.7,8.2,8.2v46.5h11.5v-46.6c0-10.8-8.7-19.6-19.5-19.7v0h-19.9v9.8v1.7
					v54.8L182.5,426.8L182.5,426.8z"/>
			</g>
			<g>
				<g>
					<path class="st22" d="M232.6,360.2L232.6,360.2l-19.9,0v9.8v1.7v43.6v2.7v8.8h19.9v0c10.8-0.1,19.5-8.9,19.5-19.7v-27.1
						C252.1,369.1,243.4,360.4,232.6,360.2z M240.6,407c0,4.5-3.7,8.2-8.2,8.2h-8.3v-43.6h8.3c4.5,0,8.2,3.7,8.2,8.2V407z"/>
				</g>
			</g>
			<polygon class="st22" points="332.7,360.9 318.6,360.9 318.6,372.7 332.7,372.7 332.7,427.5 344.2,427.5 344.2,372.7 
				358.3,372.7 358.3,360.9 344.2,360.9 			"/>
			<path class="st22" d="M296.7,360.9c-10.5,0-19.1,8.2-19.7,18.5l0,0v48h11.5l0-18.5H305v18.5h11.5v-46.8
				C316.5,369.8,307.6,360.9,296.7,360.9z M305,398.5v7.3h-16.5l0-25.5c0.2-4.4,3.8-7.9,8.2-7.9c4.6,0,8.2,3.7,8.2,8.2V398.5z"/>
			<polygon class="st22" points="374.5,360.9 360.4,360.9 360.4,372.7 374.5,372.7 374.5,427.5 386,427.5 386,372.7 400,372.7 
				400,360.9 386,360.9 			"/>
			<path class="st22" d="M421.9,360.9c-10.9,0-19.7,8.8-19.7,19.7v46.8h11.5V409h16.5l0,18.5h11.5v-48l0,0
				C441,369.2,432.4,360.9,421.9,360.9z M413.7,405.8v-7.3v-17.9c0-4.6,3.7-8.2,8.2-8.2c4.5,0,8.1,3.5,8.2,7.9l0,25.5L413.7,405.8
				L413.7,405.8z"/>
			<path class="st22" d="M463.4,360.9c-10.5,0-19.1,8.2-19.7,18.6l0,0v0.3v19.2v10h0c0.6,10.4,9.2,18.6,19.7,18.6
				c10.9,0,19.8-8.9,19.8-19.8v-2.2h-11.5v2.1c0,4.6-3.7,8.3-8.3,8.3c-4.5,0-8.1-3.5-8.3-8l0-16.8l0-11c0.2-4.4,3.8-8,8.3-8
				c4.6,0,8.3,3.7,8.3,8.3v0.8h11.5v-0.9v-0.9h0C482.7,369.3,474.1,360.9,463.4,360.9z"/>
			<path class="st22" d="M524.8,360.9h-11.5v27.3v1.5c0,4.3-3.3,7.9-7.6,8.2h-8.9v-37h-11.5v67.4h11.5v-18.8h9.1v0
				c4.2,0.4,7.4,3.9,7.4,8.2v1.5v9.3h11.5v-10.8c0-5.4-2.2-10.4-5.8-13.9c3.6-3.6,5.8-8.5,5.8-13.9L524.8,360.9L524.8,360.9z"/>
		</g>
	</g>
</g>
</svg>
