<?xml version="1.0" encoding="utf-8"?>
<!-- Generator: Adobe Illustrator 16.0.4, SVG Export Plug-In . SVG Version: 6.00 Build 0)  -->
<!DOCTYPE svg PUBLIC "-//W3C//DTD SVG 1.1//EN" "http://www.w3.org/Graphics/SVG/1.1/DTD/svg11.dtd">
<svg version="1.1" id="Layer_1" xmlns="http://www.w3.org/2000/svg" xmlns:xlink="http://www.w3.org/1999/xlink" x="0px" y="0px"
	 width="841.89px" height="595.28px" viewBox="0 0 841.89 595.28" enable-background="new 0 0 841.89 595.28" xml:space="preserve">
<g id="Bomb">
	<path fill="#546C31" d="M22.842,18.005c0-4.058-0.304-3.212-0.017-6.515C23.237,6.734,9.828,4-1.406,4
		c-8.354,0-20.932,3.951-20.932,7.553c0,12.15,0.048,2.276,0,6.453c-0.146,12.946,10.113,22.545,22.59,22.545
		C12.729,40.55,22.842,30.458,22.842,18.005z"/>
	<path opacity="0.6" fill="#D8E4EB" enable-background="new    " d="M-15.744,7.983c0,0,1.569,3.2,1.569,6.021
		c0,9.521,0.265-0.964,0.235,2.309c-0.083,9.078,3.05,15.78,9.194,18.789c-0.249,0.018-0.504,0.083-0.752,0.025
		c-7.354-1.684-14.239-9.029-14.148-19.174c0.028-3.275,0,6.927,0-2.597c0-2.82,0-4.509,0-4.509
		C-18.294,8.848-16.028,6.041-15.744,7.983z"/>
	<path fill="#546C31" d="M-22.339,5.171c0.964-7.106,19.026-31.63,22.109-31.922C2.854-27.042,21.46-4.479,21.903,4.806
		c0,0-2.88-1.542-10.499-3.314c-1.262-0.294-7.429-1.233-9.468-1.26C-3.16,0.167-7.849,0.237-9.557,0.689
		C-21.249,3.79-22.339,5.171-22.339,5.171z"/>
	<path fill="#546C31" d="M14.953-17.817l0.001-0.006c0,0-0.009-0.008-0.021-0.021c-0.122-0.177-0.264-0.311-0.417-0.395
		c-1.559-1.396-7.185-5.834-15.783-5.834c-7.849,0-12.354,4.417-13.867,7.183c-0.795,1.437,0,0,0,0
		c-0.341,0.383-0.566,1.042-0.566,1.796c0,1.181,0.555,2.14,1.236,2.14c0.157,0,0.306-0.057,0.443-0.148h0.003l0.004-0.004
		c0.182-0.125,0.342-0.324,0.47-0.573c1.417-1.63,6.032-4.431,13.294-4.355c7.538,0.077,11.99,1.495,13.441,3.165
		c0.111,0.248,0.258,0.448,0.425,0.588c0.021,0.042,0.054,0.091,0.068,0.127c0.098,0.24,0.206,0.226,0.317,0.064
		c0.048,0.009,0.097,0.024,0.146,0.024c0.681,0,1.232-0.958,1.232-2.139C15.383-16.851,15.214-17.424,14.953-17.817z"/>
	<g>
		<path fill="#C9EAF5" d="M-13.247-15.938c0,0-0.097,0.174-0.188,0.339C-13.383-15.688-13.325-15.795-13.247-15.938z"/>
		<path opacity="0.6" fill="#D8E4EB" enable-background="new    " d="M-13.811-14.144c0-0.753,0.228-1.412,0.562-1.794
			c1.517-2.765,6.022-7.183,13.87-7.183c5.278,0,9.434,1.673,12.217,3.289c-2.668-1.827-7.386-4.24-13.729-4.24
			c-7.847,0-12.354,4.417-13.866,7.183c-0.079,0.143-0.139,0.249-0.188,0.341c0.092-0.167,0.188-0.341,0.188-0.341
			c-0.341,0.383-0.566,1.042-0.566,1.796c0,1.181,0.555,2.14,1.234,2.14c0.154,0,0.301-0.055,0.438-0.146
			C-13.749-13.409-13.811-13.763-13.811-14.144z M-15.101-16.265c0.017-0.029,0.069-0.125,0.131-0.234
			C-15.049-16.358-15.089-16.289-15.101-16.265z"/>
		<path fill="#C9EAF5" d="M-13.46-15.549c-0.062,0.11-0.114,0.207-0.133,0.234C-13.578-15.336-13.541-15.407-13.46-15.549z"/>
	</g>
	<path fill="#285234" d="M13.254-15.375c-1.447-1.671-5.902-3.088-13.438-3.165c-7.263-0.073-11.876,2.727-13.296,4.354
		c-0.127,0.249-0.286,0.447-0.471,0.572l-0.003,0.004h-0.002c-0.139,0.091-0.288,0.149-0.443,0.149
		c-0.563,0-1.034-0.659-1.185-1.553c-0.032,0.191-0.054,0.392-0.054,0.602c0,1.181,0.657,1.87,1.178,2.211
		c0.131,0.086,1.146,0.507,1.285,0.415l0.372-0.535l1.277-1.798c0.183-0.124,0.436-0.708,0.565-0.783
		c2.314-1.32,5.975-2.5,10.771-2.452c7.536,0.078,9.134,1.095,11.183,1.7c0.116,0.246,1.748,2.326,2.244,2.941
		c0.521-0.146,0.958-0.396,0.998-0.427c0.786-0.606,1.208-1.203,1.208-2.384c0-0.208-0.021-0.402-0.055-0.592
		C15.241-15.225,13.371-15.128,13.254-15.375z"/>
	<g>
		<path fill="#C9EAF5" d="M-3.74,39.437c0,0-0.025,0.029-0.054,0.059C-3.78,39.478-3.763,39.46-3.74,39.437z"/>
		<path fill="#C9EAF5" d="M-3.802,39.501c-0.021,0.019-0.034,0.035-0.04,0.039C-3.836,39.539-3.825,39.526-3.802,39.501z"/>
	</g>
	<path fill="#285234" d="M22.842,18.005c0-5.665-0.032-4.024,0-5.711c0.063-3.199-0.366-2.686-6.396-5.259
		c-0.01,10.026-0.023,8.781-0.023,10.97c0,8.235-4.438,15.418-11.043,19.352c-0.892-0.866-2.955-1.474-5.358-1.474
		c-3.221,0-5.829,1.087-5.829,2.429c0,1.341,2.608,2.429,5.829,2.429c1.15,0,2.226-0.142,3.129-0.383
		C14.254,38.94,22.842,29.478,22.842,18.005z"/>
	<path fill="#546C31" d="M-3.937,40.253c0-0.753,0.057,0.165,0.003-0.447c-0.078-0.882,2.411-1.39,4.494-1.39
		c1.55,0,3.883,0.732,3.883,1.4c0,2.254-0.009-0.339,0,0.438c0.025,2.401-1.876,4.182-4.189,4.182
		C-2.062,44.435-3.937,42.563-3.937,40.253z"/>
	<ellipse fill="#CBDB2E" cx="-0.765" cy="41.668" rx="1.519" ry="1.568"/>
	<path fill="#546C31" d="M4.012-23.704c1.462,0.382-1.819-11.023-1.819-11.023l-1.298,0.031l-2.851,0.064
		c0,0-2.763,10.56-1.903,10.56C-0.266-24.072,1.032-24.483,4.012-23.704z"/>
	<path opacity="0.6" fill="#D8E4EB" enable-background="new    " d="M-13.564,0.053C-14.586-2.521-5.24-17.061-5.24-17.061
		l-2.62,0.794c0,0-12.473,20.062-11.657,19.801C-15.258,2.166-12.784,2.021-13.564,0.053z"/>
	<path fill="#285234" d="M7.168-16.758c0,0,7.021,11.029,8.761,19.166l5.976,2.398c0,0-0.396-6.479-10.907-20.458L7.168-16.758z"/>
	<path fill="#285234" d="M-3.86-24.167c-19.356,4.879-11.462-20.059-11.462-20.059l13.366,9.498L-3.86-24.167z"/>
	<path fill="#546C31" d="M4.012-23.704c19.355,4.878,11.546-20.521,11.546-20.521L2.191-34.728L4.012-23.704z"/>
	<path opacity="0.6" fill="#D8E4EB" enable-background="new    " d="M0.194-23.623c0.382,0.422,0.562-11.021,0.562-11.021
		l-1.198-0.023c0,0-1.836,10.429-1.592,10.454C-0.999-24.109-0.586-24.482,0.194-23.623z"/>
	<polygon fill="#285234" points="2.191,-34.728 4.012,-23.704 2.474,-23.915 1.628,-34.667 	"/>
	<path fill="#546C31" d="M-13.368-43.042l-1.962-1.394c0,0-5.485,17.363,3.951,20.27C-16.692-28.181-14.392-39.159-13.368-43.042z"
		/>
	<path fill="#285234" d="M13.757-42.621l1.96-1.395c0,0,5.488,17.363-3.948,20.27C17.08-27.758,14.78-38.736,13.757-42.621z"/>
	<path fill="#546C31" d="M23.877,5.813l0.001-0.006c0,0-0.011-0.007-0.03-0.02c-0.195-0.161-0.422-0.284-0.669-0.361
		C20.697,4.141,11.72,0.053-1.998,0.053c-12.518,0-19.706,4.067-22.122,6.615c-1.27,1.321,0,0,0,0
		c-0.542,0.352-0.901,0.959-0.901,1.651c0,1.089,0.882,1.972,1.971,1.972c0.251,0,0.489-0.051,0.71-0.138l0.005,0.002l0.006-0.005
		c0.29-0.114,0.542-0.297,0.747-0.525c2.265-1.501,9.625-5.692,21.21-5.624C11.647,4.073,18.752,6.99,21.066,8.529
		c0.185,0.227,1.448,0.739,1.526,0.739c1.089,0,1.971-0.882,1.971-1.97C24.564,6.704,24.294,6.174,23.877,5.813z"/>
	<g>
		<path fill="#C9EAF5" d="M-21.105,7.544c0,0-0.153,0.159-0.302,0.312C-21.327,7.773-21.231,7.675-21.105,7.544z"/>
		<path opacity="0.6" fill="#D8E4EB" enable-background="new    " d="M-22.009,9.196c0-0.693,0.361-1.301,0.903-1.651
			c2.417-2.548,9.604-6.615,22.122-6.615c8.424,0,15.048,1.541,19.49,3.028C16.251,2.275,8.726,0.053-1.392,0.053
			c-12.52,0-19.706,4.067-22.123,6.615c-0.126,0.131-0.221,0.229-0.299,0.312c0.146-0.152,0.299-0.312,0.299-0.312
			c-0.542,0.352-0.902,0.959-0.902,1.651c0,1.089,0.883,1.972,1.973,1.972c0.245,0,0.479-0.051,0.697-0.133
			C-21.911,9.873-22.009,9.547-22.009,9.196z M-24.065,7.243c0.024-0.027,0.109-0.115,0.209-0.219
			C-23.983,7.158-24.045,7.22-24.065,7.243z"/>
		<path fill="#C9EAF5" d="M-21.448,7.901c-0.098,0.103-0.184,0.189-0.209,0.218C-21.636,8.096-21.576,8.035-21.448,7.901z"/>
	</g>
	<path fill="#285234" d="M22.697,8.802c-0.079,0-1.345-0.513-1.527-0.74c-2.314-1.539-9.419-4.456-21.442-4.527
		c-11.586-0.069-18.947,4.123-21.21,5.624c-0.205,0.229-0.457,0.411-0.747,0.525c-0.001,0-0.007,0.005-0.007,0.005l-0.006-0.001
		c-0.221,0.085-0.458,0.137-0.709,0.137c-0.897,0-1.646-0.604-1.885-1.428c-0.053,0.177-0.086,0.36-0.086,0.553
		c0,1.088,0.882,1.971,1.971,1.971c0.252,0,0.489-0.051,0.709-0.137h0.006c0,0,0.006-0.003,0.007-0.003
		c0.291-0.114,0.542-0.299,0.747-0.527c2.263-1.5,9.624-5.693,21.21-5.624c12.021,0.072,19.128,2.989,21.44,4.529
		c0.185,0.226,1.448,0.739,1.527,0.739c1.089,0,1.971-0.883,1.971-1.971c0-0.191-0.037-0.37-0.087-0.544
		C24.34,8.201,23.593,8.802,22.697,8.802z"/>
	<g>
		<path fill="none" stroke="#020202" stroke-width="2" stroke-miterlimit="10" d="M4.795,40.378c0,0.032-0.003,0.062-0.003,0.092
			C4.793,40.798,4.795,41.233,4.795,40.378z"/>
		<path fill="none" stroke="#020202" stroke-width="2" stroke-miterlimit="10" d="M25.021,8.047c0-0.191-0.037-0.371-0.088-0.544
			c-0.01,0.029-0.021,0.056-0.032,0.085c0.09-0.604-0.134-1.155-0.67-1.655l0.001-0.005c-0.659-0.375-1.284-0.685-1.983-1.005
			l0.009,0.003C22.048,0.535,17.774-6.829,13-13.339c0.245,0.312,0.461,0.583,0.594,0.749c1.534-0.432,2.438-1.776,2.152-3.401
			c-0.003,0.02-0.013,0.038-0.018,0.057c0.051-0.605-0.09-1.192-0.421-1.761l0.001-0.007c-1.298-1.245-2.786-2.281-4.354-3.156
			c0.821,0.371,1.57,0.761,2.238,1.148c-1.898-1.3-4.84-2.894-8.661-3.706c-0.056-0.057-0.111-0.112-0.167-0.167
			c5.098,1.285,8.308,0.468,10.275-1.431c5.802-5.023,1.43-18.881,1.43-18.881l-0.082,0.059c-0.05-0.174-0.078-0.27-0.078-0.27
			l-13.365,9.5c-0.878,0.021-1.756,0.041-2.633,0.061l0,0l-1.514,0.033c0,0-0.021,0.081-0.059,0.22l0.059-0.314l-11.458-8.142
			c0.016-0.059,0.03-0.12,0.045-0.175l-1.962-1.394c-1.469,4.947-2.646,11.196-0.622,16.165c2.344,5.757,7.562,4.226,12.4,4.198
			c-0.05,0.053-0.099,0.104-0.148,0.159c-6.352,0.792-10.083,4.56-11.436,7.024c-0.073,0.136-0.073,0.136,0,0
			c-1.038,1.164,0.021,6.401,1.959,5.104l0.099-0.14c-4.638,6.671-8.812,13.779-9.26,17.096c0,0,0.126-0.159,0.743-0.489
			c-1.108,0.698-1.955,1.384-2.524,1.986c-0.752,0.486-1.069,1.417-0.799,2.256c0,1.401,1.42,2.345,2.679,1.857l0.005,0.001
			c0.041-0.021,0.083-0.045,0.124-0.066c-0.858,1.691-0.229,4.729-0.218,6.648c0.022-1.625,0.011,1.766,0,0
			c-0.155,11.144,7.25,20.82,18.394,22.812c0,5.504,8.309,5.501,8.376-0.019c0.001-0.001,0.002-0.001,0.002-0.001
			c0.001,0.113,0.002,0.113,0.001,0c7.518-1.406,13.893-6.651,16.76-13.71c1.6-3.949,3.615-13.027,1.135-16.679
			C23.84,10.355,25.021,9.208,25.021,8.047z"/>
	</g>
</g>
</svg>
