<?xml version="1.0" encoding="utf-8"?>
<!-- Generator: Adobe Illustrator 16.0.4, SVG Export Plug-In . SVG Version: 6.00 Build 0)  -->
<!DOCTYPE svg PUBLIC "-//W3C//DTD SVG 1.1//EN" "http://www.w3.org/Graphics/SVG/1.1/DTD/svg11.dtd">
<svg version="1.1" id="Logo_1_" xmlns="http://www.w3.org/2000/svg" xmlns:xlink="http://www.w3.org/1999/xlink" x="0px" y="0px"
	 width="841.89px" height="595.28px" viewBox="0 0 841.89 595.28" enable-background="new 0 0 841.89 595.28" xml:space="preserve">
<g id="Blast_1_">
	<g id="Blast">
		<g id="Shadows_1_">
			<path id="Shadows" fill="#1D2A19" d="M402.409,322.936c-0.261-8.736,3.383-33.215,2.995-41.521
				c-0.331-7.1,0.627-14.93,1.449-22.188c0.679-4.555,0.354-9.037-0.975-13.445c-1.896-5.635,3.38-8.172,1.95-13.574
				c-1.358-5.146-9.132-12.131-6.241-17.432c7.571-13.902,1.812-6.178,13.45-2.254c-6.062,6.088-3.154,10.533-3.562,18.59
				c-0.588,11.621,15.665,1.346,17.233-5.162c3.109-12.863,12.125,0.474,20.061-6.162c2.938-2.459,16.586-6.856,20.443-7.155
				c3.625-1.07,12.586-9.117,13.475-12.656c1.941-6.109,11.43-2.931,4.18-10.688c-8.562-9.162-7.756-1.17-13.881,4.084
				c-7.285,6.248-17.975-5.891-21.762,7.312c-1.783-9.726,1.533-10.562,8.064-14.604c4.271-2.646,5.859-11.586,11.703-11.188
				c8.854,0.602,18.188,23.133,28.23,10.049c5.002-6.516,5.172-31.514,16.867-31.047c5.842,0.233,10.312,4.729,15.605,2.783
				c7.604-2.812,10.455-5.931,17.363-9.474c1.082,2.402-1.262,4.183-1.82,6.277c-1.627,6.09,9.018-1.256,9.062-1.269
				c3.369-1.409,5.08-5.155,8.355-6.643c8.229-3.736,2.113,10.898,2.312,11.484c13.016,3.918,15.248-0.144,25.545-6.254
				c4.125-2.447,4.82,3.495,7.932,2.418c4.855-1.687-2.096-8.912,4.631-4.511c0-8.975,0.201-12.264,0-20.764
				c0.201-1.5,0-2.795,0-3.125c0,2.695,0.111-2.857,0-2.959c0-8.625,2.133-22.541-6.035-19.562
				c-18.955,6.916-37.094,13.772-56.621,18.821c-9.27,2.396-33.939,14.271-39.898,6.107c-6.145-8.414-31.203,12.369-38.883,14.703
				c-8.125,2.473-14.291-0.345-22.809,3.506c-3.387,1.531-14.967,8.35-18.266,8.158c1.113-14.931-19.293,5.258-21.012,0.571
				c-3.303-9.01-21.479-6.184-27.896-5.235c-8.618,1.272-7.937,0.526-14.633,5.596c-1.816,1.375-16.262,12.482-17.03,7.254
				c-0.729-4.979,3.99-6.955,4.834-11.012c1.312-6.297-9.907-4.465-13.026-3.467c-5.021,1.604-9.718,4.354-14.286,6.922
				c-2.294,1.305-4.592,2.602-6.892,3.895c-5.997,3.328-2.558,0.416-8.458,0.285c-5.562-0.123-17.22,22.039-24.537,16.928
				c-3.426-2.396,0.265-11.305-8.229-7.991c-9.376,4.682-17.633,11.692-26.315,17.516c-6.853,4.596-16.018-8.73-20.029-13.656
				c3.509-2.176,3.569-11.666,0.177-13.84c-3.643-2.334-7.283,1.58-11.346-0.543c-4.89-2.553-8.248-8.258-14.897-5.053
				c-3.843,1.602-4.604,0.422-4.882-3.031c-0.061-5.363-8.353-3.18-10.878-2.943c-11.347,1.053-23.533,6.515-33.773,2.734
				c18.303-5.019,24.644-16.965,24.136-35.785c-0.497-18.422-8.56-37.861-29.354-36.496c2.489-0.312,4.815-1.094,6.979-2.342
				c6.484-4.541,2.1-3.271,10.431-1.732c6.567,1.214,14.373,0.904,19.839,0.904c-1.726,18.48,4.512,47.816-6.739,63.564
				c-7.41,10.373,22.771-0.523,25.974-2.058c19.154-9.164,8.725,10.453,25.817,10.529c14.554,0.062,23.516-7.848,30.752-18.842
				c1.188,2.686,4.73,15.354,7.165,16.207c2.472,0.867,12.098-5.332,14.738-6.498c-1.806-3.756-3.36-7.605-4.743-11.543
				c3.338,6.387,36.458-35.771,49.833-17.39c-0.225-0.309-2.959,12.238-3.249,12.851c-2.976,6.268-4.472,9.287-9.971,7.764
				c-5.988-1.662-13.229,4.017-18.556,1.42c-4.501-2.192-9.479-4.358-13.054,2.246c-1.424,2.631,33.851,5.344,40.107,5.824
				c25.836,1.987,20.561-49.256-3.256-44.978c-6.575,1.183-18.531,6.769-19.851-4.063c-2.099-17.269,19.292-8.902,26.282-3.654
				c15.229-27.447-41.869-23.522-39.954,6.65c0.77,12.108,19.425,17.312,4.436,25.396c-24.228,13.062-16.694-27.856-23.503-40.449
				c7.371-3.854,14.288-6.448,21.117-11.45c4.015-2.939,10.46-10.482,15.496-11.271c2.827-0.44,11.024-3.312,13.521-2.113
				c6.643,1.55,2.333,7.9,4.125,11.884c0.581,1.295,6.611-13.271,6.912-12.865c0.144,0.154,14.194-2.959,15.795-3.209
				c2.967,23.234-12.172,61.102,7.188,78.859c6.835,6.271,18.021,10.817,26.131,4.872c7.375-5.401,25.727-17,19.927-27.812
				c-4.573-8.525-18.58,17.229-27.556,17.979c-15.44,1.296-12.855-15.752-12.627-26.055c0.249-11.057,0.537-22.113-0.004-33.168
				c-0.321-6.572-5.315-19.596,5.479-17.873c2.512,0.398,5.521,1.912,7.115,4.008c1.446,1.896,1.379,21.791,1.987,21.066
				c2.457-5.137,1.854-14.523,3.344-20.463c2.056-8.188,1.094-6.715,6.216-15.014c4.619-7.48-12.28-4.263-14.878-1.541
				c-14.646,15.354-7.875-13.722-10.936-20.345c-2.616-5.668-6.889-9.432-11.783-2.713c-6.968,9.564,2.166,14.119-0.115,21.885
				c-3.838,13.062-39.295,10.289-50.969,13.63c-8.251,2.358,0.484,5.262-1.34,10.047c-3.639,9.545-15.876,13.659-24.865,15.938
				c-17.512,4.435-27.854,10.463-40.156,25.394c-3.753,0.223-11.791,16.791-12.696,22.312c-0.416,2.537-15.407,9.92-17.213,9.297
				c-4.607-1.592,0.476-40.082,0.704-42.614c1.75,0.508,43.148,11.098,36.696-1.828c0.245,0.489-15.708,3.506-16.715,3.395
				c-8.472-0.94-20.35-4.09-18.474-13.828c2.537-13.178,3.899-26.631,6.392-39.879c0.964-5.127,5.679-13.18,3.529-18.182
				c-3.13-7.287-16.174-5.854-15.512,2.918c1.243,16.467-5.586,33.406-7.46,49.883c-6.311,3.312-11.438,4.264-18.575,1.846
				c-13.275-4.494-5.133-10.633-5.805-21.25c-1.21-19.137-22.008-31.114-39.64-28.045c-13.576,2.363-24.134,10.568-37.769,12.402
				c-7.247,0.977-10.815,13.93-2.31,14.188c6.989,0.213,11.987-6.932,17.604-9.705c-3.216,30.81-7.333,61.078-11.887,91.681
				c-0.646,4.332-0.645,29.977-9.507,22.426c-4.425-3.771-10.088,0.479-14.923,0.273c-7.893-0.334-14.886-6.521-22.384-8.582
				c-7.572-2.084-27-23.539-26.816-1.199c0.054,6.373,5.768,23.188,14.898,17.289c2.527-1.633,19.633,11.444,19.946,15.01
				c2.042,7.354,10.656,11.914,16.896,6.908c5.376-4.312,18.48,2.801,24.618,3.496c4.676,0.53,10.338-1.945,14.909-2.711
				c3.772-0.617,7.561-1.138,11.36-1.56c1.062-1.705,2.499-2.987,4.31-3.852c5.296-0.785,4.684-7.627,8.968-8.422
				c2.341,1.271,4.686,2.537,7.031,3.801c3.449-0.848,6.597-2.365,9.443-4.555c8.502-4.625,22.135-5.845,21.179,7.627
				c-0.922,13.08,13.275,7.141,13.938,9.549c3.111,11.313,6.748,11.801,12.417,0.234c1.406,2.092-1.364,8.522,3.771,7.211
				c0.704-0.308,8.733-1.275,7.729,1.551c-1.27,3.57-8.438,5.83-10.198,9.666c-1.898,4.955-11.97,13.861-16.323,17.561
				c-2.945,2.812-9.266,5.344-10.78,9.279c0.072,0.891-15.279,19.869-14.994,19.834c-1.852-0.686-3.6-1.578-5.245-2.684
				c-3.072-0.755-8.212,4.909-10.714,6.235c-8.319,4.412-14.179,9.271-6.117,17.01c5.098,5.938,14.509,5.294,21.25,2.619
				c9.047-3.588,9.336-11.871,14.028-18.426c6.762,5.603-1.646,10.01,8.229,1.187c2.252-2.685,2.093-6.625,4.233-9.334
				c5.323-6.734,6.44,8.521,6.812,8.891c5.974-1.062,13.728-2.545,15.914-9.057c0.674-2.589,1.667-5.046,2.977-7.367
				c2.441-3.89,5.556,0.914,7.71-1.349c0.649-1.75,0.997-3.563,1.045-5.44c1.794-3.094,6.565-0.062,9.084-1.963
				c1.149-2.566,1.68-5.256,1.592-8.068c1.354-3.498,7.192-6.627,10.452-7.535c13.061-3.646,22.837,18.935,26.057,27.605
				c4.102,11.059-13.8,39.461-0.479,41.676c-3.095,8.484-2.439,22.822,4.42,29.793c7.729,7.852,4.463-17.221,4.071-16.207
				c0.109-10.352-0.695-17.092,1.681-27.381c3.022-10.371-2.253-23.174,1.006-32.387c1.606-4.543,4.388-0.531,7.105-0.734
				c3.012-0.227,5.809-9.412,6.227-10.389c5.046-11.777,10.771,4.539,17.225,3.676c1.128-0.426,5.82-12.598,9.734-6.002
				c9.405,13.516,7.67-1.269,15.521-6.971c1.312,5.268-1.364,10.588-1.918,15.77c-1.107,10.336,7.268,2.832,10.588,2.502
				c8.122,11.4,5.427-4.875,9.008-4.729c5.47,0.237,4.8,9.729,10.926,0.301c2.837,6.764-6.094,11.354-4.18,18.053
				c6.406,3.408,11.365-5.197,15.635-4.389c2.543,0.481,9.824,13.819,9.969,16.354c0.684,11.861,0.807,51.549,1.982,63.383
				L402.409,322.936z M228.628,102.641c3.057,3.205,2.665-0.537,4.602,5.322c0.674,2.038-2.917,5.622-0.677,7.383
				c0.524,0.412,4.983-16.984,7.308-18.771c3.777,0.771,11.744-10.125,16.5-10.748c-0.944,8.176,1.618,28.002-3.326,33.172
				c-4.822,5.043-18.679,17.213-26.087,10.287C219.016,121.871,221.292,109.092,228.628,102.641
				C229.43,103.482,221.941,108.521,228.628,102.641z M107.541,61.32c1.53-8.342,4.04-12.625,1.369-22.313
				c-1.041-3.777,4.771-3.873,6.956-2.392c3.001,2.035,6.907,15.758,5.816,16.707c2.211-3.307-0.215-16.707,3.386-18.313
				c6.08-2.712,11.64,6.729,13.248,11.291c4.467,12.674-1.576,14.235-10.478,19.778c-6.774,4.219-15.013,13.654-23.243,13.396
				C105.464,73.406,106.436,67.35,107.541,61.32C108.533,55.914,105.829,70.662,107.541,61.32z M143.817,130.889
				c-7.848,6.996-23.976,7.158-33.792,8.822c-7.38,1.252-15.264,6.729-12.479-3.459c2.231-8.171,1.229-36.185,7.052-39.88
				c0.375-0.495,10.677,1.621,11.626,2.586c1.473,1.5,1.692,19.968,3.677,19.525c3.157-0.701,1.423-17.883,3.342-20.701
				c10.188-14.973,14.3,2.537,20.44,5.527c-5.373-3.742,3.332-13.465,8.077-5.664C158.378,108.529,152.453,123.189,143.817,130.889
				C136.86,137.09,150.774,124.686,143.817,130.889z M538.92,136.551c0.316-0.054,0.641-0.104,0.961-0.156
				C539.555,136.584,539.232,136.627,538.92,136.551z"/>
		</g>
		<g id="Midlevel">
			<path fill="#50612D" d="M143.817,103.385c-0.048-0.021-0.088-0.05-0.135-0.072C144.411,103.822,144.857,103.85,143.817,103.385z"
				/>
			<path fill="#50612D" d="M159.462,142.912c3.406-4.424,5.887-10.09,8.045-15.207c0.902-2.143,0.575-12.067,0.619-12.11
				c-6.496,6.494-2.148,15.418-11.261,20.938c-2.664,1.609-34.127,12.654-35.247,11.674
				C130.124,155.682,150.812,154.148,159.462,142.912C161.871,139.785,157.054,146.041,159.462,142.912z"/>
			<path fill="#50612D" d="M408.876,137.152c16.262-0.906,31.543-4.998,47.489-7.123c7.693-1.022,18.068-3.867,24.93-7.498
				c3.988-2.108-11.643-2.162-12.752-1.748c-14.031,5.238-30.078,6.32-44.711,9.729
				C419.905,130.312,403.389,137.457,408.876,137.152C412.556,136.947,408.07,137.197,408.876,137.152z"/>
			<path fill="#50612D" d="M61.583,148.145c-7.512,1.896-21.416-5.943-28.628-8.379c-4.642-1.568-10.547-1.209-14.85-3.385
				c-3.663-1.855-4.003-4.851-8.325-5.578c-2.42,10.453,25.428,14.139,33.045,13.655c6.16-0.393,11.134,9.312,19.859,7.898
				c4.566-0.736,15.95,1.856,18.76-0.416C75.307,149.201,68.463,146.408,61.583,148.145
				C56.012,149.551,68.373,146.43,61.583,148.145z"/>
			<path fill="#50612D" d="M196.863,138.299c-4.097,8.028-16.686,4.653-23.536,5.957c-7.729,1.475-14.934,5.723-23.039,4.911
				c0.484,7.761,23.489-1.188,28.053-1.67c4.775-0.504,14.752,1.841,18.596-1.881C199.542,143.094,200.705,139.367,196.863,138.299
				C195.038,141.877,197.686,138.529,196.863,138.299z"/>
			<path fill="#50612D" d="M223.375,148.238c1.768,3.422,7.535,3.752,10.516,2.23C233.826,150.41,221.324,144.266,223.375,148.238
				C224.85,151.09,223.255,148.004,223.375,148.238z"/>
			<path fill="#50612D" d="M605.066,97.504c-7.5-2.265-17.908,6.969-25.273,8.291c-18.092,3.247-36.121,6.844-54.123,10.545
				c-12.293,2.526-24.689,4.866-36.854,7.967c-6.662,1.697-17.49,5.477-23.375,8.912c-8.545,4.987-18.783,5.396-29.105,7.979
				c-1.891,0.473-6.795,5.631-7.449,5.494c-4.822-0.996-3.418-4.631-9.285-3.092c-2.959,0.774-29.283,2.875-29.873,1.129
				c-2.785-8.223-22.295,2.453-28.031,2.617c0.711-0.021-14.601,13.092-13.484,3.334c0.152-1.338,5.003-22.287-3.24-12.188
				c-1.234,1.508-13.995-0.086-17.846,1.57c-8.445,3.643-16.127,9.146-24.829,12.184c-12.354,4.308-19.229,3.441-28.289,15.08
				c7.233,4.045,12.745,1.447,19.062-3.381c-0.459,3.756-7.151,5.654-6.163,9.183c5.145,0.493,17.839-16.804,19.072-12.211
				c1.478,5.51,15.199-7.49,18.406-9.32c3.907-2.229,14.651-2.174,16.685-4.125c6.419-6.152-0.304,16.752-0.141,17.039
				c3.407,5.912,19.355-9.888,22.605-11.844c4.631-2.787,9.028-1.287,13.828-2.919c7.479-2.541,4.941,3.728,12.333,0.785
				c12.084-4.807,7.459,13.711,17.544,5.32c3.984-3.312,5.408-5.312,10.812-6.113c7.606-1.131,0.299,3.146,2.22,5.451
				c1.748,2.094,6.32-0.395,7.23-2.072c3.105-5.764,5.793-3.799,10.914-3.11c1.475,0.198,1.143-4.136,4.744-4.338
				c6.229-0.351,10.201-5.142,16.641-1.197c4.627,2.832,20.482-9.683,24.424-12.479c2.939-2.086,27.84-7.756,19.895,1.312
				c-0.738,0.844-5.682-3.688-5.74-4.336c0.312,3.383,5.363,10.008,8.252,11.344c-8.266-14.863,81.648-24.324,95.734-36.32
				C604.699,102,605.188,116.615,605.066,97.504z"/>
			<path fill="#50612D" d="M260.783,168.594c-7.44-0.472,6.713-13.722,9.574-16.918c5.43-6.066,7.655-1.898,13.812-2.748
				c3.862-0.531,10.476-6.849,15.137-7.986c-1.083,0.266,13.115-1.26,8.823-3.984c2.795-1.875,1.205-1.664,4.782-0.502
				c7.111,2.312,19.786-2.242,19.507-8.34c-0.537-11.734,3.449-19.063-4.899-31.19c-7.663-11.128-30.739,8.702-40.562,2.653
				c1.238,0.763,1.609-9.289,1.274-10.596c-0.122-0.477,8.455,8.938,7.868,6.678c-2.415-9.297-0.817-15.018,3.86-20.006
				c3.166-3.377,23.704,3.926,22.268,8.037c1.055-3.008,3.496-15.904-0.978-14.383c-12.647,4.312-23.985-6.4-33.733,7.293
				c-5.199,7.305-7.511,18.615,0.44,25.207c3.513,2.912,19.124,0.153,23.738-0.006c6.172-0.213,7.854-1.761,12.958,3.069
				c1.594,1.509,4.038,3.431,1.085,4.379c-2.964,0.951-1.268,4.132-0.771,6.238c1.058,4.479-4.245,5.105-3.354,10.551
				c1.12,6.869-11.56,5.168-14.054,4.115c-3.542-1.494-8.035,0.857-11.833,0.938c-3.046-0.254-6.002-0.914-8.868-1.979
				c-3.827-1.279-7.439,5.31-4.75,6.088c-17.166,2.199,0.175,7.062-12.121,13.002c-9.472,4.572-12.464,13.271-15.715,21.687
				c-0.748,1.936-13.252,3.543-15.909,3.215c-5.28-0.65-14.472-13.107-15.188-11.139c-0.765,2.1,6.726,4.448,4.92,6.215
				c-5.294,5.178-7.418,0.221-1.529,6.238c5.212,5.327-1.847,6.274,7.872,7.038c4.907,0.388,1.988,10.984,8.744,6.078
				c9.343-6.776,19.036-13.049,28.586-19.526C268.016,165.746,264.58,168.836,260.783,168.594
				C259.548,168.516,264.476,168.83,260.783,168.594z M295.723,133.541c2.276,0.992,4.561,1.972,6.85,2.937
				c-6.459-0.379-11.663-2.349-18.317-1.541C287.557,134.006,292.257,132.379,295.723,133.541
				C297.137,134.014,293.128,132.67,295.723,133.541z"/>
			<path fill="#50612D" d="M92.268,151.857c-2.226-0.943-4.146-0.467-5.758,1.432c6.042,1.543,18.532,7.938,22.67-0.192
				C103.58,151.189,98.117,154.832,92.268,151.857C90.844,151.133,97.297,154.416,92.268,151.857z"/>
			<path fill="#50612D" d="M114.521,153.236c2.995,1.754,5.743,1.484,8.222-1C119.818,151.059,117.135,151.861,114.521,153.236z"/>
			<path fill="#50612D" d="M198.474,152.963c2.34-0.646,4.688-1.15,7.102-0.384C202.965,148.387,201.083,148.49,198.474,152.963z"/>
			<path fill="#50612D" d="M193.073,149.145c-0.937,4.391-0.536,4.926,3.175,4.25C195.841,151.494,194.889,149.998,193.073,149.145z
				"/>
			<path fill="#50612D" d="M366.746,134.428c1.124-0.894,17.903,7.646,16.824,0.573c-0.349-2.346-26.049-7.071-27.692-5.108
				C353.133,133.17,364.234,136.424,366.746,134.428C368.447,133.078,364.16,136.482,366.746,134.428z"/>
			<path fill="#50612D" d="M403.628,136.674C402.885,135.664,404.321,137.598,403.628,136.674
				C403.552,136.572,403.693,136.76,403.628,136.674z"/>
			<path fill="#50612D" d="M85.443,46.322c-0.054-1.186-2.286-1.731-2.975-1.576c10.926-2.475,33.573-22.84,40.335-4.319
				c-3.597-9.843,7.45-8.996,11.879-4.199c7.91,8.567,11.167,19.026,2.71,29.461c-10.916,13.471,4.553,9.02,8.725,0.207
				c6.491-13.707-0.686-25.455-9.232-35.172c-3.934-4.472-13.261-2.146-18.419-3.086c-11.007-1.998-20.233,5.551-31.197,6.188
				c-3.715,0.402-14.491-3.406-14.074,4.226c0.234,4.28,5.496,18.125,4.537,20.836c1.022-2.892-0.844-7.664,2.72-9.354
				C81.33,49.113,85.529,48.217,85.443,46.322C85.372,44.768,85.501,47.602,85.443,46.322z"/>
			<path fill="#50612D" d="M97.454,105.42c0-16.702,6.763-34.84,10.327-51.309c5.634-26.021-11.355-9.998-10.805,6.668
				c0.389,11.781-2.914,27.867-5.968,39.604c-2.854,10.961-3.91,22.938-6.082,34.176c-2.218,11.469,4.937,14.352,7.566,1.969
				C94.618,126.518,97.454,115.709,97.454,105.42C97.454,99.613,97.454,112.215,97.454,105.42z"/>
			<path fill="#50612D" d="M182.851,126.902c-7.958,5.182,4.315,20.521,4.342,1.389c0.014-10.428,3.74-22.112,3.605-33.946
				c-0.133-11.562,0.39-19.414,2.571-30.453c2.618-13.24,6.889-27.104,8.586-40.199c0.787-6.061-3.455-14.057-7.169-5.688
				c-6.471,14.574-6.16,31.058-8.772,46.849c-1.869,11.289-4.617,22.469-4.806,33.988
				C181.098,105.641,190.905,121.662,182.851,126.902C181.336,127.887,187.559,123.838,182.851,126.902z"/>
			<path fill="#50612D" d="M193.633,132.316c-0.376,0.871-0.753,1.742-1.129,2.613c0.199,0.805,18.125-8.42,18.78-7.631
				C208.284,123.695,195.964,129.717,193.633,132.316C190.763,135.52,195.742,129.965,193.633,132.316z"/>
			<path fill="#50612D" d="M217.723,111.545c1.393-1.393,9.594-15.467,11.864-13.481c4.956,4.34,7.783-9.59,8.838-10.945
				c0.13-0.17,16.437-2.996,16.927-2.78c3.13,1.372,5.616,7.34,7.756,8.196c-10.54-4.233-2.5,18.467-2.79,20.412
				c0.222,2.113,0.711,4.17,1.469,6.154c-2.769,1.149-6.156,2.69-8.083,5.127c-2.291,2.896-3.902,5.68-7.027,7.162
				c3.601-4.248-7.098,0.252-9.913,0.729c-2.67,0.447-17.169-2.682-14.029,5.438c-0.077-0.197,20.47-1.963,22.181-4.053
				c3.568-1.179,5.588,2.508,8.262-4.005c3.65-8.896,4.467-3.293,10.385-2.655c1.075,4.803,7.516,9.739,10.518,2.771
				c0.419-0.975-3.828-8.41-4.204-9.396c-3.832-10.045-0.292-16.931-0.399-27.105c-0.137-12.869-3.409-18.984-16.693-18.688
				c-12.79,0.284-14.853,2.456-21.729,11.514c-5.107,6.729-11.495,12.272-15.404,19.813c-3.314,6.396-8.364,19.578,0.274,25.025
				C218.942,132.678,216.278,112.99,217.723,111.545C221.767,107.502,213.678,115.59,217.723,111.545z"/>
			<path fill="#50612D" d="M302.54,51.504c3.008-1.328,4.667-2.828,8.122-4.164c7.544-2.918,5.234,5.846,8.796,7.998
				c-0.117-0.072,2.951-9.89,6.747-8.919c5.506,1.406,12.224-1.442,16.586-4.063c-1.209,13.604,2.223,25.039-0.588,38.404
				c-1.441,6.86-2.952,9.479,0.717,15.11c2.224,3.412-1.983,12.25-1.01,17.265c0.346,1.771,6.763,13.19,9.118,6.592
				c2.16-6.049,0.736-14.33,1.223-21.818c0.616-9.498,0.188-16.807-4.148-25.318c-1.175-2.299,2.06-13.926,2.093-17.147
				c0.064-6.527,0.667-13.814-0.454-20.266c-1.332-7.63,6.157-15.308,0.726-23.138c-7.06-10.176-12.045,5.211-10.233,11.236
				c0.786,2.621,5.257,13.812,0.461,14.453c-7.071,0.942-14.139,1.938-21.189,3.008c-7.717,1.17-25.32,1.992-29.934,8.189
				C294.283,50.877,297.266,53.834,302.54,51.504C308.181,49.012,296.899,53.996,302.54,51.504z"/>
			<path fill="#50612D" d="M365.605,130.117c6.845-0.899,11.228-2.717,16.85-8.104c1.007-0.963,8.063-18.531,10.457-17.136
				c-4.799-2.807-12.782,11.531-13.838,14.798c-1.512,4.686-15.254,4.17-19.096,4.272
				C356.282,126.342,363.999,130.328,365.605,130.117z"/>
			<path fill="#50612D" d="M121.376,95.664c4.83-4.153,11.868-2.78,15.954-7.522c4.252,6.854,16.86-0.146,18.856,6.987
				c2.771,9.908-0.979,15.604-1.823,25.691c-0.59,7.049-15.772,15.793-15.632,17.949c0.261,3.986,15.518-7.127,16.204-8.051
				c2.003-2.699,4.18-17.545,4.66-17.705c1.539-0.509-0.101-19.076-0.296-20.854c-1.285-11.578-4.516-7.166-10.181-13.26
				c-1.145-1.229-18.798-0.15-18.823-0.418c0.254,2.653-10.948-2.252-13.507-1.775c-4.16,0.771-9.422,3.707-10.865,8.443
				c-0.46,1.516-2.779,9.518,1.368,9.756C109.531,95.033,120.074,96.785,121.376,95.664C126.391,91.35,118.571,98.08,121.376,95.664
				z"/>
		</g>
		<g id="Highlight">
			<path fill="#85903D" d="M235.135,132.441c6.208,2.879,14.091-0.24,17.778-4.859c0.912-1.145,13.675-11.104,13.534-11.391
				c1.054,2.162-42.354,15.143-42.692,16.639C223.078,135.828,234.399,132.1,235.135,132.441
				C236.64,133.139,233.63,131.744,235.135,132.441z"/>
			<path fill="#85903D" d="M363.902,125.008c3.239-0.427,8.383-4.259,9.604,0.354c1.016,3.816,6.181-1.662,6.104-3.936
				c-0.146-4.3,15.212-13.261,11.326-18.242c-2.203-2.822-10.233,11.815-12.233,13.141c-1.375,0.91-17.017,8.729-17.3,7.984
				C362.237,124.543,363.069,124.775,363.902,125.008C368.48,124.408,359.328,125.611,363.902,125.008z"/>
			<path fill="#85903D" d="M604.924,93.99c2.125-3.812-28.268,4.935-37.646,6.699c-21.334,4.023-42.686,7.963-64.025,11.947
				c-14.629,2.731-29.369,5.178-43.891,8.451c-7.152,1.612-39.196,4.098-42.005,10.688c4.822,2.754,21.177-3.588,26.218-4.697
				c10.277-2.266,24.217-7.879,34.453-6.045c-21.822,9.045-45.422,12.287-68.8,14.244c2.174-1.602,6.061-0.186,6.686-3.77
				c-7.01-0.062-13.69,2.623-20.893,2.436c-8.714-0.229-16.733-3.988-25.355-4.082c-15.124-0.166-30.049,4.428-45.073,5.67
				c5.375-11.403,6.683-17.188,4.472-29.305c-0.916-5.021-2.392-9.984-8.521-10.191c-0.558-0.021-14.486-0.844-14.273,1.689
				c0.03,0.354,13.901,3.752,14.819,3.979c3.646,0.912,7.95,18.804,8.08,18.711c-1.722,1.228-4.711-1.289-5.604,2.494
				c-0.919,3.879-1.637,6.533-5.178,9.006c-6.263,4.373-4.974,3.437-12.795,1.937c-2.583-0.49-29.359-3.729-29.573-0.914
				c0.35-4.604,1.688-5.338-1.787-9.062c5.946-1.969,30.951-14.715,24.35-21.752c1.229,0.062,2.032-0.362,2.411-1.276
				c-3.179-1.982-8.885,1.358-11.979-1.371c0.672,0.594,0.358-11.982,0.694-11.937c1.186,0.169,2.015-12.221,7.501-13.821
				c5.324-1.554,8.753-0.252,13.812,1.196c2.104,0.603,7.271-1.965,8.085-1.557c2.757,1.367-2.742,5.982,2.09,5.467
				c4.65-0.496,5.516-5.145,1.261-8.688c-7.336-6.109-23.155-2.549-30.557,1.58c-6.451,3.604-8.075,17.365-7.181,24.024
				c0.915,6.812,4.535,7.964,11.303,6.918c1.82,7.964-5.217,13.07-11.674,15.748c-17.793,7.384-11.787-8.832-12.742-20.926
				c-0.963-12.197-10.611-23.168,3.285-28.635c2.192-0.861,23.632-19.68,24.334-18.568c4.768-0.797,2.547-5.578,8.23-6.92
				c5.955-1.403,12.875,0.138,12.652,7.572c4.103-9.656,1.948-5.68,7.531-5.99c1.517-0.082,1.041-2.834,2.179-3.414
				c3.878-1.979,2.789,7.625,6.802,1.677c2.591-3.841,6.24-2.923,10.068-4.462c4.197,6.427-3.017,12.871-1.928,19.503
				c0.538,3.274,1.621,6.291,1.727,9.659c-1.92,2.562-1.808,5.054,0.344,7.468c0.364,0.387-2.426,0.022-2.719,0.786
				c-1.119,2.935,2.896,9.156,2.157,9.617c-2.231,1.4-9.383,6.982-2.372,8.381c6.361,1.277-2.021,11.162-0.818,14.854
				c0.08,1.602,4.209,11.797,5.446,9.92c0.875-1.324-1.414-1.92-2.202-1.854c8.59-0.678,4.971-20.594,5.21-28.959
				c0.478-16.657-0.688-33.188-1.427-50.215c2.512-0.229,32.82-0.438,25.141-7.188c-4.375-3.847-18.139,5.311-25.239,4.854
				c-0.192-4.562,6.382-33.479-6.665-24.395c-6.216,4.325,2.776,18.895,3.647,23.852c0.243,1.383-35.483,6.896-37.309,7.182
				c-3.263,0.505-21.458,1.595-19.439,6.189c5.122,1.195-6.546,14.148-8.693,15.686c-10.156,7.267-21.899,5.459-32.927,8.896
				c-10.121,3.15-16.914,11.932-26.444,13.889c-8.446,1.732-16.676-0.701-24.298-4.281c-6.597-3.1-3.43-10.231-2.136-15.7
				c2.188-9.246,1.989-19.353,2.741-28.781c0.634-7.941,9.326-21.812,0.513-26.26c-7.082,0.506-8.798,6.571-6.236,12.354
				c0.928,2.094,3.411,12.558,2.652,13.092c-3.141,2.22,0.152,4.486-0.645,8.832c-0.841,4.605-4.47,8.209-4.252,13.677
				c0.154,3.883-1.706,14.989-0.043,17.25c0.314,0.43-2.411-0.271-2.795,0.448c-2.584,4.877-0.147,4.312,1.759,8.188
				c0.528,1.074-14.109,8.135-2.953,11.838c0.948,0.314,1.832,15.402,1.268,17.354c-0.803,2.785,0.602,14.861-0.989,15.468
				c-2.4,0.916-6.407,0.623-1.458,6.598c-10.743,1.58-21.468,3.281-32.226,4.764c0.343-2.973,5.233-2.666,6.895-5.555
				c2.462-4.281,5.327-7.189,7.148-11.863c1.962-5.035,5.239-8.78,3.457-14.51c-3.127-10.059-1.139-22.521-11.39-28.393
				c-1.417-0.812-15.67-4.804-14.972-6.199c11.026-3.344,11.519-24.26,8.158-33.07c-3.027-7.94-8.019-16.555-16.037-20.305
				c-8.175-3.82-14.556,1.002-22.591,1.002c-5.35,0-10.308,3.289-14.916,5.785c-7.176,3.889-14.405,4.217-21.646,7.217
				c-3.394,1.404-2.904,4.414-0.949,6.768c1.937,2.328,4.514-1.53,6.106-2.491c0.346-0.209,18.979-6.095,16.869-7.351
				c2.116,1.26,3.938,0.084,6.303-1.84c-0.063,1.49,0.494,2.225,1.673,2.201c1.493-9.742,11.322-1.367,13.931,1.258
				c-2.722-2.723,8.521-4.625,8.81-4.674c7.069-1.199,7.798,6.246,10.021,9.969c5.254,8.797,4,16.252,1.165,26.646
				c-0.224,0.03-0.263,0-0.118-0.095c-0.644-0.717-2.259,5.662-2.257,5.968c-1.917,0.528-3.48-4.541-5.262-5.062
				c-3.574-1.047-7.094,2.387-9.513,4.353c-4.051,3.291-20.573,9.936-10.217,15.573c7.016,2.121,7.222-3.936,14.152-3.457
				c3.49,0.236,6.327,0.367,9.819-0.396c5.524-1.207,6.03,4.227,9.486,3.873c7.828-0.797,11.624,0.838,12.265,11.021
				c0.213,1.318,0.852,14.304,0.133,14.541c-0.48,0.16-2.656,15.006-4.66,17.705c-4.371,5.888-14.25,6.793-15.353,7.314
				c-14.183,6.729-28.309,6.453-43.543,7.498c2.486-24.312,5.689-47.191,7.606-71.312c0.478-5.994,6.835-28.694,3.953-30.938
				c-16.215-12.625-5.423,22.918-6.511,23.686c-1.761,1.242-1.922,7.598-0.338,10.918c0.01,0.021-4.029,14.371-4.029,17.035
				c0,4.461-0.826,3.385-1.802,7.861c-3.108,14.256,2.17-2.638-1.567,4.395c-2.584,4.873-0.146,4.314,1.759,8.188
				c0.698,1.416-6.078,3.512-6.499,5.811c-0.748,4.104,3.293,2.674,4.283,5.646c1.187,3.563-2.958,6.485-4.261,9.252
				c-5.138,10.899,2.643,11.282-15.236,7.885c-15.354-2.925-48.52-12.653-63.496-16.95l-0.129,6.158
				c8.835,6.195,21.748,6.881,31.6,10.191c4.856,1.633,8.949,5.817,13.997,6.754c6.708,1.242,14.413-3.238,20.354,1.643
				c4.529,3.719,21.794,3.687,27.104,2.955c7.259-1,15.55-2.354,22.832-1.883c9.936-0.209,19.041-2.935,28.984-1.992
				c5.354,0.508,11.336-3.223,16.472-4.344c7.127-1.555,16.54,0.58,22.892-3.525c8.142-5.256-6.624-6.168,1.012-11.502
				c8.162-5.701,12.32-3.127,20.096-1.539c-1.923-0.395-1.123-20.563,0.699-23.539c4.347-7.096,17.514-10.117,16.615-18.006
				c-0.984-8.643,14.16-4.582,18.896-5.514c2.771-0.545,7.178-3.517,9.482-2.359c3.851,1.918-1.359,7.527,4.603,9.023
				c8.214,2.055-5.014,8.729-4.941,8.367c-0.776,3.932,2.371,4.045,4.875,5.952c2.17,1.652-1.725,2.902,0.037,5.25
				c3.083,4.113,0.607,18.367,3.75,21.175c3.218,2.901-3.782,8.979-4.854,7.371c-4.521,5.108-16.197,11.274-16.318,18.709
				c-0.224,13.534-10.688-6.375-9.07-5.957c-13.771-0.416-19.879-7.089-33.471-10.341c-6.482-1.553-11.86,1.336-12.768,8.854
				c2.65,6.938,4.184,2.318,8.848,1.688c3.048-0.414,12.951,3.951,16.287,5.242c7.249,2.808,3.85,2.523,7.842,7.203
				c2.235,2.621,3.083,7.508,5.959,9.051c6.617,3.547,11.4,0.691,18.228,0.845c5.044,0.11,13.418-19.966,20.137-23.541
				c6.274-3.337,2.175-8.558,5.705-12.05c5.016-4.959,23.347-1.016,28.885,1.146c-7.17,0.572-14.065,2.881-19.743,7.381
				c-4.028,3.197-9.792-0.17-14.635,4.199c-2.462,2.223-20.895,19.771-9.934,19.522c14.7-0.326,20.472-12.229,33.778-15.172
				c4.673-1.033,8.906,1.521,13.093-0.746c3.914-2.117,7.626-4.608,11.427-6.914c9.011-5.465,13.322-7.364,22.939-6.289
				c2.274,0.257,7.219-4.522,7.969,0.332c0.581,3.761-5.921,10.814-0.555,13.605c6.584,3.422,9.452-5.104,14.252-5.861
				c7.047-1.113,13.563-4.844,20.639-5.643c5.021-0.564,7.19,4.16,13.5,2.299c4.826-1.434,11.713,2,17.418,0.734
				c5.251-1.168,10.346,2.235,14.372,1.373c5.09-1.095,11.438-5.755,16.996-7.384c13.137-3.842,26.912-5.795,39.174-12.922
				c8.982-5.225,23.832-5.676,33.811-7.672c19.096-3.826,38.229-7.467,57.354-11.133c7.006-1.344,28.703,1.053,28.791-11.824
				C605.201,94.191,605.9,96.201,604.924,93.99z M221.137,94.594c-9.169,7.293-9.637,40.026-28.074,34.774
				c-8.938-2.545,1.17-37.848,1.298-45.348c10.504-0.318,21.896,4.596,32.77,4.957C225.395,91.131,223.398,93.004,221.137,94.594
				C217.453,97.523,223.438,92.766,221.137,94.594z"/>
		</g>
	</g>
</g>
<g id="AndAttack">
	<g id="TransparentFill" opacity="0.7">
		<g>
			<g>
				<path fill="#D6D22F" d="M159.116,118.498c-10.493,0-19.068,8.207-19.667,18.55l-0.036-0.003v47.988h11.453l0.008-18.526h16.492
					v18.526h11.455v-46.83C178.821,127.32,170,118.498,159.116,118.498z M167.366,156.099v7.283h-16.491l0.009-25.464
					c0.162-4.409,3.78-7.94,8.232-7.94c4.559,0,8.25,3.693,8.25,8.25V156.099z"/>
			</g>
		</g>
		<g>
			<path fill="#D6D22F" d="M192.693,185.033V130.25h8.326c4.521,0.041,8.173,3.716,8.173,8.246v46.537h11.456v-46.562
				c0-10.812-8.711-19.58-19.496-19.695v-0.01h-19.914v9.83v1.653v54.783H192.693L192.693,185.033z"/>
		</g>
		<g>
			<g>
				<path fill="#D6D22F" d="M242.753,118.507v-0.011h-19.914v9.83v1.652v43.565v2.664v8.82h19.914v-0.012
					c10.785-0.113,19.496-8.883,19.496-19.693v-27.125C262.249,127.39,253.538,118.623,242.753,118.507z M250.794,165.302
					c0,4.528-3.652,8.203-8.175,8.246h-8.325v-43.566h8.325c4.521,0.041,8.175,3.715,8.175,8.246V165.302z"/>
			</g>
		</g>
		<polygon fill="#D6D22F" points="342.894,119.212 328.804,119.212 328.804,130.994 342.894,130.994 342.894,185.748 
			354.349,185.748 354.349,130.994 368.437,130.994 368.437,119.212 354.349,119.212 		"/>
		<path fill="#D6D22F" d="M306.914,119.212c-10.493,0-19.068,8.206-19.667,18.549l-0.037-0.002v47.987h11.455l0.006-18.526h16.493
			v18.526h11.454v-46.83C326.618,128.035,317.797,119.212,306.914,119.212z M315.164,156.814v7.283h-16.49l0.008-25.463
			c0.162-4.41,3.779-7.941,8.232-7.941c4.56,0,8.25,3.693,8.25,8.25V156.814z"/>
		<polygon fill="#D6D22F" points="384.668,119.212 370.577,119.212 370.577,130.994 384.668,130.994 384.668,185.748 
			396.123,185.748 396.123,130.994 410.213,130.994 410.213,119.212 396.123,119.212 		"/>
		<path fill="#D6D22F" d="M432.103,119.212c-10.883,0-19.705,8.821-19.705,19.704v46.83h11.455V167.22h16.492l0.008,18.526h11.455
			v-47.987l-0.037,0.002C451.17,127.419,442.597,119.212,432.103,119.212z M423.853,164.095v-7.281v-17.871
			c0-4.557,3.69-8.25,8.25-8.25c4.453,0,8.072,3.531,8.229,7.941l0.013,25.461H423.853z"/>
		<path fill="#D6D22F" d="M473.613,119.212c-10.523,0-19.125,8.229-19.728,18.604l-0.037-0.002v0.283v19.246v9.998h0.037
			c0.603,10.373,9.2,18.604,19.728,18.604c10.916,0,19.766-8.85,19.766-19.766v-2.164h-11.491v2.145
			c0,4.566-3.703,8.271-8.272,8.271c-4.466,0-8.097-3.541-8.259-7.97l-0.008-16.756l0.008-11.02
			c0.162-4.426,3.793-7.967,8.259-7.967c4.569,0,8.272,3.705,8.272,8.274v0.828h11.491v-0.854v-0.879h-0.022
			C492.896,127.593,484.236,119.212,473.613,119.212z"/>
		<path fill="#D6D22F" d="M534.947,119.212H523.49v27.299v1.51c0,4.324-3.332,7.859-7.568,8.207H507v-36.984h-11.463v67.351H507
			v-18.818h9.06v-0.008c4.172,0.41,7.433,3.91,7.433,8.188v1.509v9.301h11.457v-10.832c0-5.443-2.213-10.377-5.783-13.941
			c3.57-3.565,5.783-8.498,5.783-13.942L534.947,119.212L534.947,119.212z"/>
	</g>
	<g id="Outline">
		<g>
			<g>
				<path fill="none" stroke="#000000" stroke-width="2" stroke-miterlimit="10" d="M159.116,118.855
					c-10.493,0-19.068,8.207-19.667,18.55l-0.036-0.003v47.988h11.453l0.008-18.526h16.492v18.526h11.455v-46.83
					C178.821,127.677,170,118.855,159.116,118.855z M167.366,156.457v7.283h-16.491l0.009-25.464c0.162-4.409,3.78-7.94,8.232-7.94
					c4.559,0,8.25,3.693,8.25,8.25V156.457z"/>
			</g>
		</g>
		<g>
			<path fill="none" stroke="#000000" stroke-width="2" stroke-miterlimit="10" d="M192.693,185.39v-54.783h8.326
				c4.521,0.041,8.173,3.716,8.173,8.246v46.537h11.456v-46.562c0-10.812-8.711-19.58-19.496-19.695v-0.01h-19.914v9.83v1.653
				v54.783H192.693L192.693,185.39z"/>
		</g>
		<g>
			<g>
				<path fill="none" stroke="#000000" stroke-width="2" stroke-miterlimit="10" d="M242.753,118.865v-0.011h-19.914v9.83v1.652
					v43.565v2.664v8.82h19.914v-0.012c10.785-0.113,19.496-8.883,19.496-19.693v-27.125
					C262.249,127.748,253.538,118.98,242.753,118.865z M250.794,165.66c0,4.528-3.652,8.203-8.175,8.246h-8.325v-43.566h8.325
					c4.521,0.041,8.175,3.715,8.175,8.246V165.66z"/>
			</g>
		</g>
		<polygon fill="none" stroke="#000000" stroke-width="2" stroke-miterlimit="10" points="342.894,119.57 328.804,119.57 
			328.804,131.351 342.894,131.351 342.894,186.105 354.349,186.105 354.349,131.351 368.437,131.351 368.437,119.57 
			354.349,119.57 		"/>
		<path fill="none" stroke="#000000" stroke-width="2" stroke-miterlimit="10" d="M306.914,119.57
			c-10.493,0-19.068,8.206-19.667,18.549l-0.037-0.002v47.987h11.455l0.006-18.526h16.493v18.526h11.454v-46.83
			C326.618,128.392,317.797,119.57,306.914,119.57z M315.164,157.171v7.283h-16.49l0.008-25.463c0.162-4.41,3.779-7.941,8.232-7.941
			c4.56,0,8.25,3.693,8.25,8.25V157.171z"/>
		<polygon fill="none" stroke="#000000" stroke-width="2" stroke-miterlimit="10" points="384.668,119.57 370.577,119.57 
			370.577,131.351 384.668,131.351 384.668,186.105 396.123,186.105 396.123,131.351 410.213,131.351 410.213,119.57 
			396.123,119.57 		"/>
		<path fill="none" stroke="#000000" stroke-width="2" stroke-miterlimit="10" d="M432.103,119.57
			c-10.883,0-19.705,8.821-19.705,19.704v46.83h11.455v-18.526h16.492l0.008,18.526h11.455v-47.987l-0.037,0.002
			C451.17,127.777,442.597,119.57,432.103,119.57z M423.853,164.453v-7.281V139.3c0-4.557,3.69-8.25,8.25-8.25
			c4.453,0,8.072,3.531,8.229,7.941l0.013,25.461H423.853z"/>
		<path fill="none" stroke="#000000" stroke-width="2" stroke-miterlimit="10" d="M473.613,119.57
			c-10.523,0-19.125,8.229-19.728,18.604l-0.037-0.002v0.283v19.246v9.998h0.037c0.603,10.373,9.2,18.604,19.728,18.604
			c10.916,0,19.766-8.85,19.766-19.766v-2.164h-11.491v2.145c0,4.566-3.703,8.271-8.272,8.271c-4.466,0-8.097-3.541-8.259-7.97
			l-0.008-16.756l0.008-11.02c0.162-4.426,3.793-7.967,8.259-7.967c4.569,0,8.272,3.705,8.272,8.274v0.828h11.491v-0.854v-0.879
			h-0.022C492.896,127.951,484.236,119.57,473.613,119.57z"/>
		<path fill="none" stroke="#000000" stroke-width="2" stroke-miterlimit="10" d="M534.947,119.57H523.49v27.299v1.51
			c0,4.324-3.332,7.859-7.568,8.207H507v-36.984h-11.463v67.351H507v-18.818h9.06v-0.008c4.172,0.41,7.433,3.91,7.433,8.188v1.509
			v9.301h11.457v-10.832c0-5.443-2.213-10.377-5.783-13.941c3.57-3.565,5.783-8.498,5.783-13.942L534.947,119.57L534.947,119.57z"/>
	</g>
</g>
</svg>
