<?xml version="1.0" encoding="utf-8"?>
<!-- Generator: Adobe Illustrator 16.0.4, SVG Export Plug-In . SVG Version: 6.00 Build 0)  -->
<!DOCTYPE svg PUBLIC "-//W3C//DTD SVG 1.1//EN" "http://www.w3.org/Graphics/SVG/1.1/DTD/svg11.dtd">
<svg version="1.1" id="Layer_1" xmlns="http://www.w3.org/2000/svg" xmlns:xlink="http://www.w3.org/1999/xlink" x="0px" y="0px"
	 width="219.02px" height="147.01px" viewBox="-108.08 -52.11 219.02 147.01" enable-background="new -108.08 -52.11 219.02 147.01"
	 xml:space="preserve">
<g id="Brick1X4">
	<g id="B">
		<polyline fill="#C5BA30" points="57.01,55.49 76.24,44.79 76.24,18.57 57.01,29.28 57.01,55.49 		"/>
		<polygon fill="#8B8533" points="-19.47,10.44 -19.47,-15.78 57.01,29.28 57.01,55.49 		"/>
		<polygon fill="#DBCC25" points="-0.35,-26.66 -19.47,-15.78 57.01,29.28 76.24,18.57 		"/>
		
			<line fill="none" stroke="#FFF200" stroke-width="0.5" stroke-linecap="round" stroke-miterlimit="10" x1="-18.33" y1="-15.78" x2="57.01" y2="28.43"/>
		
			<line fill="none" stroke="#FFF200" stroke-width="0.5" stroke-linecap="round" stroke-miterlimit="10" x1="57.01" y1="28.43" x2="75.04" y2="18.57"/>
		
			<line fill="none" stroke="#ADA435" stroke-width="0.5" stroke-linecap="round" stroke-miterlimit="10" x1="56.74" y1="54.68" x2="56.74" y2="29.85"/>
		
			<line fill="none" stroke="#6D692B" stroke-width="0.3" stroke-linecap="round" stroke-miterlimit="10" x1="-18.94" y1="10.45" x2="56.68" y2="55"/>
		
			<line fill="none" stroke="#ADA435" stroke-width="0.3" stroke-linecap="round" stroke-miterlimit="10" x1="57.2" y1="55" x2="76.02" y2="44.57"/>
	</g>
	<g id="F2_30_">
		
			<linearGradient id="SVGID_1_" gradientUnits="userSpaceOnUse" x1="48.4548" y1="406.8958" x2="63.1033" y2="406.8958" gradientTransform="matrix(1 0 0 -1 -0.0552 425.0591)">
			<stop  offset="0" style="stop-color:#8B8533"/>
			<stop  offset="0.5091" style="stop-color:#ADA435"/>
			<stop  offset="1" style="stop-color:#D6C728"/>
		</linearGradient>
		<path fill="url(#SVGID_1_)" d="M55.72,17.47c-4.04,0-7.32-1.64-7.32-3.67v5.05c0,2.03,3.28,3.67,7.32,3.67s7.32-1.64,7.32-3.67
			V13.8C63.05,15.83,59.77,17.47,55.72,17.47z"/>
		<ellipse fill="#F2DA2C" cx="55.72" cy="13.42" rx="7.32" ry="3.67"/>
		<path fill="none" stroke="#FFF200" stroke-width="0.5" stroke-linecap="round" stroke-miterlimit="10" d="M50.11,15.53
			c5.62,2.95,11.39,0.16,12.26-0.99"/>
		<path fill="none" stroke="#8B8533" stroke-width="0.5" stroke-linecap="round" stroke-miterlimit="10" d="M48.67,18.69
			c0.25,0.75,1.24,3.44,6.38,3.44"/>
		<path fill="none" stroke="#ADA435" stroke-width="0.5" stroke-linecap="round" stroke-miterlimit="10" d="M63.05,19
			c-0.82,1.15-2.26,3.23-7.99,3.12"/>
	</g>
	<g id="F2_29_">
		
			<linearGradient id="SVGID_2_" gradientUnits="userSpaceOnUse" x1="30.2712" y1="417.3723" x2="44.9197" y2="417.3723" gradientTransform="matrix(1 0 0 -1 -0.0552 425.0591)">
			<stop  offset="0" style="stop-color:#8B8533"/>
			<stop  offset="0.5091" style="stop-color:#ADA435"/>
			<stop  offset="1" style="stop-color:#D6C728"/>
		</linearGradient>
		<path fill="url(#SVGID_2_)" d="M37.54,6.99c-4.04,0-7.32-1.64-7.32-3.67v5.05c0,2.02,3.28,3.67,7.32,3.67s7.32-1.64,7.32-3.67
			V3.33C44.87,5.35,41.59,6.99,37.54,6.99z"/>
		<ellipse fill="#F2DA2C" cx="37.54" cy="2.95" rx="7.32" ry="3.67"/>
		<path fill="none" stroke="#FFF200" stroke-width="0.5" stroke-linecap="round" stroke-miterlimit="10" d="M31.93,5.05
			C37.54,8,43.31,5.21,44.18,4.06"/>
		<path fill="none" stroke="#8B8533" stroke-width="0.5" stroke-linecap="round" stroke-miterlimit="10" d="M30.49,8.21
			c0.25,0.76,1.24,3.44,6.38,3.44"/>
		<path fill="none" stroke="#ADA435" stroke-width="0.5" stroke-linecap="round" stroke-miterlimit="10" d="M44.87,8.53
			c-0.82,1.15-2.26,3.23-7.99,3.12"/>
	</g>
	<g id="F2_28_">
		
			<linearGradient id="SVGID_3_" gradientUnits="userSpaceOnUse" x1="10.7263" y1="428.8176" x2="25.3748" y2="428.8176" gradientTransform="matrix(1 0 0 -1 -0.0552 425.0591)">
			<stop  offset="0" style="stop-color:#8B8533"/>
			<stop  offset="0.5091" style="stop-color:#ADA435"/>
			<stop  offset="1" style="stop-color:#D6C728"/>
		</linearGradient>
		<path fill="url(#SVGID_3_)" d="M18-4.45c-4.04,0-7.32-1.64-7.32-3.67v5.05c0,2.02,3.28,3.67,7.32,3.67s7.32-1.64,7.32-3.67v-5.05
			C25.32-6.09,22.04-4.45,18-4.45z"/>
		<ellipse fill="#F2DA2C" cx="18" cy="-8.5" rx="7.32" ry="3.67"/>
		<path fill="none" stroke="#FFF200" stroke-width="0.5" stroke-linecap="round" stroke-miterlimit="10" d="M12.38-6.39
			C18-3.44,23.76-6.24,24.64-7.39"/>
		<path fill="none" stroke="#8B8533" stroke-width="0.5" stroke-linecap="round" stroke-miterlimit="10" d="M10.94-3.24
			c0.25,0.75,1.24,3.44,6.38,3.44"/>
		<path fill="none" stroke="#ADA435" stroke-width="0.5" stroke-linecap="round" stroke-miterlimit="10" d="M25.32-2.92
			c-0.82,1.15-2.26,3.23-7.99,3.12"/>
	</g>
	<g id="F2_27_">
		
			<linearGradient id="SVGID_4_" gradientUnits="userSpaceOnUse" x1="-7.6184" y1="439.468" x2="7.0291" y2="439.468" gradientTransform="matrix(1 0 0 -1 -0.0552 425.0591)">
			<stop  offset="0" style="stop-color:#8B8533"/>
			<stop  offset="0.5091" style="stop-color:#ADA435"/>
			<stop  offset="1" style="stop-color:#D6C728"/>
		</linearGradient>
		<path fill="url(#SVGID_4_)" d="M-0.35-15.1c-4.05,0-7.32-1.64-7.32-3.67v5.05c0,2.03,3.28,3.67,7.32,3.67
			c4.04,0,7.32-1.64,7.32-3.67v-5.05C6.97-16.74,3.7-15.1-0.35-15.1z"/>
		<ellipse fill="#F2DA2C" cx="-0.35" cy="-19.15" rx="7.32" ry="3.67"/>
		<path fill="none" stroke="#FFF200" stroke-width="0.5" stroke-linecap="round" stroke-miterlimit="10" d="M-5.96-17.05
			c5.62,2.95,11.38,0.16,12.26-0.99"/>
		<path fill="none" stroke="#8B8533" stroke-width="0.5" stroke-linecap="round" stroke-miterlimit="10" d="M-7.4-13.89
			c0.25,0.75,1.24,3.44,6.38,3.44"/>
		<path fill="none" stroke="#ADA435" stroke-width="0.5" stroke-linecap="round" stroke-miterlimit="10" d="M6.97-13.57
			c-0.82,1.15-2.26,3.23-7.99,3.12"/>
	</g>
</g>
<g id="Brick1X4b">
	<polygon fill="#C5BA30" points="-57.83,53.62 -57.83,27.4 19.25,-15.57 19.25,10.64 	"/>
	<polygon fill="#DBCC25" points="0.21,-26.77 -76.5,16.4 -57.83,27.4 19.25,-15.57 	"/>
	
		<line fill="none" stroke="#FFF200" stroke-width="0.5" stroke-linecap="round" stroke-miterlimit="10" x1="-57.83" y1="26.55" x2="18.05" y2="-15.57"/>
	<path fill="none" stroke="#6D692B" stroke-width="0.3" stroke-linecap="round" stroke-miterlimit="10" d="M-0.3,20.85"/>
	
		<line fill="none" stroke="#ADA435" stroke-width="0.3" stroke-linecap="round" stroke-miterlimit="10" x1="-57.66" y1="53.27" x2="19.03" y2="10.42"/>
	<g id="F2_34_">
		
			<linearGradient id="SVGID_5_" gradientUnits="userSpaceOnUse" x1="-8.532" y1="441.0413" x2="6.1165" y2="441.0413" gradientTransform="matrix(1 0 0 -1 -0.0552 425.0591)">
			<stop  offset="0" style="stop-color:#8B8533"/>
			<stop  offset="0.5091" style="stop-color:#ADA435"/>
			<stop  offset="1" style="stop-color:#D6C728"/>
		</linearGradient>
		<path fill="url(#SVGID_5_)" d="M-1.26-16.67c-4.04,0-7.32-1.64-7.32-3.67v5.05c0,2.03,3.28,3.67,7.32,3.67s7.32-1.64,7.32-3.67
			v-5.05C6.06-18.32,2.78-16.67-1.26-16.67z"/>
		<ellipse fill="#F2DA2C" cx="-1.26" cy="-20.72" rx="7.32" ry="3.67"/>
		<path fill="none" stroke="#FFF200" stroke-width="0.5" stroke-linecap="round" stroke-miterlimit="10" d="M-6.88-18.62
			c5.62,2.95,11.39,0.16,12.26-0.99"/>
		<path fill="none" stroke="#8B8533" stroke-width="0.5" stroke-linecap="round" stroke-miterlimit="10" d="M-8.31-15.46
			c0.25,0.75,1.24,3.44,6.38,3.44"/>
		<path fill="none" stroke="#ADA435" stroke-width="0.5" stroke-linecap="round" stroke-miterlimit="10" d="M6.06-15.14
			c-0.82,1.15-2.26,3.23-7.99,3.12"/>
	</g>
	<path fill="none" stroke="#ADA435" stroke-width="0.5" stroke-linecap="round" stroke-miterlimit="10" d="M-19.53,6.47"/>
	<path fill="none" stroke="#ADA435" stroke-width="0.5" stroke-linecap="round" stroke-miterlimit="10" d="M-19.53,31.3"/>
	<g id="F2_33_">
		
			<linearGradient id="SVGID_6_" gradientUnits="userSpaceOnUse" x1="-27.8181" y1="430.2776" x2="-13.1707" y2="430.2776" gradientTransform="matrix(1 0 0 -1 -0.0552 425.0591)">
			<stop  offset="0" style="stop-color:#8B8533"/>
			<stop  offset="0.5091" style="stop-color:#ADA435"/>
			<stop  offset="1" style="stop-color:#D6C728"/>
		</linearGradient>
		<path fill="url(#SVGID_6_)" d="M-20.55-5.91c-4.04,0-7.32-1.64-7.32-3.67v5.05c0,2.03,3.28,3.67,7.32,3.67s7.32-1.64,7.32-3.67
			v-5.05C-13.22-7.55-16.51-5.91-20.55-5.91z"/>
		<ellipse fill="#F2DA2C" cx="-20.55" cy="-9.96" rx="7.32" ry="3.67"/>
		<path fill="none" stroke="#FFF200" stroke-width="0.5" stroke-linecap="round" stroke-miterlimit="10" d="M-26.16-7.85
			C-20.55-4.9-14.78-7.7-13.9-8.85"/>
		<path fill="none" stroke="#8B8533" stroke-width="0.5" stroke-linecap="round" stroke-miterlimit="10" d="M-27.6-4.7
			c0.25,0.76,1.24,3.44,6.38,3.44"/>
		<path fill="none" stroke="#ADA435" stroke-width="0.5" stroke-linecap="round" stroke-miterlimit="10" d="M-13.22-4.38
			c-0.82,1.15-2.26,3.23-7.99,3.12"/>
	</g>
	<path fill="none" stroke="#6D692B" stroke-width="0.3" stroke-linecap="round" stroke-miterlimit="10" d="M-38.87,42.36"/>
	<g id="F2_32_">
		
			<linearGradient id="SVGID_7_" gradientUnits="userSpaceOnUse" x1="-46.5876" y1="419.468" x2="-31.9392" y2="419.468" gradientTransform="matrix(1 0 0 -1 -0.0552 425.0591)">
			<stop  offset="0" style="stop-color:#8B8533"/>
			<stop  offset="0.5091" style="stop-color:#ADA435"/>
			<stop  offset="1" style="stop-color:#D6C728"/>
		</linearGradient>
		<path fill="url(#SVGID_7_)" d="M-39.32,4.9c-4.04,0-7.32-1.64-7.32-3.67v5.05c0,2.02,3.28,3.67,7.32,3.67s7.32-1.64,7.32-3.67
			V1.23C-31.99,3.26-35.27,4.9-39.32,4.9z"/>
		<ellipse fill="#F2DA2C" cx="-39.32" cy="0.85" rx="7.32" ry="3.67"/>
		<path fill="none" stroke="#FFF200" stroke-width="0.5" stroke-linecap="round" stroke-miterlimit="10" d="M-44.94,2.96
			c5.62,2.95,11.39,0.16,12.26-0.99"/>
		<path fill="none" stroke="#8B8533" stroke-width="0.5" stroke-linecap="round" stroke-miterlimit="10" d="M-46.37,6.12
			c0.25,0.75,1.24,3.44,6.38,3.44"/>
		<path fill="none" stroke="#ADA435" stroke-width="0.5" stroke-linecap="round" stroke-miterlimit="10" d="M-31.99,6.43
			c-0.82,1.15-2.26,3.23-7.99,3.12"/>
	</g>
	<polygon fill="#8B8533" points="-76.5,42.63 -76.5,16.4 -57.83,27.4 -57.83,53.62 	"/>
	
		<line fill="none" stroke="#FFF200" stroke-width="0.5" stroke-linecap="round" stroke-miterlimit="10" x1="-75.32" y1="16.4" x2="-57.83" y2="26.55"/>
	
		<line fill="none" stroke="#ADA435" stroke-width="0.5" stroke-linecap="round" stroke-miterlimit="10" x1="-58.1" y1="52.8" x2="-58.1" y2="27.97"/>
	
		<line fill="none" stroke="#6D692B" stroke-width="0.3" stroke-linecap="round" stroke-miterlimit="10" x1="-76.24" y1="42.49" x2="-58.16" y2="53.12"/>
	<g id="F2_31_">
		
			<linearGradient id="SVGID_8_" gradientUnits="userSpaceOnUse" x1="-66.3875" y1="408.7717" x2="-51.739" y2="408.7717" gradientTransform="matrix(1 0 0 -1 -0.0552 425.0591)">
			<stop  offset="0" style="stop-color:#8B8533"/>
			<stop  offset="0.5091" style="stop-color:#ADA435"/>
			<stop  offset="1" style="stop-color:#D6C728"/>
		</linearGradient>
		<path fill="url(#SVGID_8_)" d="M-59.12,15.59c-4.04,0-7.32-1.64-7.32-3.67v5.05c0,2.02,3.28,3.67,7.32,3.67s7.32-1.64,7.32-3.67
			v-5.05C-51.79,13.96-55.07,15.59-59.12,15.59z"/>
		<ellipse fill="#F2DA2C" cx="-59.12" cy="11.55" rx="7.32" ry="3.67"/>
		<path fill="none" stroke="#FFF200" stroke-width="0.5" stroke-linecap="round" stroke-miterlimit="10" d="M-64.73,13.65
			c5.62,2.95,11.38,0.16,12.26-0.99"/>
		<path fill="none" stroke="#8B8533" stroke-width="0.5" stroke-linecap="round" stroke-miterlimit="10" d="M-66.17,16.81
			c0.25,0.76,1.24,3.44,6.39,3.44"/>
		<path fill="none" stroke="#ADA435" stroke-width="0.5" stroke-linecap="round" stroke-miterlimit="10" d="M-51.79,17.13
			c-0.82,1.15-2.26,3.23-7.99,3.12"/>
	</g>
</g>
<g id="Brick1x1">
	<polyline fill="#C5BA30" points="-0.35,21.99 18.88,11.29 18.88,-14.93 -0.35,-4.22 -0.35,21.99 	"/>
	<polygon fill="#8B8533" points="-19.47,10.79 -19.47,-15.46 -0.35,-4.21 -0.35,22.01 	"/>
	<polygon fill="#DBCC25" points="0.2,-25.96 -19.47,-15.46 -0.35,-4.21 18.88,-14.92 	"/>
	
		<line fill="none" stroke="#FFF200" stroke-width="0.5" stroke-linecap="round" stroke-miterlimit="10" x1="-18.28" y1="-15.46" x2="-0.35" y2="-5.05"/>
	
		<line fill="none" stroke="#FFF200" stroke-width="0.5" stroke-linecap="round" stroke-miterlimit="10" x1="-0.35" y1="-5.05" x2="17.67" y2="-14.92"/>
	
		<line fill="none" stroke="#ADA435" stroke-width="0.5" stroke-linecap="round" stroke-miterlimit="10" x1="-0.62" y1="21.2" x2="-0.62" y2="-3.64"/>
	
		<line fill="none" stroke="#6D692B" stroke-width="0.3" stroke-linecap="round" stroke-miterlimit="10" x1="-19.04" y1="10.72" x2="-0.68" y2="21.51"/>
	
		<line fill="none" stroke="#ADA435" stroke-width="0.3" stroke-linecap="round" stroke-miterlimit="10" x1="-0.17" y1="21.51" x2="18.47" y2="11.18"/>
	<g id="F2_13_">
		
			<linearGradient id="SVGID_9_" gradientUnits="userSpaceOnUse" x1="-8.9583" y1="440.4973" x2="5.6892" y2="440.4973" gradientTransform="matrix(1 0 0 -1 -0.0552 425.0591)">
			<stop  offset="0" style="stop-color:#8B8533"/>
			<stop  offset="0.5091" style="stop-color:#ADA435"/>
			<stop  offset="1" style="stop-color:#D6C728"/>
		</linearGradient>
		<path fill="url(#SVGID_9_)" d="M-1.69-16.13c-4.04,0-7.32-1.64-7.32-3.67v5.05c0,2.03,3.28,3.67,7.32,3.67
			c4.05,0,7.32-1.64,7.32-3.67v-5.05C5.63-17.77,2.36-16.13-1.69-16.13z"/>
		<ellipse fill="#F2DA2C" cx="-1.69" cy="-20.18" rx="7.32" ry="3.67"/>
		<path fill="none" stroke="#FFF200" stroke-width="0.5" stroke-linecap="round" stroke-miterlimit="10" d="M-7.31-18.07
			c5.62,2.95,11.39,0.16,12.26-0.99"/>
		<path fill="none" stroke="#8B8533" stroke-width="0.5" stroke-linecap="round" stroke-miterlimit="10" d="M-8.74-14.92
			c0.25,0.75,1.24,3.44,6.38,3.44"/>
		<path fill="none" stroke="#ADA435" stroke-width="0.5" stroke-linecap="round" stroke-miterlimit="10" d="M5.63-14.6
			c-0.82,1.15-2.26,3.23-7.99,3.12"/>
	</g>
</g>
<g id="Plate1x1">
	<polyline fill="#C5BA30" points="-1.02,21.74 18.21,11.03 18.21,2.39 -1.02,13.09 -1.02,21.74 	"/>
	<polygon fill="#8B8533" points="-20.14,10.52 -20.14,1.84 -1.02,13.09 -1.02,21.74 	"/>
	<polygon fill="#DBCC25" points="-0.46,-8.66 -20.14,1.84 -1.02,13.09 18.21,2.39 	"/>
	
		<line fill="none" stroke="#FFF200" stroke-width="0.5" stroke-linecap="round" stroke-miterlimit="10" x1="-18.95" y1="1.84" x2="-1.02" y2="12.24"/>
	
		<line fill="none" stroke="#FFF200" stroke-width="0.5" stroke-linecap="round" stroke-miterlimit="10" x1="-1.02" y1="12.24" x2="17" y2="2.39"/>
	
		<line fill="none" stroke="#ADA435" stroke-width="0.5" stroke-linecap="round" stroke-miterlimit="10" x1="-1.29" y1="20.93" x2="-1.29" y2="13.66"/>
	
		<line fill="none" stroke="#6D692B" stroke-width="0.3" stroke-linecap="round" stroke-miterlimit="10" x1="-19.69" y1="10.38" x2="-1.35" y2="21.24"/>
	
		<line fill="none" stroke="#ADA435" stroke-width="0.3" stroke-linecap="round" stroke-miterlimit="10" x1="-0.83" y1="21.24" x2="17.99" y2="10.81"/>
	<g id="F2_25_">
		
			<linearGradient id="SVGID_10_" gradientUnits="userSpaceOnUse" x1="-9.6252" y1="423.1965" x2="5.0222" y2="423.1965" gradientTransform="matrix(1 0 0 -1 -0.0552 425.0591)">
			<stop  offset="0" style="stop-color:#8B8533"/>
			<stop  offset="0.5091" style="stop-color:#ADA435"/>
			<stop  offset="1" style="stop-color:#D6C728"/>
		</linearGradient>
		<path fill="url(#SVGID_10_)" d="M-2.36,1.17c-4.04,0-7.32-1.64-7.32-3.67v5.05c0,2.02,3.28,3.67,7.32,3.67s7.32-1.64,7.32-3.67
			V-2.5C4.97-0.47,1.69,1.17-2.36,1.17z"/>
		<ellipse fill="#F2DA2C" cx="-2.36" cy="-2.88" rx="7.32" ry="3.67"/>
		<path fill="none" stroke="#FFF200" stroke-width="0.5" stroke-linecap="round" stroke-miterlimit="10" d="M-7.97-0.77
			C-2.36,2.18,3.41-0.62,4.29-1.76"/>
		<path fill="none" stroke="#8B8533" stroke-width="0.5" stroke-linecap="round" stroke-miterlimit="10" d="M-9.41,2.39
			c0.25,0.76,1.24,3.44,6.39,3.44"/>
		<path fill="none" stroke="#ADA435" stroke-width="0.5" stroke-linecap="round" stroke-miterlimit="10" d="M4.97,2.7
			C4.15,3.85,2.71,5.93-3.02,5.82"/>
	</g>
</g>
<g id="Slope2B">
	<polygon fill="#C5BA30" points="-37.27,-26.78 -75.89,-5.28 -38.54,-4.58 -0.4,-26.25 	"/>
	<g id="Brick1x2EW_2_">
		<polyline fill="#C5BA30" points="-19.87,32.64 -19.87,6.42 18.64,-15.05 18.64,11.17 		"/>
		<polygon fill="#DBCC25" points="-0.4,-26.25 -38.54,-4.58 -19.87,6.42 18.64,-15.05 		"/>
		
			<line fill="none" stroke="#FFF200" stroke-width="0.5" stroke-linecap="round" stroke-miterlimit="10" x1="-19.87" y1="5.57" x2="17.44" y2="-15.05"/>
		
			<line fill="none" stroke="#ADA435" stroke-width="0.3" stroke-linecap="round" stroke-miterlimit="10" x1="-19.61" y1="32.14" x2="18.42" y2="10.95"/>
		<g id="F2_2_">
			
				<linearGradient id="SVGID_11_" gradientUnits="userSpaceOnUse" x1="-9.1394" y1="440.5188" x2="5.509" y2="440.5188" gradientTransform="matrix(1 0 0 -1 -0.0552 425.0591)">
				<stop  offset="0" style="stop-color:#8B8533"/>
				<stop  offset="0.5091" style="stop-color:#ADA435"/>
				<stop  offset="1" style="stop-color:#D6C728"/>
			</linearGradient>
			<path fill="url(#SVGID_11_)" d="M-1.87-16.15c-4.04,0-7.32-1.64-7.32-3.67v5.05c0,2.02,3.28,3.67,7.32,3.67s7.32-1.64,7.32-3.67
				v-5.05C5.45-17.79,2.17-16.15-1.87-16.15z"/>
			<ellipse fill="#F2DA2C" cx="-1.87" cy="-20.2" rx="7.32" ry="3.67"/>
			<path fill="none" stroke="#FFF200" stroke-width="0.5" stroke-linecap="round" stroke-miterlimit="10" d="M-7.49-18.1
				c5.62,2.95,11.39,0.16,12.26-0.99"/>
			<path fill="none" stroke="#8B8533" stroke-width="0.5" stroke-linecap="round" stroke-miterlimit="10" d="M-8.92-14.94
				c0.25,0.75,1.24,3.44,6.38,3.44"/>
			<path fill="none" stroke="#ADA435" stroke-width="0.5" stroke-linecap="round" stroke-miterlimit="10" d="M5.45-14.62
				c-0.82,1.15-2.26,3.23-7.99,3.12"/>
		</g>
		<polygon fill="#8B8533" points="-75.89,-0.35 -75.89,-5.28 -38.54,-4.58 -19.87,6.42 -19.87,32.64 		"/>
		
			<line fill="none" stroke="#FFF200" stroke-width="0.5" stroke-linecap="round" stroke-miterlimit="10" x1="-37.36" y1="-4.58" x2="-19.87" y2="5.57"/>
		
			<line fill="none" stroke="#ADA435" stroke-width="0.5" stroke-linecap="round" stroke-miterlimit="10" x1="-20.14" y1="31.82" x2="-20.14" y2="6.99"/>
		
			<line fill="none" stroke="#6D692B" stroke-width="0.3" stroke-linecap="round" stroke-miterlimit="10" x1="-75.23" y1="-0.28" x2="-20.2" y2="32.14"/>
		<g id="F2_1_">
			
				<linearGradient id="SVGID_12_" gradientUnits="userSpaceOnUse" x1="-28.4246" y1="429.7551" x2="-13.7761" y2="429.7551" gradientTransform="matrix(1 0 0 -1 -0.0552 425.0591)">
				<stop  offset="0" style="stop-color:#8B8533"/>
				<stop  offset="0.5091" style="stop-color:#ADA435"/>
				<stop  offset="1" style="stop-color:#D6C728"/>
			</linearGradient>
			<path fill="url(#SVGID_12_)" d="M-21.16-5.39c-4.04,0-7.32-1.64-7.32-3.67V-4c0,2.03,3.28,3.67,7.32,3.67s7.32-1.64,7.32-3.67
				v-5.05C-13.83-7.03-17.11-5.39-21.16-5.39z"/>
			<ellipse fill="#F2DA2C" cx="-21.16" cy="-9.43" rx="7.32" ry="3.67"/>
			<path fill="none" stroke="#FFF200" stroke-width="0.5" stroke-linecap="round" stroke-miterlimit="10" d="M-26.77-7.33
				c5.62,2.95,11.38,0.16,12.26-0.99"/>
			<path fill="none" stroke="#8B8533" stroke-width="0.5" stroke-linecap="round" stroke-miterlimit="10" d="M-28.21-4.17
				c0.25,0.75,1.24,3.44,6.38,3.44"/>
			<path fill="none" stroke="#ADA435" stroke-width="0.5" stroke-linecap="round" stroke-miterlimit="10" d="M-13.83-3.85
				c-0.82,1.15-2.26,3.23-7.99,3.12"/>
		</g>
	</g>
	
		<line fill="none" stroke="#DBCC25" stroke-width="0.5" stroke-linecap="round" stroke-miterlimit="10" x1="-74.45" y1="-5.64" x2="-38.54" y2="-5.28"/>
</g>
<g id="SlopeD">
	<g id="Brick1x2NS_3_">
		<polyline fill="#C5BA30" points="18.77,32.86 76.24,0.47 76.24,-5 38,-4.07 18.77,6.64 18.77,32.86 		"/>
		<polygon fill="#8B8533" points="-19.46,10.35 -19.46,-15.87 18.77,6.64 18.77,32.86 		"/>
		<polygon fill="#DBCC25" points="-0.35,-26.75 -19.46,-15.87 18.77,6.64 38,-4.07 		"/>
		
			<line fill="none" stroke="#FFF200" stroke-width="0.5" stroke-linecap="round" stroke-miterlimit="10" x1="-18.54" y1="-15.87" x2="18.77" y2="5.79"/>
		
			<line fill="none" stroke="#FFF200" stroke-width="0.5" stroke-linecap="round" stroke-miterlimit="10" x1="18.77" y1="5.79" x2="36.79" y2="-4.07"/>
		
			<line fill="none" stroke="#ADA435" stroke-width="0.5" stroke-linecap="round" stroke-miterlimit="10" x1="18.5" y1="32.04" x2="18.5" y2="7.21"/>
		
			<line fill="none" stroke="#6D692B" stroke-width="0.3" stroke-linecap="round" stroke-miterlimit="10" x1="-19.14" y1="10.26" x2="18.45" y2="32.36"/>
		
			<line fill="none" stroke="#ADA435" stroke-width="0.3" stroke-linecap="round" stroke-miterlimit="10" x1="18.96" y1="32.36" x2="37.78" y2="21.93"/>
		<g id="F2_42_">
			
				<linearGradient id="SVGID_13_" gradientUnits="userSpaceOnUse" x1="10.2151" y1="429.5364" x2="24.8635" y2="429.5364" gradientTransform="matrix(1 0 0 -1 -0.0552 425.0591)">
				<stop  offset="0" style="stop-color:#8B8533"/>
				<stop  offset="0.5091" style="stop-color:#ADA435"/>
				<stop  offset="1" style="stop-color:#D6C728"/>
			</linearGradient>
			<path fill="url(#SVGID_13_)" d="M17.48-5.17c-4.04,0-7.32-1.64-7.32-3.67v5.05c0,2.03,3.28,3.67,7.32,3.67s7.32-1.64,7.32-3.67
				v-5.05C24.81-6.81,21.53-5.17,17.48-5.17z"/>
			<ellipse fill="#F2DA2C" cx="17.48" cy="-9.22" rx="7.32" ry="3.67"/>
			<path fill="none" stroke="#FFF200" stroke-width="0.5" stroke-linecap="round" stroke-miterlimit="10" d="M11.87-7.11
				c5.62,2.95,11.38,0.16,12.26-0.99"/>
			<path fill="none" stroke="#8B8533" stroke-width="0.5" stroke-linecap="round" stroke-miterlimit="10" d="M10.43-3.95
				c0.25,0.75,1.24,3.44,6.38,3.44"/>
			<path fill="none" stroke="#ADA435" stroke-width="0.5" stroke-linecap="round" stroke-miterlimit="10" d="M24.81-3.64
				c-0.82,1.15-2.26,3.23-7.99,3.12"/>
		</g>
		<g id="F2_41_">
			
				<linearGradient id="SVGID_14_" gradientUnits="userSpaceOnUse" x1="-7.615" y1="439.5598" x2="7.0334" y2="439.5598" gradientTransform="matrix(1 0 0 -1 -0.0552 425.0591)">
				<stop  offset="0" style="stop-color:#8B8533"/>
				<stop  offset="0.5091" style="stop-color:#ADA435"/>
				<stop  offset="1" style="stop-color:#D6C728"/>
			</linearGradient>
			<path fill="url(#SVGID_14_)" d="M-0.35-15.19c-4.04,0-7.32-1.64-7.32-3.67v5.05c0,2.03,3.28,3.67,7.32,3.67s7.32-1.64,7.32-3.67
				v-5.05C6.98-16.83,3.7-15.19-0.35-15.19z"/>
			<ellipse fill="#F2DA2C" cx="-0.35" cy="-19.24" rx="7.32" ry="3.67"/>
			<path fill="none" stroke="#FFF200" stroke-width="0.5" stroke-linecap="round" stroke-miterlimit="10" d="M-5.96-17.14
				c5.62,2.95,11.38,0.16,12.26-0.99"/>
			<path fill="none" stroke="#8B8533" stroke-width="0.5" stroke-linecap="round" stroke-miterlimit="10" d="M-7.4-13.98
				c0.25,0.76,1.24,3.44,6.38,3.44"/>
			<path fill="none" stroke="#ADA435" stroke-width="0.5" stroke-linecap="round" stroke-miterlimit="10" d="M6.98-13.66
				c-0.82,1.15-2.26,3.23-7.99,3.12"/>
		</g>
	</g>
	<polygon fill="#F2DA2C" points="-0.35,-26.75 38,-26.96 76.24,-5 38,-4.07 	"/>
	
		<line fill="none" stroke="#FFF200" stroke-width="0.5" stroke-linecap="round" stroke-miterlimit="10" x1="37.95" y1="-4.47" x2="75.04" y2="-5.35"/>
</g>
<g id="SlopeC">
	<polygon fill="#C5BA30" points="38.25,22.09 38.25,-4.13 19.03,6.58 -18.88,50.19 -18.88,55.66 	"/>
	<polygon fill="#DBCC25" points="-0.09,-26.81 -19.21,-15.93 19.03,6.58 38.25,-4.13 	"/>
	
		<line fill="none" stroke="#FFF200" stroke-width="0.5" stroke-linecap="round" stroke-miterlimit="10" x1="-18.28" y1="-15.93" x2="19.03" y2="5.73"/>
	
		<line fill="none" stroke="#FFF200" stroke-width="0.5" stroke-linecap="round" stroke-miterlimit="10" x1="19.03" y1="5.73" x2="37.05" y2="-4.13"/>
	
		<line fill="none" stroke="#ADA435" stroke-width="0.3" stroke-linecap="round" stroke-miterlimit="10" x1="-18.28" y1="54.93" x2="38.03" y2="21.87"/>
	<polygon fill="#8B8533" points="-57.12,33.15 -57.12,28.23 -18.88,50.19 -18.88,55.66 	"/>
	
		<line fill="none" stroke="#6D692B" stroke-width="0.3" stroke-linecap="round" stroke-miterlimit="10" x1="-56.56" y1="33.2" x2="-19.21" y2="55.16"/>
	<polygon fill="#CFC22C" points="-57.12,28.23 -19.21,-15.93 19.03,6.58 -18.88,50.19 	"/>
	
		<line fill="none" stroke="#ADA435" stroke-width="0.3" stroke-linecap="round" stroke-miterlimit="10" x1="-56.56" y1="28.36" x2="-19.21" y2="50.32"/>
	
		<line fill="none" stroke="#DBCC25" stroke-width="0.5" stroke-linecap="round" stroke-miterlimit="10" x1="18.54" y1="6.85" x2="-18.88" y2="49.91"/>
	<g id="F2_43_">
		
			<linearGradient id="SVGID_15_" gradientUnits="userSpaceOnUse" x1="-7.3601" y1="439.6204" x2="7.2883" y2="439.6204" gradientTransform="matrix(1 0 0 -1 -0.0552 425.0591)">
			<stop  offset="0" style="stop-color:#8B8533"/>
			<stop  offset="0.5091" style="stop-color:#ADA435"/>
			<stop  offset="1" style="stop-color:#D6C728"/>
		</linearGradient>
		<path fill="url(#SVGID_15_)" d="M-0.09-15.25c-4.04,0-7.32-1.64-7.32-3.67v5.05c0,2.02,3.28,3.67,7.32,3.67s7.32-1.64,7.32-3.67
			v-5.05C7.23-16.9,3.95-15.25-0.09-15.25z"/>
		<ellipse fill="#F2DA2C" cx="-0.09" cy="-19.3" rx="7.32" ry="3.67"/>
		<path fill="none" stroke="#FFF200" stroke-width="0.5" stroke-linecap="round" stroke-miterlimit="10" d="M-5.71-17.2
			c5.62,2.95,11.39,0.16,12.26-0.99"/>
		<path fill="none" stroke="#8B8533" stroke-width="0.5" stroke-linecap="round" stroke-miterlimit="10" d="M-7.14-14.04
			c0.25,0.76,1.24,3.44,6.38,3.44"/>
		<path fill="none" stroke="#ADA435" stroke-width="0.5" stroke-linecap="round" stroke-miterlimit="10" d="M7.23-13.72
			c-0.82,1.15-2.26,3.23-7.99,3.12"/>
	</g>
	<g id="F2_44_">
		
			<linearGradient id="SVGID_16_" gradientUnits="userSpaceOnUse" x1="10.47" y1="429.7434" x2="25.1184" y2="429.7434" gradientTransform="matrix(1 0 0 -1 -0.0552 425.0591)">
			<stop  offset="0" style="stop-color:#8B8533"/>
			<stop  offset="0.5091" style="stop-color:#ADA435"/>
			<stop  offset="1" style="stop-color:#D6C728"/>
		</linearGradient>
		<path fill="url(#SVGID_16_)" d="M17.74-5.38c-4.04,0-7.32-1.64-7.32-3.67v5.05c0,2.03,3.28,3.67,7.32,3.67s7.32-1.64,7.32-3.67
			v-5.05C25.06-7.02,21.78-5.38,17.74-5.38z"/>
		<ellipse fill="#F2DA2C" cx="17.74" cy="-9.42" rx="7.32" ry="3.67"/>
		<path fill="none" stroke="#FFF200" stroke-width="0.5" stroke-linecap="round" stroke-miterlimit="10" d="M12.12-7.32
			c5.62,2.95,11.38,0.16,12.26-0.99"/>
		<path fill="none" stroke="#8B8533" stroke-width="0.5" stroke-linecap="round" stroke-miterlimit="10" d="M10.69-4.16
			c0.25,0.75,1.24,3.44,6.38,3.44"/>
		<path fill="none" stroke="#ADA435" stroke-width="0.5" stroke-linecap="round" stroke-miterlimit="10" d="M25.06-3.84
			c-0.82,1.15-2.26,3.23-7.99,3.12"/>
	</g>
</g>
<g id="Slope2x">
	<g id="Brick1x2EW_1_">
		<polygon fill="#DBCC25" points="-0.15,-26.66 -38.29,-4.99 -19.62,6.01 18.89,-15.46 		"/>
		
			<line fill="none" stroke="#FFF200" stroke-width="0.5" stroke-linecap="round" stroke-miterlimit="10" x1="-19.62" y1="5.17" x2="17.69" y2="-15.46"/>
		<path fill="none" stroke="#6D692B" stroke-width="0.3" stroke-linecap="round" stroke-miterlimit="10" d="M-0.66,20.97"/>
		<g id="F2_24_">
			
				<linearGradient id="SVGID_17_" gradientUnits="userSpaceOnUse" x1="-8.8899" y1="440.9241" x2="5.7576" y2="440.9241" gradientTransform="matrix(1 0 0 -1 -0.0552 425.0591)">
				<stop  offset="0" style="stop-color:#8B8533"/>
				<stop  offset="0.5091" style="stop-color:#ADA435"/>
				<stop  offset="1" style="stop-color:#D6C728"/>
			</linearGradient>
			<path fill="url(#SVGID_17_)" d="M-1.62-16.56c-4.04,0-7.32-1.64-7.32-3.67v5.05c0,2.02,3.28,3.67,7.32,3.67s7.32-1.64,7.32-3.67
				v-5.05C5.7-18.2,2.42-16.56-1.62-16.56z"/>
			<ellipse fill="#F2DA2C" cx="-1.62" cy="-20.61" rx="7.32" ry="3.67"/>
			<path fill="none" stroke="#FFF200" stroke-width="0.5" stroke-linecap="round" stroke-miterlimit="10" d="M-7.24-18.5
				c5.62,2.95,11.39,0.16,12.26-0.99"/>
			<path fill="none" stroke="#8B8533" stroke-width="0.5" stroke-linecap="round" stroke-miterlimit="10" d="M-8.67-15.34
				c0.25,0.75,1.24,3.44,6.39,3.44"/>
			<path fill="none" stroke="#ADA435" stroke-width="0.5" stroke-linecap="round" stroke-miterlimit="10" d="M5.7-15.03
				c-0.82,1.15-2.26,3.23-7.99,3.12"/>
		</g>
		<polygon fill="#8B8533" points="-38.29,21.24 -38.29,-4.99 -19.62,6.01 17.61,49.34 17.61,54.27 		"/>
		
			<line fill="none" stroke="#FFF200" stroke-width="0.5" stroke-linecap="round" stroke-miterlimit="10" x1="-37.11" y1="-4.99" x2="-19.62" y2="5.17"/>
		
			<line fill="none" stroke="#ADA435" stroke-width="0.5" stroke-linecap="round" stroke-miterlimit="10" x1="17.25" y1="53.73" x2="17.25" y2="49.76"/>
		
			<line fill="none" stroke="#6D692B" stroke-width="0.3" stroke-linecap="round" stroke-miterlimit="10" x1="-38.03" y1="21.1" x2="17.25" y2="53.73"/>
		<path fill="#CFC22C" stroke="#ADA435" stroke-width="0.3" stroke-linecap="round" stroke-miterlimit="10" d="M-0.61,21.31"/>
		<path fill="#CFC22C" stroke="#ADA435" stroke-width="0.3" stroke-linecap="round" stroke-miterlimit="10" d="M-19.43,31.73"/>
		<g id="F2_23_">
			
				<linearGradient id="SVGID_18_" gradientUnits="userSpaceOnUse" x1="-28.177" y1="430.1604" x2="-13.5286" y2="430.1604" gradientTransform="matrix(1 0 0 -1 -0.0552 425.0591)">
				<stop  offset="0" style="stop-color:#8B8533"/>
				<stop  offset="0.5091" style="stop-color:#ADA435"/>
				<stop  offset="1" style="stop-color:#D6C728"/>
			</linearGradient>
			<path fill="url(#SVGID_18_)" d="M-20.91-5.79c-4.04,0-7.32-1.64-7.32-3.67v5.05c0,2.03,3.28,3.67,7.32,3.67s7.32-1.64,7.32-3.67
				v-5.05C-13.58-7.43-16.86-5.79-20.91-5.79z"/>
			<ellipse fill="#F2DA2C" cx="-20.91" cy="-9.84" rx="7.32" ry="3.67"/>
			<path fill="none" stroke="#FFF200" stroke-width="0.5" stroke-linecap="round" stroke-miterlimit="10" d="M-26.52-7.74
				c5.62,2.95,11.38,0.16,12.26-0.99"/>
			<path fill="none" stroke="#8B8533" stroke-width="0.5" stroke-linecap="round" stroke-miterlimit="10" d="M-27.96-4.58
				c0.25,0.75,1.24,3.44,6.38,3.44"/>
			<path fill="none" stroke="#ADA435" stroke-width="0.5" stroke-linecap="round" stroke-miterlimit="10" d="M-13.58-4.26
				c-0.82,1.15-2.26,3.23-7.99,3.12"/>
		</g>
	</g>
	<polygon fill="#8B8533" points="56.24,27.84 17.61,49.34 17.61,54.27 56.24,32.77 	"/>
	<polygon fill="#C5BA30" points="-19.62,6.01 17.61,49.34 56.24,27.84 18.89,-15.46 	"/>
	
		<line fill="none" stroke="#DBCC25" stroke-width="0.5" stroke-linecap="round" stroke-miterlimit="10" x1="-18.46" y1="6.39" x2="17.69" y2="48.12"/>
</g>
<g id="Brick1x2NS">
	<polyline fill="#C5BA30" points="18.77,32.88 38,22.17 38,-4.04 18.77,6.66 18.77,32.88 	"/>
	<polygon fill="#8B8533" points="-19.46,10.37 -19.46,-15.84 18.77,6.66 18.77,32.88 	"/>
	<polygon fill="#DBCC25" points="-0.35,-26.73 -19.46,-15.84 18.77,6.66 38,-4.04 	"/>
	
		<line fill="none" stroke="#FFF200" stroke-width="0.5" stroke-linecap="round" stroke-miterlimit="10" x1="-18.54" y1="-15.84" x2="18.77" y2="5.81"/>
	
		<line fill="none" stroke="#FFF200" stroke-width="0.5" stroke-linecap="round" stroke-miterlimit="10" x1="18.77" y1="5.81" x2="36.8" y2="-4.04"/>
	
		<line fill="none" stroke="#ADA435" stroke-width="0.5" stroke-linecap="round" stroke-miterlimit="10" x1="18.5" y1="32.06" x2="18.5" y2="7.23"/>
	
		<line fill="none" stroke="#6D692B" stroke-width="0.3" stroke-linecap="round" stroke-miterlimit="10" x1="-18.99" y1="10.37" x2="18.45" y2="32.38"/>
	
		<line fill="none" stroke="#ADA435" stroke-width="0.3" stroke-linecap="round" stroke-miterlimit="10" x1="18.96" y1="32.38" x2="37.78" y2="21.95"/>
	<g id="F2_6_">
		
			<linearGradient id="SVGID_19_" gradientUnits="userSpaceOnUse" x1="10.2156" y1="429.512" x2="24.864" y2="429.512" gradientTransform="matrix(1 0 0 -1 -0.0552 425.0591)">
			<stop  offset="0" style="stop-color:#8B8533"/>
			<stop  offset="0.5091" style="stop-color:#ADA435"/>
			<stop  offset="1" style="stop-color:#D6C728"/>
		</linearGradient>
		<path fill="url(#SVGID_19_)" d="M17.48-5.15c-4.04,0-7.32-1.64-7.32-3.67v5.05c0,2.03,3.28,3.67,7.32,3.67s7.32-1.64,7.32-3.67
			v-5.05C24.81-6.79,21.53-5.15,17.48-5.15z"/>
		<ellipse fill="#F2DA2C" cx="17.48" cy="-9.19" rx="7.32" ry="3.67"/>
		<path fill="none" stroke="#FFF200" stroke-width="0.5" stroke-linecap="round" stroke-miterlimit="10" d="M11.87-7.09
			c5.62,2.95,11.38,0.16,12.26-0.99"/>
		<path fill="none" stroke="#8B8533" stroke-width="0.5" stroke-linecap="round" stroke-miterlimit="10" d="M10.43-3.93
			c0.25,0.75,1.24,3.44,6.38,3.44"/>
		<path fill="none" stroke="#ADA435" stroke-width="0.5" stroke-linecap="round" stroke-miterlimit="10" d="M24.81-3.61
			c-0.82,1.15-2.26,3.23-7.99,3.12"/>
	</g>
	<g id="F2_7_">
		
			<linearGradient id="SVGID_20_" gradientUnits="userSpaceOnUse" x1="-7.6145" y1="439.5354" x2="7.0339" y2="439.5354" gradientTransform="matrix(1 0 0 -1 -0.0552 425.0591)">
			<stop  offset="0" style="stop-color:#8B8533"/>
			<stop  offset="0.5091" style="stop-color:#ADA435"/>
			<stop  offset="1" style="stop-color:#D6C728"/>
		</linearGradient>
		<path fill="url(#SVGID_20_)" d="M-0.35-15.17c-4.04,0-7.32-1.64-7.32-3.67v5.05c0,2.03,3.28,3.67,7.32,3.67s7.32-1.64,7.32-3.67
			v-5.05C6.98-16.81,3.7-15.17-0.35-15.17z"/>
		<ellipse fill="#F2DA2C" cx="-0.35" cy="-19.22" rx="7.32" ry="3.67"/>
		<path fill="none" stroke="#FFF200" stroke-width="0.5" stroke-linecap="round" stroke-miterlimit="10" d="M-5.96-17.11
			c5.62,2.95,11.39,0.16,12.26-0.99"/>
		<path fill="none" stroke="#8B8533" stroke-width="0.5" stroke-linecap="round" stroke-miterlimit="10" d="M-7.4-13.95
			c0.25,0.76,1.24,3.44,6.38,3.44"/>
		<path fill="none" stroke="#ADA435" stroke-width="0.5" stroke-linecap="round" stroke-miterlimit="10" d="M6.98-13.64
			c-0.82,1.15-2.26,3.23-7.99,3.12"/>
	</g>
</g>
<g id="Brick2x2">
	<polyline fill="#C5BA30" points="-0.14,44.15 -0.14,17.93 38.38,-3.55 38.38,22.67 	"/>
	<polygon fill="#DBCC25" points="0.03,-26.23 -38.37,-4.58 -0.14,17.93 38.38,-3.55 	"/>
	
		<line fill="none" stroke="#FFF200" stroke-width="0.5" stroke-linecap="round" stroke-miterlimit="10" x1="-0.14" y1="17.08" x2="37.17" y2="-3.55"/>
	<path fill="none" stroke="#6D692B" stroke-width="0.3" stroke-linecap="round" stroke-miterlimit="10" d="M18.82,32.88"/>
	<path fill="none" stroke="#6D692B" stroke-width="0.3" stroke-linecap="round" stroke-miterlimit="10" d="M-18.76,10.79"/>
	
		<line fill="none" stroke="#ADA435" stroke-width="0.3" stroke-linecap="round" stroke-miterlimit="10" x1="19.33" y1="32.88" x2="38.15" y2="22.45"/>
	<g id="F2_19_">
		
			<linearGradient id="SVGID_21_" gradientUnits="userSpaceOnUse" x1="-7.2405" y1="439.0364" x2="7.408" y2="439.0364" gradientTransform="matrix(1 0 0 -1 -0.0552 425.0591)">
			<stop  offset="0" style="stop-color:#8B8533"/>
			<stop  offset="0.5091" style="stop-color:#ADA435"/>
			<stop  offset="1" style="stop-color:#D6C728"/>
		</linearGradient>
		<path fill="url(#SVGID_21_)" d="M0.03-14.67c-4.04,0-7.32-1.64-7.32-3.67v5.05c0,2.03,3.28,3.67,7.32,3.67s7.33-1.64,7.33-3.67
			v-5.05C7.35-16.31,4.07-14.67,0.03-14.67z"/>
		<ellipse fill="#F2DA2C" cx="0.03" cy="-18.72" rx="7.33" ry="3.67"/>
		<path fill="none" stroke="#FFF200" stroke-width="0.5" stroke-linecap="round" stroke-miterlimit="10" d="M-5.59-16.61
			C0.03-13.66,5.8-16.46,6.67-17.6"/>
		<path fill="none" stroke="#8B8533" stroke-width="0.5" stroke-linecap="round" stroke-miterlimit="10" d="M-7.03-13.45
			c0.25,0.75,1.24,3.44,6.38,3.44"/>
		<path fill="none" stroke="#ADA435" stroke-width="0.5" stroke-linecap="round" stroke-miterlimit="10" d="M7.35-13.14
			c-0.82,1.15-2.26,3.23-7.99,3.12"/>
	</g>
	<g id="F2_18_">
		
			<linearGradient id="SVGID_22_" gradientUnits="userSpaceOnUse" x1="10.5886" y1="429.0129" x2="25.238" y2="429.0129" gradientTransform="matrix(1 0 0 -1 -0.0552 425.0591)">
			<stop  offset="0" style="stop-color:#8B8533"/>
			<stop  offset="0.5091" style="stop-color:#ADA435"/>
			<stop  offset="1" style="stop-color:#D6C728"/>
		</linearGradient>
		<path fill="url(#SVGID_22_)" d="M17.86-4.65c-4.04,0-7.33-1.64-7.33-3.67v5.05c0,2.03,3.28,3.67,7.33,3.67s7.32-1.64,7.32-3.67
			v-5.05C25.18-6.29,21.9-4.65,17.86-4.65z"/>
		<ellipse fill="#F2DA2C" cx="17.86" cy="-8.69" rx="7.32" ry="3.67"/>
		<path fill="none" stroke="#FFF200" stroke-width="0.5" stroke-linecap="round" stroke-miterlimit="10" d="M12.24-6.59
			c5.62,2.95,11.39,0.16,12.26-0.99"/>
		<path fill="none" stroke="#8B8533" stroke-width="0.5" stroke-linecap="round" stroke-miterlimit="10" d="M10.81-3.43
			c0.25,0.75,1.24,3.44,6.38,3.44"/>
		<path fill="none" stroke="#ADA435" stroke-width="0.5" stroke-linecap="round" stroke-miterlimit="10" d="M25.18-3.11
			c-0.82,1.15-2.26,3.23-7.99,3.12"/>
	</g>
	<polygon fill="#8B8533" points="-38.37,21.64 -38.37,-4.58 -0.14,17.93 -0.14,44.15 	"/>
	
		<line fill="none" stroke="#FFF200" stroke-width="0.5" stroke-linecap="round" stroke-miterlimit="10" x1="-37.45" y1="-4.58" x2="-0.14" y2="17.08"/>
	
		<line fill="none" stroke="#ADA435" stroke-width="0.5" stroke-linecap="round" stroke-miterlimit="10" x1="-0.41" y1="43.33" x2="-0.41" y2="18.49"/>
	
		<line fill="none" stroke="#6D692B" stroke-width="0.3" stroke-linecap="round" stroke-miterlimit="10" x1="-37.97" y1="21.59" x2="-0.47" y2="43.65"/>
	
		<line fill="none" stroke="#ADA435" stroke-width="0.3" stroke-linecap="round" stroke-miterlimit="10" x1="0.05" y1="43.65" x2="18.87" y2="33.22"/>
	<g id="F2_17_">
		
			<linearGradient id="SVGID_23_" gradientUnits="userSpaceOnUse" x1="-8.6956" y1="418.2473" x2="5.9519" y2="418.2473" gradientTransform="matrix(1 0 0 -1 -0.0552 425.0591)">
			<stop  offset="0" style="stop-color:#8B8533"/>
			<stop  offset="0.5091" style="stop-color:#ADA435"/>
			<stop  offset="1" style="stop-color:#D6C728"/>
		</linearGradient>
		<path fill="url(#SVGID_23_)" d="M-1.43,6.12c-4.04,0-7.32-1.64-7.32-3.67V7.5c0,2.03,3.28,3.67,7.32,3.67S5.9,9.53,5.9,7.5V2.45
			C5.9,4.48,2.62,6.12-1.43,6.12z"/>
		<ellipse fill="#F2DA2C" cx="-1.43" cy="2.07" rx="7.32" ry="3.67"/>
		<path fill="none" stroke="#FFF200" stroke-width="0.5" stroke-linecap="round" stroke-miterlimit="10" d="M-7.04,4.17
			C-1.43,7.13,4.34,4.33,5.22,3.18"/>
		<path fill="none" stroke="#8B8533" stroke-width="0.5" stroke-linecap="round" stroke-miterlimit="10" d="M-8.48,7.33
			c0.25,0.75,1.24,3.44,6.38,3.44"/>
		<path fill="none" stroke="#ADA435" stroke-width="0.5" stroke-linecap="round" stroke-miterlimit="10" d="M5.9,7.65
			C5.08,8.8,3.64,10.88-2.1,10.77"/>
	</g>
	<g id="F2_16_">
		
			<linearGradient id="SVGID_24_" gradientUnits="userSpaceOnUse" x1="-26.5256" y1="428.2708" x2="-11.8782" y2="428.2708" gradientTransform="matrix(1 0 0 -1 -0.0552 425.0591)">
			<stop  offset="0" style="stop-color:#8B8533"/>
			<stop  offset="0.5091" style="stop-color:#ADA435"/>
			<stop  offset="1" style="stop-color:#D6C728"/>
		</linearGradient>
		<path fill="url(#SVGID_24_)" d="M-19.26-3.9c-4.04,0-7.32-1.64-7.32-3.67v5.05c0,2.02,3.28,3.67,7.32,3.67
			c4.05,0,7.32-1.64,7.32-3.67v-5.05C-11.93-5.55-15.21-3.9-19.26-3.9z"/>
		<ellipse fill="#F2DA2C" cx="-19.26" cy="-7.95" rx="7.32" ry="3.67"/>
		<path fill="none" stroke="#FFF200" stroke-width="0.5" stroke-linecap="round" stroke-miterlimit="10" d="M-24.87-5.85
			c5.61,2.95,11.38,0.16,12.26-0.99"/>
		<path fill="none" stroke="#8B8533" stroke-width="0.5" stroke-linecap="round" stroke-miterlimit="10" d="M-26.31-2.69
			c0.25,0.75,1.24,3.44,6.38,3.44"/>
		<path fill="none" stroke="#ADA435" stroke-width="0.5" stroke-linecap="round" stroke-miterlimit="10" d="M-11.93-2.37
			c-0.82,1.15-2.26,3.23-7.99,3.12"/>
	</g>
</g>
<g id="Brick1x2EW">
	<polyline fill="#C5BA30" points="-19.78,32.05 -19.78,5.83 18.73,-15.65 18.73,10.57 	"/>
	<polygon fill="#DBCC25" points="-0.31,-26.84 -38.45,-5.17 -19.78,5.83 18.73,-15.65 	"/>
	
		<line fill="none" stroke="#FFF200" stroke-width="0.5" stroke-linecap="round" stroke-miterlimit="10" x1="-19.78" y1="4.98" x2="17.53" y2="-15.65"/>
	
		<line fill="none" stroke="#ADA435" stroke-width="0.3" stroke-linecap="round" stroke-miterlimit="10" x1="-19.53" y1="31.55" x2="18.51" y2="10.35"/>
	<g id="F2_10_">
		
			<linearGradient id="SVGID_25_" gradientUnits="userSpaceOnUse" x1="-9.053" y1="441.1116" x2="5.5945" y2="441.1116" gradientTransform="matrix(1 0 0 -1 -0.0552 425.0591)">
			<stop  offset="0" style="stop-color:#8B8533"/>
			<stop  offset="0.5091" style="stop-color:#ADA435"/>
			<stop  offset="1" style="stop-color:#D6C728"/>
		</linearGradient>
		<path fill="url(#SVGID_25_)" d="M-1.78-16.74c-4.04,0-7.32-1.64-7.32-3.67v5.05c0,2.03,3.28,3.67,7.32,3.67s7.32-1.64,7.32-3.67
			v-5.05C5.54-18.39,2.26-16.74-1.78-16.74z"/>
		<ellipse fill="#F2DA2C" cx="-1.78" cy="-20.79" rx="7.32" ry="3.67"/>
		<path fill="none" stroke="#FFF200" stroke-width="0.5" stroke-linecap="round" stroke-miterlimit="10" d="M-7.4-18.69
			c5.62,2.95,11.39,0.16,12.26-0.99"/>
		<path fill="none" stroke="#8B8533" stroke-width="0.5" stroke-linecap="round" stroke-miterlimit="10" d="M-8.84-15.53
			c0.25,0.75,1.24,3.44,6.39,3.44"/>
		<path fill="none" stroke="#ADA435" stroke-width="0.5" stroke-linecap="round" stroke-miterlimit="10" d="M5.54-15.21
			c-0.82,1.15-2.26,3.23-7.99,3.12"/>
	</g>
	<polygon fill="#8B8533" points="-38.45,21.05 -38.45,-5.17 -19.78,5.83 -19.78,32.05 	"/>
	
		<line fill="none" stroke="#FFF200" stroke-width="0.5" stroke-linecap="round" stroke-miterlimit="10" x1="-37.27" y1="-5.17" x2="-19.78" y2="4.98"/>
	
		<line fill="none" stroke="#ADA435" stroke-width="0.5" stroke-linecap="round" stroke-miterlimit="10" x1="-20.05" y1="31.23" x2="-20.05" y2="6.39"/>
	
		<line fill="none" stroke="#6D692B" stroke-width="0.3" stroke-linecap="round" stroke-miterlimit="10" x1="-38.19" y1="20.91" x2="-20.11" y2="31.55"/>
	<g id="F2_8_">
		
			<linearGradient id="SVGID_26_" gradientUnits="userSpaceOnUse" x1="-28.3401" y1="430.3479" x2="-13.6917" y2="430.3479" gradientTransform="matrix(1 0 0 -1 -0.0552 425.0591)">
			<stop  offset="0" style="stop-color:#8B8533"/>
			<stop  offset="0.5091" style="stop-color:#ADA435"/>
			<stop  offset="1" style="stop-color:#D6C728"/>
		</linearGradient>
		<path fill="url(#SVGID_26_)" d="M-21.07-5.98c-4.04,0-7.32-1.64-7.32-3.67v5.05c0,2.02,3.28,3.67,7.32,3.67s7.32-1.64,7.32-3.67
			v-5.05C-13.75-7.62-17.03-5.98-21.07-5.98z"/>
		<ellipse fill="#F2DA2C" cx="-21.07" cy="-10.03" rx="7.32" ry="3.67"/>
		<path fill="none" stroke="#FFF200" stroke-width="0.5" stroke-linecap="round" stroke-miterlimit="10" d="M-26.69-7.92
			c5.62,2.95,11.38,0.16,12.26-0.99"/>
		<path fill="none" stroke="#8B8533" stroke-width="0.5" stroke-linecap="round" stroke-miterlimit="10" d="M-28.12-4.77
			c0.25,0.76,1.24,3.44,6.38,3.44"/>
		<path fill="none" stroke="#ADA435" stroke-width="0.5" stroke-linecap="round" stroke-miterlimit="10" d="M-13.75-4.45
			C-14.56-3.3-16-1.22-21.74-1.33"/>
	</g>
</g>
</svg>
