<?xml version="1.0" encoding="utf-8"?>
<!-- Generator: Adobe Illustrator 16.0.4, SVG Export Plug-In . SVG Version: 6.00 Build 0)  -->
<!DOCTYPE svg PUBLIC "-//W3C//DTD SVG 1.1//EN" "http://www.w3.org/Graphics/SVG/1.1/DTD/svg11.dtd">
<svg version="1.1" xmlns="http://www.w3.org/2000/svg" xmlns:xlink="http://www.w3.org/1999/xlink" x="0px" y="0px"
	 width="595.28px" height="425.2px" viewBox="0 0 595.28 425.2" enable-background="new 0 0 595.28 425.2" xml:space="preserve">
<g id="Brick2x2">
	<polyline fill="#C5BA30" points="285.433,195.906 285.433,169.688 323.947,148.216 323.947,174.435 	"/>
	<polygon fill="#DBCC25" points="285.599,125.534 247.197,147.182 285.433,169.688 323.947,148.216 	"/>
	
		<line fill="none" stroke="#FFF200" stroke-width="0.5" stroke-linecap="round" stroke-miterlimit="10" x1="285.433" y1="168.84" x2="322.742" y2="148.216"/>
	<path fill="none" stroke="#6D692B" stroke-width="0.3" stroke-linecap="round" stroke-miterlimit="10" d="M304.393,184.644"/>
	<path fill="none" stroke="#6D692B" stroke-width="0.3" stroke-linecap="round" stroke-miterlimit="10" d="M266.81,162.548"/>
	
		<line fill="#CFC22C" stroke="#ADA435" stroke-width="0.3" stroke-linecap="round" stroke-miterlimit="10" x1="304.906" y1="184.644" x2="323.725" y2="174.214"/>
	<g id="F2_19_">
		<linearGradient id="SVGID_1_" gradientUnits="userSpaceOnUse" x1="278.2759" y1="137.7842" x2="292.9253" y2="137.7842">
			<stop  offset="0" style="stop-color:#8B8533"/>
			<stop  offset="0.5091" style="stop-color:#ADA435"/>
			<stop  offset="1" style="stop-color:#D6C728"/>
		</linearGradient>
		<path fill="url(#SVGID_1_)" d="M285.6,137.092c-4.045,0-7.324-1.641-7.324-3.666v5.051c0,2.025,3.279,3.666,7.324,3.666
			s7.325-1.641,7.325-3.666v-5.051C292.925,135.451,289.645,137.092,285.6,137.092z"/>
		<ellipse fill="#F2DA2C" cx="285.601" cy="133.045" rx="7.325" ry="3.666"/>
		<path fill="none" stroke="#FFF200" stroke-width="0.5" stroke-linecap="round" stroke-miterlimit="10" d="M279.985,135.148
			c5.615,2.953,11.386,0.156,12.261-0.992"/>
		<path fill="none" stroke="#8B8533" stroke-width="0.5" stroke-linecap="round" stroke-miterlimit="10" d="M278.547,138.309
			c0.253,0.754,1.244,3.438,6.385,3.438"/>
		<path fill="none" stroke="#ADA435" stroke-width="0.5" stroke-linecap="round" stroke-miterlimit="10" d="M292.925,138.625
			c-0.816,1.15-2.258,3.229-7.993,3.121"/>
	</g>
	<g id="F2_18_">
		<linearGradient id="SVGID_2_" gradientUnits="userSpaceOnUse" x1="296.1069" y1="147.8076" x2="310.7559" y2="147.8076">
			<stop  offset="0" style="stop-color:#8B8533"/>
			<stop  offset="0.5091" style="stop-color:#ADA435"/>
			<stop  offset="1" style="stop-color:#D6C728"/>
		</linearGradient>
		<path fill="url(#SVGID_2_)" d="M303.432,147.115c-4.045,0-7.325-1.641-7.325-3.666v5.051c0,2.025,3.28,3.666,7.325,3.666
			s7.324-1.641,7.324-3.666v-5.051C310.756,145.475,307.477,147.115,303.432,147.115z"/>
		<ellipse fill="#F2DA2C" cx="303.431" cy="143.068" rx="7.324" ry="3.666"/>
		<path fill="none" stroke="#FFF200" stroke-width="0.5" stroke-linecap="round" stroke-miterlimit="10" d="M297.814,145.172
			c5.618,2.953,11.387,0.156,12.262-0.992"/>
		<path fill="none" stroke="#8B8533" stroke-width="0.5" stroke-linecap="round" stroke-miterlimit="10" d="M296.378,148.332
			c0.252,0.754,1.244,3.438,6.385,3.438"/>
		<path fill="none" stroke="#ADA435" stroke-width="0.5" stroke-linecap="round" stroke-miterlimit="10" d="M310.756,148.648
			c-0.816,1.15-2.258,3.229-7.992,3.121"/>
	</g>
	<polygon fill="#8B8533" points="247.197,173.4 247.197,147.182 285.433,169.688 285.433,195.906 	"/>
	
		<line fill="none" stroke="#FFF200" stroke-width="0.5" stroke-linecap="round" stroke-miterlimit="10" x1="248.123" y1="147.182" x2="285.433" y2="168.84"/>
	
		<line fill="none" stroke="#ADA435" stroke-width="0.5" stroke-linecap="round" stroke-miterlimit="10" x1="285.164" y1="195.09" x2="285.164" y2="170.256"/>
	
		<line fill="none" stroke="#6D692B" stroke-width="0.3" stroke-linecap="round" stroke-miterlimit="10" x1="247.525" y1="173.312" x2="285.106" y2="195.408"/>
	
		<line fill="#CFC22C" stroke="#ADA435" stroke-width="0.3" stroke-linecap="round" stroke-miterlimit="10" x1="285.62" y1="195.408" x2="304.439" y2="184.979"/>
	<g id="F2_17_">
		<linearGradient id="SVGID_3_" gradientUnits="userSpaceOnUse" x1="276.8208" y1="158.5723" x2="291.4692" y2="158.5723">
			<stop  offset="0" style="stop-color:#8B8533"/>
			<stop  offset="0.5091" style="stop-color:#ADA435"/>
			<stop  offset="1" style="stop-color:#D6C728"/>
		</linearGradient>
		<path fill="url(#SVGID_3_)" d="M284.145,157.88c-4.045,0-7.324-1.641-7.324-3.666v5.051c0,2.025,3.279,3.666,7.324,3.666
			s7.324-1.641,7.324-3.666v-5.051C291.469,156.239,288.19,157.88,284.145,157.88z"/>
		<ellipse fill="#F2DA2C" cx="284.145" cy="153.833" rx="7.324" ry="3.667"/>
		<path fill="none" stroke="#FFF200" stroke-width="0.5" stroke-linecap="round" stroke-miterlimit="10" d="M278.53,155.937
			c5.615,2.952,11.385,0.156,12.26-0.992"/>
		<path fill="none" stroke="#8B8533" stroke-width="0.5" stroke-linecap="round" stroke-miterlimit="10" d="M277.092,159.096
			c0.253,0.755,1.244,3.438,6.385,3.438"/>
		<path fill="none" stroke="#ADA435" stroke-width="0.5" stroke-linecap="round" stroke-miterlimit="10" d="M291.469,159.413
			c-0.816,1.15-2.258,3.229-7.992,3.121"/>
	</g>
	<g id="F2_16_">
		<linearGradient id="SVGID_4_" gradientUnits="userSpaceOnUse" x1="258.9907" y1="148.5488" x2="273.6392" y2="148.5488">
			<stop  offset="0" style="stop-color:#8B8533"/>
			<stop  offset="0.5091" style="stop-color:#ADA435"/>
			<stop  offset="1" style="stop-color:#D6C728"/>
		</linearGradient>
		<path fill="url(#SVGID_4_)" d="M266.315,147.856c-4.045,0-7.324-1.641-7.324-3.666v5.051c0,2.025,3.279,3.666,7.324,3.666
			s7.324-1.641,7.324-3.666v-5.051C273.639,146.216,270.36,147.856,266.315,147.856z"/>
		<ellipse fill="#F2DA2C" cx="266.315" cy="143.81" rx="7.324" ry="3.667"/>
		<path fill="none" stroke="#FFF200" stroke-width="0.5" stroke-linecap="round" stroke-miterlimit="10" d="M260.7,145.913
			c5.615,2.952,11.385,0.156,12.26-0.992"/>
		<path fill="none" stroke="#8B8533" stroke-width="0.5" stroke-linecap="round" stroke-miterlimit="10" d="M259.262,149.072
			c0.253,0.755,1.244,3.438,6.385,3.438"/>
		<path fill="none" stroke="#ADA435" stroke-width="0.5" stroke-linecap="round" stroke-miterlimit="10" d="M273.639,149.39
			c-0.816,1.15-2.258,3.229-7.992,3.121"/>
	</g>
</g>
<g id="Layer_2">
	<polygon fill="#C5BA30" points="218.072,55.112 218.072,28.894 198.844,39.601 160.936,83.215 160.936,88.684 	"/>
	<polygon fill="#DBCC25" points="179.725,6.212 160.607,17.095 198.844,39.601 218.072,28.894 	"/>
	
		<line fill="none" stroke="#FFF200" stroke-width="0.5" stroke-linecap="round" stroke-miterlimit="10" x1="161.533" y1="17.095" x2="198.844" y2="38.753"/>
	
		<line fill="none" stroke="#FFF200" stroke-width="0.5" stroke-linecap="round" stroke-miterlimit="10" x1="198.844" y1="38.753" x2="216.866" y2="28.894"/>
	
		<line fill="#CFC22C" stroke="#ADA435" stroke-width="0.3" stroke-linecap="round" stroke-miterlimit="10" x1="161.533" y1="87.949" x2="217.85" y2="54.892"/>
	<polygon fill="#8B8533" points="122.699,66.178 122.699,61.25 160.936,83.215 160.936,88.684 	"/>
	
		<line fill="none" stroke="#6D692B" stroke-width="0.3" stroke-linecap="round" stroke-miterlimit="10" x1="123.027" y1="66.09" x2="160.608" y2="88.186"/>
	<polygon fill="#CFC22C" points="122.699,61.25 160.607,17.095 198.844,39.601 160.936,83.215 	"/>
	
		<line fill="#6D692B" stroke="#ADA435" stroke-width="0.3" stroke-linecap="round" stroke-miterlimit="10" x1="123.026" y1="61.25" x2="160.607" y2="83.346"/>
	<g id="F2_5_">
		<linearGradient id="SVGID_5_" gradientUnits="userSpaceOnUse" x1="190.2314" y1="28.3398" x2="204.8799" y2="28.3398">
			<stop  offset="0" style="stop-color:#8B8533"/>
			<stop  offset="0.5091" style="stop-color:#ADA435"/>
			<stop  offset="1" style="stop-color:#D6C728"/>
		</linearGradient>
		<path fill="url(#SVGID_5_)" d="M197.556,27.647c-4.045,0-7.324-1.641-7.324-3.666v5.051c0,2.025,3.279,3.666,7.324,3.666
			s7.324-1.641,7.324-3.666v-5.051C204.88,26.007,201.601,27.647,197.556,27.647z"/>
		<ellipse fill="#F2DA2C" cx="197.556" cy="23.601" rx="7.324" ry="3.667"/>
		<path fill="none" stroke="#FFF200" stroke-width="0.5" stroke-linecap="round" stroke-miterlimit="10" d="M191.94,25.704
			c5.616,2.952,11.385,0.156,12.26-0.992"/>
		<path fill="none" stroke="#8B8533" stroke-width="0.5" stroke-linecap="round" stroke-miterlimit="10" d="M190.503,28.863
			c0.253,0.755,1.244,3.438,6.385,3.438"/>
		<path fill="none" stroke="#ADA435" stroke-width="0.5" stroke-linecap="round" stroke-miterlimit="10" d="M204.88,29.181
			c-0.816,1.15-2.258,3.229-7.992,3.121"/>
	</g>
	<g id="F2_3_">
		<linearGradient id="SVGID_6_" gradientUnits="userSpaceOnUse" x1="172.4014" y1="18.4624" x2="187.0498" y2="18.4624">
			<stop  offset="0" style="stop-color:#8B8533"/>
			<stop  offset="0.5091" style="stop-color:#ADA435"/>
			<stop  offset="1" style="stop-color:#D6C728"/>
		</linearGradient>
		<path fill="url(#SVGID_6_)" d="M179.726,17.77c-4.045,0-7.324-1.641-7.324-3.666v5.051c0,2.025,3.279,3.666,7.324,3.666
			s7.324-1.641,7.324-3.666v-5.051C187.05,16.129,183.771,17.77,179.726,17.77z"/>
		<ellipse fill="#F2DA2C" cx="179.726" cy="13.723" rx="7.324" ry="3.667"/>
		<path fill="none" stroke="#FFF200" stroke-width="0.5" stroke-linecap="round" stroke-miterlimit="10" d="M174.11,15.827
			c5.616,2.952,11.385,0.156,12.26-0.992"/>
		<path fill="none" stroke="#8B8533" stroke-width="0.5" stroke-linecap="round" stroke-miterlimit="10" d="M172.673,18.986
			c0.253,0.755,1.244,3.438,6.385,3.438"/>
		<path fill="none" stroke="#ADA435" stroke-width="0.5" stroke-linecap="round" stroke-miterlimit="10" d="M187.05,19.303
			c-0.816,1.15-2.258,3.229-7.992,3.121"/>
	</g>
</g>
<g id="Brick1x2">
	<g id="Brick1x2EW">
		<polyline fill="#C5BA30" points="180.744,313.968 180.744,287.749 219.257,266.277 219.257,292.496 		"/>
		<polygon fill="#DBCC25" points="200.215,255.077 162.071,276.749 180.744,287.749 219.257,266.277 		"/>
		
			<line fill="none" stroke="#FFF200" stroke-width="0.5" stroke-linecap="round" stroke-miterlimit="10" x1="180.744" y1="286.901" x2="218.052" y2="266.277"/>
		<path fill="none" stroke="#6D692B" stroke-width="0.3" stroke-linecap="round" stroke-miterlimit="10" d="M199.703,302.705"/>
		
			<line fill="#CFC22C" stroke="#ADA435" stroke-width="0.3" stroke-linecap="round" stroke-miterlimit="10" x1="200.216" y1="302.705" x2="219.035" y2="292.275"/>
		<g id="F2_10_">
			<linearGradient id="SVGID_7_" gradientUnits="userSpaceOnUse" x1="191.4175" y1="265.8691" x2="206.0659" y2="265.8691">
				<stop  offset="0" style="stop-color:#8B8533"/>
				<stop  offset="0.5091" style="stop-color:#ADA435"/>
				<stop  offset="1" style="stop-color:#D6C728"/>
			</linearGradient>
			<path fill="url(#SVGID_7_)" d="M198.742,265.177c-4.045,0-7.324-1.641-7.324-3.666v5.051c0,2.025,3.279,3.666,7.324,3.666
				s7.324-1.641,7.324-3.666v-5.051C206.066,263.536,202.787,265.177,198.742,265.177z"/>
			<ellipse fill="#F2DA2C" cx="198.742" cy="261.13" rx="7.324" ry="3.666"/>
			<path fill="none" stroke="#FFF200" stroke-width="0.5" stroke-linecap="round" stroke-miterlimit="10" d="M193.125,263.233
				c5.617,2.953,11.387,0.156,12.262-0.992"/>
			<path fill="none" stroke="#8B8533" stroke-width="0.5" stroke-linecap="round" stroke-miterlimit="10" d="M191.689,266.394
				c0.252,0.754,1.244,3.438,6.385,3.438"/>
			<path fill="none" stroke="#ADA435" stroke-width="0.5" stroke-linecap="round" stroke-miterlimit="10" d="M206.066,266.71
				c-0.816,1.15-2.258,3.229-7.992,3.121"/>
		</g>
		<polygon fill="#8B8533" points="162.071,302.977 162.071,276.749 180.744,287.749 180.744,313.968 		"/>
		
			<line fill="none" stroke="#FFF200" stroke-width="0.5" stroke-linecap="round" stroke-miterlimit="10" x1="163.255" y1="276.749" x2="180.744" y2="286.901"/>
		
			<line fill="none" stroke="#ADA435" stroke-width="0.5" stroke-linecap="round" stroke-miterlimit="10" x1="180.474" y1="313.151" x2="180.474" y2="288.317"/>
		
			<line fill="none" stroke="#6D692B" stroke-width="0.3" stroke-linecap="round" stroke-miterlimit="10" x1="162.338" y1="302.832" x2="180.417" y2="313.47"/>
		
			<line fill="#CFC22C" stroke="#ADA435" stroke-width="0.3" stroke-linecap="round" stroke-miterlimit="10" x1="180.93" y1="313.47" x2="199.75" y2="303.04"/>
		<g id="F2_8_">
			<linearGradient id="SVGID_8_" gradientUnits="userSpaceOnUse" x1="172.1313" y1="276.6338" x2="186.7798" y2="276.6338">
				<stop  offset="0" style="stop-color:#8B8533"/>
				<stop  offset="0.5091" style="stop-color:#ADA435"/>
				<stop  offset="1" style="stop-color:#D6C728"/>
			</linearGradient>
			<path fill="url(#SVGID_8_)" d="M179.456,275.941c-4.045,0-7.324-1.641-7.324-3.666v5.051c0,2.025,3.279,3.666,7.324,3.666
				s7.324-1.641,7.324-3.666v-5.051C186.78,274.301,183.5,275.941,179.456,275.941z"/>
			<ellipse fill="#F2DA2C" cx="179.456" cy="271.895" rx="7.324" ry="3.667"/>
			<path fill="none" stroke="#FFF200" stroke-width="0.5" stroke-linecap="round" stroke-miterlimit="10" d="M173.84,273.998
				c5.615,2.952,11.385,0.156,12.26-0.992"/>
			<path fill="none" stroke="#8B8533" stroke-width="0.5" stroke-linecap="round" stroke-miterlimit="10" d="M172.403,277.157
				c0.253,0.755,1.244,3.438,6.385,3.438"/>
			<path fill="none" stroke="#ADA435" stroke-width="0.5" stroke-linecap="round" stroke-miterlimit="10" d="M186.78,277.475
				c-0.816,1.15-2.258,3.229-7.992,3.121"/>
		</g>
	</g>
	<g id="Brick1x2NS">
		<polyline fill="#C5BA30" points="150.835,268.311 170.064,257.604 170.064,231.385 150.835,242.092 150.835,268.311 		"/>
		<polygon fill="#8B8533" points="112.599,245.805 112.599,219.586 150.835,242.092 150.835,268.311 		"/>
		<polygon fill="#DBCC25" points="131.716,208.703 112.599,219.586 150.835,242.092 170.064,231.385 		"/>
		
			<line fill="none" stroke="#FFF200" stroke-width="0.5" stroke-linecap="round" stroke-miterlimit="10" x1="113.525" y1="219.586" x2="150.835" y2="241.244"/>
		
			<line fill="none" stroke="#FFF200" stroke-width="0.5" stroke-linecap="round" stroke-miterlimit="10" x1="150.835" y1="241.244" x2="168.858" y2="231.385"/>
		
			<line fill="none" stroke="#ADA435" stroke-width="0.5" stroke-linecap="round" stroke-miterlimit="10" x1="150.566" y1="267.494" x2="150.566" y2="242.66"/>
		
			<line fill="none" stroke="#6D692B" stroke-width="0.3" stroke-linecap="round" stroke-miterlimit="10" x1="112.927" y1="245.717" x2="150.508" y2="267.812"/>
		
			<line fill="#CFC22C" stroke="#ADA435" stroke-width="0.3" stroke-linecap="round" stroke-miterlimit="10" x1="151.022" y1="267.812" x2="169.841" y2="257.383"/>
		<g id="F2_6_">
			<linearGradient id="SVGID_9_" gradientUnits="userSpaceOnUse" x1="142.2231" y1="230.9766" x2="156.8716" y2="230.9766">
				<stop  offset="0" style="stop-color:#8B8533"/>
				<stop  offset="0.5091" style="stop-color:#ADA435"/>
				<stop  offset="1" style="stop-color:#D6C728"/>
			</linearGradient>
			<path fill="url(#SVGID_9_)" d="M149.547,230.284c-4.045,0-7.324-1.641-7.324-3.666v5.051c0,2.025,3.279,3.666,7.324,3.666
				s7.324-1.641,7.324-3.666v-5.051C156.872,228.644,153.592,230.284,149.547,230.284z"/>
			<ellipse fill="#F2DA2C" cx="149.547" cy="226.237" rx="7.324" ry="3.667"/>
			<path fill="none" stroke="#FFF200" stroke-width="0.5" stroke-linecap="round" stroke-miterlimit="10" d="M143.932,228.341
				c5.616,2.952,11.385,0.156,12.26-0.992"/>
			<path fill="none" stroke="#8B8533" stroke-width="0.5" stroke-linecap="round" stroke-miterlimit="10" d="M142.495,231.5
				c0.253,0.755,1.244,3.438,6.385,3.438"/>
			<path fill="none" stroke="#ADA435" stroke-width="0.5" stroke-linecap="round" stroke-miterlimit="10" d="M156.872,231.817
				c-0.816,1.15-2.258,3.229-7.992,3.121"/>
		</g>
		<g id="F2_7_">
			<linearGradient id="SVGID_10_" gradientUnits="userSpaceOnUse" x1="124.3931" y1="220.9531" x2="139.0415" y2="220.9531">
				<stop  offset="0" style="stop-color:#8B8533"/>
				<stop  offset="0.5091" style="stop-color:#ADA435"/>
				<stop  offset="1" style="stop-color:#D6C728"/>
			</linearGradient>
			<path fill="url(#SVGID_10_)" d="M131.717,220.261c-4.045,0-7.324-1.641-7.324-3.666v5.051c0,2.025,3.279,3.666,7.324,3.666
				s7.324-1.641,7.324-3.666v-5.051C139.042,218.62,135.762,220.261,131.717,220.261z"/>
			<ellipse fill="#F2DA2C" cx="131.717" cy="216.214" rx="7.324" ry="3.667"/>
			<path fill="none" stroke="#FFF200" stroke-width="0.5" stroke-linecap="round" stroke-miterlimit="10" d="M126.102,218.317
				c5.616,2.952,11.385,0.156,12.26-0.992"/>
			<path fill="none" stroke="#8B8533" stroke-width="0.5" stroke-linecap="round" stroke-miterlimit="10" d="M124.665,221.477
				c0.253,0.755,1.244,3.438,6.385,3.438"/>
			<path fill="none" stroke="#ADA435" stroke-width="0.5" stroke-linecap="round" stroke-miterlimit="10" d="M139.042,221.794
				c-0.816,1.15-2.258,3.229-7.992,3.121"/>
		</g>
	</g>
</g>
<g id="Layer_8">
</g>
<g id="Layer_9">
</g>
<g id="Brick1x4">
	<g>
		<polygon fill="#C5BA30" points="263.822,308.426 263.822,282.207 340.906,239.23 340.906,265.449 		"/>
		<polygon fill="#DBCC25" points="321.863,228.03 245.149,271.207 263.822,282.207 340.906,239.23 		"/>
		
			<line fill="none" stroke="#FFF200" stroke-width="0.5" stroke-linecap="round" stroke-miterlimit="10" x1="263.822" y1="281.359" x2="339.701" y2="239.23"/>
		<path fill="none" stroke="#6D692B" stroke-width="0.3" stroke-linecap="round" stroke-miterlimit="10" d="M321.352,275.658"/>
		
			<line fill="#CFC22C" stroke="#ADA435" stroke-width="0.3" stroke-linecap="round" stroke-miterlimit="10" x1="263.994" y1="308.076" x2="340.684" y2="265.229"/>
		<g id="F2_20_">
			<linearGradient id="SVGID_11_" gradientUnits="userSpaceOnUse" x1="313.0664" y1="238.8223" x2="327.7148" y2="238.8223">
				<stop  offset="0" style="stop-color:#8B8533"/>
				<stop  offset="0.5091" style="stop-color:#ADA435"/>
				<stop  offset="1" style="stop-color:#D6C728"/>
			</linearGradient>
			<path fill="url(#SVGID_11_)" d="M320.391,238.13c-4.045,0-7.324-1.641-7.324-3.666v5.051c0,2.025,3.279,3.666,7.324,3.666
				s7.324-1.641,7.324-3.666v-5.051C327.715,236.489,324.436,238.13,320.391,238.13z"/>
			<ellipse fill="#F2DA2C" cx="320.391" cy="234.083" rx="7.324" ry="3.666"/>
			<path fill="none" stroke="#FFF200" stroke-width="0.5" stroke-linecap="round" stroke-miterlimit="10" d="M314.773,236.187
				c5.617,2.953,11.387,0.156,12.262-0.992"/>
			<path fill="none" stroke="#8B8533" stroke-width="0.5" stroke-linecap="round" stroke-miterlimit="10" d="M313.338,239.347
				c0.252,0.754,1.244,3.438,6.385,3.438"/>
			<path fill="none" stroke="#ADA435" stroke-width="0.5" stroke-linecap="round" stroke-miterlimit="10" d="M327.715,239.663
				c-0.816,1.15-2.258,3.229-7.992,3.121"/>
		</g>
		<path fill="none" stroke="#ADA435" stroke-width="0.5" stroke-linecap="round" stroke-miterlimit="10" d="M302.123,261.271"/>
		<path fill="none" stroke="#ADA435" stroke-width="0.5" stroke-linecap="round" stroke-miterlimit="10" d="M302.123,286.104"/>
		<g id="F2_9_">
			<linearGradient id="SVGID_12_" gradientUnits="userSpaceOnUse" x1="293.7793" y1="249.5869" x2="308.4277" y2="249.5869">
				<stop  offset="0" style="stop-color:#8B8533"/>
				<stop  offset="0.5091" style="stop-color:#ADA435"/>
				<stop  offset="1" style="stop-color:#D6C728"/>
			</linearGradient>
			<path fill="url(#SVGID_12_)" d="M301.104,248.895c-4.045,0-7.324-1.641-7.324-3.666v5.051c0,2.025,3.279,3.666,7.324,3.666
				s7.324-1.641,7.324-3.666v-5.051C308.428,247.254,305.148,248.895,301.104,248.895z"/>
			<ellipse fill="#F2DA2C" cx="301.104" cy="244.848" rx="7.324" ry="3.667"/>
			<path fill="none" stroke="#FFF200" stroke-width="0.5" stroke-linecap="round" stroke-miterlimit="10" d="M295.488,246.951
				c5.615,2.952,11.385,0.156,12.26-0.992"/>
			<path fill="none" stroke="#8B8533" stroke-width="0.5" stroke-linecap="round" stroke-miterlimit="10" d="M294.051,250.11
				c0.254,0.755,1.244,3.438,6.385,3.438"/>
			<path fill="none" stroke="#ADA435" stroke-width="0.5" stroke-linecap="round" stroke-miterlimit="10" d="M308.428,250.428
				c-0.816,1.15-2.258,3.229-7.992,3.121"/>
		</g>
		<path fill="none" stroke="#6D692B" stroke-width="0.3" stroke-linecap="round" stroke-miterlimit="10" d="M282.781,297.164"/>
		<g id="F2_4_">
			<linearGradient id="SVGID_13_" gradientUnits="userSpaceOnUse" x1="275.0098" y1="260.3955" x2="289.6582" y2="260.3955">
				<stop  offset="0" style="stop-color:#8B8533"/>
				<stop  offset="0.5091" style="stop-color:#ADA435"/>
				<stop  offset="1" style="stop-color:#D6C728"/>
			</linearGradient>
			<path fill="url(#SVGID_13_)" d="M282.334,259.703c-4.045,0-7.324-1.641-7.324-3.666v5.051c0,2.025,3.279,3.666,7.324,3.666
				s7.324-1.641,7.324-3.666v-5.051C289.658,258.062,286.379,259.703,282.334,259.703z"/>
			<ellipse fill="#F2DA2C" cx="282.334" cy="255.656" rx="7.324" ry="3.666"/>
			<path fill="none" stroke="#FFF200" stroke-width="0.5" stroke-linecap="round" stroke-miterlimit="10" d="M276.717,257.76
				c5.617,2.953,11.387,0.156,12.262-0.992"/>
			<path fill="none" stroke="#8B8533" stroke-width="0.5" stroke-linecap="round" stroke-miterlimit="10" d="M275.281,260.92
				c0.252,0.754,1.244,3.438,6.385,3.438"/>
			<path fill="none" stroke="#ADA435" stroke-width="0.5" stroke-linecap="round" stroke-miterlimit="10" d="M289.658,261.236
				c-0.816,1.15-2.258,3.229-7.992,3.121"/>
		</g>
		<polygon fill="#8B8533" points="245.149,297.436 245.149,271.207 263.822,282.207 263.822,308.426 		"/>
		
			<line fill="none" stroke="#FFF200" stroke-width="0.5" stroke-linecap="round" stroke-miterlimit="10" x1="246.333" y1="271.207" x2="263.822" y2="281.359"/>
		
			<line fill="none" stroke="#ADA435" stroke-width="0.5" stroke-linecap="round" stroke-miterlimit="10" x1="263.553" y1="307.609" x2="263.553" y2="282.775"/>
		
			<line fill="none" stroke="#6D692B" stroke-width="0.3" stroke-linecap="round" stroke-miterlimit="10" x1="245.417" y1="297.291" x2="263.495" y2="307.928"/>
		<g id="F2_2_">
			<linearGradient id="SVGID_14_" gradientUnits="userSpaceOnUse" x1="255.21" y1="271.0928" x2="269.8584" y2="271.0928">
				<stop  offset="0" style="stop-color:#8B8533"/>
				<stop  offset="0.5091" style="stop-color:#ADA435"/>
				<stop  offset="1" style="stop-color:#D6C728"/>
			</linearGradient>
			<path fill="url(#SVGID_14_)" d="M262.534,270.4c-4.045,0-7.324-1.641-7.324-3.666v5.051c0,2.025,3.279,3.666,7.324,3.666
				s7.324-1.641,7.324-3.666v-5.051C269.858,268.76,266.579,270.4,262.534,270.4z"/>
			<ellipse fill="#F2DA2C" cx="262.534" cy="266.354" rx="7.324" ry="3.668"/>
			<path fill="none" stroke="#FFF200" stroke-width="0.5" stroke-linecap="round" stroke-miterlimit="10" d="M256.919,268.457
				c5.615,2.951,11.385,0.156,12.26-0.992"/>
			<path fill="none" stroke="#8B8533" stroke-width="0.5" stroke-linecap="round" stroke-miterlimit="10" d="M255.481,271.615
				c0.253,0.756,1.244,3.439,6.385,3.439"/>
			<path fill="none" stroke="#ADA435" stroke-width="0.5" stroke-linecap="round" stroke-miterlimit="10" d="M269.858,271.934
				c-0.816,1.15-2.258,3.229-7.992,3.121"/>
		</g>
	</g>
	<polyline fill="#C5BA30" points="252.345,246.477 271.574,235.77 271.574,209.551 252.345,220.258 252.345,246.477 	"/>
	<polygon fill="#8B8533" points="175.865,201.424 175.865,175.205 252.345,220.258 252.345,246.477 	"/>
	<polygon fill="#DBCC25" points="194.982,164.322 175.865,175.205 252.345,220.258 271.574,209.551 	"/>
	
		<line fill="none" stroke="#FFF200" stroke-width="0.5" stroke-linecap="round" stroke-miterlimit="10" x1="177.004" y1="175.205" x2="252.345" y2="219.41"/>
	
		<line fill="none" stroke="#FFF200" stroke-width="0.5" stroke-linecap="round" stroke-miterlimit="10" x1="252.345" y1="219.41" x2="270.368" y2="209.551"/>
	
		<line fill="none" stroke="#ADA435" stroke-width="0.5" stroke-linecap="round" stroke-miterlimit="10" x1="252.076" y1="245.66" x2="252.076" y2="220.826"/>
	
		<line fill="none" stroke="#6D692B" stroke-width="0.3" stroke-linecap="round" stroke-miterlimit="10" x1="176.289" y1="201.363" x2="252.018" y2="245.979"/>
	
		<line fill="#CFC22C" stroke="#ADA435" stroke-width="0.3" stroke-linecap="round" stroke-miterlimit="10" x1="252.532" y1="245.979" x2="271.351" y2="235.549"/>
	<g id="F2_15_">
		<linearGradient id="SVGID_15_" gradientUnits="userSpaceOnUse" x1="243.7329" y1="209.1436" x2="258.3813" y2="209.1436">
			<stop  offset="0" style="stop-color:#8B8533"/>
			<stop  offset="0.5091" style="stop-color:#ADA435"/>
			<stop  offset="1" style="stop-color:#D6C728"/>
		</linearGradient>
		<path fill="url(#SVGID_15_)" d="M251.057,208.451c-4.045,0-7.324-1.641-7.324-3.666v5.051c0,2.025,3.279,3.666,7.324,3.666
			s7.324-1.641,7.324-3.666v-5.051C258.381,206.811,255.102,208.451,251.057,208.451z"/>
		<ellipse fill="#F2DA2C" cx="251.057" cy="204.404" rx="7.324" ry="3.667"/>
		<path fill="none" stroke="#FFF200" stroke-width="0.5" stroke-linecap="round" stroke-miterlimit="10" d="M245.441,206.508
			c5.616,2.952,11.385,0.156,12.26-0.992"/>
		<path fill="none" stroke="#8B8533" stroke-width="0.5" stroke-linecap="round" stroke-miterlimit="10" d="M244.004,209.667
			c0.253,0.755,1.244,3.438,6.385,3.438"/>
		<path fill="none" stroke="#ADA435" stroke-width="0.5" stroke-linecap="round" stroke-miterlimit="10" d="M258.381,209.984
			c-0.816,1.15-2.258,3.229-7.992,3.121"/>
	</g>
	<g id="F2_14_">
		<linearGradient id="SVGID_16_" gradientUnits="userSpaceOnUse" x1="225.5493" y1="198.6675" x2="240.1978" y2="198.6675">
			<stop  offset="0" style="stop-color:#8B8533"/>
			<stop  offset="0.5091" style="stop-color:#ADA435"/>
			<stop  offset="1" style="stop-color:#D6C728"/>
		</linearGradient>
		<path fill="url(#SVGID_16_)" d="M232.874,197.975c-4.045,0-7.324-1.641-7.324-3.666v5.051c0,2.025,3.279,3.666,7.324,3.666
			s7.324-1.641,7.324-3.666v-5.051C240.198,196.334,236.918,197.975,232.874,197.975z"/>
		<ellipse fill="#F2DA2C" cx="232.874" cy="193.928" rx="7.324" ry="3.667"/>
		<path fill="none" stroke="#FFF200" stroke-width="0.5" stroke-linecap="round" stroke-miterlimit="10" d="M227.258,196.032
			c5.616,2.952,11.385,0.156,12.26-0.992"/>
		<path fill="none" stroke="#8B8533" stroke-width="0.5" stroke-linecap="round" stroke-miterlimit="10" d="M225.821,199.191
			c0.253,0.755,1.244,3.438,6.385,3.438"/>
		<path fill="none" stroke="#ADA435" stroke-width="0.5" stroke-linecap="round" stroke-miterlimit="10" d="M240.198,199.508
			c-0.816,1.15-2.258,3.229-7.992,3.121"/>
	</g>
	<g id="F2_12_">
		<linearGradient id="SVGID_17_" gradientUnits="userSpaceOnUse" x1="206.0039" y1="187.2217" x2="220.6523" y2="187.2217">
			<stop  offset="0" style="stop-color:#8B8533"/>
			<stop  offset="0.5091" style="stop-color:#ADA435"/>
			<stop  offset="1" style="stop-color:#D6C728"/>
		</linearGradient>
		<path fill="url(#SVGID_17_)" d="M213.328,186.529c-4.045,0-7.324-1.641-7.324-3.666v5.051c0,2.025,3.279,3.666,7.324,3.666
			s7.324-1.641,7.324-3.666v-5.051C220.652,184.889,217.373,186.529,213.328,186.529z"/>
		<ellipse fill="#F2DA2C" cx="213.328" cy="182.482" rx="7.324" ry="3.667"/>
		<path fill="none" stroke="#FFF200" stroke-width="0.5" stroke-linecap="round" stroke-miterlimit="10" d="M207.712,184.586
			c5.616,2.952,11.385,0.156,12.26-0.992"/>
		<path fill="none" stroke="#8B8533" stroke-width="0.5" stroke-linecap="round" stroke-miterlimit="10" d="M206.275,187.745
			c0.253,0.755,1.244,3.438,6.385,3.438"/>
		<path fill="none" stroke="#ADA435" stroke-width="0.5" stroke-linecap="round" stroke-miterlimit="10" d="M220.652,188.062
			c-0.816,1.15-2.258,3.229-7.992,3.121"/>
	</g>
	<g id="F2_11_">
		<linearGradient id="SVGID_18_" gradientUnits="userSpaceOnUse" x1="187.6592" y1="176.5728" x2="202.3076" y2="176.5728">
			<stop  offset="0" style="stop-color:#8B8533"/>
			<stop  offset="0.5091" style="stop-color:#ADA435"/>
			<stop  offset="1" style="stop-color:#D6C728"/>
		</linearGradient>
		<path fill="url(#SVGID_18_)" d="M194.983,175.88c-4.045,0-7.324-1.641-7.324-3.666v5.051c0,2.025,3.279,3.666,7.324,3.666
			s7.324-1.641,7.324-3.666v-5.051C202.308,174.24,199.028,175.88,194.983,175.88z"/>
		<ellipse fill="#F2DA2C" cx="194.983" cy="171.833" rx="7.324" ry="3.667"/>
		<path fill="none" stroke="#FFF200" stroke-width="0.5" stroke-linecap="round" stroke-miterlimit="10" d="M189.368,173.937
			c5.616,2.952,11.385,0.156,12.26-0.992"/>
		<path fill="none" stroke="#8B8533" stroke-width="0.5" stroke-linecap="round" stroke-miterlimit="10" d="M187.931,177.096
			c0.253,0.755,1.244,3.438,6.385,3.438"/>
		<path fill="none" stroke="#ADA435" stroke-width="0.5" stroke-linecap="round" stroke-miterlimit="10" d="M202.308,177.414
			c-0.816,1.15-2.258,3.229-7.992,3.121"/>
	</g>
</g>
<g id="Brick1x1">
	<polyline fill="#C5BA30" points="369.069,113.884 388.298,103.177 388.298,76.958 369.069,87.666 369.069,113.884 	"/>
	<polygon fill="#8B8533" points="349.951,102.664 349.951,76.413 369.069,87.666 369.069,113.884 	"/>
	<polygon fill="#DBCC25" points="369.625,65.914 349.951,76.413 369.069,87.666 388.298,76.958 	"/>
	
		<line fill="none" stroke="#FFF200" stroke-width="0.5" stroke-linecap="round" stroke-miterlimit="10" x1="351.145" y1="76.413" x2="369.069" y2="86.818"/>
	
		<line fill="none" stroke="#FFF200" stroke-width="0.5" stroke-linecap="round" stroke-miterlimit="10" x1="369.069" y1="86.818" x2="387.092" y2="76.958"/>
	
		<line fill="none" stroke="#ADA435" stroke-width="0.5" stroke-linecap="round" stroke-miterlimit="10" x1="368.8" y1="113.068" x2="368.8" y2="88.234"/>
	
		<line fill="none" stroke="#6D692B" stroke-width="0.3" stroke-linecap="round" stroke-miterlimit="10" x1="350.139" y1="102.448" x2="368.742" y2="113.386"/>
	
		<line fill="#CFC22C" stroke="#ADA435" stroke-width="0.3" stroke-linecap="round" stroke-miterlimit="10" x1="369.256" y1="113.386" x2="388.075" y2="102.957"/>
	<g id="F2_13_">
		<linearGradient id="SVGID_19_" gradientUnits="userSpaceOnUse" x1="360.4092" y1="76.4346" x2="375.0576" y2="76.4346">
			<stop  offset="0" style="stop-color:#8B8533"/>
			<stop  offset="0.5091" style="stop-color:#ADA435"/>
			<stop  offset="1" style="stop-color:#D6C728"/>
		</linearGradient>
		<path fill="url(#SVGID_19_)" d="M367.733,75.742c-4.045,0-7.324-1.641-7.324-3.666v5.051c0,2.025,3.279,3.666,7.324,3.666
			s7.324-1.641,7.324-3.666v-5.051C375.058,74.102,371.778,75.742,367.733,75.742z"/>
		<ellipse fill="#F2DA2C" cx="367.733" cy="71.695" rx="7.324" ry="3.667"/>
		<path fill="none" stroke="#FFF200" stroke-width="0.5" stroke-linecap="round" stroke-miterlimit="10" d="M362.117,73.799
			c5.616,2.952,11.386,0.156,12.261-0.992"/>
		<path fill="none" stroke="#8B8533" stroke-width="0.5" stroke-linecap="round" stroke-miterlimit="10" d="M360.681,76.958
			c0.253,0.755,1.244,3.438,6.385,3.438"/>
		<path fill="none" stroke="#ADA435" stroke-width="0.5" stroke-linecap="round" stroke-miterlimit="10" d="M375.058,77.275
			c-0.816,1.15-2.258,3.229-7.992,3.121"/>
	</g>
	<line fill="none" x1="388.298" y1="76.958" x2="388.298" y2="85.62"/>
</g>
<g id="Plate1x1">
	<polyline fill="#C5BA30" points="337.241,139.213 356.47,128.506 356.47,119.857 337.241,130.564 337.241,139.213 	"/>
	<polygon fill="#8B8533" points="318.123,127.993 318.123,119.311 337.241,130.564 337.241,139.213 	"/>
	<polygon fill="#DBCC25" points="337.797,108.812 318.123,119.311 337.241,130.564 356.47,119.857 	"/>
	
		<line fill="none" stroke="#FFF200" stroke-width="0.5" stroke-linecap="round" stroke-miterlimit="10" x1="319.316" y1="119.311" x2="337.241" y2="129.716"/>
	
		<line fill="none" stroke="#FFF200" stroke-width="0.5" stroke-linecap="round" stroke-miterlimit="10" x1="337.241" y1="129.716" x2="355.264" y2="119.857"/>
	
		<line fill="none" stroke="#ADA435" stroke-width="0.5" stroke-linecap="round" stroke-miterlimit="10" x1="336.972" y1="138.397" x2="336.972" y2="131.132"/>
	
		<line fill="none" stroke="#6D692B" stroke-width="0.3" stroke-linecap="round" stroke-miterlimit="10" x1="318.311" y1="127.776" x2="336.914" y2="138.715"/>
	
		<line fill="#CFC22C" stroke="#ADA435" stroke-width="0.3" stroke-linecap="round" stroke-miterlimit="10" x1="337.428" y1="138.715" x2="356.247" y2="128.286"/>
	<g id="F2_1_">
		<linearGradient id="SVGID_20_" gradientUnits="userSpaceOnUse" x1="328.5811" y1="119.3335" x2="343.2295" y2="119.3335">
			<stop  offset="0" style="stop-color:#8B8533"/>
			<stop  offset="0.5091" style="stop-color:#ADA435"/>
			<stop  offset="1" style="stop-color:#D6C728"/>
		</linearGradient>
		<path fill="url(#SVGID_20_)" d="M335.905,118.641c-4.045,0-7.324-1.641-7.324-3.666v5.051c0,2.025,3.279,3.666,7.324,3.666
			s7.324-1.641,7.324-3.666v-5.051C343.229,117,339.95,118.641,335.905,118.641z"/>
		<ellipse fill="#F2DA2C" cx="335.905" cy="114.594" rx="7.324" ry="3.667"/>
		<path fill="none" stroke="#FFF200" stroke-width="0.5" stroke-linecap="round" stroke-miterlimit="10" d="M330.289,116.698
			c5.616,2.951,11.386,0.156,12.261-0.992"/>
		<path fill="none" stroke="#8B8533" stroke-width="0.5" stroke-linecap="round" stroke-miterlimit="10" d="M328.853,119.856
			c0.253,0.756,1.244,3.439,6.385,3.439"/>
		<path fill="none" stroke="#ADA435" stroke-width="0.5" stroke-linecap="round" stroke-miterlimit="10" d="M343.229,120.174
			c-0.816,1.15-2.258,3.229-7.992,3.121"/>
	</g>
</g>
<g id="Palette">
	<rect x="38.601" y="130.336" fill="#DBCC25" width="12.333" height="11.667"/>
	<rect x="50.934" y="130.336" fill="#CFC22C" width="12.333" height="11.667"/>
	<rect x="63.267" y="130.336" fill="#C5BA30" width="12.333" height="11.668"/>
	<rect x="75.6" y="130.336" fill="#ADA435" width="12.333" height="11.667"/>
	<rect x="87.933" y="130.337" fill="#8B8533" width="12.333" height="11.666"/>
	<rect x="26.268" y="130.337" fill="#F2DA2C" width="12.333" height="11.667"/>
	<rect x="13.935" y="130.337" fill="#FFF200" width="12.333" height="11.667"/>
	<rect x="100.266" y="130.336" fill="#6D692B" width="12.334" height="11.666"/>
	
		<line fill="none" stroke="#DBCC25" stroke-width="0.5" stroke-linecap="round" stroke-miterlimit="10" x1="198.359" y1="39.875" x2="160.936" y2="82.938"/>
</g>
</svg>
