<?xml version="1.0" encoding="utf-8"?>
<!-- Generator: Adobe Illustrator 16.0.4, SVG Export Plug-In . SVG Version: 6.00 Build 0)  -->
<!DOCTYPE svg PUBLIC "-//W3C//DTD SVG 1.1//EN" "http://www.w3.org/Graphics/SVG/1.1/DTD/svg11.dtd">
<svg version="1.1" id="Layer_1" xmlns="http://www.w3.org/2000/svg" xmlns:xlink="http://www.w3.org/1999/xlink" x="0px" y="0px"
	 width="841.89px" height="595.281px" viewBox="0 0 841.89 595.281" enable-background="new 0 0 841.89 595.281"
	 xml:space="preserve">
<path id="Shadow" opacity="0.66" fill="#242320" d="M-53.275-54.917c-14.926,7.071-23.151,10.161-24.244,12.551
	s28.253,17.132,34.853,20.756S1.611,11.676,13.203,4.438C31.932-7.257,40.767-12.906,51.945-23.39
	c4.153-3.896-64.697-22.18-76.832-28.227S-42.036-60.243-53.275-54.917z"/>
<g id="Tico">
	<path fill="#951D1F" d="M44.688-41.85L44.688-41.85c-0.458-2.829-13.527-13.156-18.214-16.708c0,0-0.365-0.561-1.919-1.178
		c-1.296-0.516-2.001-1.43-1.972-1.279C21.412-62.139,10.32-73.866,7.209-76.44c-4.017-4.164-38.439-21.483-42.487-23.717
		c-4.329-2.389-29.115,13.735-29.594,14.964c-0.106,0.081-0.202,0.191-0.279,0.337c-0.446,0.84-0.962,1.603-1.338,2.522
		c-0.418,1.016-0.718,2.172-1.065,3.269c-0.265,0.827-0.536,1.646-0.779,2.493c-0.195,0.685-1.186,0.22-1.86-0.32
		c-0.045-0.047-0.085-0.087-0.121-0.123c-0.381-0.468-0.886-0.299-1.086-0.083c-0.076,0.083,0.071,0.702,0.223,0.957
		c0.866,1.447,1.167,3.473,0.697,4.564c-0.138,0.328-0.087,0.885-0.111,1.343c-0.015,0.354,0.029,0.756-0.022,1.08
		c-0.182,1.13-0.383,2.239-0.585,3.352c-0.075,0.387-0.191,0.736-0.244,1.136c-0.045,0.356-0.045,1.289-0.053,1.67
		c0.005-0.016,0.009-0.027,0.014-0.036c0.008,0.323,0.016,0.647,0.023,0.968c0.042-0.014,0.084-0.027,0.128-0.041
		c0.037,0.069,0.084,0.12,0.141,0.148c0.142,0.069,0.248,0.103,0.34,0.123c0.37,0.221,0.74,0.441,1.11,0.659
		c0.28,0.178,0.565,0.355,0.85,0.531c2.89,1.5,5.749,1.917,8.686,4.529c0.821,0.73,1.682,1.368,2.406,2.334
		c0.267,0.429,0.512,0.836,0.734,1.215c0.475,0.984,0.878,2.008,1.307,3.019c0.689,2.745,1.176,6.981,1.969,8.811
		c0.242,0.962,1.02,1.96,1.865,2.42c1.056,0.576,2.198,1.051,3.258,1.657c9.413,6.399,29.561,18.974,35.909,21.481
		c0.451,0.278,0.9,0.553,1.352,0.815c0.433,0.246,0.669,0.048,0.494-0.612c1.266-0.737,1.873-3.744,2.397-5.003
		c0.001-0.001,0.001-0.002,0.001-0.002c0.184-0.381,0.362-0.765,0.53-1.162c0.509-1.196,1.098-2.304,2.187-2.489
		c0.764-0.133,1.644-0.116,2.506,0.267c1.522,0.685,3.069,1.7,4.605,2.575c-0.017-0.08-0.033-0.16-0.049-0.24
		c3.793,2.24,4.586,6.473,4.586,6.473c0.061,0.983,2.982,3.608,3.409,1.279c0.425-2.331-0.343-5.444,3.683-6.804
		c4.022-1.358,0.848,1.99,3.71,0.405c1.491-0.825,8.178-4.743,8.178-4.743c3.19-1.877,12.628-7.145,12.874-7.545
		c0.246-0.401,0-2.314,2.363-3.85c2.364-1.536,4.904-3.382,4.85-1.938C44.865-36.305,45.304-41.352,44.688-41.85z"/>
	<g>
		<path fill="#64757A" d="M-72.643-58.184c-0.328-1.07-0.583-2.039-0.303-2.862c0.08-0.241,0.067-0.585,0.096-0.882
			c0.205-0.072,0.406-0.15,0.608-0.225c-1.143-0.659-1.611-0.306-1.32,1.345c0.238,1.335,0.774,2.737,1.079,4.098
			c0.178,0.787,0.167,1.554,0.213,2.321c0.06,1.011,0.097,2.015,0.141,3.02c0.067-0.742,0.112-1.5,0.202-2.223
			c0.042-0.317,0.167-0.569,0.261-0.879c-0.07-0.172-0.229-0.475-0.304-0.773C-72.206-56.228-72.341-57.21-72.643-58.184z"/>
		<path fill="#64757A" d="M-68.896-60.393c-0.285-0.176-0.608-0.267-0.889-0.444c-0.492-0.124-0.934-0.657-1.423-0.783
			c-0.276-0.149-0.557-0.304-0.832-0.451c-0.066-0.028-0.135-0.055-0.202-0.081c-0.202,0.074-0.402,0.152-0.608,0.225
			c1.576,0.791,3.15,1.581,4.725,2.368c0.008-0.085,0.012-0.175,0.017-0.267C-68.367-60.12-68.637-60.096-68.896-60.393z"/>
	</g>
	<path fill="#223F64" d="M-72.093-51.152c0.021,0.018,0.039,0.032,0.057,0.049c-0.02,0.012-0.043,0.025-0.062,0.039L-72.093-51.152z
		"/>
	<path fill="#64757A" d="M6.232-4.689C5.865-3.858,5.501-3.027,5.14-2.192C5.096-2.929,4.937-3.759,5.025-4.389
		c0.367-2.673,0.133-5.36-1.518-8.561c-1.525-2.954-4.386-5.782-6.424-5.916c-0.818-0.057-1.592,0.064-2.452,0.107
		c0.784-1.093,1.882-1.112,3.122-0.757c1.994,0.568,3.848,2.067,5.447,4.66c1.664,2.691,2.676,5.597,3.004,8.605
		C6.24-5.937,6.407-5.576,6.506-5.24C6.416-5.055,6.322-4.875,6.232-4.689z"/>
	<path fill="#64757A" d="M3.388-26.774c0.287,0.299,0.544,0.713,0.814,1.074c-0.783-0.69-1.568-1.382-2.531-2.227
		c0.277-0.016,0.344-0.019,0.408-0.021C2.516-27.561,2.959-27.211,3.388-26.774z"/>
	<path fill="#64757A" d="M0.677-29.179c0.039,0.061,0.084,0.114,0.115,0.181c0.018,0.052,0.016,0.113,0.036,0.228
		c-0.875-0.763-1.729-1.507-2.583-2.248c0.008-0.036,0.009-0.073,0.016-0.108c0.295,0.169,0.591,0.34,0.884,0.511
		C-0.345-30.141,0.167-29.659,0.677-29.179z"/>
	<path fill="#C3C6CF" d="M10.626-5.35"/>
	<path fill="#30558B" d="M-54.067-79.585c-0.365-0.206-0.734-0.416-1.098-0.621C-54.801-80-54.436-79.793-54.067-79.585z"/>
	<path fill="#30558B" d="M-51.514-78.28c0.012,0.073,0.022,0.147,0.034,0.222c-0.054-0.038-0.108-0.073-0.162-0.11
		C-51.596-78.205-51.554-78.243-51.514-78.28z"/>
	<path fill="#951D1F" d="M-51.921-38.386c-0.914-0.497-1.756-1.623-1.92-2.652c0.348,0.268,0.701,0.583,1.054,0.787
		c7.707,4.531,15.412,9.032,23.116,13.572c2.495,1.466,4.987,2.991,7.484,4.514c3.373,2.051,6.746,4.125,10.115,6.191
		c0.364,0.224,0.729,0.47,1.097,0.703c0.295,0.844,0.051,1.11-0.428,0.837c-1.374-0.798-2.746-1.696-4.121-2.556
		c-0.673-0.525-1.346-1.149-2.022-1.554c-2.376-1.415-4.752-2.712-7.123-4.122c-3.261-1.942-6.509-3.991-9.765-5.91
		c-2.635-1.554-5.267-2.983-7.896-4.465c-0.266,0.004-0.53,0.008-0.793,0.014c-0.046-0.003-0.088-0.006-0.131-0.006
		c-0.302-0.243-0.598-0.486-0.896-0.726c-0.208-0.142-0.414-0.294-0.62-0.423c-0.722-0.443-1.445-0.876-2.17-1.315
		c-0.351-0.208-0.704-0.423-1.052-0.628c-0.224-0.125-0.452-0.256-0.679-0.384C-49.753-37.137-50.838-37.795-51.921-38.386z"/>
	<path fill="#4A75B6" d="M-0.883-2.027C-0.12-1.582,0.652-1.138,1.425-0.69C0.657-1.135-0.114-1.579-0.883-2.027z"/>
	<path fill="#313432" d="M-43.258-32.944c-0.298-0.27-0.595-0.54-0.892-0.812c0.297,0.239,0.595,0.482,0.896,0.725
		C-43.234-32.996-43.234-32.965-43.258-32.944z"/>
	<path fill="#64757A" d="M-59.495-36.059c0.482,0.268,0.966,0.539,1.451,0.808C-58.529-35.52-59.012-35.792-59.495-36.059z"/>
	<path fill="#64757A" d="M-6.098-6.021c0.159,0.183,0.323,0.365,0.487,0.55c-0.017,0.064-0.036,0.124-0.054,0.185
		C-5.782-5.375-5.9-5.467-6.018-5.559C-6.045-5.712-6.074-5.868-6.098-6.021z"/>
	<path fill="#4A75B6" d="M-6.167-5.162C-6.114-5.132-6.059-5.1-6.008-5.069C-6.059-5.1-6.112-5.13-6.167-5.162z"/>
	<path fill="#64757A" d="M-61.925-37.419c0.065,0.032,0.13,0.064,0.193,0.095C-61.796-37.355-61.859-37.387-61.925-37.419z"/>
	<path d="M-38.643-57.387c0.041,0.895,0.172,1.834,0.265,2.757c-0.456-0.268-0.919-0.54-1.375-0.805
		c-0.071-1.179-13.86-8.826-13.901-8.879c-0.084-1.334-0.413-2.291-0.413-3.578c0-1.803,0.326-6.201,0.449-7.928
		c0.016-0.202,2.831,0.971,3.095,1.122c3.352,1.909,6.028,3.514,9.375,5.451c0.334,0.195,1.682,0.908,1.637,1.705
		c0.173,1.195,0.544,4.241,0.716,5.435C-38.744-60.535-38.722-58.977-38.643-57.387z"/>
	<path fill="#64757A" d="M-16.54-43.703c0.389,0.665,0.719,1.539,1.081,1.781c0.667,0.447,1.332,0.643,1.895,1.648
		c0.072,0.131,0.222,0.193,0.333,0.286c0.045,0.57,0.161,1.19,0.105,1.681c-0.016,0.15-0.503,0.015-0.782-0.134
		c-0.848-0.45-1.696-0.969-2.545-1.458c-0.105-0.115-0.21-0.225-0.412-0.439c0.213-0.051,0.346-0.084,0.529-0.128
		c-0.367-0.284-0.681-0.525-0.996-0.767c0.017-0.791-0.342-1.273-0.869-1.618c0.191,0.048,0.386,0.096,0.651,0.164
		c-0.026-0.461-0.05-0.925-0.075-1.384c0.054-0.188,0.106-0.372,0.163-0.558C-17.164-43.917-16.831-43.456-16.54-43.703z
		 M-16.751-41.738c0.479-0.371,0.471-0.475-0.195-1.675C-16.865-42.704-16.813-42.27-16.751-41.738z"/>
	<path fill="#64757A" d="M-16.599-48.7c0.675,1.089,1.341,2.178,2.014,3.264C-15.257-46.521-15.924-47.611-16.599-48.7z"/>
	<path fill="#64757A" d="M-14.008-44.502c0.505,0.869,1.012,1.738,1.518,2.605C-12.997-42.764-13.503-43.633-14.008-44.502z"/>
	<path fill="#64757A" d="M-14.924-43.86c0.033-0.031,0.068-0.061,0.104-0.092c0.235,0.379,0.467,0.755,0.703,1.139
		c0.008,0.138,0.017,0.277,0.022,0.415C-14.374-42.888-14.648-43.37-14.924-43.86z"/>
	<path fill="#64757A" d="M-14.593-45.443c0.188,0.3,0.375,0.601,0.564,0.901C-14.22-44.842-14.405-45.143-14.593-45.443z"/>
	<path fill="#64757A" d="M-17.168-49.697c0.19,0.336,0.385,0.674,0.575,1.012C-16.783-49.023-16.979-49.36-17.168-49.697z"/>
	<path fill="#64757A" d="M-17.738-50.596c0.192,0.306,0.384,0.607,0.577,0.913C-17.354-49.988-17.545-50.294-17.738-50.596z"/>
	<path fill="#64757A" d="M-66.622-77.485c-0.009,0.048-0.014,0.098-0.028,0.141C-66.64-77.391-66.631-77.437-66.622-77.485z"/>
	<path fill="#64757A" d="M-12.471-41.857c0.098,0.172,0.193,0.347,0.293,0.523C-12.278-41.509-12.374-41.683-12.471-41.857z"/>
	<path fill="#B53E3A" d="M-10.19-15.52c-0.125,0.254-0.518,0.174-0.785,0.247c-0.367-0.235-0.73-0.479-1.096-0.703
		c-3.37-2.067-6.742-4.142-10.115-6.192c-2.496-1.521-4.99-3.046-7.484-4.514c-7.705-4.539-15.41-9.041-23.116-13.572
		c-0.353-0.205-0.706-0.52-1.054-0.786c-0.02-0.096-0.037-0.195-0.057-0.291c-0.073-0.348-0.149-0.696-0.222-1.042
		c-0.018-0.133-0.042-0.272-0.061-0.404c0.138-0.152,0.275-0.31,0.589-0.664c-0.086,1.304,0.491,1.398,0.93,1.72
		c0.161,0.12,0.332,0.209,0.499,0.309c4.666,2.749,9.333,5.502,14.001,8.251c0.905,0.534,1.808,1.047,2.714,1.57
		c-0.493-0.451-0.982-0.865-1.476-1.17c-2.043-1.264-4.093-2.51-6.14-3.738c-3.096-1.858-6.189-3.693-9.282-5.548
		c-0.263-0.159-0.524-0.424-0.801-0.652c0.195-0.968,0.617-1.033,1.361-0.598c5.189,3.028,10.384,5.991,15.579,9.003
		c0.411,0.238,0.818,0.69,1.272,1.081c0.429,0.144,0.944,0.205,1.462,0.502c6.552,3.756,13.102,7.542,19.65,11.334
		c0.713,0.414,1.43,0.911,2.135,1.455c0.318,0.247,0.617,0.707,0.943,1.091c0.367-0.565,0.817-0.478,1.446,0.392
		C-9.203-17.061-9.79-16.373-10.19-15.52z M-34.844-31.285c7.996,4.763,15.833,9.433,23.667,14.103
		c-0.004-0.147-0.002-0.293-0.006-0.439C-19.016-22.146-26.851-26.668-34.844-31.285z"/>
	<path fill="#C3C6CF" d="M-62.562-40.427c-2.477-1.397-4.573-5.146-4.427-8.245c0.143-2.944,1.5-4.859,4.441-3.283
		c2.509,1.346,4.366,4.892,4.387,8.261C-58.141-40.464-60.077-39.028-62.562-40.427z M-60.543-48.605
		c-0.414-1.206-1.595-2.369-2.322-2.232C-62.609-50.13-62.609-50.13-60.543-48.605z M-60.586-41.033
		c0.109,0.019,0.124-0.404,0.187-0.62c-0.187-0.149-0.417-0.443-0.549-0.426c-0.56,0.063-1.087,0.221-1.628,0.343
		c0.008,0.062,0.019,0.13,0.028,0.193C-61.893-41.362-61.226-41.146-60.586-41.033z M-65.89-46.17
		c0.332,0.781,0.654,1.569,1.034,2.32c0.103,0.207,0.375,0.299,0.568,0.437c-0.05-0.306-0.026-0.668-0.157-0.906
		c-0.443-0.801-0.94-1.553-1.538-2.525C-65.935-46.482-65.947-46.309-65.89-46.17z M-65.983-49.229c0.458,0.4,0.458,0.4,1.31-1.429
		C-65.168-50.857-65.895-50.064-65.983-49.229z M-59.143-45.716c-0.004-0.098-0.245-0.319-0.381-0.483
		c-0.069,0.173-0.215,0.328-0.186,0.53c0.116,0.827,0.291,1.671,0.445,2.511c0.045,0.037,0.092,0.073,0.136,0.108
		C-59.125-43.935-59.112-44.815-59.143-45.716z"/>
	<path fill="#64757A" d="M-68.011-52.302c-0.13-1.717,1.278-2.935,2.736-2.418C-66.202-53.902-67.081-53.122-68.011-52.302z"/>
	<path fill="#951D1F" d="M-54.12-42.372c0.073,0.346,0.149,0.694,0.222,1.041C-53.971-41.677-54.047-42.025-54.12-42.372z"/>
	<path fill="#30558B" d="M-69.342-50.776c-0.035-0.091-0.066-0.182-0.099-0.273C-69.408-50.961-69.377-50.868-69.342-50.776z"/>
	<path fill="#30558B" d="M-69.457-51.067c-0.072-0.065-0.136-0.128-0.208-0.195C-69.594-51.195-69.528-51.132-69.457-51.067z"/>
	<path fill="#C3C6CF" d="M3.902-7.412c-0.01,3.084-2.163,4.806-4.375,3.288c-2.645-1.817-4.574-5.337-4.543-8.767
		c0.024-3.116,2.014-4.603,4.342-3.235C1.902-14.615,3.907-10.794,3.902-7.412z M-0.461-5.377c0.735,0.11,1.474,0.218,2.264,0.334
		C1.256-6.135,1.166-6.152-0.461-5.377z M1.33-12.62c-0.434-1.04-1.54-2.154-2.283-2.191C-0.29-13.271,0.652-13.494,1.33-12.62z
		 M2.9-8.082c0.02-0.242,0.057-0.48,0.035-0.741c-0.023-0.274-0.084-0.577-0.17-0.867c-0.02-0.068-0.282-0.209-0.288-0.176
		c-0.056,0.21-0.128,0.439-0.09,0.692c0.11,0.743,0.27,1.502,0.421,2.298C2.837-7.27,2.869-7.674,2.9-8.082z M-2.654-7.572
		c0.043,0.093,0.329,0.189,0.347,0.132c0.037-0.152,0.045-0.438-0.041-0.594C-2.76-8.799-3.208-9.54-3.643-10.293
		c-0.047,0.027-0.096,0.051-0.145,0.078C-3.412-9.332-3.047-8.445-2.654-7.572z M-3.006-14.593
		c-0.342,0.366-0.689,0.726-1.033,1.092C-3.313-12.992-3.223-13.11-3.006-14.593z"/>
	<path fill="#BF3C28" d="M-16.088-17.27c-4.491-2.633-8.983-5.264-13.475-7.904c-3.754-2.206-7.506-4.404-11.261-6.644
		c-0.505-0.3-1.005-0.811-1.505-1.222c2.63,1.482,5.262,2.911,7.896,4.465c3.255,1.919,6.504,3.966,9.765,5.909
		c2.371,1.411,4.746,2.708,7.123,4.122c0.676,0.404,1.349,1.029,2.022,1.553C-15.711-17.083-15.899-17.16-16.088-17.27z"/>
	<path fill="#951D1F" d="M1.552-20.698C2-20.265,2.449-19.832,2.896-19.402C2.449-19.832,2-20.265,1.552-20.698z"/>
	<path fill="#64757A" d="M8.628-18.771c0.01,0.086,0.018,0.171,0.024,0.259c-0.015-0.028-0.034-0.06-0.034-0.088
		c-0.008-0.084-0.004-0.165-0.004-0.246C8.62-18.821,8.628-18.796,8.628-18.771z"/>
	<path fill="#313432" d="M-47.992-36.124c0.348,0.206,0.701,0.42,1.053,0.628C-47.287-35.702-47.642-35.913-47.992-36.124z"/>
	<path fill="#170F0E" d="M-53.111-48.662c0.092,0.057,0.187,0.143,0.278,0.213c0.272,0.211,0.54,0.462,0.812,0.625
		c1.727,1.034,3.455,2.045,5.179,3.062c1.493,0.895,2.987,1.791,4.479,2.686c2.039,1.208,4.074,2.418,6.111,3.613
		c0.202,0.118,0.405,0.115,0.604,0.165c0.191,0.135,0.383,0.274,0.575,0.41c0.108,0.158,0.216,0.397,0.323,0.459
		c1.281,0.745,2.559,1.46,3.836,2.183c2.361,1.381,4.719,2.761,7.081,4.138c0.673,0.446,1.353,0.934,2.03,1.332
		c1.53,0.898,3.062,1.758,4.594,2.631c2.027,1.195,4.058,2.392,6.085,3.574c0.181,0.104,0.359,0.12,0.539,0.181
		c0.379,0.246,0.757,0.487,1.135,0.732c0.316,0.206,0.714,0.294,0.714,1.004c0.003,0.657-0.354,0.463-0.69,0.301
		c-0.506-0.246-1.015-0.521-1.522-0.785c-2.433-1.404-4.869-2.813-7.302-4.224l-0.019,0.009c-0.633-0.394-1.268-0.807-1.904-1.179
		c-4.527-2.643-9.051-5.273-13.577-7.913c-0.427-0.248-0.852-0.526-1.28-0.793c-1.274-0.819-2.55-1.681-3.827-2.452
		c-2.868-1.733-5.736-3.44-8.603-5.117c-1.04-0.608-2.078-1.098-3.117-1.646c-1.039-0.612-2.075-1.227-3.114-1.843l-0.023-0.019
		c-0.131-0.115-0.259-0.228-0.39-0.344C-54.402-49.147-54.212-49.335-53.111-48.662z"/>
	<path fill="#170F0E" d="M-33.603-48.126c0.549,0.336,1.108,0.629,1.655,1.019c0.811,0.579,1.612,1.228,2.419,1.849
		c-0.261,0.855-0.812,0.986-1.58,0.471c-0.896-0.603-1.847-1.027-2.573-2.4c0.002-0.34,0.003-0.676,0.009-1.013
		C-33.653-48.157-33.632-48.128-33.603-48.126z"/>
	<path fill="#170F0E" d="M-55.182-59.754c-0.58-0.728-0.287-1.279-0.36-1.907c0.899,0.577,1.799,1.187,2.699,1.714
		c0.33,0.193,0.661,0.201,0.992,0.295c0.525,1.04,0.468,1.314-0.362,1.705C-53.201-58.549-54.189-59.151-55.182-59.754z"/>
	<path fill="#64757A" d="M-51.222-47.203c-0.273-0.163-1.339-1.035-1.609-1.246c5.726,3.382,11.456,6.763,17.184,10.149
		c-0.199-0.05-0.668-0.021-0.869-0.139C-38.553-39.632-49.495-46.168-51.222-47.203z"/>
	<path fill="#C3C6CF" d="M-33.213-48.717l-0.011,0.043l0.035,0.037c0.792,0.478,1.583,0.957,2.373,1.435
		c0.385,0.266,0.769,0.529,1.176,0.807c0.045,0.282,0.09,0.577,0.137,0.873c-0.009,0.087-0.018,0.176-0.026,0.265
		c-0.808-0.621-1.607-1.27-2.418-1.849c-0.546-0.39-1.105-0.684-1.655-1.019C-33.476-48.324-33.343-48.522-33.213-48.717z"/>
	<path fill="#64757A" d="M-34.75-37.429c-0.107-0.062-0.215-0.303-0.323-0.462c0.278,0.108,0.559,0.171,0.835,0.33
		c1.574,0.916,3.144,1.839,4.711,2.779c1.779,1.068,4.067,2.469,5.851,3.55c-1.898-1.096-4.307-2.518-6.207-3.597
		c-0.342-0.195-1.385-0.647-1.731-0.785C-32.891-36.336-33.469-36.684-34.75-37.429z"/>
	<path fill="#C3C6CF" d="M-55.096-61.964c0.831,0.502,1.663,0.965,2.488,1.504c0.254,0.165,0.507,0.536,0.757,0.808
		c-0.331-0.095-0.662-0.102-0.992-0.295c-0.9-0.527-1.799-1.137-2.699-1.714C-55.637-62.25-55.392-62.143-55.096-61.964z"/>
	<path fill="#BF3C28" d="M-8.054-26.298C-8.259-26.454-8.416-27-8.597-27.372c0.202-0.121,0.391-0.425,0.605-0.328
		c0.538,0.249,0.921,0.857,1.109,1.881C-7.302-25.976-7.693-26.019-8.054-26.298z"/>
	<path fill="#BF3C28" d="M-54.87-59.245c-0.098-0.052-0.207-0.335-0.311-0.509c0.992,0.603,1.98,1.205,2.969,1.806
		C-53.094-58.372-53.983-58.789-54.87-59.245z"/>
	<path fill="#BF3C28" d="M-35.315-45.595L-35.315-45.595C-35.38-45.698-35.364-45.711-35.315-45.595L-35.315-45.595z"/>
	<path fill="#CE6E6D" d="M5.189-21.496c-0.199-0.081-0.398-0.129-0.596-0.255c-2.605-1.637-5.211-3.279-7.816-4.944
		c-0.164-0.103-0.324-0.362-0.488-0.548c0.02-0.08,0.037-0.16,0.057-0.237c2.963,1.36,5.908,3.372,8.84,5.675
		C5.185-21.702,5.185-21.599,5.189-21.496z"/>
	<path fill="#951D1F" d="M-30.816-47.204c-0.79-0.479-1.581-0.958-2.373-1.434C-32.39-48.624-31.597-48.262-30.816-47.204z"/>
	<path fill="#951D1F" d="M-33.673-48.2c-0.292-0.896,0.051-0.762,0.46-0.519c-0.13,0.194-0.263,0.394-0.391,0.592
		C-33.632-48.128-33.653-48.157-33.673-48.2z"/>
	<path d="M-56.51-75.339c0.008-0.006,0.018-0.012,0.025-0.018l0.007-0.004c0-0.094,0-0.188,0-0.28
		c0.009-0.057,0.019-0.114,0.023-0.175c-0.034-0.388-0.065-0.774-0.11-1.302c-0.326-0.137-0.743-0.419-1.095-0.437
		c-1.688-0.103-3.46-0.91-5.229-1.641c-0.381-0.158-0.746-0.135-1.118-0.195c-0.335,1.339-0.65,2.699-1.015,4.012
		c-0.133,0.479-0.368,0.852-0.554,1.277c-0.115,0.845-0.23,1.693-0.342,2.541c0,0,0,0,0.001,0.001
		c-0.133,0.508,0.249,0.776,0.511,0.938c2.321,1.454,4.574,2.84,6.761,4.147c0.172,0.104,0.349-0.042,0.524-0.122
		c0.022,0.013,0.044,0.026,0.065,0.039c0.004-0.023,0.009-0.046,0.012-0.069c0.002,0,0.004-0.001,0.006-0.002
		c-0.002-0.001-0.003-0.002-0.005-0.003c0.036-0.202,0.073-0.401,0.108-0.608c-0.002-0.034-0.007-0.069-0.011-0.103
		c0.199-0.738,0.425-1.455,0.582-2.23c0.192-0.955,0.329-1.968,0.489-2.955c0.14-0.854,0.284-1.7,0.422-2.553
		C-56.445-75.144-56.484-75.247-56.51-75.339z"/>
	<path fill="#64757A" d="M-56.478-75.641c0,0.091,0,0.186,0,0.28C-56.478-75.455-56.478-75.55-56.478-75.641z"/>
	<path fill="#C3C6CF" d="M-17.624-44.073c0.025,0.459,0.05,0.922,0.075,1.384c-0.265-0.068-0.46-0.116-0.652-0.164l-0.005,0.032
		c-0.292-0.374-0.711,0.106-0.925-0.764c0.33-0.425,0.66-0.847,0.988-1.271C-17.968-44.593-17.798-44.335-17.624-44.073z"/>
	<path fill="#223F64" d="M-25.01-56.212c-0.077-0.112-0.154-0.225-0.23-0.337C-25.165-56.438-25.087-56.325-25.01-56.212z"/>
	<path fill="#313432" d="M-17.744-41.522l-0.016-0.039c-0.149-0.421-0.296-0.84-0.447-1.258l0.006-0.034
		c0.527,0.345,0.885,0.828,0.869,1.619c-0.075-0.047-0.151-0.098-0.225-0.145C-17.619-41.428-17.681-41.476-17.744-41.522z"/>
	<path fill="#C3C6CF" d="M-16.751-41.738c-0.062-0.532-0.113-0.966-0.195-1.675C-16.281-42.213-16.271-42.11-16.751-41.738z"/>
	<path fill="#951D1F" d="M-54.879-71.527c-0.027,0.561-0.055,1.125-0.086,1.688C-55.354-70.681-55.1-71.092-54.879-71.527z"/>
	<path fill="#313432" d="M-35.371-60.816c0.035-0.014,0.067-0.035,0.1-0.053"/>
	<path fill="#951D1F" d="M-11.176-17.182c-7.836-4.669-15.672-9.339-23.668-14.102c7.994,4.616,15.83,9.138,23.663,13.663
		C-11.178-17.476-11.179-17.329-11.176-17.182z"/>
	<path fill="#313432" d="M-60.543-48.605c-2.067-1.525-2.067-1.525-2.322-2.232C-62.138-50.975-60.957-49.811-60.543-48.605z"/>
	<path fill="#313432" d="M-62.577-41.736c0.542-0.123,1.068-0.279,1.629-0.343c0.132-0.018,0.362,0.276,0.548,0.426
		c-0.062,0.216-0.079,0.639-0.187,0.619c-0.641-0.112-1.306-0.328-1.963-0.509C-62.558-41.606-62.568-41.674-62.577-41.736z"/>
	<path fill="#313432" d="M-64.445-44.319c0.13,0.239,0.107,0.602,0.157,0.907c-0.194-0.138-0.465-0.231-0.568-0.437
		c-0.379-0.752-0.702-1.539-1.034-2.32c-0.058-0.138-0.044-0.312-0.093-0.675C-65.385-45.873-64.888-45.12-64.445-44.319z"/>
	<path fill="#313432" d="M-65.983-49.229c0.089-0.835,0.814-1.629,1.31-1.429C-65.525-48.828-65.525-48.828-65.983-49.229z"/>
	<path fill="#313432" d="M-59.264-43.159c-0.155-0.84-0.329-1.684-0.445-2.511c-0.028-0.203,0.116-0.357,0.187-0.53
		c0.136,0.165,0.376,0.386,0.38,0.483c0.031,0.901,0.018,1.781,0.017,2.666C-59.171-43.086-59.217-43.122-59.264-43.159z"/>
	<path fill="#951D1F" d="M-53.713-47.316l0.022,0.019L-53.713-47.316z"/>
	<path fill="#313432" d="M-0.461-5.377c1.628-0.776,1.718-0.758,2.264,0.334C1.011-5.159,0.273-5.267-0.461-5.377z"/>
	<path fill="#64757A" d="M1.33-12.62c-0.678-0.875-1.619-0.65-2.283-2.191C-0.21-14.773,0.897-13.661,1.33-12.62z"/>
	<path fill="#313432" d="M2.386-9.174C2.349-9.426,2.421-9.656,2.477-9.866C2.482-9.9,2.746-9.757,2.765-9.69
		c0.086,0.291,0.146,0.592,0.17,0.867C2.957-8.562,2.919-8.324,2.9-8.083C2.87-7.675,2.837-7.27,2.808-6.876
		C2.657-7.671,2.498-8.431,2.386-9.174z"/>
	<path fill="#313432" d="M-3.643-10.293C-3.208-9.54-2.76-8.799-2.348-8.034C-2.262-7.88-2.27-7.593-2.307-7.44
		c-0.018,0.058-0.304-0.039-0.347-0.132c-0.392-0.873-0.758-1.759-1.134-2.643C-3.738-10.242-3.69-10.267-3.643-10.293z"/>
	<path fill="#313432" d="M-3.006-14.593c-0.217,1.482-0.307,1.601-1.033,1.092C-3.696-13.867-3.348-14.227-3.006-14.593z"/>
	<path fill="#64757A" d="M-11.572-24.074c-4.206-2.5-8.408-4.986-12.612-7.475c-1.898-1.096-3.799-2.199-5.698-3.279
		c-0.342-0.196-1.639-0.808-1.985-0.946c2.27,1.328,5.408,3.134,7.745,4.498c0.699,0.464,1.727,1.151,2.32,1.5
		c1.529,0.898,3.061,1.758,4.593,2.63c2.027,1.195,4.058,2.393,6.085,3.575c0.181,0.104,0.359,0.12,0.539,0.181
		C-10.913-23.621-11.243-23.88-11.572-24.074z M-18.241-27.92c-0.024-0.014-0.05-0.029-0.074-0.043
		C-18.291-27.949-18.267-27.936-18.241-27.92c0.114,0.065,0.227,0.146,0.34,0.23C-18.014-27.775-18.127-27.854-18.241-27.92z"/>
	<path fill="#64757A" d="M-46.844-44.762c1.496,0.895,2.986,1.79,4.483,2.686C-43.854-42.971-45.348-43.867-46.844-44.762z"/>
	<path fill="#951D1F" d="M-18.251-26.363l-0.019,0.008L-18.251-26.363z"/>
	<path fill="#223F64" d="M-18.321-41.923c-0.292-0.401-0.588-0.791-0.861-1.216c-0.045-0.072,0.031-0.292,0.052-0.445
		c0.212,0.87,0.633,0.39,0.924,0.764c0.151,0.418,0.298,0.837,0.448,1.258C-17.947-41.683-18.135-41.806-18.321-41.923z"/>
	<path fill="#64757A" d="M-17.744-41.523c0.062,0.047,0.125,0.096,0.187,0.144C-17.619-41.428-17.681-41.476-17.744-41.523z"/>
	<path fill="#951D1F" d="M-34.615-66.195c-0.012-0.154-0.028-0.316-0.044-0.472C-34.643-66.511-34.627-66.35-34.615-66.195z"/>
	<path fill="#951D1F" d="M-34.556-65.663c-0.019-0.135-0.034-0.272-0.048-0.405C-34.59-65.934-34.574-65.798-34.556-65.663z"/>
	<path fill="#CE6E6D" d="M-38.89-72.597c0.081,0.036,0.162,0.071,0.242,0.107C-38.729-72.525-38.809-72.561-38.89-72.597z"/>
	<path fill="#583D35" d="M-37.384-69.93c-0.054-0.03-0.107-0.061-0.161-0.089C-37.491-69.99-37.438-69.96-37.384-69.93z"/>
	<path fill="#583D35" d="M-38.556-70.514c-0.037-0.019-0.073-0.035-0.112-0.056C-38.629-70.55-38.593-70.532-38.556-70.514z"/>
	<path fill="#583D35" d="M-37.752-70.124c-0.038-0.013-0.078-0.031-0.121-0.048C-37.83-70.155-37.79-70.137-37.752-70.124z"/>
	<path fill="#583D35" d="M-38.398-70.445l-0.023,0.006l-0.026-0.021C-38.43-70.457-38.414-70.451-38.398-70.445z"/>
	<path fill="#583D35" d="M-38.183-70.331c-0.017-0.009-0.036-0.016-0.051-0.027C-38.219-70.347-38.199-70.339-38.183-70.331z"/>
	<path fill="#583D35" d="M-37.594-70.046c-0.018-0.009-0.033-0.017-0.049-0.021C-37.627-70.078-37.61-70.071-37.594-70.046z"/>
	<path fill="#583D35" d="M-15.728-14.385c-0.003-0.096-0.003-0.191-0.003-0.288C-15.73-14.577-15.73-14.481-15.728-14.385z"/>
	<path fill="#ADACAC" d="M-31.898-18.747c-0.034-0.021-0.071-0.042-0.101-0.06C-31.969-18.789-31.933-18.768-31.898-18.747z"/>
	<path fill="#951D1F" d="M14.688-70.041c-0.084-0.084-0.171-0.17-0.256-0.254C14.517-70.21,14.604-70.125,14.688-70.041z"/>
	<path fill="#CE6E6D" d="M7.394-75.456c-0.037-0.011-0.08-0.021-0.121-0.032C7.314-75.477,7.357-75.467,7.394-75.456z"/>
	<path fill="#CE6E6D" d="M7.197-75.502c-0.038-0.003-0.075-0.007-0.115-0.013C7.122-75.509,7.159-75.505,7.197-75.502z"/>
	<path fill="#CE6E6D" d="M12.208-71.755c-0.186-0.215-0.922-1.05-1.093-1.279c-0.64-0.535-0.969-0.969-1.62-1.488
		c-0.654-0.525-1.203-1.229-2.296-1.815c0.105,0.426-0.033,1.266-0.208,1.365c-0.293,0.167-0.623,0.266-0.932,0.41
		c-0.168,0.08-0.244,0.204,0.009,0.371c0.144,0.018,0.288,0.035,0.427,0.051c0.021,0.011,0.038,0.014,0.054,0.009
		c0.001,0,0.001,0,0.001,0c0.334,0.483,0.602,0.254,0.865,0.071c0.077-0.134,0.151-0.271,0.226-0.407h0.001
		c0.18-0.059,0.354-0.16,0.546-0.164c0.154,0,0.323,0.121,0.488,0.188c0.06,0.021,0.12,0.041,0.187,0.062
		c0.226,0.087,1.527,1.487,1.721,1.64c1.02,0.82,1.992,1.611,3.009,2.451C13.381-70.502,12.407-71.53,12.208-71.755z"/>
	<path fill="#951D1F" d="M-4.006-67.699c0.41-0.249,0.822-0.497,1.234-0.745C-3.184-68.195-3.596-67.947-4.006-67.699z"/>
	<path fill="#951D1F" d="M8.189-74.633c0.153,0,0.322,0.122,0.487,0.188c-0.236,0.022-0.481,0.009-0.696,0.073
		c-0.205,0.062-0.375,0.204-0.564,0.311c0.077-0.135,0.152-0.271,0.227-0.408C7.824-74.528,7.996-74.629,8.189-74.633z"/>
	<path fill="#951D1F" d="M4.923-72.936c0.315-0.167,0.633-0.33,0.945-0.495C5.697-72.99,5.3-72.982,4.923-72.936z"/>
	<path fill="#951D1F" d="M-1.543-69.179c0.262-0.162,0.524-0.322,0.789-0.482C-1.019-69.501-1.282-69.34-1.543-69.179z"/>
	<path fill="#951D1F" d="M2.533-71.578c0.247-0.138,0.49-0.275,0.739-0.413C3.023-71.854,2.78-71.716,2.533-71.578z"/>
	<path fill="#951D1F" d="M1.136-70.788c0.19-0.115,0.385-0.228,0.574-0.342C1.521-71.016,1.328-70.903,1.136-70.788z"/>
	<path fill="#951D1F" d="M4.224-72.532c0.195-0.109,0.394-0.22,0.59-0.33C4.618-72.752,4.419-72.641,4.224-72.532z"/>
	<path fill="#6A6A6A" d="M-6.469-62.951c-0.072-0.086-0.148-0.171-0.223-0.258c0.002-0.12-0.008-0.239-0.014-0.36
		c0.041,0.063,0.081,0.129,0.122,0.195C-6.542-63.232-6.506-63.092-6.469-62.951z"/>
	<path fill="#951D1F" d="M6.498-74.141c-0.112,0.03-0.223,0.062-0.33,0.092c-0.03-0.048-0.064-0.096-0.098-0.144
		C6.212-74.175,6.357-74.157,6.498-74.141z"/>
	<path fill="#951D1F" d="M0.484-70.407c0.117-0.067,0.234-0.134,0.357-0.206C0.718-70.542,0.601-70.474,0.484-70.407z"/>
	<path fill="#951D1F" d="M3.402-72.076c0.057-0.03,0.105-0.059,0.16-0.087C3.507-72.134,3.458-72.106,3.402-72.076z"/>
	<path fill="#951D1F" d="M-0.473-69.84c0.049-0.034,0.098-0.065,0.146-0.094C-0.375-69.905-0.424-69.874-0.473-69.84z"/>
	<path fill="#951D1F" d="M1.845-71.208c0.076-0.04,0.154-0.079,0.232-0.117C2-71.286,1.921-71.247,1.845-71.208z"/>
	<path fill="#951D1F" d="M0.016-70.151c0.075-0.039,0.153-0.08,0.23-0.119C0.167-70.229,0.091-70.19,0.016-70.151z"/>
	<path fill="#951D1F" d="M5.797-74.166c0.075,0.059,0.151,0.119,0.223,0.18C5.949-74.047,5.873-74.107,5.797-74.166z"/>
	<path fill="#CE6E6D" d="M5.628-73.777c-0.334,0.186-0.596,0.581-1.092,0.301C4.882-73.621,5.146-74.01,5.628-73.777z"/>
	<path fill="#951D1F" d="M5.98-74.845c-0.019,0.003-0.051-0.032-0.073-0.054c0.019-0.021,0.026-0.06,0.04-0.064
		c0.02,0,0.045,0.036,0.068,0.054C6.001-74.886,5.996-74.845,5.98-74.845z"/>
	<path fill="#6A6A6A" d="M-6.369-61.997l0.007,0.003c0.016-0.22,0.033-0.44,0.049-0.659c0.113,0.21,0.221,0.422,0.332,0.632
		C-6.107-62.011-6.239-62.004-6.369-61.997z"/>
	<path fill="#ADACAC" d="M-5.045-64.587c-0.347,0.241-0.695,0.479-1.046,0.719C-5.741-64.108-5.392-64.346-5.045-64.587z"/>
	<path fill="#ADACAC" d="M-4.483-64.973c-0.117,0.08-0.232,0.162-0.347,0.243C-4.715-64.811-4.6-64.893-4.483-64.973z"/>
	<path fill="#583D35" d="M-5.886-62.045c0.368,0.029,0.64-0.104,0.78-0.481c0.071-0.049,0.139-0.102,0.208-0.152
		c0.052,0.021,0.095,0.042,0.15,0.063c0.002-0.05-0.001-0.095-0.003-0.142c0.047-0.025,0.101-0.053,0.145-0.078
		c0.143-0.033,0.289-0.047,0.416-0.099c0.435-0.186,0.852-0.405,1.293-0.57c0.106-0.042,0.282,0.068,0.422,0.11l-0.004,0.023
		c0.127,0.152,0.236,0.359,0.382,0.449c0.487,0.292,0.749,1.244,0.403,1.62c-0.297,0.32-0.631,0.6-0.979,0.852
		c-0.601,0.437-1.224,0.819-1.824,1.252c-0.35,0.252-0.675,0.553-1.01,0.832c-0.168,0.108-0.33,0.217-0.498,0.324
		c-0.274-0.203-0.395-0.131-0.355,0.218c-0.145,0.091-0.293,0.18-0.438,0.272c-0.173,0.036-0.354,0.048-0.507,0.117
		c-0.204,0.092-0.371,0.263-0.614-0.084c-0.051-0.071-0.255-0.013-0.392-0.015c-0.107-0.234-0.214-0.482-0.379-0.848
		c0.004-0.016,0.028-0.174,0.043-0.335c0.025-0.392,0.061-0.732,0.449-0.875c0.241-0.088,0.369-0.429,0.592-0.578
		c0.32-0.215,0.693-0.353,1.029-0.539c0.092-0.05,0.153-0.164,0.23-0.245c-0.037-0.051-0.076-0.103-0.113-0.152
		c-0.492,0.32-0.983,0.639-1.478,0.958c-0.026-0.035-0.054-0.071-0.076-0.11c0.15-0.197,0.305-0.395,0.45-0.596
		c0.075-0.049,0.148-0.099,0.226-0.152c0.317-0.23,0.63-0.463,0.949-0.696c0.005-0.098,0.016-0.195,0.02-0.294
		c0.131-0.007,0.263-0.015,0.39-0.024C-5.949-62.029-5.918-62.036-5.886-62.045z"/>
	<path fill="#6A6A6A" d="M-8.12-56.805L-8.12-56.805c-0.069-0.007-0.131-0.013-0.197-0.02l0.002,0.002
		c-0.082-0.041-0.16-0.079-0.246-0.118c0.003,0,0.003-0.002,0.003-0.002c-0.272-0.562-0.544-1.126-0.815-1.689
		c-0.018-0.076-0.024-0.158-0.043-0.236c0.008-0.078,0.01-0.159,0.016-0.238c0.047-0.114,0.094-0.23,0.145-0.343
		c0.566-0.469,1.127-0.938,1.691-1.406c-0.146,0.2-0.299,0.399-0.45,0.596c0.023,0.039,0.052,0.075,0.077,0.11
		c0.493-0.319,0.986-0.64,1.477-0.958c0.038,0.048,0.077,0.102,0.113,0.152c-0.077,0.081-0.138,0.195-0.229,0.244
		c-0.338,0.186-0.711,0.323-1.03,0.539c-0.224,0.15-0.351,0.49-0.593,0.579c-0.389,0.142-0.424,0.482-0.449,0.875
		c-0.014,0.16-0.038,0.319-0.042,0.334c0.165,0.365,0.272,0.614,0.378,0.848c0.137,0.002,0.342-0.057,0.393,0.014
		c0.244,0.348,0.41,0.178,0.613,0.086c0.152-0.069,0.334-0.082,0.507-0.117C-7.237-57.302-7.676-57.054-8.12-56.805z M-8.106-60.046
		c0.006-0.016,0.012-0.041,0.008-0.045c-0.018-0.018-0.045-0.031-0.068-0.047c-0.004,0.014-0.006,0.029-0.01,0.044
		C-8.151-60.079-8.127-60.063-8.106-60.046z"/>
	<path fill="#6A6A6A" d="M-2.341-63.285c-0.002-0.028,0.005-0.058,0.008-0.085c-0.05-0.007-0.093-0.016-0.142-0.023
		c-0.141-0.041-0.316-0.151-0.422-0.11c-0.441,0.165-0.859,0.383-1.293,0.57c-0.127,0.053-0.273,0.067-0.416,0.099
		c0.362-0.21,0.722-0.429,1.086-0.635c0.947-0.536,1.553-0.305,2.293,0.862c0.469,0.737,0.445,1.029-0.125,1.439
		c-0.777,0.559-1.559,1.102-2.332,1.671c-0.148,0.11-0.236,0.311-0.368,0.453c-0.114,0.124-0.226,0.269-0.373,0.329
		c-0.351,0.14-0.72,0.235-1.081,0.351c0.334-0.278,0.66-0.58,1.01-0.832c0.601-0.433,1.224-0.815,1.824-1.252
		c0.347-0.252,0.682-0.532,0.979-0.852c0.346-0.376,0.083-1.327-0.403-1.62c-0.146-0.091-0.255-0.297-0.382-0.45
		C-2.434-63.341-2.39-63.316-2.341-63.285z"/>
	<path fill="#6A6A6A" d="M-5.106-62.526c-0.141,0.376-0.413,0.511-0.781,0.481C-5.628-62.205-5.369-62.366-5.106-62.526z"/>
	<path fill="#6A6A6A" d="M-6.361-57.822c-0.039-0.349,0.082-0.42,0.356-0.218C-6.122-57.966-6.242-57.895-6.361-57.822z"/>
	<path fill="#ADACAC" d="M7.224-65.964c0.003,0.021-0.023,0.046-0.038,0.069c-0.017-0.02-0.06-0.037-0.06-0.059
		c-0.005-0.022,0.018-0.047,0.031-0.071C7.177-66.004,7.216-65.986,7.224-65.964z"/>
	<path fill="#6A6A6A" d="M-4.751-62.756c0.001,0.045,0.005,0.092,0.004,0.142c-0.056-0.021-0.1-0.042-0.151-0.063
		C-4.85-62.703-4.795-62.728-4.751-62.756z"/>
	<path fill="#D4D3D4" d="M-8.559-56.94c0.086,0.039,0.164,0.078,0.245,0.116C-8.395-56.862-8.472-56.901-8.559-56.94z"/>
	<path fill="#D4D3D4" d="M-8.315-56.825c0.066,0.008,0.127,0.013,0.195,0.02C-8.188-56.812-8.249-56.818-8.315-56.825z"/>
	<path fill="#D4D3D4" d="M-9.399-59.105c-0.008,0.08-0.008,0.16-0.018,0.238C-9.407-58.947-9.407-59.025-9.399-59.105z"/>
	<path fill="#6A6A6A" d="M-6.389-61.703c-0.318,0.232-0.632,0.465-0.949,0.696C-7.021-61.238-6.708-61.47-6.389-61.703z"/>
	<path fill="#583D35" d="M-8.167-60.14c0.023,0.017,0.051,0.03,0.068,0.048c0.004,0.004-0.002,0.029-0.009,0.045
		c-0.021-0.016-0.044-0.033-0.069-0.049C-8.172-60.11-8.17-60.125-8.167-60.14z"/>
	<path fill="#583D35" d="M-2.475-63.393c0.048,0.007,0.09,0.016,0.142,0.023c-0.003,0.028-0.011,0.057-0.009,0.085
		c-0.047-0.031-0.092-0.057-0.136-0.085L-2.475-63.393z"/>
	<g>
		<path fill="#951D1F" d="M-6.051-67.248c2.514-1.575,5.041-3.131,7.589-4.657c0.969-0.579,1.997-1.052,2.998-1.573
			c0.347-0.145,0.61-0.533,1.091-0.301l0.003-0.03c0.013-0.027,0.022-0.055,0.037-0.082c0.402-0.304,0.501-0.265,0.157-0.725
			c-0.115-0.157-0.436-0.065-0.436-0.065s-0.633-0.044-0.75,0.294c-0.484,0.302-0.405,0.202-0.59,0.383
			c-0.213,0.203-0.689,0.307-0.402,0.295c-0.275,0.106-0.555,0.192-0.811,0.327c-1.085,0.568-2.167,1.143-3.242,1.726
			c-0.921,0.499-1.828,1.015-2.744,1.513c-1.129,0.612-2.279,1.182-3.391,1.832c-0.841,0.49-1.639,1.062-2.44,1.622
			c-0.536,0.379-1.025,0.839-1.571,1.193c-0.098,0.063-0.221,0.085-0.338,0.112c0.128,0.093,0.258,0.187,0.393,0.282
			c0.861-0.577,1.727-1.146,2.584-1.728c0.744-0.504,1.455-1.064,2.221-1.533c0.783-0.483,1.607-0.884,2.422-1.323
			c2.078-1.128,4.15-2.264,6.238-3.378c0.627-0.334,1.291-0.605,1.94-0.905c-0.061,0.129-0.149,0.197-0.249,0.248
			c-1.628,0.863-3.283,1.685-4.892,2.598c-1.579,0.904-3.106,1.916-4.671,2.856c-1.007,0.611-2.054,1.144-3.042,1.781
			c-0.769,0.497-1.499,1.062-2.241,1.604c0.076,0.055,0.236,0.169,0.236,0.169S-7.366-66.424-6.051-67.248z"/>
	</g>
	<path fill="#6A6A6A" d="M-6.077-63.107c-0.107-0.068-0.211-0.135-0.316-0.203c-0.17-0.023-0.336-0.049-0.504-0.078
		c0.084,0.039,0.168,0.08,0.252,0.12C-6.457-63.21-6.267-63.161-6.077-63.107z"/>
	<path fill="#ADACAC" d="M-8.637-62.439c0.402-0.193,0.806-0.388,1.21-0.582C-7.833-62.827-8.235-62.632-8.637-62.439z"/>
	<path fill="#ADACAC" d="M-11.069-61.2c0.312-0.158,0.631-0.317,0.945-0.478C-10.438-61.518-10.756-61.358-11.069-61.2z"/>
	<path fill="#ADACAC" d="M-9.284-62.125c0.135-0.065,0.271-0.129,0.407-0.191C-9.013-62.254-9.148-62.19-9.284-62.125z"/>
	<path fill="#583D35" d="M-7.456-60.439c0,0.034,0.006,0.064,0.006,0.099c0.041,0.003,0.081,0.005,0.119,0.01
		c-0.033-0.036-0.061-0.073-0.093-0.107L-7.456-60.439z"/>
	<path fill="#CE6E6D" d="M5.023-26.457C4.213-27.025-5.77-35.363-7.043-36.485c-1.271-1.121-4.309-4.817-4.567-4.094
		c-0.259,0.724,1.87,2.582,2.352,2.559c0.479-0.025,8.404,7.403,7.245,6.855c-1.158-0.545,2.807,2.166,2.815,2.141
		c0.011-0.023,1.542,1.067,0.88,1.071c-0.661,0.006,6.43,6.422,7.17,6.999c0.74,0.574,5.707-3.002,2.612-2.732
		C8.111-23.391,5.831-25.885,5.023-26.457z"/>
	<path fill="#838281" d="M16.767-19.731c0.061,0.814,0.119,1.632,0.178,2.465c-0.105,0.092-0.191,0.165-0.273,0.238
		c0.197-0.199,0.262-0.347,0.203-0.618c-0.091-0.415-0.124-0.878-0.172-1.331c-0.027-0.249-0.033-0.513-0.047-0.771
		C16.693-19.741,16.731-19.737,16.767-19.731z"/>
	<path fill="#D4D3D4" d="M11.259-14.361c-0.076-0.403-0.146-0.766-0.219-1.131c-0.033,0.024-0.064,0.047-0.098,0.07
		c-0.021,0.384-0.043,0.767-0.062,1.148l-0.007,0.016c-0.009-0.089-0.019-0.177-0.029-0.266c0.021-0.471,0.042-0.942,0.062-1.411
		c0.002-0.087,0.004-0.174,0.004-0.261c0.003-0.043,0.004-0.085,0.006-0.125c0.012-0.259,0.021-0.519,0.027-0.778
		c0.02-0.264,0.058-0.544,0.048-0.791c-0.019-0.471,0.088-0.871,0.582-1.003c-0.042,0.143-0.082,0.281-0.108,0.366
		c0.295-0.234,0.586-0.465,0.881-0.699c0.007-0.006,0.016-0.009,0.023-0.019c0.243-0.413,0.521-0.356,0.778-0.529
		c0.29-0.19,0.583-0.297,0.876-0.446c0.516-0.26,1.034-0.524,1.554-0.787c-0.126,0.321-0.312,0.278-0.47,0.407
		c-0.105,0.085-0.271,0.273-0.287,0.38c-0.041,0.259,0.066,0.367,0.267,0.267c0.022,0.035,0.042,0.074,0.077,0.136
		c0.023-0.102,0.033-0.162,0.048-0.221c0.026,0.158,0.104,0.305,0.071,0.472c-0.078,0.388,0.082,0.405,0.25,0.442
		c0.114,0.045,0.098,0.037,0.022,0.205c-0.087,0.202-0.133,0.421-0.213,0.626c-0.031,0.083-0.101,0.164-0.161,0.225
		c-0.054,0.059-0.115,0.089-0.174,0.135c-0.102-0.099-0.074-0.267,0.01-0.463c0.033-0.077,0.098-0.19,0.09-0.231
		c-0.066-0.276,0.012-0.623,0.074-0.963c-0.021,0.006-0.044,0.011-0.068,0.016c-0.029,0.088-0.06,0.175-0.088,0.254
		c-0.014-0.028-0.027-0.067-0.045-0.102c-0.014,0.011-0.025,0.021-0.04,0.032c0,0.179,0,0.358,0,0.551
		c-0.187,0.031-0.418,0.412-0.489,0.024c-0.019,0.025-0.037,0.05-0.055,0.078c-0.008,0.228-0.029,0.463-0.01,0.67
		c0.002,0.029,0.211-0.099,0.365-0.171c0.074,0.42-0.316,0.927-0.414,1.492c0.087-0.124,0.119-0.167,0.146-0.214
		c0.027-0.045,0.047-0.095,0.081-0.162c0.05,0.065,0.089,0.117,0.128,0.168c0.025-0.016,0.052-0.034,0.077-0.048
		c0.027-0.014,0.055-0.026,0.077-0.038c0.301-0.125,0.6-0.253,0.917-0.384c0.011-0.159,0.022-0.308,0.032-0.468
		c0.09-0.053,0.168-0.099,0.298-0.174c-0.028-0.133-0.06-0.234-0.071-0.35c-0.004-0.044,0.037-0.12,0.059-0.182
		c0.119-0.133,0.145-0.083,0.115,0.081c-0.064,0.363-0.125,0.725-0.186,1.087c-0.01,0.044-0.01,0.086-0.015,0.172
		c0.077-0.062,0.138-0.114,0.225-0.181c-0.222-0.11,0.03-0.25,0.062-0.359c-0.01-0.089-0.041-0.219-0.026-0.236
		c0.076-0.087,0.164-0.147,0.256-0.224c-0.002,0.156-0.009,0.262,0.002,0.354c0.041,0.38-0.065,0.561-0.367,0.7
		c-0.201,0.092-0.408,0.264-0.613,0.406c-0.127,0.088-0.253,0.185-0.381,0.278c-1.264,0.708-2.529,1.416-3.792,2.125
		C11.31-14.376,11.256-14.356,11.259-14.361z M12.783-16.178c0.014-0.015,0.029-0.027,0.045-0.04
		c-0.01-0.13-0.019-0.261-0.027-0.388c-0.009-0.134-0.018-0.267-0.027-0.398c0.234-0.137,0.068-0.221,0.08-0.285
		c-0.091,0.042-0.169,0.075-0.244,0.111c0.02-0.077,0.043-0.153,0.064-0.23c-0.016-0.015-0.031-0.031-0.046-0.047
		c-0.062,0.096-0.125,0.191-0.182,0.291c-0.058,0.1-0.104,0.203-0.158,0.306c-0.046,0.049-0.134,0.13-0.132,0.146
		c0.021,0.276-0.184,0.422-0.285,0.624c-0.02-0.06-0.041-0.12-0.06-0.183c0.006-0.101,0.038-0.293,0.013-0.293
		c-0.098-0.008-0.214,0.042-0.36,0.083c0.007,0.174,0.009,0.293,0.015,0.41c-0.036,0.044-0.07,0.089-0.105,0.134
		c-0.081,0.379,0.009,0.739,0.207,0.825c0.048,0.063,0.094,0.128,0.143,0.192c0.029,0.023,0.059,0.048,0.091,0.07l0.005,0.003
		c0.189-0.08,0.377-0.16,0.566-0.24c0-0.311,0-0.543,0-0.776c-0.022,0.005-0.044,0.012-0.063,0.02
		c-0.021,0.099-0.044,0.199-0.065,0.298c-0.018,0.003-0.035,0.008-0.055,0.01c0.039-0.181,0.076-0.362,0.117-0.56
		c-0.031,0.007-0.102,0.023-0.168,0.037c0.09-0.222,0.164-0.407,0.238-0.595c0.006-0.027,0.013-0.057,0.016-0.085
		C12.531-16.551,12.657-16.365,12.783-16.178z M13.164-18.743c0.221-0.244,0.434-0.482,0.647-0.723
		c-0.14-0.042-0.14-0.042-0.626,0.433C13.178-18.935,13.171-18.828,13.164-18.743z M11.972-17.299
		c-0.328,0.072-0.438,0.214-0.467,0.604C11.796-16.702,11.782-17.164,11.972-17.299z M14-16.972c0.15-0.117,0.232-0.461,0.189-0.635
		c-0.125,0.185-0.253,0.376-0.42,0.623C13.845-16.976,13.93-16.914,14-16.972z M13.204-16.738c0.146,0.256,0.146,0.256,0.425-0.221
		c-0.083-0.024-0.164-0.051-0.255-0.078C13.313-16.933,13.257-16.834,13.204-16.738z M12.881-16.481
		c0.009-0.007,0.019-0.011,0.024-0.015c0-0.05,0-0.095,0-0.144c-0.006,0.004-0.016,0.009-0.024,0.012
		C12.881-16.58,12.881-16.532,12.881-16.481z"/>
	<path fill="#838281" d="M43.893-33.455c-0.028-0.561-0.04-1.133-0.078-1.693c0,0.585,0,1.171,0,1.81
		c-0.062-0.014-0.091-0.018-0.144-0.028c-0.004,0.099-0.007,0.185-0.01,0.266c-0.178,0.064-0.355,0.128-0.536,0.191
		c0.243-0.225,0.52-0.872,0.502-1.244c-0.013-0.263-0.079-0.489-0.13-0.781c-0.109,0.165-0.174,0.256-0.234,0.346
		c0.225,0.57-0.106,1.459-0.662,1.805c-0.263,0.163-0.526,0.312-0.79,0.46c-0.044,0.024-0.088,0.018-0.179,0.036
		c0.106-0.112,0.171-0.175,0.236-0.245c0-0.082,0-0.163,0-0.249c0.018-0.031,0.031-0.059,0.049-0.092
		c0.014-0.021,0.028-0.041,0.004-0.006c0.021-0.042,0.009-0.018-0.002,0.006c-0.016,0.032-0.033,0.064-0.049,0.095
		c-0.173,0.066-0.344,0.133-0.517,0.202c-0.013-0.017-0.024-0.031-0.039-0.047c-0.11-0.071-0.224-0.145-0.343-0.225
		c0.123-0.204,0.22-0.364,0.334-0.556c-0.125-0.035-0.221-0.062-0.305-0.085c0.161-0.337,0.321-0.631,0.441-0.94
		c0.043-0.114-0.002-0.258-0.057-0.373c-0.027,0.079-0.057,0.155-0.082,0.228c-0.293-0.211-0.602,0.206-0.93,0.479
		c-0.018,0.336-0.035,0.671-0.057,1.067c-0.051-0.063-0.079-0.099-0.14-0.174c0.031,0.186,0.042,0.322,0.081,0.432
		c0.048,0.151,0.085,0.293-0.062,0.505c-0.217-0.067-0.367-0.227-0.357-0.598c0.004-0.09,0.047-0.202,0.071-0.306
		c0.027-0.002,0.052-0.006,0.077-0.009c-0.005-0.091-0.008-0.184-0.012-0.26c-0.087,0.03-0.16,0.055-0.229,0.08
		c-0.031-0.071-0.06-0.142-0.087-0.213c-0.015-0.398-0.022-0.796-0.043-1.193c0-0.035-0.05-0.042-0.077-0.063
		c0.084-0.071,0.168-0.145,0.234-0.201c0.039,0.436,0.072,0.834,0.107,1.23c0.022,0.242,0.078,0.349,0.254-0.021
		c0.012-0.025,0.072-0.021,0.123-0.035c0.004-0.163,0.085-0.421-0.163-0.303c0.015-0.123,0.03-0.265,0.046-0.401
		c0.045-0.026,0.086-0.048,0.125-0.072c-0.006,0.091-0.011,0.185-0.013,0.223c0.231-0.152,0.444-0.294,0.655-0.436
		c-0.079-0.136-0.159-0.271-0.238-0.403c0.256-0.356,0.486-0.321,0.715-0.318c-0.082,0.398-0.029,0.446,0.242,0.214
		c0.021,0.09,0.042,0.18,0.064,0.284c0.073-0.022,0.147-0.043,0.22-0.062c0.116,0.32,0.355,0.162,0.601-0.019
		c0.091-0.068,0.182-0.149,0.275-0.224c0.117-0.049,0.23-0.096,0.344-0.149c0.062-0.027,0.124-0.062,0.188-0.095
		c0.047-0.005,0.095-0.012,0.164-0.02c-0.01-0.292-0.02-0.568-0.029-0.841c0.07,0.101,0.143,0.202,0.195,0.275
		c0.001-0.026,0.008-0.133,0.01-0.239c0.004-0.106,0.002-0.212,0-0.327c-0.102,0.031-0.195,0.06-0.287,0.088
		c-0.137-0.099-0.213,0.178-0.322,0.268c0.027,0.056,0.062,0.109,0.08,0.176c0.012,0.039-0.006,0.103-0.01,0.158
		c-0.072-0.103-0.146-0.205-0.23-0.325c-0.029,0.046-0.076,0.125-0.124,0.201c-0.062,0.041-0.121,0.082-0.173,0.118
		c0.004-0.01,0.025-0.033,0.035-0.062c0.049-0.124,0.096-0.25,0.144-0.375c-0.068-0.01-0.134-0.051-0.206-0.026
		c-0.227,0.08-0.453,0.185-0.677,0.226c0.118-0.076,0.24-0.153,0.36-0.231c0-0.028,0-0.053,0-0.08
		c-0.32,0.187-0.646,0.373-0.967,0.559c0.39-0.238,0.783-0.476,1.173-0.711c-0.021,0.041-0.04,0.079-0.114,0.211
		c0.168-0.131,0.283-0.218,0.395-0.306c0.094,0,0.187,0.023,0.285-0.007c0.045-0.013,0.104-0.124,0.156-0.191
		c0.115,0.091,0.231,0.179,0.345,0.27c0.014-0.024,0.028-0.047,0.04-0.071c-0.012-0.138-0.024-0.275-0.034-0.413
		c0.109-0.147,0.202-0.182,0.247-0.034c0.027,0.085,0.056,0.169,0.064,0.27c0.037,0.464,0.084,0.922,0.094,1.405
		c0.014,0.813,0.003,1.646,0.003,2.49c-0.647,0.725-1.346,0.86-2.03,1.308c0.269-0.207,0.538-0.357,0.809-0.521
		c0.293-0.177,0.582-0.361,0.877-0.553c0.023-0.018,0.047-0.117,0.072-0.178C43.791-33.153,43.908-33.194,43.893-33.455z
		 M42.837-34.145c-0.017-0.283-0.035-0.61-0.055-0.961c-0.279,0.138-0.543,0.258-0.809,0.404c-0.059,0.032-0.118,0.154-0.178,0.23
		c-0.031-0.034-0.064-0.07-0.109-0.119c-0.127,0.305-0.286,0.577-0.154,0.838c0.037,0.075-0.059,0.319-0.098,0.518
		c0.098-0.086,0.221-0.196,0.34-0.299c0.008,0.111,0.014,0.21,0.02,0.312c0.02-0.009,0.035-0.02,0.055-0.028
		c0.012-0.104,0.024-0.21,0.048-0.384c0.019,0.184,0.032,0.304,0.046,0.433c0.088-0.103,0.152-0.184,0.256-0.304
		c0-0.286,0-0.621,0-0.958C42.414-34.357,42.628-34.25,42.837-34.145z M43.441-33.191c0.008-0.012,0.024-0.032,0.024-0.041
		c0.003-0.017-0.007-0.028-0.014-0.041c-0.009,0.014-0.017,0.03-0.024,0.044C43.431-33.216,43.436-33.203,43.441-33.191z"/>
	<path fill="#D4D3D4" d="M41.873-32.778c0,0.085,0,0.167,0,0.249c-0.066,0.068-0.131,0.133-0.237,0.244
		c0.091-0.017,0.136-0.012,0.179-0.037c0.264-0.146,0.527-0.296,0.791-0.459c0.555-0.346,0.885-1.235,0.662-1.804
		c0.061-0.09,0.124-0.181,0.234-0.346c0.051,0.291,0.117,0.518,0.129,0.781c0.018,0.372-0.258,1.018-0.502,1.244
		c-0.871,0.521-1.738,1.043-2.608,1.565c-0.546,0.305-1.095,0.617-1.64,0.91c-0.165,0.089-0.329,0.125-0.488,0.127
		c0.201-0.099,0.369-0.439,0.59-0.45c0.085-0.005,0.305-0.089,0.325-0.408c0.25-0.165,0.501-0.32,0.747-0.494
		c0.061-0.045,0.119-0.155,0.179-0.234l-0.002,0.004c0.034-0.012,0.067-0.024,0.101-0.037c0.311-0.088,0.529-0.46,0.463-0.812
		c-0.018-0.093-0.135-0.093-0.189-0.124c-0.217,0.216-0.12,0.56-0.357,0.698c-0.018-0.036-0.032-0.067-0.049-0.103
		c0.15-0.213,0.112-0.354,0.062-0.505c-0.037-0.111-0.047-0.247-0.08-0.432c0.061,0.075,0.09,0.111,0.141,0.174
		c0.021-0.396,0.039-0.731,0.057-1.067c0.326-0.274,0.637-0.691,0.928-0.479c0.027-0.072,0.055-0.15,0.084-0.227
		c0.055,0.115,0.098,0.259,0.056,0.372c-0.121,0.309-0.28,0.604-0.44,0.94c0.082,0.023,0.178,0.05,0.304,0.085
		c-0.114,0.191-0.21,0.352-0.333,0.556c0.119,0.08,0.232,0.154,0.342,0.224c-0.023,0.043-0.043,0.085-0.066,0.129
		c0.035-0.029,0.072-0.056,0.105-0.081c0.173-0.069,0.345-0.136,0.517-0.201L41.873-32.778z"/>
	<path fill="#D4D3D4" d="M44.113-33.551c-0.026-1.377-0.051-2.753-0.077-4.221c0.175-0.037,0.337-0.132,0.419-0.076
		c0.127,0.085,0.262,0.227,0.287,0.429c0.125,0.969,0.222,1.962,0.314,2.956c0.007,0.079-0.074,0.285-0.133,0.34
		c-0.252,0.23-0.511,0.428-0.767,0.637C44.142-33.509,44.126-33.53,44.113-33.551z"/>
	<path fill="#D4D3D4" d="M9.78-14.61c0.007-0.105-0.077-0.177-0.12-0.259c0.071-0.692,0.104-1.375,0.227-2.078
		c0.152-0.876,0.202-1.214,0.789-1.441c0.006,0.149,0.012,0.299,0.02,0.449c-0.016,0.241-0.053,0.497-0.038,0.717
		c0.009,0.151,0.093,0.252,0.14,0.378c0.06,0.165-0.01,0.324-0.14,0.48c-0.028,0.548-0.058,1.098-0.083,1.646
		c-0.043,0.934-0.041,0.93-0.706,1.033c-0.194,0.03-0.307-0.039-0.236-0.376C9.685-14.246,9.764-14.44,9.78-14.61z"/>
	<path fill="#D4D3D4" d="M40.269-34.629c-0.039,0.024-0.079,0.046-0.124,0.072c-0.016,0.137-0.032,0.279-0.046,0.401
		c0.248-0.12,0.168,0.14,0.163,0.303c-0.051,0.014-0.112,0.011-0.124,0.035c-0.174,0.37-0.23,0.263-0.254,0.021
		c-0.033-0.396-0.066-0.795-0.105-1.232c-0.067,0.057-0.151,0.132-0.234,0.203c-0.029,0.019-0.059,0.035-0.088,0.053
		c-0.072,0.019-0.144,0.036-0.233,0.058c0.026-0.071,0.052-0.136,0.075-0.199c0.553-0.315,1.103-0.631,1.656-0.95
		c0.082-0.049,0.164-0.102,0.244-0.151c0.029-0.019,0.055-0.039,0.086-0.057c0.32-0.187,0.646-0.373,0.967-0.559
		c0,0.026,0,0.05,0,0.079c-0.12,0.077-0.24,0.154-0.36,0.23c0.224-0.041,0.452-0.146,0.677-0.226
		c0.072-0.025,0.138,0.016,0.205,0.026c-0.048,0.125-0.094,0.251-0.144,0.375c-0.009,0.029-0.03,0.052-0.034,0.062
		c0.052-0.037,0.11-0.078,0.173-0.118c0.007,0.278,0.017,0.552,0.024,0.829c-0.094,0.075-0.186,0.156-0.277,0.224
		c-0.244,0.181-0.484,0.338-0.599,0.019c0.003-0.044,0.007-0.09,0.011-0.133c0.049-0.134,0.1-0.268,0.157-0.433
		c-0.212,0.079-0.353,0.131-0.495,0.184c-0.068-0.018-0.133-0.035-0.201-0.053c-0.229-0.004-0.459-0.039-0.715,0.317
		C40.539-35.04,40.404-34.836,40.269-34.629z"/>
	<path fill="#838281" d="M40.456-31.263c-0.857,0.494-1.716,0.992-2.608,1.506c0-0.097-0.014-0.248,0-0.408
		c0.045-0.505,0.088-1.009,0.151-1.521c0.058-0.455,0.304-0.943,0.312-1.397c0-0.008,0.012-0.023,0.015-0.034
		c0.017,0.632,0.032,1.262,0.044,1.897c0.002,0.049-0.002,0.138-0.024,0.165c-0.333,0.406-0.074,0.436,0.022,0.585
		c0.032-0.126,0.062-0.239,0.107-0.41c0.064,0.248,0.205,0.273,0.346,0.021c0.09-0.162,0.119-0.406,0.124-0.586
		c0.001-0.062-0.152-0.042-0.272-0.063c0.021-0.056,0.072-0.198,0.123-0.341c0.217,0.041,0.225,0.053,0.343,0.666
		c0.019-0.104,0.036-0.19,0.065-0.348c0.047,0.16,0.074,0.265,0.104,0.37c-0.02,0.318-0.24,0.403-0.325,0.407
		c-0.222,0.011-0.388,0.352-0.591,0.451c0.16-0.003,0.324-0.039,0.49-0.127c0.542-0.293,1.092-0.605,1.639-0.91
		C40.498-31.316,40.476-31.276,40.456-31.263z"/>
	<path fill="#D4D3D4" d="M38.726-34.353c-0.008,0.096-0.015,0.191-0.021,0.273c0.057-0.075,0.128-0.172,0.254-0.339
		c-0.033,0.226-0.057,0.375-0.078,0.527c-0.084,0.272-0.169,0.542-0.263,0.846c0.041,0.016,0.086,0.034,0.122,0.048
		c-0.049,0.11-0.125,0.225-0.148,0.333c-0.096,0.423-0.103,0.774,0.202,0.815c-0.052,0.144-0.101,0.287-0.122,0.342
		c0.119,0.022,0.272,0,0.271,0.062c-0.006,0.181-0.033,0.426-0.125,0.587c-0.14,0.252-0.281,0.228-0.346-0.021
		c-0.045,0.171-0.074,0.284-0.105,0.41c-0.098-0.148-0.355-0.179-0.023-0.585c0.023-0.026,0.025-0.115,0.025-0.165
		c-0.014-0.635-0.029-1.264-0.045-1.897C38.38-33.539,38.482-33.956,38.726-34.353z"/>
	<path fill="#838281" d="M16.068-19.284c-0.016-0.097-0.128-0.11-0.187-0.156c0.321-0.364,0.329-0.394,0.258-0.905
		c0.015-0.103,0.024-0.205,0.036-0.309c0.121,0.479,0.241,0.958,0.36,1.437c-0.022,0.061-0.073,0.141-0.067,0.179
		c0.06,0.535,0.123,1.063,0.192,1.589c0.003,0.021,0.048,0.007,0.073,0.01c-0.525,0.43-1.051,0.746-1.578,0.923
		c0.128-0.094,0.254-0.19,0.382-0.279c0.204-0.143,0.411-0.314,0.612-0.406c0.303-0.138,0.408-0.32,0.367-0.699
		c-0.01-0.093-0.004-0.2-0.002-0.354c-0.091,0.078-0.18,0.137-0.256,0.224c-0.014,0.017,0.017,0.147,0.026,0.236
		c-0.032,0.109-0.284,0.249-0.062,0.36c-0.086,0.066-0.149,0.118-0.226,0.18c0.006-0.086,0.006-0.128,0.015-0.172
		c0.062-0.362,0.122-0.724,0.187-1.087c0.028-0.163,0.003-0.214-0.115-0.082C16.08-18.83,16.097-19.078,16.068-19.284z"/>
	<path fill="#838281" d="M10.697-17.194c0.031-0.018,0.064-0.036,0.1-0.051c0.018-0.365,0.039-0.727,0.057-1.089
		c0.025-0.009,0.053-0.017,0.076-0.025c-0.007,0.147-0.022,0.303-0.019,0.446c0.005,0.276,0.023,0.545,0.033,0.817
		c-0.007,0.258-0.016,0.518-0.026,0.776c-0.01-0.063-0.02-0.13-0.028-0.193c-0.016,0.008-0.03,0.014-0.042,0.022
		c-0.02,0.33-0.041,0.659-0.055,0.986c-0.014,0.305-0.021,0.609-0.026,0.909c0,0.041,0.054,0.051,0.081,0.075
		c0.01,0.088,0.02,0.177,0.03,0.267c0,0.01,0.001,0.024-0.005,0.035c-0.002,0.008-0.021,0.018-0.022,0.016
		c-0.026-0.044-0.048-0.09-0.091-0.167c-0.025,0.21-0.045,0.37-0.076,0.623c0-0.589,0.006-1.093,0-1.594
		c-0.005-0.344-0.021-0.682-0.026-1.023c0.13-0.155,0.198-0.315,0.14-0.479c-0.049-0.126-0.133-0.227-0.14-0.379
		c-0.015-0.22,0.022-0.475,0.038-0.716C10.697-17.69,10.697-17.444,10.697-17.194z"/>
	<path fill="#838281" d="M16.024-20.882c-0.019,0.067-0.036,0.138-0.057,0.207c-0.112,0.019-0.108-0.256-0.271-0.095
		c-0.045,0.041-0.074,0.132-0.111,0.202l0.004-0.004c-0.151,0.016-0.303,0.034-0.5,0.055c0,0.252,0,0.409,0,0.565
		c-0.201,0.1-0.308-0.008-0.267-0.266c0.017-0.107,0.182-0.295,0.286-0.381c0.158-0.128,0.344-0.085,0.47-0.406
		C15.726-20.964,15.875-20.925,16.024-20.882z"/>
	<path fill="#838281" d="M10.882-14.273c0.021-0.381,0.043-0.764,0.064-1.148c0.031-0.023,0.062-0.046,0.095-0.071
		c0.073,0.366,0.144,0.728,0.222,1.132c-0.007,0.004,0.047-0.016,0.1-0.033C11.164-14.116,11.035-14.261,10.882-14.273z"/>
	<path fill="#838281" d="M39.298-34.915c-0.025,0.064-0.049,0.128-0.076,0.2c0.091-0.022,0.162-0.039,0.234-0.058
		c-0.23,0.108-0.361,0.377-0.476,0.667c-0.028,0.076-0.065,0.143-0.099,0.214c0.021-0.151,0.043-0.301,0.076-0.527
		c-0.125,0.167-0.195,0.264-0.252,0.339c0.006-0.082,0.014-0.177,0.021-0.273C38.917-34.54,39.107-34.725,39.298-34.915z"/>
	<path fill="#D4D3D4" d="M16.175-20.655c-0.012,0.103-0.023,0.205-0.037,0.309c-0.033,0.192-0.064,0.383-0.092,0.558
		c-0.064-0.107-0.136-0.228-0.209-0.348c0.098-0.091,0.238-0.152,0.174-0.349c-0.014-0.062-0.029-0.126-0.044-0.188
		c0.021-0.069,0.038-0.141,0.057-0.208C16.074-20.808,16.125-20.73,16.175-20.655z"/>
	<path fill="#D4D3D4" d="M16.734-17.44c-0.026-0.003-0.07,0.011-0.074-0.01c-0.07-0.524-0.133-1.055-0.191-1.588
		c-0.006-0.039,0.045-0.119,0.066-0.179C16.603-18.625,16.667-18.032,16.734-17.44z"/>
	<path fill="#D4D3D4" d="M43.058-37.21c0.013-0.03,0.022-0.062,0.035-0.093c0.146,0.005,0.289,0.008,0.435,0.014
		c0.011,0.138,0.023,0.275,0.034,0.413c-0.012,0.023-0.025,0.047-0.039,0.071c-0.114-0.091-0.229-0.179-0.346-0.269
		C43.14-37.121,43.099-37.165,43.058-37.21z"/>
	<path fill="#838281" d="M9.507-14.523c0,0.337,0,0.672,0,1.008c-0.025,0.014-0.052,0.026-0.078,0.039
		c0.021-0.348,0.043-0.696,0.065-1.044C9.5-14.52,9.503-14.522,9.507-14.523z"/>
	<path fill="#838281" d="M9.662-14.869c0.041,0.083,0.125,0.154,0.119,0.259c-0.018,0.169-0.097,0.364-0.15,0.547
		C9.642-14.331,9.65-14.599,9.662-14.869z"/>
	<path fill="#D4D3D4" d="M42.737-36.876c-0.111,0.088-0.226,0.174-0.395,0.305c0.073-0.131,0.094-0.17,0.114-0.21
		C42.55-36.812,42.644-36.845,42.737-36.876z"/>
	<path fill="#838281" d="M41.198-36.014c-0.081,0.049-0.162,0.102-0.245,0.151C41.036-35.913,41.117-35.964,41.198-36.014z"/>
	<path fill="#838281" d="M44.111-33.551c0.016,0.021,0.031,0.043,0.047,0.064C44.142-33.509,44.126-33.53,44.111-33.551z"/>
	<path fill="#412D28" d="M15.88-19.442c0.058,0.047,0.17,0.061,0.186,0.157c0.031,0.207,0.012,0.456,0.017,0.688
		c-0.022,0.062-0.062,0.138-0.059,0.183c0.012,0.115,0.042,0.218,0.071,0.35c-0.131,0.075-0.209,0.121-0.299,0.174
		c-0.012,0.161-0.021,0.309-0.032,0.469c-0.317,0.131-0.616,0.259-0.917,0.383c0.055-0.298,0.108-0.594,0.162-0.891
		c0.058-0.045,0.119-0.076,0.173-0.135c0.061-0.062,0.13-0.142,0.161-0.226c0.08-0.205,0.127-0.424,0.213-0.626
		c0.075-0.168,0.092-0.158-0.022-0.206c-0.06-0.217-0.02-0.446,0.144-0.669c-0.02-0.081-0.039-0.153-0.057-0.228
		c0.043,0.007,0.082,0.032,0.126,0.014c0.028-0.011,0.062-0.084,0.091-0.131c0.073,0.12,0.145,0.241,0.209,0.348
		c0.027-0.174,0.059-0.365,0.092-0.557C16.21-19.835,16.201-19.805,15.88-19.442z"/>
	<path fill="#838281" d="M14.772-17c0.011-0.227,0.019-0.451,0.026-0.674c-0.035,0.02-0.07,0.038-0.104,0.057
		c0,0.22,0,0.444,0,0.666c-0.04-0.052-0.078-0.104-0.128-0.169c-0.033,0.067-0.053,0.116-0.081,0.163
		c-0.027,0.046-0.06,0.089-0.146,0.214c0.097-0.564,0.487-1.072,0.412-1.493c-0.152,0.074-0.361,0.202-0.363,0.173
		c-0.02-0.208,0-0.443,0.008-0.671c0.019-0.028,0.037-0.053,0.056-0.077c0.071,0.388,0.304,0.006,0.49-0.025
		c0-0.192,0-0.371,0-0.551c0.015-0.011,0.026-0.022,0.04-0.032c0.016,0.036,0.03,0.075,0.045,0.103
		c0.027-0.079,0.059-0.166,0.089-0.253c0.023-0.005,0.047-0.01,0.067-0.016c-0.062,0.341-0.141,0.688-0.074,0.964
		c0.008,0.041-0.056,0.153-0.09,0.231c-0.083,0.196-0.111,0.363-0.01,0.463c-0.053,0.296-0.106,0.592-0.162,0.891
		C14.826-17.027,14.798-17.014,14.772-17z"/>
	<path fill="#838281" d="M12.389-16.653c-0.075,0.187-0.149,0.373-0.237,0.595c0.064-0.014,0.136-0.03,0.166-0.038
		c-0.041,0.199-0.078,0.379-0.117,0.561c0.02-0.003,0.037-0.006,0.055-0.01c0.021-0.1,0.045-0.199,0.065-0.299
		c0.021-0.007,0.042-0.014,0.063-0.019c0,0.231,0,0.464,0,0.775c-0.189,0.081-0.377,0.162-0.565,0.241
		c0.154-0.117,0.31-0.238,0.177-0.458c-0.01,0.079-0.021,0.153-0.031,0.228c-0.028,0.016-0.059,0.031-0.088,0.046
		c-0.001-0.352-0.004-0.706-0.006-1.058c0.102-0.202,0.307-0.348,0.285-0.625c-0.002-0.015,0.086-0.096,0.132-0.146
		C12.321-16.79,12.355-16.719,12.389-16.653z"/>
	<path fill="#412D28" d="M11.814-14.85c-0.032-0.021-0.062-0.046-0.091-0.068c-0.048-0.066-0.094-0.13-0.142-0.193
		c0.029-0.229,0.058-0.458,0.092-0.713c0.02,0.116,0.038,0.216,0.055,0.315c0.021-0.01,0.039-0.025,0.057-0.035
		c0.014-0.143,0.027-0.284,0.049-0.511c-0.164,0.152-0.287,0.266-0.439,0.409c-0.008-0.098-0.014-0.194-0.021-0.289
		c0.035-0.045,0.069-0.089,0.104-0.133c0.11-0.065,0.222-0.133,0.334-0.201c0.018,0.063,0.039,0.123,0.059,0.183
		c0.001,0.352,0.005,0.706,0.006,1.057c0.029-0.013,0.06-0.03,0.088-0.046c0.01-0.075,0.021-0.15,0.031-0.227
		c0.134,0.219-0.022,0.339-0.177,0.457L11.814-14.85z"/>
	<path fill="#838281" d="M15.285-19.565c0.033-0.167-0.045-0.314-0.072-0.472c0.129-0.103,0.256-0.212,0.403-0.332
		c-0.007-0.041-0.016-0.122-0.026-0.204l-0.004,0.004c0.067,0.062,0.134,0.125,0.199,0.189c-0.021,0.039-0.045,0.074-0.064,0.112
		c0.006,0.005,0.012,0.009,0.016,0.016c0.024-0.042,0.048-0.084,0.072-0.127l0,0c0.053-0.021,0.105-0.046,0.156-0.067
		c0.016-0.015,0.032-0.028,0.048-0.041c0.063,0.197-0.078,0.259-0.174,0.349c-0.03,0.047-0.063,0.121-0.091,0.132
		c-0.044,0.018-0.082-0.008-0.125-0.015c0.018,0.075,0.036,0.149,0.056,0.229c-0.164,0.223-0.204,0.453-0.144,0.67
		C15.369-19.16,15.207-19.175,15.285-19.565z"/>
	<path fill="#838281" d="M12.607-17.177c0.076-0.036,0.154-0.069,0.246-0.111c-0.012,0.064,0.152,0.148-0.08,0.285
		c0.01,0.132,0.019,0.265,0.027,0.398c0.009,0.127,0.019,0.258,0.027,0.388c-0.015,0.012-0.031,0.025-0.045,0.039
		c-0.126-0.187-0.252-0.372-0.379-0.56C12.474-16.883,12.542-17.031,12.607-17.177z"/>
	<path fill="#838281" d="M11.374-15.936c0.007,0.095,0.015,0.191,0.021,0.289c0.154-0.143,0.275-0.257,0.439-0.409
		c-0.021,0.226-0.036,0.368-0.049,0.511c-0.018,0.01-0.036,0.024-0.057,0.035c-0.017-0.099-0.035-0.198-0.055-0.315
		c-0.033,0.255-0.062,0.484-0.092,0.713C11.382-15.197,11.292-15.558,11.374-15.936z"/>
	<path fill="#412D28" d="M15.166-19.816c-0.033-0.062-0.056-0.101-0.076-0.136c0-0.155,0-0.313,0-0.565
		c0.197-0.02,0.349-0.038,0.5-0.055c0.01,0.082,0.02,0.163,0.026,0.204c-0.147,0.121-0.274,0.228-0.403,0.332
		C15.199-19.978,15.189-19.917,15.166-19.816z"/>
	<path fill="#838281" d="M13.812-19.466c-0.215,0.241-0.428,0.479-0.648,0.723c0.008-0.085,0.015-0.191,0.021-0.291
		C13.671-19.509,13.671-19.509,13.812-19.466z"/>
	<path fill="#838281" d="M11.972-17.299c-0.19,0.135-0.176,0.597-0.467,0.604C11.534-17.085,11.644-17.227,11.972-17.299z"/>
	<path fill="#412D28" d="M12.388-16.653c-0.033-0.068-0.067-0.138-0.102-0.206c0.054-0.102,0.102-0.206,0.158-0.305
		c0.057-0.099,0.121-0.195,0.182-0.291c0.014,0.015,0.03,0.031,0.046,0.046c-0.021,0.079-0.044,0.154-0.065,0.23
		c-0.066,0.146-0.133,0.293-0.203,0.439C12.401-16.709,12.394-16.68,12.388-16.653z"/>
	<path fill="#412D28" d="M10.913-16.194c0,0.087-0.002,0.174-0.005,0.26c-0.019,0.471-0.042,0.941-0.061,1.412
		c-0.027-0.024-0.081-0.034-0.081-0.075c0.004-0.301,0.013-0.604,0.026-0.909c0.014-0.326,0.034-0.656,0.055-0.986
		c0.012-0.007,0.025-0.013,0.042-0.021c0.009,0.063,0.019,0.129,0.028,0.193C10.916-16.28,10.914-16.237,10.913-16.194z"/>
	<path fill="#838281" d="M11.464-16.481c0.146-0.041,0.262-0.09,0.359-0.083c0.025,0-0.006,0.191-0.011,0.293
		c-0.113,0.068-0.224,0.135-0.334,0.2C11.472-16.188,11.471-16.306,11.464-16.481z"/>
	<path fill="#838281" d="M14.189-17.607c0.043,0.173-0.041,0.517-0.189,0.635c-0.069,0.056-0.154-0.004-0.23-0.012
		C13.936-17.23,14.064-17.422,14.189-17.607z"/>
	<path fill="#838281" d="M13.628-16.958c-0.278,0.477-0.278,0.477-0.426,0.221c0.055-0.097,0.109-0.196,0.171-0.299
		C13.464-17.01,13.545-16.982,13.628-16.958z"/>
	<path fill="#412D28" d="M14.694-16.953c0-0.222,0-0.445,0-0.666c0.034-0.019,0.069-0.037,0.104-0.056
		c-0.008,0.223-0.017,0.447-0.026,0.674C14.748-16.986,14.72-16.968,14.694-16.953z"/>
	<path fill="#838281" d="M11.723-14.918c0.028,0.022,0.059,0.047,0.091,0.069C11.782-14.871,11.751-14.896,11.723-14.918z"/>
	<path fill="#838281" d="M12.906-16.64c0,0.049,0,0.095,0,0.144c-0.006,0.003-0.016,0.008-0.024,0.014c0-0.049,0-0.097,0-0.146
		C12.89-16.631,12.9-16.636,12.906-16.64z"/>
	<path fill="#838281" d="M10.907-15.934c0.003-0.086,0.006-0.174,0.006-0.261C10.913-16.107,10.911-16.021,10.907-15.934z"/>
	<path fill="#412D28" d="M39.542-34.825c0.027,0.021,0.076,0.029,0.076,0.063c0.02,0.396,0.028,0.795,0.045,1.193l-0.017-0.01
		c-0.021-0.13-0.044-0.26-0.065-0.391c-0.012,0.007-0.026,0.017-0.039,0.025c0,0.143,0,0.286,0,0.43
		c-0.027,0.004-0.059,0.009-0.084,0.014c-0.022-0.184-0.043-0.369-0.066-0.554c-0.009,0.007-0.02,0.014-0.031,0.022
		c0,0.361,0,0.724,0,1.084c0.03,0.054,0.062,0.108,0.094,0.165c0.018-0.033,0.037-0.063,0.053-0.097
		c0.014-0.014,0.028-0.028,0.041-0.04c-0.258,0.339-0.258,0.348-0.014,0.479c0.063,0.034,0.096,0.14,0.143,0.215
		c0.033-0.047,0.064-0.094,0.097-0.14c-0.021-0.201-0.034-0.403-0.069-0.591c-0.003-0.029-0.103,0.026-0.159,0.042
		C39.541-33,39.537-33.089,39.529-33.2c0.082-0.056,0.15-0.106,0.221-0.156c0.068-0.025,0.143-0.049,0.229-0.08
		c0.004,0.077,0.008,0.169,0.011,0.259c-0.024,0.003-0.049,0.008-0.076,0.01c-0.024,0.102-0.067,0.215-0.071,0.305
		c-0.011,0.371,0.141,0.53,0.356,0.598c0.017,0.037,0.032,0.068,0.048,0.104c0.029,0.078,0.056,0.159,0.084,0.237
		c-0.031,0.011-0.066,0.024-0.1,0.036c-0.006-0.007-0.011-0.018-0.016-0.025c0,0.008,0,0.013,0.001,0.018
		c0.004,0.003,0.011,0.003,0.017,0.003c-0.059,0.08-0.117,0.188-0.18,0.234c-0.246,0.175-0.496,0.331-0.746,0.493
		c-0.029-0.104-0.057-0.208-0.104-0.368c-0.029,0.158-0.047,0.244-0.065,0.347c-0.117-0.612-0.126-0.624-0.343-0.665
		c-0.305-0.042-0.297-0.392-0.201-0.815c0.023-0.107,0.099-0.224,0.148-0.333c-0.037-0.014-0.082-0.032-0.123-0.047
		c0.096-0.304,0.18-0.574,0.264-0.847c0.033-0.071,0.07-0.139,0.099-0.213c0.114-0.292,0.245-0.56,0.476-0.667
		C39.484-34.79,39.515-34.808,39.542-34.825z"/>
	<path fill="#412D28" d="M41.98-34.391c0.018,0.005,0.035,0.013,0.051,0.02c0.007-0.021,0.016-0.042,0.022-0.063
		c0.026-0.03,0.052-0.059,0.077-0.091c0.016,0.014,0.031,0.026,0.045,0.039c0.012,0,0.021,0.007,0.023,0.022
		c0,0.337,0,0.673,0,0.958c-0.103,0.121-0.168,0.2-0.256,0.304c-0.014-0.128-0.027-0.249-0.045-0.433
		c-0.024,0.173-0.037,0.28-0.048,0.385c-0.021,0.007-0.036,0.019-0.056,0.028c-0.006-0.102-0.012-0.202-0.02-0.313
		c-0.119,0.104-0.241,0.213-0.338,0.299c0.038-0.199,0.134-0.441,0.097-0.518c-0.13-0.261,0.026-0.533,0.155-0.838
		c0.044,0.049,0.078,0.085,0.109,0.12C41.755-34.201,41.914-34.404,41.98-34.391z"/>
	<path fill="#D4D3D4" d="M41.98-34.393c-0.066-0.012-0.225,0.193-0.182-0.079c0.059-0.077,0.119-0.198,0.177-0.229
		c0.265-0.146,0.53-0.266,0.808-0.404c0.021,0.351,0.039,0.679,0.056,0.962c-0.21-0.106-0.424-0.214-0.64-0.322
		c-0.003-0.016-0.011-0.023-0.023-0.023c-0.016-0.012-0.029-0.025-0.045-0.039c-0.025,0.031-0.052,0.061-0.077,0.091
		C42.031-34.422,42.005-34.406,41.98-34.393z"/>
	<path fill="#412D28" d="M42.891-36.4c0.085,0.121,0.158,0.222,0.229,0.325c0.048,0.18,0.273,0.145,0.199,0.462
		c-0.062,0.032-0.123,0.067-0.186,0.094c-0.113,0.052-0.228,0.099-0.343,0.148c-0.009-0.278-0.019-0.552-0.024-0.829
		C42.814-36.276,42.861-36.355,42.891-36.4z"/>
	<path fill="#412D28" d="M40.913-34.843c-0.213,0.142-0.424,0.284-0.656,0.436c0.003-0.039,0.007-0.131,0.013-0.224
		c0.135-0.206,0.27-0.41,0.404-0.616C40.753-35.112,40.833-34.979,40.913-34.843z"/>
	<path fill="#D4D3D4" d="M43.132-36.234c-0.018-0.066-0.053-0.121-0.08-0.176c0.109-0.089,0.185-0.365,0.322-0.267
		c0.025,0.068,0.053,0.135,0.081,0.202c0.009,0.274,0.019,0.549,0.029,0.841c-0.069,0.009-0.116,0.015-0.165,0.02
		c0.072-0.316-0.151-0.281-0.199-0.461C43.126-36.131,43.143-36.194,43.132-36.234z"/>
	<path fill="#412D28" d="M43.664-33.101c0.001-0.081,0.004-0.167,0.008-0.267c0.054,0.012,0.082,0.015,0.144,0.029
		c0-0.638,0-1.224,0-1.809c0.038,0.56,0.05,1.131,0.079,1.692C43.908-33.194,43.791-33.153,43.664-33.101L43.664-33.101z"/>
	<path fill="#412D28" d="M43.662-36.766c0.002,0.115,0.003,0.22,0,0.326c-0.003,0.107-0.01,0.213-0.012,0.239
		c-0.051-0.072-0.124-0.173-0.194-0.275c-0.028-0.066-0.056-0.134-0.081-0.202C43.466-36.706,43.558-36.734,43.662-36.766z"/>
	<path fill="#D4D3D4" d="M39.454-32.785c-0.028-0.055-0.062-0.11-0.093-0.163c0.033-0.184,0.064-0.369,0.098-0.555
		c0.025-0.005,0.057-0.01,0.084-0.014c0.035-0.021,0.07-0.042,0.105-0.063c0,0,0.016,0.01,0.014,0.01
		c0.028,0.071,0.057,0.142,0.087,0.214c-0.071,0.05-0.139,0.099-0.22,0.156c0.008,0.111,0.01,0.199,0.016,0.284l0.004-0.005
		c-0.012,0.012-0.026,0.026-0.041,0.041C39.492-32.849,39.472-32.816,39.454-32.785z"/>
	<path fill="#412D28" d="M41.695-35.064c-0.022-0.104-0.044-0.194-0.062-0.285l-0.005,0.006c0.187-0.201,0.263-0.114,0.3,0.082
		c-0.006,0.042-0.008,0.088-0.012,0.132C41.843-35.109,41.768-35.088,41.695-35.064z"/>
	<path fill="#412D28" d="M41.627-35.344l0.004-0.006c-0.274,0.232-0.326,0.185-0.243-0.213c0.067,0.018,0.133,0.036,0.199,0.054
		C41.601-35.453,41.615-35.4,41.627-35.344z"/>
	<path fill="#D4D3D4" d="M41.921-32.87c0.012-0.025,0.023-0.047,0.002-0.007C41.949-32.913,41.934-32.891,41.921-32.87L41.921-32.87
		z"/>
	<path fill="#D4D3D4" d="M43.452-33.272c0.007,0.012,0.015,0.024,0.014,0.041c0,0.008-0.017,0.028-0.024,0.041
		c-0.006-0.012-0.01-0.025-0.014-0.038C43.436-33.242,43.443-33.258,43.452-33.272z"/>
	<path fill="#D4D3D4" d="M41.873-32.775c0.016-0.031,0.033-0.062,0.049-0.094H41.92c-0.018,0.032-0.032,0.06-0.05,0.092
		L41.873-32.775z"/>
	<path fill="#838281" d="M40.604-32.858c0.054,0.031,0.173,0.031,0.19,0.124c0.065,0.351-0.154,0.723-0.466,0.812
		c-0.027-0.078-0.056-0.159-0.083-0.237C40.484-32.298,40.386-32.643,40.604-32.858z"/>
	<path fill="#838281" d="M41.356-32.574c-0.033,0.026-0.071,0.052-0.106,0.081c0.023-0.043,0.045-0.085,0.068-0.128
		C41.332-32.605,41.343-32.591,41.356-32.574z"/>
	<path fill="#838281" d="M42.083-35.694c-0.059,0.165-0.108,0.298-0.156,0.434c-0.037-0.196-0.113-0.284-0.3-0.083
		c-0.013-0.057-0.026-0.109-0.04-0.166C41.73-35.563,41.873-35.615,42.083-35.694z"/>
	<path fill="#412D28" d="M15.697-20.771c0.164-0.162,0.158,0.114,0.271,0.096c0.014,0.062,0.029,0.126,0.045,0.189
		c-0.016,0.012-0.033,0.026-0.049,0.04c-0.014,0-0.026,0-0.039,0.002c-0.016,0.008-0.029,0.014-0.044,0.021
		c-0.026,0.017-0.048,0.031-0.073,0.044l0,0c-0.008-0.003-0.015-0.002-0.023,0c-0.064-0.063-0.131-0.127-0.199-0.189
		C15.624-20.637,15.654-20.73,15.697-20.771z"/>
	<path fill="#D4D3D4" d="M15.808-20.378c0.024-0.014,0.047-0.028,0.072-0.044h0.021l0.023-0.021
		c0.012-0.002,0.024-0.002,0.039-0.002C15.912-20.424,15.859-20.399,15.808-20.378z"/>
	<path fill="#D4D3D4" d="M15.808-20.379c-0.024,0.043-0.048,0.086-0.073,0.128c-0.003-0.008-0.01-0.011-0.016-0.017
		c0.021-0.036,0.044-0.072,0.065-0.112C15.793-20.38,15.8-20.382,15.808-20.379z"/>
	<path fill="#838281" d="M39.544-32.916c0.058-0.015,0.157-0.07,0.16-0.042c0.035,0.189,0.049,0.39,0.069,0.592
		c-0.032,0.046-0.063,0.092-0.098,0.14c-0.046-0.075-0.079-0.181-0.142-0.215c-0.244-0.13-0.244-0.14,0.014-0.479L39.544-32.916z"/>
	<path fill="#838281" d="M39.362-34.034c0.011-0.006,0.022-0.014,0.03-0.021c0.023,0.185,0.044,0.369,0.066,0.554
		c-0.033,0.185-0.064,0.369-0.098,0.554C39.362-33.31,39.362-33.671,39.362-34.034z"/>
	<path fill="#838281" d="M39.543-33.945c0.013-0.008,0.026-0.017,0.039-0.024c0.021,0.129,0.044,0.261,0.065,0.391
		c-0.033,0.02-0.069,0.042-0.105,0.062C39.542-33.659,39.542-33.803,39.543-33.945z"/>
	<path fill="#838281" d="M40.231-31.89c-0.005,0-0.012,0-0.016-0.004c-0.001-0.004-0.001-0.011-0.001-0.017
		c0.005,0.006,0.01,0.017,0.016,0.025L40.231-31.89z"/>
	<path fill="#838281" d="M39.455-32.784c0.018-0.033,0.037-0.063,0.053-0.096C39.492-32.849,39.472-32.816,39.455-32.784z"/>
	<path fill="#838281" d="M42.031-34.372c-0.016-0.008-0.033-0.014-0.053-0.02c0.027-0.014,0.053-0.03,0.075-0.044
		C42.046-34.415,42.038-34.394,42.031-34.372z"/>
	<path fill="#838281" d="M42.129-34.526c0.017,0.014,0.03,0.026,0.045,0.039C42.16-34.5,42.146-34.513,42.129-34.526z"/>
	<path fill="#838281" d="M15.923-20.444l-0.021,0.022H15.88C15.894-20.429,15.908-20.436,15.923-20.444z"/>
	<path fill="#B53E3A" d="M-6.379-37.028c0,0,11.141,9.25,14.098,11.632s3.277-4.159,6.844-6.234c3.566-2.071-5.391-0.361,0.05-3.885
		c5.444-3.528,14.325-6.825,10.254-8.716c-18.489-8.586,5.601-12.697-1.417-13.104c-7.02-0.408-11.238,9.453-23.354,13.251
		c-12.116,3.799-6.154,4.414-9.113,4.8L-6.379-37.028z"/>
	<path fill="#CE6E6D" d="M-2.018-36.157c2.385,1.246-5.939-2.277-4.672-1.216c1.267,1.061,10.684,8.08,13.27,10.732
		c2.586,2.65-2.99-5.495-2.772-4.968C4.501-29.922-4.403-37.403-2.018-36.157z"/>
	<path fill="#170F0E" d="M43.05-43.051c-0.647,1.84-26.796,17.8-32.047,18.906c-5.252,1.105-0.379,2.044,1.478,1.081
		c1.856-0.961,28.476-16.939,30.569-17.968c2.094-1.029,1.182-1.01,0.324-2.381"/>
	<path fill="#BF3C28" d="M38.707-25.778c0.009-0.193-0.008-0.382,0.031-0.579c0.026-0.125,0.135-0.331,0.213-0.384
		c0.334-0.232,0.671-0.423,1.008-0.62c0.945-0.556,1.889-1.097,2.828-1.664c0.249-0.148,0.373-0.122,0.377,0.217
		c0.002,0.199,0.037,0.372,0.037,0.569c0.003,0.392-0.129,0.608-0.428,0.728c-0.177,0.071-0.357,0.154-0.539,0.263
		c-1.025,0.621-2.053,1.223-3.074,1.893C38.662-25.03,38.72-25.15,38.707-25.778z"/>
	<path fill="#170F0E" d="M45.662-27.073c-0.129-3.31-0.279-2.592-0.363-3.767c-0.055-0.772,0.095-3.01,0.062-3.083
		c-0.116-0.268-0.345-2.817-0.486-3.854c-0.083-0.595-0.362-0.749-0.847-0.511c-0.039,0.021-0.08,0.035-0.157,0.015
		c-0.095,0.053-0.194,0.108-0.295,0.163c0.006,0,0.007,0.004,0.013,0.004c0.004,0.02,0.004,0.039,0.005,0.056
		c-0.267,0.139-0.532,0.278-0.814,0.426c0.002-0.028,0.003-0.05,0.003-0.078c-0.071,0.04-0.152,0.075-0.23,0.113
		c-0.016,0.081-0.062,0.159-0.162,0.215c-0.431,0.255-0.863,0.514-1.29,0.803c-0.737,0.497-1.473,1.004-2.206,1.533
		c-0.326,0.236-0.526,0.671-0.645,1.115c-0.137,0.512-0.236,1.025-0.341,1.536c-0.041,0.199-0.087,0.309-0.247,0.4
		c-2.636,1.534-5.271,3.077-7.907,4.625c-1.838,1.077-3.675,2.164-5.513,3.244c-2.402,1.408-4.805,2.814-7.207,4.222
		c-0.105,0.061-0.209,0.142-0.314,0.213c0.059,0.784,0.113,1.569,0.172,2.371c-0.021,0.013-0.047,0.024-0.068,0.039
		c0.031-0.094,0.033-0.194,0.006-0.323c-0.092-0.415-0.125-0.879-0.173-1.331c-0.026-0.249-0.032-0.513-0.046-0.771
		c-0.108-0.372-0.221-0.742-0.327-1.117c-0.17-0.611-0.552-0.745-1.093-0.475c-0.763,0.382-1.527,0.786-2.291,1.187
		c-0.258,0.135-0.514,0.288-0.772,0.43c-0.146,0.078-0.229,0.053-0.216-0.167l-0.125,0.092c-0.033,0.181-0.118,0.228-0.385,0.388
		c-0.326,0.198-0.66,0.41-0.987,0.639c-0.354,0.245-0.556,0.599-0.63,1.156c-0.107,0.792-0.193,1.579-0.283,2.363
		c-0.012,0.116,0.01,0.22,0.018,0.331c-0.026,0.023-0.052,0.045-0.076,0.067c-0.027-0.139-0.055-0.277-0.085-0.433
		c-0.078,0.394-0.147,0.784-0.239,1.177c-0.085-0.092-0.17-0.182-0.254-0.275c-1.086-0.714-2.174-1.427-3.256-2.141
		c-0.559-0.024-0.873-0.73-1.227-1.34c-0.496-0.533-0.99-1.06-1.482-1.586C2.45-19.832,2-20.265,1.554-20.698
		c-0.08-0.054-0.158-0.109-0.234-0.16c-1.537-0.877-3.084-1.892-4.606-2.577c-0.862-0.382-1.742-0.399-2.506-0.265
		c-1.09,0.185-1.679,1.292-2.187,2.488c-0.407,0.96-0.874,1.853-1.317,2.774c0.094,1.377-0.493,2.065-0.894,2.918
		c-0.126,0.254-0.52,0.174-0.786,0.247c0.295,0.844,0.052,1.11-0.427,0.837c-1.374-0.798-2.746-1.696-4.121-2.556
		c-0.188-0.092-0.376-0.169-0.565-0.279c-4.491-2.632-8.983-5.264-13.474-7.904c-3.754-2.206-7.507-4.404-11.262-6.644
		c-0.505-0.299-9.238-5.567-10.543-6.26h0c-0.185-0.104-0.369-0.209-0.554-0.311c-0.913-0.496-1.755-1.622-1.919-2.651
		c-0.02-0.095-0.037-0.195-0.057-0.292c-0.073-0.347-0.149-0.695-0.222-1.041c-0.018-0.133-0.043-0.271-0.061-0.404
		c-0.315-1.716-0.633-3.43-0.949-5.146c-0.011-0.116-0.018-0.23-0.028-0.346c-0.16-0.353-0.32-0.702-0.474-1.057
		c-0.486-1.125-0.925-2.274-1.458-3.371c-0.817-1.686-2.001-2.502-3.112-3.489c-2.532-2.771-13.862-7.833-13.223-5.968
		c-0.029,0.297,0.56,0.865,0.48,1.107c-0.28,0.824-0.025,1.792,0.303,2.861c0.301,0.975,0.437,1.958,0.673,2.94
		c0.075,0.298,0.234,0.602,0.303,0.773c-0.094,0.309-0.22,0.561-0.261,0.879c-0.09,0.721-0.134,1.482-0.201,2.223
		c0.011,0.071,0.022,0.144,0.035,0.216c0.021,0.019,0.039,0.032,0.057,0.049c-0.02,0.012-0.043,0.025-0.062,0.039
		c0.12,0.262,0.272,0.724,0.347,0.742c0.201,0.048,0.431-0.009,0.542-0.177c0.154-0.249,0.212-0.634,0.311-0.961
		c0.241-0.756,0.804,0.042,1.234,0.199c0.071,0.067,0.136,0.13,0.207,0.195l0.017,0.019c0.033,0.088,0.063,0.181,0.099,0.272
		c-0.002,0.453-0.005,0.907-0.004,1.363c0.099,0.603,0.206,1.213,0.31,1.824c0.313,1.866,0.979,3.634,1.983,5.319
		c0.143,0.236,0.241,0.52,0.361,0.785c1.278,2.227,4.19,4.648,7.262,5.037c1.025,0.13,4.831-0.488,5.367-1.978
		c0.1-0.278,0.63-0.054,1.126,0.202c2.956,2.206,14.595,8.582,17.925,10.588c1.762,1.063,11.435,6.714,13.549,8.101
		c0.414,0.272,7.148,4.031,9.947,5.672c0.782,0.457,1.419,0.177,2.102,1.483c0.159,0.305,0.327,0.628,0.432,0.951
		c0.663,2.045,2.116,6.449,4.794,8.624c2.152,1.75,4.22,2.69,5.99,2.804c2.039-0.076,3.701-0.878,5.311-1.706
		c0.92-0.473,2.035-2.165,2.219-4.211C9.421-6.929,9.48-6.96,9.788-7.155c0.085-0.157,4.239,1.765,8.453-0.268
		c8.245-3.977,8.12-4.669,13.056-7.689C46.134-23.753,45.682-26.526,45.662-27.073z M-68.011-52.302
		c-0.13-1.717,1.278-2.935,2.736-2.418C-66.202-53.902-67.081-53.122-68.011-52.302z M-62.562-40.427
		c-2.477-1.397-4.572-5.146-4.427-8.245c0.143-2.944,1.5-4.859,4.441-3.283c2.509,1.346,4.366,4.892,4.387,8.261
		C-58.141-40.464-60.077-39.028-62.562-40.427z M-0.473-4.124c-2.644-1.817-4.574-5.337-4.543-8.767
		c0.024-3.115,2.014-4.602,4.342-3.234c2.577,1.51,4.581,5.332,4.576,8.713C3.891-4.326,1.74-2.605-0.473-4.124z M4.622-10.229
		c-0.263-0.872-0.625-1.773-1.113-2.723c-1.525-2.954-4.386-5.781-6.425-5.916c-0.816-0.057-1.591,0.064-2.451,0.106
		c0.784-1.092,1.883-1.111,3.123-0.756c1.992,0.568,3.846,2.066,5.447,4.66c0.953,1.542,1.685,3.156,2.204,4.818L4.622-10.229z
		 M8.902-13.55c-0.068,0.182-0.136,0.368-0.179,0.551c-0.251-0.133-0.505-0.223-0.755-0.381c-0.688-0.437-1.377-0.917-2.066-1.378
		c0.008-0.085,0.015-0.17,0.018-0.256c1,0.473,2.001,0.947,3.002,1.42C8.916-13.579,8.907-13.563,8.902-13.55z M9.458-13.69
		c-0.02-0.021-0.038-0.042-0.058-0.062c0.015-0.239,0.03-0.479,0.046-0.72c0.004,0,0.009-0.001,0.012-0.003
		C9.458-14.215,9.458-13.952,9.458-13.69z M16.34-12.441c-0.019,0.373-0.069,0.45-0.335,0.584c-0.26,0.126-0.517,0.266-0.777,0.41
		c-1.01,0.562-2.021,1.128-3.033,1.693c-0.233,0.129-0.345,0.039-0.335-0.282c0.008-0.2,0.036-0.412,0.043-0.614
		c0.017-0.342,0.112-0.529,0.369-0.673c1.161-0.65,2.325-1.301,3.487-1.949c0.568-0.32,0.568-0.318,0.583,0.422
		C16.341-12.713,16.347-12.58,16.34-12.441z M15.107-16.47c-1.264,0.708-2.528,1.416-3.791,2.125
		c-0.201,0.279-0.33,0.131-0.482,0.119l-0.006,0.017c0,0.01,0.002,0.024-0.003,0.035c-0.003,0.008-0.021,0.018-0.023,0.016
		c-0.026-0.044-0.048-0.09-0.091-0.167c-0.016,0.142-0.032,0.268-0.049,0.408c-0.009,0.003-0.016,0.007-0.026,0.01
		c0.002-0.498,0.006-0.949,0-1.386c-0.003-0.346-0.019-0.683-0.026-1.025c-0.028,0.55-0.057,1.1-0.084,1.648
		c-0.029,0.67-0.048,0.853-0.296,0.944c-0.021,0.006-0.041,0.014-0.062,0.022c-0.091,0.022-0.197,0.042-0.348,0.066
		c-0.195,0.029-0.308-0.04-0.236-0.376c0.01-0.271,0.02-0.538,0.03-0.808c0.071-0.692,0.103-1.375,0.226-2.077
		c0.152-0.875,0.202-1.214,0.787-1.441c0.007,0.149,0.015,0.3,0.021,0.449c0,0.249,0,0.496,0,0.745
		c0.032-0.019,0.066-0.036,0.1-0.053c0.019-0.363,0.039-0.725,0.057-1.089c0.027-0.009,0.053-0.017,0.078-0.025
		c-0.008,0.147-0.023,0.304-0.02,0.445c0.005,0.276,0.023,0.546,0.033,0.819c0.02-0.265,0.059-0.545,0.048-0.792
		c-0.017-0.47,0.089-0.87,0.583-1.004c-0.041,0.144-0.082,0.281-0.109,0.365c0.295-0.232,0.588-0.465,0.883-0.698
		c0.006-0.005,0.016-0.009,0.022-0.018c0.243-0.414,0.522-0.357,0.779-0.529c0.289-0.192,0.581-0.298,0.874-0.448
		c0.517-0.259,1.035-0.523,1.555-0.786c0.146,0.041,0.297,0.08,0.445,0.122c0.049,0.076,0.101,0.153,0.151,0.228
		c0.12,0.479,0.241,0.958,0.359,1.438c0.068,0.593,0.132,1.184,0.199,1.777C16.159-16.963,15.633-16.646,15.107-16.47z
		 M18.843-19.529c-0.271,0.16-0.473,0.114-0.466-0.103c0.01-0.208,0.202-0.454,0.468-0.598c0.006-0.006,0.016-0.012,0.025-0.012
		c0.16-0.036,0.377-0.191,0.403,0.113C19.291-19.954,19.08-19.668,18.843-19.529z M42.802-27.547
		c-0.176,0.07-0.356,0.154-0.538,0.263c-1.024,0.62-2.053,1.222-3.075,1.893c-0.496,0.325-0.438,0.205-0.453-0.423
		c0.01-0.193-0.008-0.381,0.031-0.578c0.027-0.126,0.136-0.332,0.214-0.385c0.333-0.23,0.671-0.423,1.008-0.619
		c0.944-0.556,1.888-1.097,2.828-1.664c0.249-0.148,0.373-0.122,0.376,0.217c0.003,0.2,0.037,0.372,0.037,0.57
		C43.234-27.883,43.101-27.666,42.802-27.547z M43.887-33.33c-0.116,0.103-0.239,0.206-0.362,0.309
		c-0.15,0.053-0.297,0.106-0.447,0.162c-0.869,0.522-1.738,1.043-2.607,1.565c-0.021,0.027-0.043,0.065-0.063,0.078
		c-0.857,0.495-1.716,0.992-2.608,1.507c0-0.098-0.014-0.249,0-0.408c0.045-0.504,0.086-1.008,0.15-1.521
		c0.059-0.456,0.303-0.943,0.312-1.397c0-0.009,0.01-0.023,0.015-0.034c0.057-0.421,0.157-0.838,0.401-1.236
		c0.191-0.187,0.381-0.372,0.572-0.56c0.551-0.316,1.102-0.633,1.655-0.95c0.081-0.049,0.163-0.102,0.245-0.15
		c0.027-0.02,0.055-0.04,0.084-0.058c0.391-0.237,0.785-0.475,1.174-0.711c0.093-0.031,0.188-0.062,0.279-0.094
		c0.096,0,0.188,0.022,0.287-0.007c0.043-0.015,0.102-0.124,0.155-0.191c-0.039-0.046-0.079-0.091-0.12-0.136
		c0.012-0.03,0.023-0.062,0.035-0.092c0.146,0.005,0.289,0.009,0.434,0.014c0.11-0.147,0.203-0.182,0.25-0.033
		c0.025,0.085,0.055,0.17,0.061,0.269c0.038,0.465,0.086,0.922,0.096,1.406C43.897-34.859,43.888-34.096,43.887-33.33z
		 M44.998-34.365c-0.287,0.287-0.59,0.578-0.924,0.873c-0.004-0.003-0.005-0.006-0.008-0.013c-0.027-1.375-0.053-2.751-0.078-4.218
		c0.176-0.038,0.337-0.133,0.418-0.077c0.127,0.085,0.263,0.227,0.288,0.429c0.126,0.969,0.222,1.963,0.315,2.957
		C45.009-34.403,45-34.38,44.998-34.365z"/>
	<path fill="#19181A" d="M-14.675-60.37C-14.675-60.371-14.675-60.371-14.675-60.37c0.911-0.477,17.434-9.579,20.778-11.423
		c0.84-0.463,2.041-1.481,3.107-0.836c3.818,3.661,7.132,7.917,11.527,11.011c0.664,0.792,0.633,1.08-0.351,1.822
		c-1.701,1.285-8.898,6.362-13.251,8.594C3.39-49.282-7.035-43.56-11.387-41.272c-0.898-1.861-3.231-6.62-4.127-8.481
		c-2.273-3.595-2.774-3.505-4.049-6.152C-20.378-57.588-16.425-59.856-14.675-60.37z"/>
	<path fill="#625F61" d="M-15.386-58.635c0.587-0.646-2.351,0.761-2.238,1.563c0.249,1.776,1.172,2.593,2.792,5.473
		c2.345,4.168,5.121,8.939,5.049,8.732c-0.702-2.058-3.208-6.751-3.208-6.751s0.153-1.438-0.251-2.649
		c-0.642-1.926-3.542-3.293-3.292-4.632C-16.283-58.238-15.666-58.328-15.386-58.635z"/>
	<path fill="#B53E3A" d="M-67.871-74.938c-0.516-0.241-1.034-0.451-1.554-0.756c-0.191-0.113-0.386-0.465-0.58-0.707
		c-0.072-0.077-0.151-0.159-0.225-0.241c-0.197,0.015-0.388,0.032-0.804,0.068c1.161,1.163,1.339,2.345,1.365,3.488
		c0.02,0.727-0.133,1.362-0.166,2.069c-0.016,0.391,0.042,0.826,0.078,1.25c-0.343,1.222-0.686,3.203-1.027,4.351
		c-0.169,0.562-0.33,2.69-0.232,3.059c0,0,0.067,0.024,0.062,0.022c0.557,0.145,0.728-0.221,0.699-0.984
		c-0.026-0.664,0.051-1.288,0.145-1.878c0.156-1.02,0.588-3.396,0.773-4.547c0.275-1.423,0.509-2.758,0.814-4.021
		C-68.405-74.252-68.093-74.552-67.871-74.938z"/>
	<path fill="#B53E3A" d="M-36.737-89.606c-2.457-2.204-5.187-4.256-7.895-6.356c-0.512,0.229-0.953,0.544-1.244,0.985
		c-0.316,0.48-18.208,11.336-17.071,10.199c14.492,7.957,5.186,0.106,20.637,9.91c0.098-1.216,12.453,7.717,12.894,6.288
		c2.744,1.966,2.92,6.466,6.229,6.159c-1.691-1.646,7.436,0.214,6.972-2.194c-0.155-0.096-14.34-8.22-14.495-8.315
		c-3.492-2.455,23.742,9.54,5.815-3.051c-0.155-0.096,13.117,7.472,12.963,7.375c-4.767-3.016-19.695-17.412-24.581-18.428
		c0.428,2.237,10.614,10.452,9.534,13.626c-7.558-4.684-10.479-9.706-13.56-16.725C-38.052-91.652-38.748-85.459-36.737-89.606z"/>
	<path fill="#B53E3A" d="M-9.17-21.268c-2.434-1.404-20.054-11.538-24.58-14.178c-0.413-0.24-12.335-7.939-16.854-10.026
		c-1.029-0.606-2.056-1.215-3.086-1.827l-0.022-0.019c-0.131-0.114-0.26-0.227-0.39-0.343c-0.354-0.203-0.706-0.408-1.054-0.607
		c0.01,0.116,0.017,0.229,0.028,0.346c1.277,0.813,4.762,3.364,6.035,4.134c0.018,0.011,0.021,0.008,0.015-0.001
		c3.02,1.983,9.633,5.652,12.896,7.496c0.407-0.038,0.613-0.08,0.613-0.08l0.239,0.187l0.187,0.533
		c0.534,0.299,0.443,0.305,0.47,0.32c3.089,1.871,18.653,10.853,23.195,13.591c0.273,0.165,0.549,0.285,1.053,0.542
		C-10.709-21.709-9.048-21.051-9.17-21.268z"/>
	<path fill="#B53E3A" d="M8.63-18.623c-0.009-0.085,0.044-1.583,0.262-1.597c0.01-0.117,0.019-0.234,0.03-0.351
		c-0.89-1.016-1.776-2.036-2.671-3.045c-0.454-0.511-0.914-0.991-1.372-1.486c-1.476-2.222-6.017-5.707-5.724-5.537
		c-1.508-1.297-2.875-2.652-4.381-3.946c-2.469-2.364-4.076-3.533-4.049-3.483c-0.191,0.13-0.469-0.191-0.606-0.272
		c-1.099-0.643-1.616-1.695-2.304-3.032l0.016,0.013c-0.099-0.173-0.195-0.347-0.293-0.52l-0.02-0.043
		c-0.505-0.867-1.013-1.737-1.517-2.601l-0.021-0.042c-0.19-0.303-0.377-0.603-0.564-0.904l0.007,0.008
		c-0.67-1.088-1.338-2.173-2.012-3.265l0.005,0.014c-0.19-0.338-0.385-0.675-0.575-1.011l0.007,0.017
		c-0.193-0.306-0.385-0.611-0.577-0.913c-0.038-0.098-0.076-0.199-0.121-0.297c-0.625-0.999-1.252-2.001-1.878-3.002
		c-0.637-0.905-1.275-1.808-1.91-2.715c0.253-0.284,0.322-1.261,1.053-1.669c4.248-2.378,13.99-7.824,14.094-7.8
		c0.825-0.533,12.044-7.164,12.358-7.329c0.05-0.06,0.094-0.118,0.143-0.179c-0.128-0.067-0.254-0.131-0.383-0.197l-0.002,0.03
		c-0.333,0.186-0.594,0.581-1.091,0.302c-1.001,0.521-23.8,13.905-26.849,15.587c0.104-0.232,0.345-0.809,0.551-0.935
		c3.139-1.918,10.901-6.661,10.993-6.721c0.547-0.353,1.252-0.763,1.787-1.143c0.803-0.561,1.601-1.132,2.439-1.622
		c1.113-0.649,2.263-1.219,3.391-1.831c0.917-0.5,1.823-1.015,2.744-1.514c1.075-0.583,2.157-1.159,3.242-1.727
		c0.256-0.135,0.537-0.221,0.811-0.327c0.362-0.102,0.525-0.284,1.008-0.418c0.027-0.149,0.663-0.239,1.068-0.324
		c0.027,0.094,0.054,0.189,0.076,0.283c0.075,0.059,0.15,0.119,0.222,0.18c0.047-0.022,0.098-0.042,0.147-0.062
		c-0.029-0.048-0.064-0.096-0.098-0.144c-0.208-0.138-0.188-0.245-0.086-0.321c0.041-0.016,0.07-0.033,0.076-0.05
		c0.309-0.144,0.641-0.243,0.933-0.41c0.174-0.099,0.511-0.057,0.403-0.482H7.392c-0.038-0.011-0.081-0.021-0.121-0.031
		c-0.023-0.011-0.049-0.017-0.076-0.015c-0.039-0.003-0.076-0.007-0.115-0.012c-0.548,0.08-1.1,0.156-1.646,0.236
		c-0.026,0.003-0.054,0.007-0.08,0.011c0.005,0.009,0.015,0.018,0.021,0.026c-0.912,0.586-3.039,1.436-4.223,2.085
		c-4.145,2.278-19.275,11.714-20.554,12.247c-0.543,0.227-2.396,0.988-2.611,0.959c-0.066-0.222-1.182,0.145-1.226-0.107
		c-0.388-0.447-0.855-0.604-1.253-1.034c-0.913-0.99-1.825-1.589-2.831-2.089c-1.81-0.898-3.643-2.208-5.469-3.348
		c-2.009-1.257-4.02-2.525-6.029-3.788c-0.344-0.152-0.692-0.268-1.039-0.472c-3.61-2.143-7.219-4.336-10.834-6.434
		c-1.964-1.146-3.926-2.063-5.889-3.197c-1.937-1.113-3.872-2.365-5.806-3.557c-0.15-0.039-0.299-0.08-0.452-0.122
		c-1.56-1.229-2.186-0.2-2.688,1.072c-0.612,1.554-1.182,3.152-1.771,4.728c-0.089,0.241-0.202,0.465-0.244,0.745
		c-0.021,0.149,0.087,0.41,0.14,0.619c0.102-0.016,0.201-0.039,0.306-0.041c0.096-0.004,0.196,0.018,0.296,0.03
		c0.056-0.142,0.111-0.283,0.16-0.424c0.01-0.046,0.02-0.093,0.028-0.142c0.097-0.179,0.191-0.36,0.287-0.541
		c-0.043,0.603-0.085,1.207-0.128,1.808c-0.021,0.257-0.048,0.509-0.072,0.763c0.087,0.089,0.173,0.181,0.259,0.271
		c0.213-0.592,0.429-1.184,0.662-1.824c0.072,0.216,0.123,0.378,0.175,0.538c0.249-0.965,0.491-1.941,0.744-2.907
		c0.045-0.18,0.091-0.356,0.055-0.524c0.204,0.11,0.446,0.561,0.631,0.51c0.373,0.061,0.738,0.038,1.118,0.195
		c1.769,0.731,3.542,1.541,5.229,1.64c0.353,0.021,0.77,0.301,1.096,0.437c0.044,0.529,0.076,0.915,0.11,1.302
		c0.08-0.005,0.204,0.043,0.236-0.025c0.065-0.133,0.123-0.242,0.18-0.336c0,0.089,0,0.182,0,0.274l-0.007,0.003
		c0.021,0.099,0.071,0.224,0.062,0.294c-0.127,0.854-0.259,1.7-0.388,2.553c0.157,0.589,0.317,1.179,0.469,1.773
		c0.219,0.854,0.427,1.707,0.713,2.846c0.091-0.388,0.133-0.654,0.214-0.865c0.088-0.229,0.218-0.4,0.329-0.596
		c0-0.163-0.002-0.325-0.004-0.486c-0.357-0.842-0.123-1.252,0.08-1.686c0.09-0.794,0.18-1.589,0.27-2.384
		c0.096,0.323,0.192,0.647,0.288,0.971c0.171-1.352,0.359-2.108,0.524-3.407c3.808,2.197,5.547,3.156,9.298,5.332
		c0.715,0.415,3.418,2.013,4.126,2.519c0.188,0.134,0.64,0.752,0.67,0.992c0.123,1.032,0.185,1.45,0.259,2.469
		c0.174,1.196,0.17,2.278,0.343,3.474c0.087-0.215-0.187-3.524-0.103-3.74c-0.021-0.388,0.315,2.316,0.293,1.927
		c0.022,0.388,0.044,0.776,0.063,1.164c0.066,0.262,0.167,0.545,0.187,0.791c0.083,0.989,0.147,1.97,0.209,2.949
		c0.098,1.629,0.188,3.258,0.281,4.883c-0.008,0.512,0.188,0.75,0.56,0.976c0.64,0.391,1.278,0.89,1.918,1.345
		c-0.013,0.059-0.016,0.121-0.023,0.183c-6.021-3.845-12.045-7.692-18.068-11.538c-0.389-0.245-0.777-0.494-1.166-0.738
		c0.025,0.596-0.005,1.23,0.694,1.332c0.059,0.009,0.172,0.091,0.204,0.163c0.78,1.828,1.95,1.874,2.946,2.716
		c0.698,0.585,1.402,1.141,2.108,1.665c1.827,1.366,3.662,2.706,5.494,4.074c0.296,0.223,0.585,0.544,0.88,0.813
		c0.364,0.331,0.721,0.716,1.091,0.967c1.249,0.855,2.5,1.649,3.749,2.492c0.173,0.117,0.33,0.465,0.504,0.593
		c0.22,0.158,0.589,0.378,0.654,0.257c0.481-0.878,0.996,0.279,1.597,0.695c-0.125,0.136-0.167,0.184-0.211,0.223
		c-0.135,0.121-0.275,0.234-0.416,0.35c0.205,0.098,0.416,0.239,0.607,0.275c0.36,0.068,0.704,0.072,1.059,0.104
		c0.001-0.336,0.003-0.676,0.008-1.012c-0.293-0.898,0.051-0.763,0.459-0.52l-0.011,0.041l0.036,0.038
		c0.798,0.014,1.592,0.376,2.372,1.436c0.386,0.264,0.77,0.526,1.178,0.808c0.044,0.281,0.09,0.577,0.136,0.872
		c0.798,0.959,0.3,1.23,0.025,1.583c-0.175,0.217-0.565,0.25-0.126,0.9c0.357,0.533,0.462,0.189,0.619-0.077
		c0.064-0.116,0.341-0.028,0.512,0.089c0.375,0.252,0.738,0.643,1.107,0.87c2.282,1.398,4.565,2.838,6.849,4.118
		c0.855,0.481,1.705,0.527,2.564,0.833c0.335,0.121,0.785,0.28,1.012,0.632c1.435,2.228,3.113,3.187,4.754,4.333
		c0.071,0.049,0.146,0.083,0.217,0.131c1.027,0.718,1.322,0.494,1.284-0.961c-0.004-0.188,0.013-0.365,0.034-0.537
		c0.008-0.035,0.076-0.028,0.113-0.039c0.044,0.039,0.123,0.094,0.129,0.117c0.113,1.959,1.346,2.752,2.293,3.846
		c0.17,0.197,0.347,0.378,0.521,0.576c0.129,0.149,0.296,0.453,0.373,0.444c1.15-0.152,2.191,2.009,3.325,2.191
		c0.084,0.012,0.196,0.17,0.286,0.482c-0.836-0.482-1.672-0.942-2.513-1.457c-0.95-0.583-1.897-1.194-2.845-1.817
		c-1.043-0.686-2.084-1.419-3.124-2.086c-0.425-0.273-0.851-0.379-1.276-0.637c-2.566-1.533-5.135-3.067-7.7-4.638
		c-3.185-1.946-6.369-3.908-9.553-5.901c-1.564-0.982-3.128-2.042-4.694-3.068l0.003,0.004c-0.682-0.333-1.359-0.628-2.037-1.015
		c-0.545-0.308-1.086-0.761-1.628-1.093c-3.828-2.343-7.653-4.673-11.479-7.009c-0.254-0.156-0.513-0.294-0.767-0.309
		c1.942,1.203,3.883,2.404,5.824,3.608c3.042,1.884,6.095,3.596,9.107,5.754c1.003,0.719,2.025,1.629,3.059,2.249
		c2.443,1.472,4.888,2.922,7.33,4.388c1.54,0.923,3.082,1.863,4.616,2.8c1.524,0.928,3.047,1.862,4.572,2.793
		c0.088,0.121,0.168,0.292,0.257,0.344c1.251,0.747,2.502,1.48,3.755,2.217c0.704,0.409,1.409,0.824,2.108,1.233
		c0.27,0.234,0.539,0.496,0.811,0.692c0.206,0.151,0.424,0.248,0.626,0.323c0.201,0.071,0.393,0.023,0.587,0.138
		c2.445,1.448,4.896,2.9,7.342,4.392c3.041,1.86,6.086,3.763,9.127,5.647c0,0.097-0.004,0.191-0.006,0.288
		c-2.297-1.429-4.596-2.855-6.891-4.284c0.104,0.527,0.213,1.05,0.318,1.575c0.078,0.054,0.156,0.107,0.236,0.163
		c0.447,0.43,0.896,0.863,1.343,1.292c0.493,0.528,0.987,1.056,1.483,1.585c0.682,0.384,1.362,0.765,2.043,1.147
		c0.107,0.064,0.21,0.12,0.316,0.184c0.857,0.439,1.72,0.884,2.58,1.325C9.105-16.303,8.63-18.598,8.63-18.623z M5.947-74.963
		c0.019,0,0.045,0.036,0.067,0.054C6-74.886,5.994-74.845,5.979-74.845c-0.018,0.003-0.05-0.032-0.073-0.054
		C5.924-74.92,5.933-74.958,5.947-74.963z M-55.915-76.377c0.057-0.071,0.116-0.115,0.176-0.145
		c-0.018,0.039-0.034,0.071-0.054,0.114C-55.811-76.368-55.861-76.371-55.915-76.377z M-13.116-38.332
		c-0.016,0.152-0.503,0.016-0.782-0.132c-0.849-0.452-1.696-0.968-2.545-1.461c-0.24-0.11-0.475-0.185-0.704-0.33
		c-3.04-1.903-6.078-3.818-9.116-5.717c-2.563-1.604-5.127-3.193-7.691-4.779c-0.402-0.249-0.743-0.482-0.593-1.127
		c-0.1-0.331-0.238-0.672-0.292-0.993c-0.207-1.191-0.399-2.38-0.569-3.562c-0.176-1.22-0.322-2.434-0.481-3.651
		c0.149-0.102,0.296-0.21,0.443-0.315c0.009-0.133,0.02-0.267,0.028-0.398c-0.138-0.826-0.323-1.671-0.408-2.478
		c-0.108-1.07-0.142-2.109-0.204-3.16c-0.115-0.255-0.231-0.507-0.35-0.763c0.162,0.004,0.326-0.081,0.481,0.016
		c2.564,1.606,5.128,3.274,7.693,4.853c1.896,1.167,3.659,2.669,5.133,5.262c0.85,1.486,1.747,2.925,2.621,4.388
		c1.027,1.703,2.076,3.383,3.061,5.12c0.345,0.603,0.529,1.349,0.789,2.03c0.224,0.851,0.527,3.184,0.889,3.425
		c0.667,0.445,1.593,0.804,2.156,1.808c0.071,0.13,0.216,0.192,0.334,0.284c0,0,0,0,0,0.002
		C-13.176-39.442-13.059-38.821-13.116-38.332z"/>
	<path fill="#CE6E6D" d="M-7.678-66.236c1.102-0.71,4.076-2.686,5.008-3.25c1.563-0.94,1.83-1.281,3.41-2.185
		c1.607-0.914,1.49-1.132,3.119-1.997c0.1-0.051,0.188-0.118,0.248-0.248c-0.649,0.3-1.312,0.571-1.939,0.905
		c-2.09,1.113-4.161,2.25-6.238,3.378c-0.814,0.44-1.639,0.841-2.423,1.324c-0.767,0.467-1.476,1.028-2.221,1.532
		c-0.862,0.586-12.112,7.1-12.977,7.679c0.132,0.057-0.765,1.222-0.639,1.279C-21.606-58.35-8.43-65.752-7.678-66.236z"/>
	<path fill="#625F61" d="M-9.911-55.089c-0.032-0.254-0.583-0.845-0.045-1.108c0.273,0.104,1.762,0.292,1.932,0.546
		c0.42-0.238-0.888-0.456-0.477-0.694c2.984-0.158,5.591-4.98,9.757-6.631c1.997-0.791,0.788-0.941,2.554-2.175
		c-0.02-0.363-0.389-0.238-0.445-0.55c1.98-0.774,3.461-2.234,4.812-2.214c-0.125-0.483,0.198-0.634,0.604-0.844
		c0.039-1.29-1.182-2.629-1.881-3.481c-3.747,2.004-11.43,6.987-15.34,9.442c-0.496,0.089-1.039,0.242-1.672,0.582
		c-3.262,1.751-5.608,3.489-7.952,4.982C-15.422-57.307-11.378-56.496-9.911-55.089z"/>
	<path d="M-17.153-40.414c-0.367-0.284-1.987-1.457-1.987-1.457c-0.291-0.401-0.586-0.789-0.86-1.214
		c-0.044-0.072,0.033-0.292,0.051-0.444c0.33-0.425,0.66-0.849,0.989-1.272c-0.019-0.141-0.036-0.28-0.055-0.42
		c0.019,0.14,0.036,0.279,0.055,0.419c0.173,0.262,0.344,0.521,0.518,0.783c0.054-0.187,0.106-0.372,0.163-0.558
		c-0.066-0.152-0.128-0.308-0.19-0.464c0.806,0.263,1.129,0.247,0.138-1.611c0.304,0.39,0.6,0.795,0.902,1.195
		c-0.258-0.682-0.443-1.426-0.789-2.028c-0.985-1.735-2.96-5.072-3.987-6.775c-0.051-0.032-1.041-1.656-1.673-2.762
		c-1.475-2.593-3.257-4.065-5.153-5.234c-2.398-1.473-4.794-3.027-7.19-4.535c-0.168-0.105-0.335-0.21-0.503-0.316
		c-0.157-0.098-0.32-0.014-0.481-0.016c0.087,0.188,0.172,0.375,0.257,0.561c-0.084,0.445-0.146,1.239-0.257,1.315
		c0.161,1.217,0.797,7.669,0.973,8.893c0.169,1.181,0.361,2.369,0.568,3.56c0.053,0.323,0.192,0.663,0.292,0.993
		c-0.151,0.642,0.191,0.881,0.593,1.129c2.564,1.583,5.127,3.176,7.69,4.78c3.04,1.898,6.078,3.814,9.116,5.715
		c0.23,0.144,0.465,0.221,0.704,0.331c-0.106-0.116-0.211-0.226-0.412-0.439C-17.469-40.335-17.336-40.369-17.153-40.414z"/>
	<path fill="#625F61" d="M-30.439-61.53c-1.013-0.568-4.655-2.984-4.655-2.984s0.786,1.521-0.198,1.148
		c-0.984-0.372-0.326,0.752-0.282,1.401c0.045,0.649,1.22,0.796,0.77,1.003s-1.636,2.611-0.94,2.899
		c0.696,0.289,1.958-2.885,2.957-2.203c0.997,0.684,1.352-0.461,2.24,0.773c0.887,1.236,4.064,4.273,5.302,4.313
		c1.237,0.04-0.732-3.623-0.609-3.026c0.123,0.596,0.624-0.317-1.495-0.81C-29.47-59.507-26.953-59.577-30.439-61.53z"/>
	<path fill="#625F61" d="M-52.598-73.593c0.453,0,5.977,3.333,7.033,4.333c1.056,1,5.162,1.211,5.399,3.197
		c0.924,7.744-2.344-0.781-2.344-0.781s-4.625-2.042-5.187-2.558c-3.41-3.126-4.831-1.421-4.831-1.421L-52.598-73.593z"/>
	<path fill="#625F61" d="M-62.969-77.323c0.667-1.334,4.795,1.492,5.008,2.344c0.213,0.853,1.278,2.238,0.106,2.024
		c-1.172-0.213-0.106-1.812-1.385-2.238S-63.502-76.258-62.969-77.323z"/>
	<path fill="#BF3C28" d="M11.64-9.973c0.01-0.229-0.008-0.45,0.035-0.684c0.031-0.148,0.156-0.391,0.244-0.454
		c0.382-0.273,0.767-0.5,1.152-0.731c1.078-0.656,2.156-1.296,3.229-1.965c0.284-0.175,0.426-0.144,0.431,0.256
		c0.002,0.235,0.043,0.44,0.043,0.673c0.004,0.463-0.148,0.719-0.489,0.859c-0.202,0.083-0.408,0.182-0.615,0.309
		c-1.171,0.734-2.346,1.444-3.514,2.237C11.59-9.091,11.656-9.232,11.64-9.973z"/>
</g>
</svg>
