<?xml version="1.0" encoding="utf-8"?>
<!-- Generator: Adobe Illustrator 16.0.4, SVG Export Plug-In . SVG Version: 6.00 Build 0)  -->
<!DOCTYPE svg PUBLIC "-//W3C//DTD SVG 1.1//EN" "http://www.w3.org/Graphics/SVG/1.1/DTD/svg11.dtd">
<svg version="1.1" id="Layer_1" xmlns="http://www.w3.org/2000/svg" xmlns:xlink="http://www.w3.org/1999/xlink" x="0px" y="0px"
	 width="841.89px" height="595.28px" viewBox="0 0 841.89 595.28" enable-background="new 0 0 841.89 595.28" xml:space="preserve">
<path fill="#FCBF16" d="M94.518,1.137c0,0,25.091,45.356,128.255,81.067c10.487,3.63-47.592,93.57-85.549,146.038
	c-1.672,2.311-134.259-75.86-126.597-85.54C72.554,64.479,100.164-10.155,94.518,1.137z"/>
<path fill="#EDA522" d="M223.961,82.609c-10.914,3.461-57.271-30.072-85.481-30.653c-28.21-0.58,89.729,33.351-19.115,66.492
	c-30.104,9.166,48.806-12.81,31.044,0.064c-17.763,12.874-94.666,46.979-5.528,21.76c89.137-25.221,28.305-4.024,16.771,7.827
	c-11.532,11.85-28.154,24.173-1.365,11.484c26.792-12.688-5.902,12.542,3.819,6.411c9.722-6.131,20.82-9.405,26.909-18.442
	C218.74,106.403,225.666,82.068,223.961,82.609z"/>
<path fill-rule="evenodd" clip-rule="evenodd" fill="#EDA522" d="M10.711,143.121c7.684-9.495,20.284-28.852,20.284-28.852
	s26.681,4.754,39.525-3.025c12.845-7.78-1.305,5.048-1.305,5.048s-16.473,3.18-16.258,12.198c0.116,4.891-15.876-6.645-11.94,20.22
	c0.805,5.497,22.556,7.89,28.69,9.992c6.135,2.103-18.289-2.344-15.986,2.483c3.007,6.304-8.271,0.435-1.364,8.287
	c1.855,2.109,4.955,8.873,4.652,11.143c-0.303,2.269-44.636-32.654-46.636-34.972C8.374,143.321,10.711,143.121,10.711,143.121z"/>
<path fill="#EDA522" d="M293.823,139.562c-35.747-3.874-70.581-55.912-70.581-55.912s0-4.84-2.688,1.552
	c-34.231,81.372-79.455,137.292-82.682,141.575c-0.43,0.57-0.654,1.22-0.719,1.911c-1.522-0.459-3.917-1.894-3.917-1.894
	L26.29,157.961l-10.622-6.654c-0.201,6.454,0,18.822,2.017,21.443c0.274,0.356,131.427,76.449,132.079,76.828l0.262,0.999
	l132.101-71.996l3.223-32.078C292.047,142.326,295.421,139.736,293.823,139.562z"/>
<path fill="#FCBF16" d="M188.152,227.997c1.21-0.695,4.859-6.333,9.297-9.335c4.438-3.001-4.056,6.394-0.424,3.405
	c3.512-2.888,49.786-26.047,36.3-22.57l-42.774,20.88C185.994,225.335,181.732,231.688,188.152,227.997z"/>
<path fill="#CB882B" d="M153.482,241.963c5.018-3.704,102.154-59.954,120.579-66.119c13.848-4.634,4.571-4.656,4.571-4.656
	s-118.202,63.134-124.764,68.536C147.308,245.125,153.482,241.963,153.482,241.963z"/>
<path fill="#714B22" d="M221.629,92.38c0,0-36.481,125.176-28.099,123.797c3.361-0.553,62.113-33.464,62.113-33.464
	S219.344,154.235,221.629,92.38z"/>
<path fill="#FCBF16" d="M211.546,123.004c-7.26,17.54-12.705,23.908-14.319,28.967c-1.613,5.057-26.014,40.684-21.711,46.454
	c4.302,5.77,2.15-3.822,5.916-3.415c3.763,0.405-2.689,25.281-12.907,32.729c-10.218,7.445,23.536-10.16,22.854-11.26
	c-2.823-4.561,13.188-67.946,14.319-71.72C207.312,139.378,211.546,123.004,211.546,123.004z"/>
<path fill="#FCBF16" d="M224.457,113.001c0.368-5.533-2.164-13.392,1.894-11.813c4.057,1.58-1.353,12.284,2.975,8.479
	c4.328-3.806,33.539,26.647,38.679,35.704c5.139,9.059-6.222,0.979-11.36,0.807c-5.14-0.169,4.056,3.41,6.221,5.037
	c2.164,1.626-8.926,15.611-4.599,19.125c4.33,3.513-1.281,9.371-6.491,5.056C236.899,163.07,224.187,117.077,224.457,113.001z"/>
<path fill="#CB882B" d="M211.009,120.56c4.84-5.751,7.931-28.509,12.771-30.767c0.4-0.186,4.312,1.026,4.572,0.722
	c-1.25-1.735-5.377-6.441-5.377-6.441s0-4.84-2.689,1.553c-34.23,81.372-79.455,137.291-82.682,141.575
	c-1.201,1.594-0.881,1.657,0.193,1.003C179.279,175.177,206.186,126.292,211.009,120.56z"/>
<path fill="#CB882B" d="M294.093,139.676c-9.775-1.059-19.479-5.724-28.424-11.937c6.508,8.636,15.888,15.028,24.57,15.887
	C293.756,141.231,295.263,139.804,294.093,139.676z"/>
<path fill="#CB882B" d="M219.496,213.165c-2.272-0.873-23.328,12.949-23.681,9.688c-0.404-3.727-0.404-2.51-3.227,2.472
	c-2.824,4.982-12.906,8.974-9.276,3.833c3.63-5.144,5.243-9.73-12.906,6.841c-15.879,14.5-19.709-11.57-24.01-19.705l-0.694,1.042
	c-0.029-0.153-0.045-0.235-0.045-0.235l-8.792,11.918c2.339-0.962,8.591,0.248,12.019,11.338c0.094,0.304,0.179,0.567,0.257,0.805
	l1.289,8.585L219.496,213.165z"/>
<path fill="#CB882B" d="M16.006,150.162c-1.795-3.128,1.177,19.462,1.546,20.675c0.368,1.215,0.604-12.605,3.553-6.516
	c2.949,6.091,0.343,0.789,3.5-0.585c3.158-1.374,12.868,7.52,17.574,13.806c4.706,6.288-2.037-4.31,2.07-2.503
	c4.107,1.807,28.68,15.338,32.858,17.174c18.822,8.269-26.484-16.199-32.534-21.51C39.838,166.546,17.236,152.307,16.006,150.162z"
	/>
<g>
	<path fill="#FCBF16" d="M141.425,256.684C141.706,256.406,141.729,256.239,141.425,256.684L141.425,256.684z"/>
	<path fill="#FCBF16" d="M145.255,267.217l-0.773-5.402c0.312,2.614,0.527,4.6,0.552,5.273L145.255,267.217z"/>
	<path fill="#FCBF16" d="M149.705,250.052c-1.075-5.109-5.713-6.251-3.832-9.478c0.167-0.284,0.295-0.486,0.392-0.629
		c-0.647,0.64-4.212,6.016-6.777,1.57c-4.033-6.99-10.485-12.975-13.712-11.092c-3.227,1.883-47.414-33.699-49.071-30.383
		c-2.42,4.84-36.299-23.526-50.012-26.215c-7-1.373-9.406-6.634-10.161-11.707l-0.729-0.392l1.882,11.83l132.071,76.726
		C149.741,250.215,149.724,250.141,149.705,250.052z"/>
</g>
<polyline points="127.993,269.647 138.41,227.541 136.866,228.508 126.911,269.209 "/>
<polyline points="1.082,186.025 11.499,143.919 9.955,144.887 0,185.586 "/>
<polyline points="306.899,181.439 294.868,139.766 294.015,141.376 305.744,181.601 "/>
</svg>
