<?xml version="1.0" encoding="utf-8"?>
<!-- Generator: Adobe Illustrator 16.0.4, SVG Export Plug-In . SVG Version: 6.00 Build 0)  -->
<!DOCTYPE svg PUBLIC "-//W3C//DTD SVG 1.1//EN" "http://www.w3.org/Graphics/SVG/1.1/DTD/svg11.dtd">
<svg version="1.1" id="Layer_1" xmlns="http://www.w3.org/2000/svg" xmlns:xlink="http://www.w3.org/1999/xlink" x="0px" y="0px"
	 width="595.281px" height="425.2px" viewBox="0 0 595.281 425.2" enable-background="new 0 0 595.281 425.2" xml:space="preserve">
<g id="Grass_5_">
	<path fill="#49652F" d="M-151.337-14.23c24.528-21.626,130.049-106.623,196.601-67.5c66.552,39.123,108.474,57.354,105.462,70.44
		c-3.012,13.086-0.061,26.174-14.779,32.441c-14.718,6.268-112.832,74.355-139.8,62.355s-135.216-58.451-138.34-67.665
		c-3.124-9.213-20.301-17.461-4.19-28.342"/>
	<path fill="#708E3D" d="M-129.335-26.496c-1.198-0.07-5.688-3.822-4.193-5.73c0.064-0.082,18.462-0.869,20.777-1.295
		c14.604-2.684,4.508-5.916,9.725-12.203c4.134-4.979,18.883,4.874,22.885,6.95c-0.469-3.318-10.88-12.582-9.381-14.065
		c3.072-3.035,5.605,6.89,8.492,4.727c3.572-2.679-5.161-5.676-1.898-8.955c5.989-6.016,11.073,3.76,15.232-5.68
		c1.902-4.312,11.011-0.657,13.721,1.883c3.184,2.981-0.938-18.709,6.984-12.024c-1.446,4.912-2.229,4.532-2.363,10.999
		c-0.24,11.613-12.398-3.095-9.792,12.554c2.317,13.903,8.583,5.624,17.202,3.805c12.207-2.575,7.98-16.427,7.721-25.909
		c11.434,3.305-0.594,12.391,6.15,16.517c6.115,3.742,14.611-16.776,8.129-18.45c-2.835-0.731-3.381,3.974-8.09,2.443
		c0.842-9.202,2.712-2.801,7.785-6.385c-0.83-1.926-7.709-9.555-4.699-12.095c3.111-2.626,12.236-0.905,16.263,0.241
		C-10.111-89.574,0.523-103.344,3-99.484C4.725-96.796,2.294-89.427,2.526-85.5c0.146,2.47,10.154,8.179,9.907,4.409
		C12.17-85.164,3.595-91.265,4.52-92.224c4.357,0.215,13.398-1.523,14.814,5.113c2.43,11.394,7.791,1.395,12.354,6.209
		c3.334,3.523-7.693,6.516,1.915,8.272c-13.427,6.681,5.22,4.684,5.794,4.872c4.895,1.604,3.898-6.118-5.003-5.621
		c-1.032-2.022,4.46-17.898,5.058-10.654c1.275,15.505,13.734,4.951,13.83,21.207c-1.549-0.03-8.234-6.383-9.09,1.496
		c0.021-0.196,11.209,7.743,10.434,7.986c0.425-0.133,3.445-8.985,3.656-9.321c6.278-10.016,11.252,5.94,17.274,4.884
		c14.142-2.481,6.5,13.953,18.521,19.988c0.1-2.114-1.222-15.835,1.547-16.848c3.479-1.272,6.481,20.457,6.359,20.76
		c-2.054,5.108-10.719-2.676-10.396,6.309c0.062,1.712,0.636,22.31-2.307,22.264c-6.888-0.109,0.35-13.218-1.52-14.434
		c-1.951-1.271-11.997,6.454-11.814,8.118c0.176,1.62,8.827,3.436,8.135,6.145c-0.699,2.737-7.895-0.715-9.002,0.715
		c-1.617,2.086,1.147,5.302-0.344,6.762C63.89,1.113,68.628-6.158,57.284,1.395c-2.586,0.372-4.955-0.305-7.106-2.028
		c-4.959,0.823-2.808,12.806-8.285,10.978c-5.653-1.888,5.5-12.053-10.896-9.602C20.161,2.362,7.388,7.222-2.839,11.16
		c-7.916,3.047-16.518-0.547-23.521,2.518c-2.926,1.28-21.349,12.406-23.743,8.506c-1.211-1.97,0.275-12.413,2.857-12.798
		c0.697-0.104,18.136,0.084,11.803-6.978c-3.003-3.345,2.85-5.169,0.186-7.926c-2.559-2.649-11.347,5.159-13.1,6.3
		c-5.105,0.473-6.21-4.153-12.013-3.702c-1.565-3.838,38.021-11.245,29.05-17.52c-1.371-0.96-10.475,11.59-10.113-1.801
		c0.096-3.563-6.115-2.16-3.277-6.716c1.744-2.798,9.892-9.742,7.92-12.713c-3.271-4.925-20.948,12.383-21.37,4.755
		c-0.351-6.358-10.493-19.639-17.663-19.551c-4.787,0.059-0.844,24.661,4.094,22.311c4.526-2.156-3.338-6.868,0.194-8.631
		c8.769-4.379,4.69,15.08,4.69,15.077C-68.116-23.624-48.066-14.73-56.32-10.93c-2.324,1.174-4.778,1.925-7.362,2.253
		c-9.109,0.144-2.828,6.802-7.959,8.744c-1.449,0.55-7.88-3.552-13.086-1.922c-3.212,1.005-24.671,17.606-24.402,7.387
		c0.045-1.73,37.225-23.562,24.068-29.773c-2.99-1.411-5.6-3.355-5.307,1.661c0.742,12.682-7.405-9.44-5.969-9.146
		c-1.065-0.219-11.064,16.331-10.974,17.536c1.427,2.104,3.407,2.59,5.943,1.457c0.987,10.134-18.048,2.44-9.175-10.238
		C-104.619-31.439-130.044-30.998-129.335-26.496C-130.665-26.575-129.613-28.264-129.335-26.496z M49.864-36.6
		c-3.416-2.773-7.676-10.998-11.545-12.526c-3.101-1.224-4.865,21.336-3.168,23.065C37.903-23.258,57.044-32.705,49.864-36.6z
		 M-36.382-31.433c-12.922,0.151,2.949,11.148,3.652,6.41c0.006-0.036-2.138-14.756,0.525-12.975
		C-36.032-40.555-36.323-32.471-36.382-31.433C-38.966-31.403-36.273-33.362-36.382-31.433z M6.419-55.307
		c0.035,11.62-7.883-1.971-10.609-1.48c-16.679,3.002-6.197,13.565-8.688,26.012c-6.479-2.96-2.644-9.011-4.787-13.82
		c-0.969-2.175-19.91,18.298-7.75,24.166C-13.525-10.2-5.224-41.138-5.71-41.134c3.64-0.027,1.904,7.428,9.197,6.539
		c12.838,0.159,5.799,0.176,6.541,6.102c0.688,5.505,25.176,12.101,21.149,4c-1.285-2.586-5.991,0.881-7.024-2.369
		c-0.574-1.796-4.177-11.447-5.576-12.561c-0.008-0.023-6.388-29.589-14.287-20.294C3.302-57.528,4.012-56.058,6.419-55.307
		C6.421-54.366,4.288-56.131,6.419-55.307z M72.807-19.284c-1.952,2.831-15.683,8.191-13.733,12.314
		c2.635,5.576,22.68-17.088,27.567-16.859c9.315,0.438-10.729-11.239-6.918-7.669c-9.533-8.928-7.208-9.248-9.106,5.045
		c-6.854-1.641-11.869,8.263-8.187,9.313c3.116,0.893,3.303-3.987,3.624-5.67C69.062-23.469,72.645-21.814,72.807-19.284
		C72.395-18.686,72.755-20.092,72.807-19.284z M42.458-20.618C31.604,7.646,67.126-22.137,56.837-25.93
		C57.314-25.752,42.521-20.782,42.458-20.618C39.659-13.326,43.689-23.778,42.458-20.618z M20.782-55.583
		c-0.273,4.757,9.121,6.018,7.821-3.637c-1.106-8.219-19.778-15.011-19.088-5.078C9.575-63.458,20.372-55.987,20.782-55.583
		C20.602-52.455,19.425-56.915,20.782-55.583z M18.628-12.473c-1.611,1.561-2.396,3.388-2.355,5.482
		c2.318,2.008,7.338-1.925,7.316-4.412c0.011,1.314-7.865-7.465-8.619-7.907c-8.273-4.86-9.24-6.695-19.133-4.784
		c-6.116,1.182,2.682,7.232,3.701,7.931c1.334,1.992,2.562,4.049,3.685,6.169c1.651,0.455,4.515-3.129,6.024-1.518
		C8.54-9.57,5.95-6.577,9.034-5.026C12.563-3.25,12.288-14.156,18.628-12.473C18.581-10.826,14.769-13.497,18.628-12.473z
		 M-13.349,3.533C6.864,3.376-2.341-22.179-11.152-18.931C-17.021-16.769-28.29,3.274-13.349,3.533
		C-10.341,3.509-14.648,3.51-13.349,3.533z M68.776-42.912c-0.557-1.14-4.041-11.062-6.103-10.078
		C49.482-46.683,66.479-13.742,68.776-42.912C67.456-45.616,68.434-38.56,68.776-42.912z M74.192-50.289
		c-6.59,0.992,9.497,14.564,11.403,13.396C90.946-40.174,76.098-49.572,74.192-50.289C72.266-49.999,74.581-50.143,74.192-50.289z
		 M-12.247-81.548c-12.59,1.278,8.722,8,8.046,7.486C-1.476-71.991-1.126-79.282-12.247-81.548
		C-14.159-81.354-9.194-80.926-12.247-81.548z M30.169-38.373c1.309-2.65-2.775-7.913-5.604-6.919
		c-2.206,0.774,0.941,16.105,4.291,15.41C32.038-30.542,29.424-36.586,30.169-38.373C31.702-41.479,29.171-35.984,30.169-38.373z
		 M-82.37-29.809C-91.357-46.909-98.402-29.91-82.37-29.809C-84.263-33.409-86.677-29.836-82.37-29.809z M-19.722-12.953
		c-1.539-5.457-10.035,5.759-8.397,7.697C-25.585-2.256-20.487-12.241-19.722-12.953C-20.311-15.037-22.296-10.555-19.722-12.953z
		 M29.759-5.391c4.027-0.531,7.129-5.746,1.164-5.94C27.003-11.458,24.967-5.784,29.759-5.391
		C31.596-5.633,28.368-5.505,29.759-5.391z M-67.367-18.348c-1.494-4.758-3.952-6.617-7.375-5.578
		C-77.915-20.362-69.323-14.619-67.367-18.348C-69.013-20.557-67.679-17.754-67.367-18.348z M0.694,3.686
		c2.239,0.253,4.031-0.51,5.377-2.288C8.163-5.047-8.615,2.189,0.694,3.686C2.624,3.362-0.497,3.494,0.694,3.686z M10.59-74.528
		c-0.192-2.977-3.443-3.494-5.718-2.825C0.594-76.093,10.01-66.813,10.59-74.528C10.437-76.887,10.452-72.698,10.59-74.528z
		 M20.37-73.042C38.2-77.889,3.599-76.688,20.37-73.042C22.446-73.607,18.482-73.453,20.37-73.042z M-5.298-63.336
		c-0.395-5.057-5.049-1.75-5.697,1.424C-11.522-59.353-5.564-60.057-5.298-63.336C-5.405-64.725-5.487-60.992-5.298-63.336z
		 M50.378-48.34c-2.68,1.592-2.395,3.422,0.854,5.49C54.478-44.449,54.192-46.279,50.378-48.34
		C49.396-48.227,52.133-47.645,50.378-48.34z M-27.874-41.773c3.686-1.784,4.336-3.616,1.949-5.496
		C-29.738-45.592-30.388-43.76-27.874-41.773C-26.612-42.756-29.216-42.012-27.874-41.773z M-63.448-57.432
		c-0.196-5.185-5.037-1.276-3.527,1.57C-65.339-54.25-64.163-54.773-63.448-57.432C-63.495-58.667-63.57-56.215-63.448-57.432z
		 M35.028-14.569c2.489-0.384,1.707-5.046-0.408-4.534C31.911-16.986,32.046-15.475,35.028-14.569
		C36.616-14.813,33.679-14.493,35.028-14.569z M-80.366-14.076c-2.438,1.342-2.625,2.815-0.564,4.42
		C-78.03-10.792-77.843-12.267-80.366-14.076C-81.747-13.936-79.003-13.789-80.366-14.076z M1.653-65.701
		c-0.766-0.901-1.531-1.802-2.298-2.703C-4.778-68.236,0.98-60.673,1.653-65.701C1.673-67.42,1.546-64.891,1.653-65.701z
		 M-12.684-72.284c-2.825,1.271-2.997,2.518-0.514,3.742C-10.144-69.625-9.972-70.874-12.684-72.284
		C-14.12-72.314-11.591-72.094-12.684-72.284z"/>
	<path fill="#708E3D" d="M152.099,6.235c-0.215,0.044-0.428,0.093-0.637,0.15c-1.16-3.472-4.066-3.753-7.068-3.863
		c0.061-0.99,0.119-1.979,0.182-2.97c0.16-2.778-0.221-5.696,2.053-7.928c1.301-0.131,2.832-0.072,2.9-1.899
		c0.066-1.863-0.992-3.044-2.77-3.573c-4.891-2.385-9.907-4.113-15.123-1.193c-1.574,0.881-2.369,1.65-3.193-0.648
		c-0.35-0.978-1.377-2.197-2.297-2.4c-4.086-0.908-5.631-3.609-6.191-7.781c-1.25,4.249-5.244,6.568-6.313,10.74
		c-0.271,1.053-0.073,2.647-1.825,2.286c-1.529-0.316-1.509-2.022-1.109-2.868c1.66-3.524-3.256-8.094,1.809-10.973
		c0.496-0.061,0.99-0.124,1.484-0.188c2.371,0.092,4.006-1.275,5.592-2.781c0.971-0.923,2.037-1.891,3.498-1.175
		c1.527,0.747,1.189,2.13,0.966,3.467c-0.171,1.019-1.504,2.22,0.007,3.047c1.232,0.675,2.098-0.521,3.002-1.214
		c2.711-2.078,4.738-1.846,5.004,1.93c0.256,3.658,2.477,4.699,5.57,5.074c3.255,0.396,6.438,0.646,9.572,2.176
		c5.619,2.74,7.094,7.004,3.252,11.84c-1.77,2.226-1.803,4.051,0.27,6.043C152.024,2.781,153.454,4.145,152.099,6.235z"/>
	<path fill="#708E3D" d="M14.593,17.623c1.048-0.225,2.285,0.058,2.977-1.115c1.313-0.008,1.998-0.65,2.002-1.98
		c2.553-0.893,3.689-2.367,2.049-4.984c-0.268-2.42,1.179-3.208,3.242-3.402c0.664,0.743,1.332,1.484,2,2.225
		c0.315,1.607,1.467,2.479,2.805,3.188c0.015,1.298,0.027,2.596,0.041,3.895c-0.28,2.844,0.009,6.295-4.717,4.32
		c-0.43-0.18-1.287-0.283-1.426-0.075c-3.765,5.648-12.1,3.325-15.789,9.07C7.423,29.316,6.81,29.69,6.402,30.21
		c-1.604,2.051-3.693,2.725-6.203,2.281c-0.953-0.168-1.601-0.771-1.391-1.697c0.539-2.367,1.723-4.195,4.189-5.146
		C7.489,23.92,9.349,18.32,14.593,17.623z"/>
	<path fill="#708E3D" d="M-66.352,3.511c0.543,2.045,1.653,3.506,3.902,3.796c3.712,2.319,4.157,5.986,3.971,9.856
		c-0.057,1.189,0.47,3.073-1.555,3.018c-1.593-0.043-1.472-1.736-1.272-2.768c0.584-3.031-0.543-4.075-3.469-5.242
		c-2.229-0.889-4.189-3.855-5.087-6.326C-70.987,2.74-67.845,3.897-66.352,3.511z"/>
	<path fill="#708E3D" d="M-70.681,14.771c1.454,0.37,3.145,0.881,3.059,2.66c-0.146,2.986,1.35,4.915,3.256,6.879
		c1.279,1.318,1.42,3.133-0.102,4.4c-1.436,1.196-2.259-0.475-3.33-1.108c-4.627-2.737-3.037-7.631-4.109-11.591
		C-72.136,15.17-71.393,14.936-70.681,14.771z"/>
	<path fill="#708E3D" d="M-62.884,41.279c-0.64-2.217-1.879-4.279-1.692-6.704c3.968-0.681,7.13,2.472,6.024,6.171
		C-59.503,43.928-61.38,41.527-62.884,41.279z"/>
	<path fill="#708E3D" d="M-30.454,22.254c2.178,0.354,4.812,0.771,4.895,4.043c0.039,1.532-1.273,2.539-2.729,2.043
		c-2.418-0.824-4.397-2.578-4.891-5.105C-33.535,21.404-31.886,21.888-30.454,22.254z"/>
	<path fill="#708E3D" d="M-16.247,29.318c0.559,0.154,1.117,0.311,1.676,0.467c0.132,1.414,0.822,3.072-1.229,3.68
		c-1.281,0.377-2.609,0.308-3.688-0.675c-0.637-0.579-1.061-1.336-0.67-2.177C-19.337,28.848-17.552,29.76-16.247,29.318z"/>
	<path fill="#708E3D" d="M37.548,33.447c-0.07,1.17-0.465,2.088-1.764,1.865c-1.849-0.32-2.213-1.771-2.16-3.363
		c0.033-0.971,0.092-2.268,1.527-1.844C36.686,30.56,37.479,31.85,37.548,33.447z"/>
	<path fill="#49652F" d="M-137.722-10.377c-0.226,0.188-0.439,0.512-0.646,0.508c-0.557-0.013-0.803-0.428-0.588-0.92
		c0.082-0.188,0.551-0.354,0.772-0.289C-137.982-11.02-137.878-10.633-137.722-10.377z"/>
	<path fill="#2D3519" d="M-38.259-51.656c-2.414-0.665-1.938-2.649-2.033-4.399c-0.338-6.299-0.582-12.596,0-18.895
		c0.918-0.721,1.91-0.981,3.024-0.489c0.479,5.26,2.947,10.345,0.985,15.836c-0.676,1.888,0.52,3.479,2.632,4.019
		C-33.285-52.045-35.8-51.882-38.259-51.656z"/>
	<path fill="#2D3519" d="M50.317-61.611c0.406-1.921,2.152-2.47,3.502-3.425c0.393,0.256,0.786,0.512,1.182,0.772
		c0.265,1.771,1.834,3.214,1.285,5.183c-1.263,0.166-2.525,0.33-3.789,0.495C51.771-59.594,51.044-60.602,50.317-61.611z"/>
	<path fill="#2D3519" d="M-44.542-74.896c0.072,0.147,0.125,0.311,0.224,0.441c1.456,1.956,0.388,3.781-0.36,5.58
		c-0.121,0.29-0.964,0.613-1.203,0.471c-1.953-1.164-1.272-3.173-1.437-4.908c-0.047-0.492-0.028-0.988-0.041-1.483
		c0.138-0.479,0.272-0.958,0.414-1.436C-46.142-75.785-45.343-75.342-44.542-74.896z"/>
	<path fill="#2D3519" d="M-52.102-12.197c0.052-0.971-0.229-2.589,0.203-2.811c3.769-1.925,5.306-5.228,6.668-8.983
		c0.864-2.381,2.511-1.09,3.642,0.311c1.437,1.831,2.982,3.527,5.283,4.293c0.674,0.753,1.855,1.126,1.816,2.416
		C-39.427-11.935-45.11-9.655-52.102-12.197z"/>
	<path fill="#2D3519" d="M14.639,14.281c-1.992-1.754-4.42-0.947-6.64-0.976c-2.557-0.031-4.754-0.958-5.891-2.96
		C0.794,8.033,4.89,8.433,4.753,6.371c0,0.001,0.052-0.036,0.051-0.036c3.016-0.029,5.902-0.383,7.881-3.072
		c0.277-0.082,0.559-0.152,0.844-0.211c3.428-0.803,5.217,2.637,8.139,3.148c1.641,2.617,0.502,4.092-2.049,4.984
		c-1.256,0.065-1.92,0.729-2.002,1.979C16.924,14.339,15.686,14.056,14.639,14.281z"/>
	<path fill="#2D3519" d="M-94.456-22.782c-2.74,1.775-4.988,4.055-6.864,6.711c-1.335,0.088-2.67,0.179-4.006,0.27
		c-0.017-1.339-0.03-2.678-0.046-4.017c1.576-4.909,5.855-8.377,7.16-13.438c0.248-0.961,0.621-2.078,1.918-1.812
		c1.123,0.23,1.513,1.39,1.564,2.324C-94.54-29.43-94.531-26.104-94.456-22.782z"/>
	<path fill="#2D3519" d="M19.517-39.898c-2.395,1.604-5.641,0.232-7.913,2.27c-0.96-0.08-1.919-0.162-2.88-0.242
		c-1.695-2.816-3.428-2.758-5.191-0.066c-1.66,0.202-3.246,1.826-4.998,0.256c0.002-2.271,0.139-4.277,3.319-4.249
		c2.241,0.02,3.853-1.714,5.661-2.829c4.299-2.65,7.889-1.364,11.107,1.994C19.569-42.012,19.585-40.969,19.517-39.898z"/>
	<path fill="#2D3519" d="M70.901-31.603c6.74-3.385,7.645-2.833,7.646,4.69c0,1.297-0.055,2.594-0.086,3.889
		c-0.896,1.76-2.303,3.035-3.922,4.106c-1.473,0.122-2.713-0.112-2.922-1.917c0.412-0.598,0.822-1.193,1.232-1.791
		c1.059-0.254,1.967-0.754,1.66-2.003c-0.256-1.044-0.995-1.185-1.812-0.424c-0.599-0.022-1.195-0.046-1.795-0.065
		c-0.082-1.557-0.162-3.117-0.242-4.677C70.741-30.396,70.821-31,70.901-31.603z"/>
	<path fill="#2D3519" d="M-56.829,2.152c-1.857,0.604-3.717,1.207-5.573,1.813c-2.249-0.29-3.358-1.751-3.901-3.796
		c-0.449-3.291,0.436-5.38,4.311-4.983c0.885,0.091,1.445-0.59,1.67-1.455c1.982-0.149,4.023-0.862,5.846,0.599
		c0.344,2.156-3.926,2.164-2.295,4.922C-56.792,0.218-56.812,1.186-56.829,2.152z"/>
	<path fill="#2D3519" d="M15.196-53.008c-3.82,1.891-7.091,2.076-8.722-2.817c-0.005-0.94-0.008-1.882-0.009-2.824
		c0.223-1.342,1.352-1.993,2.181-2.872c2.479,0.309,4.593,1.592,6.454,3.031C17.085-56.956,16.985-54.871,15.196-53.008z"/>
	<path fill="#2D3519" d="M-10.29,9.51c2.334,1.562,6.957,1.865,6.115,5.304c-0.746,3.039-4.854,0.8-7.426,1.222
		c-1.457,0.238-3.488,0.835-4.408-1.118c-1.01-2.145,0.545-3.725,1.615-5.353C-13.026,9.549-11.658,9.529-10.29,9.51z"/>
	<path fill="#2D3519" d="M16.756-62.921c-0.326-3.151,0.614-5.142,4.262-4.878c2.793,0.201,5.151,1.711,5.253,4.225
		c0.119,3.009-1.906,5.105-5.443,4.65C19.471-60.257,18.112-61.589,16.756-62.921z"/>
	<path fill="#2D3519" d="M42.505-23.958c1.451,0.41,4.24-0.283,3.876,1.845c-0.558,3.244,3.743,6.964-0.909,9.71
		C40.237-14.598,39.704-16.667,42.505-23.958z"/>
	<path fill="#2D3519" d="M-63.224-36.791c2.409-1.34,4.709-0.842,6.121,1.268c1.43,2.137,1.105,4.834,0.242,7.158
		c-0.602,1.612-1.975,1.529-3.062,0.14c-1.217-1.555-2.418-3.122-3.629-4.684C-63.443-34.203-63.333-35.497-63.224-36.791z"/>
	<path fill="#2D3519" d="M-49.337-46.164c-1.672-4.414-0.762-9.002-0.905-13.518c2.704-0.409,4.043,0.553,3.892,3.482
		c-0.146,2.802-0.007,5.618,0.006,8.428C-46.984-46.571-47.94-45.957-49.337-46.164z"/>
	<path fill="#2D3519" d="M-48.313-2.562c1.691,1.18,4.934,1.487,3.566,4.622c-1.323,3.035-3.971,1.826-6.271,1.098
		c-0.302-1.301-0.603-2.602-0.903-3.903c0.224-0.515,0.443-1.03,0.666-1.544C-50.274-2.381-49.294-2.471-48.313-2.562z"/>
	<path fill="#2D3519" d="M4.778-91.66c0.092-0.152,0.17-0.311,0.232-0.473c5.443-0.811,5.709-0.518,5.734,6.33
		c-1.726,0.035-3.447,0.07-5.17,0.104c-0.354-0.33-0.705-0.659-1.058-0.991C4.606-88.347,4.692-90.004,4.778-91.66z"/>
	<path fill="#2D3519" d="M3.708-53.833c-0.03,0.327-0.062,0.655-0.094,0.981c-0.229,2.402-1.688,3.928-3.814,4.64
		c-1.04,0.349-1.778-0.698-2.018-1.721c-0.623-2.671,0.356-4.479,3.034-5.288C1.866-54.938,2.989-54.808,3.708-53.833z"/>
	<path fill="#2D3519" d="M-25.37-23.771c0.031-2.086,0.443-4.136,3.068-3.854c3.16,0.342,0.481,2.425,0.824,3.644
		C-22.701-22.558-24.007-22.598-25.37-23.771z"/>
	<path fill="#2D3519" d="M48.759-33.672c-3.27-2.932-2.959-4.823,1.044-6.392c0.002-0.002,0.106,0.122,0.104,0.123
		c0.016,1.459,0.032,2.917,0.051,4.375C49.558-34.935,49.157-34.304,48.759-33.672z"/>
	<path fill="#2D3519" d="M-7.273-31.694c-0.925-0.473-2.397,1.074-2.912-0.625c-0.758-2.504,1.876-3.081,2.862-4.606
		C-5.858-35.196-5.818-33.451-7.273-31.694z"/>
	<path fill="#2D3519" d="M98.11-6.779c-2.502,0.013-4.425,0.171-4.457-2.563c-0.021-1.621,6.457-8.496,7.828-7.953
		c2.189,0.869,3.031,3.22,2.979,5.217C104.346-7.754,100.78-7.264,98.11-6.779z"/>
	<path fill="#2D3519" d="M146.804-17.189c1.777,0.529,2.838,1.71,2.77,3.573c-0.066,1.827-1.598,1.769-2.9,1.899
		c-2.229-2.811-4.922-1.605-7.738-1.205c-2.271,0.322-6.066,1.424-6.588-1.461c-0.627-3.474,3.591-2.404,5.634-3.207
		C140.831-18.71,143.841-17.211,146.804-17.189z"/>
	<path fill="#2D3519" d="M46.626,15.34c-0.102,1.809-0.194,3.871-2.547,3.334c-1.867-0.427-4.969,0.188-5.129-2.766
		c-0.141-2.57,2.008-4.241,4.406-4.52C46.046,11.077,46.237,13.498,46.626,15.34z"/>
	<path fill="#2D3519" d="M125.555-14.514c-0.271,1.773-1.074,2.506-2.365,2.598c-2.057,0.146-6.817-5.077-6.532-7.171
		c0.227-1.671,1.336-3.2,2.901-2.419C122.544-20.014,121.952-15.365,125.555-14.514z"/>
	<path fill="#2D3519" d="M-16.201,25.977c0.784-3.403,5.067-5.258,7.603-3.201c1.656,1.345,1.627,3.297,0.729,4.945
		c-1.087,1.996-2.431,0.892-3.568-0.191c-0.873-0.83-1.812-1.426-3.088-1.086C-15.083,26.287-15.644,26.131-16.201,25.977z"/>
	<path fill="#2D3519" d="M26.907,5.023c-0.668-0.74-1.336-1.481-2-2.225c1.211-2.487,6.604-4.555,8.525-3.31
		c1.021,0.663,0.705,1.4,0.137,2.051C31.81,3.554,30.085,5.698,26.907,5.023z"/>
	<path fill="#2D3519" d="M-21.326,35.541c0.004,2.668-0.39,4.44-2.837,4.533c-2.153,0.081-2.36-1.554-2.184-3.098
		c0.236-2.066,0.129-5.108,2.467-5.344C-21.501,31.396-21.636,34.326-21.326,35.541z"/>
	<path fill="#2D3519" d="M58.552,19.688c0,2.06-0.747,3.244-2.523,3.389c-1.938,0.156-3.191-0.734-3.207-2.809
		c-0.015-1.87,1.411-2.539,2.889-2.813C57.604,17.102,58.282,18.414,58.552,19.688z"/>
	<path fill="#2D3519" d="M108.952-3.732c2.246,0.147,3.047,1.87,3.358,3.615c0.282,1.576-0.96,2.461-2.464,2.15
		c-1.934-0.4-3.075-1.752-3.113-3.809C106.706-3.232,107.616-3.75,108.952-3.732z"/>
	<path fill="#2D3519" d="M-56.36,15.824c0.16-1.584-0.372-3.682,1.816-4.101c1.758-0.336,2.211,1.274,2.067,2.658
		c-0.188,1.812-0.603,3.993-2.702,4.224C-56.695,18.771-56.175,16.884-56.36,15.824z"/>
	<path fill="#2D3519" d="M-74.317,10.52c-0.087,1.414-0.195,2.697-1.855,2.537c-1.617-0.156-2.217-1.355-2.19-2.83
		c0.026-1.437,0.502-2.842,2.233-2.628C-74.456,7.804-74.431,9.381-74.317,10.52z"/>
	<path fill="#2D3519" d="M29.753,12.105c-0.014-1.299-0.026-2.597-0.041-3.895c1.266-0.326,3.068-1.907,3.539,0.38
		C33.698,10.758,32.319,12.314,29.753,12.105z"/>
	<path fill="#2D3519" d="M-146.253-0.822c0.201-2.493,2.972-2.315,4.054-3.896c2.81-1.252,5.782-1.17,8.751-1.055
		c0.925,0.035,2.204-0.297,2.486,0.983c0.305,1.376-0.976,2.514-1.875,2.483C-137.401-2.461-141.617,0.308-146.253-0.822z"/>
	<path fill="#2D3519" d="M-106.779-6.31c-0.269-1.719,0.394-3.176,1.731-3.213c3.312-0.092,5.021-2.017,6.539-4.526
		c0.486-0.803,1.346-1.717,2.436-1.146c1.02,0.531,0.926,1.775,0.671,2.667c-0.819,2.878-2.729,4.914-5.623,5.654
		C-102.866-6.404-104.847-6.48-106.779-6.31z"/>
	<path fill="#2D3519" d="M-126.154-13.623c-0.121,0.564-0.242,1.129-0.364,1.693c-2.277-0.273-5.344,5.859-6.828-0.842
		c1.572-0.81,2.106-2.238,2.305-3.868c2.02-0.774,2.773-3.851,5.634-3.104c0.056,1.315,0.11,2.632,0.165,3.946
		C-126.163-15.33-126.349-14.557-126.154-13.623z"/>
	<path fill="#2D3519" d="M-4.31-13.385c-0.43,1.799-1.264,3.171-3.162,3.246c-1.096,0.044-1.754-0.887-1.775-1.938
		c-0.038-1.866,1.049-3.11,2.8-3.4C-5.044-15.711-4.632-14.446-4.31-13.385z"/>
	<path fill="#2D3519" d="M14.706-28.862c0.22-1.275-1.979-3.09,0.291-3.727c1.746-0.49,3.791-1.576,5.65-0.442
		c1.249,0.761,1.205,2.281,0.943,3.589c-0.35,1.747-1.702,1.754-3.074,1.479c-1.273-0.255-2.533-0.588-3.797-0.888L14.706-28.862z"
		/>
	<path fill="#2D3519" d="M66.647-45.075c-0.197,1.264-0.27,2.98-1.996,2.694c-1.652-0.274-1.865-2.041-1.891-3.517
		c-0.021-1.208,0.406-2.461,1.803-2.416C66.557-48.25,66.567-46.576,66.647-45.075z"/>
	<g>
		<path fill="#2D3519" d="M-97.474,21.508c-0.053-0.113-0.111-0.22-0.177-0.322C-97.814,20.979-97.62,21.758-97.474,21.508z"/>
		<path fill="#2D3519" d="M141.944-6.147c-7.58-3.058-22.804,1.091-28.168-5.469c-8.003-9.791,3.539,18.636,5.75,13.588
			c-3.061,6.965-14.477-1.661-18.066,1.024c-4.195,3.14-5.385,25.257-5.26,25.286c-15.861-3.82,1.906-21.833-1.189-25.742
			c-5.615-7.088-22.18,9.468-29.928,1.095C61.932,0.228,53.22-2.562,54.01,5.172c0.301,2.938,5.087-0.198,4.985,4.146
			c-0.291,12.646,2.758,2.887,8.683,4.785c1.085,0.348,3.84,20.406-1.017,18.408c-9.389-3.863-4.478,0.632-6.646,5.504
			c-5.118-5.413-6.246-13.635-14.902-15.084c-5.121-0.856,6.34,9.965,3.965,12.039c-2.227,1.945-7.51-6.562-9.515-4.283
			c-3.687,4.199,8.06,12.466,4.459,15.156c-4.603,3.438-10.416-10.842-13.591-12.853c-0.919,7.224-0.709,15.019-4.289,21.521
			c-1.715,3.113-6.439,3.604-4.771-1.506c2.541-7.801,1.023-6.344-0.955-12.729c-0.36-1.167,4.457-2.915,4.484-5.992
			c0.182-20.203-14.779-4.845-20.748,6.667c-3.195,0.554-5.921,2.062-8.175,4.53c1.131,3.179,1.834,6.443,2.108,9.794
			c-2.938,4.126,3.377,4.217,1.313,7.385c-0.606,0.934-13.528,2.52-14.858,2.58c-0.186-3.852-2.769-11.924-1.231-15.01
			c1.226-2.462,9.903-10.98,6.806-14.248c-5.5-5.801-17.445,30.668-23.438,25.23c-1.868-1.694,5.192-8.349,4.844-11.363
			c-9.659,8.132-9.062-25.482-17.429-30.866c-0.383,1.806-0.707,3.621-0.977,5.446c-8.146-2.644-7.356-0.349,0.061,2.99
			c6.018,2.709-8.256,17.518-11.62,18.174c-5.188,1.017,7.858-13.941,0.849-12.582c-3.214,0.627-0.18,7.278-5.234,6.523
			c-4.809-0.714-3.454-11.494-9.156-14.72c-2.891-1.636-15.021-10.434-16.006-14.299C-89.493,4.629-77.3-2.088-79.06-6.675
			c-1.253-3.266-10.268,1.094-11.822,1.669c1.807,4.373-7.311,19.598-11.054,17.604c-6.563-3.5,11.265-9.538-6.05-8.886
			c-3.188,5.613-15.341-5.762-19.881,0.236c-4.953,6.543-10.604,9.158-7.48,0.527c0.139-0.383-13.094-2.305-12.689,7.378
			c7.416,7.437,4.429,18.473,11.583,26.585c4.353,4.937,4.569-6.394,9.952-2.579c9.933,7.036,3.129-3.904,10.888-3.346
			c4.594,0.334,2.743,9.541,7.597,11.568c7.133,2.979,7.787,2.064,13.354,2.1c18.507,0.111-4.018,39.436,15.498,31.57
			c0.006-1.281-5.779-17.673,5.771-14.787c11.883,2.972,3.944,35.248,9.383,34.887c0.793-5.016,6.987-26.045,13.902-25.738
			c0.693,0.031,12.875,7.68,14.287,8.609c2.628,1.731,7.87,12.25,9.439,12.606c4.81,1.093,10.39-10.323,15.25-0.153
			c4.359,9.119,13.515,8.035,21.006,3.973c2.055-1.113,7.861-5.814,12.558-7.112c0.001-0.003,0.001-0.005,0.002-0.008
			c1.437-5.335,5.282-5.466,10.744-3.417c0.584-0.982,1.539-1.908,2.979-2.754c3.629-2.13,8.385,3.146,10.147,1.416
			c0.104-0.102-6.358-23.449,3.663-8.406c9.146-0.617-4.574-14.049,9.298-13.188c7.065,0.438,9.136-10.438,13.759-9.861
			c2.204,0.275,5.491,5.908,7.977,4.525c6.229-3.465-2.875-7.197,8.267-8.135c4.515-0.381,12.796-5.806,14.039-10.521
			c0.662-2.522,15.581,8.437,17.965,6.671c-0.675,0.5-2.514-5.435,5.132-7.252c19.467-4.629,19.123-26.041,19.457-36.569
			C146.101,0.938,141.704-2.276,141.944-6.147z M-107.585,24.198c-1.474-3.572,7.783-6.415,9.936-3.012
			c0.039,0.049,0.092,0.136,0.176,0.322C-98.349,23.002-106.214,27.52-107.585,24.198z M117.894,11.258
			c-0.027,0.251-0.04,0.292-0.045,0.234c-0.889,4.467-13.301,9.996-15.523,4.045c-0.31-0.827,14.979-10.186,15.543-4.651
			C117.886,10.64,117.905,10.561,117.894,11.258z"/>
		<path fill="#2D3519" d="M117.849,11.493c0.016-0.078,0.036-0.157,0.045-0.234c0.002-0.135-0.013-0.252-0.025-0.372
			C117.854,11.091,117.843,11.406,117.849,11.493z"/>
	</g>
</g>
<path id="Chalk" fill="#FFF100" d="M130.049-25.909l-1.3-2.012c-6.011-2.301-12.36-4.673-17.627-8.418
	c-4.708-3.347-9.837-4.818-14.85-8.083c-5.643-3.676-15.359-5.653-19.259-11.338c-1.033-1.499-5.592-2.973-7.153-4.002
	c-3.778-2.492-7.665-3.59-11.916-4.962c0.131-0.117,0.267-0.236,0.398-0.352c-1.898-2.925-9.153-7.3-12.66-7.888
	c-0.819-0.137-2.335-3.577-4.062-4.212c-2.807-1.032-3.826-3.478-6.242-4.673c-7.502-3.719-15.033-7.178-22.424-11.144
	c-5.286-2.836-10.554-6.06-16.441-5.76c-0.037-0.104-0.069-0.194-0.112-0.312c-0.161,0.12-0.313,0.238-0.471,0.359
	c-0.53,0.062-0.979,0.177-1.193,0.392c1.514,0.072-3.369,1.96-2.157,2.017c-0.002-0.086,0.086-0.096,0.241-0.048
	c-5.051,3.692-11.504,5.655-16.346,9.392c-3.12,2.409-9.112,5.418-13.212,7.208c-5.947,2.598-11.312,8.965-18.068,9.358
	c-2.264,0.135-7.12,3.771-9.291,4.864c-3.211,1.616-5.644,4.058-8.368,6.335c-0.047-0.164-0.092-0.331-0.137-0.495
	c-3.532,0.114-11.167,3.783-13.538,6.496c-0.584,0.668-5.338,0.749-6.999,2.15c-2.67,2.243-7.251,2.452-10.366,4.543
	c-6.778,4.549-14.135,8.032-20.99,12.425c-2.387,1.53-11.617,5.898-10.136,10.121c0.271-0.406,0.381-0.108,0.434,0.417
	c-0.546,0.314-0.888,0.563-0.459,0.587c-0.004-0.128,0.188-0.088,0.5,0.056c0.039,1.013,0.025,2.194,0.371,1.677
	c-0.209-0.101,0.32-0.432,1.107-0.85c2.797,1.678,5.594,1.814,8.542,3.153c4.869,2.211,9.548,4.693,14.495,6.75
	c7.38,3.065,14.48,6.988,20.89,11.768c-0.074,0.133-0.363,0.648-0.699,1.243c1.136,0.5,2.152,0.948,3.239,1.425
	c-0.653,0.445-1.123,0.765-2.11,1.437c2.666,0.102,4.809,0.184,6.771,0.258c-0.447,4.071,2.958,2.542,4.292,3.721
	c0.612,1.94,2.888,2.129,4.644,2.709c3.517,1.163,3.421,2.076,6.261,3.72c-0.071,0.106-0.143,0.214-0.216,0.322
	c-0.214,0.004-0.43,0.008-0.645,0.012c1.177,1.642,3.237,0.306,4.926,0.851c1.868,0.602,3.895,2.953,5.416,4.218
	c4.917,4.085,12.397,6.392,17.955,9.647c11.14,6.526,22.579,12.272,33.777,18.789c0.028,0.962,2.593,0.415,2.255,0.22
	c0.593-0.302,1.233-0.622,1.792-0.923c0.883,0.579,4.462-4.034,5.24-4.55c4.462-2.955,9.054-5.604,13.423-8.708
	c6.577-4.673,13.756-8.638,21.279-11.575c0.09,0.124,0.438,0.606,0.836,1.167c1.025-0.697,1.943-1.319,2.922-1.984
	c0.104,0.749,0.179,1.288,0.335,2.419c1.39-2.143,2.508-3.867,3.533-5.446c3.633,2.307,3.839-1.221,5.603-1.758
	c2.042,0.396,3.332-1.29,4.819-2.529c2.814-2.346,3.633-1.829,6.558-3.379c0.067,0.11,0.135,0.22,0.203,0.332
	c-0.103,0.178-0.203,0.358-0.304,0.536c2.058-0.182,1.809-2.472,3.197-3.646c1.54-1.304,4.691-1.801,6.62-2.446
	c6.129-2.057,12.077-7.154,17.846-10.171c12.493-6.535,24.516-13.705,37.027-20.33c-0.005-0.008-0.01-0.015-0.014-0.023
	L130.049-25.909z M121.605-25.341c-4.702,3.063-11.095,5.13-15.32,8.681c-1.08,0.907-3.98,2.377-5.667,2.76
	c-2.327,0.523-5.102,3.295-7.413,4.307C87.202-6.965,81.787-0.568,74.97-0.145c-2.297,0.142-7.178,3.801-9.377,4.909
	c-3.238,1.63-5.701,4.087-8.453,6.381c-0.047-0.164-0.092-0.332-0.138-0.496c-4.057,0.155-9.71,3.75-13.109,5.991
	c-1.997,1.305-4,0.037-6.245,1.657c-2.54,1.834-5.312,1.585-7.753,3.063C22.7,25.713,15.707,30.224,8.361,34.346
	c-4.707,2.641-10.34,5.408-13.027,9.826C-15.389,39.32-25.07,33.66-34.802,27.345c-2.834-1.839-6.133-2.828-9.147-4.346
	c-2.717-1.369-4.973-4.418-7.517-5.5c-6.25-2.66-11.5-6.24-18.08-8.416c0.132-0.117,0.267-0.233,0.401-0.349
	c-2.088-3.289-8.246-6.175-11.801-7.801c-1.91-0.877-1.579-2.739-3.579-3.854c-2.467-1.377-4.456-1.738-6.269-4.157
	c-1.636-2.182-5.38-3.092-7.773-4.167c-3.838-1.725-7.531-3.712-11.209-5.751c-3.65-2.024-7.446-4.674-11.542-5.687
	c-2.32-0.573-3.747-3.436-6.33-2.895c2.638-2.514,5.748-4.189,8.846-6.065c3.494-2.114,6.712-5.38,10.54-6.83
	c2.852-1.08,6.875-3.812,9.019-5.978c1.633-1.681,6.382-2.657,8.67-3.552c0.09,0.125,0.437,0.608,0.836,1.168
	c1.015-0.69,1.923-1.309,2.893-1.97c0.106,0.749,0.183,1.286,0.343,2.416c1.372-2.134,2.474-3.848,3.484-5.42
	c3.62,2.313,3.81-1.206,5.558-1.735c2.023,0.41,3.303-1.275,4.773-2.505c2.798-2.34,3.589-1.805,6.499-3.346
	c0.066,0.109,0.135,0.22,0.202,0.331c-0.101,0.179-0.199,0.356-0.298,0.535c2.044-0.171,1.786-2.462,3.157-3.627
	c1.575-1.338,4.646-1.777,6.564-2.416c6.07-2.029,11.964-7.097,17.677-10.083c12.003-6.275,23.511-13.252,35.556-19.556
	c2.531,1.368,5.901,1.555,8.648,2.901c4.092,2.005,8.142,3.901,12.363,5.62c7.399,3.014,14.542,6.882,20.982,11.624
	c-0.072,0.134-0.358,0.649-0.69,1.248c1.142,0.492,2.162,0.932,3.252,1.404c-0.65,0.448-1.118,0.771-2.098,1.451
	c2.666,0.084,4.808,0.15,6.772,0.212c-0.415,4.074,2.978,2.52,4.323,3.689c0.627,1.937,2.903,2.109,4.665,2.678
	c3.523,1.136,3.438,2.056,6.292,3.675c-0.071,0.108-0.142,0.217-0.213,0.325c-0.216,0.005-0.431,0.01-0.646,0.017
	c1.189,1.633,3.239,0.283,4.933,0.815c1.872,0.589,3.919,2.926,5.45,4.18c4.951,4.05,12.447,6.306,18.031,9.521
	c11.253,6.479,22.802,12.179,34.11,18.656C122.437-25.901,122.024-25.614,121.605-25.341
	C118.994-23.64,122.024-25.614,121.605-25.341z"/>
</svg>
