<?xml version="1.0" encoding="utf-8"?>
<!-- Generator: Adobe Illustrator 16.0.4, SVG Export Plug-In . SVG Version: 6.00 Build 0)  -->
<!DOCTYPE svg PUBLIC "-//W3C//DTD SVG 1.1//EN" "http://www.w3.org/Graphics/SVG/1.1/DTD/svg11.dtd">
<svg version="1.1" id="Layer_1" xmlns="http://www.w3.org/2000/svg" xmlns:xlink="http://www.w3.org/1999/xlink" x="0px" y="0px"
	 width="841.89px" height="595.281px" viewBox="0 0 841.89 595.281" enable-background="new 0 0 841.89 595.281"
	 xml:space="preserve">
<path id="Shadow" opacity="0.66" fill="#242320" d="M-26.181-64.298c-14.926,7.071-23.151,10.161-24.244,12.551
	s28.253,17.132,34.853,20.756S29.382-5.875,42.359-0.892c2.056,0.79,1.789,0.78,4.51,0.361c19.668-3.024,42.514-20.58,49.506-27.748
	c3.976-4.076-82.032-26.672-94.167-32.719S-14.941-69.623-26.181-64.298z"/>
<g>
	<path fill="#E9EAE0" d="M89.501-53.021C83.497-85.188,64.9-96.099,64.9-96.099s-53.441-29.883-55.622-31.192
		s-4.232-2.589-6.544-2.181c-2.281,0.402-30.708,20.251-43.711,28.338c-0.825,0.115-1.513,0.796-1.594,2.689
		c-0.219,5.017-0.219,32.61-0.219,32.61c0.109,2.835,0.163,4.974,0.163,4.974L45.691-9.377c0,0,17.39-7.384,24.655-10.206
		c0.364-0.141,19.696-15.336,19.696-15.336S92.822-35.242,89.501-53.021z"/>
	<path fill="#D4D4C9" d="M-37.997-99.052c-1.308-0.654-2.03,0.184-3.249,0.507c-0.696,0.184,0.633,0.45,0.776,0.818
		c0.39,1.001-1.464-1.879-1.514,2.086c-0.051,4.18-0.812,31.816,0.169,32.253c0.982,0.437,1.091,4.253,1.963,1.309
		c0.873-2.945-0.981-7.198,2.182-5.017c3.162,2.182,11.561,5.236,11.997,6.435c0.436,1.2,3.49,2.072,3.926,4.362
		c0.436,2.29,6.107-1.309,6.435,1.636c0.327,2.944,2.617-8.617,4.581-0.873c1.963,7.744-5.999-12.324-5.562-16.032
		c0.437-3.708-3.163-8.507,1.746-5.235C-9.64-73.532-8.44-65.788-4.405-63.28c4.035,2.509,7.526,6.217,8.616,4.363
		c1.091-1.854,8.289-5.671,11.233-0.109c2.945,5.562,3.272-0.218,5.235,0.545c1.964,0.764,10.035,5.126,12.651,8.071
		c2.618,2.945-1.308-7.307-7.633-12.106s-39.044-22.685-39.917-23.23C-15.093-86.292-37.997-99.052-37.997-99.052z"/>
	<path fill="#8A8686" d="M68.841-92.976c1.172,0.695,1.79,1.811,2.811,2.622c1.4,1.523,2.673,3.143,3.936,4.771
		c0.703,0.8,1.049,1.872,1.873,2.581c0.52,1.357,1.396,2.441,2.062,3.688c0.188,0.108,0.223,0.331,0.374,0.466
		c3.098,6.069,6.152,12.172,7.684,19.426c-2.684-9.63-6.779-18.194-12.181-25.771c-0.372-0.218-0.237-0.819-0.749-0.932
		c-0.318-0.925-1.119-1.486-1.687-2.223c-0.253-0.225-0.358-0.562-0.749-0.682c-0.124-0.407-0.4-0.697-0.75-0.933
		c-0.062-0.036-0.125-0.072-0.188-0.107c-0.616-1.033-1.634-1.764-2.623-2.515c-0.312-0.18-0.625-0.36-0.937-0.541
		c-8.136-5.265-16.218-9.573-23.985-13.598c-0.998-0.577-1.998-1.154-2.998-1.731c-0.5-0.289-1-0.577-1.499-0.866
		c-4.435-2.395-9.368-5.742-13.492-7.54c-1.499-0.866-2.998-1.731-4.498-2.597c-0.5-0.289-1-0.577-1.499-0.866
		c-1-0.577-1.999-1.154-2.999-1.731c-3.521-1.983-7.246-4.351-10.492-5.809c-0.5-0.289-1-0.577-1.5-0.866
		c-1.564-1.522-2.535,0.584-2.998-0.481c0.548,0.215,0.607-0.504,0.937-0.708c0.479,0.25,0.894,0.375,1.124,0.149
		c2.749,1.421,5.996,3.794,8.432,4.619c0.5,0.289,1,0.577,1.5,0.866c0.749,0.433,1.499,0.866,2.248,1.298
		c4.185,2.25,8.87,5.453,12.742,7.106c1.5,0.866,2.999,1.731,4.498,2.597C45.317-106.252,57.157-99.947,68.841-92.976z"/>
	<path fill="#D4D4C9" d="M69.753-86.48c0.291-0.111-26.338,12.106-22.903,1.881c-0.874-0.103-12.021,9.339-12.843,8.916
		c-1.575-0.711-3.541-0.341-3.681-1.063c-0.481-0.339,0,3.681-3.681-2.045c-0.686-0.083,1.637,4.253-1.473,1.963
		c-0.326,2.372,7.2,4.09,1.116,4.741c-0.892-0.389-1.785-0.778-2.678-1.168c0.972-0.345,0.575-0.47,0.042-1.727
		c-3.947-1.858-7.638-3.308-10.74-3.809c0.783,1.03,1.992,1.772,3.425,2.365c-1.337,0.4-7.505-3.099-10.729-4.24
		C5.353-80.777,5.097-80.888,4.842-81c-4.453-2.805-7.887-6.296-12.549-8.96c-0.029-0.796,0.491-0.706,0.426-1.56
		c-0.989-0.692-1.383-0.427-1.181,0.794c-1.014-0.875-1.997-1.769-3.424-2.366c0.554-1.632,1.713,0.628,2.68,1.168
		c0.583-2.147-4.367-2.165-3.01-3.494c-1.938,1.148-3.788-0.913-6.125-2.67c-0.287-1.358,0.566-0.883,0.435-1.992
		c-0.853-1.124-2.222-1.901-3.807-2.532c-1.346-0.468,0.645,2.213-0.425,1.56c-2.31-0.709-0.732,2.195-3.157,1.562
		c4.908,8.507-6.273-0.04-3.763-6.216c14.888-2.617,28.771-21.842,29.938-21.594c-1.184-0.449-26.012,16.523-27.975,17.832
		c-1.283,0.856-13.588,8.989-12.106,8.671c3.021-0.648,5.871,2.527,30.276,16.357c20.944,11.87,29.627,17.24,33.363,20.125
		C35.562-55.724,15.112-65.622,69.753-86.48z"/>
	<path fill="#F6F6F3" d="M54.539-91.633c-3.783-8.734-4.969-3.436-13.713-8.57c1.717-3.117,1.416,1.433,3.762,0.211
		c-3.457-4.98-11.526-7.894-19.231-10.964c-0.864,2.367,2.804,2.334,3.362,3.947c-4.855-0.518-8.663-5.395-13.526-7.376
		c-0.159-0.064-0.315-0.127-0.474-0.19c-2.545-2.176-5.69-4.036-9.267-5.667c-0.158-0.063-0.316-0.126-0.473-0.19
		c-0.604-1.736-4.168-1.905-5.93-3.029c3.228-0.376,7.126,2.68,9.94,3.989c22.81,9.515-5.513-7.588-5.493-8.48
		c22.577,12.27,49.406,27.812,68.547,39.753c-0.185,0.682-6.779,3.133-7.197,3.108C73.679-92.452,55.022-91.302,54.539-91.633z"/>
	<path fill="#FFFFFF" d="M1.826-42.432c0.187,0.108,0.374,0.216,0.562,0.324C5-41.143,6.664-36.714,8.009-34.865
		c0.351,0.679,0.021,0.64,0,1.25c-0.932-2.127-2.095-4.079-3.185-6.086c-3.006-2.935-6.577-3.666-8.057-3.152
		c0.491-0.809,1.467-0.694,2.248-0.951c0.125,0.072,0.25,0.144,0.374,0.216C0.437-42.995,1.353-42.553,1.826-42.432z"/>
	<path fill="#CAC8C8" d="M9.189-43.734c-0.105-0.854,0.056-1.202,0.369-1.259c0.111,0.079,0.217,0.163,0.183,0.352
		c-0.178-0.097-0.143,0.218-0.183,0.384c0,0.164,0,0.327-0.001,0.49c0,1.636,0.001,3.271,0.001,4.906
		c-0.754-0.091-0.198-3.279-0.369-4.628C9.189-43.57,9.189-43.652,9.189-43.734z"/>
	<path fill="#221D1E" d="M15.812-57.081c0-0.082,0-0.164,0-0.247c0.053-1.266-0.01-2.445-0.369-3.4
		c-1.172-0.965-3.828-2.993-4.231-1.708c0,2.809-0.035,14.655,0.177,15.177c0.93,0.837,1.536,1.259,2.828,1.751
		c0.546,0.068,1.385,0.682,1.467-0.463C15.95-46.604,15.812-55.201,15.812-57.081z M12.317-60.816
		c-0.818-1.262,0.894-0.495,1.104,0.147C13.871-59.89,12.384-61.721,12.317-60.816z M15.445-53.86
		c0.326-0.466,0.134,1.515,0.183,2.069C15.302-51.324,15.495-53.305,15.445-53.86z M15.076-60.45
		c-0.488-0.161-3.071-2.092-3.127-2.051C12.102-62.616,15.76-60.223,15.076-60.45z"/>
	<g>
		<path fill="#8A8686" d="M10.109-31.673c0.012,0.007,0.022,0.013,0.034,0.021c-0.032-0.042-0.06-0.083-0.09-0.125
			C10.071-31.743,10.088-31.708,10.109-31.673z"/>
		<path fill="#8A8686" d="M17.652-42.527c0-5.864,0-11.727,0-17.591c0.087-0.808,0.093-2.152-2.268-3.204
			c-2.007-1.601-5.159-3.494-6.011-2.628c0.085,0.504-0.329,1.104-0.19,1.603c-0.022-0.009-0.042-0.021-0.068-0.028
			c-0.046,2.302-0.091,4.606-0.136,6.909c-0.041,2.072-0.083,4.146-0.123,6.218c-0.005,0.209,0.375,14.51,0.44,17.243
			c-0.109,0.702,0.202,1.475,0.757,2.228c-0.221-0.396-0.375-0.841-0.458-1.341c0.034-2.041,0.023-7.125,0.009-12.605
			c1.828,0.134,5.584,2.74,7.681,4.211c0,0.326,0,0.653,0,0.981c-0.062-0.036-0.123-0.071-0.184-0.106
			c-0.92-0.531-1.84-1.062-2.76-1.593c0,0.082,0,0.164,0,0.246c0.674,0.389,1.349,0.779,2.023,1.167
			c0.307,0.178,0.614,0.354,0.92,0.532c0,0.328,0,0.654,0,0.981c0,0.164,0,0.327,0,0.491c-0.454,3.304,0.568,10.125-0.699,10.616
			c-0.062-0.036-1.084-0.128-1.146-0.165c-2.214-0.727-2.939-1.928-4.779-2.991c-0.172-0.1-0.344-0.199-0.518-0.298
			c2.102,2.707,7.296,5.086,7.509,2.863c0-1.308,0-2.617,0-3.926c0-1.962,0-3.924,0-5.887C17.652-39.91,17.652-41.219,17.652-42.527
			z M17.284-49.609c0,2.535,0,5.07,0,7.604c-0.92-0.531-1.84-1.062-2.759-1.593c-0.981-0.566-1.963-1.133-2.944-1.7
			c-0.491-0.283-0.981-0.566-1.472-0.849c-0.169-0.098-0.338-0.196-0.507-0.294c-0.021-7.06-0.047-14.574,0-16.956
			c-0.007-0.175-0.021-0.346-0.057-0.498c0.005,0.004,0.008,0.008,0.014,0.011c-0.123-1.378,0.107-2.084,0.735-2.029
			c0.92,0.532,1.839,1.062,2.759,1.594c1.042,0.602,2.085,1.204,3.127,1.807c0.036,0.02,0.072,0.041,0.108,0.062
			c0.042,0.048,0.074,0.096,0.092,0.139c0.328,0.777,0.818,1.513,0.859,3.395c0.007,0.275,0.019,0.452,0.035,0.557
			C17.198-55.594,17.375-52.345,17.284-49.609z"/>
	</g>
	<path fill="#D4D4C9" d="M5.164-38.174c0.056,0.523-0.253,0.349-0.375,0.533c0.585,0.867,0.428,1.519,0.938,2.04
		c0.215-0.576,1.776,1.925,2.06,2.939c10.715,5.618,24.127,13.828,33.916,19.332c-9.951-4.868-24.011-14.387-32.792-18.183
		c8.754,5.147,20.311,11.673,31.481,18.174c0.674,2.567-9.979-4.322-10.494-5.059c-0.539-0.281-4.382-1.88-5.809-3.354
		c-2.187-1.262-9.646-6.182-10.119-5.842c-0.187-0.109-0.375-0.216-0.562-0.324c0.584-0.461-4.75-3.342-4.685-2.706
		c-0.749-0.432-1.499-0.865-2.248-1.297c0.245-1.287,0.036-0.942-0.375-0.966c-1.085-6.181-9.208-10.452-9.744-4.876
		c-2.102-1.083-3.349-1.95-5.622-3.245c-0.187-0.108-0.375-0.217-0.562-0.324c-1.868-0.06-8.367-5.168-9.369-5.909
		c-1.124-0.649-5.807-3.439-6.934-4.252c-1.062-0.613-2.123-1.227-3.185-1.84c9.551,4.735,18.396,10.898,23.234,13.165
		c0.134-0.601-0.883-0.331-0.75-0.933c0.562,0.324,1.124,0.649,1.687,0.974c-0.001-0.25,0.783,0.157,0.749,0.683
		c0.256-0.76,1.951-3.528,3.935-2.725C0.086-41.532,4.131-38.978,5.164-38.174z"/>
	<path fill="#EBEBEB" d="M10.438-68.484c1.999,1.154,3.998,2.308,5.996,3.461c-1.625-0.356-4.058-2.259-5.996-3.211
		C10.438-68.318,10.438-68.401,10.438-68.484z"/>
	<path fill="#8A8686" d="M9.126-68.992c0.438,0.252,0.874,0.505,1.311,0.757c1.938,0.953,4.372,2.855,5.996,3.211
		c0.562,0.325,1.125,0.649,1.687,0.975c0.141,0.552,0.56,0.495,0.188,0.857c-2.873-1.493-6.245-3.938-8.807-4.835
		c-0.062-0.036-0.125-0.072-0.188-0.107C9.303-68.459,9.074-68.619,9.126-68.992z"/>
	<path fill="#E9EAE0" d="M7.354-71.346c0.463-0.388,1.628,0.566,2.544,1.045C9.859-69.388,8.549-70.9,7.99-70.979
		c-0.309,0.965-1.098,1.012-1.272,2.233c-0.924-2.02-2.342-3.279-4.134-3.235c-0.194,1.561,1.746,1.507,2.544,2.317
		c0,1.13,0,2.261,0,3.391c-5.087-2.937-10.175-5.875-15.264-8.812c0.395-2.7-0.126-4.709-2.543-5.284c0.001-0.141,0-0.283,0-0.424
		c1.895,0.559,3.678,3.421,5.088,2.938c-2.034-2.135-4.859-3.675-7.632-5.254c0-0.142,0-0.283,0-0.423
		c3.532,1.572,7.501,5.064,10.176,5.875c-0.966-1.815-4.123-1.972-5.089-3.786c1.697,0.979,3.393,1.958,5.089,2.938
		c1.289,1.742,3.797,2.179,5.087,2.513c1.696,0.979,3.391,1.958,5.087,2.938c-0.059,0.326,0.125,0.472,0.318,0.608
		c-0.053,1.03,0.489,1.608,0.954,2.246C6.866-70.301,7.408-70.254,7.354-71.346z M0.041-73.449
		c-0.237-1.092-1.784-1.195-2.544-1.892c0,0.424,0,0.848,0,1.272C-1.705-73.958,0.234-71.665,0.041-73.449z"/>
	<path fill="#EBEBEB" d="M-41.471-64.906c0.007,0.314-0.115,1.016-0.205,1.146c-0.306-4.921,0.245-11.453-0.003-18.708
		c-0.196-5.72-0.283-14.317,0.781-14.522c-0.297,0.184,0.613,0.266,0.347-0.287c0.368,0.021,0.837-1.706,2.245-0.335
		c-1.717-0.417,0.341,0.637,1.349,1.229c0,0.076,0,0.15,0,0.226c-2.202-1.583-2.798-2.041-3.165-0.117
		c0,0.075-0.899,0.375-0.899,0.45c-0.394,4.121-0.011,9.289-0.123,13.946C-41.112-75.631-41.714-70.417-41.471-64.906z"/>
	<path fill="#EDEDED" d="M-39.154-96.051c-0.218,0.765,0.555,0.78,0.337,1.544c-0.302-1.048-0.894-0.706-1.349-0.779
		c0,1.2,0,2.399,0,3.599c-0.056-0.033-0.113-0.065-0.169-0.098c0-1.199,0-2.398,0-3.598c0-0.075,0-0.15,0-0.225
		c0.434,0.005,0.811-0.101,1.013-0.54C-39.266-96.116-39.21-96.083-39.154-96.051z"/>
	<path fill="#EDEDED" d="M-22.626-88.533c0.959,1.225,3.089,1.563,4.048,2.787c-2.38-1.698-4.717-2.118-6.747-3.896
		c0.45,0.26,0.9,0.52,1.349,0.779c0-0.15,0-0.3,0-0.449C-23.525-89.052-23.075-88.792-22.626-88.533z"/>
	<path fill="#8A8686" d="M-35.181-64.491c1.28,0.042,3.528,1.934,5.183,2.692c1.803,1.041,3.606,2.082,5.41,3.123
		C-27.669-59.754-31.725-62.695-35.181-64.491z"/>
	<path fill="#8A8686" d="M-40.138-61.644c0.225,0.13,0.45,0.26,0.676,0.391c0.075,0.043,0.151,0.086,0.226,0.13
		c0.021,0.486,0.575,0.566,0.45,1.162c-0.512-0.516-1.758-0.475-1.577-1.513C-40.226-61.412-40.096-61.365-40.138-61.644z"/>
	<path fill="#FFFFFF" d="M-32.025-56.66c1.202,0.694,2.404,1.388,3.605,2.082c3.127,1.71,5.738,3.404,3.606,2.381
		c-3.214-1.54-8.018-4.867-10.817-6.245c-0.15-0.086-0.3-0.173-0.451-0.261C-36.036-59.324-33.186-57.167-32.025-56.66z"/>
	<path fill="#D4D4C9" d="M-37.209-64.459c0.183,0.162,0.226,0.431,0.451,0.56c1.105,1.292-0.127,3.331,1.126,3.956
		c-0.025,0.553-0.746-0.223-0.676,0.511c-0.15-0.086-0.3-0.173-0.451-0.26c-0.003-0.499-0.625-0.529-0.677-0.991
		c0.3-0.129,0.839,0.199,0.902-0.381c-0.337-0.247-0.832-0.373-0.902-0.821C-36.574-61.249-37.006-63.987-37.209-64.459z"/>
	<path fill="#CAC8C8" d="M-39.237-61.124c0.31,0.167,0.495,0.428,0.676,0.691c0.257,1.475-1.987,0.055-2.028-0.871
		c0.048-0.309,0.25-0.323,0.451-0.34c0.042,0.28-0.087,0.233-0.225,0.17c-0.181,1.038,1.065,0.998,1.577,1.512
		C-38.662-60.557-39.216-60.638-39.237-61.124z"/>
	<path fill="#19181A" d="M48.58-49.22l-4.084-7.19c-3.162,2.018-4.715,1.787-6.299,3.681c-0.734,1.146-1.117,2.863-0.244,4.171
		c0.35,1.387,6.953,11.861,8.479,14.424c0.409,0.736,0.437,1.554,1.363,2.018c1.73,1.435,3.959-0.135,5.944-1.69
		C52.158-40.623,50.413-45.477,48.58-49.22z M48.638-48.123c-0.125-0.236-0.253-0.478-0.384-0.722
		C48.386-48.607,48.516-48.367,48.638-48.123z"/>
	<path fill="#19181A" d="M85.695-55.837c-1.309-9.815-2.834-15.487-4.09-17.832c-1.092-2.04-2.965-1.491-2.955-1.671
		c-1.564,0.88-3.131,1.759-4.695,2.64c-0.375,0.211-0.751,0.422-1.126,0.633c-0.72,0.496-2.177,1.384-2.954,1.834
		c-0.008,0.515,1.781,3.169,2.618,4.772c0,0,0.806,1.556,1.081,2.05c2.518,4.52,5.564,14.686,5.563,14.731
		C81.613-50.733,85.75-52.128,85.695-55.837z"/>
	<path fill="#625F61" d="M39.957-47.453c-0.031,0.134-0.17,0.542-0.324,0.911l0.304,0.419l1.253,1.963
		c0.895-1.738,1.61,0.373,2.163,0.143c0.892-2.488-0.126-3.912,1.268-6.012c-1.964-0.613,0.365-3.639,0.572-4.212
		c-1.427,1.078-4.548,3.121-5.664,4.418c-0.067,0.616,1.938,1.137,1.718,1.635C41.195-48.382,40.095-47.426,39.957-47.453z"/>
	<path fill="#625F61" d="M43.535-54.876c-0.639,0.36-4.928,2.475-5.071,3.661C38.402-50.707,45.547-56.007,43.535-54.876z"/>
	<path fill="#625F61" d="M76.931-71.981c0.854,0.396,0.879-0.408,0.775-0.718c-0.297-0.362-2.184,0.1-2.495,0.422
		c-0.738,0.767-1.97,1.078-2.495,2.113C74.492-70.84,75.831-72.492,76.931-71.981z"/>
	<path fill="#625F61" d="M75.333-62.381c0.662-1,4.359-2.076,5.235-2.699c-0.144-0.782,0.612-0.489,0.858-1.077
		c-0.037,0.091,0.24-0.012,0.165-0.255c0.093,0.173,0.19,0.296,0.315,0.189c-0.049-0.195-0.369-0.442-0.229-0.6
		c0.225,0.266,0.445,0.967,0.854,0.801c-0.539-1.967-0.611-5.445-1.883-6.828c0.186,0.379-1.761,2.59-1.723,2.941
		c-0.52,0.368-0.502,0.556-0.943,1.057c-0.022-0.428-1.562-0.814-1.497-1.225c-0.896,0.96-3.071,0.948-3.853,2.135
		c-0.068,1.363,2.535-0.327,1.635,3.518C74.701-64.221,74.748-62.936,75.333-62.381z"/>
	<path fill="#AAA999" d="M80.773-9.172c-0.435-1.502-0.064-3.615-0.188-5.354C81.02-13.023,80.65-10.911,80.773-9.172z"/>
	<path fill="#5E5D59" d="M80.585-14.777c-0.033-0.232,0.074-0.193,0.188-0.142c0.273,0.294,0.969,0.268,0.938,0.79
		c-0.8-0.361-0.179,1.991-0.375,2.783c0,0.333,0,0.667,0,0.999c-0.17,0.34-0.064,1.209-0.374,1.283
		c-0.063-0.036-0.126-0.073-0.188-0.109c-0.123-1.739,0.247-3.851-0.188-5.354C80.585-14.609,80.585-14.693,80.585-14.777z"/>
	<path fill="#AAA999" d="M81.335-10.347c0.152,0.136,0.187,0.358,0.375,0.467c0,0.083,0,0.166,0,0.249
		c0.691,0.56,1.865,0.754,2.248,1.548c0.057,1.356-1.471-0.313-2.248-0.549c0,0.083,0,0.167,0,0.25
		c-0.25-0.755-0.698-0.127-0.75-0.683C81.271-9.137,81.166-10.007,81.335-10.347z"/>
	<path fill="#221D1E" d="M85.537-10.627c-0.525-0.59-0.975-0.849-1.5-0.866c-0.062,0.004-0.12,0.017-0.176,0.034
		c-0.012-0.012-0.021-0.019-0.021-0.019c-0.226,0.097-0.851,0.418-1.269,0.652c-0.417,0.069-0.67,0.45-0.861,0.946
		c0,0.083,0,0.166,0,0.249c0.387,0.313,0.924,0.514,1.39,0.768c0,0.026,0,0.052,0,0.077c0.22,0.408,0.436,0.818,0.688,1.201
		c-0.41,0.191-1.473-0.862-2.078-1.046c0,0.083,0,0.167,0,0.25s0,0.167,0,0.25c0.605,1.124,1.176,2.275,2.623,2.764
		c2.937-0.819,2.124-1.417,2.328-2.113C86.492-8.684,86.209-9.803,85.537-10.627z"/>
	<path fill="#221D1E" d="M-33.257-85.611c0,1.037,0.383,8.506,0.546,9.651c0.164,1.146,0.164,1.746,2.291,3
		s11.178,6.544,11.178,6.544s1.364,1.2,1.582-0.873c0.218-2.072,0.491-9.598,0.491-9.598s0.818-1.527-2.018-2.944
		c-2.835-1.417-12.269-6.98-12.269-6.98S-33.257-88.501-33.257-85.611z"/>
	<path fill="#8A8686" d="M-32.221-85.339c0.491,0,5.672,2.454,6.817,3.217c1.146,0.764,6.396,3.195,6.715,4.706
		c0.319,1.51-0.389-0.125-0.389-0.125s-6.661-3.77-7.471-3.654c-1.145,0.164-5.508-3.653-5.508-3.653L-32.221-85.339z"/>
	<path fill="#221D1E" d="M26.564-51.962c-1.717-0.982-5.126-2.888-5.126-2.888s-2.072-2.02-2.235,1.661
		c-0.164,3.681,0.548,9.107,0.548,9.107s0.515,2.262,1.578,2.753c1.063,0.491,10.061,5.89,10.061,5.89s1.66,1.475,1.853-1.103
		c0.192-2.578,0.438-8.55,0.438-8.55s0.611-2.315-2.312-3.775C28.445-50.326,26.564-51.962,26.564-51.962z"/>
	<path fill="#8A8686" d="M26.221-50.614c-1.124-0.559-5.19-2.895-5.19-2.895s3.75,2.917,2.671,2.529
		c-1.08-0.387-1.236-0.729-1.146-0.164c0.09,0.566-0.511,0.585-0.981,0.736c-0.47,0.15-1.584,2.158-0.818,2.454
		c0.766,0.295,1.912-2.375,3.027-1.718c1.115,0.658,1.42-0.312,2.454,0.818c1.032,1.13,4.642,3.974,5.972,4.09
		s-1.023-3.192-0.854-2.666c0.173,0.526,0.65-0.233-1.656-0.8C27.393-48.796,30.09-48.691,26.221-50.614z"/>
	<path fill="#951D1F" d="M33.109-32.522L-2.91-52.536c-0.16-0.128-0.37-0.271-0.643-0.43c-2.086-1.216-2.166-3.352-2.166-3.352
		s-2.509-7.776-3.643-13.453c-1.134-5.676-6.933-7.923-6.933-7.923v0.849c0,0,5.449,16.33,5.996,18.339
		c0.547,2.009,2.398,4.04,2.398,4.04l4.853,2.963l0.001,0.003l0.033,0.018l0.023,0.015c0,0,0.001-0.001,0.003-0.001L33-31.54
		L33.109-32.522z"/>
	<path fill="#B53E3A" d="M-15.645-76.379l-0.107-0.438c0,0,4.027,1.721,4.96,6.487c0.933,4.766,2.853,10.785,2.853,10.785
		s2.16,5.651,3.6,6.629c1.439,0.977,1.173,0.947,1.173,0.947l-4.986-3.208c0,0-1.76-2.047-2.266-4.063
		C-10.926-61.256-15.645-76.379-15.645-76.379z"/>
	<path fill="#E9E9E9" d="M62.935-20.562c-0.193,0.186-0.612,0.201-0.653,0.501c-0.229,0.408-0.61,0.7-0.652,1.249
		c0.021,0.582,0.532,0.226,0.652,0.617c0.015,0.14,0.167,0.186,0,0.374c-0.833-0.174-1.463-0.283-1.306-2.231
		c1.224-0.983,2.834-2.335,4.105-2.867c-0.543,0.401-0.973,0.812-1.587,1.413c0.538,0.301,1.195-0.824,1.772-0.899
		c0.184-0.276,0.06-0.784,0.373-0.961c-0.078,0.355-0.122,0.737-0.092,1.173c-0.005,0.174,0.043,0.249,0.092,0.319
		c0.006,0.157,0.12,0.103,0.094,0.319c-0.409,0.064-0.475,0.435-0.934,0.291c0.305-0.145,0.449-0.408,0.467-0.768
		C64.566-20.886,63.613-21.502,62.935-20.562z"/>
	<path fill="#E9E9E9" d="M72.917-24.459c0.203-0.555,1.129-1.311,0.561-1.691c-0.053-0.247,0.177-0.28,0.186-0.481
		c0.057-0.039,0.111-0.082,0.094-0.177c0-0.125,0-0.249,0-0.373c-0.177-0.33-0.855,0.203-0.84,0.732
		c-0.03,0.019-0.062,0.037-0.092,0.054c-0.357,0.186-0.742,0.354-0.748,0.804c-0.279,0.08,0.09-0.317,0-0.498
		c-0.51,0.234-0.012,0.86-0.372,0.962c-0.05-0.072-0.098-0.146-0.093-0.319c0.027-0.27,0.252-0.39,0.279-0.66
		c-0.264,0.114-0.461-0.16-0.654-0.493c0.396-0.217,0.482,0.158,0.654,0.37c0.398-0.073,0.461-0.275,0.934-0.539
		c0.106-0.219-1.092,0.639-1.121,0.024c0.468-0.445,1.902-0.574,2.146-0.99c0,0.166,0,0.333,0,0.498
		c0.619-0.648,0.551,0.718,0.186,1.634c0.006-0.013-1.078,1.49-1.307,1.624C72.753-24.168,72.884-24.276,72.917-24.459z"/>
	<path fill="#BCBAAF" d="M90.464-47.846c-0.029-0.447-0.064-0.834-0.108-1.143c-0.001-0.012-0.024,0.018-0.063,0.081
		c-0.279-3.09,0.098,2.43-0.479,0.1c-0.38-1.535-0.302,1.688-0.422,2.11c-0.12,0.421,0.542,1.687,0.061,1.265
		c-0.481-0.421-1.653,0.498-1.747,1.085c-0.096,0.587-1.869,0.06-1.809,0.301c0.052,0.209-1.635,3.242-1.918,5.178
		c-0.477,0.585-0.947,1.104-1.397,1.513c-3.315,3.014-17.601,11.573-19.409,12.477c-1.808,0.904-10.668,6.57-12.717,6.027
		c-2.05-0.542-4.762-1.868-5.124-3.134c-0.382-1.334,0.302,12.296,0.302,12.477c0,0.181,1.205-0.121,2.109-0.422
		c0.904-0.301,18.686-8.438,18.686-8.619c0-0.181,1.111-0.026,1.852,0.047c0.74,0.074,7.793-5.29,8.877-5.833
		c1.086-0.542,1.477-1.768,1.838-2.069c0.361-0.302,11.965-8.564,11.904-9.268C90.843-36.302,90.707-44.002,90.464-47.846z"/>
	<g>
		<path fill="#D4D4C9" d="M52.585-29.13c-0.006,0.028-0.007,0.05-0.012,0.076c0.009-0.017,0.016-0.034,0.025-0.052
			C52.595-29.113,52.591-29.122,52.585-29.13z"/>
		<path fill="#D4D4C9" d="M52.353-27.334c-0.064-0.323-0.125-0.569-0.125-0.569S52.23-27.591,52.353-27.334z"/>
	</g>
	<path fill="#D4D4C9" d="M88.584-58.169l-0.776,1.146c-0.426-0.126,0.354,4.478,0.286,4.663c-0.101,1.618,0.223,2.928,0.228,2.812
		c-0.148,0.08-0.555,0.377-0.588,0.542c-0.095,0.102-0.408-0.173-0.538-0.104c-0.171,0.366-1.066,1.828-1.21,2.04
		c-0.004,0.003-0.007,0.006-0.01,0.009c0.447-2.004,0.761-3.96,0.739-5.503c-0.097-7.179-3.8-19.03-4.671-20.777
		c-3.695-7.416-11.291-12.27-11.291-12.27l3.131,3.108c0,0,1.951,0.437,7.135,8.67c1.342,2.131,4.349,9.489,4.568,21.759
		c0.018,1.04-1.604,7.54-1.676,7.703c-0.15,0.336-0.611,0.524-0.674,0.651c-0.119-0.065-0.595,0.599-0.844,0.5
		c0.052-0.073,0.1-0.142,0.139-0.203c0-0.003,0-0.007,0-0.01c-0.08,0.037-0.121,0.118-0.146,0.211
		c-0.078-0.032-0.151-0.071-0.219-0.113c-0.437-0.272-1.746,0.873-3.163,1.528c-0.522,0.24-0.8,0.77-1.027,1.343
		c-0.401,0.257-0.823,0.465-1.228,0.62c-0.213,0.255-0.037,0.804-0.094,1.174c-0.068,0.1-0.145,0.193-0.227,0.282
		c-0.051,0.006-0.098,0.017-0.152,0.017c-1.088,0-6.818,5.365-7.615,6.114c-0.48,0.105-1.178,0.381-1.573,0.593
		c-0.003-0.714,0.023-0.375,0.146-0.696c-0.16-0.22-0.598,0.073-0.84-0.262c-0.016,0.486,0.33,1.756,0.803,1.367
		c-0.067,0.143-0.768,0.436-0.844,0.573c-0.027,0.017-0.027,0.056-0.012,0.107c-1.451,0.53-2.414-0.404-4.678-0.762
		c-3.109-0.491-3.163,3.163-5.508,2.89c-2.346-0.273-1.092,0.055-2.51,1.091c-0.786,0.575-1.136,0.344-1.292,0.023
		c0.093,0.455,0.15,1.366,0.14,1.368c0.005,0.029-0.2,0.144-0.24,0.104c-0.054-0.182-0.127-0.346-0.232-0.462
		c-0.09-0.288-0.172-0.647-0.338-0.979c-0.327-0.654-0.273,0.437-2.289,0.6c-0.205,0.017-0.416-0.069-0.62-0.211
		c-0.479-1.457-0.87-2.672-1.032-3.273c-0.546-2.024-6.98-12.038-11.452-22.797c-1.313-3.161-3.272-10.759-3.272-10.759
		c0.327,2.876,1.637,8.736,2.617,10.973c0.967,2.203,8.381,16.344,10.689,22.65c-0.161-0.157-0.305-0.237-0.396-0.154
		c-0.898,0.818-2.617-1.595-2.617-1.595c0.821,3.229,1.404,4.814,1.35,6.135c0,0.083,0.287,2.126,0.287,2.208
		c0,2.161,0.438,4.621,0.438,4.621v1.637c0.377-0.222,0.584,0.29,0.765-0.308c0.038,0.217,1.298,0.131,1.866-0.083
		c0.639,0.782,1.641,0.957,2.818,0.82c1.004,1.384,2.198,2.01,3.614,1.138c0.582-0.358-1.516-0.885-2.349-1.376
		c0.993-0.248,2.055-0.624,3.1-0.997c2.096-0.748,4.462-2.079,6.291-2.321c1.068-0.791,2.566-1.713,4.541-2.669
		c-0.008-0.011-0.014-0.023-0.023-0.034c1.12-0.516,2.271-1.092,3.438-1.735c0.127-0.162,0.293-0.327,0.484-0.492
		c-0.018,0.058-0.033,0.115-0.051,0.172c0.955-0.66,2.49-1.58,3.76-2.321c0.074-0.034,0.146-0.066,0.216-0.098
		c1.599-1.115,3.179-2.372,4.699-3.776c3.878-2.929,7.583-6.063,9.575-9.968c0.156-0.09,1.898-2.387,2.146-1.861
		c0.014-0.337,0.295-1.576,0.295-1.576C90.553-49.092,90.017-54.038,88.584-58.169z M77.028-38.888
		c-0.368,0.289-0.11-0.619-0.188-0.887c0.093-0.054,0.188-0.108,0.28-0.162C77.064-39.607,77.238-39.102,77.028-38.888z"/>
	<path fill="#5E5D59" d="M86.98-54.975c0,0-0.633-3.176-0.512-1.236c0.361,5.787-2.111,13.246-2.938,16.048
		c-0.824,2.803-1.465,2.712-1.465,2.712s-10.95,8.77-11.684,8.68c-0.686-0.085-2.576,0.86-3.83,1.648
		c-0.743,0.38-2.161,1.104-2.385,1.214c-0.306,0.151-0.5,1.075-0.5,1.075s-9.671,4.682-11.412,5.315
		c-1.74,0.633-1.497,0.091-2.047-0.091c-0.55-0.18-3.176-8.499-3.39-9.432c-0.214-0.935-0.917-2.201-0.886-1.93l0.244,1.206
		c0,0,3.023,9.01,3.451,10.126c0.428,1.115,1.497,0.844,2.59,0.477c1.094-0.367,11.46-5.088,11.643-5.209
		c0.184-0.12,0.367-0.633,0.611-0.904c0.244-0.271,2.75-1.566,2.75-1.566l-0.002-0.004c0.383-0.23,2.14-1.559,2.658-1.473
		c0.55,0.09,1.1-0.181,1.283-0.317c0.184-0.135,11.271-8.091,11.912-8.634c0.641-0.542,0.777-1.446,0.777-1.446
		s1.997-7.435,2.164-8.243C86.739-50.454,86.98-54.975,86.98-54.975z"/>
	<path fill="#8A8686" d="M25.378-62.449c1.173,0.695,3.321,3.047,4.342,3.858c1.4,1.524,5.676,8.557,6.34,9.804
		c0.188,0.108,6.526,12.639,8.058,19.893c-2.685-9.63-12.419-26.589-12.931-26.703c-0.318-0.926-5.006-5.709-5.995-6.46
		c-0.313-0.18-0.625-0.36-0.937-0.541c-8.136-5.266-37.852-21.937-41.975-23.734c-1.499-0.867-2.997-1.731-4.497-2.597
		c-0.5-0.288-1-0.577-1.499-0.866c-1-0.577-1.999-1.154-2.999-1.731c-3.521-1.982-7.246-4.351-10.494-5.809
		c-0.5-0.289-1-0.577-1.499-0.866c-1.565-1.522-2.536,0.584-2.999-0.481c0.549,0.215,0.608-0.504,0.938-0.708
		c0.479,0.25,0.894,0.375,1.125,0.15c2.749,1.421,5.995,3.794,8.431,4.619c0.5,0.288,1,0.577,1.5,0.866
		c0.75,0.433,1.499,0.865,2.248,1.298c4.185,2.25,8.869,5.453,12.742,7.106c1.5,0.865,2.999,1.731,4.498,2.597
		C1.854-75.724,13.694-69.419,25.378-62.449z"/>
	<path fill="#625F61" d="M79.657-29.604c-0.144-0.056-0.211-0.254-0.317-0.382c-0.07,0.04-0.142,0.082-0.213,0.124
		c-0.254,0.902-1.126,1.337-1.482,2.164c0.029,0.104,0.054,0.225,0.078,0.357c0.221-0.134,0.359-0.328,0.557-0.478
		c0.061,0.403-0.027,1.091,0.318,0.946c0.035-0.021,0.07-0.042,0.106-0.061c0.22-0.603,1.188-1.415,0.705-1.862
		c0.061-0.183,0.14-0.447,0.134-0.604c0.003,0,0.006-0.001,0.008-0.001C79.616-29.447,79.676-29.495,79.657-29.604z"/>
	<path fill="#19181A" d="M79.32-28.957c-0.281,0.039-0.643,0.716-0.424,0.668c-0.048-0.203,0.577-0.564,0.529-0.306
		c-0.098,0.68-0.623,1.036-0.953,1.54c0.022-0.469-0.188-0.49-0.107-1.069c-0.303-0.022-0.537,0.695-0.635,0.367
		c0.65-0.453,1.217-1.714,1.801-1.747C79.522-29.275,79.261-29.236,79.32-28.957z"/>
	<path fill="#5E5D59" d="M65.978-21.191c-0.295,0.527-0.789,0.906-0.844,1.616c0.027,0.752,0.689,0.292,0.844,0.799
		c0.326-0.077,0.234-0.467,0.363-0.692C66.023-20.458,67.308-22.208,65.978-21.191z"/>
	<path fill="#19181A" d="M66.154-20.959c0.054,0.052,0.047,1.421-0.12,1.839c-0.128-0.025-0.771-0.227-0.241-0.503
		c-0.079-0.438-0.258,0.301-0.482,0.278c-0.266-0.187-0.025-0.701,0.119-1.035c0.312-0.142-0.164,0.372,0,0.643
		C65.658-20.154,65.989-20.495,66.154-20.959z"/>
	<path fill="#AAA999" d="M51.93-14.65c-0.835,0.271-3.646,1.185-5.492,0.881c-0.226-0.038,0.045,0.136,0.045,0.136
		s0.973,0.813,3.571,0.384c2.6-0.429,0.633-0.022,0.543,0.068c-0.091,0.09-0.022,0.678,0.158,0.655
		c0.182-0.023-0.271,0.723-0.113,0.836s-0.236,0.26-0.49,0.413c-0.255,0.152-0.006,0.175,0.785-0.277s2.079-1.017,2.102-0.746
		c0.022,0.271,2.168-1.699,2.18-1.166c0.013,0.533,5.799-3.445,6.024-3.264c0.227,0.181,0.431-1.944,0.34-1.786
		s-4.075,1.634-4.499,1.854C56.474-16.346,51.93-14.65,51.93-14.65z"/>
	
		<ellipse transform="matrix(-0.2204 -0.9754 0.9754 -0.2204 69.9177 32.7825)" fill="#E9EAE0" cx="48.06" cy="-11.55" rx="0.981" ry="1.2"/>
	<path fill="#CFCECC" d="M49.184-11.381c-0.003-0.011-0.003-0.022-0.009-0.034c-0.082-0.131-0.41-0.221-0.815-0.247
		c-0.051,0.017-0.103,0.038-0.159,0.064c-0.391,0.184-0.979,0.282-1.239,0.368c-0.021,0.007-0.031,0.015-0.044,0.023
		c0.068,0.076,0.218,0.137,0.418,0.177c0.017-0.004,0.032-0.005,0.049-0.01c0.359-0.104,1.501-0.256,1.795-0.34
		C49.181-11.38,49.181-11.381,49.184-11.381z"/>
	<path fill="#5E5D59" d="M49.385-11.741c-0.067-0.295-0.294-0.52-0.592-0.637c0.206,0.128,0.358,0.314,0.411,0.547
		c0.119,0.529-0.308,1.076-0.954,1.222c-0.284,0.064-0.562,0.037-0.795-0.056c0.263,0.163,0.613,0.229,0.976,0.146
		C49.079-10.665,49.505-11.211,49.385-11.741z"/>
	<path fill="#AAA999" d="M86.513-34.722c-0.045-0.316,3.633-3.631,3.715-4.37c0.082-0.739-0.233-0.061-0.233-0.061
		s-4.204,4.883-7.323,6.917s-1.99,1.672-1.99,1.672c-0.045,0.543,0.092,1.627,0.317,1.627c0.214,0,3.185-2.06,4.624-3.047
		c0.557-0.314,1.143-0.673,1.705-1.202c0.769-0.724-0.633,0.542-1.312,0.497c-0.003,0-0.007,0-0.011,0
		c-0.088-0.443-0.518-0.903-0.396-0.995C85.791-33.818,86.558-34.406,86.513-34.722z"/>
	
		<ellipse transform="matrix(0.7169 -0.6971 0.6971 0.7169 49.5849 51.8247)" fill="#E9EAE0" cx="88.61" cy="-35.147" rx="1.11" ry="0.828"/>
	<path fill="#CFCECC" d="M89.46-35.497c-0.007-0.01-0.012-0.021-0.021-0.03c-0.121-0.1-0.396-0.077-0.699,0.038
		c-0.027,0.034-0.057,0.071-0.084,0.117c-0.193,0.313-0.568,0.61-0.715,0.784c-0.01,0.013-0.014,0.025-0.02,0.038
		c0.084,0.051,0.219,0.06,0.381,0.03c0.01-0.009,0.021-0.015,0.031-0.026c0.208-0.225,0.953-0.763,1.124-0.946
		C89.459-35.495,89.459-35.495,89.46-35.497z"/>
	<path fill="#5E5D59" d="M89.847-35.312c-0.061-0.259-0.264-0.454-0.532-0.557c0.185,0.112,0.322,0.274,0.37,0.478
		c0.107,0.462-0.277,0.94-0.857,1.068c-0.256,0.057-0.504,0.032-0.715-0.049c0.236,0.143,0.552,0.199,0.877,0.128
		C89.571-34.372,89.955-34.85,89.847-35.312z"/>
	<path fill="#E9EAE0" d="M-17.041-76.636c0,0-0.273,7.525-0.491,9.598c-0.217,2.072-1.582,0.872-1.582,0.872
		s-9.051-5.289-11.179-6.544c-2.126-1.254-2.126-1.854-2.29-2.999c-0.154-1.083-0.504-7.809-0.542-9.421
		c-0.001,0.058-0.004,0.116-0.004,0.18c0,1.037-0.046,8.735,0.117,9.881c0.164,1.145,0.359,1.887,2.486,3.142
		c2.126,1.255,11.256,6.645,11.256,6.645s1.52,0.727,1.737-1.346c0.218-2.072,0.491-9.598,0.491-9.598s0.148-0.288,0.093-0.726
		C-16.979-76.753-17.041-76.636-17.041-76.636z"/>
	<path fill="#D4D4C9" d="M47.72-55.291c-0.463-0.725-1.314-1.259-1.309-1.921c1.301-0.754,2.928-1.705,4.126-2.45
		c0.595-0.334,1.189-0.669,1.784-1.003c2.098-1.262,4.441-2.334,6.386-3.714c0.813-0.458,1.627-0.916,2.441-1.373
		c1.413-0.842,5.501-2.866,7.417-3.959l-5.786,2.351c-1.728,1.002-1.55,0.228-3.259,1.247c-0.814,0.458-1.627,0.915-2.441,1.373
		c-1.943,1.38-4.287,2.453-6.386,3.715c-0.595,0.334-1.188,0.669-1.784,1.003c-1.198,0.745-2.824,1.696-4.126,2.45
		c-0.006,0.662,0.847,1.197,1.309,1.922c2.454,3.844,7.116,13.25,7.976,20.286c0.439-0.3,0.92-0.611,1.433-0.93
		C54.284-43.149,50.027-51.677,47.72-55.291z"/>
	<path fill="#19181A" d="M70.017-66.961l-1.635-2.822c-1.729,1.002-5.52,3.12-7.227,4.138c-0.814,0.458-1.627,0.915-2.441,1.373
		c-1.943,1.38-4.289,2.453-6.387,3.714c-0.594,0.334-1.188,0.669-1.783,1.003c-1.199,0.746-2.825,1.697-4.127,2.45
		c-0.006,0.662,0.847,1.197,1.31,1.922c2.454,3.845,7.116,13.251,7.976,20.286c5.193-3.558,16.08-8.544,21.758-12.923
		C76.888-53.097,72.389-61.931,70.017-66.961z"/>
	<path fill="#625F61" d="M53.576-48.298c0.033-0.435-0.201-1.696,0.205-1.84c0.156,0.316,1.089,1.416,1.145,1.922
		c0.324-0.167-0.482-1.219-0.164-1.391c1.982,1.327,4.703-5.193,7.771-5.685c1.469-0.235,0.713-1.125,2.126-2.208
		c0.065-0.606-0.203-0.597-0.174-1.138c1.457-0.216,2.731-1.822,3.61-1.071c0.02-0.858,0.264-0.934,0.572-1.062
		c0.298-2.095-0.215-4.941-0.491-6.708c-2.869,1.294-8.937,5.377-12.011,7.324c-0.342-0.119-0.729-0.156-1.213,0.065
		c-2.5,1.137-4.398,2.738-6.244,3.94C50.447-54.865,52.916-51.385,53.576-48.298z"/>
	<path fill="#BCBAAF" d="M83.902-16.278c-0.193,0.009,1.996,1.87,2.123,1.905c0.127,0.035-0.317,0.312-0.031,0.485
		c0.285,0.174,0.316,0.416,0.443,0.173s0.856-0.624,0.571-0.9C86.723-14.893,84.63-16.313,83.902-16.278z"/>
	<path fill="#AAA999" d="M86.5-13.588c-0.242-0.46-2.666-1.158-2.811-1.622c-0.145-0.465-2.435-3.539-2.916-3.117
		c-0.483,0.422-1.387,0.844-1.99,0.542c-0.602-0.3-1.025-1.586-0.617-1.34c0.406,0.246,1.943,0.738,1.521,0.196
		c-0.422-0.543-2.35-1.085-2.35-1.507c0-0.422,0.24-2.833,0.059-2.05c-0.18,0.784-0.301,1.989-0.783,1.809
		c-0.482-0.181-1.205-0.543-1.205-0.964c0-0.422,0.783-1.024,0.361-2.23s-0.24,0.241-0.603,1.085
		c-0.361,0.843-0.913,1.548-1.782,1.376c-0.869-0.171,0.818-1.135,0.154-1.135c-0.662,0-2.832,0.964-2.832,0.964
		c-0.422,0.302-0.604,0.844-0.604,1.146c0,0.301,13.924,7.655,14.467,7.776c0.543,0.12,2.23,1.566,2.832,1.085
		C88.005-12.059,86.742-13.129,86.5-13.588z M74.865-20.196c0-0.181-0.181-1.145,0.242-1.145c0,0,0.12,0.723,0.12,1.326
		C75.227-19.413,74.865-20.015,74.865-20.196z"/>
	<path fill="#E9EAE0" d="M84.011-13.689l2.064,1.449c0,0,1.447,0.664,0.543-0.723c-0.903-1.387-1.387-0.844-1.868-0.724
		C84.268-13.566,84.011-13.689,84.011-13.689z"/>
	<path fill="#BCBAAF" d="M80.532-18.002c0.361-1.566,0.12-2.772,0.663-2.531c0.541,0.242,2.229,1.326,1.808,0.242
		c-0.422-1.085-0.017-2.84,0.595-1.812c0.611,1.028,0.74,2.395,0.373,2.465c-0.364,0.069-1.028,1.093-1.148,0.853
		c-0.121-0.24-0.604-0.844-0.663,0.241c-0.06,1.085,0.724,1.87,0.724,2.592c0,0.724-1.085-0.181-1.266-1.507
		C81.435-18.786,80.532-18.002,80.532-18.002z"/>
	<path fill="#5E5D59" d="M84.414-20.015c-0.857,0-1.713,0.648-1.713,0.972c0,0.325-0.244,0.487,0.855-0.243
		C84.658-20.015,84.414-20.015,84.414-20.015z"/>
	<path fill="#5E5D59" d="M77.333-20.238c0.472-0.222,0.877-1.11,0.399-2.127c-0.249-0.53-0.209-0.872-0.386,0.666
		C77.167-20.161,77.333-20.238,77.333-20.238z"/>
	<path fill="#625F61" d="M86.664-14.5c-1.111-0.575-1.662-1.563-2.875-1.975c1.296,0.178,2.326,0.781,3.434,1.261
		c0.082,0.278,0.506,0.022,0.316,0.835c-0.264,0.127-0.76,0.639-1.115,0.648C86.367-13.745,87.13-14.214,86.664-14.5z"/>
	<path fill="#5E5D59" d="M-3.915-37.917l-28.883-17.263l-5.516-3.255c0.362,0.994,5.877,4.702,8.951,6.51
		c3.074,1.808,17.638,11.535,17.638,11.535s0.807,0.625,1.258,1.348c0.452,0.724,0.238,1.022,0.616,1.483
		c0.379,0.461,6.042,3.355,6.042,3.355s-0.123,0.399-0.226-1.718C-4.125-37.773-3.915-37.917-3.915-37.917z M-10.189-40.052
		c-0.252,0.102-0.56-0.071-0.688-0.385c-0.127-0.315-0.027-0.654,0.225-0.755c0.252-0.103,0.56,0.07,0.688,0.385
		C-9.837-40.493-9.938-40.155-10.189-40.052z M-8.604-38.34c-0.391,0.13-0.833-0.137-0.987-0.599
		c-0.155-0.462,0.037-0.942,0.427-1.073c0.391-0.13,0.833,0.138,0.987,0.6C-8.022-38.952-8.213-38.471-8.604-38.34z"/>
	<path fill="#221D1E" d="M3.161-38.203c-0.832-0.432-2.833-3.032-5.515-1.958c-2.261,0.904-1.658,4.792-1.417,5.876
		c0.241,1.085,1.278,4.558,2.049,5.244c0.813,0.723,1.894,2.759,4.882,2.169c6.419-1.265,3.413-3.264,3.572-3.662
		C7.094-31.437,4.668-37.418,3.161-38.203z"/>
	<path fill="#CAC8C8" d="M-1.628-37.588c0.381-0.211,2.109-1.808,4.521,2.351s0.422,5.666,0.061,5.907
		c-0.362,0.241-1.447,0.724-3.375-0.663C-2.352-31.38-3.482-36.564-1.628-37.588z"/>
	<path fill="#8A8686" d="M0.36-37.89c-0.542,0-1.312-0.335-1.47,0.224s1.214,2.475,1.312,2.451c0.098-0.023-0.867,0.339-0.444,0.339
		c0.422,0,1.386,0.542,1.627,0.783c0.241,0.241,0.132-0.99-0.808-1.459c-0.94-0.469,0.425-0.83,0.375-1.283
		C0.903-37.287,0.842-37.89,0.36-37.89z"/>
	<path fill="#FFFFFF" d="M-0.627-38.027c-0.094,0.498,0.264,1.162,0.625,1.524c0.362,0.362-0.181-0.543-0.181-1.024
		c0-0.482,0.369-0.487,0.305-0.816C0.059-38.673-0.59-38.225-0.627-38.027z"/>
	<path fill="#221D1E" d="M0.161-35.854c-0.299-0.464-0.34-1.569,0.625-1.3c0.964,0.269,0.033,1.283-0.109,1.629
		C0.534-35.178,0.438-35.422,0.161-35.854z"/>
	<path fill="#221D1E" d="M-0.71-34.966c-0.241-0.422-1.2-0.781-1.121-0.117c0.066,0.553-0.1,0.81,0.383,0.689
		C-0.966-34.514-0.71-34.966-0.71-34.966z"/>
	<path fill="#8A8686" d="M1.883-36.809c-0.143,0.265-0.998,1.202-0.812,1.185c0.186-0.016,0.359,0.487,0.962-0.318
		C2.636-36.748,1.897-36.835,1.883-36.809z"/>
	<path fill="#221D1E" d="M1.859-30.626c-0.389-0.381-1.692,0.944-1.188,0.954c0.503,0.01,1.415,0.36,1.403,0.062
		C2.063-29.911,2.089-30.401,1.859-30.626z"/>
	<path fill="#8A8686" d="M-2.333-34.384c-0.422-0.824-0.171-2.481,0.188-2.64c0.663,0.249,0.966,0.769,1.124,1.398
		c-0.246-0.054-0.294,0.27-0.562,0.175c-0.083-1.31-0.262,0.362-0.562,0.175c-0.029-0.312,0.032-0.691-0.188-0.858
		C-2.333-35.55-2.333-34.967-2.333-34.384z"/>
	<path fill="#8A8686" d="M0.062-31.84c-0.396,0.076-0.457,0.43-0.681,0.836c0.28,0.119,0.624,0.718,0.681,0.412
		c-0.104-0.059-0.213-0.325,0-0.25c0.235,0.238,0.383,0.543,0.374,0.966c-0.462-0.3-0.318,0.121,0,0.25
		c0.486,1.056-1.055-1.408-0.964-0.504c-0.279-0.27-0.633-0.889-0.859-1.312c0.561,0.322,0.925-0.152,1.075-0.617
		c0-0.083,0-0.166,0-0.249c0.152,0.04,0.188-0.144,0.375-0.034C0.062-32.174,0.062-32.007,0.062-31.84z"/>
	<path fill="#221D1E" d="M-0.364-32.513c-0.784,0.948-0.943,1.06-1.25,0.312c-0.306-0.746,0.289-0.561,0.609-0.659
		C-0.685-32.958-0.076-32.861-0.364-32.513z"/>
	<path fill="#8A8686" d="M-0.451-33.66c0.27,0.794-1.223-0.126-0.952,0.667c-0.405-0.273-0.669-0.699-0.866-1.196
		C-1.663-34.012-1.058-33.836-0.451-33.66z"/>
	<path fill="#221D1E" d="M3.689-32.3c0.019,0.786-0.229,1.062-0.375,1.532c-0.354-0.565-0.831-1.038-0.75-1.933
		C3.138-32.188,3.116-32.813,3.689-32.3z"/>
	<path fill="#8A8686" d="M0.021-32.878c-0.284-0.064,0.796,0.461,0.272,0.88c-0.271,0.216,0.335,0.021,0.439,0.209
		c0.105,0.188,0.126,0.146,0.23,0c0.105-0.146-0.021,0.355,0.126,0.188c0.147-0.167,0.314-0.67,0.544-0.335
		c0.23,0.335,0.649,0.272,0.356-0.126c-0.293-0.398-0.679-0.598-0.329-0.498s0.434,0.142,0.036-0.381
		c-0.398-0.523-0.46-0.858-0.921-0.816c-0.46,0.042-0.517,0.495-0.377,0.419c0.503-0.273,0.984,0.816,0,0.146
		C0.024-33.446,0.754-32.71,0.021-32.878z"/>
	<path fill="#8A8686" d="M2.758-35.685c-0.441-0.469-1.584,0.763-0.706,1.747c0.876,0.982,1.621,1.349,1.653,0.688
		C3.737-33.91,3.164-35.253,2.758-35.685z"/>
	<path fill="#221D1E" d="M1.292-34.584c0.268-0.378,0.717-1.266,0.895-0.876c0.177,0.39,0.713,1.525,0.392,1.471
		c-0.322-0.054-1.447,0.108-1.339-0.216C1.346-34.53,1.292-34.584,1.292-34.584z"/>
	<path fill="#FFFFFF" d="M2.239-33.662c1.135,0.032,1.349-0.847,1.4-0.673c0.05,0.174,0.252,0.868-0.21,1.003
		C2.965-33.197,1.516-33.683,2.239-33.662z"/>
	<path fill="#8A8686" d="M2.295-31.051c0.496-0.678,0.598,1.074,1.093,0.396c0.008,0.489-0.188,0.95-0.483,1.396
		C2.702-29.857,2.499-30.454,2.295-31.051z"/>
	<path fill="#5E5D59" d="M34.933-15.464c-0.994-0.452-4.801-2.974-4.801-2.974s0.019,0.022-0.398-0.207
		c-0.006,0.028-0.008,0.057-0.02,0.083c-0.162,0.332-0.846,0.334-1.528,0.003s-1.105-0.869-0.944-1.201
		c0.039-0.079,0.107-0.137,0.197-0.179c-1.213-0.688-1.909-0.95-1.909-0.95s-7.082-3.619-8.398-4.765
		c-0.011,0.035-0.021,0.071-0.041,0.102c-0.266,0.394-1.135,0.27-1.942-0.275c-0.806-0.546-1.245-1.306-0.979-1.699
		c0.055-0.083,0.143-0.138,0.246-0.175C11.764-29.389,6.513-32.1,6.513-32.1c-0.271,0.633-0.06,2.441,0.935,3.165
		C8.442-28.212,23.18-19.804,25.169-18.9c1.989,0.904,18.454,8.501,18.454,8.501S35.927-15.012,34.933-15.464z"/>
</g>
</svg>
