<?xml version="1.0" encoding="utf-8"?>
<!-- Generator: Adobe Illustrator 15.0.2, SVG Export Plug-In . SVG Version: 6.00 Build 0)  -->
<!DOCTYPE svg PUBLIC "-//W3C//DTD SVG 1.1//EN" "http://www.w3.org/Graphics/SVG/1.1/DTD/svg11.dtd">
<svg version="1.1" id="Layer_1" xmlns="http://www.w3.org/2000/svg" xmlns:xlink="http://www.w3.org/1999/xlink" x="0px" y="0px"
	 width="841.89px" height="595.28px" viewBox="0 0 841.89 595.28" enable-background="new 0 0 841.89 595.28" xml:space="preserve">
<path fill-rule="evenodd" clip-rule="evenodd" fill="#E9EAE0" d="M367.219,212.905c-16.604-88.944-68.025-119.113-68.025-119.113
	s-147.771-82.63-153.803-86.25c-6.031-3.619-11.703-7.157-18.094-6.031C120.989,2.623,42.385,57.509,6.432,79.869
	c-2.281,0.318-4.184,2.202-4.41,7.436c-0.604,13.872-0.604,90.17-0.604,90.17c0.301,7.841,0.451,13.753,0.451,13.753
	l244.209,142.359c0,0,48.083-20.417,68.174-28.218c1.006-0.391,54.461-42.408,54.461-42.408S376.397,262.069,367.219,212.905z"/>
<path fill="#D4D4C9" d="M14.672,85.625c-3.617-1.81-5.613,0.51-8.984,1.402c-1.924,0.509,1.752,1.244,2.148,2.262
	c1.076,2.768-4.049-5.195-4.186,5.768c-0.143,11.558-2.246,87.976,0.467,89.183c2.715,1.207,3.016,11.762,5.43,3.619
	c2.412-8.143-2.715-19.904,6.031-13.872c8.744,6.032,31.967,14.477,33.172,17.793c1.207,3.317,9.65,5.729,10.857,12.062
	c1.205,6.333,16.887-3.618,17.793,4.524c0.904,8.142,7.236-23.826,12.666-2.414c5.428,21.412-16.588-34.078-15.381-44.331
	c1.207-10.253-8.746-23.522,4.826-14.476c13.57,9.047,16.887,30.46,28.045,37.396s20.809,17.19,23.824,12.063
	c3.016-5.127,22.92-15.682,31.062-0.302s9.047-0.604,14.475,1.507c5.43,2.112,27.746,14.175,34.982,22.317
	c7.238,8.143-3.617-20.205-21.109-33.475S82.829,123.925,80.417,122.417C78.002,120.909,14.672,85.625,14.672,85.625z"/>
<path fill-rule="evenodd" clip-rule="evenodd" fill="#8A8686" d="M310.09,102.427c3.242,1.922,4.951,5.008,7.771,7.25
	c3.873,4.212,7.393,8.689,10.881,13.191c1.947,2.213,2.904,5.175,5.182,7.137c1.434,3.752,3.863,6.751,5.699,10.199
	c0.52,0.299,0.617,0.915,1.035,1.289c8.568,16.783,17.012,33.658,21.246,53.715c-7.422-26.629-18.744-50.309-33.68-71.259
	c-1.029-0.601-0.658-2.263-2.072-2.577c-0.881-2.558-3.094-4.109-4.664-6.145c-0.699-0.622-0.99-1.556-2.072-1.887
	c-0.342-1.125-1.107-1.928-2.072-2.58c-0.172-0.099-0.344-0.199-0.518-0.298c-1.705-2.857-4.518-4.876-7.254-6.952
	c-0.863-0.498-1.727-0.997-2.59-1.495c-22.496-14.559-44.844-26.471-66.322-37.6c-2.762-1.595-5.525-3.191-8.289-4.787
	c-1.383-0.798-2.764-1.595-4.145-2.394c-12.264-6.62-25.906-15.876-37.307-20.847c-4.145-2.395-8.289-4.787-12.436-7.18
	c-1.381-0.797-2.764-1.596-4.145-2.393c-2.764-1.596-5.527-3.191-8.291-4.787c-9.738-5.483-20.035-12.031-29.014-16.062
	c-1.383-0.798-2.764-1.595-4.146-2.394c-4.324-4.21-7.01,1.615-8.289-1.332c1.516,0.594,1.68-1.393,2.59-1.958
	c1.326,0.693,2.471,1.036,3.109,0.414c7.6,3.929,16.578,10.491,23.314,12.77c1.383,0.798,2.764,1.596,4.146,2.394
	c2.072,1.197,4.145,2.394,6.217,3.59c11.572,6.222,24.525,15.078,35.232,19.65c4.146,2.394,8.291,4.787,12.436,7.181
	C245.042,65.718,277.782,83.152,310.09,102.427z"/>
<path fill-rule="evenodd" clip-rule="evenodd" fill="#D4D4C9" d="M312.612,120.388c0.807-0.307-72.828,33.475-63.33,5.202
	c-2.416-0.283-33.236,25.822-35.51,24.654c-4.357-1.967-9.791-0.944-10.178-2.94c-1.33-0.938,0,10.178-10.178-5.654
	c-1.896-0.227,4.523,11.761-4.072,5.428c-0.904,6.559,19.904,11.309,3.086,13.109c-2.469-1.076-4.938-2.153-7.408-3.23
	c2.686-0.954,1.59-1.299,0.115-4.775c-10.912-5.139-21.121-9.146-29.697-10.531c2.166,2.849,5.508,4.902,9.471,6.54
	c-3.697,1.104-20.754-8.57-29.668-11.725c-0.705-0.308-1.412-0.615-2.117-0.922c-12.311-7.756-21.807-17.411-34.699-24.776
	c-0.082-2.2,1.357-1.953,1.176-4.312c-2.734-1.914-3.822-1.181-3.264,2.197c-2.803-2.42-5.521-4.893-9.469-6.541
	c1.533-4.513,4.736,1.735,7.41,3.229c1.613-5.936-12.074-5.985-8.324-9.659c-5.357,3.174-10.473-2.524-16.936-7.383
	c-0.793-3.756,1.566-2.441,1.203-5.507c-2.357-3.108-6.143-5.257-10.527-7.001c-3.721-1.294,1.785,6.119-1.174,4.314
	c-6.385-1.962-2.025,6.069-8.73,4.321c13.572,23.523-17.346-0.112-10.404-17.189c41.166-7.238,79.555-60.397,82.783-59.711
	c-3.273-1.243-71.926,45.688-77.354,49.307c-3.549,2.366-37.572,24.855-33.475,23.975c8.354-1.794,16.232,6.988,83.715,45.231
	c57.912,32.821,81.922,47.669,92.252,55.645C218.069,205.432,161.524,178.064,312.612,120.388z"/>
<path fill-rule="evenodd" clip-rule="evenodd" fill="#F6F6F3" d="M270.543,106.139c-10.461-24.151-13.74-9.501-37.92-23.694
	c4.748-8.621,3.916,3.96,10.404,0.583c-9.559-13.773-31.873-21.828-53.178-30.317c-2.389,6.544,7.752,6.453,9.297,10.913
	c-13.426-1.431-23.955-14.917-37.402-20.395c-0.438-0.176-0.873-0.351-1.309-0.526c-7.039-6.019-15.734-11.16-25.625-15.669
	c-0.438-0.175-0.873-0.35-1.309-0.525c-1.67-4.801-11.525-5.268-16.395-8.375c8.924-1.04,19.705,7.41,27.486,11.029
	c63.07,26.311-15.244-20.982-15.188-23.449c62.426,33.927,136.613,76.901,189.539,109.923c-0.51,1.885-18.748,8.662-19.904,8.595
	C323.469,103.877,271.879,107.056,270.543,106.139z"/>
<path fill-rule="evenodd" clip-rule="evenodd" fill="#FFFFFF" d="M124.784,242.188c0.518,0.299,1.037,0.598,1.555,0.896
	c7.223,2.668,11.824,14.912,15.543,20.028c0.971,1.875,0.057,1.769,0,3.454c-2.576-5.882-5.793-11.279-8.807-16.83
	c-8.311-8.115-18.186-10.137-22.279-8.717c1.359-2.236,4.057-1.918,6.217-2.628c0.346,0.2,0.689,0.397,1.035,0.597
	C120.944,240.631,123.479,241.851,124.784,242.188z"/>
<path fill-rule="evenodd" clip-rule="evenodd" fill="#CAC8C8" d="M145.147,238.587c-0.291-2.362,0.154-3.323,1.018-3.483
	c0.309,0.218,0.602,0.45,0.508,0.973c-0.494-0.268-0.395,0.603-0.508,1.062c0,0.453,0,0.904-0.002,1.357
	c0,4.521,0.002,9.045,0.002,13.566c-2.084-0.252-0.547-9.069-1.018-12.797C145.147,239.04,145.147,238.813,145.147,238.587z"/>
<path fill-rule="evenodd" clip-rule="evenodd" fill="#221D1E" d="M163.459,201.68c0-0.227,0-0.453,0.002-0.68
	c0.145-3.5-0.029-6.762-1.02-9.404c-3.24-2.667-10.584-8.276-11.699-4.721c0,7.767-0.096,40.521,0.49,41.966
	c2.572,2.315,4.248,3.481,7.818,4.843c1.512,0.189,3.83,1.887,4.057-1.28C163.842,230.651,163.461,206.879,163.459,201.68z
	 M153.795,191.352c-2.262-3.49,2.469-1.368,3.051,0.406C158.092,193.913,153.981,188.85,153.795,191.352z M162.444,210.588
	c0.902-1.289,0.369,4.189,0.506,5.719C162.049,217.598,162.581,212.122,162.444,210.588z M161.424,192.365
	c-1.348-0.445-8.492-5.785-8.646-5.67C153.2,186.375,163.315,192.992,161.424,192.365z"/>
<g>
	<path fill-rule="evenodd" clip-rule="evenodd" fill="#8A8686" d="M147.69,271.936c0.031,0.018,0.062,0.035,0.094,0.055
		c-0.088-0.114-0.166-0.229-0.25-0.344C147.586,271.743,147.633,271.842,147.69,271.936z"/>
	<path fill-rule="evenodd" clip-rule="evenodd" fill="#8A8686" d="M168.547,241.923c0-16.214,0-32.427,0-48.64
		c0.24-2.234,0.256-5.95-6.271-8.86c-5.551-4.427-14.266-9.661-16.621-7.268c0.234,1.394-0.91,3.054-0.527,4.432
		c-0.062-0.025-0.117-0.057-0.188-0.077c-0.127,6.366-0.252,12.736-0.377,19.103c-0.113,5.73-0.227,11.462-0.34,17.193
		c-0.012,0.58,1.039,40.123,1.217,47.68c-0.303,1.941,0.557,4.079,2.094,6.16c-0.611-1.092-1.037-2.324-1.268-3.707
		c0.094-5.643,0.066-19.703,0.025-34.854c5.055,0.369,15.441,7.575,21.238,11.642c0,0.903,0,1.807,0,2.712
		c-0.17-0.099-0.34-0.195-0.508-0.294c-2.545-1.468-5.088-2.938-7.631-4.405c0,0.226,0,0.453,0,0.679
		c1.863,1.075,3.73,2.153,5.596,3.229c0.848,0.49,1.695,0.979,2.543,1.469c0,0.906,0,1.809,0,2.713c0,0.453,0,0.905,0,1.357
		c-1.254,9.136,1.572,27.996-1.934,29.354c-0.17-0.099-2.998-0.354-3.166-0.453c-6.121-2.01-8.127-5.334-13.215-8.271
		c-0.477-0.276-0.953-0.551-1.432-0.826c5.811,7.486,20.176,14.064,20.764,7.917c0-3.617,0-7.236,0-10.854
		c0-5.427,0-10.853,0-16.278C168.547,249.159,168.547,245.541,168.547,241.923z M167.53,222.343c0,7.009,0,14.019,0,21.027
		c-2.543-1.47-5.088-2.938-7.631-4.405c-2.713-1.566-5.426-3.133-8.139-4.7c-1.357-0.782-2.713-1.566-4.07-2.349
		c-0.467-0.271-0.936-0.541-1.404-0.812c-0.057-19.521-0.129-40.299,0-46.884c-0.021-0.482-0.057-0.955-0.158-1.375
		c0.014,0.01,0.023,0.02,0.037,0.028c-0.338-3.81,0.297-5.763,2.035-5.608c2.543,1.47,5.086,2.938,7.629,4.407
		c2.883,1.664,5.766,3.327,8.648,4.994c0.1,0.056,0.199,0.115,0.299,0.172c0.115,0.134,0.203,0.264,0.254,0.384
		c0.906,2.149,2.262,4.185,2.375,9.387c0.018,0.76,0.051,1.249,0.096,1.539C167.29,205.792,167.78,214.776,167.53,222.343z"/>
</g>
<path fill-rule="evenodd" clip-rule="evenodd" fill="#D4D4C9" d="M134.016,253.959c0.154,1.447-0.699,0.966-1.037,1.474
	c1.619,2.399,1.184,4.2,2.592,5.642c0.594-1.594,4.912,5.322,5.697,8.127c29.629,15.536,66.715,38.235,93.783,53.453
	c-27.518-13.459-66.395-39.779-90.674-50.277c24.207,14.233,56.164,32.278,87.047,50.255c1.867,7.098-27.59-11.952-29.016-13.988
	c-1.492-0.779-12.117-5.198-16.062-9.273c-6.045-3.489-26.67-17.093-27.98-16.153c-0.518-0.301-1.035-0.599-1.553-0.897
	c1.615-1.276-13.133-9.241-12.953-7.48c-2.072-1.195-4.145-2.393-6.217-3.588c0.676-3.557,0.098-2.604-1.037-2.672
	c-3-17.09-25.461-28.902-26.943-13.482c-5.811-2.994-9.258-5.392-15.543-8.974c-0.518-0.3-1.035-0.599-1.555-0.897
	c-5.164-0.164-23.135-14.29-25.906-16.338c-3.109-1.795-16.057-9.51-19.172-11.76c-2.936-1.696-5.871-3.391-8.807-5.086
	c26.412,13.092,50.869,30.135,64.246,36.402c0.371-1.661-2.441-0.916-2.072-2.578c1.555,0.896,3.109,1.795,4.664,2.693
	c-0.002-0.694,2.166,0.434,2.072,1.888c0.709-2.101,5.395-9.756,10.881-7.534C119.975,244.677,131.161,251.737,134.016,253.959z"/>
<path fill-rule="evenodd" clip-rule="evenodd" fill="#EBEBEB" d="M148.598,170.149c5.527,3.191,11.055,6.381,16.58,9.572
	c-4.492-0.986-11.221-6.247-16.58-8.881C148.598,170.608,148.598,170.379,148.598,170.149z"/>
<path fill-rule="evenodd" clip-rule="evenodd" fill="#8A8686" d="M144.973,168.746c1.209,0.698,2.416,1.396,3.625,2.094
	c5.359,2.634,12.088,7.895,16.58,8.881c1.555,0.897,3.109,1.795,4.664,2.693c0.389,1.529,1.547,1.371,0.518,2.372
	c-7.945-4.129-17.268-10.889-24.352-13.369c-0.172-0.1-0.346-0.2-0.518-0.299C145.461,170.218,144.827,169.778,144.973,168.746z"/>
<path fill-rule="evenodd" clip-rule="evenodd" fill="#E9EAE0" d="M140.071,162.235c1.279-1.073,4.502,1.568,7.035,2.891
	c-0.109,2.525-3.73-1.656-5.275-1.874c-0.854,2.668-3.035,2.798-3.518,6.175c-2.555-5.585-6.477-9.068-11.432-8.944
	c-0.537,4.314,4.828,4.167,7.035,6.407c0.002,3.125,0,6.25,0.002,9.377c-14.068-8.121-28.137-16.244-42.207-24.367
	c1.092-7.468-0.35-13.021-7.033-14.611c0.002-0.391,0-0.782,0-1.174c5.24,1.547,10.17,9.461,14.07,8.123
	c-5.625-5.904-13.436-10.162-21.104-14.528c0.002-0.39,0-0.781,0-1.169c9.766,4.348,20.742,14.003,28.137,16.244
	c-2.67-5.018-11.4-5.452-14.07-10.468c4.691,2.707,9.381,5.415,14.07,8.123c3.566,4.818,10.5,6.026,14.068,6.949
	c4.689,2.708,9.377,5.416,14.066,8.123c-0.162,0.901,0.344,1.305,0.879,1.682c-0.148,2.847,1.352,4.446,2.639,6.21
	C138.721,165.126,140.221,165.255,140.071,162.235z M119.848,156.421c-0.654-3.02-4.932-3.305-7.033-5.232c0,1.171,0,2.345,0,3.517
	C115.022,155.015,120.385,161.354,119.848,156.421z"/>
<path fill-rule="evenodd" clip-rule="evenodd" fill="#EBEBEB" d="M5.065,180.043c0.02,0.869-0.318,2.808-0.564,3.167
	c-0.846-13.608,0.676-31.667-0.01-51.731C3.95,115.664,3.708,91.89,6.649,91.324c-0.82,0.509,1.695,0.735,0.961-0.792
	c1.018,0.057,2.314-4.717,6.207-0.927c-4.746-1.154,0.943,1.76,3.732,3.397c-0.002,0.208,0,0.416,0,0.624
	c-6.088-4.378-7.738-5.643-8.752-0.324c0,0.207-2.488,1.037-2.488,1.244c-1.088,11.396-0.029,25.685-0.34,38.563
	C6.059,150.387,4.393,164.806,5.065,180.043z"/>
<path fill-rule="evenodd" clip-rule="evenodd" fill="#EDEDED" d="M11.471,93.924c-0.602,2.113,1.535,2.156,0.934,4.269
	c-0.834-2.899-2.471-1.953-3.73-2.154c0,3.318,0,6.634,0,9.95c-0.156-0.091-0.311-0.18-0.467-0.269c0-3.317,0-6.634,0-9.951
	c0-0.208,0-0.415,0-0.621c1.201,0.015,2.242-0.278,2.799-1.493C11.161,93.744,11.317,93.834,11.471,93.924z"/>
<path fill-rule="evenodd" clip-rule="evenodd" fill="#EDEDED" d="M57.174,114.714c2.652,3.384,8.543,4.321,11.193,7.705
	c-6.58-4.693-13.043-5.856-18.654-10.77c1.244,0.718,2.488,1.436,3.73,2.154c0-0.415,0-0.829,0-1.243
	C54.688,113.278,55.932,113.997,57.174,114.714z"/>
<path fill-rule="evenodd" clip-rule="evenodd" fill="#8A8686" d="M22.459,181.192c3.539,0.114,9.756,5.348,14.332,7.443
	c4.986,2.878,9.971,5.757,14.957,8.635C43.229,194.29,32.014,186.156,22.459,181.192z"/>
<path fill-rule="evenodd" clip-rule="evenodd" fill="#8A8686" d="M8.75,189.063c0.623,0.359,1.246,0.72,1.869,1.08
	c0.207,0.119,0.416,0.239,0.623,0.359c0.057,1.344,1.59,1.568,1.246,3.214c-1.416-1.425-4.861-1.312-4.361-4.182
	C8.508,189.707,8.866,189.836,8.75,189.063z"/>
<path fill-rule="evenodd" clip-rule="evenodd" fill="#FFFFFF" d="M31.184,202.844c3.322,1.919,6.646,3.838,9.969,5.758
	c8.648,4.728,15.867,9.412,9.971,6.584c-8.889-4.257-22.17-13.457-29.91-17.267c-0.416-0.239-0.83-0.479-1.246-0.72
	C20.094,195.479,27.975,201.442,31.184,202.844z"/>
<path fill-rule="evenodd" clip-rule="evenodd" fill="#D4D4C9" d="M16.85,181.278c0.506,0.447,0.623,1.191,1.248,1.549
	c3.055,3.573-0.352,9.211,3.115,10.939c-0.07,1.529-2.061-0.615-1.869,1.412c-0.416-0.239-0.83-0.479-1.246-0.72
	c-0.01-1.378-1.729-1.462-1.871-2.739c0.828-0.358,2.32,0.551,2.494-1.055c-0.932-0.68-2.301-1.029-2.494-2.269
	C18.606,190.156,17.409,182.586,16.85,181.278z"/>
<path fill-rule="evenodd" clip-rule="evenodd" fill="#CAC8C8" d="M11.243,190.501c0.857,0.46,1.369,1.183,1.869,1.91
	c0.711,4.078-5.494,0.153-5.607-2.408c0.131-0.854,0.691-0.893,1.246-0.941c0.115,0.773-0.242,0.644-0.623,0.47
	c-0.5,2.87,2.945,2.757,4.361,4.182C12.833,192.069,11.299,191.845,11.243,190.501z"/>
<path fill="#19181A" d="M254.063,223.417l-11.289-19.882c-8.746,5.58-13.039,4.941-17.416,10.178
	c-2.035,3.167-3.092,7.916-0.68,11.535c0.971,3.835,19.229,32.797,23.447,39.884c1.131,2.036,1.207,4.297,3.77,5.579
	c4.785,3.967,10.947-0.374,16.436-4.674C263.958,247.19,259.133,233.768,254.063,223.417z M254.227,226.451
	c-0.344-0.653-0.699-1.321-1.062-1.997C253.532,225.112,253.889,225.776,254.227,226.451z"/>
<path fill="#19181A" d="M356.692,205.12c-3.619-27.141-7.838-42.824-11.307-49.308c-3.02-5.641-8.201-4.122-8.174-4.622
	c-4.326,2.433-8.654,4.864-12.98,7.298c-1.039,0.585-2.078,1.168-3.115,1.753c-1.992,1.37-6.016,3.827-8.17,5.07
	c-0.02,1.425,4.926,8.762,7.242,13.196c0,0,2.227,4.301,2.988,5.667c6.961,12.498,15.387,40.608,15.385,40.734
	C345.407,219.234,356.844,215.374,356.692,205.12z"/>
<path fill="#625F61" d="M230.221,228.303c-0.084,0.371-0.471,1.498-0.896,2.518l0.84,1.158l3.465,5.428
	c2.473-4.807,4.451,1.031,5.979,0.396c2.467-6.879-0.348-10.818,3.506-16.625c-5.43-1.695,1.01-10.064,1.582-11.648
	c-3.943,2.982-12.576,8.628-15.662,12.215c-0.188,1.705,5.359,3.145,4.75,4.523C233.645,225.735,230.604,228.377,230.221,228.303z"
	/>
<path fill="#625F61" d="M240.116,207.778c-1.768,0.994-13.627,6.842-14.023,10.121C225.922,219.307,245.68,204.65,240.116,207.778z"
	/>
<path fill="#625F61" d="M332.459,160.481c2.361,1.097,2.432-1.128,2.146-1.986c-0.82-1.002-6.037,0.275-6.9,1.168
	c-2.041,2.119-5.445,2.979-6.9,5.843C325.713,163.636,329.417,159.068,332.459,160.481z"/>
<path fill="#625F61" d="M328.043,187.025c1.832-2.765,12.053-5.741,14.475-7.464c-0.396-2.164,1.691-1.352,2.377-2.979
	c-0.105,0.253,0.662-0.032,0.453-0.704c0.256,0.48,0.527,0.819,0.871,0.522c-0.133-0.538-1.018-1.222-0.631-1.659
	c0.623,0.735,1.23,2.674,2.359,2.215c-1.488-5.438-1.688-15.054-5.203-18.881c0.51,1.05-4.871,7.163-4.766,8.133
	c-1.436,1.018-1.385,1.536-2.605,2.921c-0.064-1.182-4.32-2.252-4.141-3.388c-2.48,2.656-8.492,2.622-10.654,5.905
	c-0.186,3.77,7.012-0.905,4.523,9.726C326.29,181.938,326.422,185.49,328.043,187.025z"/>
<path fill-rule="evenodd" clip-rule="evenodd" fill="#AAA999" d="M343.083,334.154c-1.201-4.156-0.176-9.996-0.518-14.806
	C343.766,323.505,342.743,329.346,343.083,334.154z"/>
<path fill-rule="evenodd" clip-rule="evenodd" fill="#5E5D59" d="M342.565,318.656c-0.094-0.641,0.203-0.533,0.52-0.391
	c0.752,0.812,2.678,0.739,2.59,2.186c-2.211-1-0.494,5.504-1.037,7.693c0,0.92,0,1.842,0.002,2.762
	c-0.473,0.939-0.18,3.345-1.037,3.548c-0.174-0.1-0.346-0.2-0.52-0.3c-0.34-4.809,0.684-10.649-0.518-14.806
	C342.565,319.118,342.565,318.888,342.565,318.656z"/>
<path fill-rule="evenodd" clip-rule="evenodd" fill="#AAA999" d="M344.639,330.906c0.42,0.375,0.514,0.992,1.035,1.291
	c0,0.229,0,0.46,0,0.689c1.914,1.547,5.16,2.085,6.219,4.281c0.154,3.75-4.07-0.866-6.219-1.518c0,0.23,0,0.461,0,0.691
	c-0.689-2.091-1.93-0.354-2.072-1.888C344.459,334.251,344.167,331.846,344.639,330.906z"/>
<path fill-rule="evenodd" clip-rule="evenodd" fill="#221D1E" d="M356.254,330.131c-1.451-1.633-2.693-2.35-4.145-2.395
	c-0.172,0.012-0.334,0.045-0.488,0.094c-0.033-0.031-0.057-0.051-0.057-0.051c-0.623,0.267-2.352,1.157-3.508,1.803
	c-1.152,0.19-1.85,1.244-2.383,2.615c0,0.229,0,0.46,0,0.689c1.072,0.865,2.557,1.422,3.846,2.124c0,0.071,0,0.142,0,0.212
	c0.605,1.127,1.203,2.262,1.904,3.318c-1.135,0.53-4.072-2.382-5.75-2.891c0,0.23,0,0.461,0,0.691c0,0.229,0,0.46,0,0.69
	c1.676,3.108,3.252,6.292,7.254,7.643c8.121-2.264,5.875-3.917,6.436-5.841C358.895,335.506,358.116,332.408,356.254,330.131z"/>
<path fill="#221D1E" d="M27.778,122.792c0,2.868,1.057,23.522,1.508,26.689c0.453,3.166,0.453,4.824,6.334,8.292
	s30.91,18.094,30.91,18.094s3.77,3.318,4.373-2.412s1.357-26.539,1.357-26.539s2.262-4.222-5.58-8.142
	c-7.84-3.92-33.926-19.3-33.926-19.3S27.778,114.8,27.778,122.792z"/>
<path fill="#8A8686" d="M30.643,123.545c1.357,0,15.682,6.784,18.848,8.896c3.168,2.111,17.686,8.835,18.568,13.012
	s-1.076-0.346-1.076-0.346s-18.418-10.422-20.658-10.102c-3.166,0.452-15.229-10.103-15.229-10.103L30.643,123.545z"/>
<path fill="#221D1E" d="M193.19,215.836c-4.75-2.715-14.176-7.985-14.176-7.985s-5.729-5.586-6.18,4.593
	c-0.453,10.178,1.516,25.184,1.516,25.184s1.424,6.255,4.365,7.611c2.939,1.357,27.818,16.285,27.818,16.285s4.59,4.078,5.123-3.05
	s1.211-23.64,1.211-23.64s1.689-6.403-6.393-10.439C198.391,220.36,193.19,215.836,193.19,215.836z"/>
<path fill="#8A8686" d="M192.241,219.562c-3.107-1.546-14.352-8.006-14.352-8.006s10.369,8.066,7.385,6.994
	c-2.986-1.071-3.416-2.017-3.166-0.452c0.248,1.565-1.414,1.619-2.715,2.035c-1.299,0.416-4.379,5.967-2.262,6.785
	c2.117,0.817,5.285-6.568,8.369-4.75c3.084,1.821,3.928-0.863,6.785,2.262c2.855,3.125,12.832,10.99,16.51,11.31
	c3.68,0.319-2.828-8.826-2.355-7.371c0.475,1.454,1.795-0.646-4.58-2.214C195.483,224.59,202.94,224.879,192.241,219.562z"/>
<path fill-rule="evenodd" clip-rule="evenodd" fill="#951D1F" d="M211.286,269.59l-99.594-55.342
	c-0.443-0.354-1.023-0.748-1.777-1.187c-5.77-3.362-5.99-9.267-5.99-9.267s-6.938-21.503-10.072-37.198
	c-3.135-15.694-19.17-21.909-19.17-21.909v2.347c0,0,15.068,45.155,16.58,50.709c1.512,5.557,6.631,11.17,6.631,11.17l13.418,8.193
	l0.002,0.01l0.092,0.048l0.064,0.039c0,0,0.004-0.001,0.008-0.002l99.506,55.103L211.286,269.59z"/>
<path fill-rule="evenodd" clip-rule="evenodd" fill="#B53E3A" d="M76.477,148.318l-0.297-1.209c0,0,11.135,4.757,13.715,17.936
	c2.58,13.18,7.889,29.822,7.889,29.822s5.973,15.628,9.953,18.331s3.244,2.619,3.244,2.619l-13.787-8.871
	c0,0-4.865-5.661-6.266-11.236C89.526,190.135,76.477,148.318,76.477,148.318z"/>
<path fill-rule="evenodd" clip-rule="evenodd" fill="#E9E9E9" d="M293.76,302.66c-0.535,0.514-1.693,0.555-1.807,1.385
	c-0.633,1.127-1.688,1.936-1.805,3.453c0.057,1.609,1.473,0.624,1.805,1.707c0.039,0.387,0.461,0.514,0,1.032
	c-2.303-0.482-4.047-0.78-3.609-6.17c3.381-2.718,7.834-6.456,11.35-7.927c-1.502,1.11-2.688,2.247-4.387,3.907
	c1.488,0.832,3.305-2.279,4.9-2.486c0.508-0.764,0.166-2.168,1.033-2.66c-0.217,0.984-0.338,2.04-0.258,3.245
	c-0.01,0.48,0.121,0.687,0.258,0.883c0.014,0.433,0.332,0.285,0.258,0.883c-1.131,0.177-1.312,1.203-2.58,0.803
	c0.842-0.398,1.242-1.127,1.289-2.121C298.268,301.764,295.633,300.059,293.76,302.66z"/>
<path fill-rule="evenodd" clip-rule="evenodd" fill="#E9E9E9" d="M321.36,291.885c0.561-1.535,3.121-3.625,1.549-4.678
	c-0.143-0.681,0.492-0.775,0.516-1.33c0.158-0.109,0.307-0.227,0.258-0.492c0-0.345,0-0.687,0-1.031
	c-0.488-0.912-2.367,0.561-2.322,2.027c-0.084,0.049-0.172,0.1-0.256,0.148c-0.988,0.515-2.047,0.978-2.064,2.224
	c-0.773,0.219,0.246-0.876,0-1.375c-1.41,0.647-0.033,2.377-1.031,2.659c-0.137-0.197-0.27-0.404-0.258-0.883
	c0.076-0.746,0.697-1.078,0.773-1.823c-0.727,0.313-1.273-0.443-1.807-1.364c1.096-0.601,1.332,0.437,1.807,1.021
	c1.104-0.202,1.275-0.761,2.58-1.489c0.297-0.604-3.014,1.766-3.096,0.068c1.293-1.229,5.26-1.588,5.932-2.738
	c0,0.459,0,0.918,0,1.375c1.713-1.793,1.525,1.986,0.516,4.519c0.016-0.036-2.979,4.122-3.611,4.491
	C320.907,292.688,321.27,292.389,321.36,291.885z"/>
<path fill-rule="evenodd" clip-rule="evenodd" fill="#BCBAAF" d="M369.879,227.216c-0.078-1.237-0.176-2.308-0.298-3.159
	c-0.005-0.034-0.067,0.049-0.177,0.223c-0.771-8.545,0.271,6.719-1.324,0.277c-1.051-4.243-0.833,4.667-1.166,5.834
	c-0.333,1.166,1.5,4.666,0.166,3.5c-1.332-1.167-4.57,1.376-4.832,3c-0.262,1.623-5.167,0.166-5,0.832
	c0.145,0.578-4.52,8.963-5.301,14.318c-1.32,1.619-2.622,3.052-3.866,4.183c-9.167,8.333-48.667,32-53.667,34.5
	s-29.5,18.167-35.166,16.667s-13.166-5.166-14.166-8.666c-1.055-3.689,0.833,34,0.833,34.5s3.333-0.334,5.833-1.167
	s51.667-23.333,51.667-23.833s3.073-0.074,5.12,0.129c2.047,0.204,21.547-14.628,24.547-16.128s4.081-4.887,5.081-5.72
	s33.083-23.681,32.917-25.625C370.93,259.138,370.552,237.845,369.879,227.216z"/>
<g>
	<path fill="#D4D4C9" d="M265.143,278.968c-0.018,0.079-0.021,0.138-0.035,0.21c0.025-0.047,0.047-0.094,0.074-0.143
		C265.17,279.013,265.157,278.991,265.143,278.968z"/>
	<path fill="#D4D4C9" d="M264.5,283.932c-0.182-0.893-0.348-1.572-0.348-1.572S264.157,283.224,264.5,283.932z"/>
</g>
<path fill-rule="evenodd" clip-rule="evenodd" fill="#D4D4C9" d="M364.684,198.672l-2.148,3.167
	c-1.178-0.351,0.98,12.382,0.791,12.892c-0.277,4.473,0.615,8.097,0.629,7.774c-0.408,0.219-1.533,1.043-1.625,1.5
	c-0.264,0.282-1.127-0.478-1.488-0.289c-0.473,1.013-2.949,5.056-3.346,5.642c-0.009,0.008-0.018,0.016-0.027,0.023
	c1.237-5.542,2.103-10.948,2.045-15.215c-0.266-19.852-10.508-52.622-12.914-57.45c-10.219-20.507-31.223-33.927-31.223-33.927
	l8.656,8.595c0,0,5.395,1.206,19.729,23.975c3.709,5.893,12.025,26.238,12.631,60.165c0.051,2.875-4.432,20.848-4.633,21.299
	c-0.414,0.931-1.691,1.45-1.861,1.799c-0.33-0.18-1.646,1.658-2.334,1.386c0.143-0.202,0.275-0.394,0.385-0.563
	c-0.002-0.01-0.002-0.018-0.004-0.029c-0.221,0.102-0.334,0.328-0.404,0.584c-0.215-0.088-0.418-0.194-0.605-0.312
	c-1.207-0.754-4.826,2.413-8.746,4.223c-1.443,0.666-2.211,2.131-2.84,3.713c-1.111,0.713-2.275,1.287-3.396,1.715
	c-0.586,0.705-0.1,2.221-0.258,3.246c-0.188,0.277-0.4,0.534-0.627,0.781c-0.139,0.016-0.268,0.045-0.418,0.045
	c-3.01,0-18.855,14.834-21.057,16.907c-1.328,0.292-3.258,1.054-4.352,1.64c-0.008-1.975,0.064-1.039,0.4-1.924
	c-0.443-0.609-1.65,0.199-2.322-0.725c-0.041,1.344,0.912,4.856,2.223,3.779c-0.188,0.396-2.125,1.205-2.336,1.584
	c-0.072,0.047-0.072,0.156-0.031,0.297c-4.014,1.465-6.676-1.119-12.936-2.107c-8.596-1.357-8.746,8.746-15.23,7.991
	s-3.016,0.151-6.936,3.017c-2.176,1.59-3.143,0.949-3.574,0.064c0.258,1.257,0.416,3.775,0.385,3.783
	c0.014,0.079-0.553,0.396-0.664,0.287c-0.148-0.503-0.352-0.957-0.641-1.279c-0.25-0.797-0.477-1.789-0.936-2.705
	c-0.904-1.811-0.754,1.207-6.332,1.658c-0.566,0.046-1.146-0.193-1.713-0.585c-1.324-4.027-2.406-7.389-2.854-9.05
	c-1.508-5.597-19.301-33.285-31.666-63.036c-3.631-8.739-9.047-29.75-9.047-29.75c0.904,7.953,4.523,24.154,7.238,30.339
	c2.67,6.09,23.174,45.193,29.555,62.631c-0.445-0.433-0.844-0.654-1.096-0.425c-2.486,2.262-7.236-4.411-7.236-4.411
	c2.268,8.93,3.883,13.312,3.73,16.964c0,0.229,0.793,5.878,0.793,6.106c0,5.976,1.213,12.779,1.213,12.779v4.524
	c1.039-0.612,1.613,0.802,2.113-0.851c0.105,0.602,3.59,0.365,5.16-0.229c1.766,2.162,4.537,2.645,7.793,2.267
	c2.777,3.827,6.078,5.556,9.994,3.147c1.609-0.99-4.191-2.446-6.492-3.805c2.744-0.685,5.68-1.727,8.566-2.758
	c5.799-2.071,12.34-5.751,17.398-6.419c2.953-2.187,7.094-4.738,12.555-7.38c-0.02-0.031-0.039-0.063-0.061-0.095
	c3.096-1.428,6.277-3.02,9.502-4.797c0.35-0.449,0.811-0.904,1.338-1.359c-0.045,0.159-0.09,0.318-0.139,0.477
	c2.643-1.826,6.885-4.369,10.398-6.418c0.203-0.094,0.404-0.184,0.596-0.27c4.42-3.084,8.791-6.558,12.992-10.441
	c10.725-8.098,20.967-16.764,26.477-27.562c0.432-0.249,5.252-6.599,5.934-5.146c0.039-0.931,0.818-4.358,0.818-4.358
	C370.125,223.772,368.643,210.095,364.684,198.672z M332.727,251.986c-1.018,0.799-0.305-1.712-0.518-2.452
	c0.258-0.148,0.518-0.299,0.775-0.447C332.827,249.999,333.309,251.395,332.727,251.986z"/>
<path fill-rule="evenodd" clip-rule="evenodd" fill="#5E5D59" d="M360.247,207.505c0,0-1.752-8.781-1.417-3.417
	c1,16-5.839,36.625-8.12,44.375c-2.279,7.75-4.053,7.5-4.053,7.5s-30.277,24.25-32.305,24c-1.896-0.234-7.123,2.379-10.59,4.559
	c-2.055,1.051-5.977,3.053-6.596,3.357c-0.844,0.417-1.381,2.971-1.381,2.971s-26.742,12.946-31.557,14.696
	c-4.813,1.75-4.138,0.25-5.658-0.25c-1.52-0.5-8.783-23.5-9.374-26.083s-2.534-6.084-2.449-5.334l0.675,3.334
	c0,0,8.361,24.916,9.544,28s4.138,2.334,7.161,1.318c3.023-1.014,31.688-14.068,32.194-14.402c0.507-0.333,1.014-1.75,1.688-2.5
	c0.676-0.75,7.602-4.333,7.602-4.333l-0.004-0.011c1.059-0.635,5.918-4.309,7.352-4.072c1.52,0.25,3.04-0.5,3.547-0.875
	s31.164-22.375,32.938-23.875s2.152-4,2.152-4s5.521-20.557,5.983-22.791C359.58,220.005,360.247,207.505,360.247,207.505z"/>
<path fill-rule="evenodd" clip-rule="evenodd" fill="#8A8686" d="M189.911,186.838c3.244,1.922,9.184,8.426,12.004,10.668
	c3.872,4.213,15.695,23.66,17.531,27.108c0.52,0.3,18.047,34.947,22.281,55.005c-7.422-26.629-34.34-73.522-35.754-73.836
	c-0.879-2.559-13.842-15.787-16.578-17.862c-0.865-0.498-1.729-0.997-2.592-1.495c-22.496-14.56-104.662-60.657-116.062-65.627
	c-4.145-2.395-8.289-4.787-12.434-7.18c-1.381-0.797-2.764-1.595-4.145-2.393c-2.764-1.595-5.527-3.191-8.291-4.787
	c-9.738-5.483-20.035-12.031-29.016-16.062c-1.383-0.798-2.764-1.595-4.145-2.394c-4.326-4.21-7.012,1.615-8.291-1.332
	c1.518,0.594,1.682-1.393,2.592-1.958c1.326,0.693,2.471,1.036,3.109,0.414c7.6,3.929,16.578,10.491,23.314,12.771
	c1.383,0.797,2.764,1.595,4.146,2.393c2.072,1.197,4.145,2.394,6.217,3.59c11.572,6.222,24.523,15.078,35.232,19.65
	c4.146,2.393,8.291,4.787,12.436,7.18C124.864,150.13,157.604,167.563,189.911,186.838z"/>
<path fill-rule="evenodd" clip-rule="evenodd" fill="#625F61" d="M339.997,277.658c-0.395-0.155-0.585-0.704-0.879-1.056
	c-0.195,0.111-0.391,0.227-0.586,0.34c-0.705,2.494-3.115,3.699-4.1,5.984c0.078,0.289,0.148,0.622,0.217,0.986
	c0.608-0.369,0.992-0.906,1.539-1.32c0.166,1.114-0.078,3.018,0.88,2.617c0.095-0.057,0.195-0.113,0.292-0.168
	c0.607-1.669,3.287-3.912,1.951-5.15c0.166-0.506,0.385-1.236,0.369-1.67c0.008-0.001,0.016-0.004,0.023-0.004
	C339.883,278.092,340.051,277.959,339.997,277.658z"/>
<path fill-rule="evenodd" clip-rule="evenodd" fill="#19181A" d="M339.064,279.448c-0.776,0.107-1.777,1.98-1.171,1.849
	c-0.133-0.562,1.596-1.562,1.464-0.847c-0.271,1.881-1.722,2.865-2.637,4.259c0.063-1.297-0.519-1.354-0.294-2.956
	c-0.841-0.061-1.486,1.922-1.758,1.014c1.799-1.252,3.366-4.738,4.98-4.83C339.624,278.567,338.902,278.674,339.064,279.448z"/>
<path fill-rule="evenodd" clip-rule="evenodd" fill="#5E5D59" d="M302.176,300.92c-0.819,1.459-2.184,2.504-2.335,4.467
	c0.075,2.082,1.905,0.808,2.335,2.209c0.898-0.213,0.646-1.291,1.002-1.913C302.299,302.947,305.853,298.106,302.176,300.92z"/>
<path fill-rule="evenodd" clip-rule="evenodd" fill="#19181A" d="M302.661,301.562c0.148,0.142,0.126,3.929-0.334,5.085
	c-0.356-0.072-2.129-0.629-0.668-1.391c-0.219-1.209-0.714,0.833-1.334,0.769c-0.734-0.515-0.07-1.938,0.332-2.862
	c0.861-0.391-0.457,1.028,0,1.779C301.286,303.786,302.203,302.846,302.661,301.562z"/>
<path fill-rule="evenodd" clip-rule="evenodd" fill="#AAA999" d="M263.331,319.005c-2.312,0.75-10.084,3.278-15.188,2.438
	c-0.625-0.103,0.125,0.375,0.125,0.375s2.688,2.25,9.875,1.062s1.75-0.062,1.5,0.188s-0.062,1.875,0.438,1.812s-0.75,2-0.312,2.312
	s-0.656,0.719-1.359,1.141s-0.016,0.484,2.172-0.766s5.75-2.812,5.812-2.062s5.994-4.699,6.028-3.225s16.034-9.525,16.659-9.025
	s1.188-5.375,0.938-4.938s-11.268,4.519-12.438,5.125C275.893,314.317,263.331,319.005,263.331,319.005z"/>
<ellipse transform="matrix(0.9754 -0.2207 0.2207 0.9754 -66.0548 63.811)" fill-rule="evenodd" clip-rule="evenodd" fill="#E9EAE0" cx="252.599" cy="327.576" rx="3.317" ry="2.714"/>
<path fill-rule="evenodd" clip-rule="evenodd" fill="#CFCECC" d="M255.737,328.045c-0.008-0.031-0.006-0.062-0.025-0.094
	c-0.228-0.361-1.133-0.611-2.255-0.682c-0.14,0.047-0.284,0.104-0.44,0.176c-1.081,0.51-2.705,0.781-3.426,1.018
	c-0.056,0.02-0.086,0.043-0.123,0.064c0.188,0.209,0.602,0.378,1.157,0.489c0.046-0.01,0.089-0.013,0.136-0.026
	c0.994-0.289,4.149-0.707,4.961-0.939C255.729,328.049,255.731,328.047,255.737,328.045z"/>
<path fill-rule="evenodd" clip-rule="evenodd" fill="#5E5D59" d="M256.293,327.052c-0.186-0.818-0.813-1.437-1.637-1.761
	c0.568,0.354,0.99,0.869,1.137,1.511c0.33,1.463-0.851,2.975-2.639,3.38c-0.785,0.178-1.551,0.1-2.197-0.155
	c0.727,0.45,1.696,0.632,2.697,0.405C255.443,330.026,256.624,328.515,256.293,327.052z"/>
<path fill-rule="evenodd" clip-rule="evenodd" fill="#AAA999" d="M358.956,263.505c-0.125-0.875,10.043-10.041,10.271-12.083
	s-0.646-0.167-0.646-0.167s-11.625,13.5-20.25,19.125s-5.5,4.625-5.5,4.625c-0.125,1.5,0.25,4.5,0.875,4.5
	c0.594,0,8.808-5.696,12.787-8.427c1.54-0.869,3.159-1.861,4.713-3.323c2.125-2-1.75,1.5-3.625,1.375
	c-0.01-0.001-0.02,0.001-0.029,0.001c-0.242-1.225-1.434-2.498-1.096-2.751C356.956,266.005,359.081,264.38,358.956,263.505z"/>
<ellipse transform="matrix(0.6969 0.7172 -0.7172 0.6969 298.6775 -182.093)" fill-rule="evenodd" clip-rule="evenodd" fill="#E9EAE0" cx="364.772" cy="262.317" rx="2.292" ry="3.07"/>
<path fill-rule="evenodd" clip-rule="evenodd" fill="#CFCECC" d="M367.106,261.363c-0.021-0.028-0.033-0.06-0.062-0.083
	c-0.332-0.275-1.096-0.211-1.932,0.104c-0.077,0.094-0.154,0.198-0.232,0.323c-0.535,0.868-1.57,1.688-1.975,2.168
	c-0.03,0.037-0.041,0.069-0.057,0.104c0.231,0.141,0.605,0.164,1.055,0.083c0.029-0.025,0.059-0.042,0.085-0.072
	c0.577-0.623,2.638-2.111,3.108-2.616C367.102,261.37,367.102,261.368,367.106,261.363z"/>
<path fill-rule="evenodd" clip-rule="evenodd" fill="#5E5D59" d="M368.173,261.874c-0.166-0.715-0.729-1.255-1.47-1.539
	c0.512,0.31,0.891,0.76,1.021,1.321c0.297,1.278-0.763,2.599-2.368,2.952c-0.707,0.156-1.393,0.088-1.975-0.135
	c0.653,0.395,1.523,0.552,2.424,0.354C367.411,264.473,368.47,263.153,368.173,261.874z"/>
<path fill="#E9EAE0" d="M72.616,147.61c0,0-0.754,20.809-1.357,26.539c-0.602,5.73-4.373,2.412-4.373,2.412
	s-25.029-14.625-30.91-18.094s-5.881-5.126-6.334-8.292c-0.426-2.993-1.393-21.593-1.498-26.052c-0.004,0.161-0.01,0.323-0.01,0.497
	c0,2.868-0.129,24.156,0.322,27.323c0.453,3.166,0.994,5.219,6.875,8.688s31.125,18.375,31.125,18.375s4.201,2.009,4.803-3.722
	c0.604-5.73,1.357-26.539,1.357-26.539s0.411-0.796,0.258-2.008C72.789,147.286,72.616,147.61,72.616,147.61z"/>
<path fill="#D4D4C9" d="M251.688,206.631c-1.279-2.006-3.635-3.484-3.619-5.314c3.598-2.084,8.096-4.714,11.41-6.774
	c1.645-0.925,3.289-1.851,4.932-2.774c5.803-3.489,12.283-6.453,17.66-10.271c2.25-1.266,4.498-2.531,6.75-3.796
	c3.905-2.328,15.211-7.923,20.51-10.946l-16,6.5c-4.779,2.772-4.287,0.631-9.01,3.446c-2.252,1.265-4.5,2.53-6.75,3.796
	c-5.377,3.817-11.857,6.782-17.66,10.271c-1.643,0.924-3.287,1.85-4.932,2.774c-3.314,2.061-7.812,4.69-11.41,6.774
	c-0.016,1.83,2.34,3.309,3.619,5.314c6.785,10.631,19.678,36.641,22.053,56.093c1.212-0.83,2.543-1.689,3.961-2.572
	C269.837,240.202,258.066,216.624,251.688,206.631z"/>
<path fill="#19181A" d="M313.342,174.359l-4.523-7.803c-4.779,2.772-15.258,8.627-19.979,11.443c-2.252,1.265-4.5,2.53-6.75,3.796
	c-5.377,3.817-11.859,6.782-17.66,10.271c-1.645,0.924-3.287,1.85-4.934,2.774c-3.314,2.061-7.811,4.69-11.408,6.774
	c-0.016,1.83,2.34,3.309,3.619,5.314c6.785,10.631,19.678,36.641,22.053,56.093c14.361-9.839,44.465-23.626,60.164-35.736
	C332.34,212.696,319.901,188.269,313.342,174.359z"/>
<path fill="#625F61" d="M267.879,225.965c0.092-1.201-0.557-4.688,0.566-5.089c0.434,0.876,3.012,3.915,3.166,5.315
	c0.898-0.461-1.334-3.371-0.453-3.846c5.48,3.67,13.006-14.361,21.488-15.719c4.064-0.65,1.971-3.111,5.879-6.107
	c0.18-1.676-0.561-1.65-0.48-3.146c4.029-0.598,7.555-5.04,9.982-2.962c0.055-2.373,0.729-2.583,1.582-2.938
	c0.824-5.791-0.594-13.661-1.357-18.547c-7.934,3.58-24.713,14.869-33.209,20.252c-0.947-0.328-2.016-0.43-3.355,0.18
	c-6.912,3.144-12.162,7.57-17.266,10.895C259.229,207.807,266.055,217.429,267.879,225.965z"/>
<path fill-rule="evenodd" clip-rule="evenodd" fill="#BCBAAF" d="M351.733,314.504c-0.533,0.025,5.522,5.172,5.873,5.268
	c0.352,0.096-0.877,0.861-0.088,1.341s0.877,1.149,1.229,0.479c0.35-0.671,2.366-1.725,1.577-2.49
	C359.535,318.335,353.749,314.408,351.733,314.504z"/>
<path fill-rule="evenodd" clip-rule="evenodd" fill="#AAA999" d="M358.918,321.942c-0.672-1.271-7.371-3.202-7.771-4.486
	s-6.732-9.785-8.066-8.618s-3.834,2.333-5.5,1.5s-2.835-4.387-1.709-3.708s5.375,2.042,4.209,0.542s-6.5-3-6.5-4.167
	s0.666-7.833,0.166-5.667c-0.5,2.167-0.832,5.5-2.166,5s-3.334-1.5-3.334-2.666c0-1.167,2.167-2.833,1-6.167
	c-1.166-3.333-0.666,0.667-1.666,3s-2.525,4.282-4.93,3.807s2.264-3.14,0.43-3.14s-7.834,2.666-7.834,2.666
	c-1.166,0.834-1.666,2.334-1.666,3.167s38.5,21.167,40,21.5s6.167,4.333,7.834,3C363.081,326.172,359.59,323.213,358.918,321.942z
	 M326.747,303.671c0-0.5-0.5-3.167,0.667-3.167c0,0,0.333,2,0.333,3.667S326.747,304.171,326.747,303.671z"/>
<path fill-rule="evenodd" clip-rule="evenodd" fill="#E9EAE0" d="M352.036,321.664l5.712,4.008c0,0,4,1.833,1.5-2
	c-2.5-3.834-3.834-2.334-5.167-2C352.748,322.004,352.036,321.664,352.036,321.664z"/>
<path fill-rule="evenodd" clip-rule="evenodd" fill="#BCBAAF" d="M342.415,309.738c1-4.333,0.333-7.666,1.833-7
	c1.5,0.667,6.167,3.667,5,0.667s-0.046-7.852,1.644-5.008c1.689,2.841,2.047,6.623,1.035,6.816
	c-1.012,0.192-2.846,3.025-3.179,2.359c-0.333-0.667-1.667-2.334-1.833,0.666c-0.167,3,2,5.167,2,7.167s-3-0.499-3.5-4.167
	C344.915,307.572,342.415,309.738,342.415,309.738z"/>
<path fill-rule="evenodd" clip-rule="evenodd" fill="#5E5D59" d="M353.148,304.174c-2.368,0-4.735,1.793-4.735,2.688
	c0,0.897-0.677,1.345,2.367-0.672S353.148,304.174,353.148,304.174z"/>
<path fill-rule="evenodd" clip-rule="evenodd" fill="#5E5D59" d="M333.569,303.556c1.307-0.613,2.425-3.071,1.105-5.881
	c-0.688-1.467-0.578-2.411-1.068,1.841C333.116,303.768,333.569,303.556,333.569,303.556z"/>
<path fill-rule="evenodd" clip-rule="evenodd" fill="#625F61" d="M359.372,319.422c-3.074-1.59-4.596-4.322-7.95-5.462
	c3.583,0.492,6.431,2.161,9.493,3.486c0.229,0.771,1.4,0.062,0.874,2.31c-0.728,0.352-2.102,1.764-3.083,1.791
	C358.551,321.51,360.664,320.213,359.372,319.422z"/>
<path fill-rule="evenodd" clip-rule="evenodd" fill="#5E5D59" d="M108.913,254.672l-79.865-47.733l-15.25-9
	c1,2.75,16.25,13,24.75,18c8.5,5,48.771,31.896,48.771,31.896s2.229,1.729,3.479,3.729s0.658,2.826,1.703,4.1
	c1.047,1.275,16.705,9.278,16.705,9.278s-0.34,1.104-0.625-4.75C108.331,255.068,108.913,254.672,108.913,254.672z M91.561,248.766
	c-0.696,0.282-1.547-0.194-1.9-1.064c-0.354-0.871-0.075-1.806,0.621-2.088c0.697-0.283,1.548,0.193,1.901,1.064
	C92.536,247.548,92.258,248.483,91.561,248.766z M95.946,253.5c-1.08,0.361-2.303-0.379-2.729-1.656
	c-0.428-1.276,0.102-2.604,1.182-2.967c1.08-0.361,2.302,0.381,2.729,1.657S97.026,253.139,95.946,253.5z"/>
<path fill-rule="evenodd" clip-rule="evenodd" fill="#221D1E" d="M128.477,253.882c-2.299-1.196-7.834-8.384-15.25-5.417
	c-6.25,2.5-4.584,13.25-3.916,16.25c0.666,3,3.533,12.604,5.666,14.5c2.25,2,5.237,7.629,13.5,6c17.75-3.5,9.435-9.025,9.875-10.125
	C139.352,272.59,132.645,256.049,128.477,253.882z"/>
<path fill-rule="evenodd" clip-rule="evenodd" fill="#CAC8C8" d="M115.234,255.581c1.052-0.582,5.833-5,12.5,6.5
	s1.167,15.666,0.167,16.333s-4,2-9.334-1.833C113.234,272.747,110.108,258.413,115.234,255.581z"/>
<path fill-rule="evenodd" clip-rule="evenodd" fill="#8A8686" d="M120.733,254.746c-1.5,0-3.627-0.927-4.063,0.62
	s3.356,6.842,3.627,6.777s-2.396,0.936-1.229,0.936s3.834,1.5,4.5,2.167s0.365-2.737-2.234-4.035s1.174-2.294,1.037-3.546
	S122.067,254.746,120.733,254.746z"/>
<path fill-rule="evenodd" clip-rule="evenodd" fill="#FFFFFF" d="M118.002,254.366c-0.258,1.375,0.73,3.214,1.73,4.214
	s-0.5-1.501-0.5-2.833c0-1.334,1.019-1.346,0.843-2.256C119.9,252.58,118.105,253.819,118.002,254.366z"/>
<path fill-rule="evenodd" clip-rule="evenodd" fill="#221D1E" d="M120.182,260.377c-0.825-1.283-0.939-4.338,1.727-3.596
	c2.666,0.744,0.093,3.547-0.301,4.504C121.215,262.245,120.948,261.569,120.182,260.377z"/>
<path fill-rule="evenodd" clip-rule="evenodd" fill="#221D1E" d="M117.775,262.83c-0.667-1.167-3.319-2.161-3.1-0.323
	c0.183,1.531-0.276,2.239,1.058,1.906S117.775,262.83,117.775,262.83z"/>
<path fill-rule="evenodd" clip-rule="evenodd" fill="#8A8686" d="M124.943,257.734c-0.394,0.733-2.757,3.323-2.245,3.276
	c0.513-0.045,0.994,1.348,2.661-0.879S124.982,257.661,124.943,257.734z"/>
<path fill-rule="evenodd" clip-rule="evenodd" fill="#221D1E" d="M124.877,274.831c-1.076-1.054-4.678,2.611-3.285,2.638
	c1.392,0.028,3.912,0.997,3.881,0.17C125.443,276.809,125.513,275.454,124.877,274.831z"/>
<path fill-rule="evenodd" clip-rule="evenodd" fill="#8A8686" d="M113.287,264.441c-1.168-2.279-0.475-6.861,0.518-7.301
	c1.834,0.688,2.671,2.127,3.109,3.867c-0.68-0.148-0.814,0.745-1.555,0.484c-0.23-3.623-0.726,1-1.555,0.484
	c-0.08-0.861,0.089-1.91-0.518-2.371C113.287,261.216,113.287,262.828,113.287,264.441z"/>
<path fill-rule="evenodd" clip-rule="evenodd" fill="#8A8686" d="M119.907,271.473c-1.096,0.209-1.264,1.191-1.883,2.314
	c0.775,0.329,1.723,1.984,1.883,1.139c-0.287-0.162-0.588-0.898,0-0.689c0.65,0.658,1.059,1.502,1.035,2.67
	c-1.279-0.828-0.881,0.336,0,0.691c1.344,2.918-2.918-3.895-2.668-1.395c-0.77-0.744-1.75-2.457-2.375-3.625
	c1.551,0.891,2.559-0.42,2.971-1.705c0-0.23,0.002-0.459,0-0.689c0.42,0.111,0.518-0.396,1.037-0.092
	C119.907,270.551,119.907,271.012,119.907,271.473z"/>
<path fill-rule="evenodd" clip-rule="evenodd" fill="#221D1E" d="M118.729,269.614c-2.167,2.623-2.609,2.93-3.454,0.865
	c-0.845-2.063,0.798-1.551,1.685-1.823C117.844,268.383,119.526,268.651,118.729,269.614z"/>
<path fill-rule="evenodd" clip-rule="evenodd" fill="#8A8686" d="M118.489,266.441c0.748,2.196-3.38-0.349-2.631,1.847
	c-1.121-0.755-1.85-1.933-2.395-3.307C115.139,265.468,116.813,265.955,118.489,266.441z"/>
<path fill-rule="evenodd" clip-rule="evenodd" fill="#221D1E" d="M129.938,270.201c0.051,2.172-0.634,2.936-1.036,4.237
	c-0.979-1.563-2.298-2.87-2.073-5.342C128.414,270.513,128.352,268.783,129.938,270.201z"/>
<path fill-rule="evenodd" clip-rule="evenodd" fill="#8A8686" d="M119.796,268.606c-0.786-0.18,2.2,1.273,0.753,2.431
	c-0.748,0.599,0.926,0.058,1.215,0.579c0.29,0.521,0.348,0.405,0.637,0c0.291-0.405-0.057,0.984,0.348,0.521
	c0.406-0.463,0.868-1.854,1.506-0.927c0.637,0.927,1.795,0.753,0.984-0.348c-0.811-1.1-1.877-1.653-0.91-1.376
	c0.967,0.276,1.199,0.392,0.1-1.055c-1.1-1.447-1.273-2.374-2.548-2.258c-1.273,0.115-1.429,1.367-1.042,1.158
	c1.39-0.754,2.721,2.258,0,0.404C119.805,267.034,121.823,269.069,119.796,268.606z"/>
<path fill-rule="evenodd" clip-rule="evenodd" fill="#8A8686" d="M127.364,260.844c-1.219-1.296-4.379,2.111-1.953,4.828
	c2.425,2.717,4.484,3.732,4.572,1.906S128.486,262.036,127.364,260.844z"/>
<path fill-rule="evenodd" clip-rule="evenodd" fill="#221D1E" d="M123.311,263.886c0.74-1.046,1.982-3.501,2.473-2.423
	s1.973,4.217,1.083,4.066c-0.889-0.148-4.001,0.3-3.704-0.598C123.459,264.036,123.311,263.886,123.311,263.886z"/>
<path fill-rule="evenodd" clip-rule="evenodd" fill="#FFFFFF" d="M125.927,266.436c3.138,0.088,3.731-2.341,3.872-1.861
	c0.139,0.48,0.697,2.4-0.582,2.773C127.936,267.721,123.928,266.38,125.927,266.436z"/>
<path fill-rule="evenodd" clip-rule="evenodd" fill="#8A8686" d="M126.083,273.657c1.37-1.875,1.654,2.968,3.022,1.094
	c0.024,1.352-0.521,2.625-1.334,3.859C127.208,276.958,126.646,275.307,126.083,273.657z"/>
<path fill-rule="evenodd" clip-rule="evenodd" fill="#5E5D59" d="M216.331,316.755c-2.75-1.25-13.277-8.225-13.277-8.225
	s0.053,0.061-1.098-0.569c-0.016,0.078-0.023,0.158-0.058,0.229c-0.446,0.919-2.337,0.923-4.224,0.008s-3.056-2.403-2.609-3.321
	c0.105-0.218,0.297-0.38,0.545-0.495c-3.357-1.901-5.279-2.627-5.279-2.627s-19.582-10.008-23.221-13.176
	c-0.033,0.096-0.059,0.197-0.115,0.282c-0.735,1.087-3.139,0.745-5.369-0.763s-3.443-3.611-2.709-4.697
	c0.154-0.229,0.396-0.381,0.68-0.484c-7.332-4.666-21.85-12.161-21.85-12.161c-0.75,1.75-0.166,6.75,2.584,8.75s43.5,25.25,49,27.75
	s51.029,23.505,51.029,23.505S219.081,318.005,216.331,316.755z"/>
</svg>
