<?xml version="1.0" encoding="utf-8"?>
<!-- Generator: Adobe Illustrator 15.0.2, SVG Export Plug-In . SVG Version: 6.00 Build 0)  -->
<!DOCTYPE svg PUBLIC "-//W3C//DTD SVG 1.1//EN" "http://www.w3.org/Graphics/SVG/1.1/DTD/svg11.dtd">
<svg version="1.1" id="Layer_1" xmlns="http://www.w3.org/2000/svg" xmlns:xlink="http://www.w3.org/1999/xlink" x="0px" y="0px"
	 width="841.89px" height="595.28px" viewBox="0 0 841.89 595.28" enable-background="new 0 0 841.89 595.28" xml:space="preserve">
<g id="Wheel_6_">
	<path fill="#170F0E" d="M73.017,152.46c-9.217-16.317-23.664-25.604-32.262-20.745c-0.043,0.024-0.082,0.053-0.123,0.077
		l-12.191,4.93c-0.312,0.109-0.619,0.232-0.916,0.371l-0.582,0.234l0.04,0.041c-3.948,2.156-6.38,7.07-6.38,14.309
		c0,14.869,10.246,33.885,22.887,42.471c5.801,3.939,11.092,4.992,15.125,3.547l-0.006,0.133l13.582-6.207
		c0.674-0.205,1.326-0.475,1.943-0.822C82.735,185.939,82.235,168.773,73.017,152.46z"/>
	<g>
		<g>
			<path fill-rule="evenodd" clip-rule="evenodd" fill="#5E5D59" d="M53.282,173.876c0,6.365-4.385,8.545-9.795,4.871
				c-5.408-3.676-9.795-11.814-9.795-18.18s4.387-8.545,9.795-4.871C48.897,159.373,53.282,167.509,53.282,173.876z"/>
			<path fill-rule="evenodd" clip-rule="evenodd" fill="#F3F3F4" d="M44.017,162.181c0.229,2.117-0.115,3.17-0.719,3.74
				c-2.783-1.365-2.961-1.311-5.033-4.264c-0.639-1.938-2.006-3.514-1.438-6.053c0.24,0.164,0.479,0.326,0.719,0.488
				C39.897,158.464,44.401,157.185,44.017,162.181z"/>
			<path fill-rule="evenodd" clip-rule="evenodd" fill="#80807B" d="M37.456,162.798c1.512,2,2.803,1.391,4.314,4.623
				c1.385-0.771,2.893-0.002,5.031,2.572c2.436,1.135,5.553,3.537,5.033-0.811c1.559,0.918,0.326,3.221,0.719,4.719
				c-3.553-0.988-14.822,1.152-12.941-5.408c-2.398-0.312-5.133-3.742-5.75-7.291C35.712,162.234,39.21,167.203,37.456,162.798z"/>
			<path fill-rule="evenodd" clip-rule="evenodd" fill="#CFCECC" d="M37.456,156.033c1.32-0.934,4.238,1.098,7.189,3.191
				c0,1.127,0,2.256,0,3.385c-0.24-0.164-0.479-0.326-0.719-0.49C44.312,157.125,39.808,158.404,37.456,156.033z"/>
			<path fill-rule="evenodd" clip-rule="evenodd" fill="#2A2C27" d="M44.646,163.455c0.922-2.234,4.562,3.736,7.189,5.729
				c0.52,4.348-2.598,1.945-5.033,0.811c-0.031-1.186,0.338-1.627,0.719-2.049C46.288,165.648,44.694,167.267,44.646,163.455z"/>
			<path fill-rule="evenodd" clip-rule="evenodd" fill="#B1AFAB" d="M38.354,161.718c2.072,2.953,2.25,2.898,5.033,4.264
				c0.604-0.57,0.947-1.623,0.719-3.74c0.24,0.164,0.479,0.324,0.719,0.488c0,0.281,0,0.562,0,0.846
				c0.049,3.814,1.643,2.195,2.875,4.49c-0.379,0.422-0.75,0.865-0.719,2.051c-2.139-2.574-3.646-3.346-5.031-2.574
				c-1.512-3.232-2.803-2.623-4.314-4.621C37.634,162.072,38.218,162.312,38.354,161.718z"/>
		</g>
		<path fill-rule="evenodd" clip-rule="evenodd" fill="#B1AFAB" d="M43.532,149.505c-8.338-5.662-15.097-2.301-15.097,7.508
			c0,9.811,6.759,22.355,15.097,28.02c8.34,5.664,15.098,2.303,15.098-7.508S51.872,155.171,43.532,149.505z M43.532,178.759
			c-5.393-3.664-9.764-11.777-9.764-18.123s4.371-8.52,9.764-4.855c5.395,3.662,9.766,11.775,9.766,18.121
			S48.927,182.421,43.532,178.759z"/>
		<path fill-rule="evenodd" clip-rule="evenodd" fill="#979B9D" d="M40.071,147.605c2.357,1.602,4.717,3.203,7.074,4.805
			c7.496,6.785,1.303,5.787-0.707,4.568c-4.523-8.795-16.229-8.107-12.025-0.594c-1.816,0.91-0.039,6.539,0,6.732
			c-2.229-1.105-0.531-4.217-2.123-5.648c-1.582-0.711-0.287,3.953-0.707,5.41c-1.338-2.963-1.52-6.518-1.414-10.219
			c-0.77-0.314-0.48,1.348-1.415,0.723C29.661,146.101,33.433,144.175,40.071,147.605z"/>
		<path fill-rule="evenodd" clip-rule="evenodd" fill="#CFCECC" d="M28.692,153.548c0.939,0.631,0.65-1.041,1.422-0.725
			c-0.104,3.719,0.078,7.293,1.424,10.271c0.424-1.465-0.879-6.152,0.713-5.438c1.602,1.439-0.107,4.566,2.135,5.68
			c0,0.564,0,1.129,0,1.691c3.604,13.748,20.115,24.701,22.061,13.295c2.016,1.508-0.59-5.615,1.424-4.107c0,2.818,0,5.639,0,8.459
			c-1.322,5.141-5.115,5.67-9.963,4.227c-0.238-0.16-0.475-0.322-0.713-0.482c4.486-1.424-8.283-4.947-9.963-10.152
			c-1.033-0.328,0.072,0.791,0,1.691C31.284,171.402,27.714,163.634,28.692,153.548z"/>
		<path fill-rule="evenodd" clip-rule="evenodd" fill="#80807B" d="M26.86,145.789c5.402-8.473,16.072-1.795,19.453,1.867
			c10.367,9.438,0.455,2.1-0.545,1.365c-8.812-7.287-14.615-4.451-18.182-1.002C27.706,147.091,27.427,146.365,26.86,145.789z"/>
		<path fill-rule="evenodd" clip-rule="evenodd" fill="#979B9D" d="M26.86,165.753c-3.289-6.422-2.594-17.318,0-19.965
			c0.566,0.576,0.846,1.303,0.727,2.23c-1.185,5-1.784,9.74,0,16.492C27.706,165.601,27.427,165.947,26.86,165.753z"/>
		<path fill-rule="evenodd" clip-rule="evenodd" fill="#B1AFAB" d="M27.587,164.511c2.451,6.551,5.594,12.744,10.902,17.82
			c-0.133,0.648,0.283,1.014,0.727,1.363c-0.117,0.938-1.324-0.168-2.18-0.613c-5.186-4.852-8.391-10.725-10.176-17.328
			C27.427,165.947,27.706,165.601,27.587,164.511z"/>
		<path fill-rule="evenodd" clip-rule="evenodd" fill="#979B9D" d="M46.485,188.632c7.078,3.424,11.361,1.609,13.082-5.002
			c0.484,0.33,0.969,0.658,1.453,0.988c-0.916,12.471-13.357,9.584-23.984-1.537c0.855,0.445,2.062,1.551,2.18,0.613
			C41.64,185.341,44.062,186.986,46.485,188.632z"/>
		<path fill-rule="evenodd" clip-rule="evenodd" fill="#80807B" d="M59.567,183.63c0.439-1.779,1.045-3.25,0.727-6.451
			c0.113-0.943-0.125-2.549,0.727-2.109c0.699,2.762,1.406,8.391,0,9.549C60.536,184.289,60.052,183.96,59.567,183.63z"/>
		<path fill-rule="evenodd" clip-rule="evenodd" fill="#979B9D" d="M58.427,167.675c-3.33-8.918-5.754-10.854-9.047-16.102
			c-0.199-0.662,2.021,0.207-6.154-6.541c8.176,4.994,18.67,20.168,18.67,35.305c-0.457-1.184-0.91-5.717-1.545-4.848
			C59.896,171.439,58.931,169.734,58.427,167.675z"/>
	</g>
</g>
<g id="Wheel_5_">
	<path fill="#170F0E" d="M198.666,226.769c-9.218-16.316-23.664-25.604-32.263-20.745c-0.042,0.024-0.081,0.053-0.122,0.077
		l-12.192,4.93c-0.312,0.109-0.619,0.232-0.916,0.371l-0.582,0.234l0.041,0.041c-3.949,2.156-6.381,7.07-6.381,14.309
		c0,14.869,10.247,33.885,22.888,42.471c5.8,3.939,11.092,4.992,15.125,3.547l-0.006,0.133l13.581-6.207
		c0.675-0.205,1.326-0.475,1.944-0.822C208.384,260.248,207.884,243.082,198.666,226.769z"/>
	<g>
		<g>
			<path fill-rule="evenodd" clip-rule="evenodd" fill="#5E5D59" d="M178.932,248.185c0,6.365-4.385,8.545-9.795,4.871
				c-5.408-3.676-9.795-11.814-9.795-18.18s4.387-8.545,9.795-4.871C174.547,233.681,178.932,241.818,178.932,248.185z"/>
			<path fill-rule="evenodd" clip-rule="evenodd" fill="#F3F3F4" d="M169.666,236.49c0.229,2.117-0.115,3.17-0.719,3.74
				c-2.783-1.365-2.961-1.311-5.033-4.264c-0.639-1.938-2.006-3.514-1.438-6.053c0.24,0.164,0.479,0.326,0.719,0.488
				C165.547,232.773,170.051,231.494,169.666,236.49z"/>
			<path fill-rule="evenodd" clip-rule="evenodd" fill="#80807B" d="M163.105,237.107c1.512,2,2.803,1.391,4.314,4.623
				c1.385-0.771,2.893-0.002,5.031,2.572c2.436,1.135,5.553,3.537,5.033-0.811c1.559,0.918,0.326,3.221,0.719,4.719
				c-3.553-0.988-14.822,1.152-12.941-5.408c-2.398-0.312-5.133-3.742-5.75-7.291C161.361,236.542,164.859,241.511,163.105,237.107z
				"/>
			<path fill-rule="evenodd" clip-rule="evenodd" fill="#CFCECC" d="M163.105,230.341c1.32-0.934,4.238,1.098,7.189,3.191
				c0,1.127,0,2.256,0,3.385c-0.24-0.164-0.479-0.326-0.719-0.49C169.961,231.433,165.457,232.712,163.105,230.341z"/>
			<path fill-rule="evenodd" clip-rule="evenodd" fill="#2A2C27" d="M170.295,237.763c0.922-2.234,4.562,3.736,7.189,5.729
				c0.52,4.348-2.598,1.945-5.033,0.811c-0.031-1.186,0.338-1.627,0.719-2.049C171.938,239.957,170.344,241.576,170.295,237.763z"/>
			<path fill-rule="evenodd" clip-rule="evenodd" fill="#B1AFAB" d="M164.004,236.027c2.072,2.953,2.25,2.898,5.033,4.264
				c0.604-0.57,0.947-1.623,0.719-3.74c0.24,0.164,0.479,0.324,0.719,0.488c0,0.281,0,0.562,0,0.846
				c0.049,3.814,1.643,2.195,2.875,4.49c-0.379,0.422-0.75,0.865-0.719,2.051c-2.139-2.574-3.646-3.346-5.031-2.574
				c-1.512-3.232-2.803-2.623-4.314-4.621C163.283,236.38,163.867,236.621,164.004,236.027z"/>
		</g>
		<path fill-rule="evenodd" clip-rule="evenodd" fill="#B1AFAB" d="M169.182,223.814c-8.338-5.662-15.097-2.301-15.097,7.508
			c0,9.811,6.759,22.355,15.097,28.02c8.34,5.664,15.098,2.303,15.098-7.508S177.521,229.48,169.182,223.814z M169.182,253.068
			c-5.393-3.664-9.764-11.777-9.764-18.123s4.371-8.52,9.764-4.855c5.395,3.662,9.766,11.775,9.766,18.121
			S174.576,256.73,169.182,253.068z"/>
		<path fill-rule="evenodd" clip-rule="evenodd" fill="#979B9D" d="M165.721,221.914c2.357,1.602,4.717,3.203,7.074,4.805
			c7.496,6.785,1.303,5.787-0.707,4.568c-4.523-8.795-16.229-8.107-12.025-0.594c-1.816,0.91-0.039,6.539,0,6.732
			c-2.229-1.105-0.531-4.217-2.123-5.648c-1.582-0.711-0.287,3.953-0.707,5.41c-1.338-2.963-1.52-6.518-1.414-10.219
			c-0.77-0.314-0.48,1.348-1.415,0.723C155.311,220.41,159.082,218.484,165.721,221.914z"/>
		<path fill-rule="evenodd" clip-rule="evenodd" fill="#CFCECC" d="M154.341,227.857c0.94,0.631,0.651-1.041,1.423-0.725
			c-0.104,3.719,0.078,7.293,1.424,10.271c0.424-1.465-0.879-6.152,0.713-5.438c1.602,1.439-0.107,4.566,2.135,5.68
			c0,0.564,0,1.129,0,1.691c3.604,13.748,20.115,24.701,22.061,13.295c2.016,1.508-0.59-5.615,1.424-4.107c0,2.818,0,5.639,0,8.459
			c-1.322,5.141-5.115,5.67-9.963,4.227c-0.238-0.16-0.475-0.322-0.713-0.482c4.486-1.424-8.283-4.947-9.963-10.152
			c-1.033-0.328,0.072,0.791,0,1.691C156.934,245.71,153.362,237.943,154.341,227.857z"/>
		<path fill-rule="evenodd" clip-rule="evenodd" fill="#80807B" d="M152.509,220.097c5.403-8.473,16.073-1.795,19.454,1.867
			c10.367,9.438,0.455,2.1-0.545,1.365c-8.812-7.287-14.615-4.451-18.182-1.002C153.354,221.4,153.076,220.673,152.509,220.097z"/>
		<path fill-rule="evenodd" clip-rule="evenodd" fill="#979B9D" d="M152.509,240.062c-3.289-6.422-2.594-17.318,0-19.965
			c0.567,0.576,0.846,1.303,0.728,2.23c-1.185,5-1.784,9.74,0,16.492C153.354,239.91,153.076,240.255,152.509,240.062z"/>
		<path fill-rule="evenodd" clip-rule="evenodd" fill="#B1AFAB" d="M153.236,238.82c2.451,6.551,5.594,12.744,10.902,17.82
			c-0.133,0.648,0.283,1.014,0.727,1.363c-0.117,0.938-1.324-0.168-2.18-0.613c-5.186-4.852-8.392-10.725-10.177-17.328
			C153.076,240.255,153.354,239.91,153.236,238.82z"/>
		<path fill-rule="evenodd" clip-rule="evenodd" fill="#979B9D" d="M172.135,262.941c7.078,3.424,11.361,1.609,13.082-5.002
			c0.484,0.33,0.969,0.658,1.453,0.988c-0.916,12.471-13.357,9.584-23.984-1.537c0.855,0.445,2.062,1.551,2.18,0.613
			C167.289,259.65,169.711,261.294,172.135,262.941z"/>
		<path fill-rule="evenodd" clip-rule="evenodd" fill="#80807B" d="M185.217,257.939c0.439-1.779,1.045-3.25,0.727-6.451
			c0.113-0.943-0.125-2.549,0.727-2.109c0.699,2.762,1.406,8.391,0,9.549C186.186,258.597,185.701,258.269,185.217,257.939z"/>
		<path fill-rule="evenodd" clip-rule="evenodd" fill="#979B9D" d="M184.076,241.984c-3.33-8.918-5.754-10.854-9.047-16.102
			c-0.199-0.662,2.021,0.207-6.154-6.541c8.176,4.994,18.67,20.168,18.67,35.305c-0.457-1.184-0.91-5.717-1.545-4.848
			C185.545,245.748,184.58,244.042,184.076,241.984z"/>
	</g>
</g>
<path fill-rule="evenodd" clip-rule="evenodd" fill="#CE6E6D" d="M5.868,81.17c0,0-2,50-0.5,55s17,15.5,17,15.5s-3.5-6,9-6
	s18.86,14.997,29.064,25.201c2.129,2.129,88.43,48.472,88.43,48.472s1.775-19.834,22.641-5.253
	c20.865,14.58,20.865,29.58,20.865,29.58l19.5,6l-15.211-7.478c0,0-2.289-21.772-8.289-29.522c-6.242-8.064,1.5-26-14-37.5
	S5.868,81.17,5.868,81.17z"/>
<path fill-rule="evenodd" clip-rule="evenodd" fill="#951D1F" d="M315.118,194.42c0.25-28-1.742-36.165-2.75-35.749
	c-5.842,11.754-30.5,53.749-32.75,78.249c-5.789-10.315-15.369-15.31-23.85-23.327c-17.387-13.226-41.93-21.386-65.307-29.817
	c5.646,18.135,14.465,38.656,15.117,57.766c28.73,11.242,37.039,10.629,75.789,4.129c23-8.25,34.141-21.967,34-25.499
	C314.13,217.297,315.368,204.92,315.118,194.42z"/>
<path fill-rule="evenodd" clip-rule="evenodd" fill="#B53E3A" d="M235.515,215.467c-3.594-5.246-12.467-3.938-15.26,1.271
	c-2.5-0.381-2.523,1.719-3.816,2.544c-15.148-14.769,28.762-20.167,21.621-1.271C236.378,217.997,236.897,215.782,235.515,215.467z"
	/>
<path fill-rule="evenodd" clip-rule="evenodd" fill="#80807B" d="M238.06,218.012c-1.682-0.016-1.162-2.23-2.545-2.545
	c-3.594-5.246-12.467-3.938-15.26,1.271c-2.5-0.381-2.523,1.719-3.816,2.544c0.406,2.95-0.203,4.884-1.271,6.358
	c0,0.425,0,0.848,0,1.271c1.611,6.801,13.281,10.004,19.076,5.088C238.706,229.292,239.153,223.073,238.06,218.012z"/>
<path fill-rule="evenodd" clip-rule="evenodd" fill="#CFCECC" d="M233.575,215.556c-1.188,2.007,6.188,2.389,2.436,6.226
	c0.98,17.329-26.486,11.697-14.912,1.594c-0.316,1.49-0.998,2.796-2.049,3.917c0.797,6.722,10.914,3.702,9.275,0.953
	c-0.027-0.164,2.471-2.136,2.461-2.126c-3.23,0-1.871-0.047-1.367-2.475c1.818-0.821,2.355-0.337,1.611,1.453
	c0.926-0.877,1.369-1.956,1.328-3.237c-0.246,0.462-0.605,0.802-1.082,1.021c0.326-0.902-0.014-1.045-1.016-0.428
	c-0.311-0.924,4.771-1.975,4.975-2.123c-0.574,0.594-1.176,1.16-1.801,1.702c1.277-1.741,2.055-1.882,2.336-0.421
	c1.744-1-2.125-4.621-4.117-3.843c-0.742,1.34,2.693,0.544,2.092,0.599c-0.482-1.545-9.619,6.217-11.582,8.76
	c-0.404-0.869-1.004-0.7-1.797,0.509c0.564-4.354,6.834-9.53,10.031-10.466c-2.551-0.033-4.867,0.701-6.953,2.203
	c-1.762,1.824,8.852-6.532,8.455-3.82c-1.93-0.102-2.391,0.664-1.385,2.299C232.542,216.7,233.409,216.246,233.575,215.556
	C233.132,216.307,233.638,215.298,233.575,215.556z"/>
<path fill-rule="evenodd" clip-rule="evenodd" fill="#B53E3A" d="M310.946,197.306c-2.695-3.8-9.352,0.578-11.445,6.586
	c-1.875,0.511-1.893,2.543-2.861,3.793c-11.363-8.929,21.57-29.555,16.215-8.817C311.595,199.443,311.983,197.125,310.946,197.306z"
	/>
<path fill-rule="evenodd" clip-rule="evenodd" fill="#80807B" d="M313.505,194.339c-1.279,0.634-0.885-1.923-1.936-1.722
	c-2.734-4.19-11.344,0.482-13.469,7.105c-1.902,0.563-2.055,2.621-3.039,3.999c0.311,2.981,1.836,5.611,1.023,7.594
	c0,0.452,0,0.901,0,1.353c1.227,6.609,10.105,5.5,14.518-1.973C313.997,206.086,314.339,199.297,313.505,194.339z"/>
<path fill-rule="evenodd" clip-rule="evenodd" fill="#CFCECC" d="M301.567,207.528c1.086-0.701,1.051,0.361,1.73,0.3
	c0.045,1.892-2.246,2.798-2.594,4.524c0.367-0.292,0.406-0.066,0.434,0.182c0.127-1.385,2.742-1.721,2.16-3.41
	c1.502-0.463-0.398,1.968,2.162,0.049c0,0.721,0,1.441,0,2.163c1.115-0.683,0.455-2.114,2.162-2.546
	c-0.121,1.197-0.146,2.248,1.297,0.98c-0.01-0.416-0.529-0.029-0.863,0.068c1.82-1.424-0.807-2.043,1.729-3.163
	c-0.32-0.788-2.424,1.231-3.459,1.567c0.049-1.135,1.447-1.695,2.594-2.365c0.072-1.41-1.148-0.781-0.863-2.528
	c0.803-2.028,2.68-1.355,3.027-3.046c1.008,0.718,1.984,1.485,1.729,4.193c-1.736,0.949-2.002,4.818-3.027,3.477
	c-0.41,3.971-6.273,8.827-7.783,5.793c-0.736,0.264-0.816,0.807-0.863,1.363c-0.861,0.49-0.551-0.863-1.732,0.135
	c0-1.297,0-2.597,0-3.893c0.869-0.648,1.354-0.694,1.299,0.114C301.937,209.791,300.96,209.668,301.567,207.528z"/>
<path fill-rule="evenodd" clip-rule="evenodd" fill="#CFCECC" d="M302.362,200.263c0.357-0.84,4.32-2.705,5.932-0.624
	c0.123,0.748-1.422-0.174-0.936,0.936c-1.418-0.387,0.537-0.907-0.314-1.561c-1.312,0.321-2.17,1.26-3.119,0.938
	c-0.787,0.885-0.801,1.575-0.314,2.497c-0.881,0.257-0.807-0.44-1.559-0.312c-0.506,0.307-0.721,0.833-0.312,1.249
	c0.529,0.115,0.588-0.243,0.623-0.625c0.266-0.058,0.295,0.122,0.312,0.312c0.209,0,0.416,0,0.623,0
	c-0.4,0.978-0.645,0.16-1.559,0.624c-0.115,0.53,0.242,0.59,0.623,0.624c0.059,0.266-0.121,0.295-0.311,0.312
	c0,0.209,0,0.416,0,0.625c-0.639-0.611-0.932-1.567-0.938-2.81c-0.145,1.088-1.244,0.737-1.561,0.937
	c-0.895-0.754-0.562-2.254-0.312-3.434c1.129-0.477,0.893-0.699,2.186-1.249c0.258,0.882-0.439,0.81-0.312,1.561
	c1.062-0.913,1.537-2.416,3.434-2.497C304.472,198.016,302.739,199.276,302.362,200.263z"/>
<path fill-rule="evenodd" clip-rule="evenodd" fill="#E9EAE0" d="M130.7,11.123c-10.303-4.937-26.5-13.5-51-1s-55.5,26.5-58,32
	S2.021,82.922,5.021,85.422s120.834,72.667,184.773,99.306c5.602,2.334,19.123,8.637,24.906,6.895
	c7.493-2.258,100.402-30.559,98-35.5s-5-8.5-5.5-11s-0.977-4.411-2.632-7.495c-1.979-3.689-4.681-7.068-5.669-10.799
	c-3.96-14.939-9.305-19.586-12.699-22.706C267.7,87.123,154.7,22.623,130.7,11.123z"/>
<path fill-rule="evenodd" clip-rule="evenodd" fill="#BCBAAF" d="M308.368,147.17c2.342-3.538,5.5,8,3,14s-33,65-31.75,75.75
	s-13.25-32.75-68.75-44.75c-15.646-3.383,29.5-7,12-7.5s-8-6,1-6.5s16.4,10.801,45-3.5
	C274.868,171.67,285.868,181.17,308.368,147.17z"/>
<path fill-rule="evenodd" clip-rule="evenodd" fill="#BCBAAF" d="M100.722,93.52c-32.66-22.88-56.969-22.048-76.853-48.161
	c19.047,8.607,34.704,17.907,52.246,26.823c40.364,18.906,71.087,39.785,110.327,58.921c1.361,0.582,2.625,1.188,1.775,2.223
	c-36.438-15.398-58.849-33.665-95.868-48.944c12.806,10.167,33.837,20.444,48.042,26.297"/>
<path fill-rule="evenodd" clip-rule="evenodd" fill="#DEDDD5" d="M274.653,163.626c10.965-0.254,25.654-16.402,28.562-9.648
	c2.432-12.463,2.738,3.873,1.875,2.293c-27.932,17.672-60.961,20.164-94.791,32.077c-0.963-9.259,1.668-7.848,6.924-9.362
	c15.209-2.205,27.648-7.796,42.99-9.838C263.06,167.988,269.831,167.249,274.653,163.626z"/>
<path fill-rule="evenodd" clip-rule="evenodd" fill="#CAC8B9" d="M310.841,153.271c-27.428,17.354-59.773,20.076-92.963,31.448
	l-1.322,2.232c1.42,0.286,2.656,0.764,3.561,1.588c-0.17-6.746,7.049-4.455,10.994-6.171c-0.383,1.91-1.289,3.179-2.209,4.433
	c7.068-1.286,12.805,3.221,16.316-3.229c0.406,2.41,0.934,4.695,0.604,7.874c-3.809,1.854-2.803-1.323-5.957-0.153
	c3.938,3.412,4.787,6.445,5.928,10.816c1.389-5.348,2.115-8.734,3.477-10.013c3.695-0.317,10.115-3.481,9.406,0.802
	c0.438,4.105-2.742,3.781-3.781,6.078c2.562-0.905,2.061,1.39,3.131,2.044c1.541-4.06,0.443-11.346,5.988-10.509
	c2.084-4.66,0.111-5.078-0.922-6.479c5.291,0.719,14.094-5.405,20.096-9.306c3.795,0.288,2.932,5.442,4.051,8.524
	c1.395-5.931,19.156-20.348,15.424-20.37c2.85-2.457,5.471-5.197,7.863-8.215c-1.076,3.248-0.893,5.183,1.24,5.082
	C310.901,158.169,311.704,154.851,310.841,153.271z"/>
<path fill-rule="evenodd" clip-rule="evenodd" fill="#F6F6F3" d="M283.06,114.049c1.801-8.819-32.577-26.188-59.666-29.967
	c5.248-9.53,8.707-1.763,15.879-5.496c-20.018-11.333-35.23-24.126-58.777-33.51c-2.641,7.234,8.568,7.133,10.275,12.063
	c-14.84-1.582-26.479-16.489-41.342-22.544c-0.482-0.194-0.965-0.387-1.446-0.581c-7.78-6.653-17.391-12.335-28.323-17.319
	c-0.482-0.193-0.964-0.387-1.446-0.581c-1.847-5.306-12.739-5.822-18.122-9.257c9.865-1.149,21.782,8.191,30.382,12.19
	c1.052-3.249-4.478-3.015-4.415-5.742c65.478,28.477,159.432,89.672,165.91,98.131c-6.298-2.52-1.781,0.885-3.059,0.811
	C288.878,110.469,284.536,115.062,283.06,114.049z"/>
<path fill-rule="evenodd" clip-rule="evenodd" fill="#D4D4C9" d="M234.78,130.597c-0.715-0.63-2.977-2.298-6.363-4.654
	c-2.676-0.267-1.319,2.721-3.854,1.475c-4.854-2.088,0.323-2.018-0.143-4.217c-1.489-1.009-3.104-2.091-4.828-3.23
	c-2.1-0.212-3.186,1.142-5.623,0.407c-0.398,3.345,6.613,1.506,4.689,5.917c-2.75-1.142-5.5-2.283-8.25-3.424
	c2.947-1.108,1.73-1.467,0.033-5.279c-12.16-5.466-23.521-9.694-33.025-11.056c2.447,3.105,6.182,5.309,10.594,7.042
	c-4.064,1.292-23.104-9.064-33.018-12.375c-0.786-0.326-1.572-0.652-2.357-0.978c-13.758-8.331-24.441-18.812-38.834-26.699
	c-0.135-2.43,1.461-2.185,1.213-4.79c-3.059-2.061-4.246-1.23-3.562,2.493c-3.145-2.619-6.199-5.299-10.592-7.042
	c1.604-5.018,5.268,1.825,8.252,3.424c1.665-6.592-13.462-6.378-9.389-10.512c-5.859,3.614-11.623-2.584-18.861-7.826
	c-0.951-4.135,1.683-2.729,1.221-6.11c-2.666-3.389-6.891-5.689-11.771-7.53c-4.137-1.357,2.092,6.727-1.213,4.79
	c-7.095-2.043-9.043-7.688-16.486-9.487c-5.323,7.325-11.213,17.125-3.527-2.788c3.274-0.4,6.727-0.173,10.308,0.522
	c-3.641-1.31-7.112-2.136-10.357-2.33c-4.706-0.28-28.095,9.384-26.333,13.667c4.323,10.506,12.348,9.524,87.676,50.463
	c64.645,35.133,75.99,49.204,96.99,45.87C228.368,133.004,238.858,134.19,234.78,130.597z"/>
<path fill-rule="evenodd" clip-rule="evenodd" fill="#E9EAE0" d="M188.444,122.946c7.701,0.11,13.324,2.297,18.41,5.021
	C202.093,131.527,187.663,130.485,188.444,122.946z"/>
<path fill="#E9EAE0" d="M194.583,254.89c0,3.306,5.232,3.856,6.609,4.683s2.754,1.928,19.279,2.479s45.721-3.029,58.391-6.61
	c12.668-3.581,37.457-19.004,39.936-22.86c2.479-3.855,2.754-16.525-3.305-17.902c0,0-1.234,4.567-1.125,6.492
	c0.402,7.03-26.25,22.5-32.75,24.5c-8.615,2.65-42.5,5-60.871,4.812c-17.703-0.18-26.439-5.783-26.439-5.783L194.583,254.89z"/>
<path fill="#5E5D59" d="M253.243,242.42c2.291,0.084,2.957-1.25,3.625,0.75c0.666,2,1,7,1,8.167s-1,7.833-0.834,8.833
	c0.168,1-1.166,3.333-2.332,3C253.534,262.837,253.243,242.42,253.243,242.42z"/>
<path fill="#EAE9E9" d="M252.743,242.67c2,1.334,1.291,2.916,1.625,7.249c0.332,4.333,0.332,9.001,0.332,11.333c0,2.334-2,4-4,1.334
	c-2-2.667-1.998-18.208-1.332-19.541S252.743,242.67,252.743,242.67z"/>
<path fill-rule="evenodd" clip-rule="evenodd" fill="#5E5D59" d="M234.161,257.92c-5.016,0.387-22.943-0.314-27.23,0.189
	c4.949,0.83,13.771,1.645,33.771,1.227c-17.668,1.668-35.219-0.089-39.73-2.657c-1.23,0.699-1.352-0.286-1.881,0.146
	c0.174-0.014,0.26,0.172-0.117,0.246c-0.928-0.799-1.314-2.648-4.039-2.289c0.527-0.634,0.412-0.781,1.529-1.301
	c-0.805,0.102-0.803-0.303-0.902-0.641c0.885-0.137,1.629-0.431,2.234-0.885c0.096,0.97-0.801,0.508-0.707,1.476
	c5.787,2.661,14.102,4.106,24.488,3.864c-0.008,0,40.764-1,24.041,0.041C237.743,258.295,234.919,257.897,234.161,257.92z"/>
<g>
	<path fill-rule="evenodd" clip-rule="evenodd" fill="#B53E3A" d="M189.036,232.336c-0.303-3.54-11.824-16.229-11.334-19.666
		c-21.334-27.666-26.887-5.159-29.262-6.659c-0.691-12.578,2.964-22.649-4.447-30.127c6.49-3.622,15.344,2.903,18.832,7.147
		c10.025-3.104-2.711-12.772-14.124-10.722c5.167-3.758-3.483-6.645-6.325-9.423c-2.397,15.834-1.538,31.565-4.649,50.562
		c5.147-0.264,11.322,8.319,10.976,3.888C150.94,195.511,175.626,207.393,189.036,232.336z"/>
	<g>
		<path fill-rule="evenodd" clip-rule="evenodd" fill="#B53E3A" d="M193.668,188.679c0.453,0.027-1.774-1.817-1.809-1.926
			c0.244-0.873-0.667-1.838-1.343-1.926c-5.221-1.512-15.898-7.119-19.898-8.578c-8.026-3.29-35.774-19.512-26.607-10.678
			c10.937,6.188,31.125,13.176,36.619,19.713c-0.212,0.385-0.391,0.859-0.551,1.369c-2.369-0.201-7.402-4.135-9.928-4.219
			c15.873,10.271,2.297,26.86,13.885,35.569c0.579-3.906,1.465-6.989,2.373-9.643c0.422,0.862,0.968,1.646,1.699,2.311
			c-3.668-0.206,2.832,4.881,4.781,16.819c-0.047,1.038-0.096,2.073-0.143,3.109c3.51,1.981,1.566,8.616,3.91,11.592
			c1.375,0.485,2.205,1.435,2.076,3.204c6.625-1.13,13.479,5.582,23.102,5.152c8.994,0.388,12.388,0.295,17.398-0.302
			c-6.742-0.404-17.797-2.502-33.654-8.706C204.969,223.656,199.29,205.925,193.668,188.679z"/>
		<path fill-rule="evenodd" clip-rule="evenodd" fill="#B53E3A" d="M239.233,250.248c5.473,0.328,8.107-0.458,8.135-1.077
			C243.938,249.628,241.431,249.986,239.233,250.248z"/>
	</g>
</g>
<path fill-rule="evenodd" clip-rule="evenodd" fill="#CAC8B9" d="M131.471,150.957c-14.956-8.458-27.462-17.364-44.667-25.413
	c10.796-8.266-11.143-15.345-16.688-21.107c-9.278-3.917-2.818,8.484-12.939,3.69c14.5-14.688-31.2-41.009-45.031-33.393
	c-4.117-9.391,9.891-16.32,13.588-23.927c1.782,0.563,4.219,2.345,4.863,3.139c16.8,23.706,76.398,45.109,114.777,64.668
	c-7.854-3.706-7.768,1.983-17.16-3.321c-0.879,2.84,21.778,12.183,18.587,15.445c-9.88-6.699-18.89-13.556-38.065-18.565
	c-4.869-4.844,3.819-3.851-0.363-7.982c-5.771-0.913-10.783-1.044-10.276,4.551c-9.366-4.694-11.596-12.75-25.224-12.853
	c-0.879,3.735,7.995,5.699,15.041,7.996c-9.439,3.869,4.662,6.931,11.004,11.412c-5.217,0.927-4.813,7.68-6.794,11.963
	c4.343,0.069,5.329-3.345,7.617-5.407c21.538,6.37,19.767,16.974,36.228,24.263C135.479,148.781,131.743,148.07,131.471,150.957z"/>
<path fill-rule="evenodd" clip-rule="evenodd" fill="#BDC3CD" d="M265.845,131.147c8.422,0.08,15.236-5.981,20.471-4.001
	c2.865,3.707,0.502,9.445,6.703,10.989c-2.387,1.285,2.984,6.825,3.488,10.08c-4.416,5.116-12.775,7.541-20.775,10.211
	c-1.496-4.712-3.898-10.751-9.033-15.146c5.172,0.534,4.395-2.992,3.229-6.78c-4.93-0.797-3.098,3.02-5.27,4.104
	c-0.482-2.469-0.965-4.937-1.447-7.404C265.11,133.165,266.649,134.921,265.845,131.147z"/>
<path fill="#5E5D59" d="M296.96,230.136c2.291,0.084,2.957-1.25,3.625,0.75c0.666,2,1,7,1,8.168c0,1.166-1,7.832-0.834,8.832
	c0.168,1-1.166,3.334-2.332,3C297.251,250.554,296.96,230.136,296.96,230.136z"/>
<path fill="#EAE9E9" d="M296.46,230.386c2,1.334,1.291,2.916,1.625,7.25c0.332,4.332,0.332,9,0.332,11.332c0,2.334-2,4-4,1.334
	s-1.998-18.207-1.332-19.541C293.751,229.429,296.46,230.386,296.46,230.386z"/>
<path fill-rule="evenodd" clip-rule="evenodd" fill="#19181A" d="M294.608,119.752c-1.236-5.383-42.625,13.531-51.876,17.385
	c1.065-0.475-3.823,2.437-14.185,4.223c-1.239-0.05-13.595,1.202-15.062,1.493c-8.083-0.832-7.247,1.678-7.171,7.078
	c0.99,5.536,1.103,26.08,3.327,29.758c0.975-0.191,3.968,0.038,4.942-0.153c18.116-2.614,35.158-10.341,53.523-12.784
	c0.875-0.257,28.516-8.543,28-9.75c0.488-0.096,11.014-3.405,11.5-3.5C313.608,145.501,298.681,129.665,294.608,119.752z"/>
<path fill="none" stroke="#000000" stroke-miterlimit="10" d="M136.607,221.386"/>
<path fill="none" stroke="#000000" stroke-miterlimit="10" d="M146.273,115.719"/>
<path fill-rule="evenodd" clip-rule="evenodd" fill="#CAC8B9" d="M198.356,150.472c-0.817-3.623-9.08-12.869-14.332-13.845
	c-5.254-0.975,1.678,1.617,5.332,5.888c3.406,3.981,5.297,6.977,5.588,12.132s2.058,21.006,2.058,21.006s-12.413-1.631-22.312-4.517
	c-2.377-0.692,22.75,12.438,24.75,4.799C200.196,173.045,198.574,151.435,198.356,150.472z"/>
<path fill="#170F0E" d="M153.287,173.192c1.413,0.533,2.829,0.966,4.259,1.626c2.123,0.979,4.252,2.127,6.383,3.206
	c-0.229,2.085-1.443,2.627-3.436,1.775c-2.33-0.998-4.706-1.561-6.979-4.409c-0.145-0.783-0.287-1.559-0.424-2.34
	C153.155,173.14,153.218,173.197,153.287,173.192z"/>
<path fill="#C3C6CF" d="M153.927,171.656l-0.006,0.105l0.096,0.07c2.034,0.754,4.068,1.512,6.096,2.272
	c1.006,0.444,2.002,0.882,3.064,1.346c0.227,0.632,0.459,1.29,0.695,1.952c0.02,0.205,0.037,0.413,0.055,0.623
	c-2.133-1.08-4.26-2.228-6.382-3.207c-1.429-0.66-2.845-1.093-4.26-1.626C153.492,172.679,153.712,172.162,153.927,171.656z"/>
<path fill-rule="evenodd" clip-rule="evenodd" fill="#5E5D59" d="M225.017,135.499c13.906-2.975,16.607-5.613,30.514-8.588
	c-3.744,4.199-6.543,4.241-5.279,7.088c-13.67,4.694-27.293,7.047-36.709,7.713c5.328-3.471,2.498-3.174-0.799-4.316
	C216.331,136.428,221.429,136.467,225.017,135.499z"/>
<path fill-rule="evenodd" clip-rule="evenodd" fill="#19181A" d="M147.224,133.184c-0.139,5.892-4.498,21.72-2.533,23.587
	c1.965,1.869,11.541,7.236,20.875,10.661s30.541,12.669,31.375,6.966c0.669-4.578-0.535-18.717-0.916-21.151
	c-2.25-14.378-27.973-24.954-36.5-27.727C153.302,123.496,147.55,119.173,147.224,133.184z"/>
<g>
	<path fill="#AAA999" d="M198.479,141.272c0.066,0.062,0.123,0.146,0.186,0.216c0.111-0.004,0.221-0.014,0.334-0.009
		c-0.296-0.198-0.623-0.376-0.932-0.564C198.214,141.037,198.358,141.158,198.479,141.272z"/>
	<path fill="#AAA999" d="M216.749,138.349c-3.707-1.817-12.314-0.427-12.762-4.378c-6.318-0.106-6.447-4.266-12.766-4.374
		c-26.184-7.853-74.224-39.042-100.822-46.623c9.266,7.918,46.291,29.036,56.498,31.934c4.293,0.279,14.538,6.126,14.001,5.654
		c18.34,4.5,28.231,13.704,43.356,20.305c1.092,0.229,2.186,0.457,3.277,0.686c0.432-2.169-2.559-2.098-2.592-3.961
		c4.8,1.002,7.608,1.589,11.467,2.396C216.522,139.441,216.636,138.894,216.749,138.349z"/>
	<path fill="#8F8D83" d="M169.856,129.137c-10.666-4.501-6.132-3.402-21.666-9c-1.111,11.304-3.235,22.81-4.281,34.373
		c-0.018-0.02-0.044-0.041-0.061-0.062c-0.248,0.688-0.539,1.471-0.882,2.383c7.153,4.769,22.224,11.307,31.349,14.307
		c-4.183-3.139-22.586-12.666-27.293-15c1.5-16.5,1.484-25.013,3.377-32.5c7.01,1.117,3.456,2.5,19.104,7.675
		c-0.121-0.06-0.129-0.07,0.021-0.008c-0.007,0.003-0.014,0.005-0.021,0.008c1.308,0.653,17.003,7.748,16.617,6.273
		c3.841,3.484,3.181,2.428,10.235,9.219C192.192,141.502,193.253,138.779,169.856,129.137z"/>
</g>
<path fill-rule="evenodd" clip-rule="evenodd" fill="#8F8D83" d="M308.44,148.886c-2.7-11.527-7.232-19.332-11.252-27.908
	c-0.977-3.991-2.43-6.75-4.148-9.049c-7.592,1.208-14.238,6.969-21.195,8.658c-20.412,5.513-32.691,8.829-37.064,10.009
	c-5.58,1.507-12.672,2.006-18.252,3.513c-0.031,0.385-0.066,0.772-0.098,1.159c0.426-0.115-7.32,0.367-12.918,1.878
	c0.227,1.432-0.045,2.063-0.187,3.911c3.464,0.932,7.716,2.82,10.019,2.973c0.797-0.215,1.594-0.43,2.391-0.645
	c3.188-0.862,7.889-0.715,11.078-1.576c11.869-2.471,13.516-3.854,24.535-6.974c1.332-1.866,1.498-4.619,3.982-5.607
	c1.32-0.117,1.196,1.136,1.637,2.025c7.429,3.378,34.963-18.325,37.877-10.951c-0.019,0.207,0.438,1.158,0.859,2.054
	c0.627,3.846,2.756,9.606,3.422,10.794c-0.209-0.886-0.309-1.491-0.186-1.515c0.49,1.697,0.473,2.026,0.186,1.515
	c0.615,2.605,4.678,9.039,4.314,9.109c1.777,5.523,0,6.625-2,6.625c-2.387,1.285-8.129,2.371-7.625,5.625
	c-4.416,5.117-2.124,1.331-10.125,4c-2.25,3-6.25,0.375-11.229,4.213c1.463-0.285-1.608,0.948-0.146,0.662
	C286.039,162.915,311.19,154.136,308.44,148.886z M250.251,133.999c-13.67,4.694-27.293,7.047-36.709,7.713
	c5.328-3.471,2.498-3.174-0.799-4.316c3.588-0.968,8.686-0.929,12.273-1.897c13.906-2.975,16.607-5.613,30.514-8.588
	C251.786,131.11,248.987,131.152,250.251,133.999z"/>
<path fill-rule="evenodd" clip-rule="evenodd" fill="#434543" d="M292.779,115.129c-0.066,0.773,2.085,1.057,2.021,1.83
	c-6.15,0.263-24.941,10.867-36.08,13.621C266.849,125.764,286.539,114.67,292.779,115.129z"/>
<g>
	<path fill-rule="evenodd" clip-rule="evenodd" fill="#CAC8B9" d="M272.212,163.724c1.463-0.285,34.392-10.802,35.854-11.088
		c-4.5,5.25-44.353,15.222-47.375,16.5c0.875-0.257-21.501,5.84-22.017,4.633c0.487-0.096,24.567-6.755,25.054-6.85
		c1.887-0.852-2.508-6.291,5.561-2.623c-5.105-13.975-13.408-27.646-16.299-36.786c-0.096-0.493-0.193-0.987-0.289-1.481
		c1.701-0.007,2.598,1.199,3.502,2.39C258.515,135.249,268.11,151.375,272.212,163.724z"/>
	<path fill-rule="evenodd" clip-rule="evenodd" fill="#E9EAE0" d="M252.19,135.387c2.851,5.701,11.25,28.25,12.25,29s5.75,1.25,5-1
		s-15.25-32.5-15.25-32.5S250.69,132.387,252.19,135.387z"/>
</g>
<path fill-rule="evenodd" clip-rule="evenodd" fill="#5E5D59" d="M258.19,254.886c0.75,0,15.904-0.696,29.666-7.25
	c7.875-3.75,3.668-0.333,3.668-0.333s-4.584,2.083-16.459,5.458s-14.541,3.375-14.541,3.375s4.98,2.289,28.666-7
	c6.375-2.5,2.75-0.5,2.75-0.5s-18.125,8-33.125,9.75c-2.238,0.262-0.625-2.25-0.625-2.25V254.886z"/>
<path fill-rule="evenodd" clip-rule="evenodd" fill="#5E5D59" d="M302.128,241.636c1.354,0.5-0.25,2-0.25,2
	s13.979-8.833,15.146-10.333c1.166-1.5,3.104-4.292,3.104-4.479c0-3.184,0.75-0.875-3.75,4.125c-1.814,2.018-13,8.938-13,8.938
	s10.375-7.5,11.875-9s4.667-5.854,5-7.188c0.333-1.333-3.816,5.934-7.812,8.938c-7.812,5.875-10.25,6.375-10.25,6.375
	L302.128,241.636z"/>
<path fill-rule="evenodd" clip-rule="evenodd" fill="#B53E3A" d="M64.94,164.261c-5.246-9.59-19.435-23.846-24.921-26.074
	c-0.508-1.442-2.686-2.461-6.829-1.425c-4.5,1.125-18.834,3.375-20.834-1.625s7.584-5.5,13.584-3.75
	c8.389,2.447-13.29-14.733-16.244-14.078c-0.208,1.279-0.209,2.059-0.34,0.494c-0.024-0.292,0.106-0.442,0.34-0.494
	c0.323-1.99,1.146-5.189,3.744-2.672c16,15.5,6-3.75,3-9.25c-2.891-5.3-9.417-24.917-9.417-16.584s-2.333,45,0,48
	c2.333,3,10,11.667,13,10c3-1.666,2.946-6.809,15.167-4.791c0.699,0.116,5,1.754,5,1.754c4,2.102,15.75,14.453,19,21.285
	s46,27.33,55.75,32.06C124.69,201.84,70.69,174.773,64.94,164.261z"/>
<path fill="#625F61" d="M218.499,161.419c0.131-0.559-0.078-2.254,0.679-2.348c0.229,0.448,1.723,2.096,1.739,2.77
	c0.613-0.143-0.664-1.7-0.063-1.85c3.349,2.189,9.35-5.663,14.959-5.587c2.688,0.036,1.474-1.298,4.201-2.379
	c0.22-0.773-0.265-0.824-0.121-1.521c2.662,0.058,5.229-1.735,6.684-0.552c0.181-1.113,0.632-1.156,1.211-1.251
	c0.89-2.656,0.445-6.479,0.244-8.845c-5.386,1.017-17.004,4.915-22.867,6.732c-0.598-0.234-1.288-0.372-2.196-0.199
	c-4.695,0.897-8.385,2.539-11.914,3.674C213.971,152.142,217.829,157.248,218.499,161.419z"/>
<path fill="#625F61" d="M267.94,146.136c3-14,17.969-16.307,20.826-17.781c-0.69-0.43,1.983-1.07,2.685-1.8
	c-0.108,0.113,0.822-0.282,0.501-0.38c0.363,0.026,0.729,0.007,1.129-0.217c-0.211-0.093-1.377,0.086-0.935-0.194
	c0.843-0.055,1.773,0.225,3.137-0.368c-2.345-0.875-3.47-3.427-8.192-3.022c0.729,0.078-5.406,3.977-5.188,4.199
	c-1.692,0.873-1.581,0.993-2.973,1.878c-0.189-0.297-5.58,1.169-5.461,0.784c-2.843,1.753-10.328,4.231-12.714,6.024
	c0.111,1.11,7.562,0.437,5.435,4.377C267.719,139.301,265.785,146.385,267.94,146.136z"/>
<path fill="#625F61" d="M171.303,138.412c-3.848-1.763-17.822-9.021-17.822-9.021s3.38,4.019-0.291,2.746
	c-3.673-1.272-0.896,1.726-0.5,3.333c0.396,1.608,4.675,2.396,3.129,2.741c-1.544,0.345-4.927,5.807-2.319,6.769
	c2.607,0.961,5.984-6.363,9.82-4.326c3.836,2.041,4.692-0.639,8.334,2.715c3.64,3.354,16.168,11.966,20.631,12.515
	s-3.954-9.155-3.293-7.646c0.66,1.509,2.127-0.549-5.668-2.531C175.526,143.726,184.55,144.474,171.303,138.412z"/>
</svg>
