<?xml version="1.0" encoding="utf-8"?>
<!-- Generator: Adobe Illustrator 15.0.2, SVG Export Plug-In . SVG Version: 6.00 Build 0)  -->
<!DOCTYPE svg PUBLIC "-//W3C//DTD SVG 1.1//EN" "http://www.w3.org/Graphics/SVG/1.1/DTD/svg11.dtd">
<svg version="1.1" id="Layer_1" xmlns="http://www.w3.org/2000/svg" xmlns:xlink="http://www.w3.org/1999/xlink" x="0px" y="0px"
	 width="841.89px" height="595.28px" viewBox="0 0 841.89 595.28" enable-background="new 0 0 841.89 595.28" xml:space="preserve">
<path fill="#951D1F" d="M282.957,143.397L282.957,143.397c-1.073-6.637-31.738-30.865-42.734-39.199c0,0-0.854-1.314-4.5-2.764
	c-3.041-1.209-4.695-3.355-4.625-3c-2.752-2.637-28.773-30.151-36.07-36.19c-9.425-9.767-90.184-50.402-99.68-55.644
	C85.192,0.997,27.04,38.825,25.916,41.709c-0.25,0.191-0.474,0.448-0.654,0.791c-1.045,1.97-2.256,3.759-3.139,5.917
	c-0.982,2.384-1.684,5.096-2.498,7.67c-0.621,1.94-1.258,3.862-1.828,5.849c-0.459,1.606-2.783,0.515-4.366-0.751
	c-0.104-0.11-0.198-0.206-0.282-0.289c-0.895-1.098-2.079-0.701-2.549-0.193c-0.178,0.195,0.166,1.645,0.523,2.244
	c2.031,3.396,2.738,8.15,1.637,10.709c-0.324,0.77-0.205,2.078-0.26,3.152c-0.035,0.83,0.068,1.773-0.053,2.533
	c-0.426,2.65-0.898,5.252-1.373,7.863c-0.176,0.908-0.449,1.727-0.572,2.664c-0.104,0.836-0.106,3.025-0.123,3.92
	c0.012-0.037,0.022-0.064,0.033-0.085c0.019,0.758,0.037,1.518,0.055,2.271c0.099-0.033,0.199-0.064,0.3-0.094
	c0.088,0.162,0.197,0.281,0.331,0.347c0.333,0.163,0.581,0.243,0.797,0.288c0.867,0.518,1.735,1.036,2.604,1.545
	c0.658,0.418,1.326,0.834,1.994,1.246c6.781,3.518,13.488,4.5,20.377,10.627c1.927,1.713,3.947,3.211,5.646,5.476
	c0.626,1.007,1.202,1.961,1.721,2.851c1.115,2.309,2.06,4.71,3.066,7.082c1.618,6.439,2.758,16.379,4.62,20.672
	c0.567,2.258,2.393,4.598,4.376,5.678c2.478,1.352,5.157,2.465,7.643,3.887c22.083,15.014,69.353,44.515,84.247,50.397
	c1.057,0.654,2.114,1.299,3.173,1.914c1.014,0.576,1.567,0.113,1.159-1.436c2.968-1.729,4.392-8.783,5.624-11.739
	c0.001-0.002,0.001-0.004,0.002-0.006c0.429-0.893,0.85-1.793,1.244-2.725c1.193-2.805,2.576-5.404,5.131-5.838
	c1.791-0.314,3.855-0.273,5.879,0.625c3.57,1.607,7.201,3.988,10.803,6.041c-0.038-0.188-0.076-0.375-0.113-0.562
	c8.898,5.255,10.756,15.186,10.756,15.186c0.143,2.307,7,8.465,8,3c0.998-5.467-0.803-12.772,8.639-15.963
	c9.439-3.188,1.99,4.667,8.705,0.949c3.498-1.936,19.186-11.127,19.186-11.127c7.484-4.406,29.629-16.764,30.205-17.703
	c0.578-0.941,0-5.43,5.545-9.033c5.547-3.605,11.506-7.936,11.377-4.547C283.373,156.407,284.402,144.565,282.957,143.397z"/>
<g>
	<path fill="#64757A" d="M7.684,105.075c-0.769-2.51-1.368-4.783-0.711-6.714c0.188-0.567,0.158-1.373,0.226-2.07
		c0.481-0.17,0.953-0.353,1.426-0.527c-2.681-1.546-3.78-0.717-3.096,3.156c0.558,3.133,1.815,6.422,2.53,9.615
		c0.417,1.845,0.393,3.646,0.5,5.444c0.139,2.373,0.226,4.729,0.329,7.086c0.159-1.74,0.263-3.521,0.476-5.216
		c0.096-0.745,0.391-1.336,0.611-2.062c-0.164-0.403-0.539-1.115-0.713-1.815C8.709,109.665,8.393,107.36,7.684,105.075z"/>
	<path fill="#64757A" d="M16.473,99.893c-0.668-0.412-1.426-0.624-2.084-1.042c-1.154-0.291-2.191-1.542-3.34-1.838
		c-0.648-0.349-1.307-0.711-1.951-1.057c-0.154-0.067-0.317-0.129-0.473-0.191c-0.474,0.175-0.943,0.357-1.426,0.529
		c3.697,1.855,7.389,3.709,11.084,5.556c0.018-0.199,0.029-0.41,0.039-0.625C17.715,100.535,17.083,100.592,16.473,99.893z"/>
</g>
<path fill="#223F64" d="M8.973,121.573c0.051,0.042,0.092,0.074,0.134,0.116c-0.047,0.029-0.101,0.059-0.146,0.092L8.973,121.573z"
	/>
<path fill="#64757A" d="M192.734,230.582c-0.863,1.949-1.713,3.898-2.561,5.859c-0.105-1.729-0.477-3.678-0.271-5.154
	c0.861-6.273,0.312-12.576-3.561-20.086c-3.578-6.93-10.289-13.564-15.072-13.879c-1.918-0.133-3.734,0.15-5.752,0.25
	c1.84-2.563,4.416-2.608,7.326-1.776c4.676,1.333,9.025,4.849,12.779,10.933c3.904,6.314,6.279,13.131,7.049,20.189
	c0.082,0.736,0.473,1.584,0.707,2.371C193.166,229.722,192.945,230.146,192.734,230.582z"/>
<path fill="#64757A" d="M186.061,178.766c0.676,0.703,1.277,1.674,1.912,2.521c-1.838-1.619-3.678-3.242-5.938-5.223
	c0.648-0.039,0.805-0.045,0.957-0.051C184.016,176.922,185.057,177.743,186.061,178.766z"/>
<path fill="#64757A" d="M179.703,173.125c0.092,0.143,0.195,0.268,0.268,0.424c0.043,0.121,0.039,0.264,0.086,0.533
	c-2.053-1.789-4.059-3.535-6.061-5.273c0.018-0.084,0.021-0.172,0.037-0.254c0.691,0.398,1.387,0.799,2.074,1.199
	C177.303,170.87,178.506,172,179.703,173.125z"/>
<path fill="#C3C6CF" d="M203.045,229.031"/>
<path fill="#30558B" d="M51.266,54.867c-0.857-0.483-1.723-0.974-2.576-1.457C49.543,53.893,50.4,54.379,51.266,54.867z"/>
<path fill="#30558B" d="M57.254,57.929c0.029,0.172,0.051,0.345,0.08,0.521c-0.125-0.087-0.254-0.172-0.379-0.258
	C57.061,58.104,57.16,58.016,57.254,57.929z"/>
<path fill="#951D1F" d="M56.299,151.524c-2.143-1.166-4.121-3.807-4.504-6.221c0.816,0.627,1.645,1.367,2.473,1.846
	c18.08,10.631,36.158,21.191,54.234,31.842c5.852,3.439,11.701,7.016,17.557,10.59c7.914,4.812,15.828,9.677,23.732,14.526
	c0.855,0.525,1.709,1.102,2.572,1.648c0.691,1.98,0.121,2.605-1.002,1.965c-3.225-1.873-6.443-3.98-9.668-5.996
	c-1.578-1.232-3.158-2.695-4.744-3.645c-5.574-3.319-11.148-6.362-16.711-9.671c-7.65-4.557-15.271-9.363-22.91-13.865
	c-6.182-3.645-12.357-6.998-18.525-10.475c-0.625,0.008-1.244,0.02-1.861,0.033c-0.107-0.008-0.207-0.014-0.307-0.014
	c-0.709-0.57-1.404-1.139-2.104-1.703c-0.486-0.332-0.969-0.689-1.455-0.992c-1.693-1.041-3.391-2.055-5.09-3.086
	c-0.824-0.488-1.652-0.992-2.469-1.475c-0.527-0.293-1.061-0.6-1.594-0.9C61.385,154.456,58.842,152.911,56.299,151.524z"/>
<path fill="#4A75B6" d="M176.039,236.828c1.793,1.045,3.602,2.086,5.418,3.135C179.654,238.921,177.848,237.88,176.039,236.828z"/>
<path fill="#313432" d="M76.625,164.292c-0.699-0.633-1.395-1.266-2.094-1.906c0.699,0.562,1.396,1.131,2.104,1.701
	C76.68,164.172,76.68,164.243,76.625,164.292z"/>
<path fill="#64757A" d="M38.531,156.983c1.131,0.629,2.266,1.266,3.404,1.896C40.797,158.249,39.664,157.612,38.531,156.983z"/>
<path fill="#64757A" d="M163.807,227.457c0.373,0.43,0.758,0.857,1.141,1.291c-0.039,0.15-0.084,0.291-0.125,0.434
	c-0.275-0.209-0.551-0.426-0.828-0.641C163.93,228.181,163.863,227.816,163.807,227.457z"/>
<path fill="#4A75B6" d="M163.646,229.474c0.123,0.068,0.252,0.145,0.371,0.215C163.896,229.619,163.773,229.546,163.646,229.474z"/>
<path fill="#64757A" d="M32.83,153.793c0.154,0.074,0.305,0.15,0.453,0.221C33.133,153.944,32.984,153.868,32.83,153.793z"/>
<path d="M87.453,106.945c0.096,2.099,0.404,4.304,0.621,6.468c-1.07-0.629-2.158-1.265-3.227-1.889
	c-0.166-2.765-32.518-20.705-32.613-20.83c-0.199-3.131-0.969-5.375-0.969-8.394c0-4.229,0.764-14.549,1.053-18.6
	c0.037-0.473,6.641,2.277,7.262,2.631c7.863,4.479,14.142,8.244,21.996,12.789c0.783,0.458,3.946,2.131,3.841,3.999
	c0.406,2.806,1.276,9.951,1.681,12.752C87.215,99.561,87.266,103.216,87.453,106.945z"/>
<path fill="#64757A" d="M139.307,139.051c0.914,1.559,1.688,3.611,2.537,4.178c1.564,1.049,3.125,1.508,4.445,3.867
	c0.17,0.307,0.52,0.453,0.783,0.67c0.105,1.338,0.377,2.793,0.248,3.945c-0.037,0.352-1.182,0.035-1.836-0.314
	c-1.99-1.057-3.98-2.273-5.971-3.422c-0.248-0.27-0.492-0.527-0.965-1.031c0.5-0.119,0.812-0.197,1.24-0.301
	c-0.861-0.666-1.598-1.232-2.336-1.799c0.039-1.855-0.803-2.988-2.039-3.797c0.449,0.111,0.906,0.225,1.527,0.383
	c-0.061-1.082-0.117-2.17-0.176-3.248c0.125-0.439,0.248-0.871,0.383-1.307C137.844,138.549,138.625,139.631,139.307,139.051z
	 M138.812,143.661c1.125-0.871,1.104-1.115-0.457-3.93C138.547,141.395,138.666,142.413,138.812,143.661z"/>
<path fill="#64757A" d="M139.17,127.327c1.582,2.555,3.146,5.111,4.723,7.658C142.318,132.438,140.752,129.881,139.17,127.327z"/>
<path fill="#64757A" d="M145.248,137.176c1.184,2.039,2.373,4.078,3.561,6.111C147.621,141.254,146.432,139.215,145.248,137.176z"/>
<path fill="#64757A" d="M143.1,138.682c0.076-0.072,0.16-0.143,0.242-0.215c0.551,0.891,1.096,1.771,1.65,2.672
	c0.02,0.324,0.039,0.65,0.053,0.973C144.391,140.963,143.746,139.831,143.1,138.682z"/>
<path fill="#64757A" d="M143.875,134.969c0.441,0.703,0.879,1.408,1.324,2.115C144.752,136.377,144.316,135.672,143.875,134.969z"/>
<path fill="#64757A" d="M137.834,124.987c0.447,0.789,0.904,1.582,1.35,2.373C138.738,126.569,138.279,125.778,137.834,124.987z"/>
<path fill="#64757A" d="M136.498,122.879c0.451,0.717,0.9,1.426,1.352,2.141C137.398,124.305,136.949,123.588,136.498,122.879z"/>
<path fill="#64757A" d="M21.809,59.793c-0.02,0.113-0.033,0.229-0.066,0.33C21.768,60.014,21.789,59.906,21.809,59.793z"/>
<path fill="#64757A" d="M148.854,143.381c0.229,0.404,0.453,0.814,0.688,1.229C149.307,144.198,149.082,143.79,148.854,143.381z"/>
<path fill="#B53E3A" d="M154.205,205.171c-0.291,0.596-1.215,0.408-1.84,0.58c-0.861-0.553-1.715-1.125-2.572-1.65
	c-7.906-4.85-15.818-9.716-23.732-14.528c-5.855-3.57-11.705-7.146-17.557-10.59c-18.076-10.648-36.154-21.209-54.234-31.842
	c-0.826-0.479-1.656-1.219-2.471-1.844c-0.047-0.225-0.088-0.457-0.133-0.682c-0.172-0.816-0.35-1.633-0.521-2.443
	c-0.043-0.312-0.1-0.639-0.143-0.949c0.324-0.357,0.646-0.727,1.383-1.557c-0.203,3.061,1.152,3.281,2.182,4.035
	c0.377,0.281,0.777,0.492,1.17,0.725c10.945,6.449,21.895,12.91,32.848,19.359c2.123,1.252,4.24,2.457,6.367,3.684
	c-1.156-1.059-2.305-2.031-3.463-2.746c-4.795-2.965-9.604-5.889-14.404-8.77c-7.264-4.359-14.521-8.666-21.777-13.016
	c-0.617-0.373-1.229-0.994-1.879-1.531c0.459-2.27,1.449-2.424,3.193-1.402c12.176,7.105,24.363,14.055,36.549,21.123
	c0.965,0.559,1.92,1.619,2.984,2.535c1.008,0.338,2.215,0.482,3.43,1.178c15.373,8.812,30.74,17.693,46.102,26.592
	c1.674,0.971,3.355,2.137,5.01,3.414c0.744,0.58,1.445,1.659,2.213,2.56c0.861-1.325,1.916-1.12,3.393,0.92
	C156.521,201.556,155.145,203.171,154.205,205.171z M96.365,168.186c18.76,11.174,37.145,22.131,55.527,33.087
	c-0.008-0.346-0.004-0.689-0.014-1.031C133.5,189.625,115.117,179.016,96.365,168.186z"/>
<path fill="#C3C6CF" d="M31.334,146.737c-5.812-3.279-10.729-12.072-10.387-19.344c0.334-6.907,3.518-11.399,10.42-7.702
	c5.887,3.157,10.244,11.477,10.291,19.381C41.707,146.649,37.166,150.018,31.334,146.737z M36.072,127.551
	c-0.971-2.83-3.742-5.56-5.449-5.238C31.223,123.971,31.223,123.971,36.072,127.551z M35.971,145.315
	c0.256,0.045,0.291-0.947,0.438-1.455c-0.438-0.348-0.977-1.039-1.287-0.998c-1.314,0.148-2.551,0.518-3.82,0.803
	c0.02,0.145,0.043,0.305,0.066,0.453C32.906,144.543,34.469,145.051,35.971,145.315z M23.527,133.262
	c0.777,1.832,1.533,3.68,2.426,5.443c0.24,0.484,0.879,0.701,1.332,1.025c-0.117-0.717-0.062-1.568-0.367-2.127
	c-1.041-1.879-2.207-3.643-3.609-5.924C23.422,132.53,23.393,132.938,23.527,133.262z M23.309,126.086
	c1.074,0.939,1.074,0.939,3.072-3.352C25.219,122.265,23.516,124.125,23.309,126.086z M39.357,134.327
	c-0.01-0.229-0.574-0.748-0.893-1.135c-0.162,0.408-0.504,0.77-0.436,1.244c0.273,1.941,0.682,3.922,1.045,5.891
	c0.105,0.088,0.215,0.172,0.32,0.254C39.398,138.508,39.428,136.442,39.357,134.327z"/>
<path fill="#64757A" d="M18.551,118.876c-0.305-4.029,3-6.886,6.42-5.674C22.795,115.121,20.734,116.952,18.551,118.876z"/>
<path fill="#951D1F" d="M51.141,142.174c0.172,0.812,0.35,1.629,0.521,2.443C51.49,143.803,51.312,142.987,51.141,142.174z"/>
<path fill="#30558B" d="M15.428,122.456c-0.082-0.215-0.156-0.428-0.232-0.64C15.273,122.022,15.346,122.24,15.428,122.456z"/>
<path fill="#30558B" d="M15.158,121.773c-0.168-0.153-0.32-0.301-0.488-0.458C14.836,121.473,14.992,121.619,15.158,121.773z"/>
<path fill="#C3C6CF" d="M187.266,224.195c-0.023,7.236-5.074,11.275-10.264,7.713c-6.203-4.264-10.732-12.521-10.658-20.568
	c0.059-7.311,4.725-10.799,10.188-7.59C182.576,207.294,187.279,216.259,187.266,224.195z M177.031,228.968
	c1.725,0.258,3.457,0.512,5.309,0.783C181.061,227.191,180.848,227.15,177.031,228.968z M181.23,211.976
	c-1.016-2.441-3.611-5.053-5.354-5.141C177.436,210.449,179.641,209.925,181.23,211.976z M184.916,222.623
	c0.045-0.568,0.133-1.127,0.082-1.738c-0.053-0.645-0.195-1.354-0.396-2.035c-0.049-0.158-0.664-0.49-0.678-0.412
	c-0.129,0.492-0.299,1.031-0.211,1.623c0.258,1.744,0.633,3.525,0.986,5.391C184.77,224.527,184.844,223.578,184.916,222.623z
	 M171.887,223.818c0.102,0.217,0.773,0.443,0.812,0.309c0.09-0.357,0.107-1.029-0.094-1.393c-0.969-1.795-2.018-3.533-3.041-5.299
	c-0.109,0.062-0.223,0.119-0.338,0.182C170.109,219.689,170.965,221.771,171.887,223.818z M171.059,207.347
	c-0.801,0.857-1.617,1.703-2.424,2.561C170.342,211.103,170.551,210.824,171.059,207.347z"/>
<path fill="#BF3C28" d="M140.367,201.066c-10.537-6.179-21.076-12.351-31.613-18.546c-8.809-5.174-17.611-10.332-26.42-15.586
	c-1.184-0.703-2.357-1.902-3.531-2.867c6.17,3.477,12.344,6.83,18.525,10.475c7.639,4.502,15.26,9.305,22.91,13.863
	c5.562,3.311,11.135,6.354,16.711,9.671c1.586,0.949,3.166,2.416,4.744,3.645C141.252,201.503,140.811,201.324,140.367,201.066z"/>
<path fill="#951D1F" d="M181.756,193.024c1.049,1.016,2.102,2.031,3.15,3.039C183.857,195.055,182.805,194.04,181.756,193.024z"/>
<path fill="#64757A" d="M198.357,197.544c0.023,0.203,0.041,0.402,0.057,0.607c-0.033-0.066-0.082-0.141-0.082-0.205
	c-0.018-0.199-0.008-0.387-0.008-0.578C198.336,197.427,198.357,197.486,198.357,197.544z"/>
<path fill="#313432" d="M65.518,156.833c0.816,0.482,1.645,0.986,2.469,1.473C67.172,157.823,66.34,157.327,65.518,156.833z"/>
<path fill="#170F0E" d="M53.508,127.418c0.217,0.133,0.438,0.334,0.654,0.5c0.637,0.496,1.266,1.084,1.906,1.465
	c4.051,2.424,8.105,4.797,12.15,7.184c3.502,2.1,7.008,4.203,10.508,6.301c4.783,2.834,9.559,5.674,14.336,8.477
	c0.473,0.277,0.951,0.27,1.418,0.385c0.449,0.316,0.898,0.643,1.348,0.963c0.254,0.371,0.508,0.932,0.758,1.078
	c3.006,1.748,6.004,3.426,9,5.121c5.539,3.242,11.072,6.477,16.613,9.709c1.58,1.047,3.174,2.191,4.762,3.123
	c3.59,2.109,7.182,4.127,10.777,6.174c4.756,2.803,9.521,5.613,14.275,8.385c0.426,0.244,0.844,0.281,1.266,0.424
	c0.891,0.576,1.777,1.143,2.664,1.717c0.742,0.482,1.674,0.691,1.674,2.355c0.008,1.541-0.832,1.086-1.619,0.707
	c-1.188-0.576-2.381-1.221-3.572-1.842c-5.707-3.295-11.422-6.6-17.133-9.91l-0.043,0.02c-1.486-0.924-2.973-1.891-4.467-2.766
	c-10.619-6.201-21.234-12.371-31.854-18.564c-1-0.582-1.998-1.236-3.002-1.861c-2.988-1.922-5.982-3.945-8.979-5.754
	c-6.727-4.066-13.457-8.07-20.182-12.004c-2.439-1.428-4.875-2.576-7.314-3.863c-2.436-1.436-4.867-2.877-7.305-4.324l-0.053-0.043
	c-0.307-0.27-0.607-0.535-0.916-0.807C50.479,126.278,50.924,125.836,53.508,127.418z"/>
<path fill="#170F0E" d="M99.277,128.674c1.289,0.787,2.6,1.475,3.883,2.391c1.902,1.357,3.781,2.881,5.674,4.338
	c-0.613,2.006-1.906,2.312-3.705,1.105c-2.104-1.414-4.334-2.41-6.037-5.631c0.004-0.797,0.008-1.586,0.02-2.377
	C99.158,128.6,99.209,128.667,99.277,128.674z"/>
<path fill="#170F0E" d="M48.65,101.392c-1.361-1.707-0.674-3.002-0.846-4.475c2.111,1.354,4.223,2.784,6.332,4.021
	c0.773,0.454,1.551,0.472,2.328,0.694c1.232,2.438,1.098,3.083-0.85,3.999C53.297,104.22,50.979,102.808,48.65,101.392z"/>
<path fill="#64757A" d="M57.941,130.84c-0.641-0.381-3.141-2.428-3.777-2.922c13.434,7.934,26.879,15.867,40.316,23.811
	c-0.467-0.117-1.568-0.049-2.039-0.326C87.662,148.6,61.992,133.266,57.941,130.84z"/>
<path fill="#C3C6CF" d="M100.191,127.286l-0.025,0.102l0.082,0.086c1.857,1.121,3.715,2.244,5.566,3.367
	c0.904,0.625,1.803,1.24,2.76,1.893c0.105,0.662,0.211,1.354,0.32,2.047c-0.02,0.205-0.041,0.414-0.062,0.623
	c-1.895-1.457-3.771-2.98-5.674-4.338c-1.281-0.916-2.592-1.604-3.883-2.391C99.574,128.209,99.887,127.743,100.191,127.286z"/>
<path fill="#64757A" d="M96.586,153.77c-0.25-0.146-0.504-0.709-0.758-1.084c0.652,0.254,1.311,0.4,1.959,0.773
	c3.693,2.148,7.375,4.316,11.053,6.52c4.174,2.506,9.543,5.793,13.727,8.33c-4.453-2.572-10.104-5.908-14.562-8.439
	c-0.803-0.457-3.25-1.518-4.062-1.842C100.947,156.334,99.592,155.518,96.586,153.77z"/>
<path fill="#C3C6CF" d="M48.852,96.207c1.949,1.178,3.9,2.264,5.836,3.529c0.596,0.386,1.191,1.257,1.777,1.896
	c-0.777-0.223-1.553-0.24-2.326-0.694c-2.111-1.236-4.221-2.667-6.332-4.021C47.582,95.536,48.156,95.789,48.852,96.207z"/>
<path fill="#BF3C28" d="M159.217,179.885c-0.48-0.365-0.848-1.648-1.273-2.521c0.475-0.283,0.916-0.996,1.42-0.768
	c1.262,0.584,2.16,2.012,2.602,4.414C160.98,180.639,160.064,180.54,159.217,179.885z"/>
<path fill="#BF3C28" d="M49.381,102.587c-0.229-0.121-0.484-0.786-0.73-1.194c2.328,1.415,4.646,2.827,6.965,4.238
	C53.547,104.635,51.461,103.656,49.381,102.587z"/>
<path fill="#BF3C28" d="M95.26,134.612h0.002C95.107,134.37,95.145,134.34,95.26,134.612L95.26,134.612z"/>
<path fill="#CE6E6D" d="M190.285,191.153c-0.465-0.191-0.932-0.305-1.395-0.6c-6.115-3.84-12.227-7.693-18.34-11.6
	c-0.383-0.242-0.76-0.85-1.146-1.287c0.047-0.186,0.088-0.375,0.135-0.557c6.951,3.191,13.861,7.912,20.738,13.314
	C190.277,190.667,190.277,190.909,190.285,191.153z"/>
<path fill="#951D1F" d="M105.814,130.838c-1.852-1.123-3.709-2.246-5.566-3.365C102.123,127.506,103.982,128.354,105.814,130.838z"
	/>
<path fill="#951D1F" d="M99.111,128.5c-0.686-2.1,0.121-1.787,1.08-1.217c-0.305,0.457-0.617,0.926-0.916,1.391
	C99.209,128.667,99.158,128.6,99.111,128.5z"/>
<path d="M45.533,64.829c0.019-0.015,0.041-0.027,0.059-0.043l0.016-0.008c0-0.221,0-0.442,0-0.657
	c0.02-0.134,0.043-0.267,0.053-0.41c-0.08-0.911-0.152-1.817-0.258-3.056c-0.766-0.32-1.744-0.982-2.57-1.024
	c-3.959-0.242-8.119-2.136-12.268-3.85c-0.893-0.372-1.75-0.317-2.623-0.458c-0.787,3.142-1.527,6.332-2.381,9.412
	c-0.312,1.124-0.863,1.999-1.299,2.997c-0.271,1.982-0.541,3.971-0.803,5.96c0.001,0.001,0.002,0.002,0.003,0.003
	c-0.312,1.191,0.584,1.819,1.197,2.201c5.447,3.411,10.732,6.662,15.863,9.729c0.404,0.244,0.818-0.098,1.229-0.285
	c0.052,0.031,0.104,0.061,0.154,0.092c0.01-0.054,0.02-0.108,0.028-0.162c0.005-0.001,0.009-0.003,0.014-0.005
	c-0.004-0.002-0.008-0.004-0.012-0.007c0.084-0.474,0.171-0.942,0.253-1.428c-0.006-0.079-0.018-0.161-0.026-0.241
	c0.466-1.732,0.997-3.414,1.365-5.234c0.451-2.239,0.773-4.616,1.148-6.931c0.328-2.002,0.666-3.989,0.99-5.99
	C45.686,65.287,45.594,65.045,45.533,64.829z"/>
<path fill="#64757A" d="M45.609,64.119c0,0.215,0,0.437,0,0.657C45.609,64.556,45.609,64.334,45.609,64.119z"/>
<path fill="#C3C6CF" d="M136.766,138.182c0.059,1.078,0.117,2.164,0.176,3.248c-0.621-0.158-1.078-0.271-1.529-0.385l-0.012,0.076
	c-0.684-0.877-1.67,0.25-2.17-1.791c0.773-0.998,1.549-1.988,2.318-2.982C135.957,136.963,136.357,137.567,136.766,138.182z"/>
<path fill="#223F64" d="M119.436,109.701c-0.18-0.262-0.361-0.528-0.541-0.791C119.074,109.173,119.256,109.438,119.436,109.701z"/>
<path fill="#313432" d="M136.484,144.167l-0.037-0.092c-0.35-0.986-0.695-1.969-1.049-2.951l0.014-0.078
	c1.236,0.809,2.076,1.943,2.039,3.797c-0.176-0.111-0.354-0.229-0.527-0.34C136.777,144.389,136.631,144.276,136.484,144.167z"/>
<path fill="#C3C6CF" d="M138.812,143.661c-0.146-1.248-0.266-2.266-0.457-3.93C139.916,142.545,139.938,142.788,138.812,143.661z"/>
<path fill="#951D1F" d="M49.359,73.772c-0.062,1.315-0.129,2.638-0.203,3.959C48.244,75.757,48.842,74.792,49.359,73.772z"/>
<path fill="#313432" d="M95.129,98.902c0.082-0.033,0.158-0.083,0.234-0.124"/>
<path fill="#951D1F" d="M151.891,201.273c-18.383-10.954-36.768-21.911-55.527-33.085c18.754,10.83,37.139,21.438,55.516,32.054
	C151.887,200.583,151.885,200.927,151.891,201.273z"/>
<path fill="#313432" d="M36.072,127.551c-4.85-3.58-4.85-3.58-5.449-5.238C32.33,121.99,35.102,124.721,36.072,127.551z"/>
<path fill="#313432" d="M31.301,143.665c1.27-0.287,2.506-0.654,3.82-0.803c0.311-0.041,0.85,0.648,1.287,0.998
	c-0.146,0.508-0.184,1.5-0.438,1.453c-1.502-0.262-3.064-0.77-4.604-1.195C31.344,143.969,31.322,143.811,31.301,143.665z"/>
<path fill="#313432" d="M26.916,137.606c0.305,0.559,0.252,1.412,0.367,2.127c-0.453-0.324-1.09-0.541-1.332-1.025
	c-0.891-1.766-1.648-3.611-2.426-5.445c-0.135-0.322-0.104-0.732-0.217-1.582C24.711,133.961,25.877,135.727,26.916,137.606z"/>
<path fill="#313432" d="M23.309,126.086c0.209-1.961,1.91-3.822,3.072-3.352C24.383,127.026,24.383,127.026,23.309,126.086z"/>
<path fill="#313432" d="M39.072,140.327c-0.363-1.969-0.771-3.949-1.045-5.891c-0.066-0.475,0.273-0.836,0.438-1.244
	c0.318,0.387,0.883,0.906,0.891,1.135c0.072,2.115,0.043,4.18,0.039,6.254C39.289,140.497,39.182,140.415,39.072,140.327z"/>
<path fill="#951D1F" d="M52.096,130.573l0.053,0.043L52.096,130.573z"/>
<path fill="#313432" d="M177.031,228.968c3.818-1.82,4.029-1.779,5.309,0.783C180.486,229.48,178.754,229.226,177.031,228.968z"/>
<path fill="#64757A" d="M181.23,211.976c-1.59-2.051-3.797-1.525-5.354-5.141C177.619,206.923,180.217,209.533,181.23,211.976z"/>
<path fill="#313432" d="M183.711,220.06c-0.088-0.592,0.084-1.131,0.213-1.623c0.012-0.08,0.629,0.254,0.678,0.412
	c0.201,0.682,0.342,1.389,0.396,2.035c0.051,0.611-0.037,1.17-0.082,1.736c-0.07,0.957-0.146,1.906-0.217,2.83
	C184.346,223.585,183.971,221.804,183.711,220.06z"/>
<path fill="#313432" d="M169.564,217.435c1.023,1.766,2.072,3.504,3.041,5.299c0.201,0.361,0.184,1.035,0.094,1.393
	c-0.039,0.135-0.711-0.092-0.812-0.309c-0.92-2.047-1.777-4.127-2.66-6.201C169.344,217.554,169.455,217.496,169.564,217.435z"/>
<path fill="#313432" d="M171.059,207.347c-0.508,3.477-0.717,3.756-2.424,2.561C169.443,209.05,170.258,208.205,171.059,207.347z"/>
<path fill="#64757A" d="M150.965,185.102c-9.867-5.865-19.727-11.699-29.59-17.537c-4.453-2.572-8.912-5.16-13.369-7.693
	c-0.803-0.459-3.846-1.895-4.658-2.219c5.326,3.115,12.688,7.354,18.172,10.551c1.639,1.09,4.05,2.701,5.443,3.52
	c3.586,2.109,7.18,4.125,10.775,6.172c4.756,2.803,9.521,5.613,14.275,8.385c0.426,0.246,0.844,0.283,1.266,0.426
	C152.51,186.167,151.734,185.557,150.965,185.102z M135.316,176.079c-0.056-0.033-0.117-0.068-0.174-0.102
	c0.058,0.034,0.116,0.066,0.174,0.1c0.268,0.154,0.533,0.343,0.798,0.541C135.85,176.42,135.584,176.232,135.316,176.079z"/>
<path fill="#64757A" d="M68.211,136.565c3.51,2.1,7.006,4.199,10.518,6.301C75.227,140.768,71.721,138.665,68.211,136.565z"/>
<path fill="#951D1F" d="M135.293,179.733l-0.043,0.02L135.293,179.733z"/>
<path fill="#223F64" d="M135.129,143.225c-0.684-0.941-1.379-1.854-2.02-2.852c-0.104-0.168,0.074-0.684,0.121-1.043
	c0.498,2.041,1.486,0.914,2.168,1.791c0.354,0.982,0.699,1.965,1.051,2.951C136.008,143.79,135.566,143.502,135.129,143.225z"/>
<path fill="#64757A" d="M136.484,144.165c0.146,0.111,0.293,0.225,0.439,0.338C136.777,144.389,136.631,144.276,136.484,144.165z"/>
<path fill="#951D1F" d="M96.902,86.28c-0.029-0.361-0.066-0.74-0.104-1.106C96.836,85.54,96.873,85.919,96.902,86.28z"/>
<path fill="#951D1F" d="M97.041,87.53c-0.043-0.316-0.08-0.638-0.113-0.949C96.961,86.894,96.998,87.214,97.041,87.53z"/>
<path fill="#CE6E6D" d="M86.873,71.262c0.191,0.084,0.381,0.167,0.568,0.251C87.252,71.429,87.064,71.346,86.873,71.262z"/>
<path fill="#583D35" d="M90.406,77.519c-0.127-0.071-0.252-0.142-0.377-0.208C90.154,77.377,90.279,77.447,90.406,77.519z"/>
<path fill="#583D35" d="M87.656,76.149c-0.086-0.043-0.172-0.082-0.262-0.13C87.484,76.065,87.57,76.106,87.656,76.149z"/>
<path fill="#583D35" d="M89.541,77.064c-0.088-0.032-0.182-0.074-0.283-0.115C89.359,76.99,89.453,77.032,89.541,77.064z"/>
<path fill="#583D35" d="M88.027,76.311l-0.055,0.014l-0.059-0.05C87.951,76.282,87.99,76.296,88.027,76.311z"/>
<path fill="#583D35" d="M88.531,76.578c-0.039-0.021-0.084-0.037-0.121-0.063C88.447,76.541,88.494,76.558,88.531,76.578z"/>
<path fill="#583D35" d="M89.912,77.247c-0.041-0.021-0.078-0.039-0.115-0.05C89.834,77.173,89.875,77.189,89.912,77.247z"/>
<path fill="#583D35" d="M141.215,207.833c-0.008-0.225-0.008-0.449-0.008-0.674C141.207,207.384,141.207,207.609,141.215,207.833z"
	/>
<path fill="#ADACAC" d="M103.275,197.599c-0.08-0.047-0.166-0.096-0.236-0.139C103.109,197.503,103.195,197.552,103.275,197.599z"/>
<path fill="#951D1F" d="M212.572,77.26c-0.197-0.199-0.4-0.399-0.6-0.596C212.172,76.86,212.375,77.06,212.572,77.26z"/>
<path fill="#CE6E6D" d="M195.459,64.555c-0.088-0.026-0.188-0.051-0.283-0.075C195.271,64.505,195.371,64.529,195.459,64.555z"/>
<path fill="#CE6E6D" d="M194.996,64.446c-0.088-0.008-0.176-0.017-0.27-0.029C194.82,64.429,194.908,64.438,194.996,64.446z"/>
<path fill="#CE6E6D" d="M206.754,73.236c-0.434-0.504-2.16-2.464-2.562-3c-1.502-1.254-2.273-2.274-3.801-3.49
	c-1.535-1.232-2.824-2.885-5.387-4.26c0.248,0.999-0.078,2.97-0.486,3.203c-0.688,0.392-1.465,0.624-2.189,0.961
	c-0.393,0.188-0.572,0.479,0.023,0.871c0.338,0.042,0.674,0.082,1.002,0.12c0.047,0.025,0.088,0.033,0.125,0.021
	c0.001,0,0.002,0,0.003-0.001c0.782,1.135,1.411,0.598,2.03,0.166c0.18-0.314,0.353-0.635,0.528-0.955c0,0,0.001,0,0.001,0
	c0.422-0.137,0.832-0.375,1.281-0.383c0.363-0.001,0.76,0.282,1.146,0.441c0.141,0.049,0.281,0.096,0.438,0.146
	c0.529,0.204,3.584,3.49,4.035,3.849c2.393,1.923,4.674,3.779,7.062,5.75C209.508,76.177,207.221,73.765,206.754,73.236z"/>
<path fill="#951D1F" d="M168.715,82.754c0.959-0.583,1.926-1.166,2.895-1.748C170.641,81.589,169.674,82.172,168.715,82.754z"/>
<path fill="#951D1F" d="M197.324,66.484c0.361,0,0.758,0.285,1.145,0.442c-0.555,0.05-1.131,0.021-1.633,0.171
	c-0.482,0.146-0.881,0.479-1.324,0.729c0.18-0.317,0.354-0.637,0.529-0.957C196.467,66.732,196.873,66.494,197.324,66.484z"/>
<path fill="#951D1F" d="M189.664,70.466c0.74-0.392,1.482-0.774,2.219-1.162C191.479,70.341,190.547,70.357,189.664,70.466z"/>
<path fill="#951D1F" d="M174.492,79.281c0.615-0.378,1.23-0.755,1.852-1.131C175.723,78.524,175.107,78.903,174.492,79.281z"/>
<path fill="#951D1F" d="M184.057,73.654c0.578-0.325,1.148-0.646,1.732-0.97C185.205,73.005,184.635,73.329,184.057,73.654z"/>
<path fill="#951D1F" d="M180.779,75.506c0.445-0.271,0.9-0.536,1.346-0.803C181.68,74.97,181.227,75.235,180.779,75.506z"/>
<path fill="#951D1F" d="M188.023,71.415c0.459-0.258,0.924-0.516,1.383-0.774C188.947,70.898,188.482,71.157,188.023,71.415z"/>
<path fill="#6A6A6A" d="M162.936,93.892c-0.17-0.201-0.348-0.4-0.523-0.605c0.006-0.281-0.018-0.562-0.033-0.845
	c0.096,0.149,0.191,0.304,0.287,0.459C162.766,93.233,162.848,93.562,162.936,93.892z"/>
<path fill="#951D1F" d="M193.357,67.64c-0.264,0.07-0.521,0.146-0.775,0.217c-0.07-0.113-0.152-0.225-0.229-0.337
	C192.689,67.56,193.027,67.601,193.357,67.64z"/>
<path fill="#951D1F" d="M179.248,76.4c0.275-0.157,0.551-0.315,0.838-0.482C179.799,76.081,179.523,76.243,179.248,76.4z"/>
<path fill="#951D1F" d="M186.094,72.485c0.133-0.072,0.248-0.139,0.377-0.204C186.342,72.347,186.225,72.413,186.094,72.485z"/>
<path fill="#951D1F" d="M177.004,77.729c0.113-0.079,0.229-0.153,0.342-0.221C177.234,77.576,177.117,77.65,177.004,77.729z"/>
<path fill="#951D1F" d="M182.443,74.521c0.176-0.093,0.361-0.185,0.543-0.275C182.805,74.337,182.619,74.429,182.443,74.521z"/>
<path fill="#951D1F" d="M178.15,77.001c0.178-0.092,0.361-0.188,0.541-0.279C178.504,76.818,178.328,76.909,178.15,77.001z"/>
<path fill="#951D1F" d="M191.715,67.581c0.176,0.139,0.355,0.279,0.521,0.421C192.07,67.859,191.891,67.719,191.715,67.581z"/>
<path fill="#CE6E6D" d="M191.316,68.493c-0.783,0.437-1.395,1.364-2.561,0.707C189.568,68.859,190.188,67.947,191.316,68.493z"/>
<path fill="#951D1F" d="M192.143,65.987c-0.043,0.008-0.119-0.075-0.172-0.125c0.043-0.05,0.062-0.141,0.096-0.15
	c0.043,0,0.104,0.083,0.158,0.125C192.191,65.891,192.178,65.987,192.143,65.987z"/>
<path fill="#6A6A6A" d="M163.172,96.13l0.016,0.009c0.035-0.516,0.078-1.033,0.115-1.546c0.264,0.493,0.516,0.989,0.779,1.482
	C163.785,96.097,163.477,96.114,163.172,96.13z"/>
<path fill="#ADACAC" d="M166.275,90.054c-0.812,0.564-1.633,1.123-2.453,1.688C164.643,91.177,165.463,90.619,166.275,90.054z"/>
<path fill="#ADACAC" d="M167.594,89.149c-0.273,0.188-0.545,0.38-0.812,0.571C167.049,89.528,167.32,89.337,167.594,89.149z"/>
<path fill="#583D35" d="M164.303,96.017c0.863,0.069,1.502-0.246,1.832-1.128c0.166-0.116,0.324-0.238,0.486-0.359
	c0.121,0.049,0.225,0.099,0.354,0.149c0.004-0.118-0.004-0.223-0.008-0.333c0.111-0.058,0.236-0.123,0.342-0.182
	c0.332-0.076,0.678-0.11,0.973-0.232c1.02-0.437,1.998-0.95,3.035-1.337c0.25-0.097,0.662,0.161,0.99,0.258l-0.008,0.053
	c0.295,0.358,0.553,0.842,0.895,1.055c1.141,0.686,1.756,2.918,0.945,3.8c-0.695,0.75-1.482,1.408-2.297,1.999
	c-1.408,1.023-2.869,1.922-4.277,2.938c-0.822,0.591-1.584,1.298-2.371,1.951c-0.393,0.254-0.775,0.51-1.166,0.761
	c-0.645-0.475-0.928-0.307-0.836,0.513c-0.338,0.213-0.686,0.422-1.029,0.639c-0.404,0.085-0.832,0.114-1.191,0.274
	c-0.477,0.216-0.869,0.616-1.439-0.199c-0.119-0.166-0.6-0.029-0.92-0.034c-0.25-0.549-0.5-1.132-0.887-1.989
	c0.008-0.037,0.066-0.408,0.1-0.787c0.059-0.919,0.143-1.718,1.053-2.052c0.566-0.208,0.867-1.007,1.391-1.356
	c0.75-0.507,1.625-0.828,2.414-1.265c0.217-0.117,0.359-0.384,0.541-0.575c-0.086-0.12-0.18-0.241-0.266-0.357
	c-1.154,0.75-2.309,1.498-3.467,2.247c-0.061-0.083-0.127-0.166-0.18-0.258c0.354-0.462,0.715-0.928,1.057-1.399
	c0.176-0.115,0.35-0.232,0.529-0.357c0.744-0.54,1.479-1.086,2.227-1.632c0.014-0.229,0.037-0.457,0.047-0.69
	c0.307-0.016,0.615-0.033,0.912-0.055C164.156,96.056,164.227,96.039,164.303,96.017z"/>
<path fill="#6A6A6A" d="M159.062,108.313L159.062,108.313c-0.162-0.018-0.305-0.031-0.463-0.047l0.004,0.005
	c-0.191-0.095-0.373-0.185-0.574-0.276c0.006,0,0.006-0.005,0.006-0.005c-0.639-1.319-1.275-2.643-1.912-3.962
	c-0.043-0.178-0.059-0.372-0.104-0.554c0.02-0.183,0.023-0.372,0.037-0.559c0.113-0.268,0.221-0.54,0.338-0.805
	c1.332-1.1,2.646-2.2,3.971-3.299c-0.342,0.47-0.703,0.937-1.057,1.399c0.055,0.091,0.121,0.175,0.18,0.258
	c1.158-0.749,2.314-1.499,3.467-2.247c0.088,0.114,0.18,0.238,0.266,0.357c-0.182,0.19-0.324,0.458-0.539,0.573
	c-0.791,0.437-1.666,0.758-2.416,1.265c-0.523,0.353-0.822,1.149-1.389,1.358c-0.912,0.334-0.996,1.132-1.055,2.053
	c-0.033,0.376-0.09,0.748-0.1,0.785c0.387,0.857,0.639,1.44,0.887,1.99c0.32,0.004,0.801-0.134,0.92,0.032
	c0.572,0.816,0.963,0.417,1.441,0.202c0.357-0.163,0.785-0.193,1.189-0.275C161.135,107.145,160.102,107.728,159.062,108.313z
	 M159.094,100.707c0.016-0.037,0.029-0.096,0.02-0.106c-0.041-0.041-0.104-0.073-0.162-0.111c-0.008,0.033-0.012,0.067-0.02,0.104
	C158.99,100.63,159.045,100.668,159.094,100.707z"/>
<path fill="#6A6A6A" d="M172.619,93.108c-0.004-0.067,0.012-0.135,0.02-0.201c-0.119-0.017-0.219-0.037-0.334-0.054
	c-0.328-0.095-0.74-0.354-0.988-0.258c-1.037,0.387-2.016,0.899-3.035,1.336c-0.297,0.125-0.641,0.158-0.975,0.233
	c0.85-0.493,1.693-1.007,2.547-1.49c2.223-1.257,3.645-0.715,5.379,2.023c1.1,1.731,1.045,2.414-0.291,3.376
	c-1.824,1.312-3.658,2.585-5.473,3.921c-0.348,0.259-0.555,0.729-0.863,1.062c-0.268,0.29-0.531,0.632-0.875,0.771
	c-0.822,0.328-1.689,0.552-2.537,0.823c0.785-0.653,1.549-1.36,2.371-1.951c1.408-1.015,2.869-1.913,4.277-2.938
	c0.814-0.591,1.602-1.249,2.297-1.999c0.811-0.882,0.195-3.113-0.945-3.799c-0.342-0.215-0.6-0.697-0.895-1.056
	C172.402,92.976,172.506,93.037,172.619,93.108z"/>
<path fill="#6A6A6A" d="M166.133,94.89c-0.328,0.882-0.969,1.2-1.832,1.128C164.908,95.644,165.518,95.265,166.133,94.89z"/>
<path fill="#6A6A6A" d="M163.189,105.925c-0.092-0.819,0.193-0.986,0.836-0.512C163.752,105.588,163.469,105.755,163.189,105.925z"
	/>
<path fill="#ADACAC" d="M195.061,86.823c0.008,0.048-0.053,0.108-0.088,0.162c-0.041-0.047-0.141-0.088-0.141-0.138
	c-0.012-0.052,0.041-0.11,0.074-0.167C194.951,86.73,195.043,86.772,195.061,86.823z"/>
<path fill="#6A6A6A" d="M166.965,94.348c0.004,0.108,0.012,0.216,0.01,0.333c-0.131-0.049-0.234-0.099-0.355-0.148
	C166.732,94.475,166.861,94.416,166.965,94.348z"/>
<path fill="#D4D3D4" d="M158.033,107.994c0.199,0.093,0.383,0.183,0.574,0.274C158.416,108.177,158.236,108.086,158.033,107.994z"/>
<path fill="#D4D3D4" d="M158.604,108.264c0.156,0.018,0.299,0.03,0.461,0.047C158.902,108.294,158.76,108.281,158.604,108.264z"/>
<path fill="#D4D3D4" d="M156.061,102.915c-0.016,0.187-0.018,0.376-0.039,0.559C156.043,103.287,156.045,103.103,156.061,102.915z"
	/>
<path fill="#6A6A6A" d="M163.123,96.821c-0.748,0.546-1.482,1.091-2.227,1.632C161.641,97.912,162.375,97.367,163.123,96.821z"/>
<path fill="#583D35" d="M158.951,100.488c0.059,0.039,0.121,0.071,0.162,0.112c0.01,0.011-0.004,0.069-0.02,0.106
	c-0.049-0.037-0.104-0.077-0.162-0.114C158.939,100.557,158.943,100.522,158.951,100.488z"/>
<path fill="#583D35" d="M172.305,92.855c0.113,0.016,0.213,0.036,0.334,0.053c-0.008,0.067-0.025,0.134-0.021,0.201
	c-0.111-0.072-0.215-0.134-0.318-0.201L172.305,92.855z"/>
<g>
	<path fill="#951D1F" d="M163.916,83.812c5.898-3.696,11.826-7.346,17.805-10.926c2.271-1.358,4.686-2.466,7.033-3.689
		c0.812-0.341,1.432-1.252,2.561-0.708l0.006-0.07c0.029-0.063,0.053-0.129,0.086-0.192c0.945-0.712,1.174-0.621,0.371-1.699
		c-0.271-0.369-1.023-0.153-1.023-0.153s-1.486-0.104-1.762,0.691c-1.135,0.708-0.949,0.474-1.381,0.899
		c-0.5,0.476-1.619,0.72-0.945,0.692c-0.645,0.25-1.303,0.45-1.902,0.766c-2.545,1.333-5.084,2.682-7.607,4.05
		c-2.16,1.171-4.287,2.381-6.439,3.551c-2.646,1.436-5.346,2.773-7.955,4.297c-1.971,1.149-3.842,2.49-5.723,3.805
		c-1.258,0.891-2.406,1.969-3.688,2.799c-0.23,0.149-0.518,0.199-0.793,0.262c0.301,0.218,0.605,0.438,0.922,0.661
		c2.021-1.354,4.049-2.688,6.061-4.054c1.748-1.184,3.414-2.498,5.211-3.596c1.838-1.133,3.771-2.073,5.684-3.105
		c4.873-2.647,9.736-5.311,14.635-7.926c1.471-0.783,3.027-1.419,4.551-2.123c-0.141,0.304-0.35,0.462-0.582,0.582
		c-3.822,2.027-7.705,3.952-11.477,6.095c-3.705,2.121-7.289,4.494-10.957,6.7c-2.365,1.433-4.82,2.685-7.139,4.18
		c-1.803,1.165-3.518,2.49-5.258,3.763c0.178,0.129,0.555,0.396,0.555,0.396S160.832,85.743,163.916,83.812z"/>
</g>
<path fill="#6A6A6A" d="M163.855,93.525c-0.25-0.159-0.494-0.316-0.742-0.475c-0.398-0.055-0.789-0.116-1.182-0.184
	c0.199,0.092,0.393,0.187,0.592,0.283C162.965,93.284,163.41,93.4,163.855,93.525z"/>
<path fill="#ADACAC" d="M157.85,95.094c0.943-0.454,1.889-0.911,2.838-1.365C159.738,94.183,158.793,94.64,157.85,95.094z"/>
<path fill="#ADACAC" d="M152.143,97.999c0.736-0.369,1.48-0.744,2.219-1.119C153.623,97.254,152.879,97.63,152.143,97.999z"/>
<path fill="#ADACAC" d="M156.334,95.83c0.314-0.153,0.633-0.303,0.953-0.449C156.967,95.526,156.65,95.677,156.334,95.83z"/>
<path fill="#583D35" d="M160.621,99.784c0,0.08,0.014,0.151,0.014,0.233c0.096,0.009,0.189,0.013,0.281,0.024
	c-0.078-0.086-0.145-0.172-0.219-0.253L160.621,99.784z"/>
<path fill="#CE6E6D" d="M189.896,179.512c-1.898-1.334-25.322-20.896-28.309-23.527c-2.984-2.631-10.107-11.303-10.715-9.604
	c-0.609,1.699,4.387,6.057,5.516,6.004c1.127-0.059,19.719,17.367,17,16.084c-2.719-1.281,6.582,5.08,6.605,5.021
	c0.025-0.053,3.619,2.504,2.064,2.514c-1.551,0.014,15.086,15.068,16.82,16.419c1.738,1.348,13.391-7.044,6.131-6.409
	C197.141,186.704,191.793,180.852,189.896,179.512z"/>
<path fill="#838281" d="M217.449,195.292c0.143,1.911,0.279,3.829,0.42,5.784c-0.248,0.215-0.449,0.387-0.645,0.559
	c0.465-0.467,0.615-0.814,0.479-1.449c-0.213-0.973-0.291-2.061-0.404-3.123c-0.062-0.584-0.076-1.202-0.109-1.808
	C217.277,195.268,217.365,195.276,217.449,195.292z"/>
<path fill="#D4D3D4" d="M204.529,207.89c-0.18-0.947-0.346-1.797-0.516-2.654c-0.076,0.057-0.15,0.111-0.225,0.166
	c-0.051,0.9-0.102,1.799-0.15,2.693l-0.014,0.037c-0.023-0.209-0.045-0.416-0.07-0.623c0.047-1.104,0.1-2.209,0.143-3.311
	c0.008-0.203,0.012-0.408,0.012-0.613c0.006-0.1,0.01-0.199,0.014-0.293c0.025-0.607,0.047-1.217,0.062-1.824
	c0.047-0.619,0.137-1.277,0.113-1.855c-0.043-1.104,0.207-2.043,1.365-2.354c-0.096,0.334-0.191,0.66-0.254,0.859
	c0.691-0.549,1.377-1.092,2.068-1.641c0.016-0.014,0.037-0.021,0.055-0.043c0.57-0.968,1.223-0.835,1.826-1.241
	c0.68-0.447,1.365-0.697,2.053-1.047c1.211-0.609,2.428-1.229,3.646-1.846c-0.295,0.754-0.73,0.652-1.102,0.955
	c-0.248,0.199-0.635,0.641-0.672,0.891c-0.096,0.607,0.154,0.861,0.625,0.625c0.051,0.082,0.1,0.174,0.18,0.32
	c0.055-0.238,0.08-0.379,0.113-0.518c0.062,0.371,0.246,0.717,0.166,1.107c-0.182,0.911,0.195,0.95,0.586,1.036
	c0.27,0.107,0.23,0.088,0.055,0.482c-0.203,0.475-0.312,0.988-0.5,1.469c-0.074,0.197-0.236,0.385-0.377,0.529
	c-0.127,0.137-0.271,0.209-0.41,0.316c-0.238-0.232-0.172-0.625,0.025-1.086c0.078-0.18,0.229-0.447,0.209-0.541
	c-0.154-0.648,0.029-1.461,0.176-2.261c-0.049,0.014-0.105,0.025-0.16,0.037c-0.07,0.205-0.141,0.41-0.207,0.596
	c-0.033-0.066-0.066-0.158-0.105-0.24c-0.033,0.025-0.062,0.049-0.096,0.074c0,0.421,0,0.841,0,1.292
	c-0.436,0.074-0.98,0.967-1.148,0.057c-0.043,0.059-0.086,0.117-0.129,0.182c-0.016,0.535-0.066,1.088-0.02,1.574
	c0.004,0.068,0.494-0.232,0.854-0.402c0.176,0.986-0.74,2.176-0.971,3.5c0.205-0.291,0.281-0.391,0.344-0.502
	c0.066-0.105,0.111-0.223,0.191-0.381c0.117,0.152,0.207,0.275,0.299,0.395c0.062-0.037,0.123-0.078,0.182-0.113
	c0.064-0.033,0.127-0.062,0.18-0.09c0.707-0.293,1.406-0.592,2.152-0.9c0.025-0.373,0.051-0.721,0.076-1.098
	c0.211-0.125,0.395-0.232,0.699-0.408c-0.066-0.312-0.139-0.549-0.166-0.82c-0.01-0.104,0.086-0.281,0.137-0.428
	c0.279-0.311,0.338-0.193,0.271,0.191c-0.152,0.852-0.295,1.701-0.438,2.551c-0.021,0.104-0.021,0.203-0.033,0.404
	c0.18-0.145,0.324-0.268,0.527-0.424c-0.52-0.258,0.07-0.586,0.146-0.842c-0.023-0.209-0.096-0.514-0.062-0.553
	c0.18-0.205,0.387-0.346,0.602-0.525c-0.004,0.365-0.021,0.615,0.004,0.83c0.096,0.891-0.154,1.314-0.863,1.641
	c-0.471,0.217-0.957,0.619-1.436,0.953c-0.301,0.207-0.596,0.434-0.895,0.652c-2.965,1.662-5.934,3.322-8.896,4.984
	C204.646,207.855,204.521,207.902,204.529,207.89z M208.102,203.626c0.033-0.033,0.07-0.062,0.104-0.092
	c-0.02-0.305-0.041-0.611-0.062-0.91c-0.02-0.314-0.041-0.625-0.066-0.934c0.551-0.322,0.162-0.518,0.191-0.668
	c-0.215,0.098-0.398,0.176-0.576,0.26c0.049-0.18,0.104-0.359,0.152-0.541c-0.037-0.035-0.074-0.072-0.107-0.109
	c-0.143,0.225-0.293,0.449-0.426,0.682c-0.135,0.234-0.246,0.475-0.371,0.717c-0.109,0.117-0.312,0.305-0.309,0.342
	c0.049,0.648-0.432,0.99-0.67,1.465c-0.047-0.141-0.096-0.281-0.139-0.43c0.014-0.236,0.088-0.686,0.029-0.686
	c-0.229-0.018-0.5,0.1-0.844,0.195c0.016,0.408,0.02,0.688,0.033,0.961c-0.084,0.104-0.164,0.209-0.246,0.314
	c-0.191,0.889,0.02,1.734,0.486,1.936c0.111,0.148,0.219,0.299,0.334,0.451c0.066,0.055,0.137,0.113,0.213,0.164l0.012,0.008
	c0.443-0.188,0.883-0.375,1.326-0.564c0-0.729,0-1.275,0-1.82c-0.051,0.012-0.102,0.029-0.146,0.047
	c-0.051,0.232-0.105,0.467-0.154,0.699c-0.043,0.008-0.082,0.018-0.129,0.023c0.092-0.424,0.18-0.85,0.275-1.314
	c-0.072,0.016-0.238,0.053-0.393,0.086c0.209-0.52,0.383-0.955,0.559-1.395c0.012-0.064,0.029-0.133,0.037-0.199
	C207.512,202.751,207.807,203.189,208.102,203.626z M208.996,197.609c0.518-0.572,1.016-1.131,1.52-1.696
	c-0.328-0.1-0.328-0.1-1.469,1.015C209.031,197.16,209.014,197.41,208.996,197.609z M206.201,200.998
	c-0.771,0.168-1.029,0.502-1.096,1.416C205.787,202.398,205.754,201.316,206.201,200.998z M210.957,201.765
	c0.352-0.273,0.547-1.082,0.443-1.49c-0.291,0.432-0.592,0.883-0.982,1.461C210.596,201.755,210.795,201.9,210.957,201.765z
	 M209.09,202.314c0.344,0.6,0.344,0.6,0.998-0.518c-0.195-0.057-0.387-0.119-0.6-0.182
	C209.348,201.857,209.217,202.089,209.09,202.314z M208.334,202.916c0.021-0.018,0.043-0.027,0.059-0.035c0-0.117,0-0.223,0-0.338
	c-0.016,0.01-0.037,0.021-0.059,0.029C208.334,202.685,208.334,202.798,208.334,202.916z"/>
<path fill="#838281" d="M281.092,163.094c-0.066-1.316-0.096-2.658-0.184-3.973c0,1.373,0,2.748,0,4.246
	c-0.146-0.033-0.213-0.043-0.338-0.066c-0.008,0.232-0.016,0.434-0.02,0.623c-0.42,0.15-0.836,0.301-1.26,0.449
	c0.572-0.527,1.219-2.045,1.178-2.918c-0.029-0.617-0.184-1.148-0.305-1.832c-0.258,0.387-0.408,0.6-0.549,0.811
	c0.525,1.338-0.25,3.424-1.553,4.236c-0.617,0.381-1.236,0.732-1.854,1.078c-0.104,0.057-0.207,0.043-0.42,0.086
	c0.25-0.262,0.4-0.412,0.555-0.574c0-0.191,0-0.383,0-0.584c0.041-0.072,0.074-0.139,0.115-0.215
	c0.033-0.049,0.066-0.098,0.008-0.016c0.051-0.098,0.021-0.041-0.004,0.016c-0.035,0.074-0.078,0.15-0.115,0.221
	c-0.404,0.156-0.807,0.312-1.211,0.473c-0.029-0.039-0.059-0.072-0.092-0.111c-0.258-0.166-0.523-0.34-0.803-0.527
	c0.287-0.479,0.514-0.854,0.783-1.305c-0.295-0.082-0.52-0.145-0.717-0.199c0.379-0.791,0.754-1.48,1.037-2.205
	c0.1-0.268-0.004-0.605-0.133-0.875c-0.066,0.186-0.133,0.365-0.195,0.535c-0.684-0.496-1.41,0.482-2.178,1.125
	c-0.041,0.787-0.082,1.574-0.133,2.502c-0.121-0.148-0.186-0.232-0.328-0.408c0.074,0.436,0.1,0.756,0.188,1.014
	c0.115,0.354,0.201,0.688-0.146,1.186c-0.508-0.158-0.861-0.533-0.836-1.402c0.008-0.211,0.107-0.473,0.166-0.717
	c0.064-0.006,0.121-0.014,0.18-0.021c-0.01-0.213-0.016-0.43-0.025-0.609c-0.205,0.07-0.375,0.129-0.537,0.188
	c-0.072-0.166-0.139-0.334-0.205-0.5c-0.033-0.934-0.053-1.869-0.1-2.799c0-0.08-0.117-0.098-0.18-0.148
	c0.195-0.166,0.393-0.34,0.549-0.473c0.092,1.023,0.17,1.959,0.25,2.887c0.055,0.568,0.186,0.818,0.596-0.049
	c0.029-0.059,0.17-0.049,0.291-0.082c0.008-0.383,0.199-0.988-0.383-0.711c0.033-0.287,0.072-0.621,0.107-0.941
	c0.105-0.061,0.201-0.113,0.293-0.17c-0.014,0.215-0.025,0.434-0.029,0.523c0.545-0.357,1.041-0.691,1.539-1.023
	c-0.188-0.32-0.375-0.635-0.562-0.945c0.6-0.836,1.141-0.754,1.678-0.746c-0.195,0.934-0.07,1.047,0.57,0.502
	c0.047,0.213,0.096,0.424,0.15,0.666c0.172-0.051,0.346-0.1,0.516-0.146c0.271,0.75,0.834,0.379,1.408-0.045
	c0.213-0.16,0.428-0.35,0.648-0.525c0.271-0.115,0.537-0.225,0.805-0.348c0.146-0.064,0.291-0.146,0.438-0.223
	c0.111-0.012,0.223-0.029,0.387-0.047c-0.025-0.686-0.047-1.332-0.07-1.973c0.166,0.236,0.336,0.473,0.457,0.645
	c0.004-0.062,0.021-0.312,0.025-0.562c0.008-0.25,0.004-0.496,0-0.766c-0.24,0.074-0.459,0.141-0.674,0.207
	c-0.32-0.232-0.5,0.416-0.754,0.627c0.062,0.131,0.145,0.256,0.188,0.414c0.025,0.092-0.016,0.242-0.025,0.371
	c-0.17-0.242-0.342-0.48-0.541-0.762c-0.07,0.107-0.178,0.291-0.291,0.471c-0.146,0.096-0.283,0.191-0.404,0.277
	c0.01-0.023,0.059-0.078,0.08-0.146c0.117-0.291,0.225-0.586,0.338-0.879c-0.16-0.023-0.312-0.119-0.484-0.061
	c-0.529,0.188-1.061,0.434-1.586,0.529c0.277-0.178,0.562-0.359,0.846-0.541c0-0.066,0-0.125,0-0.188
	c-0.754,0.438-1.518,0.875-2.27,1.312c0.914-0.559,1.84-1.117,2.752-1.67c-0.047,0.096-0.096,0.186-0.268,0.496
	c0.396-0.307,0.664-0.512,0.926-0.717c0.221,0,0.438,0.053,0.67-0.016c0.104-0.031,0.242-0.291,0.367-0.449
	c0.27,0.213,0.541,0.42,0.807,0.633c0.033-0.057,0.066-0.111,0.096-0.166c-0.029-0.324-0.059-0.645-0.082-0.969
	c0.256-0.346,0.473-0.428,0.582-0.08c0.061,0.199,0.129,0.398,0.146,0.633c0.088,1.09,0.199,2.164,0.221,3.297
	c0.033,1.91,0.008,3.863,0.008,5.844c-1.52,1.699-3.158,2.016-4.762,3.068c0.629-0.484,1.262-0.838,1.895-1.221
	c0.688-0.416,1.369-0.848,2.057-1.297c0.057-0.041,0.111-0.275,0.17-0.418C280.852,163.801,281.127,163.706,281.092,163.094z
	 M278.615,161.475c-0.039-0.664-0.084-1.432-0.129-2.256c-0.654,0.324-1.275,0.605-1.895,0.947
	c-0.139,0.074-0.279,0.361-0.418,0.541c-0.074-0.08-0.152-0.166-0.258-0.279c-0.299,0.715-0.67,1.352-0.361,1.965
	c0.086,0.178-0.139,0.748-0.23,1.215c0.229-0.203,0.518-0.459,0.797-0.703c0.018,0.262,0.033,0.494,0.045,0.732
	c0.047-0.021,0.084-0.047,0.129-0.066c0.029-0.246,0.059-0.494,0.113-0.902c0.043,0.432,0.076,0.715,0.109,1.016
	c0.203-0.24,0.357-0.43,0.6-0.713c0-0.67,0-1.457,0-2.246C277.621,160.977,278.125,161.229,278.615,161.475z M280.029,163.713
	c0.021-0.029,0.059-0.076,0.059-0.096c0.006-0.039-0.018-0.066-0.033-0.096c-0.02,0.033-0.037,0.07-0.057,0.104
	C280.006,163.655,280.02,163.684,280.029,163.713z"/>
<path fill="#D4D3D4" d="M276.35,164.682c0,0.201,0,0.391,0,0.584c-0.154,0.162-0.305,0.312-0.555,0.574
	c0.211-0.041,0.316-0.029,0.42-0.088c0.617-0.344,1.236-0.695,1.854-1.078c1.303-0.812,2.076-2.898,1.553-4.232
	c0.141-0.213,0.291-0.426,0.549-0.812c0.121,0.684,0.275,1.215,0.303,1.832c0.043,0.873-0.604,2.389-1.178,2.918
	c-2.041,1.223-4.078,2.447-6.119,3.672c-1.281,0.715-2.568,1.447-3.846,2.135c-0.387,0.209-0.773,0.291-1.148,0.299
	c0.475-0.232,0.867-1.031,1.385-1.057c0.201-0.01,0.717-0.209,0.764-0.957c0.586-0.385,1.174-0.75,1.752-1.158
	c0.145-0.107,0.281-0.363,0.42-0.549l-0.004,0.01c0.078-0.027,0.156-0.057,0.236-0.086c0.729-0.207,1.24-1.08,1.086-1.904
	c-0.041-0.217-0.318-0.217-0.445-0.291c-0.51,0.508-0.281,1.314-0.84,1.639c-0.039-0.084-0.074-0.158-0.113-0.242
	c0.352-0.5,0.264-0.832,0.146-1.186c-0.088-0.26-0.111-0.578-0.188-1.012c0.143,0.174,0.209,0.26,0.33,0.408
	c0.051-0.928,0.09-1.715,0.133-2.504c0.764-0.643,1.494-1.621,2.176-1.125c0.064-0.168,0.129-0.352,0.197-0.533
	c0.129,0.27,0.232,0.607,0.131,0.873c-0.283,0.725-0.656,1.416-1.035,2.207c0.195,0.055,0.42,0.117,0.715,0.199
	c-0.27,0.449-0.494,0.824-0.781,1.305c0.277,0.186,0.545,0.361,0.803,0.527c-0.055,0.1-0.104,0.199-0.158,0.301
	c0.082-0.068,0.17-0.131,0.25-0.191c0.404-0.16,0.807-0.318,1.211-0.471L276.35,164.682z"/>
<path fill="#D4D3D4" d="M281.605,162.868c-0.059-3.23-0.117-6.459-0.18-9.902c0.412-0.088,0.791-0.311,0.982-0.18
	c0.299,0.201,0.617,0.533,0.674,1.008c0.295,2.273,0.52,4.604,0.74,6.934c0.014,0.186-0.174,0.668-0.311,0.797
	c-0.592,0.541-1.199,1.004-1.799,1.494C281.674,162.967,281.641,162.918,281.605,162.868z"/>
<path fill="#D4D3D4" d="M201.057,207.306c0.016-0.246-0.18-0.414-0.279-0.607c0.166-1.625,0.242-3.227,0.529-4.875
	c0.359-2.055,0.475-2.848,1.85-3.381c0.016,0.35,0.031,0.703,0.049,1.053c-0.039,0.566-0.125,1.166-0.092,1.682
	c0.021,0.354,0.217,0.59,0.33,0.887c0.139,0.385-0.025,0.758-0.33,1.125c-0.066,1.287-0.133,2.576-0.195,3.863
	c-0.1,2.189-0.096,2.18-1.656,2.422c-0.457,0.072-0.719-0.09-0.553-0.883C200.834,208.16,201.021,207.705,201.057,207.306z"/>
<path fill="#D4D3D4" d="M272.59,160.338c-0.092,0.057-0.186,0.109-0.291,0.17c-0.037,0.32-0.076,0.654-0.109,0.941
	c0.582-0.281,0.393,0.328,0.383,0.711c-0.119,0.033-0.262,0.025-0.291,0.082c-0.408,0.867-0.541,0.617-0.596,0.051
	c-0.078-0.93-0.156-1.865-0.248-2.891c-0.158,0.133-0.354,0.309-0.549,0.475c-0.068,0.043-0.139,0.082-0.205,0.125
	c-0.172,0.043-0.338,0.084-0.549,0.135c0.062-0.168,0.121-0.318,0.178-0.467c1.295-0.74,2.586-1.482,3.885-2.229
	c0.191-0.115,0.383-0.238,0.572-0.354c0.068-0.045,0.129-0.092,0.201-0.133c0.754-0.438,1.516-0.875,2.268-1.311
	c0,0.061,0,0.119,0,0.186c-0.281,0.182-0.564,0.361-0.844,0.541c0.525-0.096,1.059-0.342,1.588-0.529
	c0.17-0.059,0.322,0.037,0.482,0.061c-0.113,0.293-0.223,0.588-0.338,0.879c-0.021,0.068-0.07,0.123-0.08,0.146
	c0.121-0.086,0.258-0.182,0.404-0.277c0.016,0.652,0.039,1.295,0.059,1.945c-0.221,0.176-0.438,0.365-0.65,0.525
	c-0.574,0.424-1.137,0.795-1.406,0.045c0.008-0.104,0.016-0.211,0.027-0.311c0.113-0.316,0.23-0.629,0.367-1.016
	c-0.496,0.186-0.828,0.307-1.162,0.432c-0.158-0.041-0.312-0.082-0.471-0.125c-0.537-0.008-1.078-0.09-1.678,0.744
	C273.221,159.375,272.904,159.854,272.59,160.338z"/>
<path fill="#838281" d="M273.027,168.237c-2.012,1.16-4.025,2.326-6.119,3.533c0-0.229-0.033-0.582,0-0.957
	c0.104-1.184,0.203-2.367,0.354-3.568c0.137-1.068,0.713-2.213,0.732-3.277c0-0.021,0.025-0.055,0.033-0.08
	c0.039,1.484,0.074,2.961,0.104,4.451c0.006,0.115-0.004,0.324-0.059,0.387c-0.779,0.953-0.174,1.023,0.055,1.373
	c0.074-0.295,0.145-0.561,0.25-0.961c0.15,0.582,0.482,0.641,0.811,0.049c0.213-0.379,0.279-0.953,0.293-1.377
	c0.002-0.146-0.359-0.096-0.639-0.148c0.051-0.131,0.168-0.465,0.289-0.801c0.508,0.096,0.527,0.125,0.803,1.561
	c0.045-0.242,0.086-0.445,0.152-0.816c0.109,0.375,0.176,0.621,0.242,0.867c-0.045,0.748-0.561,0.947-0.762,0.957
	c-0.52,0.025-0.91,0.824-1.387,1.057c0.375-0.008,0.762-0.09,1.15-0.299c1.275-0.688,2.562-1.42,3.846-2.135
	C273.125,168.112,273.076,168.204,273.027,168.237z"/>
<path fill="#D4D3D4" d="M268.969,160.987c-0.018,0.225-0.033,0.449-0.049,0.641c0.133-0.176,0.299-0.404,0.594-0.795
	c-0.078,0.529-0.133,0.881-0.182,1.236c-0.197,0.639-0.396,1.271-0.617,1.984c0.096,0.037,0.201,0.08,0.287,0.113
	c-0.115,0.258-0.295,0.527-0.348,0.781c-0.227,0.992-0.242,1.816,0.473,1.912c-0.121,0.336-0.236,0.672-0.287,0.801
	c0.279,0.053,0.641,0.002,0.637,0.148c-0.012,0.424-0.078,1-0.291,1.377c-0.328,0.592-0.662,0.533-0.811-0.049
	c-0.105,0.4-0.176,0.666-0.25,0.961c-0.229-0.348-0.832-0.42-0.055-1.373c0.055-0.062,0.062-0.271,0.059-0.387
	c-0.029-1.49-0.066-2.967-0.104-4.451C268.158,162.897,268.396,161.918,268.969,160.987z"/>
<path fill="#838281" d="M215.811,196.34c-0.039-0.227-0.301-0.258-0.439-0.367c0.754-0.854,0.775-0.924,0.605-2.123
	c0.033-0.242,0.059-0.482,0.086-0.725c0.283,1.125,0.566,2.248,0.844,3.372c-0.053,0.141-0.17,0.33-0.156,0.42
	c0.137,1.254,0.287,2.494,0.449,3.727c0.008,0.049,0.113,0.016,0.174,0.023c-1.234,1.008-2.467,1.75-3.703,2.166
	c0.299-0.221,0.594-0.445,0.895-0.654c0.479-0.334,0.965-0.738,1.436-0.953c0.709-0.324,0.959-0.75,0.863-1.639
	c-0.025-0.219-0.01-0.469-0.006-0.832c-0.213,0.182-0.42,0.32-0.6,0.525c-0.033,0.039,0.039,0.346,0.062,0.553
	c-0.076,0.256-0.666,0.584-0.146,0.844c-0.203,0.156-0.35,0.277-0.529,0.422c0.014-0.201,0.014-0.301,0.033-0.404
	c0.143-0.848,0.289-1.697,0.439-2.551c0.066-0.383,0.006-0.502-0.271-0.191C215.838,197.406,215.879,196.824,215.811,196.34z"/>
<path fill="#838281" d="M203.207,201.244c0.076-0.041,0.154-0.084,0.234-0.121c0.043-0.854,0.092-1.703,0.133-2.555
	c0.062-0.021,0.125-0.039,0.182-0.059c-0.018,0.344-0.055,0.711-0.045,1.045c0.012,0.648,0.055,1.279,0.078,1.918
	c-0.016,0.605-0.037,1.215-0.061,1.822c-0.025-0.148-0.047-0.305-0.068-0.453c-0.037,0.018-0.07,0.033-0.1,0.051
	c-0.045,0.773-0.094,1.547-0.129,2.314c-0.029,0.715-0.049,1.428-0.059,2.131c0,0.096,0.125,0.121,0.188,0.176
	c0.025,0.207,0.047,0.416,0.072,0.625c0,0.023,0.004,0.057-0.01,0.082c-0.006,0.018-0.049,0.041-0.053,0.037
	c-0.061-0.104-0.113-0.211-0.213-0.391c-0.059,0.494-0.105,0.869-0.18,1.461c0-1.383,0.014-2.564,0-3.738
	c-0.01-0.809-0.047-1.6-0.062-2.4c0.305-0.365,0.467-0.74,0.33-1.123c-0.115-0.297-0.311-0.533-0.33-0.889
	c-0.033-0.516,0.053-1.115,0.092-1.68C203.207,200.08,203.207,200.658,203.207,201.244z"/>
<path fill="#838281" d="M215.707,192.59c-0.045,0.158-0.086,0.324-0.133,0.486c-0.262,0.043-0.254-0.602-0.637-0.223
	c-0.102,0.096-0.172,0.311-0.258,0.475l0.008-0.01c-0.354,0.037-0.711,0.08-1.174,0.129c0,0.592,0,0.959,0,1.326
	c-0.471,0.234-0.721-0.02-0.625-0.625c0.039-0.252,0.426-0.691,0.672-0.893c0.369-0.301,0.807-0.199,1.102-0.953
	C215.008,192.399,215.357,192.489,215.707,192.59z"/>
<path fill="#838281" d="M203.645,208.097c0.049-0.895,0.1-1.793,0.15-2.693c0.074-0.055,0.148-0.109,0.223-0.168
	c0.172,0.859,0.338,1.709,0.518,2.656c-0.014,0.01,0.111-0.037,0.236-0.078C204.303,208.466,204.002,208.125,203.645,208.097z"/>
<path fill="#838281" d="M270.312,159.668c-0.059,0.152-0.117,0.301-0.18,0.469c0.213-0.053,0.379-0.092,0.551-0.135
	c-0.543,0.254-0.846,0.883-1.117,1.564c-0.066,0.176-0.152,0.334-0.232,0.502c0.051-0.355,0.104-0.707,0.182-1.236
	c-0.295,0.391-0.461,0.619-0.594,0.795c0.016-0.191,0.033-0.416,0.049-0.641C269.42,160.549,269.861,160.114,270.312,159.668z"/>
<path fill="#D4D3D4" d="M216.061,193.124c-0.027,0.242-0.053,0.482-0.086,0.725c-0.076,0.449-0.15,0.898-0.213,1.307
	c-0.154-0.25-0.32-0.533-0.492-0.816c0.227-0.213,0.559-0.357,0.408-0.82c-0.033-0.145-0.07-0.295-0.104-0.441
	c0.047-0.162,0.088-0.33,0.133-0.486C215.824,192.766,215.945,192.948,216.061,193.124z"/>
<path fill="#D4D3D4" d="M217.373,200.666c-0.062-0.008-0.166,0.025-0.176-0.025c-0.162-1.23-0.311-2.473-0.449-3.725
	c-0.012-0.092,0.105-0.279,0.158-0.42C217.064,197.886,217.215,199.277,217.373,200.666z"/>
<path fill="#D4D3D4" d="M279.133,154.282c0.029-0.07,0.053-0.146,0.082-0.217c0.342,0.012,0.678,0.02,1.02,0.033
	c0.025,0.324,0.055,0.645,0.082,0.969c-0.029,0.055-0.061,0.109-0.094,0.166c-0.268-0.213-0.537-0.42-0.809-0.631
	C279.324,154.493,279.229,154.389,279.133,154.282z"/>
<path fill="#838281" d="M200.418,207.509c0,0.791,0,1.578,0,2.365c-0.059,0.033-0.121,0.062-0.184,0.092
	c0.049-0.816,0.1-1.633,0.154-2.449C200.4,207.517,200.41,207.513,200.418,207.509z"/>
<path fill="#838281" d="M200.779,206.699c0.098,0.195,0.295,0.361,0.279,0.607c-0.039,0.398-0.225,0.854-0.35,1.285
	C200.734,207.96,200.754,207.332,200.779,206.699z"/>
<path fill="#D4D3D4" d="M278.379,155.067c-0.262,0.205-0.529,0.408-0.926,0.715c0.172-0.307,0.221-0.398,0.268-0.494
	C277.941,155.217,278.162,155.141,278.379,155.067z"/>
<path fill="#838281" d="M274.768,157.09c-0.189,0.115-0.381,0.238-0.574,0.354C274.387,157.327,274.578,157.206,274.768,157.09z"/>
<path fill="#838281" d="M281.604,162.868c0.037,0.051,0.07,0.102,0.109,0.15C281.674,162.967,281.641,162.918,281.604,162.868z"/>
<path fill="#412D28" d="M215.369,195.969c0.137,0.111,0.398,0.143,0.438,0.367c0.07,0.487,0.027,1.071,0.037,1.616
	c-0.051,0.146-0.146,0.324-0.137,0.428c0.027,0.271,0.1,0.51,0.166,0.82c-0.305,0.176-0.488,0.285-0.699,0.408
	c-0.027,0.379-0.053,0.725-0.076,1.1c-0.746,0.307-1.445,0.607-2.152,0.898c0.129-0.699,0.254-1.393,0.379-2.09
	c0.137-0.105,0.283-0.178,0.408-0.316c0.141-0.146,0.303-0.332,0.379-0.529c0.188-0.48,0.295-0.994,0.5-1.469
	c0.174-0.395,0.213-0.371-0.055-0.482c-0.141-0.509-0.045-1.046,0.338-1.571c-0.047-0.188-0.092-0.359-0.133-0.535
	c0.1,0.018,0.191,0.076,0.295,0.033c0.064-0.025,0.143-0.199,0.213-0.309c0.172,0.283,0.338,0.566,0.492,0.816
	c0.062-0.408,0.137-0.857,0.213-1.307C216.145,195.047,216.123,195.118,215.369,195.969z"/>
<path fill="#838281" d="M212.77,201.699c0.025-0.533,0.043-1.059,0.062-1.582c-0.084,0.047-0.164,0.088-0.246,0.133
	c0,0.516,0,1.041,0,1.562c-0.092-0.121-0.184-0.244-0.299-0.396c-0.078,0.158-0.125,0.273-0.191,0.381
	c-0.064,0.109-0.139,0.209-0.342,0.502c0.229-1.324,1.145-2.516,0.969-3.502c-0.357,0.172-0.85,0.473-0.854,0.404
	c-0.047-0.486,0.002-1.039,0.02-1.574c0.043-0.066,0.088-0.123,0.129-0.18c0.168,0.91,0.713,0.016,1.15-0.059
	c0-0.451,0-0.871,0-1.292c0.033-0.025,0.062-0.051,0.094-0.076c0.039,0.086,0.072,0.176,0.105,0.242
	c0.066-0.186,0.137-0.391,0.209-0.596c0.055-0.012,0.109-0.023,0.158-0.037c-0.146,0.8-0.33,1.612-0.176,2.261
	c0.021,0.096-0.129,0.359-0.209,0.541c-0.195,0.461-0.262,0.852-0.023,1.086c-0.125,0.695-0.25,1.391-0.379,2.09
	C212.895,201.636,212.832,201.666,212.77,201.699z"/>
<path fill="#838281" d="M207.18,202.513c-0.176,0.438-0.35,0.875-0.559,1.395c0.154-0.033,0.32-0.07,0.391-0.088
	c-0.096,0.467-0.184,0.891-0.275,1.316c0.047-0.008,0.088-0.016,0.129-0.023c0.051-0.234,0.105-0.467,0.154-0.701
	c0.047-0.016,0.098-0.033,0.146-0.045c0,0.543,0,1.09,0,1.818c-0.441,0.189-0.883,0.379-1.324,0.566
	c0.361-0.275,0.727-0.559,0.416-1.076c-0.025,0.186-0.051,0.359-0.076,0.535c-0.066,0.037-0.137,0.074-0.203,0.109
	c-0.004-0.826-0.012-1.656-0.018-2.482c0.238-0.473,0.721-0.816,0.672-1.465c-0.004-0.037,0.199-0.227,0.309-0.342
	C207.02,202.191,207.1,202.357,207.18,202.513z"/>
<path fill="#412D28" d="M205.83,206.742c-0.076-0.047-0.146-0.107-0.213-0.16c-0.113-0.154-0.221-0.305-0.334-0.453
	c0.07-0.537,0.137-1.074,0.217-1.674c0.047,0.273,0.09,0.508,0.129,0.74c0.047-0.025,0.09-0.059,0.133-0.082
	c0.031-0.334,0.064-0.666,0.113-1.199c-0.385,0.357-0.672,0.625-1.029,0.959c-0.018-0.229-0.033-0.455-0.049-0.678
	c0.082-0.105,0.162-0.209,0.246-0.312c0.258-0.154,0.52-0.312,0.781-0.473c0.043,0.148,0.092,0.289,0.137,0.43
	c0.004,0.824,0.014,1.656,0.018,2.48c0.066-0.031,0.137-0.07,0.205-0.107c0.023-0.176,0.049-0.352,0.074-0.533
	c0.312,0.516-0.055,0.797-0.416,1.072L205.83,206.742z"/>
<path fill="#838281" d="M213.973,195.68c0.078-0.391-0.105-0.736-0.168-1.107c0.301-0.242,0.6-0.496,0.945-0.777
	c-0.016-0.096-0.037-0.287-0.062-0.479l-0.008,0.01c0.156,0.145,0.312,0.295,0.465,0.445c-0.049,0.09-0.104,0.174-0.152,0.262
	c0.014,0.012,0.029,0.021,0.037,0.037c0.059-0.1,0.113-0.199,0.172-0.299l0,0c0.121-0.049,0.246-0.109,0.365-0.158
	c0.039-0.035,0.076-0.066,0.113-0.096c0.15,0.463-0.184,0.607-0.408,0.818c-0.07,0.111-0.15,0.285-0.213,0.311
	c-0.104,0.041-0.195-0.018-0.295-0.035c0.041,0.176,0.086,0.35,0.133,0.535c-0.385,0.523-0.48,1.062-0.338,1.573
	C214.168,196.632,213.789,196.595,213.973,195.68z"/>
<path fill="#838281" d="M207.691,201.283c0.178-0.084,0.361-0.162,0.578-0.26c-0.029,0.15,0.357,0.348-0.191,0.668
	c0.023,0.309,0.045,0.621,0.066,0.934c0.021,0.299,0.043,0.605,0.062,0.91c-0.033,0.029-0.07,0.059-0.105,0.092
	c-0.295-0.438-0.59-0.873-0.887-1.312C207.379,201.972,207.537,201.626,207.691,201.283z"/>
<path fill="#838281" d="M204.797,204.195c0.016,0.223,0.033,0.449,0.049,0.678c0.359-0.334,0.646-0.602,1.029-0.959
	c-0.051,0.531-0.084,0.865-0.113,1.199c-0.041,0.023-0.086,0.057-0.133,0.082c-0.039-0.232-0.082-0.465-0.129-0.74
	c-0.078,0.6-0.145,1.137-0.215,1.674C204.818,205.929,204.605,205.083,204.797,204.195z"/>
<path fill="#412D28" d="M213.693,195.092c-0.08-0.145-0.131-0.236-0.18-0.318c0-0.365,0-0.734,0-1.326
	c0.463-0.047,0.82-0.09,1.174-0.129c0.025,0.193,0.047,0.383,0.062,0.479c-0.346,0.283-0.645,0.533-0.945,0.779
	C213.771,194.713,213.748,194.856,213.693,195.092z"/>
<path fill="#838281" d="M210.518,195.913c-0.504,0.565-1.004,1.124-1.52,1.696c0.016-0.199,0.033-0.449,0.049-0.682
	C210.188,195.813,210.188,195.813,210.518,195.913z"/>
<path fill="#838281" d="M206.201,200.998c-0.447,0.318-0.414,1.4-1.096,1.416C205.172,201.5,205.43,201.166,206.201,200.998z"/>
<path fill="#412D28" d="M207.176,202.513c-0.078-0.158-0.156-0.324-0.236-0.482c0.125-0.24,0.236-0.482,0.371-0.715
	c0.133-0.232,0.283-0.459,0.424-0.682c0.035,0.035,0.072,0.072,0.109,0.107c-0.049,0.184-0.104,0.361-0.152,0.541
	c-0.156,0.344-0.312,0.689-0.477,1.031C207.207,202.38,207.189,202.449,207.176,202.513z"/>
<path fill="#412D28" d="M203.715,203.589c0,0.203-0.004,0.408-0.012,0.611c-0.043,1.104-0.098,2.207-0.143,3.311
	c-0.062-0.057-0.188-0.08-0.188-0.176c0.008-0.705,0.029-1.416,0.059-2.133c0.033-0.764,0.082-1.539,0.129-2.314
	c0.029-0.016,0.062-0.031,0.1-0.049c0.021,0.148,0.043,0.303,0.066,0.453C203.723,203.388,203.719,203.488,203.715,203.589z"/>
<path fill="#838281" d="M205.01,202.917c0.344-0.096,0.615-0.211,0.844-0.195c0.059,0-0.014,0.449-0.027,0.688
	c-0.264,0.16-0.525,0.318-0.783,0.469C205.029,203.605,205.025,203.326,205.01,202.917z"/>
<path fill="#838281" d="M211.4,200.275c0.102,0.406-0.094,1.213-0.443,1.49c-0.162,0.133-0.361-0.01-0.539-0.029
	C210.809,201.158,211.107,200.707,211.4,200.275z"/>
<path fill="#838281" d="M210.086,201.798c-0.652,1.119-0.652,1.119-0.998,0.518c0.129-0.227,0.258-0.459,0.4-0.701
	C209.701,201.677,209.893,201.74,210.086,201.798z"/>
<path fill="#412D28" d="M212.586,201.81c0-0.52,0-1.045,0-1.561c0.082-0.045,0.162-0.088,0.246-0.133
	c-0.02,0.523-0.039,1.049-0.062,1.582C212.711,201.732,212.648,201.773,212.586,201.81z"/>
<path fill="#838281" d="M205.617,206.582c0.066,0.053,0.137,0.111,0.213,0.162C205.754,206.695,205.684,206.636,205.617,206.582z"/>
<path fill="#838281" d="M208.393,202.542c0,0.115,0,0.223,0,0.338c-0.016,0.008-0.037,0.018-0.059,0.033c0-0.115,0-0.227,0-0.342
	C208.355,202.564,208.377,202.552,208.393,202.542z"/>
<path fill="#838281" d="M203.701,204.201c0.008-0.203,0.014-0.408,0.014-0.613C203.715,203.792,203.711,203.996,203.701,204.201z"/>
<path fill="#412D28" d="M270.883,159.881c0.064,0.049,0.18,0.068,0.18,0.148c0.047,0.93,0.066,1.865,0.105,2.799l-0.039-0.023
	c-0.049-0.305-0.104-0.611-0.152-0.918c-0.029,0.016-0.062,0.039-0.092,0.059c0,0.334,0,0.67,0,1.008
	c-0.066,0.01-0.137,0.02-0.199,0.033c-0.051-0.432-0.1-0.865-0.154-1.299c-0.021,0.016-0.047,0.033-0.072,0.051
	c0,0.848,0,1.697,0,2.545c0.07,0.125,0.146,0.254,0.217,0.385c0.043-0.076,0.088-0.148,0.125-0.227
	c0.033-0.033,0.066-0.066,0.096-0.094c-0.605,0.795-0.604,0.818-0.033,1.123c0.15,0.08,0.225,0.328,0.334,0.504
	c0.08-0.111,0.152-0.219,0.229-0.328c-0.047-0.471-0.08-0.945-0.162-1.387c-0.008-0.066-0.242,0.062-0.375,0.1
	c-0.012-0.199-0.021-0.408-0.037-0.668c0.191-0.131,0.35-0.248,0.516-0.365c0.162-0.059,0.334-0.115,0.537-0.188
	c0.01,0.18,0.018,0.396,0.025,0.607c-0.059,0.008-0.115,0.018-0.18,0.025c-0.057,0.24-0.158,0.504-0.166,0.715
	c-0.025,0.871,0.328,1.244,0.836,1.402c0.037,0.086,0.074,0.16,0.113,0.244c0.066,0.182,0.129,0.373,0.195,0.557
	c-0.074,0.027-0.154,0.057-0.234,0.084c-0.012-0.018-0.023-0.043-0.037-0.059c0,0.018,0,0.031,0.004,0.041
	c0.01,0.008,0.025,0.008,0.039,0.008c-0.139,0.188-0.275,0.441-0.422,0.549c-0.576,0.41-1.164,0.777-1.75,1.158
	c-0.068-0.244-0.135-0.49-0.244-0.865c-0.066,0.371-0.107,0.574-0.152,0.814c-0.275-1.436-0.295-1.465-0.803-1.559
	c-0.717-0.098-0.699-0.92-0.475-1.912c0.055-0.252,0.232-0.525,0.35-0.783c-0.088-0.033-0.191-0.074-0.287-0.111
	c0.221-0.711,0.42-1.346,0.615-1.986c0.08-0.166,0.166-0.326,0.232-0.5c0.271-0.684,0.576-1.312,1.117-1.564
	C270.748,159.963,270.818,159.92,270.883,159.881z"/>
<path fill="#412D28" d="M276.602,160.899c0.041,0.012,0.084,0.029,0.121,0.045c0.016-0.049,0.037-0.098,0.053-0.148
	c0.061-0.07,0.121-0.137,0.18-0.213c0.037,0.033,0.072,0.062,0.105,0.092c0.029,0,0.049,0.016,0.057,0.053c0,0.791,0,1.578,0,2.248
	c-0.242,0.283-0.395,0.469-0.6,0.711c-0.033-0.299-0.066-0.582-0.107-1.014c-0.057,0.406-0.086,0.656-0.113,0.902
	c-0.047,0.018-0.084,0.045-0.129,0.066c-0.014-0.238-0.031-0.473-0.047-0.734c-0.279,0.244-0.566,0.5-0.795,0.703
	c0.092-0.467,0.316-1.035,0.229-1.215c-0.307-0.611,0.062-1.25,0.363-1.965c0.104,0.115,0.184,0.199,0.258,0.281
	C276.076,161.344,276.447,160.866,276.602,160.899z"/>
<path fill="#D4D3D4" d="M276.602,160.893c-0.154-0.029-0.525,0.453-0.426-0.184c0.139-0.182,0.279-0.465,0.416-0.539
	c0.621-0.344,1.242-0.625,1.895-0.949c0.047,0.824,0.092,1.592,0.129,2.258c-0.49-0.25-0.994-0.502-1.498-0.756
	c-0.008-0.037-0.027-0.053-0.057-0.053c-0.035-0.029-0.068-0.059-0.105-0.092c-0.059,0.074-0.121,0.143-0.18,0.213
	C276.721,160.825,276.662,160.862,276.602,160.893z"/>
<path fill="#412D28" d="M278.74,156.184c0.199,0.283,0.371,0.52,0.541,0.762c0.109,0.42,0.637,0.338,0.467,1.084
	c-0.146,0.074-0.291,0.158-0.438,0.221c-0.266,0.123-0.533,0.232-0.803,0.348c-0.021-0.652-0.043-1.295-0.059-1.945
	C278.561,156.475,278.67,156.29,278.74,156.184z"/>
<path fill="#412D28" d="M274.1,159.838c-0.5,0.332-0.996,0.666-1.541,1.023c0.006-0.092,0.018-0.309,0.029-0.525
	c0.316-0.482,0.633-0.961,0.949-1.445C273.725,159.206,273.912,159.518,274.1,159.838z"/>
<path fill="#D4D3D4" d="M279.307,156.573c-0.041-0.156-0.125-0.283-0.188-0.414c0.254-0.209,0.434-0.857,0.754-0.627
	c0.062,0.16,0.125,0.318,0.191,0.475c0.023,0.643,0.045,1.287,0.07,1.973c-0.162,0.02-0.273,0.035-0.387,0.047
	c0.17-0.742-0.357-0.66-0.467-1.082C279.291,156.815,279.332,156.667,279.307,156.573z"/>
<path fill="#412D28" d="M280.551,163.924c0.004-0.189,0.012-0.391,0.02-0.627c0.127,0.027,0.191,0.035,0.338,0.068
	c0-1.498,0-2.871,0-4.244c0.088,1.314,0.117,2.654,0.184,3.971C281.125,163.706,280.852,163.801,280.551,163.924L280.551,163.924z"
	/>
<path fill="#412D28" d="M280.547,155.325c0.004,0.27,0.008,0.516,0,0.766c-0.006,0.25-0.021,0.5-0.025,0.561
	c-0.119-0.168-0.291-0.406-0.457-0.645c-0.066-0.156-0.129-0.314-0.191-0.475C280.09,155.467,280.307,155.401,280.547,155.325z"/>
<path fill="#D4D3D4" d="M270.676,164.665c-0.068-0.129-0.145-0.258-0.217-0.381c0.076-0.432,0.15-0.867,0.227-1.301
	c0.062-0.012,0.133-0.023,0.199-0.033c0.082-0.049,0.166-0.098,0.246-0.148c0,0,0.037,0.023,0.033,0.023
	c0.066,0.168,0.133,0.334,0.203,0.502c-0.166,0.117-0.324,0.232-0.516,0.365c0.018,0.26,0.023,0.467,0.037,0.666l0.01-0.012
	c-0.029,0.029-0.062,0.062-0.096,0.096C270.764,164.516,270.719,164.592,270.676,164.665z"/>
<path fill="#412D28" d="M275.936,159.317c-0.055-0.244-0.105-0.455-0.15-0.668l-0.01,0.016c0.438-0.471,0.617-0.268,0.705,0.191
	c-0.014,0.1-0.021,0.207-0.029,0.312C276.281,159.213,276.105,159.262,275.936,159.317z"/>
<path fill="#412D28" d="M275.775,158.663l0.01-0.016c-0.643,0.545-0.766,0.434-0.57-0.5c0.158,0.043,0.312,0.084,0.469,0.125
	C275.713,158.405,275.746,158.53,275.775,158.663z"/>
<path fill="#D4D3D4" d="M276.467,164.465c0.025-0.059,0.055-0.109,0.004-0.016c0.059-0.084,0.025-0.033-0.008,0.016H276.467z"/>
<path fill="#D4D3D4" d="M280.055,163.522c0.016,0.029,0.037,0.057,0.033,0.096c0,0.02-0.037,0.066-0.059,0.096
	c-0.012-0.029-0.023-0.059-0.031-0.088C280.02,163.592,280.035,163.555,280.055,163.522z"/>
<path fill="#D4D3D4" d="M276.352,164.688c0.035-0.072,0.078-0.146,0.115-0.221h-0.004c-0.041,0.074-0.074,0.141-0.115,0.215
	L276.352,164.688z"/>
<path fill="#838281" d="M273.375,164.493c0.125,0.074,0.404,0.074,0.445,0.291c0.154,0.824-0.359,1.697-1.092,1.904
	c-0.064-0.182-0.129-0.373-0.195-0.557C273.092,165.807,272.863,165,273.375,164.493z"/>
<path fill="#838281" d="M275.139,165.159c-0.078,0.061-0.166,0.123-0.248,0.191c0.053-0.102,0.104-0.201,0.158-0.301
	C275.082,165.088,275.109,165.12,275.139,165.159z"/>
<path fill="#838281" d="M276.846,157.84c-0.137,0.387-0.254,0.699-0.365,1.016c-0.088-0.459-0.268-0.664-0.705-0.193
	c-0.029-0.133-0.062-0.258-0.092-0.391C276.018,158.147,276.352,158.026,276.846,157.84z"/>
<path fill="#412D28" d="M214.938,192.85c0.385-0.379,0.375,0.268,0.639,0.225c0.033,0.146,0.07,0.295,0.104,0.443
	c-0.037,0.029-0.076,0.061-0.113,0.094c-0.033,0-0.062,0-0.092,0.006c-0.037,0.02-0.07,0.033-0.104,0.049
	c-0.059,0.039-0.113,0.072-0.172,0.105l0,0c-0.016-0.008-0.033-0.006-0.053,0c-0.154-0.148-0.309-0.299-0.467-0.445
	C214.768,193.165,214.838,192.948,214.938,192.85z"/>
<path fill="#D4D3D4" d="M215.199,193.774c0.059-0.033,0.113-0.066,0.172-0.105h0.049l0.055-0.049
	c0.027-0.006,0.057-0.006,0.092-0.006C215.445,193.665,215.32,193.723,215.199,193.774z"/>
<path fill="#D4D3D4" d="M215.201,193.772c-0.059,0.1-0.113,0.201-0.172,0.301c-0.008-0.018-0.023-0.025-0.037-0.039
	c0.049-0.086,0.104-0.17,0.152-0.262C215.166,193.768,215.184,193.764,215.201,193.772z"/>
<path fill="#838281" d="M270.889,164.358c0.135-0.035,0.369-0.164,0.375-0.1c0.084,0.443,0.117,0.916,0.164,1.389
	c-0.076,0.109-0.15,0.215-0.23,0.328c-0.107-0.176-0.184-0.424-0.332-0.504c-0.572-0.305-0.574-0.328,0.033-1.125L270.889,164.358z"
	/>
<path fill="#838281" d="M270.461,161.735c0.023-0.016,0.051-0.033,0.07-0.049c0.055,0.432,0.104,0.865,0.154,1.299
	c-0.076,0.432-0.148,0.865-0.225,1.299C270.461,163.434,270.461,162.586,270.461,161.735z"/>
<path fill="#838281" d="M270.887,161.944c0.029-0.02,0.062-0.041,0.092-0.057c0.049,0.303,0.104,0.611,0.152,0.916
	c-0.078,0.047-0.162,0.098-0.246,0.146C270.885,162.614,270.885,162.278,270.887,161.944z"/>
<path fill="#838281" d="M272.5,166.764c-0.012,0-0.027,0-0.037-0.008c-0.004-0.01-0.004-0.025-0.004-0.041
	c0.014,0.016,0.025,0.041,0.037,0.059L272.5,166.764z"/>
<path fill="#838281" d="M270.678,164.667c0.041-0.076,0.088-0.148,0.125-0.225C270.764,164.516,270.719,164.592,270.678,164.667z"/>
<path fill="#838281" d="M276.721,160.942c-0.037-0.018-0.078-0.033-0.121-0.047c0.062-0.033,0.123-0.07,0.176-0.104
	C276.76,160.842,276.738,160.891,276.721,160.942z"/>
<path fill="#838281" d="M276.953,160.579c0.039,0.033,0.072,0.062,0.105,0.092C277.025,160.641,276.992,160.612,276.953,160.579z"/>
<path fill="#838281" d="M215.473,193.618l-0.053,0.051h-0.049C215.402,193.653,215.436,193.639,215.473,193.618z"/>
<path fill="#B53E3A" d="M163.147,154.71c0,0,26.135,21.702,33.076,27.29c6.934,5.588,7.688-9.757,16.055-14.625
	c8.367-4.861-12.646-0.847,0.117-9.115c12.77-8.277,33.607-16.013,24.056-20.448c-43.378-20.143,13.141-29.79-3.325-30.743
	c-16.469-0.957-26.367,22.178-54.79,31.088c-28.426,8.912-14.439,10.354-21.381,11.26L163.147,154.71z"/>
<path fill="#CE6E6D" d="M173.378,156.756c5.594,2.922-13.935-5.344-10.962-2.855s25.066,18.957,31.133,25.178
	c6.066,6.219-7.016-12.891-6.504-11.654C188.676,171.381,167.782,153.831,173.378,156.756z"/>
<path fill="#170F0E" d="M279.115,140.581c-1.52,4.318-62.867,41.76-75.188,44.355c-12.322,2.592-0.889,4.795,3.467,2.537
	c4.355-2.256,66.807-39.742,71.721-42.156c4.912-2.414,2.771-2.371,0.758-5.586"/>
<path fill="#BF3C28" d="M268.922,181.104c0.021-0.453-0.018-0.895,0.074-1.357c0.062-0.295,0.318-0.777,0.5-0.902
	c0.783-0.543,1.574-0.992,2.365-1.453c2.215-1.303,4.43-2.574,6.635-3.904c0.584-0.348,0.875-0.285,0.883,0.51
	c0.004,0.467,0.088,0.873,0.088,1.336c0.008,0.92-0.303,1.428-1.004,1.707c-0.414,0.166-0.838,0.361-1.264,0.615
	c-2.404,1.457-4.816,2.869-7.215,4.443C268.818,182.858,268.955,182.577,268.922,181.104z"/>
<path fill="#170F0E" d="M285.24,178.067c-0.303-7.764-0.654-6.08-0.852-8.838c-0.129-1.812,0.223-7.061,0.145-7.232
	c-0.271-0.629-0.809-6.609-1.143-9.041c-0.195-1.396-0.848-1.756-1.984-1.197c-0.094,0.047-0.189,0.08-0.371,0.033
	c-0.221,0.125-0.453,0.254-0.691,0.383c0.014,0,0.016,0.01,0.029,0.01c0.01,0.045,0.01,0.09,0.014,0.131
	c-0.625,0.326-1.25,0.652-1.912,0.998c0.004-0.064,0.008-0.117,0.008-0.182c-0.168,0.092-0.357,0.176-0.541,0.264
	c-0.037,0.189-0.148,0.373-0.381,0.504c-1.01,0.6-2.025,1.205-3.027,1.883c-1.729,1.166-3.455,2.355-5.174,3.596
	c-0.766,0.555-1.236,1.574-1.512,2.615c-0.322,1.201-0.557,2.406-0.801,3.604c-0.096,0.467-0.203,0.725-0.578,0.941
	c-6.186,3.598-12.367,7.219-18.553,10.85c-4.312,2.527-8.623,5.076-12.934,7.609c-5.637,3.305-11.273,6.602-16.91,9.906
	c-0.246,0.143-0.49,0.334-0.736,0.5c0.139,1.839,0.266,3.681,0.404,5.563c-0.053,0.029-0.109,0.057-0.162,0.09
	c0.072-0.219,0.08-0.455,0.014-0.758c-0.213-0.973-0.291-2.062-0.404-3.123c-0.062-0.584-0.076-1.204-0.109-1.808
	c-0.254-0.873-0.518-1.74-0.766-2.621c-0.4-1.434-1.297-1.748-2.564-1.113c-1.791,0.896-3.586,1.844-5.377,2.785
	c-0.604,0.316-1.205,0.674-1.811,1.008c-0.34,0.184-0.539,0.125-0.506-0.393l-0.293,0.217c-0.078,0.424-0.277,0.533-0.902,0.908
	c-0.768,0.466-1.549,0.964-2.318,1.499c-0.832,0.576-1.303,1.406-1.479,2.713c-0.25,1.857-0.453,3.705-0.662,5.545
	c-0.029,0.273,0.021,0.516,0.039,0.775c-0.061,0.053-0.119,0.107-0.176,0.158c-0.066-0.326-0.129-0.65-0.201-1.014
	c-0.184,0.924-0.346,1.838-0.561,2.76c-0.199-0.215-0.398-0.428-0.596-0.645c-2.549-1.674-5.102-3.348-7.639-5.021
	c-1.309-0.059-2.049-1.715-2.877-3.146c-1.166-1.25-2.324-2.486-3.48-3.722c-1.051-1.006-2.104-2.021-3.152-3.037
	c-0.188-0.127-0.371-0.256-0.549-0.377c-3.605-2.057-7.236-4.438-10.807-6.045c-2.023-0.898-4.088-0.938-5.879-0.623
	c-2.557,0.434-3.938,3.031-5.131,5.838c-0.955,2.254-2.049,4.346-3.09,6.509c0.219,3.23-1.158,4.846-2.098,6.848
	c-0.293,0.596-1.217,0.408-1.842,0.578c0.691,1.98,0.121,2.605-1.002,1.965c-3.223-1.873-6.441-3.979-9.666-5.998
	c-0.441-0.215-0.883-0.396-1.328-0.654c-10.537-6.177-21.076-12.351-31.611-18.544c-8.809-5.176-17.613-10.332-26.422-15.586
	c-1.184-0.703-21.674-13.062-24.736-14.688h-0.001c-0.433-0.244-0.866-0.49-1.3-0.727c-2.143-1.164-4.119-3.805-4.502-6.219
	c-0.047-0.225-0.088-0.459-0.133-0.684c-0.172-0.814-0.35-1.631-0.521-2.443c-0.043-0.311-0.1-0.637-0.143-0.949
	c-0.74-4.025-1.486-8.047-2.227-12.072c-0.025-0.273-0.041-0.541-0.066-0.811c-0.375-0.828-0.75-1.648-1.111-2.48
	c-1.141-2.639-2.17-5.336-3.422-7.909c-1.918-3.954-4.695-5.87-7.301-8.185c-5.94-6.501-32.523-18.376-31.023-14.001
	c-0.067,0.697,1.313,2.03,1.127,2.597c-0.658,1.932-0.059,4.204,0.711,6.714c0.707,2.286,1.025,4.593,1.578,6.898
	c0.176,0.699,0.549,1.411,0.711,1.814c-0.219,0.726-0.516,1.316-0.611,2.062c-0.212,1.693-0.315,3.477-0.473,5.216
	c0.027,0.167,0.053,0.338,0.082,0.508c0.05,0.043,0.092,0.075,0.134,0.115c-0.047,0.029-0.101,0.059-0.146,0.092
	c0.282,0.616,0.638,1.698,0.815,1.741c0.471,0.113,1.01-0.02,1.27-0.416c0.361-0.582,0.496-1.489,0.729-2.256
	c0.566-1.773,1.885,0.1,2.896,0.467c0.166,0.157,0.32,0.304,0.486,0.457l0.039,0.043c0.078,0.208,0.148,0.425,0.232,0.639
	c-0.004,1.062-0.012,2.127-0.008,3.199c0.232,1.414,0.482,2.846,0.725,4.277c0.736,4.379,2.297,8.527,4.654,12.48
	c0.336,0.555,0.566,1.221,0.848,1.842c2.998,5.223,9.829,10.904,17.037,11.816c2.405,0.305,11.334-1.146,12.592-4.64
	c0.234-0.651,1.48-0.126,2.643,0.474c6.933,5.174,34.241,20.133,42.055,24.84c4.133,2.494,26.828,15.752,31.787,19.006
	c0.969,0.639,16.77,9.458,23.338,13.308c1.836,1.072,3.328,0.416,4.93,3.479c0.375,0.717,0.766,1.475,1.012,2.232
	c1.557,4.799,4.963,15.131,11.246,20.234c5.05,4.104,9.902,6.31,14.055,6.578c4.784-0.178,8.682-2.061,12.461-4.002
	c2.156-1.109,4.771-5.078,5.203-9.879c0.213-2.375,0.35-2.449,1.07-2.906c0.201-0.367,9.947,4.141,19.832-0.629
	c19.346-9.33,19.051-10.955,30.629-18.039C286.352,185.854,285.289,179.35,285.24,178.067z M18.551,118.876
	c-0.305-4.029,3-6.886,6.42-5.674C22.795,115.121,20.734,116.952,18.551,118.876z M31.334,146.737
	c-5.811-3.279-10.727-12.072-10.387-19.344c0.334-6.907,3.518-11.399,10.42-7.702c5.887,3.157,10.244,11.477,10.291,19.381
	C41.707,146.649,37.166,150.018,31.334,146.737z M177.002,231.908c-6.201-4.264-10.732-12.521-10.656-20.568
	c0.057-7.309,4.725-10.797,10.186-7.588c6.045,3.543,10.748,12.508,10.736,20.443C187.242,231.433,182.193,235.47,177.002,231.908z
	 M188.955,217.583c-0.615-2.045-1.465-4.16-2.611-6.387c-3.578-6.93-10.289-13.562-15.072-13.879
	c-1.918-0.133-3.734,0.15-5.752,0.25c1.84-2.562,4.416-2.606,7.326-1.774c4.676,1.333,9.025,4.847,12.779,10.933
	c2.236,3.617,3.953,7.404,5.172,11.303L188.955,217.583z M198.998,209.794c-0.16,0.426-0.318,0.863-0.42,1.293
	c-0.59-0.312-1.184-0.523-1.771-0.895c-1.611-1.025-3.23-2.15-4.846-3.234c0.018-0.199,0.033-0.4,0.039-0.6
	c2.346,1.109,4.695,2.221,7.043,3.332C199.029,209.726,199.01,209.761,198.998,209.794z M200.305,209.464
	c-0.047-0.049-0.09-0.098-0.137-0.146c0.035-0.562,0.07-1.123,0.107-1.689c0.012,0,0.021-0.004,0.029-0.008
	C200.305,208.232,200.305,208.849,200.305,209.464z M216.449,212.394c-0.043,0.875-0.162,1.055-0.787,1.369
	c-0.609,0.297-1.211,0.625-1.822,0.963c-2.371,1.32-4.74,2.646-7.117,3.973c-0.547,0.303-0.809,0.092-0.785-0.662
	c0.018-0.469,0.084-0.967,0.1-1.441c0.039-0.801,0.264-1.24,0.867-1.58c2.723-1.525,5.457-3.051,8.18-4.572
	c1.336-0.75,1.336-0.746,1.369,0.99C216.453,211.757,216.465,212.07,216.449,212.394z M213.555,202.943
	c-2.963,1.662-5.932,3.322-8.895,4.984c-0.471,0.654-0.771,0.309-1.131,0.279l-0.012,0.041c0,0.023,0.004,0.057-0.008,0.082
	c-0.008,0.018-0.051,0.041-0.055,0.037c-0.061-0.104-0.113-0.211-0.213-0.393c-0.037,0.334-0.076,0.629-0.115,0.957
	c-0.02,0.008-0.037,0.016-0.062,0.023c0.004-1.17,0.014-2.227,0-3.254c-0.008-0.811-0.045-1.602-0.062-2.404
	c-0.066,1.291-0.133,2.58-0.195,3.867c-0.07,1.572-0.113,2.002-0.695,2.215c-0.049,0.016-0.096,0.033-0.145,0.053
	c-0.213,0.053-0.463,0.1-0.816,0.154c-0.457,0.07-0.721-0.092-0.553-0.883c0.023-0.633,0.045-1.262,0.07-1.895
	c0.166-1.623,0.24-3.227,0.527-4.873c0.359-2.053,0.477-2.848,1.85-3.381c0.016,0.35,0.033,0.703,0.049,1.053
	c0,0.584,0,1.162,0,1.746c0.076-0.043,0.154-0.084,0.234-0.123c0.043-0.852,0.092-1.701,0.133-2.555
	c0.062-0.021,0.125-0.039,0.184-0.059c-0.02,0.346-0.057,0.713-0.047,1.045c0.012,0.648,0.055,1.281,0.08,1.92
	c0.045-0.621,0.137-1.279,0.111-1.857c-0.041-1.102,0.209-2.041,1.365-2.354c-0.096,0.336-0.191,0.658-0.254,0.857
	c0.691-0.545,1.379-1.09,2.07-1.639c0.016-0.012,0.037-0.021,0.053-0.041c0.57-0.97,1.225-0.837,1.828-1.241
	c0.678-0.449,1.365-0.699,2.051-1.049c1.213-0.609,2.428-1.229,3.648-1.844c0.344,0.096,0.695,0.186,1.045,0.285
	c0.115,0.178,0.236,0.359,0.354,0.535c0.283,1.123,0.566,2.246,0.844,3.372c0.16,1.391,0.309,2.779,0.467,4.17
	C216.023,201.785,214.791,202.529,213.555,202.943z M222.32,195.766c-0.633,0.375-1.107,0.266-1.092-0.242
	c0.023-0.486,0.473-1.064,1.098-1.402c0.014-0.014,0.037-0.029,0.059-0.029c0.377-0.084,0.887-0.449,0.947,0.266
	C223.371,194.768,222.875,195.438,222.32,195.766z M278.533,176.954c-0.414,0.166-0.838,0.361-1.264,0.617
	c-2.404,1.455-4.816,2.867-7.215,4.441c-1.164,0.762-1.027,0.479-1.062-0.994c0.021-0.453-0.018-0.895,0.074-1.357
	c0.064-0.295,0.318-0.777,0.5-0.902c0.783-0.541,1.576-0.992,2.365-1.453c2.215-1.303,4.43-2.574,6.635-3.904
	c0.584-0.348,0.875-0.285,0.883,0.51c0.006,0.469,0.088,0.873,0.088,1.336C279.545,176.167,279.234,176.676,278.533,176.954z
	 M281.078,163.387c-0.273,0.242-0.561,0.482-0.852,0.725c-0.352,0.125-0.697,0.25-1.047,0.379c-2.039,1.225-4.078,2.447-6.119,3.672
	c-0.049,0.062-0.1,0.152-0.148,0.182c-2.012,1.162-4.025,2.328-6.119,3.535c0-0.229-0.033-0.584-0.002-0.957
	c0.105-1.184,0.205-2.365,0.354-3.568c0.139-1.068,0.713-2.213,0.734-3.277c0-0.021,0.023-0.055,0.033-0.08
	c0.133-0.988,0.369-1.967,0.943-2.9c0.449-0.438,0.891-0.873,1.342-1.314c1.293-0.74,2.586-1.484,3.883-2.229
	c0.191-0.115,0.383-0.238,0.574-0.352c0.066-0.047,0.129-0.094,0.199-0.135c0.916-0.557,1.84-1.115,2.752-1.67
	c0.219-0.072,0.441-0.145,0.656-0.219c0.223,0,0.439,0.051,0.672-0.018c0.104-0.033,0.242-0.291,0.367-0.447
	c-0.092-0.109-0.188-0.213-0.283-0.32c0.029-0.07,0.055-0.146,0.084-0.217c0.34,0.012,0.676,0.02,1.018,0.033
	c0.258-0.346,0.475-0.428,0.584-0.078c0.059,0.199,0.129,0.398,0.145,0.631c0.088,1.09,0.201,2.164,0.223,3.297
	C281.1,159.799,281.082,161.59,281.078,163.387z M283.682,160.958c-0.672,0.674-1.383,1.357-2.166,2.047
	c-0.008-0.008-0.012-0.014-0.021-0.029c-0.062-3.227-0.121-6.455-0.182-9.896c0.412-0.09,0.791-0.312,0.982-0.182
	c0.299,0.201,0.615,0.533,0.674,1.008c0.295,2.273,0.52,4.605,0.742,6.938C283.711,160.868,283.686,160.924,283.682,160.958z"/>
<path fill="#19181A" d="M143.682,99.947C143.682,99.946,143.682,99.946,143.682,99.947c2.137-1.117,40.902-22.472,48.75-26.8
	c1.969-1.086,4.787-3.476,7.291-1.963c8.959,8.588,16.731,18.575,27.042,25.833c1.559,1.856,1.485,2.533-0.821,4.275
	c-3.992,3.013-20.877,14.925-31.088,20.161c-8.789,4.507-33.246,17.933-43.457,23.3c-2.109-4.367-7.582-15.531-9.686-19.898
	c-5.333-8.433-6.508-8.223-9.5-14.433C130.303,106.474,139.578,101.153,143.682,99.947z"/>
<path fill="#625F61" d="M142.014,104.018c1.377-1.517-5.514,1.785-5.25,3.667c0.583,4.166,2.75,6.083,6.552,12.841
	c5.501,9.779,12.012,20.971,11.846,20.485c-1.647-4.827-7.525-15.839-7.525-15.839s0.357-3.373-0.59-6.217
	c-1.506-4.517-8.312-7.724-7.723-10.865C139.911,104.949,141.359,104.739,142.014,104.018z"/>
<path fill="#B53E3A" d="M18.879,65.768c-1.211-0.566-2.426-1.057-3.646-1.773c-0.449-0.266-0.906-1.091-1.361-1.657
	c-0.17-0.182-0.354-0.375-0.529-0.566c-0.461,0.033-0.91,0.075-1.885,0.159c2.723,2.73,3.143,5.503,3.201,8.184
	c0.047,1.706-0.311,3.196-0.387,4.854c-0.038,0.917,0.099,1.938,0.182,2.931c-0.803,2.866-1.609,7.514-2.408,10.207
	c-0.396,1.319-0.773,6.312-0.545,7.176c0,0,0.158,0.055,0.146,0.051c1.307,0.34,1.707-0.518,1.641-2.308
	c-0.062-1.557,0.119-3.022,0.338-4.408c0.368-2.392,1.381-7.966,1.815-10.668c0.646-3.338,1.195-6.469,1.909-9.434
	C17.627,67.378,18.359,66.675,18.879,65.768z"/>
<path fill="#B53E3A" d="M91.923,31.356c-5.764-5.17-12.168-9.984-18.522-14.913c-1.201,0.539-2.236,1.277-2.918,2.312
	c-0.743,1.128-42.718,26.596-40.051,23.929c34,18.667,12.166,0.25,48.416,23.25c0.229-2.854,29.217,18.104,30.25,14.75
	c6.438,4.614,6.851,15.171,14.614,14.451c-3.967-3.863,17.445,0.502,16.357-5.148c-0.363-0.226-33.643-19.285-34.006-19.51
	c-8.193-5.759,55.701,22.381,13.643-7.156c-0.363-0.226,30.777,17.528,30.414,17.302c-11.184-7.074-46.209-40.849-57.67-43.234
	c1.004,5.249,24.9,24.521,22.367,31.97c-17.732-10.989-24.584-22.771-31.812-39.24C88.839,26.557,87.206,41.084,91.923,31.356z"/>
<path fill="#B53E3A" d="M156.598,191.686c-5.709-3.295-47.049-27.07-57.668-33.264c-0.967-0.564-28.939-18.627-39.541-23.523
	c-2.413-1.422-4.822-2.85-7.24-4.285l-0.053-0.043c-0.307-0.268-0.609-0.533-0.916-0.805c-0.83-0.475-1.654-0.957-2.473-1.424
	c0.025,0.27,0.041,0.537,0.066,0.811c2.996,1.908,11.172,7.893,14.158,9.699c0.043,0.026,0.049,0.019,0.037-0.004
	c7.084,4.654,22.6,13.26,30.254,17.586c0.954-0.088,1.438-0.188,1.438-0.188l0.562,0.438l0.438,1.25
	c1.253,0.702,1.039,0.715,1.104,0.752c7.248,4.387,43.763,25.461,54.415,31.885c0.645,0.387,1.291,0.668,2.471,1.27
	C152.986,190.651,156.885,192.194,156.598,191.686z"/>
<path fill="#B53E3A" d="M198.359,197.892c-0.018-0.199,0.105-3.714,0.615-3.747c0.023-0.275,0.043-0.549,0.072-0.824
	c-2.086-2.383-4.168-4.777-6.266-7.143c-1.066-1.199-2.145-2.326-3.219-3.488c-3.464-5.213-14.115-13.387-13.43-12.99
	c-3.537-3.043-6.744-6.221-10.277-9.256c-5.793-5.547-9.564-8.289-9.498-8.172c-0.449,0.305-1.1-0.449-1.424-0.639
	c-2.578-1.508-3.789-3.977-5.404-7.113l0.037,0.031c-0.232-0.408-0.457-0.816-0.688-1.221l-0.047-0.102
	c-1.184-2.033-2.375-4.074-3.557-6.102l-0.051-0.096c-0.445-0.711-0.883-1.416-1.324-2.123l0.018,0.021
	c-1.572-2.553-3.139-5.1-4.721-7.66l0.014,0.033c-0.447-0.793-0.904-1.586-1.35-2.373l0.016,0.039
	c-0.453-0.717-0.904-1.434-1.354-2.143c-0.09-0.229-0.178-0.465-0.283-0.697c-1.465-2.345-2.938-4.696-4.406-7.044
	c-1.494-2.124-2.991-4.243-4.481-6.37c0.593-0.666,0.756-2.958,2.47-3.917c9.964-5.58,32.822-18.358,33.066-18.302
	c1.936-1.25,28.258-16.807,28.996-17.194c0.115-0.141,0.219-0.278,0.332-0.42c-0.299-0.157-0.596-0.308-0.896-0.462l-0.004,0.071
	c-0.783,0.437-1.395,1.364-2.561,0.708c-2.348,1.224-55.837,32.622-62.991,36.568c0.245-0.545,0.809-1.897,1.291-2.192
	c7.365-4.5,25.575-15.627,25.792-15.767c1.281-0.829,2.936-1.79,4.193-2.682c1.881-1.316,3.754-2.657,5.723-3.806
	c2.609-1.523,5.309-2.859,7.953-4.295c2.152-1.171,4.279-2.381,6.439-3.551c2.523-1.369,5.062-2.719,7.605-4.051
	c0.602-0.317,1.26-0.517,1.904-0.766c0.848-0.238,1.234-0.667,2.363-0.982c0.066-0.349,1.557-0.559,2.506-0.759
	c0.066,0.221,0.127,0.443,0.18,0.663c0.176,0.139,0.354,0.279,0.52,0.421c0.111-0.051,0.229-0.097,0.346-0.146
	c-0.07-0.113-0.152-0.225-0.229-0.337c-0.488-0.324-0.441-0.574-0.201-0.753c0.096-0.037,0.164-0.079,0.176-0.117
	c0.725-0.337,1.504-0.571,2.189-0.962c0.408-0.232,1.199-0.133,0.949-1.132h-0.008c-0.088-0.026-0.188-0.051-0.283-0.075
	c-0.055-0.024-0.115-0.037-0.18-0.033c-0.088-0.008-0.176-0.017-0.27-0.029c-1.283,0.187-2.576,0.366-3.859,0.554
	c-0.062,0.007-0.125,0.016-0.188,0.024c0.014,0.021,0.033,0.043,0.047,0.063c-2.139,1.374-7.127,3.368-9.904,4.892
	c-9.727,5.345-45.223,27.483-48.223,28.733c-1.274,0.531-5.623,2.317-6.125,2.25c-0.155-0.52-2.773,0.339-2.875-0.25
	c-0.912-1.05-2.008-1.418-2.941-2.426c-2.143-2.322-4.283-3.729-6.643-4.902c-4.246-2.107-8.547-5.18-12.83-7.855
	c-4.713-2.95-9.43-5.923-14.146-8.887c-0.807-0.357-1.623-0.629-2.436-1.107c-8.471-5.028-16.938-10.173-25.418-15.094
	c-4.607-2.689-9.211-4.841-13.816-7.5c-4.545-2.61-9.084-5.549-13.623-8.344c-0.352-0.091-0.701-0.187-1.059-0.285
	c-3.66-2.885-5.129-0.469-6.307,2.515c-1.436,3.645-2.773,7.395-4.154,11.092c-0.209,0.566-0.473,1.09-0.572,1.747
	c-0.049,0.35,0.205,0.961,0.328,1.453c0.238-0.038,0.471-0.092,0.717-0.096c0.225-0.011,0.461,0.042,0.695,0.071
	c0.131-0.333,0.26-0.663,0.375-0.995c0.025-0.109,0.047-0.218,0.066-0.333c0.228-0.419,0.449-0.845,0.673-1.269
	c-0.1,1.415-0.2,2.832-0.3,4.241c-0.047,0.604-0.113,1.194-0.168,1.789c0.205,0.209,0.406,0.425,0.607,0.638
	c0.5-1.391,1.008-2.777,1.553-4.279c0.168,0.507,0.289,0.886,0.41,1.261c0.582-2.265,1.152-4.555,1.744-6.819
	c0.106-0.422,0.214-0.835,0.129-1.231c0.478,0.259,1.048,1.315,1.482,1.197c0.875,0.142,1.732,0.087,2.623,0.458
	c4.15,1.714,8.309,3.613,12.268,3.847c0.828,0.05,1.807,0.707,2.572,1.024c0.104,1.241,0.178,2.148,0.258,3.056
	c0.188-0.012,0.477,0.1,0.555-0.058c0.151-0.313,0.288-0.567,0.42-0.79c0,0.209,0,0.426,0,0.642l-0.017,0.007
	c0.05,0.233,0.167,0.525,0.146,0.691c-0.298,2.003-0.608,3.988-0.91,5.989c0.368,1.383,0.745,2.766,1.101,4.159
	c0.513,2.004,1.003,4.006,1.673,6.678c0.213-0.911,0.312-1.535,0.502-2.031c0.207-0.537,0.51-0.94,0.772-1.398
	c0-0.382-0.006-0.761-0.011-1.14c-0.837-1.975-0.287-2.939,0.188-3.955c0.212-1.864,0.422-3.729,0.633-5.593
	c0.225,0.759,0.45,1.518,0.676,2.279c0.4-3.172,0.842-4.946,1.229-7.993c8.934,5.155,13.015,7.405,21.814,12.51
	c1.678,0.974,8.02,4.722,9.681,5.909c0.441,0.313,1.5,1.764,1.572,2.326c0.289,2.422,0.433,3.402,0.608,5.792
	c0.408,2.807,0.4,5.344,0.805,8.15c0.205-0.506-0.438-8.268-0.242-8.775c-0.047-0.91,0.739,5.433,0.688,4.522
	c0.051,0.91,0.103,1.821,0.149,2.729c0.156,0.616,0.391,1.279,0.438,1.855c0.195,2.32,0.346,4.622,0.492,6.92
	c0.229,3.821,0.441,7.644,0.658,11.455c-0.018,1.2,0.441,1.758,1.314,2.29c1.5,0.916,2.998,2.088,4.5,3.156
	c-0.029,0.139-0.037,0.284-0.053,0.43c-14.125-9.021-28.26-18.048-42.391-27.07c-0.912-0.574-1.822-1.159-2.734-1.732
	c0.059,1.399-0.012,2.888,1.627,3.126c0.137,0.02,0.404,0.214,0.479,0.383c1.828,4.288,4.574,4.395,6.91,6.372
	c1.637,1.373,3.291,2.675,4.945,3.905c4.287,3.206,8.592,6.35,12.889,9.559c0.695,0.524,1.373,1.277,2.064,1.907
	c0.854,0.777,1.693,1.681,2.561,2.271c2.93,2.007,5.865,3.869,8.795,5.845c0.406,0.275,0.775,1.092,1.184,1.391
	c0.516,0.371,1.383,0.887,1.535,0.604c1.129-2.061,2.336,0.654,3.748,1.629c-0.293,0.32-0.393,0.432-0.496,0.523
	c-0.316,0.283-0.645,0.549-0.975,0.82c0.48,0.229,0.975,0.562,1.426,0.645c0.844,0.16,1.65,0.168,2.484,0.242
	c0.004-0.789,0.008-1.586,0.02-2.373c-0.688-2.107,0.121-1.791,1.078-1.219l-0.025,0.096l0.084,0.09
	c1.873,0.033,3.734,0.883,5.564,3.369c0.904,0.619,1.805,1.234,2.762,1.895c0.104,0.662,0.211,1.354,0.32,2.045
	c1.873,2.25,0.705,2.887,0.059,3.715c-0.41,0.51-1.326,0.588-0.297,2.111c0.838,1.25,1.086,0.445,1.453-0.18
	c0.15-0.273,0.799-0.066,1.199,0.209c0.879,0.592,1.732,1.508,2.598,2.039c5.354,3.281,10.711,6.66,16.068,9.662
	c2.006,1.129,4,1.236,6.016,1.953c0.787,0.283,1.842,0.656,2.375,1.482c3.367,5.227,7.303,7.477,11.156,10.166
	c0.166,0.115,0.342,0.193,0.506,0.307c2.412,1.684,3.104,1.158,3.014-2.256c-0.01-0.441,0.031-0.857,0.082-1.258
	c0.016-0.082,0.176-0.066,0.262-0.092c0.104,0.092,0.291,0.221,0.305,0.275c0.266,4.596,3.156,6.457,5.379,9.021
	c0.4,0.463,0.814,0.887,1.221,1.352c0.303,0.35,0.697,1.062,0.877,1.041c2.699-0.357,5.143,4.713,7.801,5.141
	c0.197,0.029,0.463,0.4,0.672,1.133c-1.961-1.133-3.922-2.211-5.895-3.418c-2.229-1.367-4.451-2.803-6.674-4.264
	c-2.447-1.609-4.891-3.33-7.33-4.895c-0.996-0.641-1.996-0.889-2.994-1.494c-6.02-3.596-12.047-7.197-18.066-10.881
	c-7.473-4.566-14.943-9.17-22.412-13.846c-3.672-2.303-7.34-4.791-11.012-7.197l0.006,0.008c-1.6-0.781-3.189-1.473-4.779-2.381
	c-1.279-0.723-2.549-1.785-3.82-2.564c-8.98-5.498-17.955-10.964-26.93-16.443c-0.596-0.366-1.203-0.691-1.799-0.724
	c4.555,2.821,9.109,5.64,13.664,8.466c7.135,4.419,14.299,8.435,21.367,13.5c2.352,1.686,4.75,3.822,7.176,5.277
	c5.732,3.451,11.469,6.855,17.197,10.295c3.613,2.166,7.23,4.371,10.83,6.568c3.576,2.178,7.148,4.369,10.725,6.553
	c0.207,0.283,0.395,0.684,0.604,0.807c2.936,1.754,5.871,3.473,8.809,5.201c1.654,0.959,3.307,1.934,4.949,2.893
	c0.629,0.549,1.262,1.164,1.898,1.623c0.484,0.355,0.996,0.582,1.471,0.758c0.471,0.166,0.92,0.053,1.377,0.324
	c5.738,3.396,11.486,6.803,17.223,10.303c7.135,4.365,14.279,8.828,21.414,13.249c0,0.227-0.01,0.449-0.014,0.676
	c-5.389-3.353-10.781-6.7-16.164-10.05c0.244,1.236,0.496,2.463,0.744,3.695c0.184,0.127,0.367,0.25,0.555,0.383
	c1.049,1.008,2.104,2.023,3.15,3.031c1.158,1.239,2.316,2.476,3.482,3.72c1.598,0.9,3.195,1.795,4.793,2.691
	c0.25,0.15,0.492,0.283,0.742,0.432c2.01,1.031,4.033,2.074,6.053,3.109C199.475,203.335,198.359,197.949,198.359,197.892z
	 M192.064,65.712c0.043,0,0.105,0.083,0.158,0.125c-0.033,0.054-0.045,0.15-0.082,0.15c-0.041,0.008-0.117-0.075-0.172-0.125
	C192.012,65.812,192.031,65.721,192.064,65.712z M46.93,62.392c0.133-0.166,0.27-0.269,0.412-0.339
	c-0.042,0.092-0.081,0.166-0.126,0.267C47.175,62.415,47.056,62.407,46.93,62.392z M147.342,151.653
	c-0.037,0.355-1.182,0.037-1.834-0.309c-1.992-1.061-3.98-2.271-5.971-3.43c-0.562-0.258-1.113-0.432-1.652-0.773
	c-7.133-4.463-14.258-8.959-21.387-13.412c-6.014-3.764-12.029-7.492-18.043-11.213c-0.943-0.583-1.744-1.132-1.391-2.645
	c-0.234-0.776-0.559-1.577-0.684-2.33c-0.486-2.794-0.936-5.585-1.336-8.356c-0.412-2.863-0.754-5.711-1.129-8.567
	c0.35-0.238,0.697-0.493,1.041-0.739c0.02-0.312,0.047-0.625,0.066-0.934c-0.324-1.938-0.758-3.921-0.957-5.814
	c-0.254-2.511-0.332-4.949-0.479-7.413c-0.271-0.599-0.543-1.19-0.82-1.79c0.379,0.009,0.764-0.19,1.129,0.038
	c6.016,3.767,12.031,7.68,18.049,11.384c4.449,2.737,8.584,6.262,12.043,12.345c1.994,3.487,4.098,6.863,6.148,10.293
	c2.41,3.996,4.871,7.938,7.182,12.014c0.809,1.414,1.242,3.164,1.85,4.762c0.525,1.998,1.236,7.47,2.086,8.036
	c1.564,1.045,3.738,1.886,5.057,4.241c0.168,0.305,0.508,0.451,0.783,0.666c0,0,0,0,0,0.006
	C147.201,149.047,147.473,150.504,147.342,151.653z"/>
<path fill="#CE6E6D" d="M160.098,86.185c2.583-1.666,9.565-6.302,11.75-7.625c3.668-2.204,4.295-3.004,8-5.125
	c3.77-2.144,3.496-2.656,7.318-4.683c0.232-0.12,0.439-0.278,0.582-0.583c-1.523,0.703-3.08,1.34-4.551,2.123
	c-4.9,2.612-9.762,5.278-14.637,7.926c-1.91,1.031-3.844,1.973-5.682,3.105c-1.797,1.098-3.463,2.412-5.211,3.596
	c-2.023,1.374-28.414,16.657-30.445,18.016c0.309,0.133-1.795,2.867-1.5,3C127.422,104.687,158.336,87.321,160.098,86.185z"/>
<path fill="#625F61" d="M154.86,112.337c-0.075-0.598-1.366-1.983-0.106-2.599c0.644,0.244,4.137,0.684,4.534,1.28
	c0.986-0.559-2.083-1.069-1.119-1.627c7.004-0.373,13.117-11.686,22.892-15.558c4.685-1.856,1.847-2.209,5.99-5.103
	c-0.046-0.853-0.912-0.558-1.045-1.29c4.649-1.817,8.122-5.243,11.292-5.195c-0.293-1.133,0.466-1.488,1.415-1.98
	c0.092-3.025-2.772-6.169-4.413-8.166c-8.79,4.703-26.814,16.391-35.99,22.152c-1.164,0.208-2.437,0.568-3.92,1.365
	c-7.654,4.109-13.157,8.185-18.656,11.688C141.931,107.135,151.418,109.037,154.86,112.337z"/>
<path d="M137.87,146.768c-0.861-0.666-4.661-3.418-4.661-3.418c-0.682-0.941-1.376-1.852-2.019-2.85
	c-0.104-0.168,0.078-0.684,0.121-1.041c0.773-0.998,1.549-1.99,2.32-2.984c-0.043-0.33-0.084-0.656-0.128-0.985
	c0.044,0.328,0.085,0.655,0.128,0.983c0.408,0.615,0.807,1.221,1.215,1.836c0.125-0.439,0.248-0.873,0.381-1.309
	c-0.154-0.355-0.301-0.721-0.446-1.088c1.892,0.617,2.649,0.58,0.325-3.779c0.714,0.913,1.408,1.865,2.117,2.803
	c-0.607-1.598-1.041-3.346-1.85-4.758c-2.312-4.072-6.945-11.899-9.355-15.895c-0.119-0.075-2.443-3.885-3.926-6.479
	c-3.459-6.085-7.641-9.539-12.09-12.28c-5.627-3.455-11.248-7.101-16.87-10.638c-0.394-0.248-0.787-0.495-1.181-0.742
	c-0.367-0.23-0.75-0.034-1.129-0.038c0.203,0.441,0.404,0.878,0.604,1.314c-0.199,1.045-0.344,2.906-0.604,3.087
	c0.377,2.855,1.869,17.994,2.281,20.863c0.398,2.769,0.848,5.558,1.334,8.351c0.125,0.758,0.451,1.557,0.684,2.331
	c-0.354,1.507,0.449,2.066,1.391,2.648c6.016,3.713,12.029,7.451,18.043,11.215c7.131,4.453,14.258,8.949,21.387,13.408
	c0.541,0.338,1.092,0.52,1.652,0.777c-0.25-0.271-0.496-0.529-0.965-1.031C137.13,146.952,137.44,146.872,137.87,146.768z"/>
<path fill="#625F61" d="M106.698,97.226c-2.377-1.332-10.922-7.002-10.922-7.002s1.844,3.57-0.464,2.695
	c-2.309-0.873-0.765,1.765-0.661,3.287c0.104,1.523,2.862,1.867,1.804,2.354c-1.057,0.487-3.838,6.125-2.204,6.802
	c1.634,0.676,4.593-6.77,6.935-5.169c2.341,1.604,3.173-1.083,5.256,1.814c2.081,2.899,9.534,10.026,12.438,10.119
	c2.902,0.093-1.718-8.501-1.429-7.1c0.289,1.4,1.464-0.743-3.507-1.9C108.973,101.972,114.879,101.808,106.698,97.226z"/>
<path fill="#625F61" d="M54.712,68.924c1.062,0,14.021,7.82,16.5,10.167c2.478,2.345,12.111,2.841,12.667,7.5
	c2.167,18.167-5.5-1.833-5.5-1.833s-10.849-4.791-12.167-6c-8-7.334-11.333-3.334-11.333-3.334L54.712,68.924z"/>
<path fill="#625F61" d="M30.379,60.173c1.565-3.13,11.25,3.5,11.75,5.5s3,5.25,0.25,4.75s-0.25-4.25-3.25-5.25
	S29.129,62.673,30.379,60.173z"/>
<path fill="#BF3C28" d="M205.422,218.184c0.024-0.535-0.02-1.056,0.084-1.603c0.072-0.349,0.364-0.918,0.572-1.065
	c0.895-0.641,1.798-1.172,2.701-1.716c2.53-1.539,5.06-3.04,7.579-4.61c0.667-0.411,1-0.337,1.008,0.602
	c0.005,0.552,0.101,1.031,0.101,1.578c0.009,1.086-0.346,1.686-1.147,2.016c-0.473,0.196-0.957,0.427-1.443,0.726
	c-2.747,1.721-5.502,3.388-8.242,5.247C205.304,220.255,205.459,219.922,205.422,218.184z"/>
</svg>
