<?xml version="1.0" encoding="utf-8"?>
<!-- Generator: Adobe Illustrator 16.0.4, SVG Export Plug-In . SVG Version: 6.00 Build 0)  -->
<!DOCTYPE svg PUBLIC "-//W3C//DTD SVG 1.1//EN" "http://www.w3.org/Graphics/SVG/1.1/DTD/svg11.dtd">
<svg version="1.1" id="Layer_1" xmlns="http://www.w3.org/2000/svg" xmlns:xlink="http://www.w3.org/1999/xlink" x="0px" y="0px"
	 width="708.66px" height="850.39px" viewBox="0 0 708.66 850.39" enable-background="new 0 0 708.66 850.39" xml:space="preserve">
<g id="Campervan">
	<path id="Shadow" opacity="0.66" fill="#242320" d="M-30.888-63.189c-14.926,7.071-23.151,10.161-24.244,12.551
		s28.253,17.132,34.853,20.756S25.438-4.014,39.104-4c25.813,0.026,41.688-4.25,41.999-16.562
		C81.246-26.254,9.636-53.842-2.5-59.889S-19.648-68.514-30.888-63.189z"/>
	<g id="Wheel_6_">
		<path fill="#170F0E" d="M-24.967-63.286c-4.066-7.198-10.44-11.295-14.232-9.151c-0.02,0.011-0.037,0.023-0.055,0.034
			l-5.378,2.175c-0.138,0.048-0.273,0.103-0.404,0.164l-0.257,0.104l0.018,0.018c-1.742,0.951-2.815,3.119-2.815,6.312
			c0,6.56,4.52,14.949,10.097,18.737c2.559,1.737,4.894,2.202,6.672,1.564l-0.003,0.059l5.992-2.739
			c0.298-0.09,0.585-0.209,0.857-0.362C-20.68-48.516-20.9-56.089-24.967-63.286z"/>
		<g>
			<g>
				<path fill="#5E5D59" d="M-33.673-53.838c0,2.808-1.935,3.77-4.321,2.149c-2.386-1.622-4.321-5.212-4.321-8.021
					s1.936-3.77,4.321-2.149C-35.607-60.236-33.673-56.646-33.673-53.838z"/>
				<path fill="#F3F3F4" d="M-37.76-58.997c0.101,0.934-0.051,1.398-0.317,1.65c-1.228-0.602-1.306-0.579-2.22-1.881
					c-0.282-0.855-0.885-1.55-0.634-2.67c0.105,0.072,0.211,0.144,0.317,0.215C-39.578-60.637-37.591-61.201-37.76-58.997z"/>
				<path fill="#80807B" d="M-40.655-58.725c0.667,0.882,1.236,0.613,1.903,2.039c0.611-0.34,1.276-0.001,2.219,1.135
					c1.075,0.5,2.45,1.56,2.221-0.358c0.688,0.405,0.144,1.421,0.317,2.082c-1.568-0.435-6.539,0.509-5.709-2.386
					c-1.057-0.137-2.264-1.65-2.537-3.216C-41.424-58.974-39.881-56.782-40.655-58.725z"/>
				<path fill="#CFCECC" d="M-40.655-61.709c0.582-0.412,1.869,0.484,3.171,1.408c0,0.497,0,0.996,0,1.494
					c-0.105-0.072-0.211-0.144-0.317-0.216C-37.63-61.228-39.617-60.663-40.655-61.709z"/>
				<path fill="#2A2C27" d="M-37.483-58.435c0.407-0.986,2.012,1.647,3.171,2.527c0.229,1.917-1.146,0.858-2.22,0.357
					c-0.014-0.523,0.149-0.718,0.317-0.904C-36.759-57.468-37.462-56.753-37.483-58.435z"/>
				<path fill="#B1AFAB" d="M-40.258-59.201c0.914,1.303,0.992,1.279,2.22,1.881c0.266-0.251,0.417-0.716,0.317-1.649
					c0.106,0.072,0.211,0.143,0.317,0.215c0,0.124,0,0.248,0,0.373c0.021,1.683,0.725,0.969,1.268,1.981
					c-0.167,0.186-0.331,0.382-0.317,0.905c-0.944-1.136-1.608-1.477-2.22-1.136c-0.667-1.425-1.236-1.157-1.903-2.038
					C-40.577-59.045-40.319-58.939-40.258-59.201z"/>
			</g>
			<path fill="#B1AFAB" d="M-37.974-64.589c-3.679-2.498-6.661-1.015-6.661,3.312c0,4.329,2.982,9.863,6.661,12.361
				c3.679,2.499,6.66,1.017,6.66-3.312S-34.295-62.09-37.974-64.589z M-37.974-51.684c-2.379-1.616-4.308-5.195-4.308-7.994
				c0-2.8,1.929-3.759,4.308-2.142c2.38,1.615,4.308,5.194,4.308,7.994C-33.666-51.027-35.594-50.068-37.974-51.684z"/>
			<path fill="#979B9D" d="M-39.501-65.427c1.04,0.707,2.081,1.413,3.121,2.12c3.307,2.993,0.575,2.553-0.312,2.015
				c-1.995-3.88-7.16-3.577-5.305-0.262c-0.801,0.402-0.018,2.885,0,2.97c-0.983-0.488-0.235-1.86-0.937-2.492
				c-0.698-0.313-0.126,1.744-0.312,2.387c-0.59-1.308-0.67-2.875-0.624-4.508c-0.34-0.139-0.211,0.594-0.625,0.319
				C-44.094-66.091-42.43-66.941-39.501-65.427z"/>
			<path fill="#CFCECC" d="M-44.521-62.806c0.415,0.279,0.287-0.459,0.627-0.32c-0.046,1.641,0.035,3.218,0.628,4.531
				c0.187-0.646-0.388-2.714,0.315-2.399c0.707,0.635-0.048,2.015,0.942,2.506c0,0.249,0,0.498,0,0.746
				c1.589,6.065,8.874,10.897,9.732,5.865c0.889,0.666-0.26-2.477,0.628-1.812c0,1.243,0,2.488,0,3.731
				c-0.583,2.269-2.257,2.501-4.396,1.865c-0.105-0.07-0.209-0.142-0.314-0.212c1.979-0.628-3.654-2.182-4.395-4.479
				c-0.456-0.145,0.031,0.349,0,0.746C-43.378-54.929-44.953-58.356-44.521-62.806z"/>
			<path fill="#80807B" d="M-45.33-66.229c2.383-3.738,7.091-0.792,8.582,0.824c4.573,4.164,0.201,0.926-0.24,0.602
				c-3.888-3.215-6.448-1.964-8.021-0.442C-44.956-65.654-45.08-65.975-45.33-66.229z"/>
			<path fill="#979B9D" d="M-45.33-57.421c-1.451-2.833-1.144-7.641,0-8.808c0.25,0.254,0.374,0.575,0.321,0.984
				c-0.522,2.206-0.787,4.297,0,7.275C-44.956-57.488-45.08-57.335-45.33-57.421z"/>
			<path fill="#B1AFAB" d="M-45.009-57.969c1.081,2.89,2.468,5.622,4.81,7.861c-0.059,0.286,0.125,0.448,0.32,0.602
				c-0.051,0.414-0.583-0.074-0.961-0.27c-2.288-2.141-3.702-4.732-4.49-7.645C-45.08-57.335-44.956-57.488-45.009-57.969z"/>
			<path fill="#979B9D" d="M-36.672-47.328c3.123,1.511,5.012,0.71,5.771-2.207c0.213,0.146,0.428,0.291,0.641,0.436
				c-0.404,5.501-5.893,4.228-10.581-0.678c0.377,0.196,0.91,0.684,0.961,0.27C-38.809-48.78-37.74-48.054-36.672-47.328z"/>
			<path fill="#80807B" d="M-30.9-49.535c0.194-0.785,0.461-1.434,0.321-2.846c0.05-0.416-0.055-1.125,0.321-0.931
				c0.309,1.219,0.62,3.702,0,4.212C-30.473-49.244-30.687-49.389-30.9-49.535z"/>
			<path fill="#979B9D" d="M-31.403-56.574c-1.469-3.934-2.539-4.788-3.991-7.103c-0.088-0.292,0.892,0.091-2.715-2.886
				c3.607,2.203,8.236,8.897,8.236,15.575c-0.202-0.522-0.401-2.522-0.681-2.139C-30.755-54.913-31.181-55.665-31.403-56.574z"/>
		</g>
	</g>
	<g id="Wheel_5_">
		<path fill="#170F0E" d="M30.465-30.503c-4.067-7.198-10.44-11.296-14.234-9.152c-0.018,0.01-0.035,0.023-0.053,0.034l-5.379,2.175
			c-0.137,0.048-0.273,0.102-0.404,0.163l-0.257,0.104l0.019,0.018c-1.742,0.951-2.815,3.119-2.815,6.313
			c0,6.56,4.521,14.949,10.097,18.736c2.559,1.738,4.894,2.203,6.674,1.564l-0.004,0.059l5.992-2.738
			c0.298-0.09,0.585-0.209,0.857-0.363C34.752-15.733,34.532-23.307,30.465-30.503z"/>
		<g>
			<g>
				<path fill="#5E5D59" d="M21.758-21.056c0,2.808-1.934,3.77-4.32,2.149c-2.387-1.622-4.322-5.211-4.322-8.021
					c0-2.808,1.935-3.77,4.322-2.148C19.825-27.454,21.758-23.865,21.758-21.056z"/>
				<path fill="#F3F3F4" d="M17.671-26.214c0.101,0.933-0.052,1.398-0.317,1.649c-1.228-0.602-1.307-0.579-2.221-1.881
					c-0.281-0.855-0.885-1.55-0.635-2.67c0.106,0.073,0.212,0.145,0.317,0.215C15.854-27.854,17.84-28.418,17.671-26.214z"/>
				<path fill="#80807B" d="M14.777-25.943c0.667,0.882,1.236,0.614,1.903,2.04c0.61-0.34,1.275,0,2.219,1.134
					c1.074,0.501,2.449,1.561,2.221-0.357c0.688,0.405,0.144,1.421,0.317,2.082c-1.567-0.436-6.539,0.508-5.709-2.386
					c-1.058-0.137-2.265-1.651-2.537-3.217C14.007-26.192,15.55-24,14.777-25.943z"/>
				<path fill="#CFCECC" d="M14.777-28.928c0.582-0.412,1.869,0.484,3.171,1.408c0,0.497,0,0.995,0,1.493
					c-0.105-0.072-0.211-0.144-0.316-0.216C17.801-28.446,15.814-27.882,14.777-28.928z"/>
				<path fill="#2A2C27" d="M17.949-25.653c0.406-0.985,2.013,1.648,3.171,2.527c0.229,1.918-1.146,0.858-2.22,0.358
					c-0.015-0.523,0.149-0.718,0.317-0.904C18.673-24.685,17.97-23.971,17.949-25.653z"/>
				<path fill="#B1AFAB" d="M15.172-26.419c0.915,1.303,0.993,1.278,2.221,1.881c0.268-0.251,0.418-0.716,0.317-1.65
					c0.106,0.073,0.212,0.143,0.317,0.215c0,0.124,0,0.248,0,0.373c0.021,1.683,0.725,0.969,1.269,1.981
					c-0.167,0.186-0.331,0.381-0.317,0.904c-0.943-1.135-1.608-1.476-2.219-1.135c-0.668-1.426-1.238-1.157-1.904-2.039
					C14.855-26.264,15.113-26.157,15.172-26.419z"/>
			</g>
			<path fill="#B1AFAB" d="M17.458-31.807c-3.678-2.498-6.66-1.016-6.66,3.312c0,4.328,2.982,9.862,6.66,12.362
				c3.68,2.498,6.66,1.015,6.66-3.313S21.136-29.308,17.458-31.807z M17.458-18.901c-2.379-1.616-4.307-5.195-4.307-7.995
				c0-2.799,1.928-3.759,4.307-2.142c2.38,1.616,4.309,5.195,4.309,7.994C21.766-18.244,19.837-17.286,17.458-18.901z"/>
			<path fill="#979B9D" d="M15.93-32.645c1.04,0.707,2.081,1.413,3.121,2.12c3.307,2.994,0.574,2.553-0.312,2.016
				c-1.995-3.88-7.16-3.577-5.306-0.262c-0.801,0.401-0.017,2.885,0,2.969c-0.983-0.487-0.233-1.86-0.936-2.491
				c-0.698-0.314-0.126,1.744-0.312,2.386c-0.59-1.307-0.671-2.875-0.624-4.508c-0.34-0.138-0.212,0.595-0.624,0.319
				C11.338-33.308,13.001-34.158,15.93-32.645z"/>
			<path fill="#CFCECC" d="M10.91-30.023c0.415,0.278,0.287-0.459,0.628-0.32c-0.046,1.642,0.034,3.217,0.628,4.532
				c0.187-0.646-0.388-2.714,0.314-2.398c0.707,0.634-0.047,2.014,0.942,2.505c0,0.249,0,0.499,0,0.747
				c1.59,6.065,8.875,10.897,9.732,5.865c0.89,0.665-0.26-2.477,0.629-1.812c0,1.244,0,2.488,0,3.732
				c-0.584,2.268-2.257,2.501-4.396,1.864c-0.105-0.071-0.21-0.142-0.314-0.212c1.979-0.628-3.654-2.183-4.396-4.479
				c-0.455-0.145,0.032,0.349,0,0.746C12.054-22.147,10.479-25.574,10.91-30.023z"/>
			<path fill="#80807B" d="M10.102-33.446c2.384-3.739,7.091-0.792,8.582,0.823c4.574,4.164,0.201,0.926-0.24,0.602
				c-3.887-3.214-6.447-1.963-8.021-0.441C10.475-32.872,10.353-33.193,10.102-33.446z"/>
			<path fill="#979B9D" d="M10.102-24.639c-1.451-2.833-1.145-7.639,0-8.807c0.25,0.253,0.374,0.574,0.321,0.983
				c-0.522,2.206-0.787,4.297,0,7.275C10.475-24.706,10.353-24.554,10.102-24.639z"/>
			<path fill="#B1AFAB" d="M10.423-25.187c1.081,2.89,2.468,5.622,4.81,7.862c-0.06,0.285,0.125,0.447,0.32,0.601
				c-0.052,0.414-0.584-0.075-0.962-0.271c-2.288-2.141-3.702-4.731-4.49-7.645C10.353-24.554,10.475-24.706,10.423-25.187z"/>
			<path fill="#979B9D" d="M18.76-14.546c3.123,1.511,5.012,0.709,5.771-2.207c0.213,0.146,0.428,0.291,0.641,0.436
				c-0.404,5.502-5.893,4.228-10.58-0.678c0.377,0.196,0.909,0.685,0.961,0.271C16.623-15.998,17.69-15.272,18.76-14.546z"/>
			<path fill="#80807B" d="M24.532-16.752c0.193-0.785,0.461-1.434,0.32-2.846c0.05-0.416-0.055-1.125,0.32-0.93
				c0.309,1.218,0.621,3.702,0,4.213C24.959-16.462,24.745-16.606,24.532-16.752z"/>
			<path fill="#979B9D" d="M24.028-23.791c-1.469-3.935-2.538-4.789-3.99-7.104c-0.088-0.292,0.891,0.091-2.715-2.885
				c3.606,2.203,8.236,8.897,8.236,15.575c-0.203-0.522-0.402-2.521-0.682-2.139C24.676-22.13,24.25-22.884,24.028-23.791z"/>
		</g>
	</g>
	<path fill="#CE6E6D" d="M-54.59-94.736c0,0-0.882,22.059-0.22,24.264c0.662,2.206,7.5,6.838,7.5,6.838s-1.544-2.647,3.97-2.647
		c5.515,0,8.32,6.616,12.822,11.118C-29.58-54.224,8.493-33.78,8.493-33.78s0.783-8.75,9.988-2.317
		c9.205,6.432,9.205,13.05,9.205,13.05L36.29-20.4l-6.711-3.299c0,0-1.01-9.605-3.656-13.024
		c-2.754-3.558,0.661-11.471-6.177-16.544S-54.59-94.736-54.59-94.736z"/>
	<path fill="#951D1F" d="M81.838-44.774c0.111-12.353-0.768-15.955-1.213-15.771C78.048-55.36,67.17-36.833,66.178-26.025
		c-2.555-4.551-6.781-6.754-10.522-10.292C47.985-42.15,37.159-45.75,26.844-49.47c2.492,8,6.383,17.054,6.67,25.484
		c12.674,4.959,16.34,4.689,33.436,1.821c10.146-3.64,15.061-9.69,14.999-11.249C81.403-34.682,81.95-40.142,81.838-44.774z"/>
	<path fill="#B53E3A" d="M46.721-35.49c-1.586-2.314-5.5-1.737-6.732,0.561c-1.104-0.168-1.113,0.759-1.684,1.123
		c-6.682-6.516,12.689-8.897,9.539-0.561C47.102-34.373,47.331-35.351,46.721-35.49z"/>
	<path fill="#80807B" d="M47.844-34.367c-0.742-0.006-0.514-0.984-1.123-1.123c-1.586-2.314-5.5-1.737-6.732,0.561
		c-1.104-0.168-1.113,0.759-1.684,1.123c0.18,1.301-0.09,2.155-0.561,2.805c0,0.188,0,0.375,0,0.561
		c0.711,3,5.859,4.414,8.416,2.245C48.129-29.391,48.327-32.134,47.844-34.367z"/>
	<path fill="#CFCECC" d="M45.866-35.45c-0.524,0.885,2.729,1.054,1.074,2.747c0.432,7.645-11.685,5.161-6.578,0.703
		c-0.14,0.658-0.441,1.234-0.904,1.729c0.352,2.965,4.814,1.632,4.092,0.42c-0.012-0.072,1.09-0.942,1.086-0.938
		c-1.426,0-0.826-0.021-0.604-1.092c0.802-0.361,1.039-0.148,0.711,0.641c0.408-0.387,0.604-0.863,0.586-1.428
		c-0.109,0.204-0.268,0.354-0.478,0.451c0.144-0.398-0.007-0.461-0.448-0.189c-0.137-0.407,2.104-0.871,2.195-0.937
		c-0.254,0.262-0.52,0.512-0.795,0.751c0.562-0.769,0.906-0.831,1.03-0.187c0.77-0.441-0.938-2.039-1.816-1.695
		c-0.327,0.591,1.188,0.24,0.923,0.264c-0.213-0.682-4.243,2.742-5.109,3.864c-0.178-0.383-0.443-0.309-0.793,0.225
		c0.249-1.921,3.016-4.205,4.426-4.618c-1.125-0.015-2.147,0.31-3.068,0.972c-0.777,0.805,3.906-2.881,3.73-1.685
		c-0.852-0.045-1.055,0.293-0.61,1.015C45.41-34.946,45.792-35.146,45.866-35.45C45.669-35.119,45.893-35.564,45.866-35.45z"/>
	<path fill="#B53E3A" d="M79.999-43.501c-1.189-1.676-4.126,0.255-5.049,2.906c-0.828,0.225-0.836,1.122-1.263,1.673
		c-5.013-3.939,9.516-13.038,7.153-3.889C80.284-42.559,80.456-43.581,79.999-43.501z"/>
	<path fill="#80807B" d="M81.127-44.811c-0.564,0.28-0.391-0.848-0.854-0.76c-1.206-1.848-5.005,0.213-5.941,3.135
		c-0.839,0.249-0.907,1.156-1.341,1.765c0.137,1.314,0.81,2.475,0.451,3.35c0,0.2,0,0.397,0,0.597
		c0.541,2.916,4.458,2.426,6.404-0.871C81.344-39.628,81.495-42.623,81.127-44.811z"/>
	<path fill="#CFCECC" d="M75.861-38.992c0.479-0.31,0.464,0.159,0.763,0.133c0.02,0.834-0.99,1.233-1.144,1.995
		c0.161-0.128,0.179-0.029,0.19,0.08c0.057-0.611,1.211-0.759,0.953-1.504c0.663-0.205-0.176,0.868,0.954,0.021
		c0,0.318,0,0.636,0,0.954c0.492-0.301,0.2-0.932,0.954-1.123c-0.054,0.528-0.064,0.992,0.571,0.432
		c-0.004-0.183-0.233-0.013-0.38,0.03c0.803-0.628-0.356-0.901,0.763-1.396c-0.142-0.347-1.069,0.544-1.526,0.692
		c0.021-0.501,0.639-0.748,1.145-1.043c0.031-0.623-0.506-0.345-0.381-1.116c0.354-0.895,1.183-0.597,1.336-1.344
		c0.444,0.317,0.875,0.655,0.762,1.85c-0.766,0.418-0.883,2.125-1.335,1.534c-0.181,1.751-2.767,3.894-3.434,2.556
		c-0.325,0.117-0.36,0.356-0.38,0.602c-0.381,0.216-0.244-0.381-0.765,0.06c0-0.572,0-1.146,0-1.718
		c0.384-0.286,0.598-0.307,0.573,0.05C76.024-37.993,75.592-38.047,75.861-38.992z"/>
	<path fill="#CFCECC" d="M76.211-42.197c0.157-0.371,1.906-1.193,2.617-0.275c0.054,0.33-0.627-0.077-0.413,0.413
		c-0.626-0.171,0.237-0.4-0.139-0.689c-0.578,0.142-0.958,0.556-1.376,0.414c-0.348,0.39-0.354,0.695-0.139,1.102
		c-0.389,0.113-0.355-0.194-0.688-0.138c-0.224,0.135-0.318,0.367-0.138,0.551c0.233,0.051,0.259-0.107,0.274-0.276
		c0.117-0.025,0.131,0.055,0.138,0.138c0.093,0,0.184,0,0.275,0c-0.177,0.432-0.284,0.07-0.688,0.275
		c-0.051,0.233,0.107,0.261,0.275,0.275c0.025,0.117-0.053,0.13-0.137,0.138c0,0.092,0,0.184,0,0.275
		c-0.282-0.27-0.412-0.691-0.414-1.24c-0.064,0.48-0.549,0.325-0.689,0.414c-0.395-0.333-0.247-0.995-0.137-1.515
		c0.498-0.211,0.394-0.309,0.964-0.552c0.114,0.39-0.193,0.357-0.138,0.689c0.469-0.403,0.678-1.066,1.516-1.102
		C77.142-43.188,76.377-42.632,76.211-42.197z"/>
	<path fill="#E9EAE0" d="M0.48-125.638c-4.545-2.178-11.69-5.956-22.499-0.441c-10.808,5.515-24.484,11.69-25.587,14.117
		c-1.103,2.426-8.682,17.999-7.359,19.102c1.324,1.103,53.308,32.058,81.516,43.81c2.471,1.03,8.436,3.81,10.987,3.042
		c3.306-0.996,44.293-13.481,43.233-15.662c-1.06-2.18-2.205-3.75-2.426-4.853s-0.432-1.946-1.162-3.307
		c-0.873-1.627-2.064-3.118-2.5-4.764c-1.748-6.591-4.105-8.641-5.603-10.017C60.92-92.109,11.069-120.564,0.48-125.638z"/>
	<path fill="#BCBAAF" d="M78.861-65.619c1.033-1.561,2.427,3.529,1.323,6.176c-1.103,2.647-14.559,28.676-14.006,33.418
		c0.551,4.743-5.846-14.448-30.33-19.742c-6.902-1.493,13.014-3.088,5.293-3.309c-7.72-0.221-3.529-2.647,0.441-2.868
		s7.235,4.765,19.853-1.544C64.083-54.811,68.935-50.62,78.861-65.619z"/>
	<path fill="#BCBAAF" d="M-12.744-89.288c-14.408-10.093-25.133-9.727-33.905-21.247c8.403,3.797,15.31,7.9,23.049,11.833
		c17.807,8.34,31.361,17.552,48.672,25.993c0.6,0.257,1.157,0.524,0.782,0.981C9.78-78.52-0.107-86.579-16.438-93.319
		c5.649,4.485,14.928,9.02,21.195,11.602"/>
	<path fill="#DEDDD5" d="M63.987-58.359c4.838-0.112,11.318-7.236,12.601-4.256c1.073-5.499,1.208,1.708,0.827,1.011
		c-12.322,7.796-26.894,8.896-41.818,14.151c-0.424-4.085,0.736-3.462,3.055-4.13c6.71-0.973,12.197-3.439,18.966-4.34
		C58.874-56.435,61.86-56.761,63.987-58.359z"/>
	<path fill="#CAC8B9" d="M79.952-62.928c-12.1,7.656-26.369,8.856-41.012,13.874l-0.583,0.985c0.626,0.126,1.171,0.337,1.571,0.7
		c-0.075-2.976,3.109-1.965,4.85-2.722c-0.169,0.843-0.568,1.402-0.975,1.956c3.119-0.567,5.649,1.421,7.198-1.425
		c0.179,1.063,0.413,2.071,0.267,3.474c-1.68,0.818-1.236-0.583-2.628-0.067c1.737,1.505,2.112,2.843,2.615,4.771
		c0.612-2.36,0.933-3.854,1.534-4.417c1.63-0.14,4.462-1.536,4.148,0.354c0.193,1.812-1.209,1.668-1.668,2.682
		c1.131-0.399,0.91,0.613,1.382,0.902c0.68-1.791,0.195-5.005,2.642-4.636c0.92-2.056,0.049-2.24-0.406-2.858
		c2.334,0.317,6.217-2.385,8.865-4.106c1.674,0.127,1.293,2.401,1.787,3.761c0.615-2.617,8.451-8.977,6.805-8.986
		c1.258-1.084,2.414-2.293,3.469-3.624c-0.475,1.433-0.395,2.286,0.547,2.242C79.979-60.767,80.333-62.231,79.952-62.928z"/>
	<path fill="#F6F6F3" d="M67.696-80.231c0.795-3.89-14.371-11.553-26.322-13.22c2.315-4.204,3.842-0.777,7.006-2.424
		c-8.832-5-15.543-10.644-25.931-14.783c-1.165,3.191,3.78,3.146,4.533,5.322c-6.547-0.698-11.682-7.274-18.239-9.946
		c-0.212-0.085-0.426-0.17-0.638-0.256c-3.433-2.935-7.672-5.441-12.495-7.64c-0.212-0.085-0.425-0.171-0.638-0.256
		c-0.814-2.341-5.62-2.569-7.994-4.084c4.352-0.507,9.609,3.613,13.403,5.378c0.464-1.433-1.976-1.331-1.948-2.533
		c28.887,12.562,70.335,39.559,73.192,43.291c-2.777-1.111-0.785,0.391-1.349,0.358C70.262-81.811,68.347-79.784,67.696-80.231z"/>
	<path fill="#D4D4C9" d="M46.397-72.931c-0.316-0.278-1.314-1.014-2.808-2.053c-1.181-0.118-0.581,1.201-1.7,0.651
		c-2.141-0.921,0.143-0.891-0.062-1.86c-0.657-0.445-1.369-0.923-2.131-1.425c-0.926-0.093-1.404,0.504-2.48,0.18
		c-0.176,1.476,2.918,0.664,2.068,2.61c-1.213-0.504-2.426-1.007-3.639-1.51c1.3-0.489,0.764-0.647,0.014-2.329
		c-5.363-2.412-10.376-4.276-14.568-4.877c1.079,1.37,2.727,2.342,4.674,3.106c-1.793,0.57-10.193-3.999-14.567-5.459
		c-0.347-0.144-0.693-0.288-1.04-0.432c-6.07-3.676-10.783-8.299-17.132-11.779c-0.06-1.072,0.645-0.964,0.535-2.113
		c-1.35-0.91-1.874-0.543-1.572,1.1c-1.388-1.155-2.735-2.337-4.673-3.107c0.708-2.213,2.324,0.805,3.641,1.511
		c0.734-2.908-5.939-2.813-4.142-4.637c-2.585,1.594-5.128-1.14-8.321-3.453c-0.419-1.824,0.743-1.204,0.539-2.696
		c-1.177-1.495-3.041-2.51-5.193-3.322c-1.825-0.599,0.923,2.968-0.535,2.113c-3.13-0.901-3.989-3.392-7.273-4.186
		c-2.348,3.231-4.947,7.555-1.556-1.229c1.444-0.177,2.967-0.077,4.547,0.23c-1.606-0.578-3.138-0.942-4.569-1.028
		c-2.076-0.124-12.394,4.14-11.617,6.029c1.907,4.635,5.447,4.202,38.679,22.262c28.52,15.5,33.523,21.707,42.789,20.236
		C43.569-71.869,48.196-71.346,46.397-72.931z"/>
	<path fill="#E9EAE0" d="M25.956-76.306c3.396,0.048,5.878,1.013,8.121,2.215C31.977-72.521,25.611-72.98,25.956-76.306z"/>
	<path fill="#E9EAE0" d="M28.664-18.098c0,1.458,2.308,1.701,2.915,2.066c0.607,0.365,1.215,0.851,8.506,1.094
		c7.29,0.243,20.17-1.336,25.76-2.916c5.588-1.58,16.524-8.384,17.618-10.084c1.094-1.701,1.215-7.291-1.458-7.898
		c0,0-0.545,2.015-0.496,2.864c0.177,3.101-11.58,9.926-14.448,10.808c-3.801,1.169-18.749,2.206-26.854,2.123
		c-7.809-0.079-11.663-2.551-11.663-2.551L28.664-18.098z"/>
	<path fill="#5E5D59" d="M54.542-23.599c1.012,0.037,1.305-0.552,1.6,0.331c0.294,0.882,0.441,3.088,0.441,3.603
		c0,0.515-0.441,3.456-0.368,3.897c0.073,0.441-0.515,1.469-1.028,1.323C54.67-14.592,54.542-23.599,54.542-23.599z"/>
	<path fill="#EAE9E9" d="M54.321-23.488c0.883,0.589,0.57,1.287,0.718,3.198c0.146,1.912,0.146,3.971,0.146,5
		c0,1.03-0.881,1.765-1.764,0.588c-0.883-1.177-0.882-8.033-0.588-8.621C53.126-23.911,54.321-23.488,54.321-23.488z"/>
	<path fill="#5E5D59" d="M46.124-16.76c-2.213,0.17-10.121-0.139-12.013,0.083c2.183,0.366,6.075,0.726,14.898,0.542
		c-7.794,0.735-15.538-0.04-17.527-1.173c-0.542,0.309-0.597-0.126-0.829,0.064c0.076-0.006,0.114,0.076-0.053,0.109
		c-0.408-0.353-0.579-1.169-1.781-1.01c0.232-0.279,0.182-0.344,0.674-0.573c-0.354,0.044-0.354-0.134-0.396-0.283
		c0.389-0.06,0.718-0.19,0.984-0.39c0.043,0.427-0.354,0.224-0.312,0.651c2.554,1.174,6.223,1.812,10.804,1.705
		c-0.003,0,17.983-0.441,10.606,0.018C47.704-16.595,46.458-16.771,46.124-16.76z"/>
	<g>
		<path fill="#B53E3A" d="M26.216-28.047c-0.134-1.562-5.216-7.16-5-8.676C11.804-48.928,9.354-39,8.307-39.662
			c-0.305-5.548,1.307-9.992-1.962-13.29c2.863-1.598,6.769,1.281,8.308,3.153c4.423-1.37-1.196-5.635-6.231-4.73
			c2.28-1.658-1.537-2.932-2.79-4.157C4.574-51.701,4.953-44.76,3.581-36.38c2.271-0.116,4.995,3.67,4.842,1.715
			C9.41-44.293,20.3-39.051,26.216-28.047z"/>
		<g>
			<path fill="#B53E3A" d="M28.26-47.307c0.199,0.012-0.783-0.802-0.799-0.85c0.107-0.385-0.294-0.811-0.592-0.849
				c-2.304-0.667-7.014-3.141-8.779-3.785c-3.54-1.451-15.782-8.608-11.737-4.71c4.825,2.729,13.731,5.812,16.155,8.696
				c-0.094,0.17-0.173,0.378-0.243,0.604c-1.046-0.089-3.266-1.824-4.38-1.861c7.002,4.531,1.014,11.849,6.125,15.691
				c0.256-1.723,0.646-3.083,1.047-4.254c0.187,0.381,0.428,0.727,0.75,1.02c-1.618-0.091,1.249,2.153,2.109,7.42
				c-0.021,0.458-0.043,0.914-0.063,1.372c1.548,0.874,0.69,3.801,1.726,5.114c0.605,0.214,0.973,0.633,0.915,1.413
				c2.923-0.498,5.946,2.463,10.192,2.273c3.967,0.171,5.465,0.13,7.674-0.134c-2.973-0.178-7.851-1.104-14.846-3.84
				C33.245-31.876,30.74-39.699,28.26-47.307z"/>
			<path fill="#B53E3A" d="M48.362-20.145c2.414,0.145,3.576-0.203,3.588-0.476C50.437-20.419,49.331-20.261,48.362-20.145z"/>
		</g>
	</g>
	<path fill="#CAC8B9" d="M0.821-63.949c-6.598-3.731-12.116-7.66-19.706-11.211c4.763-3.646-4.916-6.77-7.362-9.312
		c-4.093-1.728-1.244,3.743-5.708,1.628c6.397-6.48-13.764-18.092-19.866-14.732c-1.816-4.143,4.364-7.2,5.995-10.556
		c0.786,0.249,1.861,1.034,2.145,1.385c7.412,10.458,33.704,19.9,50.635,28.529c-3.464-1.634-3.427,0.875-7.57-1.465
		c-0.388,1.253,9.607,5.375,8.2,6.813c-4.358-2.955-8.333-5.98-16.793-8.19c-2.148-2.136,1.685-1.699-0.16-3.521
		c-2.546-0.403-4.757-0.46-4.533,2.008c-4.132-2.071-5.116-5.625-11.128-5.67c-0.387,1.647,3.527,2.514,6.635,3.527
		c-4.164,1.708,2.057,3.058,4.855,5.035c-2.302,0.409-2.124,3.388-2.998,5.277c1.916,0.03,2.351-1.476,3.361-2.385
		c9.501,2.81,8.72,7.488,15.982,10.704C2.589-64.908,0.941-65.223,0.821-63.949z"/>
	<path fill="#BDC3CD" d="M60.102-72.688c3.715,0.035,6.721-2.639,9.03-1.765c1.265,1.636,0.222,4.167,2.958,4.848
		c-1.054,0.567,1.315,3.011,1.538,4.447c-1.948,2.257-5.636,3.327-9.165,4.505c-0.66-2.079-1.72-4.744-3.984-6.682
		c2.281,0.236,1.938-1.32,1.424-2.991c-2.175-0.352-1.367,1.332-2.325,1.81c-0.212-1.089-0.426-2.178-0.638-3.266
		C59.778-71.797,60.456-71.023,60.102-72.688z"/>
	<path fill="#5E5D59" d="M73.829-29.019c1.01,0.037,1.304-0.551,1.599,0.331c0.294,0.882,0.441,3.088,0.441,3.604
		c0,0.514-0.441,3.455-0.368,3.896c0.074,0.441-0.514,1.471-1.029,1.323C73.957-20.011,73.829-29.019,73.829-29.019z"/>
	<path fill="#EAE9E9" d="M73.608-28.908c0.882,0.589,0.569,1.287,0.717,3.198c0.146,1.912,0.146,3.971,0.146,5
		s-0.883,1.764-1.766,0.588c-0.882-1.176-0.881-8.032-0.587-8.621C72.413-29.33,73.608-28.908,73.608-28.908z"/>
	<path fill="#19181A" d="M72.791-77.715c-0.545-2.375-18.805,5.969-22.886,7.669c0.47-0.209-1.687,1.075-6.258,1.863
		c-0.547-0.022-5.998,0.53-6.645,0.659c-3.566-0.367-3.197,0.741-3.164,3.123c0.438,2.442,0.486,11.505,1.469,13.128
		c0.43-0.084,1.75,0.017,2.18-0.068c7.992-1.153,15.51-4.562,23.611-5.64c0.387-0.113,12.581-3.769,12.354-4.302
		c0.215-0.042,4.859-1.502,5.073-1.543C81.172-66.355,74.587-73.342,72.791-77.715z"/>
	<path fill="none" stroke="#000000" stroke-miterlimit="10" d="M3.086-32.879"/>
	<path fill="none" stroke="#000000" stroke-miterlimit="10" d="M7.351-79.495"/>
	<path fill="#CAC8B9" d="M30.328-64.163c-0.36-1.598-4.006-5.677-6.323-6.108c-2.317-0.43,0.741,0.713,2.354,2.598
		c1.502,1.756,2.336,3.078,2.465,5.352s0.908,9.267,0.908,9.267s-5.477-0.719-9.844-1.993c-1.049-0.305,10.037,5.488,10.919,2.117
		C31.139-54.205,30.424-63.738,30.328-64.163z"/>
	<path fill="#170F0E" d="M10.445-54.14c0.624,0.235,1.248,0.427,1.879,0.717c0.937,0.432,1.875,0.938,2.816,1.415
		c-0.101,0.92-0.637,1.159-1.516,0.783c-1.028-0.44-2.077-0.688-3.079-1.945c-0.064-0.345-0.126-0.688-0.187-1.032
		C10.387-54.163,10.415-54.137,10.445-54.14z"/>
	<path fill="#C3C6CF" d="M10.728-54.817l-0.002,0.046l0.042,0.031c0.897,0.333,1.795,0.667,2.689,1.003
		c0.444,0.196,0.883,0.389,1.352,0.594c0.101,0.279,0.202,0.569,0.308,0.861c0.008,0.091,0.016,0.182,0.023,0.275
		c-0.941-0.477-1.879-0.983-2.815-1.415c-0.63-0.291-1.255-0.482-1.879-0.717C10.536-54.366,10.633-54.594,10.728-54.817z"/>
	<path fill="#5E5D59" d="M42.09-70.768c6.134-1.312,7.326-2.476,13.461-3.789c-1.651,1.853-2.887,1.871-2.328,3.127
		c-6.031,2.071-12.041,3.108-16.195,3.402c2.351-1.531,1.102-1.4-0.353-1.904C38.258-70.358,40.506-70.341,42.09-70.768z"/>
	<path fill="#19181A" d="M7.771-71.789c-0.062,2.599-1.984,9.582-1.118,10.405c0.867,0.824,5.091,3.192,9.209,4.703
		c4.118,1.511,13.475,5.589,13.842,3.073c0.295-2.02-0.236-8.257-0.404-9.331c-0.992-6.343-12.341-11.009-16.102-12.232
		C10.452-76.063,7.915-77.971,7.771-71.789z"/>
	<g>
		<path fill="#AAA999" d="M30.382-68.222c0.028,0.028,0.054,0.065,0.081,0.096c0.05-0.002,0.099-0.006,0.148-0.004
			c-0.131-0.087-0.275-0.166-0.411-0.249C30.265-68.325,30.329-68.271,30.382-68.222z"/>
		<path fill="#AAA999" d="M38.442-69.511c-1.635-0.802-5.432-0.188-5.63-1.932c-2.787-0.046-2.845-1.882-5.632-1.929
			C15.629-76.836-5.564-90.595-17.298-93.94c4.088,3.493,20.421,12.81,24.924,14.088c1.894,0.123,6.414,2.702,6.177,2.494
			c8.09,1.985,12.455,6.046,19.127,8.958c0.481,0.101,0.965,0.202,1.445,0.302c0.191-0.957-1.129-0.925-1.144-1.747
			c2.118,0.442,3.356,0.701,5.06,1.057C38.342-69.029,38.392-69.27,38.442-69.511z"/>
		<path fill="#8F8D83" d="M17.754-73.575c-4.705-1.986-2.705-1.501-9.558-3.971c-0.49,4.987-1.427,10.063-1.888,15.164
			c-0.008-0.009-0.02-0.018-0.027-0.027c-0.109,0.303-0.238,0.648-0.389,1.051c3.156,2.104,9.804,4.989,13.83,6.312
			c-1.846-1.385-9.964-5.588-12.041-6.618c0.662-7.279,0.655-11.035,1.49-14.338c3.093,0.493,1.525,1.104,8.428,3.386
			c-0.054-0.027-0.058-0.031,0.009-0.003c-0.003,0.001-0.006,0.002-0.009,0.003c0.577,0.288,7.501,3.418,7.331,2.767
			c1.694,1.537,1.402,1.072,4.516,4.067C27.608-68.12,28.077-69.321,17.754-73.575z"/>
	</g>
	<path fill="#8F8D83" d="M78.893-64.862c-1.191-5.085-3.191-8.528-4.965-12.312c-0.431-1.761-1.072-2.978-1.829-3.992
		c-3.35,0.533-6.282,3.075-9.351,3.82c-9.006,2.432-14.422,3.895-16.352,4.416c-2.461,0.665-5.59,0.885-8.052,1.55
		c-0.014,0.169-0.028,0.34-0.043,0.511c0.188-0.051-3.229,0.162-5.699,0.829c0.101,0.632-0.021,0.91-0.083,1.726
		c1.528,0.411,3.404,1.244,4.42,1.312c0.352-0.095,0.704-0.19,1.056-0.285c1.406-0.38,3.479-0.315,4.887-0.695
		c5.236-1.09,5.964-1.7,10.824-3.076c0.587-0.824,0.661-2.039,1.757-2.474c0.582-0.051,0.527,0.501,0.722,0.893
		c3.277,1.49,15.425-8.084,16.71-4.831c-0.008,0.091,0.193,0.511,0.379,0.906c0.277,1.697,1.216,4.238,1.51,4.762
		c-0.092-0.391-0.137-0.658-0.082-0.668c0.216,0.749,0.209,0.894,0.082,0.668c0.271,1.149,2.064,3.988,1.903,4.019
		c0.784,2.437,0,2.923-0.882,2.923c-1.054,0.567-3.587,1.046-3.365,2.481c-1.947,2.257-0.937,0.587-4.467,1.765
		c-0.992,1.323-2.756,0.165-4.953,1.858c0.646-0.125-0.709,0.418-0.064,0.292C69.01-58.673,80.106-62.546,78.893-64.862z
		 M53.222-71.43c-6.03,2.071-12.04,3.108-16.194,3.402c2.35-1.531,1.102-1.4-0.354-1.904c1.584-0.427,3.832-0.41,5.415-0.837
		c6.135-1.312,7.326-2.476,13.462-3.789C53.899-72.704,52.665-72.686,53.222-71.43z"/>
	<path fill="#434543" d="M71.983-79.754c-0.028,0.34,0.92,0.466,0.893,0.807c-2.713,0.116-11.004,4.794-15.917,6.009
		C60.544-75.062,69.231-79.957,71.983-79.754z"/>
	<g>
		<path fill="#CAC8B9" d="M62.911-58.316c0.645-0.125,15.172-4.766,15.817-4.892c-1.985,2.316-19.567,6.716-20.9,7.279
			c0.386-0.113-9.485,2.576-9.713,2.044c0.215-0.042,10.839-2.98,11.053-3.022c0.833-0.376-1.106-2.775,2.453-1.157
			c-2.252-6.166-5.915-12.196-7.19-16.229c-0.042-0.217-0.085-0.435-0.127-0.653c0.75-0.003,1.146,0.529,1.545,1.055
			C56.868-70.878,61.1-63.764,62.911-58.316z"/>
		<path fill="#E9EAE0" d="M54.077-70.817c1.258,2.515,4.964,12.462,5.405,12.793c0.44,0.331,2.536,0.551,2.205-0.441
			s-6.728-14.337-6.728-14.337S53.416-72.141,54.077-70.817z"/>
	</g>
	<path fill="#5E5D59" d="M56.724-18.1c0.331,0,7.017-0.307,13.087-3.199c3.475-1.654,1.619-0.146,1.619-0.146
		s-2.022,0.918-7.262,2.407c-5.238,1.49-6.414,1.489-6.414,1.489s2.196,1.01,12.646-3.088c2.813-1.103,1.214-0.221,1.214-0.221
		S63.618-17.327,57-16.556c-0.988,0.116-0.276-0.993-0.276-0.993V-18.1z"/>
	<path fill="#5E5D59" d="M76.108-23.945c0.598,0.22-0.11,0.882-0.11,0.882s6.167-3.897,6.683-4.558
		c0.514-0.662,1.369-1.894,1.369-1.976c0-1.405,0.33-0.386-1.654,1.82c-0.801,0.891-5.736,3.943-5.736,3.943s4.578-3.309,5.24-3.97
		c0.661-0.662,2.059-2.582,2.205-3.171c0.146-0.588-1.684,2.618-3.445,3.943c-3.447,2.592-4.522,2.812-4.522,2.812L76.108-23.945z"
		/>
	<path fill="#B53E3A" d="M-28.53-58.08c-2.314-4.231-8.574-10.52-10.994-11.502c-0.225-0.636-1.185-1.086-3.013-0.629
		c-1.985,0.496-8.309,1.489-9.191-0.717c-0.883-2.205,3.345-2.426,5.992-1.654c3.701,1.08-5.863-6.5-7.166-6.21
		c-0.092,0.563-0.093,0.908-0.15,0.217c-0.01-0.128,0.047-0.195,0.15-0.217c0.142-0.878,0.505-2.29,1.652-1.179
		c7.058,6.838,2.646-1.655,1.323-4.081c-1.275-2.338-4.154-10.992-4.154-7.316c0,3.676-1.029,19.852,0,21.176
		c1.029,1.324,4.412,5.147,5.735,4.412s1.3-3.004,6.691-2.114c0.309,0.051,2.206,0.774,2.206,0.774
		c1.765,0.927,6.948,6.376,8.382,9.39c1.434,3.014,20.293,12.057,24.595,14.144C-2.171-41.5-25.993-53.442-28.53-58.08z"/>
	<path fill="#625F61" d="M39.214-59.333c0.058-0.247-0.034-0.994,0.3-1.036c0.102,0.198,0.76,0.925,0.768,1.222
		c0.27-0.062-0.293-0.75-0.029-0.816c1.479,0.966,4.125-2.498,6.6-2.464c1.186,0.016,0.65-0.573,1.854-1.05
		c0.098-0.341-0.116-0.364-0.053-0.671c1.174,0.025,2.307-0.766,2.949-0.244c0.079-0.491,0.278-0.51,0.533-0.552
		c0.393-1.172,0.196-2.858,0.107-3.902c-2.375,0.449-7.501,2.168-10.088,2.97c-0.264-0.104-0.568-0.165-0.969-0.088
		c-2.071,0.396-3.699,1.12-5.256,1.621C37.217-63.426,38.918-61.173,39.214-59.333z"/>
	<path fill="#625F61" d="M61.026-66.075c1.323-6.177,7.928-7.194,9.188-7.845c-0.305-0.19,0.875-0.472,1.185-0.794
		c-0.048,0.05,0.362-0.125,0.221-0.168c0.16,0.012,0.321,0.003,0.499-0.095c-0.094-0.041-0.608,0.038-0.413-0.085
		c0.372-0.024,0.782,0.099,1.384-0.163c-1.035-0.386-1.531-1.512-3.614-1.333c0.321,0.035-2.385,1.755-2.288,1.853
		c-0.747,0.385-0.697,0.438-1.312,0.828c-0.083-0.131-2.461,0.516-2.408,0.346c-1.255,0.773-4.557,1.866-5.609,2.657
		c0.049,0.49,3.336,0.192,2.397,1.931C60.928-69.091,60.075-65.966,61.026-66.075z"/>
	<path fill="#625F61" d="M18.393-69.483c-1.697-0.778-7.862-3.98-7.862-3.98s1.491,1.773-0.128,1.211
		c-1.621-0.561-0.395,0.762-0.22,1.471c0.175,0.709,2.062,1.057,1.38,1.209c-0.681,0.152-2.173,2.562-1.022,2.986
		c1.15,0.424,2.64-2.807,4.332-1.909c1.691,0.901,2.07-0.282,3.676,1.198c1.606,1.479,7.133,5.278,9.103,5.521
		c1.969,0.243-1.745-4.038-1.452-3.373c0.291,0.666,0.938-0.242-2.502-1.117C20.256-67.139,24.237-66.809,18.393-69.483z"/>
</g>
</svg>
