<?xml version="1.0" encoding="utf-8"?>
<!-- Generator: Adobe Illustrator 26.5.0, SVG Export Plug-In . SVG Version: 6.00 Build 0)  -->
<svg version="1.1" id="Layer_1" xmlns="http://www.w3.org/2000/svg" xmlns:xlink="http://www.w3.org/1999/xlink" x="0px" y="0px"
	 viewBox="0 0 1920 1080" enable-background="new 0 0 1920 1080" xml:space="preserve">
<path fill="#972831" d="M639.46,297.13c-1.07-6.88-4.42-13.02-6.2-19.66c-7.56-19.11-14.87-38.33-22.77-57.3
	c-5.99-14.41-15.43-27.32-21.42-41.44c-7.21-16.98-13.04-34.72-20.1-51.86c-11.34-27.55-23.41-54.81-37.88-80.93
	c-0.37-1.54-0.92-2.95-2.39-3.8c-0.3-0.35-0.61-0.7-0.91-1.04c0.1-1.73-0.74-3-1.95-4.1c-0.8-1.02-1.6-2.03-2.4-3.05l0,0
	c-4.35-7.14-25.63-10.85-25.63-10.85s0,0-0.01,0.01c-5.26-1.51-10.7-2.35-16.18-2.71c-47.97-3.13-107.78-4.48-155.76-4.39v-0.23
	c-47.99-0.09-107.83,1.26-155.81,4.39c-5.48,0.36-10.91,1.2-16.18,2.71c0,0-0.01-0.01-0.01-0.01s-21.28,3.71-25.63,10.85l0,0
	c-0.8,1.02-1.6,2.03-2.4,3.05c-1.21,1.1-2.06,2.37-1.95,4.1c-0.3,0.35-0.61,0.7-0.91,1.04c-1.46,0.85-2.02,2.27-2.39,3.8
	c-14.46,26.12-26.53,53.37-37.88,80.93c-7.06,17.14-12.89,34.89-20.1,51.86c-5.99,14.12-15.43,27.03-21.42,41.44
	c-7.89,18.97-15.21,38.19-22.77,57.3c-1.78,6.64-5.14,12.78-6.2,19.66c-1.42,9.18-1.22,18.42-1.12,27.65c0.02,2.12,0,4.36,2.08,5.78
	c3.97,7.28,6.24,36.17,14.89,33.54l19.23,0.17l57.54-1.15l220.98,1.21v0.23l221.02-1.21l57.54,1.15l19.23-0.17
	c8.65,2.63,10.91-26.26,14.89-33.54c2.08-1.43,2.05-3.66,2.08-5.78C640.68,315.55,640.88,306.32,639.46,297.13z M85.75,271.49
	c0.02,0.01,0.02,0.02,0.04,0.02C85.42,271.55,85.6,271.38,85.75,271.49z M85.99,271.48c0.02-0.02,0.08-0.03,0.18-0.02
	C86.11,271.47,86.05,271.47,85.99,271.48z M565.52,271.69c0.1-0.01,0.16-0.01,0.18,0.02C565.64,271.7,565.58,271.69,565.52,271.69z
	 M565.9,271.74c0.01-0.01,0.02-0.01,0.04-0.02C566.09,271.6,566.28,271.78,565.9,271.74z"/>
<path fill="#DEE7EE" d="M599.55,266.99"/>
<path fill="#2B2C35" d="M619.17,291.43c0,0,1.35-7.34-10.33-8.12c-14.34-0.96-64.06-1.06-64.06-1.06l-437.88-0.23
	c0,0-49.72,0.11-64.06,1.06c-11.68,0.78-10.33,8.12-10.33,8.12s-1.53,31.17-1.34,39.96c0.19,8.8,8.41,10.52,8.41,10.52l572.5,0.23
	c0,0,8.22-1.72,8.41-10.52C620.7,322.6,619.17,291.43,619.17,291.43z"/>
<path fill="#2B2C35" d="M637.52,374.79c-3.41-6.11-15.61-0.33-13.91-10.68c0,0,0.01,0,0.01,0c-3.93-2.97-283.14,0.43-297.75,0.22
	c0-0.07,0-0.15,0-0.23c-14.15,0.21-293.86-3.2-297.8-0.22c0,0,0.01,0,0.01,0c1.7,10.34-10.5,4.57-13.91,10.68
	c-4.9,6.14-4.35,37.8-4.19,44.48c0,0,0.02,53.42,1.39,77.73c1.03,14.25,1.35,28.94,10.72,40.55c9.06,15.05,39.97,9.83,50.44,8.8
	c6.56-1.01,12.93-14.02,14.92-17.18c3.33-5.28,5.07-11.54,3.87-21.49c-1.54-6.76,2.37-6.83,11.35-5.12
	c50.57,6.05,107.75,1.51,223.15,2.86c0,0.07,0,0.15,0,0.23c115.43-1.35,172.62,3.19,223.2-2.86c8.99-1.71,12.89-1.64,11.35,5.12
	c-1.19,9.96,0.54,16.21,3.87,21.49c1.99,3.16,8.36,16.16,14.92,17.18c10.47,1.03,41.38,6.25,50.44-8.8
	c9.37-11.61,9.69-26.3,10.72-40.55c1.36-24.31,1.39-77.73,1.39-77.73C641.87,412.58,642.42,380.93,637.52,374.79z"/>
<radialGradient id="SVGID_1_" cx="569.5609" cy="316.9264" r="38.2899" gradientUnits="userSpaceOnUse">
	<stop  offset="0" style="stop-color:#D6DDFF"/>
	<stop  offset="0.2217" style="stop-color:#BEC4E3"/>
	<stop  offset="0.2468" style="stop-color:#B6BCDA"/>
	<stop  offset="0.2883" style="stop-color:#A1A8C0"/>
	<stop  offset="0.3093" style="stop-color:#949BB1"/>
	<stop  offset="0.6045" style="stop-color:#A3AAC2"/>
	<stop  offset="0.825" style="stop-color:#51555E"/>
	<stop  offset="1" style="stop-color:#696F7A"/>
</radialGradient>
<path fill="url(#SVGID_1_)" d="M569.78,278.96c-10.61-0.55-19.88,3.54-27.14,11.43c-15.53,16.88-14.89,35.16-1.9,52.41
	c6.62,8.79,18,12.01,29.27,12.14c20.64,0.24,38.12-17.45,38.11-38.1C604.99,292.87,595.3,280.27,569.78,278.96z"/>
<radialGradient id="SVGID_00000011714677025824279740000011467460626896670644_" cx="82.1297" cy="316.7011" r="38.2899" gradientUnits="userSpaceOnUse">
	<stop  offset="0" style="stop-color:#D6DDFF"/>
	<stop  offset="0.2217" style="stop-color:#BEC4E3"/>
	<stop  offset="0.2468" style="stop-color:#B6BCDA"/>
	<stop  offset="0.2883" style="stop-color:#A1A8C0"/>
	<stop  offset="0.3093" style="stop-color:#949BB1"/>
	<stop  offset="0.6045" style="stop-color:#A3AAC2"/>
	<stop  offset="0.825" style="stop-color:#51555E"/>
	<stop  offset="1" style="stop-color:#696F7A"/>
</radialGradient>
<path fill="url(#SVGID_00000011714677025824279740000011467460626896670644_)" d="M81.91,278.74c-25.52,1.31-35.21,13.9-38.34,37.88
	c-0.02,20.64,17.47,38.33,38.11,38.1c11.27-0.13,22.65-3.35,29.27-12.14c12.99-17.24,13.63-35.53-1.9-52.41
	C101.79,282.28,92.52,278.19,81.91,278.74z"/>
<g>
	<path fill="#C4CBE0" d="M567.52,287.3c-0.81-1.29-2.74-2.51-4.27-2.62c-7.28-0.54-10.15,5.02-14.22,7.95
		c0.91,3.68,0.8,5.77,1.64,6.27c8.71,5.12,9.54-5.98,15.13-7.57C567.66,290.81,568.4,288.69,567.52,287.3z"/>
	<path fill="#C4CBE0" d="M562.67,316.38c-0.26,1.4-0.71,2.89-2.39,2.34c-0.73-0.24-1.04-1.82-1.5-2.81
		c-1.17-2.57,3.57-6.74-2.18-8.07c-5.58-1.29-2.95,4.41-5.16,6.1c-2.7,2.07-2.59,5.38-1.01,7.58c1.71,2.37,5,3.66,8.03,2.52
		c2.99-1.13,5.33-3.34,5.3-7.4c-0.1-0.44-0.28-1.21-0.45-1.98C563.09,315.23,562.78,315.79,562.67,316.38z"/>
	<path fill="#C4CBE0" d="M88.43,284.45c-1.52,0.11-3.45,1.33-4.27,2.62c-0.88,1.39-0.13,3.51,1.72,4.04
		c5.59,1.58,6.42,12.69,15.13,7.57c0.84-0.49,0.74-2.59,1.64-6.27C98.58,289.47,95.72,283.92,88.43,284.45z"/>
	<path fill="#C4CBE0" d="M100.24,313.72c-2.21-1.69,0.42-7.39-5.16-6.1c-5.74,1.33-1.01,5.5-2.18,8.07
		c-0.45,0.99-0.77,2.57-1.5,2.81c-1.68,0.55-2.13-0.94-2.39-2.34c-0.11-0.59-0.42-1.15-0.64-1.73c-0.18,0.77-0.35,1.55-0.45,1.98
		c-0.03,4.06,2.31,6.27,5.3,7.4c3.03,1.14,6.32-0.14,8.03-2.52C102.83,319.1,102.94,315.79,100.24,313.72z"/>
</g>
<g>
	<path fill="#C4CBE0" d="M556.39,166.3c-8.04-28.98-24.49-54.48-35.87-82.12c-0.27-0.66-1.39-0.98-2.11-1.46
		c-0.03,1.09-0.42,2.34-0.03,3.25c7.87,18.51,11.84,38.15,16.77,57.5c1.02,4,2.73,8.17-0.88,12.17c-4.91,5.44-1.57,12.06-1.43,18.08
		c0.01,0.6,6.55,1.05,10.53,1.63C547.57,172.06,560.2,180.05,556.39,166.3z"/>
	<path fill="#C4CBE0" d="M131.17,83.95c-11.38,27.64-27.83,53.14-35.87,82.12c-3.81,13.75,8.82,5.76,13.03,9.05
		c3.98-0.59,10.51-1.03,10.53-1.63c0.15-6.03,3.48-12.64-1.43-18.08c-3.61-4-1.9-8.17-0.88-12.17c4.92-19.36,8.9-39,16.77-57.5
		c0.39-0.91,0-2.16-0.03-3.25C132.56,82.97,131.44,83.29,131.17,83.95z"/>
</g>
<path fill="#DEE7EE" d="M52.14,266.77"/>
<linearGradient id="SVGID_00000103242184943084932080000012146748861657706642_" gradientUnits="userSpaceOnUse" x1="325.8452" y1="195.4309" x2="325.8452" y2="273.5482">
	<stop  offset="0" style="stop-color:#BA3E57"/>
	<stop  offset="0.0581" style="stop-color:#CD5C6D"/>
	<stop  offset="0.1892" style="stop-color:#D8879A"/>
	<stop  offset="0.4344" style="stop-color:#DE7690"/>
	<stop  offset="0.5384" style="stop-color:#E7DDE4"/>
	<stop  offset="0.8735" style="stop-color:#E39CAE"/>
	<stop  offset="0.9075" style="stop-color:#D06476"/>
	<stop  offset="0.9767" style="stop-color:#DE8B9C"/>
	<stop  offset="1" style="stop-color:#A8292E"/>
</linearGradient>
<path fill="url(#SVGID_00000103242184943084932080000012146748861657706642_)" d="M615.91,270.03c-0.61-3.03-1.23-6.05-1.84-9.08
	c-0.99-4.19-2.9-7.77-6.25-10.17c-0.23-0.77-0.59-1.6-1.13-2.51c-0.32-0.39-0.52-0.83-0.77-1.24c0,0-3.8-5.87-3.8-5.87
	c-7.14-7.82-54.86-10.41-89.66-11.41c4.33-1.26,8.42-2.87,12.1-5.18c-2.72-7.4,6.68-9.93,11.31-13.71
	c6.04-4.93,10.1-10.8,16.08-15.63c-13.35-0.05-26.7-0.12-40.06-0.15c-0.7,0-1.96,0.15-2.03,0.38c-3.64,12.57-18.4,6.31-27.84,8.97
	c-6.99,0.77-7.42,8.68-15.54,7.88c-24.63-1.67-48.41,3.89-72.83,4.51c-60.7,2.36-148.79-1.49-208.5-4.74
	c-4.36,0.3-7.56-1.88-9.28-4.51c-8.8-9.77-29.51,3.11-34.1-12.34c-13.74-1.04-28.17,0.06-42.08-0.23
	c5.98,4.84,10.04,10.71,16.08,15.63c4.63,3.78,14.04,6.3,11.31,13.71c3.69,2.31,7.77,3.92,12.1,5.18c-34.8,1-82.52,3.59-89.66,11.41
	c0,0-3.8,5.87-3.8,5.87c-0.25,0.42-0.44,0.85-0.77,1.24c-0.54,0.91-0.9,1.74-1.13,2.51c-3.35,2.4-5.26,5.99-6.25,10.17
	c-0.61,3.03-1.23,6.05-1.84,9.08c6.38,2.06,10.83-2.95,16.46-4.19c-3.12,6.53-1.92,9.97,5.79,9.76
	c89.26-1.81,446.35-1.55,535.63,0.26c7.72,0.21,8.91-3.24,5.77-9.8C605.07,267.07,609.52,272.08,615.91,270.03z"/>
<path id="Front_00000083046642866652414170000002930277018998149036_" fill="#972831" d="M602.54,426.23
	c-1.44-4.44-7.99-6.65-9.37-6.63c-19.7,0.25-39.41,0.68-59.11,0.94c-30.52,0.4-177.51,2.74-208.18,3.08
	c-0.01-0.13-0.01-0.22-0.02-0.22c-30.54-0.34-177.7-2.68-208.24-3.08c-19.7-0.26-39.41-0.69-59.11-0.94
	c-1.37-0.02-7.93,2.19-9.37,6.63c-0.62,10.09,16.39,26.67,26,28.22c33.53,5.4,67.29,6.43,101.1,7.36
	c11.13,0.31,138.18-1.02,149.58-0.96c0,0.13,0,0.23,0,0.23c11.15-0.07,138.48,1.26,149.62,0.96c33.8-0.93,67.57-1.95,101.1-7.36
	C586.15,452.91,603.17,436.33,602.54,426.23z"/>
<g id="Blinkers_00000084529836460716253460000003372582406249318590_">
	
		<radialGradient id="SVGID_00000032616050218262666120000000806994742003891896_" cx="530.9954" cy="391.0874" r="21.3845" gradientUnits="userSpaceOnUse">
		<stop  offset="0.5452" style="stop-color:#FFAD53"/>
		<stop  offset="0.6762" style="stop-color:#E79941"/>
		<stop  offset="0.859" style="stop-color:#CC822D"/>
		<stop  offset="0.966" style="stop-color:#C27925"/>
	</radialGradient>
	<path fill="url(#SVGID_00000032616050218262666120000000806994742003891896_)" d="M548.52,382.57c-5.69,0.86-11.61,0.16-17.42,0.16
		c-7.64,0-15.29-0.13-22.93,0.04c-9.27,0.2-5.01,7.46-5.84,11.88c-0.87,4.63,2.46,4.94,5.94,4.94c13.58-0.03,27.16,0.2,40.74-0.06
		c4.25-0.08,10.72,2.43,10.93-5.46C560.13,386.67,558.17,381.12,548.52,382.57z"/>
	
		<radialGradient id="SVGID_00000045599833904287876850000010120378281129422523_" cx="120.6951" cy="390.8622" r="21.3845" gradientUnits="userSpaceOnUse">
		<stop  offset="0.5452" style="stop-color:#FFAD53"/>
		<stop  offset="0.6762" style="stop-color:#E79941"/>
		<stop  offset="0.859" style="stop-color:#CC822D"/>
		<stop  offset="0.966" style="stop-color:#C27925"/>
	</radialGradient>
	<path fill="url(#SVGID_00000045599833904287876850000010120378281129422523_)" d="M103.17,382.34c5.69,0.86,11.61,0.16,17.42,0.16
		c7.64,0,15.29-0.13,22.93,0.04c9.27,0.2,5.01,7.46,5.84,11.88c0.87,4.63-2.46,4.94-5.94,4.94c-13.58-0.03-27.16,0.2-40.74-0.06
		c-4.25-0.08-10.72,2.43-10.93-5.46C91.56,386.44,93.53,380.89,103.17,382.34z"/>
</g>
<g id="Fenders_00000175324108519461178880000003395962876078839979_">
	<path fill="#9592AA" d="M27.55,364c0,0-0.19,0.03-0.29,0.04c-0.05,0.05-4.29-1.7-4.55-5.12c-0.03-0.39-0.04-0.78-0.05-1.17
		c-0.01-0.7-0.01-1.41-0.04-2.11c0,0,0,0,0,0v0l-4.02-34.33c-1.04-5.31,1.06-10.53,0.65-15.79c-0.67-8.58,3.53-15.52,7.13-22.69
		c0,0,0,0,0,0c-6.23,3.39-9.31,9.64-13.52,14.87c-0.27,0.69-0.62,1.34-0.87,2.03c-1.39,5.64-2.77,11.29-4.16,16.93c0,0,0,0,0,0
		c0,0,0,0,0,0c-0.18,1.21-0.36,2.41-0.54,3.62c-0.03,0.48-0.08,0.96-0.21,1.43c0,0,0,0,0,0l0,0v0c0.16,6.23-0.74,18.95-0.74,24.17
		l0,0l0,0.01c0,1.32,0.06,2.15,0.22,2.27l2.05,21.49c-0.09,0.36,0.26,1.61,0.63,2.85l0,0h0c0.35,1.19,0.72,2.37,0.72,2.72
		c0,0-0.4,8.44-0.3,9.14c0,0,0,0,0,0c0,0,0,0,0,0c0.36-0.07,0.72-0.14,1.08-0.21c0.57-1.43,0.4-3.35,1.96-4.14
		c0.22-0.43,0.44-0.85,0.68-1.25c-0.61-0.72-0.92-1.48-0.87-2.28c2.77-3.73,6.64-6.03,13.25-5.24
		C28.19,371.51,27.54,364.07,27.55,364z"/>
	<path fill="#9592AA" d="M645.34,346.1c0.01-5.22-0.9-17.94-0.74-24.17l0,0h0c0,0,0,0,0,0c-0.13-0.47-0.18-0.95-0.21-1.43
		c-0.18-1.21-0.36-2.41-0.54-3.62c0,0,0,0,0,0c0,0,0,0,0,0c-1.39-5.64-2.77-11.29-4.16-16.93c-0.26-0.69-0.61-1.34-0.87-2.03
		c-4.2-5.23-7.29-11.48-13.52-14.87c0,0,0,0,0,0c3.6,7.18,7.79,14.11,7.13,22.69c-0.41,5.26,1.7,10.47,0.65,15.79l-4.02,34.33l0,0
		c0,0,0,0,0,0c-0.03,0.7-0.03,1.41-0.04,2.11c-0.01,0.39-0.02,0.78-0.05,1.17c-0.26,3.42-4.5,5.17-4.55,5.12
		c-0.09-0.02-0.29-0.04-0.29-0.04c0.01,0.07-0.63,7.51,1.79,7.22c6.61-0.78,10.48,1.52,13.25,5.24c0.05,0.81-0.26,1.57-0.87,2.28
		c0.23,0.41,0.46,0.83,0.68,1.25c1.56,0.8,1.38,2.71,1.96,4.14c0.36,0.07,0.72,0.14,1.08,0.21c0,0,0,0,0,0c0,0,0,0,0,0
		c0.1-0.7-0.3-9.14-0.3-9.14c0-0.34,0.36-1.52,0.72-2.72h0l0,0c0.37-1.24,0.72-2.5,0.63-2.85l2.05-21.49
		c0.15-0.12,0.21-0.95,0.22-2.27V346.1L645.34,346.1z"/>
	<path fill="#2B2C35" d="M645.41,341.53c-1.67-8.22-4.17-16.09-10.14-22.5c-0.04-0.04-0.09-0.07-0.13-0.11
		c-0.49-0.45-1.16-0.72-1.74-1.08c0,0,0,0,0,0c-1.34,11.88-2.68,23.75-4.02,35.63c0.43,0.35,0.79,0.79,0.95,1.29
		c0.25,0.34,0.5,0.68,0.75,1.02c2.63,3.58,5.26,7.16,7.86,10.76c1.16,1.6,2.16,3.34,4.59,2.82c0,0,0,0,0,0
		c0.25-2.34,1.81-13.16,1.81-13.16c-0.04-0.33,0.06-0.6,0.31-0.82C645.73,353.98,645.42,342.61,645.41,341.53z"/>
	<path fill="#2B2C35" d="M6.28,341.31c1.67-8.22,4.17-16.09,10.14-22.5c0.04-0.04,0.09-0.07,0.13-0.11
		c0.49-0.45,1.16-0.72,1.74-1.08c0,0,0,0,0,0c1.34,11.88,2.68,23.75,4.02,35.63c-0.43,0.35-0.79,0.79-0.95,1.29
		c-0.25,0.34-0.5,0.68-0.75,1.02c-2.63,3.58-5.26,7.16-7.86,10.76c-1.16,1.6-2.16,3.34-4.59,2.82c0,0,0,0,0,0
		c-0.25-2.34-1.81-13.16-1.81-13.16c0.04-0.33-0.06-0.6-0.31-0.82C5.96,353.76,6.27,342.38,6.28,341.31z"/>
</g>
<g id="Windhield_00000093868610653821962660000011810649387056290723_">
	<path id="Glass_00000158009723264665333730000008404464781569119411_" fill="#9592AA" d="M573.75,174.62
		c-13.8-44.91-34.38-86.97-54.79-129.12c-1.83-3.85-4.21-7.7-9.33-8.07c-15.04-6.73-31.2-6.77-47.17-8.37
		c-45.45-3.26-227.77-3.48-273.24-0.23c-15.97,1.6-32.13,1.64-47.17,8.37c-5.12,0.37-7.51,4.22-9.33,8.07
		c-20.4,42.15-40.98,84.2-54.78,129.12c-3.08,8.17,0.94,12.83,8.59,15.65c0,0,478.63,0.23,478.63,0.23
		C572.79,187.44,576.86,182.8,573.75,174.62z M103.03,182.1c-0.49,0-0.98-0.01-1.47,0c0.6-0.01,1.21-0.04,1.81,0
		C103.25,182.1,103.14,182.1,103.03,182.1z M109.85,178.6c-0.33,0-0.66,0-1,0c0.41,0,0.82,0,1.23,0
		C110.01,178.6,109.93,178.61,109.85,178.6z M541.84,178.83c-0.08,0-0.16,0-0.24,0c0.41,0,0.82,0,1.23,0
		C542.51,178.83,542.17,178.83,541.84,178.83z M548.67,182.32c-0.12,0-0.23,0-0.34,0c0.6-0.03,1.21-0.01,1.81,0
		C549.64,182.32,549.15,182.32,548.67,182.32z"/>
	<g id="Interior_00000083059342254238771950000007447162056818112947_">
		<path fill="#DEE7EE" d="M325.87,57.32"/>
		<path fill="#DEE7EE" d="M456.02,84.47c-0.96-7.23-1.36-14.64-3.33-21.59c-1.67-5.86-8.02-4.72-12.45-4.69
			c-36.01,3.07-70.95-3.18-106.74-0.68c16.43,3.52,34.17-5.03,29.4,18.75c-0.27,3.33-3.69,3.38-6.36,3.4
			c-10.23,0.05-20.46,0.05-30.69,0.07c-10.23-0.02-20.46-0.02-30.69-0.07c-2.66-0.01-6.08-0.07-6.36-3.4
			c-4.76-23.77,12.95-15.23,29.4-18.75c-22.75-1.62-45.51,0.07-68.26,1.5c-12.3,0.94-25.62-0.74-38.48-0.82
			c-4.43-0.03-10.79-1.17-12.45,4.69c-1.98,6.95-2.37,14.36-3.33,21.59c-0.21,1.6-0.37,3.36,2.44,3.09
			c14.42-0.05,35.9-6.87,48.41,0.75c17.05,12.96,14.74,31.34,13.26,49.23c-0.4,4.85,0.27,11.11-6.51,13.29
			c-3.26,6.28,22.95,0.67,31.26,1.6c27.44-5.05,55.17-5.04,82.61,0c2.39,0.37,34.34,4.71,31.26-1.6c-6.78-2.18-6.11-8.44-6.51-13.29
			c-4.15-22.53,1.68-58,32.96-52.33c9.59,0.49,19.15,1.44,28.71,2.36C456.39,87.83,456.23,86.07,456.02,84.47z"/>
	</g>
	<g id="Wipers_00000173123949600663430310000001401004731312610237_">
		<path fill="#2B2C35" d="M538.92,180.13c-9.42-0.42-104.4-8.1-120.92-8.31c-9.6-0.12-28.42,1.79-28.42,1.79
			c-0.32,0.13-1,0.14-1,0.14c-1.14,1-2.27,2-3.41,3.01c-14.4-0.6-38.12-1.84-42.95-1.84l1.21,4.8c12.04-0.38,56.86,2.25,68.91,3.46
			c1.42,0.14,27.22,4.62,27.28,4.34c0.45-2.03-0.99-5.39-1.5-7.33c-0.18-0.68-9.76-1-11.28-0.94c-4.2,0.17-16.56-1.16-24.85-1.82
			c8.5-0.9,17.89-1.86,23.6-1.44c15.02,1.11,73.09,7.24,84.2,7.07c2.07,0.52,4.15,1.01,6.21,1.54c-1.45,4.34,12.24-1.91,21.76,5.53
			c1.39,1.09,4.64,0.44,5.78-2.36C543.64,187.28,542.58,180.29,538.92,180.13z"/>
		<path fill="#2B2C35" d="M263.11,173.52c0,0-0.68,0-1-0.14c0,0-18.81-1.9-28.42-1.79c-16.52,0.21-111.5,7.89-120.92,8.31
			c-3.65,0.16-4.72,7.15-4.62,7.64c1.13,2.79,4.39,3.44,5.78,2.36c9.51-7.44,23.21-1.19,21.76-5.53c2.07-0.53,4.14-1.02,6.21-1.54
			c11.12,0.16,69.18-5.96,84.2-7.07c5.71-0.42,15.1,0.53,23.6,1.44c-8.29,0.66-20.65,1.99-24.85,1.82
			c-1.53-0.06-11.1,0.26-11.28,0.94c-0.52,1.94-1.95,5.3-1.5,7.33c0.06,0.27,25.86-4.2,27.28-4.34c12.05-1.21,56.87-3.84,68.91-3.46
			l1.21-4.8c-4.82,0-28.55,1.24-42.95,1.84C265.38,175.53,264.24,174.52,263.11,173.52z"/>
	</g>
</g>
<linearGradient id="HeadrestB_00000108299730142281774200000015103767428969657499_" gradientUnits="userSpaceOnUse" x1="222.7513" y1="86.6052" x2="222.7513" y2="146.1172">
	<stop  offset="0" style="stop-color:#878AA0"/>
	<stop  offset="0.444" style="stop-color:#8E93A9"/>
	<stop  offset="0.6925" style="stop-color:#949BB1"/>
	<stop  offset="0.841" style="stop-color:#A3AAC2"/>
	<stop  offset="0.9944" style="stop-color:#8D97A6"/>
</linearGradient>
<path id="HeadrestB" fill="url(#HeadrestB_00000108299730142281774200000015103767428969657499_)" d="M210.5,84.72
	c0,0-21.84-0.75-23.72,15.44s0,36.14,0,36.14s-2.26,13.55,15.44,12.8c17.69-0.75,42.54,0.03,42.54,0.03s13.18,2.61,14.31-6.05
	c1.13-8.66,0-33.88,0-33.88s-1.88-24.48-21.46-24.48S210.5,84.72,210.5,84.72z"/>
<linearGradient id="HeadrestA_00000060021019682939786250000018306370207132165527_" gradientUnits="userSpaceOnUse" x1="429.1979" y1="87.6053" x2="429.1979" y2="147.1173">
	<stop  offset="0" style="stop-color:#878AA0"/>
	<stop  offset="0.444" style="stop-color:#8E93A9"/>
	<stop  offset="0.6925" style="stop-color:#949BB1"/>
	<stop  offset="0.841" style="stop-color:#A3AAC2"/>
	<stop  offset="0.9944" style="stop-color:#8D97A6"/>
</linearGradient>
<path id="HeadrestA" fill="url(#HeadrestA_00000060021019682939786250000018306370207132165527_)" d="M416.94,85.72
	c0,0-21.84-0.75-23.72,15.44s0,36.14,0,36.14s-2.26,13.55,15.44,12.8c17.69-0.75,42.54,0.03,42.54,0.03s13.18,2.61,14.31-6.05
	c1.13-8.66,0-33.88,0-33.88s-1.88-24.48-21.46-24.48C424.47,85.72,416.94,85.72,416.94,85.72z"/>
<radialGradient id="Steeringwheel_00000080918669559830366980000014792876166519064760_" cx="430.563" cy="170.3515" r="42.4171" gradientTransform="matrix(1 -5.208263e-03 3.186228e-03 0.6118 -0.5369 68.3805)" gradientUnits="userSpaceOnUse">
	<stop  offset="0.1103" style="stop-color:#5E6170"/>
	<stop  offset="0.2474" style="stop-color:#666979"/>
	<stop  offset="0.4745" style="stop-color:#7B8093"/>
	<stop  offset="0.6925" style="stop-color:#949BB1"/>
	<stop  offset="0.841" style="stop-color:#A3AAC2"/>
	<stop  offset="0.9944" style="stop-color:#737B87"/>
</radialGradient>
<path id="Steeringwheel" fill="url(#Steeringwheel_00000080918669559830366980000014792876166519064760_)" d="M387.04,161.51h21.65
	c0,0,7.73-6.19,19.88-5.52c12.15,0.66,24.52,5.52,24.52,5.52h21.43c0,0-20.99-14.58-43.74-14.14
	C408.03,147.82,391.46,158.2,387.04,161.51z"/>
</svg>
