<?xml version="1.0" encoding="utf-8"?>
<!-- Generator: Adobe Illustrator 26.5.0, SVG Export Plug-In . SVG Version: 6.00 Build 0)  -->
<svg version="1.1" id="CarLayer" xmlns="http://www.w3.org/2000/svg" xmlns:xlink="http://www.w3.org/1999/xlink" x="0px" y="0px"
	 viewBox="0 0 1920 1080" enable-background="new 0 0 1920 1080" xml:space="preserve">
<g id="Car_00000081636381922225597350000012280808750381833900_">
	<path fill="#DC4731" d="M118.2,130.3c-1.1-11.3,2.4-23.4-0.7-34.4c-0.3-1,0-2.2-1-2.9c-1.1-2.1-0.5-4.2-1.5-6.3
		c-0.1-23.6-0.1-47.5-0.9-71c-0.3-18.6-0.8-37.2-0.5-55.8c0.3-0.4,0.3-0.7,0.1-1.1c-0.3-0.1-0.6-0.3-0.9-0.4
		c0.3-24.9-0.2-50-0.5-74.9c8.9-24,4.6-51.3,3.6-76.3c-8-10.8-4.9-54.2-22.5-55.2c0-0.1,0.1-0.2,0.1-0.2c-1.2-0.3-7.8-0.6-6.8,1.1
		c2.7,47.7,0,96.5,0.9,144.5c-11.1-2.4-94.6,6.4-88.9-7.5c-0.1-47.5,0.8-95.1,0.3-142.6c-0.2-10.5-39.6,1.5-49.6,0.1
		c-1.3,0.6-3.1-0.2-4.6,0.2c-5.9,2.6-38.6,1.5-38.4,6.6c0.3,50,0,100,0.1,149.9c-3.3,13.9,27.2-3.8,36.5-2.2
		c17.3-2.8,35.3-4.5,52.9-3.8V174c-98.2,1.3-90.1-32.3-90.8,63.4c0,2.4,1.1,3.4,3.9,3.4c28.7,0.6,57.4,2.3,86.1,1.9
		c4.9,1.4,1.5,8.2,2.4,11.6c-8.7,6.4-28.6-1.9-39.1,2.6c39.5,1.8,79.7,0.4,119.4-1.2c6-0.8,13.2,1.2,16.9-3.9l0,0c0,0,0,0,0,0
		c0,0,0,0,0,0l0,0c1.4-0.8,1.8-2.6,3.4-3.4c0.6-0.1,0.6-0.4,0.6-0.8c5.5-6,7.5-13.7,8.2-21.4c1.4-3.2,1.6-6.6,2-10.1
		c0.8-2.7,0.9-5.6,1.5-8.4c0.8-1.9,0.5-3.9,1-5.9c1-2.3,0.7-5.1,1.1-7.5c0.6-0.7,0.1-1.7,0.4-2.5c0.9-1.8,0.2-3.9,1-5.9
		c0.8-0.6,0.6-1.4,0.8-2.1c0.9-1.6,0.9-4.1,2-5.9C119.4,162.6,117.4,146,118.2,130.3z"/>
	<path fill="#E9543B" d="M91.5-248.2c-1.4,0.7-2.9,0-4.6,0.5c1.3,47.9,6.6,113.4-1.8,156.5c-26.8-10.2-61.2-8.9-86.7-13.6
		c-1.5-48.4,1.3-96.7-0.3-145.1c3.9-14.3-28.8-1-38.5-3.4c-1.4,0.8-3,0.7-4.5,0.3c-0.1-0.2,0-0.4,0.2-0.6c2.1-0.2,4.3-0.4,6.4-0.6
		c2.1-0.7,4.7-0.3,7-0.8c4.1-0.7,9.1-0.5,13.5-1.3c2.3-0.6,5-0.3,7.5-0.8c5.3-1,11.6-1,17,0c2.5,0.5,5.3,0.1,7.5,0.8
		c4.5,0.7,9.2,0.5,13.5,1.3c2.3,0.5,4.9,0.1,7,0.8c3,0.5,6.2,0.1,9,0.8c1.5,0.4,3.1-0.4,4.5,0.4c5.7,0.8,11.4,0.8,17,1.7
		c2.5,0.3,5.2,0.2,7.5,0.8c1.1,0.2,2.5,0,3.5,0.4c3.5,0.7,7.3,0,10.5,1C87.7-248.7,91.5-249.2,91.5-248.2z"/>
	<path fill="#333333" d="M116.5-51.9c1.5,0.2,3.2-1.2,4.2,0.4c3.6,1.7,5.1,4.9,7.2,7.6c1.4,2,2.2,4.1-1.8,3.3
		c-1.9-0.5-4.1,0.8-5.5-0.6c-2-0.2-3.9-0.4-5.9-0.6c-9.3,2-0.5-5.9-4.4-7.9C104.7-55.1,112.9-53.4,116.5-51.9z"/>
	<path fill="#E9543B" d="M89,204.9c2.4,52,2.8,31.3-53.8,36.7c-42.6-0.3-37.8,9.1-37.6-28c2-43.7-13.2-37.7,41.8-39.7
		C84.9,169.9,91.3,159.8,89,204.9z"/>
	<path fill="#FFCCCC" d="M106.1-42.3c1.4,0.2,2.7,0.3,4.1,0.5c-4.4,89,6.1,186-11,271c1.7-26.5-1.6-52.6-4.5-78.6
		C109.5,87.3,102.8,21.9,106.1-42.3z"/>
	<polygon fill="#DC4731" points="94.9,251.9 95,252 94.9,251.9 94.9,251.9 	"/>
	<path fill="#C6351F" d="M1.6,144H0.9C1.5,110.1-1.4-55.5-1.9-92.9c1.3,0,2.8,0.4,4-0.6c-0.2-0.9-1-0.8-1.8-0.8
		c-6.1,0.3,2.1-8.8-4.1-8.4c-26.4,1-61.9,3.7-88.6-0.1c4.9-21.5-11.3-149.9,9-145.9c-1.7-0.5-4.3-1.2-5.9-0.4c0,0.1,0,0.2,0,0.3
		c-1.9,0.2-3.7-0.2-5.5,0.3c-2.8,0.6-8.1-0.4-9.5,2.3c-0.6,0.6-0.4,1.5-0.8,2.1c-0.8,1-1.2,2.5-1.4,3.8c-0.3,1-1,1.8-1.1,2.9
		c-0.9,2.4-1.9,5.3-2.6,7.9c-9.7,30.1-11.4,60.8-10.7,92.1c6.1,24.9,5.3,50.3,4.4,76h0c-0.1,3.1-0.1,6.2-0.2,9.4
		c0.1,0,0.1,0.1,0.2,0.1c-0.5,46.8-1.2,93.6-1.4,140.4c-8.2,27.6-1,57.7-3.1,86.2c10.1,22.7,5.3,49,17.7,71.1c0.1,0.4,0.8,0.7,1,1.2
		l0,0c0.6,0.3,0.7,0.9,1,1.3c0.1,0.4,0.3,0.6,0.7,0.7c1.5,1.8,3.6,3.1,5.3,4.7l0,0c17.2,3.2,36.3,2.2,54.1,3.2
		c12.1-1.2,24.9,0.6,37.3,0.1c5.6-0.8,1.3-9.2,2.7-12.8c-5.5-5.1-29.4-0.6-39.4-2.7c-65.3-2.8-52.5,9.2-52.1-45.7
		c-0.8-15.3-1.7-32.7,22.9-24.9c21.6,4.1,44,3,66,3.9c4.6,0,1.8-8.7,2.1-11.7c-1.5-3.9,3.7-2.5,5.4-4.1c-0.5-0.5-1.1-0.7-1.8-0.7
		L1.6,144z"/>
	<path fill="#E9543B" d="M67.8,110.2c-183.9-0.2-133.7,25-145-146.2c-0.9-4.3,2.6-3.1,5.6-5.2c2.6-1,6.5-0.8,9.5-1.8
		c8-1,15.5-2.3,23.3-3c39.6-3.1,82.1-2.8,120.1,6.3C75.4,9.5,90.6,64,67.8,110.2z"/>
	<path fill="#333333" d="M-28.6-46.4c-54.9,2.3-42.8,20.9-65.5-26.7c23.4-21.1,86.3-21.2,121-19.5c4.8,0.3,9.8,0.5,14.5,1.4
		c19.7,2.4,40.1,6.8,56.9,15.4c-0.3,7-6.4,14-9.1,20.8c-1.3,2.2-1.9,4.8-3.5,6.9c-1.8,2.3-1.4,7.7-5.5,8
		c-10.8-1.9-21.7-3.9-32.7-4.7C22.7-48-3.3-47.9-28.6-46.4z"/>
	<path fill="#333333" d="M7.4,158.9c-18.1-1.7-69.6,3.3-78.9-8c3.9-9.7,1.5-35.7,10.3-40c42.1,1.1,84.3,1.4,126.5,0
		c7,0,2.9,9.2,5.6,12.7c-1,5.7,10.7,32.3,0.5,31.2C50.8,159.1,28.7,158.5,7.4,158.9z"/>
	<path fill="#333333" d="M99.5,92.6C83.2,58.4,74.9-31.9,101.1-62.1C104.1-11.1,106.1,41.6,99.5,92.6z"/>
	<path fill="#333333" d="M-99.5,8.8c0.4-22.1-1.2-49.2,2.6-71.4C-71.6-32.3-83.4,6.6-82.3,41.7c-2.2,16.5-3.3,36.6-13.1,50.7
		C-100.8,65-99.1,38-99.5,8.8z"/>
	<path fill="#FFCCCC" d="M67.3,92.8C52.4,4.8,75.3-41.3-59.4-35.6c40.9-6.3,95-11.2,131.2,3.4C69.8,9.4,75.2,51.6,67.3,92.8z"/>
	<path fill="#333333" d="M-123.4-51.9c2.9,2,13.6-4.1,11.2,0.9c-8.5,4.9,7.7,8.9-10.8,10c-0.3,0.4-0.5,0.3-0.7,0
		C-138.3-37.7-129.2-47.3-123.4-51.9z"/>
</g>
</svg>
