<?xml version="1.0" encoding="utf-8"?>
<!-- Generator: Adobe Illustrator 16.0.4, SVG Export Plug-In . SVG Version: 6.00 Build 0)  -->
<!DOCTYPE svg PUBLIC "-//W3C//DTD SVG 1.1//EN" "http://www.w3.org/Graphics/SVG/1.1/DTD/svg11.dtd">
<svg version="1.1" xmlns="http://www.w3.org/2000/svg" xmlns:xlink="http://www.w3.org/1999/xlink" x="0px" y="0px"
	 width="595.28px" height="841.89px" viewBox="0 0 595.28 841.89" enable-background="new 0 0 595.28 841.89" xml:space="preserve">
<g id="Catctopus">
	<path fill="#AF824F" d="M40.735,132.439c-2.75,2.75-18.25,13.75-20,11.5s-8-13.75-6.75-24.25s11.75-15.5,20-15
		C33.985,104.689,43.485,129.689,40.735,132.439z"/>
	<path fill="#6F533A" d="M35.985,119.689c0,0-16.074,11.006-10.75,18.75c2.293,3.335,13.25-8.25,13.25-8.25L35.985,119.689z"/>
	<g>
		<path fill="#E7AE79" d="M33.983,104.689c-8.25-0.5-18.75,4.5-20,15c-0.303,2.537-0.16,5.131,0.244,7.641
			c2.637-10.124,14.453-15.385,21.557-17.674C34.75,106.707,33.983,104.689,33.983,104.689z"/>
	</g>
	<path fill="none" stroke="#000000" stroke-miterlimit="10" d="M40.735,132.439c-2.75,2.75-18.25,13.75-20,11.5s-8-13.75-6.75-24.25
		s11.75-15.5,20-15C33.985,104.689,43.485,129.689,40.735,132.439z"/>
	<path fill="#6F533A" d="M46.809,130.725c-11.75-1.5-22-3.5-27.5,12.5c-2.458,7.152-1.47,14.805,1.983,21.504
		c4.271,8.288,12.313,15.119,22.267,17.746C61.559,187.225,46.809,130.725,46.809,130.725z"/>
	<path fill="#AF824F" d="M35.222,148.725c0,0,0,27-15.913,12.237c-2.087-1.936,0.693-18.695,1.133-19.633s4.85-14.149,17.117-8.604
		C40.971,134.267,35.222,148.725,35.222,148.725z"/>
	<path fill="none" stroke="#000000" stroke-miterlimit="10" d="M46.375,130.951c-11.75-1.5-22-3.5-27.5,12.5
		c-2.414,7.021-1.505,14.524,1.796,21.135c4.221,8.454,12.353,15.449,22.454,18.115C61.125,187.451,46.375,130.951,46.375,130.951z"
		/>
	<path fill="#E7AE79" d="M154.803,105.708c0,0,1.636-0.955,4.09-1.179c4.598-0.419,12.068,1.729,17.037,17.535
		c3.667,11.666-5.5,18.665-14,13.333c-3.395-2.13-11-8-11-8L154.803,105.708z"/>
	<path fill="#AF824F" d="M158.597,117.898c0,0-0.834,6.166-2.334,8.166s5.497,1.001,7.582,2.334S162.431,118.898,158.597,117.898z"
		/>
	<path fill="#FFE1B0" d="M157.046,112.184c0,0,12.488-2.437,16.327,4.448s-2.993-12.281-14.827-12.948L157.046,112.184z"/>
	<path fill="none" stroke="#000000" stroke-miterlimit="10" d="M154.803,105.708c0,0,13.507-7.885,21.127,16.356
		c3.667,11.666-5.5,18.665-14,13.333c-3.395-2.13-11-8-11-8L154.803,105.708z"/>
	<path fill="#E7AE79" d="M151.183,126.398c8.667,0.667,25,2.334,25.5,23.667s-32.786,41.316-27.333,33.333
		c19.21-28.124-4.833-36.167-4.833-36.167l-4.334-14.666L151.183,126.398z"/>
	<path fill="#FFE1B0" d="M158.436,128.231c-3.556-0.402,2.408,7.491,8.914,8.5s7.35,2.269,7.949,4.462
		S171.689,129.731,158.436,128.231z"/>
	<path fill="#AF824F" d="M154.323,129.738l-9.834,17.167c0,0,13.001,4.333,12.834,16.833s0.936-15.695-2.354-19.623
		S157.823,132.738,154.323,129.738z"/>
	<path fill="none" stroke="#000000" stroke-miterlimit="10" d="M151.183,126.398c8.667,0.667,25,2.334,25.5,23.667
		s-32.786,41.316-27.333,33.333c19.21-28.124-4.833-36.167-4.833-36.167l-4.334-14.666L151.183,126.398z"/>
	<path fill="#AF824F" stroke="#000000" stroke-miterlimit="10" d="M120.389,174.383c0,0-8.166,7.166-10.666,11.833
		s-1.814,12.157-1.481,12.824s-0.685-7.157,8.481-8.324S120.389,174.383,120.389,174.383z"/>
	<path fill="#E7AE79" d="M119.723,178.383c0,0-4.334,3.666-5.834,6.166s6.5-3.083,6.5-3.083L119.723,178.383z"/>
	<path fill="#AF824F" stroke="#000000" stroke-miterlimit="10" d="M71.153,172.52v20.75c0,0,13.367-13.901,17.641,3.75
		C91.153,206.77,91.903,174.52,71.153,172.52z"/>
	<path fill="#E7AE79" d="M72.182,176.311c0,0,0,4.75,3.75,4.75s5,0,5,0S80.182,177.061,72.182,176.311z"/>
	<path fill="#E7AE79" d="M144.893,146.674c9.771-11.682,15.684-26.829,15.684-43.395c0-36.934-29.325-66.875-65.5-66.875
		c-36.174,0-65.5,29.941-65.5,66.875c0,17.243,6.396,32.96,16.893,44.819c-2.193,0.555-4.246,1.81-5.893,4.056
		c-5.5,7.5-7.024,15-6.5,20.25c0.764,7.663,1.863,10.75,11.25,20s23,9.25,31.25,16.75c6.846,6.225-1.5,8.75,2,9
		s8.029,2.75,6.64-11.25s-10.14-12.25-10.89-22.25s-3-13.75,2-14.5s5,1.5,14.75,0.5c0.875-0.09,1.472-0.283,1.851-0.556
		c0.715,0.023,1.429,0.056,2.149,0.056c6.966,0,13.673-1.12,19.97-3.177c2.625,1.971,4.606,5.015,5.03,9.677
		c1.5,16.5-10.25,25.5-8.5,34s5.25,5.25,6.75,6s-2.5-2,0-6.5s8.553-6.117,15-10.75c6.215-4.466,19.25-8.75,24.75-29.25
		C161.543,157.235,151.706,150.078,144.893,146.674z"/>
	<path fill="#FFE1B0" d="M145.327,65.405c-4.832-4.179,12.75,15,7.25,24.25s5.75-3,5,19s3.295,3.5,2.988-4.247
		S154.577,73.405,145.327,65.405z"/>
	<path fill="#FFE1B0" d="M138.577,132.155c-5.233,0.489-7.25,1.25-5.25,4s1,1,5.25,2S143.026,131.739,138.577,132.155z"/>
	<path fill="#FFE1B0" d="M50.077,159.905c0,0-1.25,5.5,5,4.75s5.25-2.5,5.25-4.75s-2.543-5.5-5.146-5.5
		S50.327,155.155,50.077,159.905z"/>
	<path fill="#FFE1B0" d="M141.327,159.156c-2.679-2.617,0.767-8.295,2.167-9.25c5.866-4,17.088,8.75,14.583,20.249
		c-0.414,1.901-3.583-10.916-6.75-10.59C146.468,160.065,143.292,161.076,141.327,159.156z"/>
	<path fill="#AF824F" d="M66.474,188.377c-12.333-6-23.667-5.667-28.333-16c-1.244-2.755-2.178-5.746-2.882-8.652
		c-0.792,3.109-0.984,5.969-0.746,8.358c0.764,7.663,1.863,10.75,11.25,20s23,9.25,31.25,16.75c4.283,3.895,2.62,6.341,1.631,7.688
		C87.976,211.004,78.123,194.044,66.474,188.377z"/>
	<path fill="#D74760" d="M49.576,105.67"/>
	<path fill="#AF824F" d="M147.253,85.785c-4.704-1.284-18.819-1.542-24.609-1.542s-24.319-8.594-36.072-13.971
		C39.115,48.56,31.807,79.631,30.803,93.251c-0.131-0.462-0.251-0.929-0.35-1.404c-0.499,3.043-0.791,6.155-0.873,9.322
		c0.201,4.776,0.63,10.293,1.424,15.844c2.448,11.673,7.864,22.223,15.425,30.765c-0.26,0.065-0.518,0.143-0.772,0.229
		c1.319,0.538,2.742,0.828,4.277,0.828c17.434,0,26.104,13.708,25.519,16.834c-0.348,1.856-1.228,3.846-1.726,5.395
		c0.477-0.643,1.276-1.037,2.56-1.229c5-0.75,5,1.5,14.75,0.5c0.875-0.09,1.472-0.283,1.851-0.556
		c0.715,0.023,1.429,0.056,2.149,0.056c6.966,0,13.673-1.12,19.97-3.177c2.625,1.971,4.606,5.015,5.03,9.677
		c0.864,9.506-2.668,16.52-5.484,22.386c0.796-0.261,1.658-0.701,2.6-1.363c0.217-0.152,0.428-0.325,0.649-0.502
		c10.075-8.109,28.555-37.001,6.548-35.498c-1.459,0.1-2.52,1.834-2.159-2.666c0.361-4.5-17.454-29.5-32.209-24.667
		c-14.754,4.833-26.991,8.999-33.468,5.333c-6.479-3.666-7.198-25.165-7.379-25.832c-0.145-0.534-11.924-6.523-16.896-16.586
		c2.056-2.712,5.66-6.769,7.533-4.728c6.066,6.61,11.219,6.169,17.009,9.767c5.79,3.599,25.277,4.858,28.048,0.931
		c5.914-8.384,15.742,0.868,22.979-6.07c3.062-2.936-1.447-2.057,0-5.912s23.523-0.771,27.505-1.542S152.845,87.312,147.253,85.785z
		"/>
	<path fill="none" stroke="#000000" stroke-miterlimit="10" d="M144.896,146.674c9.771-11.682,15.684-26.829,15.684-43.395
		c0-15.162-4.942-29.146-13.271-40.363c-11.96-16.107-30.905-26.512-52.229-26.512c-27.077,0-50.316,16.775-60.293,40.701
		c-3.352,8.039-5.207,16.886-5.207,26.174c0,17.243,6.396,32.96,16.893,44.819c-2.193,0.555-4.246,1.81-5.893,4.056
		c-5.5,7.5-7.024,15-6.5,20.25c0.764,7.663,1.863,10.75,11.25,20s23,9.25,31.25,16.75c6.846,6.225-1.5,8.75,2,9
		s8.029,2.75,6.64-11.25s-10.14-12.25-10.89-22.25s-3-13.75,2-14.5s5,1.5,14.75,0.5c0.875-0.09,1.472-0.283,1.851-0.556
		c0.715,0.023,1.429,0.056,2.149,0.056c6.966,0,13.673-1.12,19.97-3.177c2.625,1.971,4.606,5.015,5.03,9.677
		c1.5,16.5-10.25,25.5-8.5,34s5.25,5.25,6.75,6s-2.5-2,0-6.5s8.553-6.117,15-10.75c6.215-4.466,19.25-8.75,24.75-29.25
		C161.546,157.235,151.708,150.078,144.896,146.674z"/>
</g>
<g id="Nose">
	<ellipse fill="#6F533A" cx="95.136" cy="142.846" rx="25.576" ry="15.401"/>
	<path fill="#E7AE79" d="M93.588,124.094c-25.181,0-32.272,8.943-32.272,8.943c0.987,5.727,0.395,15.996,15.603,14.811
		c15.208-1.184,16.338-8.135,16.732-9.123c0.396-0.986,1.137-1.629,1.137-1.629s1.185,0.74,1.58,1.729
		c0.395,0.986,1.082,7.84,16.289,9.023c15.209,1.186,14.616-9.084,15.604-14.811C128.26,133.038,118.77,124.094,93.588,124.094z"/>
	<g>
		<path fill="#AF824F" d="M70.887,147.785c-2.521-3.773-3.789-9.874-1.896-12.291c7.466-9.532,15.5,4.371,22,0
			c3.164-2.128,6.036-6.823,8.153-11.084c-1.764-0.1-3.607-0.158-5.557-0.158c-25.181,0-32.272,8.943-32.272,8.943
			C62.149,138.028,61.857,146.097,70.887,147.785z"/>
	</g>
	<g>
		<path fill="#AF824F" d="M98.12,133.338c-1.44,1.544-2.411,1.02-2.821,4.39c0.248,0.168,1.174,0.834,1.515,1.686
			c0.335,0.837,0.884,5.89,10.313,8.13C96.813,139.414,101.876,129.312,98.12,133.338z"/>
	</g>
	<path fill="none" stroke="#000000" stroke-miterlimit="10" d="M93.588,124.094c-25.181,0-32.272,8.943-32.272,8.943
		c0.987,5.727,0.395,15.996,15.603,14.811c15.208-1.184,16.338-8.135,16.732-9.123c0.396-0.986,1.137-1.629,1.137-1.629
		s1.185,0.74,1.58,1.729c0.395,0.986,1.082,7.84,16.289,9.023c15.209,1.186,14.616-9.084,15.604-14.811
		C128.26,133.038,118.77,124.094,93.588,124.094z"/>
	<path fill="#D74760" d="M103.363,123.417c0,4.051-4.052,7.336-9.051,7.336c-5,0-9.052-3.285-9.052-7.336
		c0-4.048,4.052-10.333,9.052-10.333C99.311,113.083,103.363,119.369,103.363,123.417z"/>
	<path fill="#9C1E13" d="M97.752,128.357c-5,0-9.052-6.285-9.052-10.336c0-1.242,0.385-2.41,1.057-3.436
		c-2.687,1.271-4.497,6.627-4.497,9.33c0,4.051,4.052,7.336,9.052,7.336c3.465,0,6.472-1.58,7.993-3.898
		C100.966,127.988,99.415,128.357,97.752,128.357z"/>
	<path fill="#E498A7" d="M98.352,117.292c-3.668,0.3-5.081,0.766-3.68,2.45c1.402,1.685,0.701,0.613,3.68,1.226
		C101.332,121.581,101.471,117.038,98.352,117.292z"/>
	<path fill="none" stroke="#000000" stroke-miterlimit="10" d="M103.192,123.417c0,4.051-4.052,7.336-9.051,7.336
		c-5,0-9.052-3.285-9.052-7.336c0-4.048,4.052-10.333,9.052-10.333C99.14,113.083,103.192,119.369,103.192,123.417z"/>
</g>
<g id="Eyes">
	<path fill="#D0EEF7" d="M147.285,112.835c3.138-10.507-6.807-20.539-10.98-21.441c-15.763-3.41-22.113,4.93-26.994,12.435
		c-4.879,7.504-3.75,5.253-0.09,11.418s11.271,5.792,21.032,6.327C140.012,122.112,146.469,115.569,147.285,112.835z"/>
	<path fill="#C1D7D0" d="M133.524,97.042c-15.763-3.41-22.113,4.93-26.994,12.435c-0.16,0.246-0.297,0.455-0.444,0.681
		c-0.209-1.177,0.698-2.447,3.221-6.327c4.881-7.506,11.231-15.846,26.994-12.436c4.174,0.902,14.118,10.935,10.98,21.441
		c-0.235,0.785-1.118,2.394-2.467,4.258C146.743,107.108,137.514,97.905,133.524,97.042z"/>
	<path fill="none" stroke="#000000" stroke-miterlimit="10" d="M147.285,112.835c3.138-10.507-6.807-20.539-10.98-21.441
		c-15.763-3.41-22.113,4.93-26.994,12.435c-4.879,7.504-4.599,5.844-0.09,11.418c5.143,6.358,11.271,5.792,21.032,6.327
		C140.012,122.112,146.469,115.569,147.285,112.835z"/>
	<path fill="#42C3D2" d="M132.624,107.537c0,3.075-0.668,10.891-8.172,11.018c-7.503,0.128-8.003-4.481-8.169-8.967
		s-1.417-15.586,6.837-15.889C131.374,93.397,132.624,94.852,132.624,107.537z"/>
	<path fill="#A9D9C4" d="M124.528,118.554c-2.364,0.041-4.03-0.391-5.213-1.138l3.281-5.327c0.367,0.535,0.941,0.875,1.877,0.851
		c1.015-0.025,1.61-0.735,1.978-1.632l3.896,4.587C129.13,117.411,127.297,118.508,124.528,118.554z"/>
	<path fill="#188CB8" d="M125.4,96.754c4.779,0.092,7.71,3.435,7.208,6.342c-0.553,3.192-4.27,6.514-9.227,6.727
		c-6.185,0.266-7.877-2.752-7.147-6.492C116.697,100.975,121.328,96.889,125.4,96.754"/>
	<path d="M127.182,108.202c0,1.416-0.207,5.013-2.533,5.071c-2.327,0.06-2.481-2.062-2.534-4.127
		c-0.051-2.064-0.439-7.176,2.12-7.314S127.182,102.362,127.182,108.202z"/>
	<path fill="#FFFFFF" d="M125.435,93.657c4.378,0.092,7.062,3.438,6.603,6.346c-0.507,3.194-3.911,6.518-8.452,6.73
		c-5.665,0.266-6.654-2.72-6.546-6.496C117.184,95.193,121.702,93.792,125.435,93.657"/>
	<path fill="none" stroke="#000000" stroke-miterlimit="10" d="M132.622,107.537c0,3.075-0.668,10.891-8.172,11.018
		c-7.503,0.128-8.003-4.481-8.169-8.967s-1.417-15.586,6.837-15.889C131.372,93.397,132.622,94.852,132.622,107.537z"/>
	<path fill="#D0EEF7" d="M42.363,112.835c-3.138-10.507,6.807-20.539,10.98-21.441c15.763-3.41,22.113,4.93,26.994,12.435
		c4.879,7.504,3.75,5.253,0.09,11.418s-11.271,5.792-21.032,6.327C49.635,122.112,43.178,115.569,42.363,112.835z"/>
	<path fill="#C1D7D0" d="M56.124,97.042c15.763-3.41,22.113,4.93,26.994,12.435c0.16,0.246,0.297,0.455,0.444,0.681
		c0.209-1.177-0.698-2.447-3.221-6.327C75.46,96.324,69.11,87.984,53.347,91.394c-4.174,0.902-14.118,10.935-10.98,21.441
		c0.235,0.785,1.118,2.394,2.467,4.258C42.905,107.108,52.133,97.905,56.124,97.042z"/>
	<path fill="none" stroke="#000000" stroke-miterlimit="10" d="M42.363,112.835c-3.138-10.507,6.807-20.539,10.98-21.441
		c15.763-3.41,22.113,4.93,26.994,12.435c4.879,7.504,4.599,5.844,0.09,11.418c-5.143,6.358-11.271,5.792-21.032,6.327
		C49.635,122.112,43.178,115.569,42.363,112.835z"/>
	<path fill="#42C3D2" d="M57.024,107.537c0,3.075,0.668,10.891,8.172,11.018c7.503,0.128,8.003-4.481,8.169-8.967
		s1.417-15.586-6.837-15.889C58.274,93.397,57.024,94.852,57.024,107.537z"/>
	<path fill="#A9D9C4" d="M65.12,118.554c2.364,0.041,4.03-0.391,5.213-1.138l-3.281-5.327c-0.367,0.535-0.941,0.875-1.877,0.851
		c-1.015-0.025-1.61-0.735-1.978-1.632l-3.896,4.587C60.517,117.411,62.35,118.508,65.12,118.554z"/>
	<path fill="#188CB8" d="M64.248,96.754c-4.779,0.092-7.71,3.435-7.208,6.342c0.553,3.192,4.27,6.514,9.227,6.727
		c6.185,0.266,7.877-2.752,7.147-6.492C72.951,100.975,68.32,96.889,64.248,96.754"/>
	<path d="M62.465,108.202c0,1.416,0.207,5.013,2.533,5.071c2.327,0.06,2.481-2.062,2.534-4.127c0.051-2.064,0.439-7.176-2.12-7.314
		S62.465,102.362,62.465,108.202z"/>
	<path fill="#FFFFFF" d="M64.212,93.657c-4.378,0.092-7.062,3.438-6.603,6.346c0.507,3.194,3.911,6.518,8.452,6.73
		c5.665,0.266,6.654-2.72,6.546-6.496C72.463,95.193,67.946,93.792,64.212,93.657"/>
	<path fill="none" stroke="#000000" stroke-miterlimit="10" d="M57.026,107.537c0,3.075,0.668,10.891,8.172,11.018
		c7.503,0.128,8.003-4.481,8.169-8.967s1.417-15.586-6.837-15.889C58.276,93.397,57.026,94.852,57.026,107.537z"/>
</g>
<g id="Whiskers">
	<path fill="none" stroke="#000000" stroke-miterlimit="10" d="M71.011,140.022c3.203-4.114-46.316-14.008-40.059-13.334"/>
	<path fill="none" stroke="#000000" stroke-miterlimit="10" d="M45.787,153.188c14.596-8.687,19-11.942,25.225-10.333"/>
	<path fill="none" stroke="#000000" stroke-miterlimit="10" d="M115.602,132.754c0,0,40.527-30.879,70.121-27.019"/>
	<path fill="none" stroke="#000000" stroke-miterlimit="10" d="M118.655,139.936c-3.203-4.114,46.316-14.008,40.059-13.334"/>
	<path fill="none" stroke="#000000" stroke-miterlimit="10" d="M144.879,153.102c-14.596-8.687-19-11.942-25.225-10.333"/>
	<path fill="none" stroke="#000000" stroke-miterlimit="10" d="M74.064,132.84c0,0-40.527-30.879-70.12-27.019"/>
</g>
<g id="Cap">
	<path fill="#18322C" d="M38.266,71.406c0,3.023,5.18,2.377,12.09,0.974c6.908-1.403,37.782-5.723,46.85-5.939
		c9.067-0.216,53.326,8.636,54.839,8.204c1.512-0.431,4.93,0.393,5.36-4.572c0.306-3.51-0.125-34.566-20.698-52.39
		c-8.527-7.387-20.514-12.501-37.342-12.438C80.78,5.314,67.897,9.915,58.92,16.64C40.154,30.697,38.451,54.042,37.401,64.713
		C37.003,68.747,38.266,71.406,38.266,71.406z"/>
	<path fill="#23503B" d="M40.166,74.557c0-6.983,1.122-48.202,32.792-58.368c8.351-2.68,9.98-0.614,8.351,2.056
		s-15.56,23.205-15.56,52.82C65.749,75.598,40.166,74.557,40.166,74.557z"/>
	<path fill="#1F7153" d="M154.27,74.556c0-7.039-1.136-48.636-33.213-58.883c-8.457-2.701-10.108-0.618-8.457,2.072
		c1.65,2.692,15.76,23.436,15.76,53.29C128.359,75.605,154.27,74.556,154.27,74.556z"/>
	<path fill="#23503B" d="M70.447,65.274c0,0-5.774,6.75,3.509,4.929c9.285-1.822,12.74-2.115,21.592-2.271
		c8.851-0.157,25.476,2.901,28.714,2.586c3.238-0.314,1.498-0.07,1.066-6.751c-0.433-6.68-7.797-33.887-14.876-39.555
		c-7.078-5.666-8.213-3.762-10.155-2.142c-1.943,1.619-1.728-1.825-6.262-1.823c-4.533,0.001-2.806,1.212-6.261,0
		c-3.454-1.213-4.387-1.312-5.613,2.228C73.741,46.764,70.041,61.413,70.447,65.274z"/>
	<path fill="none" stroke="#000000" stroke-miterlimit="10" d="M38.265,71.406c0,3.023,5.182,2.377,12.091,0.974
		s37.783-5.723,46.851-5.939c9.068-0.216,53.326,8.636,54.839,8.204c1.512-0.431,5.181,0.393,5.612-4.572
		c0.249-2.861-0.076-24.033-11.393-41.415c-8.317-12.775-22.572-23.504-46.9-23.412c-24.386,0.092-38.955,7.984-47.766,18.243
		C39.66,37.388,38.293,55.635,37.4,64.713C37.005,68.747,38.265,71.406,38.265,71.406z"/>
	<path fill="#1F7153" d="M155.496,72.497c-0.065-0.054-0.118-0.106-0.183-0.172c-1.706-1.49-3.809-3.003-6.242-4.493
		c-7.658-4.698-18.47-9.149-29.593-12.046c-7.573-1.984-15.296-3.249-22.246-3.39c-12.441-0.257-20.54,2.092-31.094,7.069
		c-4.901,2.315-10.329,5.201-16.968,8.655c-0.075,0.043-0.15,0.086-0.227,0.118c-0.182,0.097-0.353,0.192-0.536,0.278
		c-0.933,0.493-1.888,0.987-2.863,1.49c-1.544,0.794-3.143,1.621-4.815,2.468c-0.012,0.011-0.021,0.011-0.032,0.021
		c-1.018,0.29-2.006-0.066-2.959-0.908c-0.02,4.469,0.483,8.351,1.772,11.02c0,0,3.932,9.295,18.233,3.574
		c14.302-5.72,30.033-8.938,38.256-8.938s32.178,4.363,38.97,5.399c6.793,1.036,18.233,8.187,21.81-8.617
		c0.114-0.539,0.211-1.083,0.294-1.631L155.496,72.497z"/>
	<path fill="none" stroke="#000000" stroke-miterlimit="10" d="M155.496,72.497c-0.065-0.054-0.118-0.106-0.183-0.172
		c-1.706-1.49-3.809-3.003-6.242-4.493c-7.658-4.698-18.47-9.149-29.593-12.046c-7.573-1.984-15.296-3.249-22.246-3.39
		c-12.441-0.257-20.54,2.092-31.094,7.069c-4.901,2.315-10.329,5.201-16.968,8.655c-0.075,0.043-0.15,0.086-0.227,0.118
		c-0.182,0.097-0.353,0.192-0.536,0.278c-0.933,0.493-1.888,0.987-2.863,1.49c-1.544,0.794-3.143,1.621-4.815,2.468
		c-0.012,0.011-0.021,0.011-0.032,0.021c-1.018,0.29-2.006-0.066-2.959-0.908c-0.02,4.469,0.483,8.351,1.772,11.02
		c0,0,3.932,9.295,18.233,3.574c14.302-5.72,30.033-8.938,38.256-8.938s32.178,4.363,38.97,5.399
		c6.793,1.036,18.233,8.187,21.81-8.617c0.114-0.539,0.211-1.083,0.294-1.631L155.496,72.497z"/>
	<path fill="#6FC5B4" d="M139.097,76.332c0.086,0.021,0.183,0.043,0.269,0.053c0.107,0.033,0.215,0.054,0.312,0.076
		c2.488,0.632,6.617,1.866,5.803,2.863c-1.169,1.427-4.045-0.516-14.931-0.183c-1.362,0.043-2.649-0.064-3.862-0.278
		c-5.673-1.009-9.835-4.333-12.945-5.985c-2.563-1.362-19.435-2.21-24.059-2.692c13.73-1.63,28.96,1.33,41.445,4.236
		c0.269,0.065,0.547,0.129,0.805,0.194c1.565,0.375,3.218,0.782,4.986,1.189c0.323,0.075,0.645,0.161,0.966,0.236
		c0,0,0.033,0.011,0.086,0.021c0.14,0.032,0.279,0.063,0.418,0.097C138.626,76.212,138.861,76.278,139.097,76.332z"/>
	<path fill="#6FC5B4" d="M128.567,60.561c6.199,0.644,4.473,5.181,4.13,5.824c-0.344,0.644,1.726,5.18-4.13,4.858
		c-1.458-0.074-2.703-0.3-3.829-0.59c-3.368-0.868-5.62-2.327-9.235-2.327c-4.815,0,2.746-4.526-1.04-7.766
		c-3.775-3.239-5.502-3.239,1.727-3.561c1.856-0.086,3.164,0.064,4.194,0.343C123.354,58.158,123.966,60.078,128.567,60.561z"/>
	<path fill="#23503B" d="M80.571,76.962c-6.458,0.645-7.744,0.387-20.519,6.2c-12.774,5.803-15.221,1.931-15.734,0
		c0,0-0.901-2.456,2.444-2.338c3.358,0.129,5.814-0.118,15.617-3.347c9.804-3.218,29.389-1.673,29.389-1.673
		S87.017,76.32,80.571,76.962z"/>
	<path fill="#23503B" d="M47.733,71.402c0.054,4.409,2.649,4.29,2.263,6.039c-0.386,1.748-1.737,1.684-3.023,1.029
		c-1.974-1.009-2.296-2.725-2.114-6.908c0.977-0.504,1.932-0.997,2.864-1.49C47.723,70.533,47.723,70.972,47.733,71.402z"/>
	<path fill="#23503B" d="M61.474,66.868c0.344,3.015,4.645,4.859,6.36,4.697c1.717-0.172-14.962,6.544-18.404,3.187
		c-1.052-1.019-1.599-3.282-1.834-6.093c6.639-3.453,12.066-6.339,16.968-8.655c-0.011,0.107-0.075,0.203-0.172,0.322
		C63.533,61.323,61.12,63.842,61.474,66.868z"/>
	<path fill="none" stroke="#000000" stroke-miterlimit="10" d="M118.908,55.786c-7.572-1.984-15.296-3.249-22.245-3.39
		c-12.441-0.257-20.54,2.092-31.095,7.069c-4.9,2.315-10.329,5.201-16.968,8.655c-0.075,0.043-0.15,0.086-0.226,0.118
		c-0.183,0.097-0.354,0.192-0.536,0.278c-0.17,0.09-0.351,0.182-0.521,0.271c0.003,0.905,0.032,1.73,0.073,2.442
		c0.504,8.398,10.715,3.604,29.164-1.437c2.509-0.688,5.104-1.17,7.765-1.481c13.729-1.63,28.959,1.33,41.444,4.237
		c0.269,0.064,0.547,0.129,0.805,0.193c1.727,0.407,3.39,0.805,4.987,1.19c0.322,0.075,0.644,0.161,0.966,0.235
		c0.021,0,0.053,0.012,0.086,0.021c0.139,0.033,0.278,0.064,0.418,0.097c0.236,0.054,0.472,0.118,0.708,0.172
		c0.086,0.021,0.182,0.043,0.268,0.054c0.108,0.032,0.215,0.053,0.312,0.075c10.404,2.316,12.721-2.081,13.129-6.35
		c0.032-0.34,0.04-0.674,0.051-1.008C139.91,62.756,129.556,58.558,118.908,55.786z"/>
	<path fill="#192528" d="M85.138,13.86c0,0-3.64-2.701,0.74-1.138c4.381,1.562,16.743-2.976,22.437-5.062
		c5.694-2.085,7.124,4.259,4.86,5.71c-5.92,3.795-8.801,3.712-11.43,3.712C99.118,17.083,85.138,13.86,85.138,13.86z"/>
	<path fill="#23503B" stroke="#000000" stroke-miterlimit="10" d="M109.957,9.654c0,2.521-6.244,3.296-13.945,3.296
		c-7.705,0-13.947-0.775-13.947-3.296c0-2.521,6.242-8.114,13.947-8.114C103.713,1.54,109.957,7.132,109.957,9.654z"/>
	<path fill="#6FC5B4" d="M97.522,7.413c0,0-0.907,2.755,3.636,2.38c4.545-0.377,3.818-1.253,3.818-2.38
		c0-1.124-1.849-2.752-3.741-2.752C99.341,4.661,97.706,5.036,97.522,7.413z"/>
	<path fill="#23503B" d="M129.685,55.176c0,0-1.217,5.054,10.905-4.006c3.164-2.364,3.19-6.15,0.726-12.236
		c-6.216-15.358-9.936-16.257-25.717-22.768c-5.479-2.261,8.512,12.564,10.583,21.104C128.254,45.808,129.685,55.176,129.685,55.176
		z"/>
	<path fill="#1F7153" d="M106.299,39.035c2.75-3.792-1.194-5.79-0.368-13.032c0.733-6.422,8.619,10.263,9.354,13.646
		c0.732,3.385,3.666,5.355,2.016,7.489c-1.649,2.136-5.684,4.872-11.919,3.788c-6.236-1.086-1.649,0.053-0.918-2.792
		C105.197,45.291,103.754,42.54,106.299,39.035z"/>
	<path fill="#18322C" d="M53.71,52.377c-3.803-3.567,3.288-11.628,2.146-18.442c-1.014-6.043-8.638,10.287-9.653,13.47
		c-1.014,3.186-5.098,17.501-2.815,19.509c2.281,2.009,10.027-5.596,17.984-8.746c0,0,2.283,0.049,1.269-2.627
		C61.626,52.866,57.227,55.675,53.71,52.377z"/>
</g>
</svg>
