<?xml version="1.0" encoding="UTF-8" standalone="no"?>
<!DOCTYPE svg PUBLIC "-//W3C//DTD SVG 1.1//EN" "http://www.w3.org/Graphics/SVG/1.1/DTD/svg11.dtd">
<svg width="100%" height="100%" viewBox="0 0 1280 800" version="1.1" xmlns="http://www.w3.org/2000/svg" xmlns:xlink="http://www.w3.org/1999/xlink" xml:space="preserve" xmlns:serif="http://www.serif.com/" style="fill-rule:evenodd;clip-rule:evenodd;stroke-linecap:round;stroke-linejoin:round;stroke-miterlimit:1.5;">
    <g id="Bloblayer">
        <path id="Rect" d="M222.509,7.771L31.448,184.967L113.9,273.871L304.961,96.675L222.509,7.771Z" style="fill:url(#_Linear1);"/>
        <path id="Star" d="M255.1,55.618L269.777,77.069L262.052,126.935L296.223,89.805L322.145,87.906L314.525,112.755L270.722,137.807L321.057,141.373L338.704,160.455L314.525,169.991L267.628,151.364L296.223,192.94L292.307,218.635L269.777,205.676L255.1,157.397L240.423,205.676L217.892,218.635L213.976,192.94L242.571,151.364L195.674,169.991L171.495,160.455L189.142,141.373L239.477,137.807L195.674,112.755L188.054,87.906L213.976,89.805L248.147,126.935L240.423,77.069L255.1,55.618Z" style="fill:none;stroke:rgb(0,119,255);stroke-width:5.5px;"/>
        <path id="Cogtransparent" d="M126.602,13.475C119.808,12.543 112.919,12.543 106.125,13.475C104.727,21.772 104.847,30.047 106.484,38.3C101.387,39.312 96.476,41.099 91.922,43.601C87.871,36.226 82.643,29.81 76.239,24.352C70.435,28.005 65.158,32.434 60.552,37.515C64.815,44.77 70.226,51.032 76.785,56.302C73.531,60.353 70.917,64.879 69.036,69.723C61.193,66.677 53.064,65.122 44.65,65.058C42.553,71.587 41.356,78.372 41.094,85.224C49.023,88.042 57.193,89.361 65.605,89.182C65.716,94.377 66.624,99.524 68.296,104.443C60.33,107.152 53.104,111.186 46.617,116.545C49.207,122.895 52.652,128.862 56.856,134.279C64.74,131.341 71.847,127.1 78.176,121.556C81.6,125.464 85.604,128.824 90.047,131.517C85.686,138.712 82.743,146.448 81.219,154.723C87.285,157.922 93.759,160.279 100.462,161.726C104.613,154.408 107.331,146.591 108.615,138.275C113.75,139.068 118.977,139.068 124.112,138.275C125.396,146.591 128.114,154.408 132.266,161.726C138.969,160.279 145.443,157.922 151.508,154.723C149.984,146.448 147.041,138.712 142.68,131.517C147.124,128.824 151.127,125.464 154.552,121.556C160.88,127.1 167.987,131.341 175.872,134.279C180.076,128.862 183.521,122.895 186.11,116.545C179.624,111.186 172.397,107.152 164.431,104.443C166.104,99.524 167.011,94.377 167.122,89.182C175.534,89.361 183.705,88.042 191.633,85.224C191.371,78.372 190.175,71.587 188.077,65.058C179.663,65.122 171.535,66.677 163.691,69.723C161.81,64.879 159.197,60.353 155.943,56.302C162.502,51.032 167.913,44.77 172.175,37.515C167.57,32.434 162.292,28.005 156.489,24.352C150.084,29.81 144.857,36.226 140.806,43.601C136.252,41.099 131.34,39.312 126.243,38.3C127.881,30.047 128,21.772 126.602,13.475ZM116.364,49.993C137.396,49.993 154.471,67.068 154.471,88.1C154.471,109.132 137.396,126.207 116.364,126.207C95.332,126.207 78.257,109.132 78.257,88.1C78.257,67.068 95.332,49.993 116.364,49.993Z" style="fill:rgb(36,162,51);stroke:black;stroke-width:5.5px;"/>
        <path id="Cogvisible" d="M332.794,17.947C326,17.015 319.11,17.015 312.317,17.947C310.918,26.245 311.038,34.52 312.675,42.773C307.579,43.784 302.667,45.572 298.113,48.073C294.062,40.698 288.835,34.282 282.43,28.825C276.627,32.478 271.349,36.906 266.744,41.988C271.006,49.242 276.417,55.505 282.976,60.774C279.722,64.825 277.109,69.352 275.228,74.195C267.384,71.15 259.256,69.595 250.842,69.531C248.744,76.06 247.548,82.844 247.286,89.697C255.214,92.515 263.384,93.834 271.797,93.654C271.907,98.849 272.815,103.997 274.488,108.916C266.521,111.625 259.295,115.659 252.809,121.018C255.398,127.368 258.843,133.334 263.047,138.752C270.932,135.814 278.039,131.573 284.367,126.028C287.792,129.937 291.795,133.296 296.239,135.99C291.877,143.185 288.935,150.92 287.411,159.195C293.476,162.395 299.95,164.751 306.653,166.199C310.805,158.88 313.522,151.063 314.807,142.748C319.942,143.541 325.168,143.541 330.304,142.748C331.588,151.063 334.306,158.88 338.457,166.199C345.16,164.751 351.634,162.395 357.7,159.195C356.176,150.92 353.233,143.185 348.871,135.99C353.315,133.296 357.319,129.937 360.743,126.028C367.072,131.573 374.179,135.814 382.063,138.752C386.267,133.334 389.712,127.368 392.302,121.018C385.815,115.659 378.589,111.625 370.623,108.916C372.295,103.997 373.203,98.849 373.314,93.654C381.726,93.834 389.896,92.515 397.824,89.697C397.563,82.844 396.366,76.06 394.269,69.531C385.855,69.595 377.726,71.15 369.882,74.195C368.002,69.352 365.388,64.825 362.134,60.774C368.693,55.505 374.104,49.242 378.366,41.988C373.761,36.906 368.484,32.478 362.68,28.825C356.276,34.282 351.048,40.698 346.997,48.073C342.443,45.572 337.532,43.784 332.435,42.773C334.072,34.52 334.192,26.245 332.794,17.947ZM322.555,54.466C343.587,54.466 360.662,71.541 360.662,92.572C360.662,113.604 343.587,130.679 322.555,130.679C301.523,130.679 284.448,113.604 284.448,92.572C284.448,71.541 301.523,54.466 322.555,54.466Z" style="fill:rgb(36,162,51);stroke:black;stroke-width:5.5px;"/>
        <path id="BlobCurve" d="M40.833,62.376C-25.802,80.258 38.004,152.221 67.489,147.794C96.973,143.367 172.815,89.223 161.578,155.164C150.342,221.105 158.324,321.569 196.494,252.852C234.664,184.136 269.704,90.654 293.048,135.476C316.393,180.298 408.645,120.999 345.494,85.926C282.343,50.852 216.445,144.865 204.845,102.919C193.245,60.973 164.139,65.687 130.343,88.026C107.588,103.067 103.567,45.54 40.833,62.376Z" style="fill:rgb(160,162,36);fill-opacity:0.75;"/>
    </g>
    <g id="EyeLayer">
        <path d="M241.033,264.179C243.336,268.141 240.209,272.796 242.8,277.307C245.516,282.033 250.34,285.947 254.099,290.262C267.923,306.134 284.092,321.68 310.507,327.27C336.999,332.877 379.424,314.655 393.831,301.133C401.823,293.632 405.941,283.859 408.814,274.674C411.11,267.333 418.761,254.396 414.006,246.372C403.861,229.254 359.992,211.304 333.434,213.537C328.41,213.96 323.823,218.561 320.569,220.679C311.223,226.76 292.509,232.464 285.611,239.476C270.536,254.8 265.036,268.975 275.613,285.605C279.605,291.883 296.412,298.619 303.814,303.589C315.717,311.58 339.574,312.73 350.152,307.596C367.95,298.959 367.194,296.759 370.535,281.276C371.57,276.477 373.96,269.733 372.64,264.694C370.242,255.544 348.983,251.335 338.539,253.896C325.452,257.105 310.18,277.928 314.398,287.408C318.064,295.649 343.689,290.491 347.75,285.842C349.044,284.362 348.463,279.234 347.651,277.857C346.917,276.612 346.673,274.014 345.398,272.969C344.663,272.366 342.515,273.111 341.893,273.207C333.724,274.463 330.07,278.834 329.502,284.91" style="fill:none;stroke:black;stroke-opacity:0.5;stroke-width:9px;"/>
        <path d="M126.323,216.464C148.505,216.682 170.963,224.567 189.291,236.407C196.811,241.265 204.991,246.91 207.195,255.685C209.601,265.262 203.433,275.464 200.369,284.971C196.256,297.57 189.336,309.316 178.198,317.161C158.2,331.246 133.165,340.011 110.272,340.415C91.088,340.753 72.269,332.07 57.465,319.887C48.51,312.518 40.924,303.31 33.28,295.479C29.011,291.075 24.72,285.933 24.898,279.701C24.956,277.656 25.568,275.351 24.81,274.021C24.81,274.021 23.596,268.042 28.022,267.348C31.881,266.743 34.396,271.964 34.077,277.183C33.943,279.375 33.527,281.419 34.922,283.544C38.426,288.88 43.51,293.091 47.759,297.843C61.794,313.477 79.226,326.59 99.683,330.595C112.449,333.095 125.821,330.241 138.569,326.193C150.845,322.295 162.851,317.021 173.237,309.646C183.143,302.612 188.678,290.995 192.612,279.726C195.079,272.765 199.703,265.905 198.614,258.624C197.831,253.385 192.162,249.361 187.063,245.759C167.802,232.152 143.144,223.951 121.781,225.612C117.025,225.982 113.363,230.528 109.181,233.014C99.237,238.925 87.35,241.683 78.082,248.867C73.6,252.34 69.954,257.223 67.129,261.702C63.807,266.967 61.608,273.259 62.572,279.556C63.377,284.815 65.585,290.162 69.712,293.388C77.021,299.103 86.161,302.235 93.996,307.458C105.071,314.839 120.88,315.838 132.954,312.264C139.864,310.219 147.313,306.239 150.118,301.48C153.264,296.14 153.456,289.363 155.063,282.862C156.074,278.697 157.628,273.851 154.042,270.933C145.965,264.36 132.135,263.23 124.293,266.985C115.655,271.122 108.343,279.638 106.195,288.807C105.726,290.81 104.565,293.166 108.1,294.233C109.699,294.716 111.396,294.843 113.082,294.872C113.082,294.872 113.412,295.182 113.02,294.218C112.883,293.882 112.788,293.53 112.735,293.171C112.074,288.622 116.11,281.743 120.835,279.035C123.532,277.49 126.634,276.891 129.63,276.188C132.012,275.647 134.681,275.796 136.443,277.56C137.956,279.076 138.405,281.311 139.249,283.246C139.249,283.246 143.219,293.312 137.38,297.75C128.826,304.25 115.282,304.981 107.206,303.283C102.407,302.274 97.788,298.791 97.022,293.509C95.757,284.775 101.292,275.976 107.279,269.217C113.993,261.636 122.651,256.179 133.718,256.272C142.038,256.342 150.523,257.977 157.496,262.363C162.913,265.77 165.982,272.297 164.89,279.705C164.042,285.456 162.421,291.077 161.136,296.787C159.456,304.254 155.36,310.705 147.743,315.12C142.401,318.216 136.766,320.956 130.72,321.991C116.055,324.504 99.895,321.921 88.361,314.527C80.18,309.344 70.819,306.078 63.31,299.785C54.217,292.164 51.411,277.545 54.846,266.716C58.83,254.156 68.532,243.366 79.019,237.646C89.086,232.156 100.225,228.753 109.351,221.896C114.093,218.363 119.345,216.431 126.323,216.464ZM130.312,285.26C129.609,285.371 128.909,285.507 128.22,285.691C124.967,286.558 122.062,289.227 121.679,292.838C121.679,292.838 121.765,292.859 121.432,294.02C121.432,294.02 127.715,293.305 131.663,290.772C131.663,290.772 131.857,289.212 131.367,287.597C131.121,286.832 130.707,285.192 130.312,285.26Z"/>
    </g>
    <defs>
        <linearGradient id="_Linear1" x1="0" y1="0" x2="1" y2="0" gradientUnits="userSpaceOnUse" gradientTransform="matrix(62.4043,152.972,-152.972,62.4043,155.778,62.0262)"><stop offset="0" style="stop-color:white;stop-opacity:1"/><stop offset="0.05" style="stop-color:rgb(222,177,255);stop-opacity:1"/><stop offset="0.11" style="stop-color:rgb(191,101,255);stop-opacity:1"/><stop offset="0.29" style="stop-color:rgb(177,68,255);stop-opacity:1"/><stop offset="0.75" style="stop-color:rgb(175,255,0);stop-opacity:1"/><stop offset="1" style="stop-color:white;stop-opacity:1"/></linearGradient>
    </defs>
</svg>
