<?xml version="1.0" encoding="UTF-8" standalone="no"?>
<!DOCTYPE svg PUBLIC "-//W3C//DTD SVG 1.1//EN" "http://www.w3.org/Graphics/SVG/1.1/DTD/svg11.dtd">
<svg width="100%" height="100%" viewBox="0 0 1280 800" version="1.1" xmlns="http://www.w3.org/2000/svg" xmlns:xlink="http://www.w3.org/1999/xlink" xml:space="preserve" xmlns:serif="http://www.serif.com/" style="fill-rule:evenodd;clip-rule:evenodd;stroke-linejoin:round;stroke-miterlimit:2;">
    <g id="Layer2" serif:id="Layer 2">
        <path d="M61.391,0L50.414,2.859L61.391,149.536L78.795,149.536C109.419,149.536 134.242,116.061 134.242,74.767C134.242,33.475 109.419,0 78.795,0L61.391,0Z" style="fill:url(#_Linear1);fill-rule:nonzero;"/>
        <path d="M9.71,75.739C9.71,116.461 34.335,149.522 64.666,149.522C94.998,149.522 119.623,116.461 119.623,75.739C119.623,35.017 94.998,1.956 64.667,1.956C34.335,1.956 9.71,35.017 9.71,75.739Z" style="fill:url(#_Linear2);"/>
        <path d="M0,75.498C0,116.087 26.073,149.04 58.188,149.04C90.304,149.04 116.377,116.087 116.377,75.498C116.377,34.909 90.304,1.956 58.189,1.956C26.073,1.956 0,34.909 0,75.498Z" style="fill:url(#_Linear3);"/>
        <path d="M14.74,74.437C14.74,106.101 34.894,131.808 59.717,131.808C84.54,131.808 104.694,106.101 104.694,74.437C104.694,42.773 84.54,17.066 59.717,17.066C34.894,17.066 14.74,42.773 14.74,74.437Z" style="fill:url(#_Linear4);"/>
        <path d="M17.752,74.274C17.752,104.414 36.937,128.883 60.568,128.883C84.2,128.883 103.385,104.414 103.385,74.275C103.385,44.135 84.2,19.666 60.569,19.666C36.937,19.666 17.752,44.135 17.752,74.274Z" style="fill:url(#_Linear5);"/>
        <path d="M20.502,74.021C20.502,103.595 38.597,127.605 60.886,127.605C83.175,127.605 101.27,103.595 101.27,74.022C101.27,44.448 83.175,20.438 60.886,20.438C38.597,20.438 20.502,44.448 20.502,74.021Z" style="fill:url(#_Linear6);"/>
        <path d="M52.385,31.652C51.174,31.652 50.191,32.634 50.191,33.846L50.191,113.076C50.191,114.288 51.174,115.27 52.385,115.27L64.697,115.27C66.159,115.27 68.013,112.833 68.013,112.833L52.385,112.833L52.385,34.089L68.013,34.089C68.013,34.089 66.159,31.652 64.697,31.652L52.385,31.652Z" style="fill:url(#_Linear7);fill-rule:nonzero;"/>
        <rect x="52.385" y="34.089" width="6.384" height="78.744" style="fill:url(#_Linear8);"/>
        <rect x="58.769" y="34.089" width="9.244" height="78.744" style="fill:url(#_Linear9);"/>
    </g>
    <defs>
        <linearGradient id="_Linear1" x1="0" y1="0" x2="1" y2="0" gradientUnits="userSpaceOnUse" gradientTransform="matrix(-6.5e-06,147.865,-147.865,-6.5e-06,92.3281,1.01745)"><stop offset="0" style="stop-color:rgb(245,217,32);stop-opacity:1"/><stop offset="0" style="stop-color:rgb(245,217,32);stop-opacity:1"/><stop offset="0.08" style="stop-color:rgb(244,233,71);stop-opacity:1"/><stop offset="0.16" style="stop-color:rgb(252,250,215);stop-opacity:1"/><stop offset="0.32" style="stop-color:rgb(230,197,30);stop-opacity:1"/><stop offset="0.5" style="stop-color:rgb(155,125,45);stop-opacity:1"/><stop offset="0.62" style="stop-color:rgb(112,88,35);stop-opacity:1"/><stop offset="0.74" style="stop-color:rgb(120,96,38);stop-opacity:1"/><stop offset="0.81" style="stop-color:rgb(180,135,44);stop-opacity:1"/><stop offset="0.88" style="stop-color:rgb(196,169,47);stop-opacity:1"/><stop offset="1" style="stop-color:rgb(153,127,46);stop-opacity:1"/></linearGradient>
        <linearGradient id="_Linear2" x1="0" y1="0" x2="1" y2="0" gradientUnits="userSpaceOnUse" gradientTransform="matrix(-6.4e-06,145.917,-145.917,-6.4e-06,64.666,2.95983)"><stop offset="0" style="stop-color:rgb(238,210,30);stop-opacity:1"/><stop offset="0.17" style="stop-color:rgb(248,239,94);stop-opacity:1"/><stop offset="0.35" style="stop-color:rgb(198,150,44);stop-opacity:1"/><stop offset="0.47" style="stop-color:rgb(162,110,41);stop-opacity:1"/><stop offset="0.84" style="stop-color:rgb(73,66,24);stop-opacity:1"/><stop offset="1" style="stop-color:rgb(245,213,47);stop-opacity:1"/></linearGradient>
        <linearGradient id="_Linear3" x1="0" y1="0" x2="1" y2="0" gradientUnits="userSpaceOnUse" gradientTransform="matrix(-6.4e-06,145.44,-145.44,-6.4e-06,58.1885,2.9569)"><stop offset="0" style="stop-color:rgb(211,168,42);stop-opacity:1"/><stop offset="1" style="stop-color:rgb(251,237,80);stop-opacity:1"/></linearGradient>
        <linearGradient id="_Linear4" x1="0" y1="0" x2="1" y2="0" gradientUnits="userSpaceOnUse" gradientTransform="matrix(-5e-06,113.459,-113.459,-5e-06,59.7168,17.8465)"><stop offset="0" style="stop-color:rgb(248,237,37);stop-opacity:1"/><stop offset="0.17" style="stop-color:rgb(249,214,8);stop-opacity:1"/><stop offset="0.29" style="stop-color:rgb(187,126,42);stop-opacity:1"/><stop offset="0.49" style="stop-color:rgb(151,107,40);stop-opacity:1"/><stop offset="0.66" style="stop-color:rgb(187,124,42);stop-opacity:1"/><stop offset="0.77" style="stop-color:rgb(236,202,25);stop-opacity:1"/><stop offset="0.88" style="stop-color:rgb(249,237,98);stop-opacity:1"/><stop offset="1" style="stop-color:rgb(252,250,214);stop-opacity:1"/></linearGradient>
        <linearGradient id="_Linear5" x1="0" y1="0" x2="1" y2="0" gradientUnits="userSpaceOnUse" gradientTransform="matrix(-4.7e-06,107.996,-107.996,-4.7e-06,60.5684,20.409)"><stop offset="0" style="stop-color:rgb(177,101,39);stop-opacity:1"/><stop offset="0.1" style="stop-color:rgb(204,127,41);stop-opacity:1"/><stop offset="0.44" style="stop-color:rgb(98,57,20);stop-opacity:1"/><stop offset="0.67" style="stop-color:rgb(198,138,43);stop-opacity:1"/><stop offset="1" style="stop-color:rgb(245,213,47);stop-opacity:1"/></linearGradient>
        <linearGradient id="_Linear6" x1="0" y1="0" x2="1" y2="0" gradientUnits="userSpaceOnUse" gradientTransform="matrix(-4.6e-06,105.968,-105.968,-4.6e-06,60.8857,21.1678)"><stop offset="0" style="stop-color:rgb(211,168,42);stop-opacity:1"/><stop offset="1" style="stop-color:rgb(251,237,80);stop-opacity:1"/></linearGradient>
        <linearGradient id="_Linear7" x1="0" y1="0" x2="1" y2="0" gradientUnits="userSpaceOnUse" gradientTransform="matrix(-3.6e-06,82.6836,-82.6836,-3.6e-06,59.1016,32.2206)"><stop offset="0" style="stop-color:rgb(246,219,55);stop-opacity:1"/><stop offset="0.04" style="stop-color:rgb(203,136,42);stop-opacity:1"/><stop offset="0.47" style="stop-color:rgb(179,126,43);stop-opacity:1"/><stop offset="0.96" style="stop-color:rgb(168,123,43);stop-opacity:1"/><stop offset="1" style="stop-color:rgb(242,215,61);stop-opacity:1"/></linearGradient>
        <linearGradient id="_Linear8" x1="0" y1="0" x2="1" y2="0" gradientUnits="userSpaceOnUse" gradientTransform="matrix(-3.4e-06,77.8631,-77.8631,-3.4e-06,55.5781,34.6258)"><stop offset="0" style="stop-color:rgb(75,44,17);stop-opacity:1"/><stop offset="0.03" style="stop-color:rgb(99,60,21);stop-opacity:1"/><stop offset="0.43" style="stop-color:rgb(114,75,29);stop-opacity:1"/><stop offset="0.97" style="stop-color:rgb(131,87,34);stop-opacity:1"/><stop offset="1" style="stop-color:rgb(219,186,38);stop-opacity:1"/><stop offset="1" style="stop-color:rgb(219,186,38);stop-opacity:1"/></linearGradient>
        <linearGradient id="_Linear9" x1="0" y1="0" x2="1" y2="0" gradientUnits="userSpaceOnUse" gradientTransform="matrix(-3.4e-06,77.8631,-77.8631,-3.4e-06,63.3906,34.6258)"><stop offset="0" style="stop-color:rgb(138,83,33);stop-opacity:1"/><stop offset="0.04" style="stop-color:rgb(164,110,41);stop-opacity:1"/><stop offset="0.43" style="stop-color:rgb(183,140,45);stop-opacity:1"/><stop offset="0.75" style="stop-color:rgb(222,183,37);stop-opacity:1"/><stop offset="1" style="stop-color:rgb(219,186,38);stop-opacity:1"/><stop offset="1" style="stop-color:rgb(219,186,38);stop-opacity:1"/></linearGradient>
    </defs>
</svg>
