<?xml version="1.0" encoding="utf-8"?>
<!-- Generator: Adobe Illustrator 16.0.4, SVG Export Plug-In . SVG Version: 6.00 Build 0)  -->
<!DOCTYPE svg PUBLIC "-//W3C//DTD SVG 1.1//EN" "http://www.w3.org/Graphics/SVG/1.1/DTD/svg11.dtd">
<svg version="1.1" xmlns="http://www.w3.org/2000/svg" xmlns:xlink="http://www.w3.org/1999/xlink" x="0px" y="0px" width="841.9px"
	 height="595.3px" viewBox="0 0 841.9 595.3" enable-background="new 0 0 841.9 595.3" xml:space="preserve">
<g id="Layer_5" display="none">
	<path display="inline" d="M101.8,113.6c-2.2,0-4-2.8-5.6-8.3c-0.6-2.1-1.4-5.8-2.3-11.1c-2.4,0.3-17.8,1.2-17.8,1.2
		c-1.2,3.1-4.1,10-7,15.9c-0.8,1.3-1.8,2-3.1,2c-0.9,0-1.8-0.3-2.5-1s-1.1-1.5-1.1-2.5c0-1.1,14.2-29.4,18.3-35.9
		c5.6-8.9,9-13.3,10.4-13.3c1.9,0,3.1,1.3,3.8,3.9l2.2,11.8l5.2,24.4l2,5.6c0.7,1.9,1,3.2,1,3.8c0,1-0.4,1.9-1.1,2.5
		C103.5,113.2,102.7,113.6,101.8,113.6z M89.4,73.4l-9,14.5c3.7-1,5.8,0.2,11.8-0.9L89.4,73.4z"/>
	<path display="inline" d="M141.6,111.1c-5.3,2.1-12,3.1-20.2,3.1c-1,0-2-0.5-2.9-1.4c-0.9-0.9-1.4-1.9-1.4-2.9V99.6
		c0-3.4,0.2-8.1,0.6-14.3c0.5-6.7,0.7-11.6,0.8-14.6c0-2.2,0.1-5.4,0.4-9.6c0.2-1.2,0.6-1.9,1.2-2.3c3.2-1,6.8-1.5,10.9-1.5
		c4.1,0,8.1,1.4,11.9,4.2c4.4,3.2,6.6,7.2,6.6,12c0,6-1.7,12.3-8.5,12.3c5.5,0,8.6,4.5,10,6.7c1.3,2,2,4.1,2,6.3
		c0,2.8-1.5,5.6-4.6,8.2C146.2,108.8,144,110.2,141.6,111.1z M135.4,88.6c-3.4-1.2-9.4-1.3-10.8-1.5c-0.1,3-0.4,10.3-0.4,12.6v7.3
		c6.1-0.2,11.1-1.1,15-2.6c1.6-0.6,3.2-1.6,4.7-3c1.4-1.2,1.6-2,1.6-2.6c0-1.1-1.2-3.6-3.4-5.8C139.7,90.7,137.7,89.4,135.4,88.6z
		 M131,64.4c-2.6,0-4.3,0.1-5.4,0.2l-0.1,6.2L125,81.3c3.3,0.3,6.9-0.4,7.1-0.4c3.5-0.3,5.4-0.2,7.6-2.1c2.4-2.1,2.8-2.1,2.8-5.3
		c0-2.2-1.2-4.3-3.7-6.2S133.8,64.4,131,64.4z"/>
	<path display="inline" d="M194.7,73.1c-1.5,0-2.6-0.9-3.4-2.6c-0.7-1.5-1.3-2.4-1.8-2.7c-0.5-0.3-1.7-0.4-3.7-0.4
		c-3.4,0-7.2,2.6-11.3,7.8c-5.6,7-8.4,13.6-8.4,19.9c0,3,1,5.6,2.9,7.8c2,2.2,4.4,3.4,7.2,3.4c2.4,0,4.8-0.6,7.3-1.9
		c1.4-0.7,3.4-2.1,6.3-4.1c1.3-1,2.3-1.5,3-1.5c1,0,1.9,0.4,2.5,1.1c0.7,0.8,1,1.6,1,2.5c0,1.1-0.4,2-1.3,2.8
		c-6.2,5.5-12.4,8.2-18.8,8.2c-4.9,0-9-1.9-12.3-5.6c-3.2-3.6-4.9-7.9-4.9-12.8c0-7.9,3.3-16.1,10-24.4c5.6-7,11.2-10.4,16.8-10.4
		c1.1,0,2.2,0.1,3.1,0.2c6.1,0.2,9.2,6.1,9.2,8.9c0,1-0.3,1.8-0.8,2.5C196.8,72.6,195.9,73.1,194.7,73.1z"/>
	<path display="inline" d="M237.1,112.3c-3.6,2.5-8.8,3.7-15.6,3.7c-1.7,0-3.7-0.3-5.9-0.8c-2.6-0.6-4.6-1.5-6-2.5h-0.4
		c-1,0-1.9-0.4-2.5-1.1c-0.7-0.7-1-1.6-1-2.6c0-2.5,0.1-6.1,0.3-11.1c0.2-4.9,0.3-8.6,0.3-11.1c0-2.7-0.1-6.8-0.2-12.3
		s-0.2-9.5-0.2-12.3c0-1,0.5-2,1.5-3s2-1.6,3-1.6c18.9,0.3,26.3,9.9,31,14.6c5.5,5.6,6.2,12.8,6.2,19.5c0,4-0.9,7.9-2.8,11.5
		C242.9,107.1,240.4,110,237.1,112.3z M229.9,72.1c-4.9-3.2-7.6-5.2-16.7-5.1l0.2,10.1l0.1,10.1l-0.6,19.2c0.2,0.1,0.4,0.2,0.7,0.5
		c2.1,1.4,4.7,2.1,7.8,2.1c5.3,0,9.2-0.8,11.7-2.5c2.3-1.5,4.1-3.6,5.4-6.2c1.3-2.6,2-5.3,2-8.2C240.5,85.4,237.1,76.8,229.9,72.1z"
		/>
	<path display="inline" d="M290.4,65.2c-0.3,0-0.7-0.1-1.1-0.2c-4-1.1-7.8-1.7-11.5-1.7c-1.9,0-10.4,0.1-12.6,1.9
		c-1.2,0.9-0.8,3-0.8,3.9c0,3.3-0.2,7.7-0.6,13.4l8.4-0.5c4.5-0.5,7.3-0.7,8.3-0.7c1,0,1.9,0.3,2.6,1c0.7,0.7,1.1,1.5,1.1,2.6
		c0,2.1-1.1,3.3-3.2,3.6l-8.4,0.7l-9.2,0.5c-0.1,1.7-0.2,3.2-0.2,4.7c-0.1,1.5-0.1,2.9-0.1,4.2c0,5.2,0.4,8.2,1.1,9.1
		c0.6,0.7,2.4,1,5.5,1c1.5,0,3.6,0,6.6-0.1c2.9-0.1,5.1-0.1,6.6-0.1c0.5,0,1.2-0.1,2.1-0.2c0.9-0.2,1.6-0.2,2-0.2
		c2.5,0,3.7,1.2,3.7,3.7c0,2-1,3.2-3,3.6c-2.2,0.4-7,0.7-14.3,0.7c-7.3,0-11.9-1-14-2.9c-2.2-2.1-3.4-6.9-3.4-14.4
		c0-1.5,0-3.1,0.1-4.9c0.1-1.8,0.5-31.4,0.6-32.3c0.4-5.5,18.9-5.4,21.1-5.4c5.7,0,10.2,0.7,13.6,2c1.6,0.6,2.4,1.8,2.4,3.4
		c0,0.9-0.3,1.8-0.9,2.5C292.3,64.8,291.4,65.2,290.4,65.2z"/>
	<path display="inline" d="M385.6,91.2c-1.5,7.2-4.5,12.9-9.2,17.2c-4.7,4.3-10.1,6.5-16.5,6.5c-5.8,0-10.1-1.6-13-4.8
		s-4.3-8.1-4.3-14.5c0-6.1,1.4-12.3,4.3-18.8c2.9-6.4,6.6-11.6,11.1-15.6c3-2.6,6.2-4,9.5-4c2.1,0,4.9,0.7,8.4,2.1
		c4.3,1.7,6.4,3.6,6.4,5.6c0,1-0.4,1.8-1.1,2.6c-0.7,0.8-1.5,1.1-2.5,1.1c-0.5,0-1.2-0.3-2.2-0.9c-3.6-2.2-6.6-3.3-9.1-3.3
		c-1.8,0-3.6,0.9-5.5,2.7c-1,0.9-2.3,2.6-4.1,5c-5.4,7.2-8.1,15-8.1,23.3c0,4.4,0.7,7.5,2,9.2c1.5,1.9,4.2,2.9,8.2,2.9
		c4.2,0,7.8-1.3,10.9-4c3.3-2.8,5.5-6.8,6.8-12.1c-6.5,0.3-12.1,1.6-16.7,3.8c-0.5,0.3-1.1,0.4-1.6,0.4c-1,0-1.9-0.4-2.6-1.2
		c-0.6-0.7-0.9-1.6-0.9-2.5c0-1.3,0.6-2.3,1.9-3.1c5.1-3.1,13.8-4.6,26.2-4.6c1,0,1.9,0.3,2.5,1c0.7,0.7,1,1.5,1,2.6
		C387.5,89.5,386.9,90.6,385.6,91.2z"/>
	<path display="inline" d="M440,63c-0.4,1-0.5,2.4-0.5,4.3c0,0.7,0,1.7,0.1,3.1c0,1.4,0.1,2.4,0.1,3.1c0,2.3-0.2,5.8-0.6,10.5
		s-0.6,8.1-0.6,10.5c0,1.8,0.1,4.5,0.4,8c0.3,3.6,0.4,6.2,0.4,8.1c0,1-0.3,1.8-1,2.4s-1.4,1-2.4,1c-0.9,0-1.7-0.3-2.4-1
		s-1-1.5-1-2.4c0-1.8-0.1-4.5-0.4-8.1c-0.3-3.6-0.4-6.2-0.4-8c0-1.7,0.1-3.4,0.2-5.2c-4,0.1-9,0.7-14.9,1.8L402.2,94
		c0,2.1-0.2,5.1-0.6,9c-0.4,3.9-0.6,6.9-0.6,9c0,1-0.3,1.8-1,2.4c-0.6,0.7-1.4,1-2.4,1c-1,0-1.8-0.3-2.4-1c-0.6-0.7-1-1.5-1-2.4
		c0-2.5,0.2-6.2,0.6-11.1c0.4-4.9,0.6-8.6,0.6-11.1c0-1.3,0-3.2-0.1-5.8c-0.1-2.6-0.1-4.6-0.1-5.9c0-1.9,0.1-4.6,0.4-8.3
		c0.2-3.7,0.4-6.5,0.4-8.3c0-1,0.3-1.8,1-2.5c0.6-0.7,1.4-1,2.4-1c1,0,1.8,0.3,2.4,1c0.6,0.7,1,1.5,1,2.5c0,1.9-0.1,4.7-0.4,8.4
		c-0.2,3.7-0.4,6.5-0.4,8.4l0.2,8.9l15.1-2.8c6-1.1,11.1-1.7,15.2-1.8c0.3-3.4,0.4-8.4,0.4-15.2c0-1.8,0.3-3.6,0.9-5.4
		c0.8-2.5,1.9-3.8,3.3-3.8c0.9,0,1.7,0.3,2.4,1c0.7,0.6,1.1,1.5,1.1,2.4C440.3,61.9,440.2,62.4,440,63z"/>
	<path display="inline" d="M477.8,68.7c-1.5,0-3.4-0.2-5.7-0.5l-5.7-0.7c-0.5,6.8-0.8,13.3-0.8,19.5c0,1.6,0,3.7,0.1,6.1
		c0.1,2.4,0.1,4.4,0.1,6.1c0,2.2-0.1,4.2-0.2,6l11.1-0.1c1,0,1.8,0.3,2.5,1c0.7,0.7,1,1.5,1,2.5c0,1-0.3,1.9-1,2.6
		c-0.7,0.7-1.5,1-2.5,1c-1.3,0-3.3,0-5.9,0.1c-2.6,0.1-4.6,0.1-5.9,0.1c-1.5,0-3.9,0.2-6.9,0.7c-3.1,0.4-5.4,0.7-7,0.7
		c-1,0-1.8-0.3-2.5-1s-1-1.5-1-2.5c0-1,0.3-1.9,1-2.6s1.5-1.1,2.5-1.1c1.5,0,4-0.2,7.6-0.7c0.2-1.9,0.4-4.1,0.4-6.5
		c0-1.6-0.1-3.6-0.2-5.9c-0.2-2.3-0.2-4.3-0.2-5.9c0-5.4,0.3-12.2,1-20.3l-4.6,0.1l-4.6,0.1c-1,0-1.9-0.3-2.5-1
		c-0.7-0.7-1-1.5-1-2.6c0-2.2,1.1-3.4,3.3-3.6c1.9-0.2,5.4-0.3,10.7-0.3c4.7,0,10.5,0.5,17.5,1.5c2.1,0.3,3.1,1.6,3.1,3.8
		c0,1.1-0.4,2-1.2,2.6C479.5,68.4,478.7,68.7,477.8,68.7z"/>
	<path display="inline" d="M525.5,67c-0.4,0-1.1-0.1-2.2-0.3s-1.8-0.3-2.4-0.3c-1.1,0-2.5,0-4,0.1l0.2,4.2c0,17.4-1.2,30.1-3.5,38.1
		c-1.5,5.2-4.3,7.9-8.1,7.9c-4.1,0-8.1-1.5-12.1-4.4c-4.4-3.3-6.6-7-6.6-11.3c0-2.9,1.2-4.3,3.6-4.3s3.6,1.4,3.6,4.3
		c0,1.9,1.4,3.9,4.1,5.8c2.6,1.8,5.2,2.7,7.5,2.7c1.9,0,3.3-5.9,4-17.7c0.4-5.6,0.5-12.6,0.5-21c0-0.7-0.1-1.9-0.2-3.8l-2.1,0
		c-0.9,0-2.3,0-4.1-0.1c-1.8-0.1-3.2-0.1-4.2-0.1c-1,0-1.9-0.3-2.6-1c-0.7-0.7-1.1-1.5-1.1-2.7c0-2.4,1.6-3.6,4.9-3.6
		c0.8,0,2,0,3.6,0.1s2.7,0.1,3.5,0.1c1.5,0,3.7-0.1,6.6-0.3s5.2-0.3,6.6-0.3c5.3,0,8,1.4,8,4.1c0,0.9-0.3,1.8-0.9,2.5
		C527.4,66.6,526.6,67,525.5,67z"/>
	<path display="inline" d="M571.9,113.9c-3.6,0-8.6-3.1-15.2-9.4L546.2,94v0.5l0,18.4c0,2.3-1,3.5-3.1,3.5c-1.3,0-2.4-0.6-3.2-1.8
		c-0.7-1-1-2-1-3.1c0-5.5,0.2-13.7,0.5-24.6c0.3-10.9,0.5-19.1,0.5-24.6c0-1,0.3-1.9,1-2.6s1.5-1.1,2.5-1.1c1,0,1.8,0.4,2.5,1.1
		s1,1.6,1,2.6c0,2.3-0.1,5.8-0.4,10.6c-0.3,4.6-0.4,8.2-0.4,10.7c3.1-3,6.7-6.7,10.7-11.2l10.1-11.7c0.8-0.9,1.7-1.4,2.7-1.4
		c0.9,0,1.8,0.4,2.5,1.1s1.1,1.6,1.1,2.6c0,1.5-3,5.7-9.1,12.4c-4.2,4.6-8.5,9-12.9,13.4c2.8,3,7.2,7.2,13.2,12.7l3.7,3.1
		c1.3,1,2.8,1.8,4.3,2.3c1.9,0.6,2.8,1.8,2.8,3.5c0,0.8-0.2,1.6-0.7,2.3C573.7,113.5,572.9,113.9,571.9,113.9z"/>
	<path display="inline" d="M611.4,111.1c-2.6,1.2-6.8,2.4-12.5,3.3c-5.2,0.9-9.5,1.4-12.8,1.4c-2.4,0-4.1-0.4-5.1-1.1
		c-1.4-1-2.1-2.8-2.1-5.4l0.7-11.6c0.6-10.7,0.9-22.6,0.9-35.7c0-1,0.3-1.9,1-2.6s1.5-1.1,2.5-1.1c1,0,1.8,0.4,2.5,1.1s1,1.6,1,2.6
		c0,13.2-0.3,25.3-0.9,36.1l-0.5,5.3c-0.2,1.9-0.3,3.7-0.2,5.2c6.1,0.1,13.9-1.4,23.2-4.3c0.4-0.1,0.8-0.2,1.1-0.2
		c1,0,1.9,0.4,2.5,1.2c0.6,0.7,0.9,1.6,0.9,2.5C613.6,109.3,612.9,110.4,611.4,111.1z"/>
	<path display="inline" d="M672.1,115.4c-1.3,0-2.3-0.7-3.1-2c-0.7-1.1-1.3-3-1.9-5.6l-1.3-6c-1-3.7-2.5-12-4.6-24.8l-7,21.2
		l-2.1,6.7c-0.8,2.6-1.7,4.8-2.6,6.5c-1,1.8-2.3,2.7-4,2.7c-1.4,0-2.5-0.8-3.3-2.2c-0.5-1-1-2.2-1.4-3.8l-1-3.9
		c-2.4-8.3-4.5-17.1-6.3-26.6l-1.3,6.3l-4.5,18.6c-0.2,2.2-0.8,5.4-1.8,9.7c-0.7,1.8-1.9,2.7-3.5,2.7c-1.1,0-2.1-0.4-2.7-1.2
		c-0.6-0.7-0.9-1.6-0.9-2.6c0-3.9,0.8-8.7,2.4-14.4l3.9-14.2l2-11.1c1-5.2,2.1-8.6,3.3-10.2c0.9-1.4,2.1-2,3.5-2
		c1.5,0,2.7,0.9,3.4,2.6c0.9,2.1,1.9,6.3,3,12.8c1.2,7.7,3.2,16.1,5.8,25c3.5-9,6.5-18.4,9-28.2l1.1-5.1c0.4-2.1,1-3.7,1.7-5
		c0.9-1.7,2.2-2.6,3.8-2.6c2,0,3.6,1.9,4.6,5.8c0.4,1.3,0.8,4.1,1.4,8.3c1.4,10.6,3.1,19.6,5.2,27.1l1.7,6c0.9,3.2,1.3,5.2,1.3,6
		c0,1-0.4,1.9-1.1,2.5C673.9,115.1,673.1,115.4,672.1,115.4z"/>
	<path display="inline" d="M732.7,104.7c0,1.1-0.2,3-0.6,5.6c-0.4,2.4-1.6,3.6-3.8,3.6c-1.3,0-2.8-0.8-4.6-2.5
		c-9.5-9-20.5-22-32.8-39.1l-0.2,8l-0.1,8c0,1.9,0,4.9,0.1,8.8c0.1,3.9,0.1,6.8,0.1,8.8c0,6.3-1.2,9.5-3.7,9.5
		c-1.3,0-2.3-0.4-3.1-1.2c-0.7-0.7-1-1.6-1-2.6c0-1,0.1-2.5,0.2-4.5c0.2-2,0.2-3.5,0.2-4.5c0-1.5,0-3.6,0.1-6.5
		c0.1-2.9,0.1-5.1,0.1-6.5c0-1.5,0-3.9-0.1-7s-0.1-5.5-0.1-7c0-1.5-0.1-3.7-0.4-6.6s-0.4-5.1-0.4-6.6c0-1.1,0.5-2.1,1.4-3
		c0.9-0.9,2-1.3,3.1-1.3c1.2,0,2.8,1.4,4.6,4.1c5.8,8.7,11.1,16,15.8,21.8c5.6,6.9,11.6,13.4,18.3,19.7c0.1-1,0.1-2.5,0-4.5
		l-0.1-4.4c0-10.3-0.4-18.5-1.2-24.6c-0.1-0.6-0.4-1.8-0.9-3.7c-0.5-1.6-0.7-2.8-0.7-3.7c0-2.7,1.2-4.1,3.7-4.1
		c4.1,0,6.1,7.6,6.1,22.8c0,2.6,0,6.5-0.1,11.7S732.7,102.1,732.7,104.7z"/>
	<path display="inline" d="M764.1,114.7c-6.6,0-12.2-2-16.8-5.9c-4.9-4.2-7.3-9.7-7.3-16.3c0-8.1,2.4-15.5,7.2-22.1
		c5.4-7.4,12.1-11,20.1-11c7.7,0,13.4,1.7,17.2,5.2c3.9,3.6,5.9,9.3,5.9,17.1c0,8.1-2.2,15.4-6.6,21.9
		C778.7,110.9,772.1,114.7,764.1,114.7z M767.3,66.5c-5.7,0-10.6,2.9-14.6,8.6c-3.7,5.3-5.5,11-5.5,17.4c0,4.5,1.7,8.2,5,11
		c3.2,2.7,7.2,4,11.9,4c5.7,0,10.4-2.9,14.1-8.6c3.3-5.1,5-10.9,5-17.3c0-5.6-1.3-9.5-3.8-11.8C777,67.5,773,66.5,767.3,66.5z"/>
	<path display="inline" d="M807.9,91.9c-0.7,0-2.1-0.2-4.3-0.5c-0.2,3.5-0.3,9.7-0.3,18.6c0,0.9-0.3,1.7-0.9,2.4s-1.4,1-2.3,1
		c-0.9,0-1.7-0.3-2.3-1s-0.9-1.4-0.9-2.4V99.7c0-3.4,0.2-8.3,0.6-14.6c0.5-6.8,0.7-11.6,0.8-14.6v-4.9c0-2.3,0.1-4,0.4-5.1
		c0.5-2.1,1.7-3,3.4-2.7c0.8-0.2,1.8-0.4,3.2-0.5c1.4-0.1,3.1-0.2,5.1-0.2c4.3,0,8.3,1.5,12.1,4.4c4.1,3.2,6.2,7.1,6.2,11.7
		c0,5.8-2.2,10.4-6.6,13.9C818.2,90.3,813.5,91.9,807.9,91.9z M809.7,64c-1,0-2,0-2.8,0.1c-0.8,0-1.5,0.1-2.1,0.2l-0.1,6.5l-0.7,14
		l3.9,0.5c3.9,0,7.3-1,9.9-3c3-2.2,4.4-5.1,4.4-8.8c0-2.6-1.4-4.9-4.2-6.8C815.5,64.8,812.7,64,809.7,64z"/>
	<path display="inline" d="M888.7,127.9c-1,0-3.8-2-8.3-6l-8.4-7.7c-4,1.6-7.9,2.4-11.8,2.4c-7.1,0-13.3-2.8-18.6-8.4s-8-12-8-19.1
		c0-8.4,3.1-15.5,9.4-21.3c6.1-5.7,13.3-8.5,21.6-8.5c8.8,0,15.4,3.3,19.9,9.8c3.8,5.6,5.8,12.9,5.8,21.8c0,7.8-3.8,14.3-11.4,19.6
		l7.7,7.1l4.5,3.9c0.9,0.8,1.3,1.8,1.3,2.7c0,1-0.4,1.8-1.1,2.6C890.6,127.5,889.8,127.9,888.7,127.9z M864.6,66.5
		c-6.4,0-12,2.1-16.6,6.4c-4.8,4.4-7.2,9.8-7.2,16.1c0,5.1,2,9.8,5.9,13.9c4,4.2,8.5,6.3,13.5,6.3c1.6,0,3.3-0.2,5-0.6
		c-4.5-3.9-6.8-7-6.8-9.3c0-1,0.4-1.9,1.1-2.6c0.8-0.7,1.6-1,2.5-1c1.1,0,2.1,0.6,3,1.7c2.3,3,4.9,5.7,7.9,8.1
		c6.7-3.9,10-8.8,10-14.7c0-7-1.4-12.6-4.3-16.9C875.5,69,870.8,66.5,864.6,66.5z"/>
	<path display="inline" d="M933.6,112.9c-0.9,0-1.7-0.4-2.5-1.1c-7.8-7.7-16.4-12.8-25.9-15.5l0.3,6.9l0.2,6.9c0,1-0.3,1.9-1,2.6
		s-1.5,1-2.5,1s-1.8-0.3-2.5-1s-1-1.6-1-2.6c0-1.9-0.1-4.6-0.3-8.3c-0.2-3.7-0.3-6.4-0.3-8.3c0-2.2,0.2-5.4,0.7-9.6
		c0.5-4.3,0.7-7.5,0.7-9.6c0-1.2-0.1-3-0.3-5.3c-0.2-2.3-0.3-4.1-0.3-5.3c0-1.3,0.4-2.5,1.1-3.5c0.9-1.2,2.1-1.8,3.7-1.7l8.5,0.7
		c3.2,0.4,5.9,1.2,8.1,2.4c9.5,5,14.2,11.2,14.2,18.5c0,3.6-1.6,6.7-4.9,9.5c-2.6,2.2-5.8,3.9-9.7,5c7.3,3.9,12.7,8,16.3,12.4
		c0.6,0.8,0.9,1.5,0.9,2.4c0,1-0.4,1.8-1.1,2.6S934.5,112.9,933.6,112.9z M911.2,66.4L906,66l0.4,4.3c0.2,1.7,0.2,3.2,0.2,4.3
		c0,1.9-0.2,4.2-0.5,7l-0.7,7c0.3,0,0.8,0,1.5,0c0.7,0,1.2,0,1.6,0c6,0,10.5-0.8,13.4-2.4c1.3-0.7,2.5-1.7,3.7-2.8
		c1.2-1.3,1.9-2.4,1.9-3.3c0-3.3-1.9-6.3-5.6-9.1C918.5,68.3,914.9,66.8,911.2,66.4z"/>
	<path display="inline" d="M943.9,103.8c0-1,0.3-1.8,1-2.4c0.7-0.6,1.5-0.9,2.5-0.9c1.1,0,2.2,0.7,3,2c1.2,1.8,2.3,3,3.2,3.6
		c2,1.3,4.9,2,8.7,2c3.6,0,7-0.8,10.1-2.4c4-2,6-4.8,6-8.4c0-3-1.7-5.3-5-7c-2.8-1.5-6.3-2.3-10.5-2.4c-3.7-0.1-6.9-0.9-9.5-2.4
		c-3.3-1.9-5-4.6-5-8.2c0-4.2,2.4-8,7.1-11.4c4.5-3.3,9.2-4.9,14-4.9c2.3,0,4.8,0.4,7.7,1.2c3.8,1,5.7,2.3,5.7,3.9
		c0,2.1-1.1,3.1-3.2,3.1c-0.9,0-2.6-0.3-4.9-0.8c-2.3-0.5-4.2-0.7-5.4-0.7c-3.7,0-6.8,0.9-9.3,2.7c-2.6,1.8-3.9,4-3.9,6.6
		c0,1.9,1.7,3.3,5.2,4.1c1.3,0.3,3.8,0.6,7.5,0.8c5.4,0.4,9.6,2.1,12.6,5.1c2.8,2.7,4.1,6,4.1,9.9c0,5.6-2.6,10-7.7,13.4
		c-4.5,2.9-9.7,4.3-15.6,4.3c-4.3,0-8.2-0.8-11.8-2.5C946.2,110,944,107.3,943.9,103.8z"/>
	<path display="inline" d="M1037,68.1c-1.7,0-4.4-0.1-8-0.4c-3.5-0.3-6.2-0.4-8-0.4h-2.5c0.1,3.2,0.4,8.5,0.9,15.8
		c0.5,6.8,0.8,12,0.8,15.8c0,0.8,0.1,2.1,0.2,3.7c0.2,1.7,0.2,2.9,0.2,3.8c0,1.6-0.3,3-0.8,4.1c-0.7,1.5-1.7,2.3-3.1,2.3
		c-0.9,0-1.8-0.3-2.5-1c-0.8-0.7-1.1-1.5-1.1-2.5c0-0.4,0.1-0.9,0.2-1.6s0.2-1.2,0.2-1.6c0-1.1-0.1-2.9-0.2-5.2
		c-0.2-2.3-0.2-4-0.2-5.2c0-3.4-0.3-8.1-0.8-14.1c-0.6-6.6-0.9-11.3-0.9-14.1l-3.2,0c-5.1,0-9.2-0.4-12.1-1.1
		c-1.9-0.5-2.8-1.7-2.8-3.5c0-1,0.3-1.8,0.9-2.5c0.7-0.8,1.6-1.2,2.7-1.1c0.8,0,2.7,0.3,5.6,0.6c2.3,0.3,4.2,0.4,5.7,0.4
		c1.4,0,3.5,0,6.4-0.1c2.9-0.1,5-0.1,6.4-0.1c1.8,0,4.5,0.1,8,0.4c3.6,0.3,6.2,0.4,8,0.4c1,0,1.9,0.3,2.5,1c0.7,0.7,1,1.6,1,2.6
		c0,1-0.3,1.9-1,2.5C1038.9,67.8,1038,68.1,1037,68.1z"/>
	<path display="inline" d="M1065.9,113.9c-7.3,0-12.7-2.1-16.3-6.3c-2.9-3.4-4.7-8.4-5.5-15c-0.4-3-0.5-8.9-0.5-17.8
		c0-3.3,0.1-5.9,0.2-7.9c0.1-2.1,0.4-3.6,0.6-4.5c0.6-1.7,1.6-2.6,3.2-2.6c2.2,0,3.2,2,3.2,5.9v20.6c0,14.2,5,21.3,14.9,21.3
		c9.4,0,14-12,14-35.9c0-0.9,0-2,0-3.4c0-1.4,0-2.3,0-2.8c0-1.5,0.3-2.7,0.8-3.8c0.7-1.4,1.6-2.1,2.9-2.1c2.3,0,3.5,1.6,3.5,4.8
		c0,1,0,2.4,0,4.4c0,1.9,0,3.4,0,4.4C1086.9,100.3,1079.9,113.9,1065.9,113.9z"/>
	<path display="inline" d="M1188,115.9c-1.1,0-2-0.3-2.8-0.9c-0.9-0.7-1.4-1.6-1.4-2.6c-1.1-2.8-1.8-5.1-2-6.9
		c-0.3-1.8-1.2-6.8-2.8-15.2c-1.2-6.3-2-11.4-2.4-15.2c-2.1,7.7-4.3,14.3-6.7,19.7c-2.8,6.2-4.6,11.1-5.4,14.6
		c0.3,0.5,0.4,1.1,0.4,1.6c0,1.1-0.5,1.9-1.4,2.6c-0.8,0.6-1.8,0.9-2.9,0.9c-3.2,0-4.7-1.4-4.7-4.3l-1.1-4.5l-3.8-17.2
		c-1.5-5.8-4.1-14.1-7.8-25c-0.2-0.5-0.2-1-0.2-1.4c0-2.2,1.2-3.3,3.7-3.3c1.5,0,2.7,0.8,3.5,2.5c0.4,0.8,1.3,3.3,2.6,7.3
		c1.4,4.2,2.8,9.4,4.1,15.3l3.4,15.5c2.5-5.8,5-12.9,7.5-21.2c1.5-5.1,2.7-8.6,3.5-10.6c2.1-5.2,4.2-7.8,6.2-7.8
		c1.6,0,2.8,0.8,3.5,2.5c0.8,2,1.7,6.8,2.6,14.4c0.5,3.8,1.3,8.5,2.4,13.9l3,13.8c3.1-7.5,7.1-17.8,11.8-30.6
		c0.3-0.7,0.8-2.9,1.8-6.6c0.7-2.7,1.5-4.9,2.5-6.4c0.8-1.3,1.9-1.9,3.3-1.9c2.4,0,3.6,1.2,3.6,3.5c0,0.4-0.4,1.6-1.1,3.5l-1.4,3.8
		l-1.9,6.3l-10.4,25.4c-1,2.8-2.6,6.8-5,12.2C1190.9,115.1,1189.7,115.9,1188,115.9z"/>
	<path display="inline" d="M1261.3,65.1c-3.1,3.8-5.6,6.9-7.2,9.4l-4.4,6.5c-1.7,2.4-3.3,4.5-4.8,6.2l7.7,11.3
		c3.1,4.5,5.8,8.1,8.2,11c0.6,0.8,0.9,1.6,0.9,2.4c0,1-0.4,1.8-1.1,2.6c-0.7,0.7-1.6,1.1-2.5,1.1c-0.9,0-1.7-0.4-2.5-1.1
		c-1.7-1.6-3.5-3.9-5.4-6.7l-4.7-7.2l-5.5-7.9l-12.1,14l-6.5,7.2c-0.8,0.8-1.6,1.2-2.6,1.2c-1,0-1.8-0.4-2.5-1.1
		c-0.7-0.7-1.1-1.6-1.1-2.6c0-0.8,0.3-1.6,0.9-2.4l6.3-7.1l13.2-15.3c-2.6-3.4-5.3-6.9-8.2-10.4l-4.1-5.5c-1.6-2.2-3.2-3.9-4.6-5.1
		c-1-0.8-1.5-1.8-1.5-2.8c0-1,0.3-1.8,1-2.6c0.7-0.8,1.5-1.1,2.5-1.1c2,0,4.5,2.1,7.6,6.4c1,1.4,2.4,3.5,4.4,6.1
		c2.7,3.2,5.2,6.4,7.6,9.6l8-11.2c5.2-7.2,8.6-10.9,10.1-10.9c1,0,1.8,0.4,2.5,1.1c0.7,0.7,1.1,1.6,1.1,2.6
		C1262.2,63.5,1261.9,64.3,1261.3,65.1z"/>
	<path display="inline" d="M1306.1,67.5c-0.6,0.9-1.3,2.3-2.2,4.1l-6,14.9c-2.3,5.6-4.5,10.5-6.6,14.7l-4.4,7.8l-1.9,3.8
		c-0.8,1.4-1.8,2-3.1,2c-0.9,0-1.7-0.3-2.5-1c-0.8-0.7-1.1-1.5-1.1-2.5c0-0.8,1.1-3.3,3.3-7.5l4.3-7.9c-4.2-5.4-6.9-9.7-8.2-12.8
		c-1.1-2.6-2.8-5.8-5.3-9.5c-3.4-5.1-5.4-8.1-5.9-9.2c-0.4-0.6-0.5-1.3-0.5-1.9c0-1,0.4-1.9,1.1-2.5c0.7-0.7,1.6-1,2.5-1
		c1.1,0,2.1,0.6,2.9,1.7l2.8,4.4c2.5,3.7,4.1,6.2,4.9,7.5c1.8,2.9,3.1,5.6,4.1,8c0.8,1.9,2.4,4.6,5,8l8.1-19.6
		c0.9-1.6,2.2-4.1,3.8-7.5c0.7-1.6,1.7-2.4,3.3-2.4c0.9,0,1.8,0.3,2.5,1c0.7,0.7,1.1,1.5,1.1,2.5C1308,63.7,1307.3,65.3,1306.1,67.5
		z"/>
	<path display="inline" d="M1355.1,68.5l-4.7,3.2c-4.3,3.3-9.1,8.6-14.5,15.9l-12.3,18c-0.6,0.9-1.2,1.7-1.7,2.5l13.7-0.5
		c6-0.3,10.5-0.4,13.7-0.4c3.1,0,5.4,0.1,6.9,0.4c1.9,0.4,2.9,1.3,3,2.9c0,1.1-0.3,2.1-1.1,2.7c-0.7,0.6-1.6,0.9-2.6,0.9
		c-0.7,0-1.7,0-3.1-0.1c-1.4-0.1-2.4-0.1-3.1-0.1c-3.6,0-8.9,0.1-16,0.3s-12.5,0.3-16,0.3c-2.7,0-4-1.2-4-3.6c0-1.5,0.7-3.5,2.2-5.8
		l3.8-5.2l12.7-17.6c5.2-6.9,10.1-12.3,14.6-16.1l-12.3,0.7h-14.2c-0.3,0-0.6,0-1.1,0.1s-0.9,0.1-1.1,0.1c-2.5,0-3.7-1.2-3.7-3.6
		c0-1.6,0.6-2.6,1.9-3.2c0.8-0.3,2.1-0.5,3.8-0.5c1.6,0,4,0.2,7.2,0.5c3.2,0.3,5.6,0.5,7.2,0.5c1.8,0,4.5-0.1,8.1-0.4
		c3.6-0.2,6.3-0.4,8.1-0.4c6,0,9,1.1,9,3.4C1359.2,64.7,1357.9,66.5,1355.1,68.5z"/>
	<path display="inline" d="M1382,113.9c-7.1,0-12.3-3.3-15.6-9.8c-2.5-5-3.7-11.5-3.7-19.6c0-6.8,1.6-12.7,4.9-17.8
		c3.8-5.9,9-8.9,15.6-8.9c6.2,0,11,2.6,14.4,7.9c3,4.5,4.5,10.1,4.5,16.6c0,10.5-1.7,18.4-5,23.6
		C1393.7,111.2,1388.7,113.9,1382,113.9z M1383.1,64.6c-4.4,0-7.8,2.2-10.4,6.6c-2.1,3.7-3.2,7.9-3.2,12.7c0,7.7,1,13.5,3.1,17.4
		s5.2,5.8,9.4,5.8c5,0,8.5-2.8,10.7-8.5c1.5-3.9,2.2-8.9,2.2-15c0-6.4-1-11.1-3-14.3S1387,64.6,1383.1,64.6z"/>
	<path display="inline" d="M1429.2,112.5h-7l-7,0c-1.6,0-2.8-0.1-3.4-0.3c-1.2-0.4-1.8-1.3-1.8-2.7c0-2.4,1.8-3.6,5.5-3.6l1.7,0
		l1.4,0.1c0-1.1-0.1-2.8-0.3-5c-0.2-2.2-0.3-3.9-0.3-5c0-3,0.3-7.5,0.8-13.6c0.5-6,0.8-10.5,0.7-13.6c-3.1,2.4-5.1,3.7-6,3.7
		c-0.9,0-1.8-0.4-2.4-1.1s-1-1.5-1-2.4c0-1.1,1-2.4,3-4c1.3-0.9,3.1-2.3,5.4-4.3c2.1-2.1,4-3.1,5.9-3.1c1.6,0,2.4,0.9,2.4,2.7
		c0,0.5-0.1,1.3-0.2,2.4c-0.1,1.1-0.2,1.9-0.2,2.4c0,0.8,0,1.9,0.1,3.5c0.1,1.6,0.1,2.7,0.1,3.5c0,2.7-0.3,6.7-0.8,12
		c-0.6,5.3-0.8,9.3-0.8,11.9c0,1.4,0.1,3,0.3,5c0.2,1.9,0.3,3.5,0.3,4.8l3.7-0.1c1,0,1.8,0.3,2.4,1c0.6,0.6,1,1.4,1,2.4
		c0,1-0.3,1.8-1,2.4S1430.2,112.5,1429.2,112.5z"/>
	<path display="inline" d="M1472.3,112.6c-0.6,0-1.4-0.2-2.5-0.5c-1.1-0.4-1.9-0.5-2.4-0.5c-1.2,0-3,0.1-5.4,0.2s-4.2,0.2-5.4,0.2
		c-0.9,0-2.3,0.1-4.1,0.4c-1.8,0.2-3.1,0.4-4.1,0.4c-0.3,0-0.6,0-1.1-0.1s-0.9-0.1-1.1-0.1c-1.6,0-2.7-0.8-3.2-2.4
		c-0.3-0.8-0.4-2.2-0.4-4.2c0-5.5,1.5-9.9,4.5-13.2c1.4-1.5,5-4.3,11-8.4c3.4-2.3,5.6-4.1,6.7-5.4c2-2.2,3-4.9,3-7.9
		c0-1.5-1-2.8-2.9-4c-1.7-1.1-3.4-1.6-5-1.6c-2.2,0-4.2,0.6-6.2,1.9l-5,3.9c-1,0.8-1.8,1.2-2.4,1.2c-2.4,0-3.6-1-3.6-2.9
		c0-1.1,0.4-2.1,1.3-2.8c2.7-2.6,5.1-4.4,7.1-5.6c2.8-1.6,5.8-2.4,8.8-2.4c3.8,0,7.2,1,10.2,3.1c3.3,2.3,5,5.3,5,8.9
		c0,2.4-0.3,4.6-1,6.6c-0.7,2-1.7,3.9-3.1,5.5c-1.8,2.1-4.7,4.5-8.9,7.1c-4.4,2.8-7.3,4.9-8.7,6.3c-2.6,2.7-3.9,6-3.8,9.8l7.2-0.7
		c5-0.3,8.5-0.4,10.7-0.4c1.8,0,3.5,0.3,5.1,0.9c2.1,0.8,3.2,2,3.2,3.4c0,0.9-0.3,1.7-0.9,2.4
		C1474.1,112.2,1473.3,112.6,1472.3,112.6z"/>
	<path display="inline" d="M1502.1,114.1c-3.5,0-6.7-0.7-9.5-2.2c-3.2-1.7-5.3-4.1-6.4-7.2c-0.1-0.4-0.2-0.8-0.2-1.2
		c0-0.9,0.4-1.7,1.1-2.3c0.7-0.6,1.5-0.9,2.5-0.9s1.7,0.4,2.4,1.3l1.6,2.4c0.8,1.1,2,2,3.4,2.6c1.4,0.6,3.1,0.9,5.1,0.9
		c2.6,0,4.8-0.8,6.7-2.4c2-1.7,3.1-3.7,3.1-6.2c0-3.5-1.3-6.4-3.9-8.5c-2.3-1.8-5.3-2.9-9.1-3.3c-2.6-0.3-3.9-1.3-3.9-3.2
		c0-1.4,1-2.4,3.1-3.2l8.4-2.1c1.6-0.6,2.8-1.4,3.7-2.4c0.8-1,1.2-2.2,1.3-3.6c0-2.1-0.8-3.7-2.4-5c-1.7-1.3-4.1-2-7.2-2
		c-1.6,0-3.1,0.4-4.6,1.2l-4,2.5c-0.8,0.5-1.4,0.7-1.9,0.7c-0.9,0-1.7-0.4-2.4-1.1c-0.7-0.7-1-1.5-1-2.4c0-1.9,1.8-3.6,5.4-5.3
		c3.1-1.5,5.7-2.3,7.7-2.3c5,0,9,1.1,12,3.3c3.2,2.4,4.7,5.8,4.7,10.2c0,5.5-2.2,9.1-6.7,10.9c-0.4,0.2-0.9,0.3-1.4,0.5
		c3.1,1.1,5.4,2.9,7,5.2s2.3,5.1,2.3,8.6c0,4.6-1.6,8.5-4.9,11.8S1506.8,114.1,1502.1,114.1z"/>
	<path display="inline" d="M1558.7,97.1v13c0,2.2-1.1,3.3-3.2,3.3c-2.5,0-3.7-1.7-3.7-5.1c0-0.4,0-1,0.1-1.8s0.1-1.3,0.1-1.6l0-8
		l-15.5-0.4c-3.2,0-5.4-0.1-6.7-0.3c-2.1-0.4-3.2-1.2-3.2-2.5c0-1.1,0.6-2.4,1.9-4l3-3.6l17.3-25.2c1.6-2.2,3.6-3.3,6-3.3
		c2.6,0,4,1.1,4,3.4v29.2c0.4,0,0.9,0,1.4,0c4.3,0,6.5,1.2,6.5,3.5c0,1.7-0.9,2.8-2.7,3.2C1563.1,97.2,1561.4,97.2,1558.7,97.1z
		 M1551.9,67.4c-6.3,10-11.1,17.5-14.7,22.4l14.7,0.4V67.4z"/>
	<path display="inline" d="M1588.5,114.7c-6.7,0-11.6-2.5-14.7-7.4c-0.4-0.7-0.6-1.3-0.6-2c0-0.9,0.4-1.7,1.1-2.4s1.5-1,2.5-1
		c1,0,1.9,0.5,2.7,1.5c1.2,1.5,2.2,2.5,2.8,2.9c1.5,1,3.6,1.5,6.2,1.5c4.1,0,7.4-1.5,10.1-4.6c2.6-3,3.8-6.5,3.8-10.7
		c0-3.4-0.6-6.2-1.7-8.3c-1.5-2.7-3.7-4-6.7-4c-2.5,0-4.6,0.3-6.2,1c-1.3,0.5-2.5,1.5-3.8,2.8l-3.8,4.2c-1,1.1-2.1,1.6-3.2,1.6
		c-0.9,0-1.7-0.3-2.4-1s-1-1.5-1-2.4c0-0.5,0.2-2.6,0.6-6.3c0.8-7.4,1.2-12.2,1.2-14.6c0-0.8-0.2-1.7-0.6-2.7
		c-0.4-1-0.6-1.7-0.6-2.2c0-1.4,1.2-2.1,3.7-2.1c0.5,0,1.2,0,2.1,0.1c0.9,0.1,1.7,0.1,2.1,0.1c1.4,0,3.4,0,6.1-0.1
		c2.7-0.1,4.8-0.1,6.1-0.1c0.6,0,1.6,0,2.9,0.1c1.3,0,2.2,0.1,2.9,0.1c0.4,0,1.1-0.1,1.9-0.3s1.5-0.3,1.9-0.3c0.9,0,1.7,0.3,2.4,1
		c0.7,0.7,1.1,1.5,1.1,2.4c0,2.6-2.8,3.9-8.3,3.9c-0.7,0-1.6,0-2.7-0.1c-1.1,0-1.8-0.1-2-0.1l-5.9,0.1l-5.9,0.2
		c0,1.1-0.4,5-1.3,11.7c3.2-2.6,7.5-3.8,12.8-3.8c5.2,0,9.1,2,11.8,6c2.3,3.4,3.4,7.8,3.4,13.1c0,6.3-1.9,11.5-5.6,15.6
		C1599.9,112.6,1594.8,114.7,1588.5,114.7z"/>
	<path display="inline" d="M1633.7,115c-6.1,0-10.6-2.2-13.5-6.7c-2.4-3.7-3.6-8.6-3.6-14.7c0-11.6,4.7-21.6,14.1-30.1l3.3-3.3
		c1.6-1.5,2.8-2.3,3.7-2.3c0.9,0,1.8,0.3,2.5,1s1.1,1.5,1.1,2.4c0,0.8-1.1,2.5-3.6,4.9l-7.2,7c-1.9,1.9-3.5,4.8-4.9,8.7
		c2-0.9,3.8-1.6,5.3-2.1s2.8-0.7,3.8-0.7c5.5,0,9.7,1.5,12.6,4.4c2.9,2.9,4.4,7.1,4.4,12.4c0,5.6-1.6,10.2-4.7,13.7
		C1643.6,113.2,1639.2,115,1633.7,115z M1633.7,86.2c-2,0-3.8,0.4-5.4,1.1c-0.6,0.3-2.1,1.2-4.6,2.7c-0.1,1.2-0.2,2.5-0.2,3.7
		c0,4.2,0.7,7.6,2.1,10.3c1.8,3.4,4.6,5.1,8.3,5.1c3.5,0,6.3-1.3,8.2-3.8c1.8-2.3,2.7-5.4,2.7-9.3c0-3.2-0.9-5.6-2.8-7.2
		C1640.2,87,1637.4,86.2,1633.7,86.2z"/>
	<path display="inline" d="M1697.2,66.6l-3.2,3.7c-3,3.6-5.8,7.9-8.4,12.9l-6.4,14c-0.4,1-1.4,3.7-3,8.1c-1.2,3.5-2.4,6.1-3.4,7.8
		c-0.7,1.1-1.6,1.7-2.8,1.7c-0.9,0-1.8-0.3-2.5-1c-0.7-0.7-1.1-1.4-1.1-2.4c0-0.9,0.8-3.2,2.2-6.9l7.9-19.4
		c3.5-7.7,7.1-13.6,10.8-17.7l0.7-0.7l-17.6-0.4l-7.9-0.2c-2.3-0.2-3.4-1.3-3.4-3.4c0-1,0.3-1.8,1-2.4s1.5-0.9,2.5-0.9
		c3,0,7.4,0.1,13.3,0.3c5.9,0.2,10.4,0.3,13.3,0.3h6.4c2.5,0,3.7,0.7,3.7,2.2C1699.3,63.4,1698.6,64.8,1697.2,66.6z"/>
	<path display="inline" d="M1722.2,114.4c-4.9,0-8.9-1.1-12-3.2c-3.5-2.4-5.2-6-5.3-10.7c-0.1-7.6,2.6-12.7,8-15.5
		c-4.2-2.5-6.3-6.1-6.3-10.8c0-4.4,1.6-8.1,4.8-11c3.1-2.8,6.8-4.2,11.2-4.3c9.8-0.1,14.8,4.8,14.8,14.6c0,2.8-0.6,5-1.7,6.5
		c-0.9,1.3-2.7,2.6-5.3,3.9c3.5,1.8,5.9,3.7,7.3,5.7c1.6,2.4,2.5,5.7,2.5,9.9c0,4.8-1.8,8.5-5.3,11.2
		C1731.6,113.2,1727.3,114.4,1722.2,114.4z M1721.8,87.4c-3.7,1.7-6.2,3.2-7.5,4.5c-1.9,1.9-2.9,4.7-2.7,8.2c0.1,2.9,1.4,5.1,4,6.6
		c1.9,1,4.1,1.5,6.5,1.5c4.1,0,7-1,8.6-2.9c1.3-1.5,2-3.9,2-7c0-3.1-1.2-5.5-3.6-7.4C1727.6,89.6,1725.2,88.4,1721.8,87.4z
		 M1722.5,65.2c-3,0-5.3,0.9-6.9,2.6c-1.4,1.6-2.1,3.8-2.1,6.5c0,3.3,2.7,5.6,8.1,7c2.8-0.8,4.8-1.6,6-2.5c1.9-1.3,2.9-3.1,2.9-5.3
		c0-3.2-0.7-5.4-2.1-6.7C1727.1,65.7,1725.2,65.2,1722.5,65.2z"/>
	<path display="inline" d="M1772.1,108.3c-1.7,1.3-4.5,2.8-8.2,4.6c-4.2,2-7.1,3-8.8,3c-1,0-1.8-0.4-2.4-1.1s-0.9-1.5-0.9-2.5
		c0-1.4,0.8-2.4,2.4-3.1l5.9-2c3.6-1.5,6.5-3.2,8.6-5.1c2.1-1.9,4-4.7,5.8-8.2l1.5-3c-1.3,0.8-3,1.4-5.1,2.1s-3.7,0.9-5,0.9
		c-4.4,0-8.3-1.2-11.5-3.7c-3.9-3-5.9-7.3-5.9-12.8c0-6.5,2-11.4,6-14.7c3.4-2.8,8-4.2,13.6-4.2c4.3,0,8.2,1.8,11.6,5.3
		c3.6,3.7,5.4,8.2,5.4,13.5c0,6-1.1,11.7-3.3,17.3C1779.4,100.7,1776.2,105.2,1772.1,108.3z M1767.1,64.5c-3.9,0-6.9,1-8.9,3.1
		s-3,5.1-3,9.2c0,3.4,1.2,6.1,3.6,8c2.1,1.7,4.8,2.5,8.1,2.5c1.9,0,3.8-0.6,5.9-1.7c0.9-0.5,2.6-1.7,5.1-3.5c0.3-2,0.5-3.7,0.5-4.9
		c0-2.9-1.3-5.8-3.7-8.6C1772.1,65.9,1769.6,64.5,1767.1,64.5z"/>
	<path display="inline" d="M336.9,58.6c-3.4-1.4-7.9-2-13.6-2c-2.2,0-20.6-0.1-21.1,5.4c-0.1,0.9-0.7,47.3-0.7,50c0,1,0.3,1.9,1,2.5
		c0.7,0.7,1.5,1,2.5,1c1,0,1.8-0.3,2.5-1c0.7-0.7,1-1.5,1-2.5c0,0,0.3-21.1,0.4-21.7l9.2-0.5l8.4-0.7c2.2-0.3,3.2-1.5,3.2-3.6
		c0-1.1-0.4-2-1.1-2.6c-0.7-0.7-1.6-1-2.6-1c-1,0-3.8,0.2-8.3,0.7l-8.4,0.5c0.4-5.7,0.6-10.2,0.6-13.4c0-0.9-0.4-3,0.8-3.9
		c2.1-1.7,10.6-1.9,12.6-1.9c3.7,0,7.5,0.6,11.5,1.7c0.4,0.1,0.8,0.2,1.1,0.2c1,0,1.9-0.4,2.5-1.2c0.6-0.7,0.9-1.6,0.9-2.5
		C339.3,60.4,338.5,59.3,336.9,58.6z"/>
	<path display="inline" d="M403.1-40.3c-6.6,0-12.2-2-16.8-5.9c-4.9-4.2-7.3-9.7-7.3-16.3c0-8.1,2.4-15.5,7.2-22.1
		c5.4-7.4,12.1-11,20.1-11c7.7,0,13.4,1.7,17.2,5.2c3.9,3.6,5.9,9.3,5.9,17.1c0,8.1-2.2,15.4-6.6,21.9
		C417.6-44.1,411.1-40.3,403.1-40.3z M406.2-88.5c-5.7,0-10.6,2.9-14.6,8.6c-3.7,5.3-5.5,11-5.5,17.4c0,4.5,1.7,8.2,5,11
		c3.2,2.7,7.2,4,11.9,4c5.7,0,10.4-2.9,14.1-8.6c3.3-5.1,5-10.9,5-17.3c0-5.6-1.3-9.5-3.8-11.8C416-87.5,411.9-88.5,406.2-88.5z"/>
	
		<line display="inline" fill="none" stroke="#8DC63F" stroke-width="0.25" stroke-miterlimit="10" x1="-112.2" y1="-15.5" x2="-112.2" y2="57.3"/>
	
		<line display="inline" fill="none" stroke="#8DC63F" stroke-width="0.25" stroke-miterlimit="10" x1="-70.7" y1="-13.5" x2="-70.7" y2="54.5"/>
	<path display="inline" d="M100.4-19.5c-1.9,1.2-4.9,2.7-9,4.5c-4.6,2-7.8,3-9.5,3c-1,0-1.9-0.3-2.6-1s-1-1.5-1-2.4
		c0-1.4,0.9-2.4,2.6-3.1l6.4-2c4-1.5,7.1-3.1,9.4-5c2.3-1.9,4.4-4.6,6.3-8.1l1.6-3c-1.4,0.7-3.3,1.4-5.5,2c-2.2,0.6-4.1,0.9-5.5,0.9
		c-4.8,0-9-1.2-12.5-3.6c-4.3-3-6.4-7.1-6.4-12.6c0-6.4,2.2-11.3,6.6-14.5c3.8-2.7,8.7-4.1,14.8-4.1c4.7,0,8.9,1.7,12.6,5.2
		c3.9,3.7,5.9,8.1,5.9,13.3c0,5.9-1.2,11.5-3.6,17.1C108.4-27,104.8-22.5,100.4-19.5z M94.9-62.5c-4.3,0-7.5,1-9.7,3
		c-2.2,2-3.2,5-3.3,9.1c0,3.4,1.3,6,3.9,7.9c2.3,1.6,5.2,2.5,8.8,2.5c2,0,4.2-0.6,6.4-1.7c1-0.5,2.9-1.6,5.5-3.4
		c0.3-2,0.5-3.6,0.5-4.8c0-2.9-1.4-5.7-4-8.4C100.4-61.2,97.7-62.5,94.9-62.5z"/>
</g>
<g id="MenloCourier" display="none">
	<g display="inline">
		<path d="M1418.5-22.1c-0.3,0-0.5,0.1-0.7,0.1c-0.2,0-0.3,0-0.4,0c-0.7,0-1.3-0.2-1.8-0.6c-0.5-0.4-0.7-1-0.7-1.6
			c0-0.6,0.2-1.1,0.6-1.5s1-0.7,1.7-0.9l10.4-2.8c0.3-0.1,0.5-0.1,0.8-0.2s0.5-0.1,0.8-0.1c0.4,0,0.8,0.2,1.1,0.6
			c0.3,0.4,0.4,1,0.4,1.7v38h5.6c2.1,0,3.4,0.2,4,0.5c0.6,0.3,0.8,1,0.8,1.9c0,0.8-0.2,1.5-0.7,1.9s-1.2,0.6-2.1,0.6h-21
			c-0.9,0-1.6-0.2-2.1-0.6s-0.7-1.1-0.7-1.9c0-0.9,0.3-1.6,0.8-1.9c0.6-0.3,1.9-0.5,4-0.5h5.8v-34.3L1418.5-22.1z"/>
		<path d="M1457.9,15.7c-1.2,0-2.2-0.3-2.8-0.8c-0.6-0.5-0.9-1.3-0.9-2.3c0-1.5,2.2-4.4,6.8-8.6l1-1c0.7-0.7,1.7-1.6,3-2.8
			c8.1-7.6,12.2-13.2,12.2-16.7c0-2.5-0.7-4.5-2.1-6.1c-1.4-1.6-3.3-2.3-5.6-2.3c-1.5,0-2.9,0.3-4.2,0.9c-1.3,0.6-2.4,1.4-3.3,2.5
			c-0.1,0.2-0.4,0.5-0.7,0.9c-0.9,1.6-1.8,2.4-2.9,2.4c-0.8,0-1.4-0.3-1.8-0.8c-0.4-0.5-0.5-1.5-0.5-3c0-0.8,0.1-1.5,0.2-1.8
			s0.5-0.8,0.9-1.2c1.5-1.5,3.4-2.6,5.6-3.5c2.2-0.9,4.5-1.3,6.8-1.3c3.9,0,7.1,1.3,9.8,3.8c2.6,2.5,3.9,5.6,3.9,9.3
			c0,4.6-4,10.7-12,18.3c-2,1.9-3.6,3.4-4.7,4.5l-4.3,4.2h16.1c0.1-1,0.4-1.8,0.8-2.3c0.5-0.5,1.1-0.8,1.8-0.8s1.4,0.3,1.8,0.8
			c0.4,0.5,0.7,1.2,0.7,2.1c0,0.1,0,0.2,0,0.4s0,0.3,0,0.4l-0.3,2.7c-0.1,0.7-0.3,1.3-0.6,1.7c-0.4,0.4-0.8,0.6-1.4,0.6H1457.9z"/>
		<path d="M1518.8-8.5c2.7,0.8,4.9,2.1,6.4,4.1c1.5,2,2.3,4.4,2.3,7.3c0,4.1-1.5,7.5-4.4,10.1c-2.9,2.6-6.7,3.9-11.3,3.9
			c-3.6,0-6.7-0.7-9.5-2.1s-4.2-2.9-4.2-4.5c0-0.7,0.3-1.3,0.8-1.7s1.1-0.7,1.8-0.7c0.4,0,1.8,0.6,4.3,1.8s4.8,1.8,7,1.8
			c2.8,0,5.1-0.8,6.8-2.4c1.7-1.6,2.6-3.7,2.6-6.2c0-2.1-0.6-3.8-1.8-5.3s-2.9-2.4-5-2.8c-0.6-0.1-1.5-0.2-2.5-0.3
			c-2-0.1-3-0.9-3-2.5c0-1.4,1-2.2,2.9-2.4c0.8-0.1,1.4-0.2,1.9-0.2c1.8-0.3,3.3-1,4.4-2.2c1.1-1.2,1.7-2.7,1.7-4.4
			c0-2.2-0.7-4-2.1-5.4s-3.1-2.1-5.3-2.1c-2,0-4,0.6-6.1,1.8c-2.1,1.2-3.4,1.8-3.9,1.8c-0.7,0-1.2-0.2-1.6-0.6s-0.7-0.9-0.7-1.6
			c0-1.4,1.3-2.9,3.9-4.3c2.6-1.4,5.5-2.1,8.7-2.1c3.7,0,6.7,1.1,9.1,3.3s3.6,4.9,3.6,8.2c0,2.5-0.6,4.5-1.7,6.1
			C1523.1-10.7,1521.3-9.4,1518.8-8.5z"/>
		<path d="M1555.7,15.7c-1.1,0-1.9-0.2-2.3-0.5c-0.4-0.4-0.6-1-0.6-2c0-0.8,0.2-1.5,0.6-1.8s1.1-0.6,2-0.6h4.1V4.8h-16.4
			c-0.6,0-1-0.2-1.4-0.6c-0.3-0.4-0.5-0.9-0.5-1.6V0.2c0-0.9,0.3-1.9,1-3c0.1-0.2,0.2-0.3,0.3-0.5l14.8-25.2c0.3-0.6,0.6-1,0.8-1.1
			c0.2-0.2,0.5-0.2,0.8-0.2c0.1,0,0.4,0,0.7,0.1c0.1,0,0.2,0,0.3,0.1l3.6,0.6c0.3,0,0.6,0.2,0.8,0.5s0.3,0.7,0.3,1.2v26.7h1.8
			c0.5,0,0.9-0.2,1.2-0.6c0.3-0.4,0.6-0.6,0.9-0.6c0.5,0,0.9,0.2,1.2,0.5s0.5,0.8,0.5,1.3c0,0.2,0,0.4,0,0.6s-0.1,0.4-0.1,0.5
			l-0.3,1.4c-0.2,0.8-0.4,1.4-0.7,1.7c-0.3,0.3-0.8,0.5-1.5,0.5h-3v5.9h1.2c1.5,0,2.5,0.2,3.1,0.5c0.6,0.4,0.8,1,0.8,1.9
			c0,0.8-0.2,1.5-0.7,1.9s-1.2,0.6-2.1,0.6H1555.7z M1559.5-0.5v-23.8l-13.3,23.8H1559.5z"/>
		<path d="M1591.8-11.8c1.5-0.6,3-1,4.3-1.2c1.3-0.3,2.6-0.4,3.8-0.4c4.1,0,7.5,1.4,10.2,4.3s4.1,6.4,4.1,10.6
			c0,4.5-1.5,8.2-4.5,11.1c-3,2.9-6.9,4.4-11.6,4.4c-3.9,0-7.2-0.5-9.9-1.6s-4-2.4-4-3.9c0-0.6,0.2-1.2,0.7-1.6
			c0.5-0.5,1.1-0.7,1.7-0.7c0.3,0,1.6,0.5,4.1,1.4c2.5,0.9,4.8,1.4,6.9,1.4c3.1,0,5.7-0.9,7.6-2.8c2-1.9,2.9-4.3,2.9-7.3
			c0-2.9-0.9-5.3-2.8-7.3s-4.2-2.9-7-2.9c-2.1,0-4.2,0.5-6.2,1.6s-3.3,1.6-3.7,1.6c-0.7,0-1.2-0.3-1.5-0.8c-0.3-0.5-0.4-1.5-0.4-2.8
			v-17.5c0-0.8,0.2-1.3,0.7-1.7c0.5-0.3,1.3-0.5,2.5-0.5h17.8c1.1,0,2,0.2,2.5,0.7c0.6,0.5,0.8,1.2,0.8,2.1c0,0.9-0.3,1.6-0.9,2
			s-1.4,0.7-2.5,0.7h-15.9V-11.8z"/>
		<path d="M1634.6-7.4c1.3-1.6,2.7-2.9,4.2-3.7c1.5-0.8,3.2-1.2,5.1-1.2c3.7,0,6.8,1.4,9.4,4.2c2.6,2.8,3.9,6.2,3.9,10.3
			c0,4.3-1.3,7.8-3.8,10.5s-5.7,4.1-9.6,4.1c-4.6,0-8.3-1.8-11.1-5.5c-2.8-3.7-4.2-8.6-4.2-14.7c0-8,2.1-14.4,6.2-19.2
			c4.1-4.8,9.5-7.3,16.2-7.3c2.3,0,3.8,0.2,4.5,0.5c0.7,0.3,1.1,0.9,1.1,1.9c0,1.5-1.4,2.3-4.1,2.3c-1.8,0-3.3,0.1-4.4,0.4
			c-3.7,0.7-6.7,2.6-9,5.6C1636.7-16.2,1635.2-12.3,1634.6-7.4z M1635.4,2c0,2.9,0.8,5.2,2.3,7c1.5,1.8,3.5,2.7,5.9,2.7
			c2.2,0,4.1-0.9,5.5-2.6c1.4-1.7,2.2-3.9,2.2-6.7c0-2.9-0.7-5.2-2.2-7c-1.5-1.8-3.4-2.7-5.7-2.7c-2.3,0-4.2,0.9-5.6,2.6
			C1636.1-2.9,1635.4-0.7,1635.4,2z"/>
		<path d="M1686.7,15c-0.2,0.6-0.4,0.9-0.5,1.1c-0.2,0.2-0.5,0.2-0.9,0.2h-0.6h-2.5c-0.5,0-0.8-0.1-1.1-0.3
			c-0.3-0.2-0.4-0.4-0.4-0.8c0-0.2,0-0.4,0.1-0.5s0.1-0.4,0.2-0.6l13.8-37.5h-17.9c-0.1,1.1-0.3,1.9-0.7,2.4s-1,0.8-1.9,0.8
			c-0.8,0-1.4-0.2-1.8-0.6c-0.4-0.4-0.6-1-0.6-1.9c0-0.2,0-0.4,0-0.5c0-0.1,0-0.2,0.1-0.3l0.4-3.2c0.1-0.7,0.3-1.2,0.7-1.5
			s1-0.5,1.7-0.5h23.2c0.7,0,1.2,0.1,1.5,0.4c0.3,0.3,0.5,0.8,0.5,1.4v1.2c0,0.3-0.1,0.7-0.2,1.1s-0.3,1.1-0.6,1.8L1686.7,15z"/>
		<path d="M1722.3-7.1c-2.3-1.1-4-2.6-5.1-4.3c-1.1-1.7-1.7-3.7-1.7-6c0-3.6,1.3-6.6,3.9-9c2.6-2.3,5.9-3.5,10-3.5
			c4,0,7.3,1.2,9.9,3.5c2.6,2.3,4,5.2,4,8.6c0,2.5-0.6,4.6-1.7,6.4s-2.9,3.2-5.2,4.3c2.4,1,4.2,2.4,5.4,4.2c1.3,1.9,1.9,4,1.9,6.6
			c0,3.9-1.3,7-4,9.5c-2.7,2.4-6.1,3.7-10.4,3.7s-7.7-1.2-10.3-3.7s-4-5.6-4-9.6c0-2.4,0.6-4.5,1.9-6.4
			C1718.2-4.7,1720-6.1,1722.3-7.1z M1720.8,3.6c0,2.5,0.8,4.5,2.3,6s3.6,2.3,6.2,2.3c2.6,0,4.7-0.8,6.2-2.2c1.6-1.5,2.3-3.5,2.3-6
			c0-2.4-0.8-4.4-2.4-5.9s-3.7-2.3-6.2-2.3c-2.5,0-4.6,0.7-6.2,2.2C1721.6-0.8,1720.8,1.2,1720.8,3.6z M1721.2-17.4
			c0,2.3,0.8,4.2,2.3,5.7s3.5,2.2,5.9,2.2c2.4,0,4.4-0.7,5.9-2.2c1.5-1.5,2.3-3.4,2.3-5.8c0-2.3-0.8-4.1-2.3-5.6
			c-1.5-1.5-3.5-2.2-5.9-2.2s-4.4,0.7-5.9,2.2C1721.9-21.5,1721.2-19.7,1721.2-17.4z"/>
		<path d="M1780.6-5.6c-1.3,1.6-2.7,2.8-4.2,3.6c-1.5,0.8-3.2,1.2-5,1.2c-3.7,0-6.8-1.4-9.4-4.2s-3.9-6.2-3.9-10.2
			c0-4.3,1.2-7.8,3.7-10.5c2.5-2.8,5.7-4.1,9.6-4.1c4.6,0,8.3,1.8,11.1,5.5s4.2,8.6,4.2,14.7c0,8-2.1,14.5-6.2,19.2
			c-4.1,4.8-9.6,7.2-16.5,7.2c-2.2,0-3.6-0.2-4.3-0.5c-0.7-0.3-1.1-0.9-1.1-1.8c0-1.5,1.4-2.3,4.2-2.4c1.9,0,3.3-0.2,4.4-0.4
			c3.7-0.7,6.7-2.5,9-5.5C1778.5,3.2,1780-0.7,1780.6-5.6z M1779.9-15c0-2.9-0.8-5.3-2.3-7.1c-1.5-1.8-3.5-2.7-5.9-2.7
			c-2.3,0-4.1,0.9-5.5,2.6c-1.4,1.7-2.1,3.9-2.1,6.7c0,2.9,0.7,5.2,2.2,7s3.4,2.7,5.7,2.7c2.3,0,4.2-0.9,5.7-2.6
			S1779.9-12.3,1779.9-15z"/>
		<path d="M1815.8,16.8c-4.4,0-7.9-2.1-10.5-6.2c-2.6-4.2-3.9-9.9-3.9-17.1c0-7.2,1.3-12.9,3.9-17.1c2.6-4.2,6.1-6.2,10.5-6.2
			s7.9,2.1,10.5,6.3c2.6,4.2,3.9,9.9,3.9,17.1c0,7.2-1.3,12.9-3.9,17.1S1820.2,16.8,1815.8,16.8z M1815.8-24.8
			c-2.7,0-4.8,1.6-6.3,4.8s-2.2,7.7-2.2,13.5c0,5.8,0.8,10.4,2.2,13.6s3.6,4.8,6.3,4.8c2.7,0,4.8-1.6,6.3-4.8s2.2-7.7,2.2-13.6
			c0-5.8-0.8-10.3-2.2-13.5S1818.5-24.8,1815.8-24.8z"/>
	</g>
	<g display="inline">
		<path d="M1423-77.4h11v-39.7l-13.2,6.4v-6.8l13.1-6.3h7.1v46.4h10.9v5.9h-29V-77.4z"/>
		<path d="M1470-77.5h24.1v6h-31.9v-6c4.4-4.6,8.2-8.7,11.5-12.2c3.3-3.5,5.5-6,6.8-7.5c2.3-2.9,3.9-5.2,4.7-6.9
			c0.8-1.8,1.2-3.6,1.2-5.4c0-2.9-0.9-5.2-2.6-6.9c-1.7-1.7-4.1-2.5-7.1-2.5c-2.1,0-4.4,0.4-6.7,1.2s-4.8,1.9-7.5,3.5v-7.2
			c2.4-1.1,4.8-2,7.1-2.6c2.3-0.6,4.6-0.9,6.9-0.9c5.1,0,9.3,1.4,12.4,4.1c3.1,2.7,4.7,6.3,4.7,10.7c0,2.2-0.5,4.5-1.6,6.8
			s-2.7,4.7-5.1,7.5c-1.3,1.5-3.2,3.6-5.7,6.3C1478.9-86.9,1475.1-82.8,1470-77.5z"/>
		<path d="M1527.5-99.6c3.4,0.9,6.1,2.5,7.9,4.9c1.8,2.3,2.7,5.2,2.7,8.7c0,4.8-1.6,8.6-4.9,11.4c-3.2,2.8-7.7,4.1-13.5,4.1
			c-2.4,0-4.9-0.2-7.4-0.7s-5-1.1-7.4-1.9v-7.1c2.4,1.2,4.7,2.2,7.1,2.8c2.3,0.6,4.6,0.9,6.9,0.9c3.9,0,6.9-0.9,9-2.6
			s3.1-4.3,3.1-7.6c0-3-1-5.5-3.1-7.3s-4.9-2.7-8.5-2.7h-5.4v-5.8h5.4c3.3,0,5.8-0.7,7.6-2.1c1.8-1.4,2.7-3.4,2.7-6
			c0-2.7-0.8-4.8-2.5-6.2s-4.1-2.2-7.3-2.2c-2.1,0-4.2,0.2-6.5,0.7c-2.2,0.5-4.6,1.2-7,2.1v-6.5c2.8-0.8,5.4-1.3,7.6-1.7
			c2.2-0.4,4.2-0.6,5.9-0.6c5.1,0,9.2,1.3,12.3,3.8s4.6,6,4.6,10.2c0,2.9-0.8,5.3-2.4,7.2C1532.9-101.7,1530.5-100.4,1527.5-99.6z"
			/>
		<path d="M1568.2-124h8.2v34.2h7v5.8h-7v12.5h-7.1V-84h-22.3v-6.7L1568.2-124z M1569.4-117.5l-16.6,27.7h16.6V-117.5z"/>
		<path d="M1594.2-124h26.6v6h-20.1v12.9c1-0.4,2-0.7,3-0.8s2-0.3,3.1-0.3c5.4,0,9.8,1.6,12.9,4.8c3.2,3.2,4.8,7.6,4.8,13
			c0,5.5-1.7,9.9-5,13.1c-3.3,3.2-7.9,4.8-13.7,4.8c-2.8,0-5.3-0.2-7.6-0.6c-2.3-0.4-4.4-0.9-6.2-1.7v-7.2c2.2,1.2,4.3,2,6.5,2.6
			c2.2,0.6,4.4,0.9,6.7,0.9c3.9,0,6.9-1,9.1-3.1c2.1-2.1,3.2-5,3.2-8.8c0-3.7-1.1-6.7-3.3-8.8c-2.2-2.1-5.2-3.1-9.2-3.1
			c-1.9,0-3.8,0.2-5.6,0.7c-1.8,0.4-3.5,1.1-5.2,2V-124z"/>
		<path d="M1665.1-122.8v6.5c-1.5-0.9-3-1.5-4.7-2s-3.4-0.7-5.2-0.7c-4.5,0-7.9,1.7-10.2,5.1c-2.3,3.4-3.5,8.4-3.5,15
			c1.1-2.3,2.7-4.1,4.7-5.4c2-1.3,4.3-1.9,6.9-1.9c5.1,0,9,1.6,11.8,4.7c2.8,3.1,4.2,7.5,4.2,13.2c0,5.7-1.4,10.1-4.3,13.2
			c-2.9,3.1-6.9,4.7-12.1,4.7c-6.1,0-10.6-2.2-13.4-6.6c-2.8-4.4-4.3-11.3-4.3-20.7c0-8.9,1.7-15.6,5.1-20.3c3.4-4.7,8.3-7,14.8-7
			c1.7,0,3.5,0.2,5.2,0.5C1661.8-124,1663.5-123.5,1665.1-122.8z M1652.4-100.6c-3,0-5.4,1.1-7.1,3.3s-2.6,5.2-2.6,9
			c0,3.8,0.9,6.9,2.6,9s4.1,3.3,7.1,3.3c3.1,0,5.5-1,7.1-3.1s2.4-5.1,2.4-9.2c0-4.1-0.8-7.1-2.4-9.2
			C1657.9-99.6,1655.6-100.6,1652.4-100.6z"/>
		<path d="M1678.5-124h33v3l-18.8,49.5h-7.4l18.3-46.5h-25.1V-124z"/>
		<path d="M1732.4-99.4c-3-0.8-5.4-2.2-7.1-4.3s-2.5-4.7-2.5-7.6c0-4.2,1.4-7.5,4.3-9.9c2.8-2.4,6.7-3.7,11.6-3.7
			c4.9,0,8.8,1.2,11.6,3.7c2.8,2.4,4.3,5.8,4.3,9.9c0,3-0.8,5.5-2.5,7.6s-4.1,3.6-7.1,4.3c3.5,0.8,6.2,2.3,8.1,4.7
			c1.9,2.3,2.8,5.4,2.8,9.1c0,4.7-1.5,8.4-4.5,11.1s-7.2,4-12.6,4s-9.5-1.3-12.5-4c-3-2.7-4.5-6.3-4.5-11.1c0-3.7,0.9-6.8,2.8-9.2
			S1728.9-98.6,1732.4-99.4z M1738.6-96.4c-3.2,0-5.6,0.9-7.3,2.7c-1.7,1.8-2.6,4.3-2.6,7.5s0.9,5.7,2.6,7.5s4.2,2.7,7.3,2.7
			c3.2,0,5.6-0.9,7.4-2.7c1.7-1.8,2.6-4.3,2.6-7.6c0-3.2-0.9-5.7-2.6-7.5C1744.2-95.5,1741.7-96.4,1738.6-96.4z M1729.8-110.7
			c0,2.8,0.8,5,2.2,6.4s3.7,2.2,6.5,2.2c2.9,0,5-0.7,6.5-2.2s2.2-3.6,2.2-6.4c0-2.9-0.7-5-2.2-6.5c-1.5-1.5-3.7-2.2-6.6-2.2
			c-2.8,0-5,0.8-6.5,2.3S1729.8-113.5,1729.8-110.7z"/>
		<path d="M1768.6-72.6v-6.5c1.5,0.9,3,1.5,4.7,2s3.4,0.7,5.2,0.7c4.5,0,7.9-1.7,10.2-5.1c2.3-3.4,3.5-8.4,3.5-15
			c-1.1,2.3-2.6,4.1-4.6,5.4c-2,1.3-4.3,1.9-6.9,1.9c-5.1,0-9-1.6-11.8-4.7c-2.8-3.1-4.2-7.5-4.2-13.3c0-5.6,1.4-10,4.3-13.1
			c2.8-3.1,6.9-4.7,12.1-4.7c6.1,0,10.6,2.2,13.4,6.6c2.8,4.4,4.3,11.3,4.3,20.7c0,8.8-1.7,15.6-5.1,20.2c-3.4,4.7-8.4,7-14.9,7
			c-1.7,0-3.4-0.2-5.2-0.5C1771.9-71.4,1770.2-71.9,1768.6-72.6z M1781.2-94.8c3,0,5.4-1.1,7.1-3.3s2.6-5.2,2.6-9
			c0-3.8-0.9-6.9-2.6-9s-4.1-3.3-7.1-3.3c-3.1,0-5.5,1-7.1,3.1s-2.4,5.1-2.4,9.2c0,4.1,0.8,7.1,2.4,9.2
			C1775.7-95.8,1778.1-94.8,1781.2-94.8z"/>
		<path d="M1825.3-124.8c5.6,0,9.8,2.3,12.7,6.9s4.3,11.3,4.3,20.3c0,9-1.4,15.7-4.3,20.3s-7.1,6.9-12.7,6.9s-9.8-2.3-12.7-6.9
			s-4.3-11.3-4.3-20.3c0-9,1.4-15.7,4.3-20.3S1819.7-124.8,1825.3-124.8z M1825.3-119.1c-3.3,0-5.8,1.8-7.4,5.3
			c-1.6,3.5-2.4,8.9-2.4,16.2c0,3.3,0.2,6.4,0.7,9.3l16.4-26.1C1830.7-117.6,1828.3-119.1,1825.3-119.1z M1825.3-76.1
			c3.3,0,5.8-1.8,7.4-5.3c1.6-3.5,2.4-8.9,2.4-16.2c0-3.9-0.2-7.4-0.7-10.5l-16.7,26.2C1819.5-78,1822-76.1,1825.3-76.1z"/>
	</g>
</g>
<g id="N9">
	<path fill="#6CBE45" d="M0.5-18.9c4.5,0,7.9,1.4,10,4.3c1.8,2.4,2.7,4.9,2.7,8.9C13.2,1.8,9.7,9,2.7,14.5l-2.5,2.2
		c-1.2,1-2.1,1.5-2.7,1.5c-0.7,0-1.3-0.2-1.8-0.6c-0.5-0.4-0.6-0.8-0.6-1.4c0-0.5,0.7-1.4,2.5-2.9L3,8.8c1.4-1.2,3-4.2,4-6.7
		C5.5,2.7,3.7,3,2.6,3.3C1.4,3.6,0.5,3.8-0.2,3.8c-4.1,0-7.2-0.9-9.4-2.8C-11.8-1-12.9-3-12.9-6.4c0-3.6,1.2-6.6,3.5-8.9
		C-6.9-17.7-3.6-18.9,0.5-18.9z M0.5-0.9c1.5,0,2.8-0.2,4-0.7c0.5-0.2,2-1,3.8-1.9c0.1-0.8,0-1.5,0-2.3c0-2.7-0.5-4.4-1.5-6.1
		c-1.3-2.2-3.7-3.1-6.5-3.1c-2.6,0-5.1,0.7-6.6,2.3c-1.3,1.5-2,3.2-2,5.7c0,2.1,1.1,3.5,2.5,4.5C-4.4-1.4-2.3-0.9,0.5-0.9z"/>
</g>
<g id="N8">
	<path fill="#6CBE45" d="M-0.3,18.4c-3.8,0-6.8-0.7-9.1-2.2c-2.6-1.6-4-4-4-7.2c-0.1-5.1,2-8.6,6.1-10.4c-3.2-1.7-4.8-4.1-4.8-7.3
		c0-3,1.2-5.5,3.7-7.4c2.3-1.9,5.2-2.9,8.5-2.9c7.5-0.1,11.2,3.2,11.2,9.8c0,1.9-0.4,3.3-1.3,4.4C9.3-3.9,8-3,6-2.1
		c2.7,1.2,4.5,2.5,5.6,3.8c1.2,1.6,1.9,3.8,1.9,6.6c0,3.2-1.3,5.7-4,7.6C6.9,17.6,3.7,18.4-0.3,18.4z M-0.5,0.3
		c-2.8,1.2-4.7,2.2-5.7,3c-1.5,1.3-2.2,3.2-2.1,5.5c0.1,2,1.1,3.4,3.1,4.4c1.4,0.7,3.1,1,4.9,1c3.1,0,5.3-0.7,6.6-2
		c1-1,1.5-2.6,1.5-4.7c0-2.1-0.9-3.7-2.7-5C3.9,1.7,2,1-0.5,0.3z M0-14.7c-2.3,0-4.1,0.6-5.3,1.7c-1.1,1.1-1.6,2.5-1.6,4.4
		c0,2.2,2.1,3.8,6.2,4.7C1.4-4.5,2.9-5,3.9-5.6c1.5-0.9,2.2-2.1,2.2-3.5c0-2.1-0.5-3.6-1.6-4.5C3.5-14.3,2-14.7,0-14.7z"/>
</g>
<g id="N7">
	<path fill="#6CBE45" d="M12.1-13.5c0,0-13.7,22.2-14.7,25.2c-0.8,2.3-2.2,4.3-2.9,5.5c-0.4,0.7-1.1,1.1-1.9,1.1
		c-0.6,0-1.2-0.2-1.7-0.7c-0.5-0.4-0.7-1-0.7-1.6c0-0.6,0.5-2.1,1.5-4.6c0,0,11.3-22.2,13.8-24.9L6-14.7l-11.8,0.4l-5.3,1.1
		c-1.5-0.1-2.3-0.9-2.3-2.3c0-0.7,0.2-1.2,0.7-1.6c0.4-0.4,1-0.4,1.6-0.6c2.1-0.9,4.9-1.3,8.9-1.8c4.7-0.6,13,1,13,1
		c1.7,0,2.6,1,2.6,2C13.5-15.6,13-14.6,12.1-13.5z"/>
</g>
<g id="N6">
	<path fill="#6CBE45" d="M-0.5,18.4c-4.5,0-7.9-1.4-10-4.3c-1.8-2.4-2.7-4.9-2.7-8.9c0-7.5,3.5-14.7,10.5-20.2l2.5-2.2
		c1.2-1,2.1-1.5,2.7-1.5c0.7,0,1.3,0.2,1.8,0.6c0.5,0.4,0.6,0.8,0.6,1.4c0,0.5-0.7,1.4-2.5,2.9L-3-9.3c-1.4,1.2-3,4.2-4,6.7
		c1.5-0.6,3.3-0.9,4.4-1.2c1.1-0.3,2.1-0.4,2.8-0.4c4.1,0,7.2,0.9,9.4,2.8c2.2,1.9,3.3,3.9,3.3,7.4c0,3.6-1.2,6.6-3.5,8.9
		C6.9,17.2,3.6,18.4-0.5,18.4z M-0.5,0.3c-1.5,0-2.8,0.2-4,0.7c-0.5,0.2-2,1-3.8,1.9c-0.1,0.8,0,1.5,0,2.3c0,2.7,0.5,4.4,1.5,6.1
		c1.3,2.2,3.7,3.1,6.5,3.1c2.6,0,5.1-0.7,6.6-2.3c1.3-1.5,2-3.2,2-5.7c0-2.1-1.1-3.5-2.5-4.5C4.3,0.8,2.2,0.3-0.5,0.3z"/>
</g>
<g id="N5">
	<path fill="#6CBE45" d="M-1.5,17.9c-4.8,0-8.4-1.6-10.7-4.8c-0.3-0.4-0.5-0.9-0.5-1.3c0-0.6,0.3-1.1,0.8-1.5
		c0.5-0.4,1.1-0.7,1.8-0.7c0.7,0,1.4,0.3,2,1c0.9,1,1.6,1.6,2,1.9c1.1,0.7,2.6,1,4.5,1c3,0,5.4-1,7.3-3c1.9-1.9,2.8-2.3,2.8-5
		c0-2.2-0.4-3.4-1.2-4.8C6.3-1,4.7-1.8,2.5-1.8C0.7-1.8-0.8-1.6-2-1.2c-0.9,0.4-1.9,1-2.8,1.8l-2.8,2.7c-0.8,0.7-1.5,1-2.3,1
		c-0.7,0-1.3-0.2-1.7-0.7c-0.5-0.4-0.7-1-0.7-1.6c0-0.3-0.5-1.7-0.2-4.1c0.6-4.8,0.6-13.6,0.6-13.9c0-0.9,0.9-2.7,2.7-2.7
		c0.3,0,0.9,0,1.5,0.1c0.7,0.1,11.6-1,18.1,0.3c0.7,0.1,1.3,0.2,1.9,0.3c2.4,0.7,1,3.4,0.6,3.8c-1.4,1.4-2.7,0-6.7,0
		c-0.5,0-1.2,0-2,0c-0.8,0-1.3,0-1.5,0l-4.3,0.1L-7-13.7C-7-13.1-7.4-8-8-3.6c2.3-1.7,6.6-2.6,10.5-2.6c3.8,0,6.6,1.3,8.6,3.9
		c1.7,2.2,2.5,4.4,2.5,7.9c0,4.1-1.3,5.6-4,8.2C6.8,16.6,3.1,17.9-1.5,17.9z"/>
</g>
<g id="N4">
	<path fill="#6CBE45" d="M8.4,6.6v9.2c0,1.4-0.7,2.2-2.1,2.2c-1.6,0-2.4-1.1-2.4-3.4c0-0.3,0-0.7,0-1.2c0-0.5,0-0.9,0-1l0-5.9
		L-6.1,6.2c-2.1,0-3.5-0.1-4.3-0.2c-1.4-0.2-2.1-0.8-2.1-1.6c0-0.7,0.4-1.6,1.3-2.6l2-2.4l11.3-16c1-1.4,2.3-2.2,3.9-2.2
		c1.7,0,2.6,0.8,2.6,2.3V2.1c0.3,0,0.6,0,0.9,0c2.8,0,4.2,0.8,4.2,2.3c0,1.1-0.6,1.8-1.7,2.1C11.3,6.6,10.1,6.7,8.4,6.6z M4-12.4
		C-0.1-5.8-3.3-1.5-5.6,1.8L4,2V-12.4z"/>
</g>
<g id="N3">
	<path fill="#6CBE45" d="M13.4,7.4C13,3,8.5,1,6.1,0.2C6.5,0.1,6.8,0,7.1-0.1c3.5-1.2,5.2-3.6,5.2-7.3c0-0.4,0-0.7-0.1-1.1
		c-0.1-2.6-1.6-4.9-3.9-6.8c-2.6-2.1-5.7-3.2-9.3-3.2c-2.8,0-4,0.5-6.2,1.5c-2.5,1.1-4.2,2.7-5,4.8c-0.1,0.3-0.2,0.6-0.2,0.8
		c0,0.6,0.3,1.1,0.8,1.6s1.2,0.6,1.9,0.6c0.7,0,1.4-0.3,1.9-0.9l1.3-1.6c0.7-0.8,1.6-1.3,2.7-1.7c1.1-0.4,1.2-0.6,2.7-0.6
		c2,0,3.8,0.5,5.3,1.6C6-11.2,7-10.2,7.3-8.5c0.1,0.4,0.1,0.8,0.1,1.2c0,1-0.3,1.8-1,2.4C5.8-4.2,4.8-3.7,3.6-3.3L-3-1.9
		c-1.6,0.5-2.4,1.2-2.4,2.1c0,1.2,1,1.9,3.1,2.1c3,0.3,10,0.9,10.2,5.9c0.1,1.6-0.8,3-2.4,4.1C3.9,13.4,2.2,14,0.2,14
		c-1.6,0-2.9-0.2-4-0.6c-1.1-0.4-2-1-2.7-1.7l-1.3-1.6c-0.5-0.6-1.2-0.9-1.9-0.9s-1.4,0.2-1.9,0.6c-0.6,0.4-0.8,0.9-0.8,1.6
		c0,0.3,0.1,0.5,0.2,0.8c0.9,2.1,2.5,3.7,5,4.8c2.2,1,4.7,1.5,7.5,1.5c3.7,0,6.8-1.1,9.3-3.2C12.1,13.1,13.6,10.5,13.4,7.4z"/>
</g>
<g id="N2">
	<path fill="#6CBE45" d="M10.8,17.9c-0.5,0-11.6,0.2-12.6,0.2c-0.7,0-5.8-0.2-6.5-0.2c-0.2,0-1.6-0.2-1.8-0.2
		c-1.3,0-2.1-0.5-2.5-1.6c-0.2-0.6-0.7-0.9-0.3-2.3c1.1-4,3.8-8.2,6.2-10.5c1.1-1.1,1.4-1.7,6.2-4.5C2.1-2.8,3.9-4,4.8-4.9
		c1.6-1.6,2.4-3.4,2.4-5.5c0-1-0.8-2-2.3-2.8c-1.4-0.7-2.7-1.1-4-1.1c-1.7,0-3.4,0.4-4.9,1.3l-4,2.7C-9-9.7-9.6-9.4-10.1-9.4
		c-1.9,0-2.9-0.7-2.9-2c0-0.8,0.4-1.4,1.1-2c2.2-1.8,4.1-3.1,5.7-3.9c2.3-1.1,4.6-1.7,7-1.7c3,0,5.8,0.7,8.2,2.1
		c2.7,1.6,4,3.7,4,6.2c0,1.7-0.3,3.2-0.8,4.6c-0.5,1.4-1.4,2.7-2.5,3.8C8.3-0.7,5.9,0.9,2.5,2.7C-1,4.6-1.9,5.6-3,6.6
		c-2.1,1.9-3.4,4.5-4.5,7.3l5.8-0.5c4-0.2,6.8-0.3,8.5-0.3c1.4,0,2.6,0.1,4,0.3c1.8,0.2,2.6,1.1,2.6,2.1c0,0.6-0.3,1.2-0.8,1.7
		C12.2,17.7,11.5,17.9,10.8,17.9z"/>
</g>
<g id="N1">
	<path fill="#6CBE45" d="M10.7,18H0.9l-10.4,0c-1.1,0-1.8-0.1-2.2-0.2c-0.8-0.3-1.2-0.9-1.2-1.8c0-1.6,1.2-2.4,3.6-2.4l1.1,0l6.1,0
		c0-0.8-0.2-11.7,0.1-15.8c0.3-4,0.5-7.1,0.5-9.1c-2,1.6-5.7,3.7-6.2,3.7c-0.6,0-1.1-0.2-1.6-0.7c-0.4-0.5-0.7-1-0.7-1.6
		c0-0.7,0.7-1.6,2-2.7c0.8-0.6,4.3-2.8,5.8-4.1c1.3-1.4,2.6-2.1,3.8-2.1c1,0,1.5,0.6,1.5,1.8C3.3-16.7,3-4.6,2.6-1
		C2.2,2.5,2.4,12.7,2.4,13.5l8.3,0c0.6,0,1.2,0.2,1.6,0.6c0.4,0.4,0.6,1,0.6,1.6c0,0.7-0.2,1.2-0.6,1.6C11.9,17.8,11.3,18,10.7,18z"
		/>
</g>
<g id="N0">
	<path fill="#6CBE45" d="M0.2,18.2c-4.9,0-8.4-2.1-10.6-6.4C-12.1,8.6-13,4.4-13-0.9c0-4.4,1.1-8.3,3.3-11.6
		c2.6-3.9,6.1-5.8,10.6-5.8c4.2,0,7.5,1.7,9.8,5.1c2,3,3,6.6,3,10.8c0,6.8-1.1,12-3.4,15.4C8.2,16.5,4.8,18.2,0.2,18.2z M0.9-13.8
		c-3,0-5.3,1.4-7.1,4.3c-1.5,2.4-2.2,5.2-2.2,8.3c0,5,0.7,8.8,2.1,11.3c1.4,2.5,3.6,3.8,6.4,3.8c3.4,0,5.8-1.8,7.3-5.5
		C8.5,5.8,9,2.5,9-1.4c0-4.1-0.7-7.2-2-9.3C5.7-12.8,3.6-13.8,0.9-13.8z"/>
	<path fill="#6CBE45" d="M6-9.4C5.5-9.9,5-10.1,4.3-10.1c-0.7,0-1.3,0.3-1.9,0.9C1.4-8-2.8,1.9-2.8,1.9c-0.7,1.5-1.6,3-2.6,4.3
		c-0.3,0.4-0.5,0.9-0.5,1.3c0,0.7,0.2,1.2,0.7,1.7c0.5,0.5,1,0.7,1.7,0.8c0.7,0,1.4-0.2,1.9-0.8c1.1-1.1,2.1-2.8,3.1-5
		c0,0,3.9-9.2,4.9-10.6c0.3-0.5,0.5-0.9,0.5-1.4C6.8-8.4,6.6-8.9,6-9.4z"/>
</g>
<g id="Y">
	<path fill="#6CBE45" d="M12.2-13.2c-0.4,0.6-0.8,1.5-1.4,2.7L7-0.7C5.5,3,4.1,6.3,2.8,9L0,14.2l-1.2,2.5c-0.5,0.9-1.1,1.3-2,1.3
		c-0.6,0-1.1-0.2-1.6-0.7c-0.5-0.4-0.7-1-0.7-1.7c0-0.5,0.7-2.2,2.1-4.9l2.7-5.2C-3.2,2-7.5-6.7-9.1-9.2c-2.1-3.3-3.4-5.4-3.7-6.1
		c-0.2-0.4-0.3-0.8-0.3-1.3c0-0.7,0.2-1.2,0.7-1.7c0.5-0.5,1-0.7,1.6-0.7c0.7,0,1.3,0.4,1.8,1.1C-9-17.8,0.2-2.3,1.8,0l4.8-12.3
		C7.2-13.4,8-15,9-17.2c0.4-1.1,1.1-1.6,2.1-1.6c0.6,0,1.1,0.2,1.6,0.6c0.5,0.4,0.7,1,0.7,1.7C13.4-15.8,13-14.7,12.2-13.2z"/>
</g>
<g id="Z">
	<path fill="#6CBE45" d="M10-12.4c0,0-7.3,8.3-10.4,13.1l-5.3,7.8c-0.3,0.6-2.7,4.5-3.1,5l7.6,0.3c3.4-0.2,5.8-0.5,7.6-0.5
		c1.8,0,3.1,0.1,4.5,0.4c1.1,0.3,1.2,0.9,1.2,2c0,0.8-0.2,1.4-0.6,1.8c-0.4,0.4-0.9,0.6-1.5,0.6c-0.4,0-19.7,0.2-21.8,0.2
		c-1.5,0-2.3-0.8-2.3-2.4c0-1,4.5-9.2,5.4-10.7l5.3-8.5c3-4.6,6.3-8.5,8.9-11l-7.6,0c0,0-8.2,0-8.3,0c-1.4,0-3.1,0-3.1-1.6
		c0-1.1,0.1-2,0.8-2.3c0.4-0.2,3-0.5,4-0.5c0.9,0,15,0,16.1,0c3.4,0,5,1.4,5,2.9C12.3-14.9,11.6-13.8,10-12.4z"/>
</g>
<g id="X">
	<path fill="#6CBE45" d="M12.8-14.6C11-12.1,4.2-1.3,3.4-0.2c0,0,8.1,12.7,9.4,14.5c0.4,0.5,0.5,1,0.5,1.6c0,0.6-0.2,1.2-0.6,1.7
		c-0.4,0.5-0.9,0.7-1.5,0.7c-0.5,0-1-0.2-1.4-0.7c-1-1.1-9.3-14.2-9.3-14.2l-6.9,9.1l-3.7,4.7c-0.4,0.5-0.9,0.8-1.5,0.8
		c-0.6,0-1-0.2-1.5-0.7c-0.4-0.5-0.6-1-0.6-1.7c0-0.5,0.2-1.1,0.5-1.6L-1.9-0.6c-1.5-2.2-10.2-12.9-11-13.6
		c-0.6-0.5-0.8-1.2-0.8-1.9c0-0.6,0.2-1.2,0.6-1.7c0.4-0.5,0.9-0.7,1.5-0.7c1.1,0,2.6,1.4,4.4,4.1c0.6,0.9,6.8,8.1,8.2,10.2l4.6-7.3
		c3-4.7,4.9-7.1,5.8-7.1c0.6,0,1,0.2,1.5,0.7c0.4,0.5,0.6,1,0.6,1.7C13.4-15.6,13.2-15.1,12.8-14.6z"/>
</g>
<g id="W">
	<path fill="#6CBE45" d="M-11.2-19.1c0.6,0,1.5,0.5,1.9,1.3c0.3,0.8,0.3,1.9,0.6,3.7l0.4,3.9C-7.8-7.6-7.6-5.5-6.6,3l2.8-11.3
		c0,0,1.6-5.8,2-6.9c0.5-1.2,1.1-1.8,1.9-1.8c0.7,0,2.1-0.2,2.8,1.7C3.1-14.7,4-11.4,4-11.4c1.1,5.5,1.6,7,2.5,13.3l0.8-3.6l1.1-9.2
		c0.1-1.5,0.3-3.6,0.7-6.4c0.3-1.2,1.9-1.3,2.6-1.3c0.5,0,1,0.3,1.3,0.8c0.3,0.5,0.4,1,0.4,1.7c0,2.6-0.4,5.8-1.1,9.6L11.2,3
		L10,10.3c-0.5,3.5-0.5,5.9-1.1,7c-0.4,0.9-1.4,1.2-2.1,1.2c-0.7,0-1.9-0.6-2.3-1.7c-0.4-1.4-1.2-4.6-1.7-8.8
		C2.3,2.8,1.4-0.6,0.1-6.6C-1.5-0.6-2,3.6-3.2,10.1l-0.7,3.5c-0.2,1.4-0.3,2.6-0.6,3.4c-0.4,1.2-1.6,1.7-2.3,1.7c-1,0-2-1.2-2.5-3.8
		c-0.2-0.9-1.2-5.8-1.5-8.6c-0.7-7.1-1-10.1-1.7-15.2l-0.6-4.1c-0.4-2.2-0.4-3.4-0.4-3.9c0-0.7,0.2-1.2,0.5-1.7
		C-12.6-18.9-11.6-19.1-11.2-19.1z"/>
</g>
<g id="V">
	<path fill="#6CBE45" d="M12.9-14.8c-0.9,1.4-1.7,2.9-2.3,4.5l-1.7,5l-6,16.6c-0.7,2-1.5,3.9-2.5,5.7c-0.5,0.9-1.1,1.4-2,1.4
		c-1.1,0-2-0.6-2.4-1.8c-1.8-4.6-3.8-11.3-6-20l-1.8-6.3C-12.6-12.9-13-15-13-16c0-0.7,0.2-1.2,0.7-1.7c0.4-0.4,1-0.6,1.6-0.6
		c1.1,0,1.9,0.6,2.2,1.9l0.8,4l2.1,7.8C-4.2,1-2.8,5.9-1.4,10l0.1-0.4L4.7-7l1.9-5.6c0.8-2.3,1.8-4,2.7-5.1c0.5-0.6,1.1-0.9,1.7-0.9
		c0.6,0,1.1,0.2,1.6,0.7c0.5,0.5,0.7,1,0.7,1.7C13.3-15.8,13.2-15.3,12.9-14.8z"/>
</g>
<g id="U">
	<path fill="#6CBE45" d="M0.5,18c-4.6,0-8-1.4-10.2-4.2c-1.8-2.3-3-5.6-3.4-10.1c-0.2-2-0.3-16-0.2-17.4c0.1-1.4,0.2-2.4,0.4-3
		c0.4-1.2,1-1.7,2-1.7c1.3,0,2.7,1.3,2.7,4v13.9c0,9.6,2.4,13.7,8.6,13.7c5.9,0,8.1-7.4,8.1-23.5c0-0.6,0.1-6.1,0.5-6.8
		c0.4-0.9,1.7-1.4,2.5-1.4c1.5,0,2.2,1.1,2.2,3.2c0,0.6,0,5.2,0,5.9C13.7,8.8,9.3,18,0.5,18z"/>
</g>
<g id="T">
	<path fill="#6CBE45" d="M11.7-13.5c-1,0-2.5-0.1-4.6-0.3C5-13.9,4.2-14,3.1-14H1.7c0,2.1,0.2,7.6,0.5,12.4
		c0.3,4.5-0.1,17.4-0.4,18.1c-0.4,1-1.7,1.5-2.5,1.5c-0.5,0-1.7-0.2-2.2-0.7c-0.4-0.4-0.6-1-0.6-1.7c0-0.2,0.5-14.3,0.2-18.3
		C-3.6-6.9-3.8-12-3.8-13.9l-1.2,0c-3,0-5.3,1.1-7,0.6c-1.1-0.3-1.6-0.4-1.6-1.6c0-0.6,0.2-1.2,0.5-1.7c0.4-0.5,1.3-1.3,2-1.2
		c0.5,0,8.2-0.8,9.8-0.8c1.6,0,2.9-0.1,3.7-0.1c1,0,8.2,0.5,9.3,0.5c0.6,0,1.1,0.2,1.5,0.7c0.4,0.5,0.6,1,0.6,1.7
		c0,0.7-0.2,1.2-0.6,1.7C12.8-13.7,12.3-13.5,11.7-13.5z"/>
</g>
<g id="S">
	<path fill="#6CBE45" d="M-13.6,10.6c0-0.7,0.2-1.2,0.7-1.7c0.5-0.4,1-0.6,1.7-0.6c0.8,0,1.4,0.5,2,1.4c0.8,1.2,1.5,2.1,2.1,2.5
		c1.3,0.9,3.2,1.4,5.7,1.4c2.4,0,4.6-0.5,6.6-1.6C7.7,10.5,9,8.6,9,6.1c0-2-1.1-3.6-3.3-4.8c-1.9-1-4.1-1.6-6.9-1.6
		C-3.6-0.4-5.6-1-7.3-2c-2.2-1.3-3.3-3.2-3.3-5.6c0-2.9,1.5-5.5,4.6-7.9c3-2.2,6-3.4,9.2-3.4c1.5,0,3.2,0.3,5,0.8
		c2.5,0.7,3.7,1.6,3.7,2.7c0,1.4-0.7,2.1-2.1,2.1c-0.6,0-1.7-0.2-3.2-0.5c-1.5-0.3-2.7-0.5-3.6-0.5c-2.4,0-4.4,0.7-6.1,1.9
		c-1.7,1.2-2.6,2.8-2.6,4.5c0,1.3,1.1,2.3,3.4,2.8c0.8,0.2,2.5,0.4,4.9,0.6C6.2-4.2,9-3.1,10.9-1c1.8,1.9,2.7,4.2,2.7,6.9
		c0,3.8-1.7,6.9-5,9.2c-2.9,2-6.3,3-10.2,3c-2.8,0-5.4-0.6-7.7-1.7C-12.1,15-13.5,13-13.6,10.6z"/>
</g>
<g id="R">
	<path fill="#6CBE45" d="M10.7,17.6c-0.6,0-1.2-0.2-1.7-0.8C3.9,11.8-2.5,3.2-8.3,2.6L-8,15.8c0,0.7-0.2,1.3-0.7,1.7
		c-0.4,0.5-1,0.7-1.7,0.7s-1.2-0.2-1.7-0.7c-0.4-0.5-0.7-1-0.7-1.7c0-5.2,0.1-31.4,0.1-28.2c0-0.9,0.3-3.7,0.8-4.4
		c0.6-0.8,2.9-1.9,3.9-1.8l4.2-0.2c2.2,0.3,4,0,5.6,0.4c6.1,1.6,11.5,5.3,11.2,10.1C13-4,11-1.9,9.1-0.1c-2,1.9-5,2.5-7.7,2.6
		c1.3,0,8.7,8.3,11.1,11.2c0.4,0.5,0.6,1,0.6,1.6c0,0.7-0.2,1.2-0.7,1.7C11.9,17.4,11.4,17.6,10.7,17.6z M-4.3-14.4l-3,0l-0.2,3.6
		c0.1,1.2,0.1,1.6-0.1,3.5l-0.5,4.7c0.2,0,2,0,2.4,0c0.5,0,1.3,0,1.6,0c4,0,5.8,0.5,7.8-0.5C4.6-3.6,5.6-4,6.4-4.8
		C7.2-5.7,8-7.2,7.8-8.7c-0.3-2.2-1.6-2.7-3.1-3.8C3-13.8-1.6-14.7-4.3-14.4z"/>
</g>
<g id="Q">
	<path fill="#6CBE45" d="M8.6,12.3c0.3-0.5,0.7-1.1,1-1.7c2.3-4.3,3.5-9.2,3.5-14.6c0-5.2-1-9-3.1-11.4c-2-2.3-5-3.5-9.1-3.5
		c-4.2,0-7.8,2.5-10.6,7.4c-2.5,4.4-3.8,9.3-3.8,14.7c0,4.4,1.3,8.1,3.9,10.9c2.4,2.6,5.4,4,8.9,4c2.4,0,4.6-0.8,6.5-2.4
		C7.1,16.8,8.6,18,8.9,18c0.7,0,1.2-0.2,1.7-0.7c0.5-0.5,0.7-1.1,0.7-1.7c0-0.6-0.3-1.2-0.9-1.8C10.4,13.8,9.6,13.2,8.6,12.3z
		 M-7,9.9c-1.8-1.9-2-3.7-2-6.7c0-4.2,1-8.1,2.9-11.6c2.1-3.8,4-5.7,7.1-5.7c3,0,4.4,0.6,5.7,2.1c1.3,1.5,2.1,4.3,2.1,8
		c0,4.3-0.9,8.1-2.6,11.5C5.8,8.1,5.5,8.6,5.2,9.1C5.1,8.9,5,8.8,4.9,8.6C4.3,7.9,3.7,7.5,2.9,7.5c-0.6,0-1.2,0.2-1.7,0.7
		c-0.5,0.4-0.7,1-0.7,1.7c0,1.3,0.5,1.4,1.7,2.6c-0.9,0.5-1.8,0.8-2.9,0.8C-3.2,13.3-5.3,11.7-7,9.9z"/>
</g>
<g id="P">
	<path fill="#6CBE45" d="M-4.3,2c-0.6,0-1.8-0.1-3.6-0.3C-8.1,4-8.2,10.1-8.2,15.9c0,0.6-0.3,1.1-0.8,1.6c-0.5,0.4-1.2,0.6-1.9,0.6
		c-0.8,0-1.4-0.2-2-0.6c-0.5-0.4-0.8-0.9-0.8-1.6V9.1c0-2.3,0.2-5.5,0.5-9.6c0.4-4.5,0.6-7.7,0.7-9.6l-0.2-2.4
		c0-1.5-0.1-2.5,0.1-3.2c0.5-1.4,1.4-2.2,3.3-2.6c0.6-0.1,2.2-0.5,3.3-0.5c1.2-0.1,1.9-0.1,3.6-0.1c3.6,0,7,1,10.2,2.9
		c3.5,2.1,5.2,4.7,5.2,7.7c0,3.8-1.9,6.9-5.6,9.1C4.3,2.9,0.3,2-4.3,2z M-2.8-14.4c-0.9,0-1.6,0-2.3,0c-0.7,0-1.9,0.1-2.4,0.1
		L-7.6-10l-0.6,7.2l3.9,0.3C-1-2.4,2.8-2.3,5-3.7c1.1-0.7,2.8-2.1,2.8-4.6c0-1.7-1-3.2-3.4-4.5C2.2-13.9-0.3-14.4-2.8-14.4z"/>
</g>
<g id="O">
	<path fill="#6CBE45" d="M-0.4,18c-3.5,0-6.4-1.3-8.9-4c-2.6-2.8-3.9-6.4-3.9-10.9c0-5.4,1.3-10.3,3.8-14.7
		c2.8-4.9,6.4-7.4,10.6-7.4c4.1,0,7.1,1.2,9.1,3.5c2.1,2.4,3.1,6.2,3.1,11.4c0,5.4-1.2,10.3-3.5,14.6C7.3,15.5,3.8,18-0.4,18z
		 M1.3-14.1c-3,0-4.9,1.9-7.1,5.7C-7.7-4.9-8.7-1.1-8.7,3.2c0,3,0.2,4.8,2,6.7c1.7,1.8,3.8,3.3,6.3,3.3c3,0,4.8-1.9,6.8-5.7
		C8.1,4,9,0.2,9-4.1c0-3.7-0.8-6.5-2.1-8C5.7-13.5,4.3-14.1,1.3-14.1z"/>
</g>
<g id="N">
	<path fill="#6CBE45" d="M13.2,11.8c0,0.7-0.1,1.9-0.4,3.6c-0.2,1.5-1.1,2.3-2.4,2.3c-0.8,0-1.8-0.5-3-1.6C1.2,10.2-0.6,2.3-7.4-9.8
		l-0.1,5.1c0,0,0.1,15.2,0.1,16.5c0,4.1-0.8,6.1-2.4,6.1c-0.8,0-1.9-0.1-2.3-0.6c-0.4-0.5-1-1.5-0.9-2.8C-13,13.3-12-15.3-12-16.2
		c0-0.7,0.3-1.3,0.9-1.9c0.6-0.6,1.3-0.9,2-0.9c0.8,0,1.8,0.9,3,2.6c3.8,5.6,6.5,10.6,8.8,14.8C5.6,3.7,4.9,3.3,8.9,9.7
		C8.5,9.2,9.1-9.3,9-10.9C9-12,8.9-15.4,8.9-16c0-1.8,0.8-2.6,2.4-2.6c2.7,0,2,4.9,2,14.7c0,1.7-0.1,4.4-0.2,7.8
		C13.1,7.2,13.2,10.1,13.2,11.8z"/>
</g>
<g id="M">
	<path fill="#6CBE45" d="M11.7,18.4c-0.6,0-1.5-0.5-1.9-1.3c-0.3-0.7-0.3-1.9-0.6-3.6L8.8,9.5c-0.5-2.5-0.7-4.6-1.7-13l-3,11.4
		L3,11.6c-0.4,1.7-1,3-1.4,4.1c-0.5,1.2-1.1,1.8-1.9,1.8c-0.7,0-2.1-0.1-2.4-1.1c-0.2-0.6-0.7-1.7-0.9-2.7l-0.6-2.7
		c-1.1-5.5-1.1-8.8-2-15.1l-0.5,5.3l-1.1,9.1c-0.1,1.4-0.3,3.5-0.7,6.3c-0.3,1.2-1.9,1.3-2.6,1.3c-0.5,0-1-0.3-1.3-0.8
		c-0.3-0.5-0.4-1-0.4-1.7c0-2.6,0.4-5.7,1.1-9.5l1.1-9.4l1.1-7.2c0.5-3.4,0.5-5.9,1.1-6.9c0.4-0.9,1.4-1.2,2.1-1.2
		c0.7,0,1.9,0.6,2.3,1.7c0.4,1.4,1.2,4.5,1.7,8.7c0.6,5.1,1.2,8.1,2.4,14C1.7-0.3,2.5-4,3.7-10.5L4.4-14c0.2-1.4,0.3-2.6,0.6-3.4
		c0.4-1.1,1.6-1.7,2.3-1.7c1,0,2,1.2,2.5,3.8c0.2,0.9,1.2,5.7,1.5,8.5c0.7,7,1,10,1.7,15l0.6,4c0.4,2.1,0.4,3.4,0.4,3.9
		c0,0.7-0.2,1.2-0.5,1.7S12.2,18.4,11.7,18.4z"/>
</g>
<g id="K">
	<path fill="#6CBE45" d="M11.2,17c-2.6,0-6.3-3.3-11.1-7.4l-7.7-6.9V3l0,13.3c0,1.5-0.7,2.3-2.2,2.3c-1,0-1.8-0.4-2.3-1.1
		c-0.5-0.6-0.7-1.3-0.7-2c0-3.6,0.7-28.4,0.7-32c0-0.7,0.2-1.2,0.7-1.7c0.5-0.5,1.1-0.7,1.8-0.7c0.7,0,1.3,0.2,1.8,0.7
		c0.5,0.5,0.7,1,0.7,1.7c0,1.5-0.6,10.9-0.6,12.5C-5.4-6-0.1-7.6,2.8-10.5l6.6-5.6c0.6-0.6,1.2-0.9,1.9-0.9c0.7,0,1.3,0.2,1.8,0.7
		c0.5,0.5,0.8,1,0.8,1.7c0,1-2.5,3.5-7.6,7.3C2.8-4.8-0.8-3.6-4-0.7c2,1.9,5.3,4.7,9.6,8.3c0,0,4.7,4.5,5.8,4.8c1.3,0.4,2,1.2,2,2.3
		c0,0.5-0.2,1-0.5,1.5C12.5,16.7,11.9,17,11.2,17z"/>
</g>
<g id="J">
	<path fill="#6CBE45" d="M12-14.2c-0.3,0-4.7-0.3-5.7-0.3l0.1,2.7c0,11.5-0.8,19.8-2.3,25c-1,3.4-2.8,5.2-5.4,5.2
		c-2.7,0-5.4-1-8-2.9c-2.9-2.2-4.4-4.6-4.4-7.4c0-1.9,0.8-2.8,2.4-2.8S-8.9,6.2-8.9,8c0,1.3,0.9,2.5,2.7,3.8c1.8,1.2,3.4,1.8,5,1.8
		C0.1,13.7,1,9.8,1.5,2c0.2-3.7,0.3-8.3,0.3-13.8c0-0.4,0-1.3-0.1-2.5c0,0-6.3-0.1-6.9-0.1c-0.7,0-1.3-0.2-1.7-0.6
		c-0.5-0.4-0.7-1-0.7-1.8c0-1.6,1.1-2.4,3.2-2.4c0.5,0,1.3,0,2.4,0.1c1,0,1.8,0.1,2.3,0.1c1,0,2.4-0.1,4.4-0.2
		c1.9-0.1,3.4-0.2,4.4-0.2c3.5,0,5.3,0.9,5.3,2.7c0,0.6-0.2,1.2-0.6,1.6C13.3-14.5,12.7-14.2,12-14.2z"/>
</g>
<g id="I">
	<path fill="#6CBE45" d="M11.5-12.9c-1.2,0-2.7-0.1-4.5-0.3l-4.5-0.5C2.2-9,2-4.5,2-0.2C2,0.9,2.2,7,2.2,8.2c0,1.5-0.1,3.6-0.2,4.8
		l8.7-0.1c0.8,0,1.4,0.2,2,0.7c0.5,0.5,0.8,1.1,0.8,1.8c0,0.7-0.3,1.3-0.8,1.8c-0.5,0.5-1.2,0.7-2,0.7c-1,0-2.6,0-4.6,0.1
		C4,18,2.5,18,1.4,18c-1.2,0-9.7,0.2-11,0.2c-0.8,0-1.4-0.2-2-0.7c-0.5-0.5-0.8-1.1-0.8-1.8c0-0.7,0.3-1.3,0.8-1.8
		c0.5-0.5,1.2-0.7,2-0.7c1.2,0,3.2-0.2,6-0.5c0.2-1.3-0.1-11.5-0.1-12.6c0-3.7,0.3-8.4,0.8-14l-3.6,0.1l-3.6,0.1
		c-0.8,0-1.5-0.2-2-0.7c-0.5-0.5-0.8-1.1-0.8-1.8c0-1.5,0.9-2.3,2.6-2.5c1.5-0.1,4.3-0.2,8.4-0.2c3.7,0,8.3,0.3,13.8,1
		c1.6,0.2,2.5,1.1,2.5,2.6c0,0.8-0.3,1.4-0.9,1.8C12.9-13.1,12.2-12.9,11.5-12.9z"/>
</g>
<g id="H">
	<path fill="#6CBE45" d="M13.3,10.2c0.2,2.3,0.2,4.1,0.2,5.2c0,0.6-0.2,1.2-0.6,1.6c-0.4,0.4-0.9,0.6-1.4,0.6
		c-0.6,0-1.5-0.2-1.9-0.6c-0.4-0.4-0.6-1.1-0.6-1.7c0-1.2-0.1-2.6-0.3-4.9c-0.2-2.3-0.2-4-0.2-5.2c0-1.1,0.1-3.3,0.1-4.4
		C6.4,0.9,4.6,1.1,1,1.5l-8.9,0.4c0,1.4-0.2,6.2-0.4,8.7C-8.6,13-8.7,15-8.7,16.4c0,0.6-0.2,1.2-0.6,1.6c-0.4,0.4-1.1,0.6-1.7,0.6
		c-0.6,0-1-0.2-1.4-0.7c-0.4-0.4-0.6-1-0.6-1.6c0-1.6,0.1-4,0.4-7.2c0.2-3.2,0.6-24.5,0.6-25.7c0-0.6,0.2-1.2,0.6-1.6
		c0.4-0.4,1.2-0.7,1.8-0.7c1.9,0,2.4,1.4,2.4,2c0,1.2-0.3,14.1-0.3,14.1l9.2-0.4c4.1-0.2,4.8-0.6,7.2-0.6C9-5.9,9.1-8.2,9.1-12.6
		c0-1.2,0.1-2,0.1-3.2c0-1.9,1.7-2.8,2.5-2.8c0.5,0,1.6,0.1,2,0.5s0.6,0.9,0.6,1.6C14.2-16.2,13.2,7.9,13.3,10.2z"/>
</g>
<g id="G">
	<path fill="#6CBE45" d="M7.7,13.9c-2.9,2.8-6.2,4.2-10.1,4.2c-3.5,0-6.2-1-8-3.1c-1.8-2.1-2.7-5.2-2.7-9.4c0-3.9,0.9-8,2.6-12.2
		c1.8-4.2,4-7.6,6.8-10.1c1.8-1.7,3.8-2.6,5.8-2.6c1.3,0,3,0.5,5.2,1.4c2.6,1.1,3.9,2.3,3.9,3.6c0,0.6-0.2,1.2-0.6,1.7
		C10.3-12.2,9.8-12,9.2-12c-0.3,0-0.8-0.2-1.3-0.6c-2.2-1.4-4.1-2.1-5.6-2.1c-1.1,0-2.2,0.6-3.4,1.8c-0.6,0.6-1.4,1.7-2.5,3.2
		c-3.3,4.7-5,9.7-5,15.2c0,2.9,0.4,4.9,1.2,6c0.9,1.2,2.6,1.9,5,1.9c2.6,0,4.8-0.9,6.7-2.6c2-1.8,3.4-5.7,4.2-9.1
		c-4,0.2-6.6,0-9.8,0.3c-0.4,0-0.7,0-1-0.1c-0.6-0.2-1-0.7-1.2-1.3c-0.2-0.6-0.2-1.2,0-1.8C-3.2-2-2.6-2.5-1.7-2.7
		C1.9-3.4,4-3.1,11.6-3.1c0.6,0,2.3-0.1,2.3,1.2C13.9,0.8,10.6,11.1,7.7,13.9z"/>
</g>
<g id="F">
	<path fill="#6CBE45" d="M11.7-17.8C9.4-18.6,6.2-19,2.2-19c-1.5,0-14.4-0.1-14.7,3.3c0,0.5-0.5,29.1-0.5,30.8
		c0,0.6,0.2,1.1,0.7,1.6c0.5,0.4,1.1,0.6,1.8,0.6c0.7,0,1.3-0.2,1.7-0.6c0.5-0.4,0.4-1,0.4-1.6c0,0,0.1-13,0.1-13.4l6.8-0.3L4.5,1
		C6,0.8,6.7,0.1,6.7-1.2c0-0.7-0.2-1.2-0.7-1.6C5.5-3.3,4.9-3.5,4.2-3.5C3.4-3.5,1.5-3.3-1.7-3l-6.5,0.3C-7.9-6.2-7.8-9-7.8-11
		c0-0.6-0.3-1.8,0.5-2.4c1.5-1.1,8.1-1.1,9.4-1.1c2.6,0,5.2,0.3,8,1c0.3,0.1,0.5,0.1,0.8,0.1c0.7,0,1.3-0.2,1.8-0.7
		c0.4-0.4,0.6-1,0.6-1.5C13.4-16.7,12.8-17.4,11.7-17.8z"/>
</g>
<g id="E">
	<path fill="#6CBE45" d="M11-13.4c-0.2,0-0.5,0-0.8-0.1c-2.8-0.7-5.4-1-8-1c-1.3,0-7.3,0.1-8.8,1.1c-0.8,0.6-1.2,2.1-1.2,2.7
		c0,2-0.1,4.4-0.4,7.9L-1.7-3c3.2-0.3,5.1-0.4,5.8-0.4c0.7,0,1.3,0.2,1.8,0.6c0.5,0.4,0.7,0.9,0.7,1.6c0,1.3-0.8,2-2.3,2.2l-5.9,0.5
		l-6.7,0.3c-0.1,1-0.1,2.2-0.1,3.1c0,0.9-0.1,2.6-0.1,3.4c0,3.2,0.6,4.1,1.1,4.6c0.4,0.4,1.7,0.6,3.9,0.6c1,0,2.5,0,4.6-0.1
		c2-0.1,3.6-0.1,4.6-0.1c0.3,0,0.8,0,1.5-0.1C7.9,13,8.3,13,8.6,13c1.7,0,2.6,0.8,2.6,2.2c0,1.2-0.7,1.9-2.1,2.2
		c-1.5,0.3-4.9,0.4-10,0.4c-5.1,0-8.3-0.6-9.8-1.8c-1.6-1.3-2.4-4.2-2.4-8.9c0-0.9,0-1.9,0.1-3c0-1.1,0.3-19.3,0.4-19.9
		C-12.2-19.1,0.7-19,2.2-19c4,0,7.2,0.4,9.5,1.3c1.1,0.4,1.6,1.1,1.6,2.1c0,0.6-0.2,1.1-0.6,1.5C12.3-13.7,11.7-13.4,11-13.4z"/>
</g>
<g id="D">
	<path fill="#6CBE45" d="M7,15.7c-2.4,1.6-5.8,2.4-10.2,2.4c-1.1,0-2.4-0.2-3.8-0.5c-1.7-0.4-3-0.9-3.9-1.6h-0.2
		c-0.7,0-1.2-0.2-1.6-0.7c-0.4-0.5-0.7-1-0.7-1.7c0-1.6,0.1-4,0.2-7.2c0.1-3.2,0.2-5.6,0.2-7.2c0-1.8,0-4.4-0.1-8
		c-0.1-3.5-0.1-5.6-0.1-7.3c0-0.6,0.3-1.3,1-2c0.6-0.7,1.3-1,1.9-1c8.6-0.4,16.1,4.8,19.1,7.9c3.6,3.6,5,9.3,5,13.6
		c0,2.6-0.6,5.1-1.8,7.5C10.8,12.3,9.1,14.3,7,15.7z M2.3-10.4c-3.2-2.1-5-3.4-10.9-3.3l0.1,6.6l0.1,6.6l-0.4,12.5
		c0.1,0,0.3,0.1,0.5,0.3c1.3,0.9,3,1.3,5.1,1.3c3.5,0,6-0.5,7.6-1.6c1.5-1,2.7-2.4,3.5-4.1c0.9-1.7,1.3-3.5,1.3-5.3
		C9.2-1.7,7-7.3,2.3-10.4z"/>
</g>
<g id="C">
	<path fill="#6CBE45" d="M11.5-10.1c-1,0-1.1-0.6-1.7-1.8c-0.5-1.1-1.5-2.3-1.9-2.6c-0.3-0.2-1.2-0.3-2.5-0.3
		c-2.3,0-5.6,2.5-8.4,6.1C-6.9-3.7-8.8,0.9-8.8,5.3c0,2.1,1.3,4.6,2.6,6.1c1.4,1.6,3,2.4,4.9,2.4c1.7,0,4-1.1,5.6-1.9
		c0.9-0.5,2.4-1.5,4.3-2.9c0.9-0.7,1-1,1.4-1c0.7,0,1.3,0.3,1.7,0.8c0.5,0.5,0.7,1.1,0.7,1.8c0,0.7-0.3,1.4-0.9,1.9
		c-4.2,3.8-8.5,5.8-12.9,5.8c-3.3,0-6.1-1.3-8.4-3.9c-2.2-2.5-3.3-5.5-3.3-9c0-5.6,2.3-11.3,6.8-17.1c3.8-4.9,7.6-7.3,11.5-7.3
		c0.8,0,1.5,0.1,2.1,0.1c4.2,0.1,6.3,4.3,6.3,6.2c0,0.7-0.2,1.3-0.5,1.8C12.9-10.4,12.3-10.1,11.5-10.1z"/>
</g>
<g id="B">
	<path fill="#6CBE45" d="M5.2,15.7c-4,1.3-9,2-15.2,2c-0.8,0-1.5-0.3-2.2-0.9c-0.7-0.6-1-1.3-1-1.9V8.2c0-2.2,0.4-16.8,0.4-18.8
		c0-1.4,0-2.9,0.2-5.7c0.1-0.8,0.5-1.8,0.9-2.1c2.4-0.6,5.8-1,8.8-1c3.1,0,6.1,0.9,8.9,2.7c3.3,2.1,4.9,4.7,4.9,7.8
		c0,3.9-1.3,8-6.4,8c4.1,0,6.5,3,7.5,4.3c1,1.3,1.5,2.7,1.5,4.1c0,1.8-1.2,3.6-3.5,5.4C8.7,14.2,7,15.1,5.2,15.7z M1,1.1
		c-2.7-0.8-8.3-0.8-9.4-0.9c-0.1,1.9-0.2,6.6-0.2,8.1l-0.1,4.5C-3.9,12.5,1,12.3,4,11.3c1.3-0.4,2.5-1.1,3.7-1.9
		c1.1-0.8,1.3-1.3,1.3-1.7C9.1,7,8.1,5.4,6.4,4C4.4,2.4,2.8,1.6,1,1.1z M-2.4-14.6c-2,0-5.3,0.3-6.2,0.4l0,3.6l0.5,7
		c2.7,0.2,6.3-0.2,6.5-0.3C1.3-4.1,2.8-4,4.6-5.3c1.9-1.4,2.2-1.3,2.2-3.5c0-1.4-1-2.8-2.9-4C1.9-14-0.2-14.6-2.4-14.6z"/>
</g>
<g id="A">
	<path fill="#6CBE45" d="M11.5,17.7C10.2,17.7,9,15.8,8,12c-0.4-1.5-0.9-4.5-1.5-8.2C5,4-4.7,4.7-4.7,4.7c-0.7,2.1-2.8,7.4-4.6,11.5
		c-0.5,0.9-1.1,1.4-1.9,1.4c-0.6,0-1.1-0.2-1.6-0.7c-0.5-0.5-0.7-1.1-0.7-1.8c0-0.8,9-20.4,11.6-24.9C1.7-15.9,3.9-19,4.7-19
		c1.2,0,2,0.9,2.4,2.7l1.4,8.2l3.3,16.9l1.3,3.8c0.4,1.3,0.6,2.2,0.6,2.6c0,0.7-0.2,1.3-0.7,1.8C12.7,17.5,12.1,17.7,11.5,17.7z
		 M3.6-10.1l-5.7,10C0.3-0.8,1.6,0,5.4-0.7L3.6-10.1z"/>
</g>
<g id="Helplines" display="none">
	<rect x="-14" y="-21.1" display="inline" width="28.3" height="42.5"/>
	<path display="inline" fill="none" stroke="#2BB673" stroke-width="0.15" stroke-miterlimit="10" d="M111.1-60.4
		c-0.4,0-0.7-0.1-1.2-0.2c-4.3-1.1-8.4-1.6-12.3-1.6c-2.1,0-11.2,0.1-13.5,1.8c-1.2,0.9-1.9,3.2-1.9,4.1c0,3.1-0.1,6.7-0.6,12.1
		l10-0.2c4.9-0.4,7.8-0.7,9-0.7c1.1,0,2,0.3,2.8,0.9c0.8,0.6,1.1,1.5,1.1,2.5c0,2-1.2,3.1-3.5,3.4l-9,0.7l-10.4,0.5
		c-0.1,1.6-0.1,3.4-0.2,4.8c-0.1,1.4-0.2,3.9-0.2,5.2c0,4.9,0.9,6.3,1.7,7.1c0.6,0.6,2.6,0.9,5.9,0.9c1.6,0,3.9,0,7.1-0.1
		c3.1-0.1,5.5-0.1,7.1-0.1c0.5,0,1.2-0.1,2.2-0.2c1-0.1,1.7-0.2,2.2-0.2c2.7,0,4,1.2,4,3.5c0,1.9-1.1,3-3.2,3.4
		c-2.4,0.4-7.5,0.6-15.4,0.6c-7.8,0-12.8-0.9-15-2.7c-2.4-2-3.6-6.5-3.6-13.6c0-1.4,0-3,0.1-4.7c0.1-1.7,0.5-29.7,0.6-30.5
		c0.5-5.2,20.3-5.1,22.6-5.1c6.1,0,11,0.6,14.7,1.9c1.7,0.6,2.5,1.7,2.5,3.2c0,0.9-0.3,1.7-1,2.4C113-60.8,112.1-60.4,111.1-60.4z"
		/>
	
		<rect x="-21.5" y="-29.8" display="inline" fill="none" stroke="#8DC63F" stroke-width="0.25" stroke-miterlimit="10" width="44" height="59.6"/>
	<circle display="inline" fill="#6CBE45" cx="-30.6" cy="6.3" r="3.4"/>
	
		<rect x="72.1" y="-69.9" display="inline" fill="none" stroke="#8DC63F" stroke-width="0.25" stroke-miterlimit="10" width="44" height="59.6"/>
	<circle display="inline" fill="#6CBE45" cx="44.7" cy="-66.5" r="3.4"/>
</g>
</svg>
