<?xml version="1.0" encoding="utf-8"?>
<!-- Generator: Adobe Illustrator 16.0.4, SVG Export Plug-In . SVG Version: 6.00 Build 0)  -->
<!DOCTYPE svg PUBLIC "-//W3C//DTD SVG 1.1//EN" "http://www.w3.org/Graphics/SVG/1.1/DTD/svg11.dtd">
<svg version="1.1" id="Layer_1" xmlns="http://www.w3.org/2000/svg" xmlns:xlink="http://www.w3.org/1999/xlink" x="0px" y="0px"
	 width="64px" height="64px" viewBox="0 0 64 64" enable-background="new 0 0 64 64" xml:space="preserve">
<rect id="PSE" x="0.039" y="0.013" fill-rule="evenodd" clip-rule="evenodd" fill="none" stroke="#FFFF00" stroke-width="0.1" stroke-miterlimit="10" width="30.759" height="30.759"/>
<rect id="PE" x="-0.332" y="13.438" fill-rule="evenodd" clip-rule="evenodd" fill="#0071BC" width="16.609" height="4.026"/>
<rect x="21.466" y="11.256" transform="matrix(0.7073 -0.7069 0.7069 0.7073 -9.7491 23.4799)" fill-rule="evenodd" clip-rule="evenodd" fill="#0071BC" width="4.025" height="24.513"/>
<rect id="PW" x="14.973" y="13.438" fill-rule="evenodd" clip-rule="evenodd" fill="#0071BC" width="16.609" height="4.026"/>
<rect id="PSW" x="5.269" y="11.255" transform="matrix(0.707 0.7072 -0.7072 0.707 18.7606 1.7383)" fill-rule="evenodd" clip-rule="evenodd" fill="#0071BC" width="4.025" height="24.514"/>
<rect id="PN" x="13.895" y="-0.463" fill-rule="evenodd" clip-rule="evenodd" fill="#0071BC" width="4.025" height="16.126"/>
<rect id="PS" x="13.895" y="14.974" fill-rule="evenodd" clip-rule="evenodd" fill="#0071BC" width="4.025" height="16.414"/>
<rect id="PNE" x="21.8" y="-4.897" transform="matrix(0.7072 0.707 -0.707 0.7072 11.957 -14.7726)" fill-rule="evenodd" clip-rule="evenodd" fill="#0071BC" width="4.026" height="23.892"/>
<rect id="PNW" x="5.269" y="-4.937" transform="matrix(0.707 -0.7072 0.7072 0.707 -3.0435 7.2952)" fill-rule="evenodd" clip-rule="evenodd" fill="#0071BC" width="4.026" height="24.514"/>
</svg>
