<?xml version="1.0" encoding="utf-8"?>
<!-- Generator: Adobe Illustrator 16.0.4, SVG Export Plug-In . SVG Version: 6.00 Build 0)  -->
<!DOCTYPE svg PUBLIC "-//W3C//DTD SVG 1.1//EN" "http://www.w3.org/Graphics/SVG/1.1/DTD/svg11.dtd">
<svg version="1.1" xmlns="http://www.w3.org/2000/svg" xmlns:xlink="http://www.w3.org/1999/xlink" x="0px" y="0px" width="430px"
	 height="400px" viewBox="0 0 430 400" enable-background="new 0 0 430 400" xml:space="preserve">
<g id="Cowee">
	<g id="Bod">
		<path fill="#030403" d="M-9.581,81.885c-1.217-11.292-2.427-22.587-3.403-33.902c-0.569-6.598-0.394-13.215,0.392-19.802
			c-0.002,0.001-0.005,0.001-0.008,0.002c-16.186,3.696-22.633-4.568-22.26-2.736c0.651,3.195,0.716,6.409,0.529,9.635
			c-0.794,13.646-3.266,26.991-7.183,40.079c-0.021,0.099-0.04,0.198-0.065,0.285c-0.051,0.177-0.122,0.369-0.19,0.562
			c-0.217,0.71-0.418,1.425-0.643,2.134c-3.083,9.72-7.087,19.108-10.795,28.605c-0.27,0.691-0.797,1.355-0.298,2.188
			c3.812,6.333,9.467,10.096,16.854,11.251c2.211,0.347,3.094,0.142,3.705-2.022c0.599-2.12,4.269-1.704,4.63-0.072
			c0.317,1.436,0.796,2.462,4.207,1.88c6.215-1.058,11.709-3.813,16.819-7.351c0.899-0.622,1.109-1.354,1.006-2.47
			C-7.158,100.704-8.565,91.315-9.581,81.885z"/>
		<path fill-rule="evenodd" clip-rule="evenodd" fill="#FDFDFD" d="M-17.582,34.641c0.008-2.041,0.087-4.079,0.236-6.114
			c-3.819,0.114-7.682-0.1-11.416-0.957c1.795,12.77-1.831,28.7-4.895,41.045c-1.66,6.689-4.128,13.138-6.253,19.685
			c-2.687,8.276-1.405,9.269,7.045,9.896c3.795,0.281,15.214,1.891,18.133-1.26c2.925-3.158,1.053-12.736,0.713-16.384
			C-15.443,65.247-17.786,50.058-17.582,34.641C-17.555,32.597-17.746,47.065-17.582,34.641z"/>
		<path fill-rule="evenodd" clip-rule="evenodd" fill="#9DA090" d="M-29.987,97.741c4.337-1.566,8.229-19.792,7.896-25.662
			s-8.688-15.996-8.688-15.996l1.412-7.971c0,0,11.759,6.955,12.655,6.259s3.598,32.637,3.598,32.637s2.615,14.88-9.766,12.792
			C-32.583,98.164-29.987,97.741-29.987,97.741"/>
		<path fill-rule="evenodd" clip-rule="evenodd" fill="#444444" d="M-49.225,111.571c1.306-5.453,0.64-4.804,2.342-10.164
			c0.731-2.296,0.912-2.223,5.065-2.552c9.846,2.766,8.954-0.66,15.667,1.82c0.566,4.633-0.613,12.155-3.597,9.546
			c-2.412,2.712-4.925,3.971-5.632,7.142C-40.255,115.363-45.79,119.733-49.225,111.571z"/>
		<path fill="#030403" d="M75.471-18.233c2.883-35.558-27.812-44.309-46.718-47.58c-0.262,0.035-0.667-0.015-1.286-0.114
			c-0.278-0.044-0.553-0.113-0.831-0.162c-1.855-0.321-3.712-0.627-5.57-0.918c-0.823-0.121-1.583-0.235-2.272-0.345
			c-6.73-0.987-13.49-1.663-20.333-1.54c-3.741,0.067-7.485,0.06-11.226-0.005c-2.781-0.048-5.481,0.37-8.169,1.011
			c-9.718,2.321-18.262,7.043-26.271,12.85c-3.487,2.528-6.972,5.085-9.91,8.252c-4.398,4.741-8.067,9.993-10.479,16.041
			c-0.601,1.507-1.582,2.589-2.917,3.502c-3.15,2.154-6.08,4.597-8.812,7.263C-86.395-13.078-92.21-5.184-97.304,3.232
			c-2.975,4.916-4.349,10.696-7.282,15.635c1.542,1.683,1.987,2.167,3.223,3.773c1.565,2.033,4.553,1.311,7.081-0.048
			c-0.14-0.276-0.285-0.55-0.418-0.83c-0.63-1.319,0.45-1.335,1.1-2.663c1.714-3.503,2.687-7.872,5.148-10.89
			c4.653-5.706,10.125-10.63,15.193-15.938c0.342-0.358,0.538-1.013,1.289-0.888c-0.968,12.323,0.352,24.564,1.023,36.821
			c1.104,20.19-0.007,40.163-5.03,59.854c-2.837,11.124-6.357,22.049-9.239,33.155c-0.378,1.457-0.743,2.923-0.003,4.332
			c3.32,6.322,8.263,10.863,15.124,12.988c3.416,1.059,5.506-0.832,5.945-2.112c0.567-1.657,3.579-3.32,3.999-2.219
			c1.448,3.797,3.193,3.677,7.188,3.107c3.686-0.524,6.747-2.367,9.635-4.543c3.176-2.395,3.958-3.377,3.486-6.1
			c-9.201-12.324-7.986-86.031-7.986-86.031h5.143c0,0,16,8.518,20.334,12.077c3.465,1.234,7.032,2.069,10.646,2.645
			c2.053,0.327,3.067,1.335,3.465,3.338c0.695,3.495,0.765,7.009,0.564,10.537c-0.848,14.923-3.487,29.519-7.67,43.833
			c-0.021,0.107-0.042,0.217-0.069,0.312c-0.054,0.192-0.13,0.404-0.203,0.614c-0.231,0.777-0.446,1.557-0.687,2.333
			c-3.292,10.632-7.567,20.899-11.526,31.285c-0.288,0.756-0.852,1.482-0.318,2.393c4.07,6.927,10.108,11.041,17.995,12.306
			c2.361,0.379,3.582-1.458,4.037-2.412c0.632-1.325,3.299-1.325,3.632-0.367c0.421,1.212,2.08,3.18,5.722,2.544
			c6.637-1.157,12.502-4.171,17.958-8.04c0.96-0.68,1.184-1.48,1.075-2.701c-0.931-10.332-2.434-20.599-3.519-30.911
			c-1.299-12.351-2.591-24.704-3.633-37.078c-0.658-7.817-0.394-15.659,0.633-23.457c0.124-0.946,0.306-1.918,1.316-2.227
			c4.467-1.369,8.985-2.476,13.718-1.796c1.003,0.144,1.75,0.542,2.025,1.783c1.631,7.343,3.752,14.572,4.003,22.187
			c0.287,8.704,2.559,17.237,1.585,26.107c-0.607,5.532-1.038,11.081-2.161,16.53c-1.72,8.348-3.586,16.665-5.483,24.976
			c-0.344,1.509-0.045,2.459,1.136,3.451c2.956,2.485,6.328,4.211,9.845,5.678c2.016,0.84,4.113,1.481,6.355,1.379
			c2.211-0.1,7.94,0.08,11.828-0.836c3.629-0.854,6.639-2.982,9.772-4.883c3.937-2.388,5.418-5.915,5.364-10.319
			c-0.081-6.503-0.66-12.966-1.459-19.413c-0.126-1.017-0.524-2.05,0.254-3.038c0.392-0.497,0.771-1.003,1.144-1.513
			c-1.351-2.03-2.55-4.165-3.52-6.415c-9-20.9-26.502-55.239-24.304-62.402S71.971,24.938,75.471-18.233z"/>
		<path fill-rule="evenodd" clip-rule="evenodd" fill="#FDFDFD" d="M70.062,124.334c-1.384-9.952-4.583-19.228-8.976-28.268
			c-2.941-6.055-6.133-11.789-8.193-18.195c-2.515-7.818-9.828-18.174-9.295-26.53c-5.459,2.012-5.628,0.852-4.181,7.562
			c1.158,5.37,2.235,10.855,2.666,16.339c0.862,11.001,0.797,22.146,0.415,33.167c-0.269,7.755-1.559,15.312-2.095,23.014
			C40.043,136.563,71.974,138.144,70.062,124.334C70.023,124.057,70.633,128.459,70.062,124.334z"/>
		<path fill-rule="evenodd" clip-rule="evenodd" fill="#FDFDFD" d="M-68.834-24.168c-0.535,2.81-0.991,5.15-1.422,7.496
			c-0.157,0.853-0.837,1.266-1.39,1.793C-79.208-7.667-86.437-0.153-92.44,8.446c-1.896,2.715-3.65,5.521-4.493,8.781
			c-0.412,1.592-1.573,1.41-2.682,1.082c-1.113-0.329-1-1.143-0.574-2.019c6.958-14.306,15.368-27.547,27.78-37.846
			C-71.389-22.402-70.268-23.126-68.834-24.168z"/>
		<path fill-rule="evenodd" clip-rule="evenodd" fill="#030403" d="M-8.681,21.263c0.007,7.973-5.616,12.958-13.553,12.218
			c-4.081-0.38-7.666-1.707-10.679-4.487c-2.809-2.592-3.239-4.607-1.741-8.104c2.598-6.067,6.552-10.516,13.611-11.065
			C-13.291,9.222-8.688,13.514-8.681,21.263z"/>
		<path fill-rule="evenodd" clip-rule="evenodd" fill="#030403" d="M26.176-43.888c8.161,0.162,15.331,3.371,22.325,7.109
			c3.17,1.694,6.272,3.518,8.901,6.007c2.454,2.323,2.035,4.147-1.205,5.169c-3.679,1.16-7.417,0.775-11.076-0.037
			c-7.395-1.641-14.441-4.199-20.674-8.638c-1.671-1.19-3.168-2.598-4.212-4.397c-1.427-2.459-0.607-4.279,2.166-4.777
			C23.646-43.675,24.917-43.747,26.176-43.888z"/>
		<path fill-rule="evenodd" clip-rule="evenodd" fill="#FDFDFD" d="M47.83,41.424c23.203-28.184,41.242-76.619-0.259-96.698
			c-16.603-8.033-36.022-11.692-54.369-9.964c-12.31,1.16-24.616,4.772-34.792,11.964c-2.194,1.551-19.749,21.151-18.394,22.105
			C-71.336-8.077-63.18,19.94-65.063,44.59c-0.655,8.569-2.234,17.487-1.839,26.068c-0.555,5.911-2.037,11.664-3.316,17.444
			c-0.873,3.947-6.619,17.368-4.254,20.872c2.644,3.917,27.195,2.156,26.405-3.907c-1.493-11.461-3.976-22.518-3.601-34.217
			c0.164-5.831-0.461-12.113,0.042-18.102c0.06-4.848-0.48-8.229-0.256-13.073c0.039-0.833,0.072-6.939-0.876-10.596
			c-0.721-2.777,2.862-0.799,2.862-0.799c6.876,5.137,18.909,13.771,20.912,14.776c12.72,6.381,27.7,4.357,27.578,22.024
			c-0.094,13.56-2.578,28.2-5.923,41.31c-1.462,5.731-13.085,28.796-4.364,30.192c10.824,1.743,25.818,4.821,26.118-8.923
			c0.324-14.867-2.904-29.853-3.809-44.686c-0.388-6.361-0.564-12.751-0.322-19.122c0.331-8.698,1.344-10.297,9.398-12.732
			C25.944,49.229,45.515,48.853,47.83,41.424C56.064,31.421,47.287,43.166,47.83,41.424z"/>
		<path fill-rule="evenodd" clip-rule="evenodd" fill="#606060" d="M25.633-4.617c9.939-4.646,17.34,1.414,19.883,8.722
			c2.434,6.999-3.415,14.123-11.53,15.694c-5.037,0.978-7.61,2.911-9.783,7.461C18.622,38.938,1.167,44.434-10.131,38.53
			c-4.133-2.159-7.294-5.247-7.72-10.214c-0.482-5.616,3.263-7.811,7.806-9.266C8.324,20.926,15.565,6.022,25.633-4.617z"/>
		<path fill-rule="evenodd" clip-rule="evenodd" fill="#606060" d="M-1.107-44.056c-6.399,2.927-6.504,10.106-9.72,15.134
			c-1.953,3.053-3.467,5.644-6.857,6.895c-3.678-2.796-8.765-5.766-5.623-11.005c5.279-8.8,2.673-14.905-4.39-20.792
			c-1.609-1.344-2.097-3.02-3.257-5.415c5.637-2.17,10.524-3.551,15.628-4.781c4.038-0.683,7.258-2.129,20.675-1.638
			c-1.046,3.949,13.25,2.857,5.883,9.671C5.973-53.197,0.297-50.836-1.107-44.056z"/>
		<path fill-rule="evenodd" clip-rule="evenodd" fill="#606060" d="M-43.347-20.654c3.968,4.699,2.776,9.538,0.378,14.321
			c-1.685,3.356-2.591,6.492-0.986,10.238c4.124,9.62,1.271,12.827-10.997,13.454c-2.08,0.106-4.456-1.045-6.29,0.722
			c-0.846,0.149-3.417,1.632-4.264,1.782c-0.688-9.75-0.491-13.327-0.651-18.812c-0.35-11.612,1.588-22.688,5.362-30.477
			c1.683-3.473,1.337,4.013,6.915,5.734C-50.436-22.628-46.875-21.63-43.347-20.654z"/>
		<path fill-rule="evenodd" clip-rule="evenodd" fill="#9DA090" d="M3.016,48.843c0,0,4,64.287,3.5,71.477
			s-6.348,13.568-9.841,16.545s20.229,6.999,17.56-18.163c-2.765-26.062-4.22-49.419-3.978-53.814S8.84,53.481,22.345,49.996
			S9.347,48.177,9.347,48.177L3.016,48.843z"/>
		<path fill-rule="evenodd" clip-rule="evenodd" fill="#9DA090" d="M39.377,52.107c0,0,23.975,56.789,23.475,63.979
			s3.157,12.685-0.336,15.663s14.631,5.055,6.5-18.907c-2.984-8.793-17.468-37.438-22.611-49.629
			c-1.823-4.322-2.806-11.872-2.806-11.872L39.377,52.107z"/>
		<g id="HovA">
			<path fill-rule="evenodd" clip-rule="evenodd" fill="#444444" d="M-24.589,149.963c1.306-5.453,2.343-10.969,4.044-16.328
				c0.731-2.296,0.975-5.521,5.129-5.85c6.527,9.978,19.973,13.015,29.252,6.978c0.566,4.633-3.824,8.517-5.629,12.594
				c-1.467,3.318-2.186,8.43-6.278,8.96c-3.747,0.484-4.058-5.095-7.042-7.704c-2.412,2.712-3.434,5.197-1.704,8.146
				C-13.605,161.012-21.154,158.125-24.589,149.963z"/>
			<path fill-rule="evenodd" clip-rule="evenodd" fill="#444444" d="M35.307,146.675c1.306-5.453,2.798-7.391,4.5-12.75
				c0.731-2.296,10.258,0.983,14.412,0.654c3.724,0.184,8.338,4.596,15.938-6.794c0.566,4.633-3.168,10.939-4.973,15.016
				c-1.467,3.318-2.186,8.43-6.278,8.96c-3.747,0.484-3.865-2.603-6.849-5.211c-2.412,2.712-3.627,2.705-1.897,5.654
				C43.371,156.457,38.743,154.837,35.307,146.675z"/>
			<path fill-rule="evenodd" clip-rule="evenodd" fill="#444444" d="M-82.372,124.363c1.202-5.453,4.915-17.178,6.929-17.351
				c8.375,6.226,19.625,4.476,26.69,0c0.521,4.633-1.772,13.34-3.433,17.417c-1.351,3.318,0.322,8.279-3.445,8.81
				c-3.448,0.484-6.068-4.944-8.815-7.553c-2.22,2.712-3.16,5.197-1.568,8.146C-72.262,138.083-79.21,132.525-82.372,124.363z"/>
		</g>
		<path fill-rule="evenodd" clip-rule="evenodd" fill="#9DA090" d="M72.406-22.027c-1.555,0.821-16.974,43.532-27.724,52.702
			c-6.177,5.269-24.295,8.687-37.628,9.998c-14.53,10.518-42.933-9.765-56.706-15.495c-4.792-2.002-6.225,0-6.225,0l-0.317,11.685
			c0,0-2.442,64.056-2.938,71.246c-0.25,3.629,1.576,2.272,2.769,2.102c3.651-0.523,8.981-1.848,8.048-6.964
			c-0.987-5.41-2.727-11.817-3.389-30.757c-0.456-13.042,0.842-36.98-1.113-44.375c-0.195-0.74,1.145-0.375,1.098-0.493
			c0-0.001-0.001-0.001-0.001-0.002c5.302,4.436,16.001,11.998,21.732,14.847c13.614,5.161,21.708,9.455,33.157,8.876
			c8.127-0.411,16.767-1.252,32.767-3.149C50.351,46.483,73.682,10.925,72.406-22.027z"/>
		<path fill-rule="evenodd" clip-rule="evenodd" fill="#606060" d="M-54.27,65.873c-1.77-5.086-6.148-10.152-11.841-10.841
			c-0.669,8.03-1.482,19.139-2.978,27.453c0.969-0.379,2.054-0.677,3.289-0.917C-57.685,79.995-51.836,72.872-54.27,65.873z"/>
		<path fill-rule="evenodd" clip-rule="evenodd" fill="#606060" d="M11.73,89.161c-1.632,0.147-3.357,0.133-5.199-0.083
			c-4.543,1.67-8.288,4.191-7.806,10.641c0.426,5.705,3.587,9.251,7.72,11.73c2.251,1.351,4.748,2.174,7.345,2.533L11.73,89.161z"/>
		<path fill-rule="evenodd" clip-rule="evenodd" fill="#030403" d="M-57.239,60.269c-0.213,5.433-0.445,11.286-0.674,16.977
			c3.372-3.079,5.016-7.427,3.519-11.732C-55.028,63.695-55.999,61.883-57.239,60.269z"/>
		<path fill-rule="evenodd" clip-rule="evenodd" fill="#030403" d="M6.831,89.078c-0.467,0.172-0.923,0.355-1.369,0.549
			c0.207,6.626,0.497,15.547,0.736,21.48c0.182,0.115,0.362,0.231,0.547,0.342c2.251,1.351,4.748,2.174,7.345,2.533L12.03,89.161
			C10.398,89.308,8.673,89.293,6.831,89.078z"/>
		<g id="Svanstopp_2_">
			<path fill-rule="evenodd" clip-rule="evenodd" fill="#0B0909" d="M-104.318,18.399c0.689,0.181-1.407,0.73-1.149,1.84
				c0.412,1.77-0.324,2.408-1.889,3.205c-5.817,2.959-8.792,7.812-9.164,14.41c-0.35,6.208-2.644,11.914-5.489,17.168
				c1.591,2.303,3.111-0.557,4.847,0.766c-3.584,6.491-9.794,9.133-16.289,11.388c4.723,1.513,6.411,1.538,13.367,0.2
				c-1.951,7.87-10.717,13.602-25.02,16.361c18.064,5.568,33.779-0.112,45.759-16.395c0.869,3.139-1.557,5.309-1.945,7.955
				c0.307,0.372,0.614,0.744,0.922,1.115c8.084-6.771,11.129-15.828,11.695-26.219c2.443,3.574,1.673,7.49,2.174,12.514
				c5.123-10.568,7.548-20.24,4.04-30.64c-1.328-3.938-4.081-7.059-8.06-8.384c-2.662-0.885-3.093-2.736-3.084-4.584
				C-95.624,18.655-104.306,18.397-104.318,18.399z"/>
			<path fill-rule="evenodd" clip-rule="evenodd" fill="#0B0909" d="M-97.806,89.849c0.488-0.215,0.942-0.433,1.359-0.654
				C-96.901,89.411-97.357,89.624-97.806,89.849z"/>
		</g>
	</g>
	<g id="Huvud">
		<g id="HornL">
			<path fill-rule="evenodd" clip-rule="evenodd" fill="#030403" d="M47.68-45.925c1.097,0,3.048-0.413,7.238-1.354
				c2.142-0.48,5.379-1.207,6.126-1.238l0.431-0.048c2.536-0.467,10.759-2.549,10.108-9.723c-0.567-6.25-8.361-12.175-16.179-12.396
				c-0.425-0.106-0.817-0.165-1.207-0.182c-4.039-0.173-6.246-3.123-8.8-6.538c-0.399-0.533-0.794-1.062-1.193-1.573
				c-0.803-1.031-0.343-4.97-0.146-6.652c0.228-1.954,1.46-6.75,2.18-9.029l0.873-2.764l-2.732-0.968
				c-1.277-0.452-2.544-0.682-3.765-0.682c-2.34,0-5.736,0.853-8.626,4.915c-4.903,6.89-5.769,19.764-4.354,23.844
				c0.861,2.484,8.706,24.273,18.754,24.273c0.001,0,0.224-0.003,0.335-0.008C47.011-45.968,47.331-45.925,47.68-45.925z"/>
			<path fill-rule="evenodd" clip-rule="evenodd" fill="#9DA090" d="M61.333-51.514c15.408-2.839,4.656-16.378-6.213-16.181
				c0.666,3.396,8.576,1.753,7.765,5.306c-1.228,5.379-13.355,2.285-16.473,0.826c-9.815-4.597-18.384-23.315-2.634-33.996
				c-12-4.25-14.619,19.336-12.91,24.266c1.771,5.108,9.799,24.35,17.15,22.069C46-47.895,58.917-51.423,61.333-51.514
				C61.979-51.633,55.939-51.311,61.333-51.514z"/>
			<path fill-rule="evenodd" clip-rule="evenodd" fill="#EEEEEE" d="M43.778-95.56c-4.83,1.801-9.894,9.594-9.042,16.25
				c1.524,11.908,12.298,23.002,25,20.667c1.571-0.289,3.443-1.906,3.75-3.25c0.429-1.877-1.2-2.721-2.333-3.167
				c-1.03-0.402-2.977-0.328-3.667-1.583c-0.96-0.612-2.031-1.183-3.016-1.226c-6.237-0.268-9.126-5.277-12.231-9.265
				c-1.545-1.983-1.104-5.896-0.76-8.843C41.74-88.219,43.028-93.185,43.778-95.56z"/>
		</g>
		<g id="HornR">
			<path fill-rule="evenodd" clip-rule="evenodd" fill="#030403" d="M144.317-48.841c-1.097,0-3.048-0.413-7.238-1.354
				c-2.142-0.48-5.379-1.207-6.126-1.238l-0.431-0.048c-2.536-0.467-10.759-2.549-10.108-9.723
				c0.567-6.25,8.361-12.175,16.179-12.396c0.425-0.106,0.817-0.165,1.207-0.182c4.039-0.173,6.246-3.123,8.8-6.538
				c0.399-0.533,0.794-1.062,1.193-1.573c0.803-1.031,0.343-4.97,0.146-6.652c-0.228-1.954-1.46-6.75-2.18-9.029l-0.873-2.764
				l2.732-0.968c1.277-0.452,2.544-0.682,3.765-0.682c2.34,0,5.736,0.853,8.626,4.915c4.903,6.89,5.769,19.764,4.354,23.844
				c-0.861,2.484-8.706,24.273-18.754,24.273c-0.001,0-0.224-0.003-0.335-0.008C144.986-48.885,144.667-48.841,144.317-48.841z"/>
			<path fill-rule="evenodd" clip-rule="evenodd" fill="#9DA090" d="M130.664-54.431c-15.408-2.839-4.656-16.378,6.213-16.181
				c-0.666,3.396-8.576,1.753-7.765,5.306c1.228,5.379,13.355,2.285,16.473,0.826c9.815-4.597,18.384-23.315,2.634-33.996
				c12-4.25,14.619,19.336,12.91,24.266c-1.771,5.108-9.799,24.35-17.15,22.069C145.997-50.811,133.08-54.34,130.664-54.431
				C130.018-54.55,136.058-54.228,130.664-54.431z"/>
			<path fill-rule="evenodd" clip-rule="evenodd" fill="#EEEEEE" d="M148.219-98.476c4.83,1.801,9.894,9.594,9.042,16.25
				c-1.524,11.908-12.298,23.002-25,20.667c-1.571-0.289-3.443-1.906-3.75-3.25c-0.429-1.877,1.2-2.721,2.333-3.167
				c1.03-0.402,2.977-0.328,3.667-1.583c0.96-0.612,2.031-1.183,3.016-1.226c6.237-0.268,9.126-5.277,12.231-9.265
				c1.545-1.983,1.104-5.896,0.76-8.843C150.257-91.136,148.969-96.101,148.219-98.476z"/>
		</g>
		<path id="CowFace" fill-rule="evenodd" clip-rule="evenodd" fill="#FDFDFD" d="M42.514-29.267
			c4.33-16.523,13.617-26.767,25.362-33.65c10.785-6.32,22.139-6.556,33.96-4.521c21.366-0.866,27.352,11.502,31.75,14.808
			c5.623,2.657,13.058,16.12,15.362,27.813c1.733,2.18,2.084,4.212,2.15,5.649c0.373,8.11,3.509,13.521,2.25,21.582
			c-1.35,8.635,0.075,13.691-2.917,21.333c-2.727-3.417-8.354-14.29-11.68-17.014c-0.744-0.609-5.393-9.699-16.563-10.096
			c-1.643-0.059-28.224,0.118-29.296,0c-6.15-0.672-10.485,1.672-17.65,2.013c-3.13,0.792-12.718,1.963-19.986,6.054
			c-4.685,3.192-11.349,20.799-15.379,23.427c-2.23-11.448-2.161-30.539-1.113-42.448C39.033-17.387,41.089-24.401,42.514-29.267z"
			/>
		<path fill-rule="evenodd" clip-rule="evenodd" fill="#9DA090" d="M140.848,13.312c2.992-7.642,4.067-7.347,5.417-15.982
			c1.26-8.061,2.253-10.212,1.88-18.323c-0.066-1.437-0.751-3.004,0.804-3.825c4.365,16.789,7.175,33.438,1.4,50.898
			C147.982,23.107,143.151,16.21,140.848,13.312z"/>
		<g id="EarB">
			<path fill-rule="evenodd" clip-rule="evenodd" fill="#0B0909" d="M205.333-28.542c1.522-12.901,0.926-21.451-10.242-33.867
				c-6.02-4.936-13.841-4.945-18.944-0.274c-2.899,2.654-5.478,5.709-8.225,8.56c-5.714,5.929-12.984,6.834-21.383,3.878
				c-0.879-0.31-1.614-0.731-2.209-1.222l-3.966,2.734c4.013,7.873,7.354,17.036,9.549,26.043l6.096,4.593
				c7.419,3.935,14.76,5.872,22.09,5.865C186.989-12.457,203.825-15.764,205.333-28.542z"/>
			<path fill-rule="evenodd" clip-rule="evenodd" fill="#FDFDFD" d="M154.131-25.281c2.486,0.707,4.968,1.487,7.457,2.106
				c9.071,2.259,17.877,3.082,25.322-1.843c5.137-3.398,7.745-8.808,7.733-15.958c-0.003-2.237-0.483-4.711-2.806-5.848
				c-2.542-1.246-3.512,0.896-4.345,2.665c-7.826,16.632-25.694,13.828-37.592,7.011c-1.984-1.137-1.958-1.217-4.133-7.911
				c12.771,3.856,21.057-2.401,28.596-10.316c0.094-0.099,0.158-0.237,0.264-0.318c4.287-3.269,8.298-7.696,14.962-4.069
				c6.745,3.672,9.193,10.47,10.422,17.496c1.877,10.736-3.404,20.282-12.312,23.012c-8.7,2.667-17.765,2.545-27.277-1.292
				C158.204-21.442,155.935-22.309,154.131-25.281z"/>
			<path fill-rule="evenodd" clip-rule="evenodd" fill="#CE6E6E" d="M190.854-43.648c2.115,5.324-0.328,12.189-5.274,15.862
				c-3.598,2.671-7.841,3.468-12.46,3.294c-6.594-0.247-13.141-1.936-19.704-4.411c-2.403-0.907-3.546-2.243-3.348-4.692
				C166.906-27.732,182.414-25.403,190.854-43.648z"/>
		</g>
		<g id="EarA">
			<path fill-rule="evenodd" clip-rule="evenodd" fill="#0B0909" d="M27.762-9.993c4.193-1.791,8.43-4.03,11.127-6.34
				c1.056-10.658,2.889-20.835,6.799-30.262l-5.013-2.698c-1.505,1.784-3.477,3.059-6.422,3.342
				c-5.635,0.542-10.018-1.484-13.979-5.542c-2.832-2.901-5.43-6.123-8.406-8.809c-6.938-6.263-15.08-5.179-20.124,2.421
				C-19.138-41.485-10.78-14.321,6.725-9.383C13.924-7.352,20.987-7.504,27.762-9.993z"/>
			<path fill-rule="evenodd" clip-rule="evenodd" fill="#FDFDFD" d="M37.656-42.434c-0.15,6.6-3.196,9.805-7.911,11.614
				c-6.926,2.658-13.729,3.512-20.263-1.231c-3.02-2.192-5.282-5.18-7.064-8.737c-1.047-2.09-2.249-4.917-4.976-3.612
				c-2.473,1.184-2.104,4.176-1.876,6.612c1.04,11.16,9.814,19.762,20.319,20.117c6.043,0.204,11.729-1.837,17.587-3.377
				c-3.023,4.444-7.441,5.828-11.889,6.909C1.78-9.327-12.699-26.045-7.911-48.104c2.477-11.41,9.379-14.174,17.525-6.975
				c1.734,1.532,3.382,3.199,4.995,4.894C21.104-43.361,28.485-39.846,37.656-42.434z"/>
			<path fill-rule="evenodd" clip-rule="evenodd" fill="#CE6E6E" d="M-1.609-40.747c11.471,15.84,15.756,17.129,36.425,11.277
				c-0.174,1.894-0.246,3.635-2.06,4.39c-6.487,2.699-13.018,5.208-20.092,3.66C4.262-23.26-0.98-30.207-1.609-40.747z"/>
		</g>
		<g id="HovB">
		</g>
		<path fill="#0B0909" d="M40.514,20.164c-1.766-17.087-3.23-33.603,2-49.431c4.33-16.523,13.617-26.767,25.362-33.65
			c10.785-6.32,22.139-6.556,33.96-4.521c8.689,0.334,18.882,2.036,23.263,6.761c4.079,4.4,6.09,5.825,8.487,8.046
			c5.623,2.657,13.058,16.12,15.362,27.813c4.365,16.789,5.627,34.685-0.148,52.145c1.738,4.898,2.853,5.691,3.963,0.304
			c0.725-4.269,2.102-11.353,2.749-20.02c-0.128-0.633-0.091-1.317,0.137-2.082c0.116-1.984,0.192-4.039,0.209-6.157
			c-0.165-0.837-0.148-2.094-0.052-4.541c-0.106-3.373-0.374-6.864-0.855-10.426c-0.155-0.498-0.231-1.004-0.216-1.505
			c-2.162-14.255-7.85-29.517-20.56-42.684c-2.954-2.221-6.067-4.114-8.752-6.894c-4.634-4.797-9.713-8.264-15.837-6.183
			c-2.898,0.985-5.676,1.057-8.617,0.827c-13.189-1.03-26.126-0.326-37.991,6.811c-0.857,0.625-1.896,1.313-3.153,2.076
			c-1.664,1.188-3.306,2.508-4.92,3.988c-0.39,0.356-0.757,0.565-1.121,0.67c-1.817,1.743-3.437,3.657-4.896,5.699
			c-0.019,0.61-0.475,1.233-1.376,2.029c-4.172,6.507-6.941,14.093-9.361,21.551c-2.075,6.882-3.156,13.894-3.626,20.553
			c-0.012,0.313-0.03,0.622-0.059,0.921c-0.732,11.682,0.603,16.708,1.383,23.4c0.004,0.032,0.723,6.717,0.726,6.75
			c0.515,2.674,2.117,11.895,1.233,14.041c2.313-4.13,1.603-6.519,5.042-9.625C41.682,27.875,40.741,25.489,40.514,20.164z"/>
		<g id="Hairdo">
			<path fill-rule="evenodd" clip-rule="evenodd" fill="#030403" d="M129.296-65.974l0.069-0.005l-1.023-3.566
				c-0.794-2.766-2.698-4.208-4.533-5.168l1.715-4.602c-2.674-2.938-5.845-4.365-9.693-4.365c-1.922,0-3.73,0.34-5.479,0.678
				c0.529-1.34,0.868-3.086,0.305-5.399l-0.909-3.739l-3.404,1.793c-9.562,5.039-19.842,5.931-30.726,6.876
				c-2.691,0.234-5.475,0.476-8.204,0.782c-1.696,0.18-2.458,1.544-2.744,2.057c-0.046,0.083-0.095,0.177-0.157,0.267l-2.591,3.751
				l1.746,0.35c-2.108,1.08-4.232,2.433-5.788,4.671l-0.021,0.001l-0.104,0.179c-0.232,0.349-0.45,0.72-0.652,1.114l-0.056,0.095
				c-0.01,0.017-0.015,0.035-0.024,0.052c-0.03,0.061-0.066,0.114-0.096,0.176l-2.17,4.571l1.996-0.114l0.059,0.301l1.609,0.575
				c1.176,0.42,2.361,0.531,3.407,0.628c1.994,0.186,2.312,0.288,2.493,0.913l-0.29,4.243l0.192,0.567
				c0.532,1.57,1.638,4.835,4.564,4.835c2.435,0,3.471-2.216,4.089-3.54c0.135-0.289,0.339-0.726,0.435-0.863
				c-0.141,0.203,0.842,0.154,0.842,0.154l0.555-0.545l0.176-0.267c0.832-1.262,1.9-2.286,3.319-3.298l0.686,4.897l5.154,1.641
				c0.814-0.863,1.55-1.672,2.243-2.433c1.384-1.521,2.58-2.834,3.838-3.957c0.461-0.412,0.878-0.845,1.282-1.265
				c0.525-0.546,1.501-1.562,1.869-1.562c0.03,0,0.148,0.008,0.381,0.116c1.153,0.535,1.581,2.02,1.967,4.572
				c0.042,0.283,0.058,0.712,0.072,1.126c0.133,3.866,1.616,5.826,4.407,5.826c1.165,0,2.442-0.426,4.019-1.342l1.494-0.867v-0.947
				c0.791-1.537,1.224-3.252,1.613-4.792c0.296-1.172,0.792-3.135,1.191-3.464c0.091-0.023,0.173-0.034,0.253-0.034
				c1.422,0,3.58,3.276,4.869,5.234l0.56,0.846c0.441,0.656,1.309,1.439,2.933,1.439c0.12,0,0.582-0.015,0.582-0.015l3.362,0.228
				l-0.163-3.366c-0.028-0.58-0.027-1.039-0.012-1.397c0.193,0.09,0.383,0.181,0.547,0.26c1.264,0.607,2.696,1.294,4.236,1.294
				c0,0,0.001,0,0.001,0c1.062,0,2.046-0.332,2.844-0.959l0.912-0.717l0.192-1.143C129.746-63.866,129.595-64.988,129.296-65.974z"
				/>
			<path fill-rule="evenodd" clip-rule="evenodd" fill="#606060" d="M58.816-69.412c2.366-4.981,8.235-5.29,12.42-8.956
				c-2.08-0.417-3.515-0.705-5.074-1.017c0.339-0.491,0.516-1.021,0.75-1.046c13.567-1.523,27.394-1.338,40.011-7.987
				c1.044,4.294-2.312,5.342-1.712,8.286c5.54-0.007,11.744-3.965,17.275,2.112c-2.577,0.307-4.636,0.553-7.209,0.861
				c2.129,4.188,8.079,3.25,9.361,7.717l-0.369,0.025l-0.368-0.042c-0.836,0.327-2.14,1.17-2.435,0.903
				c-4.237-3.845-10.17,0.861-14.534-3.08c-1.647-1.486-3.186,0.021-3.598,2.295c-0.34,1.873-1.066,3.675-1.705,5.788
				c-7.068-10.54-7.068-10.54-17.916-2.868c-1.938-1.507,2.049-4.333-0.811-5.062c-1.613-0.411-3.846,0.88-5.566,1.829
				c-1.723,0.949-2.878,2.887-5.128,2.977l-0.122-0.121c0.085-1.868,1.992-5.148-2.592-3.449
				C65.999-68.95,62.379-69.616,58.816-69.412z"/>
			<path fill-rule="evenodd" clip-rule="evenodd" fill="#444444" d="M58.816-69.412c3.563-0.204,7.183,0.462,10.678-0.832
				c4.584-1.699,2.677,1.582,2.592,3.45c-0.178,0.221-0.356,0.44-0.536,0.659c0.219-0.179,0.438-0.359,0.658-0.54
				c2.25-0.09,3.405-2.028,5.128-2.977c1.72-0.949,3.953-2.24,5.566-1.829c2.86,0.729-1.127,3.554,0.811,5.062
				c10.848-7.672,10.848-7.672,17.916,2.868c0.639-2.113,1.365-3.916,1.705-5.788c0.412-2.274,1.951-3.781,3.598-2.295
				c4.363,3.94,10.296-0.766,14.534,3.08c0.295,0.267,1.599-0.576,2.435-0.903c0.735,1.842,2.225,3.437,1.854,5.638
				c-2.603,2.047-9.25-6.869-8.759,3.306c-0.491-0.033-1.097,0.09-1.228-0.105c-2.29-3.429-5.086-8.246-8.906-7.281
				c-3.394,0.858-2.915,6.98-5.062,10.361c0,0-0.008,0.022-0.008,0.024c-4.681,2.718-3.669-1.112-4.024-3.463
				c-0.411-2.714-1.002-5.609-3.672-6.846c-3.155-1.462-4.876,1.486-6.791,3.194c-2.027,1.809-3.777,3.93-6.267,6.571
				c-0.529-3.773-0.908-6.477-1.322-9.435c-3.442,1.926-6.25,3.707-8.158,6.602c0,0-0.357,0.351-0.356,0.351
				c-1.894-1.946-2.442,7.994-4.959,0.564c0.093-1.365,0.186-2.73,0.28-4.095c-0.986-4.549-5.088-3.109-7.915-4.119
				C58.525-68.624,58.593-69.031,58.816-69.412z"/>
		</g>
		<path fill="#0B0909" d="M44.446,18.359"/>
	</g>
	<g id="Eyes">
		<g id="EyeLids">
			<g id="LidL">
				<path fill="#0B0909" d="M60.322-27.837c6.842-2.38,12.789-4.353,20.405-2.132c4.433,1.292,5.375,1.834,8.667,3.709
					c0.696,0.396,3.303,1.391,3.347,2.198c-0.33-7.396,1.172-4.391-1.324-5.007s-4.47-1.813-9.604-2.708
					c-7.736-2.924-16.845-0.976-24.761,2.363c-4.165,1.39-7.283,4.544-7.116,4.278c-1.429,2.248-7.685,8.866,0.459,3.292
					C53.644-23.803,57.765-26.948,60.322-27.837z"/>
				<path fill="#FDAFAE" d="M81.398-31.815c0.09-0.009-2.039-2.214-5.4-4.015l1.061-47.577L52.634-79.22l-0.979,52.646
					c-0.027,0.047-0.055,0.09-0.081,0.137c0.041-0.03,0.088-0.058,0.129-0.088l4.059-2.411
					C63.827-32.914,74.884-34.278,81.398-31.815z"/>
				<path fill="#CE6E6E" d="M67.547-83.407c-0.114,2.438,2.56,41.659,4.349,43.038c2.629,1.753-0.201,3.269,4.102,7.152
					c2.827,0.25,11.968,3.582,14.844,3.931l2.294,0.866l0.364-6.142l-0.167-49.783L67.547-83.407z"/>
			</g>
			<g id="LidR">
				<path fill="#0B0909" d="M112.232-34.073c4.567-0.753,9.983,2.144,14.717,3.917c2.678,1.003,4.521,1.729,7.417,2.854
					c-0.001-0.003,4.229,1.524,4.229,1.521c-1.156-4.219,1.527-1.127-0.896-3.917c0.19,0.234-15.473-4.841-15.283-4.594
					c-7.236-2.448-16.957-0.114-19.713,0.917s-10.542,3.262-12.879,7.302c-0.002,0.003,2.687,0.978,3.188,1.562
					C98.635-31.283,102.918-32.537,112.232-34.073z"/>
				<path fill="#FDAFAE" d="M121.845-34.049c-3.986-5.177-6.949-7.559-10.46-7.388l-2.004-38.535H93.443l2.498,49.196l7.128-2.625
					C109.176-35.131,114.96-36.378,121.845-34.049z"/>
				<path id="L" fill="#CE6E6E" d="M109.381-79.972c0,0,1.027,31.712,0.662,34.253s1.773,5.372,1.773,5.372
					c2.341,1.168,4.867,2.188,5.137,5.184c2.929,0.259,8.175,2.334,10.511,2.434l6.129,1.832l1.538-47.949L109.381-79.972z"/>
			</g>
		</g>
		<g id="Brows">
			<path id="BrowL" fill-rule="evenodd" clip-rule="evenodd" fill="#0B0B0B" d="M80.966-46.423
				c-6.033-4.417-11.128-1.382-17.144,0.663c2.755-4.697,5.873-7.252,10.291-7.256C77.467-53.02,79.739-50.942,80.966-46.423z"/>
			<path id="BrowR" fill-rule="evenodd" clip-rule="evenodd" fill="#0B0B0B" d="M118.7-47.427
				c-5.999-2.826-12.018-3.852-18.086-0.194c2.79-4.589,6.427-7.788,12.223-7.438c1.324,3.105,5.946,3.264,6.393,7.153
				C119.051-47.748,118.875-47.587,118.7-47.427z"/>
		</g>
		<path id="EyeRClip" fill="#ED1C24" d="M97.82-10.292c0.322,2.335,0.855,4.529,1.567,6.604c9.207,0.315,25.941,0.493,29.095,2.514
			c0.352,0.226,0.872,0.643,1.513,1.208c1.579-5.433,1.311-11.276,0.087-17.213c-0.515-2.498-1.047-5.07-1.898-7.402
			c-0.001-0.003-0.001-0.005-0.002-0.008c-1.165-4.219-5.002-8.783-7.443-11.573c-0.437-0.534-0.875-1.033-1.312-1.501
			c-0.025-0.029-0.055-0.063-0.079-0.091c-0.026-0.03-0.058-0.054-0.085-0.083c-6.372-6.709-12.734-6.612-16.273-0.351
			c-0.002,0.003-0.005,0.005-0.007,0.007c-1.253,1.829-5.493,10.328-5.559,15.526c0,0.003,0.001,0.006,0.001,0.01
			c-0.141,1.552-0.197,3.302-0.184,5.289C97.258-14.957,97.364-12.608,97.82-10.292z"/>
		<path id="EyeLClip" fill="#ED1C24" d="M66.316,0.55C74.21-0.81,79.368-1.869,83.277-2.613c7.934-14.946,3.848-39.454-10.983-34.3
			c-12.326,4.284-17.327,27.929-12.1,39.12C62.051,1.5,64.079,0.935,66.316,0.55z"/>
		<g id="CuteEyes">
			<path fill-rule="evenodd" clip-rule="evenodd" fill="#D5D5D5" d="M82.545-7.033c0.812-2.097,1.094-4.266,1.007-6.514
				c-0.056-1.444-0.307-3.113,1.891-3.326c0.519,3.015-0.831,5.867-0.775,8.843C84.209-7.169,83.454-6.938,82.545-7.033z"/>
			<path fill-rule="evenodd" clip-rule="evenodd" fill="#444444" d="M71.818-11.998c-0.301-1.641-1.394-2.851-2.343-4.142
				c4.502-2.292,7.97-1.183,10.088,3.216c1.52,3.156,1.734,6.482,1.143,9.893c-1.3,0.759-2.465,1.898-4.183,1.471
				c0.188-1.433,0.394-2.863,0.561-4.299C77.519-9.584,75.762-11.624,71.818-11.998z"/>
			<path fill-rule="evenodd" clip-rule="evenodd" fill="#0B0B0B" d="M71.818-11.998c3.944,0.374,5.701,2.414,5.267,6.138
				c-0.167,1.436-0.373,2.866-0.561,4.299c-1.272,1.334-2.911,2.051-4.581,2.716c-1.764-2.758-5.556-4.805-3.166-9.021
				c1.769,1.402,3.328,1.804,2.955-1.244C71.606-10.144,71.459-11.037,71.818-11.998z"/>
			<path fill-rule="evenodd" clip-rule="evenodd" fill="#0B0B0B" d="M114.319-14.317c3.707-0.635,4.58,2.073,5.308,4.694
				c0.735,2.646-0.038,5.24-2.117,6.826c-1.815,1.383-3.866,0.204-5.587-1.048c-2.411-1.753-1.292-3.475,0.009-5.208
				c1.701,1.045,2.722,0.284,2.347-1.403C113.974-11.835,114.131-13.035,114.319-14.317z"/>
			<path fill-rule="evenodd" clip-rule="evenodd" fill="#D5D5D5" d="M125.178-3.383c0.812-2.097,1.094-4.266,1.007-6.514
				c-0.056-1.444-0.307-3.113,1.891-3.326c0.519,3.015-0.831,5.867-0.775,8.843C126.842-3.519,126.086-3.288,125.178-3.383z"/>
			<path fill-rule="evenodd" clip-rule="evenodd" fill="#444444" d="M66.634,0.55c1.525-0.263,2.939-0.513,4.271-0.753
				c-1.839-2.157-4.112-4.163-2.128-7.661c-3.07-2.487-4.208-1.385-4.159,2.179c0.032,2.328,0.282,4.539,1.385,6.36
				C66.215,0.634,66.419,0.587,66.634,0.55z"/>
			<path fill-rule="evenodd" clip-rule="evenodd" fill="#444444" d="M114.319-14.317c3.707-0.635,4.58,2.073,5.308,4.694
				c0.707,2.543,0.007,5.029-1.895,6.628c1.815,0.12,3.528,0.263,5.056,0.439c0.006-0.112,0.021-0.218,0.021-0.333
				c0.533-3.935,1.033-7.83-0.906-11.61c-2.633-5.135-6.963-6.575-11.239-3.353C112.561-17.276,113.689-16.029,114.319-14.317z"/>
			<path fill-rule="evenodd" clip-rule="evenodd" fill="#444444" d="M109.487-3.387c1.092,0.038,2.193,0.081,3.289,0.128
				c-0.291-0.187-0.577-0.385-0.853-0.586c-2.411-1.753-1.292-3.475,0.009-5.208c-1.054-1.626-3.508-1.347-4.144-3.664
				c-1.673,2.958-0.561,5.548-0.476,8.107C108.066-4.259,108.785-3.839,109.487-3.387z"/>
		</g>
		<path id="EyeOutlineL" fill="#0B0909" d="M57.151,3.568c1.003-0.525,2.072-0.996,3.199-1.417
			c-5.018-11.247-0.107-34.714,11.921-38.98c14.521-5.149,18.532,19.308,10.786,34.258c1.277-0.244,2.42-0.454,3.48-0.631
			c2.229-5.267,3.335-11.119,3.277-17.083c-0.111-11.176-7.949-24.423-20.533-17.247c-10.725,6.116-15.507,19.994-14.61,31.845
			C54.931-2.245,55.751,0.792,57.151,3.568z"/>
		<path id="EyeOutlineR" fill="#0B0909" d="M99.541-3.683c-0.715-2.087-1.25-4.296-1.572-6.648
			c-0.453-2.316-0.558-4.665-0.574-7.065c-0.013-1.987,0.043-3.737,0.183-5.289c0-0.003-0.001-0.006-0.001-0.01
			c0.065-5.199,4.275-13.697,5.52-15.526c0.002-0.002,0.005-0.004,0.007-0.007c3.515-6.262,9.832-6.358,16.159,0.351
			c0.026,0.029,0.059,0.053,0.084,0.083c0.023,0.028,0.054,0.062,0.078,0.091c0.435,0.469,0.869,0.968,1.303,1.501
			c2.424,2.79,6.234,7.354,7.391,11.573c0.001,0.003,0.001,0.005,0.002,0.008c0.845,2.333,1.373,4.904,1.885,7.402
			c1.213,5.929,1.48,11.764-0.08,17.19c0.606,0.532,1.33,1.207,2.14,2c2.684-8.916,0.788-18.317-2.441-27.689
			c-2.674-7.764-6.922-14.007-13.105-17.451c-7.334-4.084-14.289-1-17.909,8.288c-4.067,10.434-4.343,20.828-1.524,31.103
			C97.82-3.744,98.649-3.713,99.541-3.683z"/>
	</g>
	<g id="Mule">
		<g id="Undermule">
			<path fill-rule="evenodd" clip-rule="evenodd" fill="#0B0909" d="M141.992,64.172c-0.247-1.281-0.473-2.581-0.708-3.882
				c-1.056,0.379-2.117,0.748-3.188,1.097c0.01,1.699-0.071,3.789-0.169,6.706c-0.828,24.631-36.868,24.171-42.636,24.312
				c-6.226,0.153-16.536,0.303-17.971,0.461c-10.31,1.135-20.656-2.296-25.083-11.525c-3.918-8.172-2.611-6.766-1.508-15.541
				c-0.929-0.135-1.846-0.273-2.749-0.414c-0.065,0.511-0.125,1.023-0.18,1.538c-1.18,11.151-1.571,11.383,4.886,20.592
				c5.65,8.057,14.139,9.572,23.192,9.894c3.244,0.115,47.062,5.111,60.699-14.618c4.22-7.682,6.618-6.002,5.766-15.066
				C142.232,66.541,142.109,65.358,141.992,64.172z"/>
			<path fill-rule="evenodd" clip-rule="evenodd" fill="#CE6E6E" d="M50.896,64.579c-0.046,0.332-0.096,0.663-0.137,0.997
				c-1.108,9.032-2.473,7.522,1.479,15.766c4.426,9.229,12.021,11.561,21.231,11.524c36.231-0.142,64.629-1.562,64.458-24.772
				c0.179-2.331,0.302-4.135,0.348-5.634C114.237,64.519,75.062,64.987,50.896,64.579z"/>
		</g>
		<g id="Overmule">
			<path fill-rule="evenodd" clip-rule="evenodd" fill="#0B0909" d="M129.216,16.53c2.116,4.221,1.439,8.273-1.796,10.759
				c-3.415,2.624-7.941,2.423-11.354-0.503c-4.478-3.841-5.671-13.125-2.309-17.96c2.264-3.255,5.291-4.18,7.639-2.334
				c-2.752,0.463-5.471,0.974-6.437,4.388c4.402-0.508,7.632,1.135,9.501,4.869c1.725,3.444,2.096,7.093-0.205,10.701
				c1.769,0.103,2.688-0.677,3.427-1.599C129.667,22.371,129.568,19.463,129.216,16.53z"/>
			<path fill-rule="evenodd" clip-rule="evenodd" fill="#0B0909" d="M55.814,18.164c1.138-4.605,5.307-7.601,9.436-6.779
				c3.937,0.783,6.533,5.292,5.694,9.892c-1.036,5.687-5.658,10.257-10.719,10.598c-3.685,0.249-5.762-1.713-5.529-5.219
				c2.032,3.828,3.561,4.436,7.491,2.879c-2.217-2.308-3.317-4.994-3.017-8.207c0.3-3.207,2.344-5.606,4.223-8.569
				C59.72,13.617,57.653,15.734,55.814,18.164z"/>
			<path fill-rule="evenodd" clip-rule="evenodd" fill="#63686C" d="M129.216,16.53c0.352,2.933,0.452,5.84-1.533,8.319
				c-0.738,0.922-1.658,1.702-3.427,1.599c2.301-3.608,1.929-7.257,0.205-10.701c-1.87-3.734-5.1-5.376-9.501-4.869
				c0.966-3.414,3.685-3.924,6.437-4.388C126.5,7.894,128.048,12.063,129.216,16.53z"/>
			<path fill-rule="evenodd" clip-rule="evenodd" fill="#63686C" d="M55.814,18.164c1.839-2.43,3.905-4.547,7.581-5.404
				c-1.879,2.962-3.923,5.362-4.223,8.569c-0.301,3.212,0.799,5.899,3.017,8.207c-3.93,1.557-5.459,0.949-7.491-2.879
				C54.37,23.731,54.646,20.889,55.814,18.164z"/>
			<path fill-rule="evenodd" clip-rule="evenodd" fill="#0B0909" d="M149.01,62.936c5.365-9.016,8.415-7.044,7.331-17.684
				c-0.142-1.39-0.298-2.779-0.447-4.169c-1.391-6.667-2.255-13.787-6-19.386c-0.505-0.755-0.922-1.504-1.27-2.25
				c-2.756-3.338-7.35-9.837-7.532-10.754c-1.396-1.169-2.784-2.33-4.165-3.485c-2.468-2.057-3.972-5.11-6.918-6.683
				c-0.091-0.048-0.162-0.099-0.222-0.151c-2.005-1.412-3.342-1.569-4.303-1.983c-0.554,0.022-1.165-0.065-1.846-0.285
				c-0.31-0.1-0.622-0.185-0.935-0.255c-1.041-0.109-2.245-0.182-3.498-0.214c-1.086,0.095-2.17,0.327-3.222,0.694
				c-0.757,0.265-1.482,0.417-2.183,0.477c-0.001,0-0.003,0-0.004,0.001c-1.633,0.304-13.129-0.837-16.893-0.801
				c-3.59,0.122-7.28,0.428-11.337,0.851c-0.689,0.597-25.868,4.174-29.169,6.12c-0.244,0.194-0.489,0.388-0.734,0.583
				c-0.15,0.192-0.328,0.37-0.559,0.516c-1.837,1.165-5.133,6.036-7.241,8.702c-0.611,1.215-1.434,2.364-2.146,3.483
				c-5.48,8.613-8.428,18.044-9.576,28.051c-1.5,13.088-1.997,13.361,6.212,24.17c7.183,9.457,17.976,11.236,29.485,11.612
				C75.964,80.229,131.673,86.094,149.01,62.936z M96.52,74.222c-7.915,0.18-21.023,0.355-22.847,0.541
				c-13.108,1.332-26.262-2.695-31.889-13.528c-5.025-9.674-3.29-7.904-1.881-18.504c0.81-6.097,2.367-11.999,5.16-17.963
				c0.837,2.16,1.226,4.09,2.84,5.587c0.945-1.251,0.116-2.332-0.105-3.34c-2.082-9.46,6.617-21.662,16.199-22.655
				c5.853-0.607,11.237,3.273,12.871,9.437c0.25,0.942,0.436,1.777,1.144,2.579c1.021-3.965-0.86-9.156-4.154-11.44
				c-0.808-0.561-1.928-0.996-1.701-2.038c0.187-0.853,1.431-0.735,2.214-0.961c11.358-3.288,22.895-4.089,34.653-2.488
				c-4.691,7.67-5.177,9.184-4.174,13.012c1.06-1.008,0.865-2.425,1.236-3.622c2.473-7.954,8.131-10.034,15.843-9.049
				c7.053,0.901,11.682,5.031,14.35,11.476c0.459,1.11,0.618,2.345,0.913,3.522c0.197,0.786,0.7,1.492,1.476,1.25
				c0.549-0.17,0.657-1.005,0.455-1.722c-0.193-0.684-0.233-1.411-0.341-2.119c2.944,3.178,6.277,5.998,7.903,9.977
				c4.665,11.421,4.499,11.018,4.043,23.51C149.673,74.595,103.854,74.055,96.52,74.222z"/>
			<path fill-rule="evenodd" clip-rule="evenodd" fill="#FDAFAE" d="M138.78,12.198c2.944,3.178,6.277,5.998,7.903,9.977
				c4.665,11.421,5.078,11.053,4.043,23.51c0.218,27.244-35.886,28.911-81.95,29.078c-11.71,0.042-21.365-2.694-26.993-13.527
				c-5.025-9.674-3.29-7.904-1.881-18.504c0.81-6.097,2.367-11.999,5.16-17.963c0.837,2.16,1.226,4.09,2.84,5.587
				c0.945-1.251,0.116-2.332-0.105-3.34c-2.082-9.46,6.617-21.662,16.199-22.655c5.853-0.607,11.237,3.273,12.871,9.437
				c0.25,0.942,0.436,1.777,1.144,2.579c1.021-3.965-0.86-9.156-4.154-11.44c-0.808-0.561-1.928-0.996-1.701-2.038
				c0.187-0.853,1.431-0.735,2.214-0.961c11.358-3.288,22.895-4.089,34.653-2.488c-4.691,7.67-5.177,9.184-4.174,13.012
				c1.06-1.008,0.865-2.425,1.236-3.622c2.473-7.954,8.131-10.034,15.843-9.049c7.053,0.901,11.682,5.031,14.35,11.476
				c0.459,1.11,0.618,2.345,0.913,3.522c0.197,0.786,0.7,1.492,1.476,1.25c0.549-0.17,0.657-1.005,0.455-1.722
				C138.928,13.633,138.887,12.906,138.78,12.198z M54.698,26.654c-0.234,3.507,1.843,5.469,5.528,5.22
				c5.061-0.341,9.683-4.911,10.719-10.598c0.838-4.6-1.758-9.109-5.694-9.892c-4.129-0.821-8.298,2.174-9.436,6.779
				C54.646,20.889,54.37,23.731,54.698,26.654z M121.396,6.493c-2.348-1.847-5.375-0.922-7.639,2.333
				c-3.363,4.835-2.169,14.12,2.309,17.96c3.413,2.927,7.938,3.127,11.354,0.503c3.235-2.486,3.912-6.539,1.796-10.759
				C128.048,12.063,126.5,7.894,121.396,6.493z"/>
			<path fill-rule="evenodd" clip-rule="evenodd" fill="#CE6E6E" d="M150.806,45.684c2.839-9.229-1.635-15.709-2.006-18.356
				C151.193,68.71,64.617,80.853,39.903,42.73c0.375,0.765-4.594,9.673,1.96,18.504c7.275,9.803,5.644,13.967,26.993,13.527
				C114.91,73.812,151.023,72.928,150.806,45.684z"/>
		</g>
	</g>
	<g id="Grass">
		<path fill-rule="evenodd" clip-rule="evenodd" fill="#0B0909" d="M46.775,108.692c-0.131-5.955,0.532-11.407,2.015-16.461
			c-3.853,3.133-7.424,6.674-11.119,10.336c-2.254,2.234-4.585,4.545-6.984,6.751l-5.02-1.947
			c-0.524-6.018,1.659-10.758,4.338-15.143c-1.055,0.439-2.127,0.92-3.246,1.422c-0.673,0.302-1.353,0.606-2.044,0.909l-3.927-4.004
			c0.961-2.084,2.068-3.5,3.045-4.749l0.453-0.583c4.491-5.85,9.307-10.456,14.724-14.081l0.104-0.069
			c0.635-0.428,1.697-1.144,3.167-1.144c0.766,0,1.528,0.195,2.266,0.579c7.519,3.905,16.168,6.177,27.218,7.15l5.917,1.515
			c-4.936,4.133-12.657,12.553-15.396,16.553c-1.034,1.509-2.032,3.042-3.04,4.589c-2.166,3.324-4.405,6.762-7.123,10.178
			L46.775,108.692z"/>
		<path fill-rule="evenodd" clip-rule="evenodd" fill="#3EAD04" d="M40.679,73.636c-5.457,3.652-12.431,9.685-16.413,14.872
			c-1.052,1.371-0.238,1.25,0.833,2.27c4.488-1.963,6.894-2.993,11.719-3.638c-3.896,6.39-11.635,16.285-7.015,18.902
			c8.734-8.034,15.183-16.182,25.74-22.081c-4.311,7.556-8.756,21.386-4.945,22.964c3.88-4.878,5.966-8.156,9.211-12.894
			c3.293-4.808,6.879-9.355,11.691-13.385c-10.251-0.902-19.634-2.956-28.339-7.477C42.1,72.617,41.443,73.124,40.679,73.636z"/>
		<path fill-rule="evenodd" clip-rule="evenodd" fill="#0B0909" d="M154.767,103.522c-1.437-1.561-2.874-3.122-4.298-4.694
			c-1.034-1.141-2.059-2.291-3.084-3.441c-3.966-4.449-8.067-9.05-12.602-12.96c-0.258-0.222-0.515-0.441-0.771-0.653
			c0.29,1.302,0.707,2.716,1.271,4.326c0.778,2.219,1.594,4.424,2.41,6.63c0.574,1.553,1.149,3.105,1.71,4.663
			c0.047,0.132,0.103,0.263,0.157,0.396c0.357,0.866,0.954,2.315,0.585,4.25l-5.161,1.462c-0.996-1.089-1.972-2.178-2.941-3.259
			c-2.733-3.048-5.315-5.927-8.134-8.595c-4.416-4.179-14.723-10.936-18.852-13.345l7.277-1.682c1.018-0.256,2.008-0.49,2.977-0.72
			c1.984-0.47,3.858-0.913,5.653-1.469c9.2-2.847,16.291-6.307,22.313-10.889c0.612-0.465,1.574-1.082,2.876-1.082
			c0.829,0,1.645,0.253,2.424,0.751c6.553,4.193,12.077,9.44,16.419,15.595l-3.58,4.509c-2.091-0.849-4.07-1.896-5.983-2.908
			c-1.599-0.846-3.162-1.673-4.749-2.367c5.276,7.706,8.59,16.144,11.533,24.27l0.738,2.04l-4.312,3.396L154.767,103.522z"/>
		<path fill-rule="evenodd" clip-rule="evenodd" fill="#3EAD04" d="M160.932,79.173c-4.237-6.005-7.843-9.515-13.97-13.435
			c-0.754-0.482-1.239-0.287-1.868,0.191c-6.995,5.321-14.912,8.789-23.243,11.367c-2.783,0.862-5.652,1.445-8.787,2.232
			c4.889,2.851,9.012,6.251,12.907,9.938c3.936,3.725,6.012,6.293,9.8,10.435c0.25-1.31,1.131-0.599,0.809-1.492
			c-1.362-3.778-2.8-7.529-4.129-11.318c-0.957-2.729-1.731-5.521-1.918-8.427c-0.12-1.863,0.307-2.145,2.044-1.384
			c1.566,0.686,2.88,1.767,4.165,2.875c5.85,5.043,10.786,10.959,15.95,16.659c2.08,2.296,1.12,1.232,3.214,3.516
			c0.141-0.111,1.447-1.042,1.588-1.154c-3.901-10.774-6.321-17.17-14.489-25.977C150.636,73.251,154.574,76.591,160.932,79.173z"/>
		<path fill-rule="evenodd" clip-rule="evenodd" fill="#95EA00" d="M43.099,73.675l-15.167,13.5l9-4.917l-1.417,3.667l8.083-2.5
			l-9.833,14.631l11.5-10.964v1.986l12-7.402l-2.79,10.333l4.706-4.333l-1.125,5.191l10.468-12.519c0,0-9.842-1.672-14.592-2.839
			S43.099,73.675,43.099,73.675z"/>
		<path fill-rule="evenodd" clip-rule="evenodd" fill="#95EA00" d="M115.682,79.008l6.667,2.75l11.5,14.333l-4.196-11.682
			l-1.053-6.747l4.917-2.87l20.917,22.049l-16.157-22.75l9.657,9.583l-6.583-12.25l4.833,0.583l-1.5-3.583l10.667,6.337
			l-9.083-10.17c0,0-4.894,4.75-11.239,6.583S116.599,78.925,115.682,79.008z"/>
	</g>
</g>
<g id="Palette">
	<rect x="-17.333" y="-175.667" fill-rule="evenodd" clip-rule="evenodd" fill="#FDFDFD" width="26" height="29.333"/>
	<rect x="8.667" y="-175.667" fill-rule="evenodd" clip-rule="evenodd" fill="#EEEEEE" width="26" height="29.333"/>
	<rect x="34.67" y="-175.667" fill-rule="evenodd" clip-rule="evenodd" fill="#9DA090" width="26" height="29.333"/>
	<rect x="60.75" y="-175.667" fill-rule="evenodd" clip-rule="evenodd" fill="#606060" width="26" height="29.333"/>
	<rect x="86.75" y="-175.667" fill-rule="evenodd" clip-rule="evenodd" fill="#444444" width="26" height="29.333"/>
	<rect x="112.75" y="-175.667" fill-rule="evenodd" clip-rule="evenodd" fill="#0B0909" width="26" height="29.333"/>
</g>
</svg>
