<?xml version="1.0" encoding="utf-8"?>
<!-- Generator: Adobe Illustrator 16.0.4, SVG Export Plug-In . SVG Version: 6.00 Build 0)  -->
<!DOCTYPE svg PUBLIC "-//W3C//DTD SVG 1.1//EN" "http://www.w3.org/Graphics/SVG/1.1/DTD/svg11.dtd">
<svg version="1.1" id="Layer_1" xmlns="http://www.w3.org/2000/svg" xmlns:xlink="http://www.w3.org/1999/xlink" x="0px" y="0px"
	 width="708.66px" height="850.39px" viewBox="0 0 708.66 850.39" enable-background="new 0 0 708.66 850.39" xml:space="preserve">
<path id="UpperArm" fill="none" stroke="#000000" stroke-width="0.9385" stroke-miterlimit="10" d="M-14.798-6.778
	C-8.1-13.631,2.887-13.756,9.74-7.058c5.029,4.915,6.419,12.136,4.164,18.341c0.735,6.128-4.706,12.697-5.436,14.729
	C7.6,28.423,6.511,30.756,5.416,33.37c0.802,0.425,1.348,7.718,1.895,10.83c0.162,0.451,0.3,0.908,0.409,1.37
	c0.006,0.006,0.011,0.013,0.016,0.015l0.002,0.053c0.371,1.611,0.429,3.278,0.17,4.907l0.002,0.053
	C7.907,50.6,7.904,50.602,7.9,50.604c-0.41,2.51-1.56,4.922-3.472,6.878c-2.696,2.759-6.333,4.027-9.903,3.822l-0.879,0.24
	c-0.181-0.138-0.37-0.269-0.559-0.398c-2.472-0.427-4.843-1.574-6.771-3.457c-0.719-0.704-1.327-1.477-1.846-2.291
	c-0.65-0.623-1.101-1.246-1.053-1.784c0.005-0.07,0.005-0.136,0.009-0.206c-0.859-2.088-1.133-4.355-0.84-6.568
	c-0.812-2.789-2.014-5.5-2.85-8.28l-0.688-8.531c0.024-0.119,0.034-0.247,0.04-0.378l1.966-19.103
	C-20.791,4.648-19.422-2.048-14.798-6.778z"/>
<path id="LowerArm" fill="none" stroke="#000000" stroke-width="0.9385" stroke-miterlimit="10" d="M-2.869-11.056
	C-9.293-10.96-14.422-5.675-14.328,0.749c0.056,3.763,1.9,7.073,4.704,9.158l-0.217,0.341c1.428,3.09,5.305,12.142,6.081,13.497
	c1.013,1.772,1.285,2.858-0.7,4.639c-3.255,2.925-7.839,5.175-7.85,10.842c1.983,1.342,3.659,1.062,5.374-0.905
	c0.779-0.893,2.144-1.274,3.244-1.888c0.559,1.169,1.426,2.297,1.596,3.521c0.199,1.426-0.21,2.935-0.365,4.507
	c-0.979,0.198-1.966,0.144-2.616,0.585c-1.05,0.713-1.881,1.75-2.805,2.65c1.066,0.538,2.079,1.274,3.208,1.58
	c3.625,0.982,6.953,0.224,9.883-2.141c1.526-1.231,3.069-2.456,4.491-3.804c0.83-0.788,1.29-1.994,2.169-2.695
	c2.909-2.322,3.861-8.739,1.859-11.869c-0.829-1.295-1.523-2.958-1.518-4.451c0.012-3.608,0.743-7.218,0.67-10.817
	c-0.065-3.196-0.822-6.377-1.304-9.785c1.296-0.536-1.8-4.283-3.562-7.683C8.009-3.977,8.004-3.984,8-3.992
	C6.2-8.203,1.994-11.127-2.869-11.056z"/>
<path id="UpperLeg" fill="none" stroke="#000000" stroke-width="0.9385" stroke-miterlimit="10" d="M-19.848-13.038
	c9.066-9.304,23.959-9.497,33.262-0.43c7.545,7.352,9.097,18.537,4.579,27.465l0,0c0,0.002-0.001,0.003-0.002,0.005
	c-0.519,1.024-1.118,2.017-1.795,2.973c-1.809,3.018-1.915,3.887-0.378,9.184c2.003,6.905,2.531,13.411-2.009,19.617
	c-0.677,0.923-0.944,3.271-0.352,3.813c3.497,3.197,1.413,5.624-0.373,7.385c0.258,0.421,0.06,0.954-0.445,1.562
	c-0.719,2.321-1.97,4.515-3.782,6.375c-6.121,6.281-16.176,6.412-22.456,0.29c-3.555-3.463-5.136-8.187-4.733-12.772
	c-0.235-0.85-0.34-1.508-0.056-1.59c-0.057-1.324-0.553-3.133-0.082-3.435c4.18-2.684,1.793-5.443,0.794-8.664
	c-1.074-3.462-1.556-7.356-1.211-10.958c0.4-4.161-2.42-8.671-4.582-12.81c-0.566-1-1.052-2.029-1.461-3.084
	c-0.006-0.017-0.015-0.034-0.022-0.051l0.001-0.002C-28.146,3.526-26.469-6.245-19.848-13.038z"/>
<path id="Torso" fill="none" stroke="#000000" stroke-width="0.9385" stroke-miterlimit="10" d="M-29.542-4.344
	c2.559-2.335,1.309-5.886,4.464-7.28c0.377-0.978,0.604-2.146,0.63-3.567c2.005-0.151,3.701-0.279,4.712-0.354
	c-0.041-0.528-0.121-1.022-0.199-1.479l6.892,0.787c1.26,0.867,2.607,1.597,3.991,2.181c2.416,0.284,5.501-5.895,7.698-5.096
	c1.907,0.104,3.73-0.101,5.332-0.655c0.856-0.296,1.522-1.367,2.104-2.201c2.454-3.515,4.842-7.075,7.949-11.637
	c-3.164,0.572,6.223-1.403,11.573-0.792c0.121-0.372,0.243-0.744,0.364-1.116l3.668,0.419c0.21,1.926,0.373,3.425,0.609,5.591
	c1.896,0.216,4.299,0.49,5.576,0.636c0.785,3.009,1.571,6.022,2.173,8.33c6.959-0.797-0.422,4.826-1.283,4.161
	c-1.604,3.969-2.726,7.512-4.419,10.756c-1.429,2.737-1.796,4.815-0.97,6.46L19.867,12.188l0.636,33.043l0.214,6.642
	c0.753,3.023,0.994,6.229,0.62,9.509c-0.047,0.399-0.105,0.796-0.167,1.191C19.073,75.73,7.605,85.273-5.568,85.095
	c-1.23-0.4-2.528-0.512-3.826-0.328c-14.089-2.206-24.055-15.152-22.422-29.453c0.021-0.172,0.05-0.341,0.072-0.511
	c0.408-3.054-1.733-12.54-2.699-14.207c-4.719-8.136-6.961-13.024-5.706-24.02C-39.191,8.171-35.244,0.861-29.542-4.344z"/>
<rect id="Recto" x="-12.068" y="-9.304" fill="none" stroke="#000000" stroke-width="0.9385" stroke-miterlimit="10" width="24.596" height="70.847"/>
<path id="Lowerleg" fill="none" stroke="#000000" stroke-width="0.9385" stroke-miterlimit="10" d="M11.842,33.061
	c2.266-5.968,1.598-11.343,0.219-17.203c-0.773-3.282,1.905-15.7-0.962-18.962l-0.006,0.003c-2.457-5.593-8.038-9.503-14.538-9.503
	c-8.771,0-15.88,7.11-15.88,15.88c0,4.216,1.653,8.037,4.333,10.88l-0.042,0.027c0.103,0.082,0.193,0.165,0.292,0.247
	c0.123,0.125,0.257,0.241,0.385,0.362c-2.933,5.172-2.143,10.54,0.757,15.409c3.961,6.65,2.31,13.625,1.525,20.391
	c-0.063,0.541,0.267,1.509,0.267,1.509c0.544,5.633,5.432,10.043,11.388,10.043c6.319,0,11.442-4.965,11.442-11.089
	c0-0.917-0.127-1.804-0.344-2.656c0,0-0.037-0.344-0.133-0.502C10.469,47.65,10.2,37.388,11.842,33.061z"/>
<path id="Foot" fill="none" stroke="#000000" stroke-width="0.9385" stroke-miterlimit="10" d="M19.549,4.967
	c-2.38-1.418-4.303-3.586-6.499-5.334c-1.682-1.337-4.44-2.51-5.658-3.839L7.174-4.17C5.945-9.01,1.45-12.604-3.923-12.604
	c-6.32,0-11.442,4.964-11.442,11.089c0,0.353-2.371,5.323-3.578,7.348c0,0.001,0,0.001,0,0.001
	c-1.159,1.979-4.533,10.006,1.404,10.006h46.646V9.593C25.592,7.98,22.43,6.683,19.549,4.967z"/>
</svg>
