<?xml version="1.0" encoding="utf-8"?>
<!-- Generator: Adobe Illustrator 16.0.4, SVG Export Plug-In . SVG Version: 6.00 Build 0)  -->
<!DOCTYPE svg PUBLIC "-//W3C//DTD SVG 1.1//EN" "http://www.w3.org/Graphics/SVG/1.1/DTD/svg11.dtd">
<svg version="1.1" xmlns="http://www.w3.org/2000/svg" xmlns:xlink="http://www.w3.org/1999/xlink" x="0px" y="0px" width="996.9px"
	 height="498.3px" viewBox="0 0 996.9 498.3" enable-background="new 0 0 996.9 498.3" xml:space="preserve">
<g id="Curves">
	<path fill-rule="evenodd" clip-rule="evenodd" d="M999.1,76.1c-5.2,0.7-11,0.1-15.4,2.2c-6.9,3.3-14,2.6-21,3.6
		c-4.1,0.5-8.2,0.8-10.4,5c0.7,1.8,1.4,3.6,2.1,5.3c-5.8,5.1-11.3,10-16.9,15c-5.5-8.6-5.4-14.8,0.4-18.3c5-3,10.3-5.4,15.3-8.4
		c1.7-1,3-2.8,4.5-4.2c-0.3-0.4-0.7-0.7-1-1.1c-1.6,1-3.1,2.2-4.8,2.9c-2.2,1-4,3.2-7-0.3c-2.7-3.2-12.9,2-14.6,7.7
		c-3.9-0.7-8.1-2.3-12.1-2.1c-11.4,0.7-23.4-0.7-32.9,8.1c-2,1.9-4.7,3.1-7.2,4.7c3.3,1.9,5.9,4,10.1,2.3c1.4-0.6,4.1,2.2,6.6,3.6
		c0.5-0.5,1.7-1.8,3.2-3.4c1.2,4.4,2.2,8.4,3.3,12.7c-4,1.5-5.3,4.2-1.6,8c-1.7,0.2-2.9,0.3-4.5,0.5c0-5,0-9.8,0-14.6
		c-0.5-0.1-0.9-0.3-1.3-0.4c-0.8,1.2-2,2.3-2.3,3.7c-2.1,10.1-10.4,14.8-17.5,20.6c-8-1.8-11.9,4.4-16.8,8.6c-0.5,0.4-1,0.8-1.5,1.2
		c7.1,10.7,6.6,12.8-3.5,13.8c0-1.9,0.2-3.9-0.1-5.7c-0.2-1.1-1.2-2.2-1.9-3.2c-0.3-0.3-1.3-0.4-1.3-0.6c-0.8-8.8-6-3.7-10.2-3.1
		c0.3-1.4,0.5-2.7,1.1-5.4c-4.4,2.4-7.9,4.4-11.4,6.4c0,0.6-0.1,1.2-0.1,1.7c4,0.8,8.1,1.6,12.3,2.5c-2.7,1.9-5.4,3.7-6.8,4.8
		c2.1,6,4,11.1,5.7,16.2c0.2,0.7,0,1.8-0.4,2.3c-5.5,7.5-9.8,16.5-20.6,17.9c-2.7,0.4-5.4,1.5-7.9,2.7c-1,0.5-1.5,2.1-2,3.3
		c-0.5,1.3-0.2,3-1,4c-0.6,0.7-2.3,0.6-3.5,0.9c0.1-1.1,0.2-2.2,0.5-3.3c0.3-1.4,0.7-2.7,1.1-4.1c-1.5-0.3-3.5-1.3-4.5-0.7
		c-6.3,3.8-8.7,6.1-2.1,12.3c3.2,3,5.9,6,5.7,10.6c-0.1,2-0.9,4.4-2.3,5.6c-2.6,2.4-5.9,4.2-8.2,5.7c-4.6-4.1-9-8-13.8-12.3
		c-4.7,11-3.8,12.9,3.9,20.1c3.2,3,4.5,8.2,7.2,13.6c-6.1-1.1-8.9-3.7-10.6-7.6c-0.4-0.9-0.3-2.2-0.8-2.8c-7.9-9.2-3.1-22-9.1-32.3
		c-1.3,0.6-2.5,1.4-3.8,1.9c-2.3,1-3.5,0.7-3.9-2.4c-0.3-2.8-1.7-5.5-3.1-8c-1.3-2.4-3.3-4.4-5.2-6.8c-3,0.6-6.8,0.6-10,2.1
		c-2.9,1.3-5.2,4.2-7.8,6.3c-4,3.2-8.1,6.3-11.9,9.7c-1.1,1-1.6,3.2-1.5,4.8c0.2,6.7-1.6,12.3-8.3,17c-5.4-12.4-13.2-23.5-12.4-38.6
		c-3.5,3.2-6.6,3.9-9.1,0.2c-0.3-0.5,0.4-1.6,0.6-2.6c-1.5-0.9-4.2-1.7-5.5-3.5c-2.6-3.8-6-3.8-10-3.7c-4.6,0.1-9.3-0.1-13.9-0.7
		c-2.1-0.3-3.9-1.9-5.9-2.8c-0.9-0.4-2.1-1-3-0.8c-6.5,1.6-10.8-1.5-14.4-6.3c-1.6-2.2-3.4-4.3-5.9-2c-0.8,0.7-0.2,4.5,0.9,5.3
		c2.5,1.9,2.3,6.7,6.9,6.4c0.2,0,0.6,2.4,0.9,3.7c5.4,1.8,8.9-1.1,11.1-3.9c3.9,3.3,7.4,6.2,11.3,9.5c-5.1,6.3-9.2,12.9-17.6,15.6
		c-7.8,2.5-15.1,6.4-22.5,10c-3.6,1.7-5.9,1.1-6.4-3c-0.9-7.5-5-12.8-9.8-18.3c-4.3-5-6.6-11.5-10.3-17.1c-1.2-1.8-3.8-2.8-5.8-4.1
		c-0.4,0.5-0.9,1-1.3,1.5c3.1,5.4,6.3,10.7,9.4,16.1c0.4,0.7,0.8,1.5,1,2.3c1.7,7.9,5.8,14.2,12.1,19.4c2.2,1.8,3.2,5.2,5.3,7.3
		c1.4,1.4,3.8,2.7,5.6,2.5c5.1-0.5,10.1-1.8,16.2-3c-0.4,2.4-0.2,4.8-1.2,6.6c-4.3,8.4-8.6,16.7-17.1,22.3c-4.7,3.1-8.4,8-12.2,12.4
		c-5.2,6.2-2.8,12.8-0.7,19.5c1.4,4.4,1.8,9.4,1.6,14c-0.1,1.8-3,3.7-4.9,5.2c-1.6,1.3-3.7,2.2-5.4,3.4c-4.1,2.8-6.7,5.8-4.1,11.5
		c1.5,3.2,0.1,6.4-4.1,7.7c-1.2,0.4-2.6,2.1-2.8,3.4c-1.7,9.3-13.1,20.4-22.4,21.5c-4.1,0.5-8.2,0.8-12.3,1.4
		c-3.8,0.5-5.4-1.5-6.5-4.6c-1.4-3.8-2.7-7.6-4.3-11.4c-1.6-3.9-3.5-7.7-5.1-11.6c-1.9-4.7-2.7-10.1-5.6-14.1
		c-4.2-6-3.4-12.3,0-16.8c4.7-6.1,1.7-11.5,0.4-16.7c-1.2-4.7-4.8-8.9-7.8-13.1c-1.9-2.7-3.8-4.9-2-8.5c0.9-1.7,1-3.9,1.2-5.8
		c0.5-4-1.8-6.5-5.8-6c-3.3,0.5-5.7,0.2-7.5-3.2c-0.7-1.2-3-2.1-4.6-2.2c-2.3,0-4.6,0.7-6.8,1.4c-4.6,1.5-9,3.6-14,2.1
		c-0.9-0.3-2.1-0.2-3,0.1c-11.7,3.9-17.4-3.7-23.2-11.7c-1.6-2.3-3.6-4.4-5.8-6.2c-4-3.4-4.5-7.2-3.1-12.2c1.1-3.8,1.5-8.4,0.3-12
		c-1.1-3.4-0.6-5.7,1.1-8.2c3.9-5.8,6.6-12.5,13.9-15.5c1.8-0.7,2.5-4.1,3.7-6.2c1.3-2.2,2.5-4.6,4.3-6.4c2.1-2.2,4.8-3.9,7.8-6.2
		c5.2,1.7,10.7,0.5,16.8-1.6c5.9-2.1,12.7-1.7,19.2-2.4c0.8-0.1,1.7,0.1,2.5,0.1c2.2,0.2,5.7-0.4,6.3,0.7c1,1.9,0.3,4.7,0.3,8.5
		c1.6,0.5,4.6,1.2,7.4,2.3c4.5,1.8,9,3.7,13.5,5.8c2.7,1.3,4.3,1.3,5-2.2c0.9-4.2,4.2-4.2,7.5-3.3c5.1,1.4,10.1,3.1,15.3,4.3
		c1.6,0.4,3.5-0.2,5.3-0.4c1.1-0.1,2.3-0.6,3.4-0.6c2.8-0.2,7.2,0.9,8.2-0.5c2.6-3.7,3.7-8.4,5.7-13.7c-2.8,0-3.9,0-5,0
		c-2.6,0-5.3-0.1-7.9,0.1c-2.1,0.1-4.2,1.1-6.2,0.7c-4.8-0.9-8.6-3.9-8.9-8.8c-0.4-5.6-3.1-3.8-6-2.9c-1.2,0.4-2.3,1-3.7,1.6
		c1.2,1.6,2.4,3.1,3.4,4.3c-1.6,1.4-3,2.6-5.1,4.6c-2.2-3.6-4.8-7.7-7.4-11.9c-0.7-1.2-1.2-2.9-2.2-3.5c-4.5-2.8-9.1-5.4-13.7-7.9
		c-0.9-0.5-2.2-0.1-3.3-0.1c0.4,1.2,0.3,2.8,1.1,3.4c4.6,3.6,9.4,7,14,10.3c-0.6,0-1.7,0-1.2,0c-2.9,3.8-5.1,6.6-7.5,9.8
		c-2.1-0.9-4.1-1.7-6-2.5c0-0.4,0.1-0.8,0.1-1.3c1.3,0,2.7,0.3,3.9-0.1c1.7-0.4,3.2-1.3,4.8-2c-0.9-1.4-1.6-3.1-2.8-4.3
		c-1.2-1.1-2.8-1.7-4.3-2.5c-1.4-0.8-3.3-1.3-4.3-2.4c-4.4-4.9-8.9-7.6-15.2-3.1c-0.9,0.7-2.9-0.3-4.4-0.3c-1.2,0-3.5,0.3-3.6,0.7
		c-0.5,4.5-4.6,4.7-7.2,6.6c-1.2,0.9-1.9,2.6-2.8,3.9c-1.2,1.8-2.1,4-3.8,5.3c-4.1,3.1-15.6,3.3-19.4,0.4c-1.1-0.8-2-2.5-2-3.8
		c0-4,0.2-8.1,1-12.1c0.1-0.8,2.8-1.6,4.3-1.6c3.8-0.1,7.6,0.4,11.5,0.3c1.6,0,4.3-0.6,4.6-1.4c0.6-2,0.7-5-0.4-6.5
		c-1.8-2.3-4.7-3.7-7.1-5.4c2.6-1.1,5.4-3.2,8.3-3.3c6.9-0.3,10.9-5.4,16.2-8.4c3.4-1.9,7.2-2.9,11.5-4.7c-0.9-3.5-3.6-8.9,4.7-9.1
		c-0.3,1.5-0.3,3.1-0.8,4.6c-1.1,3,0.8,4.4,3,4.5c4.9,0.1,9.9-0.5,14.8-0.9c1.6-0.1,3.4-0.9,4.9-0.5c4.4,1,6.9-0.1,7.9-4.8
		c1.1-5.4,5-2.3,8.9-1.7c-0.7-2.2-1.1-3.7-1.9-6.1c4.8-0.5,9.6-1,14.4-1.5c0-0.5,0-1,0-1.6c-2.7,0-5.4-0.1-8.2,0
		c-2.8,0.1-5.7,1-8.4,0.5c-1.5-0.3-3.5-2.5-3.7-4.1c-0.3-1.5,1-3.8,2.3-4.9c2.2-1.9,5.1-3.1,8.9-5.3c-4.6-1.8-7.7-2.2-10.9,0.6
		c-2.2,1.9-4.7,3.3-6.9,5.1c-1.8,1.5-3.8,3.1-4.9,5.2c-0.3,0.7,2.1,2.7,3.7,4.7c-6.1,2.8-7,13.4-16.9,11.7c-0.8-0.1-1.7,0.9-2.6,1.4
		c-0.3-0.3-0.5-0.6-0.8-0.9c1-1.1,2.1-2.3,3.2-3.5c-1.5-2.3-3.1-4.6-5-7.5c-2,0.8-4.1,1.7-6.1,2.6c-4,1.7-7.5,0.7-8.9-2.6
		c-2.1-4.8-1.2-7.9,3.5-9.3c8.7-2.6,15.5-8,22.4-13.4c0.9-0.7,1.1-2.5,1.6-3.7c7.9-1.7,15.9-3.7,24-5c4.8-0.8,10.5-2,14.5-0.2
		c9.9,4.3,20.9,3.3,30.7,7.6c1,0.4,1.9,1.2,3.6,2.3c-8.2,5.6-15.9,1.2-23.5,0.9c5,1.4,6.1,9.1,13.2,7.8c-0.8-0.9-1.4-1.6-2.7-3.1
		c3.3,0.5,5.6,0.9,7.9,1.2c2.8-5.1,7.6-5,12.3-4.7c0-6.2,0.6-6.7,6.3-5c-0.6,0.5-1,0.9-1.4,1.2c-0.3,0.3-0.6,0.6-0.9,0.9
		c0.1,0.5,0.3,0.9,0.4,1.4c6.8-1.8,13.5-4.2,20.4-5.1c6.9-0.9,13.9-0.2,21.2-1.2c-1.4-0.9-2.8-1.8-4.2-2.7c0-0.2,0.1-0.4,0.1-0.7
		c8.7,1.6,17.4,3.2,26.2,4.9c-1.8-2.2-3.4-4.3-5.6-7c6.6-1.2,9.5-11,16.3-4.2c0.6,4.1,1.1,8.1,1.8,13c-0.9,0.7-2.6,2.1-5,4.1
		c6.2,0.5,8.8-3.2,11.1-7.3c-0.8-0.1-2.1-0.3-3.4-0.6c-0.4-2.3-0.7-4.4-1.1-6.7c1.4-0.7,3.1-1.5,4.9-2.4c1,3.6,0.8,3.3,4,1.5
		c1.8-1,4.4-1.1,6.6-1c2.7,0.2,5.3,1.2,8.2,1.1c-1.4-1-2.9-2-4.3-3c0.1-0.4,0.2-0.8,0.3-1.1c1.4-0.2,2.8-0.3,4.2-0.5
		c4.5-0.9,9.8,1.6,13.3-3.6c0.6-0.9,2.8-0.9,4.3-1c9.9-1,19.8-1.9,29.7-3c2.1-0.2,4-1.3,6-2c4.1-1.5,8.1-2.6,12.5-0.5
		c2.5,1.2,5.7,1.1,8.6,1.4c4.3,0.5,8.6,0.9,13,1.3c0.1,0.8,0.2,1.6,0.3,2.4c-5.8,1.7-11.5,3.5-17.4,5.3c0.3,0.4,0.5,0.9,0.7,0.8
		c11.5-2.5,22.9-1.2,34.4,0.2c6.3,0.7,12.9-0.7,19.4-0.8c2.3,0,6.1-1,5.5,4.1c-0.1,0.7,5.5,3.4,6.4,2.7c4.5-3.6,9.3-0.6,13.8-1.4
		c3.6-0.7,7.5,1,10.8-2.4c1.1-1.1,3.9-1.3,5.7-0.9c8.1,1.5,16.5,0.1,24.5,3.5c3.9,1.6,8.8,0.9,13.2,1.2c4.5,0.3,9.4-1.1,12.9,3.3
		c0.4,0.5,1.5,0.8,2.3,0.8c6-0.2,11.9-0.5,17.9-0.6c1,0,2,1,3,1.4c1.5,0.6,3.1,1,5.1,1.6c0.2-1.5,0.4-2.5,0.6-4.3
		c8,1,15.8,2.1,23.7,3.1C999.1,63.4,999.1,69.8,999.1,76.1z M600.4,123.8c-4,1.4-3.9,1.3-8-2.4c-0.4-0.4-1.3-0.3-1.9-0.5
		c-6.3-2.2-7.9,3.2-10.4,6.6c-3.3,4.4-2,6.8,3.4,7.2c1.8,0.1,3.7,0,5.3-0.7c4.4-2,8.5-1.5,13-0.1c3.4,1,7.2,1,10.8,1.1
		c1.2,0,2.4-1.4,3.6-2.1c-0.8-1.1-1.4-2.6-2.5-3.3c-3.1-2-6.5-3.7-9.7-5.5c1.4-2,2.6-3.7,3.7-5.4c-0.2-0.3-0.5-0.7-0.7-1
		c-2.8,1.2-5.5,2.4-8.3,3.6C599.3,122.2,599.8,123,600.4,123.8z M638.7,137.3c-2.9,6.6-2.9,7.7,3.3,9.3c11.7,2.9,8.6-3.8,5.7-10
		c1.5-0.4,2.7-0.7,4.2-1.1c-3.9-3.2-7.5-6.1-11.4-9.3c3.1-2.2,5.4-3.8,8.3-5.8c-5.8-2-13.7-0.1-16.3,3.3c-0.6,0.8-0.7,2.6-0.2,3.5
		C634.3,130.4,636.5,133.7,638.7,137.3z"/>
	<path fill-rule="evenodd" clip-rule="evenodd" d="M999.1,499.1c-2.7,0-5.3,0.1-8,0.1c-327.1,0-654.2,0-981.3,0
		c-10.8,0-9.6,1.3-9.7-9.5c0-6.4,0-6.3,6.4-6c18.6,0.8,37.2,1.4,55.9,1.6c-13.1-1.6-26.2-3.2-39.4-4.7c16.6-0.6,33.2,2.8,50.8-2.2
		c-2.8-1.4-4.8-2.3-7.2-3.5c6.8-1.9,14.4,1.9,20.1-3.6c-8.7-1.8-17.4-3.6-26.2-5.4c0-0.6,0-1.3,0.1-1.9c3.1-0.2,6.2-0.6,9.3-0.4
		c4.1,0.2,8.2,1.2,12.4,1.3c1.4,0,2.9-1.5,4.3-2.3c1-0.6,1.9-1.6,3-1.8c11.1-1.3,22.2-2.8,33.4-3.6c8.4-0.6,16.9-0.1,25.3-0.4
		c11.1-0.4,22.1-1.1,33.2-1.6c1,0,2,0.4,2.9,0.8c0.6,0.3,1.3,1.4,1.6,1.2c7.5-2.3,14.5,2.7,22.1,1.1c4.9-1,10.2-0.2,15.6-0.2
		c-3.4-1.8-6.7-3.5-10.1-5.2c0.2-0.4,0.4-0.9,0.6-1.3c12.7,0,25.4-0.1,38.1,0.1c3.7,0.1,7.4,1.3,11.1,1.5c4.4,0.2,8.7-0.5,13.1-0.5
		c2.6,0,5.2,0.7,7.8,0.8c2.1,0.1,4.9,2.3,6.3-1.4c0.1-0.2,1.1-0.4,1.4-0.2c5.4,3.8,11.1,0.8,16.6,0.4c5.8-0.4,6.2-1.9,3.1-7
		c-0.4-0.7-0.9-1.4-0.5-0.8c1.2-3.3,2.1-5.7,3.2-8.5c2.7-1.9,6.2-4.3,9.7-6.8c5.2-1.3,10.7-2.6,16.2-4c0.2,0.5,0.4,0.9,0.6,1.4
		c-3.7,1.2-7.5,2-11,3.7c-3.8,1.9-7.3,4.5-11.6,7.3c1.3,0.9,2.2,2,3.4,2.3c4.3,1.3,10.5,7.5,10.5,11.7c0,1.7-2.3,4.5-4,4.9
		c-9.4,2.2-19,4.1-28.6,5.7c-3.8,0.6-7.9,0.1-12,1.2c2.8,0.5,5.5,1,8.3,1.5c0,0.5,0,1-0.1,1.4c-5.9-0.3-11.7-0.6-17.6-0.9
		c0,0.2-0.1,0.3-0.1,0.5c1.7,0.4,3.4,0.9,5.1,1.3c0,0.4-0.1,0.8-0.1,1.1c-4.7-0.4-9.3-0.8-14-1.2c0,0.5-0.1,1-0.1,1.5
		c4.8,0.4,9.6,0.5,14.4,1.2c2,0.3,3.8,1.7,5.8,2.2c3.1,0.8,6.3,1.5,9.5,1.8c6.4,0.7,13.5-0.5,19,2.1c3.7,1.7,7.9,1.4,11.4,3.8
		c2,1.4,5.8,1.2,8.5,0.6c11.9-2.9,23.8-4.5,36.1-2.2c1.7,0.3,3.6-0.1,5.4-0.4c9.3-1.5,18.5-3.3,27.9-4.4c7.9-0.9,15.9-1.1,23.9-2.2
		c-10.1-0.8-20.2-1.6-30.3-2.4c-0.1-0.6-0.2-1.1-0.3-1.7c2.7-1,5.2-2.5,8-2.9c11.8-1.8,23.7-3.1,35.6-4.9c4.6-0.7,9-2.4,13.8-3.8
		c-0.6-0.5-1.2-1.1-2.2-2c1.4-0.4,2.4-0.7,3.4-1.1c4.1-1.6,8.2-4.5,12.2-4.4c5,0.1,9.8-1.3,14.8-1c5.7,0.3,11.5,1.5,17.5,0.6
		c9-1.5,18.4-1.2,27.6-1.7c2.9-0.2,5.8-1,8.7-0.9c5.4,0.2,10.8,1.6,16.1,1.2c11-0.9,23.3,3.3,32.8-2.4c7-4.3,11.6,1.1,17.2-0.3
		c1.2-0.3,2.8,0.3,3.7-0.3c7.3-5,15.5-5.7,24-5.8c2.4,0,4.9-1.1,7.1-2.2c5.9-3.1,11-3.6,17.5-0.1c4.8,2.6,11.5,1.8,17.4,2.2
		c6.2,0.5,12.5,0.7,18.7,1c0.3,0.4,0.5,0.9,0.8,1.3c-1.5,1.6-2.9,3.3-4.7,5.2c0.3,0.2,1.1,0.7,1.8,1.2c-1.9,2-3.8,4.1-5.7,6.1
		c0.4,0.5,0.7,0.9,1.1,1.4c4.3-2.5,8.5-5.1,12.9-7.3c2.3-1.2,4.9-1.9,7.4-2.6c2.7-0.8,5.5-1.3,8.2-2c8.2-2,16.2-4.8,24.5-5.7
		c11.4-1.2,23-0.1,34.4-1.7c9.9-1.4,19.4-0.8,29.1,1.1c1,0.2,2.3-0.3,3.3-0.8c6.2-2.8,6.9-2.8,13.6,0.4c-0.5,0.6-1,1.1-1.9,2.2
		c10.8-1,21.1-2,31.3-2.9c1.2-0.1,2.5,0.7,3.8,0.9c1.6,0.3,3.7,1.2,4.8,0.5c8-4.4,16.3-1.5,24.4-1.5c5,0,10,0.7,14.9,1.4
		c2.6,0.3,5,1.5,7.6,1.9c11.5,1.6,23.1,3,34.6,4.5c1.3,0.2,3,0.1,3.9,0.9c4.4,3.7,9.6,2.2,14.4,2.8c5.2,0.6,10.4,1.8,15.5,2.7
		c0.1,0.6,0.2,1.1,0.3,1.7c-1.9,0.9-3.7,2-5.7,2.6c-4.8,1.5-9.7,2.7-14.4,4.4c-0.9,0.3-1.8,3-1.4,3.6c2,2.7,4.5,5,6.8,7.4
		c-4.2,1.7-11.2-1.5-15.2,4.9c11,7,23.7,7.5,36,9.1c6.1,0.8,12.3,1,18.4,1.4C999.1,488.4,999.1,493.8,999.1,499.1z"/>
	<path fill-rule="evenodd" clip-rule="evenodd" d="M343.2,106.1c-0.2,0-0.3,0-0.5,0.1c-7.9,3.4-16.2,3.6-24.7,3.6
		c-3,0-5.9,2.4-8.7,4.5c3.8-0.7,7.6-1.4,11.8-2.2c-3.1,14.5,6.6,8.5,12.7,8c-0.1,0.6-0.3,1.2-0.4,1.8c-5.3,2.1-10.6,4.2-15.9,6.3
		c-0.3-0.3-0.6-0.7-0.8-1c0.7-1.1,1.4-2.1,2.1-3.2c-0.2-0.1-0.4-0.5-0.6-0.4c-12.9,4.4-14.6,3.8-14.3,10.6
		c-8.1-1.8-9.4,7.4-15.6,10.3c3.7,5.9-0.6,8.5-5.7,10.9c-1.6,0.8-2.9,2.2-4.4,3.2c-4,2.4-4.7,5.5-2.7,9.8c1.5,3.3,4.1,6.7,0.2,12
		c-2-3.5-4-6.2-5-9.2c-1-3-1.8-5-5.7-4.6c-2,0.2-4.1-1.3-6.2-1.1c-2.6,0.2-5.1,1.5-7.7,2.1c-1.5,0.3-3.3,0.7-4.7,0.2
		c-5.8-2.1-10.3,0.5-14.8,3.6c-0.5,0.4-1,0.9-1.3,1.5c-3.1,5.3-1.3,19,3.1,23.5c3.8,3.9,12.8,2.8,15.1-1.8c2.2-4.5,4.3-5.3,10.2-4
		c-1.4,4.7-2.9,9.3-4.6,14.9c3.3,0,5.9,0,8.5,0c5.2,0.1,6.4,1.6,5.8,6.6c-0.4,3.5-1.7,7.2,1.7,10.3c2.3,2,4.2,2.9,7.5,1.9
		c2.6-0.8,5.8,0.3,8.9,0.6c4.4-3.1,9.5-6.6,14.5-10.1c0.3,0.3,0.6,0.6,0.9,0.9c-0.3,1-0.6,1.9-1.4,4.6c4.7-4.1,7.7-2.4,11.5-0.3
		c2.8,1.5,7,0.4,10.5,0.5c1.2,0,2.8,0,3.7,0.6c4.3,3,8.3,6.4,12.6,9.3c2.1,1.4,4.7,2.7,7.1,2.8c8.3,0.5,13.7,5.3,15.6,13.4
		c0.5,2.1,3.4,4.1,5.6,5.3c2.4,1.2,5.3,1.3,7.9,2.2c2.7,0.9,5.5,3.3,8,3.1c7.5-0.8,11.8,5.6,18.1,7.3c3.2,0.9,3.2,8,0.4,11.7
		c-2.1,2.8-4.1,5.7-6.6,8.1c-2.7,2.5-2.4,5.4-3.1,8.4c-1.4,6.2-3.7,12.3-6.2,18.1c-0.6,1.5-3.5,2-5.4,2.9c-4.2,1.9-8.5,3.5-12.5,5.7
		c-1.3,0.7-2.5,3-2.4,4.5c0.4,5.7-3.6,8.5-6.9,11.9c-0.8,0.8-1.9,1.4-2.5,2.3c-6.1,9.6-6.1,9.7-17.1,7.4c1.2,2.1,3,3.9,3.1,5.8
		c0.1,1.7-1.5,3.8-3,5c-1.3,1.1-3.4,1.3-5.2,1.5c-3.3,0.3-6.5,0.1-7.3,4.8c-0.2,1-4.1,1.3-6.7,2c0.9,4.5-0.1,8.4-5.2,11.6
		c-4.7,3,1.8,3.7,2.6,5.8c-2.9,3.4-7.9,6.6-8.2,10.2c-0.3,3.4,4.3,7.2,6.7,10.6c-5.8,2.7-13.1,0.8-18.4-3.5c-3.7-3-4.9-9.3-6.7-14.2
		c-0.3-0.8,1.7-2.5,2.9-4c-0.7-0.7-1.5-1.4-2.3-2.1c1.1-1.9,2.1-3.7,3.2-5.4c0.6,0.5,1.1,1,1.9,1.6c0.7-3.1,1.3-5.9,1.9-8.7
		c-0.3-0.1-0.6-0.2-1-0.4c-0.8,1.2-1.5,2.4-2.3,3.7c-0.2-0.1-0.5-0.1-0.7-0.2c0.1-1,0.1-2,0.3-3c1.5-7.5,3-14.9,5.6-22.3
		c2.8-8,2.9-16.8,4-25.4c0.6-4.3,0.7-8.6,1.1-12.9c0.4-4.3-1.7-7.6-5.3-8.8c-9.7-3-12.5-11.6-16.8-19.1c-2.1-3.7-4.7-7.1-7-10.8
		c-0.8-1.2-1.9-3-1.5-4.1c2.6-6.9,0.9-15.2,8.1-20.6c4.2-3.1,3-14.2-1.5-16.7c-1-0.6-3.5,1.6-6.3,3c-3-1.6-7.2-4-11.5-6.4
		c-0.3-0.2-0.7-0.3-0.8-0.5c-2.5-8.2-9.7-9.6-16.6-11.4c-1.3-0.4-2.5-1.6-3.6-2.6c-2.6-2.4-5.1-4-9-2.3c-1.4,0.6-3.6,0.1-5.3-0.6
		c-5-1.9-10-3.8-14.7-6.2c-3.4-1.7-7.5-3.1-6.4-8.7c0.3-1.4-1.6-3.6-2.9-5c-3.7-4.1-7.8-8-11.5-12.2c-2.4-2.7-4.4-5.7-6.8-8.4
		c-1-1.2-2.5-2-3.7-3c-0.5,0.4-1,0.9-1.6,1.3c5,7.2,9.9,14.5,14.9,21.7c-0.4,0.4-0.9,0.7-1.3,1.1c-2-2.4-3.8-5.1-6-7.3
		c-1.8-1.8-4-3.3-5.3-5.3c-1.1-1.8-2.1-3.7-3.2-5.5c-0.9-1.4-2.1-2.6-2.8-4.1c-2.2-4.7-5.2-8-10.4-10c-6.3-2.4-13.2-17.7-12-24.6
		c1.8-11.1,1.4-12.1-7.6-17.9c-0.9-0.6-1.5-1.7-2.2-2.7c-1-1.6-1.7-3.3-2.8-4.7c-1.3-1.8-2.8-3.6-4.5-4.9c-1.1-0.9-2.8-1.4-4.2-1.5
		c-3.7-0.2-5.8-3-4.5-7.6c-1.6,1.2-2.6,2-3.8,2.9c-6-6.3-13.7-8.6-22.2-9.9c-8.2-1.2-16-2.2-23.7,3.9c-0.1-2.8-0.2-4-0.3-6.2
		c-8.5,8.9-18.1,14.5-30.1,15.4c2.5-1,5.1-1.8,7.4-3c2.3-1.2,4.4-2.8,6.3-4.9c-8.9-1-16.8-3-23.3-8.6c1.9-5.7,6.7-4.2,10.2-5.6
		c1.1-0.5,2.1-1.4,3.1-2.1c-1.2-0.3-2.4-1-3.6-1c-4.8-0.1-10,1.7-14.8-4.3c6.1,0,11.2,0,16.2,0c0.1-0.4,0.1-0.7,0.2-1.1
		c-3.9-1.7-7.8-3.4-11.7-5.1c0-0.4-0.1-0.8-0.1-1.2c8.6-2.3,17.1-5.6,25.8-6.6c7.1-0.8,14.5,1,21.7,1.9c11,1.3,22,3,33.1,4
		c3.3,0.3,6.8-0.9,10.2-1.4c5.2-0.8,10.3-1.8,15.5-2.2c3-0.2,6.1,0.7,9.1,1.1c9.3,1.1,18.6,2.2,28,3.3c-0.2,0.8-0.4,1.6-0.7,2.7
		c6.3,0,12.2,0,18.1,0c0.2-0.3,0.3-0.6,0.5-0.9c-1.7-0.6-3.3-1.4-5-1.6c-6.3-0.8-12.6-1.3-18.8-1.9c0-0.7,0-1.3,0-2
		c3.3-0.3,6.7-0.6,10.3-0.9c-5.3-2.6-13.5,3.5-16-6.6c-5.8,3.9-11.9,6.5-18.4,1.5c1.3-2,2.6-4,3.9-6c0-0.5,0.1-0.9,0.1-1.4
		c14.9,2.4,29.9,4.9,44.7,7.3c0-0.2-0.3-1.2-0.7-2.5c3-0.7,5.7-1.4,9-2.2c-1.9,9.5,5.5,8.8,10.3,12c-3.9,0.9-7.7,1.8-11.7,2.7
		c5.4,2.7,11.5,2.6,17.7,2.1c0.5,0,1.2-0.7,1.5-1.2c2-4.4,2-4.4,6.3-2.5c0,1.6,0,3.2,0,5.4c2.3-1.4,4-2.4,5.7-3.5
		c-0.1-0.4-0.1-0.9-0.2-1c-4.9-2.2-7.1-4.4-3.7-10.5c1.5-2.8,2.3-4.2,5.1-4.2c2.6,0,5.3,0.4,8.3,1.8c-2.9,1.2-5.9,2.3-9.5,3.8
		c3.5,3.1,6.5,5.8,9.7,8.3c0.7,0.6,2.1,0.3,3.2,0.4c1.4,0.2,2.9,0.2,4,0.9c1.1,0.8,1.7,2.3,2.5,3.5c1.8-1.7,3.7-3.3,5.4-5.1
		c0.4-0.4,0.1-1.5,0.2-2.4c-2.6-0.2-5.3,0.1-7.5-0.8c-2-0.8-3.6-3-5.3-4.5c1.5-1.4,2.7-3.3,4.5-4.2c1.8-0.9,4.1-0.8,6.3-1.2
		c-0.3,2-0.5,3.6-0.8,5.2c0.4,0.2,0.7,0.4,1.1,0.7c2.3-5.7,6.9-5.4,11.5-5.2c1.4,0,2.9-0.4,4.3-0.1c4.1,0.9,8.2,2,12.3,3.1
		c5.6,1.6,11.2,3.5,16.9,4.8c5.6,1.3,6.9,2.3,6.2,6.4c5,1.6,10.1,3.1,15.2,4.7c-2.5,5.2-4.6,5.8-9.5,3.1c-1.7-0.9-3.8-1.2-5.7-1.7
		c-0.2,0.6-0.4,1.3-0.7,1.9c1.8,0.9,3.8,1.5,5.5,2.7c1.2,0.9,1.9,2.4,2.8,3.6c-1.4,0.3-2.9,1-4.2,0.9c-1.6-0.1-3.1-0.9-5-0.8
		c1.6,1,3.2,2.1,4.8,3.1c-0.2,0.5-0.4,1-0.6,1.5c-5.2-1.9-10.3-3.9-15.5-5.5c-3.2-1-6.6-1.6-9.9-2.1c-2-0.3-4.1-0.1-6.3-0.7
		c4.9-2.6,12-0.7,14.5-8.3c-7.4-5.2-16-7.5-25.7-5.6c0.4,2.2,0.8,4.5,1.3,7.9c-3.8,0.7-7.7,1.4-11.2,2c-5.9,3.2-11.9,6.3-17.7,9.6
		c-2.1,1.2-4.3,2.6-5.9,4.4c-2.2,2.5-3.4,4.4,1.3,7c8.9,5.1,18.6,7.1,28.3,9.5c1.2,0.3,2.2,1.8,3,3c0.5,0.8,0.2,2.3,0.8,2.8
		c2.2,1.6,4.9,4.5,6.9,4.1c4.2-0.7,1.3-4.1,1-6.5c-0.1-0.6-0.3-1.2-0.5-1.8c9.6-4.8,10-6.2,3.9-10.9c0-3.9,0-7.2,0-10.7
		c7.8-1,15,0.5,21.9,4.1c0.4,0.2,0.7,0.7,0.9,1.1c4.3,7.3,7.2,7.6,12.8,1.3c0.3-0.4,0.8-0.5,2.1-1.4c2.7,3.8,5.3,7.7,8.4,11.3
		c1.4,1.6,3.8,2.5,5.8,3.6c2.7,1.5,5.7,2.6,8.2,4.4C346.6,102.4,345,104.5,343.2,106.1L343.2,106.1z"/>
	<path fill-rule="evenodd" clip-rule="evenodd" d="M880.8,283.6c-1.2,2.4-2.2,4.4-3.5,7c3.9,2.3,7.4,4.8,11.2,6.7
		c3.5,1.8,4.5-1.1,5.1-3.5c0.7-2.9,0.6-5.9,1.1-8.9c0.3-1.7,1-3.4,1.8-6.5c3.9,7.8,7.2,14.3,10.6,20.8c0.6,1.1,1.2,2.3,2.1,3.2
		c5.2,5.4,10.7,10.5,15.7,16.2c3.9,4.4,3,16.1-0.9,21.2c-1.5,2-3.5,4-3.9,6.3c-1.2,6.3-5.8,9.4-11,10c-5.7,0.6-12.3,0.4-17.3-2
		c-3.9-1.9-6.1-7.5-9.2-11.7c-1.1,0.7-2.7,1.9-4.6,3.3c-5.2-9-12.8-10-21.9-7.2c-8.9,2.7-17.7,5.4-26.7,7.6
		c-2.6,0.6-5.6-0.6-8.4-0.9c0.5-0.5,1-0.9,1.5-1.4c-0.8-4.2-1.4-8.4-2.3-12.5c-1-4.6-2.5-9.1-3.6-13.7c-1-4.4,3.4-9.4,9.3-10.9
		c2.9-0.7,5.8-1.4,8.7-2.2c1.2-0.4,3.1-0.9,3.4-1.8c1.7-4.6,6.3-6.3,9-9.9c3.7-5,5.2-5.2,11-2.6c0.6,0.3,1.3,0.2,1.9,0.3
		C865.4,281.4,867.5,280.7,880.8,283.6z"/>
	<path fill-rule="evenodd" clip-rule="evenodd" d="M348.5,53.6c2.7-0.4,5.4-0.7,8.1-1.1c-6.7-0.3-9.8-5-13.8-9.7
		c-5.1-5.9-13.4-5.6-21-5.5c-5.6,0.1-11.2-0.2-16.8-0.4c0-0.5,0-1,0-1.5c0.7-0.2,1.5-0.5,3.3-1.1c-3.4-0.8-6-1.5-8.5-2.1
		c0-0.3,0-0.6-0.1-0.9c6.6-0.9,13.2-1.9,19.8-2.8c0-0.4-0.1-0.8-0.1-1.2c-1.3-0.2-2.6-0.4-4-0.7c0-0.6,0-1.2,0-1.8
		c40.8-4,81.5-10.7,122.9-4.9c-2.2,0.3-4.3,0.5-6.7,0.8c2.7,3.5,7.6-2.5,9.7,2.4c8.1-0.4,16.5-0.9,25-1.3c0.1,0.5,0.1,1,0.2,1.6
		c-6.5,1.4-13,2.8-20,4.3c-0.9,1-2.5,2.7-4.5,4.7c2.4,1,4.8,2,7.2,3c-0.1,0.3-0.2,0.7-0.2,1c-2.4-0.3-4.7-0.6-7.1-0.9
		c-0.1,0.3-0.2,0.6-0.3,0.9c1.6,0.7,3.1,1.5,5.6,2.6c-1.6,0.7-2.4,1.1-3.2,1.4c0.7,0.5,1.4,1,2.7,2c-3,1.4-5.4,2.5-8.2,3.8
		c0.4,1.9,1,4.1,1.8,7.6c-2.9-0.8-5.3-1.7-7.7-2.1c-1.2-0.2-2.5,0.2-3.8,0.4c0,0.5,0,1,0.1,1.5c1.9,0.2,3.9,0.5,5.8,0.7
		c0.1,0.4,0.2,0.8,0.3,1.3c-3.6,1.1-7.2,2.5-10.8,3.1c-6.9,1.3-14.3,0.3-20.1,5.8c-1.2,1.1-3.4,1.8-5.1,1.7
		c-9.8-0.6-13.2,6.4-17,13.3c-0.8,1.4-3.2,3.2-4.4,2.9c-7.2-2-15-3.2-19.8-10.1c-1.5-2.2-3.4-4-5-6.2c-2.8-3.7-1.4-6.9,3.2-7.8
		c0.9-0.2,1.6-1.1,2.5-1.6c-1.1-0.3-2.1-0.7-3.2-0.8c-2.1-0.1-4.3,0-6.4,0C348.6,55.2,348.6,54.4,348.5,53.6z"/>
	<path fill-rule="evenodd" clip-rule="evenodd" d="M233.4,35.3c4.9,0.4,9.8,1.3,14.7,0.9c4.6-0.4,9.2-2.1,13.9-4.2
		c-2.9-0.1-5.9-0.7-8.8-0.2c-7.5,1.3-13.8-1.9-21.3-5c4.5-3.1,8.3-4.2,12.7-3.1c4.5,1.1,8.9,2.8,13.5,3.2c3.8,0.4,7.8-0.6,12.9-1.2
		c-7.7-0.7-14.2-1.2-20.7-1.8c0-0.7,0.1-1.4,0.1-2.1c25.8-2.6,51.7-5.3,77.8-1.1c-4.5,1.1-9,2.2-13.5,3.2c-6.5,1.5-13,2.7-19.4,4.3
		c-1.4,0.3-2.4,1.9-3.7,2.5c-1.9,0.9-4,1.4-6,1.9c-2,0.6-4.6,0.5-3.8,4.5c-9.9,0-20,0-30.2,0c0,0.6,0,1.2,0,1.8c8.8,0,17.6,0,26.5,0
		c0.1,0.6,0.1,1.3,0.2,1.9c-1.7,0.4-3.5,1.1-5.2,1.2c-7.8,0.1-15.6,0.2-23.4-0.2c-2.1-0.1-4-2-6.1-2.9c-1.6-0.7-3.3-1.2-5-1.6
		c-1.8-0.4-3.6-0.6-5.4-0.9C233.3,36.1,233.4,35.7,233.4,35.3z"/>
	<path fill-rule="evenodd" clip-rule="evenodd" d="M884,272.2c2.6-5,1.8-7.6-3-9.3c-3.2-1.2-6.6-1.7-9.8-2.9c-1-0.4-1.3-2.3-0.9-4.1
		c-1.7-1-3.3-2-5-3c0-0.5,0-0.9,0-1.4c2.4,0,5.4-0.9,7.1,0.2c1.8,1.2,2.3,4.3,3.6,6.9c1.2-0.7,2-1,2.5-1.6c3-3.1,5.9-4,10.2-1.9
		c7.4,3.7,15.2,6.7,22.7,10c-1.2,4.4-1.2,4.4,6.9,12.5c-0.2,0.4-0.5,0.9-0.7,1.3c-3-1.6-6.5-2.8-9-5c-4.4-3.8-5.2-4-9.7-0.4
		c-1.4,1.1-4,0.9-6,0.7c-1.4-0.1-2.5-1.6-3.9-2C887.6,271.9,886,272.2,884,272.2z"/>
	<path fill-rule="evenodd" clip-rule="evenodd" d="M831.6,234.6c-4.8,3.6-4.9,7.4-1.5,10.7c-2,3.6-4.5,6.6-5.4,10.1
		c-1.1,4.3-2.6,5.9-6.8,3.6c-0.8-0.5-1.9-0.6-2.9-0.7c-7.4-0.5-8.6-1.3-10.8-8.2c-0.9-2.9-2-5.6,3.4-5.9c2.8-0.1,5.7-3.4,8.3-5.4
		c3.4-2.6,6.5-5.5,10-8.4C827.7,231.6,829.3,232.9,831.6,234.6z"/>
	<path fill-rule="evenodd" clip-rule="evenodd" d="M638.5,284.4c1.7,2.9,2.5,6.2,0.8,10.5c-2.5,6.1-4,12.7-6,19
		c-1.5,4.8-4.7,7.1-8.2,5.8c-3-1.1-4.7-7.2-3.5-10.9c0.9-2.8,0.9-5.9,1.5-8.8c0.5-2,1-4.4,2.3-5.6
		C629.5,290.8,633.9,287.9,638.5,284.4z"/>
	<path fill-rule="evenodd" clip-rule="evenodd" d="M766.7,233.2c2.8,1.7,5.6,3.3,8.3,5.1c2.8,1.8,5.8,3.4,8.1,5.7
		c3.5,3.5,6.6,7.4,9.5,11.5c1.3,1.8,2.2,4.2,2.4,6.4c0.2,3.5-2.4,4-4.6,2.3c-3.2-2.4-6.1-5.2-8.6-8.3c-5.2-6.4-10.1-13-15-19.6
		c-0.4-0.5-0.6-1.1-0.9-1.7C766,234.3,766.3,233.8,766.7,233.2z"/>
	<path fill-rule="evenodd" clip-rule="evenodd" d="M505.2,103.3c-3.9,9.3-13.1,2-18,7.3c-0.2-0.5-0.5-1-0.7-1.4
		c1.2-0.9,2.3-1.8,3.7-2.8c-0.9-0.3-1.8-0.5-3.3-0.9c1.6-2,3-3.9,4.7-6.1c-1.8-3.2-8.9-4-6.5-10c0.7-1.8,3.6-2.7,5.5-4
		c0.3,0.3,0.6,0.6,0.9,0.9c-0.3,0.6-0.6,1.3-1.1,2.3c1.5,0.2,2.8,0.5,4.2,0.7C493.6,93.3,498.4,99.6,505.2,103.3z"/>
	<path fill-rule="evenodd" clip-rule="evenodd" d="M531.6,28.1c14.3-0.8,28.6-1.5,42.9-2.3c0,0.5,0.1,1.1,0.1,1.6
		c-6.3,3.5-13.1,0.7-21,0.8c5.1,1.9,9.1,3.4,13.1,4.8c-0.1,0.5-0.3,0.9-0.4,1.4c-2.2-0.6-4.8-0.6-6.6-1.8c-2.9-1.9-5.2-1.8-7.7,0.3
		c-4.5,3.8-8.6,3.9-13.2-0.1c-2.1-1.8-5-2.6-7.6-3.9C531.4,28.6,531.5,28.4,531.6,28.1z"/>
	<path fill-rule="evenodd" clip-rule="evenodd" d="M867.5,154.9c-0.8,3-1.4,5.1-2,7.2c-0.5,0-0.9-0.1-1.4-0.1
		c-0.8-1.6-1.6-3.3-2.4-5.1c4-3.9,8.3-6.7,14.3-6.8c5.2-0.1,12.6-6.8,14-11.6c0.4-1.2,1.8-2.2,2.8-3.3c0.8,1.3,2.5,2.8,2.3,3.9
		c-0.8,3.8-1.9,7.7-3.8,11.1c-0.7,1.4-3.7,1.5-5.7,2.2c-2.6,0.9-5.2,1.9-8,2.9C874.5,150.1,870.5,154.7,867.5,154.9z"/>
	<path fill-rule="evenodd" clip-rule="evenodd" d="M659.4,53.8c-5.8-1.2-10.3-2.2-15.2-3.2c13-14.8,30.4-12.7,46.5-15.2
		c0.1,0.6,0.3,1.1,0.4,1.7c-4.3,0.7-8.7,1-12.9,2.1c-6.2,1.6-12.5,3.4-18.4,5.9C653.9,47.5,654.1,48.3,659.4,53.8z"/>
	<path fill-rule="evenodd" clip-rule="evenodd" d="M26.9,65.1c-5.4,3.3-10.2,7-16.7,2.7C7.7,66,3.7,66.5,0,65.9
		c0.1-2.3,0.3-4.9,0.4-8.1C9.8,59.9,17.8,64.6,26.9,65.1z"/>
	<path fill-rule="evenodd" clip-rule="evenodd" d="M351.6,473.6c3.6-2.2,7.2-4.5,10.8-6.6c6.1-3.5,14.5-1.9,19.1,4.6
		c-10.6,1-20.4,1.9-30.1,2.8C351.4,474.1,351.5,473.8,351.6,473.6z"/>
	<path fill-rule="evenodd" clip-rule="evenodd" d="M435,65.8c1.1-0.3,2.4-1.2,3.1-0.8c5.6,2.9,11.1-0.1,16.6,0c2.5,0,5,1.4,8,2.3
		c-5.2,4.8-17.4,7-22.6,4.5c-0.8-0.4-1.3-1.4-1.9-2.1C437.4,68.5,436.4,67.4,435,65.8z"/>
	<path fill-rule="evenodd" clip-rule="evenodd" d="M981.2,362.8c0.6,0.2,2.1,0.6,4.1,1.2c-0.8,1.4-1.3,2.5-2.1,3.5
		c-2.8,3.2-5.2,6.9-8.7,9.1c-2.6,1.7-6.4,1.3-9.7,1.8c-0.3-0.8-0.6-1.5-1-2.2C969.5,371.9,975,367.6,981.2,362.8z"/>
	<path fill-rule="evenodd" clip-rule="evenodd" d="M206.2,39c-3.7,3.2-22,3.7-30.6,0.9c3.4-3.7,5.4-3.9,12.4-2.1
		c2.8,0.7,6.4,4.1,8.3-1.4c0.1-0.2,1-0.4,1.4-0.2C200.5,37.1,203.3,38.1,206.2,39z"/>
	<path fill-rule="evenodd" clip-rule="evenodd" d="M777.6,28c-2,3.3-2.5,3.3-21.3-0.6c2.1-2.8,6.4-4.7,10.7-3.7
		C770.7,24.5,774.1,26.5,777.6,28z"/>
	<path fill-rule="evenodd" clip-rule="evenodd" d="M343.1,106.1c0.6,0.5,1.8,1.4,1.8,1.4c-2.5,3.5,0.6,4,2.6,4.3
		c2.2,0.3,4.5,0.6,3.6,3.2c-0.5,1.3-3,2.7-4.7,2.8c-3.2,0-6.4-0.8-10.5-1.5C338.5,112.7,340.8,109.4,343.1,106.1
		C343.2,106.1,343.1,106.1,343.1,106.1z"/>
	<path fill-rule="evenodd" clip-rule="evenodd" d="M982.8,346.8c4.7,2.3,6.3,9.7,14.1,8c-2.7,3.3-5.4,6.7-8.3,10.3
		c-1.4-2.8-2.4-4.8-3.6-7.2C989.1,353.9,984.7,350.8,982.8,346.8z"/>
	<path fill-rule="evenodd" clip-rule="evenodd" d="M304.6,445.7c-2.5-1.3-3.7-2-4.9-2.6c0.5-0.9,1.1-1.8,1.6-2.7
		c1.9,0.6,4.4,0.8,5.7,2c1.6,1.5,2.3,4,3.5,6.1c-3.4,1.1-6.8,2.3-10.2,3.4c-0.2-0.4-0.3-0.8-0.5-1.2c0.3-0.6,0.7-1.1,1.3-2.2
		c-3.1,0.3-5.7,0.6-8.4,0.9c-0.1-0.4-0.2-0.8-0.2-1.2C296.1,447.5,299.7,446.8,304.6,445.7z"/>
	<path fill-rule="evenodd" clip-rule="evenodd" d="M834,249.1c1.4,6.6,6.5,0.7,9.7,3c-1.5,0.9-2.9,1.6-3.6,2c0.1,3,0.3,5.3,0.4,7.7
		c-1.5-1.3-3.1-2.7-4.8-4.1c-0.3,2.2-0.6,4.5-1,6.9C831.6,259.3,830.8,254.2,834,249.1L834,249.1z"/>
	<path fill-rule="evenodd" clip-rule="evenodd" d="M483.7,95.5c-1.1,8.9-3.6,10.7-10.5,10c0.2-2,0.3-4.1,0.5-7
		C476.7,97.5,480.2,96.5,483.7,95.5z"/>
	<path fill-rule="evenodd" clip-rule="evenodd" d="M818.5,272.2c-8.1-0.4-16.2-0.2-23.4-5.2C803.1,267.8,811.4,266.8,818.5,272.2z"
		/>
	<path fill-rule="evenodd" clip-rule="evenodd" d="M266.9,186.9c10.1-4.9,17.7,2.4,26.2,5.4c-0.1,0.6-0.2,1.2-0.3,1.8
		c-2.5-0.5-5.4-0.3-7.4-1.6C279.6,188.9,273.9,186,266.9,186.9z"/>
	<path fill-rule="evenodd" clip-rule="evenodd" d="M216.6,47.7c1.6-1.4,2.6-2.3,3.7-3.2c2-1.6,8.2-0.2,9.8,2.1
		c0.4,0.6,1.5,0.7,2.6,1.3C225.9,53.4,221.2,48.3,216.6,47.7z"/>
	<path fill-rule="evenodd" clip-rule="evenodd" d="M889.4,132.1c1.2-1.1,2.6-2.1,3.6-3.4c1.1-1.5,1.7-3.4,2.5-5.1
		c2.9,1.5,5.9,3,8.9,4.6c0,0.5,0.1,1,0.1,1.5c-3.1,0.5-6.2,1-9.3,1.6c-1.6,0.3-3.1,1.1-4.6,1.6C890.1,132.6,889.8,132.4,889.4,132.1
		z"/>
	<path fill-rule="evenodd" clip-rule="evenodd" d="M275.7,72.4c-5.5,0-10.9,0-16.7,0c1.2-2.3,2.1-4,3.2-6.3
		c4.7,1.8,9.3,3.5,13.9,5.2C275.9,71.8,275.8,72.1,275.7,72.4z"/>
	<path fill-rule="evenodd" clip-rule="evenodd" d="M837.9,210.9c-3.6-3.7-4.5-8.1-2.1-11.7c0.5-0.7,3-1.2,3.1-0.9
		c0.8,1.4,1.8,3.2,1.6,4.7C840.2,205.5,838.9,208,837.9,210.9z"/>
	<path fill-rule="evenodd" clip-rule="evenodd" d="M850.7,223.2c3.7,3.8,0.1,6.5-2.1,10.5c-1.2-1.5-1.9-3-3.1-3.9
		c-1.2-1-2.9-1.4-4.9-2.4C844,226,847.4,224.6,850.7,223.2z"/>
	<path fill-rule="evenodd" clip-rule="evenodd" d="M902.8,40.4c-6.7,0.5-13.5,1.8-20.2,0.2c0-0.6,0-1.3,0-1.9c6.7,0,13.4,0,20.1,0
		C902.7,39.3,902.8,39.8,902.8,40.4z"/>
	<path fill-rule="evenodd" clip-rule="evenodd" d="M913.6,364.8c-1.6,1.7-3.9,5.1-4.7,4.8c-2.5-1-4.4-3.4-6.5-5.2
		c0.3-0.4,0.6-0.9,0.9-1.3c3,0,5.9,0,8.9,0C912.7,363.7,913.2,364.3,913.6,364.8z"/>
	<path fill-rule="evenodd" clip-rule="evenodd" d="M211.3,37.3c4.7-0.3,9.5-0.7,14.2-0.8c1.1,0,2.3,1.2,3.4,1.8
		c-1.2,0.9-2.4,2.6-3.5,2.5c-4.9-0.7-9.6-1.9-14.4-2.9C211.1,37.7,211.2,37.5,211.3,37.3z"/>
	<path fill-rule="evenodd" clip-rule="evenodd" d="M297.3,193.1c4.7,1.2,8.4,2.2,12.1,3.1C300.3,200.3,300.2,200.3,297.3,193.1z"/>
	<path fill-rule="evenodd" clip-rule="evenodd" d="M160.5,36.8c5.5-1.1,11-2.2,16.5-3.3c0.1,0.8,0.3,1.5,0.4,2.3
		C171.9,37.1,166.5,38.9,160.5,36.8z"/>
	<path fill-rule="evenodd" clip-rule="evenodd" d="M724,222.5c2.5,2.8,5.3,4.9,3.3,8.6c-0.4,0.7-2.9,1.2-3.3,0.8
		C721.6,229.1,722.2,226.1,724,222.5z"/>
	<path fill-rule="evenodd" clip-rule="evenodd" d="M223.6,33c-5-0.7-10-1.5-15-2.2c0.1-0.7,0.3-1.5,0.4-2.2c5,0.8,10.1,1.6,15.1,2.3
		C223.9,31.7,223.7,32.4,223.6,33z"/>
	<path fill-rule="evenodd" clip-rule="evenodd" d="M777.6,32.7c5-5,9.5-4.2,14.3-1.3C787.5,31.8,783.1,32.2,777.6,32.7z"/>
	<path fill-rule="evenodd" clip-rule="evenodd" d="M321,472.6c4.4-0.5,8.7-1,13.7-1.6C332.6,473.8,332.6,473.8,321,472.6z"/>
	<path fill-rule="evenodd" clip-rule="evenodd" d="M56.4,471.3c-3.7-0.4-7.5-0.9-11.2-1.3c0.1-0.7,0.2-1.3,0.2-2
		c3.7,0.5,7.4,1,11.1,1.5C56.4,470.1,56.4,470.7,56.4,471.3z"/>
	<path fill-rule="evenodd" clip-rule="evenodd" d="M228.6,29.8c3.5,1.1,7,2.2,10.6,3.3c-0.1,0.4-0.2,0.8-0.3,1.2
		c-3.6-0.8-7.2-1.6-10.8-2.4C228.3,31.2,228.4,30.5,228.6,29.8z"/>
	<path fill-rule="evenodd" clip-rule="evenodd" d="M233.5,451c-4.7-0.3-9.5-0.7-14.2-1c0-0.3,0-0.5,0-0.8c4.7,0,9.4,0,14.2,0
		C233.4,449.8,233.5,450.4,233.5,451z"/>
	<path fill-rule="evenodd" clip-rule="evenodd" d="M834.1,249.2c0.7-3.2,3-3.4,5.7-3.1c2.6,0.3,5.3,0.1,8.2,1.1
		C843.4,247.8,838.7,248.4,834.1,249.2L834.1,249.2z"/>
	<path fill-rule="evenodd" clip-rule="evenodd" d="M195.3,32.9c-2.7,0.6-5.4,1.1-8.1,1.7c-0.1-0.6-0.3-1.2-0.4-1.7
		c2.6-0.9,5.3-1.7,7.9-2.6C194.8,31.1,195,32,195.3,32.9z"/>
	<path fill-rule="evenodd" clip-rule="evenodd" d="M839.4,180.1c-0.8,2.4-1.6,4.8-2.4,7.2c-0.6-0.2-1.1-0.4-1.7-0.5
		C833.9,183.6,835.2,181.4,839.4,180.1z"/>
</g>
<g id="Lines">
	<path fill-rule="evenodd" clip-rule="evenodd" d="M999.1,76.1l-15.4,2.2l-21,3.6l-10.4,5l2.1,5.3l-16.9,15l0.4-18.3l15.3-8.4
		l4.5-4.2l-1-1.1l-4.8,2.9l-7-0.3l-14.6,7.7l-12.1-2.1l-32.9,8.1l-7.2,4.7l10.1,2.3l6.6,3.6l3.2-3.4l3.3,12.7l-1.6,8l-4.5,0.5v-14.6
		l-1.3-0.4l-2.3,3.7L874,129.5l-16.8,8.6l-1.5,1.2l-3.5,13.8l-0.1-5.7l-1.9-3.2l-1.3-0.6l-10.2-3.1l1.1-5.4l-11.4,6.4l-0.1,1.7
		l12.3,2.5l-6.8,4.8l5.7,16.2l-0.4,2.3l-20.6,17.9l-7.9,2.7l-2,3.3l-1,4l-3.5,0.9l0.5-3.3l1.1-4.1l-4.5-0.7l-2.1,12.3l5.7,10.6
		l-2.3,5.6L794,224l-13.8-12.3l3.9,20.1l7.2,13.6l-10.6-7.6l-0.8-2.8l-9.1-32.3l-3.8,1.9l-3.9-2.4l-3.1-8l-5.2-6.8l-10,2.1l-7.8,6.3
		l-11.9,9.7l-1.5,4.8l-8.3,17l-12.4-38.6l-9.1,0.2l0.6-2.6l-5.5-3.5l-10-3.7l-13.9-0.7l-5.9-2.8l-3-0.8l-14.4-6.3l-5.9-2l0.9,5.3
		l6.9,6.4l0.9,3.7l11.1-3.9l11.3,9.5L649.4,203l-22.5,10l-6.4-3l-9.8-18.3l-10.3-17.1l-5.8-4.1l-1.3,1.5l9.4,16.1l1,2.3l12.1,19.4
		l5.3,7.3l5.6,2.5l16.2-3l-1.2,6.6l-17.1,22.3l-12.2,12.4l-0.7,19.5l1.6,14l-4.9,5.2l-5.4,3.4l-4.1,11.5l-4.1,7.7l-2.8,3.4
		l-22.4,21.5l-12.3,1.4l-6.5-4.6l-4.3-11.4l-5.1-11.6l-5.6-14.1l0-16.8l0.4-16.7l-7.8-13.1l-2-8.5l1.2-5.8l-5.8-6l-7.5-3.2l-4.6-2.2
		l-6.8,1.4l-14,2.1l-3,0.1l-23.2-11.7l-5.8-6.2l-3.1-12.2l0.3-12l1.1-8.2l13.9-15.5l3.7-6.2l4.3-6.4l7.8-6.2l16.8-1.6l19.2-2.4
		l2.5,0.1l6.3,0.7l0.3,8.5l7.4,2.3l13.5,5.8l5-2.2l7.5-3.3l15.3,4.3l5.3-0.4l3.4-0.6l8.2-0.5l5.7-13.7l-5,0l-7.9,0.1l-6.2,0.7
		l-8.9-8.8l-6-2.9l-3.7,1.6l3.4,4.3l-5.1,4.6l-7.4-11.9l-2.2-3.5l-13.7-7.9l-3.3-0.1l1.1,3.4l14,10.3h-1.2l-7.5,9.8l-6-2.5l0.1-1.3
		l3.9-0.1l4.8-2l-2.8-4.3l-4.3-2.5l-4.3-2.4l-15.2-3.1l-4.4-0.3l-3.6,0.7l-7.2,6.6l-2.8,3.9l-3.8,5.3l-19.4,0.4l-2-3.8l1-12.1
		l4.3-1.6l11.5,0.3l4.6-1.4l-0.4-6.5l-7.1-5.4l8.3-3.3l16.2-8.4l11.5-4.7l4.7-9.1l-0.8,4.6l3,4.5l14.8-0.9l4.9-0.5l7.9-4.8l8.9-1.7
		l-1.9-6.1l14.4-1.5l0-1.6l-8.2,0l-8.4,0.5l-3.7-4.1l2.3-4.9l8.9-5.3l-10.9,0.6l-6.9,5.1l-4.9,5.2l3.7,4.7L535.7,95l-2.6,1.4
		l-0.8-0.9l3.2-3.5l-5-7.5l-6.1,2.6l-8.9-2.6l3.5-9.3l22.4-13.4l1.6-3.7l24-5l14.5-0.2l30.7,7.6l3.6,2.3l-23.5,0.9l13.2,7.8
		l-2.7-3.1l7.9,1.2l12.3-4.7l6.3-5l-1.4,1.2l-0.9,0.9l0.4,1.4l20.4-5.1l21.2-1.2l-4.2-2.7l0.1-0.7l26.2,4.9l-5.6-7l16.3-4.2l1.8,13
		l-5,4.1l11.1-7.3l-3.4-0.6l-1.1-6.7l4.9-2.4l4,1.5l6.6-1l8.2,1.1l-4.3-3l0.3-1.1l4.2-0.5l13.3-3.6l4.3-1l29.7-3l6-2l12.5-0.5
		l8.6,1.4l13,1.3l0.3,2.4L799.3,45l0.7,0.8l34.4,0.2l19.4-0.8l5.5,4.1l6.4,2.7l13.8-1.4l10.8-2.4l5.7-0.9l24.5,3.5l13.2,1.2
		l12.9,3.3l2.3,0.8l17.9-0.6l3,1.4l5.1,1.6l0.6-4.3l23.7,3.1V76.1L999.1,76.1z M600.4,123.8l-8-2.4l-1.9-0.5l-10.4,6.6l3.4,7.2
		l5.3-0.7l13-0.1l10.8,1.1l3.6-2.1l-2.5-3.3l-9.7-5.5l3.7-5.4l-0.7-1l-8.3,3.6L600.4,123.8L600.4,123.8z M638.7,137.3l3.3,9.3
		l5.7-10l4.2-1.1l-11.4-9.3l8.3-5.8l-16.3,3.3l-0.2,3.5L638.7,137.3L638.7,137.3z"/>
	<polygon fill-rule="evenodd" clip-rule="evenodd" points="999.1,499.1 991.1,499.2 9.7,499.2 0.1,489.7 6.4,483.7 62.3,485.2 
		22.9,480.5 73.8,478.3 66.6,474.8 86.7,471.2 60.6,465.8 60.6,463.9 69.9,463.5 82.3,464.8 86.6,462.5 89.6,460.8 123,457.1 
		148.3,456.7 181.4,455.1 184.4,455.9 186,457.2 208.2,458.3 223.7,458.1 213.7,452.8 214.3,451.5 252.4,451.6 263.6,453 
		276.7,452.5 284.4,453.4 290.7,452 292.1,451.8 308.7,452.2 311.8,445.2 311.3,444.4 314.4,435.9 324.1,429.1 340.3,425.2 
		340.9,426.6 329.9,430.2 318.3,437.5 321.7,439.9 332.1,451.6 328.1,456.5 299.6,462.2 287.6,463.4 295.9,464.9 295.8,466.3 
		278.2,465.4 278.1,465.9 283.3,467.2 283.2,468.3 269.2,467.1 269.1,468.6 283.4,469.8 289.2,472 298.7,473.8 317.7,475.8 
		329.1,479.7 337.7,480.2 373.7,478 379.2,477.6 407,473.1 431,470.9 400.7,468.6 400.4,466.8 408.4,463.9 444,459 457.8,455.2 
		455.6,453.2 459,452.1 471.2,447.7 486.1,446.7 503.6,447.2 531.1,445.5 539.8,444.7 555.9,445.9 588.6,443.5 605.8,443.2 
		609.6,442.9 633.6,437 640.6,434.8 658.1,434.7 675.6,437 694.3,437.9 695.1,439.2 690.4,444.4 692.2,445.7 686.5,451.8 
		687.7,453.1 700.6,445.8 707.9,443.2 716.1,441.2 740.6,435.5 775,433.8 804,434.9 807.4,434.1 820.9,434.6 819,436.8 850.3,433.9 
		854.1,434.8 858.9,435.3 883.3,433.8 898.2,435.2 905.8,437.1 940.5,441.6 944.3,442.5 958.8,445.2 974.3,448 974.6,449.7 
		968.9,452.3 954.5,456.7 953.1,460.3 959.8,467.7 944.6,472.6 980.7,481.7 999.1,483.1 999.1,499.1 	"/>
	<polygon fill-rule="evenodd" clip-rule="evenodd" points="343.2,106.1 342.7,106.1 318,109.7 309.3,114.3 321.1,112.1 333.8,120.1 
		333.4,121.8 317.6,128.1 316.7,127.1 318.8,123.9 318.2,123.4 303.9,134 288.3,144.3 282.6,155.2 278.2,158.4 275.4,168.2 
		275.6,180.1 270.6,170.9 265,166.3 258.8,165.1 251.1,167.2 246.5,167.4 231.7,171 230.4,172.4 233.5,195.9 248.5,194.1 
		258.8,190.1 254.2,205 262.6,205 268.4,211.6 270.1,221.9 277.7,223.8 286.6,224.4 301.1,214.3 302.1,215.3 300.7,219.8 
		312.1,219.5 322.7,220 326.3,220.6 338.9,229.9 346,232.7 361.6,246.1 367.2,251.4 375.1,253.6 383.2,256.6 401.3,263.9 
		401.7,275.6 395.1,283.6 392,292.1 385.8,310.2 380.4,313.1 367.9,318.7 365.5,323.2 358.6,335.1 356.2,337.4 339.1,344.8 
		342.2,350.6 339.2,355.6 334,357.1 326.7,361.9 320,363.8 314.8,375.5 317.4,381.3 309.2,391.4 315.9,402 297.4,398.6 290.7,384.4 
		293.6,380.4 291.3,378.3 294.5,372.9 296.4,374.5 298.4,365.8 297.4,365.5 295.1,369.1 294.4,368.9 294.7,365.9 300.3,343.6 
		304.3,318.3 305.3,305.4 300,296.6 283.2,277.6 276.3,266.8 274.8,262.7 282.9,242.1 281.5,225.4 275.2,228.3 263.7,221.9 
		262.8,221.4 246.3,210 242.7,207.4 233.7,205.1 228.5,204.6 213.8,198.4 207.4,189.7 204.5,184.7 193,172.6 186.2,164.2 
		182.5,161.2 181,162.5 195.9,184.2 194.5,185.3 188.6,178 183.2,172.7 180,167.2 177.2,163.2 166.9,153.2 154.8,128.6 147.2,110.7 
		145.1,107.9 142.2,103.2 137.7,98.2 133.5,96.7 129,89.1 125.2,92 103,82.1 79.3,85.9 79,79.7 48.9,95.1 56.3,92 62.6,87.2 
		39.3,78.6 49.5,73 52.6,70.8 48.9,69.9 34.1,65.5 50.3,65.5 50.5,64.4 38.8,59.4 38.7,58.2 64.5,51.6 86.2,53.5 119.3,57.5 
		129.4,56.1 144.9,53.9 154,55 182.1,58.3 181.3,61.1 199.5,61.1 200,60.1 195,58.5 176.1,56.6 176.1,54.6 186.4,53.7 170.4,47.1 
		152,48.6 155.9,42.6 156,41.2 200.7,48.5 200.1,46 209,43.9 219.3,55.9 207.6,58.6 225.3,60.7 226.8,59.5 233.1,57 233.1,62.4 
		238.8,59 238.6,58 234.8,47.5 239.9,43.2 248.2,45 238.6,48.8 248.3,57.1 251.5,57.6 255.5,58.5 258,62 263.3,56.9 263.5,54.6 
		256,53.7 250.7,49.2 255.2,45 261.5,43.9 260.7,49.1 261.8,49.8 273.3,44.5 277.6,44.4 289.9,47.6 306.8,52.4 313,58.8 328.2,63.5 
		318.7,66.6 312.9,64.8 312.3,66.8 317.8,69.4 320.5,73.1 316.3,74 311.3,73.2 316.1,76.4 315.5,77.8 300,72.4 290.1,70.3 
		283.7,69.5 298.3,61.2 272.6,55.5 273.9,63.4 262.7,65.5 245,75 239.1,79.5 240.4,86.5 268.7,96 271.7,99 272.5,101.8 279.5,105.9 
		280.4,99.4 280,97.6 283.9,86.8 283.9,76 305.7,80.2 306.7,81.3 319.4,82.6 321.5,81.2 329.8,92.5 335.6,96 343.8,100.5 
		343.1,106.1 343.2,106.1 	"/>
	<polygon fill-rule="evenodd" clip-rule="evenodd" points="880.8,283.6 877.3,290.6 888.5,297.4 893.6,293.9 894.7,285 896.5,278.5 
		907.1,299.3 909.2,302.6 924.8,318.7 923.9,339.9 920.1,346.2 909,356.1 891.7,354.2 882.5,342.4 877.8,345.7 856,338.5 
		829.2,346.1 820.9,345.2 822.3,343.8 820,331.3 816.4,317.6 825.7,306.7 834.3,304.5 837.7,302.7 846.8,292.8 857.8,290.1 
		859.7,290.4 880.8,283.6 	"/>
	<polygon fill-rule="evenodd" clip-rule="evenodd" points="348.5,53.6 356.5,52.5 342.7,42.8 321.7,37.3 304.9,36.9 304.8,35.4 
		308.1,34.3 299.5,32.2 299.5,31.3 319.3,28.5 319.2,27.3 315.3,26.6 315.3,24.9 438.2,20 431.5,20.8 441.3,23.2 466.3,21.9 
		466.4,23.4 446.4,27.7 441.9,32.4 449.1,35.4 448.9,36.4 441.8,35.5 441.5,36.5 447.1,39.1 443.9,40.5 446.6,42.4 438.4,46.2 
		440.2,53.9 432.6,51.8 428.7,52.1 428.8,53.7 434.6,54.4 434.9,55.7 424,58.8 404,64.6 398.8,66.2 381.9,79.6 377.5,82.5 
		357.7,72.4 352.7,66.3 355.9,58.4 358.3,56.8 355.2,56 348.7,56 348.5,53.6 	"/>
	<polygon fill-rule="evenodd" clip-rule="evenodd" points="233.4,35.3 248.1,36.2 262,32 253.2,31.8 231.9,26.9 244.6,23.8 
		258.1,27 271,25.8 250.3,24 250.5,21.9 328.3,20.8 314.8,24 295.4,28.3 291.7,30.8 285.7,32.8 281.8,37.3 251.7,37.3 251.7,39.1 
		278.2,39.1 278.4,41 273.2,42.1 249.8,41.9 243.6,39 238.7,37.4 233.3,36.5 233.4,35.3 	"/>
	<polygon fill-rule="evenodd" clip-rule="evenodd" points="884,272.2 881,262.9 871.3,260 870.4,255.9 865.4,252.9 865.4,251.5 
		872.5,251.7 876.1,258.7 878.6,257.1 888.7,255.2 911.4,265.2 918.3,277.7 917.6,279 908.6,274 898.8,273.6 892.9,274.3 889,272.3 
		884,272.2 	"/>
	<polygon fill-rule="evenodd" clip-rule="evenodd" points="831.6,234.6 830.1,245.3 824.7,255.4 817.9,259 815,258.3 804.3,250.1 
		807.7,244.2 816,238.7 826,230.3 831.6,234.6 	"/>
	<polygon fill-rule="evenodd" clip-rule="evenodd" points="638.5,284.4 639.3,294.9 633.3,313.9 625.1,319.6 621.7,308.7 
		623.2,299.9 625.5,294.3 638.5,284.4 	"/>
	<polygon fill-rule="evenodd" clip-rule="evenodd" points="766.7,233.2 775,238.3 783.1,244 792.5,255.5 794.9,261.9 790.3,264.3 
		781.7,256 766.7,236.4 765.7,234.8 766.7,233.2 	"/>
	<polygon fill-rule="evenodd" clip-rule="evenodd" points="505.2,103.3 487.2,110.6 486.5,109.2 490.2,106.4 486.9,105.4 
		491.6,99.4 485.1,89.4 490.6,85.4 491.4,86.3 490.4,88.7 494.6,89.4 505.2,103.3 	"/>
	<polygon fill-rule="evenodd" clip-rule="evenodd" points="531.6,28.1 574.5,25.8 574.6,27.4 553.6,28.2 566.7,33.1 566.3,34.5 
		559.7,32.7 552,33 538.8,32.8 531.3,28.9 531.6,28.1 	"/>
	<polygon fill-rule="evenodd" clip-rule="evenodd" points="867.5,154.9 865.5,162.1 864.1,162 861.7,156.9 876,150.1 890,138.4 
		892.7,135.2 895,139.1 891.2,150.2 885.6,152.4 877.5,155.3 867.5,154.9 	"/>
	<polygon fill-rule="evenodd" clip-rule="evenodd" points="659.4,53.8 644.2,50.6 690.7,35.4 691.1,37 678.2,39.2 659.8,45 
		659.4,53.8 	"/>
	<polygon fill-rule="evenodd" clip-rule="evenodd" points="26.9,65.1 10.2,67.7 0,65.9 0.4,57.8 26.9,65.1 	"/>
	<polygon fill-rule="evenodd" clip-rule="evenodd" points="351.6,473.6 362.4,467 381.5,471.6 351.4,474.4 351.6,473.6 	"/>
	<polygon fill-rule="evenodd" clip-rule="evenodd" points="435,65.8 438.2,65 454.8,65 462.9,67.3 440.3,71.8 438.4,69.7 435,65.8 	
		"/>
	<polygon fill-rule="evenodd" clip-rule="evenodd" points="981.2,362.8 985.3,364 983.2,367.5 974.6,376.6 964.8,378.5 963.9,376.2 
		981.2,362.8 	"/>
	<polygon fill-rule="evenodd" clip-rule="evenodd" points="206.2,39 175.6,39.9 187.9,37.8 196.2,36.4 197.6,36.2 206.2,39 	"/>
	<polygon fill-rule="evenodd" clip-rule="evenodd" points="777.6,28 756.3,27.4 767,23.7 777.6,28 	"/>
	<polygon fill-rule="evenodd" clip-rule="evenodd" points="343.1,106.1 344.9,107.6 347.5,111.9 351.1,115 346.4,117.8 336,116.3 
		343.2,106.1 343.1,106.1 	"/>
	<polygon fill-rule="evenodd" clip-rule="evenodd" points="982.8,346.8 996.9,354.8 988.6,365.1 985,357.9 982.8,346.8 	"/>
	<polygon fill-rule="evenodd" clip-rule="evenodd" points="304.6,445.7 299.7,443.1 301.3,440.5 307,442.5 310.5,448.6 300.3,452 
		299.8,450.8 301.1,448.6 292.7,449.5 292.4,448.3 304.6,445.7 	"/>
	<polygon fill-rule="evenodd" clip-rule="evenodd" points="834,249.1 843.7,252.1 840.1,254.1 840.5,261.8 835.7,257.6 834.7,264.6 
		834.1,249.2 834,249.1 	"/>
	<polygon fill-rule="evenodd" clip-rule="evenodd" points="483.7,95.5 473.2,105.5 473.7,98.4 483.7,95.5 	"/>
	<polygon fill-rule="evenodd" clip-rule="evenodd" points="818.5,272.2 795.1,267 818.5,272.2 	"/>
	<polygon fill-rule="evenodd" clip-rule="evenodd" points="266.9,186.9 293.1,192.3 292.8,194.1 285.4,192.5 266.9,186.9 	"/>
	<polygon fill-rule="evenodd" clip-rule="evenodd" points="216.6,47.7 220.3,44.5 230.2,46.6 232.8,47.9 216.6,47.7 	"/>
	<polygon fill-rule="evenodd" clip-rule="evenodd" points="889.4,132.1 892.9,128.7 895.5,123.6 904.4,128.2 904.5,129.7 
		895.2,131.3 890.5,132.9 889.4,132.1 	"/>
	<polygon fill-rule="evenodd" clip-rule="evenodd" points="275.7,72.4 258.9,72.4 262.1,66.2 276.1,71.4 275.7,72.4 	"/>
	<polygon fill-rule="evenodd" clip-rule="evenodd" points="837.9,210.9 835.8,199.1 839,198.2 840.5,202.9 837.9,210.9 	"/>
	<polygon fill-rule="evenodd" clip-rule="evenodd" points="850.7,223.2 848.6,233.7 845.5,229.8 840.6,227.4 850.7,223.2 	"/>
	<polygon fill-rule="evenodd" clip-rule="evenodd" points="902.8,40.4 882.6,40.6 882.6,38.7 902.7,38.7 902.8,40.4 	"/>
	<polygon fill-rule="evenodd" clip-rule="evenodd" points="913.6,364.8 909,369.6 902.4,364.4 903.4,363.1 912.3,363.1 913.6,364.8 
			"/>
	<polygon fill-rule="evenodd" clip-rule="evenodd" points="211.3,37.3 225.5,36.5 228.9,38.3 225.5,40.8 211,37.9 211.3,37.3 	"/>
	<polygon fill-rule="evenodd" clip-rule="evenodd" points="297.3,193.1 309.4,196.2 297.3,193.1 	"/>
	<polygon fill-rule="evenodd" clip-rule="evenodd" points="160.5,36.8 176.9,33.5 177.4,35.8 160.5,36.8 	"/>
	<polygon fill-rule="evenodd" clip-rule="evenodd" points="724,222.5 727.3,231.1 724,231.9 724,222.5 	"/>
	<polygon fill-rule="evenodd" clip-rule="evenodd" points="223.6,33 208.6,30.8 208.9,28.6 224.1,31 223.6,33 	"/>
	<polygon fill-rule="evenodd" clip-rule="evenodd" points="777.6,32.7 791.9,31.4 777.6,32.7 	"/>
	<polygon fill-rule="evenodd" clip-rule="evenodd" points="321,472.6 334.7,471.1 321,472.6 	"/>
	<polygon fill-rule="evenodd" clip-rule="evenodd" points="56.4,471.3 45.2,470 45.4,468 56.5,469.4 56.4,471.3 	"/>
	<polygon fill-rule="evenodd" clip-rule="evenodd" points="228.6,29.8 239.2,33.1 238.9,34.3 228.1,32 228.6,29.8 	"/>
	<polygon fill-rule="evenodd" clip-rule="evenodd" points="233.5,451 219.3,450 219.3,449.2 233.4,449.2 233.5,451 	"/>
	<polygon fill-rule="evenodd" clip-rule="evenodd" points="834.1,249.2 839.8,246.1 848.1,247.1 834,249.1 834.1,249.2 	"/>
	<polygon fill-rule="evenodd" clip-rule="evenodd" points="195.3,32.9 187.1,34.6 186.7,32.8 194.6,30.2 195.3,32.9 	"/>
	<polygon fill-rule="evenodd" clip-rule="evenodd" points="839.4,180.1 837,187.2 835.4,186.7 839.4,180.1 	"/>
</g>
</svg>
