<?xml version="1.0" encoding="utf-8"?>
<!-- Generator: Adobe Illustrator 26.5.0, SVG Export Plug-In . SVG Version: 6.00 Build 0)  -->
<svg version="1.1" xmlns="http://www.w3.org/2000/svg" xmlns:xlink="http://www.w3.org/1999/xlink" x="0px" y="0px"
	 viewBox="0 0 209.32 210.07" style="enable-background:new 0 0 209.32 210.07;" xml:space="preserve">
<style type="text/css">
	.st0{display:none;}
	.st1{fill:#B3B3B3;}
	.st2{fill:#808080;}
	.st3{fill:#FBB03B;}
	.st4{fill:#FFFF00;}
	.st5{fill:#00877E;}
	.st6{fill:#23736E;}
	.st7{fill:#575757;}
	.st8{fill:url(#SVGID_1_);}
	.st9{fill:#FCEE21;}
	.st10{fill:#FBCE3B;}
</style>
<g id="Bulb_x5F_Lines">
	<path d="M136.24,22.31C119.87,5.14,97.12,5.48,94.75,5.56c-2.4-0.09-25.47-0.42-41.86,16.76c-13.45,14.1-20.01,29.54-19.48,45.9
		c0.83,26.05,19.48,45.22,25.17,50.48c7.7,7.11,9.08,22.13,9.08,22.13v39.04h0.13v0.07h11.44v11.63h30.68v-11.63h11.82v-0.07v-5.79
		l-0.1-31.46c0,0,1.25-16.84,8.93-23.92c5.69-5.25,24.34-24.42,25.17-50.48C156.25,51.86,149.69,36.42,136.24,22.31z M105.95,185.7
		H83.18v-5.78h22.78V185.7z M115.87,149.91h-12.32v5.85h12.32v6.68H94.8v5.85h21.07v5.78H73.51v-5.78h11.95v-5.85H73.51v-6.68h20.55
		v-5.85H73.51v-5.9h42.36V149.91z M148.73,67.99c-0.75,23.33-17.73,40.77-22.92,45.56c-8.91,8.22-10.92,18.12-11.33,23.38
		l-18.73,0.64l-0.85,0.05l-0.33-0.01l-19.92-0.69c-0.4-5.25-2.42-15.16-11.33-23.38c-5.19-4.79-22.18-22.22-22.92-45.56
		c-0.46-14.41,5.45-28.15,17.55-40.85c14.68-15.39,36.41-14.6,36.62-14.59l0.17,0.01l0.16-0.01c0.21-0.01,21.59-0.79,36.27,14.59
		C143.28,39.84,149.19,53.58,148.73,67.99z"/>
</g>
<g id="Bulb_x5F_Rounded">
	<path d="M136.64,22.51C120.26,5.34,98.14,5.7,98.14,5.7c-1.65,0.03-4.35,0.03-6,0c0,0-22.47-0.37-38.86,16.81
		c-13.45,14.1-20.01,29.54-19.48,45.9c0.83,26.05,19.48,45.22,25.17,50.48c7.7,7.11,8.8,19.14,8.8,19.14
		c0.15,1.64,0.27,4.34,0.27,5.99v33.04c0,1.65,0.03,3,0.06,3s0.06,0.02,0.06,0.03c0,0.02,1.35,0.03,3,0.03h5.44c1.65,0,3,1.35,3,3
		v5.63c0,1.65,1.35,3,3,3h24.68c1.65,0,3-1.35,3-3v-5.63c0-1.65,1.35-3,3-3h5.82c1.65,0,3-0.02,3-0.03c0-0.02,0-1.34,0-2.93
		c0-1.59,0-4.24-0.01-5.89l-0.08-25.46c-0.01-1.65,0.09-4.35,0.21-5.99c0,0,1.03-13.85,8.7-20.93c5.69-5.25,24.34-24.42,25.17-50.48
		C156.65,52.05,150.09,36.61,136.64,22.51z M106.35,183.01c0,1.59-1.35,2.89-3,2.89H86.58c-1.65,0-3-1.3-3-2.89
		c0-1.59,1.35-2.89,3-2.89h16.78C105,180.12,106.35,181.42,106.35,183.01z M116.27,147.15c0,1.62-1.35,2.95-3,2.95h-6.32
		c-1.65,0-3,1.32-3,2.93c0,1.61,1.35,2.93,3,2.93h6.32c1.65,0,3,1.35,3,3v0.68c0,1.65-1.35,3-3,3H98.2c-1.65,0-3,1.32-3,2.93
		c0,1.61,1.35,2.93,3,2.93h15.07c1.65,0,3,1.3,3,2.89c0,1.59-1.35,2.89-3,2.89H76.91c-1.65,0-3-1.3-3-2.89c0-1.59,1.35-2.89,3-2.89
		h5.95c1.65,0,3-1.32,3-2.93c0-1.61-1.35-2.93-3-2.93h-5.95c-1.65,0-3-1.35-3-3v-0.68c0-1.65,1.35-3,3-3h14.55c1.65,0,3-1.32,3-2.93
		c0-1.61-1.35-2.93-3-2.93H76.91c-1.65,0-3-1.33-3-2.95c0-1.62,1.35-2.95,3-2.95h36.36C114.92,144.2,116.27,145.53,116.27,147.15z
		 M149.13,68.19c-0.75,23.33-17.73,40.77-22.92,45.56c-8.91,8.22-10.85,20.41-10.85,20.41c-0.26,1.63-1.82,3.01-3.47,3.07
		l-12.74,0.44c-1.65,0.06-3.19,0.11-3.42,0.13c-0.23,0.01-0.5,0.02-0.59,0.02c-0.09,0-1.51-0.05-3.16-0.11l-13.92-0.48
		c-1.65-0.06-3.21-1.44-3.47-3.07c0,0-1.95-12.2-10.85-20.41c-5.19-4.79-22.18-22.22-22.92-45.56
		c-0.46-14.41,5.45-28.15,17.55-40.85c14.68-15.39,33.62-14.7,33.62-14.7c1.65,0.06,3.04,0.11,3.08,0.11s0.12,0,0.17,0
		c0.05,0,1.43-0.05,3.08-0.11c0,0,18.6-0.68,33.27,14.7C143.68,40.03,149.59,53.78,149.13,68.19z"/>
</g>
<g id="Bulb_x5F_Thin">
	<path class="st0" d="M83.04,191.38c-1.1,0-2-0.9-2-2v-5.63c0-2.21-1.79-4-4-4h-5.44c-0.03,0-0.06,0-0.09,0
		c-1.13,0-2.04-0.91-2.04-2.04c0-0.01,0-0.02,0-0.03v-33.04c0-1.68-0.12-4.41-0.28-6.08c-0.05-0.51-1.23-12.5-9.12-19.79
		c-5.62-5.19-24.03-24.11-24.85-49.77c-0.51-16.08,5.95-31.28,19.21-45.18C69.72,7.79,90.16,7.33,92.44,7.33
		c0.93,0.01,5.3,0.01,6.13,0c0,0,0,0,0,0c2.35,0,22.47,0.47,37.75,16.5c13.26,13.9,19.72,29.1,19.21,45.18
		c-0.82,25.66-19.23,44.59-24.85,49.77c-7.87,7.26-8.98,21-9.02,21.59c-0.12,1.67-0.22,4.39-0.22,6.07l0.08,25.46
		c0,1.04,0.01,3.91,0.01,5.88c0,1.09-0.88,1.97-1.97,1.97c-0.01,0-0.02,0-0.03,0h-5.82c-2.21,0-4,1.79-4,4v5.63c0,1.1-0.9,2-2,2
		H83.04z M88.99,179.75c-2.21,0-4,1.74-4,3.89s1.79,3.89,4,3.89h12.78c2.21,0,4-1.74,4-3.89s-1.79-3.89-4-3.89H88.99z M77.32,168.12
		c-2.21,0-4,1.74-4,3.89s1.79,3.89,4,3.89h36.36c2.21,0,4-1.74,4-3.89s-1.79-3.89-4-3.89H98.61c-1.1,0-2-0.86-2-1.93
		s0.9-1.93,2-1.93h15.07c2.21,0,4-1.79,4-4v-0.68c0-2.21-1.79-4-4-4h-6.32c-1.1,0-2-0.86-2-1.93c0-1.06,0.9-1.93,2-1.93h6.32
		c2.21,0,4-1.77,4-3.95s-1.79-3.95-4-3.95H77.32c-2.21,0-4,1.77-4,3.95s1.79,3.95,4,3.95h14.55c1.1,0,2,0.86,2,1.93
		c0,1.06-0.9,1.93-2,1.93H77.32c-2.21,0-4,1.79-4,4v0.68c0,2.21,1.79,4,4,4h5.95c1.1,0,2,0.86,2,1.93s-0.9,1.93-2,1.93H77.32z
		 M92.02,12.27c-3.28,0-20.35,0.72-33.98,15.01c-12.3,12.9-18.3,26.88-17.83,41.57c0.76,23.72,17.98,41.4,23.24,46.26
		C72.01,123,73.98,134.82,74,134.94c0.34,2.12,2.28,3.83,4.42,3.91c0,0,13.8,0.35,19.17,0.43c1.02,0.01,1.73,0.02,1.99,0.01
		l12.74-0.44c2.14-0.07,4.09-1.79,4.42-3.91c0.02-0.12,2.01-11.96,10.54-19.84c5.26-4.85,22.49-22.54,23.24-46.26
		c0.47-14.69-5.53-28.67-17.83-41.57c-13.63-14.29-30.41-15.01-33.63-15.01C98.82,12.27,92.28,12.27,92.02,12.27z"/>
</g>
<g id="Bulb_x5F_Colored">
	<path d="M82.44,192.1c-1.1,0-2-0.9-2-2v-5.63c0-2.21-1.79-4-4-4H71c-0.03,0-0.06,0-0.09,0c-1.13,0-2.04-0.91-2.04-2.04
		c0-0.01,0-0.02,0-0.03v-33.04c0-1.68-0.12-4.41-0.28-6.08c-0.05-0.51-1.23-12.5-9.12-19.79c-5.62-5.19-24.03-24.11-24.85-49.77
		c-0.51-16.08,5.95-31.28,19.21-45.18C69.13,8.52,89.57,8.05,91.85,8.05c0.93,0.01,5.3,0.01,6.13,0c0,0,0,0,0,0
		c2.35,0,22.47,0.47,37.75,16.5c13.26,13.9,19.72,29.1,19.21,45.18c-0.82,25.66-19.23,44.59-24.85,49.77
		c-7.87,7.26-8.98,21-9.02,21.59c-0.12,1.67-0.22,4.39-0.22,6.07l0.08,25.46c0,1.04,0.01,3.91,0.01,5.88c0,1.09-0.88,1.97-1.97,1.97
		c-0.01,0-0.02,0-0.03,0h-5.82c-2.21,0-4,1.79-4,4v5.63c0,1.1-0.9,2-2,2H82.44z"/>
	<path class="st1" d="M77.19,168.32c-2.21,0-4,1.74-4,3.89s1.79,3.89,4,3.89h36.36c2.21,0,4-1.74,4-3.89s-1.79-3.89-4-3.89H98.49
		c-1.1,0-2-0.86-2-1.93s0.9-1.93,2-1.93h15.07c2.21,0,4-1.79,4-4v-0.68c0-2.21-1.79-4-4-4h-6.32c-1.1,0-2-0.86-2-1.93
		c0-1.06,0.9-1.93,2-1.93h6.32c2.21,0,4-1.77,4-3.95s-1.79-3.95-4-3.95H77.19c-2.21,0-4,1.77-4,3.95s1.79,3.95,4,3.95h14.55
		c1.1,0,2,0.86,2,1.93c0,1.06-0.9,1.93-2,1.93H77.19c-2.21,0-4,1.79-4,4v0.68c0,2.21,1.79,4,4,4h5.95c1.1,0,2,0.86,2,1.93
		s-0.9,1.93-2,1.93H77.19z"/>
	<path class="st2" d="M88.4,180.68c-2.21,0-4,1.74-4,3.89s1.79,3.89,4,3.89h12.78c2.21,0,4-1.74,4-3.89s-1.79-3.89-4-3.89H88.4z"/>
	<path class="st3" d="M90.76,12.53c-3.28,0-20.35,0.72-33.98,15.01c-12.3,12.9-18.3,26.88-17.83,41.57
		c0.76,23.72,17.98,41.4,23.24,46.26c8.55,7.89,10.53,19.72,10.54,19.84c0.34,2.12,2.28,3.83,4.42,3.91c0,0,13.8,0.35,19.17,0.43
		c1.02,0.01,1.73,0.02,1.99,0.01l12.74-0.44c2.14-0.07,4.09-1.79,4.42-3.91c0.02-0.12,2.01-11.96,10.54-19.84
		c5.26-4.85,22.49-22.54,23.24-46.26c0.47-14.69-5.53-28.67-17.83-41.57c-13.63-14.29-30.41-15.01-33.63-15.01
		C97.56,12.53,91.03,12.53,90.76,12.53z"/>
	<polygon class="st4" points="114.62,32.19 96.84,32.19 75.94,70.45 91.33,70.45 75.94,110.4 118.29,59.58 99.38,59.15 	"/>
</g>
<g id="Bulb_x5F_Flat">
	<path class="st5" d="M142.87,210.07H66.44C29.75,210.07,0,180.32,0,143.63V66.44C0,29.75,29.75,0,66.44,0h76.43
		c36.7,0,66.44,29.75,66.44,66.44v77.19C209.32,180.32,179.57,210.07,142.87,210.07z"/>
	<path class="st6" d="M131.82,19.99c-10.8-5.55-20.69-5.93-23.16-5.93c-0.28,0-7.34,0-7.63,0c-3.54,0-21.97,0.75-36.69,15.54
		C51.06,42.95,44.59,57.42,45.09,72.63c0.82,24.56,19.42,42.86,25.1,47.89c4.65,4.11,7.5,9.26,9.18,13.37v51.7h9.19v13.94
		l14.84,10.54h39.69c36.7,0,66.44-29.75,66.44-66.44V76.8L131.82,19.99z"/>
	<g id="Bulb">
		<polygon class="st7" points="129.94,131.24 79.37,131.24 79.37,185.59 88.56,185.59 88.56,199.53 120.75,199.53 120.75,185.59 
			129.94,185.59 		"/>
		<path class="st1" d="M86.42,172.91c-2.21,0-4,1.74-4,3.89s1.79,3.89,4,3.89h36.36c2.21,0,4-1.74,4-3.89s-1.79-3.89-4-3.89h-15.07
			c-1.1,0-2-0.86-2-1.93s0.9-1.93,2-1.93h15.07c2.21,0,4-1.79,4-4v-0.68c0-2.21-1.79-4-4-4h-6.32c-1.1,0-2-0.86-2-1.93
			c0-1.06,0.9-1.93,2-1.93h6.32c2.21,0,4-1.77,4-3.95s-1.79-3.95-4-3.95H86.42c-2.21,0-4,1.77-4,3.95s1.79,3.95,4,3.95h14.55
			c1.1,0,2,0.86,2,1.93c0,1.06-0.9,1.93-2,1.93H86.42c-2.21,0-4,1.79-4,4v0.68c0,2.21,1.79,4,4,4h5.95c1.1,0,2,0.86,2,1.93
			s-0.9,1.93-2,1.93H86.42z"/>
		<path class="st2" d="M98.27,186.68c-2.21,0-4,1.74-4,3.89s1.79,3.89,4,3.89h12.78c2.21,0,4-1.74,4-3.89s-1.79-3.89-4-3.89H98.27z"
			/>
		<radialGradient id="SVGID_1_" cx="104.6586" cy="79.8059" r="62.7491" gradientUnits="userSpaceOnUse">
			<stop  offset="0.133" style="stop-color:#FBCE3B"/>
			<stop  offset="1" style="stop-color:#FF931E"/>
		</radialGradient>
		<path class="st8" d="M101.03,14.05c-3.54,0-21.97,0.75-36.69,15.54C51.06,42.95,44.59,57.42,45.09,72.63
			c0.82,24.56,19.42,42.86,25.1,47.89c9.24,8.17,11.37,20.41,11.39,20.54c0.36,2.19,2.46,3.97,4.78,4.05c0,0,14.91,0.36,20.7,0.44
			c1.1,0.02,1.87,0.02,2.15,0.01l13.75-0.45c2.31-0.08,4.41-1.85,4.78-4.05c0.02-0.12,2.17-12.38,11.39-20.54
			c5.68-5.03,24.28-23.33,25.1-47.89c0.51-15.2-5.97-29.68-19.25-43.03c-14.72-14.79-32.84-15.54-36.32-15.54
			C108.38,14.05,101.32,14.05,101.03,14.05z"/>
		<polygon class="st9" points="126.56,34.84 105.88,34.84 81.59,79.31 99.48,79.31 81.59,125.75 130.82,66.67 108.83,66.18 		"/>
		<polygon class="st4" points="93.13,73.54 110.86,40.72 105.88,34.84 81.59,79.31 		"/>
		<polygon class="st4" points="126.56,34.84 110.86,40.72 105.88,34.84 		"/>
		<polygon class="st10" points="116.22,75.29 130.82,66.67 81.59,125.75 100.9,94.55 		"/>
	</g>
</g>
</svg>
