<?xml version="1.0" encoding="utf-8"?>
<!-- Generator: Adobe Illustrator 16.0.4, SVG Export Plug-In . SVG Version: 6.00 Build 0)  -->
<!DOCTYPE svg PUBLIC "-//W3C//DTD SVG 1.1//EN" "http://www.w3.org/Graphics/SVG/1.1/DTD/svg11.dtd">
<svg version="1.1" xmlns="http://www.w3.org/2000/svg" xmlns:xlink="http://www.w3.org/1999/xlink" x="0px" y="0px"
	 width="841.89px" height="595.28px" viewBox="0 0 841.89 595.28" enable-background="new 0 0 841.89 595.28" xml:space="preserve">
<g id="F1" display="none">
	<path display="inline" fill="#8C411D" d="M17.727-28.589c-0.283-12.078-5.511-22.942-3.056-34.954
		c2.09,1.401-7.14-12.305-7.379-12.854c-4.863-11.179-2.801-20.11,2.73-30.493c-2.459-1.72-19.66,15.3-22.575,17.796
		c2.758-0.334,5.516-0.668,8.274-1.004c-2.655,5.414-1.708,16.558-6.822,19.817c-11.991,7.639-4.4,6.18-5.342,7.468
		c9.89,1.225,3.891,29.767-0.61,35.932c-8.098,11.093-3.312,10.828-6.029,23.996c-2.228,10.795,8.979,26.71,19.541,29.138
		c10.743,2.47,18.766-6.67,24-14.667C27.728,0.478,18.021-16.013,17.727-28.589z"/>
	<path display="inline" fill="#8C411D" d="M6.278-127.982c4.366-3.684,5.679,1.76,7.536,5.667c-0.235-0.648,0.995,1.015,0.602,1.158
		c2.223-0.807,0.611-29.518-12.921-15.261C-2.207-132.519,1.528-123.974,6.278-127.982z"/>
	<path display="inline" fill="#B15626" d="M14.592-28.07C4.619-30.841,4.54-31.544,4.446-42.188
		c-0.059-7.107,9.687-0.766,7.465-10.836c-2.117-9.573,4.3-18.151-9.298-21.92c1.711,10.709-5.309-4.696-7.564-7.227
		c-2.393,7.02-6.373,9.535-8.905,15.392c-2.938,6.794,2.46,19.281,3.618,26.283c1.944,11.757-14.59,17.797-11.153,27.454
		c1.933,5.431-0.939,10.12,0.66,16.76c2.013,8.359,5.282,15.465,13.257,19.323C9.218,31.114,20.243,11.994,18.116-2.141
		C21.46-2.027,15.138-23.99,14.592-28.07z"/>
	<path display="inline" fill-rule="evenodd" clip-rule="evenodd" fill="#B15626" d="M9.6-137.281
		c-2.339,5.813-5.103,7.478-8.29,4.994C1.428-132.548,8.081-144.861,9.6-137.281C7.367-135.313,9.485-137.852,9.6-137.281z"/>
	<path display="inline" fill-rule="evenodd" clip-rule="evenodd" fill="#E79324" d="M15.821-3.25
		c1.334-6.982-1.218-16.202-3.01-23.491c-1.742,2.14-3.484,4.28-5.227,6.419c-3.083-0.688-3.15-3.108-0.201-7.26
		c-9.55,2.77-4.142-6.644-4.312-13.418c-0.211-8.351,9.842-3.307,7.967-11.349c-1.531-6.562,2.566-13.986-3.884-18.932
		c-6.823,6.754-6.172-1.705-10.498-4.375C-12.15-62.062-13.479-63.04-9.615-45.362c3.078,14.082-13.45,23.802-9.501,34.243
		c2.022,5.344-4.697,9.291,0.545,14.487c0.517,7.36,3.426,16.161,10.953,19.167C6.449,28.155,23.551,10.175,15.821-3.25z"/>
	<path display="inline" fill-rule="evenodd" clip-rule="evenodd" fill="#F4D71C" d="M10.155,3.752
		C8.24,1.797,0.391-5.829-2.178-14.915c-1.947-6.883-0.847-13.732,0.059-18.459c1.939-3.863,3.39-9.864,4.762-12.491
		c1.153-2.208,3.961-2.484,5.504-4.415c7.445-9.313,1.972-16.201-7.899-13.574c-8.372-3.146-12.44,3.699-11.252,8.479
		c0.476-2.376,3.462,3.483,5.461,2.043C-5-52.289-8.24-38.829-7.748-32.644c-4.737,12.916-10.647,44.984-3.734,45.891
		c2.503,0.328,8.016,14.534,17.646,7.256C10.703,17.072,15.058,8.755,10.155,3.752z"/>
	<path display="inline" fill-rule="evenodd" clip-rule="evenodd" fill="#FAF070" d="M-10.314,7.938
		c4.852,15.379,12.405,8.715,18.042-0.125C5.237,5.408-14.812-6.301-10.314,7.938z"/>
	<path display="inline" fill-rule="evenodd" clip-rule="evenodd" fill="#FAF070" d="M-3.779-36.606
		c-7.529-0.91,6.469-15.72,1.82-18.033c-11.553-5.748-8.547-6.633,1.857-6.832c3.506-0.067,14.941,1.514,8.477,6.722
		C1.978-49.596-3.312-36.754-3.779-36.606z"/>
</g>
<g id="F2" display="none">
	<path display="inline" fill="#8C411D" d="M15.03-32.965c-3.643-8.104-6.494-16.497-8.467-25.162
		c-0.544-2.392,5.128-7.438,3.905-8.341c-10.059-7.426-3.836-9.711,0.354-17.251c4.235-7.618-0.611-22.579-11.609-19.758
		c-7.046,1.807-18.429,11.123-17.417,19.39c0.648,5.296,8.534,6.966,6.772,13.135c-1.905,1.908-3.519,4.024-4.841,6.348
		c1.713,4.668,5.326,3.653,4.832,13.304c-0.218,4.261-2.624,11.749-2.624,15.82c-0.125,0.007-0.204-0.072-0.254-0.188
		c-1.331-0.944-2.506-2.058-3.513-3.355C-40.426-9.663-4.006,58.833,20.24,9.986C27.553-4.746,21.607-18.332,15.03-32.965z"/>
	<path display="inline" fill-rule="evenodd" clip-rule="evenodd" fill="#8C411D" d="M-0.027-119.677
		c2.934,7.458,0.496,10.733-6.197,9.53C-4.02-113.539-2.023-116.607-0.027-119.677z"/>
	<path display="inline" fill-rule="evenodd" clip-rule="evenodd" fill="#B15626" d="M19.133-18.282
		c3.515-4.826-13.25-27.982-15.982-32.542c-1.03,0.6,0.357-18.969,0.591-22.262c-3.424,1.573-6.848,3.147-10.272,4.721
		c-0.782-3.986-2.653-18.161,3.807-7.109c4.479-5.07,15.839-11.459,12.658-19.385c-4.908-12.23-13.561-6.305-16.412,2.65
		c-5.549-4.445-7.618-3.962-9.644,2.902c-2.766,9.328,2.424,4.917,5.806,11.12c1.607,2.947,0.645,18.822,0.999,22.027
		c0.983,8.92,0.04,15.805-4.49,23.457c-1.304-1.191-1.767-1.613-3.911-3.572c-5.912,7.42,10.986,11.823-1.117,17.769
		c-4.184,2.056-3.74,8.909-3.298,12.752C-20.865,5.283-6.278,33.42,10.601,21.755c8.8-6.094,4.542-13.625,10.642-19.94
		C28.333-5.535,13.438-10.456,19.133-18.282z"/>
	<path display="inline" fill-rule="evenodd" clip-rule="evenodd" fill="#E79324" d="M-15.714-83.343
		c-3.247-7.356,3.336-14.209,8.752-4.945c7.593-21.274,23.837-5.245,5.408,8.955C-4.584-79.977-14.938-81.584-15.714-83.343z"/>
	<path display="inline" fill-rule="evenodd" clip-rule="evenodd" fill="#E79324" d="M18.887-9.179
		C12.922-19.01,6.014-47.871,1.371-49.667c0.731-4.38,5.552-22.833-9.537-16.855c-0.389,0.154,1.011,14.823-0.618,24.088
		c-0.842,4.801-2.625,9.228-5.346,13.279c1.779,2.94,2.289,6.036,1.529,9.289c-4.166,7.21-7.925,2.021-8.098,12.184
		c-0.101,5.904,4.19,9.173,4.551,14.896C-14.163,38.658,32.92,13.942,18.887-9.179C17.632-11.247,21.336-5.144,18.887-9.179z"/>
	<path display="inline" fill-rule="evenodd" clip-rule="evenodd" fill="#F4D71C" d="M9.251,0.015
		c-5.175-7.162-8.242-6.29-8.96-16.06c3.359-8.72,4.482-14.04,4.37-17.366c2.047-5.451-5.199-11.49-4.475-18.198
		c0.63-5.841,3.164-10.871-4.598-11.43C-7.116-55.018-0.207-32.167-5.5-25c2.836,7.466-8.952,8.63-6.833,15.5
		C-9.932-1.725-8.565-1.061-11.5,3.25c-5.619,8.251,4.442,19.168,14.25,17.25C12.264,16.383,13.533,5.941,9.251,0.015z"/>
	<path display="inline" fill-rule="evenodd" clip-rule="evenodd" fill="#F4D71C" d="M3.669-93.25
		c6.488,6.513-9.308,13.917-8.727,8.645C-4.721-87.656-2.632-99.575,3.669-93.25z"/>
	<path display="inline" fill-rule="evenodd" clip-rule="evenodd" fill="#FAF070" d="M-0.207-60.17
		c-0.289,4.798-0.518,8.563-0.792,13.114C-5.213-52.401-5.041-55.778-0.207-60.17z"/>
	<path display="inline" fill-rule="evenodd" clip-rule="evenodd" fill="#FAF070" d="M-6.123,7.586
		C-8.04,8.318-3.91,17.841-2.012,19.068c3.865,2.499,4.415-8.819,9.495-9.212C13.63,9.379-6.123-17.112-6.123,7.586
		C-6.445,7.709-6.123,6.59-6.123,7.586z"/>
	<path display="inline" fill-rule="evenodd" clip-rule="evenodd" fill="#FAF070" d="M2.584-36.276
		c-3.579-0.555-4.422-2.02-2.529-4.396C3.784-39.833,4.627-38.368,2.584-36.276C1.393-36.935,2.943-36.892,2.584-36.276z"/>
</g>
<g id="F3" display="none">
	<path display="inline" fill="#8C411D" d="M22.117-24.674c-0.202-4.536-18.22-44.219-7.074-38.528
		C2.421-69.636,7.421-85.419-1.249-93.62c-18.894-17.871,0.287,23.53-11.404,26.705c0.99-0.268,2.015-0.545-0.003,0.001
		c0.062-0.017,4.928,11.739,4.466,16.777c-0.828,9.028-7.582,0.042-1.978,11.032c3.354,6.577,4.832,10.492-0.47,16.667
		c2.657-7.707,0.664-12.506-7.281-14.525c-1.566,15.128-4.151,25.817-2.289,42.085c1.364,11.91,20.835,30.461,32.385,18.306
		C24.288,10.683,22.842-8.406,22.117-24.674z"/>
	<path display="inline" fill-rule="evenodd" clip-rule="evenodd" fill="#8C411D" d="M-6.391-128.08
		c0.611,0.468-3.123,25.028-10.851,13.179C-14.452-119.3-9.763-130.654-6.391-128.08z"/>
	<path display="inline" fill-rule="evenodd" clip-rule="evenodd" fill="#8C411D" d="M15.451-125.933
		c-4.389,1.831-7.568,3.157-11.095,4.629C5.167-127.117,8.431-128.667,15.451-125.933z"/>
	<path display="inline" fill="#B15626" d="M19.998-6.229c0.019,0.11,0.044,0.25,0.072,0.412c-0.893-5.105,2.558-21.397-1.774-24.209
		c-6.288-4.081-8.792,0.11-6.213-10.458c2.235-9.16-4.67-24.303-8.198-32.656C-1.376-85.604,5.672-91.888-9.473-97.578
		C-13.141-85.852-1.235-55.046-8.625-43.5c-4,6.25,13.912,12.985-4.625,23.75c2.42-4.027,2.594-10.576-1.667-13.942
		c-7.534,15.221-12.42,45.271,7.03,55.943C9.749,36.509,22.392,7.455,20.07-5.816C20.039-5.995,20.016-6.125,19.998-6.229z"/>
	<path display="inline" fill-rule="evenodd" clip-rule="evenodd" fill="#E79324" d="M18-7.141c-3.057-8.036,3.984-14.86-1.868-22.02
		c1.874,4.883,1.109,7.793-2.296,8.729c-3.345-5.24-5.278-11.402-3.274-17.727c2.789-8.804-2.67-17.627-5.575-25.595
		C0.224-76.818,4.9-90.337-9.281-96.012c1.156,14.637,1.136,37.716,2.274,52.779c0.46,6.092,6.721,15.355,1.902,20.838
		C-20.5-4.875-13.75-39.375-18.362-20.77c-3.175,11.395-2.325,44.26,16.725,44.472C11.977,23.854,22.896,5.737,18-7.141
		C17.102-9.501,20.125-1.553,18-7.141z"/>
	<path display="inline" fill="#F4D71C" d="M10.5-13c-0.784-1.128-0.409-5.87-2-9.625c0.216-6.861,2.266-14.995-5.628-17.25
		c0.006-3.853-1.346-7.743,7.628-3.484C9.675-50.682-2.135-59.564-1.17-64.429c1.384-6.977-1.688-23.674-3.502-24.907
		C-12-50.125,11.5-7.375-10.808-15.301c-14.521-5.159-1.978,25.007-1.447,28.66c2.158,14.835,17.278,8.51,21.38,2.142
		c4.062-6.303,3.343-4.548,4.761-6.75C19.784-0.401,15.577-5.693,10.5-13z"/>
	<path display="inline" fill-rule="evenodd" clip-rule="evenodd" fill="#FAF070" d="M-7.503,7.874
		C-7.75,21.204,3.426,22.496,3.739,6.682C4.058-9.257-7.296-3.317-7.503,7.874C-7.641,15.307-7.36,0.174-7.503,7.874z"/>
	<path display="inline" fill-rule="evenodd" clip-rule="evenodd" fill="#FAF070" d="M-5.104-67.879
		c-0.613-0.06,8.591,15.84,8.85,17.004c1.37,6.148-1.244,4.926-5.644,5.945C-1.898-52.69-5.104-60.229-5.104-67.879z"/>
	<path display="inline" fill-rule="evenodd" clip-rule="evenodd" fill="#FAF070" d="M2.872-16.409
		c0.672-7.053,1.219-12.797,1.833-19.241C9.167-29.319,8.722-21.499,2.872-16.409z"/>
</g>
<g id="F4" display="none">
	<path display="inline" fill-rule="evenodd" clip-rule="evenodd" fill="#8C411D" d="M23.781-41.147
		c-1.906-1.593-8.586,2.768-10.286,3.903c-1.192-10.741-1.333-17.382-0.501-28.152c9.363,11.43-5.912-29.114-7.812-33.343
		c-4.934-10.973-4.592-28.987-15-36.61c-2.116,4.775-1.193,7.702,2.096,12.2c6.273,8.583-2.374,9.677-2.658,17.1
		c-0.408,10.698-2.54,26.467,6.264,37.281c-2.432,0.289-4.868,0.342-7.306,0.16c0.553,3.757,7.251,3.165,5.634,8.947
		c-1.103,3.944-7.033,8.687-9.657,11.65C-5.196-41.279-2.367-52.13,1.07-59.37c1.441,12.203-15.573,17.29-13.812,33.863
		c-3.382-3.111-6.716-4.837-11.039-6.41C-22.463-13.761-23.785,25.9,3.773,24.85C17.882,24.312,22.822,4.735,23.008-6.543
		C23.257-21.599,15.359-26.454,23.781-41.147z"/>
	<path display="inline" fill-rule="evenodd" clip-rule="evenodd" fill="#8C411D" d="M19.605-55.122
		c4.16,4.696,3.334,3.585,0.251,7.713C18.349-49.448,16.023-51.499,19.605-55.122z"/>
	<path display="inline" fill-rule="evenodd" clip-rule="evenodd" fill="#B15626" d="M-3.431-104.098
		c4.643,1.954,7.602,6.341,4.855,11.721C-1.018-95.704-5.3-98.964-3.431-104.098z"/>
	<path display="inline" fill="#B15626" d="M17.486-20.654c-0.046-0.084-0.072-0.132-0.087-0.16
		C17.415-20.785,17.444-20.731,17.486-20.654C5.362-43,20.457-75.506-5.905-94.277c-2.706,4.41-3.194,10.294-2.156,15.497
		c2.114,2.16,3.567,4.653,4.36,7.481c0.373,5.235-1.871,10.199-1.871,15.493c3.624,0.6,4.215-6.678,5.165-9.449
		c6.755,14.676-11.896,26.849-10.886,42.671c-3.424-2.257-6.848-4.515-10.272-6.771c-3.523,3.3,2.609,21.362,2.421,27.248
		c-0.369,11.433,4.876,19.064,15.16,23.963C18.59,32.837,24.464-7.792,17.486-20.654z"/>
	<path display="inline" fill-rule="evenodd" clip-rule="evenodd" fill="#E79324" d="M19.761-11.13
		C15.828-23.678,9.049-33.987,9.229-45.697c0.303-19.577,2.956-33.867-15.558-45.972c-5.726,15.755,15.509,28.96,5.025,44.297
		c-2.163,2.827-4.379,5.612-6.649,8.354c3.769,3.835,2.05,6.038-2.332,8.12c6.106,12.046-3.708,10.588-10.403,3.351
		c-3.941,4.905,4.017,37.692,9.586,42.795C8.334,33.058,26.027,8.899,19.761-11.13C18.295-15.807,20.097-10.058,19.761-11.13z"/>
	<path display="inline" fill-rule="evenodd" clip-rule="evenodd" fill="#F4D71C" d="M11.336,1.526c-0.467-0.625-1.565-2.402-3-4.586
		c6.233-4.769,8.675-9.374,6.201-17.196c-1.413,1.511-2.875,3.549-4.137,5.761c1.52-10.446-0.375-24.951-0.859-32.147
		C8.264-65.649,5.957-75.075,3.248-79.249S-7.341-95.873-6.919-85.166c0.296,7.512,16.391,29.926,6.148,40.177
		c-4.857,4.862,1.181,4.71,2.786,7.736c1.628,3.069-2.292,9.554-2.836,16.807c-3.681,7.798-9.488,4.578-12.929,1.363
		c-1.338-2.89-3.981-2.593-4.869-3.901c-4.413,3.261,9.541,14.818,9.075,21.287c0.001,0,0.002-0.001,0.003-0.002
		c-0.827,2.805-1.595,5.588-2.144,8.057c-2.022,9.09,14.203,18.111,20.157,10.26c1.302-1.715,0.399-0.525,0.005-0.007
		c2.12-2.701,4.286-5.366,6.495-7.994c-3.235,0-6.47,0-9.706,0C5.536,3.395,5.856,1.47,11.336,1.526z"/>
	<path display="inline" fill-rule="evenodd" clip-rule="evenodd" fill="#FAF070" d="M6.488-53.413
		C2.159-64.384-3.601-74.222-6.238-85.77C3.389-81.784,10.234-63.916,6.488-53.413z"/>
	<path display="inline" fill-rule="evenodd" clip-rule="evenodd" fill="#FAF070" d="M-7.86,13.112
		c1.818-2.169,7.155,2.708,10.047,3.728c1.57-3.692,0.686-6.76-2.652-9.202c2.7-1.96,7.98-14.67,1.407-13.577
		C-7.965-4.457-12.124,5.423-7.86,13.112C-7.542,12.732-11.611,6.347-7.86,13.112z"/>
	<path display="inline" fill-rule="evenodd" clip-rule="evenodd" fill="#FAF070" d="M6.91-43.552
		C10.422-37.336,6.31-16.56,4.106-11.25C7.53-19.5,0.362-39.596,6.91-43.552z"/>
</g>
<g id="F5" display="none">
	<path display="inline" fill="#8C411D" d="M21.014-3.237c-0.346-9.043-0.167-18.022-4.593-26.047
		c-5.289-9.59,2.461-28.177-8.821-29.477c4.779-5.687,4.902-5.31,12.079-3.147c-7.198-18.682-8.512-39.45-15.174-59.239
		c-3.403,2.57-2.785,10.76-8.957,6.816C-7.121-97.37,1.183-101.763,5.95-87.004c1.645,5.09-2.313,26.443-11.349,20.368
		c0.885,0.596,1.352,0.91-0.003-0.002c-1.688-1.137-2.39-1.609-2.533-1.706c0.237,0.16,1.608,1.083,2.533,1.705
		c-1.526-2.503-2.887-3.091-4.082-1.763c4.165,9.762,9.703,28.587-1.291,34.51c-2.247-5.308-0.973-9.145-7.673-10.212
		c-9.676-1.539,1.772,10.209,0.264,13.983c-2.885,7.216,1.167,10.986,0.192,16.599c-3.368,6.611-2.941,20.07,0.517,26.764
		c4.379,8.475,15.859,12.758,24.692,10.242C18.829,20.177,21.447,8.066,21.014-3.237z"/>
	<path display="inline" fill="#B15626" d="M18.8-22.282C18.865-22.193,18.875-22.179,18.8-22.282
		c-0.001-0.002-0.002-0.003-0.003-0.005c-5.66-7.783-14.085-33.079-9.62-40.757c9.268-15.95-1.405-34.121-10.385-48.551
		c-8.515,6.768,5.414,17.117,9.234,23.258c5.243,8.428-6.014,18.342-10.156,24.729c-4.991,7.699-1.668,17.413-3.72,26.745
		c-1.611,7.32-15.647,3.652-14.018,14.83c1.419,2.156,2.69,4.396,3.814,6.719c0.286,4.966-3.021,9.465-2.446,14.965
		c0.708,6.778,3.895,19.476,11.615,21.423c10.305,2.599,18.895,1.502,23.379-9.232C18.64,6.704,22.259-17.525,18.8-22.282z"/>
	<path display="inline" fill-rule="evenodd" clip-rule="evenodd" fill="#E79324" d="M-2.788-108.815
		c4.841,5.336,10.117,9.842,10.887,17.438C5.009-94.393-4.192-105.014-2.788-108.815z"/>
	<path display="inline" fill-rule="evenodd" clip-rule="evenodd" fill="#E79324" d="M12.133-13.36
		c-0.994-0.343-1.988-0.686-2.982-1.029c-3.228-3.106,9.027-4.05,9.736-4.339c-2.696-4.75-5.364-8.567-7.402-13.806
		c-1.519-3.907-0.192-20.832-2.906-22.37c-6.859-3.887,4.237-13.088,0.958-21.229C3.258-71.836,1.126-65.821-3.753-60.28
		c-3.152,3.581,1.94,9.788,1.505,14.388c-0.698,7.383-5.547,26.167-12.151,14.589c-4.761,12.62-3.772,25.065,1.124,38.772
		c1.633,4.571,17.103,25.554,23.399,12.961C18.359,17.315,20.258-16.908,12.133-13.36C11.388-13.036,15.939-15.022,12.133-13.36z"/>
	<path display="inline" fill-rule="evenodd" clip-rule="evenodd" fill="#F4D71C" d="M5.938,6.76c-2.057-1.578-1.551-3.5,1.519-5.765
		c-0.429-2.01-2.192-4.964-4.246-8.056c3.512-5.805,12.689-18.763,7.88-22.892c-3.929-3.372-2.259-8.794-2.046-13.151
		c0.334-6.834-6.906-13.992-2.953-19.94c3.476-5.225,5.874-2.041,3.545-9.686C0.94-67.095-6.878-53.002-0.486-42.73
		C7.877-29.29-11.02-31.788-7.159-20.934c-12.385-5.933-8.678,4.281-5.185,12.796c2.678,0.39,4.215,0.422,5.103,0.237
		C-4.7-5.496-17.409,8.27-9.835,15.625c6.026,5.852,15.74,6.519,20.692-1.461C14.466,8.353,9.636,8.574,5.938,6.76z"/>
	<path display="inline" fill-rule="evenodd" clip-rule="evenodd" fill="#F4D71C" d="M13.064-3.703
		c0.845,0.166,1.667,0.414,2.465,0.744c-0.03,5.405-1.648,6.996-4.855,4.771C11.436-0.042,12.267-1.864,13.064-3.703z"/>
	<path display="inline" fill-rule="evenodd" clip-rule="evenodd" fill="#FAF070" d="M10.149-69.892
		c-2.628,8.283-9.321,8.608-3.925,18.05c4.545,7.951,0.622,20.215-5.368,26.311c0.818-10.701,0.657-17.142-2.339-27.61
		C-3.101-58.807,5.458-71.5,10.149-69.892C9.521-67.912,9.306-70.181,10.149-69.892z"/>
	<path display="inline" fill-rule="evenodd" clip-rule="evenodd" fill="#FAF070" d="M-7.376,3.006
		C-13.05,3.69-8.766,13.61-5.606,15.963C-3.106,10.772-5.15,8.353-7.376,3.006C-8.009,3.083-6.139,5.979-7.376,3.006z"/>
	<path display="inline" fill-rule="evenodd" clip-rule="evenodd" fill="#FAF070" d="M6.273,13.993
		c3.497,1.715,5.667-2.396,2.346-4.12C7.837,11.246,7.055,12.619,6.273,13.993C6.944,14.322,7.055,12.619,6.273,13.993z"/>
	<path display="inline" fill-rule="evenodd" clip-rule="evenodd" fill="#FAF070" d="M-11.378-10.754
		C-18.557-30.329-3.667-10.904-11.378-10.754C-12.427-13.616-10.774-10.766-11.378-10.754z"/>
	<path display="inline" fill-rule="evenodd" clip-rule="evenodd" fill="#FAF070" d="M7.598-27.943
		c4.044,3.042,3.525,6.215-1.556,9.518C4.309-20.679,1.807-24.995,7.598-27.943z"/>
</g>
<g id="F6" display="none">
	<path display="inline" fill-rule="evenodd" clip-rule="evenodd" fill="#8C411D" d="M15.424-48.44
		c-2.211-7.741-8.072-21.707,4.963-12.721c-2.354-1.623-0.599-2.104,0,0c-2.172-7.625-8.947-12.056-7.471-21.276
		c1.274-7.96,15.03-12.036,6.987-22.034C18.682-105.989-7.296-76.89-0.662-64.831c-7.515-3.655-8.057,7.42-6.333,13.961
		c2.9,11.008-10.489,6.896-5.518,17.292c2.168,4.535,0.869,8.083-3.239,10.833c-4.912,3.29-2.753,12.044-2.619,16.675
		c0.25,8.693-3.045,18.296,4.542,24.985c9.032,7.964,24.27,6.686,31.569-2.838c7.029-9.171,3.721-18.833,1.499-28.921
		C16.607-24.787,19.003-35.913,15.424-48.44z"/>
	<path display="inline" fill="#B15626" d="M20.375,2.986c-2.745-18.716-3.438-35.475-8.009-53.71
		c-2.492-9.939-1.851-17.756-1.895-27.912c-0.038-8.676,12.285-14.585,8.053-22.625C10.086-92.516-9.096-78.858,0.846-64.388
		c-14.799,4.341,2.388,16.884-6.674,21.449c-8.644,4.354-6.938,3.644-5.074,12.705c1.367,6.647-8.043,10.922-6.659,19.63
		c1.867,11.741-3.544,25.223,10.139,31.412C3.564,25.777,22.451,17.116,20.38,3.021C20.002,0.445,20.175,1.624,20.375,2.986z"/>
	<path display="inline" fill-rule="evenodd" clip-rule="evenodd" fill="#E79324" d="M19.523,3.783
		c-1.212-8.352-2.729-16.632-3.591-25.024c-0.774-2.94-2.061-5.644-3.858-8.11c-0.85-4.92,2.617-8.447,1.353-13.642
		c-2.566-10.531-4.504-19.494-4.391-30.45c0.103-9.885,5.244-13.991,8.208-22.398C14.551-97.51,4.213-84.915,2.379-82.397
		c-3.573,4.907-3.734,10.661-1.495,16.174c2.501,6.156-4.535,2.381-6.371,6.393c-2.101,4.59,8.838,17.65-0.071,18.307
		c-14.803,1.085-0.171,9.375-5.211,16.138c-9.067,12.167-4.917,24.65-2.206,39.216C-10.309,28.156,21.885,20.046,19.523,3.783
		C18.541-2.986,19.652,4.671,19.523,3.783z"/>
	<path display="inline" fill="#F4D71C" d="M14.545-1.651c-0.302,3.747-2.147,6.319-5.538,7.715
		C7.246,1.639,4.417-9.808,8.059-22.972c6.375-7.892,3.925-24.943-0.567-37.255c-2.604-7.135-7.643,3.017-7.762,3.315
		c-2.204,5.491-0.161,13.729-0.161,19.598c-18.919-8.691-4.981,8.865-8.841,15.215c-3.239,5.328,2.383,8.775,3.767,15.46
		c-2.49,4.387-4.423,8.341-5.006,10.48c-2.026,7.434,1.245,15.868,10.306,16.529c1.185-3.659,3.554-6.467,2.707-10.235
		c2.375,3.141,5.06,7.861-0.698,10.263C11.644,20.082,17.211,6.919,14.545-1.651z"/>
	<path display="inline" fill-rule="evenodd" clip-rule="evenodd" fill="#F4D71C" d="M11.262-88.683
		c-1.764,3.321-6.231,21.838-6.664,21.862C-3.868-66.358,6.4-86.876,11.262-88.683C9.746-85.828,9.753-88.122,11.262-88.683z"/>
	<path display="inline" fill-rule="evenodd" clip-rule="evenodd" fill="#FAF070" d="M0.629,13.417
		c0.848-34.791-18.86,5.375-2.368,3.38C-0.372,16.632-0.117,13.883,0.629,13.417z"/>
	<path display="inline" fill-rule="evenodd" clip-rule="evenodd" fill="#FAF070" d="M12.065,12.801
		C7.424,2.439,2.304,17.821,12.065,12.801C11.784,12.173,10.765,13.47,12.065,12.801z"/>
	<path display="inline" fill-rule="evenodd" clip-rule="evenodd" fill="#FAF070" d="M8.75-32.045
		C6.396-40.106-4.78-54.759,4.716-60.652C6.714-54.518,15.845-37.686,8.75-32.045z"/>
	<path display="inline" fill-rule="evenodd" clip-rule="evenodd" fill="#FAF070" d="M-6.197-37.696
		c7.918,1.189,7.157,17.785,2.547,17.864C-5.242-24.941-11.615-38.514-6.197-37.696z"/>
</g>
<g id="F7" display="none">
	<path display="inline" fill-rule="evenodd" clip-rule="evenodd" fill="#8C411D" d="M24.306-19.686
		c-2.175,0.935-4.332-2.313-6.604-1.646c1.061-15.636-2.534-30.354-3.27-44.354c1.589,1.58,2.904,1.68,3.945,0.301
		c-0.333-4.601-6.609-6.249-7.082-11.775C10.563-85.708,6.523-90.793,5-91.831c-10.445,8.013-14.557,8.937-7.253,23.333
		C2.079-59.96-14.827-57.78-14.818-49.126c0.004,4.258,7.1,5.646,4.613,9.962c-5.672,5.691-3.949,21.248-4.154,28.3
		c-0.276,9.497-7.106,18.578-0.197,27.13c7.274,9.004,18.543,9.283,28.462,4.665C30.376,13.263,21.669-5.962,24.306-19.686z"/>
	<path display="inline" fill-rule="evenodd" clip-rule="evenodd" fill="#8C411D" d="M8.635-103.736
		c3.57-2.756,7.14-5.513,10.709-8.27C18.98-108.581,12.61-98.013,8.635-103.736C11.95-106.295,8.954-103.277,8.635-103.736z"/>
	<path display="inline" fill="#B15626" d="M22.846-17.347c-2.429-0.622-4.531,0.319-6.305,2.824
		C14.2-27.171,13.63-47.852,13.397-60.657c-0.153-8.417-3.667-8.645-4.462-17.77c-1.163-13.354-2.266-9.737-7.61-7.433
		C-8.218-81.745,0.85-69.827,0-65.165c-0.957,5.252-7.519,8.285-11.132,11.448c-8.035,7.032,6.128,7.762,1.931,15.101
		c-5.961,10.42-1.275,19.594-3.716,29.54c-2.338,9.523-7.864,22.838,4.08,28.811c7.167,4.098,21.854,4.327,27.014-3.689
		C24.943,5.532,16.718-8.491,22.846-17.347z"/>
	<path display="inline" fill-rule="evenodd" clip-rule="evenodd" fill="#E79324" d="M10.579-5.337
		c4.234,2.252,4.816,4.223,1.745,5.913C7.68-1.592,7.098-3.562,10.579-5.337C11.753-3.899,9.87-4.723,10.579-5.337z"/>
	<path display="inline" fill-rule="evenodd" clip-rule="evenodd" fill="#E79324" d="M19.065-8.545
		c0.801-2.368-0.367-4.837,0.435-7.205C8.977-3.625,13.606-30.409,12.908-38.085c-1.473-16.199-3.199-32.063-5.82-48.115
		c-20.485,5.748,3.916,16.67-12.122,28.776c-13.036,9.84-2.867,5.398-1.924,14.945c0.66,6.68-5.758,16.616-5.541,24.582
		c0.425,15.555-10.212,34.46,10.646,38.208C20.687,24.359,19.048,6.698,19.065-8.545C19.067-10.862,19.062-6.011,19.065-8.545z"/>
	<path display="inline" fill-rule="evenodd" clip-rule="evenodd" fill="#F4D71C" d="M5.689-12.182
		c3.351-3.115,1.644-14.186,1.964-20.637c7.75-0.718,3.201-34.812,0.849-41.492c-5.536-15.717-9.846-3.783-5.24,7.458
		c2.977,7.269-4.568,7.475-8.951,11.52c-6.751,6.23,0.61,5.272,1.022,10.277c0.375,4.568-8.699,27.321-6.256,29.622
		c3.188-0.928,5.512,1.783,8.03,3.703c-0.983,3.713-0.83,9.713-5.62,11.272c-8.925,2.904-2.828,16.451,6.259,18.792
		c14.001,0,14.726-1.537,18.559-15.475c0.065-0.236,0.193-0.703,0.414-1.507C17.793-2.554,7.362-4.182,5.689-12.182z"/>
	<path display="inline" fill-rule="evenodd" clip-rule="evenodd" fill="#FAF070" d="M6.07-62.333
		C3.748-73.881,1.894-68.92,3.338-80.538c5.829,7.204,6.393,24.073,5.004,33.63C7.568-41.579,2.866-59.131,6.07-62.333z"/>
	<path display="inline" fill-rule="evenodd" clip-rule="evenodd" fill="#FAF070" d="M-9.629,9.106
		c0.609,8.01,11.635,8.288,12.223,0.029C3.2,0.601-9.373,1.386-9.629,9.106C-9.374,12.459-9.506,5.391-9.629,9.106z"/>
	<path display="inline" fill-rule="evenodd" clip-rule="evenodd" fill="#FAF070" d="M7.004,3.446
		c1.023,2.455,2.047,4.91,3.298,7.914C13.83,6.245,13.225,4.354,7.004,3.446z"/>
	<path display="inline" fill-rule="evenodd" clip-rule="evenodd" fill="#FAF070" d="M2.829-21.625
		c0.932-16.624-9.959-23.75-4.795-23.428c7.87,0.511,11.695,31.475,5.702,31.01C3.483-16.425,0.789-20.749,2.829-21.625z"/>
	<path display="inline" fill-rule="evenodd" clip-rule="evenodd" fill="#FAF070" d="M-6.669-50.52
		c2.663-3.038,3.573-5.945,8.832-5.945C-0.833-56.465,4.783-39.76-6.669-50.52z"/>
	<path display="inline" fill-rule="evenodd" clip-rule="evenodd" fill="#FAF070" d="M-5.283-33.204
		c0.64,2.881,3.783,10.37,1.311,16.706C-7.995-19.068-7.441-27.309-5.283-33.204z"/>
</g>
<g id="F8" display="none">
	<path display="inline" fill="#8C411D" d="M18.363-13.297c-1.969-7.985,8.728-19.673-6.106-9.864
		c1.18-8.161,4.352-18.379,3.467-26.641c-0.451-4.211-6.515-9.444-2.014-14.055c0.001-0.001,0.002-0.002,0.004-0.004
		c-0.001,0.001-0.002,0.002-0.003,0.003c0.001-0.001,0.002-0.002,0.003-0.003c2.872-2.938-6.064-13.534-4.804-18.199
		c2.547-9.433,5.271-15.503,1.767-24.897c-2.598-6.961-4.551-12.4-10.638-4.257c-6.616,8.851-1.365,5.713,2.489,12.889
		c4.216,7.852-26.736,26.595-16.942,33.573c7.485,5.333,0.148,16.943,2.781,23.805c5.102,13.297-3.831,27.979-6.051,40.668
		C-20.464,15.61-8.026,31.15,9.94,23.04C26.479,15.574,21.862,0.892,18.363-13.297z"/>
	<path display="inline" fill="#B15626" d="M19.573,1.41c-1.587-9.864-6.673-18.37-0.268-27.211
		c-2.563,0.899-4.857,1.812-7.406,2.877c-1.209-8.188,1.293-16.033,1.834-24.229c-0.084-2.619-0.988-4.918-2.713-6.898
		c-4.053-4.662,0.92-7.518,0.355-12.532c-1.021-9.045-4.868-12.399-2.124-22.25c3.333-11.959,1.727-14.396-3.346-25.5
		c-2.933,3.641-5.555,6.192-8.487,9.833c3.962,1.699,3.179,5,9.471,4.848C1.542-88.497-16.415-72.501-13.844-68.198
		c5.609-3.034,18.344-0.927,8.594,3.073c-5.446,2.234-7.5,23.75-0.441,21.824C-9-35.25-10.388-19.907-13.375-12
		c-3.074,8.138-11.285,21.03-1.572,29.248C-1.92,28.277,22.837,21.666,19.573,1.41z"/>
	<path display="inline" fill-rule="evenodd" clip-rule="evenodd" fill="#E79324" d="M5.961-113.525
		c2.476,8.41,4.006,13.661-7.188,8.676C1.442-108.07,3.566-110.633,5.961-113.525z"/>
	<path display="inline" fill-rule="evenodd" clip-rule="evenodd" fill="#E79324" d="M17.913-1.678
		C16.594-8.707,9.97-19.136,10.196-25.89c0.266-7.918,6.308-20.269,0.018-27.066c-7.643-8.268-0.519-30.49-5-40.666
		c-8.45,6.291-8.642,12.513-14.378,21.372c4.75-0.583,9.827-7.785,12.125,9.439c-18.372-4.306-5.795,15.088-8.213,21.938
		c-5.032,14.236-5.503,27.573-10.244,41.344C-25.042,28.342,23.333,27.454,17.913-1.678C16.956-6.781,18.077-0.796,17.913-1.678z"/>
	<path display="inline" fill-rule="evenodd" clip-rule="evenodd" fill="#F4D71C" d="M14.333,3.67c-1-3.435-8.19-9.505-9.462-22.178
		c-0.037-0.764-0.113-1.354-0.218-1.825c5.225-10.3,8.899-24.273,5.496-27.37c-2.219-2.019-4.62,0.552-6.817-2.88
		c-1.11-1.734-1.105-15.487-6.167-11.167c-8.736,7.458,2.671,15.879-1.583,22.333c-1.996,3.026-7.495,22.465-4.382,28.382
		c-0.003,0-0.006,0.001-0.009,0.001c0.005,0.003,0.009,0.006,0.014,0.009c0.552,1.044,1.331,1.756,2.387,2.005
		c2.038,2.578,0.538,5.027,3.269,7.196C-3.14-1.821-3.14-1.82-3.142-1.818c-0.193,0.095-0.387,0.187-0.579,0.289
		C-19.264,6.784-9.057,20.788,1.117,19.12C7.851,18.016,17.555,15.095,14.333,3.67z"/>
	<path display="inline" fill-rule="evenodd" clip-rule="evenodd" fill="#F4D71C" d="M1.511-73.979
		c-6.477-1.473-6.866-4.899-1.167-10.279c0.003-5.994,1.91-8.285,5.718-6.873c0,6.998,4.56,27.418,0.054,31.418
		C2.816-65.912,4.938-70.063,1.511-73.979z"/>
	<path display="inline" fill-rule="evenodd" clip-rule="evenodd" fill="#FAF070" d="M-0.617-27.092
		C9.125-27.062,5.416-53.417,10.5-44.5C7.762-24.534-2.499-7.997-5.375-16.374s-0.362-15.778,2.832-23.697
		c2.754-6.83-9.38-14.395,1.375-20.846C1.247-56.043,5.664-40.403-0.617-27.092z"/>
	<path display="inline" fill-rule="evenodd" clip-rule="evenodd" fill="#FAF070" d="M2.516,9.606
		c-5.958-8.583,3.74-23.91,10.21-3.153C13.394,8.596,1.092,13.992,2.516,9.606z"/>
	<path display="inline" fill-rule="evenodd" clip-rule="evenodd" fill="#FAF070" d="M-5.036,16.667
		c1.744,1.126,5.577,0.917,4.369-4.166C-1.436,9.266-12.342,9.425-5.036,16.667z"/>
	<path display="inline" fill-rule="evenodd" clip-rule="evenodd" fill="#FAF070" d="M1.711-77.019
		c-2.938-0.062,0.839-11.201,1.064-12.275C6.612-85.2,7.64-76.901,1.711-77.019z"/>
</g>
<g id="F9_1_" display="none">
	<path display="inline" fill="#8C411D" d="M22.106-0.042c-0.434-15.138-9.444-29.872-10.109-45.585
		c-0.566-13.378,7.502-17.031,1.669-29.04c-4.65-9.573-9.265-16.025-9.656-26.927c-0.486-13.528,7.825-22.667,9.083-34.598
		c-16.727,1.046-12.288,31.095-18.506,40.913c-4.347,6.86,1.852,26.695-6.463,27.293c0,0,0,0-0.001,0c0,0,0,0,0,0
		c0,0-0.001,0-0.001,0c-6.24,0.45,0.587,8.213,1.25,10.235c1.87,5.703-1.337,11.189-1.861,17C-13.996-24.029-20.515-12.992-23,3.5
		C-26.646,27.719,23.013,31.611,22.106-0.042z"/>
	<path display="inline" fill-rule="evenodd" clip-rule="evenodd" fill="#B15626" d="M-0.615-105.75
		c2.42-8.185,3.719-10.966,3.59-21.448c8.297,1.948-4.89,39.092-3.791,29.697C-1.167-94.5-2.697-98.709-0.615-105.75z"/>
	<path display="inline" fill="#B15626" d="M18.978,7.081c0.034,0.284,0.042,0.351,0-0.008c-0.735-6.286-0.149-1.271-0.002-0.021
		c-2.491-21.231-15.356-46.295-6.969-67.611c6.391-16.243-6.279-21.878-15.812-33.704C-13.092-81.342-7.6-51.752-9.093-36.825
		c-1.593,15.925-8.462,22.728-10.8,37.963C-24.065,28.336,21.253,26.697,18.978,7.081z"/>
	<path display="inline" fill-rule="evenodd" clip-rule="evenodd" fill="#E79324" d="M9.133-52.387
		c0.215-9.744-7.72-20.065,3.633-20.065c-1.926-11.617-17.391-11.71-19.004,0.68C-8.494-54.43-9.494-36-9.373-18.551
		c0.058,7.128-8.809,11.571-8.216,19.714c-3.347,9.33,4.686,19.48,13.924,20.62C8.066,23.23,21.814,11.328,16.59-0.5
		C16.104-5.562,8.757-34.496,9.133-52.387z"/>
	<g display="inline">
		<path fill="#F4D71C" d="M14.133-3.125c0.087-0.002-2.336-15.708-3.63-23.546c-2.877,1.481-1.611,4.38-4.987,4.689
			c-0.993-4.05-1.987-8.1-2.981-12.149c1.598-1.146,3.129-0.788,4.594,1.054c2.918-1.073,3.958-10.901-1.971-15.133
			c-4.919-3.509,0.103-5.843,0.913-9.652c0.979-4.598-0.443-16.161-3.21-19.898c-3.522,4.252-1.706,9.174-1.361,14.559
			c-1.608-2.457-3.216-4.914-4.824-7.371C-8.597-66.05-6.517-43.489-6.6-36.444c-0.158,12.779-1.775,25.194-5.19,36.858
			c0,0,0.001,0,0.001,0c-2.139,8.189,0.496,18.33,9.727,19.122C16.432,21.055,15.406,7.473,14.133-3.125z"/>
		<path fill="#F4D71C" d="M-2.062,19.536C-10.143,18.873,0.225,19.738-2.062,19.536L-2.062,19.536z"/>
	</g>
	<path display="inline" fill-rule="evenodd" clip-rule="evenodd" fill="#FAF070" d="M-7.5-0.855
		c-6.75,5.708-1.457,15.188,5.322,18.414C-1.929,14.466-3.198,4.765-7.5-0.855z"/>
	<path display="inline" fill-rule="evenodd" clip-rule="evenodd" fill="#FAF070" d="M2.625,4.625
		c3.602,10.823,5.844,14.684,9.217,1.119C12.773,2-0.977-6.198,2.625,4.625z"/>
	<path display="inline" fill-rule="evenodd" clip-rule="evenodd" fill="#FAF070" d="M1.524-37.463
		c0.982,9.692,5.431,29.208-5.246,16.6C-0.316-31-13.039-57.644,2.022-60.625c0.345,8.133-2.428,15.604,6.439,20.569
		C8.143-38.704,6.408-34.034,1.524-37.463z"/>
	<path display="inline" fill-rule="evenodd" clip-rule="evenodd" fill="#FAF070" d="M8.833-9.75
		c3.458-5.208,4.486-0.271,3.681,3.344S5.375-4.542,8.833-9.75z"/>
</g>
<g id="F10" display="none">
	<path display="inline" fill-rule="evenodd" clip-rule="evenodd" fill="#8C411D" d="M18.339-22.718
		c-1.899-12.295-4.962-11.545-7.089-23.83c-1.222-7.072,3.28-24.917,1.399-33.247c-1.182-5.233,3.01-25.809-0.787-26.309
		c-7.014-0.923-13.939-12.668-13.438-19.034c-4.613,4.446-10.062,20.071-3.715,24.34c0.496-3.54,1.954-4.952,4.373-4.237
		c0,4.947,0,9.893,0,14.84C-4.563-90.777-8.273-85.211-9-81.75c-2.23,8.446,3.152,8.492-2.469,13.178
		c5.076-2.209,0.872,24.597,1.184,23.171c-1.446,6.6-0.199,23.144-6.108,22.408c-2.263,18.513-8.274,43.836,17.679,47.618
		C27.704,28.475,20.515-8.637,18.339-22.718z"/>
	<path display="inline" fill="#B15626" d="M18.202-14.016c0.019-10.309-4.341-17.985-7.877-26.241
		C7.224-47.496,10.5-62.012,9.796-70.199c-0.977-11.375-3.124-23.234,2.793-33.754c-1.75,3.137-11.937-9.605-13.607-11.654
		c0.297,5.667,5.057,25.405-1.627,28.928c-10.076,5.317-3.686,11.3-2.66,20.194c0.595,5.291-0.446,10.246-3.123,14.867
		c-3.098,5.367,1.294,9.599,1.411,14.991c0.203,9.405-10.286,16.224-9.2,23.827c1.426,10.016-7.621,25.539,6.77,31.631
		C17.351,32.229,18.13,6.104,18.197-12.195c-0.004,1.638-0.006,2.453,0.005-1.799C18.208-16.542,18.206-15.537,18.202-14.016z"/>
	<path display="inline" fill-rule="evenodd" clip-rule="evenodd" fill="#E79324" d="M17.352-1.056
		c-1.336-7.141-0.258-13.619-2.464-20.853c-2.167-7.105-6.15-17.22-6.549-24.622c-1.056-19.593-4.816-39.809,3.795-58.295
		c-6.25,4.604-5.915-2.521-11.203-3.169c0.359,6.723,2.43,16.048-0.713,22.359c-2.224,2.483-4.799,4.52-7.727,6.11
		c-1.399,2.343,2.502,12.693,2.67,14.228c0.67,6.131-6.896,14.807-4.478,19.634c6.445,12.865,3.072,7.826,1.238,18.701
		c-2.359,14.004-16.975,26.086-5.222,40.396C-0.667,28.815,21.176,19.391,17.352-1.056C17.32-1.223,19.939,12.778,17.352-1.056z"/>
	<g display="inline">
		<path fill="#F4D71C" d="M9.082,17.737C9.123,17.735,9.119,17.735,9.082,17.737L9.082,17.737z"/>
		<path fill="#F4D71C" d="M9.082,17.737c-0.121,0.006-0.625,0.032-1.771,0.091C5.073,17.943,8.718,17.756,9.082,17.737z"/>
		<path fill="#F4D71C" d="M15.023-4.825c6.107-3.099-9.2-39.733-11.414-46.419c1.979,1.089,1.042-0.656,3.272-0.623
			c3.393-2.023-3.25-27.904-4.099-31.401C-11.875-69.375,1.292-69.272-5.25-58c-4.474,7.705,7.39,29.5-2.26,36.586
			c3.099,5.535,5.622,8.804,7.709,10.75C-3.28-4.504-14.183-2.857-14.183,4.416C-13.506,15.557-1.03,17.894,7.311,17.828
			c11.814-0.093,8.439-15.703,3.361-25.505C11.709-8.456,15.404-5.224,15.023-4.825z"/>
	</g>
	<path display="inline" fill-rule="evenodd" clip-rule="evenodd" fill="#F4D71C" d="M5.202-102.833
		c0.636,2.117,1.271,4.234,1.907,6.351C2.505-95.87-0.367-101.959,5.202-102.833C5.838-100.717,4.324-102.695,5.202-102.833z"/>
	<path display="inline" fill-rule="evenodd" clip-rule="evenodd" fill="#FAF070" d="M-2.351,15.653
		C-1.415,9.977-2.465,1.95-8.104,2.729C-17.668,4.049-5.631,14-2.351,15.653z"/>
	<path display="inline" fill-rule="evenodd" clip-rule="evenodd" fill="#FAF070" d="M9.737,3.98C5.605,9.554,2.307,17.5,9.75,14.625
		S12,2,9.737,3.98z"/>
	<path display="inline" fill-rule="evenodd" clip-rule="evenodd" fill="#FAF070" d="M13.425-14.419
		C9.848-16.93,5.272-18.16,6.013-23.27c0.653-4.519,1.335-10.605-3.586-13.927c-7.302-4.929-6.412-25.671-3.619-37.092
		c4.655,3.958,5.075,4,6.828,10.413c3.161,11.568-4.019,4.864-3.285,14.188C2.729-44.865,18.758-17.28,13.425-14.419
		C11.966-15.443,13.8-14.62,13.425-14.419z"/>
</g>
<g id="F11" display="none">
	<path display="inline" fill="#8C411D" d="M20.345-5.771c-3.261-6.026,8.961-26.8-7.394-18.952
		c-3.728-4.399-2.519-11.02,1.149-14.986c0.971,2.229,1.942,4.458,2.913,6.688c-0.692-1.589,0.695-4.665,0.717-3.442
		c1.159-8.944-4.715-11.768-6.909-20.68c-0.358-1.457-0.424-11.533,4.593-7.186c-13.342-11.562-7.599-31.918-5.357-48.096
		c1.867-13.478,2.722-3.249-3.883-14.619c-3.557-6.124,1.9-11.887-0.73-17.81c-13.587,6.834,6.698,26.365-0.859,32.623
		c-3.855,3.192-10.42,1.234-13.13,6.231c-2.644,4.877,1.875,12.653,3.194,17c4.351,14.334-10.464,16.149-1.781,25.142
		c4.99,5.168,2.542,26.357-4.349,29.183c-8.332,3.419-8.956,40.282-6.44,47.829c3.087,9.258,16.677,13.425,25.483,10.73
		C17.768,20.763,25.835,4.38,20.345-5.771z"/>
	<path display="inline" fill="#B15626" d="M18.616-25.135c0.339,0.967-2.789-0.25-0.983-1.13c-9.236,4.506-9.347-1.853-7.468-10.257
		c2.348-10.503,3.382-9.89,0.134-20.038c-1.24-3.872-5.795-12.131-6.386-15.625c-1.25-7.385,3.556-14.169,3.653-21.42
		c0.147-11.072-18.46-21.161-15.348-8.662c1.284,5.169,7.712,21.327,4.545,26.145c-4.273,6.501-10.05,0.146-3.393,11.308
		c4.376,7.338,0.086,19.939-1.101,27.751c-0.766,5.067-7.645,2.45-7.652,9.879c-0.008,12.641-7.073,31.517-0.475,43.414
		c2.985,5.382,18.887,7.589,24.312,6.469c6.994-1.443,7.978-10.214,8.435-15.979C17.43-0.144,22.982-18.559,18.616-25.135z"/>
	<path display="inline" fill-rule="evenodd" clip-rule="evenodd" fill="#E79324" d="M19.381-23.135
		c-4.569-0.041-8.527,3.471-10.32-2.505c-1.852-6.168-1.86-12.654,2.352-17.94c3.807-4.777-2.861-14.584-3.919-19.986
		C5.747-72.479,1-73.561,4.802-83.916c3.579-9.745,0.864-19.251-10.469-23.001c1.203,0.398,1.538,11.92,3,16.167
		C0.6-81.259,3.521-74.513-8-71.333c4.825,9.963,9.565,28.207-0.693,37.714c-4.041,3.745-6.261-0.369-6.244,7.02
		c0.019,7.505-1.728,15.093-2.885,22.469c0.17-0.112,0.324-0.23,0.488-0.345c-0.423,2.183-0.587,4.368-0.432,6.506
		c0.719,9.907,10.364,24.924,22.64,21.046C18.456,18.787,20.021,4.853,15.581-7.65C17.166-12.771,19.318-21.341,19.381-23.135z"/>
	<path display="inline" fill-rule="evenodd" clip-rule="evenodd" fill="#F4D71C" d="M7.862-2.333C5.65-2.845,3.231-4.925,0.96-7.356
		c1.991-4.279,3.369-7.707,3.954-7.258c6.75-8.448-1.571-16.832,3.543-24.875c3.706-5.831,2.61-12.116-0.152-17.967
		c-4.205-8.909-8.989-16.783-4.2-26.701c3.701-7.667-1.957-14.31-6.37-17.343C9.666-73.166-7.429-70.616-6.751-69.416
		c3.503,6.191,16.5,44-6.146,38.542C-13.295-23.48-16.5,4.167-12.589,7.393c0.034,0.006,0.066,0.005,0.1,0.011
		c0.121,0.764,0.243,1.499,0.362,2.182C-9.936,22.158,2.718,22.379,0.802,22.757C18.167,19.333,19.177,0.288,7.862-2.333z"/>
	<path display="inline" fill-rule="evenodd" clip-rule="evenodd" fill="#FAF070" d="M4.643,0.479
		c-10.637-0.686-1.2,20.688,4.595,13.581C8.769,14.635,15.572,1.184,4.643,0.479z"/>
	<path display="inline" fill-rule="evenodd" clip-rule="evenodd" fill="#FAF070" d="M-3.091,10.701
		C-4.996,8.1-16.667-33.5-9.28,11.088C-9.617,9.057-0.182,29.167-3.091,10.701z"/>
	<path display="inline" fill-rule="evenodd" clip-rule="evenodd" fill="#FAF070" d="M-0.688-70.349
		c12.947,6.883,4.963,39.308,1.49,50.182C-3.105-26.987,5.363-43.5-2.266-41.648C5.36-43.5-6.134-73.244-0.688-70.349z"/>
</g>
<g id="F12" display="none">
	<path display="inline" fill="#8C411D" d="M21.344-30.888c-18.266,13.241-5.833-36.97-4.068-35.481
		c-5.825-4.91-7.51-11.656-4.769-18.752c2.338-6.052-3.106-6.381-5.893-1.049c-6.793-4.559,0.187-13.162-5.747-18.041
		c-5.307,11.442-15.121,4.797-6.13,18.503c4.562,6.955,2.133,16.569,0.028,20.527c-1.831,3.443,1.523,7.994-0.875,11.656
		c-3.009,4.596-9.418,5.729-6.441,12.951c3.539,8.58-4.546,28.256-5.319,37.885c-1.123,13.994-2.313,22.592,13.376,26.567
		c7.495,1.899,17.613,1.541,22.249-5.815c3.75-5.951,5.924-26.275,2.615-32.209c-5.394-9.67,1.838-8.545,1.593-13.973
		C21.625-28.169,20.58-30.334,21.344-30.888z"/>
	<path display="inline" fill-rule="evenodd" clip-rule="evenodd" fill="#8C411D" d="M9.393-141.388
		c-3.663,9.974-8.438,12.431-14.965,7.5C-0.561-136.4,4.06-138.715,9.393-141.388z"/>
	<path display="inline" fill="#B15626" d="M17.04-6.722c-3.098-3.178-0.771-0.791-0.003-0.004
		c-10.372-10.659-1.851-75.931-8.872-77.8c-6.04-1.611-8.219-6.383-6.807-12.182c-2.047-0.36-15.554-4.367-12.462,3.646
		C-6.651-81.514,2.801-72.867-2.82-58.479c-1.877,4.804-6.169,7.07-8.613,11.348c-2.514,4.403-0.68,12.257-2.243,17.501
		c-3.828,12.845-4.259,29.111-4.437,42.542c-0.097,7.352,19.776,12.47,25.035,10.057C17.07,20.939,24.796,1.232,17.04-6.722z"/>
	<path display="inline" fill="#E79324" d="M11.553-17.576c0.471,5.522,0.124,1.457-0.004-0.046
		c-1.102-12.782-5.02-27.308-3.513-40.083c2.168-18.38-0.302-20.864-9.303-34.976c-0.129-0.203-4.5-5.938-6.156-4.953
		c-7.411,4.411-0.211,7.198,2.766,10.88c7.893,9.767,5.246,33.917-4.895,38.799c-6.457,3.108-3.174,30.694-6.117,36.44
		c-3.614,7.055-2.365,26.891,4.849,30.248c5.536,2.577,17.873,7.456,22.836,1.382C23.085,6.558,12.756-3.462,11.553-17.576z"/>
	<path display="inline" fill-rule="evenodd" clip-rule="evenodd" fill="#F4D71C" d="M9.042-2.64c1.349-7.1,1.775-25.774,1.047-31.12
		c-0.997-7.309-2.162-14.594-3.104-21.91C5.238-69.165,13.901-79.913-3.152-89.061c4.042,15.997,2.274,27.332,1.027,43.1
		c-0.383,4.845-6.142,3.561-8.244,10.653c-1.797,6.064-1.572,13.048-1.457,16.182c2.315,0.194,2.878-0.72,4.491,0.6
		c-2.557,9.62-10.496,40.319,2.501,36.098c0-0.235,17.142-0.952,18.609-8.667c-0.191,1.006-0.496,2.61-0.567,2.988
		c0.048-0.253,0.212-1.118,0.568-2.99c0.248-1.306,0.168-0.889,0-0.004C15.323,0.755,12.95-1.668,9.042-2.64z"/>
	<path display="inline" fill-rule="evenodd" clip-rule="evenodd" fill="#FAF070" d="M-5.71,5.259
		c0.744-0.597,1.487-1.194,2.23-1.791c-4.231-5.393-2.611-5.547-6.068-2.855C-8.269,2.162-6.99,3.71-5.71,5.259
		C-4.966,4.663-6.99,3.71-5.71,5.259z"/>
	<path display="inline" fill-rule="evenodd" clip-rule="evenodd" fill="#FAF070" d="M2.616-1.061
		C1.887-0.332-0.532,11.103,3.015,13.154C8.981,16.605,12.379,3.04,2.616-1.061C2.057-0.501,4.739-0.169,2.616-1.061z"/>
	<path display="inline" fill-rule="evenodd" clip-rule="evenodd" fill="#FAF070" d="M7-57.243
		c-1.497,11.322,5.089,24.637-0.84,34.258c0-8.845-3.272-3.962-8.912-10.265c-1.497,4.027-3.198,10.514-6.797,12.917
		c-3.726-11.528,6.389-15.637,9.554-23.705c4.895-12.48-0.25-27.421-0.25-40.17C6.54-81.424,8.188-66.224,7-57.243z"/>
</g>
<g id="F13">
	<path fill-rule="evenodd" clip-rule="evenodd" fill="#8C411D" d="M23.53-10.54c0.955-10.027-12.12-15.842-12.341-26.873
		c-0.094-4.688,2.583-26.535,8.12-25.983c-7.418-10.879-8.897-30.249-3.929-42.799c-5.458-1.472-11.725,2.006-14.803-4.76
		c3.24,7.122-0.718,0.405,0,0c-6.514,3.678,2.09,20.423,2.492,26.515c0.801,12.159-17.033,12.88-17.488,17.355
		c-0.256,2.518,4.201,3.62,4.412,5.857c0.686,7.231-0.591,14.476,0.373,21.695c0.993,7.444,3.87,15.097-7.323,12.625
		c0,11.217,1.828,25.677-3.263,36.209C-25.092,19.378-6.696,23.819,0.034,24.384c21.785,1.83,26.924-21.872,16.95-37.569
		C18.878-15.117,21.06-14.235,23.53-10.54z"/>
	<path fill-rule="evenodd" clip-rule="evenodd" fill="#8C411D" d="M-7.309-112.388c-3.275-2.967-3.303-5.964-0.086-8.992
		c1.349,1.505,2.928,2.832,4.047,4.516C0.578-110.954-5.989-113.88-7.309-112.388z"/>
	<path fill="#B15626" d="M20.333-17.292C7.292-19.625,9.53-39.888,11.708-49.949c3.772-17.428-7.672-39.972-0.206-55.518
		c-0.47,0-11.636-0.725-12.199,1.269c-1.193,4.223,4.238,3.662,5.73,5.842c-5.713,4.449,0.172,10.388-0.528,15.817
		C3.628-75.754-3.57-73.25-7.021-68.12c-4.402,6.545-3.394,18.677-2.256,26.063c0.578,3.752,5.03,11.822,1.759,15.557
		c-6.582,7.514-8.314-5.344-9.664,9.034c-1.107,11.792-8.362,30.229,2.894,36.041c0.523-3.899,5.266,1.456,5.788-2.443
		c6.836,3.45,4.248,2.424,11.75,5.512c8.279,3.408,16.466-5.564,16.008-13.561C18.852,0.952,11.648-14.481,20.333-17.292z"/>
	<path fill-rule="evenodd" clip-rule="evenodd" fill="#E79324" d="M8.833-102.054c-3.931,3.041-2.038,2.39-8.908-1.032
		c1.017-0.818,2.034-1.637,3.051-2.455C5.175-104.232,6.881-103.216,8.833-102.054z"/>
	<path fill-rule="evenodd" clip-rule="evenodd" fill="#E79324" d="M5.275-88.497c-0.65-1.667-1.301-3.333-1.951-4.999
		c0.704-0.512,1.46-0.932,2.27-1.262C9.243-91.154,9.136-89.067,5.275-88.497C4.587-90.152,6.142-88.853,5.275-88.497z"/>
	<path fill-rule="evenodd" clip-rule="evenodd" fill="#E79324" d="M18.92,7.315c1.375-8.594-11.819-24.606-6.349-31.259
		C-3.54-39.781,23.033-68.109,6.99-83.472C-0.389-70.217-6.681-68.277-9.1-52.117c-2.244,14.991,12.645,28.002-6.275,31.476
		c0,9.497-5.466,28.525,2.9,35.392C-6.358,19.771,25.701,23.702,18.92,7.315C19.116,6.095,18.932,7.344,18.92,7.315z"/>
	<path fill-rule="evenodd" clip-rule="evenodd" fill="#F4D71C" d="M11.711-5.374c2.96-2.892,0.169-10.12-3.864-16.042
		c0.077,0.077,0.146,0.169,0.202,0.295C5.247-25.908,3.518-35.487,2.191-44.34c3.354-6.609,6.274-33.235,6.167-34.618
		c-1.577,2.763-7.281,11.494-9.76,15.562c-0.018-0.019-0.035-0.051-0.053-0.067c-0.222,0.181-0.459,0.651-0.703,1.335
		c-0.001,0.003-0.004,0.007-0.006,0.01c0,0,0.001,0.003,0.001,0.003C-4.31-56.038-6.927-32.269-4.133-25.19
		c0.269,2.605-2.257,2.34-1.617,3.44C-5.934-19.558-1.083-7.201-2.125-7.906C-9.846-6.875-6.358-23.129-11.5-20.642
		S-12.198,0.311-6.949,5.477C-5.208,9.883-0.912,15.772,3.18,18.211C15.278,25.422,16.448,3.822,11.711-5.374z"/>
	<path fill-rule="evenodd" clip-rule="evenodd" fill="#FAF070" d="M0.208-20.642C-3.48-33.187-6.711-48.802,1.78-67.191
		c1.944-4.211,4.147,0.415,4.154,0.455c1.379,8.188-7.441,13.343-4.66,25.928C0.699-43.411,1.228-26.285,0.208-20.642z"/>
	<path fill-rule="evenodd" clip-rule="evenodd" fill="#FAF070" d="M-0.405-1.243C-2.223,11.999,5.94,5.67,6.554,16.132
		C11.05,13.858,17.75-5.023-0.405-1.243z"/>
	<path fill-rule="evenodd" clip-rule="evenodd" fill="#FAF070" d="M-11.081-15.422C-6.663-8.308-7.123-4.713-7.355-1.194
		C-11.083-4.847-14.465-11.628-11.081-15.422z"/>
	<path fill-rule="evenodd" clip-rule="evenodd" fill="#FAF070" d="M3.654-18.04c0.343-0.809,0.917-1.396,1.725-1.76
		c0.945,0.663,1.891,1.326,2.836,1.989C7.242-16.734,12.898,4.074,3.654-18.04z"/>
</g>
</svg>
