<?xml version="1.0" encoding="utf-8"?>
<!-- Generator: Adobe Illustrator 16.0.4, SVG Export Plug-In . SVG Version: 6.00 Build 0)  -->
<!DOCTYPE svg PUBLIC "-//W3C//DTD SVG 1.1//EN" "http://www.w3.org/Graphics/SVG/1.1/DTD/svg11.dtd">
<svg version="1.1" id="Layer_1" xmlns="http://www.w3.org/2000/svg" xmlns:xlink="http://www.w3.org/1999/xlink" x="0px" y="0px"
	 width="595.279px" height="425.199px" viewBox="0 0 595.279 425.199" enable-background="new 0 0 595.279 425.199"
	 xml:space="preserve">
<path fill="#02484C" d="M20.259,63.052c-0.237,5.705-9.746,19.968,2.14,19.136c11.887-0.832,44.334-10.365,45.166-17.899
	c0.832-7.535-7.486-7.535-13.787-6.348C47.478,59.129,20.259,63.052,20.259,63.052z"/>
<path fill="#5D9296" d="M136.101,41.281c-5.961,5.454,0.273,44.984,1.717,46.25c1.441,1.265,8.188,18.689,29.084,23.977
	c10.299,2.604,12.285,3.595,12.104-2.062c-0.181-5.655-7.046-33.979-7.77-36.076c-0.723-2.099,1.445-10.226,2.71-11.853
	c1.266-1.629,18.789-35.594,21.139-43.182c2.349-7.588,1.265-9.033-3.976-8.491C185.87,10.387,170.134,10.138,136.101,41.281z"/>
<path fill="#5D9296" d="M86.158,16.711C89.217,14.182,93.01,5.69,101.14,4.607c8.13-1.084,23.306,1.808,23.306,4.155
	s-7.613,21.573-13.91,20.776C104.238,28.741,86.158,16.711,86.158,16.711z"/>
<path fill="#5D9296" d="M73.783,99.854c1.52,2.376,10.309,24.015,16.207,16.562c5.897-7.453,8.782-4.39,8.524-9.029
	c-0.258-4.639-14.959-10.313-14.959-10.313L73.783,99.854z"/>
<linearGradient id="SVGID_1_" gradientUnits="userSpaceOnUse" x1="89.0798" y1="57.115" x2="84.0798" y2="6.4485">
	<stop  offset="0.0017" style="stop-color:#ABD0D2"/>
	<stop  offset="0.9989" style="stop-color:#334F52"/>
</linearGradient>
<path fill="url(#SVGID_1_)" d="M21.675,61.378c-0.059-4.98,1.645-39.701,17.332-46.328C54.697,8.425,70.458,3.847,78.251,8.04
	c7.793,4.192,59.924,29.25,73.604,50.494c13.682,21.243,2.599,5.838,1.56,7.393s-80.707-6.295-92.312-7.393
	c-11.604-1.099-38.678,5.788-39.43,5.116C20.925,62.979,21.675,61.378,21.675,61.378z"/>
<linearGradient id="SVGID_2_" gradientUnits="userSpaceOnUse" x1="77.4436" y1="57.4431" x2="82.4436" y2="94.1931">
	<stop  offset="0.0159" style="stop-color:#5D9296"/>
	<stop  offset="1" style="stop-color:#02484C"/>
</linearGradient>
<path fill="url(#SVGID_2_)" d="M117.718,54.255c-8.408,4.822-51.34-0.338-54.822-0.504c-8.115-0.385-43.463,7.477-43.213,10.537
	c0.088,1.09-0.17-1.074,0.205,3.086c4.385-0.644,9.562-1.111,10.715-1.447c1.863-0.541,18.806-7.064,19.498-6.754
	c0.691,0.311,9.39-2.305,10.113-2.084c0.727,0.221,8.076,4.34,6.315,7.199c-1.76,2.856-9.422,12.797-10.768,12.797
	s-15.551,5.692-18.326,4.619c-2.776-1.072-9.317-0.56-12.84,0c-3.52,0.559-9.422,0.516-9.732-1.74
	c-0.1-0.734-0.243-2.176-0.395-3.783c-4.635,1.832-8.67,3.996-8.613,4.633c0.104,1.14,0.104,5.799,13.306,10.562
	c13.202,4.764,12.786,10.871,26.766,9.524c3.848-0.369,7.535-1.645,10.861-3.293c2.957,0.09,5.77-0.106,8.26-0.703
	c14.422-3.454,76.854-11.391,79.973-16.09s7.599-20.516,7.599-20.516C141.138,62.562,121.714,51.964,117.718,54.255z"/>
<path d="M73.783,79.237c-0.119-0.114-0.238-0.229-0.359-0.346c-2.58,3.361-5.016,6.846-7.781,10.047
	c-2.795,3.236-6.291,5.666-10.301,7.379c8.848-6.83,12.756-16.67,16.766-26.446c-0.157-0.099-0.317-0.195-0.477-0.293
	c-1.275,2.176-2.525,4.368-3.836,6.522c-3.441,5.666-6.986,11.254-11.803,15.904c-4.252,4.106-9.252,6.147-15.222,6.182
	c-4.002,0.023-7.854-0.51-11.621-1.738c-1.129-0.368-2.146-1.09-3.289-1.688c1.177-1.232,4.005,0.488,3.445-2.455
	c-0.256-1.338-2.471-2.178-3.805-1.668c-1.543,0.588-1.412,1.559-0.5,2.734c-0.111,0.098-0.226,0.194-0.336,0.293
	c-0.818-0.492-1.691-0.914-2.441-1.494c-0.596-0.459-1.104-1.066-1.545-1.685c-1.662-2.315-1.645-2.311,1.119-2.836
	c0.481-0.092,0.922-0.407,1.381-0.621c-0.025-0.2-0.053-0.403-0.08-0.604c-1.033,0-2.068,0.018-3.104-0.004
	c-3.605-0.074-7.242,0.031-10.654-1.455c-2.066-0.9-2.426-2.146-1.146-4.006c1.285-1.867,3.082-2.951,5.312-3.572
	c-0.019,1.514-0.094,1.586-2.244,2.473c2.381-0.543,2.889,1.32,3.9,2.644c1.832,2.396,7.28,3.362,10.02,1.754
	c1.961-1.154,3.953-1.092,5.791-0.154c2.621,1.34,4.961,1.086,7.219-0.586c1.478-1.096,2.98-1.32,4.785-0.945
	c2.658,0.554,4.939-0.209,6.688-2.465c0.436-0.561,1.319-0.908,2.062-1.071c1.754-0.39,3.57-0.507,5.318-0.921
	c1.951-0.463,3.131-1.829,3.873-3.692c0.324-0.812,1.002-1.492,1.553-2.205c1.799-2.328,3.615-4.644,5.42-6.957
	c0.355-0.631,0.717-1.264,1.078-1.898c0.127-0.366,0.256-0.731,0.385-1.1c-2.502-1.771-5.586-3.773-7.778-5.17
	c-0.455,0.467-0.972,0.896-1.404,1.383c-0.277,0.31-0.467,0.699-0.67,1.07c-0.599,1.09-1.062,2.274-1.799,3.262
	c-1.185,1.586-1.33,1.529-2.838-0.264c-0.705,0.938-1.386,1.803-2.015,2.698c-0.637,0.906-0.977,2.437-2.408,1.979
	c-0.799-0.254-1.323-1.369-2.145-2.289c-0.354,0.258-0.859,0.594-1.385,0.988c-0.07-0.076-0.142-0.144-0.209-0.183
	c-0.695-0.397-1.703-1.504-1.744-1.661c0-0.003-0.002,0.002-0.002,0l-0.002,0.002c-0.006-0.019-0.023,0.008-0.045,0.057
	c-1.808,2.246-3.334,4.143-5.183,6.441c0-1.802,0-3.177,0-4.55c-0.162-0.065-0.319-0.131-0.479-0.196
	c-0.92,0.786-1.838,1.575-3.015,2.586c-0.715-1.543-1.358-2.937-2.192-4.738c-0.92,0.922-1.756,1.637-2.438,2.479
	c-0.666,0.82-1.174,1.771-1.752,2.662c-0.139-0.037-1.854,4.806-2.203,7.234c-0.346-1.477-0.889-2.43-1.444-3.646
	c-2.199-6.381-2.295-5.061-4.529-8.016c-0.721,0.625-1.172,0.902-1.664,1.539c-1.508,1.953-4.068,3.107-4.289,6.041
	c-0.078,1.051-2.889,2.68-4.01,3.096c-2.74,1.021-5.16,2.504-6.992,4.9c-2.357,3.086-0.428,7.092,3.264,8.32
	c1.447,0.479,3.74,0.928,5.222,1.305c2.078,0.529,2.918,2.035,4.194,3.805c3.379,4.679,9.484,7.256,15.013,8.224
	c5.672,0.991,10.76,2.223,16.315,0.293c0.445-0.154,0.854,0.608,2.426-0.479c0.839-0.582,0.947-1.313,1.855-0.873
	c0.562-0.289,1.195-0.635,1.887-1.029c-0.387-0.274,3.711-1.461,3.365-1.896C68.017,94.22,69.492,87.976,73.783,79.237z"/>
<path d="M132.748,106.14c-0.093-1.078-0.677-2.549-0.187-3.162c1.447-1.819,3.351-3.233,5.758-3.117
	c-1.598,2.144-3.116,4.183-4.639,6.222C133.371,106.101,133.06,106.12,132.748,106.14z"/>
<path d="M135.869,117.511c-2.47,0.057-2.562-1.514-1.707-3.156c0.77-1.483,2.032-2.711,3.655-4.004
	C137.187,112.665,136.558,114.978,135.869,117.511z"/>
<path d="M146.435,110.401c-0.895,0.406-1.801,1.138-2.678,1.105c-0.588-0.021-1.605-1.146-1.584-1.746
	c0.024-0.805,0.869-1.584,1.363-2.375c0.721,0.568,1.442,1.137,2.164,1.705C145.947,109.528,146.191,109.966,146.435,110.401z"/>
<path d="M136.101,90.298c-1.006,1.498-1.776,2.646-2.617,3.896C132.042,91.112,132.63,90.122,136.101,90.298z"/>
<path d="M198.41,9.261c-2.666-0.729-5.472-1.188-8.232-1.289c-8.049-0.297-15.184,3.029-22.07,6.529
	c-12.153,6.174-23.385,13.674-31.696,25.125c-1.498-1.023-2.927-2.035-4.392-2.988c-3.633-2.361-7.271-4.715-10.93-7.033
	c-1.711-1.084-1.91-2.057-0.865-4.037c2.398-4.547,6.148-8.43,6.109-14.244c-0.023-3.176-0.529-4.827-3.902-5.174
	c-1.09-0.112-2.141-0.619-3.207-0.951c-2.615-0.812-5.188-1.829-7.858-2.37c-1.685-0.343-3.525,0.192-5.273,0.047
	C99.337,2.305,93.63,4.48,88.937,9.293c-1.242,1.272-2.231,1.362-3.785,0.463c-2.496-1.445-5.112-2.729-7.793-3.799
	C70.513,3.222,63.449,5.171,56.48,5.259c-1.071,0.014-2.168,0.658-3.192,1.139c-3.179,1.492-6.302,3.103-9.494,4.558
	c-3.01,1.371-6.277,2.282-9.092,3.963c-1.086,0.647-1.996,1.414-2.787,2.258c-2.119,2.025-3.812,4.355-4.525,5.797
	c-2.375,4.797-4.252,9.783-5.684,14.893c-0.011,0.013-0.02,0.024-0.029,0.037c0.005,0.004,0.011,0.008,0.016,0.013
	c-1.131,4.045-1.987,8.166-2.545,12.346c-0.567,4.258-0.629,13.109-0.172,17.482c1.594,0.635,11.611-1.162,14.121-2.72l5.912-1.762
	c5.117-0.893,4.584-1.109,7.254-1.742c2.631-0.24,4.691-2.701,5.518-2.729c0.361-0.049,1.966,0.897,4.689,0.512
	c6.961-0.521,10.865,1.814,10.291,1.432c3.525-0.994-7.303-6.246-7.303-6.246c-1.898-0.125-4.103,2.808-6.017,2.438
	c-7.012-1.35-11.311,4.496-18.309,4.889c-2.971,0.166-7.644,3.197-11.119,3.722c-0.594-5.377-1.262-17.854,0.785-23.277
	c1.262-3.34,2.344-6.775,3.654-10.092c3.807-3.227,2.028-9.217,6.469-11.752c6.16-3.519,12.744-6.289,19.135-9.406
	c7.408-3.613,15.236-3.676,22.695-1.129c5.969,2.039,11.416,5.627,17.039,8.627c1.729,0.922,3.145,2.572,4.942,3.197
	c3.49,1.211,4.968,3.799,5.504,7.039c0.152,0.926-0.6,2.295-1.356,3.014c-1.496,1.422-1.607,2.135,0.428,3.092
	c2.365,1.115,4.375,2.582,4.642,5.695c0.174,2.045,0.225,3.633-1.832,4.74c-0.693,0.375-1.104,1.271-1.695,1.991
	c1.805,0.925,3.344,1.466,4.59,2.396c2.816,2.106,2.709,4.951-0.119,7.18c-1.526,1.203-3.08,2.379-4.621,3.566
	c0.16,0.301,0.32,0.6,0.482,0.897c0.922-0.119,1.844-0.235,2.938-0.377c0.298,0.57,0.611,1.197,0.945,1.814
	c1.916,3.531,0.934,6.016-2.736,7.465c-1.493,0.59-2.813,1.621-4.83,2.816c1.388,0.729,1.988,1.018,2.562,1.352
	c2.279,1.322,2.479,4.15,0.111,5.227c-2.713,1.23-5.699,1.865-9.229,2.966c0.504-1.384,0.539-1.998,0.865-2.293
	c4.016-3.636,4.234-8.998,6.092-13.589c0.754-1.856,0.59-4.19,0.453-6.284c-0.318-4.855-1.064-0.777-1.531-5.623
	c-0.028-0.308-0.026-0.722-0.217-0.894c-0.613-0.561-1.311-1.031-1.975-1.539c-0.246,0.722-0.693,1.437-0.705,2.158
	c-0.07,4.441,0.391-0.016,0.063,4.402c-0.233,3.182-1.215,6.311-2.424,9.408c1.213-5.697,1.051-11.396-0.381-16.875
	c-1.414-5.406,0.354-0.689-5.039-4.998c-0.072,1.059-0.281,1.594-0.107,1.936c3.521,6.949,2.468,3.627,1.353,11.271
	c-0.43,2.959-1.648,5.94-3.105,8.579c-2.477,4.482-4.246,9.521-8.688,12.677c-0.57,0.403-1.209,1.106-1.769,1.063
	c-7.075-0.551-3.998,5.933-11.047,6.113c-0.012,0-9.846,8.811-9.858,8.811c2.432,9.927,13.696,3.144,17.996,9.533
	c0.827,0.002,1.354,0.533,2.022,1.547c2.342,3.535,4.732,7.097,7.555,10.238c2.808,3.123,3.992,2.754,5.714-1.016
	c0.93,0.239,1.887,0.485,2.659,0.686c2.144-2.428,4.574-4.49,6.082-7.09c1.547-2.664,2.812-4.381,5.957-2.426
	c0.064,0.041,0.312-0.211,0.744-0.517c-2.539-5.45-7.328-8.629-12.307-11.569c2-3.254,4.346-1.64,6.744-1.494
	c8.854,0.535,17.651,0.062,25.946-3.66c3.464-1.555,6.941-3.08,9.879-4.383c4.943,6.147,9.562,11.951,14.261,17.688
	c0.971,1.187,2.106,2.353,3.403,3.131c6.482,3.9,12.908,8.011,20.832,8.296c1.414,0.051,2.9,0.293,4.229-0.044
	c2.25-0.569,1.131-2.188,0.754-3.518c-0.047-0.166,0.086-0.397,0.17-0.586c3.043-6.863,1.443-13.68-0.219-20.488
	c-0.9-3.694-1.844-7.379-2.924-11.686c-2.797-1.094-3.597-3.301-1.879-7.873c-0.703-0.453-1.438-0.924-2.316-1.488
	c0.947-2.293,1.463-4.731,2.801-6.576c4.938-6.811,9.65-13.684,12.443-21.733c1.021-2.943,2.668-5.67,4.029-8.496
	c0.666-0.728,0.25-1.937,0.59-2.875c1.701-4.736,3.567-9.416,5.448-14.086c0.523-1.297,1.052-2.736,2.003-3.687
	C200.857,10.995,200.169,9.741,198.41,9.261z M87.466,116.696c-2.801-4.071-5.244-7.59-7.615-11.153
	c-0.19-0.287-0.053-1.115,0.205-1.295c0.31-0.211,1.189-0.172,1.348,0.069c2.312,3.519,4.556,7.084,6.771,10.662
	C88.267,115.128,87.966,115.521,87.466,116.696z M92.101,113.341c-0.758-0.455-1.748-0.738-2.233-1.396
	c-2.193-2.954-4.242-6.016-6.859-9.778c1.145,0.098,2.252-0.121,2.543,0.268c2.434,3.275,4.719,6.662,7.049,10.017
	C92.433,112.747,92.267,113.044,92.101,113.341z M95.888,108.962c0.219,0.229-0.264,1.135-0.537,2.164
	c-3.25-3.804-6-7.021-8.748-10.234c0.199-0.209,0.398-0.418,0.599-0.629C90.113,103.147,93.05,106.007,95.888,108.962z
	 M130.322,57.897c1.027-1.535,1.697-2.533,2.451-3.655c2.174,1.303,4.502,1.985,4.287,5.325c-0.135,2.129-0.416,3.75-3.108,5.474
	C135.13,61.021,134.853,58.188,130.322,57.897z M133.345,43.226c1.139,1.894,2.594,3.885,3.498,6.103
	c0.232,0.571-1.268,1.852-1.973,2.807c-0.615-0.684-1.158-1.455-1.861-2.031c-1.494-1.223-3.07-2.346-4.535-3.451
	C129.732,45.767,131.273,44.683,133.345,43.226z M130.064,52.134c-0.024,1.219-1.389,3.479-1.981,3.418
	c-1.849-0.188-3.605-1.258-5.396-1.986c2.029-1.524,3.465-2.604,5.482-4.121C128.656,50.085,130.085,51.124,130.064,52.134z
	 M125.814,36.269c1.511,1.854,3.068,3.244,3.808,4.984c0.229,0.541-1.769,2.024-2.918,3.264c-1.197-2.018-2.06-3.471-3.166-5.336
	C124.025,38.556,124.738,37.644,125.814,36.269z M122.083,50.257c-2.742-2.576-4.994-4.693-7.424-6.976
	c1.846-1.745,4.178-3.127,6.235-1.247c1.476,1.346,2.125,3.813,2.619,5.905C123.697,48.706,122.369,49.829,122.083,50.257z
	 M122.787,35.446c-2.652,3.429-3.914,3.271-5.486-0.506c-0.418-1.002-0.93-1.967-1.396-2.948c0.236-0.23,0.474-0.46,0.712-0.689
	C118.666,32.679,120.718,34.058,122.787,35.446z M123.527,9.558c-1.256,6.859-7.573,9.514-11.106,14.432
	c-0.162,0.228-1.021-0.043-2.203-0.129C114.55,18.435,118.554,13.53,123.527,9.558z M115.001,30.362
	c-5.945,0.955-7.707-0.127-9.229-5.379C108.847,26.774,111.574,28.364,115.001,30.362z M119.365,8.956
	c-1.08,1.272-2.175,2.532-3.236,3.821c-2.229,2.707-4.543,5.353-6.623,8.173c-1.297,1.758-2.154,1.188-3.391-0.052
	c4.182-4.389,8.217-8.625,12.25-12.858C118.699,8.345,119.031,8.651,119.365,8.956z M96.447,14.921
	c-0.209,0.248-1.172,0.094-1.612-0.168c-0.312-0.183-0.588-1.129-0.435-1.279c2.611-2.559,5.291-5.043,7.957-7.545
	c0.238,0.258,0.479,0.516,0.718,0.773C100.88,9.454,98.716,12.231,96.447,14.921z M99.792,18.292
	c-0.281-0.021-0.562-0.041-0.847-0.062c0.103-0.91-0.1-2.021,0.353-2.696c4.627-6.929,8.074-9.697,10.397-8.634
	C106.404,10.688,103.099,14.489,99.792,18.292z M103.564,20.183c-0.231-0.258-0.463-0.518-0.694-0.774
	c3.479-6.15,10.52-12.962,12.633-12.158C111.507,11.575,107.535,15.88,103.564,20.183z M105.251,32.7
	c3.229-0.697,6.77,0.954,7.754,3.118c0.119,0.263,0.238,0.545,0.434,0.748c0.619,0.646,1.275,1.259,1.918,1.886
	c-1.037,0.979-2.016,2.041-3.155,2.877c-0.236,0.172-1.604-0.607-1.572-0.752C111.568,36.421,108.488,34.78,105.251,32.7z
	 M108.667,47.202c0.065-0.259,0.135-0.515,0.201-0.771c0.989-0.486,2.44-1.647,2.891-1.34c1.938,1.32,4.246,2.787,5.092,4.768
	c0.558,1.304-1.149,3.572-1.844,5.408c-0.533-0.061-1.068-0.121-1.604-0.182C113.525,51.433,114.05,47.538,108.667,47.202z
	 M112.634,57.362c6.006,4,6.182,6.804,1.285,9.396c-1.23-2.299-2.455-4.586-3.854-7.195
	C110.697,59.022,111.677,58.183,112.634,57.362z M113.775,76.183c-0.746-0.234-1.491-0.469-2.235-0.705
	c0.213,0.234,0.424,0.469,0.637,0.703c-0.896,0.562-2.486,1.703-2.576,1.594c-1.115-1.336-2.01-2.856-3.283-4.823
	c2.152-0.839,4.136-2.357,5.49-1.925c1.318,0.422,1.994,2.849,2.951,4.396C114.429,75.675,114.103,75.929,113.775,76.183z
	 M114.841,69.615c1.783-1.168,3.375-2.213,5.764-3.778c0.322,1.973,1.277,3.928,0.674,5.021
	C120.333,72.569,116.273,71.731,114.841,69.615z M121.826,76.644c-1.341,0.07-2.683,0.142-4.021,0.211
	c-0.215-0.381-0.43-0.762-0.643-1.145c1.01-0.521,1.989-1.334,3.045-1.445c0.625-0.066,1.369,0.975,2.061,1.519
	C122.121,76.069,121.972,76.356,121.826,76.644z M120.812,63.335c-1.477-2.543-2.643-4.556-3.977-6.855
	c1.049-0.924,2.108-1.856,3.301-2.906c2.607,1.517,4.291,3.757,3.846,6.707C123.804,61.46,121.869,62.372,120.812,63.335z
	 M128.636,59.79c0.428,0.301,1.762,0.789,2.25,1.721c0.365,0.701-0.318,1.98-0.611,2.98c-0.11,0.372-0.58,0.653-0.649,1.022
	c-0.361,1.941-1.42,3.559-3.4,3.207c-1.19-0.211-2.139-1.811-2.863-2.479L128.636,59.79z M127.185,76.446
	c-1.354-0.317-2.363-2.092-3.521-3.233c0.723-0.461,1.442-0.922,2.166-1.381c2.672-0.324,4.934-0.314,5.164,2.774
	C131.037,75.185,128.312,76.714,127.185,76.446z M135.515,74.112c-0.438-0.086-0.877-0.17-1.315-0.256
	c0.264-2.268-4.503-2.422-2.033-5.199c0.535-0.6,3.332,0.812,5.088,1.296C136.673,71.339,136.095,72.726,135.515,74.112z
	 M139.677,62.124c0.375-0.636,1.119-1.228,1.812-1.424c0.312-0.089,0.957,0.803,1.365,1.315c0.373,0.469,0.797,0.996,0.904,1.555
	c0.203,1.052,0.617,2.824,0.193,3.086c-1.189,0.734-2.748,1.062-4.183,1.13c-0.766,0.036-1.569-0.8-2.244-1.177
	C138.298,64.96,138.876,63.476,139.677,62.124z M138.412,53.835c0.328-0.5,0.817-1.25,1.981-3.025
	c1.164,2.269,2.25,3.713,2.553,5.305c0.119,0.621-1.524,1.578-2.543,2.55C139.609,56.733,139.066,55.419,138.412,53.835z
	 M157.726,106.856c-3.541-3.666-7.211-7.215-10.582-11.03c-2.649-3.003-4.971-6.304-7.317-9.558
	c-0.283-0.393,0.184-1.326,0.301-2.008c0.572,0.275,1.408,0.395,1.674,0.848c4.363,7.463,9.826,14.019,16.158,19.877
	c0.285,0.265,0.475,0.627,0.711,0.945C158.355,106.239,158.041,106.548,157.726,106.856z M176.214,111.841
	c-1.863-0.652-3.879-0.832-5.16-1.896c-6.035-5.021-12.016-10.131-17.719-15.524c-3.222-3.045-5.879-6.689-8.76-10.09
	c-0.437-0.517-0.714-1.168-0.57-2.363c0.594,0.441,1.246,0.824,1.77,1.338c6.418,6.305,12.599,12.873,19.314,18.84
	c3.045,2.705,7.146,4.226,11.438,6.664C176.505,109.009,176.392,110.112,176.214,111.841z M145.021,60.8
	c0.502-2.002,0.912-3.635,1.461-5.812c1.113,1.435,2.154,2.773,3.431,4.418C148.042,59.938,146.724,60.313,145.021,60.8z
	 M147.541,72.472c-0.826-0.941-1.488-1.695-2.238-2.551c0.9-1.394,1.76-2.719,2.641-4.082
	C150.574,68.392,150.519,69.542,147.541,72.472z M176.207,97.917c-0.049,1.678,0.426,3.371,0.688,5.207
	c-7.115-1.408-27.979-18.047-28.688-23.537c0.733,0.772,1.424,1.592,2.207,2.311c6.371,5.838,13.655,10.06,22.106,12.021
	C174.865,94.462,176.281,95.224,176.207,97.917z M173.601,86.937c0.305,1.07,0.721,2.109,1.226,3.57
	c-9.072-2.605-16.964-6.467-23.677-12.455c0.234-0.342,0.47-0.682,0.703-1.021c0.601,0.353,1.301,0.601,1.777,1.074
	c3.938,3.922,9.061,4.713,14.113,4.482C171.431,82.417,172.759,83.97,173.601,86.937z M167.593,70.38
	c-2.371,1.58-5.656,1.43-11.236-0.5C160.472,70.063,163.898,70.216,167.593,70.38z M156.919,65.185
	c0.649-0.504,1.283-1.414,1.957-1.442c3.362-0.15,6.737-0.068,10.108-0.068c0.187,0.299,0.369,0.6,0.554,0.899
	c-0.877,0.507-1.729,1.39-2.634,1.447c-2.637,0.168-5.297,0.062-7.942-0.061C158.271,65.929,157.599,65.454,156.919,65.185z
	 M167.265,75.075c0.992,0.104,1.799,1.924,2.353,3.366c-4.601-0.562-9.193-0.233-13.572-3.51
	C160.359,74.933,163.845,74.704,167.265,75.075z M169.339,59.202c-3.631-0.664-7.658,0.78-11.502,1.368
	c-0.836,0.127-1.629,0.531-2.443,0.808c-0.176-0.275-0.354-0.551-0.531-0.824c0.615-0.527,1.156-1.355,1.857-1.531
	c3.396-0.842,6.822-1.596,10.268-2.213c2.677-0.479,5.396-0.709,8.644-1.119C173.892,58.454,172.861,59.847,169.339,59.202z
	 M175.359,51.993c-7.366-0.5-14.328,0.766-20.735,4.604c-0.429,0.256-1.08,0.139-1.629,0.193c-0.125-0.433-0.25-0.863-0.375-1.295
	c9.457-3.492,18.914-6.984,28.668-10.586C181.273,49.257,178.476,52.204,175.359,51.993z M184.06,40.653
	c-0.408,0.716-1.492,1.3-2.356,1.449c-2.681,0.469-5.568,0.23-8.072,1.123c-5.728,2.041-11.312,4.512-16.871,6.984
	c-1.562,0.692-2.797,2.09-4.285,2.992c-0.684,0.411-1.619,0.405-2.438,0.59c0.26-0.843,0.258-2.115,0.821-2.457
	c5.041-3.064,10.031-6.277,15.336-8.822c5.382-2.582,11.093-4.479,16.681-6.613c0.807-0.307,1.744-0.266,3.186-0.465
	C185.25,37.638,184.859,39.261,184.06,40.653z M184.71,31.288c-4.109,0.633-8.324,1.832-12.01,3.725
	c-7.527,3.861-14.781,8.273-22.021,12.67c-1.162,0.705-1.662,2.5-2.469,3.791c-0.523-0.598-1.049-1.197-1.574-1.797
	c12.018-12.396,27.727-18.424,43.412-24.783C190.462,29.097,188.417,30.716,184.71,31.288z M191.144,21.487
	c-4.842,1.668-9.951,2.761-14.522,4.972c-7.619,3.688-15.062,7.817-22.265,12.27c-3.539,2.187-6.377,5.506-9.959,8.693
	c-0.521-0.484-1.231-1.146-1.946-1.812c15.754-16.366,33.692-25.18,50.957-27.789C193.89,19.849,192.804,20.915,191.144,21.487z
	 M193.626,14.673c-9.062-0.549-16.681,3.84-24.523,7.229c-11.139,4.816-20.447,12.152-28.115,22.111
	c-0.875-0.734-1.475-1.236-2.508-2.102c4.414-4.123,8.265-8.562,12.908-11.896c13.07-9.387,26.494-18.256,43.535-17.914
	c0.227,0.303,0.453,0.607,0.68,0.91C194.943,13.593,194.25,14.71,193.626,14.673z"/>
<path d="M38.835,77.351c0.256-0.535,0.217-1.41-0.045-1.963c-1.369-2.904-2.869-5.746-4.287-8.627
	c-0.465-0.945-1.051-1.119-1.748-0.354c-2.877,3.16-4.432,6.861-4.133,11.173c0.145,2.096,1.772,3.229,4.896,3.233
	C35.384,80.649,37.64,79.845,38.835,77.351z"/>
<path d="M58.617,70.444c0.149-0.627-0.119-1.483-0.47-2.073c-0.657-1.113-1.567-2.074-2.272-3.166
	c-0.744-1.15-1.283-1.273-1.967-0.054c-1.248,2.234-2.41,4.525-3.453,6.863c-0.896,2.012-0.07,3.062,2.19,3.049
	C55.142,75.052,58.023,72.913,58.617,70.444z"/>
<path d="M60.015,68.694c0.711,0.234,1.726-0.151,2.496-0.51c0.553-0.256,0.977-0.865,1.363-1.387
	c1.678-2.271,1.598-2.816-0.502-4.724c-0.523-0.475-0.953-1.057-1.484-1.518c-0.381-0.332-0.953-0.836-1.275-0.736
	c-0.375,0.117-0.719,0.779-0.817,1.259c-0.375,1.813-0.644,3.651-1.021,5.877C59.091,67.438,59.412,68.497,60.015,68.694z"/>
<radialGradient id="SVGID_3_" cx="33.7971" cy="73.3694" r="6.4249" gradientUnits="userSpaceOnUse">
	<stop  offset="0.0017" style="stop-color:#F0FFF0"/>
	<stop  offset="0.9977" style="stop-color:#968B72"/>
</radialGradient>
<path fill="url(#SVGID_3_)" d="M33.519,80.813c1.865-0.164,4.121-0.969,5.316-3.463c0.256-0.535,0.217-1.41-0.045-1.963
	c-1.369-2.904-2.869-5.746-4.287-8.627c-0.465-0.945-1.051-1.119-1.748-0.354c-2.877,3.16-4.432,6.861-4.133,11.173
	C28.767,79.675,30.396,80.81,33.519,80.813z"/>
<radialGradient id="SVGID_4_" cx="54.3801" cy="69.675" r="4.8652" gradientUnits="userSpaceOnUse">
	<stop  offset="0.0017" style="stop-color:#F0FFF0"/>
	<stop  offset="0.9977" style="stop-color:#968B72"/>
</radialGradient>
<path fill="url(#SVGID_4_)" d="M52.646,75.063c2.496-0.012,5.377-2.149,5.972-4.619c0.149-0.627-0.119-1.483-0.47-2.073
	c-0.657-1.113-1.567-2.074-2.272-3.166c-0.744-1.15-1.283-1.273-1.967-0.054c-1.248,2.234-2.41,4.525-3.453,6.863
	C49.56,74.026,50.384,75.075,52.646,75.063z"/>
<radialGradient id="SVGID_5_" cx="61.9114" cy="64.2864" r="3.8666" gradientUnits="userSpaceOnUse">
	<stop  offset="0.0017" style="stop-color:#F0FFF0"/>
	<stop  offset="0.9977" style="stop-color:#968B72"/>
</radialGradient>
<path fill="url(#SVGID_5_)" d="M58.775,66.956c0.316,0.481,0.638,1.541,1.24,1.737c0.711,0.234,1.726-0.151,2.496-0.51
	c0.553-0.256,0.977-0.865,1.363-1.387c1.678-2.271,1.598-2.816-0.502-4.724c-0.523-0.475-0.953-1.057-1.484-1.518
	c-0.381-0.332-0.953-0.836-1.275-0.736c-0.375,0.117-0.719,0.779-0.817,1.259C59.419,62.894,59.152,64.731,58.775,66.956z"/>
<radialGradient id="SVGID_6_" cx="44.8479" cy="73.3704" r="5.6426" gradientUnits="userSpaceOnUse">
	<stop  offset="0.0017" style="stop-color:#F0FFF0"/>
	<stop  offset="0.9977" style="stop-color:#968B72"/>
</radialGradient>
<path fill="url(#SVGID_6_)" d="M46.392,68.851c-0.002-0.004-0.012-0.008-0.014-0.012c-0.185-0.367-0.754-1.201-1.355-2.062
	c-0.184,0.062-0.344,0.136-0.453,0.252c-2.049,2.181-3.812,4.535-4.182,7.64c-0.232,1.961,0.723,4.02,2.199,4.793
	c1.801,0.942,3.625,0.557,5.326-1.129c1.562-1.547,1.844-3.168,0.848-5.054C47.978,71.8,47.14,70.349,46.392,68.851z"/>
<radialGradient id="SVGID_7_" cx="21.677" cy="73.6194" r="6.7535" gradientUnits="userSpaceOnUse">
	<stop  offset="0.0017" style="stop-color:#F0FFF0"/>
	<stop  offset="0.9977" style="stop-color:#968B72"/>
</radialGradient>
<path fill="url(#SVGID_7_)" d="M21.404,81.704c1.822-0.179,4.023-1.052,5.188-3.763c0.25-0.582,0.213-1.53-0.043-2.131
	c-1.336-3.156-2.799-6.242-4.182-9.373c-0.455-1.024-1.027-1.215-1.707-0.383c-2.81,3.434-4.324,7.453-4.033,12.135
	C16.769,80.468,18.357,81.7,21.404,81.704z"/>
<radialGradient id="SVGID_8_" cx="58.6584" cy="28.054" r="19.5005" gradientUnits="userSpaceOnUse">
	<stop  offset="0.0017" style="stop-color:#F0FFF0"/>
	<stop  offset="0.9977" style="stop-color:#968B72"/>
</radialGradient>
<path fill="url(#SVGID_8_)" d="M71.611,41.948c-0.178-0.12-0.358-0.241-0.539-0.362c0.162-0.363,0.238-0.775,0.492-1.076
	c6.035-7.117,5.113-15.146,3.783-23.078c-0.412-2.461-2.063-4.971-3.834-7.025C68.165,6.523,61.214,5.75,56.867,8.573
	c1.487,0.464,2.821,0.882,4.776,1.49c-1.039,0.287-1.459,0.525-1.844,0.488c-7.365-0.697-15.641,7.332-17.438,12.281
	c-2.248,6.188-1.557,12.119,0.775,18.067c1.902,4.859,11.285,8.996,17.301,8.236c6.135-0.773,5.545-1.035,10.183-4.209
	c2.94-2.014,3.512-1.17,4.78-5.324C70.964,42.349,75.402,39.604,71.611,41.948z"/>
<path d="M71.611,41.948c3.791-2.344-0.646,0.4,3.791-2.344c-1.27,4.154-1.84,3.312-4.78,5.324
	c-4.638,3.174-4.047,3.436-10.183,4.209c-6.016,0.76-15.397-3.377-17.301-8.236c-2.332-5.948-3.022-11.881-0.775-18.067
	C44.16,17.884,52.435,9.854,59.8,10.552c0.385,0.037,0.805-0.201,1.844-0.488c-1.955-0.608-3.289-1.026-4.776-1.49
	c4.348-2.823,11.299-2.051,14.646,1.832c1.771,2.056,3.422,4.564,3.834,7.025c1.33,7.932,2.252,15.961-3.783,23.078
	c-0.254,0.301-0.33,0.713-0.492,1.076C71.251,41.706,71.433,41.827,71.611,41.948z M50.361,43.776c0.22,0.306,0.439,0.605,0.66,0.91
	c2.668,0,5.586,0.609,7.961-0.104c11.029-3.312,17.043-15.345,12.431-24.605c-2.99-6.002-10.121-9.725-17.941-5.986
	c-5.738,2.744-8.697,7.228-10.549,12.355c-0.271,0.746,0.252,1.705,0.451,2.795c5.27-3.02,7.385-3.162,10.313-0.674
	c-2.895,0.475-6.867-0.08-6.559,3.539c0.1,1.162,2.26,3.014,3.637,3.127c3.857,0.311,3.406-2.998,4.514-5.535
	C58.371,35.794,55.703,40.091,50.361,43.776z M44.621,33.204c-0.384,0.129-0.765,0.26-1.146,0.389
	c0.668,2.203,0.871,4.654,2.217,6.492c0.597,0.815,3.509,0.393,5.369,0.53c0.084-0.915,0.664-2.254,0.172-2.674
	C49.205,36.21,46.853,34.759,44.621,33.204z"/>
</svg>
