<?xml version="1.0" encoding="utf-8"?>
<!-- Generator: Adobe Illustrator 16.0.4, SVG Export Plug-In . SVG Version: 6.00 Build 0)  -->
<!DOCTYPE svg PUBLIC "-//W3C//DTD SVG 1.1//EN" "http://www.w3.org/Graphics/SVG/1.1/DTD/svg11.dtd">
<svg version="1.1" id="Layer_1" xmlns="http://www.w3.org/2000/svg" xmlns:xlink="http://www.w3.org/1999/xlink" x="0px" y="0px"
	 width="408.1px" height="73.9px" viewBox="0 0 408.1 73.9" enable-background="new 0 0 408.1 73.9" xml:space="preserve">
<image display="none" overflow="visible" width="870" height="232" xlink:href="../../../../../Users/gush/Dropbox/Screenshots/Screenshot 2020-05-19 14.39.44.png"  transform="matrix(0.5 0 0 0.5 0 0)">
</image>
<path fill="none" stroke="#000000" stroke-width="2" stroke-miterlimit="10" d="M17.5,49.6c0,0,5.8,7-1.3,10.3
	C7.9,63.8,3.2,56.8,5.5,48.4c1.7-6.2,12.4-8.1,28-11.5c16-3.5,160.3-3,160.3-3s0-7.3,6.7-7s6.7,6.7,6.7,6.7"/>
<line fill="none" stroke="#000000" stroke-width="2" stroke-miterlimit="10" x1="200.3" y1="19.3" x2="200.3" y2="26.9"/>
<g>
	<path d="M188.2,17.1L188.2,17.1l-0.1-0.4l0.1-0.1c0.8-0.1,1.2-0.1,1.3-0.2c0.1,0,0.1-0.1,0.2-0.1c0.1-0.1,0.1-0.5,0.1-1.2
		c0-1.1,0-2.1,0-3c0-1.1,0-1.8,0-1.9c0-0.1-0.1-0.1-0.1-0.1c0,0-0.1,0-0.2,0l-1.6,0.7l-0.1,0c0-0.3-0.1-0.5-0.1-0.7l0-0.1
		c1.5-0.4,2.7-0.8,3.7-1.2l0.2,0.1c-0.1,0.5-0.1,1.3-0.1,2.2c0,0.9,0,2.1,0,3.4c0,0.9,0,1.5,0.1,1.7c0,0.1,0.1,0.2,0.1,0.2
		c0.1,0.1,0.5,0.1,1.2,0.1l0.1,0.1v0.4l-0.1,0.1l-0.7,0c-0.7,0-1.2,0-1.5,0C189.8,17.1,189.1,17.1,188.2,17.1z"/>
	<path d="M195.2,13c-0.4-0.2-0.7-0.5-0.9-0.8s-0.3-0.7-0.3-1.1c0-0.7,0.2-1.2,0.7-1.7s1.1-0.7,1.9-0.7c0.7,0,1.2,0.2,1.6,0.5
		s0.5,0.8,0.5,1.3c0,0.3-0.1,0.6-0.3,0.9s-0.5,0.5-0.9,0.8c0.5,0.2,0.9,0.4,1.1,0.7c0.3,0.4,0.4,0.8,0.4,1.4c0,0.8-0.3,1.4-0.8,2
		s-1.2,0.8-2.1,0.8c-0.7,0-1.3-0.2-1.8-0.6s-0.7-0.9-0.7-1.6c0-0.5,0.1-0.9,0.3-1.2S194.7,13.3,195.2,13z M195.7,13.3
		c-0.3,0.3-0.5,0.5-0.6,0.8c-0.1,0.3-0.2,0.6-0.2,0.9c0,0.5,0.1,0.9,0.4,1.2c0.3,0.3,0.7,0.5,1.1,0.5c0.4,0,0.7-0.1,0.9-0.4
		c0.3-0.3,0.4-0.6,0.4-1c0-0.3-0.1-0.5-0.2-0.7c-0.1-0.2-0.3-0.4-0.5-0.5C196.9,13.8,196.4,13.6,195.7,13.3z M197,12.1
		c0.2-0.2,0.4-0.4,0.6-0.6c0.1-0.2,0.2-0.5,0.2-0.8c0-0.4-0.1-0.7-0.3-1c-0.2-0.2-0.5-0.4-0.9-0.4c-0.4,0-0.7,0.1-0.9,0.3
		c-0.2,0.2-0.3,0.5-0.3,0.8c0,0.3,0.1,0.6,0.3,0.8C195.7,11.6,196.2,11.8,197,12.1z"/>
	<path d="M199.8,13.2c0-1.1,0.1-2,0.3-2.6s0.5-1,1-1.3s0.9-0.4,1.5-0.4c0.6,0,1,0.1,1.4,0.4s0.6,0.6,0.8,1.2s0.3,1.4,0.3,2.5
		c0,1.1-0.1,2-0.3,2.6s-0.5,1.1-1,1.4s-0.9,0.4-1.5,0.4c-0.6,0-1-0.1-1.4-0.4s-0.7-0.7-0.9-1.2S199.8,14.3,199.8,13.2z M201.3,12.4
		c0,1.2,0.1,2.2,0.2,2.8s0.3,1,0.5,1.2c0.2,0.2,0.4,0.2,0.6,0.2c0.4,0,0.6-0.2,0.8-0.5c0.2-0.4,0.3-1.2,0.3-2.5
		c0-1.5-0.1-2.6-0.3-3.3c-0.2-0.6-0.5-0.9-0.9-0.9c-0.4,0-0.7,0.2-0.9,0.6S201.3,11.2,201.3,12.4z"/>
	<path d="M205.8,13.2c0-1.1,0.1-2,0.3-2.6s0.5-1,1-1.3s0.9-0.4,1.5-0.4c0.6,0,1,0.1,1.4,0.4s0.6,0.6,0.8,1.2s0.3,1.4,0.3,2.5
		c0,1.1-0.1,2-0.3,2.6s-0.5,1.1-1,1.4s-0.9,0.4-1.5,0.4c-0.6,0-1-0.1-1.4-0.4s-0.7-0.7-0.9-1.2S205.8,14.3,205.8,13.2z M207.3,12.4
		c0,1.2,0.1,2.2,0.2,2.8s0.3,1,0.5,1.2c0.2,0.2,0.4,0.2,0.6,0.2c0.4,0,0.6-0.2,0.8-0.5c0.2-0.4,0.3-1.2,0.3-2.5
		c0-1.5-0.1-2.6-0.3-3.3c-0.2-0.6-0.5-0.9-0.9-0.9c-0.4,0-0.7,0.2-0.9,0.6S207.3,11.2,207.3,12.4z"/>
</g>
<line fill="none" stroke="#000000" stroke-width="2" stroke-miterlimit="10" x1="111.2" y1="23.1" x2="111.2" y2="34.1"/>
<g>
	<path d="M99.5,17.1L99.5,17.1l-0.1-0.4l0.1-0.1c0.8-0.1,1.2-0.1,1.3-0.2c0.1,0,0.1-0.1,0.2-0.1c0.1-0.1,0.1-0.5,0.1-1.2
		c0-1.1,0-2.1,0-3c0-1.1,0-1.8,0-1.9c0-0.1-0.1-0.1-0.1-0.1c0,0-0.1,0-0.2,0L99.2,11l-0.1,0c0-0.3-0.1-0.5-0.1-0.7l0-0.1
		c1.5-0.4,2.7-0.8,3.7-1.2l0.2,0.1c-0.1,0.5-0.1,1.3-0.1,2.2c0,0.9,0,2.1,0,3.4c0,0.9,0,1.5,0.1,1.7c0,0.1,0.1,0.2,0.1,0.2
		c0.1,0.1,0.5,0.1,1.2,0.1l0.1,0.1v0.4l-0.1,0.1l-0.7,0c-0.7,0-1.2,0-1.5,0C101.2,17.1,100.4,17.1,99.5,17.1z"/>
	<path d="M110.9,8.9v0.6c-0.8,1.4-1.6,2.8-2.2,4.3s-1.2,2.6-1.4,3.4c-0.3,0-0.6,0-0.7,0c-0.2,0-0.4,0-0.7,0l-0.1-0.2
		c0.4-0.6,0.8-1.3,1.1-1.8s0.9-1.5,1.6-2.7l1.1-1.9l-0.1-0.1l-1.2,0l-1,0c-0.6,0-1,0-1.1,0.1c-0.1,0-0.1,0.1-0.2,0.2
		c-0.1,0.2-0.1,0.5-0.2,1.2l0,0.1l-0.5,0c0-0.4,0-1,0-1.6c0-0.4,0-0.8,0-1.3l0.1-0.1c1.1,0.1,2.3,0.1,3.5,0.1
		C109.4,9,110.1,8.9,110.9,8.9z"/>
	<path d="M111.2,13.2c0-1.1,0.1-2,0.3-2.6s0.5-1,1-1.3s0.9-0.4,1.5-0.4c0.6,0,1,0.1,1.4,0.4s0.6,0.6,0.8,1.2s0.3,1.4,0.3,2.5
		c0,1.1-0.1,2-0.3,2.6s-0.5,1.1-1,1.4s-0.9,0.4-1.5,0.4c-0.6,0-1-0.1-1.4-0.4s-0.7-0.7-0.9-1.2S111.2,14.3,111.2,13.2z M112.6,12.4
		c0,1.2,0.1,2.2,0.2,2.8s0.3,1,0.5,1.2c0.2,0.2,0.4,0.2,0.6,0.2c0.4,0,0.6-0.2,0.8-0.5c0.2-0.4,0.3-1.2,0.3-2.5
		c0-1.5-0.1-2.6-0.3-3.3c-0.2-0.6-0.5-0.9-0.9-0.9c-0.4,0-0.7,0.2-0.9,0.6S112.6,11.2,112.6,12.4z"/>
	<path d="M117.2,13.2c0-1.1,0.1-2,0.3-2.6s0.5-1,1-1.3s0.9-0.4,1.5-0.4c0.6,0,1,0.1,1.4,0.4s0.6,0.6,0.8,1.2s0.3,1.4,0.3,2.5
		c0,1.1-0.1,2-0.3,2.6s-0.5,1.1-1,1.4s-0.9,0.4-1.5,0.4c-0.6,0-1-0.1-1.4-0.4s-0.7-0.7-0.9-1.2S117.2,14.3,117.2,13.2z M118.6,12.4
		c0,1.2,0.1,2.2,0.2,2.8s0.3,1,0.5,1.2c0.2,0.2,0.4,0.2,0.6,0.2c0.4,0,0.6-0.2,0.8-0.5c0.2-0.4,0.3-1.2,0.3-2.5
		c0-1.5-0.1-2.6-0.3-3.3c-0.2-0.6-0.5-0.9-0.9-0.9c-0.4,0-0.7,0.2-0.9,0.6S118.6,11.2,118.6,12.4z"/>
</g>
<line fill="none" stroke="#000000" stroke-width="2" stroke-miterlimit="10" x1="291" y1="22.6" x2="291" y2="33.6"/>
<g>
	<path d="M279.4,16.6L279.4,16.6l-0.1-0.4l0.1-0.1c0.8-0.1,1.2-0.1,1.3-0.2c0.1,0,0.1-0.1,0.2-0.1c0.1-0.1,0.1-0.5,0.1-1.2
		c0-1.1,0-2.1,0-3c0-1.1,0-1.8,0-1.9c0-0.1-0.1-0.1-0.1-0.1c0,0-0.1,0-0.2,0l-1.6,0.7l-0.1,0c0-0.3-0.1-0.5-0.1-0.7l0-0.1
		c1.5-0.4,2.7-0.8,3.7-1.2l0.2,0.1c-0.1,0.5-0.1,1.3-0.1,2.2c0,0.9,0,2.1,0,3.4c0,0.9,0,1.5,0.1,1.7c0,0.1,0.1,0.2,0.1,0.2
		c0.1,0.1,0.5,0.1,1.2,0.1l0.1,0.1v0.4l-0.1,0.1l-0.7,0c-0.7,0-1.2,0-1.5,0C281,16.6,280.2,16.6,279.4,16.6z"/>
	<path d="M288.7,12.5c-0.4,0.5-0.7,0.7-0.9,0.8c-0.2,0.1-0.5,0.2-0.9,0.2c-0.6,0-1-0.2-1.4-0.6c-0.4-0.4-0.5-1-0.5-1.7
		c0-0.9,0.3-1.6,0.8-2.1s1.1-0.8,1.9-0.8c0.5,0,1,0.1,1.4,0.4s0.7,0.6,0.9,1.1s0.3,1.1,0.3,1.9c0,1.1-0.2,2-0.5,2.7
		s-0.9,1.3-1.5,1.7s-1.5,0.7-2.3,0.7l-0.5-0.4l0.1-0.2c0.2,0,0.4,0,0.5,0c0.4,0,0.9-0.1,1.3-0.4s0.7-0.7,1-1.2
		C288.5,14.3,288.6,13.5,288.7,12.5z M287.7,12.5c0.3,0,0.6-0.1,0.8-0.3s0.3-0.6,0.3-1c0-0.8-0.1-1.3-0.3-1.7s-0.5-0.5-0.9-0.5
		c-0.3,0-0.6,0.1-0.8,0.4c-0.2,0.3-0.3,0.7-0.3,1.2c0,0.7,0.1,1.2,0.4,1.5C287,12.3,287.3,12.5,287.7,12.5z"/>
	<path d="M291,12.7c0-1.1,0.1-2,0.3-2.6s0.5-1,1-1.3s0.9-0.4,1.5-0.4c0.6,0,1,0.1,1.4,0.4s0.6,0.6,0.8,1.2s0.3,1.4,0.3,2.5
		c0,1.1-0.1,2-0.3,2.6s-0.5,1.1-1,1.4s-0.9,0.4-1.5,0.4c-0.6,0-1-0.1-1.4-0.4s-0.7-0.7-0.9-1.2S291,13.8,291,12.7z M292.4,11.9
		c0,1.2,0.1,2.2,0.2,2.8s0.3,1,0.5,1.2c0.2,0.2,0.4,0.2,0.6,0.2c0.4,0,0.6-0.2,0.8-0.5c0.2-0.4,0.3-1.2,0.3-2.5
		c0-1.5-0.1-2.6-0.3-3.3c-0.2-0.6-0.5-0.9-0.9-0.9c-0.4,0-0.7,0.2-0.9,0.6S292.4,10.7,292.4,11.9z"/>
	<path d="M297,12.7c0-1.1,0.1-2,0.3-2.6s0.5-1,1-1.3s0.9-0.4,1.5-0.4c0.6,0,1,0.1,1.4,0.4s0.6,0.6,0.8,1.2s0.3,1.4,0.3,2.5
		c0,1.1-0.1,2-0.3,2.6s-0.5,1.1-1,1.4s-0.9,0.4-1.5,0.4c-0.6,0-1-0.1-1.4-0.4s-0.7-0.7-0.9-1.2S297,13.8,297,12.7z M298.4,11.9
		c0,1.2,0.1,2.2,0.2,2.8s0.3,1,0.5,1.2c0.2,0.2,0.4,0.2,0.6,0.2c0.4,0,0.6-0.2,0.8-0.5c0.2-0.4,0.3-1.2,0.3-2.5
		c0-1.5-0.1-2.6-0.3-3.3c-0.2-0.6-0.5-0.9-0.9-0.9c-0.4,0-0.7,0.2-0.9,0.6S298.4,10.7,298.4,11.9z"/>
</g>
<path fill="none" stroke="#000000" stroke-width="2" stroke-miterlimit="10" d="M54.7,27.6c0,0,1.5-1.2,1.3-3.2s-1.2-3.2-2.5-3.2
	s-4.3,0.7-4,3.2s0.7,5.8,6.5,7.3s9.2,3,19.5,3"/>
<circle fill="none" stroke="#000000" stroke-width="2" stroke-miterlimit="10" cx="200.3" cy="33" r="6.4"/>
<path fill="none" stroke="#000000" stroke-width="2" stroke-miterlimit="10" d="M383.6,48.8c0,0-5.8,7,1.3,10.3
	c8.3,3.9,12.9-3.1,10.7-11.5c-1.7-6.2-12.4-8.1-28-11.5c-16-3.5-160.3-3-160.3-3s0-7.3-6.7-7s-6.7,6.7-6.7,6.7"/>
<path fill="none" stroke="#000000" stroke-width="2" stroke-miterlimit="10" d="M346.4,26.9c0,0-1.5-1.2-1.3-3.2s1.2-3.2,2.5-3.2
	s4.3,0.7,4,3.2s-0.7,5.8-6.5,7.3s-9.2,3-19.5,3"/>
</svg>
