<?xml version="1.0" encoding="utf-8"?>
<!-- Generator: Adobe Illustrator 16.0.4, SVG Export Plug-In . SVG Version: 6.00 Build 0)  -->
<!DOCTYPE svg PUBLIC "-//W3C//DTD SVG 1.1//EN" "http://www.w3.org/Graphics/SVG/1.1/DTD/svg11.dtd">
<svg version="1.1" xmlns="http://www.w3.org/2000/svg" xmlns:xlink="http://www.w3.org/1999/xlink" x="0px" y="0px"
	 width="595.28px" height="425.2px" viewBox="0 0 595.28 425.2" enable-background="new 0 0 595.28 425.2" xml:space="preserve">
<g id="Body">
	<g>
		<path fill="#D57C28" d="M263.314,162.66c0.619-7.502-4.198-10.249-9.07-12.946c-1.984-1.088-3.984-1.903-5.996-2.477
			c-0.609-0.984-1.059-0.621-1.934-0.472c-0.754-0.156-1.51-0.275-2.268-0.365c-0.004-0.002-0.008-0.003-0.012-0.006
			c-2.797-1.284-6.871-0.371-10.557,0.689c-1.39,0.327-2.785,0.734-4.185,1.229c0.095-2.304,0.192-4.609,0.29-6.909
			c0.553-2.809,0.012-4.59-2.303-6.649c-0.071-0.063-0.137-0.135-0.207-0.198c-1.551-4.541-3.219-9.01-6.451-12.737l-0.203,0.188
			c0.098-0.089,0.203-0.188,0.203-0.188c-0.188-3.019,2.473-2.602,4.03-2.994c13.38-3.366,21.944-19.444,16.83-32.622
			c-1.189-3.066-2.262-6.178-3.542-9.69c7.205,1.91,13.081,0.789,16.83-2.714c0.369-0.033,0.736-0.257,1.104-0.187
			c-0.009-0.234,0.106-0.345,0.338-0.338c-0.001-0.228,0.108-0.345,0.339-0.341c-0.051-0.614,0.258-0.929,0.851-1.004
			c0.651-1.352,1.812-2.42,2.188-3.926c0.302-2.488,1.118-4.894,1.046-7.454c-0.027-0.953-0.859-1.92-0.042-2.88
			c0.13-0.226,0.1-0.581,0.467-0.619c1.89-0.196,1.396-1.206,0.647-2.124c-0.738-0.906-1.549-1.794-2.481-2.484
			c-0.695-0.515-0.699-0.896-0.199-1.408c0.961-0.98,0.569-1.52-0.427-2.212c-0.698-0.483-1.523-0.52-2.179-0.99
			c-0.727,0.058-1.438,0.017-2.129-0.25c-0.303-0.117-0.725-0.103-0.737-0.529c-0.016-0.502,0.257-0.831,0.8-0.86
			c0.067-0.107,0.133-0.213,0.199-0.32c-1.475-1.892-3.482-0.931-5.278-0.912c-0.717,0.008-1.379,0.262-1.909-0.411
			c0.245-0.841,0.264-1.747,0.853-2.487c0.308-0.388,0.377-0.979-0.356-0.879c-4.304,0.591-8.148,2.058-10.653,5.911
			c-0.109,0.349-0.378,0.411-0.693,0.387c-0.004,0.323-0.009,0.645-0.496,0.538c-0.001-0.002-0.016,0.001-0.016,0.001
			c0.022,0.055,0.057,0.103,0.081,0.157c-3.039,0.775-3.146-1.956-4.188-3.591c-3.572-5.602-7-11.351-13.652-13.937
			c-11.396-6.972-24.01-10.403-37.111-11.533c-6.18-0.533-12.523,1.143-18.035,4.465c-2.618,1.578-4.257,1.387-5.231-1.574
			c-0.48-1.463-1.157-2.621-2.03-3.562c0.001-0.009,0.003-0.016,0.005-0.025c-0.006,0.004-0.019-0.001-0.025,0.002
			c-1.082-1.157-2.477-1.971-4.283-2.498c-0.142-0.228-0.282-0.453-0.422-0.647c-1.638-2.262-3.845-3.805-6.387-4.901
			c-1.277-0.353-2.671-0.359-3.761-1.27c-0.417,0.062-0.833,0.124-1.249,0.186l-0.1,0.084c0.249,0.706,0.499,1.412,0.748,2.118
			c0.77,0.092,0.647,0.682,0.554,1.142c-0.123,0.61-0.69,0.519-1.093,0.421c-1.42-0.347-2.861-0.292-4.3-0.364
			c-1.364-0.069-2.015,0.339-1.676,1.773c0.845,0.441,0.595,0.838-0.13,1.034c-1.074,0.29-2.134,0.713-3.284,0.625
			c-0.961,0.501-2.009,0.889-2.377,1.557c0.155,1.128,2.186,1.335,0.708,2.573c-0.817,0.685-1.471,1.477-2.206,2.212
			c-1.414,1.414-1.177,2.317,0.764,2.964c-0.026,0.484,0.271,0.871,0.211,1.429c-0.273,2.571-0.437,3.743,0.391,6.241
			c0.003,0.009,0.016,0.03,0.022,0.044c0.509,1.517,1.4,3.117,2.657,4.88c0.481,1.295,1.637,3.442,4.159,4.843v0
			c1.622,1.075,3.537,1.766,4.97,3.086l0.153-0.086c-0.432,0.438-0.864,0.875-1.297,1.312c-6.157,4.387-15.609,14.718-16.414,17.331
			c-1.011,3.28-0.994,6.357-0.757,9.591c-0.127,8.638,9.833,22.619,18.36,25.769c1.936,2.152,3.873,4.304,5.808,6.457
			c-2.425,0.177-3.579,1.785-4.329,3.85c-6.981,7.637-12.735,16.053-16.377,25.809c-0.252,0.532-0.432,1.256-0.586,2.026
			c-0.72,1.207-0.931,2.66-1.027,4.168c-0.235,0.385-0.534,0.564-0.941,0.402c-0.055-0.021-0.117-0.047-0.175-0.069
			c-1.898-0.99-3.788-1.665-5.671-2.061c-2.023-0.577-4.043-0.899-5.504-0.459h0c-5.214,0.194-10.396,2.011-15.604,4.152
			c-3.519,1.448-3.665,5.326-5.615,7.851c-2.83,2.334-2.259,5.938-2.827,9.117c0.189,0.436,0.213,0.949,0.208,1.485
			c-0.285,3.362-0.229,6.918,0.519,10.48c-0.035,0.005-0.064,0.003-0.101,0.007c0.093,0.254,0.184,0.507,0.275,0.76
			c0.582,2.443,1.496,4.88,2.872,7.253c-0.005-0.011-0.009-0.022-0.014-0.033c0.005,0.014,0.011,0.026,0.017,0.038
			c-0.001-0.002-0.002-0.004-0.003-0.005c0.002,0.004,0.004,0.01,0.006,0.015c0-0.001,0-0.003,0-0.003
			c1.551,3.276,3.508,6.127,6.466,8.065c2.553,2.261,5.419,3.938,8.63,5.058c2.082,1.191,4.517,1.387,6.87,1.882
			c5.676,1.19,11.117-0.359,16.59-1.508c0.004,0,0.008,0,0.012-0.003c-0.003,0.002-0.006,0.003-0.009,0.003
			c0.005-0.001,0.011-0.003,0.016-0.003c0.071-0.015,0.142-0.024,0.214-0.041c0.462-0.093,0.894-0.182,1.318-0.267
			c0.026-0.006,0.051-0.012,0.077-0.016c0.002,0,0.005-0.001,0.008-0.003c0.008-0.001,0.017-0.002,0.025-0.004
			c-0.007,0.002-0.015,0.002-0.022,0.004c0.008-0.002,0.017-0.003,0.024-0.004c0.852-0.162,1.705-0.305,2.56-0.419
			c0.307-0.221,0.64-0.303,1.001-0.244c3.573-2.128,7.431-3.724,10.857-6.128c2.791-0.356,5.304-1.593,7.21-3.866
			c0.356,0.115,0.712,0.199,1.074,0.16c-0.043-0.085-0.063-0.168-0.102-0.252c4.973,2.793,10.074,4.875,15.831,3.434
			c3.212,4.182,7.142,2.646,11.008,1.595c5.904-1.156,11.974-0.907,17.737-3.428c2.705,2.099,6.082,3.336,9.439,3.482
			c0.399,0.505,0.821,1.008,1.295,1.508c8.171,8.609,18.376,11.102,29.34,10.796c2.024-0.058,3.205-1.766,4.469-3.244
			c0.061,0.377,0.091,0.768,0.199,1.124c0.035,0.122,0.275,0.16,0.424,0.235c1.046-2.719,3.011-3.428,5.502-4.194
			c2.922-0.901,4.966-2.854,6.021-5.274c3.076-3.397,6.06-8.465,8.002-16.126l0,0C263.261,169.885,263.112,166.257,263.314,162.66
			c-0.779,0.005-1.555,0.006-2.329,0.008C261.76,162.666,262.535,162.665,263.314,162.66z"/>
		<path fill="#D57C28" d="M255.886,73.612c-0.004-0.001-0.006,0-0.01-0.001c0,0.005-0.003,0.006-0.003,0.012L255.886,73.612z"/>
		<path fill="#D57C28" d="M256.566,72.928c-0.006,0-0.007,0.004-0.014,0.004c0.001,0.005,0,0.008,0,0.013L256.566,72.928z"/>
		<path fill="#D57C28" d="M256.228,73.269c-0.006-0.001-0.008,0.004-0.014,0.004c0,0.005-0.003,0.006-0.003,0.011L256.228,73.269z"
			/>
		<polygon fill="#D57C28" points="236.506,47.479 236.519,47.479 236.519,47.464 		"/>
		<path fill="#D57C28" d="M133.855,14.475c-0.001-0.004-0.001-0.007-0.002-0.011c-0.007-0.003-0.01-0.007-0.017-0.01L133.855,14.475
			z"/>
	</g>
	<path fill-rule="evenodd" clip-rule="evenodd" fill="#B56A29" d="M154.243,25.742c-2.578-5.656-8.248-7.675-14.721-5.315
		c-4.616,1.684-7.642,8.206-6.06,13.288c0.765,2.456,1.715,4.835-1.061,6.682c1.577,3.063,5.117,3.561,7.416,5.679
		c3.313-2.109,6.649-4.195,8.323-8.008c-0.139-3.616,3.865-4.355,4.947-7.123C156.216,29.823,155.135,27.699,154.243,25.742z"/>
	<path fill-rule="evenodd" clip-rule="evenodd" fill="#F9D1A7" d="M147.994,38.025c-3.107,2.708-5.872,1.807-8.193-1.014
		c-2.303-2.796-1.674-10.362,1.352-12.08c3.359-1.907,7.008-1.363,10.031,1.323c1.357,1.206,1.748,2.879,1.757,4.648
		C151.858,33.671,147.854,34.41,147.994,38.025z"/>
	<path fill-rule="evenodd" clip-rule="evenodd" fill="#B56A29" d="M258.936,61.82c0.157-7.024-5.884-9.406-10.011-13.037
		c-2.223-1.957-5.103,0.014-7.6,0.786c-2.073,0.641-3.727,2.446-6.143,2.496c-1.07-3.195,3.535-2.173,3.093-4.666
		c-3.132,0.856-3.226-1.919-4.279-3.571c-3.572-5.602-6.998-11.351-13.65-13.937c0.16,6.021,4.955,10.351,5.804,16.183
		c1.258,8.657,1.198,17.344,1.147,26.042c-0.014,2.53-0.057,5.053,1.373,7.309c3.031,4.787,3.449,10.152,3.281,15.589
		c-0.203,6.571-5.668,12.383-12.079,13.729c-2.905,0.609-3.977-0.339-4.389-2.899c-0.823,6.131-2.783,11.432-9.062,14.22
		c-1.226,0.544-2.83,1.997-1.982,4.292c2.286,6.187,1.996,12.549,0.865,18.923c4.52-4.58,2.228-10.215,1.583-15.13
		c-0.594-4.523,0.01-5.891,4.572-5.946c3.618-0.045,7.181-1.544,10.899-0.807c-0.003,0.003,0.361-0.332,0.361-0.332
		c-0.188-3.02,2.472-2.603,4.03-2.995c13.379-3.366,21.943-19.444,16.83-32.622c-1.189-3.066-2.263-6.178-3.543-9.69
		c11.62,3.079,19.792-1.708,21.143-11.686C259.967,63.781,258.904,63.173,258.936,61.82z"/>
	<path fill-rule="evenodd" clip-rule="evenodd" fill="#F9D1A7" d="M253.672,62.651c0.006,5.428-4.183,6.315-8.137,6.938
		c-3.176,0.501-6.133-4.929-5.894-10.652c0.183-4.348,3.887-4.326,6.759-4.612C250.994,53.864,253.576,57.056,253.672,62.651z"/>
	<g>
		<path fill-rule="evenodd" clip-rule="evenodd" fill="#643419" d="M195.058,21.929c9.534,2.432,18.875,5.434,27.2,11.097
			c2.806,1.914,4.765,4.797,6.771,7.577c0.667,2.674,2.419,4.688,3.795,6.932c1.306,0.007,2.408-0.05,3.252,0.053
			c0.146-0.801,0.895-1.294,2.745-1.277c1.099,0.012,0.864-0.957,0.923-1.671c-0.898-0.472-2.317-0.568-1.48-2.301
			c-2.157-0.725-4.765,0.454-6.407-2.552c-1.991-3.644-1.826-5.268,1.964-6.796c1.976-0.795,4.302-0.803,5.443-3.181
			c-3.926-0.546-7.438,0.703-10.502,3.19c-1.638,1.332-2.553,1.101-3.986-0.344c-3.854-3.893-8.12-7.299-12.945-9.732
			c-2.995-1.509-6.394-2.252-6.435-6.859c-0.013-1.556-1.399-2.357-2.558-2.792c-1.463-0.547-1.595,1.461-1.903,2.082
			c-1.866,3.755-3.207,3.307-4.738-0.137c-0.599-1.347-1.637-2.452-2.452-3.653c-3.089-4.516-9.191-6.415-13.934-3.883
			c1.912,0.794,4.016,0.962,5.579,2.497c1.589,1.565,3.03,3.688,1.747,5.618c-1.371,2.062-2.454-1.035-3.882-1.279
			c-0.943-0.161-1.758-1.07-2.701-1.282c-2.974-0.662-6.096-1.742-8.567,1.726c3.231,0.835,3.231,0.835,4.789,3.433
			c-6.559,0.757-8.274,1.358-13.673,5.187c-1.251,0.887-3.12,1.24-4.298,0.221c1.17,4.576,4.777,1.751,6.872,0.892
			c1.695-0.696,1.972-0.957,3.749-1.728c8.839-3.842,15.193,2.666,23.963-1.454C193.805,21.314,194.492,21.783,195.058,21.929z"/>
		<path fill-rule="evenodd" clip-rule="evenodd" fill="#643419" d="M245.449,78.391c-0.217-0.344-0.407-0.669-0.568-0.979
			c-1.305,0.126-2.896,1.029-7.34-0.911c0.485,3.451,1.675,6.89,2.116,10.347c0.796,6.274-0.516,12.058-4.771,17.342
			c-2.365,2.94-4.498,5.575-7.511,7.978c-4.969,3.96-10.229,3.299-15.578,3.69c-1.729,0.128-1.897-1.675-2.95-2.352
			c-2.716,3.827-6.454,5.509-10.806,5.255c-3.411-0.195-5.811,0.715-6.705,4.48c0.888,0.857,1.808,0.563,2.842,0.237
			c1.39-0.439,2.822-0.93,3.979-0.629c2.24-1.557,7.172-3.529,21.485,1.058c0.193,0.062,0.358,0.128,0.543,0.191
			c3.615-1.02,7.338-1.756,10.273-4.893c1.805-1.93,2.466-6.95,7.005-4.447c0.106,0.057,0.854-1.111,1.26-1.736
			c1.071-1.646,2.413-3.18,3.111-4.987c1.382-3.586,2.45-3.321,4.023,0.649c1.168-7.861,5.404-14.557,3.036-22.383
			C248.045,83.507,246.986,80.829,245.449,78.391z"/>
	</g>
	<path fill-rule="evenodd" clip-rule="evenodd" fill="#F6B56B" d="M206.867,94.725c-2.945-1.407-4.423-5.156-8.245-5.16
		c0.219,2.591-0.798,4.332-3.164,5.621c-9.707,5.29-23.829,1.088-28.598-8.75c-1.332-2.749-2.6-5.91,2.745-5.586
		c0.236-0.248,0.229-0.489-0.02-0.723c-1.58-1.268-3.38-1.549-5.386-1.566c-7.946-0.068-15.209,1.84-21.466,6.933
		c-0.67,3.013-2.025,5.963-0.837,9.147c-0.207,1.273-0.413,2.546-0.621,3.82c1.936,2.151,3.873,4.304,5.808,6.456
		c5.453,0.933,10.291,5.426,10.359,9.624c-3.611,4.919-4.508,10.732-5.438,16.532c2.252,4.054,1.206,8.682,2.088,13.016
		c1.492,7.324,5.593,13.313,8.098,20.061c0.415,0.255,0.828,0.507,1.242,0.76c0.512,0.304,1.024,0.606,1.538,0.91
		c1.062,0.44,2.122,0.881,3.183,1.322c0.45,0.341,0.853,0.851,1.361,0.999c11.402,3.324,21.12,1.492,27.892-9.221l-0.011,0.134
		c0.401-0.559,0.803-1.119,1.204-1.679c3.125-4.464,5.892-9.077,6.098-14.748c1.131-6.373,1.422-12.735-0.864-18.923
		c-0.849-2.295,0.757-3.748,1.982-4.291c6.277-2.789,8.238-8.088,9.062-14.221C211.73,102.069,210.926,97.151,206.867,94.725z"/>
	<path fill-rule="evenodd" clip-rule="evenodd" fill="#F9D1A7" d="M198.89,89.565c3.822,0.004,5.3,3.753,8.244,5.16
		c2.672,10.444,2.669,10.5-8.139,9.925c-1.461-0.078-1.841,0.404-2.588,1.476c-7.03,10.086-19.036,11.822-29.953,5.962
		c-8.956-4.808-16.816-10.767-24.292-17.446c-1.188-3.184,0.167-6.134,0.837-9.147c6.257-5.093,13.52-7.001,21.466-6.933
		c2.006,0.017,3.806,0.298,5.386,1.566c0.249,0.234,0.255,0.476,0.02,0.723c-5.345-0.324-4.077,2.837-2.745,5.586
		c4.769,9.838,18.89,14.04,28.597,8.75C198.091,93.897,199.107,92.156,198.89,89.565z"/>
	<path fill-rule="evenodd" clip-rule="evenodd" fill="#F9D1A7" d="M157.708,114.541c7.901,4.022,16.074,7.269,24.467,10.221
		c8.785,3.091,13.011,15.164,10.658,26.433c-2.099,10.052-10.796,16.54-21.139,15.677c-1.144-0.096-2.245-0.671-3.275,0.271
		c-1.061-0.441-2.121-0.882-3.183-1.322c-0.514-0.304-1.026-0.606-1.538-0.91c-0.414-0.253-0.828-0.505-1.242-0.76
		c-2.504-6.747-6.606-12.736-8.098-20.061c-0.883-4.334,0.164-8.962-2.088-13.016C153.201,125.273,154.098,119.459,157.708,114.541z
		"/>
	<path fill-rule="evenodd" clip-rule="evenodd" fill="#4F1C11" d="M198.327,88.74c-5.053-5.768-10.87-10.038-19.029-9.725
		c-3.336,0.095-6.672,0.191-10.008,0.287c0.249,0.234,0.256,0.476,0.019,0.722c-5.343-0.323-4.075,2.839-2.743,5.588
		c4.769,9.838,18.891,14.04,28.598,8.75C197.528,93.072,198.545,91.331,198.327,88.74z"/>
	<path fill-rule="evenodd" clip-rule="evenodd" fill="#FAF9F7" d="M180.251,82.042c1.559,1.786,5.062,0.782,5.661,3.944
		c-5.512,2.757-11.324,1.665-15.651-2.936c0.237-0.246,0.23-0.487-0.018-0.721C173.579,82.233,176.915,82.138,180.251,82.042z"/>
	<path fill-rule="evenodd" clip-rule="evenodd" fill="#EFE9DD" d="M200.965,139.115c-1.06-3.877-4.686-5.325-6.797-8.204
		c-8.971-5.743-17.555-5.467-25.921-0.83l-0.009-0.002c-0.034,0.022-0.071,0.046-0.105,0.068c-1.726,0.965-3.443,2.101-5.151,3.424
		c-0.732,0.565-1.312,1.142-1.734,1.797c-5.105,5.181-9.914,14.734-6.927,34.811c0.188,1.267,0.398,2.44,0.623,3.542
		c-0.019,0.606-0.084,1.234-0.078,1.829c-1.146,2.724-2.312,5.447-0.791,8.449c5.007,2.823,10.142,4.948,15.941,3.495
		c3.213,4.183,7.142,2.645,11.008,1.594c5.923-1.159,12.014-0.901,17.795-3.448c0.43-0.188,0.854-0.357,1.261-0.532h0.001
		C204.042,185.044,214.269,170.087,200.965,139.115z"/>
	<path fill-rule="evenodd" clip-rule="evenodd" fill="#EED4B1" d="M155.062,184.972c-1.52-3.003-0.355-5.728,0.792-8.448
		c14.621-0.129,29.225,0.075,43.641,2.97c1.607,0.322,4.159,0.214,4.261,3.031c0.096,2.758-1.908,3.191-3.948,4.088
		c-5.781,2.547-11.872,2.288-17.795,3.448c-3.612-0.975-7.274-1.556-11.008-1.595C165.205,189.919,160.069,187.795,155.062,184.972z
		"/>
	<path fill-rule="evenodd" clip-rule="evenodd" fill="#B56A29" d="M154.428,171.065c-0.545-0.009-1.102-0.052-1.658-0.152
		c-3.332-0.598-5.475,0.315-6.283-0.312h0c-1.115,0.28-2.232-0.092-3.188-0.526c-3.6-1.631-7.409,0.396-11.072-1.189
		c-3.087-1.331-2.687,4.161-5.354,4.313c-0.438,2.826-0.135,5.702-1.109,8.526c-2.75,7.974-7.838,11.789-15.528,11.573
		c-2.088-0.055-4.386-1.373-6.324,0.739c2.422,3.246,5.946,3.335,9.299,4.041c7.131,1.495,13.891-1.338,20.812-2.26
		c0.307-0.221,0.64-0.303,1.001-0.244c5.063-3.018,10.721-4.929,14.874-9.655c1.517-1.724,2.857-0.027,4.268-0.18
		c-1.521-3.002-0.355-5.727,0.792-8.449c-0.012-1.135,0.248-2.379-0.079-3.38C154.504,172.755,154.368,171.825,154.428,171.065z"/>
	<path fill-rule="evenodd" clip-rule="evenodd" fill="#B56A29" d="M231.068,196.463c-6.369-2.509-9.939-3.581-7.229-16.045
		c0.142-8.254-5.125-7.679-10.141-7.794c-2.866-0.066-4.941-2.693-7.589-3.599c-0.146-0.021-0.309-0.061-0.507-0.146
		c-0.044-0.019-0.097-0.021-0.144-0.034c-0.138-0.031-0.278-0.051-0.419-0.07c-0.325-0.011-0.69,0.051-1.086,0.172
		c-0.082,0.077-0.165,0.154-0.247,0.232c0.015-0.049,0.022-0.108,0.033-0.162c-1.828,0.637-4.154,2.359-5.582,3.486
		c-1.619,7.838-0.61,13.045,4.123,18.036c8.171,8.609,18.377,11.101,29.341,10.795c2.024-0.057,3.205-1.765,4.468-3.243
		C234.899,195.761,232.714,197.111,231.068,196.463z"/>
	<path fill-rule="evenodd" clip-rule="evenodd" fill="#643419" d="M172.15,28.015c2.943,0.599,6.378-0.848,8.756,2.114
		c0.938,1.171,2.121,2.442,1.195,3.955c-0.937,1.533-2.473,0.611-3.602,0.086c-4.38-2.035-8.558-1.885-12.675,0.693
		c-0.685,0.428-1.715,1.052-2.335-0.015c-0.56-0.962,0.327-1.63,0.963-2.232c2.192-2.076,5.087-2.99,7.585-4.56L172.15,28.015z"/>
	<path fill-rule="evenodd" clip-rule="evenodd" fill="#643419" d="M229.824,50.598c-0.78,1.868-1.9,1.476-3.093,0.454
		c-1.636-1.402-3.7-1.79-5.661-2.425c-2.242,0.094-4.284-0.708-6.344-1.417c-0.514-0.628-0.45-1.318-0.22-2.03
		C220.395,41.577,224.938,43.183,229.824,50.598z"/>
	<path fill-rule="evenodd" clip-rule="evenodd" fill="#D57C28" d="M174.544,106.855c2.942-0.115,9.759-0.437,10.817-0.942
		c0,0-8.322-1.385-11.203-1.799c-0.006-0.008-0.015-0.02-0.015-0.02l-0.754-0.084c0,0-0.001,0-0.002,0l0,0l-8.445-0.936
		c0.295,0.21,5.307,3.366,8.24,3.829l0.002,0.002c0,0,0.013,0,0.015,0c0.163,0.025,0.323,0.047,0.47,0.055
		C174.053,106.978,174.333,106.936,174.544,106.855z"/>
	<path fill-rule="evenodd" clip-rule="evenodd" fill="#B56A29" d="M141.474,97.081c-0.207,1.273-0.413,2.546-0.621,3.82
		c-8.527-3.149-18.488-17.131-18.361-25.769c5.919,1.841,8.322,7.678,12.701,11.292c2.333,1.926,4.241,3.302,7.118,1.509
		C141.641,90.946,140.286,93.897,141.474,97.081z"/>
	<path fill-rule="evenodd" clip-rule="evenodd" fill="#643419" d="M120.199,60.285c2.355,1.202,3.028,1.628,0.482,3.932
		c-3.211,2.911-5.484,4.527-4.267,9.586c0.187-0.458,0.347-1.422,0.783-1.1c0.966,0.705-0.033,1.506-0.315,2.252
		c-0.351,1.696-0.698,3.391-1.047,5.085c-0.039,0.288-0.078,0.575-0.114,0.862c0.17,1.832-0.078,3.748,1.102,5.424
		c0.974-0.568,1.006-2.095,2.534-2.183c0.908,2.594,2.24,5.205,2.686,7.957c0.71,4.392,2.182,2.923,4.059,0.302
		c1.382,5.984,5.729,7.396,10.334,10.437c1.647-0.491,7.963,3.575,9.517,3.189c-0.715-0.358-5.04-4.996-5.666-5.604
		c-3.898-3.782-10.777-4.455-11.252-11.365c-0.242-3.523-4.069-6.371-5.11-10.295c-1.776-6.705-0.261-12.431,3.639-17.928
		c2.598-3.664,2.257-4.028,5.509-7.73c3.185-3.625,3.292-2.29,3.323-4.391c0.071-0.27,2.786-1.728,2.884-1.988
		c5.821-5.182-1.183-4.466-3.686-4.963c0.807,0.13-1.969-0.59-3.193-0.785c-0.047,0.137,1.746,1.493,1.789,1.535
		c4.479,4.195-2.142,2.371-4.194,5.512c-1.094,1.679,0.629,2.448-0.429,4.15c-2.153,4.838-3.689,2.32-8.014-0.429
		c-1.428-0.909-2.792-1.918-4.186-2.883c-0.695,1.854-0.021,3.327,1.279,4.616c0.527,0.519,1.015,1.09,0.63,1.851
		c-0.621,1.219-1.358,0.228-2.105,0.099c-0.798-0.137-1.658,0.052-2.486,0.103C116.033,57.689,118.02,59.174,120.199,60.285z"/>
	<path fill-rule="evenodd" clip-rule="evenodd" fill="#B56A29" d="M105.236,153.209c1.359-0.499,2.787-1.219,3.933-2.146
		c0.189-1.836,5.611-2.918,5.91-4.745c-0.849,0.088-8.769-0.508-8.931-2.152c-2.584-1.648,7.003-4.124,6.377-4.372
		c-2.879-1.146-12.187,2.21-15.217,3.122c0.918,0.265,1.823,0.601,2.758,0.773c1.09,0.201,2.684-0.13,2.65,1.467
		c-0.027,1.296-1.21,1.819-2.587,1.558c-3.139-0.598-4.452,2.647-7.006,3.397c-1.235,0.363-0.826-0.24-1.292-2.756
		c-2.823,0.34-2.555,6.123-4.894,6.809c0,3.894,0,7.786,0,11.679c2.634,4.162,2.547,9.772,6.924,13.006
		c-0.129-5.529-2.853-10.596-2.389-16.352c0.329-4.089,3.014-6.468,4.947-9.28c1.425-2.074,4.647-1.801,7.073-1.078
		C104.23,152.358,104.791,152.74,105.236,153.209z"/>
</g>
<g id="RightEye">
	<path fill-rule="evenodd" clip-rule="evenodd" fill="#E6D7CC" d="M230.34,63.579c-0.609-3.557-1.088-7.386-3.892-10.187
		c-3.009-3.002-7.045-1.145-10.483-2.156c-0.369,0.453-0.741,0.905-1.11,1.357c-0.861,1.211-1.455,2.922-2.629,3.547
		c-6.071,3.23-8.324,9.346-11.587,14.704c-2.56,4.207-1.982,9.087,1.409,12.331c1.182,0.769,2.364,1.539,3.544,2.307
		c0.449,0.37,0.897,0.741,1.346,1.113c0.863-0.817,1.667-1.385,1.902,0.449c1.619,1.397,3.402,1.027,5.201,0.479
		c2.188,0.684,4.374-1.46,6.563-0.012c0.114-0.243,0.277-0.453,0.486-0.624c0.154,0.228,0.349,0.412,0.586,0.554
		c0.399-0.44,0.28-0.794-0.178-1.091l-0.012-0.055c0.393-0.435,0.782-0.865,1.174-1.3c3.374-0.595,5.089-3.25,6.039-5.959
		C230.438,74.084,231.227,68.792,230.34,63.579z"/>
	<path fill-rule="evenodd" clip-rule="evenodd" fill="#643419" d="M215.969,51.225c3.438,1.01,7.474-0.848,10.482,2.155
		c2.803,2.8,3.282,6.63,3.891,10.188c0.89,5.212,0.1,10.504-1.638,15.459c-0.951,2.709-2.664,5.364-6.04,5.96
		c0.053-0.394,0.106-0.783,0.16-1.174c1.197-0.955,2.058-2.155,2.63-3.569c0.543-0.287,0.328-0.622,0.062-0.961
		c2.053-3.728,1.82-7.727,1.398-11.75c-0.242-3.08-0.116-6.396-2.078-8.893c-1.802-2.291-3.549-5.842-7.621-3.208
		c-0.465-0.242-0.853-0.251-1.022,0.357c-1.037,0.734-2.072,1.468-3.108,2.2c-1.188-0.353-1.224,0.502-1.336,1.275
		c-0.896,1.125-1.79,2.251-2.685,3.377c-7.233,5.168-8.913,12.235-7.013,20.523c-3.391-3.244-3.968-8.124-1.409-12.33
		c3.264-5.36,5.516-11.475,11.587-14.705c1.173-0.626,1.769-2.336,2.629-3.548C215.227,52.13,215.601,51.678,215.969,51.225z"/>
	<path fill-rule="evenodd" clip-rule="evenodd" fill="#FCFAF8" d="M220.627,87.077c-0.209,0.17-0.371,0.381-0.485,0.625
		c-2.189-1.449-4.375,0.696-6.564,0.011c-0.749-1.051-2.893-1.243-2.023-3.29c2.09,0.261,3.709-0.562,4.989-2.161
		c3.537-1.037,5.95-2.874,5.047-7.076c0.623-0.42,0.131-0.812-0.032-1.212c3.598-1.236,1.264-3.808,1.316-5.842
		c1.189-0.135,2.382-0.267,3.574-0.401c0.42,4.023,0.652,8.022-1.4,11.75c-0.019,0.319-0.039,0.64-0.062,0.961
		c-0.571,1.414-1.433,2.614-2.629,3.569c-0.928-0.443-1.625-0.169-2.047,0.735c-0.372,0.8,0.128,1.301,0.714,1.738l0.009,0.055
		C220.848,86.679,220.711,86.859,220.627,87.077z"/>
	<path fill-rule="evenodd" clip-rule="evenodd" fill="#FCFAF8" d="M204.117,74.585c-2.685-3.944,1.577-5.612,2.733-8.291
		c0.509-1.18,2.915-1.402,1.745-3.451c0.895-1.129,1.79-2.255,2.685-3.38c0.955,0.64,1.624-0.022,2.327-0.516
		c2.007,1.619,4.497-2.028,6.09,0.271c1.676,2.418,3.506,5.03,2.903,8.348c-0.234-0.236-0.468-0.473-0.705-0.71
		c-0.084-1.239-0.694-1.808-1.963-1.531c-6.641-1.896-11.765,1.364-14.978,9.525C204.677,74.762,204.396,74.674,204.117,74.585z"/>
	<path fill-rule="evenodd" clip-rule="evenodd" fill="#643419" d="M208.952,82.297c-4.773-5.948-0.749-16.709,6.737-18.028
		c0.862-0.151,1.722-0.304,2.586-0.456c2.938,1.325,4.643,2.259,4.144,6.818c-0.538,4.939-1.283,9.157-4.349,12.965
		c-2.659,0.396-3.566-0.623-6.168-0.43C211.012,82.913,210.387,82.72,208.952,82.297z"/>
	<path fill-rule="evenodd" clip-rule="evenodd" fill="#E6D7CC" d="M221.631,72.776c-0.573-0.577,0.15-1.587-0.417-2.164
		c0.563-2.456-1.513-2.914-3.164-3.537c-0.604-0.23-1.459,0.124-1.532,1.008c-0.145,1.789,1.312,2.291,2.652,2.874
		c-1.125,5.76-2.196,6.669-8.653,7.619c-0.423,0.062-0.707,0.827-1.058,1.264c0.448,1.937,2.269,1.76,3.673,2.229
		c2.085,0.28,3.682-0.475,4.932-1.966c1.186-2.517,0.655-2.721,2.765-4.601C221.441,75.113,221.8,73.158,221.631,72.776z"/>
</g>
<g id="LeftEye">
	<path fill-rule="evenodd" clip-rule="evenodd" fill="#E6D7CC" d="M183.003,46.008c-0.669-3.24-1.244-7.02-4.447-8.727
		c-4.771-2.542-9.399-1.254-13.494,2.017c-6.296,5.026-10.977,11.194-13.212,19.046c0.008,1.313,0.268,2.652,0.944,4.501
		c0.677,1.85,0.92,3.1,3.458,5.128c7.084,6.397,10.908,6.844,19.127,2.238c5.925-3.999,7.525-6.935,8.038-11.034
		c0.176-0.565,0.421-2.499,0.596-3.061C183.706,52.74,183.683,49.305,183.003,46.008z"/>
	<path fill-rule="evenodd" clip-rule="evenodd" fill="#643419" d="M151.85,58.343c2.235-7.852,6.917-14.02,13.212-19.046
		c4.094-3.271,8.723-4.559,13.494-2.017c3.203,1.707,3.778,5.487,4.447,8.727c0.679,3.297,0.702,6.731,1.011,10.107
		c-0.175,0.562-0.464,2.813-0.64,3.379c-0.72,2.91-0.266,1.067-1.456,4.46c-0.131,0.25-1.284,2.118-1.384,2.385
		c-2.959,2.03-3.551,3.98-5.154,3.871c4.932-7.695,5.332-16.139,3.99-24.823c-0.521-3.372-3.8-5.567-7.029-4.985
		c-8.944,1.613-18.039,12.631-18.02,21.834C152.449,61.601,152.764,59.583,151.85,58.343z"/>
	<path fill-rule="evenodd" clip-rule="evenodd" fill="#FCFAF8" d="M171.68,66.221c1.835-4.532,1.331-8.785,0.42-13.669
		c-0.838-4.509-2.74-4.911-5.936-5.331c1.333-3.43,4.391-4.889,7.497-4.624c3.501,0.299,3.419,3.818,3.736,6.583
		c0.624,5.396-0.121,10.616-2.15,15.63C174.628,66.344,174.055,68.778,171.68,66.221z"/>
	<path fill-rule="evenodd" clip-rule="evenodd" fill="#643419" d="M163.228,67.997c-6.288-4.317-5.541-15.782,1.246-19.206
		c0.78-0.394,1.561-0.789,2.344-1.184c3.195,0.42,5.097,0.822,5.936,5.332c0.911,4.884,1.415,9.137-0.42,13.669
		c-2.432,1.146-3.595,0.433-6.031,1.369C165.378,67.991,164.723,67.987,163.228,67.997z"/>
	<path fill-rule="evenodd" clip-rule="evenodd" fill="#E6D7CC" d="M172.618,55.221c-0.715-0.387-0.312-1.563-1.024-1.951
		c-0.169-2.514-2.288-2.354-4.049-2.473c-0.646-0.045-1.361,0.54-1.177,1.408c0.379,1.754,1.918,1.814,3.37,1.985
		c0.585,5.839-0.178,7.02-6.085,9.792c-0.387,0.183-0.438,0.996-0.648,1.516c0.989,1.725,2.681,1.03,4.161,1.073
		c2.076-0.333,3.388-1.517,4.154-3.306c0.407-2.752-0.16-2.795,1.318-5.204C173.111,57.513,172.89,55.537,172.618,55.221z"/>
</g>
<g id="RightArm">
	<path fill-rule="evenodd" clip-rule="evenodd" fill="#D57C28" d="M193.097,143.279c-3.799,1.902-14.05,15.702-14.05,18.414
		c0,2.713,0.664,7.188,6.865,7.946c6.202,0.76,25.159-1.917,28.966-5.057c3.809-3.14,17.013-16.708,14.636-22.871
		c-2.376-6.163-11.708-4.479-11.708-4.479S196.417,141.616,193.097,143.279z"/>
	<path fill-rule="evenodd" clip-rule="evenodd" fill="#E89C4A" d="M209.906,121.66c2.735,0.905,5.471,1.81,8.205,2.715
		c2.963,3.781,5.557,8.084,9.026,11.174c2.314,2.06,2.855,3.841,2.301,6.649c-1.455-0.111-1.759-1.654-2.609-2.524
		c-1.402-1.433-2.434-2.073-2.732,1.178c-0.24,2.592-0.777,4.364-4.589,2.815c-3.352-1.364-8.072-2.827-11.862,0.382
		c-2.146,1.819-3.432-1.032-5.656-0.663c-6.2,1.035-9.807,6.157-14.46,9.577c-1.148,0.843-1.9,2.271-3.526,1.797
		c3.21-8.104,8.649-12.928,16.594-14.059c5.104-0.146,9.629-3.399,16.16-2.875C210.865,133.167,209.657,127.736,209.906,121.66z"/>
	<path fill-rule="evenodd" clip-rule="evenodd" fill="#B56A29" d="M199.274,172.306c0.854-1.832,3.583-1.205,7.546-2.536
		c0.74-0.248,1.371-0.343,1.895-0.338c2.269-3.44,6.075-4.445,9.128-6.64c1.111-2.571,4.17-3.506,4.543-6.691
		c-2.647-0.672-3.993,3.989-5.803,2.818c-3.45-2.233-6.459-0.143-9.635-0.041c-8.95,0.292-17.56,5.035-26.705,2.877
		c-0.083,1.058-0.118,2.143-1.197,2.65c0.366,3.343,2.118,6.247,4.708,6.896c3.88,0.975,7.734,3.246,12.018,1.648
		C196.914,172.525,198.092,172.298,199.274,172.306L199.274,172.306z"/>
</g>
<g id="LeftArm">
	<path fill-rule="evenodd" clip-rule="evenodd" fill="#D57C28" d="M141.692,138.255c-1.057,3.736-7.52,21.234-4.863,23.438
		c2.658,2.204,17.792,8.822,22.197,6.02c4.406-2.804,13.322-7.235,11.837-14.388c-1.484-7.151-10.458-17.866-18.593-17.597
		C144.136,135.999,141.692,138.255,141.692,138.255z"/>
	<path fill-rule="evenodd" clip-rule="evenodd" fill="#B56A29" d="M146.425,156.498c-6.093-1.609-13.164-0.626-17.78-7.201
		c-1.953,7.896,4.355,14.963,16.308,18.897c2.614,0.756,7,1.455,9.917,1.445c0,0,0.001,0,0.002,0
		c0.722-1.144,2.238-1.628,4.155-1.927c1.813-0.279,4.31,0.133,4.735-3.086C158.903,159.499,152.716,158.159,146.425,156.498z"/>
	<path fill-rule="evenodd" clip-rule="evenodd" fill="#E89C4A" d="M168.279,158.554c0.4-6.719-0.562-7.721-6.492-7.064
		c-0.98,0.109-2.276,0.041-2.972-0.579c-6.397-5.665-13.964-8.058-21.796-9.785c-0.503-0.109-1.292-0.108-1.451-0.454
		c-2.23-4.773-6.253-3.367-9.821-3.524c1.398-6.033,5.862-10.535,10.928-11.015c0.32,0.38,0.639,0.762,0.958,1.145l-0.027-0.04
		c-0.115,2.82-2.957,3.999-3.446,6.86c4.578,0.222,9.012,0.437,13.445,0.651c4.385,0.286,8.236,2.533,12.294,4.02
		c7.837,0.359,12.05,10.035,10.734,17.111C170.354,157.384,170.407,159.125,168.279,158.554z"/>
</g>
<g id="RightFoot">
	<path fill-rule="evenodd" clip-rule="evenodd" fill="#F6B56B" d="M252.447,160.744c-0.75-4.926-4.48-5.938-7.867-7.395
		c-3.059-0.637-5.803,0.475-8.476,1.997c-0.156,1.401-0.803,2.195-2.134,2.135c-0.217,0.172-0.362,0.405-0.433,0.69
		c-4.439,1.455-5.577,7-9.312,9.326c1.428,3.051-1.447,5.185-1.421,7.935c-0.316,0.879-0.629,1.758-0.943,2.636
		c-2.707,12.466,0.862,13.537,7.232,16.047c1.646,0.646,3.83-0.703,5.021,1.627c0.062,0.378,0.091,0.768,0.198,1.123
		c0.036,0.124,0.277,0.162,0.425,0.236c1.046-2.719,3.01-3.427,5.501-4.194c2.923-0.901,4.967-2.854,6.022-5.274
		c3.076-3.396,6.06-8.465,8.002-16.125v-0.001c0.457-3.546,0.309-7.172,0.514-10.771
		C253.997,160.742,253.222,160.742,252.447,160.744z"/>
	<path fill-rule="evenodd" clip-rule="evenodd" fill="#E89C4A" d="M234.806,197.018c-1.291-2.7-3.68-1.127-5.474-1.87
		c-6.941-2.891-10.832-4.124-7.836-18.597c0.345-1.022,0.689-2.042,1.038-3.063c3.102,8.813,10.537,4.493,15.743,6.947
		c1.809,0.856,1.922-1.62,2.464-2.89c0.862-2.005,1.992-3.166,4.028-2.87c1.913,0.276,2.723,1.398,3.467,3.574
		c2.196,6.419-0.377,13.355-6.738,15.459c-2.72,0.898-4.866,1.728-6.016,4.886c-0.161-0.086-0.426-0.13-0.463-0.271
		C234.901,197.91,234.871,197.456,234.806,197.018z"/>
	<path fill-rule="evenodd" clip-rule="evenodd" fill="#F9D1A7" d="M252.335,170.216c-1.433,0.438-3.201,2.809-4.199-0.085
		c-1.178-3.414,1.154-4.448,4.074-4.634C252.252,167.071,252.294,168.644,252.335,170.216z"/>
	<path fill-rule="evenodd" clip-rule="evenodd" fill="#F9D1A7" d="M246.658,159.722c0.009,0.189-0.014,0.387,0.029,0.567
		c0.729,2.982,0.671,5.845-2.652,7.104c-1.533,0.581-2.45-1.152-2.532-2.416c-0.229-3.446,1.556-5.275,5.07-5.294L246.658,159.722z"
		/>
	<path fill-rule="evenodd" clip-rule="evenodd" fill="#F9D1A7" d="M238.346,163.441c-1.433,0.437-3.2,2.807-4.199-0.085
		c-1.177-3.415,1.154-4.448,4.075-4.634C238.264,160.294,238.305,161.869,238.346,163.441z"/>
</g>
<g id="Palette">
	<path fill-rule="evenodd" clip-rule="evenodd" fill="none" stroke="#AF673F" stroke-miterlimit="10" d="M113.59,249.658"/>
	<path fill-rule="evenodd" clip-rule="evenodd" fill="none" stroke="#AF673F" stroke-miterlimit="10" d="M224.119,249.658"/>
	<rect x="16.087" y="215.1" fill-rule="evenodd" clip-rule="evenodd" fill="#643419" width="36.975" height="34.559"/>
	<rect x="52.719" y="215.1" fill-rule="evenodd" clip-rule="evenodd" fill="#B56A29" width="36.975" height="34.559"/>
	<rect x="89.479" y="215.1" fill-rule="evenodd" clip-rule="evenodd" fill="#D57C28" width="36.975" height="34.559"/>
	<rect x="126.617" y="215.1" fill-rule="evenodd" clip-rule="evenodd" fill="#E89C4A" width="36.975" height="34.559"/>
	<rect x="163.249" y="215.1" fill-rule="evenodd" clip-rule="evenodd" fill="#F6B56B" width="36.975" height="34.559"/>
	<rect x="200.008" y="215.1" fill-rule="evenodd" clip-rule="evenodd" fill="#F9D1A7" width="36.975" height="34.559"/>
	<rect x="236.979" y="215.1" fill-rule="evenodd" clip-rule="evenodd" fill="#E6D7CC" width="36.975" height="34.559"/>
	<rect x="274.276" y="215.1" fill-rule="evenodd" clip-rule="evenodd" fill="#EFE9DD" width="36.975" height="34.559"/>
	<rect x="311.251" y="215.1" fill-rule="evenodd" clip-rule="evenodd" fill="#FCFAF8" width="36.975" height="34.559"/>
</g>
<g id="LeftFoot">
	<path fill-rule="evenodd" clip-rule="evenodd" fill="#F6B56B" d="M119.57,153.203c-1.914-1.143-2.937-4.114-4.365-6.251
		c-0.518-0.013-1.051,0.058-1.55-0.051c-7.616-1.662-14.394,0.178-20.202,6.145c-0.638,1.802-1.138,3.634-1.511,5.512
		c-0.665,5.006,1.853,15.437,0.966,17.158c0,0.001-0.001,0.002-0.003,0.003c0.529,1.293,0.688,2.929,1.693,3.626
		c0.616-4.468,3.253-2.88,4.95-1.644c6.494,4.729,14.204,1.698,21.099,4.17c2.927,1.051,4.328-2.258,4.545-5.566
		c0.159-2.401-0.415-5.198,2.264-6.585C125.821,163.638,125.654,156.85,119.57,153.203z"/>
	<path fill-rule="evenodd" clip-rule="evenodd" fill="#E89C4A" d="M127.551,167.772c0.384,0.864,0.767,1.728,1.152,2.592
		c-0.449,3.053-0.157,6.16-1.142,9.214c-2.782,8.623-7.886,12.765-15.576,12.562c-2.089-0.051-4.382-1.468-6.329,0.822
		c-1.035-0.484-2.071-0.966-3.106-1.447c0.23-2.243-1.289-3.021-2.361-4.201c-2.33-2.565-4.603-5.194-5.539-9.02
		c0.633-4.827,3.265-3.123,4.958-1.795c6.477,5.083,14.2,1.78,21.086,4.422c2.923,1.126,4.338-2.454,4.568-6.028
		C125.43,172.297,124.867,169.279,127.551,167.772z"/>
	<path fill-rule="evenodd" clip-rule="evenodd" fill="#F9D1A7" d="M116.729,155.258c-1.022,1.357-1.152,4.474-3.838,2.906
		c-3.172-1.851-1.708-4.314,0.809-6.528C114.71,152.842,115.719,154.051,116.729,155.258z"/>
	<path fill-rule="evenodd" clip-rule="evenodd" fill="#F9D1A7" d="M105.127,151.025c0.125,0.144,0.225,0.315,0.377,0.427
		c2.501,1.828,4.214,4.121,1.998,7.465c-1.023,1.543-2.919,0.828-3.775-0.106c-2.335-2.55-1.857-5.251,1.299-7.755
		C105.026,151.055,105.127,151.025,105.127,151.025z"/>
	<path fill-rule="evenodd" clip-rule="evenodd" fill="#F9D1A7" d="M99.934,159.836c-1.022,1.359-1.151,4.475-3.839,2.908
		c-3.17-1.851-1.708-4.316,0.811-6.53C97.915,157.422,98.924,158.629,99.934,159.836z"/>
</g>
<g id="Contour">
	<g>
		<path fill-rule="evenodd" clip-rule="evenodd" fill="none" stroke="#000000" stroke-width="2" stroke-miterlimit="10" d="
			M263.314,162.66c0.619-7.502-4.198-10.249-9.07-12.946c-1.984-1.088-3.984-1.903-5.996-2.477
			c-0.609-0.984-1.059-0.621-1.934-0.472c-0.754-0.156-1.51-0.275-2.268-0.365c-0.004-0.002-0.008-0.003-0.012-0.006
			c-2.797-1.284-6.871-0.371-10.557,0.689c-1.39,0.327-2.785,0.734-4.185,1.229c0.035-0.861,0.072-1.723,0.108-2.584
			c0.434-1.44,0.528-2.754,0.162-3.849c0.007-0.16,0.013-0.319,0.02-0.477c0.553-2.809,0.012-4.59-2.303-6.649
			c-0.071-0.063-0.137-0.135-0.207-0.198c-1.312-3.841-2.719-7.625-5.073-10.958c3.02-0.832,6.013-1.777,8.457-4.391
			c0.853-0.912,1.453-2.51,2.326-3.682c0.714-0.434,1.404-0.904,2.069-1.412c0.703-0.103,1.547,0.06,2.609,0.646
			c0.106,0.057,0.854-1.111,1.26-1.736c1.071-1.646,2.413-3.18,3.111-4.987c1.382-3.586,2.45-3.321,4.023,0.649
			c1.168-7.861,5.404-14.557,3.036-22.383c-0.849-2.796-1.907-5.474-3.444-7.912c-0.215-0.339-0.401-0.661-0.562-0.966
			c2.398-0.041,4.557-0.5,6.427-1.345c5.438-1.489,9.015-5.712,9.866-12.01c-0.292-0.069-0.575-0.16-0.837-0.272
			c0.187-1.067,0.325-2.144,0.294-3.25c-0.027-0.953-0.859-1.92-0.042-2.88c0.13-0.226,0.1-0.581,0.467-0.619
			c1.89-0.196,1.396-1.206,0.647-2.124c-0.738-0.906-1.549-1.794-2.481-2.484c-0.695-0.515-0.699-0.896-0.199-1.408
			c0.961-0.98,0.569-1.52-0.427-2.212c-0.698-0.483-1.523-0.52-2.179-0.99c-0.727,0.058-1.438,0.017-2.129-0.25
			c-0.303-0.117-0.725-0.103-0.737-0.529c-0.016-0.502,0.257-0.831,0.8-0.86c0.067-0.107,0.133-0.213,0.199-0.32
			c-1.475-1.892-3.482-0.931-5.278-0.912c-0.717,0.008-1.379,0.262-1.909-0.411c0.245-0.841,0.264-1.747,0.853-2.487
			c0.308-0.388,0.377-0.979-0.356-0.879c-3.164,0.435-6.075,1.352-8.393,3.333c-0.88-0.378-1.966-0.609-1.209-2.176
			c-2.157-0.725-4.765,0.454-6.407-2.552c-1.991-3.644-1.826-5.268,1.964-6.796c1.976-0.795,4.302-0.803,5.443-3.181
			c-3.926-0.546-7.438,0.703-10.502,3.19c-0.912,0.741-1.6,0.982-2.276,0.816c-0.847-0.792-1.753-1.525-2.744-2.175
			c-3.581-3.467-7.513-6.499-11.911-8.717c-2.995-1.509-6.394-2.252-6.435-6.859c-0.013-1.556-1.399-2.357-2.558-2.792
			c-1.463-0.547-1.595,1.461-1.903,2.082c-1.866,3.755-3.207,3.307-4.738-0.137c-0.599-1.347-1.637-2.452-2.452-3.653
			c-3.089-4.516-9.191-6.415-13.934-3.883c1.912,0.794,4.016,0.962,5.579,2.497c1.589,1.565,3.03,3.688,1.747,5.618
			c-1.371,2.062-2.454-1.035-3.882-1.279c-0.943-0.161-1.758-1.07-2.701-1.282c-2.974-0.662-6.096-1.742-8.567,1.726
			c3.231,0.835,3.231,0.835,4.789,3.433c-6.559,0.757-8.274,1.358-13.673,5.187c-0.403,0.243-0.774,0.427-1.132,0.583
			c-1.069,0.384-2.269,0.375-3.125-0.333c-0.378-0.417-0.705-1.005-0.974-1.824c-0.48-1.463-1.157-2.621-2.03-3.562
			c0.001-0.009,0.003-0.016,0.005-0.025c-0.006,0.004-0.019-0.001-0.025,0.002c-1.082-1.157-2.477-1.971-4.283-2.498
			c-0.142-0.228-0.282-0.453-0.422-0.647c-1.638-2.262-3.845-3.805-6.387-4.901c-1.277-0.353-2.671-0.359-3.761-1.27
			c-0.417,0.062-0.833,0.124-1.249,0.186l-0.1,0.084c0.249,0.706,0.499,1.412,0.748,2.118c0.77,0.092,0.647,0.682,0.554,1.142
			c-0.123,0.61-0.69,0.519-1.093,0.421c-1.42-0.347-2.861-0.292-4.3-0.364c-1.364-0.069-2.015,0.339-1.676,1.773
			c0.845,0.441,0.595,0.838-0.13,1.034c-1.074,0.29-2.134,0.713-3.284,0.625c-0.961,0.501-2.009,0.889-2.377,1.557
			c0.155,1.128,2.186,1.335,0.708,2.573c-0.817,0.685-1.471,1.477-2.206,2.212c-1.414,1.414-1.177,2.317,0.764,2.964
			c-0.026,0.484,0.271,0.871,0.211,1.429c-0.273,2.571-0.437,3.743,0.391,6.241c0.003,0.009,0.016,0.03,0.022,0.044
			c0.509,1.517,1.4,3.117,2.657,4.88c0.293,0.79,0.844,1.897,1.797,2.959c-0.002,0-0.004,0-0.006-0.001
			c-0.018,0.052,0.224,0.274,0.534,0.535c0.343,0.324,0.729,0.634,1.161,0.926c0.054,0.042,0.088,0.069,0.094,0.074
			c4.479,4.195-2.142,2.371-4.194,5.512c-1.094,1.679,0.629,2.448-0.429,4.15c-2.153,4.838-3.689,2.32-8.014-0.429
			c-1.428-0.909-2.792-1.918-4.186-2.883c-0.695,1.854-0.021,3.327,1.279,4.616c0.527,0.519,1.015,1.09,0.63,1.851
			c-0.621,1.219-1.358,0.228-2.105,0.099c-0.798-0.137-1.658,0.052-2.486,0.103c1.348,2.156,3.335,3.641,5.514,4.751
			c2.355,1.202,3.028,1.628,0.482,3.932c-3.211,2.911-5.484,4.527-4.267,9.586c0.187-0.458,0.347-1.422,0.783-1.1
			c0.966,0.705-0.033,1.506-0.315,2.252c-0.351,1.696-0.698,3.391-1.047,5.085c-0.039,0.288-0.078,0.575-0.114,0.862
			c0.17,1.832-0.078,3.748,1.102,5.424c0.974-0.568,1.006-2.095,2.534-2.183c0.908,2.594,2.24,5.205,2.686,7.957
			c0.71,4.392,2.182,2.923,4.059,0.302c1.382,5.984,5.729,7.396,10.334,10.437c1.474-0.439,6.675,2.761,8.868,3.165
			c0.096,0.105,0.192,0.213,0.287,0.318c-2.425,0.177-3.579,1.785-4.329,3.85c-6.981,7.637-12.735,16.053-16.377,25.809
			c-0.252,0.532-0.432,1.256-0.586,2.026c-0.72,1.207-0.931,2.66-1.027,4.168c-0.235,0.385-0.534,0.564-0.941,0.402
			c-0.055-0.021-0.117-0.047-0.175-0.069c-1.898-0.99-3.788-1.665-5.671-2.061c-1.383-0.395-2.759-0.663-3.962-0.656
			c-2.879-1.146-12.186,2.21-15.217,3.122c0.219,0.064,0.437,0.134,0.655,0.201c-0.862,0.331-1.723,0.671-2.585,1.026
			c-1.823,0.75-2.739,2.153-3.471,3.682c-0.024-0.155-0.044-0.297-0.076-0.47c-2.823,0.34-2.555,6.123-4.894,6.809
			c0,3.894,0,7.786,0,11.679c0.024,0.038,0.045,0.079,0.069,0.118c-0.017,2.333,0.155,4.72,0.658,7.116
			c-0.035,0.005-0.064,0.003-0.101,0.007c0.093,0.254,0.184,0.507,0.275,0.76c0.582,2.443,1.496,4.88,2.872,7.253
			c-0.005-0.011-0.009-0.022-0.014-0.033c0.005,0.014,0.011,0.026,0.017,0.038c-0.001-0.002-0.002-0.004-0.003-0.005
			c0.002,0.004,0.004,0.01,0.006,0.015c0-0.001,0-0.003,0-0.003c1.551,3.276,3.508,6.127,6.466,8.065
			c2.151,1.905,4.54,3.372,7.155,4.462c-0.144,0.119-0.286,0.249-0.426,0.401c2.422,3.246,5.946,3.335,9.299,4.041
			c7.131,1.495,13.891-1.338,20.812-2.26c0.307-0.221,0.64-0.303,1.001-0.244c5.063-3.018,10.721-4.929,14.874-9.655
			c0.008-0.009,0.016-0.016,0.024-0.023c0.334-0.206,0.661-0.428,0.975-0.674c1.124-0.352,2.175,0.636,3.269,0.518
			c-0.339-0.67-0.527-1.323-0.629-1.969c0.034-0.002,0.067,0.007,0.101,0.005c-0.043-0.085-0.063-0.168-0.102-0.252
			c0.148,0.083,0.297,0.163,0.446,0.245c0.036,0.077,0.054,0.152,0.093,0.23c0.255,0.144,0.511,0.285,0.767,0.424
			c0.074,0.184,0.128,0.365,0.221,0.55c4.977,2.806,10.081,4.918,15.836,3.518c0.031,0.022,0.062,0.045,0.093,0.068
			c2.608,2.425,5.603,1.765,8.619,0.924c0.803,0.176,1.604,0.363,2.402,0.579c5.797-1.136,11.752-0.929,17.423-3.308
			c0.732,1.301,1.675,2.551,2.847,3.787c8.171,8.609,18.377,11.101,29.341,10.795c0.637-0.018,1.185-0.212,1.685-0.499
			c1.606,0.091,3.232,0.118,4.879,0.073c2.024-0.058,3.205-1.766,4.469-3.244c0.061,0.377,0.091,0.768,0.199,1.124
			c0.035,0.122,0.275,0.16,0.424,0.235c1.046-2.719,3.011-3.428,5.502-4.194c2.922-0.901,4.966-2.854,6.021-5.274
			c3.076-3.397,6.06-8.465,8.002-16.126l0,0C263.261,169.885,263.112,166.257,263.314,162.66c-0.779,0.005-1.555,0.006-2.329,0.008
			C261.76,162.666,262.535,162.665,263.314,162.66z M240.684,77.543c-0.056-0.155-0.112-0.312-0.168-0.468
			c1.489,0.256,2.908,0.367,4.255,0.352C243.859,77.542,242.773,77.97,240.684,77.543z"/>
		<path fill-rule="evenodd" clip-rule="evenodd" fill="none" stroke="#000000" stroke-width="2" stroke-miterlimit="10" d="
			M133.855,14.475c-0.001-0.004-0.001-0.007-0.002-0.011c-0.007-0.003-0.01-0.007-0.017-0.01L133.855,14.475z"/>
	</g>
	<path fill-rule="evenodd" clip-rule="evenodd" fill="none" stroke="#000000" stroke-width="2" stroke-miterlimit="10" d="
		M152.271,129.426c-0.267,1.646,1.22,4.857,1.34,5.844c0.121,0.985,12.738,4.627,14.347,8.009c1.61,3.38,8.044,15.224-4.197,21.348
		c-12.241,6.123-3.503,3.935-8.89,5.013c-5.386,1.079-25.705-2.669-27.415-17.581"/>
	<path fill-rule="evenodd" clip-rule="evenodd" fill="none" stroke="#000000" stroke-width="2" stroke-miterlimit="10" d="
		M211.032,138.255c-7.214,1.988-23.338,1.302-29.153,16.598c-8.529,22.437,13.326,18.723,20.175,14.96
		c6.848-3.763,16.465-6.035,20.332-13.712"/>
</g>
</svg>
