<?xml version="1.0" encoding="utf-8"?>
<!-- Generator: Adobe Illustrator 26.5.0, SVG Export Plug-In . SVG Version: 6.00 Build 0)  -->
<svg version="1.1" xmlns="http://www.w3.org/2000/svg" xmlns:xlink="http://www.w3.org/1999/xlink" x="0px" y="0px"
	 viewBox="0 0 623.6 396.9" style="enable-background:new 0 0 623.6 396.9;" xml:space="preserve">
<style type="text/css">
	.st0{fill:#008000;}
	.st1{fill:#FFFFFF;}
</style>
<g id="Fotbollsplan">
	<rect y="3.2" class="st0" width="623.6" height="390.4"/>
</g>
<g id="Mitten">
	<path class="st1" d="M311.8,201c-1.4,0-2.6-1.2-2.6-2.6s1.2-2.6,2.6-2.6s2.6,1.2,2.6,2.6S313.2,201,311.8,201z M311.8,198
		c-0.2,0-0.4,0.2-0.4,0.4s0.2,0.4,0.4,0.4s0.4-0.2,0.4-0.4S312,198,311.8,198z"/>
	<path class="st1" d="M311.8,249.5c-28.2,0-51.1-22.9-51.1-51.1c0-15.9,7.3-30,18.6-39.4c8.8-7.3,20.2-11.7,32.5-11.7
		c28.2,0,51.1,22.9,51.1,51.1c0,19.4-10.8,36.3-26.8,44.9C328.9,247.3,320.6,249.5,311.8,249.5z M311.8,150.3
		c-10.8,0-20.7,3.6-28.8,9.6c-11.7,8.8-19.4,22.8-19.4,38.6c0,26.5,21.6,48.1,48.1,48.1c11.4,0,21.9-4,30.2-10.7
		c10.9-8.8,18-22.3,18-37.5C359.9,171.9,338.3,150.3,311.8,150.3z"/>
	<path class="st1" d="M598,384.3H25.6V12.5H598V384.3z M313.3,381.3H595V15.5H313.3V381.3z M28.6,381.3h281.7V15.5H28.6V381.3z"/>
</g>
<g id="Hoger">
	<path class="st1" d="M506.1,239.3c-3.8-2.9-7.2-6.3-10.1-10.1c-16.9-22.5-12.4-54.6,10.1-71.6l2.4,1.2v79.3L506.1,239.3z
		 M505.5,161.9c-19.1,16.4-22.5,45.1-7.1,65.5c2.1,2.8,4.5,5.3,7.1,7.6V161.9z"/>
	<path class="st1" d="M598,384.3h-8.4v-1.5c0-3.8,3.1-6.9,6.9-6.9h1.5V384.3z M592.9,381.3h2.1v-2.1
		C594,379.6,593.3,380.3,592.9,381.3z"/>
	<path class="st1" d="M598,21h-1.5c-3.8,0-6.9-3.1-6.9-6.9v-1.5h8.4V21z M592.9,15.5c0.4,1,1.2,1.7,2.1,2.1v-2.1H592.9z"/>
	<path class="st1" d="M598,309.2h-92.5V88.1H598V309.2z M508.5,306.2H595V91.1h-86.5V306.2z"/>
	<path class="st1" d="M598,249.6h-32.8V147.8H598V249.6z M568.2,246.6H595v-95.8h-26.8V246.6z"/>
	<path class="st1" d="M536.9,201c-1.4,0-2.6-1.2-2.6-2.6s1.2-2.6,2.6-2.6c1.4,0,2.6,1.2,2.6,2.6S538.3,201,536.9,201z M536.9,198
		c-0.2,0-0.4,0.2-0.4,0.4s0.2,0.4,0.4,0.4c0.2,0,0.4-0.2,0.4-0.4S537.1,198,536.9,198z"/>
	<path class="st1" d="M603.4,219.9H595v-42.2h8.4V219.9z M598,216.9h2.4v-36.2H598V216.9z"/>
</g>
<g id="Vanster">
	<path class="st1" d="M34,384.3h-8.4v-8.4h1.5c3.8,0,6.9,3.1,6.9,6.9V384.3z M28.6,381.3h2.1c-0.4-1-1.2-1.7-2.1-2.1V381.3z"/>
	<path class="st1" d="M27.1,21h-1.5v-8.4H34V14C34,17.9,30.9,21,27.1,21z M28.6,15.5v2.1c1-0.4,1.7-1.2,2.1-2.1H28.6z"/>
	<path class="st1" d="M117.5,239.3l-2.4-1.2v-79.3l2.4-1.2c22.5,16.9,27.1,49.1,10.1,71.6C124.7,233,121.3,236.4,117.5,239.3z
		 M118.1,161.9V235c2.6-2.3,5-4.8,7.1-7.6C140.5,207,137.2,178.3,118.1,161.9z"/>
	<path class="st1" d="M118.1,309.2H25.6V88.1h92.5V309.2z M28.6,306.2h86.5V91.1H28.6V306.2z"/>
	<path class="st1" d="M58.4,249.6H25.6V147.8h32.8V249.6z M28.6,246.6h26.8v-95.8H28.6V246.6z"/>
	<path class="st1" d="M28.6,219.8h-8.4v-42.2h8.4V219.8z M23.2,216.8h2.4v-36.2h-2.4V216.8z"/>
	<path class="st1" d="M86.8,201c-1.4,0-2.6-1.2-2.6-2.6s1.2-2.6,2.6-2.6s2.6,1.2,2.6,2.6S88.2,201,86.8,201z M86.8,198
		c-0.2,0-0.4,0.2-0.4,0.4s0.2,0.4,0.4,0.4s0.4-0.2,0.4-0.4S87,198,86.8,198z"/>
</g>
</svg>
