<?xml version="1.0" encoding="utf-8"?>
<!-- Generator: Adobe Illustrator 16.0.4, SVG Export Plug-In . SVG Version: 6.00 Build 0)  -->
<!DOCTYPE svg PUBLIC "-//W3C//DTD SVG 1.1//EN" "http://www.w3.org/Graphics/SVG/1.1/DTD/svg11.dtd">
<svg version="1.1" id="Loader" xmlns="http://www.w3.org/2000/svg" xmlns:xlink="http://www.w3.org/1999/xlink" x="0px" y="0px"
	 width="841.9px" height="595.3px" viewBox="0 0 841.9 595.3" enable-background="new 0 0 841.9 595.3" xml:space="preserve">
<g id="Body">
	<g>
		<path fill-rule="evenodd" clip-rule="evenodd" fill="#2B333B" d="M-75.8-93.5c0,7.1-0.1,14.1-0.1,21.2c0,2.3,0,2.3-2.3,2.3
			c-11.2,0-22.4,0-33.6,0.1c-1.6,0-2-0.4-2-2c0.1-7.2,0-14.4,0-21.6c0.6,0,1.2-0.1,1.8-0.1c8.6,0,17.1,0,25.7,0
			C-82.9-93.7-79.4-93.9-75.8-93.5z M-94.8-71.4c5.3,0,10.7,0,16,0c1,0,1.5-0.1,1.5-1.3c-0.1-6-0.1-12.1,0-18.1
			c0-1.3-0.5-1.6-1.7-1.6c-3.6,0.1-7.2,0-10.7,0c-7,0-14,0-21.1,0c-1.3,0-1.6,0.3-1.6,1.6c0.1,5.9,0,11.9,0,17.8
			c0,1.2,0.3,1.7,1.6,1.7C-105.5-71.4-100.2-71.4-94.8-71.4z"/>
		<path fill-rule="evenodd" clip-rule="evenodd" fill="#CFA430" d="M-94.8-71.4c-5.3,0-10.7,0-16,0c-1.3,0-1.6-0.5-1.6-1.7
			c0.1-5.9,0.1-11.9,0-17.8c0-1.3,0.3-1.6,1.6-1.6c7,0.1,14,0,21.1,0c3.6,0,7.2,0,10.7,0c1.2,0,1.7,0.3,1.7,1.6
			c-0.1,6-0.1,12.1,0,18.1c0,1.2-0.5,1.3-1.5,1.3C-84.2-71.4-89.5-71.4-94.8-71.4z M-98.9-80.7c-0.7-0.1-1.1,0.2-1.3,0.9
			c-0.3,1.2-0.6,2.4-0.9,3.6c-0.1,0.5-0.7,1.2,0.4,1.3c0.7,0.1,1.5,0.2,1.7-0.8c0.3-1.3,0.6-2.7,1-4C-97.6-80.6-98-80.8-98.9-80.7z
			 M-91.1-83c0.6,0.1,1.1-0.1,1.2-0.9c0.3-1.2,0.6-2.4,0.9-3.7c0.1-0.5,0.6-1.2-0.5-1.4c-0.7-0.1-1.5-0.1-1.7,0.9
			c-0.3,1.3-0.6,2.7-1,4C-92.3-83.2-91.9-83-91.1-83z M-100.5-83c0.8,0.1,1.2-0.2,1.3-1c0.2-1.2,0.6-2.3,0.9-3.5
			c0.1-0.5,0.6-1.2-0.4-1.4c-0.8-0.1-1.6-0.1-1.8,0.9c-0.3,1.3-0.6,2.7-0.9,4C-101.7-83.1-101.2-83-100.5-83z M-95.4-74.8
			c0.7,0.2,1.1-0.3,1.2-1c0.2-1.1,0.6-2.2,0.8-3.3c0.1-0.5,0.8-1.3-0.3-1.6c-0.8-0.2-1.6-0.1-1.8,1.1c-0.2,1.2-0.5,2.4-0.9,3.6
			C-96.7-75.1-96.5-74.7-95.4-74.8z M-85.9-74.8c0.7,0.1,1.1-0.2,1.2-0.9c0.3-1.3,0.7-2.5,0.9-3.8c0.1-0.4,0.5-1.1-0.4-1.2
			c-0.7,0-1.5-0.3-1.7,0.7c-0.3,1.3-0.7,2.6-1,4C-87.1-75.2-86.8-74.7-85.9-74.8z M-88.5-80.1c0-0.1,0.1-0.6-0.5-0.6
			c-0.7,0-1.5-0.3-1.8,0.7c-0.3,1.3-0.7,2.5-0.9,3.8c-0.1,0.5-0.7,1.2,0.4,1.4c0.7,0.1,1.5,0.2,1.7-0.8
			C-89.2-77-88.9-78.4-88.5-80.1z M-102.9-88c0.1-0.5,0.2-1-0.5-1c-0.7,0-1.4-0.1-1.6,0.8c-0.3,1.3-0.7,2.5-0.9,3.8
			c-0.1,0.5-0.7,1.2,0.4,1.3c0.7,0.1,1.5,0.1,1.7-0.9C-103.6-85.3-103.3-86.6-102.9-88z M-95.8-83c0.8,0.1,1.2-0.3,1.3-1.1
			c0.2-1.1,0.5-2.2,0.8-3.3c0.1-0.6,0.7-1.3-0.4-1.5c-0.8-0.2-1.5,0-1.8,1c-0.3,1.3-0.5,2.6-0.9,3.8C-97.1-83.1-96.6-83-95.8-83z
			 M-84.1-88.2c0-0.3,0.1-0.8-0.6-0.8c-0.6,0-1.4-0.2-1.6,0.7c-0.3,1.3-0.7,2.5-0.9,3.8c-0.1,0.5-0.7,1.2,0.4,1.4
			c0.7,0.1,1.4,0.1,1.7-0.9C-84.9-85.3-84.5-86.6-84.1-88.2z M-102.6-79.9c0.1-0.7-0.2-0.8-0.7-0.9c-0.7,0-1.3-0.1-1.5,0.8
			c-0.3,1.3-0.6,2.6-1,3.8c-0.1,0.5-0.5,1.1,0.4,1.2c0.6,0.1,1.4,0.3,1.6-0.6C-103.3-77-103-78.5-102.6-79.9z"/>
		<path fill-rule="evenodd" clip-rule="evenodd" fill="#2B333B" d="M-98.9-80.7c0.9-0.1,1.3,0.1,1,1.1c-0.4,1.3-0.7,2.6-1,4
			c-0.2,1-1,0.9-1.7,0.8c-1.1-0.1-0.5-0.8-0.4-1.3c0.3-1.2,0.6-2.4,0.9-3.6C-100-80.5-99.6-80.8-98.9-80.7z"/>
		<path fill-rule="evenodd" clip-rule="evenodd" fill="#2B333B" d="M-91.1-83c-0.8,0.1-1.2-0.1-1-1c0.4-1.3,0.7-2.7,1-4
			c0.2-1,0.9-1,1.7-0.9c1.1,0.1,0.6,0.9,0.5,1.4c-0.3,1.2-0.6,2.4-0.9,3.7C-90-83.2-90.5-83-91.1-83z"/>
		<path fill-rule="evenodd" clip-rule="evenodd" fill="#2B333B" d="M-100.5-83c-0.7,0-1.2-0.1-0.9-1c0.4-1.3,0.7-2.7,0.9-4
			c0.2-1.1,1-1.1,1.8-0.9c1,0.2,0.5,0.9,0.4,1.4c-0.3,1.2-0.6,2.3-0.9,3.5C-99.3-83.3-99.7-82.9-100.5-83z"/>
		<path fill-rule="evenodd" clip-rule="evenodd" fill="#2B333B" d="M-95.4-74.8c-1,0.1-1.2-0.3-1-1.2c0.4-1.2,0.7-2.4,0.9-3.6
			c0.2-1.2,1-1.3,1.8-1.1c1.1,0.2,0.4,1,0.3,1.6c-0.2,1.1-0.5,2.2-0.8,3.3C-94.4-75.1-94.7-74.6-95.4-74.8z"/>
		<path fill-rule="evenodd" clip-rule="evenodd" fill="#2B333B" d="M-85.9-74.8c-0.9,0.1-1.2-0.3-1-1.2c0.3-1.3,0.7-2.6,1-4
			c0.2-1.1,1-0.8,1.7-0.7c1,0,0.5,0.7,0.4,1.2c-0.3,1.3-0.7,2.5-0.9,3.8C-84.8-75-85.2-74.7-85.9-74.8z"/>
		<path fill-rule="evenodd" clip-rule="evenodd" fill="#2B333B" d="M-88.5-80.1c-0.4,1.7-0.8,3.1-1.1,4.5c-0.2,1-1,0.9-1.7,0.8
			c-1.1-0.1-0.5-0.9-0.4-1.4c0.3-1.3,0.6-2.5,0.9-3.8c0.3-1,1.1-0.7,1.8-0.7C-88.3-80.6-88.4-80.2-88.5-80.1z"/>
		<path fill-rule="evenodd" clip-rule="evenodd" fill="#2B333B" d="M-102.9-88c-0.3,1.3-0.7,2.7-1,4c-0.2,1-0.9,1-1.7,0.9
			c-1.1-0.1-0.5-0.9-0.4-1.3c0.3-1.3,0.6-2.6,0.9-3.8c0.2-0.9,0.9-0.8,1.6-0.8C-102.7-88.9-102.8-88.5-102.9-88z"/>
		<path fill-rule="evenodd" clip-rule="evenodd" fill="#2B333B" d="M-95.8-83c-0.8,0.1-1.3-0.1-0.9-1.1c0.4-1.2,0.7-2.5,0.9-3.8
			c0.2-1,1-1.2,1.8-1c1.1,0.2,0.5,1,0.4,1.5c-0.2,1.1-0.6,2.2-0.8,3.3C-94.6-83.4-95-82.9-95.8-83z"/>
		<path fill-rule="evenodd" clip-rule="evenodd" fill="#2B333B" d="M-84.1-88.2c-0.4,1.6-0.8,2.9-1.1,4.2c-0.2,1-0.9,1-1.7,0.9
			c-1.1-0.1-0.5-0.9-0.4-1.4c0.2-1.3,0.6-2.6,0.9-3.8c0.2-0.9,1-0.7,1.6-0.7C-84-88.9-84.1-88.4-84.1-88.2z"/>
		<path fill-rule="evenodd" clip-rule="evenodd" fill="#2B333B" d="M-102.6-79.9c-0.3,1.4-0.7,2.9-1.1,4.4c-0.2,0.9-1,0.7-1.6,0.6
			c-0.9-0.1-0.5-0.7-0.4-1.2c0.3-1.3,0.7-2.5,1-3.8c0.2-0.9,0.8-0.9,1.5-0.8C-102.9-80.7-102.5-80.6-102.6-79.9z"/>
	</g>
	<path fill-rule="evenodd" clip-rule="evenodd" fill="#FBBD15" d="M96.7-46.9c-0.5-0.2-0.9-0.4-1.3-0.7l-5.8-5.4
		c2.6-0.3,5.3-0.1,8,0.1c0.3,0,0.6-0.1,0.9-0.1c2.8,0,5.5,0,8.9,0c-1.9-2-3.3-3.6-5.1-5c-5.7,0.4-11.4-0.4-17.1,0.3
		c0-5.6,0-11.4,0-17.2c-0.1-0.5-0.6-0.7-0.7-1.2c-1.2-10.4-10-15.6-14-18.2S58-93,55.8-88.8c0,0.2,4,7.9,4.1,8
		c3,4.7,2.4,9.4,0.9,14.4c-0.8,2.6-1.5,5.2-2.2,7.9l0,0c0,0,0,0.1,0,0.2c-0.8,3.2-1.6,6.5-2.4,9.7c-0.3,1-0.7,1.9-1,2.4
		c-2.6,0.8-5.3,0.3-7.9,0.3C30.8-46,14.5-46.2-1.9-46.4c-3.6,0-7.2-0.1-10.8-0.2c-0.9,0-1.5-0.3-2.1-0.9C-20-52.2-25.2-57-30.4-61.8
		c-0.8-0.7-1-1.5-1-2.5c0-4.8,0-9.6,0-14.4c0-0.7-0.1-1.4-0.2-2.2c-1.9-0.1-3.9,0.3-5.8-0.3c-3.1,0-6.2,0-9.3,0
		c-7.3,0-14.5-0.1-21.8-0.1c-2.6,0-5.2,0-7.8,0v-0.3H-108c-0.8,0-1.5,0-2.3-0.1c-1.2,0-2.4,0-3.6,0c-1.7,0-3.4,0-5.1,0
		c-0.4,0-0.7,0-1.1,0.1h-6.1c-1.6,0-3.2,0.1-4.8,0.3c-1.1,0.2-1.5,0.3-1.5,1.5c0,1.8-0.1,3.6-0.1,5.4c0,1.3-0.6,1.7-1.8,1.5
		c-2.6-0.3-5.3-0.5-8-0.3c0,13.6,0,27.3,0,40.9c2.4,1.4,4.8,2.9,7.3,4.2c0.9,0.5,1.2,1,1.2,2c-0.2,3.3-0.2,6.5-0.4,9.8
		c-0.1,1.3,0.4,1.9,1.5,2.4c5,1.9,9.9,3.9,14.9,5.9l15.6,6.2c0,0,68,8,86,8.8c0.1,0,0.1,0,0.2,0.1c0.5,0,1,0,1.5,0
		c0.3,0,0.5,0,0.7,0c0,0,0.1,0,0.1,0c5.2,0,10.4-0.1,15.6,0c19.8,0,39.6,0,59.4,0l0,0h30l9.3-30.9l-0.5-18.1
		C100.3-44.4,99-45.9,96.7-46.9z"/>
	<g>
		<path fill-rule="evenodd" clip-rule="evenodd" fill="#555554" d="M-101-56.7c-0.7,0-1.5,0-2.2-0.1c0-3.6-0.1-7.2-0.1-10.8
			c0-1-0.4-1.5-1.3-1.7c-1-0.2-1.5,0.5-1.7,1.3c-0.2,0.6-0.2,1.2-0.2,1.8c0,3.1,0,6.3-0.1,9.4c-1,0-2.1,0-3.1,0c0-3.3,0-6.7,0-10
			c0-1.2-0.1-2.5-1.6-2.5c-1.5,0-1.6,1.3-1.6,2.5c0,3.3,0,6.7-0.1,10c-0.9,0-1.8,0-2.8-0.1c0-3.3,0-6.5,0-9.8c0-1.2-0.1-2.6-1.8-2.6
			c-1.8,0-1.4,1.4-1.4,2.5c-0.1,3.3,0.2,6.6-0.4,9.9c-1.7,0-3.4,0-5.1,0c0-4.3,0-8.5,0-12.8c0-2.8,0.9-3.6,3.6-3.6
			c14.5,0,29,0,43.4,0c2.8,0,3.6,0.8,3.6,3.6c0,4.4,0,8.8,0,13.2c-7.9,0-15.9,0-23.8,0.1c-0.2,0-0.5,0-0.7,0l0-0.2
			c0.7-0.4,1.1-0.9,1-1.9c-0.1-2.4,0-4.9,0.1-7.4c0-0.6,0.1-1.2-0.1-1.8c-0.2-1-0.7-1.7-1.9-1.6c-1.2,0.1-1.2,1-1.2,1.9
			c0,1.9,0.1,3.9,0,5.8C-100.6-60-100.2-58.3-101-56.7z"/>
		<path fill-rule="evenodd" clip-rule="evenodd" fill="#2F2F2E" d="M-113-56.8c0-3.3,0.1-6.7,0.1-10c0-1.2,0.1-2.5,1.6-2.5
			c1.5,0,1.6,1.2,1.6,2.5c0,3.3,0,6.7,0,10C-110.8-56.5-111.9-56.5-113-56.8z"/>
		<path fill-rule="evenodd" clip-rule="evenodd" fill="#2F2F2E" d="M-101-56.7c0.9-1.6,0.4-3.3,0.4-4.9c0.1-1.9,0-3.9,0-5.8
			c0-0.9,0-1.8,1.2-1.9c1.2-0.1,1.7,0.7,1.9,1.6c0.1,0.6,0.1,1.2,0.1,1.8c0,2.5-0.2,4.9-0.1,7.4c0.1,1-0.3,1.4-1,1.9
			C-99.3-56.5-100.2-56.2-101-56.7z"/>
		<path fill-rule="evenodd" clip-rule="evenodd" fill="#2F2F2E" d="M-119.4-56.8c0.6-3.3,0.3-6.6,0.4-9.9c0-1.1-0.4-2.5,1.4-2.5
			c1.7,0,1.8,1.4,1.8,2.6c0,3.3,0,6.5,0,9.8C-117-56.8-118.2-56.8-119.4-56.8z"/>
		<path fill-rule="evenodd" clip-rule="evenodd" fill="#2F2F2E" d="M-106.6-56.8c0-3.1,0-6.3,0.1-9.4c0-0.6,0-1.2,0.2-1.8
			c0.2-0.8,0.7-1.5,1.7-1.3c0.9,0.2,1.3,0.7,1.3,1.7c0,3.6,0,7.2,0.1,10.8C-104.4-56.6-105.5-56.6-106.6-56.8z"/>
	</g>
	<path fill-rule="evenodd" clip-rule="evenodd" fill="#2B333B" d="M-57.7-107.7c0-0.9-0.3-1.4-1.2-1.2c-1.8,0.3-2.3-0.5-2.1-2.2
		c0.1-0.8,0-1.7,0-2.5c0-0.4,0-0.8-0.5-1c-2.7-1.6-5.4-3.3-8.3-5c0,0.5,0,0.7,0,0.9c-0.2,2.9-0.1,5.6,3,7.1c1,0.5,0.8,1.5,0.6,2.2
		c-0.2,0.8-1,0.4-1.6,0.4c-1.4-0.2-1.7,0.5-1.6,1.7c0.1,2.7,0.1,5.4,0,8.1c-0.1,1.5,0.2,2.3,1.9,2c0.7-0.1,1.1,0,1.3,0.4v15.9h5.1
		v-15c0,0,0,0,0.1,0c-0.1-1.5,1-1.3,2-1.3c1.1,0.1,1.5-0.2,1.5-1.4C-57.8-101.5-57.7-104.6-57.7-107.7z"/>
	<path fill-rule="evenodd" clip-rule="evenodd" fill="#555554" d="M42.4,6.5c-0.6-0.3-0.4-0.6-0.4-1c0-0.8,0-1.5,0-2.3
		C41.7,3.1,41.3,3,41,3c-2.7,0.5-4.4-0.5-5.2-3.1c-0.2-0.6-0.6-1.2-1-1.8c-0.8-1.1-0.8-1.9,0.4-2.8c1.3-1.1,0.7-2.8,0.8-4.3
		c0.1-0.7-0.8-0.4-1.3-0.4c-4.1,0-8.2,0-12.2,0c-4,0-7.9,0-11.9,0H9.3C8.3-9.4,8-9.8,8.1-11c0.1-2,0.1-3.9,0.1-5.9
		c0-4.3,0-8.7-0.1-13c0-1.5,0.7-3.5-0.3-4.3c-0.9-0.7-2.8-0.3-4.3-0.3c-6.2,0-12.5-0.1-18.7-0.1c-0.1,2.7-0.2,5.3-0.1,8h0v13.3l0,0
		c0,0.3-0.1,0.7-0.1,1c0,0.2,0.1,0.3,0.1,0.5c0,0,0,0,0,0v2.4h-0.2c0,0-0.1-0.1-0.1-0.1c-0.9-0.5-1.8-0.1-2.7,0.1h-2.1c0,0,0,0,0,0
		c-0.6,0-1.2,0-1.8,0H-23l0,0c-1,0-1.9,0-2.9,0c-0.9,0-1.2,0.3-1,1.2c0.2,0.7,0.3,1.5,0.2,2.3c-0.1,0.4,0,0.8,0.4,1.1
		c1.6,1.7,1.5,1.7,0,3.8c0,0.9-0.5,1.6-1.2,2.1c-0.1,1.6-1.1,2.2-2.6,2c-1.2-0.1-2.5-0.3-3.7,0.2c0,0.2,0,0.3,0,0.5l0,0
		c-1-0.4-1,3-1,4.9c0,0.1,0,0.2,0,0.3c0,0.2,0,0.4,0,0.6c-0.1,1.3,4.1-0.1,6.1-0.1l0,0c23.4,0,46.8,0,70.2,0c0.5,0,1.4,0.4,1.4-0.4
		C42.9,8.2,43.6,7.1,42.4,6.5z M-1.8-14.7L-1.8-14.7c1.9,0,3.8,0,5.7,0c1.3,0,1.6,0.4,1.6,1.6c0,3.8-7.6,3.8-3.8,3.8
		c6.3,0-0.1,0-11.6,0c-2.7,0-2.8,0-3-2.5v-2.9H-1.8z M-13-29.9c0-1,0.2-1.4,1.4-1.4c5.2,0.1,10.3,0,15.5-0.1c1.2,0,1.9,0.3,1.8,1.7
		c-0.1,3.5-0.1,6.9,0,10.4c0,1.1-0.3,1.5-1.5,1.5c-2,0-4,0-6,0h-5.6c0,0,0,0,0,0c-0.4,0-0.8,0-1.2,0H-13v-8.8h0
		C-13-27.7-13-28.8-13-29.9z"/>
	<path fill-rule="evenodd" clip-rule="evenodd" fill="#555554" d="M-119.4-18.6c0-1.5-0.1-3-0.1-4.5c0-0.9-0.3-1.3-1.2-1.3
		c-2.7,0.1-5.5-0.4-8,1.2c-0.8,0.5-1.8,0.3-2.6,0.2c-1.2,0-0.8-1-0.8-1.6c0-5.2,0-10.3,0-15.5c0-0.8,0.1-1.6-0.2-2.3l0-0.3h-14.2
		v0.4c0,0.1,0,0.1,0,0.2c0-0.2,0-0.4,0-0.6c-1.1,0.9-0.2,2.5-0.5,3.5c-0.4,0.2-0.7,0.2-1.1,0.3h-1v0c-0.5,0-1-0.1-1.5-0.1
		c-0.8,0-1,0.3-1,1c0,2.8,0,5.5,0,8.3c0,0.4,0,0.8,0.4,0.9v0h0.4c0.1,0,0.3,0.1,0.4,0.1c3.2,0.1,3.2,0.1,3.6,3.3
		c-0.2,0.6,0,1,0.4,1.5c3.3,3.7,6.5,7.4,9.7,11.1c0.4,0.5,0.9,0.7,1.6,0.7c4.9,0,9.7,0,14.6,0c0.9,0,1.1-0.3,1.1-1.1
		C-119.5-15-119.8-16.8-119.4-18.6z"/>
	<path fill-rule="evenodd" clip-rule="evenodd" fill="#2B333B" d="M-145.6-69.5c2.6,0,5.2,0.1,7.8,0.1c1.2,0,1.8,0.4,1.7,1.7
		c-0.1,3-0.1,6,0,9c0,1.2-0.5,1.7-1.5,2.2c-2.8,1.4-5.5,2.9-8.2,4.3c-1.5-0.2-3.3,1.2-4.3-0.9c-0.4-3.1,1.8-3.6,4-4
		c1.1-1.9,0.3-3.9,0.6-5.9c0.2-1.4-0.5-1.9-1.8-1.8c-0.7,0.1-1.4,0.1-2.2,0.1c-0.6,0-1.3,0-1.9,0c-0.1-0.1-0.2-0.1-0.4,0
		c-1.7-0.7-1.9-2.5-2.8-3.7c-0.8-1.1,0.4-1,1.1-1.1C-150.8-69.5-148.2-68.8-145.6-69.5z"/>
	<path fill-rule="evenodd" clip-rule="evenodd" fill="#EAB622" d="M-149.4-64.5c0.7,0,1.4-0.1,2.2-0.1c1.3-0.1,2,0.3,1.8,1.8
		c-0.3,2,0.6,4-0.5,5.9c-1.9-0.2-3.8-0.4-3.5-3c0-0.5,0-1,0-1.5c0.3-0.9,0.3-1.8,0-2.7C-149.5-64.3-149.5-64.4-149.4-64.5z"/>
	<path fill-rule="evenodd" clip-rule="evenodd" fill="#2B333B" d="M64.9-50.5c0.3-0.2,0.7-0.3,1.4-0.5c4.4-1.2,8.6-2.9,13.1-3.8
		c1.8-0.9,3.9-1.2,5.8-1.9c1-0.4,2.7-3.8,2.2-4.7c-0.3-0.6-1-0.3-1.4-0.3c-5.5,0-11-0.1-16.5-0.1c-3.2,0-6.5,0.1-9.7,0.1
		c-1.2,0-1.8,0.4-2.3,1.5c-0.8,2-1.5,4-2.9,5.7c0,0.1,0.1,0.2,0.1,0.3c0,0-0.1,0.1-0.1,0.1l0,0c-1.2,3.6-3.1,7-4.6,10.5
		c-1.4,3.2-2.9,6.4-4.4,9.7c-0.5,1-0.5,1.6,0.9,1.5c0.1,0,0.1,0,0.2,0c6.8-0.3,4.8,0.8,8.7-4.6c1.8-2.6,3.7-5.1,5.5-7.7
		C60.8-44.9,62.6-49.1,64.9-50.5z"/>
	<g id="Cab">
		<g id="Roof">
			<path fill-rule="evenodd" clip-rule="evenodd" fill="#EAB622" d="M32.3-127.9c-0.4-1.5-0.9-3-1.2-4.5c-0.2-0.8-0.5-1.2-1.4-1.2
				c-11.4,0-22.7,0-34.1,0.1c-2.6-0.2-5.2-0.2-7.9,0.1c-3.2-0.7-5.9,0.2-8.4,2.2c-1.3,1-2.7,1.3-4.3,1.3c-5.1,0-10.2,0.1-15.2,0.1
				c-3.3-0.4-3.3-0.4-3-3.9c0.2-2.1,1.4-3.8,1.9-5.8c0.2-0.8,1.1-0.6,1.7-0.6c3.6-0.1,7.2,0.2,10.8-0.1c1.2,0.2,2.4,0.2,3.7,0
				c0.9,0.3,1.7,0.2,2.6,0c3,0.4,6.1,0.1,9.2,0.2c10.7,0,21.3,0,32-0.1c0.6,0,1.2-0.1,1.8-0.2c2.2,0.2,4.5,0.3,6.7,0
				c0.7,0.1,1.3,0.2,2,0.2c7.1,0,14.2,0,21.2,0c1.5,0,1.8,0.3,0.9,1.7c-1.9,3.2-3.8,6.4-5.6,9.6c-0.5,0.8-1.2,0.9-2,0.9
				C39.8-127.9,36-127.9,32.3-127.9z"/>
			<path fill-rule="evenodd" clip-rule="evenodd" fill="#CFA430" d="M-40.2-56.6c0,2.1,0,4.2,0,6.3c0,1-0.3,1.4-1.3,1.4
				c-2.3-0.1-4.6-0.1-6.8,0c-1.1,0-1.3-0.4-1.3-1.4c0-4.2,0-8.4,0-12.6c0-1.1,0.3-1.6,1.5-1.6c2.2,0.1,4.3,0.1,6.5,0
				c1.1,0,1.5,0.3,1.5,1.4C-40.3-60.9-40.2-58.8-40.2-56.6z"/>
			<path fill-rule="evenodd" clip-rule="evenodd" fill="#EAB622" d="M3.8-63.9c-2,0-4,0-5.9,0c-1.1,0-1.2-0.5-1.1-1.3
				c0-0.8-0.1-1.6,1.1-1.6c4.1,0,8.1,0,12.2,0c1.2,0,1.1,0.7,1.2,1.5c0,1-0.2,1.4-1.3,1.4C7.9-63.9,5.9-63.8,3.8-63.9
				C3.8-63.9,3.8-63.9,3.8-63.9z"/>
		</g>
		<path fill-rule="evenodd" clip-rule="evenodd" fill="#2B333B" d="M49.6-66.4c-0.5-1.9-5-13.6-6.9-20.7c-1.6-6.1-3.2-12.3-4.7-18.4
			c-1.9-7.5-3.8-14.9-5.7-22.4c-0.4-1.5-0.9-3-1.2-4.5c-0.2-0.8-0.5-1.2-1.4-1.2c-9,0-17.9,0-26.9,0.1h-15.6
			c-2.9-0.5-5.5,0.4-7.9,2.3c-1.3,1-2.7,1.3-4.3,1.3c-5.1,0-10.2,0.1-15.2,0.1c0,13.8,0,27.6,0.1,41.4c0,1.2-0.5,1.4-1.5,1.3
			c-3.1-0.1-6.1,0-9.2,0c-1.3,0-1.8,0.2-1.8,1.7c0.1,4.9,0,9.7,0,14.6c0,7.9,0,15.8,0.1,23.7c0,0.7-0.3,1.4,0.4,2c0.2,0,0.5,0,0.7,0
			c0.6,0,1.2,0,1.8,0c0.2,0,0.5,0,0.7,0c3.7,0,7.5,0,11.2,0c0.3,0,0.7,0,1,0c4.6,0,9.2,0,13.7,0c3.1-0.2,6.2-0.2,9.3,0
			c9.5,0,19,0,28.5,0c2-0.2,4-0.1,6.1,0c1.1,0,2.1,0,3.2,0c1,0,0.9,0.7,0.9,1.4c0,2.3,0,4.5,0,6.8c1.1,0.6,2.3,0.3,3.5,0.3
			c2.8,0.1,5.6,0.1,8.3,0.1c2-2.1,2.7-4.9,4.3-7.2c0.6-0.8,0.9-1.7,1.4-2.5c1.9-1.5,2.6-1.8,5.1-1.9c2.5-0.1,2-0.7,2.2-4.4
			S50.1-64.5,49.6-66.4z M-40.2-56.6c0,2.1,0,4.2,0,6.3c0,1-0.3,1.4-1.3,1.4c-2.3-0.1-4.6-0.1-6.8,0c-1.1,0-1.3-0.4-1.3-1.4
			c0-4.2,0-8.4,0-12.6c0-1.1,0.3-1.6,1.5-1.6c2.2,0.1,4.3,0.1,6.5,0c1.1,0,1.5,0.3,1.5,1.4C-40.3-60.9-40.2-58.8-40.2-56.6z
			 M-40.3-70.9c0.2,2.8,0.2,2.8-2.4,2.8c-1.4,0-2.9,0-4.3,0c-2.8,0-2.8,0-2.6-2.8c0-3.9,0-7.8-0.1-11.7c0-0.8,0.3-1,1-1
			c2.5,0,4.9,0,7.4,0c0.7,0,1.1,0.2,1.1,1C-40.3-78.7-40.3-74.8-40.3-70.9z M10-63.8c-2-0.1-4.1,0-6.1,0c0,0,0,0,0,0c-2,0-4,0-5.9,0
			c-1.1,0-1.2-0.5-1.1-1.3c0-0.8-0.1-1.6,1.1-1.6c4.1,0,8.1,0,12.2,0c1.2,0,1.1,0.7,1.2,1.5C11.3-64.3,11-63.8,10-63.8z"/>
		<path fill-rule="evenodd" clip-rule="evenodd" fill="#CFA430" d="M-40.3-70.9c0.2,2.8,0.2,2.8-2.4,2.8c-1.4,0-2.9,0-4.3,0
			c-2.8,0-2.8,0-2.6-2.8c0-3.9,0-7.8-0.1-11.7c0-0.8,0.3-1,1-1c2.5,0,4.9,0,7.4,0c0.7,0,1.1,0.2,1.1,1
			C-40.2-78.7-40.3-74.8-40.3-70.9z"/>
	</g>
	<g id="Window">
		<path fill-rule="evenodd" clip-rule="evenodd" fill="#FEFEFE" d="M9.4-127.9c0.8,0,1.6,0,2.5,0.1c-2.8,7.2-5.5,14.4-8.3,21.6
			C0-97.2-3.6-88.2-7.1-79.1C-8-77-8.5-74.8-9.8-72.9c-2.6,0-5.3,0-7.9,0c-0.8,0-1.2-0.2-1.2-1.1c0.1-12.7,0.1-25.4,0.2-38.1
			c1.6-0.6,1.4-2.2,1.9-3.4c1.7-4.2,3.9-8.1,5.3-12.5c0.5,0,1,0,1.4,0C-3.6-127.9,2.9-127.6,9.4-127.9z"/>
		<path fill-rule="evenodd" clip-rule="evenodd" fill="#FEFEFE" d="M23.4-52.8c-2.1,0-1.8-0.6-1.8-2.2c0-19.4,0-37.9,0-57.3
			c0-0.1,0-0.2,0-0.4c0-4.7-0.1-9.4-0.1-14.2c0-0.4-0.2-1,0.5-1c1.5,0.1,3.1-0.5,4.6,0.4c1.8,6.7,3.6,13.3,5.4,20
			c1.3,4.8,2.5,9.7,3.7,14.5c1.5,4.2,2.3,8.5,3.5,12.8c1.2,4,2,8.1,3.2,12.1l-0.1,15.3c-0.1,0-0.3,0.1-0.5,0.1
			C35.7-52.8,29.6-52.5,23.4-52.8z"/>
		<path fill-rule="evenodd" clip-rule="evenodd" fill="#9ECDC3" d="M-9.8-72.9c1.2-1.9,1.8-4.2,2.6-6.3c3.6-9,7.2-18.1,10.7-27.2
			c2.8-7.2,5.5-14.4,8.3-21.6c0,0,0.2-0.1,0.4,0c2.5,0,2.5,0,2.5,2.6c0,11.4,0,22.8,0,34.2c0,0.5,0,1-0.1,1.4
			c-0.4,1.3-0.9,2.6-1.3,3.9c-1.2,4.3-3,8.5-3.9,12.9C3-72.9-3.4-72.9-9.8-72.9z"/>
		<path fill-rule="evenodd" clip-rule="evenodd" fill="#9ECDC3" d="M23.4-52.9c1.2-4,2.3-8,3.5-12c1.6-5.3,3.1-10.6,4.7-15.9
			c1.1-3.7,2.4-7.5,3.3-11.3c0.1-0.4,0.4-0.7,0.8-0.9c1.5,4.2,2.3,8.5,3.5,12.8c1.3,4.3,2.1,8.7,3.5,13c0.4,1.4,0.2,3.1,0.2,4.6
			c0,2.8,0,5.6,0,8.5c0,0.7,0,1.3-1,1.3C35.8-52.9,29.6-52.6,23.4-52.9z"/>
		<path fill-rule="evenodd" clip-rule="evenodd" fill="#9ECDC3" d="M-28.4-87.3c-1.8,0-3.6,0-5.4,0.1c-1,0-1.2-0.4-1.2-1.3
			c0-12.8,0-25.5,0-38.3c0-0.9,0.3-1.1,1.2-1.2c2.3-0.2,4.5,0,6.8,0c0.9,0,1.1,0.3,1.1,1.1c-0.1,11.1-0.1,22.2-0.1,33.2
			C-27-91.6-27.9-89.5-28.4-87.3z"/>
		<path fill-rule="evenodd" clip-rule="evenodd" fill="#9ECDC3" d="M-35-78.3c0-0.1,0-0.1,0-0.2c0-5.6,0-5.6,5.8-5.1
			c0.8,0.1,1,0.3,1,1.1c0,2.9,0,5.7,0,8.6c0,0.8-0.3,1.2-1.1,1.2c-1.5,0-3,0-4.5,0c-1,0.1-1.2-0.4-1.2-1.3
			C-34.9-75.4-35-76.9-35-78.3C-35-78.3-35-78.3-35-78.3z"/>
		<path fill-rule="evenodd" clip-rule="evenodd" fill="#9ECDC3" d="M-11.5-127.9c-1.3,4.3-3.5,8.4-5.3,12.5
			c-0.5,1.2-0.4,2.8-1.9,3.4c-0.4-5-0.2-10.1-0.2-15.2c0-1.1,0.9-0.8,1.7-0.8S-13.7-127.9-11.5-127.9z"/>
		<path fill-rule="evenodd" clip-rule="evenodd" fill="#9ECDC3" d="M26.7-127.5c-1.4,4.3-2.8,8.5-4.2,12.8c-0.2,0.7-0.5,1.3-0.8,2
			c0-4.7-0.1-9.4-0.1-14.2c0-0.4-0.2-1,0.4-1C23.6-127.8,25.2-128.4,26.7-127.5z"/>
		<path fill-rule="evenodd" clip-rule="evenodd" fill="#FEFEFE" d="M-28.4-87.3c0.5-2.2,1.4-4.3,2.4-6.3c0,1.7,0.1,3.4,0.1,5.1
			C-25.9-87.5-26.3-87.3-28.4-87.3z"/>
		<path fill-rule="evenodd" clip-rule="evenodd" fill="#939291" d="M12.2-127.9"/>
		<path fill-rule="evenodd" clip-rule="evenodd" fill="#FEFEFE" d="M-31.8-72.7c0.5-2.2,2.6-7.8,3.7-9.8c0,1.7,0,6.9,0,8.6
			C-28.2-72.7-28.6-72.7-31.8-72.7z"/>
	</g>
</g>
<g id="Wheel">
	<path id="Hub" fill-rule="evenodd" clip-rule="evenodd" fill="#EAB622" d="M20.7,0.2c0,11.3-9.2,20.6-20.5,20.6
		c-11.4,0-20.6-9.2-20.7-20.6c0-11.3,9.3-20.6,20.7-20.5C11.4-20.3,20.7-11,20.7,0.2z"/>
	<path id="Tire" fill-rule="evenodd" clip-rule="evenodd" fill="#2F2F2E" d="M42.5,8.4c-0.8-0.4-2.3-0.2-1.9-1.7
		c0.3-1.3-0.6-3.3,1.8-3.5c0.9-0.1,1.2-0.7,1.2-1.6c0-3.7-0.1-7.4-0.1-11.1v-3c0.1-1.6-0.2-1.6-2.3-1.3c-0.9,0.1-2.2,0.8-2.5-0.6
		c-0.3-1.3-2.3-2.6,0-4.1c1-0.6,0.4-1.5-0.1-2.3c-1.9-3.4-3.9-6.7-5.8-10.1c-1.8-3.1-1.8-3.1-4.6-1.1c-0.7,0.5-1.3,0.9-1.9,0.1
		c-0.7-1-2.9-0.9-2-2.9c0.6-1.3,0.1-1.9-1-2.6c-3.3-1.9-6.6-3.8-9.9-5.7c-3.2-1.8-3.2-1.8-4.8,1.5C8.1-41,7.8-40.4,7-40.8
		c-1-0.5-2.9,0.5-3.2-1.3C3.6-44,2.5-44,1.2-44c-3.9,0-7.9,0-11.8,0c-3.2,0-3.2,0-2.7,3.1c0.1,0.8,0.6,1.8-0.7,1.9
		c-1.3,0.2-2.4,2.2-3.8,0.2c-0.5-0.8-1.3-0.9-2.1-0.7c0,0-4.3,2.7-6.5,4c-0.5,0.3-1,0.5-1.5,0.8c-0.9,0.5-1.8,1-2.7,1.5
		c-3.4,1.9-3.4,1.6-1,4.7c0.5,0.6,0.9,1.3,0.1,1.8c-1,0.7-0.9,2.9-2.9,2c-1.4-0.6-2.1,0-2.7,1.1c-2.1,3.7-4.2,7.4-6.4,11.1
		c-1,1.6-0.7,2.5,1.1,3.1c0.8,0.3,2.2,0.3,2,1.5c-0.2,1.4,0.7,3.7-2.2,3.8c-0.7,0-1,0.6-1,1.3c0,0.7,0,1.5-0.1,2.2
		c0,3.5,0.1,6.9,0.1,10.4c0,3.4,0,3.5,3.5,3c0.9-0.1,1.5,0,1.6,0.9c0.1,1.2,2,2.2,0.4,3.4c-1.2,0.9-1.1,1.8-0.4,2.9
		c2.2,3.8,4.4,7.6,6.6,11.4c0.7,1.3,1.4,1.7,2.6,0.6c0.3-0.3,0.7-0.6,1.1-0.8c0.6-0.3,1.1-1.2,1.8-0.3c0.7,1.1,3.1,1,2.2,3.2
		c-0.3,0.8-0.3,1.5,0.5,2c4.2,2.4,8.3,4.7,12.5,7.1c0.3-1.3,1.1-2.1,2.2-2.6c0.9-0.1,2.7-0.3,3.3-0.4c0,0,0,0,0,0
		c0.2,0,0.5,0.1,0.7,0.1c0.8,0.1,1.3,0.3,1.3,1.1c0,1.5,0.9,1.7,2.1,1.7c3.9,0,7.9,0,11.8,0c3.3,0,3.3,0,3.1-3.3
		c-0.1-0.7-0.2-1.6,0.8-1.7c1.2-0.1,2.4-2.1,3.7-0.3c0.8,1.1,1.6,0.8,2.6,0.3c3.8-2.2,7.6-4.4,11.5-6.6c1.5-0.8,1.8-1.7,0.5-2.9
		c-1.4-1.3-1.5-2.6,0-3.9c0.3-0.3,0.5-0.6,0.8-0.9c0.1-0.1,0.2-0.2,0.2-0.3c0,0,0.5-0.3,1.3,0c0,0,0,0,0,0c0.8,0.6,1.4,0.4,2-0.6
		c0.8-1.5,1.7-2.9,2.6-4.3c1.3-2.4,2.6-4.8,4-7.1C44.5,10,44.3,9,42.5,8.4z M-19.8,0.6c0-11.1,8.9-20.2,19.8-20.2
		c11.2,0,20.2,8.9,20.2,20c0.1,11.2-8.8,20-20.1,20.1C-10.9,20.4-19.8,11.5-19.8,0.6z"/>
	<path id="RimB" fill-rule="evenodd" clip-rule="evenodd" fill="#2B333B" d="M-13.9,0.3c0-7.8,6.1-14,13.9-14.1
		c7.9,0,14.3,6.2,14.3,14c0,7.8-6.4,14.1-14.2,14.1C-7.7,14.3-13.9,8.1-13.9,0.3z M-10.9,0.2c0,6.2,4.8,11,11.1,11
		c6.2,0,11-4.8,11.1-11c0-6.1-4.8-11-10.9-11C-6.1-10.8-10.9-6.1-10.9,0.2z"/>
	<path id="RimA" fill-rule="evenodd" clip-rule="evenodd" fill="#2B333B" d="M4.4,0.3c0,2.5-1.9,4.3-4.4,4.2c-2.4,0-4.3-1.9-4.3-4.4
		c0-2.4,1.9-4.3,4.4-4.3C2.6-4.1,4.5-2.2,4.4,0.3z M0.1,2.6c1.3,0,2.7-1.3,2.7-2.5c0-1.2-1.4-2.3-2.8-2.4c-1.8-0.2-2.2,1.1-2.5,2.4
		C-2.7,1.4-1.3,2.6,0.1,2.6z"/>
	<path id="Nut8" fill-rule="evenodd" clip-rule="evenodd" fill="#2B333B" d="M-5.3,4.2C-4.4,4.3-4,4.9-4.1,5.7
		c-0.1,0.7-0.5,1.2-1.3,1.3c-1,0-1.4-0.6-1.4-1.4C-6.8,4.7-6.3,4.2-5.3,4.2z"/>
	<path id="Nut7" fill-rule="evenodd" clip-rule="evenodd" fill="#2B333B" d="M0.2-9.2c0.9-0.1,1.2,0.6,1.2,1.4
		c0,0.7-0.3,1.3-1.2,1.4C-0.7-6.4-1.2-7-1.2-7.8C-1.2-8.5-0.9-9.2,0.2-9.2z"/>
	<path id="Nut6" fill-rule="evenodd" clip-rule="evenodd" fill="#2B333B" d="M7.1,5.4C6.9,6.2,6.7,6.9,5.7,6.9c-1,0-1.3-0.6-1.3-1.4
		c0-0.8,0.5-1.4,1.4-1.3C6.7,4.2,6.8,4.9,7.1,5.4z"/>
	<path id="Nut5" fill-rule="evenodd" clip-rule="evenodd" fill="#2B333B" d="M5.7-3.8c-0.9,0-1.3-0.6-1.3-1.4c0-0.8,0.5-1.3,1.5-1.3
		c0.9,0,1.2,0.6,1.2,1.3C7-4.4,6.7-3.7,5.7-3.8z"/>
	<path id="Nut4" fill-rule="evenodd" clip-rule="evenodd" fill="#2B333B" d="M-8.3,1.5c-1,0.1-1.4-0.6-1.4-1.3
		c0-0.6,0.3-1.3,1.2-1.3c1,0,1.4,0.5,1.5,1.3C-6.9,0.9-7.3,1.6-8.3,1.5z"/>
	<path id="Nut3" fill-rule="evenodd" clip-rule="evenodd" fill="#2B333B" d="M9.9,0.2C9.6,0.9,9.3,1.6,8.3,1.5C7.4,1.5,7,0.8,7,0.1
		c0-0.7,0.5-1.2,1.4-1.2C9.3-1.1,9.7-0.6,9.9,0.2z"/>
	<path id="Nut2" fill-rule="evenodd" clip-rule="evenodd" fill="#2B333B" d="M1.5,8.2C1.3,8.8,1.2,9.5,0.3,9.6
		c-0.9,0.1-1.4-0.5-1.5-1.2C-1.3,7.6-0.8,7,0.1,7C1,6.9,1.3,7.5,1.5,8.2z"/>
	<path id="Nut1" fill-rule="evenodd" clip-rule="evenodd" fill="#2B333B" d="M-4.2-5.1c-0.2,0.8-0.5,1.4-1.4,1.3
		c-0.9-0.1-1.2-0.7-1.2-1.4c0-0.9,0.5-1.3,1.4-1.3C-4.5-6.4-4.2-5.8-4.2-5.1z"/>
</g>
<g id="Arm">
	<path fill="#EAB622" d="M106.3,33.5c-1-0.8-1.8-2-2.9-2.5c-2.1-1.8-1.6-2.3-1.6-4.9c0-3.8-3.9-7-7.6-6.3c-2.2,0.4-2.8,1.4-4.7-0.2
		c-0.8-0.6-1.6-1.3-2.4-1.9C82,13.8,76.7,9.5,71.3,5.1c-2.1-1.7-4-3.7-6.7-4.3c-3.9-0.8-8.1-1.1-12-1.5c-7.7-0.9-15.4-2-23.1-3
		c-4.1-0.5-27.4-3.6-29-3.8c-2.4-0.4-3.4,2-4.6,3.7c-1.1,1.6-7.5,7.7-4.3,8.8v0c8.8,2.9,17.6,6,26.4,9c5.4,1.9,10.8,3.7,16.2,5.5
		c5.6,1.9,11.1,3.8,16.7,5.7c1.9,0.7,7.7,7.8,7.8,10.4c-1,0.9,15.9,9.1,17.8,10c5.5,2.7,11.1,5.4,16.6,8.1c2.6,1.3,6.1,3.9,9.1,3.7
		c4.7-0.3,7.1-5.5,8.9-9.1c1.5-2.9,3.5-6.2,1.1-9.1C112.7,38.8,106.8,34,106.3,33.5z M92.4,45.3c-3.2,0.3-6.1-2.1-6.3-5.4
		c-0.3-3.2,2.1-6.1,5.4-6.3c3.2-0.3,6.1,2.1,6.3,5.4C98,42.2,95.6,45,92.4,45.3z"/>
	<path fill-rule="evenodd" clip-rule="evenodd" fill="#CFA430" d="M71.6-9.1c-0.1-2.2-0.1-2.3-2.3-2.1c-3.3,0-49.7,0.5-53.7,1
		c0,1.3,0.1,3.2,0.1,4.5C16.3-5,17.2-5.1,18-5c7.7,1,48,5.3,50.7,8.2c0.6-0.3,1.2-0.3,1.9-0.2c0.5,0.1,0.8-0.1,0.9-0.6c0,0,0,0,0,0
		C71.7,2.1,71.6-8.4,71.6-9.1z"/>
	<path id="Hose" fill-rule="evenodd" clip-rule="evenodd" fill="#2B333B" d="M22.9-10.9c5.4,1,10,3.9,15.1,5.6
		c4,1.4,8.1,1.9,12.4,1.8c3.2-0.1,6.3-0.2,9.5-0.4c4.3-0.3,8.1,1.1,11.6,3.5c0.1,0.2,0.1,0.4,0.2,0.5c2.2,1.9,3.9,4.1,5,6.7
		c0.2,0.4,0.5,0.6,1,0.6c2.1,0.1,4,0.9,5.8,2c2.3,2.9,2.7,4.9,1.3,7.4c-1.3,2.1-3.4,3.2-5.6,4.2c-1.3,0.6-2.7,1-4,1.5
		c-4.9,1.6-5.8,2.8-5.9,8c-0.4,0.2-0.8,0.4-1.2,0.1c0-0.4-0.1-0.7-0.1-1.1c0-0.1,0-0.2,0-0.4c0.3-4.1,2.2-6.9,6.5-7.9
		c2.5-0.6,4.9-1.6,7-3c1.2-0.8,2.5-1.7,2.6-3.4c-0.1-3.9-1.4-5.2-5.3-5.9c-1.6-0.3-1,0.5-0.8,1.2c-1.3-0.6-2.5-1.5-3.3-2.7
		c1,0,0.6-0.6,0.4-1.1C74,4.7,73,3.1,71.5,2C69-0.7,66-2.4,62.3-2.4c-5.5,0-11.1,0.2-16.6,0.4c-0.2,0-0.5,0-0.7,0
		c-0.2-0.3-0.5-0.3-0.8-0.2c-0.2,0-0.5,0-0.7-0.1c-5.1-0.9-9.7-3-14.4-5.1c-4.3-2-8.8-2.9-13.6-2.2c-3,0.2-5.8,1-8.2,2.8
		C6.7-6.7,5.9-6.5,5.3-7.1C10.6-10.7,16.6-11.3,22.9-10.9z"/>
	<path fill-rule="evenodd" clip-rule="evenodd" fill="#CFA430" d="M63.9,5.1c-2.2,3.1-4.2,6-6.2,8.9c-1.3,1.9-2.6,3.8-3.9,5.8
		c-0.8,1.3-1.7,1.5-3.2,0.9c-2.9-1.2-6-2.1-8.9-3.1c-7.1-2.5-14.2-5.1-21.4-7.7c-4.7-1.7-9.4-3.4-14.2-5C5,4.5,4.3,4,3.8,2.8
		C3.1,1,2.7-1,1.7-2.8c-0.5-0.9,0-1.4,1-1.2c5.7,0.8,11.4,1.7,17.2,2.5C28-0.3,36.1,0.9,44.2,2.1C50,3,55.8,3.8,61.6,4.7
		C62.2,4.8,62.8,4.9,63.9,5.1z M59.1,6.3c-0.7,0-1.1,0.3-1.4,0.7c-2.2,3.2-4.4,6.5-6.6,9.7c-0.3,0.4-1.1,0.9-0.4,1.3
		c0.5,0.4,1.4,0.3,1.9-0.5c2.3-3.4,4.7-6.7,7.1-10.1c0.2-0.3,0.4-0.7,0.1-1C59.5,6.3,59.1,6.3,59.1,6.3z M55.4,6
		c-0.1-0.5-0.6-0.5-1-0.4c-0.6,0.1-0.9,0.6-1.2,1.1c-1.9,2.8-3.9,5.6-5.8,8.4c-0.3,0.4-1.2,0.9-0.6,1.4c0.6,0.5,1.4,0.1,1.9-0.5
		c0.3-0.4,0.7-0.8,1-1.3c1.7-2.6,3.5-5.1,5.2-7.7C55.2,6.7,55.4,6.5,55.4,6z"/>
	<path id="Pin_2_" fill-rule="evenodd" clip-rule="evenodd" fill="#2B333B" d="M0,1.8c-1.4,0.3-2-0.6-2.1-1.7c-0.1-1,0.5-1.8,1.8-2
		C1-2,1.6-1.1,1.7-0.2C1.8,0.7,1.5,1.9,0,1.8z"/>
</g>
<g id="MountTop">
	<path id="Pin_1_" fill-rule="evenodd" clip-rule="evenodd" fill="#2B333B" d="M22.1,5c-1.4,0.3-2-0.6-2.1-1.7c-0.1-1,0.5-1.8,1.8-2
		c1.4-0.2,2,0.8,2.1,1.7C23.9,3.8,23.6,5,22.1,5z"/>
	<path id="Clamp" fill-rule="evenodd" clip-rule="evenodd" fill="#EAB622" d="M-22.8-3.2c-3.3,0-6.5-0.2-9.8,0.1
		c1-0.4,1.5-1.3,1.8-2.1c0.6-1.6,1.7-1.8,3.1-1.8c9.3-0.1,18.6-0.2,27.8-0.3c6.2-0.1,12.4-0.1,18.7-0.2c1.2,0,1.9,0.2,2,1.6
		c0,0.7,0.5,1.1,1.3,0.9c-0.9,1.3-0.3,3.4,1.2,4.2c3.4,1.7,3.8,5.1,0.9,7.6c-1.1,1-2.4,1-3.7,0.5c-1.4-0.6-2.5-1.4-2.8-3.1
		c-0.3-1.6,0-2.8,1-4c0.7-0.8,0.6-1.8-0.3-2.5c0.2-2.5-0.3-3-2.7-2.9C9.8-5.3,3.7-5.3-2.3-5.2C-8.6-5.2-15-5.1-21.3-5
		C-22.5-5-23.5-4.8-22.8-3.2z M22.1,5c1.5,0,1.8-1.2,1.7-2c-0.1-0.9-0.7-1.8-2.1-1.7c-1.3,0.1-1.9,1-1.8,2C20.1,4.4,20.7,5.3,22.1,5
		z"/>
	<path id="PistonTop" fill-rule="evenodd" clip-rule="evenodd" fill="#2B333B" d="M-20.3,0.9C-9.8,0.9-1.7,0.8,8.8,0.7
		c0.9,0,9.2-0.5,10.1-0.5c-2.5,2.1-3.3,4.5-6.2,6C4,6.4-11.6,6.6-20.2,6.7C-20.5,4.8-20.8,2.8-20.3,0.9z"/>
</g>
<g id="Mount">
	<path id="Actuator" fill-rule="evenodd" clip-rule="evenodd" fill="#CFA430" d="M-17.2,1.4c0.5-0.4,0.2-1.1,0.6-1.6
		c0.1-0.1,0.2-0.1,0.2-0.3l0.1-0.1c0.8-0.6,1.6-1.2,2.4-1.9c2-1.9,4.4-3,7.2-2.5c0.4,0.2,0.8,0.1,1.3-0.1c2.9,0,5.9,0,8.8,0
		c1.1,0,1.5,0.3,1.5,1.4c0,2.3,0,4.6,0.1,6.8C5,4.5,4.4,5,3.1,5C2.4,5,1.7,5.1,1,5C-2,4.3-4.5,5.2-6.9,6.8C-8.1,7.9-9.5,8.2-11,8.1
		c-1.5-0.1-3-0.1-4.4,0c-0.8,0-1.4-0.2-1.7-1C-16.9,5.2-16.9,3.3-17.2,1.4z M3.5,0C3.7-2.6,2-3.4-0.6-3.6c-1.6-0.1-3.2,1.9-3.2,3.9
		c0.1,2,1.6,3.4,3.8,3.3C2.4,3.5,3.5,2.4,3.5,0z"/>
	<path id="Pin" fill-rule="evenodd" clip-rule="evenodd" fill="#2B333B" d="M0,1.9C-1.3,2-1.9,1.1-1.9,0.1c0-1,0.5-1.9,1.9-1.9
		c1.4,0,1.9,1,1.9,1.9C2,1,1.3,1.9,0,1.9z"/>
	
		<rect id="PistonBottom" x="-68.2" y="2.1" transform="matrix(-0.9999 1.052161e-02 -1.052161e-02 -0.9999 -85.1062 9.1343)" fill-rule="evenodd" clip-rule="evenodd" fill="#2B333B" width="51.2" height="4.5"/>
</g>
<g id="BladeAssembly">
	<path id="Blade" fill-rule="evenodd" clip-rule="evenodd" fill="#555554" d="M82.3,53c-1.7-0.2-3.5,0.1-5.2,0.2
		c-6.7,0.4-13.4,1.3-20.2,1.6c-1.3,0-2.7,0.2-4.1,0.5c-3.2,0.7-6,0.1-8.5-2.1c-0.5-0.4-1.1-0.7-1.6-1c-6.1-3.9-12.1-8-18.4-11.5
		c-4-2.2-6.4-4.8-5.8-9.6c0-0.1,0-0.1,0-0.2c0.1-1-0.4-1.3-1.4-1.2c-2.4,0.3-4.8,0.4-7.2,0.7c-1.3,0.2-2-0.1-1.8-1.5
		c0.2-1.3-0.5-1.9-1.6-2.5c-2.1-1.1-4.2-2.4-6.3-3.5c-0.8-0.4-1.1-0.9-1.2-1.8c-0.2-2.7-0.5-5.4-0.7-8c0.1-0.7,0.1-1.3-0.1-1.9
		c0.1-0.4,0.1-0.7,0.2-1.1c1.4,0.4,2.8,0.2,4.1-0.3C3.2,9.5,3.7,9.3,4,10.1c0,2,0.8,3.4,2.7,4.2C7.4,14.6,8,15,8.5,15.5
		c0.8,0.7,1.1,0.3,1.4-0.4c0.7-1.8,1.6-3.6,2.2-5.5c0.5-1.5,1.3-2.3,3-2.2c0.7,0.1,1.6-0.1,1.3-1.2c-0.3-1.4,0.5-2.3,1.3-3.3
		c1-1.1,1.9-2.3,2.8-3.4c2.4-2.8,4.8-5.5,7.2-8.3c0.7-0.9,1.5-1.3,2.6-1.3c1.7-0.1,3.5-0.3,5.2-0.4c1.3-0.1,3.1,0.2,1-2.3
		c6.4,0,12.1-0.8,17.3-4.5c0.2,1.9,0.2,3.3,0.4,4.6c0.1,0.9-0.1,1.6-0.8,2.2c-0.3,0.3-0.6,0.6-0.9,0.9c-3.1,3.1-3,3.1-1.1,7
		c6.8,13.7,13.6,27.4,20.3,41.1c0.5,1,1,1.5,2,1.7c3.7,1,7.4,2.2,11.2,3.2c1.4,0.4,1.8,1,1.9,2.4c0,1.4,0.2,2.7,0.3,4.1
		c0.2,2.3,0.2,2.3-2.2,2.6c-0.5-0.1-1.1-0.1-1.5,0.2C83.2,53,82.7,53,82.3,53z"/>
	<path id="BladeArm" fill-rule="evenodd" clip-rule="evenodd" fill="#CFA430" d="M27.6-54.7c-0.1-0.9-0.4-1.1-1.3-0.7
		c-1.6,0.9-3,1.9-4.4,3.1C21.1-51,8.6-42.3,5.6-40.7c-1.9,2-4.3,3.3-6.4,5c-2.6,2-5.3,3.9-7.9,5.9c1,1.3,1.6,2.4,1.9,3.4l-6.1,31.7
		l15.8,6.5l8-7.9l1.6-12.5v0c0.8-1.7,1-3.4,0.9-5.3c-0.3-2.9-0.5-5.9-0.7-8.8c-0.1-0.9,0.1-1.6,0.7-2.3c0.7-0.7,1.3-1.4,2-2.1
		c4.1-4.7,8.3-9.3,12.4-14.1c0.6-0.7,1.4-1.3,1.3-2.4C28.5-47.3,28-51,27.6-54.7z"/>
	<path id="Bladepin" fill-rule="evenodd" clip-rule="evenodd" fill="#2B333B" d="M0,2c-1.3,0.2-1.9-0.8-1.9-1.8c0-1,0.5-1.9,1.9-1.9
		c1.4,0,1.9,1,1.9,1.9C1.9,1.2,1.3,2.1,0,2z"/>
</g>
</svg>
