<?xml version="1.0" encoding="utf-8"?>
<!-- Generator: Adobe Illustrator 16.0.4, SVG Export Plug-In . SVG Version: 6.00 Build 0)  -->
<!DOCTYPE svg PUBLIC "-//W3C//DTD SVG 1.1//EN" "http://www.w3.org/Graphics/SVG/1.1/DTD/svg11.dtd">
<svg version="1.1" id="Fruits" xmlns="http://www.w3.org/2000/svg" xmlns:xlink="http://www.w3.org/1999/xlink" x="0px" y="0px"
	 width="841.9px" height="595.3px" viewBox="0 0 841.9 595.3" enable-background="new 0 0 841.9 595.3" xml:space="preserve">
<g id="Melon">
	<g id="Darker">
		<path fill="#59853C" d="M75,16.5c-0.8-1.1-1.7-2.1-2.5-2.9c6.3,8.6-1.7,27.8-18.7,43.8C36.5,73.8,16.5,80.8,8.6,73.3
			c1.8,2.4,4.2,4.9,7.6,7.5c8.4,6.6,23.3,9.5,37.1,7.3c9.8-1.5,19.1-5.6,25.3-12.6c7.6-8.7,9.3-20,7.8-30.9
			C84.8,34.1,80.3,23.8,75,16.5z"/>
	</g>
	<g id="Lighter">
		<path fill="#9CA839" d="M56.9,54.4c5.8,1.6,17.9,18.2,20.7,22.2c0.3-0.3,0.6-0.6,0.9-1c0.9-1,1.6-2,2.4-3.1
			C78.5,67,65.2,53.2,61.4,49.3C60,51,58.5,52.7,56.9,54.4z"/>
		<path fill="#9CA839" d="M65.6,43.8L83,68.9c0.7-1.5,1.4-3,1.9-4.5C82.7,60.6,72,42.7,69.1,38.2C68.1,40.1,66.9,41.9,65.6,43.8z"/>
		<path fill="#9CA839" d="M84.7,45.1c-0.6-2.6-8.6-14.4-11-17.7c-0.6,2.2-1.5,4.6-2.6,7c7.9,3.6,13.3,20.7,15,25.2c0,0,0,0,0,0
			c0.2-0.9,0.3-1.8,0.4-2.7C86.1,53,85.1,46.9,84.7,45.1z"/>
		<path fill="#9CA839" d="M14.5,76.1c5.9,7,29.1,11.6,34.9,12.6c0.2,0,0.5-0.1,0.7-0.1c-3.3-1.8-20.7-11.1-26.2-13.2
			C20.4,76.3,17.2,76.5,14.5,76.1z"/>
		<path fill="#9CA839" d="M30.9,73c3.9,2.3,24.5,14.4,29.9,13.5c2-0.6,3.9-1.3,5.7-2.2c-1.2-0.4-21-6.6-28.8-14.7
			C35.4,70.9,33.1,72.1,30.9,73z"/>
		<path fill="#9CA839" d="M42.4,66.6c5,6,23.4,13.9,27.8,15.8c1.7-1,3.3-2.2,4.9-3.5c-9.2-4.1-21.9-14.1-26-17.4
			C46.9,63.4,44.7,65.1,42.4,66.6z"/>
	</g>
	<path id="Outer" fill="#99AF3B" d="M71.9,13.1c7.6,8.1-0.4,28.1-17.9,44.7c-10.6,10-22.1,16.5-31.4,18.4
		c-6.1,1.2-11.2,0.4-14.2-2.8c-7.6-8.1,0.4-28.1,17.9-44.7C43.9,12,64.3,5,71.9,13.1C79.6,21.1,64.3,5,71.9,13.1z"/>
	<path id="Rind" fill="#F3C8AB" d="M70.9,14c5.8,6.2,1.8,19.9-8.9,33.4c-2.6,3.2-5.5,6.5-8.8,9.6c-17,16.1-36.6,23-43.9,15.4
		C2.1,64.7,10,45.4,27,29.3C44,13.2,63.6,6.3,70.9,14z"/>
	
		<radialGradient id="Meat_1_" cx="42.7554" cy="44.583" r="40.2546" gradientTransform="matrix(0.7197 -0.6942 0.2947 0.3048 -3.3716 58.3438)" gradientUnits="userSpaceOnUse">
		<stop  offset="0.1185" style="stop-color:#F58863"/>
		<stop  offset="0.8676" style="stop-color:#EB4F69"/>
	</radialGradient>
	<path id="Meat" fill="url(#Meat_1_)" d="M69.9,14.6c6.7,7-1.2,25.4-17.7,41c-6,5.7-12.3,10.2-18.2,13.3
		c-10.3,5.5-19.4,6.6-23.7,2.1c-6.7-7,1.2-25.4,17.7-41C44.5,14.4,63.3,7.5,69.9,14.6z"/>
	<g id="Pips">
		<path fill="#584141" d="M22.3,42.3c-1,0-2,0.3-2.7,0.7c-0.7,0.5-1.1,1.1-1.1,1.9s0.4,1.4,1.1,1.9c0.7,0.5,1.6,0.8,2.7,0.8
			c1,0,2-0.3,2.7-0.7c0.7-0.5,1.1-1.1,1.1-1.9c0-0.7-0.4-1.4-1.1-1.9S23.4,42.3,22.3,42.3z"/>
		<path fill="#584141" d="M36.4,36.5c0.4-0.6,0.5-1.4,0.3-2.2c-0.3-0.8-0.8-1.6-1.7-2.3c-0.8-0.7-1.8-1-2.6-1.1s-1.6,0.2-2,0.8
			c-0.4,0.6-0.5,1.4-0.2,2.2s0.8,1.6,1.7,2.3c0.8,0.7,1.8,1,2.6,1.1C35.2,37.3,36,37.1,36.4,36.5z"/>
		<path fill="#584141" d="M47.9,27.8c0.6-0.2,1-0.8,1.2-1.6c0.2-0.8,0.1-1.8-0.3-2.8c-0.4-1-1-1.8-1.6-2.3c-0.6-0.5-1.4-0.7-2-0.5
			c-0.6,0.2-1,0.8-1.2,1.6c-0.2,0.8-0.1,1.8,0.3,2.8c0.4,1,1,1.8,1.6,2.3S47.3,28,47.9,27.8z"/>
		<path fill="#584141" d="M63.4,18.1c-0.6-0.5-1.4-0.6-2.2-0.3c-0.8,0.2-1.6,0.8-2.3,1.6c-0.6,0.8-1,1.8-1,2.6
			c0,0.9,0.3,1.6,0.9,2.1s1.4,0.6,2.2,0.3c0.8-0.2,1.6-0.8,2.3-1.6c0.6-0.8,1-1.8,1-2.6C64.3,19.3,64,18.6,63.4,18.1z"/>
		<path fill="#584141" d="M58.2,33.4c-1.1,0-2,0.4-2.7,0.9c-0.7,0.5-1.1,1.3-1.1,2c0,0.8,0.5,1.5,1.2,2c0.7,0.5,1.7,0.8,2.8,0.7
			c1.1,0,2-0.4,2.7-0.9c0.7-0.5,1.1-1.3,1.1-2c0-0.8-0.5-1.5-1.2-2C60.2,33.6,59.3,33.3,58.2,33.4z"/>
		<path fill="#584141" d="M47.1,46.6c-0.6,0.4-0.9,1.2-0.8,2c0,0.8,0.4,1.8,1,2.6c0.6,0.8,1.4,1.4,2.2,1.7c0.8,0.3,1.6,0.2,2.2-0.2
			c0.6-0.4,0.9-1.2,0.8-2c0-0.8-0.4-1.8-1-2.6c-0.6-0.8-1.4-1.4-2.2-1.7C48.5,46.1,47.7,46.1,47.1,46.6z"/>
		<path fill="#584141" d="M34.3,54.5c-0.7,0.2-1.2,0.8-1.5,1.6c-0.3,0.8-0.4,1.9-0.1,2.9c0.3,1.1,0.8,2,1.4,2.6
			c0.6,0.6,1.4,0.9,2.1,0.7c0.7-0.2,1.2-0.8,1.5-1.6c0.3-0.8,0.4-1.9,0.1-2.9c-0.3-1.1-0.8-2-1.4-2.6S35,54.4,34.3,54.5z"/>
		<path fill="#584141" d="M17.6,59.4c-0.7,0.8-1.2,1.8-1.3,2.6c-0.1,0.9,0.1,1.6,0.6,2.1c0.6,0.5,1.4,0.5,2.2,0.2
			c0.8-0.3,1.7-1,2.4-1.8c0.7-0.8,1.1-1.7,1.3-2.5c0.1-0.8-0.1-1.5-0.7-2c-0.6-0.5-1.4-0.6-2.1-0.4C19.2,58,18.4,58.6,17.6,59.4z"/>
	</g>
	<radialGradient id="Shadow_1_" cx="51.688" cy="50.877" r="33.4083" gradientUnits="userSpaceOnUse">
		<stop  offset="0" style="stop-color:#59843B;stop-opacity:0"/>
		<stop  offset="0.2837" style="stop-color:#57833B;stop-opacity:0.1986"/>
		<stop  offset="0.4827" style="stop-color:#537D38;stop-opacity:0.3379"/>
		<stop  offset="0.6559" style="stop-color:#4B7435;stop-opacity:0.4591"/>
		<stop  offset="0.8142" style="stop-color:#40682F;stop-opacity:0.5699"/>
		<stop  offset="0.9611" style="stop-color:#325827;stop-opacity:0.6728"/>
		<stop  offset="1" style="stop-color:#2E5324;stop-opacity:0.7"/>
	</radialGradient>
	<path id="Shadow" fill="url(#Shadow_1_)" d="M75,17.6c-0.8-1.1-1.7-2.1-2.5-2.9c6.3,8.6-1.7,27.8-18.7,43.8
		C36.5,74.9,16.5,81.9,8.6,74.4c1.8,2.4,4.2,4.9,7.6,7.5c8.4,6.6,23.3,9.5,37.1,7.3c9.8-1.5,19.1-5.6,25.3-12.6
		c7.6-8.7,9.3-20,7.8-30.9C84.8,35.2,80.3,24.9,75,17.6z"/>
</g>
<g id="Diamond">
	<polygon fill="#689AD2" points="7.5,132.8 34.4,144.4 57.3,145.1 84.2,136.5 75.9,111 69.3,119.2 47,122.8 24,119.2 16,111.6 	"/>
	<linearGradient id="SVGID_1_" gradientUnits="userSpaceOnUse" x1="43.4502" y1="104.457" x2="50.7456" y2="124.8831">
		<stop  offset="0" style="stop-color:#C1E8F7"/>
		<stop  offset="0.3367" style="stop-color:#81CAF1"/>
		<stop  offset="0.7728" style="stop-color:#C1E8F7"/>
	</linearGradient>
	<polygon fill="url(#SVGID_1_)" points="32,105.3 15.9,111.6 24,119.2 46.9,122.8 69.3,119.2 75.9,111 60.3,105.3 	"/>
	<polygon fill="#81CAF1" points="7.5,132.8 46.6,186.4 20.9,141.9 	"/>
	<polygon fill="#689AD2" points="34.4,144.4 20.9,141.9 46.6,186.4 	"/>
	<polygon fill="#81CAF1" points="84.1,136.5 70.2,141.9 46.6,186.4 	"/>
	<polygon fill="#C1E8F7" points="57.3,145.1 70.2,141.9 46.6,186.4 	"/>
	<polygon fill="#81CAF1" points="34.4,144.4 57.3,145.1 46.6,186.4 	"/>
	<polygon fill="#81CAF1" points="20.9,141.9 34.4,144.4 24,119.2 	"/>
	<polygon fill="#81CAF1" points="70.2,141.9 57.3,145.1 69.3,119.2 	"/>
	<polygon fill="#81CAF1" points="2.1,125.9 7.5,132.8 15.9,111.6 	"/>
	<polygon fill="#C1E8F7" points="34.4,144.4 57.3,145.1 46.9,122.8 	"/>
	<polygon fill="#C1E8F7" points="20.9,141.9 24,119.2 7.5,132.8 	"/>
	<polygon fill="#C1E8F7" points="70.2,141.9 84.1,136.5 69.3,119.2 	"/>
	<polygon fill="#81CAF1" points="75.9,111 84.1,136.5 90.6,126 	"/>
</g>
<g id="Bar">
	<linearGradient id="SVGID_2_" gradientUnits="userSpaceOnUse" x1="44.2441" y1="219.5669" x2="49.1773" y2="261.1466">
		<stop  offset="0.2149" style="stop-color:#383839"/>
		<stop  offset="0.4732" style="stop-color:#5F6062"/>
		<stop  offset="0.6004" style="stop-color:#000000"/>
	</linearGradient>
	<rect x="3.4" y="219" fill="url(#SVGID_2_)" width="86.9" height="44.2"/>
	<g>
		<linearGradient id="SVGID_3_" gradientUnits="userSpaceOnUse" x1="24.4258" y1="257.1494" x2="21.7437" y2="236.1054">
			<stop  offset="0.2223" style="stop-color:#FFFFFF"/>
			<stop  offset="0.8343" style="stop-color:#86888A"/>
		</linearGradient>
		<path fill="url(#SVGID_3_)" d="M26.3,241c1.8,0.2,3.2,0.6,4.1,1.1c0.9,0.5,1.4,1.2,1.4,2c0,1,0.2,2.2-1.2,3.8
			c-0.7,0.8-2.4,1.5-3.5,1.8c-1.1,0.2-2.6,0.3-4.5,0.3H12.1l0.5-3.1h2.2l3.8-11.3h-2.2l0.1-3.5h10.5c2,0,3.4,0.2,4.4,0.6
			c1,0.4,1.9,1.9,1.9,4c0,0.9-0.6,1.8-1.7,2.5C30.3,239.9,28.6,240.5,26.3,241z M19.5,246.9c2.4,0,3.9-0.1,4.6-0.3
			c1.8-0.6,2.7-1.4,2.7-2.6c0-0.7-0.4-1.2-1.3-1.7c-0.9-0.4-2.1-0.6-3.5-0.6h-0.8L19.5,246.9z M22.1,239.1h0.8
			c1.7,0,3.1-0.3,4.2-0.9c1.1-0.6,1.6-1.3,1.6-2.3c0-0.6-0.3-1-0.9-1.3c-0.6-0.2-1.7-0.4-3.2-0.4h-0.8L22.1,239.1z"/>
		<linearGradient id="SVGID_4_" gradientUnits="userSpaceOnUse" x1="45.2793" y1="254.4927" x2="42.5971" y2="233.4476">
			<stop  offset="0.2223" style="stop-color:#FFFFFF"/>
			<stop  offset="0.8343" style="stop-color:#86888A"/>
		</linearGradient>
		<path fill="url(#SVGID_4_)" d="M40.3,245.1l-1.8,1.9h1.2l-0.1,3.1h-6.7l0.1-3.1h1.4l12.5-14.6h3.3l4.4,14.6h1.4L56,250h-8.7
			l0.1-3.1h2.8l-0.5-1.9H40.3z M42.5,241.9h6.7l-1.4-5.4L42.5,241.9z"/>
		<linearGradient id="SVGID_5_" gradientUnits="userSpaceOnUse" x1="69.2778" y1="251.4341" x2="66.5956" y2="230.3891">
			<stop  offset="0.2223" style="stop-color:#FFFFFF"/>
			<stop  offset="0.8343" style="stop-color:#86888A"/>
		</linearGradient>
		<path fill="url(#SVGID_5_)" d="M66.2,242.3l-1.5,4.6h2l-0.1,3.1h-9.2l0.1-3.1h2.4l3.8-11.3h-2.4l0.1-3.5h10.3
			c2.3,0,4.1,0.2,5.2,0.7C78,233.3,79,234,79,237c0,1-0.6,2-1.8,2.9c-1.2,0.9-2.7,1.5-4.5,1.9l4.8,5.2H79L79,250h-5.8l-4.6-7.7H66.2
			z M66.7,239.7h0.8c1.9,0,3.4-0.3,4.7-1c1.2-0.7,1.9-1.6,1.9-2.6c0-0.6-0.3-1-1-1.3c-0.7-0.3-1.7-0.4-3-0.4h-1.6L66.7,239.7z"/>
	</g>
</g>
<g id="Seven">
	<linearGradient id="SVGID_6_" gradientUnits="userSpaceOnUse" x1="67.2393" y1="364.9316" x2="28.9331" y2="292.9053">
		<stop  offset="0.2223" style="stop-color:#BC325B"/>
		<stop  offset="0.8343" style="stop-color:#741434"/>
	</linearGradient>
	<path fill="url(#SVGID_6_)" d="M47,374.8H19.7l1.3-4.8c0.3-1.1,0.4-3,0.5-5c0.4-7.2,1.1-18,10.1-26.9c8-8,17-17.2,20.9-21.2
		c-1-0.6-2.9-1.2-6-1.3c-0.6,0-1.2,0-1.7,0c-8.5,0-11.7,2.2-12.8,3.4c-1.1,1.2-1.1,2.5-1.1,2.8l1.1,4.7l-4.9-0.3l-17.3-0.3l4.7-26.7
		h16.6l0.7,1.3c3.7-1.7,9.7-3.9,15.4-3.9c3,0,5.7,0.6,8,1.8c4.4,2.4,7.3,2.9,9,2.9c1.7,0,2.5-0.5,2.8-0.7l1-1.9l2,0.4H85v21.4h-6.5
		l-4.5,3.3c-22,16.1-24.3,32.5-25.9,44.5c-0.2,1.1-0.3,2.2-0.5,3.2L47,374.8z"/>
	<path fill="#FBD0CF" d="M81.5,301.5l-12.2-0.1c0,0-4,5.6-16.5-1.2c-8.5-4.6-23.3,3.7-23.3,3.7l-1.3-2.6l-12.4,0.1l-2.1,21.1l13,0.1
		c0,0-2.1-13.3,19.4-12.6c10.5,0.3,10.7,5.6,10.7,5.6s-12.2,12.6-23,23.4s-8.1,24.7-9.7,30.3l19.7,2.1c1.9-12-0.9-29.9,24.5-48.5
		L76,316l4.8,0.7L81.5,301.5z"/>
	<linearGradient id="SVGID_7_" gradientUnits="userSpaceOnUse" x1="48.4741" y1="300.9639" x2="48.4741" y2="372.2064">
		<stop  offset="0" style="stop-color:#FBCDCC"/>
		<stop  offset="0.2223" style="stop-color:#F26A76"/>
		<stop  offset="0.8343" style="stop-color:#E84C6C"/>
		<stop  offset="1" style="stop-color:#741034"/>
	</linearGradient>
	<path fill="url(#SVGID_7_)" d="M81.9,303.4H70.8c0,0-4,5.6-16.5-1.2c-8.5-4.6-23.3,3.7-23.3,3.7l-1.3-2.6H18.4L15,322.7l12.9,0.2
		c0,0-2-11.3,19.5-10.6c10.5,0.3,10.7,5.6,10.7,5.6s-12.2,12.6-23,23.4c-10.8,10.7-8.1,24.7-9.7,30.3h19.1
		c1.9-12,2.5-31.6,27.9-50.2l5.5-4h4V303.4z"/>
</g>
<g id="Bell">
	<radialGradient id="SVGID_8_" cx="48.0449" cy="392.1348" r="6.6156" gradientUnits="userSpaceOnUse">
		<stop  offset="0.1216" style="stop-color:#916E35"/>
		<stop  offset="0.1635" style="stop-color:#BD9D66"/>
		<stop  offset="0.2035" style="stop-color:#E8CC97"/>
		<stop  offset="0.2235" style="stop-color:#FFE4AF"/>
		<stop  offset="0.2804" style="stop-color:#FBD591"/>
		<stop  offset="0.3534" style="stop-color:#F7C471"/>
		<stop  offset="0.3915" style="stop-color:#F5BE65"/>
		<stop  offset="0.568" style="stop-color:#E3A846"/>
		<stop  offset="0.7142" style="stop-color:#D89C36"/>
		<stop  offset="0.8082" style="stop-color:#D49830"/>
		<stop  offset="0.8159" style="stop-color:#CF9430"/>
		<stop  offset="0.8748" style="stop-color:#B6822D"/>
		<stop  offset="0.9354" style="stop-color:#A8782B"/>
		<stop  offset="1" style="stop-color:#A4752A"/>
	</radialGradient>
	<path fill="url(#SVGID_8_)" d="M44.9,397.1c-0.3-0.6-0.4-1.2-0.4-1.9c0-1.1,0.4-2.1,1-2.8c0.8-1,1.1-1.5,2.5-1.5
		c1.3,0,2.2,0.9,3,1.7c0.8,0.8,0.8,1.6,0.8,2.9c0,0.7,0.6,1.1,0.3,1.6h3.6c0.1-0.6,0.2-1.2,0.2-1.9c0-2.1-0.8-4-2.1-5.4
		c-1.5-1.6-3.5-2.6-5.8-2.6c-2.7,0-5,1.3-6.5,3.3c-0.9,1.3-1.5,2.9-1.5,4.6c0,0.6,0.1,1.3,0.2,1.9H44.9z"/>
	<linearGradient id="SVGID_9_" gradientUnits="userSpaceOnUse" x1="22.9028" y1="430.3652" x2="66.4179" y2="429.2804">
		<stop  offset="4.827009e-02" style="stop-color:#CA984D"/>
		<stop  offset="0.1031" style="stop-color:#CF9943"/>
		<stop  offset="0.1987" style="stop-color:#D89C35"/>
		<stop  offset="0.2205" style="stop-color:#DFAA4E"/>
		<stop  offset="0.259" style="stop-color:#EBC177"/>
		<stop  offset="0.2928" style="stop-color:#F5D394"/>
		<stop  offset="0.3203" style="stop-color:#FCDFA7"/>
		<stop  offset="0.338" style="stop-color:#FFE4AF"/>
		<stop  offset="0.4122" style="stop-color:#FBD591"/>
		<stop  offset="0.5077" style="stop-color:#F7C471"/>
		<stop  offset="0.5575" style="stop-color:#F5BE65"/>
		<stop  offset="0.5908" style="stop-color:#F0B85C"/>
		<stop  offset="0.7338" style="stop-color:#DBA03B"/>
		<stop  offset="0.8082" style="stop-color:#D49830"/>
		<stop  offset="0.8159" style="stop-color:#CF9430"/>
		<stop  offset="0.8748" style="stop-color:#B6822D"/>
		<stop  offset="0.9354" style="stop-color:#A8782B"/>
		<stop  offset="1" style="stop-color:#A4752A"/>
	</linearGradient>
	<path fill="url(#SVGID_9_)" d="M9.3,457.6c0,0,0.5,3.5,7.6,4.5c7.1,1,12.5,2.6,30.5,2.2c18-0.3,29.4-1.4,35-3.4
		c5.6-1.9,4.2-0.3,4.3-3.4s-1.7-19.6-1.7-19.6c-2.4-7.1-16-15.6-16.8-26.5c-0.2-3-2.4-8-6.8-11.7c-3.2-2.7-7.6-4.7-13.4-4.7
		c-6.4,0-11,2.3-14.1,5.3c-3.6,3.4-5.4,7.7-6.1,10.6c-1.4,5.5-0.2,9.5-2.9,11.4S13.3,432.6,12.7,439C12,445.5,8.5,449.4,9.3,457.6z"
		/>
	<linearGradient id="SVGID_10_" gradientUnits="userSpaceOnUse" x1="48.0054" y1="461.1572" x2="48.648" y2="398.5065">
		<stop  offset="1.255580e-03" style="stop-color:#694D18;stop-opacity:0.4"/>
		<stop  offset="5.444834e-02" style="stop-color:#76561D;stop-opacity:0.2"/>
		<stop  offset="0.1568" style="stop-color:#906826;stop-opacity:0.3032"/>
		<stop  offset="0.2527" style="stop-color:#A6772B;stop-opacity:0.4"/>
		<stop  offset="0.38" style="stop-color:#745416;stop-opacity:0.3362"/>
		<stop  offset="0.4521" style="stop-color:#5B4005;stop-opacity:0.3"/>
		<stop  offset="0.5721" style="stop-color:#6B4D10;stop-opacity:0.1902"/>
		<stop  offset="0.7253" style="stop-color:#7D5A1A;stop-opacity:5.000000e-02"/>
		<stop  offset="0.8287" style="stop-color:#7C5919;stop-opacity:0.1065"/>
		<stop  offset="0.8971" style="stop-color:#775517;stop-opacity:0.1438"/>
		<stop  offset="0.9552" style="stop-color:#6E4F12;stop-opacity:0.1756"/>
		<stop  offset="1" style="stop-color:#64470C;stop-opacity:0.2"/>
	</linearGradient>
	<path fill="url(#SVGID_10_)" d="M9.4,457.6c0,0,0.5,3.5,7.6,4.5c7.1,1,12.5,2.6,30.5,2.2c18-0.3,29.4-1.4,35-3.4
		c5.6-1.9,4.2-0.3,4.3-3.4c0.2-3.1-1.2-19.5-1.2-19.5c-2.4-7.1-16.5-15.7-17.3-26.6c-0.2-2.7-1.9-7-5.5-10.5
		c-3.3-3.3-8.1-5.9-14.7-5.9c-6.7,0-11.3,2.5-14.5,5.6c-3.3,3.3-5.1,7.5-5.8,10.3c-1.4,5.5-0.2,9.5-2.9,11.4
		c-2.7,1.9-11.3,9.6-11.9,16.1C12.4,444.9,8.6,449.4,9.4,457.6z"/>
	<linearGradient id="SVGID_11_" gradientUnits="userSpaceOnUse" x1="7.1533" y1="447.0508" x2="89.5722" y2="447.0508">
		<stop  offset="0.1216" style="stop-color:#CA984D"/>
		<stop  offset="0.1635" style="stop-color:#E0B878"/>
		<stop  offset="0.2035" style="stop-color:#F5D79E"/>
		<stop  offset="0.2235" style="stop-color:#FFE4AF"/>
		<stop  offset="0.2804" style="stop-color:#FBD591"/>
		<stop  offset="0.3534" style="stop-color:#F7C471"/>
		<stop  offset="0.3915" style="stop-color:#F5BE65"/>
		<stop  offset="0.568" style="stop-color:#E3A846"/>
		<stop  offset="0.7142" style="stop-color:#D89C36"/>
		<stop  offset="0.8082" style="stop-color:#D49830"/>
		<stop  offset="0.8159" style="stop-color:#CF9430"/>
		<stop  offset="0.8748" style="stop-color:#B6822D"/>
		<stop  offset="0.9354" style="stop-color:#A8782B"/>
		<stop  offset="1" style="stop-color:#A4752A"/>
	</linearGradient>
	<path fill="url(#SVGID_11_)" d="M9.2,442.1v15.6l1.3-1.3c0,0,10.1-4.8,34.5-4.8c21.6,0,40.1,0.1,41.6,7.7c0.3,1.4,0-16.6,0-16.6
		s1.2-3.8-7.8-5.3c-9-1.4-19.9-2.7-32.6-2.7S9.2,437,9.2,442.1z"/>
	<path fill="#F3BC60" d="M47.9,451.5c-21.3,0-38.6,2.8-38.6,6.3c0,3.5,17.3,6.3,38.6,6.3c21.3,0,38.6-2.8,38.6-6.3
		C86.5,452.6,69.2,451.5,47.9,451.5z M48,462.1c-19.9,0-35.7-1.5-35.7-4.2c0-2.7,16.1-3.9,36-3.9s36,1.2,36,3.9
		C84.3,460.7,67.9,462.1,48,462.1z"/>
	<radialGradient id="SVGID_12_" cx="44.2407" cy="460.9092" r="7.2844" gradientUnits="userSpaceOnUse">
		<stop  offset="0.2235" style="stop-color:#FFE4AF"/>
		<stop  offset="0.2804" style="stop-color:#FBD591"/>
		<stop  offset="0.3534" style="stop-color:#F7C471"/>
		<stop  offset="0.3915" style="stop-color:#F5BE65"/>
		<stop  offset="0.5021" style="stop-color:#E3A846"/>
		<stop  offset="0.5937" style="stop-color:#D89C36"/>
		<stop  offset="0.6527" style="stop-color:#D49830"/>
		<stop  offset="0.6598" style="stop-color:#CF9430"/>
		<stop  offset="0.7144" style="stop-color:#B6822D"/>
		<stop  offset="0.7707" style="stop-color:#A8782B"/>
		<stop  offset="0.8307" style="stop-color:#A4752A"/>
		<stop  offset="1" style="stop-color:#745317"/>
	</radialGradient>
	<circle fill="url(#SVGID_12_)" cx="46.9" cy="463.5" r="7.6"/>
	<rect y="381.9" fill="none" stroke="#81CAF1" stroke-miterlimit="10" width="94.7" height="94.7"/>
</g>
</svg>
