<?xml version="1.0" encoding="utf-8"?>
<!-- Generator: Adobe Illustrator 16.0.4, SVG Export Plug-In . SVG Version: 6.00 Build 0)  -->
<!DOCTYPE svg PUBLIC "-//W3C//DTD SVG 1.1//EN" "http://www.w3.org/Graphics/SVG/1.1/DTD/svg11.dtd">
<svg version="1.1" xmlns="http://www.w3.org/2000/svg" xmlns:xlink="http://www.w3.org/1999/xlink" x="0px" y="0px"
	 width="708.66px" height="850.39px" viewBox="0 0 708.66 850.39" enable-background="new 0 0 708.66 850.39" xml:space="preserve">
<g id="F0">
	<radialGradient id="SVGID_1_" cx="1.3643" cy="0" r="34.4182" fx="-11.3972" fy="-13.1332" gradientUnits="userSpaceOnUse">
		<stop  offset="0.0714" style="stop-color:#FFFFFF"/>
		<stop  offset="0.1729" style="stop-color:#FFC585"/>
		<stop  offset="0.2367" style="stop-color:#FFA23C"/>
		<stop  offset="0.3335" style="stop-color:#D48632"/>
		<stop  offset="0.4315" style="stop-color:#AE6F29"/>
		<stop  offset="0.5108" style="stop-color:#976024"/>
		<stop  offset="0.5608" style="stop-color:#8F5B22"/>
		<stop  offset="0.5627" style="stop-color:#8E5B22"/>
		<stop  offset="0.6672" style="stop-color:#744817"/>
		<stop  offset="0.7736" style="stop-color:#613A10"/>
		<stop  offset="0.8832" style="stop-color:#56320B"/>
		<stop  offset="1" style="stop-color:#522F0A"/>
	</radialGradient>
	<circle fill="url(#SVGID_1_)" cx="1.365" cy="0" r="34.418"/>
</g>
<g id="F1">
	<path d="M1.364-35.614c-19.637,0-35.613,15.977-35.613,35.614c0,19.638,15.976,35.614,35.613,35.614
		c19.638,0,35.614-15.977,35.614-35.614C36.979-19.638,21.002-35.614,1.364-35.614z M8.914-32.008
		c0.678-0.03,1.365,0.103,2.139,0.228c6.654,2.034,12.429,6.104,16.592,11.481c-1.17-0.999-2.489-1.815-4.099-2.127
		c-0.372,2.037-0.524,4.012-1.118,5.844c-0.249,0.77-0.391,1.501-0.425,2.205L5.795-12.488c-2.882-3.238-6.105-6.072-9.973-8.083
		l3.713-10.875C2.662-31.642,5.786-31.87,8.914-32.008z M28.733-1.16l-7.792,16.433c-3.544,0.484-7.088,0.972-10.629,1.477
		L0.063,2.819c2.458-4.282,4.381-8.504,5.83-12.911l16.459-1.918c0.3,0.809,0.79,1.58,1.489,2.322c0.386,0.41,0.63,0.96,0.913,1.46
		C26.077-5.886,27.395-3.541,28.733-1.16z M-6.693-32.229c1.195,0.234,2.453,0.479,3.726,0.711l-3.73,10.922
		c-3.923,1.439-7.37,3.656-10.429,6.471c-0.182-0.192-0.423-0.329-0.706-0.367l-9.347-1.254c0.292-0.868,0.582-1.737,0.875-2.62
		C-21.78-25.156-14.827-30.194-6.693-32.229z M-29.872,11.315C-31.156,7.782-31.857,3.971-31.857,0c0-3.249,0.472-6.39,1.347-9.36
		c0.745-1.36,1.516-2.77,2.292-4.191c0.125,0.068,0.263,0.116,0.413,0.136l9.298,1.247c-0.004,0.037-0.009,0.075-0.011,0.11
		c-0.258,4.738,0.727,9.252,2.557,13.973l-7.588,12.04C-25.534,13.093-27.562,12.271-29.872,11.315z M-13.614,2.674
		c3.694,0.239,7.446,0.481,11.138,0.72c0.011,0.017,0.019,0.036,0.031,0.052l10.601,14.41c-1.909,2.854-3.805,5.73-5.819,8.78
		l-17.282-1.503c-2.287-3.178-4.513-6.399-6.777-9.593L-13.614,2.674z M1.364,33.222c-6.248,0-12.099-1.735-17.096-4.747
		c0.341-0.219,0.656-0.544,0.978-0.924l17.687,1.538c0.024,0.002,0.049,0.002,0.073,0.003c1.061,0.646,2.085,1.265,3.169,1.749
		c2.184,0.976,4.437,1.261,6.8,0.275c3.42-1.426,6.536-3.279,9.33-5.714c0.931-0.811,1.401-1.785,1.597-2.945
		c0.38-2.258,0.074-4.426-0.628-6.521l7.662-16.158c0.023-0.005,0.047-0.009,0.07-0.014c1.873-0.435,2.987-1.137,3.486-2.287
		C34.554-1.69,34.587-0.849,34.587,0C34.587,18.318,19.684,33.222,1.364,33.222z"/>
</g>
<g id="F2">
	<path d="M36.979,0c0-19.638-15.977-35.614-35.614-35.614c-19.637,0-35.613,15.977-35.613,35.614
		c0,19.637,15.976,35.614,35.613,35.614c7.859,0,15.129-2.56,21.026-6.888c0.103-0.054,0.197-0.123,0.281-0.206
		C31.351,22.02,36.979,11.654,36.979,0z M34.587,0c0,0.145-0.004,0.289-0.006,0.434l-1.525-3.059
		c0.056-0.428,0.076-0.94,0.082-1.575c0.001-0.177,0-0.354,0-0.531c0.032-0.003,0.063-0.006,0.096-0.009
		c-0.151-1.45-0.125-2.947-0.494-4.339c-0.595-2.246-1.094-4.639-2.276-6.579c-1.851-3.04-4.855-4.844-8.093-6.219
		c-0.046-0.096-0.101-0.189-0.174-0.273l-7.12-8.109C26.573-25.028,34.587-13.433,34.587,0z M15.543,16.024
		c-3.855,0.23-7.707,0.667-11.561,0.68c-0.754,0.002-1.417,0.072-2.005,0.236L-7.779,1.88c2.142-4.048,4.239-8.12,6.31-12.205
		l18.718-0.468c1.983,3.434,3.991,6.854,6.013,10.265L15.543,16.024z M-4.643,26.262l-14.601-1.656
		c-0.151-0.321-0.387-0.646-0.697-0.99c-2.766-3.063-4.906-6.567-6.705-10.282c-0.036-0.074-0.076-0.149-0.117-0.223l6.665-11.851
		c2.872,0.575,5.759,1.081,8.641,1.609c0.021-0.091,0.043-0.182,0.065-0.273c0.413,0,0.83,0.021,1.244,0.025l10.1,15.592
		c-0.307,0.357-0.584,0.788-0.835,1.309C-1.973,21.782-3.29,23.934-4.643,26.262z M-3.366-31.832
		c0.298,0.015,0.593,0.012,0.884-0.023c4.049-0.502,8.081-0.714,12.135-0.042c0.238,0.04,0.49-0.001,0.746-0.068
		c0.007,0.008,0.011,0.017,0.018,0.025l9.654,10.996c-1.183,2.576-2.415,5.128-3.574,7.715c-0.009,0.02-0.015,0.043-0.022,0.064
		l-17.628,0.441c-2.265-3.011-4.727-5.845-7.855-7.986L-3.366-31.832z M-6.424-32.298c0.187,0.041,0.372,0.079,0.555,0.113
		l-5.565,10.964c-3.355,1.181-6.442,2.898-9.155,5.202c-0.54,0.458-1.108,0.892-1.582,1.416c-0.013-0.009-0.023-0.021-0.037-0.029
		l-4.606-2.946C-22.265-24.844-14.986-30.233-6.424-32.298z M-28.011-15.503l4.515,2.887c0.092,0.058,0.189,0.102,0.288,0.132
		c-0.004,0.025-0.01,0.049-0.013,0.075c-0.574,4.194-0.29,8.289,0.864,12.33c0.024,0.086,0.068,0.175,0.121,0.265l-6.343,11.279
		c-0.52-0.339-1.05-0.671-1.589-1.007C-31.263,7.168-31.857,3.652-31.857,0C-31.857-5.596-30.465-10.872-28.011-15.503z
		 M-17.705,27.188l14.631,1.659c1.185,0.723,2.331,1.401,3.548,1.908c2.611,1.089,5.392,2,8.218,0.709
		c2.685-1.225,5.323-2.56,7.927-3.948c0.279-0.148,0.533-0.31,0.765-0.481l1.991,0.869c-5.192,3.363-11.377,5.318-18.011,5.318
		C-5.726,33.222-12.304,30.988-17.705,27.188z M21.654,26.288l-2.794-1.219c0.272-0.838,0.249-1.799-0.091-2.867
		c-0.461-1.453-0.944-2.9-1.459-4.335c0.03-0.045,0.057-0.093,0.081-0.144l7.82-16.768c1.696-0.277,3.409-0.532,5.034-1.053
		c0.467-0.149,0.855-0.289,1.183-0.432l2.662,5.336c0.034,0.069,0.077,0.132,0.122,0.191C32.904,13.625,28.266,21.173,21.654,26.288
		z"/>
</g>
<g id="F3">
	<path d="M33.074-16.205c-0.017-0.042-0.031-0.084-0.053-0.125c-0.016-0.028-0.036-0.051-0.053-0.077
		C27.023-27.81,15.089-35.614,1.364-35.614c-12.795,0-24.035,6.785-30.315,16.944c-0.062,0.078-0.114,0.16-0.154,0.248
		C-32.368-13.044-34.249-6.738-34.249,0c0,13.1,7.111,24.569,17.674,30.755c0.094,0.075,0.197,0.136,0.307,0.179
		c5.202,2.977,11.222,4.68,17.632,4.68c6.415,0,12.438-1.705,17.641-4.685c0.11-0.044,0.214-0.104,0.307-0.179
		C29.872,24.562,36.979,13.096,36.979,0C36.979-5.832,35.569-11.341,33.074-16.205z M10.514-31.937
		c8.487,2.435,15.593,8.167,19.834,15.716l-2.474,1.366c-2.723-2.914-6.065-4.977-9.869-6.291c-0.238-0.083-0.455-0.143-0.656-0.163
		c-0.03-0.06-0.062-0.119-0.102-0.174L9.824-31.66C10.054-31.739,10.283-31.83,10.514-31.937z M-5.482,17.163l-9.535-15.992
		c0.012-0.021,0.024-0.042,0.037-0.064c2.071-3.761,4.162-7.513,6.378-11.189c0.172-0.285,0.306-0.552,0.401-0.809l18.238,0.151
		c2.299,4.218,4.645,8.41,7.009,12.591L7.333,17.188c-2.172,0.03-4.345,0.009-6.518,0.009c0-0.017,0-0.033,0-0.05
		C-1.284,17.147-3.384,17.122-5.482,17.163z M-4.861-31.378c3.753-0.477,7.504-0.641,11.229-0.039
		c0.251,0.041,0.496,0.069,0.737,0.088l8.211,11.256c0.073,0.1,0.159,0.184,0.253,0.253c-1.658,2.229-3.333,4.446-4.968,6.691
		l-19.268-0.16c-1.738-2.263-3.387-4.595-5.134-6.85l8.884-11.237C-4.898-31.376-4.879-31.375-4.861-31.378z M-8.181-31.822
		c0.165,0.029,0.329,0.061,0.495,0.096l-8.567,10.835c-3.082,0.978-5.762,2.694-8.147,4.849l-2.082-2.053
		C-22.24-24.604-15.779-29.539-8.181-31.822z M-27.75-15.986l1.768,1.743c-0.216,0.35-0.387,0.714-0.486,1.083
		c-0.673,2.496-1.399,7.67-1.324,7.697c0.149,1.449,0.316,2.896,0.441,4.347c0.016,0.189,0.049,0.358,0.096,0.515l-4.194,5.793
		C-31.718,3.499-31.857,1.766-31.857,0C-31.857-5.792-30.367-11.24-27.75-15.986z M-30.794,8.351
		c0.025-0.028,0.049-0.056,0.071-0.086l5.393-7.449c2.597,0.896,5.277,1.28,8.019,1.532c0.076,0.007,0.149,0.012,0.22,0.016
		l9.318,15.628c-1.415,2.438-2.712,4.943-3.35,7.707l-4.689,2.73C-23.12,23.996-28.592,16.825-30.794,8.351z M1.364,33.222
		c-5.287,0-10.288-1.244-14.73-3.45l3.037-1.769c2.408,1.996,5.203,3.32,8.196,4.171c1.361,0.387,2.89,0.57,4.283,0.388
		c3.763-0.494,7.032-2.231,10.066-4.477c0.028-0.021,0.054-0.042,0.081-0.062l3.643,1.825C11.538,32.007,6.59,33.222,1.364,33.222z
		 M18.497,28.454l-5.875-2.944c-1.044-2.418-2.112-4.827-3.134-7.254l9.964-15.73c3.064-0.18,6.094-0.565,8.941-1.846l5.681,3.639
		c0.07,0.044,0.143,0.078,0.217,0.107C32.929,14.613,26.933,23.355,18.497,28.454z M29.606-1.385
		c0.195-1.376,0.348-2.783,0.538-4.313c-0.214-1.722-0.35-3.624-0.718-5.479c-0.103-0.516-0.219-1.065-0.377-1.593l2.397-1.324
		C33.458-9.812,34.587-5.036,34.587,0c0,0.596-0.017,1.188-0.048,1.775L29.606-1.385z"/>
</g>
<g id="F4">
	<path d="M32.725-16.866c-0.007-0.019-0.011-0.038-0.02-0.056c-0.036-0.078-0.08-0.149-0.129-0.215
		C26.51-28.142,14.794-35.614,1.364-35.614C-18.273-35.614-34.25-19.638-34.25,0c0,0.232,0.004,0.463,0.009,0.694
		c-0.011,0.098-0.007,0.196,0.005,0.293c0.525,19.183,16.292,34.627,35.6,34.627c19.638,0,35.614-15.977,35.614-35.614
		C36.979-6.098,35.438-11.843,32.725-16.866z M5.623,25.854c-1.581-2.697-3.135-5.35-4.71-7.983l9.845-15.151
		c3.885,0.045,7.742-0.218,11.501-1.271l6.438,11.344c0.042,0.074,0.093,0.14,0.147,0.201c-0.254,0.267-0.487,0.553-0.688,0.851
		c-2.269,3.36-4.427,6.797-6.754,10.115c-0.084,0.121-0.161,0.229-0.233,0.333L5.623,25.854z M-16.535,26.118
		c2.749,2.402,5.893,4.151,9.372,5.267c0.863,0.276,1.798,0.527,2.7,0.564v0.762c-5.189-0.922-9.967-3.053-14.028-6.09
		L-16.535,26.118z M-13.876,15.888L-21.92-0.527c-0.001-0.002-0.003-0.005-0.005-0.008c2.16-3.602,4.309-7.211,6.438-10.831
		l17.939,0.461C4.497-6.752,6.587-2.622,8.701,1.495l-9.955,15.318C-5.459,16.479-9.667,16.168-13.876,15.888z M-6.064-32.123
		c3.693-0.404,7.37-0.182,11.046,0.389l5.672,10.929c-3.014,2.039-5.473,4.66-7.683,7.521l-18.144-0.467
		c-1.004-2.355-2.034-4.7-3.1-7.027L-6.064-32.123z M30.722,11.515l-6.72-11.841c0.603-3.08,1.327-8.13,1.203-8.152
		c0-0.752,0.083-1.517-0.018-2.255c-0.06-0.44-0.104-0.879-0.169-1.311l6.059-2.807c2.244,4.471,3.51,9.515,3.51,14.849
		c0,3.494-0.544,6.863-1.548,10.028C32.193,10.569,31.434,11.041,30.722,11.515z M29.925-16.952l-5.719,2.649
		c-0.177-0.247-0.392-0.485-0.656-0.713c-3.13-2.7-6.53-4.871-10.421-6.212L7.534-32.01c0.449-0.11,0.903-0.228,1.372-0.349
		C17.819-30.282,25.365-24.605,29.925-16.952z M-10.936-30.861l-9.895,9.195c-2.107,0.852-4.04,1.975-5.613,3.509
		C-22.724-23.834-17.315-28.309-10.936-30.861z M-31.111-3.363l-0.646,0.774c0.134-1.73,0.402-3.423,0.792-5.069
		C-31.12-6.244-31.16-4.808-31.111-3.363z M-31.833,1.233l1.979-2.37c1.721,1.104,3.693,1.527,5.868,1.833l8.096,16.521
		c-0.975,2.119-1.661,4.322-1.636,6.686l-3.258,0.836C-27.291,18.908-31.49,10.555-31.833,1.233z M-2.071,33.045v-1.367
		c2.626-0.533,5.023-1.698,7.341-3.386l15.708-1.577c0.01,0.018,0.023,0.038,0.034,0.056c-5.506,4.052-12.301,6.45-19.647,6.45
		C0.205,33.222-0.941,33.162-2.071,33.045z"/>
</g>
<g id="F5">
	<path d="M1.364-35.614c-6.839,0-13.233,1.939-18.664,5.295c-0.189,0.06-0.363,0.166-0.504,0.315
		C-27.687-23.668-34.249-12.586-34.249,0c0,8.134,2.742,15.637,7.348,21.64c0.088,0.237,0.246,0.434,0.448,0.572
		c6.532,8.164,16.573,13.403,27.817,13.403c19.638,0,35.614-15.977,35.614-35.614C36.979-19.638,21.002-35.614,1.364-35.614z
		 M6.305-31.424c1.234-0.388,2.566-0.469,3.927-0.594c7.673,2.127,14.238,6.945,18.612,13.37c0.224,0.588,0.444,1.178,0.653,1.771
		c0.147,0.417,0.231,0.871,0.328,1.313l-10.254,1.823c-2.934-2.779-6.304-4.886-10.041-6.401L5.764-31.289
		C5.943-31.324,6.123-31.367,6.305-31.424z M-16.096-28.251c2.288-1.419,4.76-2.568,7.372-3.403
		c-0.051,0.049-0.105,0.098-0.148,0.147c3.537,0,6.888-0.087,10.229,0.038c0.636,0.024,1.26,0.117,1.886,0.191l3.619,10.71
		c-3.944,2-7.323,4.729-10.24,8.016l-16.305-2.073c-0.02-0.115-0.043-0.232-0.073-0.352c-0.426-1.75-0.667-3.546-0.93-5.398
		L-16.096-28.251z M-21.054-24.496l-1.84,3.157c-0.007,0.012-0.01,0.025-0.017,0.038c-1.006,0.567-1.917,1.226-2.735,1.98
		C-24.297-21.201-22.757-22.936-21.054-24.496z M-25.189,19.942C-29.374,14.385-31.857,7.477-31.857,0
		c0-0.929,0.041-1.85,0.116-2.76c0.419,1.246,1.485,1.988,3.35,2.483c0.049,0.013,0.098,0.024,0.146,0.036l7.452,15.424
		c-0.548,1.436-0.966,2.869-1.05,4.323L-25.189,19.942z M-23.398,22.121l1.742-0.228c0.224,1.067,0.576,2.248,1.278,2.971
		c0.555,0.572,1.13,1.117,1.726,1.631C-20.373,25.193-21.962,23.727-23.398,22.121z M-12.408,16.399
		c-1.935-0.299-3.873-0.598-5.81-0.897c0.036-0.232,0.005-0.476-0.104-0.703L-26.22-1.548c1.843-3.146,3.594-6.207,5.493-9.173
		c0.334-0.522,0.613-1.017,0.809-1.522l16.01,2.035c1.253,4.566,3.297,8.808,5.526,12.963c0.05,0.092,0.123,0.184,0.211,0.271
		l-9.49,14.022c-1.254-0.422-2.838-0.333-4.226-0.549C-12.061,16.472-12.232,16.426-12.408,16.399z M1.364,33.222
		c-3.393,0-6.669-0.512-9.755-1.462c0.654,0.062,1.323,0.043,1.944-0.059c2.114-0.347,4.004-1.229,5.753-2.569l17.632-0.979
		c0.278,0.297,0.544,0.545,0.802,0.744C12.904,31.648,7.315,33.222,1.364,33.222z M24.09,15.859
		c-2.372,3.279-4.665,6.616-7.041,9.892l-17.568,0.974c-1.15-1.733-2.278-3.433-3.406-5.131c-0.647-0.974-1.162-2.155-1.839-3.081
		L4.356,3.559c0.945,0.008,1.891-0.012,2.836-0.012C7.202,3.663,7.21,3.778,7.22,3.894c3.175-0.351,6.352-0.691,9.523-1.073
		l8.086,12.266C24.546,15.315,24.291,15.582,24.09,15.859z M32.396,11.862c-1.837,0.73-3.635,1.427-5.404,2.159L18.537,1.195
		c1.575-4.092,2.481-8.325,2.382-12.747l9.946-1.768c0.937,1.462,1.789,2.963,2.536,4.515C34.172-5.999,34.587-3.047,34.587,0
		C34.587,4.177,33.81,8.176,32.396,11.862z"/>
</g>
<g id="F6">
	<path d="M1.364-35.614c-19.637,0-35.613,15.977-35.613,35.614c0,19.638,15.976,35.614,35.613,35.614
		c19.638,0,35.614-15.977,35.614-35.614C36.979-19.638,21.002-35.614,1.364-35.614z M11.09,25.759l-18.555,0.47
		c-2.278-3.302-4.457-6.463-6.645-9.608l9.789-13.689c2.297,0.194,4.561,0.355,6.622,0.512c2.353-0.21,4.448-0.376,6.512-0.597
		l8.527,14.137c-0.535,0.532-1.019,1.169-1.454,1.942C14.527,21.336,12.779,23.528,11.09,25.759z M-24.58-13.178l13.398,1.403
		c0.001,0.058,0.005,0.115,0.012,0.169c0.617,4.87,2.276,9.415,4.444,13.787l-9.482,13.261c-2.705-0.657-5.424-1.305-8.192-1.965
		l-5.078-18.154C-28.145-7.667-26.473-10.483-24.58-13.178z M26.786,13.549c-1.556,0.464-3.053,0.903-4.58,1.162
		c-1.082,0.183-2.047,0.461-2.911,0.882L10.732,1.396C12.646-2.516,14-6.609,14.607-10.928L27.918-13.1
		c0.668,1.531,1.535,2.997,2.522,4.443c1.066,1.562,1.79,3.358,2.563,5.12L26.786,13.549z M25.945-22.328
		c0.287,0.977,0.561,1.78,0.555,2.582c-0.013,1.538,0.203,2.979,0.593,4.357l-13.136,2.144c-3.349-3.371-7.178-6.054-11.636-7.785
		c-0.015-0.006-0.033-0.01-0.048-0.016l0.619-10.618c2.087-0.188,4.156-0.431,6.142-0.664
		C15.652-30.757,21.512-27.203,25.945-22.328z M-6.466-32.288c1.737,0.077,3.454,0.157,5.166,0.269
		c0.6,0.04,1.202,0.206,1.798,0.326l-0.649,11.131c-3.54,1.659-6.725,3.842-9.545,6.537l-14.219-1.489
		c0.2-2.132,0.39-4.301,0.602-6.701C-18.907-27.108-13.069-30.686-6.466-32.288z M-31.755-2.615c0.13,0.086,0.275,0.165,0.435,0.233
		l4.945,17.679c-0.072,1.2,0.037,2.371,0.355,3.489C-29.7,13.439-31.857,6.967-31.857,0C-31.857-0.88-31.822-1.752-31.755-2.615z
		 M-12.134,30.353c0.944-0.006,1.859-0.29,2.757-0.775c0.499-0.27,0.965-0.601,1.415-0.943l18.626-0.472
		c1.45,1.459,2.946,2.123,4.621,1.998c-4.236,1.963-8.952,3.061-13.92,3.061C-3.439,33.222-8.007,32.195-12.134,30.353z
		 M28.865,18.619c0.479-1.531,0.613-3.173,0.425-4.957l5.285-14.524C34.583-0.576,34.587-0.289,34.587,0
		C34.587,6.894,32.475,13.304,28.865,18.619z"/>
</g>
</svg>
