<?xml version="1.0" encoding="utf-8"?>
<!-- Generator: Adobe Illustrator 16.0.4, SVG Export Plug-In . SVG Version: 6.00 Build 0)  -->
<!DOCTYPE svg PUBLIC "-//W3C//DTD SVG 1.0//EN" "http://www.w3.org/TR/2001/REC-SVG-20010904/DTD/svg10.dtd">
<svg version="1.0" id="Layer_1" xmlns="http://www.w3.org/2000/svg" xmlns:xlink="http://www.w3.org/1999/xlink" x="0px" y="0px"
	 width="930px" height="400px" viewBox="0 0 930 400" enable-background="new 0 0 930 400" xml:space="preserve">
<g id="Box">
	<path fill="#285734" d="M88.317-10.828H0.937c0.001,0.02,0.002,0.04,0.003,0.06c-24.062,0.228-66.589,0.903-85.866,1.016
		c0.213,2.678,0.313,18.294,0.523,20.969c0.085-0.089,0.18-0.298,0.281-0.595c0.175,11.492,0.96,60.96,1.012,65.31
		c0.043,3.661,7.652,11.177,10.796,11.165c19.297-0.073,61.454,0.536,80.751,0.505c0-0.078-0.002-0.165-0.003-0.244
		c5.686,0.173,14.646,0.409,14.922,0.479c18.363-0.071,28.445-0.055,46.812-0.198c2.027-0.017,17.25,1.939,16.158-8.227
		c-0.291-8.081,0.885-51.711,0.109-57.204c-0.139-0.988-0.971-4.101-0.15-4.857c0.623-8.892-0.191-17.839,1.027-26.708
		C87.091-8.541,86.928-10.208,88.317-10.828z"/>
	<path fill-rule="evenodd" clip-rule="evenodd" fill="#1A3F22" d="M84.144,1.175c0.691,0.706,1.984,9.105,2.674,9.814
		c0.209-2.646,0.311-18.098,0.523-20.746c-21.488-0.124-42.975-0.248-64.461-0.371C22.868-7.914,22.718,0.626,22.706,2.84
		c18.859-2.028,34.561-6.333,53.438-4.993C77.896-2.03,82.624-3.906,84.144,1.175z"/>
	<path fill-rule="evenodd" clip-rule="evenodd" fill="#32683E" d="M80.165,83.082c-0.254-7.971-0.254-7.971-7.4-7.971
		c-13.086-0.001-26.178-0.162-39.262,0.093c-4.126,0.08-5.396-1.521-5.179-5.994c0.604-12.39,1.238-24.775,3.851-36.872
		c0.887-4.103,0.42-8.154,0.568-12.226c0.15-4.098,4.18-7.965,7.623-6.68c7.707,2.876,15.852,2.474,23.701,4.339
		c4.039,0.96,7.752,2.719,11.594,4.139c3.697,1.365,6.035,1.193,5.355-4.224c-0.121-0.975,0.01-1.978,0.729-2.724
		c-0.221,21.853-0.441,43.705-0.672,65.556C81.063,81.482,81.134,82.528,80.165,83.082z"/>
	<path fill-rule="evenodd" clip-rule="evenodd" fill="#88C564" d="M22.491,87.061c0.407,0.1,0.814,0.199,1.217,0.3
		c-0.346,0.081-0.688,0.16-1.031,0.24C22.628,87.417,22.565,87.236,22.491,87.061z"/>
	<g>
		<path fill="#406E4B" d="M4.305,73.329c0.025-3.997,0.164-7.955,0.28-11.657C4.648,59.69,3.959,42.274,3.96,40.297
			C3.973,25.974,3.578,15.488,3.11,5.68C-17.633,3.416-53.539,1.222-70.76,2.457c-1.751,0.125-7.54,3.397-9.06,8.532
			c-0.459,0.475,0.895,5.688,0.257,8.468c0.003,0.132-0.253,27.372-0.25,27.5C-73.813,62.457-69.563,90.707,4.305,73.329z"/>
	</g>
	<path fill-rule="evenodd" clip-rule="evenodd" fill="#4E8259" d="M-67.894,6.138c2.479,1.994,5.658,1.177,8.435,2.056
		c1.451,0.461,3.083,0.402,3.363,2.281c0.282,1.894-1.301,2.459-2.606,3.187c-1.88,1.047-3.687,2.237-5.616,3.181
		c-1.928,0.943-3.978,1.743-5.575-0.658c-0.964-3.129-1.305-6.262-0.07-9.408C-69.274,6.562-68.584,6.35-67.894,6.138z"/>
</g>
<g id="Lid">
	<path fill="#285734" d="M91.164-11.029h0.503c0.247-6.008,0.527-12.016,0.734-18.024c-0.082,0.413-0.166,0.816-0.246,1.197
		c-2.09-0.523-4.217-0.916-6.215-1.746c0.096,0.04,0.312,0.131-0.01-0.003c-6.795-2.865-12.42-5.525-7.434-11.243
		c3.447-3.957-1.994-2.635-5.586-5.048c-2.492-1.673-8.543-0.272-11.289-0.125c-3.648,0.195-6.365-1.633-9.875-2.625
		c-4.588,1.996-6.635-2.383-11.875-2.375c-5.688,0.009-8.92-1.171-14.095-1.874l-27.198-2.506c0.244,0.853,0.002,10.903,0,12.073
		c-0.01,9.809-0.307,19.73,0.333,33.475l89.732-0.151C89.2-10.252,90.016-11.343,91.164-11.029z"/>
	<path fill="#406E4B" d="M-0.417-55.401c-0.449-0.001-21.835,2.649-22.284,2.648c-5.487,0.449-25.971,2.269-29.612,4.646
		c-4.211,2.75-25.55,2.511-25.55,2.511s-0.869,0.84-2.139,1.853c1.613,1.975,2.543,3.917,2.808,5.735c0,0.002,0,0.004,0,0.005
		c0.052,0.359,0.08,0.714,0.081,1.062c0,0.014-0.001,0.027-0.001,0.042c-0.001,0.336-0.023,0.666-0.072,0.991
		c-0.004,0.028-0.012,0.057-0.017,0.085c-0.05,0.309-0.117,0.612-0.21,0.91c-0.014,0.045-0.034,0.088-0.049,0.133
		c-0.094,0.278-0.199,0.554-0.33,0.82c-0.03,0.062-0.07,0.121-0.102,0.183c-0.131,0.246-0.268,0.49-0.43,0.727
		c-0.053,0.076-0.119,0.149-0.175,0.226c-0.16,0.214-0.322,0.428-0.51,0.632c-0.083,0.092-0.183,0.178-0.272,0.267
		c-0.182,0.182-0.361,0.364-0.565,0.537c-0.122,0.104-0.264,0.199-0.394,0.3c-0.195,0.15-0.383,0.303-0.597,0.445
		c-0.171,0.114-0.365,0.219-0.548,0.327c-0.197,0.118-0.384,0.24-0.595,0.352c-0.246,0.13-0.518,0.247-0.782,0.368
		c-0.173,0.08-0.333,0.166-0.514,0.241c-0.458,0.19-0.94,0.369-1.447,0.533c-1.561,0.505-3.184,0.816-4.777,1.216
		c0.016,4.604,0.234,9.222-0.019,13.812c-0.194,3.515,1.002,4.892,4.469,4.154c21.488-0.038,63.147-0.177,84.633-0.214
		C0.273-24.204-1.178-41.05-0.417-55.401z"/>
	<path fill="#4E8259" d="M-83.438-28.793c6.795-2.865,12.419-5.525,7.434-11.243c-3.447-3.957,1.995-2.635,5.587-5.048
		c2.492-1.673,8.542-0.272,11.288-0.125c3.648,0.195,6.366-1.633,9.875-2.625c4.589,1.996,6.634-2.383,11.875-2.375
		c6.316,0.01,9.597-1.448,15.88-2.089c-15.028,0.249-30.081-0.161-45.105-0.457c-5.203-0.103-10.637-0.562-15.818,0.003
		c-11.431,1.243-8.999,17.458-7.239,25.708C-87.57-27.568-85.438-27.961-83.438-28.793C-83.257-28.869-83.896-28.603-83.438-28.793z
		"/>
	<path fill-rule="evenodd" clip-rule="evenodd" fill="#4E8259" d="M-84.16-10.322c18.447-0.236,36.894-0.473,55.341-0.707
		c1.164-0.017,2.359,0.347,3.484-0.083c1.818-0.697,5.095,2.757,4.806-4.8c-0.227-5.921-2.572-10.42-5.562-9.299
		c-6.425,2.408-12.899,1.111-19.319,2.315c-9.591,1.8-19.236,2.989-28.73,6.108c-4.676,1.535-9.496,0.48-14.039,3.721
		C-87.494-8.048-85.496-11.264-84.16-10.322z"/>
	<path fill-rule="evenodd" clip-rule="evenodd" fill="#406E4B" d="M86.293-10.565c-18.445-0.224-36.893-0.446-55.342-0.667
		c-1.162-0.016-2.357,0.327-3.482-0.078c-1.818-0.657-5.096,2.601-4.807-4.527c0.227-5.585,2.572-9.829,5.562-8.771
		c6.424,2.271,12.898,1.048,19.318,2.184c9.592,1.698,19.236,2.82,28.73,5.763c4.676,1.448,9.496,0.453,14.039,3.51
		C89.627-8.42,87.629-11.454,86.293-10.565z"/>
	<path fill="#1A3F22" d="M92.684-47.084c-0.314-0.938-0.721-1.806-1.223-2.588c-0.02,0.008-0.039,0.015-0.057,0.022
		c-1.352-2.054-3.414-3.479-6.488-3.813c-5.182-0.564-10.615-0.105-15.818-0.003C54.073-53.17,39.02-52.76,23.993-53.009
		c0.625,0.063,1.213,0.138,1.784,0.215h0.703c4.772,0.709,7.968,1.781,13.392,1.772c5.24-0.008,7.287,4.371,11.875,2.375
		c3.51,0.992,6.227,2.82,9.875,2.625c2.746-0.147,8.797-1.548,11.289,0.125c3.592,2.413,9.033,1.091,5.586,5.048
		c-4.986,5.718,0.639,8.378,7.434,11.243c-0.053-0.022-0.031-0.014,0.01,0.003c1.998,0.83,4.125,1.223,6.215,1.746
		c0.08-0.381,0.164-0.784,0.246-1.197C92.61-35.062,92.737-41.07,92.684-47.084z"/>
	<path fill="none" d="M65.417-73.953h2.519C66.788-74.266,65.972-74.2,65.417-73.953z"/>
	<path fill="#285734" d="M68.433-73.809c0.002-0.048,0.004-0.096,0.006-0.144h-0.503C68.098-73.908,68.255-73.87,68.433-73.809z"/>
</g>
<g>
	<path fill="#406E4B" d="M21.931,85.765c0,0.026-0.311-6.745-0.785-17.275C21.012,74.254,21.091,80.015,21.931,85.765z"/>
	<path fill="#406E4B" d="M-20.736-10.857h-0.224c0.007,2.889,0.015,5.778,0.022,8.667C-20.861-5.172-20.792-8.05-20.736-10.857z"/>
	<path fill="#406E4B" d="M21.978,50.769c0.068-0.75,0.124-1.499,0.125-2.248c0.016-21.934,0.008-40.475,0.004-59.378H22.06
		L21.978,50.769z"/>
	<path fill="#A7190E" d="M21.146,68.49c-0.894-19.832-2.368-53.009-3.446-79.347H-8.875c0.002,1.008-0.064,2.064-0.263,3.194
		c-2.116,12.06-2.01,23.054-1.314,33.88c0.633,9.85,2.221,19.047,0.766,30.416c-1.072,8.371-3.655,15.938-5.663,23.825
		c-0.931,3.654-1.606,5.706-2.278,6.356c13.253,0.75,26.506,1.133,39.743-0.435c-0.049-0.209-0.111-0.415-0.186-0.615
		C21.091,80.015,21.012,74.254,21.146,68.49z"/>
	<path fill="#406E4B" d="M-20.023,84.416c-0.1-0.229-0.409-0.042-0.698,0.106c0.001,0.393,0.002,0.785,0.003,1.177
		c0.681,0.342,1.352,0.918,2.042,1.042C-19.075,86.343-19.51,85.566-20.023,84.416z"/>
	<path fill="#406E4B" d="M-18.676,86.741c0.371,0.37,0.71,0.403,1.05,0.074c-0.291-0.016-0.583-0.03-0.874-0.047
		C-18.559,86.765-18.618,86.751-18.676,86.741z"/>
	<path fill="#406E4B" d="M-21.208,7.572c-0.74,25.799,0.31,50.476-0.118,76.057c-0.006,0.399,0.212,0.679,0.325,1.015
		c0.085-0.024,0.181-0.07,0.279-0.121c-0.074-28.904-0.146-57.808-0.217-86.712C-21.02,0.92-21.109,4.142-21.208,7.572z"/>
	<path fill="#D43A39" d="M-9.686,56.633c1.455-11.369-0.133-20.566-0.766-30.416c-0.696-10.826-0.802-21.82,1.314-33.88
		c0.198-1.13,0.265-2.187,0.263-3.194h-5.9c0.037,3.626,0.068,7.252,0.117,10.878c0.079,5.869-0.213,11.596-1.316,16.67
		c-0.971,4.465-2.143,5.05-3.412,0.022c-0.892-3.536-1.25-7.823-1.151-11.235c0.154-5.426,0.303-10.853,0.42-16.335h-0.619
		c-0.056,2.807-0.125,5.685-0.202,8.667c0.072,28.904,0.144,57.808,0.217,86.712c0.29-0.149,0.599-0.336,0.698-0.106
		c0.513,1.151,0.948,1.928,1.347,2.325c0.059,0.011,0.117,0.024,0.176,0.027c0.291,0.017,0.583,0.031,0.874,0.047
		c0.672-0.65,1.347-2.703,2.278-6.356C-13.341,72.571-10.757,65.004-9.686,56.633z"/>
	<path fill="#E74F54" d="M-20.538,5.478c-0.098,3.412,0.26,7.699,1.151,11.235c1.27,5.027,2.441,4.442,3.412-0.022
		c1.103-5.074,1.395-10.801,1.316-16.67c-0.048-3.625-0.08-7.252-0.117-10.878h-5.342C-20.235-5.375-20.384,0.052-20.538,5.478z"/>
	<path fill="#406E4B" d="M21.146,68.49c0.474,10.531,0.785,17.302,0.785,17.275l0.046-34.997c-0.137,1.5-0.343,3.001-0.384,4.505
		C21.472,59.678,21.249,64.085,21.146,68.49z"/>
	<path fill="#8C0C06" d="M17.701-10.857c1.078,26.338,2.552,59.515,3.446,79.347c0.102-4.405,0.325-8.812,0.447-13.216
		c0.042-1.504,0.248-3.005,0.384-4.505l0.082-61.625H17.701z"/>
</g>
<g id="Ribbon">
	<path fill-rule="evenodd" clip-rule="evenodd" fill="#1A3F22" d="M83.781-82.142c-1.461-2.276-6.145,0.896-7.52-1.45
		c-2.41-4.111-3.463-8.495-5.154-12.748c-0.119-0.94-0.516-1.784-1.43-2.45c-2.162-1.689-4.871-1.434-7.455-1.064
		c-11.766,1.677-22.486,5.243-32.137,10.728c-6.744,3.832-13.65,7.518-19.207,12.425c-1.893,1.674-4.049,1.989-6.656,1.312
		c-4.158-1.08-8.435-0.916-12.714-0.654c-0.224-0.065-0.444-0.13-0.667-0.195c-0.265-0.047-0.529-0.096-0.794-0.144
		c-3.765-2.35-6.665-5.534-11.347-7.001c-3.859-2.597-8.65-4.035-13.049-5.889c-8.263-3.48-17.674-4.703-26.557-6.978
		c-2.248-0.575-4.721-0.476-7.101-0.151c-1.826,0.248-2.886,0.938-2.357,2.508c-0.946-0.057-1.411,0.255-1.743,0.745
		c-2.132,0.434-1.505,2.263-2.056,3.382c-3.139,6.372,3.653,6.798,3.063,13.654c0.087,0.185,0.175,0.368,0.261,0.552
		c-0.045,0.219-0.099,0.437-0.143,0.654c-1.649,0.979-3.257,2.309-1.669,3.745c1.436,1.3,9.427,3.271,11.504,3.492
		c6.898,0.737-1.63,8.372,5.398,8.385c0.062,1.378-1.369,1.93-1.778,2.882c-0.709,0.45-1.433,0.888-2.126,1.353
		c-4.198,2.822-6.536,7.123-11.997,8.956c-0.873,0.293-0.76,1.016-0.681,1.626c0.79,6.087-2.614,11.239-1.816,17.325
		c0.088,1.786,1.08,7.081,1.167,8.865c-0.029,2.545,3.13,2.518,3.268,5.057c0.049,0.947-0.937,2.109,0.624,2.882
		c8.435-5.973,16-12.611,24.44-18.602c12.181-8.646,23.528-17.963,33.893-27.944c3.464-3.336,6.607-6.863,13.245-5.789
		c0.234,0.038,0.52-0.069,0.77-0.132c2.557-0.633,4.262-0.609,5.998,1.666c1.207,1.578,2.371,3.523,4.52,4.711
		c0.059,0.2,0.029,0.464,0.186,0.59c9.99,8.127,21.542,18.98,31.808,26.934c8.656,6.704,13.249,15.532,24.792,19.765
		c7.889-4.066,7.127-9.675,7.5-12.665c1.247-8.235,6.278-14.233,6.27-18.278c1.842-4.871-11.289-6.322-16.598-9.63
		c-0.33-0.497-0.662-0.997-1.582-0.755c-0.004,0-0.18-0.15-0.182-0.15c-2.082-4.3-8.248-4.948-11.865-7.879
		c0.531-1.159-2.684-8.965-1.584-9.171c7.379-1.379,7.902,2.636,13.764-1.461C73.025-72.621,87.309-76.652,83.781-82.142z"/>
	<path fill-rule="evenodd" clip-rule="evenodd" fill="#D43A39" d="M54.418-67.67c-6.916-0.735-13.961-0.221-20.869-1.646
		c4.529,0,9.061,0,14.645,0c-4.188-3.027-8.604-3.485-12.713-4.272c-4.457-0.855-9.107-0.935-13.631-1.762
		c-3.664-0.669-5.768-3.082-9.16-3.949c-0.752-0.191-2.117-1.297-1.406-2.273c0.77-1.057,2.58-1.05,3.895-1.046
		c5.379,0.012,10.758,0.221,16.133,0.378c4.105,0.12,7.076-1.954,10.439-3.234c1.15-0.438,1.393-1.524,0.883-2.455
		c-0.621-1.129-1.822-1.621-3.471-1.687c-5.607-0.22-11.088,0.348-16.498,1.414c-1.129,0.223-2.605,0.918-3.053-0.295
		c-0.432-1.175,1.441-1.272,2.428-1.546c3.967-1.103,7.42-2.932,11.086-4.459c9.859-4.11,20.857-5.805,31.246-8.79
		c2.699-0.776,6.176-1.39,5.619-4.669c0.916,0.665,1.311,1.51,1.432,2.449c-1.295,4.251-0.77,8.433,0.598,12.624
		c1.504,4.604,3.58,9.024,6.381,13.251c0.301,0.453,1.85,1.171,0.166,1.624c-2.371,0.64-0.24,1.675-0.561,2.468
		c-5.859,4.097-13.244,5.496-20.623,6.875C56.283-68.465,54.949-68.831,54.418-67.67z"/>
	<path fill-rule="evenodd" clip-rule="evenodd" fill="#D43A39" d="M14.092-65.601c0.244-0.231,0.727-0.485,0.693-0.691
		c-0.449-2.951,0.375-3.337,4.404-2.355c4.244,1.034,8.725,1.512,12.572,3.44c5.225,2.619,7.734,6.906,11.086,10.661
		c3.684,4.126,7.797,7.846,13.695,10.176c1.898,0.75,2.596,2.374,3.428,3.601c2.994,4.416,6.918,8.367,10.076,12.687
		c-0.375,2.99-0.75,5.979-1.227,9.805c-8.299-8.202-16.906-14.963-25.561-21.668C32.994-47.9,24.266-56.885,14.275-65.011
		C14.119-65.138,14.148-65.402,14.092-65.601z"/>
	<path fill-rule="evenodd" clip-rule="evenodd" fill="#A7190E" d="M78.006-75.545c0.32-0.793-1.811-1.828,0.561-2.468
		c1.684-0.453,0.135-1.171-0.166-1.624c-2.801-4.227-4.877-8.646-6.381-13.251c-1.367-4.191-1.893-8.373-0.598-12.624
		c1.689,4.253,2.744,8.638,5.154,12.749c1.375,2.345,3.693,4.128,5.154,6.405C85.258-80.869,84.746-79.036,78.006-75.545z"/>
	<path fill-rule="evenodd" clip-rule="evenodd" fill="#D43A39" d="M72.613-46.48c-0.348-0.179-0.256-0.965-0.84-0.623
		c-0.592,0.343,0.055,1.643-1.365,1.445c-1.043-0.145-1.701-0.9-1.941-1.745c-0.309-1.077-0.885-2.174-0.811-3.239
		c0.221-3.126-0.418-6.145-1.371-9.149c0.002,0,0.178,0.149,0.18,0.149c0.529,0.252,1.057,0.504,1.582,0.756
		C73.357-55.579,74.455-51.351,72.613-46.48z"/>
	<path fill-rule="evenodd" clip-rule="evenodd" fill="#D43A39" d="M-8.179-85.216c-0.5,0.499-0.631,0.247-0.666-0.195
		C-8.623-85.347-8.402-85.282-8.179-85.216z"/>
	<path fill-rule="evenodd" clip-rule="evenodd" fill="#D43A39" d="M0.848-79.628c-1.619-1.527-5.662,0.188-6.461-2.872
		c-0.446-1.706,0.636-2.553,2.54-1.974c2.896,0.881,5.457,2.437,8.818,2.266c0.59-0.029,1.074,0.345,0.951,0.765
		c-0.098,0.336-0.561,0.758-0.979,0.859C4.219-80.22,2.672-79.975,0.848-79.628z"/>
	<path fill-rule="evenodd" clip-rule="evenodd" fill="#E74F54" d="M34.748-81.561c1.848,0.007,3.691,0.035,5.537,0.018
		c5.166-0.048,8.484-3.641,7.389-7.575c-0.506-1.816-1.611-2.275-3.768-2.297c-3.232-0.034-3.232-0.118-4.762-2.465
		c4.281-0.591,9.293,0.584,12.371-3.046l-0.021,0.017c4.516-1.756,9.223-0.211,11.975,3.007c2.852,3.332,2.859,7.443,6.07,10.692
		c2.158,2.185-0.852,5.618-4.383,6.609c-11.293,3.17-22.543,1.578-33.836,0.197c-3.113-0.38-6.262-0.47-9.357-1.111
		c-2.396-0.495-4.361-1.263-5.945-2.748c0.416-1.109,2.332-0.312,2.822-1.297c2.09,0.03,4.18,0.062,6.268,0.09
		c1.652,1.764,3.307,1.738,4.967,0.008C31.631-81.496,33.189-81.529,34.748-81.561z"/>
	<path fill-rule="evenodd" clip-rule="evenodd" fill="#A7190E" d="M54.418-67.67c3.617,2.931,9.783,3.578,11.867,7.879
		c0.953,3.005,1.592,6.023,1.371,9.149c-0.074,1.065,0.502,2.162,0.811,3.239c0.24,0.845,0.898,1.601,1.941,1.745
		c1.42,0.197,0.773-1.103,1.365-1.445c0.584-0.342,0.492,0.444,0.84,0.623c0.014,6.204-1.639,12.271-2.566,18.396
		c-3.158-4.319-7.082-8.271-10.076-12.687c-0.832-1.227-1.529-2.851-3.428-3.601c-5.898-2.33-10.012-6.05-13.695-10.176
		c-3.352-3.755-5.861-8.042-11.086-10.661c-3.848-1.929-8.328-2.406-12.572-3.44c-4.029-0.981-4.854-0.596-4.404,2.355
		c0.033,0.206-0.449,0.46-0.693,0.691c-2.15-1.188-3.312-3.133-4.521-4.712c-1.736-2.274-3.441-2.298-5.998-1.666
		c-0.25,0.062-0.533,0.17-0.77,0.133c-6.636-1.075-9.78,2.452-13.245,5.789c-10.364,9.981-21.711,19.298-33.893,27.943
		c-8.439,5.99-16.005,12.629-24.44,18.602c1.021-3.545,1.024-7.056-0.59-10.514c-0.087-1.785-0.176-3.57-0.265-5.356
		c0.149-0.67,0.3-1.342,0.449-2.014c-0.613,2.862,2.467,5.107,2.137,7.942c-0.187,1.612,2.052,1.621,2.564,0.632
		c2.117-4.082,7.846-4.57,11.532-7.102c5.429-3.728,8.703-8.357,12.255-12.916c1.656-2.124,2.521-4.63,4.585-6.649
		c1.617-1.583,0.569-2.143-1.601-2.184c-1.98-0.037-4.02,0.08-5.929-0.237c-4.884-0.813-5.235-1.665-2.363-4.76
		c0.614-0.664,1.34-1.306,1.721-2.048c0.415-0.81,2.044-1.382,1.27-2.363c-0.598-0.755-1.987-0.212-2.974-0.411
		c-4.182-0.843-7.498,1.247-11.23,1.917c0.41-0.953,1.841-1.505,1.778-2.883c-7.028-0.012-13.526-2.197-20.426-2.935
		c-2.077-0.222-4.309-1.553-5.744-2.853c-1.589-1.436,0.02-2.765,1.668-3.744c0.341,3.3,1.865,4.268,7.083,4.381
		c3.65,0.081,7.533-1.031,10.896,0.18c3.617,1.302,7.235,1.221,10.846,1.019c11.557-0.645,22.458-3.813,33.749-5.519
		c2.318-0.35,2.444-1.543,0.644-2.541c-1.682-0.933-2.242-2.079-1.532-3.419c0.731-1.381,2.623-0.455,3.879-0.821
		c1.545-0.452,3.798,1.482,4.734-0.846c0.264,0.048,0.529,0.096,0.794,0.144c0.035,0.442,0.166,0.694,0.666,0.195
		c4.28-0.263,8.556-0.426,12.716,0.654c2.607,0.677,4.762,0.362,6.654-1.312c5.559-4.908,12.463-8.594,19.207-12.426
		c9.65-5.483,20.373-9.05,32.139-10.728c2.584-0.368,5.293-0.625,7.453,1.065c0.557,3.279-2.92,3.893-5.619,4.669
		c-10.389,2.985-21.387,4.68-31.246,8.79c-3.666,1.527-7.119,3.356-11.086,4.459c-0.986,0.273-2.859,0.371-2.428,1.546
		c0.447,1.213,1.924,0.518,3.053,0.295c5.41-1.066,10.891-1.634,16.498-1.414c1.648,0.065,2.85,0.558,3.471,1.687
		c0.51,0.931,0.268,2.017-0.883,2.455c-3.363,1.28-6.334,3.354-10.439,3.234c-5.375-0.157-10.754-0.366-16.133-0.378
		c-1.314-0.004-3.125-0.011-3.895,1.046c-0.711,0.977,0.654,2.082,1.406,2.273c3.393,0.867,5.496,3.28,9.16,3.949
		c4.523,0.827,9.174,0.906,13.631,1.762c4.109,0.787,8.525,1.245,12.713,4.272c-5.584,0-10.115,0-14.645,0
		C40.457-67.891,47.502-68.406,54.418-67.67z M0.848-79.628c1.824-0.347,3.371-0.592,4.869-0.956
		c0.418-0.102,0.881-0.523,0.979-0.859c0.123-0.42-0.361-0.794-0.951-0.765c-3.361,0.171-5.922-1.385-8.818-2.266
		c-1.904-0.579-2.986,0.268-2.54,1.974C-4.814-79.44-0.771-81.156,0.848-79.628z"/>
	<path fill-rule="evenodd" clip-rule="evenodd" fill="#D43A39" d="M-9.639-85.555c-0.937,2.328-3.189,0.394-4.734,0.846
		c-1.256,0.366-3.147-0.56-3.879,0.821c-0.71,1.34-0.149,2.486,1.532,3.419c1.801,0.998,1.675,2.191-0.644,2.541
		c-11.291,1.705-22.192,4.874-33.749,5.519c-3.61,0.202-7.229,0.283-10.846-1.019c-3.362-1.211-7.245-0.099-10.896-0.18
		c-5.218-0.113-6.742-1.081-7.083-4.381c1.636-8.076,4.239-15.96,7.782-23.664c0.392-0.855,0.776-1.493,2.105-1.414
		c1.328,1.974,3.387,2.956,6.313,3.082c4.535,0.196,9.194,0.12,13.554,0.939c5.059,0.951,9.935,2.354,15.23,2.61
		c3.831,0.185,7.001,1.882,10.093,3.517c1.244,0.656,2.409,1.324,3.872,0.362C-16.304-91.089-13.404-87.906-9.639-85.555z"/>
	<path fill-rule="evenodd" clip-rule="evenodd" fill="#D43A39" d="M-57.213-65.575c3.732-0.67,7.049-2.76,11.23-1.917
		c0.986,0.199,2.376-0.344,2.974,0.411c0.774,0.981-0.854,1.554-1.27,2.363c-0.381,0.742-1.106,1.384-1.721,2.048
		c-2.872,3.095-2.521,3.946,2.363,4.76c1.909,0.317,3.948,0.2,5.929,0.237c2.17,0.041,3.218,0.601,1.601,2.184
		c-2.063,2.02-2.929,4.525-4.585,6.649c-3.552,4.559-6.826,9.188-12.255,12.916c-3.687,2.531-9.415,3.02-11.532,7.102
		c-0.513,0.989-2.751,0.98-2.564-0.632c0.33-2.835-2.75-5.08-2.137-7.942c-0.149,0.672-0.3,1.344-0.449,2.014
		c-0.797-6.085-1.598-12.172-2.387-18.258c-0.08-0.611-0.193-1.334,0.681-1.627c5.461-1.833,7.798-6.133,11.997-8.955
		C-58.645-64.688-57.921-65.125-57.213-65.575z"/>
	<path fill-rule="evenodd" clip-rule="evenodd" fill="#A7190E" d="M-20.987-92.556c-1.463,0.962-2.628,0.294-3.872-0.362
		c-3.092-1.635-6.262-3.332-10.093-3.517c-5.296-0.256-10.172-1.659-15.23-2.61c-4.359-0.819-9.019-0.743-13.554-0.939
		c-2.927-0.126-4.985-1.108-6.313-3.082c-0.528-1.57,0.53-2.259,2.356-2.507c2.381-0.325,4.853-0.424,7.102,0.151
		c8.882,2.273,18.294,3.497,26.556,6.977C-29.636-96.592-24.846-95.153-20.987-92.556z"/>
	<path fill-rule="evenodd" clip-rule="evenodd" fill="#E74F54" d="M-76.909-74.118l-0.368-0.003c0,0-0.366,0.027-0.366,0.026
		c-0.805-1.7-1.607-3.4-2.411-5.101c0.589-6.856,3.066-13.373,6.206-19.744c0.606-1.235-0.229-3.339,2.794-3.473
		c1.949,3.225,5.772,3.207,9.568,3.36c4.835,0.194,9.805-0.229,14.321,1.639c-3.227-0.175-6.45-0.349-10.196-0.553
		c7.906,3.838,16.421,3.985,24.615,5.083c1.641,0.221,2.003-0.671,2.122-1.675c2.518,1.258,4.771,2.895,7.905,3.264
		c1.688,1.649,3.471,3.172,6.572,2.942c0.796,0.177,1.401,0.524,1.726,1.128c-2.258,0.465-3.883,1.933-6.485,2.004
		c-12.707,0.352-25.41,0.769-38.131,0.588c-4.042-0.057-7.23-1.957-8.211-5.045c-0.168-0.53,0.149-1.262-1.68-1.363
		c0.559,3.545-0.995,7.062,1.085,10.477c0.597,0.978,0.314,1.974,0.389,2.978c0.198,2.687-3.074,3.094-4.65,4.595
		c-0.764-0.001-1.527-0.002-2.291-0.002C-74.575-74.242-75.721-74.208-76.909-74.118z"/>
	<path fill-rule="evenodd" clip-rule="evenodd" fill="#E74F54" d="M-42.561-72.974c-3.733,0.005-7.467-0.008-11.2,0.018
		c-2.96,0.021-5.847-0.328-8.399-1.481c-2.247-1.015-2.536-2.192,0.006-3.412c1.787-0.856,3.951-1.172,5.672-1.04
		c7.867,0.599,15.727,1.167,24.299,1.018c-1.535,1.766-2.854,2.748-5.033,3.142c-1.418,0.254-3.312,0.146-3.82,1.711
		C-41.546-73.005-42.053-72.99-42.561-72.974z"/>
	<path fill="#A7190E" d="M-9.603-15.876c0.27,1.99,0.725,4.128,0.729,6.584h26.576c-0.814-19.886-1.403-35.87-1.344-39.252
		c0,0-6.737-6.156-18.468-5.191c-4.26,0.351-7.926,2.934-10.874,6.078c0.141,0.127,0.281,0.268,0.42,0.441
		C-11.375-36.972-10.97-25.987-9.603-15.876z"/>
	<path fill="#D43A39" d="M-16.756-31.2c0.281,2.811,0.211,6.565,1.786,7.559c0.024,1.008,0.05,2.013,0.076,3.02
		c0.04,3.777,0.083,7.553,0.122,11.329h5.9c-0.004-2.456-0.46-4.594-0.729-6.584c-1.367-10.11-1.773-21.096-2.96-31.341
		c-0.139-0.173-0.28-0.313-0.42-0.441c-2.573,2.745-4.595,5.913-5.978,8.409C-17.805-36.934-17.1-34.597-16.756-31.2z"/>
	<path fill="#E74F54" d="M-14.971-23.641c-1.574-0.993-1.504-4.748-1.786-7.559c-0.344-3.397-1.048-5.734-2.205-8.049
		c-0.377,0.681-0.705,1.308-0.985,1.866c0.123,9.702,0.025,18.982-0.17,28.091h5.342c-0.038-3.776-0.082-7.552-0.122-11.329
		C-14.92-21.628-14.946-22.633-14.971-23.641z"/>
	<path fill="#8C0C06" d="M-18.113-47.947L2.015-60.214l20.096,14.067c-0.09-1.412-8.314-22.774-8.578-23.753l-5.902-5.156
		l-18.918,3.643c0.316,4.176-6.987,12.953-6.996,12.999c-0.165,3.54-2.198,6.197-2.704,8.769
		C-19.984-48.401-19.029-48.003-18.113-47.947z"/>
	<path fill="#8C0C06" d="M-18.113-47.947c1.847,0.113,3.534-1.157,5.13,0.289c2.948-3.144,6.614-5.727,10.874-6.078
		c11.73-0.965,18.468,5.191,18.468,5.191c-0.059,3.382,0.53,19.366,1.344,39.252h4.359l0.049-36.854L2.015-60.214L-18.113-47.947z"
		/>
	<path fill="#8C0C06" d="M-19.998-41.149c0.383,0.646,0.723,1.272,1.037,1.9c1.382-2.496,3.405-5.665,5.978-8.409
		c-1.596-1.446-3.283-0.175-5.13-0.289l-2.773,1.69c0.104,3.645,0.18,7.067,0.232,10.343c0.182-0.396,0.418-0.893,0.708-1.47
		C-19.962-38.636-19.974-39.881-19.998-41.149z"/>
</g>
<path id="BoxOutline" fill="none" stroke="#0A110C" stroke-width="3" stroke-miterlimit="10" d="M-84.427,10.88
	c0.084-0.088,0.179-0.296,0.279-0.59c0.312,22.582,0.59,40.668,0.841,61.719c0.04,0.019,0.083,0.037,0.123,0.056
	c0.026,1.76,0.044,2.992,0.05,3.53c0.043,3.661,7.652,11.177,10.796,11.165c19.297-0.073,124.467,0.21,142.834,0.066
	c2.027-0.017,17.25,1.939,16.158-8.227c-0.291-8.081-0.096-53.808-0.871-59.3c-0.139-0.988,0.01-2.005,0.83-2.761
	c0.178-2.536,0.234-5.078,0.26-7.62c0.104-3.197,0.182-9.359,0.275-13.887c0.105-1.667,0.247-3.331,0.469-4.992h-0.076
	c-0.007,0.003-0.014,0.005-0.019,0H-84.959l0.069,1.016C-84.716-4.46-84.616,8.468-84.427,10.88z"/>
<path id="LidOutline" fill="none" stroke="#0A110C" stroke-width="3" stroke-miterlimit="10" d="M92.401-29.663
	c0.209-6.008,0.336-12.017,0.283-18.03c-0.314-0.938-0.721-1.806-1.223-2.588c-0.02,0.008-0.039,0.015-0.057,0.022
	c-1.352-2.054-3.414-3.479-6.488-3.813c-3.866-0.421-7.872-0.272-11.818-0.127c-0.635-2.234-2.256-4.252-5.076-6.009
	c-0.33-0.498-0.66-0.997-1.582-0.756c-0.002,0-0.178-0.149-0.18-0.149c-2.084-4.301-8.25-4.948-11.867-7.879
	c0.047-0.102,0.107-0.179,0.166-0.259c5.466-0.367,6.445,2.472,11.701-1.202c6.74-3.489,21.023-7.521,17.496-13.011v-0.001
	c-0.251-1.158-0.955-2.51-2.051-4.215c-1.461-2.277-3.779-4.061-5.154-6.405c-2.41-4.111-3.465-8.496-5.154-12.749
	c-0.121-0.939-0.516-1.784-1.432-2.449c-2.16-1.69-4.869-1.434-7.453-1.065c-11.766,1.678-22.488,5.244-32.139,10.728
	c-6.744,3.832-13.648,7.518-19.207,12.426c-1.893,1.674-4.047,1.988-6.654,1.312c-4.16-1.08-8.436-0.917-12.716-0.654
	c-0.223-0.065-0.443-0.131-0.666-0.195c-0.265-0.048-0.53-0.096-0.794-0.144c-3.765-2.351-6.665-5.534-11.348-7.001
	c-3.859-2.597-8.649-4.036-13.049-5.89c-8.262-3.479-17.674-4.703-26.556-6.977c-2.249-0.575-4.721-0.477-7.102-0.151
	c-1.826,0.248-2.885,0.937-2.356,2.507c-0.948-0.057-1.413,0.255-1.745,0.747c-2.13,0.432-1.504,2.261-2.054,3.381
	c-3.14,6.371-5.617,12.888-6.206,19.744c0.087,0.184,0.173,0.367,0.26,0.551c-0.046,0.219-0.099,0.437-0.143,0.655
	c-1.648,0.979-3.257,2.309-1.668,3.744c1.436,1.3,3.667,2.631,5.744,2.853c1.217,0.13,2.419,0.314,3.616,0.515
	c2.136,1.284,9.169,3.001,11.1,3.207c2.455,0.263,2.953,1.399,2.897,2.755c-0.365,0.229-0.734,0.454-1.09,0.693
	c-4.199,2.822-6.536,7.122-11.997,8.955c-0.874,0.293-0.761,1.016-0.681,1.627c0.062,0.477,0.125,0.952,0.187,1.429
	c-3.54-0.125-7.11-0.205-10.568,0.172c-11.431,1.243-8.999,17.458-7.239,25.708c0.056-0.014,0.112-0.026,0.168-0.04
	c0.029,4.431,0.218,8.872-0.025,13.289c-0.194,3.515,1.002,4.892,4.469,4.154c0.025,0,0.046,0,0.071,0l0.02,0.29L88.26-9.448
	C95.575-8.937,92.192-23.606,92.401-29.663z"/>
</svg>
