<?xml version="1.0" encoding="utf-8"?>
<!-- Generator: Adobe Illustrator 16.0.4, SVG Export Plug-In . SVG Version: 6.00 Build 0)  -->
<!DOCTYPE svg PUBLIC "-//W3C//DTD SVG 1.1//EN" "http://www.w3.org/Graphics/SVG/1.1/DTD/svg11.dtd">
<svg version="1.1" xmlns="http://www.w3.org/2000/svg" xmlns:xlink="http://www.w3.org/1999/xlink" x="0px" y="0px" width="600px"
	 height="600px" viewBox="0 0 600 600" enable-background="new 0 0 600 600" xml:space="preserve">
<g id="Layer_1">
	<g id="ZHisig_1_">
		
			<image overflow="visible" width="1126" height="1670" id="ZHisig_2_" xlink:href="DBD2B6384488E660.jpg"  transform="matrix(0.5 0 0 0.5 5.7002 3.2998)">
		</image>
	</g>
</g>
<g id="Layer_2">
	<linearGradient id="SVGID_1_" gradientUnits="userSpaceOnUse" x1="260.0244" y1="684.7539" x2="329.8619" y2="662.755">
		<stop  offset="0" style="stop-color:#F6CFC3"/>
		<stop  offset="0.8333" style="stop-color:#FCBEAA"/>
		<stop  offset="1" style="stop-color:#C09997"/>
	</linearGradient>
	<polygon fill="url(#SVGID_1_)" points="298.072,551.279 268.042,714 364.417,773.361 	"/>
	<linearGradient id="SVGID_2_" gradientUnits="userSpaceOnUse" x1="386.3555" y1="660.4482" x2="414.7135" y2="609.6685">
		<stop  offset="0" style="stop-color:#FDCFBA"/>
		<stop  offset="0.3803" style="stop-color:#F4B6A1"/>
		<stop  offset="0.8333" style="stop-color:#CB9B92"/>
		<stop  offset="1" style="stop-color:#B98F8A"/>
	</linearGradient>
	<polygon fill="url(#SVGID_2_)" points="298.072,551.279 534,663.32 395.334,677.667 	"/>
	<linearGradient id="SVGID_3_" gradientUnits="userSpaceOnUse" x1="333.3555" y1="661.7734" x2="388.688" y2="647.4406">
		<stop  offset="0" style="stop-color:#BC9591"/>
		<stop  offset="0.6402" style="stop-color:#EFB5A2"/>
		<stop  offset="1" style="stop-color:#FBC4B2"/>
	</linearGradient>
	<polygon fill="url(#SVGID_3_)" points="298.072,551.279 364.417,773.361 395.334,677.667 	"/>
	<linearGradient id="SVGID_4_" gradientUnits="userSpaceOnUse" x1="410.751" y1="667.5215" x2="448.084" y2="716.8545">
		<stop  offset="0" style="stop-color:#F9EFCF"/>
		<stop  offset="0.1693" style="stop-color:#FEF5D4"/>
		<stop  offset="0.6883" style="stop-color:#FEE3C8"/>
		<stop  offset="1" style="stop-color:#F8CFBF"/>
	</linearGradient>
	<polygon fill="url(#SVGID_4_)" points="364.417,773.361 534,663.32 395.334,677.667 	"/>
	<linearGradient id="SVGID_5_" gradientUnits="userSpaceOnUse" x1="452.8516" y1="723.1543" x2="506.748" y2="794.3747">
		<stop  offset="0" style="stop-color:#B58D86"/>
		<stop  offset="0.1693" style="stop-color:#F7B89F"/>
		<stop  offset="0.6883" style="stop-color:#FFD0B7"/>
		<stop  offset="1" style="stop-color:#FFDEC7"/>
	</linearGradient>
	<polygon fill="url(#SVGID_5_)" points="364.417,773.361 534,663.32 516,788.75 	"/>
	<linearGradient id="SVGID_6_" gradientUnits="userSpaceOnUse" x1="216.4897" y1="667.7178" x2="272.9897" y2="700.2178">
		<stop  offset="0" style="stop-color:#555A6E"/>
		<stop  offset="0.4675" style="stop-color:#757485"/>
		<stop  offset="1" style="stop-color:#9F97A3"/>
	</linearGradient>
	<polygon fill="url(#SVGID_6_)" points="298.072,551.279 135.5,784.5 268.042,714 	"/>
	<linearGradient id="SVGID_7_" gradientUnits="userSpaceOnUse" x1="247.542" y1="715.7559" x2="249.8755" y2="776.7559">
		<stop  offset="0" style="stop-color:#DBB7B2"/>
		<stop  offset="0.4675" style="stop-color:#C1A2A5"/>
		<stop  offset="1" style="stop-color:#A8959B"/>
	</linearGradient>
	<polygon fill="url(#SVGID_7_)" points="268.042,714 135.5,784.5 364.417,773.361 	"/>
	<linearGradient id="SVGID_8_" gradientUnits="userSpaceOnUse" x1="417.4785" y1="604.6592" x2="446.9783" y2="550.6595">
		<stop  offset="0" style="stop-color:#F8BAA6"/>
		<stop  offset="0.4675" style="stop-color:#FDC4B3"/>
		<stop  offset="1" style="stop-color:#F9CEBC"/>
	</linearGradient>
	<polygon fill="url(#SVGID_8_)" points="460,555.5 298.072,551.279 534,663.32 	"/>
	<linearGradient id="SVGID_9_" gradientUnits="userSpaceOnUse" x1="392.376" y1="464.6152" x2="459.802" y2="547.6398">
		<stop  offset="0" style="stop-color:#84717A"/>
		<stop  offset="0.2966" style="stop-color:#A38287"/>
		<stop  offset="0.7058" style="stop-color:#D5A39E"/>
		<stop  offset="1" style="stop-color:#FEBDB2"/>
	</linearGradient>
	<polygon fill="url(#SVGID_9_)" points="485.5,376.5 298.072,551.279 460,555.5 	"/>
	<linearGradient id="SVGID_10_" gradientUnits="userSpaceOnUse" x1="459.4336" y1="529.5215" x2="504.0767" y2="520.9941">
		<stop  offset="0" style="stop-color:#FDDFCE"/>
		<stop  offset="0.3389" style="stop-color:#FDDBC7"/>
		<stop  offset="0.7896" style="stop-color:#F3BBAA"/>
		<stop  offset="1" style="stop-color:#B99A96"/>
	</linearGradient>
	<polygon fill="url(#SVGID_10_)" points="485.5,376.5 534,663.32 460,555.5 	"/>
	<linearGradient id="SVGID_11_" gradientUnits="userSpaceOnUse" x1="152.8511" y1="631.1123" x2="215.2878" y2="667.0273">
		<stop  offset="0" style="stop-color:#D0ADAB"/>
		<stop  offset="0.4664" style="stop-color:#CAA9AC"/>
		<stop  offset="1" style="stop-color:#A6959E"/>
	</linearGradient>
	<polygon fill="url(#SVGID_11_)" points="152.5,618 135.5,784.5 298.072,551.279 	"/>
	<linearGradient id="SVGID_12_" gradientUnits="userSpaceOnUse" x1="180.5356" y1="616.6523" x2="182.2027" y2="547.9858">
		<stop  offset="0" style="stop-color:#8F889B"/>
		<stop  offset="0.4664" style="stop-color:#717285"/>
		<stop  offset="1" style="stop-color:#5B5D73"/>
	</linearGradient>
	<polygon fill="url(#SVGID_12_)" points="66.333,544.666 152.5,618 298.072,551.279 	"/>
	<linearGradient id="SVGID_13_" gradientUnits="userSpaceOnUse" x1="182.2163" y1="547.6963" x2="186.7163" y2="458.6963">
		<stop  offset="0" style="stop-color:#747288"/>
		<stop  offset="0.4664" style="stop-color:#818093"/>
		<stop  offset="1" style="stop-color:#9488A0"/>
	</linearGradient>
	<polygon fill="url(#SVGID_13_)" points="212,461.331 66.333,544.666 298.072,551.279 	"/>
	<linearGradient id="SVGID_14_" gradientUnits="userSpaceOnUse" x1="211.4634" y1="451.8916" x2="277.1303" y2="442.8915">
		<stop  offset="0" style="stop-color:#D8A8AA"/>
		<stop  offset="0.4664" style="stop-color:#C19CA2"/>
		<stop  offset="1" style="stop-color:#81717F"/>
	</linearGradient>
	<polygon fill="url(#SVGID_14_)" points="255,334.665 212,461.331 298.072,551.279 	"/>
	<linearGradient id="SVGID_15_" gradientUnits="userSpaceOnUse" x1="357.79" y1="423.5898" x2="369.8203" y2="357.9248">
		<stop  offset="0" style="stop-color:#DAA7A5"/>
		<stop  offset="0.4664" style="stop-color:#A7878F"/>
		<stop  offset="1" style="stop-color:#826C78"/>
	</linearGradient>
	<polygon fill="url(#SVGID_15_)" points="255,334.665 485.5,376.5 360,426 	"/>
	<linearGradient id="SVGID_16_" gradientUnits="userSpaceOnUse" x1="354.7754" y1="420.8115" x2="277.1085" y2="442.8116">
		<stop  offset="0" style="stop-color:#D1A39F"/>
		<stop  offset="0.4664" style="stop-color:#A4858D"/>
		<stop  offset="1" style="stop-color:#937780"/>
	</linearGradient>
	<polygon fill="url(#SVGID_16_)" points="255,334.665 298.072,551.279 360,426 	"/>
	<linearGradient id="SVGID_17_" gradientUnits="userSpaceOnUse" x1="390.1221" y1="462.4326" x2="358.1216" y2="434.4322">
		<stop  offset="0" style="stop-color:#F3B3A9"/>
		<stop  offset="0.516" style="stop-color:#FBC5B6"/>
		<stop  offset="1" style="stop-color:#FAC7BB"/>
	</linearGradient>
	<polygon fill="url(#SVGID_17_)" points="298.072,551.279 485.5,376.5 360,426 	"/>
	<linearGradient id="SVGID_18_" gradientUnits="userSpaceOnUse" x1="510.6719" y1="519.7373" x2="592.671" y2="504.4045">
		<stop  offset="0" style="stop-color:#B49697"/>
		<stop  offset="0.516" style="stop-color:#C9A59E"/>
		<stop  offset="1" style="stop-color:#F4B5AB"/>
	</linearGradient>
	<polygon fill="url(#SVGID_18_)" points="591,485.667 485.5,376.5 534,663.32 	"/>
	<linearGradient id="SVGID_19_" gradientUnits="userSpaceOnUse" x1="537.9307" y1="320.8994" x2="542.5977" y2="201.5659">
		<stop  offset="0" style="stop-color:#AE9DA5"/>
		<stop  offset="0.516" style="stop-color:#D3B3B1"/>
		<stop  offset="1" style="stop-color:#DCB8B5"/>
	</linearGradient>
	<polygon fill="url(#SVGID_19_)" points="485.5,376.5 536.335,193 591,249 	"/>
	<linearGradient id="SVGID_20_" gradientUnits="userSpaceOnUse" x1="503.8896" y1="159.9912" x2="529.8896" y2="114.9912">
		<stop  offset="0" style="stop-color:#988C9C"/>
		<stop  offset="0.516" style="stop-color:#6A6B7E"/>
		<stop  offset="1" style="stop-color:#5B6172"/>
	</linearGradient>
	<polygon fill="url(#SVGID_20_)" points="471,80 536.335,193 590.5,147 	"/>
	<linearGradient id="SVGID_21_" gradientUnits="userSpaceOnUse" x1="536.335" y1="198" x2="591" y2="198">
		<stop  offset="0" style="stop-color:#D7ABAD"/>
		<stop  offset="0.4676" style="stop-color:#CBA2A2"/>
		<stop  offset="1" style="stop-color:#897A88"/>
	</linearGradient>
	<polygon fill="url(#SVGID_21_)" points="590.5,147 536.335,193 591,249 	"/>
	<linearGradient id="SVGID_22_" gradientUnits="userSpaceOnUse" x1="533.9668" y1="224.7563" x2="482.4664" y2="228.7564">
		<stop  offset="0" style="stop-color:#B09599"/>
		<stop  offset="0.7533" style="stop-color:#93818D"/>
		<stop  offset="1" style="stop-color:#7C7180"/>
	</linearGradient>
	<polygon fill="url(#SVGID_22_)" points="471,79.667 485.5,378.5 536.335,193 	"/>
	<linearGradient id="SVGID_23_" gradientUnits="userSpaceOnUse" x1="433.667" y1="229.0835" x2="477.667" y2="229.0835">
		<stop  offset="0" style="stop-color:#D7ABAD"/>
		<stop  offset="0.4676" style="stop-color:#CBA2A2"/>
		<stop  offset="1" style="stop-color:#897A88"/>
	</linearGradient>
	<polygon fill="url(#SVGID_23_)" points="471,79.667 433.667,235 485.5,378.5 	"/>
	<linearGradient id="SVGID_24_" gradientUnits="userSpaceOnUse" x1="404.668" y1="231.2178" x2="371.6681" y2="349.2174">
		<stop  offset="0" style="stop-color:#C99EA0"/>
		<stop  offset="0.4518" style="stop-color:#B49097"/>
		<stop  offset="1" style="stop-color:#A78691"/>
	</linearGradient>
	<polygon fill="url(#SVGID_24_)" points="433.667,235 255,334.665 484.777,376.5 	"/>
	<linearGradient id="SVGID_25_" gradientUnits="userSpaceOnUse" x1="114.2646" y1="311.7451" x2="104.2646" y2="353.7451">
		<stop  offset="0" style="stop-color:#324D67"/>
		<stop  offset="0.4518" style="stop-color:#3F5C75"/>
		<stop  offset="1" style="stop-color:#536A83"/>
	</linearGradient>
	<polyline fill="url(#SVGID_25_)" points="-25.5,285.75 115.666,367.667 255,334.665 -25.5,284.75 	"/>
	<linearGradient id="SVGID_26_" gradientUnits="userSpaceOnUse" x1="108.9077" y1="369.0596" x2="24.1226" y2="412.7976">
		<stop  offset="0" style="stop-color:#2E6080"/>
		<stop  offset="0.4518" style="stop-color:#285672"/>
		<stop  offset="1" style="stop-color:#1D4E69"/>
	</linearGradient>
	<polyline fill="url(#SVGID_26_)" points="-25.5,284.75 66.333,544.666 116.837,367.39 -25.5,285.75 	"/>
	<linearGradient id="SVGID_27_" gradientUnits="userSpaceOnUse" x1="163.0244" y1="441.3887" x2="93.6909" y2="390.7217">
		<stop  offset="0" style="stop-color:#6E6F85"/>
		<stop  offset="0.4506" style="stop-color:#898197"/>
		<stop  offset="1" style="stop-color:#8D8997"/>
	</linearGradient>
	<polygon fill="url(#SVGID_27_)" points="116.04,366.932 66.333,544.666 255,334.665 	"/>
	<linearGradient id="SVGID_28_" gradientUnits="userSpaceOnUse" x1="198.3262" y1="467.1855" x2="146.7874" y2="429.5225">
		<stop  offset="0" style="stop-color:#757A93"/>
		<stop  offset="0.4518" style="stop-color:#505C75"/>
		<stop  offset="1" style="stop-color:#384860"/>
	</linearGradient>
	<polygon fill="url(#SVGID_28_)" points="255,334.665 66.333,544.666 213,461.331 	"/>
	<linearGradient id="SVGID_29_" gradientUnits="userSpaceOnUse" x1="187.3516" y1="194.334" x2="86.9865" y2="120.99">
		<stop  offset="0" style="stop-color:#0C5779"/>
		<stop  offset="0.4506" style="stop-color:#004363"/>
		<stop  offset="1" style="stop-color:#003757"/>
	</linearGradient>
	<polygon fill="url(#SVGID_29_)" points="182.203,229.083 -25.5,284.75 219,-28.5 	"/>
	<linearGradient id="SVGID_30_" gradientUnits="userSpaceOnUse" x1="129.1562" y1="223.9629" x2="115.1563" y2="307.2955">
		<stop  offset="0" style="stop-color:#406E8A"/>
		<stop  offset="0.4506" style="stop-color:#315D7F"/>
		<stop  offset="1" style="stop-color:#325E80"/>
	</linearGradient>
	<polygon fill="url(#SVGID_30_)" points="255,334.665 182.203,229.083 -25.5,284.75 	"/>
	<linearGradient id="SVGID_31_" gradientUnits="userSpaceOnUse" x1="155.8154" y1="644.0195" x2="107.3711" y2="661.1572">
		<stop  offset="0" style="stop-color:#6B7790"/>
		<stop  offset="0.4506" style="stop-color:#536480"/>
		<stop  offset="1" style="stop-color:#475C76"/>
	</linearGradient>
	<polygon fill="url(#SVGID_31_)" points="66.333,544.666 135.5,782.213 152.5,618 	"/>
	<linearGradient id="SVGID_32_" gradientUnits="userSpaceOnUse" x1="344.2783" y1="30.7803" x2="292.1836" y2="143.2871">
		<stop  offset="0" style="stop-color:#4A4D6A"/>
		<stop  offset="0.4506" style="stop-color:#575A77"/>
		<stop  offset="1" style="stop-color:#7B748A"/>
	</linearGradient>
	<polygon fill="url(#SVGID_32_)" points="218.517,-26.5 314.826,159.855 473,81.667 	"/>
	<linearGradient id="SVGID_33_" gradientUnits="userSpaceOnUse" x1="330.6064" y1="159.2119" x2="361.251" y2="203.8647">
		<stop  offset="0" style="stop-color:#B695A0"/>
		<stop  offset="0.4506" style="stop-color:#A68E9C"/>
		<stop  offset="1" style="stop-color:#907D91"/>
	</linearGradient>
	<polygon fill="url(#SVGID_33_)" points="315.826,159.855 256,334.665 471.749,80.71 	"/>
	<linearGradient id="SVGID_34_" gradientUnits="userSpaceOnUse" x1="412.6172" y1="246.7388" x2="365.7754" y2="209.9658">
		<stop  offset="9.980727e-04" style="stop-color:#988394"/>
		<stop  offset="0.4506" style="stop-color:#7C6F82"/>
		<stop  offset="1" style="stop-color:#565367"/>
	</linearGradient>
	<polygon fill="url(#SVGID_34_)" points="470.749,80.71 255,334.665 433.667,235 	"/>
	<linearGradient id="SVGID_35_" gradientUnits="userSpaceOnUse" x1="304.7686" y1="145.8062" x2="240.0892" y2="153.6938">
		<stop  offset="9.980727e-04" style="stop-color:#767188"/>
		<stop  offset="0.4506" style="stop-color:#5E6078"/>
		<stop  offset="1" style="stop-color:#565B72"/>
	</linearGradient>
	<polyline fill="url(#SVGID_35_)" points="217.786,-27.5 256,335.665 316.826,160.855 217.786,-27.5 	"/>
	<linearGradient id="SVGID_36_" gradientUnits="userSpaceOnUse" x1="178.2866" y1="160.3711" x2="239.8105" y2="154.0605">
		<stop  offset="9.980727e-04" style="stop-color:#818399"/>
		<stop  offset="0.4506" style="stop-color:#7B7E96"/>
		<stop  offset="1" style="stop-color:#485973"/>
	</linearGradient>
	<polyline fill="url(#SVGID_36_)" points="218.517,-25.116 182.203,229.083 256,335.665 217.786,-26.945 	"/>
	<linearGradient id="SVGID_37_" gradientUnits="userSpaceOnUse" x1="370.2695" y1="-12.8164" x2="346.38" y2="24.6096">
		<stop  offset="9.980727e-04" style="stop-color:#50657F"/>
		<stop  offset="0.4506" style="stop-color:#596A88"/>
		<stop  offset="1" style="stop-color:#3D6988"/>
	</linearGradient>
	<polyline fill="url(#SVGID_37_)" points="219.102,-28.5 360,-26.5 471.749,80.71 219.102,-28.5 	"/>
	<linearGradient id="SVGID_38_" gradientUnits="userSpaceOnUse" x1="17.4844" y1="575.3506" x2="54.1509" y2="647.0176">
		<stop  offset="0" style="stop-color:#053E5D"/>
		<stop  offset="0.4506" style="stop-color:#125372"/>
		<stop  offset="1" style="stop-color:#1C6588"/>
	</linearGradient>
	<polygon fill="url(#SVGID_38_)" points="66.333,545.666 -25.5,616.5 45.669,655.332 	"/>
	<linearGradient id="SVGID_39_" gradientUnits="userSpaceOnUse" x1="18.3447" y1="677.6045" x2="83.1458" y2="804.2623">
		<stop  offset="0" style="stop-color:#4D718E"/>
		<stop  offset="0.4506" style="stop-color:#416786"/>
		<stop  offset="1" style="stop-color:#406381"/>
	</linearGradient>
	<polygon fill="url(#SVGID_39_)" points="135.5,784.5 -25.5,714 45.669,655.332 	"/>
	<linearGradient id="SVGID_40_" gradientUnits="userSpaceOnUse" x1="42.4854" y1="660.376" x2="-25.7646" y2="665.376">
		<stop  offset="0" style="stop-color:#2E6080"/>
		<stop  offset="0.4518" style="stop-color:#285672"/>
		<stop  offset="1" style="stop-color:#1D4E69"/>
	</linearGradient>
	<polyline fill="url(#SVGID_40_)" points="-26,617 -26,714 45.669,655.332 -25.5,616.75 	"/>
	<linearGradient id="SVGID_41_" gradientUnits="userSpaceOnUse" x1="51.2812" y1="671.791" x2="102.561" y2="663.3115">
		<stop  offset="0" style="stop-color:#7C86A0"/>
		<stop  offset="0.6506" style="stop-color:#64748E"/>
		<stop  offset="1" style="stop-color:#475C76"/>
	</linearGradient>
	<polygon fill="url(#SVGID_41_)" points="66.333,543.666 66.171,544.531 45.669,654.332 135.5,783.5 	"/>
</g>
<g id="Layer_3">
	<rect x="-25.5" y="-28.5" fill="none" stroke="#8CC63F" stroke-miterlimit="10" width="616" height="888"/>
	<linearGradient id="SVGID_42_" gradientUnits="userSpaceOnUse" x1="121.0825" y1="35.7163" x2="121.0825" y2="35.7163">
		<stop  offset="0" style="stop-color:#4A4D6A"/>
		<stop  offset="0.4506" style="stop-color:#575A77"/>
		<stop  offset="1" style="stop-color:#7B748A"/>
	</linearGradient>
	<path fill="url(#SVGID_42_)" d="M121.083,35.716"/>
</g>
</svg>
