<?xml version="1.0" encoding="utf-8"?>
<!-- Generator: Adobe Illustrator 16.0.4, SVG Export Plug-In . SVG Version: 6.00 Build 0)  -->
<!DOCTYPE svg PUBLIC "-//W3C//DTD SVG 1.1//EN" "http://www.w3.org/Graphics/SVG/1.1/DTD/svg11.dtd">
<svg version="1.1" id="Layer_1" xmlns="http://www.w3.org/2000/svg" xmlns:xlink="http://www.w3.org/1999/xlink" x="0px" y="0px"
	 width="708.66px" height="850.39px" viewBox="0 0 708.66 850.39" enable-background="new 0 0 708.66 850.39" xml:space="preserve">
<g>
	<path fill-rule="evenodd" clip-rule="evenodd" fill="#C3AA51" d="M106.917,72.1c-0.009-0.008-0.015-0.016-0.023-0.022
		c-0.01,0.017-0.021,0.034-0.032,0.051C106.881,72.118,106.897,72.111,106.917,72.1z"/>
	<path fill-rule="evenodd" clip-rule="evenodd" fill="#C3AA51" d="M115.734,26.838l-0.001-0.003l-2.363-1.849
		c-0.744-1.021-1.671-1.723-2.766-2.164l-0.002-0.001l-0.002,0c-0.823-0.331-1.74-0.516-2.746-0.579
		c-0.082-0.005-0.16-0.017-0.24-0.023l-2.283-0.459c-1.229-0.479-2.19-1.396-2.703-3.16c-0.977-3.366-3.604-4.399-7.02-3.951
		c-2.633,0.345-6.876,0.972-7.605-0.648c-2.877-6.383-11.494-0.302-13.792-6.957c-0.151-0.44-13.312,2.929-13.698,3.586
		c-3.286,5.594-8.439,7.129-14.279,7.439l-2.19,0c-0.828-0.092-1.735-0.248-2.474-0.001l-0.006-0.003l-0.02,0.011
		c-0.192,0.067-0.372,0.166-0.537,0.297l-9.527,5.282l-7.925,4.393c-4.489,1.705-7.902,5.373-12.221,7.365
		c-0.353,0.163-0.787,0.989-0.66,1.233c2.613,5.009-2.796,8.8-1.946,13.78c0.613,3.589,3.584,9.545,7.505,11.146
		c4.477,1.829,6.546-0.807,7.792-4.922c2.577,2.336,1.957,5.312,3.092,7.663c3.89,8.057,12.725,9.753,18.602,3.206
		c1.623-1.809,2.91-1.738,3.393,0.72c0.989,5.04,5.56,6.729,8.755,9.703c0.965,0.898,2.336,1.054,3.242,0.306
		c3.562-2.942,6.471-0.566,9.602,0.84c2.469,1.109,4.707,2.695,4.154,5.482c-0.604,3.054-3.559,1.191-5.443,1.638
		c-0.243,0.058-0.432,0.345-0.93,0.767c4.627,1.75,8.428,0.726,12.189-2.233c-1.102-1.456-4.148-0.396-3.781-2.614
		c0.317-1.91,2.456-1.039,3.85-1.189c3.831-0.412,5.289-3.362,7.204-6.152c1.138-1.656,0.028-5.271,2.955-4.908
		c2.183,0.271,4.059-3.833,4.756-2.044c1.087,2.787,6.297,5.644,9.089,5.109c0.019-0.004,0.038-0.001,0.058-0.008
		s0.039-0.014,0.06-0.021c0.567-0.124,1.197-0.357,1.914-0.747c-0.017-0.017-0.03-0.033-0.046-0.05
		c0.037-0.024,0.072-0.055,0.108-0.081c0.017,0.014,0.028,0.028,0.044,0.042c0.033-0.052,0.067-0.103,0.1-0.154
		c0.445-0.357,0.805-0.843,1.021-1.583c2.034-3.137-2.736,0.626-1.023-2.676c1.084-2.09,2.757-3.464,4.49-4.396
		c1.774-0.954,1.994,1.735,2.854,2.688c2.069,2.292,3.597-0.169,5.348-0.125c1.858,0.048,1.694-1.157,1.224-2.389
		c-0.678-1.769,0.756-2.345,1.77-3.108c1.764-1.328,3.286-2.889,3.96-4.997C129.733,45.645,124.483,32.483,115.734,26.838z"/>
	<path fill-rule="evenodd" clip-rule="evenodd" fill="#C3AA51" d="M106.816,72.198c0.015-0.023,0.03-0.046,0.045-0.069
		c-0.025,0.015-0.049,0.024-0.074,0.038C106.798,72.176,106.806,72.188,106.816,72.198z"/>
</g>
<path fill-rule="evenodd" clip-rule="evenodd" fill="#A89240" d="M114.442,25.078c7.094,2.852,8.082,10.255,11.5,15.766
	c3.912,6.303-0.049,17.755-6.174,19.934c-2.119,0.753-3.869-0.05-5.984-0.168c1.115-1.262,3.342-1.639,2.541-3.852
	c-0.363-1.001-1.047-1.848-2.213-1.557c-1.957,0.488-3.783,2.439-3.607,3.736c0.557,4.094-1.351,6.835-2.341,10.048
	c-0.773,2.511-4.104,1.645-6.262-0.098c-6.73-5.435-10.455-4.458-13.664,3.802c-2.924,7.527-9.445,10.915-19.414,5.014
	c-2.76-1.633-5.017-2.395-7.708-0.287c-1.248,0.978-2.469,0.678-3.58-0.386c-3.039-2.909-7.309-4.624-8.234-9.534
	c-0.507-2.688-2.634-2.569-3.924-0.619c-1.751,2.646-3.723,5.639-6.964,4.416c-4.384-1.652-10.143-2.002-11.493-8.178
	c-0.21-0.962-0.726-1.854-0.998-2.807c-0.397-1.391,0.009-3.566-1.683-3.83c-1.987-0.31-1.67,2.062-2.336,3.273
	c-1.44,2.62-3.916,1.989-5.686,1.176c-8.258-3.797-10.044-13.815-3.857-20.78c0.5-0.562,1.774-0.809,0.714-1.696
	c-0.953-0.797-3.232-1.808-2.001-2.552c2.104-1.272,3.429-4.841,7.323-3.285c-1.245,2.354-5.503,3.404-2.694,7.193
	c1.991,2.686,1.667,2.926,10.313,2.692c0.827-2.527-3.286-2.852-2.335-5.66c1.763-0.204,3.6,0.867,5.573,0.218
	c1.247-0.411,2.772,0.273,2.271,2.236c-0.878,3.432,0.606,3.708,3.462,2.941c2.228-0.598,4.779-1.526,3.834,2.985
	c-0.719,3.438,3.503,2.736,5.214,4.44c-0.375,1.86-4.161,0.382-3.399,3.142c0.637,2.31,2.871,1.827,4.622,2.046
	c3.111,0.39,7.653,3.517,9.972,6.822c1.353,1.929,3.099,0.425,4.505,0.185c1.59-0.273,1.136-1.705,0.469-2.792
	c-0.771-1.255-2.154-2.718-0.643-3.948c1.256-1.022,2.221,0.979,3.429,1.34c2.567,0.771,5.824-0.145,7.414,3.072
	c0.078,0.156,0.998,0.139,1.283-0.094c0.762-0.625,0.539-1.463,0.199-2.272c-1.971-4.718-11.284-8.415-16.29-6.442
	c-1.486,0.586-2.751,1.964-5.018,1.141c1.341-2.463,0.821-5.262,1.107-7.602c0.344-2.825,4.518-5.07,8.315-5.797
	c0.332,2.13-1.341,2.125-1.995,2.969c-1.596,2.059-2.094,3.614,1.17,4.795c4.781,1.731,9.066,4.913,14.573,4.357
	c1.355-0.137,3.414-0.639,3.932,1.176c0.539,1.887-2.363,1.406-2.887,3.289c6.25,0.887,12.156,3.354,18.551,3.031
	c1.096-0.055,2.174-0.693,3.24-1.112c1.371-0.54,3.32-1.009,2.68-2.9c-0.635-1.87-2.404-1.352-3.791-0.577
	c-3.125,1.744-3.436,0.206-2.943-2.425c0.662-3.534,1.418-6.944,5.754-7.791c1.309-0.256,2.561-0.26,2.637,1.301
	c0.084,1.75-1.26,0.921-2.135,0.81c-1.137-0.145-2.076,0.253-2.24,1.414c-0.176,1.246,1.018,1.562,1.863,2.035
	c4.543,2.543,7.51,1.539,11.559-1.908c2.975-2.533,5.516-6.93,10.838-5.17c1.939,0.641,2.641-1.072,1.812-2.296
	c-2.232-3.294-1.709-8.263-6.307-10.142c-1.752-0.716-2.051-2.479-1.807-4.264L114.442,25.078z"/>
<path fill-rule="evenodd" clip-rule="evenodd" fill="#C9B255" d="M100.905,40.521c-1.258,4.444-6.295,3.701-8.731,6.287
	c-5.589,5.928-12.22,2.365-18.271,2.082c-4.239-0.197-8.882,0.794-12.944-1.923c-1.798-1.203-2.628-1.98-0.732-3.651
	c1.966-1.732,3.917-3.481,5.918-5.262c-0.94-1.84-2.63-0.976-3.959-1.249l0.1,0.111c-1.193-2.075-3.794-1.717-5.509-3.309
	c7.043-0.463,14.143,0.082,21.044-2.521c-0.538-0.692-0.675-1.063-0.909-1.14c-2.057-0.67-5.453-0.163-5.449-2.914
	c0.004-2.088,3.34-1.225,5.074-1.996c5.983-2.662,11.938-3.741,18.137-0.41c1.367,0.734,3.245,0.184,4.791-0.677
	c3.446-1.918,5.1-1.171,6.676,2.956c0.533,1.396,1.807,1.271,2.898,1.474c2.279,0.424,4.26-0.324,6.048-1.7
	c-0.003-0.004-0.104-0.114-0.106-0.119c-0.109,1.141,0.029,2.711-1.393,2.875c-5.887,0.682-11.219,3.988-17.521,3.028
	c-4.806-0.731-9.607,1.597-14.585,1.032c-1.413-0.161-3.008,1.214-2.959,2.857c0.05,1.654,1.961,1.608,3.137,1.884
	c1.589,0.372,3.357,0.646,4.913,0.32c2.324-0.488,3.84-1.038,5.835,1.531c1.921,2.472,5.65,0.484,8.581,0.551L100.905,40.521z"/>
<g>
	<path fill-rule="evenodd" clip-rule="evenodd" fill="#D1BA5E" d="M49.954,28.073c-5.75,1.807-11.279,2.341-16.984-0.077
		c-1.14-0.483-2.969-0.758-3.923,1.102c1.628,1.667,5.069,1.222,5.384,5.478c-5.266-3.633-9.735,3.624-15.538,0.041
		c2.318-1.217,5.258,0.015,6.078-2.8c-2.172-1.821-4.68,0.681-7.129-1.125c2.061-1.292,4.311-2.047,6.292-3.221l16.103-8.629
		c7.977-0.056,15.941,0.249,23.878,1.802c-0.49,2.869-3.368,1.804-4.994,2.904c1.078,0.6,2.787,0.272,2.838,1.772
		c0.059,1.735-1.588,1.321-2.636,1.467C56.196,27.224,52.918,27.141,49.954,28.073z"/>
</g>
<path fill-rule="evenodd" clip-rule="evenodd" fill="#D1BA5E" d="M63.887,47.272c-0.102-1.231-0.82-1.793-2.006-1.853
	c0,0-0.004,0.005-0.004,0.005c-0.012-0.988-0.023-1.976-0.036-2.964c3.817,0.931,7.546,1.682,9.419-3.222
	c0.174-0.454,1.119-0.589,1.676-0.926c4.594-2.785,8.637,0.511,12.918,1.159c-0.01,0.995-0.021,1.99-0.031,2.985
	c-0.818,0.024-1.555,0.211-1.984,1.001c-2.061,2.617-5.65,1.179-8.002,3.024c-2.65,0.458-5.525-1-8.006,0.934
	C66.516,47.369,65.202,47.321,63.887,47.272z"/>
<path fill-rule="evenodd" clip-rule="evenodd" fill="#B29C47" d="M62.883,31.206c-4.324-0.125-8.65,1.065-12.971-0.034
	c0.92-5.441,5.252-3.532,8.475-3.846c1.474-0.144,3.01,1.709,4.492-0.087c1.426,0.202,2.851,0.557,4.279,0.576
	c5.328,0.073,1.791,1.935,0.704,3.313C66.203,31.154,64.543,31.18,62.883,31.206z"/>
<path fill-rule="evenodd" clip-rule="evenodd" fill="#B29C47" d="M73.626,9.935c0.027,3.003-1.322,4.336-4.036,6.197
	c-4.398,3.015-3.159-0.741-4.03-2.186c0.428-0.415,1.064-0.763,1.228-1.264c0.185-0.567-0.478-0.667-0.925-0.574
	c-0.939,0.194-1.132,0.947-1.188,1.766c-1.855,2.337,0.555,4.716-0.07,7.065c-2.35-1.202-4.58-2.802-7.454-1.156
	c-0.783,0.449-1.892,0.053-2.547-0.837c3.241-0.674,3.054-4.223,5.011-5.975c4.084,0.001,4.596-4.82,7.907-5.859
	c0.378-0.036,0.758-0.072,1.138-0.109c-0.002,0.283-0.014,0.564-0.036,0.846c0.11,1.013,0.309,1.986,1.644,1.894
	c1.048-0.073,1.178-0.924,1.303-1.737c0.352-0.001,0.703-0.002,1.057-0.002C72.64,8.814,72.839,9.527,73.626,9.935z"/>
<path fill-rule="evenodd" clip-rule="evenodd" fill="#B29C47" d="M108.635,42.779c-0.336-0.337-0.673-0.673-1.01-1.01
	c-0.617-3.06-3.188-2.217-4.795-1.878c-4.023,0.851-6.643-0.393-8.209-4.105c-0.334-1.006-0.668-2.012-1.002-3.018
	c1.9-0.083,2.827-2.619,5.01-1.991c2.998,1.313,5.996,3.032,8.993-0.001c1.001-0.003,2.001-0.006,3.001-0.008
	c1.001,0.332,2.002,0.665,3.002,0.997c1.91,1.209,4.958,1.494,4.055,4.989c0.004,3.151-3.878,0.914-4.59,3.276
	c1.939,1.046,4.461-1.772,6.062,0.794c-1.011,2.013-3.419,1.416-4.547,2.922C112.615,43.424,110.625,43.102,108.635,42.779z"/>
<path fill-rule="evenodd" clip-rule="evenodd" fill="#B29C47" d="M98.472,14.355c1.033,2.146-2.393,1.699-2.014,3.464
	c-0.975,0.009-1.951,0.018-2.926,0.026c-1.338-3.289-2.66-2.015-3.979,0.014l-0.051,0c-1.014-0.016-2.027-0.033-3.041-0.049
	c-0.678-1.054-1.322-0.899-1.945,0.054c-0.629,0.014-1.258,0.028-1.887,0.042c1.436-4.139-0.352-5.378-4.283-4.896
	c-2.039,0.25-2.055,0.131-1.812-1.182c0.354-0.594,0.709-1.188,1.064-1.782c2.471-0.106,4.682,0.72,6.791,1.903
	c0.855,2.577,3.115,1.831,4.914,1.991C92.351,14.211,95.456,13.262,98.472,14.355z"/>
<path fill-rule="evenodd" clip-rule="evenodd" fill="#817130" d="M16.963,43.982c-0.048,0.31-0.084,0.621-0.107,0.933
	c-0.948,0.359-1.899,0.718-2.85,1.076c-1.561,0.754-1.99,1.848-1.311,3.518c0.49,1.202,0.617,2.511-0.663,3.458
	c-0.702-0.014-1.405-0.028-2.107-0.043c0.388-2.994-2.565-6.333,0.927-9.008c0.244-0.204,0.343-0.462,0.295-0.774
	c0,0,0.033-0.118,0.033-0.118c1.425,0.04,2.711-0.389,3.896-1.156C16.262,42.076,16.906,42.767,16.963,43.982z"/>
<path fill-rule="evenodd" clip-rule="evenodd" fill="#817130" d="M125.872,40.634c-0.707,0.104-1.414,0.208-2.121,0.312
	c-0.352,0.647-0.703,1.294-1.056,1.942c1.38,3.57,2.819,7.149-2.218,10.239c1.604-3.68,1.123-6.957,1.101-10.211
	c-2.517-1.381-3.263-0.337-2.706,2.101c0.379,1.659,1.565,3.29-0.318,4.765c-0.252-0.376-0.562-0.738-0.953-1.052
	c-1.714-1.373-8.406,3.989-11.013,6.496c-1.117-0.74-2.235-1.48-3.354-2.221c-0.633-0.042-1.266-0.085-1.898-0.126
	c-1.229,0.341-3.1-0.225-2.93,2.082c0.996,0.809,0.631,1.558-0.099,2.291c-3.319,5.903-9.353,3.435-14.205,4.606
	c-1.151,1.122-1.577,3.246-4.12,2.221c-1.97-0.794-3.184,1.207-4.67,2.102c-0.034,1.401-0.138,2.753-2.016,2.851L73.26,69.07
	c-0.191,0.488-0.486,0.681-0.969,0.34c-0.48-0.029-0.961-0.058-1.441-0.087c-0.02-0.264-0.04-0.527-0.06-0.792
	c-2.105-0.049-4.26,0.16-6.313-0.205c-3.703-0.658-7.049-1.938-6.48-6.795c-1.991,0.994-3.986,2.322-5.935-0.075
	c-0.067,0.071-0.121,0.147-0.185,0.22c-0.795-0.38-2.168-1.144-3.399-2.392c-0.158-0.469-0.317-0.938-0.475-1.407l0.029-0.041
	c-0.979,0.036-1.959,0.072-2.938,0.108c-0.041,0.63-0.082,1.259-0.123,1.888c-0.749,2.744-2.922,4.487-5.088,5.734
	c-2.479,1.427-6.773,3.031-8.176,1.3c-2.613-3.227-2.441-7.856-0.689-11.993c-0.023-0.325-0.047-0.65-0.067-0.977
	c-0.808-0.033-1.528-0.236-1.944-1.018c-0.658,0.029-1.317,0.059-1.976,0.088c1.979,2.717-1.206,4.633-1.094,7.06
	c-0.112,4.732,2.21,8.318,5.409,11.491c1.607,0.238,3.357,0.148,4.797,0.774c5.268,2.288,7.521,1.548,9.801-3.597
	c0.191-1.676,0.505-3.302,1.136-4.805c0.87-0.297,1.945,0.06,3.008,0.684c-0.602,1.475-0.908,3.065-1.095,4.703
	c0.719,0.033,1.436,0.066,2.153,0.1c2.315,1.347,4.12,3.195,7.354,3.293c2.479,0.074,4.038-3.227,6.571-1.238
	c0.078-1.362,0.789-1.619,1.869-0.988c0.611,0.357,1.216,0.595,1.823,0.667c-0.219,1.1,0.046,1.992,2.306,2.095
	c1.488,0.068,2.082,1.349,2.167,2.778c1.296,3.123,5.729,1.979,6.995,5.143c2.934,0.723,4.025-1.967,5.91-3.188l-0.004-0.072
	c0.588-2.971,2.588-5.581,2.242-8.79c-1.047,0.101-2.12,1.54-3.134-0.062c-1.017-0.188-3.22-0.061-2.395-1.288
	c1.031-1.534,2.157-5.046,5.482-2.63c0.938-0.021,1.876-0.042,2.813-0.062c5.09-2.523,9.978-1.275,10.604,2.715
	c2.953,0.562,0.445,4.121,4.229,3.065c0.173-0.248,0.264-0.522,0.271-0.825c1.126-4.251,2.252-8.502,3.378-12.752
	c-0.034-0.023-0.067-0.045-0.102-0.067c2.158-2.241,6.625-2.645,6.643-2.646c2.257,2.567,4.241,5.966,8.516,2.347
	C127.807,51.658,127.771,46.214,125.872,40.634z"/>
<rect x="13.044" y="98.5" fill-rule="evenodd" clip-rule="evenodd" fill="#817130" width="20.956" height="22.5"/>
<rect x="73.848" y="98.5" fill-rule="evenodd" clip-rule="evenodd" fill="#D1BA5E" width="20.956" height="22.5"/>
<rect x="53.637" y="98.5" fill-rule="evenodd" clip-rule="evenodd" fill="#C9B255" width="20.956" height="22.5"/>
<rect x="34" y="98.5" fill-rule="evenodd" clip-rule="evenodd" fill="#A89240" width="20.956" height="22.5"/>
<path fill="#9A8741" d="M113.576,165.097c-2.04-2.827-0.318-10.102-7.749-6.553c-0.335-2.267,0.756-5.725-2.47-6.073
	c-4.778-0.518-8.37-3.218-11.554-5.946c-3.613-3.096-7.836,3.242-9.865-0.839c-3.007-6.052-8.343-6.001-13.516-6.987
	c-2.518-2.503-5.006-2.038-7.478,0.072c-8.826,1.319-16.85,5.117-25.133,8.113c0.284,0.328,0.568,0.657,0.852,0.986h0
	c-0.284-0.329-0.568-0.657-0.854-0.986c-1.284,0.329-3.057-0.285-3.428,1.79c-0.268,0.488-0.535,0.976-0.8,1.464
	c-7.619,0.198-11.936,6.418-17.826,9.766c-0.178,0.119-0.321,0.246-0.436,0.377c0.115-0.135,0.26-0.263,0.441-0.384
	c-10.292,7.976-7.563,18.759-6.284,29.231c0.31,3.377,0.103,6.819,0.251,10.216l-0.679,2.987l1.005,0.571
	c0.318,2.103,0.896,4.171,1.952,6.179c-0.216,1.039-0.432,2.077-0.647,3.116c-1.501,0.489-1.785,1.097-0.186,1.889
	c0.873,8.408,7.364,12.055,13.536,15.971c1.626,0.048,3.252,0.097,4.878,0.146c5.378-0.41,6.824,5.817,11.402,6.756
	c0.477,1.526,1.981,1.338,3.071,1.839c6.128-0.333,10.244,6.201,16.66,4.88c3.16,0.466,6.32,0.932,9.481,1.398
	c4.607,0.838,8.815-0.255,11.99-3.592c5.503-5.786,14.944-5.798,19.178-13.335c0.206-0.366,0.877-0.777,1.238-0.704
	c7.313,1.474,7.291-4.021,8.234-8.602c5.868-6.236,5.079-13.653,3.759-21.166C113.358,186.831,114.124,175.983,113.576,165.097z"/>
<path fill-rule="evenodd" clip-rule="evenodd" fill="#73662D" d="M108.521,218.992c-0.948,4.583-0.922,10.085-8.245,8.603
	c-0.359-0.073-1.018,0.344-1.235,0.711c-4.354,7.379-13.632,7.633-19.197,13.332c-3.21,3.287-7.362,4.544-12.007,3.546
	c1.775-1.403,3.551-2.807,5.916-4.677c-10.009,0.211-7.939-9.276-12.241-13.415c0.347-1.809,0.862-3.604,1.011-5.429
	c0.767-9.382,1.022-18.704-4.325-27.12c0.049-1.074,0.097-2.147,0.146-3.221c2.136,0.013,4.272,0.025,6.408,0.038
	c0.558,0.505,1.117,1.012,1.675,1.518c0,4.878-0.023,9.755,0.013,14.633c0.02,2.562,0.132,5.255,3.901,4.406
	c5.689-1.283,5.107,2.988,3.253,4.919c-5.686,5.919,1.865,7.069,3.569,8.704c2.472,2.369,5.406-2.973,5.5-3.694
	c0.769-5.913,4.441-13.282,0.525-17.542c-4.108-4.469-2.866-6.041-3.308-10.581c1.096-0.009,1.787-2.531,2.883-2.541
	c-1.522,5.576,2.923,5.756,6.218,7.405c1.06,0.53,0.383,4.166,3.106,3.566c2.858-0.63,1.785-3.431,2.081-5.422
	c0.255-1.717-0.744-4.292,1.819-4.662c2.223-0.321,4.315,1.021,4.572,3.526c0.335,3.285,2.316,3.867,5.007,3.742
	c0.015,0.574,0.03,1.148,0.045,1.723c-3.471,5.651,0.053,12.282-3.328,18.299C104.901,219.205,106.711,219.099,108.521,218.992z"/>
<path fill-rule="evenodd" clip-rule="evenodd" fill="#625520" d="M113.367,165.246c0.539,10.887-0.179,21.736-0.973,32.584
	c-1.143-0.567-2.286-1.134-3.429-1.702c-0.307-2.566,1.046-5.953-3.238-6.555c-2.433-4.621-2.097-9.875-3.376-14.759
	c0,0.001,0.011,0.038,0.011,0.038c4.467-0.15,8.684-0.593,7.995-6.804C110.611,166.31,111.616,165.377,113.367,165.246z"/>
<path fill-rule="evenodd" clip-rule="evenodd" fill="#625520" d="M109.04,195.972c1.143,0.566,2.285,1.133,3.428,1.701
	c1.342,7.51,2.122,14.922-3.747,21.156c-1.81,0.107-3.62,0.213-6.238,0.367c3.381-6.017-0.143-12.647,3.328-18.299
	c0.889,1.585,1.778,3.172,3.229,5.759C109.04,202.303,109.04,199.138,109.04,195.972z"/>
<path fill-rule="evenodd" clip-rule="evenodd" fill="#8A762D" d="M52.892,188.117c-1.733-0.832-3.5-1.009-3.788-3.272
	c-1.59-0.063-3.181-0.125-4.771-0.188c-3.971,0.689-8.235-2.146-12.068,2.667c-1.452,1.823-2.391-1.481-6.982,0.077
	c-0.004,7.048-2.262,9.927-2.266,16.976c-2.889-1.327-3.479-3.833-3.238-6.635c0.651-7.583-1.635-15.375,1.622-22.77
	c0.041-1.123,0.082-2.247,0.125-3.373c0.001-0.001-0.099,0.109-0.099,0.109c-0.514-0.552-1.028-1.105-1.543-1.658l-0.096-0.119
	c-4.358,1.07,0.009,9.002-6.556,8.336c-0.25,1.271-0.562,3.234-2.168,2.299c-1.721-1.001-0.859-2.755,0.521-3.938
	c0.853-3.775-0.312-7.852,1.715-11.451l-0.015,0.007c-1.193-0.563-1.076-1.063,0.072-1.514c0.105-1.206-0.561-2.574,0.741-3.518
	c-7.333,5.908-9.901,17.77-6.339,29.255c1.718-3.738,3.437-7.473,7.083-1.39c-4.426,0.997-3.863,4.013-2.063,6.551
	c1.845,2.6,2.229,5.242,2.132,8.175c-2.779,1.316-0.315,6.266-4.554,6.569c-0.215,1.044-0.43,2.087-0.645,3.131
	c1.465,0.781,1.086,1.375-0.189,1.881c0.241,1.021,0.482,2.04,0.723,3.061c-0.194,1.819,1.484,2.409,2.329,3.545
	c0.023,0.505,0.189,0.957,0.5,1.355c1.779,0.171,3.195,0.753,3.252,2.88c2.237,1.716,4.476,3.425,6.715,5.135
	c1.685-1.937,3.331-2.535,4.878,0.146c1.056-0.457,2.112-0.915,3.167-1.373c-0.191,5.673,5.938,4.989,8.22,8.175
	c-0.249-3.144,0.869-6.462-1.06-9.385c-0.869-1.316-2.45-2.622,0.2-3.551c1.652-0.579,2.985-0.039,4.007,1.631
	c2.714,4.439,1.093,8.747-0.111,13.1c6.124-0.325,10.265,6.171,16.679,4.848c-1.541-4.794-1.999-9.704-1.765-14.727
	c0.116-2.479,0.127-4.826,3.286-5.349c0,0,0,0,0-0.001c0.086,1.344,0.309,2.622,1.623,3.375c0.347-1.81,0.862-3.604,1.011-5.431
	c0.767-9.381,1.022-18.704-4.325-27.12c-1.542-1.146-1.689-2.228,0.145-3.222c2.137,0.014,4.273,0.027,6.409,0.041
	c4.401,0.503,7.291-1.893,9.766-5.088C67.736,186.561,60.765,191.897,52.892,188.117z M32.805,220.691
	c-2.671-6.317,2.087-10.968,3.285-16.686c4.017,3.314,1.874,9.354,6.471,11.806C43.699,226.215,36.062,219.076,32.805,220.691z
	 M60.547,220.795c0,0.001,0,0.001,0,0.001c-2.487,0.159-3.171-2.254-4.779-3.35c-2.733,0.54-2.725,3.562-4.563,5.207
	c-0.642-2.985-0.312-5.997-2.037-8.484h0.001c-0.017-3.999,0.938-8.299-5.533-8.507c-3.381-0.109-2.907-3.624-2.531-5.851
	c0.829-4.931,5.662-5.212,9.14-6.581c2.446-0.962,4.768,0.728,5.224,3.678c0.463,2.991,0.387,6.014-1.269,8.675
	c-2.07,3.327-1.489,6.109,1.347,8.603C63.914,211.317,59.234,218.324,60.547,220.795z"/>
<path fill-rule="evenodd" clip-rule="evenodd" fill="#B39E4A" d="M34.824,147.01c8.284-2.996,16.308-6.794,25.133-8.113
	c2.493-0.024,4.985-0.048,7.478-0.072c5.173,0.985,10.509,0.935,13.516,6.987c2.028,4.081,6.252-2.257,9.865,0.839
	c3.184,2.728,6.776,5.428,11.554,5.946c3.226,0.349,2.134,3.807,2.469,6.073c-3.607,4.706,2.312,6.178,3.179,9.365
	c-4.378,0.104-7.372,1.551-6.525,6.724l-0.019-0.013c-5.2,2.016-13.802-2.289-14.619,7.871c-2.139,0.129-4.277,0.259-6.415,0.39
	c-1.732-1.9-3.349-2.321-4.725,0.366c-0.04,0.438-0.097,0.873-0.171,1.307c-0.537-0.085-1.076-0.163-1.615-0.232
	c-4.776-8.308-12.726-9.551-21.239-9.541c-0.21-0.118-0.42-0.236-0.63-0.353c0.219,0.108,0.438,0.217,0.657,0.325
	c0.695,4.45-0.345,8.034-4.917,9.856c-1.568-0.105-3.135-0.211-4.704-0.316c-2.182-5.148-6.816-6.226-12.481-6.868
	c2.347-1.914,5.509-4.071,3.403-6.055c-2.792-2.632-6.728-4.683-10.486-5.453c-2.886-0.592-0.847,4.426-3.404,5.506l-0.019,0.026
	c-0.502-0.547-1.003-1.095-1.505-1.643c0,0-0.144-0.167-0.143-0.164c-2.168-1.547-3.396-4.382-6.451-4.72l-0.031-0.004
	c0.037-0.476,0.059-0.953,0.067-1.431c0.119-1.219-0.71-2.628,0.721-3.583c5.891-3.348,10.208-9.568,17.826-9.766
	c2.055,0.04,4.239,0.567,5.718-1.533C35.816,148.157,35.32,147.583,34.824,147.01z"/>
<path fill-rule="evenodd" clip-rule="evenodd" fill="#C1AD5B" d="M68.82,140.261c4.902,0.986,10.736,0.165,12.823,6.611
	c-2.32,0.443-4.644,0.88-5.916,3.996c4.553,1.97,9.604,3.128,12.598,7.462c1.621,7.964,9.546,7.827,14.609,11.367
	c-1.618,0.029-3.237,0.057-4.855,0.084c-2.174,0.001-4.349,0.003-6.523,0.004c-1.086,0.001-2.172,0.002-3.259,0.002
	c-0.366-2.756,1.044-5.868-1.632-8.163c-2.708,0.007-5.416,0.014-8.124,0.021c-11.536-0.893-15.961-4.34-14.764-11.501
	c2.254-2.758,3.887-5.737,3.399-9.478C67.724,140.532,68.272,140.396,68.82,140.261z"/>
<path fill-rule="evenodd" clip-rule="evenodd" fill="#C1AD5B" d="M44.938,159.378c-2.163,0.026-4.327,0.052-6.49,0.077
	c-1.104-0.01-2.208-0.018-3.313-0.025c-1.469,0.375-4.046-1.129-3.763,2.218c0.27,3.178-1.759,3.977-4.343,4.202
	c-0.198-3.118-1.886-4.708-4.979-4.856c0.026-0.542,0.053-1.086,0.081-1.628c0.511-0.557,1.021-1.114,1.53-1.671
	c1.663-2.146,5.212-2.823,5.003-6.427c1.598-0.059,3.197-0.12,4.794-0.181c1.694,0,3.388,0.002,5.082,0.005
	c1.603-1.03,3.207-2.062,4.811-3.095c0.533-0.014,1.066-0.03,1.599-0.049c2.825,1.333,5.65,2.667,8.456,3.992
	C53.363,157.635,45.261,154.051,44.938,159.378z"/>
<path fill-rule="evenodd" clip-rule="evenodd" fill="#C1AD5B" d="M78.239,168.692c0.527,0.023,1.056,0.045,1.583,0.065
	c0.019,2.184,0.039,4.368,0.057,6.551c-0.075,1.054-0.15,2.108-0.225,3.163c-1.562,0.551-3.124,1.103-4.685,1.654
	c-0.543-0.025-1.087-0.029-1.631-0.009l0.013,0.012c0.018-0.536,0.006-1.072-0.036-1.607c-1.21-1.856-3.102-1.599-4.915-1.586
	c-5.431-0.018-10.863-0.036-16.294-0.054c0.001,0,0.006,0.015,0.006,0.015c-0.546-0.523-1.093-1.048-1.639-1.571
	c-0.01-0.556-0.019-1.111-0.027-1.667c0.581-0.585,2.086-0.901,0.609-2.086c-0.201,0.696-0.401,1.391-0.602,2.087
	c-0.543,0.003-1.086-0.004-1.628-0.023c0.953-2.348-3.911-6.265,0.041-6.684c6.093-0.646,10.07-11.292,17.765-3.618
	C69.73,166.424,72.85,170.225,78.239,168.692z"/>
<path fill-rule="evenodd" clip-rule="evenodd" fill="#9A8741" d="M64.227,147.221c0.405,2.708-15.099-2.144-9.47,0.563
	c-4.736,0.626-7.643-1.962-12.182-2.123C43.972,138.215,52.519,138.7,64.227,147.221z"/>
<path fill-rule="evenodd" clip-rule="evenodd" fill="#8A762D" d="M102.121,174.713c-2.135-0.036-4.271-0.073-6.405-0.108
	c-0.478,0.186-0.975,0.284-1.487,0.296c-2.878,1.856-7.666,2.012-6.949,7.069l-6.839,1.037c0,0-12.191,2.462-14.223,10.342
	c-0.105-0.039-0.208-0.062-0.313-0.108c0,0.887,0.003,1.773,0.002,2.66c0.001,0.024-0.004,0.046-0.004,0.071
	c0.001,0.022,0.003,0.041,0.004,0.063c-0.004,3.946-0.018,7.893,0.011,11.84c0.02,2.562,0.132,5.255,3.901,4.406
	c5.689-1.283,5.107,2.988,3.252,4.919c-5.685,5.919,1.866,7.069,3.57,8.704c2.472,2.369,5.406-2.973,5.5-3.694
	c0.769-5.913,4.441-13.282,0.525-17.542c-2.854-3.104-3.321-6.023-3.489-9.039l3.185-2.538c-0.005,3.63,3.678,3.969,6.517,5.39
	c1.06,0.531,0.383,4.167,3.105,3.566c2.858-0.63,1.785-3.431,2.081-5.421c0.255-1.718-0.744-4.293,1.819-4.663
	c2.223-0.321,4.315,1.021,4.572,3.526c0.335,3.285,2.316,3.867,5.007,3.742c0.012-3.252,0.024-6.505,0.036-9.758
	C103.066,184.852,103.402,179.597,102.121,174.713z"/>
<path fill-rule="evenodd" clip-rule="evenodd" fill="#9A8741" d="M81.33,184.553c0.456-0.932,0.911-1.863,1.367-2.793
	c1.347-0.419,2.694-0.839,4.042-1.257c3.413,3.743-1.007,11.079,5.749,13.509c0.296,0.106-1.772,1.437-3.012,1.743
	c-3.1,1.049-4.293-0.795-3.958-3.421C86.013,188.465,83.344,186.779,81.33,184.553z"/>
<path fill-rule="evenodd" clip-rule="evenodd" fill="#9A8741" d="M98.016,156.596c-0.83,0.685-1.557,1.712-2.506,1.994
	c-3.627,1.082-6.247-0.934-8.551-3.34c-0.751-0.785-0.985-2.116-0.01-2.942c2.997-2.546,5.571-0.224,8.199,0.929
	c1.24,0.543,2.391,1.287,3.582,1.939C98.493,155.65,98.255,156.124,98.016,156.596z"/>
<path fill-rule="evenodd" clip-rule="evenodd" fill="#B39E4A" d="M8.28,199.113c1.013-0.521,2.026-1.043,3.039-1.564
	c6.288,0.656,5.266,4.216,3.249,8.172l-0.067-0.029c-2.48,2.149-0.747,5.076-1.373,7.583c-0.56,2.247-0.142,5.183-4.006,4.117
	C9.47,211.271,6.514,205.301,8.28,199.113z"/>
<rect x="8.186" y="255.494" fill-rule="evenodd" clip-rule="evenodd" fill="#625520" width="20.956" height="22.5"/>
<rect x="68.99" y="255.494" fill-rule="evenodd" clip-rule="evenodd" fill="#9A8741" width="20.956" height="22.5"/>
<rect x="48.779" y="255.494" fill-rule="evenodd" clip-rule="evenodd" fill="#8A762D" width="20.956" height="22.5"/>
<rect x="29.142" y="255.494" fill-rule="evenodd" clip-rule="evenodd" fill="#73662D" width="20.956" height="22.5"/>
<rect x="110.901" y="255.494" fill-rule="evenodd" clip-rule="evenodd" fill="#D1BA5E" width="20.956" height="22.5"/>
<rect x="89.945" y="255.494" fill-rule="evenodd" clip-rule="evenodd" fill="#C1AD5B" width="20.956" height="22.5"/>
</svg>
