<?xml version="1.0" encoding="utf-8"?>
<!-- Generator: Adobe Illustrator 16.0.4, SVG Export Plug-In . SVG Version: 6.00 Build 0)  -->
<!DOCTYPE svg PUBLIC "-//W3C//DTD SVG 1.1//EN" "http://www.w3.org/Graphics/SVG/1.1/DTD/svg11.dtd">
<svg version="1.1" id="Layer_1" xmlns="http://www.w3.org/2000/svg" xmlns:xlink="http://www.w3.org/1999/xlink" x="0px" y="0px"
	 width="708.66px" height="850.39px" viewBox="0 0 708.66 850.39" enable-background="new 0 0 708.66 850.39" xml:space="preserve">
<path fill="#9A8741" d="M68.452,18.341c-1.251-1.732-0.195-6.192-4.75-4.017c-0.205-1.389,0.463-3.509-1.514-3.723
	c-2.929-0.317-5.131-1.973-7.082-3.645c-2.215-1.898-4.804,1.987-6.047-0.514c-1.844-3.71-5.113-3.679-8.285-4.283
	c-1.543-1.534-3.068-1.249-4.583,0.044c-5.41,0.809-10.328,3.137-15.406,4.973c0.174,0.201,0.348,0.403,0.522,0.604h0
	c-0.174-0.202-0.348-0.403-0.523-0.604c-0.787,0.202-1.874-0.174-2.101,1.097c-0.164,0.299-0.328,0.598-0.491,0.897
	c-4.67,0.121-7.316,3.934-10.927,5.986c-0.109,0.073-0.197,0.15-0.267,0.231c0.071-0.083,0.16-0.161,0.271-0.235
	c-6.309,4.889-4.636,11.499-3.852,17.917c0.19,2.07,0.063,4.18,0.154,6.262l-0.416,1.831l0.616,0.351
	c0.195,1.288,0.549,2.557,1.196,3.787c-0.132,0.637-0.265,1.273-0.396,1.91c-0.92,0.299-1.094,0.672-0.114,1.157
	c0.535,5.153,4.514,7.39,8.297,9.79c0.997,0.029,1.993,0.059,2.99,0.089c3.296-0.251,4.183,3.565,6.989,4.142
	c0.292,0.936,1.214,0.82,1.882,1.127c3.756-0.204,6.279,3.801,10.212,2.992c1.937,0.285,3.874,0.57,5.812,0.856
	c2.824,0.514,5.403-0.156,7.35-2.202c3.373-3.547,9.16-3.554,11.756-8.174c0.125-0.225,0.537-0.477,0.758-0.432
	c4.482,0.904,4.469-2.464,5.048-5.271c3.597-3.822,3.112-8.369,2.304-12.975C68.318,31.663,68.788,25.014,68.452,18.341z"/>
<path fill-rule="evenodd" clip-rule="evenodd" fill="#73662D" d="M65.353,51.376c-0.58,2.81-0.564,6.183-5.053,5.273
	c-0.221-0.044-0.625,0.211-0.758,0.437c-2.668,4.523-8.355,4.679-11.767,8.172c-1.968,2.015-4.513,2.785-7.36,2.173
	c1.089-0.859,2.178-1.72,3.627-2.866c-6.136,0.13-4.867-5.687-7.504-8.223c0.213-1.108,0.528-2.209,0.619-3.328
	c0.471-5.751,0.627-11.465-2.65-16.624c0.03-0.658,0.06-1.315,0.089-1.974c1.309,0.008,2.619,0.016,3.928,0.023
	c0.342,0.31,0.684,0.62,1.026,0.931c0.001,2.989-0.015,5.979,0.009,8.969c0.012,1.57,0.08,3.221,2.391,2.701
	c3.487-0.787,3.131,1.831,1.994,3.015c-3.485,3.628,1.143,4.333,2.188,5.335c1.516,1.452,3.314-1.822,3.371-2.264
	c0.471-3.625,2.723-8.143,0.322-10.753c-2.52-2.739-1.758-3.702-2.028-6.485c0.672-0.006,1.095-1.552,1.767-1.558
	c-0.933,3.418,1.792,3.528,3.812,4.539c0.649,0.325,0.234,2.554,1.903,2.187c1.752-0.387,1.095-2.104,1.275-3.324
	c0.156-1.053-0.456-2.631,1.115-2.857c1.362-0.197,2.646,0.626,2.802,2.162c0.206,2.014,1.42,2.369,3.07,2.293
	c0.009,0.352,0.018,0.704,0.027,1.057c-2.127,3.463,0.033,7.527-2.04,11.216C63.134,51.507,64.243,51.443,65.353,51.376z"/>
<path fill-rule="evenodd" clip-rule="evenodd" fill="#625520" d="M68.323,18.433c0.33,6.673-0.109,13.324-0.596,19.973
	c-0.701-0.348-1.401-0.695-2.102-1.043c-0.188-1.573,0.641-3.649-1.985-4.018c-1.491-2.833-1.285-6.053-2.069-9.047
	c0,0,0.006,0.023,0.006,0.023c2.738-0.092,5.324-0.363,4.901-4.17C66.634,19.085,67.25,18.513,68.323,18.433z"/>
<path fill-rule="evenodd" clip-rule="evenodd" fill="#625520" d="M65.671,37.267c0.701,0.347,1.4,0.694,2.102,1.042
	c0.822,4.604,1.301,9.146-2.297,12.968c-1.109,0.065-2.219,0.131-3.824,0.225c2.073-3.688-0.087-7.752,2.041-11.217
	c0.545,0.973,1.09,1.945,1.979,3.53C65.671,41.148,65.671,39.207,65.671,37.267z"/>
<path fill-rule="evenodd" clip-rule="evenodd" fill="#8A762D" d="M31.254,32.452c-1.062-0.51-2.146-0.619-2.322-2.006
	c-0.975-0.039-1.95-0.077-2.924-0.115c-2.434,0.422-5.048-1.315-7.397,1.635c-0.89,1.117-1.466-0.908-4.28,0.047
	c-0.002,4.32-1.386,6.085-1.389,10.405c-1.771-0.813-2.132-2.35-1.985-4.067c0.399-4.647-1.002-9.424,0.994-13.957
	c0.025-0.688,0.05-1.377,0.076-2.067c0.001-0.001-0.061,0.067-0.061,0.067c-0.315-0.338-0.63-0.677-0.946-1.016l-0.059-0.073
	c-2.671,0.656,0.005,5.518-4.019,5.109c-0.153,0.779-0.345,1.982-1.329,1.409c-1.055-0.614-0.526-1.688,0.32-2.414
	c0.523-2.314-0.191-4.813,1.051-7.019l-0.009,0.004c-0.731-0.345-0.66-0.652,0.044-0.928c0.064-0.739-0.344-1.578,0.454-2.156
	C2.98,18.932,1.406,26.203,3.589,33.243c1.053-2.291,2.106-4.581,4.341-0.852c-2.713,0.611-2.368,2.459-1.265,4.016
	C7.797,38,8.032,39.621,7.973,41.417c-1.703,0.807-0.193,3.842-2.791,4.027c-0.132,0.64-0.264,1.279-0.396,1.919
	c0.898,0.479,0.666,0.843-0.116,1.153c0.148,0.625,0.296,1.25,0.443,1.875c-0.119,1.115,0.91,1.477,1.427,2.174
	c0.014,0.31,0.116,0.586,0.306,0.83c1.09,0.105,1.958,0.463,1.994,1.766c1.371,1.052,2.744,2.1,4.116,3.147
	c1.033-1.187,2.042-1.554,2.99,0.089c0.647-0.279,1.294-0.561,1.941-0.841c-0.117,3.478,3.64,3.058,5.039,5.011
	c-0.153-1.927,0.532-3.961-0.65-5.752c-0.533-0.808-1.502-1.607,0.123-2.178c1.013-0.354,1.83-0.023,2.456,1
	c1.664,2.721,0.67,5.361-0.068,8.029c3.754-0.199,6.292,3.783,10.224,2.973c-0.944-2.939-1.226-5.949-1.082-9.027
	c0.071-1.52,0.078-2.958,2.014-3.279l0,0c0.053,0.823,0.189,1.606,0.995,2.068c0.212-1.109,0.527-2.21,0.619-3.329
	c0.471-5.751,0.627-11.465-2.651-16.624c-0.945-0.701-1.036-1.365,0.089-1.975c1.31,0.009,2.619,0.017,3.928,0.025
	c2.698,0.309,4.47-1.16,5.985-3.119C40.354,31.498,36.08,34.769,31.254,32.452z M18.942,52.418
	c-1.637-3.872,1.279-6.724,2.013-10.228c2.462,2.031,1.148,5.732,3.966,7.236C25.62,55.804,20.938,51.428,18.942,52.418z
	 M35.946,52.482c0,0.001,0,0.001,0,0.002c-1.524,0.097-1.943-1.383-2.929-2.055c-1.675,0.332-1.67,2.184-2.797,3.192
	c-0.394-1.829-0.191-3.676-1.249-5.2h0c-0.01-2.451,0.575-5.088-3.392-5.215c-2.073-0.066-1.782-2.221-1.552-3.586
	c0.508-3.023,3.471-3.195,5.603-4.035c1.499-0.589,2.922,0.447,3.202,2.256c0.284,1.833,0.237,3.686-0.778,5.316
	c-1.269,2.04-0.913,3.745,0.825,5.273C38.011,46.672,35.142,50.967,35.946,52.482z"/>
<path fill-rule="evenodd" clip-rule="evenodd" fill="#B39E4A" d="M20.18,7.254c5.078-1.836,9.996-4.165,15.405-4.973
	c1.528-0.015,3.057-0.029,4.584-0.044C43.34,2.841,46.61,2.81,48.454,6.52c1.242,2.501,3.832-1.384,6.047,0.514
	c1.951,1.672,4.152,3.327,7.082,3.645c1.977,0.214,1.308,2.333,1.514,3.723c-2.212,2.884,1.416,3.787,1.947,5.741
	c-2.684,0.063-4.518,0.951-3.999,4.122l-0.011-0.008c-3.188,1.235-8.461-1.403-8.961,4.824c-1.312,0.08-2.622,0.159-3.933,0.239
	c-1.062-1.165-2.053-1.423-2.896,0.225c-0.025,0.268-0.06,0.535-0.105,0.801c-0.329-0.052-0.659-0.1-0.99-0.143
	c-2.928-5.092-7.801-5.854-13.018-5.848c-0.129-0.072-0.257-0.145-0.386-0.216c0.134,0.066,0.269,0.133,0.403,0.199
	c0.426,2.728-0.211,4.925-3.014,6.042c-0.961-0.064-1.922-0.129-2.883-0.194c-1.337-3.156-4.178-3.816-7.65-4.21
	c1.438-1.173,3.376-2.495,2.086-3.711c-1.711-1.613-4.124-2.871-6.427-3.343c-1.769-0.363-0.519,2.713-2.087,3.375l-0.012,0.016
	c-0.308-0.335-0.615-0.671-0.922-1.007c0,0-0.088-0.102-0.087-0.101c-1.329-0.948-2.082-2.686-3.954-2.893l-0.019-0.002
	c0.022-0.292,0.036-0.584,0.041-0.877c0.073-0.747-0.435-1.611,0.442-2.196c3.611-2.052,6.257-5.865,10.927-5.986
	c1.26,0.024,2.598,0.348,3.505-0.939C20.788,7.958,20.484,7.606,20.18,7.254z"/>
<path fill-rule="evenodd" clip-rule="evenodd" fill="#C1AD5B" d="M41.019,3.118c3.004,0.604,6.58,0.101,7.859,4.052
	c-1.422,0.271-2.847,0.54-3.627,2.449c2.791,1.208,5.887,1.917,7.723,4.574c0.993,4.882,5.852,4.797,8.955,6.968
	c-0.992,0.018-1.984,0.035-2.977,0.051c-1.333,0.001-2.666,0.002-3.998,0.003c-0.666,0-1.332,0.001-1.998,0.001
	c-0.225-1.689,0.641-3.597-1-5.003c-1.66,0.004-3.32,0.009-4.98,0.013c-7.07-0.547-9.783-2.661-9.049-7.05
	c1.381-1.69,2.383-3.517,2.083-5.81C40.347,3.284,40.683,3.201,41.019,3.118z"/>
<path fill-rule="evenodd" clip-rule="evenodd" fill="#C1AD5B" d="M26.379,14.836c-1.326,0.016-2.652,0.032-3.978,0.047
	c-0.677-0.006-1.354-0.011-2.031-0.016c-0.9,0.229-2.48-0.692-2.307,1.359c0.166,1.948-1.078,2.438-2.662,2.576
	c-0.122-1.911-1.156-2.886-3.052-2.977c0.016-0.333,0.033-0.666,0.049-0.998c0.313-0.341,0.626-0.683,0.938-1.024
	c1.019-1.315,3.195-1.73,3.067-3.939c0.979-0.036,1.959-0.073,2.939-0.111c1.038,0,2.077,0.001,3.115,0.003
	c0.982-0.631,1.965-1.264,2.949-1.897c0.327-0.008,0.653-0.019,0.98-0.03c1.731,0.817,3.463,1.635,5.183,2.447
	C31.543,13.768,26.577,11.57,26.379,14.836z"/>
<path fill-rule="evenodd" clip-rule="evenodd" fill="#C1AD5B" d="M46.792,20.545c0.322,0.014,0.646,0.027,0.971,0.04
	c0.012,1.339,0.023,2.677,0.034,4.016c-0.046,0.646-0.092,1.292-0.138,1.938c-0.957,0.338-1.914,0.676-2.871,1.014
	c-0.334-0.016-0.666-0.018-1-0.006l0.008,0.007c0.011-0.329,0.004-0.657-0.021-0.985c-0.742-1.138-1.902-0.98-3.014-0.973
	c-3.328-0.011-6.658-0.022-9.987-0.033c0,0,0.003,0.009,0.003,0.009c-0.335-0.321-0.67-0.642-1.004-0.963
	c-0.006-0.341-0.011-0.681-0.017-1.022c0.356-0.359,1.278-0.552,0.373-1.279c-0.123,0.426-0.246,0.853-0.369,1.279
	c-0.333,0.002-0.666-0.002-0.998-0.014c0.584-1.439-2.397-3.84,0.025-4.097c3.735-0.396,6.173-6.921,10.889-2.218
	C41.575,19.155,43.488,21.484,46.792,20.545z"/>
<path fill-rule="evenodd" clip-rule="evenodd" fill="#9A8741" d="M38.202,7.384c0.248,1.66-9.254-1.314-5.804,0.345
	c-2.903,0.384-4.685-1.203-7.467-1.301C25.787,1.864,31.026,2.161,38.202,7.384z"/>
<path fill-rule="evenodd" clip-rule="evenodd" fill="#8A762D" d="M61.431,24.235c-1.309-0.022-2.618-0.044-3.927-0.066
	c-0.293,0.114-0.597,0.174-0.911,0.182c-1.765,1.138-4.699,1.233-4.26,4.333l-4.192,0.635c0,0-7.473,1.509-8.718,6.339
	c-0.064-0.023-0.128-0.038-0.192-0.065c0,0.543,0.002,1.086,0.001,1.63c0.001,0.015-0.002,0.028-0.002,0.044
	c0,0.014,0.002,0.024,0.002,0.038c-0.002,2.419-0.011,4.839,0.008,7.257c0.012,1.57,0.08,3.222,2.391,2.701
	c3.487-0.787,3.131,1.832,1.994,3.016c-3.485,3.628,1.143,4.332,2.188,5.334c1.516,1.453,3.314-1.822,3.371-2.264
	c0.471-3.625,2.723-8.142,0.322-10.752c-1.75-1.903-2.036-3.693-2.139-5.541l1.951-1.556c-0.003,2.226,2.255,2.433,3.995,3.304
	c0.649,0.325,0.235,2.554,1.903,2.186c1.752-0.386,1.095-2.103,1.275-3.322c0.156-1.053-0.455-2.632,1.115-2.858
	c1.363-0.197,2.646,0.626,2.803,2.161c0.205,2.014,1.42,2.371,3.069,2.294c0.007-1.993,0.015-3.987,0.022-5.981
	C62.009,30.45,62.216,27.229,61.431,24.235z"/>
<path fill-rule="evenodd" clip-rule="evenodd" fill="#9A8741" d="M48.687,30.267c0.279-0.571,0.559-1.142,0.838-1.712
	c0.825-0.257,1.65-0.515,2.477-0.771c2.092,2.294-0.617,6.791,3.523,8.281c0.182,0.065-1.086,0.881-1.846,1.068
	c-1.9,0.644-2.632-0.487-2.426-2.097C51.557,32.665,49.921,31.631,48.687,30.267z"/>
<path fill-rule="evenodd" clip-rule="evenodd" fill="#9A8741" d="M58.913,13.13c-0.508,0.42-0.953,1.049-1.535,1.222
	c-2.224,0.663-3.83-0.572-5.242-2.047c-0.461-0.481-0.604-1.297-0.006-1.804c1.837-1.561,3.414-0.137,5.025,0.569
	c0.76,0.333,1.466,0.789,2.195,1.189C59.206,12.551,59.061,12.841,58.913,13.13z"/>
<path fill-rule="evenodd" clip-rule="evenodd" fill="#B39E4A" d="M3.909,39.192c0.621-0.319,1.242-0.64,1.863-0.958
	C9.626,38.635,9,40.818,7.764,43.243l-0.042-0.018c-1.521,1.317-0.458,3.111-0.841,4.647c-0.343,1.378-0.087,3.178-2.456,2.524
	C4.639,46.644,2.827,42.985,3.909,39.192z"/>
</svg>
