<?xml version="1.0" encoding="utf-8"?>
<!-- Generator: Adobe Illustrator 16.0.4, SVG Export Plug-In . SVG Version: 6.00 Build 0)  -->
<!DOCTYPE svg PUBLIC "-//W3C//DTD SVG 1.1//EN" "http://www.w3.org/Graphics/SVG/1.1/DTD/svg11.dtd">
<svg version="1.1" id="Layer_1" xmlns="http://www.w3.org/2000/svg" xmlns:xlink="http://www.w3.org/1999/xlink" x="0px" y="0px"
	 width="595.28px" height="425.2px" viewBox="0 0 595.28 425.2" enable-background="new 0 0 595.28 425.2" xml:space="preserve">
<path fill-rule="evenodd" clip-rule="evenodd" fill="#49652F" d="M3.835,98.199c24.529-21.626,130.049-106.623,196.601-67.5
	s108.473,57.354,105.462,70.44s-0.061,26.174-14.779,32.441s-112.832,74.356-139.8,62.356S16.103,137.484,12.979,128.271
	S-7.322,110.81,8.788,99.929"/>
<path fill-rule="evenodd" clip-rule="evenodd" fill="#708E3D" d="M25.837,85.934c-1.198-0.07-5.688-3.822-4.193-5.73
	c0.064-0.082,18.462-0.869,20.777-1.295c14.604-2.684,4.508-5.916,9.725-12.203c4.134-4.979,18.883,4.874,22.885,6.95
	c-0.469-3.318-10.88-12.582-9.381-14.065c3.072-3.035,5.605,6.89,8.492,4.727c3.573-2.679-5.161-5.676-1.899-8.955
	c5.99-6.016,11.074,3.76,15.233-5.68c1.902-4.312,11.011-0.657,13.721,1.883c3.183,2.981-0.938-18.709,6.984-12.024
	c-1.446,4.912-2.229,4.532-2.363,10.999c-0.24,11.613-12.399-3.095-9.792,12.554c2.317,13.903,8.583,5.624,17.202,3.805
	c12.207-2.575,7.981-16.427,7.72-25.909c11.434,3.305-0.593,12.391,6.151,16.517c6.116,3.742,14.611-16.776,8.129-18.45
	c-2.835-0.731-3.381,3.974-8.09,2.443c0.842-9.202,2.712-2.801,7.786-6.385c-0.831-1.926-7.709-9.555-4.7-12.095
	c3.112-2.626,12.237-0.905,16.263,0.241c-1.426-0.406,9.208-14.176,11.685-10.316c1.725,2.688-0.705,10.057-0.473,13.983
	c0.146,2.47,10.154,8.179,9.907,4.409c-0.263-4.073-8.838-10.174-7.913-11.133c4.357,0.215,13.399-1.523,14.814,5.113
	c2.43,11.394,7.792,1.395,12.354,6.209c3.334,3.523-7.693,6.516,1.915,8.272c-13.427,6.681,5.219,4.684,5.794,4.872
	c4.894,1.604,3.898-6.118-5.003-5.621c-1.032-2.022,4.46-17.898,5.057-10.654c1.276,15.505,13.735,4.951,13.831,21.207
	c-1.549-0.03-8.235-6.383-9.09,1.496c0.021-0.196,11.209,7.743,10.434,7.986c0.424-0.133,3.445-8.985,3.656-9.321
	c6.278-10.016,11.251,5.94,17.274,4.884c14.141-2.481,6.5,13.953,18.521,19.988c0.099-2.114-1.222-15.835,1.547-16.848
	c3.478-1.272,6.481,20.457,6.359,20.76c-2.054,5.108-10.719-2.676-10.396,6.309c0.062,1.712,0.635,22.31-2.307,22.264
	c-6.888-0.109,0.349-13.218-1.52-14.434c-1.951-1.271-11.997,6.454-11.815,8.118c0.176,1.62,8.828,3.436,8.136,6.145
	c-0.7,2.737-7.895-0.715-9.003,0.715c-1.616,2.086,1.148,5.302-0.344,6.762c-10.845-0.884-6.107-8.155-17.45-0.603
	c-2.587,0.372-4.956-0.305-7.107-2.028c-4.959,0.823-2.808,12.806-8.285,10.978c-5.654-1.888,5.5-12.053-10.896-9.602
	c-10.835,1.62-23.609,6.48-33.835,10.418c-7.916,3.047-16.518-0.547-23.521,2.518c-2.926,1.28-21.348,12.406-23.743,8.506
	c-1.211-1.97,0.275-12.413,2.857-12.798c0.697-0.104,18.136,0.084,11.803-6.978c-3.003-3.345,2.849-5.169,0.186-7.926
	c-2.559-2.649-11.347,5.159-13.1,6.3c-5.106,0.473-6.21-4.153-12.013-3.702c-1.565-3.838,38.02-11.245,29.05-17.52
	c-1.371-0.96-10.474,11.59-10.113-1.801c0.096-3.563-6.116-2.16-3.277-6.716c1.743-2.798,9.891-9.742,7.919-12.713
	c-3.271-4.925-20.948,12.383-21.37,4.755c-0.351-6.358-10.493-19.639-17.663-19.551c-4.787,0.059-0.843,24.661,4.094,22.311
	c4.526-2.156-3.338-6.868,0.194-8.631c8.769-4.379,4.69,15.08,4.691,15.077c-1.272,4.085,18.778,12.978,10.524,16.779
	c-2.324,1.174-4.778,1.925-7.362,2.253c-9.109,0.144-2.829,6.802-7.96,8.744c-1.449,0.55-7.879-3.552-13.085-1.922
	c-3.212,1.005-24.671,17.606-24.402,7.387c0.045-1.73,37.224-23.562,24.068-29.773c-2.99-1.411-5.6-3.355-5.307,1.661
	c0.743,12.682-7.405-9.44-5.969-9.146C57.77,80.485,47.771,97.035,47.862,98.24c1.427,2.104,3.407,2.59,5.943,1.457
	c0.987,10.134-18.047,2.44-9.175-10.238C50.553,80.99,25.128,81.432,25.837,85.934C24.507,85.855,25.559,84.166,25.837,85.934z
	 M205.036,75.83c-3.415-2.773-7.675-10.998-11.545-12.526c-3.1-1.224-4.864,21.336-3.167,23.065
	C193.076,89.172,212.217,79.725,205.036,75.83z M118.79,80.997c-12.921,0.151,2.95,11.148,3.653,6.41
	c0.006-0.036-2.138-14.756,0.525-12.975C119.14,71.875,118.849,79.959,118.79,80.997C116.207,81.027,118.899,79.068,118.79,80.997z
	 M161.591,57.123c0.036,11.62-7.883-1.971-10.609-1.48c-16.679,3.002-6.197,13.565-8.688,26.012
	c-6.479-2.96-2.643-9.011-4.786-13.82c-0.97-2.175-19.911,18.298-7.751,24.166c11.89,10.229,20.192-20.709,19.705-20.705
	c3.64-0.027,1.904,7.428,9.197,6.539c12.838,0.159,5.8,0.176,6.541,6.102c0.688,5.505,25.176,12.101,21.15,4
	c-1.285-2.586-5.991,0.881-7.025-2.369c-0.573-1.796-4.176-11.447-5.575-12.561c-0.008-0.023-6.388-29.589-14.287-20.294
	C158.474,54.902,159.184,56.372,161.591,57.123C161.594,58.064,159.46,56.299,161.591,57.123z M227.979,93.146
	c-1.952,2.831-15.683,8.191-13.733,12.314c2.635,5.576,22.68-17.088,27.567-16.859c9.315,0.438-10.73-11.239-6.918-7.669
	c-9.533-8.928-7.208-9.248-9.107,5.045c-6.854-1.641-11.868,8.263-8.186,9.313c3.117,0.893,3.303-3.987,3.624-5.67
	C224.235,88.961,227.817,90.615,227.979,93.146C227.567,93.744,227.928,92.338,227.979,93.146z M197.631,91.812
	c-10.854,28.263,24.668-1.519,14.379-5.312C212.487,86.678,197.694,91.648,197.631,91.812
	C194.831,99.104,198.862,88.652,197.631,91.812z M175.954,56.846c-0.273,4.757,9.121,6.018,7.822-3.637
	c-1.106-8.219-19.779-15.011-19.088-5.078C164.747,48.971,175.544,56.443,175.954,56.846
	C175.774,59.975,174.597,55.515,175.954,56.846z M173.801,99.957c-1.612,1.561-2.397,3.388-2.356,5.482
	c2.318,2.008,7.338-1.925,7.316-4.412c0.011,1.314-7.865-7.465-8.619-7.907c-8.274-4.86-9.24-6.695-19.133-4.784
	c-6.116,1.182,2.682,7.232,3.701,7.931c1.335,1.992,2.563,4.049,3.685,6.169c1.651,0.455,4.514-3.129,6.024-1.518
	c-0.706,1.942-3.296,4.935-0.213,6.486C167.736,109.18,167.461,98.274,173.801,99.957
	C173.753,101.604,169.941,98.933,173.801,99.957z M141.823,115.963c20.214-0.157,11.008-25.712,2.197-22.464
	C138.152,95.661,126.882,115.704,141.823,115.963C144.832,115.939,140.524,115.94,141.823,115.963z M223.949,69.518
	c-0.557-1.14-4.042-11.062-6.103-10.078C204.655,65.747,221.652,98.688,223.949,69.518C222.629,66.814,223.606,73.87,223.949,69.518
	z M229.364,62.141c-6.589,0.992,9.498,14.564,11.404,13.396C246.118,72.256,231.27,62.858,229.364,62.141
	C227.438,62.431,229.753,62.287,229.364,62.141z M142.926,30.882c-12.59,1.278,8.721,8,8.045,7.486
	C153.697,40.439,154.046,33.148,142.926,30.882C141.013,31.076,145.978,31.504,142.926,30.882z M185.341,74.057
	c1.309-2.65-2.775-7.913-5.604-6.919c-2.206,0.774,0.941,16.105,4.291,15.41C187.21,81.888,184.596,75.844,185.341,74.057
	C186.874,70.951,184.344,76.446,185.341,74.057z M72.802,82.621C63.815,65.521,56.77,82.52,72.802,82.621
	C70.91,79.021,68.496,82.594,72.802,82.621z M135.45,99.477c-1.539-5.457-10.035,5.759-8.397,7.697
	C129.588,110.174,134.685,100.189,135.45,99.477C134.862,97.393,132.876,101.875,135.45,99.477z M184.931,107.039
	c4.028-0.531,7.129-5.746,1.164-5.94C182.175,100.971,180.139,106.646,184.931,107.039
	C186.768,106.797,183.54,106.925,184.931,107.039z M87.805,94.082c-1.494-4.758-3.952-6.617-7.375-5.578
	C77.257,92.068,85.849,97.811,87.805,94.082C86.159,91.873,87.493,94.676,87.805,94.082z M155.866,116.115
	c2.24,0.253,4.032-0.51,5.377-2.288C163.336,107.383,146.557,114.619,155.866,116.115
	C157.796,115.792,154.675,115.924,155.866,116.115z M165.762,37.902c-0.192-2.977-3.443-3.494-5.717-2.825
	C155.766,36.337,165.182,45.616,165.762,37.902C165.609,35.543,165.624,39.732,165.762,37.902z M175.542,39.387
	C193.372,34.541,158.771,35.741,175.542,39.387C177.619,38.822,173.655,38.977,175.542,39.387z M149.875,49.094
	c-0.395-5.057-5.049-1.75-5.698,1.424C143.65,53.077,149.608,52.373,149.875,49.094C149.767,47.705,149.685,51.438,149.875,49.094z
	 M205.55,64.09c-2.679,1.592-2.394,3.422,0.855,5.49C209.65,67.981,209.365,66.151,205.55,64.09
	C204.568,64.203,207.305,64.785,205.55,64.09z M127.298,70.656c3.686-1.784,4.336-3.616,1.949-5.496
	C125.434,66.838,124.784,68.67,127.298,70.656C128.56,69.674,125.956,70.418,127.298,70.656z M91.724,54.998
	c-0.196-5.185-5.037-1.276-3.527,1.57C89.834,58.18,91.01,57.656,91.724,54.998C91.677,53.762,91.602,56.215,91.724,54.998z
	 M190.2,97.861c2.49-0.384,1.707-5.046-0.408-4.534C187.083,95.444,187.219,96.955,190.2,97.861
	C191.789,97.616,188.851,97.937,190.2,97.861z M74.806,98.354c-2.437,1.342-2.625,2.815-0.564,4.42
	C77.142,101.637,77.33,100.163,74.806,98.354C73.425,98.494,76.169,98.641,74.806,98.354z M156.826,46.729
	c-0.766-0.901-1.532-1.802-2.298-2.703C150.394,44.194,156.153,51.757,156.826,46.729C156.845,45.01,156.718,47.539,156.826,46.729z
	 M142.489,40.146c-2.826,1.271-2.998,2.518-0.514,3.742C145.029,42.804,145.2,41.556,142.489,40.146
	C141.052,40.115,143.582,40.336,142.489,40.146z"/>
<path fill-rule="evenodd" clip-rule="evenodd" fill="#708E3D" d="M307.271,118.665c-0.214,0.044-0.427,0.093-0.636,0.15
	c-1.16-3.472-4.068-3.753-7.07-3.863c0.061-0.99,0.121-1.979,0.182-2.97c0.16-2.778-0.22-5.696,2.053-7.928
	c1.302-0.131,2.833-0.072,2.9-1.899c0.068-1.863-0.991-3.044-2.769-3.573c-4.891-2.385-9.907-4.113-15.123-1.193
	c-1.574,0.881-2.369,1.65-3.193-0.648c-0.35-0.978-1.377-2.197-2.297-2.4c-4.086-0.908-5.631-3.609-6.192-7.781
	c-1.249,4.249-5.243,6.568-6.313,10.74c-0.271,1.053-0.074,2.647-1.825,2.286c-1.53-0.316-1.509-2.022-1.11-2.868
	c1.66-3.524-3.255-8.094,1.809-10.973c0.496-0.061,0.99-0.124,1.484-0.188c2.371,0.092,4.006-1.275,5.592-2.781
	c0.971-0.923,2.037-1.891,3.498-1.175c1.527,0.747,1.19,2.13,0.966,3.467c-0.171,1.019-1.504,2.22,0.007,3.047
	c1.232,0.675,2.097-0.521,3.002-1.214c2.711-2.078,4.738-1.846,5.004,1.93c0.256,3.658,2.476,4.699,5.57,5.074
	c3.255,0.396,6.437,0.646,9.573,2.176c5.619,2.74,7.093,7.004,3.251,11.84c-1.769,2.226-1.802,4.051,0.269,6.043
	C307.196,115.211,308.627,116.574,307.271,118.665z"/>
<path fill-rule="evenodd" clip-rule="evenodd" fill="#708E3D" d="M169.765,130.053c1.048-0.225,2.285,0.058,2.977-1.115
	c1.313-0.008,1.998-0.65,2.002-1.98c2.552-0.893,3.689-2.367,2.049-4.984c-0.268-2.42,1.178-3.208,3.241-3.402
	c0.665,0.743,1.333,1.484,2.001,2.225c0.315,1.607,1.467,2.479,2.805,3.188c0.014,1.298,0.027,2.596,0.041,3.895
	c-0.281,2.844,0.008,6.295-4.717,4.32c-0.43-0.18-1.287-0.283-1.426-0.075c-3.765,5.649-12.1,3.325-15.789,9.071
	c-0.354,0.55-0.967,0.924-1.375,1.445c-1.605,2.05-3.693,2.724-6.203,2.281c-0.953-0.168-1.601-0.771-1.391-1.697
	c0.539-2.367,1.722-4.196,4.189-5.146C162.661,136.35,164.521,130.75,169.765,130.053z"/>
<path fill-rule="evenodd" clip-rule="evenodd" fill="#708E3D" d="M88.821,115.941c0.543,2.045,1.653,3.506,3.902,3.796
	c3.712,2.319,4.158,5.986,3.971,9.856c-0.057,1.189,0.469,3.073-1.555,3.018c-1.592-0.043-1.472-1.736-1.273-2.768
	c0.584-3.031-0.542-4.075-3.468-5.242c-2.229-0.889-4.19-3.855-5.087-6.326C84.185,115.17,87.328,116.327,88.821,115.941z"/>
<path fill-rule="evenodd" clip-rule="evenodd" fill="#708E3D" d="M84.492,127.201c1.454,0.37,3.144,0.881,3.058,2.66
	c-0.145,2.986,1.35,4.915,3.256,6.879c1.279,1.318,1.42,3.133-0.102,4.4c-1.435,1.197-2.258-0.474-3.33-1.108
	c-4.627-2.737-3.037-7.631-4.109-11.591C83.037,127.6,83.78,127.365,84.492,127.201z"/>
<path fill-rule="evenodd" clip-rule="evenodd" fill="#708E3D" d="M92.288,153.709c-0.639-2.217-1.878-4.28-1.692-6.704
	c3.968-0.681,7.13,2.472,6.024,6.171C95.669,156.357,93.793,153.957,92.288,153.709z"/>
<path fill-rule="evenodd" clip-rule="evenodd" fill="#708E3D" d="M124.719,134.684c2.177,0.354,4.811,0.77,4.894,4.043
	c0.039,1.532-1.273,2.538-2.728,2.043c-2.418-0.824-4.398-2.578-4.892-5.106C121.637,133.834,123.286,134.318,124.719,134.684z"/>
<path fill-rule="evenodd" clip-rule="evenodd" fill="#708E3D" d="M138.925,141.748c0.559,0.154,1.118,0.311,1.676,0.467
	c0.132,1.414,0.823,3.072-1.228,3.679c-1.281,0.378-2.61,0.308-3.688-0.674c-0.637-0.579-1.061-1.336-0.67-2.177
	C135.835,141.277,137.62,142.189,138.925,141.748z"/>
<path fill-rule="evenodd" clip-rule="evenodd" fill="#708E3D" d="M192.72,145.877c-0.07,1.17-0.465,2.088-1.763,1.865
	c-1.849-0.32-2.214-1.771-2.16-3.363c0.033-0.971,0.091-2.268,1.526-1.844C191.858,142.989,192.651,144.279,192.72,145.877z"/>
<path fill-rule="evenodd" clip-rule="evenodd" fill="#49652F" d="M17.45,102.053c-0.225,0.187-0.439,0.512-0.646,0.508
	c-0.557-0.013-0.803-0.428-0.587-0.92c0.082-0.188,0.55-0.354,0.772-0.289C17.19,101.41,17.294,101.797,17.45,102.053z"/>
<path fill-rule="evenodd" clip-rule="evenodd" fill="#2D3519" d="M116.914,60.774c-2.415-0.665-1.938-2.649-2.033-4.399
	c-0.339-6.299-0.582-12.596,0-18.895c0.918-0.721,1.91-0.981,3.024-0.489c0.48,5.26,2.947,10.345,0.985,15.836
	c-0.675,1.888,0.52,3.479,2.632,4.019C121.887,60.385,119.373,60.548,116.914,60.774z"/>
<path fill-rule="evenodd" clip-rule="evenodd" fill="#2D3519" d="M205.49,50.819c0.406-1.921,2.152-2.47,3.502-3.425
	c0.393,0.256,0.786,0.512,1.182,0.772c0.264,1.771,1.834,3.214,1.284,5.183c-1.262,0.166-2.525,0.33-3.789,0.495
	C206.943,52.836,206.217,51.828,205.49,50.819z"/>
<path fill-rule="evenodd" clip-rule="evenodd" fill="#2D3519" d="M110.63,37.533c0.073,0.147,0.126,0.311,0.224,0.441
	c1.456,1.956,0.387,3.781-0.361,5.58c-0.121,0.29-0.963,0.613-1.203,0.471c-1.953-1.164-1.272-3.173-1.436-4.908
	c-0.047-0.492-0.029-0.988-0.041-1.483c0.137-0.479,0.273-0.958,0.414-1.436C109.031,36.645,109.83,37.088,110.63,37.533z"/>
<path fill-rule="evenodd" clip-rule="evenodd" fill="#2D3519" d="M103.071,100.233c0.051-0.971-0.229-2.589,0.203-2.811
	c3.768-1.925,5.305-5.228,6.668-8.983c0.864-2.381,2.511-1.09,3.641,0.311c1.437,1.831,2.983,3.527,5.284,4.293
	c0.673,0.753,1.855,1.126,1.816,2.416C115.746,100.495,110.062,102.775,103.071,100.233z"/>
<path fill-rule="evenodd" clip-rule="evenodd" fill="#2D3519" d="M169.811,126.711c-1.992-1.754-4.42-0.947-6.639-0.976
	c-2.557-0.031-4.754-0.958-5.891-2.96c-1.314-2.312,2.781-1.912,2.644-3.974c0.001,0.001,0.052-0.036,0.051-0.036
	c3.015-0.029,5.903-0.383,7.881-3.072c0.278-0.082,0.559-0.152,0.843-0.211c3.429-0.803,5.218,2.637,8.139,3.148
	c1.641,2.617,0.503,4.092-2.049,4.984c-1.256,0.065-1.92,0.729-2.002,1.98C172.096,126.769,170.858,126.486,169.811,126.711z"/>
<path fill-rule="evenodd" clip-rule="evenodd" fill="#2D3519" d="M60.717,89.648c-2.741,1.775-4.989,4.055-6.865,6.711
	c-1.335,0.088-2.67,0.179-4.006,0.27c-0.016-1.339-0.03-2.678-0.045-4.017c1.576-4.909,5.855-8.377,7.16-13.438
	c0.248-0.961,0.621-2.078,1.918-1.812c1.123,0.23,1.512,1.39,1.564,2.324C60.633,83,60.641,86.326,60.717,89.648z"/>
<path fill-rule="evenodd" clip-rule="evenodd" fill="#2D3519" d="M174.689,72.531c-2.395,1.604-5.641,0.232-7.913,2.27
	c-0.96-0.08-1.919-0.162-2.88-0.242c-1.695-2.816-3.427-2.758-5.192-0.066c-1.659,0.202-3.246,1.826-4.997,0.256
	c0.002-2.271,0.138-4.277,3.319-4.249c2.241,0.02,3.853-1.714,5.661-2.829c4.299-2.65,7.889-1.364,11.108,1.994
	C174.742,70.418,174.758,71.461,174.689,72.531z"/>
<path fill-rule="evenodd" clip-rule="evenodd" fill="#2D3519" d="M226.074,80.827c6.74-3.385,7.645-2.833,7.646,4.69
	c0,1.297-0.054,2.594-0.085,3.889c-0.897,1.76-2.303,3.035-3.922,4.106c-1.473,0.122-2.713-0.112-2.922-1.917
	c0.411-0.598,0.822-1.193,1.232-1.791c1.059-0.254,1.967-0.754,1.66-2.003c-0.256-1.044-0.995-1.185-1.813-0.424
	c-0.598-0.022-1.195-0.046-1.795-0.065c-0.082-1.557-0.162-3.117-0.241-4.677C225.914,82.033,225.994,81.43,226.074,80.827z"/>
<path fill-rule="evenodd" clip-rule="evenodd" fill="#2D3519" d="M98.344,114.582c-1.858,0.604-3.717,1.207-5.574,1.813
	c-2.249-0.29-3.359-1.751-3.902-3.796c-0.448-3.291,0.436-5.38,4.311-4.983c0.885,0.091,1.445-0.59,1.67-1.455
	c1.983-0.149,4.024-0.862,5.846,0.599c0.344,2.156-3.926,2.164-2.295,4.922C98.38,112.648,98.361,113.615,98.344,114.582z"/>
<path fill-rule="evenodd" clip-rule="evenodd" fill="#2D3519" d="M170.368,59.422c-3.82,1.891-7.09,2.076-8.721-2.817
	c-0.005-0.94-0.008-1.882-0.009-2.824c0.223-1.342,1.352-1.993,2.181-2.872c2.479,0.309,4.593,1.592,6.454,3.031
	C172.258,55.474,172.158,57.559,170.368,59.422z"/>
<path fill-rule="evenodd" clip-rule="evenodd" fill="#2D3519" d="M144.882,121.94c2.335,1.562,6.958,1.865,6.115,5.304
	c-0.745,3.039-4.853,0.8-7.425,1.222c-1.457,0.238-3.488,0.835-4.408-1.118c-1.01-2.145,0.545-3.725,1.615-5.353
	C142.146,121.979,143.514,121.959,144.882,121.94z"/>
<path fill-rule="evenodd" clip-rule="evenodd" fill="#2D3519" d="M171.928,49.509c-0.326-3.151,0.614-5.142,4.262-4.878
	c2.793,0.201,5.152,1.711,5.253,4.225c0.119,3.009-1.907,5.105-5.444,4.65C174.643,52.173,173.285,50.841,171.928,49.509z"/>
<path fill-rule="evenodd" clip-rule="evenodd" fill="#2D3519" d="M197.677,88.471c1.451,0.41,4.241-0.283,3.876,1.845
	c-0.557,3.244,3.743,6.964-0.909,9.71C195.409,97.832,194.877,95.762,197.677,88.471z"/>
<path fill-rule="evenodd" clip-rule="evenodd" fill="#2D3519" d="M91.949,75.639c2.409-1.34,4.709-0.842,6.121,1.268
	c1.43,2.137,1.106,4.834,0.242,7.158c-0.601,1.612-1.975,1.529-3.062,0.14c-1.217-1.555-2.419-3.122-3.629-4.684
	C91.729,78.227,91.84,76.933,91.949,75.639z"/>
<path fill-rule="evenodd" clip-rule="evenodd" fill="#2D3519" d="M105.836,66.266c-1.672-4.414-0.762-9.002-0.906-13.518
	c2.704-0.409,4.043,0.553,3.892,3.482c-0.146,2.802-0.007,5.618,0.006,8.428C108.188,65.859,107.232,66.473,105.836,66.266z"/>
<path fill-rule="evenodd" clip-rule="evenodd" fill="#2D3519" d="M106.859,109.868c1.691,1.18,4.934,1.487,3.567,4.622
	c-1.324,3.035-3.972,1.826-6.271,1.098c-0.302-1.301-0.603-2.602-0.903-3.903c0.223-0.515,0.443-1.03,0.665-1.544
	C104.898,110.049,105.879,109.959,106.859,109.868z"/>
<path fill-rule="evenodd" clip-rule="evenodd" fill="#2D3519" d="M159.95,20.77c0.093-0.152,0.17-0.311,0.233-0.473
	c5.443-0.811,5.709-0.518,5.734,6.33c-1.725,0.035-3.447,0.07-5.17,0.104c-0.354-0.33-0.705-0.659-1.057-0.991
	C159.779,24.083,159.865,22.426,159.95,20.77z"/>
<path fill-rule="evenodd" clip-rule="evenodd" fill="#2D3519" d="M158.881,58.597c-0.031,0.327-0.062,0.655-0.095,0.981
	c-0.229,2.402-1.688,3.928-3.814,4.64c-1.04,0.349-1.778-0.698-2.017-1.721c-0.623-2.671,0.356-4.479,3.034-5.288
	C157.038,57.492,158.162,57.622,158.881,58.597z"/>
<path fill-rule="evenodd" clip-rule="evenodd" fill="#2D3519" d="M129.802,88.658c0.032-2.086,0.443-4.136,3.069-3.854
	c3.16,0.342,0.481,2.425,0.824,3.644C132.471,89.872,131.166,89.832,129.802,88.658z"/>
<path fill-rule="evenodd" clip-rule="evenodd" fill="#2D3519" d="M203.931,78.758c-3.269-2.932-2.959-4.823,1.044-6.392
	c0.002-0.002,0.107,0.122,0.105,0.123c0.015,1.459,0.032,2.917,0.05,4.375C204.73,77.495,204.33,78.126,203.931,78.758z"/>
<path fill-rule="evenodd" clip-rule="evenodd" fill="#2D3519" d="M147.899,80.736c-0.925-0.473-2.398,1.074-2.912-0.625
	c-0.758-2.504,1.876-3.081,2.862-4.606C149.314,77.234,149.354,78.979,147.899,80.736z"/>
<path fill-rule="evenodd" clip-rule="evenodd" fill="#2D3519" d="M253.283,105.651c-2.502,0.013-4.425,0.171-4.458-2.563
	c-0.02-1.621,6.457-8.496,7.829-7.953c2.189,0.869,3.031,3.22,2.979,5.217C259.518,104.676,255.953,105.166,253.283,105.651z"/>
<path fill-rule="evenodd" clip-rule="evenodd" fill="#2D3519" d="M301.977,95.24c1.777,0.529,2.837,1.71,2.769,3.573
	c-0.067,1.827-1.599,1.769-2.9,1.899c-2.229-2.811-4.923-1.605-7.739-1.205c-2.271,0.322-6.066,1.424-6.588-1.461
	c-0.627-3.474,3.591-2.404,5.634-3.207C296.003,93.72,299.014,95.219,301.977,95.24z"/>
<path fill-rule="evenodd" clip-rule="evenodd" fill="#2D3519" d="M201.799,127.77c-0.102,1.809-0.195,3.871-2.547,3.334
	c-1.867-0.427-4.969,0.188-5.129-2.766c-0.141-2.57,2.008-4.241,4.406-4.52C201.219,123.507,201.41,125.928,201.799,127.77z"/>
<path fill-rule="evenodd" clip-rule="evenodd" fill="#2D3519" d="M280.727,97.916c-0.271,1.773-1.074,2.506-2.365,2.598
	c-2.057,0.146-6.818-5.077-6.533-7.171c0.227-1.671,1.336-3.2,2.902-2.419C277.717,92.416,277.124,97.065,280.727,97.916z"/>
<path fill-rule="evenodd" clip-rule="evenodd" fill="#2D3519" d="M138.971,138.406c0.785-3.403,5.068-5.258,7.602-3.201
	c1.657,1.345,1.627,3.297,0.73,4.945c-1.086,1.996-2.431,0.892-3.568-0.191c-0.873-0.83-1.812-1.426-3.088-1.086
	C140.089,138.717,139.529,138.561,138.971,138.406z"/>
<path fill-rule="evenodd" clip-rule="evenodd" fill="#2D3519" d="M182.08,117.453c-0.668-0.74-1.336-1.481-2.001-2.225
	c1.212-2.487,6.604-4.555,8.526-3.31c1.022,0.663,0.705,1.4,0.137,2.051C186.982,115.984,185.258,118.128,182.08,117.453z"/>
<path fill-rule="evenodd" clip-rule="evenodd" fill="#2D3519" d="M133.846,147.971c0.004,2.668-0.389,4.44-2.836,4.533
	c-2.154,0.081-2.361-1.554-2.184-3.098c0.236-2.066,0.129-5.108,2.467-5.343C133.672,143.825,133.537,146.756,133.846,147.971z"/>
<path fill-rule="evenodd" clip-rule="evenodd" fill="#2D3519" d="M213.724,132.117c0,2.06-0.747,3.244-2.524,3.389
	c-1.938,0.156-3.191-0.734-3.207-2.809c-0.014-1.87,1.412-2.539,2.889-2.813C212.777,129.531,213.454,130.844,213.724,132.117z"/>
<path fill-rule="evenodd" clip-rule="evenodd" fill="#2D3519" d="M264.125,108.697c2.245,0.148,3.046,1.87,3.358,3.615
	c0.282,1.576-0.96,2.461-2.464,2.15c-1.933-0.4-3.075-1.752-3.113-3.809C261.879,109.197,262.789,108.679,264.125,108.697z"/>
<path fill-rule="evenodd" clip-rule="evenodd" fill="#2D3519" d="M98.812,128.254c0.16-1.584-0.372-3.682,1.816-4.101
	c1.758-0.336,2.211,1.274,2.068,2.658c-0.188,1.812-0.602,3.993-2.703,4.224C98.477,131.201,98.998,129.314,98.812,128.254z"/>
<path fill-rule="evenodd" clip-rule="evenodd" fill="#2D3519" d="M80.855,122.949c-0.087,1.414-0.196,2.697-1.855,2.537
	c-1.617-0.156-2.218-1.355-2.191-2.83c0.026-1.436,0.502-2.842,2.233-2.628C80.717,120.234,80.742,121.811,80.855,122.949z"/>
<path fill-rule="evenodd" clip-rule="evenodd" fill="#2D3519" d="M184.926,124.535c-0.014-1.299-0.027-2.597-0.041-3.895
	c1.265-0.326,3.067-1.907,3.539,0.38C188.871,123.188,187.491,124.744,184.926,124.535z"/>
<path fill-rule="evenodd" clip-rule="evenodd" fill="#2D3519" d="M8.92,111.608c0.201-2.493,2.971-2.315,4.053-3.896
	c2.809-1.252,5.783-1.17,8.751-1.055c0.925,0.035,2.204-0.297,2.487,0.983c0.304,1.376-0.976,2.514-1.876,2.483
	C17.771,109.969,13.555,112.738,8.92,111.608z"/>
<path fill-rule="evenodd" clip-rule="evenodd" fill="#2D3519" d="M48.393,106.12c-0.268-1.719,0.394-3.176,1.732-3.213
	c3.312-0.092,5.02-2.017,6.539-4.526c0.486-0.803,1.345-1.717,2.435-1.146c1.019,0.531,0.926,1.775,0.671,2.667
	c-0.82,2.878-2.73,4.914-5.623,5.654C52.306,106.026,50.326,105.949,48.393,106.12z"/>
<path fill-rule="evenodd" clip-rule="evenodd" fill="#2D3519" d="M29.018,98.807c-0.121,0.564-0.242,1.129-0.364,1.693
	c-2.278-0.273-5.344,5.859-6.829-0.842c1.573-0.81,2.107-2.238,2.305-3.868c2.02-0.774,2.774-3.851,5.634-3.104
	c0.056,1.315,0.11,2.632,0.165,3.946C29.01,97.1,28.823,97.873,29.018,98.807z"/>
<path fill-rule="evenodd" clip-rule="evenodd" fill="#2D3519" d="M150.863,99.045c-0.43,1.799-1.264,3.171-3.162,3.246
	c-1.096,0.044-1.754-0.887-1.775-1.938c-0.039-1.866,1.048-3.11,2.799-3.4C150.128,96.719,150.54,97.984,150.863,99.045z"/>
<path fill-rule="evenodd" clip-rule="evenodd" fill="#2D3519" d="M169.878,83.568c0.22-1.275-1.978-3.09,0.292-3.727
	c1.746-0.49,3.79-1.576,5.65-0.442c1.249,0.761,1.205,2.281,0.943,3.589c-0.35,1.747-1.702,1.754-3.074,1.479
	c-1.274-0.255-2.533-0.588-3.797-0.888L169.878,83.568z"/>
<path fill-rule="evenodd" clip-rule="evenodd" fill="#2D3519" d="M221.82,67.355c-0.197,1.264-0.27,2.98-1.997,2.694
	c-1.651-0.274-1.864-2.041-1.89-3.517c-0.021-1.208,0.407-2.461,1.803-2.416C221.729,64.18,221.74,65.854,221.82,67.355z"/>
<g>
	<path fill="#2D3519" d="M57.698,133.938c-0.052-0.113-0.111-0.22-0.176-0.322C57.358,133.409,57.552,134.188,57.698,133.938z"/>
	<path fill="#2D3519" d="M297.117,106.282c-7.581-3.058-22.804,1.091-28.168-5.469c-8.003-9.791,3.539,18.636,5.75,13.588
		c-3.061,6.965-14.477-1.661-18.066,1.024c-4.196,3.14-5.385,25.256-5.26,25.286c-15.862-3.821,1.906-21.833-1.19-25.742
		c-5.615-7.088-22.18,9.468-29.927,1.095c-3.152-3.407-11.864-6.196-11.074,1.538c0.301,2.938,5.087-0.198,4.986,4.146
		c-0.291,12.646,2.757,2.887,8.682,4.785c1.085,0.348,3.84,20.407-1.017,18.409c-9.388-3.864-4.477,0.631-6.646,5.503
		c-5.118-5.413-6.246-13.634-14.902-15.083c-5.122-0.857,6.339,9.964,3.964,12.038c-2.226,1.946-7.51-6.563-9.514-4.283
		c-3.687,4.199,8.059,12.466,4.459,15.156c-4.602,3.439-10.416-10.842-13.591-12.852c-0.919,7.223-0.709,15.018-4.289,21.52
		c-1.715,3.114-6.439,3.604-4.772-1.506c2.542-7.8,1.024-6.343-0.954-12.728c-0.361-1.167,4.457-2.915,4.484-5.992
		c0.182-20.203-14.779-4.845-20.748,6.667c-3.195,0.553-5.921,2.062-8.175,4.53c1.131,3.179,1.834,6.443,2.108,9.794
		c-2.938,4.126,3.378,4.217,1.314,7.385c-0.606,0.932-13.528,2.519-14.858,2.579c-0.186-3.852-2.769-11.924-1.232-15.01
		c1.226-2.462,9.904-10.98,6.806-14.248c-5.501-5.801-17.445,30.668-23.439,25.231c-1.868-1.695,5.193-8.349,4.844-11.363
		c-9.659,8.131-9.061-25.483-17.429-30.867c-0.382,1.806-0.707,3.621-0.977,5.447c-8.145-2.644-7.356-0.349,0.061,2.99
		c6.018,2.708-8.255,17.517-11.62,18.173c-5.189,1.017,7.858-13.941,0.848-12.581c-3.213,0.626-0.179,7.278-5.234,6.523
		c-4.809-0.714-3.454-11.494-9.156-14.72c-2.89-1.635-15.021-10.434-16.006-14.299c-1.5-5.887,10.694-12.604,8.934-17.191
		c-1.253-3.266-10.268,1.094-11.822,1.669c1.806,4.373-7.311,19.598-11.054,17.604c-6.563-3.5,11.264-9.538-6.05-8.886
		c-3.187,5.613-15.341-5.762-19.881,0.236c-4.953,6.543-10.604,9.158-7.48,0.527c0.139-0.383-13.094-2.305-12.69,7.378
		c7.416,7.437,4.429,18.473,11.583,26.585c4.353,4.937,4.57-6.393,9.953-2.579c9.932,7.036,3.128-3.904,10.887-3.345
		c4.594,0.333,2.743,9.541,7.597,11.568c7.132,2.979,7.787,2.064,13.354,2.099c18.506,0.111-4.019,39.436,15.497,31.57
		c0.006-1.281-5.779-17.672,5.772-14.786c11.882,2.971,3.944,35.247,9.383,34.886c0.792-5.016,6.987-26.044,13.902-25.738
		c0.693,0.031,12.875,7.679,14.287,8.609c2.628,1.732,7.87,12.251,9.439,12.607c4.81,1.092,10.39-10.324,15.251-0.154
		c4.359,9.119,13.514,8.036,21.005,3.973c2.055-1.113,7.862-5.814,12.558-7.112c0.001-0.003,0.001-0.005,0.002-0.008
		c1.437-5.335,5.282-5.466,10.744-3.417c0.584-0.982,1.539-1.908,2.979-2.754c3.629-2.13,8.385,3.146,10.148,1.416
		c0.104-0.102-6.358-23.449,3.663-8.406c9.146-0.617-4.574-14.049,9.298-13.188c7.066,0.438,9.136-10.438,13.759-9.861
		c2.204,0.275,5.491,5.908,7.976,4.526c6.229-3.466-2.875-7.198,8.267-8.136c4.515-0.38,12.796-5.805,14.039-10.521
		c0.662-2.522,15.581,8.437,17.965,6.671c-0.675,0.5-2.514-5.435,5.131-7.252c19.468-4.629,19.124-26.041,19.458-36.569
		C301.273,113.367,296.877,110.154,297.117,106.282z M47.588,136.628c-1.474-3.572,7.782-6.415,9.935-3.012
		c0.039,0.049,0.092,0.136,0.176,0.322C56.824,135.432,48.959,139.949,47.588,136.628z M273.066,123.688
		c-0.027,0.251-0.04,0.292-0.045,0.234c-0.889,4.467-13.301,9.996-15.523,4.045c-0.31-0.827,14.979-10.186,15.543-4.651
		C273.058,123.07,273.077,122.99,273.066,123.688z"/>
	<path fill="#2D3519" d="M273.021,123.923c0.016-0.078,0.036-0.157,0.045-0.234c0.002-0.135-0.013-0.252-0.025-0.372
		C273.027,123.521,273.015,123.836,273.021,123.923z"/>
</g>
</svg>
