<?xml version="1.0" encoding="utf-8"?>
<!-- Generator: Adobe Illustrator 16.0.4, SVG Export Plug-In . SVG Version: 6.00 Build 0)  -->
<!DOCTYPE svg PUBLIC "-//W3C//DTD SVG 1.1//EN" "http://www.w3.org/Graphics/SVG/1.1/DTD/svg11.dtd">
<svg version="1.1" id="Layer_1" xmlns="http://www.w3.org/2000/svg" xmlns:xlink="http://www.w3.org/1999/xlink" x="0px" y="0px"
	 width="930px" height="400px" viewBox="0 0 930 400" enable-background="new 0 0 930 400" xml:space="preserve">
<path id="H20" fill="#000102" d="M53.558,34.283c-2.738-4.141-14.177-15.382-12.733-20.525c-1.055,1.186-1.831,0.552-2.328-1.9
	c-2.006,1.399-0.961,3.674-1.093,5.606c-5.839-4.776-8.723,2.732-14.206,0.475c0.538,0.678,0.696,1.39,0.475,2.138
	c-1.881-0.417-3.317,6.133-6.984,3.516c-5.358-4.246-8.912-6.655-11.266-13.066c-0.2-0.545-3.204-3.312-2.768-4.413
	C4.37,1.786,3.897,9.713,5.47,2.326c1.495-7.022-4.286-8.121-9.116-4.912c0.561,2.01,2.798,1.624,4.276,2.281
	C-0.02,0.007-3.52,0.771-2.221,2.07c2.315,2.215-2.343,6.703-3.088,8.79c-2.294,6.612-5.792,17.863-1.616,24.469
	c-8.133,1.082-17.052-2.85-24.943,0.047c-4.145,1.513-7.833,0.433-11.992,0.998c-4.293,0.583-8.161,4.66-11.146,7.507
	c-3.666,3.666-6.569,8.727-9.334,13.17c-1.779,2.858-3.582,5.695-5.394,8.542c-1.521,2.315-4.185,2.398-4.731,4.501
	c0.309-1.132,2.966-0.918,3.924-1.603c3.82-2.674,7.487-5.528,10.692-8.931c2.166-2.299,5.326-7.755,8.883-8.079
	c-1.048-1.048,1.506-5.197,2.851-2.233c1.125-1.17,2.006-1.514,3.563-2.043c-0.276,3.637,0.478,10.452-2.328,13.255
	c-3.499,3.394-6.213,5.284-8.456,9.627c-1.9,3.683-4.076,8.356-7.604,10.755c1.381,3.221-1.382,5.413,0.523,8.029
	c3.465-7.248,7.354-14.37,13.493-19.717c2.047-1.792,13.442-12.832,16.338-11.795c5.5,1.97-6.099,10.383-0.659,13.648
	c5.191,3.424,11.806,10.995,16.059,12.21c-0.436,1.481-0.558,3.794,1.996,2.518c-1.033-2.925-1.787-6.756-3.926-9.158
	c-1.944-2.183-9.83-4.787-9.029-8.544c0.767-3.6,4.668-6.478,6.36-9.659c2.777-5.221,4.442-2.527,10.072-1.024
	c2.539,0.678,19.486,2.248,17.237,8.24c-1.606,5.139-2.225,9.557-7.678,11.649c-5.039,1.934-8.712-2.53-11.754,3.554
	c8.385,1.401,10.485-0.884,17.674-3.563C9.428,75.055,8.972,63.36,14.408,63.36c-1.297-7.768,17.013,4.506,19.245,6.729
	c4.858,4.838,6.628,14.563,14.82,11.753c-4.635-5.007-8.984-9.583-13.002-15.114c-2.047-2.817-4.903-4.927-7.065-7.662
	c-3.923-4.961-1.267-3.812-1.123-9.009c0.061-2.362,2.02-19.206,6.467-17.865c3.583,1.08,11.34,8.676,13.583,7.65
	c-0.462-1.001-1.777-2.974-0.665-4.086c1.649,0.527,2.048,2.576,3.534,2.993C51.818,39.203,54.467,35.738,53.558,34.283
	C51.705,31.48,53.795,34.664,53.558,34.283z M14.028,27.917c-1.609,2.549-4.78,1.602-7.364,1.758
	c-5.996,0.374-2.609-3.776-2.423-6.937C5.527,23.275,14.506,27.226,14.028,27.917C13.458,28.819,14.456,27.299,14.028,27.917z"/>
<path id="H19" fill="#000102" d="M40.825,82.08c-5.304,0.755-4.086-13.986-6.909-17.038c-2.97-3.212-21.226-7.004-20.031-1.919
	C8.237,62.789,6.072,71.584,1.77,74.811c-1.296,0.972-13.907,13.786-12.781,14.349c-6.014-2.696,1.331-6.858,1.331-8.932
	c7.123-4.801,10.01-9.181,14.063-16.771c-5.093-4.811-9.057-4.385-15.729-6.118c-2.735-0.71-5.426-1.896-8.211-2.403
	c-2.138-0.39-2.415,2.493-3.711,3.627c-2.527,2.227-11.617,7.242-6.699,10.88c5.049,3.787,10.465,6.712,8.837,14.111
	c-2.178-0.559-1.716-2.623-3.154-4.276c-2.453-2.82-4.108-4.805-7.287-6.928c-7.545-5.04-8.234-4.452-2.815-11.222
	c-1.601-2.001-12.798,8.326-14.206,9.597c-4.286,3.929-7.461,10.769-5.226,16.344c-8.963,1.493-1.53-18.559,2.803-21.808
	c5.303-4.276,6.772-5.293,6.996-12.121c0.153-4.673,0.398-6.816-3.527-4.46c-0.489-2.932-1.101-3.71-1.663-0.903
	c-0.367,1.653-4.446,5.572-5.654,6.889c-4.111,4.427-11.662,13.902-18.482,13.019c6.701-4.475,9.098-12.777,14.616-18.464
	c3.027-3.12,4.186-6.282,8.071-8.802c6.415-4.16,12.051-2.468,18.744-4.995c5.919-2.237,13.165-0.213,19.265,0.063
	c8.323,0.377,3.79-4.559,4.341-11.506c0.512-6.443,2.46-11.896,5.376-17.587c0.664-1.33,2.248-2.729,0.855-4.276
	c-1.469-1.766,1.621-1.147,1.425-2.756c-1.528,0.122-2.525-0.559-2.993-2.043c3.558-1.333,8.858-3.586,9.158,2.75
	c0.146,3.086-0.853,3.938-2.751,5.667C1.425,6.952,4.546,9.589,4.959,10.45c2.463,5.135,4.122,7.365,8.773,11.074
	c5.846,4.662,4.76-0.705,9.465-0.116c-0.305-1.659-0.257-3.306,0.143-4.941c1.25,0.138,2.44,0.51,3.569,1.117
	c3.168,0,4.976-2.604,8.309-1.021c1.854,0.924,0.528-3.408,2.233-4.134c3.132,3.447,5.81,7.888,9.265,12.638
	c1.483,2.119,6.968,7.788,6.628,10.512c-0.658,5.264-4.949,2.266-6.818,0.273c-1.837,1.644,1.923,5.048-1.784,4.422
	c-1.377-0.232-3.944-4.472-5.188-5.301c-1.361-0.907-6.437-4.296-7.756-1.876c-1.887,3.424-5.153,7.562-4.799,11.688
	c0.222,2.289-2.106,8.438-1.348,9.954c1.512,3.022,7.209,4.302,9.71,6.424C40.294,65.347,41.654,76.104,40.825,82.08
	C40.492,82.127,41.062,80.37,40.825,82.08z M13.078,27.394c-3.166-1.528-7.7-5.979-9.74-2.375
	C0.04,30.846,12.499,31.737,13.078,27.394C11.7,26.729,12.888,28.819,13.078,27.394z"/>
<path id="H18" fill="#000102" d="M-36.144,66.496c6.172,5.311,10.844,8.352,9.122,16.962c-1.599-0.417-2.688-4.874-3.421-6.462
	c-1.696-3.719-9.254-10.99-12.834-8.792c-6.491,3.985-10.35,13.348-3.748,18.627c-1.378,0.554-2.755,1.109-4.133,1.663
	c0.088-1.953-1.433-2.319-2.946-2.661c-0.949-2.712,0.277-6.229,0.832-8.861c1.247-5.924,0.687-9.206,5.642-12.995
	c5.289-4.044,3.985-7.905,3.647-14.016c-0.23-2.97-2.619-4.811-3.706-1.188c-1.3-0.929,0.082-2.64-1.283-3.468
	c-1.17,0.41-4.047,7.019-5.511,8.528c-4.69,4.833-12.238,12.897-19.385,13.375c2.209-3.606,5.634-5.216,7.506-9.217
	c1.793-3.723,5.012-7.159,7.166-10.785c6.202-10.443,16.527-8.06,26.378-11.45c5.169-1.801,10.617-0.568,15.881-0.042
	c2.981,0.298,5.888,0.67,8.873,0.422c0.477-1.901-1.136-3.31-0.665-5.606c1.222-5.759,0.774-11.458,2.471-17.294
	c0.878-3.106,2.614-5.204,4.141-7.924C0.203,1.174-5.41,2.803,0.012-0.4c-1.716,0.029-2.936-0.715-3.659-2.233
	c4.28-2.14,7.055-3.747,9.217,1.758c1.381,3.552-3.333,6.037-3.123,7.351c0.818,5.112,5.985,10.615,9.757,13.75
	c2.309,1.919,4.351,5.579,7.62,3.797c3.699-2.016-2.22-3.509,4.038-2.757c-4.918-8.741,7.667-2.732,11.593-4.086
	c0-6.399,1.707-0.429,4.704-2.898c0.298,6.806,6.756,11.916,10.5,17.532c2.322,3.483,3.079,4.395,0.19,7.697
	c-1.778,1.882-3.61-2.254-5.274-2.708c-0.528,6.883-0.07,3.039-4.324,0.38c-1.684-1.09-6.417-4.738-8.653-4.3
	c-2.702,0.53-6.145,10.121-5.886,12.709c0.298,2.684-2.549,8.114-1.781,10.067c0.995,2.528,7.853,3.058,9.996,4.951
	c6.413,5.663,1.821,14.465-1.658,19.856c-1.905,2.859-2.683-2.929-2.613-3.801c0.229-2.754,2.958-1.45,3.563-3.753
	c3.371-12.637-9.424-9.953-17.175-10.993C8.642,60.79-10.015,81.418-3.124,89.682c-1.73,1.039-3.071-1.343-4.609-0.19
	c-2.471,1.646-0.263-5.278-0.333-5.511C-9.722,77.904,4.501,68.627,2.744,62.476c-0.995-3.484-18.128-5.434-21.452-6.378
	C-23.241,54.809-32.77,62.933-36.144,66.496C-34.101,68.254-35.289,65.593-36.144,66.496z M2.388,27.441
	c1.772,2.219,2.116,3.126,5.083,2.946c0.803-0.04,7.599-0.769,6.034-3.373c0.436,1.312-6.065-2.273-5.606-1.972
	C3.867,22.396,4.349,23.403,2.388,27.441C2.578,27.679,3.195,25.779,2.388,27.441z"/>
<path id="H17" fill="#000102" d="M52.607,35.376c-2.634-4.062-5.18-8.237-8.283-11.969c-2.668-3.208-2.89-5.261-4.688-8.556
	c-1.159,2.892-2.41,2.733-3.753-0.475c-0.783,1.22-1.084,2.55-0.903,3.991c-1.968-1.361-4.483-3.155-6.747-3.611
	c-0.389,1.168-5.41,2.69-7.269,3.088c0.88,0.766,1.751,1.542,2.613,2.328c-1.426,0.218-2.851,0.44-4.276,0.665
	c2.188,1.801,1.427,4.392-1.278,3.308c-2.231-0.894-4.538-3.233-6.385-4.719c-3.607-2.901-7.468-8.362-8.833-12.77
	C2.405,5.359,7.984,1.929,5.078-2.401C2.384-6.417-0.553-4.647-3.789-2.158C-2.96-1.277-2.12-0.406-1.271,0.455
	c-1.82,0.711-1.725,1.819,0.285,3.326c-1.02,1.701-2.027,3.41-3.022,5.125c-2.256,4.007-2.75,9.346-3.724,13.784
	c-0.706,4.133-1.33,10.303,0.238,14.111c-9.964,0-17.803-2.07-27.604,0.38c-4.063,1.016-8.449,0.964-12.59,1.758
	c-1.526,0.914-3.173,1.31-4.941,1.188c-0.359,2.338-2.039,3.576-4.181,4.181c1.342,1.679-6.985,11.941-8.79,14.004
	c-2.751,3.145-9.815,6.805-8.552,11.605c0.95-2.218,4.345-2.734,6.224-3.468c3.34-1.335,5.234-3.652,7.584-6.238
	c2.367-2.604,5.897-3.695,7.952-6.59c0.837-1.141,1.945-1.87,3.326-2.186c-0.165-1.756,0.088-3.451,0.76-5.084
	c1.44,0.929,0.475,2.733,1.425,3.944c3.528-7.35,5.053,1.359,5.654,5.226c0.48,2.782,1.852,3.689-1.183,4.894
	c-3.693,1.466-3.061,2.751-0.956,5.559c-4.625,4.392-3.676,6.411-2.877,12.721c0.896,7.08,1.264,8.568,6.916,11.748
	c0.322-2.165,1.797-1.065,3.136-1.473c-0.089-3.203-4.941-1.853-5.701-5.179c-1.256-5.136-2.004-9.377,2.423-13.019
	c1.679,2.032,3.459,4.138,4.039,6.794c0.366,1.827,0.764,5.854,1.948,7.079c1.799-3.17,2.676-8.258,0.095-11.308
	c-2.35-2.84-4.408-3.559-1.283-6.462c1.955-1.71,3.899-3.812,6.105-5.202c1.905-1.201,5.876-4.713,8.142-4.647
	c4.156,0.121,8.484,2.868,12.64,3.523c2.76,0.435,10.722,0.277,12.322,3.054c0.933,1.619-2.87,11.615-3.67,14.105
	c-0.671,1.837-1.384,3.659-2.138,5.464c-1.33,3.607,1.738,2.493,2.453,4.805c0.636,2.057-2.415,2.085,1.083,2.58
	c1.403,0.198,3.792,0.438,5.064-0.448C2.778,85.56,1.143,83.69,4.051,77.329c2.284-4.991,4.789-13.232,10.5-13.356
	c3.454-0.075,17.812-3.55,17.626,2.904c-0.105,2.65-0.39,5.761-3.658,5.844c-2.328,0.08-5.392,2.949-3.943,5.464
	c9.632-2.962,8.877-3.285,10.595-12.638c0.711-4.271-3.374-5.555-6.462-6.646c-6.753-2.386-2.303-3.315-1.71-8.909
	c0.552-5.207,2.599-18.123,10.254-14.558c3.317,1.545,4.017,4.053,6.429,6c3.671,2.963,1.726-2.472,2.18-3.682
	c1.504,0.602,2.579,3.044,4.062,3.118C52.247,40.986,53.58,36.898,52.607,35.376C50.944,32.811,53.7,37.086,52.607,35.376z
	 M12.365,30.815c0.206-0.428,0.412-0.855,0.618-1.283c-1.726,0.767-6.785,3.604-8.362,1.235c-2.31-3.361-0.339-4.288,0-7.792
	c4.881,1.626,7.439,5.145,12.258,4.608C16.318,29.77,14.357,30.417,12.365,30.815C12.603,30.292,15.216,30.245,12.365,30.815z"/>
<path id="H16" fill="#000102" d="M52.845,36.326c-3.644-7.291-11.374-12.424-13.826-20.05c-2.154,1.293-2.174,0.123-3.896-1.521
	c-0.174,1.188-0.348,2.375-0.522,3.563c-4.948-3.016-10.007-3.592-13.048,1.788c-2.935,5.192-3.273,4.447-9.071-0.241
	C10.92,18.604,1.04,5.603,3.575,5.349C6.325,4.99,5.906-0.036,5.18-1.67C2.958-6.673,0.585-4.244-3.171-2.633
	c0.679,1.311,1.74,2.134,3.184,2.471c-3.704,2.779,0.374,2.665-2.091,6.224c-2.327,3.352-3.663,7.249-4.276,11.26
	c-0.995,6.333-2.253,13.68-0.618,19.242c-7.45,0-16.808-4.132-23.851-0.666c-5.774,2.888-17.216-0.512-21.143,5.369
	c-2.488,3.62-3.495,1.733-4.936,5.851c-1.087,3.107-3.655,5.789-5.208,8.688c-1.431,2.671-4.183,4.723-6.634,6.426
	c-3.277,2.277-1.266,0.09-1.752,4.454c6.745-1.034,10.067-6.577,15.126-10.28c1.772-1.297,4.154-3.563,5.596-5.247
	c0.964-1.127,0.837-4.624,2.606-4.855c0.954,2.623,2.088,0.308,4.704,0.57c-1.42-3.248-1.074-8.083,3.896-5.654
	c-2.431,2.838-2.677,5.545-1.412,9.025c1.591,6.091,4.157,7.76-3.387,8.84c-5.966,0.867,0.151,10.652,1.235,13.588
	c1.27,3.345-0.898,8.999,0.428,11.355c2.068-0.752,2.27-2.871,2.851-4.656c3.867,5.48,3.934,13.364,12.021,8.647
	c-1.544-2.668-5.422-1.857-7.115-5.886c-1.903-4.528-2.634-7.373,0.748-11.456c3.678-4.429,6.818-9.794,11.07-13.684
	c2.189-1.897,12.116,3.003,14.741,3.387c4.92,0.72,8.683,1.634,13.291,3.169c3.783,1.261,1.969,6.1,1.758,9.123
	c-0.521,8.284-1.853,18.498,8.267,17.009c-0.154-2.385-3.129-2.409-4.468-3.734c-1.874-1.853-1.483-5.179-1.079-7.437
	c0.597-3.334,1.358-15.759,6.07-15.198c2.096,0.262,14.906,0.039,12.59,4.941c-2.909,6.352-7.987,1.126-10.737,6.414
	c6.741,2.023,13.334-0.345,14.146-8.577c0.356-3.611-5.01-5.157-7.399-6.484c-2.522-1.366,0.057-4.003,0.681-5.59
	c2.571-6.538,2.226-12.496,7.063-18.545c4.124-4.95,9.761,6.955,13.208,6.224c-0.445-2.521-0.812-6.402,2.518-2.851
	C50.351,40.673,54.077,38.791,52.845,36.326C52.275,35.186,52.987,36.611,52.845,36.326z M-35.812,64.643
	c-1.188,1.93-2.239,3.964-4.181,5.274C-45.059,63.161-35.335,63.868-35.812,64.643C-36.952,66.496-35.432,64.025-35.812,64.643z
	 M16.119,29.294c-2.506,0.835-5.555,2.444-10.025,2.993c-5.481,0.748-1.695-8.483-1.616-10.12
	C6.714,22.958,19.847,28.131,16.119,29.294C15.691,29.437,16.879,29.057,16.119,29.294z"/>
<path id="H15" fill="#000102" d="M46.383,27.822c-3.261-4.279-6.78-8.73-10.785-12.163c-1.248,1.017,0.014,2.55-0.57,3.801
	c-4.02-3.156-9.85-3.639-12.994,1.774c-3.861,6.648-8.339,1.303-12.996-3.057C7.01,16.288-0.024,5.929,3.623,4.826
	c1.981-0.991,1.21-5.584,0.464-7.032c-2.011-3.903-4.54-1.669-7.781-0.238c1.26,0.761,2.511,1.538,3.753,2.328
	c-5.517,3.312,0.19,0.766-1.33,4.324c-1.042,2.731-2.85,4.95-3.867,7.688c-2.005,5.398-3.357,12.147-2.821,17.932
	c0.139,1.502,2.606,6.575,0.321,7.162c-6.1,1.568-13.006-3.513-19.112-3.028c-4.322,0.343-8.226,4.775-12.769,3.504
	c-5.017-1.384-10.473,1.273-14.063,4.608c-4.051,3.803-6.354,8.863-9.346,13.456c-1.736,2.666-12.92,6.865-9.089,9.159
	c-0.852,0.414-1.152,1.079-0.902,1.996c5.532-1.382,9.685-3.732,13.702-7.774c1.896-1.908,8.653-10.818,10.814-9.377
	c0.838-3.353,4.514-1.203,3.801-4.371c-1.328-5.272,5.317-5.454,4.371-3.088c-1.498,3.903-1.691,13.449,3.896,14.918
	C-38.14,56.501-50.16,59.01-49.4,62.268c0.916,3.613,1.969,10.334,0.635,13.927c-0.998,2.69-3.758,4.647-3.106,7.691
	c5.364-4.077,6.309-6.223,5.978-12.877c-0.342-6.875,5.894-8.978,12.314-8.978c4.716-0.198-2.476,11.468,0.238,13.778
	c4.956,4.246,6.75,17.905,15.821,14.443c-0.211-3.164-5.279-3.317-7.032-5.701c-2.084-2.747-4.57-5.919-4.364-9.585
	c0.205-3.651,2.662-7.745,3.889-11.142c1.252-3.466,1.607-9.375,6.271-6.782c4.218,2.038,8.654,3.716,13.351,4.181
	c2.883,0.289,6.709,2.043,9.265,2.043c1.691-0.112,6.671,1.609,7.822,2.78c2.048,2.084,0.115,3.964,3.249,5.535
	c-1.396,0.805-2.789,1.612-4.181,2.423c8.15,6.208,2.576,17.294,15.774,17.294c-2.357-2.281-13.529-8.583-8.848-13.703
	c1.999-2.186,5.446-4.005,7.945-5.492c5.342-3.226-1.055-7.488-3.373-9.978c-2.244-2.345,6.358-19.273,8.085-22.487
	c2.117-3.94,3.045-5.958,7.544-3.837c2.642,1.245,5.232,6.529,7.936,5.657c-2.759-7.354,2.307-1.068,4.341-1.069
	C57.14,40.387,47.474,29.217,46.383,27.822C44.863,25.826,48.759,30.862,46.383,27.822z M13.315,28.582
	c0.348,0.935,0.697,1.869,1.045,2.803c-1.78,0.548-9.325,2.532-10.646,0.854c-2.775-3.525-0.684-6.234-0.329-9.976
	c2.572-1.414,7.117,4.202,9.681,4.811c1.311-0.551,2.598-0.539,3.86,0.036C18.317,29.894,14.195,28.846,13.315,28.582
	C13.743,29.77,14.266,28.867,13.315,28.582z M23.53,67.446c3.98,2.069-3.967,8.077-6.212,6.082
	c-1.327-1.179-0.754-5.199-0.582-6.747C16.984,63.555,22.222,66.792,23.53,67.446C24.718,68.064,21.915,66.639,23.53,67.446z"/>
<path id="H14" fill="#000102" d="M51.372,36.136c-4.514-6.577-9.629-16.837-16.392-20.953c-1.318,5.541-2.69,0.458-7.269,2.518
	c-2.886,1.282-5.172,1.725-6.699,4.846c-2.982,6.25-14.694-4.756-15.536-8.552c-0.371-1.638-4.004-6.91-3.635-8.053
	c0.924-2.857,3.313-0.838,3.096-5.318c-0.097-1.986-1.484-6.141-4.26-5.348c-5.724,1.578-2.417,1.797-1.14,4.561
	C-1.54,0.53-4.158,8.89-5.113,11.234c-1.802,4.419-2.199,9.242-2.762,13.737c-0.929,7.15,4.785,12.108-4.88,10.561
	c-7.708-1.234-12.243-3.038-19.73-0.631c-9.681,3.151-20.427,1.142-25.466,12.733c-2.221,4.89-5.622,8.011-10.187,10.542
	c-0.883,0.49-5.25,2.214-5.302,3.492c-0.133,3.278,3.237-1.072,1.045,3.308c7.925,0.726,17.42-9.299,21.665-15.014
	c1.625-2.274,5.24-2.331,6.562-4.033c0.363-0.466,0.718-10.666,4.793-5.564c2.732-0.468-2.349-2.665,2.945-1.974
	c-9.245,2.129-1,15.845-4.8,19.188c-2.73,2.417-8.907-1.272-9.263,4.31c-0.265,3.986-1.092,7.808-1.9,11.735
	c-0.396,3.534-6.034,2.692-6.034,7.222c8.132-3.485,8.337-3.676,9.93-12.876c0.572-3.55,5.086-4.801,8.091-5.031
	c3.317-0.253,5.226-1.6,8.443-2.713c4.08-1.407,3.171,6.259,3.118,8.196c-0.138,5.027,1.551,6.375,4.674,10.144
	c4.173,5.115,7.493,13.118,14.539,11.593c-6.436-6.878-14.496-12.048-14.016-22.473c0.131-2.363,0.217-11.845,2.542-12.852
	c1.925-0.834,12.005,4.491,14.8,5.013c2.487,0.459,7.282,2.233,9.455,2.233c1.732,0,3.3,0.506,4.704,1.521
	c2.789,1.148,3.439-1.54,4.418-0.618c1.359,1.271,8.915,8.244,4.039,9.502c-5.494,1.527-7.88-2.364-12.638,0.808
	c4.249,1.471,7.025,3.258,11.337,1.532c5.144-2.058,6.461,3.116,7.953,7.62c0.765,2.31,3.375,9.305,6.556,7.857
	c5.785-2.629-1.346-2.793-3.753-7.126c-2.741-4.935-3.224-11.766-4.181-17.247c-1.01-5.891,1.873-9.2,2.708-14.996
	c0.561-3.897,4.56-14.877,8.368-16.499c5.411-2.304,8.368,8.407,12.205,6.931c-1.302-4.169,0.353-4.336,3.231-1.663
	C49.801,41.307,52.47,37.69,51.372,36.136C49.709,33.713,51.942,36.944,51.372,36.136z M13.505,30.815
	c-5.743,2.702-13.392,1.976-10.547-6.176C5.728,17.014,14.207,30.443,13.505,30.815C12.698,31.195,14.313,30.387,13.505,30.815z"/>
<path id="H13" fill="#000102" d="M51.99,35.614c-5.055-7.131-10.248-16.892-15.917-21.666c-3.831,1.607,1.81,2.443-4.252,3.249
	c-4.086,0.543-6.366,1.469-9.402,4.294c-6.009,5.591-10.214-0.049-15.328-5.167c-2.039-2.146-0.375-5.792-3.041-7.459
	C1.483,7.581,2.607,5.213,4.716,4.588c2.007-7.231-0.949-10.47-7.649-7.697c0.548,1.465,1.609,2.272,3.183,2.423
	c-3.094,1.953-2.174,5.93-4.466,9.597c-2.7,4.208-3.468,11.308-3.468,16.201c0,1.217,1.81,10.18,1.033,10.405
	c-5.604,1.626-13.084-3.136-18.862-2.904c-4.501,0.181-7.669,2.64-12.22,3.233c-5.339,0.697-10.926,1.034-14.992,5.277
	c-3.753,3.749-5.293,10.997-10.025,13.778c-2.976,1.795-5.974,3.558-9.074,5.131c-3.986,1.993,2.151,2.021-1.426,4.846
	c7.925,1.034,22.269-16.386,25.704-14.824c1.254-2.24,4.561-3.411,4.561-4.846c0.094-1.785,1.393-8.287,4.989-5.892
	c-1.613,2.481-2.828,4.486-2.937,7.601c-0.368,3.668,2.527,8.284-0.686,10.935c-2.422,1.998-5.987,1.406-8.178,3.237
	c-2.269,1.896-1.527,10.098-5.304,8.065c0,1.66-0.042,6.82-3.23,5.369c-1.717-0.742-6.319,1.613-5.844,3.516
	c2.779,0.298,5.433,0.379,8.22,0.475c3.03,0.137,4.6-6.572,6.133-8.588c2.508-3.296,17.872-13.211,21.281-10.072
	c1.708,1.572,1.286,7.782,0.95,9.585c-0.601,3.852,5.981,7.232,8.367,9.444c4.019,3.728,7.641,10.6,13.489,7.755
	c-4.768-4.768-15.085-9.827-15.789-17.187c-0.222-2.32-0.228-13.63,1.903-14.866c1.858-1.077,10.596,3.595,12.65,4.306
	c8.249,2.942,15.634,0.846,19.688,10.197c3.053,7.042-4.639,3.724-9.045,3.724c-3.99-0.265-2.825-2.111-6.889,1.616
	c5.544,0.821,9.079,2.346,14.764,1.617c2.235-0.287,4.988-0.289,5.874-2.897c0.816-2.405-2.616-8.848-0.73-10.361
	c1.919-1.278,10.363,11.837,12.075,13.803c2.688,3.088,7.898,9.221,7.738,12.756c6.679,0,8.042-0.659,1.806-5.083
	c-7.131-5.091-10.203-16.421-13.778-23.994c-1.894-4.102,2.802-16.04,4.716-19.629c2.037-3.82,2.7-8.194,7.806-5.566
	c2.922,1.504,5.136,6.338,8.288,6.096c0.555-1.607-1.741-2.581-0.19-4.181c1.794,0.224,2.779,3.184,4.294,3.184
	C51.071,40.175,52.826,36.867,51.99,35.614C49.329,31.86,52.56,36.469,51.99,35.614z M3.86,24.496
	c0.254-0.755,0.333-1.531,0.238-2.328c2.971,0.914,5.545,3.145,8.125,4.846c3.634,2.335-0.664,4.893,0.333,1.71
	c-1.936,1.288-5.293,3.526-7.905,2.334C2.525,30.088,2.284,25.836,3.86,24.496C4.241,24.163,1.96,26.111,3.86,24.496z"/>
<path id="H12" fill="#000102" d="M51.419,35.329c-4.22-6.01-11.925-13.622-11.925-20.858c-0.873-0.421-1.458,0.07-1.758,1.473
	c-1.089-0.817-0.45-2.425-2.233-2.566c-2.06,4.53-2.67,3.097-7.417,5.095c-3.636,1.53-5.067,3.352-7.691,5.738
	c-3.031,2.729-7.939-2.536-10.007-4.11c-4.098-3.12-3.698-4.349-5.078-8.766c-0.4-1.279-5.148-4.952-1.639-5.654
	c0.734-0.292,2.414-3.022,1.806-4.086C4.902,0.686,4.601-1.771,3.813-3.346c-1.918-3.488-5.716-0.561-7.982,0.76
	C-3.62-0.645-2.479,0.1-0.748-0.353c0,5.313-4.542-2.998-1.093,3.896c-1.784,3.569-3.81,6.92-4.786,10.826
	c-1.579,6.316-3.208,14.202,0.225,20.247c-3.648,1.244-9.602-0.622-13.284-1.202c-7.155-1.128-13.099,1.832-20.212,2.58
	c-10.56,1.229-12.746,6.563-18.967,14.271c-2.604,3.227-5.374,5.314-9.039,7.183c-1.34,0.683-9.104,4.042-3.875,4.915
	c-2.991,2.56,2.56,1.87,3.764,1.323c3.427-1.555,6.523-3.534,9.61-5.679c4.357-3.027,10.86-10.735,15.893-10.515
	c0-3.443-1.589-6.274,2.368-6.775c-0.648,4.82-3.381,12.412-0.61,16.848c-3.112,1.383-1.628,2.654-4.989,4.846
	c-2.584-4.658-8.519,6.891-9.407,8.742c-2.819,6.348-7.728,0.166-11.688,5.939c9.601,3.995,11.496-0.497,17.247-6.984
	c5.167-5.706,13.843-9,20.525-12.496c2.542,2.949,0.299,7.278-0.475,10.453c-0.917,3.576,4.767,5.833,7.222,7.317
	c5.287,3.17,8.359,11.218,14.206,9.692c-1.994-3.544-4.428-7.241-7.887-9.502c-1.596-1.106-4.394-2.238-5.376-3.976
	c-3.41-4.874,0.855-11.993,2.193-17.689c4.796,1.918,9.389,3.814,14.528,4.631c5.676,0.902,12.626,0.78,12.771,7.877
	c0.121,5.93,0.458,8.3-6.49,8.492c-6.545,0.181-5.672-3.338-11.688,0.855c6.655,2.423,11.573,2.371,18.435,0.95
	c7.021-1.336,2.527-19.409,11.07-14.871c5.473,2.804,11.138,10.481,15.061,15.24c3.812,4.622,9.062,11.996,14.016,5.19
	C38.25,79.026,24.795,64.693,26.191,53.062c0.377-3.144-0.928-5.527,0.57-8.659c1.749-3.592,3.611-7.127,5.416-10.69
	c1.367-2.707,11.419,7.239,12.828,6.937c-0.585-1.329-0.744-2.707-0.475-4.134c1.397,0.466,2.995,3.163,4.151,3.267
	C50.224,39.921,52.348,36.679,51.419,35.329C49.852,33.096,51.942,36.089,51.419,35.329z M8.469,30.102
	c-4.93-0.921-7.111-0.302-4.181-6.747c2.714,1.185,5.052,3.048,7.745,4.276C11.526,29.488,10.415,30.387,8.469,30.102
	C7.709,29.96,10.417,30.387,8.469,30.102z"/>
<path id="H11" fill="#000102" d="M46.716,78.849c-0.338-1.357-7.647-5.674-9.027-7.079c-3.204-3.204-5.836-7.122-9.017-10.421
	c-4.673-4.846-3.077-4.959-2.766-11.197c0.147-6.728,3.459-13.256,7.602-18.435c1.688,2.322,8.562,8.95,10.88,9.122
	c-0.83-4.996,1.079-5.312,3.944-0.855c4.089-4.268,1.859-6.313-1.27-11.051c-2.643-4.002-7.805-8.145-7.805-13.037
	c-2.49,1.197-1.744-1.356-3.088-2.233c-1.236,0.637-0.495,3.659-1.663,3.659c-3.396,0.135-5.792,2.582-8.885,2.946
	c-3.146,0.46-3.701,5.127-6.889,4.513c-1.086-0.266-2.005,0.003-2.755,0.808c-1.91-2.247-3.964-3.928-6.221-5.786
	C7.333,17.808-0.271,6.25,3.148,5.111c2.468-0.824,2.255-5.036,1.176-6.967c-2.216-3.963-3.781-2.55-7.542-0.92
	c0.521,1.897,2.768,0.828,3.658,2.328c-2.958,1.808-3.602,2.72,0,4.086c-4.571,0.82-1.076,4.708-3.278,5.369
	C-5.856,9.89-8.001,18.92-5.879,19.982c-3.017,2.615-2.373,11.036,0.618,13.778c-3.992,4.25-16.107-2.053-21.428-0.665
	c-3.819,0.909-8.256,3.119-12.258,2.423c-3.507-0.667-6.901,0.242-9.73,2.376c-4.564,3.443-9.649,15.903-14.928,16.961
	c-2.89,0.774-4.804,3.146-7.507,4.229c-1.654,2.787,3.665-0.564,0.713,2.755c4.872,2.234,17.823-9.129,20.762-12.205
	c1.222-1.278,6.856-2.881,6.604-5.28c-0.432-4.526,1.818-5.251,5.369-5.986c-1.833,3.358-3.544,6.751-3.699,10.647
	c-0.289,1.82,0.632,9.312-0.15,9.973c-2.611,2.305-6.376,2.158-8.855,4.365c-2.118,1.886-1.06,3.25-2.809,5.345
	c-1.93,2.312-3.761,7.537-7.293,7.774c-1.744,0.169-5.519,1.602-6.034,3.516c8.758,1.328,9.891-2.484,15.055-8.412
	c5.257-6.034,13.335-10.458,20.246-14.299c3.222-1.771-2.431,10.915,0.428,12.448c3.687,2.032,7.058,4.584,10.167,7.412
	c3.844,3.461,1.671,5.381,6.733,7.643c0.841-7.58-5.624-11.184-11.247-15.34c-2.838-2.163,1.2-7.165,2.293-9.09
	c2.572-4.533,1.308-8.489,7.114-5.626c6.657,3.282,24.865,0.898,21.466,11.236c-1.631,4.961-1.904,8.698-7.299,10.482
	c-4.718,1.56-8.397-1.269-12.463,2.292c6.88,3.303,11.562,1.177,17.87-1.977c5.618-2.809,5.581-13.995,10.954-15.765
	c6.25-2.059,15.37,7.422,19.746,11.154c5.014,4.277,7.567,11.794,14.484,9.172C47.86,80.875,47.084,80.052,46.716,78.849
	C46.668,78.659,46.906,80.18,46.716,78.849z M10.75,29.817c-4.99,0.585-5.878,0.888-8.79-2.471c2.303-4.031,2.211-4.556,6.42-1.96
	C9.454,26.049,16.122,29.048,10.75,29.817C9.942,29.912,12.08,29.627,10.75,29.817z"/>
<path id="H10" fill="#000102" d="M49.566,31.005c-1.768-3.13-4.19-5.986-6.312-8.873c-1.826-2.483-2.058-5.499-3.57-7.614
	c-1.557,3.116-1.635,0.493-2.851-1.331c-1.714,0.834-0.599,2.325-1.093,3.659c-3.2,0.739-6.291,1.644-9.455,2.464
	c-1.482,0.384-4.241-0.008-4.466,2.773c-0.204,2.513-4.002,1.598-5.939,4.122C15.805,24.564-2.705,6.916,3.623,5.491
	c3.53-0.88,1.282-8.257-0.867-9.888C1.337-5.474-2.582-2.876-3.836-2.348c-0.542,0,3.827,2.051,3.896,2.138
	c-3.36,0.527-3.899,1.81-1.615,3.848c-1.362,2.725-3.152,5.046-4.118,7.974c-1.837,5.569-2.229,10.946-2.534,16.732
	c-0.261,5.887,4.255,7.095-3.979,6.239c-6.73-0.7-12.311-1.787-18.838,0.146c-4.693,1.389-9.435-0.209-13.86,1.18
	c-4.692,1.474-9.179,5.386-11.832,9.444c-3.475,6.951-17.864,11.71-17.864,18.054c11.228-2.17,17.868-9.135,26.274-16.344
	c0.994,2.787,3.192,0.448,3.935-1.436c5.591,3.562-0.125,14.237-3.899,16.865c-4.149,2.89-13.626,15.02-12.864,19.587
	c-1.328-0.412-2.42-0.222-3.278,0.57c1.09,1.117,1.28,2.368,0.57,3.753c5.921-3.287,7.629-8.409,12.109-13.41
	c5.452-6.083,12.321-10.785,19.296-14.907c2.675,6.686-9.899,6.109,0.054,12.365c3.798,2.388,6.967,5.154,9.829,8.588
	c-1.185,2.847,0.797,4.7,3.944,5.179c-0.486-3.608-0.646-8.876-4.181-11.022c-1.678-1.079-6.804-3.486-7.186-5.802
	c-0.484-2.936,5.363-6.596,6.875-8.742c0.372-0.527,1.56-4.509,2.884-4.459c3.661,0.138,8.052,2.514,11.538,3.609
	c4.626,1.409,10.875,2.37,15.774,2.566c-3.897,3.571-4.207,10.631-8.016,13.951c-3.074,2.679-8.34,3.404-9.183,7.62
	c-3.011-0.604-5.234,3.792-2.898,6.461c4.7-5.346,10.587-9.126,15.833-13.951c3.202-2.945,9.515-15.745,14.812-13.273
	c2.3,1.148,6.547,0.98,9.217,1.948c4.771,1.729,8.399,3.615,11.096,8.08c2.047,3.388,3.658,4.611,4.505,7.878
	c0.764,2.946,5.854,0.231,6.349,0.718c-6.42-9.631-15.245-17.317-23.898-24.849c2.964-6.52,2.947-13.28,6.373-19.794
	c4.058-7.716,10.059,5.446,13.867,5.446c-0.641-1.534-0.799-3.118-0.475-4.751c1.791,0.193,3.935,4.446,5.084,3.374
	C53.009,35.971,51.714,34.869,49.566,31.005C48.949,29.912,50.517,32.715,49.566,31.005z M10.417,30.007
	c-1.894,0-3.933-0.597-5.654,0.57c-1.104,0.737-1.499-2.094-2.755-2.565c4.329-8.15,4.452-0.083,11.402-0.522
	C13.055,29.161,12.057,30,10.417,30.007z"/>
<path id="H9" fill="#000102" d="M52.607,35.898c-2.294-4.371-4.924-8.575-7.774-12.608c-2.201-3.113-3.218-6.706-5.101-9.532
	c-1.679,1.219-3.724-1.972-3.991,0.712c-0.537,4.284-5.189,2.521-9.122,2.376c-3.155-0.151-5.635,1.894-6.925,4.555
	c-2.817,5.81-7.268-0.872-10.486-3.763c-3.119-2.803-2.642-7.293-5.823-9.534C1.205,6.649,5.232,4.565,5.666,2.07
	C6.101-0.682,4.899-4.026,2.02-5.163C-0.862-6.301-7.118-1.85-0.795-0.495c-2.235,1.188-1.937,1.707-0.713,3.849
	c-2.128,3.274-4.097,6.6-5.021,10.431c-1.663,6.896-2.143,14.07,0.032,20.832c-5.979,0.799-12.065-1.34-18.054-1.396
	c-3.296-0.031-5.979,1.237-9.147,1.864c-2.841,0.562-5.313-0.383-8.052,0.007c-12.016,1.472-15.585,13.187-24.564,19.219
	c-1.855,1.247-11.836,7.28-4.363,7.092c1.825-0.046,5.504,3.721,5.504,0.011c0-3.359,7.98-6.899,10.833-9.217
	c2.422-1.996,6.37-7.533,7.032-3.563c1.31-1.233,6.685-12.571,9.027-9.645c-2.407,3.014-3.381,5.066-4.324,8.837
	c-1.12,5.121,1.84,9.833-3.421,13.636c-5.364,3.856-6.795,9.28-9.882,14.871c-2.285,4.062-1.194,7.033-2.803,10.785
	c3.982,2.078,3.494-4.673,4.229-6.082c2.246-4.397,4.309-7.487,7.412-11.213c5.466-6.329,6.867-3.995,12.828-0.19
	c2.57,1.632,4.864,3.686,6.668,6.147c1.723,2.352,0.152,5.095,3.642,6.491c0.508-2.71,1.269-8.082-1.283-10.12
	c-2.852-2.092-11.576-6.205-5.464-9.502c2.218-1.284,4.307-2.381,6.272-4.05c1.209-1.027,2.194-4.006,3.646-4.49
	c3.768-1.256,12.972,3.934,17.19,4.509c6.417,0.876,9.518,0.256,5.283,7.286c-2.731,4.533-4.841,8.72-8.208,12.852
	c-0.874,1.102-3.038,8.762-1.838,9.765c1.043,0.873,4.14,1.018,5.306,0.07C-6.961,82.41-1.88,76.69,2.857,72.453
	c2.326-2.081,3.267-4.689,5.452-6.93c3.28-3.363,3.77-1.062,7.001-2.542c-1.628-3.534,2.366-1.757,4.656-1.901
	c3.788-0.236,7.684-0.558,11.456,0.167c5.286,1.015,5.174,5.726,6.361,9.764c0.794,2.696-1.476,8.077,4.229,8.457
	c-0.296-6.094-0.59-18.677-7.412-21.57c-2.871-1.222-8.894-1.396-8.035-5.09c0.832-3.581,0.445-8.156,1.906-11.492
	c1.237-2.95,2.835-5.687,4.418-8.457c2.629,0.816,4.61,1.482,6.794,3.041c1.767,1.341,2.628,4.148,4.223,5.024
	c3.5,1.923,0.828-3.319,1.526-4.454c1.081,0.665,2.777,3.297,3.866,3.468C50.683,40.154,53.38,37.187,52.607,35.898
	C51.61,33.998,52.75,36.136,52.607,35.898z M12.175,28.725C9.79,29.235,7.42,29.51,5.001,29.77c0-2.217,0-4.434,0-6.651
	c2.01,0.837,6.741,5.495,8.884,3.611C13.765,27.813,13.195,28.479,12.175,28.725C10.845,29.009,13.078,28.582,12.175,28.725z"/>
<path id="H8" fill="#000102" d="M52.56,36.089c-4.241-6.398-11.088-13.443-13.256-20.667c-1.558,0.99-2.667,0.515-3.326-1.426
	c-0.711,1.178-0.933,2.446-0.666,3.801c-3.591-0.35-6.79-2.91-10.31-2.518c1.105,4.049-3.625,0.101-4.276,3.896
	c-0.508,3.305-0.05,3.85-3.088,5.369C15.31,20.466,9.05,18.632,6.284,14.329c-1.366-2.049-1.465-4.314-3.183-6.462
	C2.157,6.52,4.937,4.683,5.369,2.629C6.79-4.12,0.923-6.226-3.932-2.348c0.74,1.797,1.959,2.415,3.659,1.853
	C-0.718,0.396-1.51,0.872-2.648,0.93c2.256,4.796-3.288,11.072-3.896,16.677c-0.688,6.19-1.24,11.64,0.618,17.674
	c-8.135,0.954-15.91-2.659-24.027-0.783c-4.07,0.94-7.215,0.936-11.264,1.17c-4.308,0.249-8.759,4.803-12.934,3.699
	c0.605,2.824-3.897,8.588-7.126,9.312c2.341,2.729-7.684,7.74-10.453,7.602c0.411,1.15-0.886,3.858-1.14,5.131
	c3.283,0.311,6.639,0.378,8.979-2.376c0.854,1.279-1.811,1.659-1.188,2.898c2.29-1.308,14.485-12.993,15.583-11.166
	c1.167-1.215,0.559-3.244,2.423-3.943c0.851,4.535,0.733-0.624,4.133-0.285c-0.079-3.891,1.099-5.723,4.561-7.364
	c0.194,1.543-2.074,3.544-2.512,5.286c-0.649,2.58-0.488,5.358-0.315,7.982c0.115,1.744,1.423,6.086-0.166,7.542
	c-1.911,1.805-5.796,4.269-7.067,6.474c-2.871,4.982-6.231,24.614,3.979,21.653c-0.773-0.701-0.693-1.572,0.238-2.613
	c-1.85-1.233-3.882-2.346-3.374-5.037c1.069-6.01,2.333-8.604,7.032-12.686c5.225-4.569,9.676,12.552,10.595,14.966
	c2.186-3.783,3.681-8.744-0.095-12.115c-5.033-4.528-7.622-6.833,0.285-9.027c3.705-1.051,6.978-5.822,10.12-6.354
	c4.523-0.767,11.657,3.636,16.439,4.234c2.676,0.335,9.542-0.581,8.267,3.736C3.872,67.926,1.882,73.547-0.136,77.97
	c-2.125,4.657-0.772,12.317,4.234,9.811c-0.067,1.9,0.851,2.344,2.755,1.331c-4.967-7.096-5.463-8.265-0.95-16.487
	c1.098-1.963,3.73-8.732,6.046-9.383c2.27-0.639,2.13,1.042,5.301-0.207c3.462-1.363,15.456-5.133,17.493-0.339
	c3.603,8.008-6.076,8.205-1.71,15.014c3.956-4.854,6.236-6.427,5.083-12.763c-1.542-8.48-4.785-7.467-12.305-9.615
	c1.58-4.743,1.801-19.028,7.281-21.44c5.766-2.538,9.362,8.737,13.197,7.709c0.175-1.76-1.847-2.576-0.618-4.466
	c0.682,0.537,2.854,3.506,3.842,3.522C50.912,40.678,53.475,37.513,52.56,36.089C49.852,32.003,52.987,36.754,52.56,36.089z
	 M5.523,22.738c1.959,0.338,6.476,3.259,7.507,4.941c-1.917,1.711-6.525,1.075-7.697,3.753C3.077,27.67,4.062,26.667,5.523,22.738
	C6.901,22.976,4.763,24.781,5.523,22.738z"/>
<path id="H7" fill="#000102" d="M52.228,36.041c-2.007-3.001-4.164-6.155-6.082-9.265c-2.101-3.413-7.09-6.707-7.459-10.928
	c-1.846,1.523-2.36-0.521-3.896-0.998c0.476,7.158-6.08-0.875-9.17-1.14c3.627,5.58-3.848-0.268-3.848,5.701
	c0.08,2.819-2.724,3.664-2.375,6.271c-2.815-1.055-5.932-5.028-8.434-6.877c-1.65-1.219-3.957-2.585-4.973-4.491
	c-1.081-2.027-0.291-4.253-2.557-5.689c-3.26-2.171,0.827-4.63,1.283-7.364c0.97-7.298-4.551-5.778-8.457-4.086
	c0.463,1.947,2.355,1.307,3.468,2.471C-5.447,2.37-0.109,1.226-2.625,5.61c-2.149,3.745-3.183,7.923-3.809,12.153
	c-0.789,5.326-1.809,12.932,1.029,17.518c-4.72,1.943-10.922,0.031-15.821-0.638c-5.909-0.807-10.418,1.682-16.188,1.928
	c-10.226,0.436-14.138,2.312-20.646,9.958c-2.694,3.165-5.872,6.251-9.123,8.843c-1.945,1.551-10.414,6.789-1.906,5.719
	c4.211-0.53,7.608-3.006,10.755-5.523c2.691-2.065,5.413-4.063,8.172-6.034c1.672-2.229,1.472-4.884,3.326-0.76
	c-0.029-2.6,0.984-3.455,3.041-2.566c0.259-2.934,0.496-8.941,5.559-6.129c-3.8,4.677-2.429,9.26-1.372,14.729
	c1.099,5.686-9.352,2.458-4.187,9.074c2.562,3.283-1.391,2.266-2.316,5.232c-0.673,2.159,0.797,6.335,1.056,8.499
	c0.653,5.446,1.676,14.315,8.719,8.552c-4.921-2.46-9.455-11.185-3.23-15.394c4.583,3.527-0.637,7.472,2.898,11.451
	c2.184-2.378,1.225-3.733,2.471-6.224c2.659-5.76-6.036-4.784,0.097-10.132c3.922-3.42,8.335-6.083,12.209-9.538
	c2.832-2.498,9.124,1.771,12.187,2.595c4.734,1.273,11.921-0.146,16.123,2.114c2.651,1.426,0.331,8.618,0.055,10.827
	C5.902,75.57,6.148,79.5,5.666,83.268c-0.51,4.078,2.947,2.84,4.039,5.844c1.262-0.677,2.514-1.374,3.753-2.091
	c-0.78-1.819-3.487-1.34-4.585-2.987c-1.435-2.152,0.126-7.5,0.813-9.763c0.998-3.287,2.153-6.532,3.296-9.77
	c0.606-1.72,3.532-1.199,4.989-1.663c2.013-0.643,6.663,0.271,7.697-0.76c1.492-1.432,5.581-1.946,6.544,0.438
	c2.982,7.383-6.529,6.31-7.542,12.39c6.552-2.069,9.148-1.776,9.9-8.689c0.964-8.854-3.063-7.94-10.328-10.363
	c3.314-6.633,4.311-13.387,7.697-20.288c3.514-7.204,11.13,6.474,14.111,5.939c-0.768-1.662-1.894-6.55,1.378-3.278
	C49.525,40.323,54.04,39.074,52.228,36.041C52.037,35.756,52.37,36.279,52.228,36.041z M4.193,21.978
	c1.693,0.516,9.053,3.208,8.915,5.553c-0.058,0.984-8.983,3.941-9.77,3.902C3.593,31.062,4.94,23.752,4.193,21.978
	C5.286,22.311,5.333,24.686,4.193,21.978z"/>
<path id="H6" fill="#000102" d="M47.239,28.962c-2.093-2.791-8.457-7.705-8.457-11.403c0,0.667-3.755-2.123-4.466-2.898
	c-0.126,1.314-0.253,2.629-0.38,3.943c-1.992-1.196-3.949-2.657-5.844-3.991c-0.671,3.134-9.443,5.938-7.934,11.593
	c-3.269-2.408-6.078-5.246-9.439-7.616c-4.426-3.12-4.355-7.137-7.903-10.581C0.819,6.131,5.722,3.32,4.668-0.543
	c-1.575-5.4-4.448-4.038-8.504-2.28c0.87,1.364,2.105,2.188,3.706,2.471c-3.479,1.821-1.542,4.588-3.849,8.837
	c-1.755,3.334-2.199,7.196-2.346,10.892c-0.181,4.545-2.128,12.552,1.491,15.81c-5.395,3.54-15.029-1.523-21.202-0.962
	c-3.31,0.301-6.296,1.987-9.61,2.38c-4.165,0.494-7.687-0.46-11.825,0.882c-5.629,1.826-11.077,9.223-14.757,13.664
	c-2.943,3.455-8.314,5.717-8.314,9.788c3.879-0.776,6.167-2.461,9.74-3.801c-2.439,4.335,7.417-4.921,8.504-6.319
	c1.759-2.261,4.41-5.444,6.224-3.136c0.593-1.337,1.606-1.876,3.041-1.616c-0.175-1.3-0.189-2.6-0.042-3.902
	c0.245-2.206,3.914-3.951,5.648-1.942c-2.092,2.931-3.791,5.681-2.132,9.407c0.979,2.198,4.905,6.859,0.723,7.653
	c-7.867,1.494-8.381,0.82-5.95,8.977c2.019,6.773,0.28,10.219,0.28,16.486c2.333-1.375,3.146-6.115,5.369-6.652
	c3.606,5.41,3.918,16.503,12.258,10.5c-5.134-1.541-10.617-7.427-8.006-13.497c2.556-5.944,10.597-10.062,12.377-16.293
	c0.865-3.174,16.016,3.558,19.052,3.753c2.706,0.171,10.753-1.018,13.365,0.556c-0.35,0.35,2.865,14.79,3.549,16.121
	c0.904,1.505,0.774,5.53,1.045,7.269c0.549,3.754,3.208,2.566,4.562,5.274c1.278-0.798,2.561-1.59,3.848-2.375
	c-0.592-1.245-3.42-1.438-4.395-2.02c-2.095-1.249-2.442-5.34-2.494-7.436c-0.064-2.803-1.394-13.699,1.828-14.993
	c2.281-0.916,12.201-0.789,11.238,3.067c-1.925,7.27-7.961,0.945-11.641,6.224c8.11,3.116,10.664,0.951,14.61-5.802
	c3.518-6.02-4.991-6.628-8.338-8.974c1.943-3.682,2.592-5.376,2.835-9.347c0.254-4.161,4.166-6.582,5.29-10.453
	c3.058-10.535,10.395,5.182,14.349,4.122c-0.795-1.491-2.077-2.865-0.998-4.561c1.286,0.551,4.126,4.229,5.321,2.708
	C54.101,35.72,50.251,32.93,47.239,28.962C45.243,26.301,49.187,31.527,47.239,28.962z M-37.379,72.673
	c0.047-0.76,0.047-0.76,0.903-0.76C-36.762,72.15-37.047,72.388-37.379,72.673z M-35.812,64.073
	c-2.231,3.588-5.091,9.186-6.177,1.948c-0.339-1.909,5.305-4.136,6.699-3.231C-35.463,63.218-35.637,63.646-35.812,64.073
	C-36.904,65.831-35.574,63.693-35.812,64.073z M3.385,26.444c0.738-1.042,0.524-4.9,2.138-4.324
	c2.815,1.129,5.648,3.384,8.125,5.131c-1.803,2.028-5.133,3.443-7.554,4.656C3.395,33.495,2.503,27.657,3.385,26.444
	C4.193,25.304,3.005,26.966,3.385,26.444z"/>
<path id="H5_1_" fill="#000102" d="M-17.092,88.921c-1.679-0.509-4.223,0.672-5.844,0.808c-3.792,0.189-6.08-5.896-7.703-8.41
	c-1.299-2.011-5.274-5.958-4.08-8.742c0.614-1.433,4.08-7.014,2.257-8.6c-2.367-2.058-13.232,0.774-13.232,4.608
	c0,8.189-0.207,11.089-8.315,14.776c-1.662-6.646,2.679-4.096,4.568-7.672c1.884-3.568-2.462-13.892,1.129-15.852
	c2.541-1.386,12.541,0.453,9.364-5.221c-1.413-2.116-2.58-4.361-2.518-6.984c0.042-1.821,2.505-5.355,2.043-6.747
	c-1.317-0.538-3.021,0.972-4.276,1.331c0,1.917,0,3.833,0,5.749c-2.509-0.583-3.233,1.104-3.278,3.23
	c-1.703-1.242,0.139-3.155-1.33-4.371c-1.555,1.36-1.441,3.67-2.375,5.369c-2.722-2.722-6.609,4.282-8.964,6.407
	c-3.492,3.151-9.472,3.635-13.557,6.421c0-7.704,3.799-6.387,8.944-11.617c5.276-5.363,9.546-12.417,16.884-15.185
	c3.665-1.382,7.035,0.179,10.566-0.803c3.372-0.919,6.973-2.533,10.471-2.815c3.762-0.303,18.576,4.524,20.792,1.2
	c-3.426-2.025-1.875-13.784-1.431-16.641c0.649-4.181,1.489-8.131,3.508-11.88c2.176-4.04-0.645-5.208,3.197-7.303
	c-1.283-0.684-3.328-0.471-3.421-2.471c6.426-2.523,10.55,0.28,7.554,7.982C3.736,7.662-0.309,5.32,2.958,8.39
	c2.238,2.106,1.921,5.06,3.812,7.222c1.458,1.666,9.077,8.483,11.249,8.362c4.75-0.412,3.957-1.246,5.796-5.321
	c1.308-3.271,4.276-1.042,4.276-5.179c2.255,1.55,6.461,7.728,6.461,1.996c0.67-0.16,4.751,3.632,4.751,1.045
	c0.149,3.713,4.927,7.489,7.079,10.12c0.887,1.093,8.148,8.706,6.747,10.453c-3.878,5.089-2.781-0.62-7.364-0.237
	c-0.96,1.874,0.594,3.049,1.045,4.704c-2.376,1.08-9.898-11.223-13.338-7.53c-3.065,3.291-6.638,11.617-7.044,16.082
	c-0.245,3.174-1.283,8.172-4.134,9.882c2.444,2.048,7.341,4.416,6.509,8.267c-0.633,2.657-4.164,2.346-5.143,4.638
	c-1.013,2.371,1.13,8.056,2.102,10.233c1.756,4.097,6.888,3.518,9.265,7.317c-1.448-0.362-3.588-2.806-4.894-0.998
	c-1.021,1.635-4.997-0.983-5.8-2.363c-1.606-2.762-1.876-6.25-3.364-9.135c-2.091-4.053-6.523-4.381-10.553-5.654
	c2.896-5.146,4.497-0.9,6.925-0.689c2.37,0.207-1.032-7.003-2.506-7.673c-3.746-1.763-6.124-2.264-10.184-2.247
	c-8.796,0.037-16.412-2.448-24.548-5.355c-1.464-0.365-8.409,17.325-8.457,19.623c0,2.797,2.193,6.036,3.89,8.136
	C-22.85,86.083-17.344,86.478-17.092,88.921z M13.553,27.441c-1.841-2.103-6.646-5.083-9.455-5.083
	c1.463,3.309-2.11,5.624-0.273,8.837C5.592,34.287,12.341,29.34,13.553,27.441C13.22,27.062,12.127,29.675,13.553,27.441z
	 M22.865,65.593c-0.519,1.411-0.487,2.805,0.095,4.181C26.774,69.232,25.51,66.476,22.865,65.593
	C22.39,67.161,24.005,65.974,22.865,65.593z"/>
<path id="H4" fill="#000102" d="M52.607,34.188c-3.818-6.462-11.844-11.732-13.398-19.1c-1.388,2.104-2.766,1.834-4.133-0.808
	c-0.604,0.819-0.778,1.722-0.523,2.708c-3.339-0.112-4.154-3.904-8.077-3.374c-1.94,3.072-4.427,14.1-10.453,8.6
	c-3.249-2.872-6.965-4.959-10.12-7.982C4.894,13.425,2.814,7.771,1.77,6.251c3.486-1.284,4.284-4.909,2.375-8.059
	C1.845-5.604,0.006-4.227-3.646-2.871c0.585,1.257,1.551,2.017,2.898,2.28c-2.029,3.385-4.529,9.89-5.58,14.393
	c-1.178,5.053-3.653,17.812,0.687,21.668c-3.087,1.458-8.023-0.119-11.166-0.57c-5.943-0.854-9.754-1.111-15.542,0.576
	c-3.827,1.116-7.059,0.695-10.875,1.265c-1.718,0.611-3.46,0.662-5.226,0.155c-0.497,2.759-3.283,3.036-5.417,2.043
	c0.964,3.857-11.146,15.53-12.4,13.018c-0.97,0.884-1.952,1.755-2.946,2.613c1.157,0.029,2.312,0.013,3.468-0.047
	c-6.946,4.805-7.174,3.048-7.174,12.163c4.841-5.037,10.86-6.37,15.773-10.737c1.847-1.705,3.752-3.394,6.082-4.419
	c2.191-0.985,1.243-3.467,2.803-4.941c0.584,1.329,1.012,2.707,1.283,4.133c1.729-3.78,3.36-0.655,3.914-5.113
	c0.232-1.868,1.333-5.529,4.068-5.529c-0.743,5.016-3.312,6.728-1.486,12.608c2.526,8.135-2.766,5.971-8.396,8.105
	c-2.823,1.07-3.9,11.414-4.608,14.113c-2.583,1.378-8.158-1.114-7.555,4.941c2.876-0.168,5.73-0.499,8.6-0.76
	c2.955-0.329,3.066-7.707,4.255-9.748c3.045-5.226,12.204-5.431,17.315-7.547c4.985-2.017,2.242,11.091,5.179,14.206
	c3.477,3.716,10.602,10.122,12.401,14.491c2.066-1.748,5.002,0.524,8.6-0.285c-5.777-0.832-12.812-8.162-15.569-13.275
	c-1.722-3.193-1.755-6.886-1.25-10.386c0.523-0.836,1.065-1.66,1.627-2.47c0.195-1.363-1.619-2.041-1.2-3.801
	c0.97-4.078,0.978-5.141,5.06-3.557c5.16,2.001,10.356,3.113,15.852,3.721c8.927,0.987,14.516,2.215,20.851,9.339
	C14.9,76.71,6.335,64.567,3.148,72.815c4.645,1.005,8.545,3.056,13.252,1.739c5.467-1.53,6.568-5.031,10.048-0.664
	c2.111,2.65,5.333,11.462,8.818,11.991c2.348,0.334-0.621,3.516,1.452,3.516c1.841,0,3.682,0,5.522,0
	c2.78,0-2.426-3.907-2.698-4.038c-3.444-1.722-6.436-6.184-8.049-9.527c-1.798-3.726-3.517-7.698-4.973-11.57
	c-2.279-6.063,0.128-7.138-0.139-12.874C26.193,45,30.034,30.679,37.993,34.604c3.244,1.6,4.083,4.431,6.579,6.189
	c3.408,2.4,0.986-3.589,1.193-4.418c3.387-0.081,2.653,3.42,4.419,3.42C52.507,39.794,53.568,35.847,52.607,34.188
	C51.99,33.143,53.653,35.994,52.607,34.188z M12.08,28.819c-5.244,2.997-7.787,3.182-9.075-2.613
	c2.181-1.09-0.039-5.904,3.041-3.848C7.452,23.162,16.094,26.601,12.08,28.819C10.75,29.58,13.885,27.822,12.08,28.819z"/>
<path id="H3" fill="#000102" d="M52.132,34.758c-5.109-6.859-10.422-16.723-17.247-20.905c0.202,4.444-0.301,3.624-3.944,1.9
	c-3.185-1.517-4.186,0.547-6.082,2.363c-4.127,3.955-4.888,8.391-10.737,4.003C8.106,17.511,5.347,14.037,1.788,7.748
	C0.699,5.823,5.361,3.466,4.526-0.21c-1.148-5.047-4.697-3.667-8.41-2.518c0.913,1.253,2.132,2.014,3.658,2.28
	c-3.307,2.256-1.45,4.69-3.896,8.552c-2.825,4.4-2.99,9.667-3.658,14.681c-0.288,2.143,1.652,13.024,0.564,13.167
	c-4.642,0.605-9.827-1.07-14.39-1.695c-7.298-1-18.402,1.387-25.621,3.56c-8.053,2.425-12.311,10.335-19.278,14.521
	c1.841,2.366-3.286,4.391-5.321,5.083c-2.791,1.074-1.521,5.11-1.521,7.554c4.706-0.766,10.803-7.138,15.394-9.526
	c2.032-1.057,4.798-2.886,6.542-4.453c1.135-1.02,1.695-5.026,3.292-5.026c0.063,1.637,0.285,3.252,0.665,4.846
	c0.098-1.36,0.748-2.316,1.95-2.869c3.064-1.107,1.937-3.048,2.088-6.444c3.432,0.644,1.417,8.181,1.71,11.017
	c0.486,4.692-0.663,10.252-7.032,9.65C-51.766,61.836-55.881,72.68-57.81,75c-3.496-0.747-5.374-1.119-7.982,2.138
	c9.439,3.144,9.169,1.092,14.338-5.41c4.907-6.173,14.519-9.073,21.628-11.742c2.85-0.89,2.256,5.551,2.251,6.569
	c-0.028,5.153-0.239,5.621,3.868,9.03c3.399,2.821,13.041,14.918,17.495,10.96c-5.234-6.844-16.424-9.731-15.584-19.812
	c0.147-1.69,0.234-11.692,2.599-11.811c4.432-0.224,10.809,3.518,15.413,4.286c3.315,0.554,6.667,0.896,10.02,1.111
	c4.878,0.394,6.652,7.84,8.504,11.545C10,78.185-1.833,65.331-3.219,74.193c6.875,1.378,10.923,1.848,18.007,1.045
	c6.349-0.733-0.783-18.346,5.321-13.256c5.241,4.148,19.69,29.432,26.749,23.043c-4.732-3.548-8.934-6.108-12.448-11.07
	c-2.015-2.84-10.169-14.817-8.647-18.245c1.935-3.868-1.182-7.785,0.95-11.783c1.243-2.257,3.565-9.993,6.004-10.993
	c5.523-2.264,9.894,8.707,13.143,7.667c-1.1-2.514-1.53-7.326,2.233-3.563C50.126,38.926,53.845,37.041,52.132,34.758
	C50.469,32.525,52.703,35.519,52.132,34.758z M3.433,24.686c0.016-0.966,0.032-1.932,0.047-2.898
	c5.16,1.213,15.271,6.568,4.894,8.647C2.797,31.828,2.141,29.073,3.433,24.686C3.67,23.878,3.195,25.494,3.433,24.686z"/>
<path id="H2" fill="#000102" d="M51.61,33.713c-3.588-4.893-7.085-9.891-11.166-14.396c-1.146-1.328-1.292-3.679-2.518-4.751
	c-4.296-3.684-2.186,0.264-2.565,2.09c-1.725,1.725-4.961-1.75-7.792,0.428c-2.732,2.134-6.659,4.065-7.364,7.792
	c-2.322,2.322-12.921-6.735-14.352-8.297c-2.009-2.193-0.375-5.419-2.99-7.287C-0.481,6.86,2.645,6.92,3.7,5.266
	C6.836,0.347,2.489-6.91-3.076-1.92C0.651-0.63,0.794,0.574-2.648,1.69c0.877,0.964,1.099,2.042,0.665,3.23
	c-0.876,2.101-2.412,3.107,0.665,2.851C-7.046,13.5-8.645,21.726-7.376,30.084c0.427,2.815,3.759,5.844-0.689,6.004
	c-5.839,0.225-11.461-1.572-17.215-1.5c-3.639,0.046-6.926,1.8-10.443,2.497c-4.744,0.94-9.225-0.525-13.725,1.853
	c-6.911,3.674-9.399,11.137-17.294,13.256c0.841,0.036,1.522,0.385,2.043,1.045c-1.469,5.907-11.092,2.708-8.125,11.641
	c4.542-0.786,7.268-5.277,11.118-7.602c5.214-3.048,9.428-8.379,14.206-11.165c0,1.235,0,2.47,0,3.706
	c2.134-3.39,4.463-1.213,4.133-6.129c-0.136-1.568,3.662-3.363,4.894-2.803c-1.131,2.715-2.07,4.047-2.839,6.889
	c-1.624,6.001,1.289,11.438-4.87,15.228c-5.218,3.211-6.246,6.568-10.09,11.317c-2.973,3.672-6.619,1.874-10.565,5.003
	c10.559,5.279,12.122-4.581,18.87-9.6c2.385-1.774,18.389-12.131,19.614-9.927c1.566,2.906-0.279,6.933-1.045,9.788
	c-1.128,3.997,7.711,7.072,10.453,8.742c3.892,2.3,7.958,7.269,10.69,7.269c-3.014-7.029-16.636-10.529-14.984-18.357
	c0.71-3.368,1.539-9.045,3.537-11.855c0.801-1.126,13.599,3.542,15.727,3.851c2.583,0.374,5.18,0.629,7.776,0.882
	c6.328,1.229,5.255,5.674,5.855,11.083c0.564,4.889-5.475,5.248-9.087,4.827c-3.632-0.423-6.442-5.103-9.11,0.732
	c6.336,1.188,13.565,3.769,19.633-0.359c3.792-2.579,0.926-18.374,8.494-15.604c4.282,1.521,26.288,26.537,29.125,21.998
	c-2.471-3.882-6.635-5.014-10.084-8.754c-2.655-2.878-14.28-15.786-12.436-19.658c1.287-2.682-0.724-5.748-0.051-8.628
	c0.949-4.062,3.504-8.047,5.182-11.85c2.938-5.877,11.871,5.63,14.158,6.461c0.626-1.783-1.916-3.07-0.475-4.799
	c2.292-0.381,2.863,2.75,4.805,2.637C51.847,38.085,52.436,34.84,51.61,33.713C50.042,31.575,52.655,35.139,51.61,33.713z
	 M3.338,25.541c0.143-0.98,0.27-1.962,0.38-2.946c2.259,0.377,3.653,1.639,5.606,2.756c1.402,0.76,2.827,1.473,4.276,2.138
	c0.751-1.268,1.701-1.632,2.851-1.093C20.374,30.319-5.498,32.855,3.338,25.541C3.623,25.304,1.96,26.682,3.338,25.541z"/>
<path id="H1" fill="#000102" d="M47.904,27.251c-1.197-1.587-9.531-14.729-10.738-14.729c-2.677-0.604-1.843,0.773-2.186,3.516
	c-1.55-0.129-6.78,0.336-4.371-2.376c-1.465-0.524-2.653-0.16-3.563,1.093c4.006,0-2.145,7.061-5.559,3.896
	c-1.593,7.969-7.233,3.914-11.776,0.408c-4.62-3.565-4.634-8.021-8.084-12.619c5.555-0.631,3.527-6.397,2.518-9.55
	C2.542-7.483-7.553-3.645-1.081-0.115c-3.4,1.57,0.023,2.648-2.423,6.224c-1.73,2.479-2.852,5.332-3.326,8.314
	C-7.88,21.33-9.27,28.549-5.594,34.901c-6.387,0.799-12.618-0.879-19-0.797c-2.694,0.034-4.972,0.964-7.514,1.702
	c-3.893,1.129-7.033,0.226-10.92,0.334c-5.806,0.162-10.357,5.643-14.497,9.071c-2.529,2.021-5.074,3.807-7.982,5.749
	c3.697,0.526-4.753,5.602-6.557,7.032c1.874,2.186-0.754,3.026,0.428,4.133c1.664,1.664,5.03-2.075,6.224-2.898
	c6.001-4.365,12.508-8.233,17.769-13.494c-0.239,1.314-0.477,2.629-0.712,3.944c1.564-1.799,1.513-2.767,3.991-2.091
	c2.3-1.877,1.1-4.858,2.375-7.174c1.46,2.044,2.298-0.583,3.896-0.143c-2.604,4.233-3.854,7.769-4.234,12.733
	c-0.5,6.532-2.691,7.419-7.691,11.308c-3.576,2.555-5.5,9.457-8.077,13.066c-1.612,2.303-7.257,3.04-6.557,6.699
	c7.765-1.663,8.729-5.355,13.428-10.925c5.358-6.352,12.926-9.816,19.64-14.446c3.541-2.36-1.707,10.009-1.001,10.803
	c2.348,2.644,16.833,8.282,14.637,12.241c2.242,0.943,1.889,3.717,4.799,3.136c-0.816-2.889-1.868-7.698-4.656-9.502
	c-2.37-1.549-9.771-4.694-8.362-8.41c1.63-4.166,5.045-7.548,5.939-12.021c0.267-1.323,10.623,2.755,12.397,3.151
	c4.504,1.005,9.379,0.558,13.734,2.17c4.285,1.558,0.686,6.582-0.325,9.504c-1.69,4.884-3.633,7.578-9.106,8.583
	c-4.55,0.835-5.754-2.788-9.145,2.865c7.593,0.951,11.159,0.375,17.484-3.896c4.699-3.252,7.675-16.988,13.541-16.819
	c7.569,0.351,16.387,8.037,21.056,13.546c3.302,3.896,5.393,8.314,11.157,6.741c-4.022-5.027-10.118-8.529-13.588-14.016
	c-2.056-3.187-5.629-4.969-8.035-7.875c-3.143-3.796-2.819-3.625-1.883-7.626c1.059-4.527,0.054-16.418,5.868-18.808
	c5.412-2.225,9.271,7.228,13.125,7.228c-0.225-1.234-1.136-3.223-0.618-4.466c4.022,1.11,3.433,4.796,6.937,0.855
	C54.255,33.827,49.306,29.079,47.904,27.251C45.718,24.354,49.472,29.294,47.904,27.251z M14.313,28.534
	c-1.661,0.37-8.164,2.178-9.668,1.645c-3.311-1.173-0.509-5.405-0.356-7.394c2.6,0.648,9.189,3.258,11.308,4.798
	C15.168,27.901,14.741,28.217,14.313,28.534C12.603,28.915,14.788,28.439,14.313,28.534z"/>
</svg>
