<?xml version="1.0" encoding="utf-8"?>
<!-- Generator: Adobe Illustrator 16.0.4, SVG Export Plug-In . SVG Version: 6.00 Build 0)  -->
<!DOCTYPE svg PUBLIC "-//W3C//DTD SVG 1.1//EN" "http://www.w3.org/Graphics/SVG/1.1/DTD/svg11.dtd">
<svg version="1.1" id="Layer_1" xmlns="http://www.w3.org/2000/svg" xmlns:xlink="http://www.w3.org/1999/xlink" x="0px" y="0px"
	 width="1190.549px" height="841.891px" viewBox="0 0 1190.549 841.891" enable-background="new 0 0 1190.549 841.891"
	 xml:space="preserve">
<g id="svg2" xmlns:inkscape="http://www.inkscape.org/namespaces/inkscape" xmlns:rdf="http://www.w3.org/1999/02/22-rdf-syntax-ns#" xmlns:sodipodi="http://sodipodi.sourceforge.net/DTD/sodipodi-0.dtd" xmlns:cc="http://creativecommons.org/ns#" xmlns:svg="http://www.w3.org/2000/svg" xmlns:dc="http://purl.org/dc/elements/1.1/" inkscape:version="0.91 r13725" sodipodi:docname="Haus-lineart.svg">
	<g id="g7975">
		<path id="path7971" inkscape:connector-curvature="0" stroke="#000000" d="M640.823,65.037l61.569-1.256l1.257,64.71
			l-61.569-5.026L640.823,65.037z"/>
		<path id="path7973" inkscape:connector-curvature="0" stroke="#000000" d="M669.723,63.78l1.885,64.71"/>
	</g>
	
		<rect id="rect4411" x="603.128" y="454.557" fill="#917F73" stroke="#000000" stroke-width="1.1693" stroke-linecap="round" width="437.896" height="261.355"/>
	<path id="path8905" inkscape:connector-curvature="0" stroke="#000000" stroke-width="1.1693" stroke-linecap="round" d="
		M719.356,506.074l1.885,219.891l32.041-1.885L747,504.189L719.356,506.074z"/>
	
		<path id="path4197" sodipodi:nodetypes="ccccc" inkscape:connector-curvature="0" fill="#FFFFFF" stroke="#000000" stroke-width="1.063" d="
		M636.426,448.274l447.947,15.706l4.397,24.502l-452.346-12.564L636.426,448.274L636.426,448.274z"/>
	<path id="path4199" inkscape:connector-curvature="0" fill="#FFFFFF" stroke="#000000" stroke-width="1.063" d="M350.569,92.68
		L146.384,487.854l27.016,5.654L374.442,95.193L350.569,92.68z"/>
	<path id="path4201" inkscape:connector-curvature="0" fill="#ADA199" stroke="#000000" stroke-width="1.063" d="M365.018,110.899
		l-194.132,382.61l1.257,221.147l430.985,1.256l1.885-283.345L365.018,110.899z"/>
	
		<path id="path4195" sodipodi:nodetypes="ccccc" inkscape:connector-curvature="0" fill="#FFFFFF" stroke="#000000" stroke-width="1.063" stroke-linejoin="bevel" d="
		M360.62,65.665l273.921,379.468l1.256,31.413L349.312,87.026L360.62,65.665z"/>
	<path id="path4226" sodipodi:nodetypes="cccc" inkscape:connector-curvature="0" fill="#FFFFFF" stroke="#000000" d="
		M327.95,269.221L368.787,168.7l55.286,100.521H327.95z"/>
	<path id="rect4203-2" inkscape:connector-curvature="0" stroke="#000000" stroke-width="0.01" d="M314.757,512.985v6.281v103.034
		h53.402V512.985H314.757z M326.695,524.922h29.528v3.771l-29.528-0.628V524.922L326.695,524.922z M326.695,536.23l29.528,0.628
		v6.282l-29.528-1.257V536.23L326.695,536.23z M326.695,550.052l29.528,0.629v6.282l-29.528-0.628V550.052z M326.695,564.502
		l29.528,0.629v6.282l-29.528-0.628V564.502L326.695,564.502z M326.695,578.324l29.528,0.628v6.282l-29.528-0.629V578.324z
		 M326.695,592.773l29.528,0.629v6.281l-29.528-0.628V592.773z M326.695,607.224l29.528,0.628v2.515h-29.528V607.224
		L326.695,607.224z"/>
	<path id="rect4203-9-2" inkscape:connector-curvature="0" d="M251.303,512.985v6.281v103.034h59.057V512.985H251.303z
		 M263.24,524.922h13.821v38.323H263.24V524.922z M285.23,524.922h13.821v38.323H285.23V524.922z M263.24,571.413h13.821v38.323
		H263.24V571.413z M285.23,571.413h13.821v38.323H285.23V571.413z"/>
	<path id="rect4203-5-8" inkscape:connector-curvature="0" d="M192.247,512.985v6.281v103.034h53.4V512.985H192.247z
		 M204.812,524.922h29.528v3.771l-29.528-0.628V524.922L204.812,524.922z M204.812,536.23l29.528,0.628v6.282l-29.528-0.629V536.23
		L204.812,536.23z M204.812,550.052l29.528,0.629v6.282l-29.528-0.628V550.052z M204.812,564.502l29.528,0.629v6.282l-29.528-0.628
		V564.502L204.812,564.502z M204.812,578.324l29.528,0.628v6.282l-29.528-0.629V578.324z M204.812,592.773l29.528,0.629v6.281
		l-29.528-0.628V592.773L204.812,592.773z M204.812,607.224l29.528,0.628v2.515h-29.528V607.224L204.812,607.224z"/>
	<path id="rect4203-3" inkscape:connector-curvature="0" d="M506.375,511.729v6.282v103.034h53.401V511.729H506.375z
		 M518.313,524.294h29.528v3.771l-29.528-1.258V524.294L518.313,524.294z M518.313,534.974l29.528,0.63v6.281l-29.528-0.628V534.974
		z M518.313,549.424l29.528,0.628v6.283l-29.528-0.629V549.424z M518.313,563.246l29.528,0.628v6.282l-29.528-0.628V563.246
		L518.313,563.246z M518.313,577.695l29.528,0.629v6.282l-29.528-0.628V577.695z M518.313,591.518l29.528,0.629v6.281l-29.528-0.628
		V591.518z M518.313,605.967l29.528,0.629v2.514h-29.528V605.967L518.313,605.967z"/>
	<path id="rect4203-9-6" inkscape:connector-curvature="0" d="M442.922,511.729v6.282v103.034h59.685V511.729H442.922z
		 M455.488,524.294h13.821v38.323h-13.821V524.294z M476.848,524.294h13.193v38.323H476.22v-38.323H476.848z M455.488,570.785
		h13.821v38.323h-13.821V570.785z M476.848,570.785h13.193v38.323H476.22v-38.323H476.848z"/>
	<path id="rect4203-5-7" inkscape:connector-curvature="0" d="M384.494,511.729v6.282v103.034h53.4V511.729H384.494L384.494,511.729
		z M396.431,524.294h29.528v3.771l-29.528-1.258V524.294L396.431,524.294z M396.431,534.974l29.528,0.63v6.281l-29.528-0.628
		V534.974L396.431,534.974z M396.431,549.424l29.528,0.628v6.283l-29.528-0.629V549.424L396.431,549.424z M396.431,563.246
		l29.528,0.628v6.282l-29.528-0.628V563.246L396.431,563.246z M396.431,577.695l29.528,0.629v6.282l-29.528-0.628V577.695
		L396.431,577.695z M396.431,591.518l29.528,0.629v6.281l-29.528-0.628V591.518L396.431,591.518z M396.431,605.967l29.528,0.629
		v2.514h-29.528V605.967L396.431,605.967z"/>
	<path id="rect4203-2-5" inkscape:connector-curvature="0" d="M968.775,497.906v5.654v92.354h44.606v-98.009H968.775
		L968.775,497.906z M978.825,508.587h24.502v3.142l-24.502-0.628V508.587L978.825,508.587z M978.825,518.64l24.502,0.628v5.654
		l-24.502-0.628V518.64L978.825,518.64z M978.825,531.204l24.502,0.629v5.654l-24.502-0.629V531.204L978.825,531.204z
		 M978.825,544.396l24.502,0.63v5.653l-24.502-0.629V544.396L978.825,544.396z M978.825,556.963l24.502,0.629v5.654l-24.502-0.629
		V556.963L978.825,556.963z M978.825,569.528l24.502,0.628v5.653l-24.502-0.628V569.528L978.825,569.528z M978.825,582.094
		l24.502,0.628v2.514h-24.502V582.094L978.825,582.094z"/>
	<path id="rect4203-9-2-9" inkscape:connector-curvature="0" d="M906.575,497.278v5.653v92.982h54.03v-98.637L906.575,497.278
		L906.575,497.278z M917.257,507.959h12.564v35.183h-12.564V507.959z M937.362,507.959h12.564v35.183h-12.564V507.959z
		 M917.257,550.052h12.564v35.184h-12.564V550.052z M937.362,550.052h12.564v35.184h-12.564V550.052z"/>
	<path id="rect4203-5-8-5" inkscape:connector-curvature="0" d="M847.521,497.906v5.654v93.61h50.261v-99.266L847.521,497.906
		L847.521,497.906z M858.828,508.587h27.645v3.142l-27.645-0.628V508.587L858.828,508.587z M858.828,518.64l27.645,0.628v5.654
		l-27.645-0.628V518.64L858.828,518.64z M858.828,531.833l27.645,0.628v5.654l-27.645-0.628V531.833z M858.828,544.396l27.645,0.63
		v5.653l-27.645-0.629V544.396L858.828,544.396z M858.828,557.592l27.645,0.628v5.654l-27.645-0.628V557.592L858.828,557.592z
		 M858.828,570.156l27.645,0.629v5.654l-27.645-0.63V570.156L858.828,570.156z M858.828,583.35l27.645,0.629v2.514h-27.645V583.35
		L858.828,583.35z"/>
	<path id="rect4278" inkscape:connector-curvature="0" d="M664.069,497.278v6.282V720.31h42.722V497.278H664.069L664.069,497.278z
		 M674.12,509.844h23.245v5.654H674.12V509.844z M674.12,523.037h23.245v7.539H674.12V523.037z M674.12,537.487h23.245v7.539H674.12
		V537.487z M674.12,552.565h23.245v7.538H674.12V552.565z M674.12,567.644h23.245v7.539H674.12V567.644z M674.12,582.722h23.245
		v7.539H674.12V582.722z M674.12,597.8h23.245v7.539H674.12V597.8z M674.12,612.25h23.245v7.539H674.12V612.25z M674.12,627.328
		h23.245v7.539H674.12V627.328z M674.12,642.406h23.245v7.539H674.12V642.406z M674.12,657.484h23.245v7.539H674.12V657.484z
		 M674.12,672.562h23.245v7.538H674.12V672.562z M674.12,687.013h23.245v7.539H674.12V687.013z M674.12,702.091h23.245v6.282H674.12
		V702.091z"/>
	<path id="rect4278-0" inkscape:connector-curvature="0" d="M784.695,494.766v6.282v221.147h36.438V494.765L784.695,494.766
		L784.695,494.766z M792.862,507.331h19.478v5.654h-19.478V507.331L792.862,507.331z M792.862,520.524h19.478v7.538h-19.478V520.524
		L792.862,520.524z M792.862,536.23h19.478v7.538h-19.478V536.23L792.862,536.23z M792.862,551.309h19.478v7.539h-19.478V551.309
		L792.862,551.309z M792.862,566.387h19.478v7.539h-19.478V566.387L792.862,566.387z M792.862,581.465h19.478v7.539h-19.478V581.465
		L792.862,581.465z M792.862,596.543h19.478v7.539h-19.478V596.543L792.862,596.543z M792.862,612.25h19.478v7.539h-19.478V612.25
		L792.862,612.25z M792.862,627.328h19.478v7.539h-19.478V627.328L792.862,627.328z M792.862,642.406h19.478v7.539h-19.478V642.406
		L792.862,642.406z M792.862,657.484h19.478v7.539h-19.478V657.484L792.862,657.484z M792.862,673.19h19.478v7.538h-19.478V673.19
		L792.862,673.19z M792.862,688.27h19.478v7.539h-19.478V688.27L792.862,688.27z M792.862,703.348h19.478v6.282h-19.478V703.348
		L792.862,703.348z"/>
	
		<path id="rect4407" sodipodi:nodetypes="ccccccccccccccccccc" inkscape:connector-curvature="0" stroke="#000000" stroke-width="0.7087" stroke-linecap="round" d="
		M776.528,495.394l-64.083,1.258v11.309l8.796,0.628l-0.628,209.21l32.669,1.257c11.938-0.628,17.592-2.513,26.388-3.142
		L776.528,495.394z M774.643,502.933l0.628,116.856c1.257,57.8-2.513,61.569,0.628,92.982l-21.988,0.628l-0.629-208.582
		L774.643,502.933z M752.026,504.189l1.885,208.582l-30.784,1.885V502.933L752.026,504.189z"/>
	
		<path id="path5379" sodipodi:nodetypes="ccccc" inkscape:connector-curvature="0" fill="none" stroke="#000000" stroke-width="0.9992" stroke-linejoin="bevel" d="
		M366.903,68.178l480.618,81.674l236.853,314.129l-441.664-12.564L366.903,68.178z"/>
	<path id="path7967" sodipodi:nodetypes="ccccccccccccccccccccccccccccccc" inkscape:connector-curvature="0" stroke="#000000" d="
		M355.594,71.319L331.72,103.36l2.514,5.654l-18.22,25.759l1.885,6.282l-21.359,25.759l4.396,5.026l-18.848,22.617l3.77,4.397
		l-18.22,20.733l3.771,5.026l-18.849,28.9l6.282,3.77l-16.334,18.22l3.77,7.539l-20.104,22.617l3.142,5.025l-18.848,25.132
		l2.513,6.281l-22.617,25.131l5.654,5.653l-21.989,25.131l7.539,5.026l-23.874,25.758l8.168,1.885l-16.963,19.478l3.771,5.025
		l-19.478,18.22c1.258,6.283,0.628,12.564,6.911,13.821L358.108,76.345L355.594,71.319z"/>
	<path id="path7969" sodipodi:nodetypes="cccccccccccccccccccccccccccccccccccccc" inkscape:connector-curvature="0" d="
		M356.223,62.523l24.502-4.397v5.654l25.759-2.513l-0.629,6.283l23.245-0.628l-0.628,4.398l21.989,1.256l1.885,3.77l31.413,0.628
		L483.13,82l30.156-0.628l0.628,4.398l25.131-0.628l1.257,5.655l25.13,0.628v4.398h27.016l1.257,5.654l27.016-1.885v5.654
		l22.617-3.141l0.629,6.283l29.526-0.628l1.886,5.654h28.271l0.628,6.283l30.784-0.628l-3.141,4.398l25.13-2.513l1.257,5.654
		l25.13-0.628l-1.256,5.654c8.795,0,29.527,0,29.527,0l-1.886,6.283l36.439-2.513l6.282,14.45
		C839.982,145.454,376.955,66.293,356.223,62.523z"/>
</g>
<g id="Tak">
	<g>
		<path d="M1098.196,416.861"/>
		<path d="M1123.953,469.007l-0.629-0.628c-0.628-0.629-1.256-1.257-1.256-1.885l0,0l-19.477-30.157l-1.256-4.396h-1.258l0,0
			l-32.67-1.886l0,0l-32.041-1.885l0,0l-37.695-2.513v0.628l-27.644-1.885l0,0l-32.669-1.886l0,0l-32.041-1.885l0,0l-37.696-2.513
			l0.63,0.628l-27.017-1.885l0,0l-32.669-1.886l0,0l-32.041-1.885l0,0l-37.696-2.513v0.628l-27.643-1.885l0,0l-32.67-1.886l0,0
			l-32.041-1.885l0,0l-37.695-2.513l23.874,37.066c6.91,11.31,24.502,18.22,30.156,18.849h0.628c3.142,0,6.282-1.886,7.539-4.398
			c0.628-1.256,1.257-2.513,1.257-3.77c8.167,6.282,18.219,10.053,22.617,10.053h0.628c3.142,0,6.283-1.885,7.539-4.398
			c0.628-1.256,1.257-2.513,1.257-4.396c8.167,6.282,18.848,10.681,23.245,10.681h0.629c3.142,0,6.282-1.885,7.539-4.397
			c0.628-1.257,1.256-2.514,1.256-3.771c8.168,6.283,18.22,10.053,22.617,10.053h0.629c3.142,0,6.282-1.885,7.539-4.397
			c0.628-1.256,1.256-2.513,1.256-5.025c8.168,6.91,18.85,10.681,23.246,10.681h0.628c3.143,0,6.283-1.886,7.539-4.397
			c0.629-1.257,1.257-2.513,1.257-3.77c8.167,6.281,18.22,10.052,22.617,10.052h0.628c3.143,0,6.283-1.885,7.539-4.397
			c0.629-1.257,1.257-2.513,1.257-4.396c8.167,6.282,18.849,10.68,23.245,10.68h0.629c3.142,0,6.282-1.885,7.539-4.396
			c0.628-1.258,1.256-2.514,1.256-3.771c8.168,6.282,18.221,10.052,22.618,10.052h0.628c3.143,0,6.283-1.885,7.539-4.396
			c0.629-1.257,1.257-2.514,1.257-4.397c8.167,6.282,18.22,10.053,22.617,10.053h0.628c3.143,0,6.283-1.886,7.539-4.397
			c0.629-1.257,1.257-2.514,1.257-3.771c8.167,6.282,18.22,10.053,22.617,10.053h0.628c3.143,0,6.283-1.885,7.539-4.397
			c0.629-1.257,1.257-2.514,1.257-4.397c8.167,6.282,18.849,10.681,23.246,10.681h0.628c3.143,0,6.282-1.885,7.539-4.397
			c0.628-1.257,1.257-2.514,1.257-3.77c8.167,6.282,18.22,10.052,22.617,10.052h0.628c3.143,0,6.283-1.885,7.539-4.396
			c0.629-1.257,1.257-2.514,1.257-5.026c8.167,6.911,18.849,10.681,23.245,10.681h0.629c3.142,0,6.282-1.885,7.539-4.396
			c0.628-1.257,1.256-2.514,1.256-3.771c8.168,6.282,18.221,10.053,22.617,10.053h0.629c3.143,0,6.282-1.886,7.539-4.397
			c0.628-1.257,1.256-2.514,1.256-4.397c8.168,6.282,18.85,10.681,23.246,10.681h0.628c3.142,0,6.283-1.885,7.539-4.397
			c0.629-1.257,1.257-2.514,1.257-3.77l0,0L1123.953,469.007z M665.324,449.531c-0.628,1.885-3.142,1.885-4.396,1.885
			c-4.398,0-20.732-6.283-27.017-16.335l-19.476-30.156l27.015,1.885l20.732,32.67l0,0l0,0
			C665.324,443.877,665.952,447.646,665.324,449.531z M697.365,451.416c-0.628,1.885-3.142,1.885-4.396,1.885
			c-4.398,0-20.732-6.283-27.017-16.335l0,0l-19.476-30.156l27.015,1.886l20.733,32.669
			C697.365,445.762,698.622,449.531,697.365,451.416z M730.035,453.929c-0.629,1.886-3.142,1.886-4.397,1.886
			c-4.397,0-20.732-6.282-27.016-16.336l-19.477-30.155l27.016,1.885l20.732,32.67l0,0l0,0
			C730.663,448.274,731.291,452.044,730.035,453.929z M762.704,455.812c-0.628,1.886-3.141,1.886-4.396,1.886
			c-4.397,0-20.732-6.282-27.016-16.335l0,0l-19.477-30.156l27.015,1.885l20.733,32.67
			C762.704,450.159,763.962,453.929,762.704,455.812z M795.375,457.698c-0.63,1.885-3.143,1.885-4.398,1.885
			c-4.397,0-20.732-6.282-27.015-16.335l-19.478-30.156l27.016,1.885l20.732,32.671l0,0l0,0
			C796.003,452.044,796.631,455.812,795.375,457.698z M828.044,460.211c-0.628,1.885-3.142,1.885-4.397,1.885
			c-4.396,0-20.732-6.281-27.016-16.334l0,0l-19.477-30.156l27.016,1.885l20.732,32.67
			C828.044,454.557,829.301,457.698,828.044,460.211z M860.714,462.096c-0.63,1.886-3.143,1.886-4.398,1.886
			c-4.397,0-20.731-6.282-27.015-16.334l-19.478-30.157l27.017,1.885l20.731,32.67l0,0l0,0
			C860.714,456.441,861.97,460.211,860.714,462.096z M893.383,464.609c-0.628,1.885-3.142,1.885-4.397,1.885
			c-4.396,0-20.731-6.283-27.016-16.335l0,0l-19.477-30.156l27.017,1.885l20.731,32.669
			C893.383,458.326,894.012,462.096,893.383,464.609z M925.424,465.865c-0.628,1.885-3.142,1.885-4.397,1.885
			c-4.396,0-20.731-6.282-27.015-16.334l-19.478-30.157l27.017,1.885l20.731,32.671l0,0l0,0
			C925.424,460.211,926.681,463.98,925.424,465.865z M957.465,467.75c-0.628,1.885-3.142,1.885-4.397,1.885
			c-4.396,0-20.731-6.282-27.015-16.334l0,0l-19.478-30.157l27.017,1.886l21.359,32.67
			C958.094,462.096,958.722,465.865,957.465,467.75z M990.764,470.264c-0.629,1.886-3.143,1.886-4.398,1.886
			c-4.396,0-20.731-6.283-27.016-16.335l-19.477-30.156l27.017,1.885l20.731,32.669l0,0l0,0
			C990.764,464.609,992.02,467.75,990.764,470.264z M1022.805,472.148c-0.629,1.885-3.143,1.885-4.398,1.885
			c-4.396,0-20.731-6.283-27.015-16.335l0,0l-19.478-30.156l27.017,1.885l20.731,32.669
			C1022.805,466.494,1024.061,470.264,1022.805,472.148z M1056.102,474.033c-0.628,1.885-3.141,1.885-4.396,1.885
			c-4.397,0-20.732-6.283-27.016-16.335l-19.477-30.156l27.016,1.886l20.732,32.669l0,0l0,0
			C1056.102,468.379,1057.359,472.148,1056.102,474.033z M1088.144,476.546c-0.629,1.885-3.142,1.885-4.397,1.885
			c-4.397,0-20.732-6.281-27.016-16.335l0,0l-19.477-30.155l27.016,1.885l20.732,32.67
			C1088.144,470.264,1089.4,474.033,1088.144,476.546z M1121.442,478.431c-0.629,1.886-3.142,1.886-4.397,1.886
			c-4.397,0-20.732-6.282-27.016-16.335l-19.477-30.156l27.016,1.885l20.732,32.67l0,0l0,0
			C1121.442,472.776,1122.07,476.546,1121.442,478.431z"/>
		<path fill="#393943" d="M665.324,448.902c-0.628,1.885-3.142,1.885-4.396,1.885c-4.398,0-20.732-6.282-27.017-16.334
			l-19.476-30.157l27.015,1.885l20.732,32.67l0,0l0,0C665.324,443.248,665.952,447.018,665.324,448.902z"/>
		<path fill="#393943" d="M697.365,451.416c-0.628,1.885-3.142,1.885-4.396,1.885c-4.398,0-20.732-6.283-27.017-16.335l0,0
			l-19.476-30.156l27.015,1.886l20.733,32.669C697.365,445.762,698.622,448.902,697.365,451.416z"/>
		<path fill="#393943" d="M730.035,453.301c-0.629,1.885-3.142,1.885-4.397,1.885c-4.397,0-20.732-6.282-27.016-16.335
			l-19.477-30.155l27.016,1.885l20.732,32.669l0,0l0,0C730.663,447.646,731.291,451.416,730.035,453.301z"/>
		<path fill="#393943" d="M762.704,455.812c-0.628,1.886-3.141,1.886-4.396,1.886c-4.397,0-20.732-6.282-27.016-16.335l0,0
			l-19.477-30.156l27.015,1.885l20.733,32.67C762.704,450.159,763.962,453.301,762.704,455.812z"/>
		<path fill="#393943" d="M795.375,457.698c-0.63,1.885-3.143,1.885-4.398,1.885c-4.397,0-20.732-6.282-27.015-16.335
			l-19.478-30.156l27.016,1.885l20.732,32.671l0,0l0,0C796.003,452.044,796.631,455.186,795.375,457.698z"/>
		<path fill="#393943" d="M828.044,459.583c-0.628,1.885-3.142,1.885-4.397,1.885c-4.396,0-20.732-6.282-27.016-16.335l0,0
			l-19.477-30.156l27.016,1.886l20.732,32.67C828.044,453.929,829.301,457.698,828.044,459.583z"/>
		<path fill="#393943" d="M860.714,462.096c-0.63,1.886-3.143,1.886-4.398,1.886c-4.397,0-20.731-6.282-27.015-16.334
			l-19.478-30.157l27.017,1.885l20.731,32.67l0,0l0,0C860.714,455.812,861.97,459.583,860.714,462.096z"/>
		<path fill="#393943" d="M892.755,463.98c-0.628,1.885-3.143,1.885-4.397,1.885c-4.398,0-20.732-6.282-27.016-16.334l0,0
			l-19.477-30.157l27.016,1.885l20.731,32.67C893.383,458.326,894.012,462.096,892.755,463.98z"/>
		<path fill="#393943" d="M924.796,465.865c-0.628,1.885-3.143,1.885-4.397,1.885c-4.398,0-20.732-6.282-27.016-16.334
			l-19.477-30.157l27.016,1.885l20.731,32.671l0,0l0,0C925.424,460.211,926.053,463.98,924.796,465.865z"/>
		<path fill="#393943" d="M957.465,467.75c-0.628,1.885-3.142,1.885-4.397,1.885c-4.396,0-20.731-6.282-27.015-16.334l0,0
			l-19.478-30.157l27.017,1.886l20.731,32.67C957.465,462.096,958.722,465.865,957.465,467.75z"/>
		<path fill="#393943" d="M990.135,470.264c-0.628,1.886-3.142,1.886-4.397,1.886c-4.396,0-20.731-6.283-27.016-16.335
			l-19.476-30.156l27.015,1.885l20.732,32.669l0,0l0,0C990.135,464.609,991.392,468.379,990.135,470.264z"/>
		<path fill="#393943" d="M1022.805,472.148c-0.629,1.885-3.143,1.885-4.398,1.885c-4.396,0-20.731-6.283-27.015-16.335l0,0
			l-19.478-30.156l27.017,1.885l20.731,32.669C1022.805,466.494,1024.061,470.264,1022.805,472.148z"/>
		<path fill="#393943" d="M1055.474,474.033c-0.628,1.885-3.142,1.885-4.397,1.885c-4.397,0-20.731-6.283-27.016-16.335
			l-19.477-30.156l27.016,1.886l20.732,32.669l0,0l0,0C1055.474,468.379,1056.731,472.148,1055.474,474.033z"/>
		<path fill="#393943" d="M1088.144,476.546c-0.629,1.885-3.142,1.885-4.397,1.885c-4.397,0-20.732-6.281-27.016-16.335l0,0
			l-19.477-30.155l27.016,1.885l20.732,32.67C1088.144,470.892,1088.772,474.033,1088.144,476.546z"/>
		<path fill="#393943" d="M1120.813,478.431c-0.628,1.886-3.142,1.886-4.396,1.886c-4.398,0-20.732-6.282-27.017-16.335
			l-19.476-30.156l27.015,1.885l20.732,32.67l0,0l0,0C1120.813,472.776,1122.07,476.546,1120.813,478.431z"/>
	</g>
	<g>
		<path d="M1071.18,383.562"/>
		<path d="M1096.939,436.337l-0.628-0.628c-0.628-0.628-1.257-1.256-1.257-1.885l0,0l-18.849-30.156l-1.256-4.396h-1.257l0,0
			l-32.67-2.515l0,0l-32.041-2.513l0,0l-37.695-3.143v0.63l-27.644-2.515l0,0l-32.669-2.513l0,0l-32.041-2.514l0,0l-37.696-3.142
			l0.629,0.628l-27.016-2.513l0,0l-32.669-2.514l0,0l-32.041-2.514l0,0l-37.696-3.142v0.629l-27.643-2.514l0,0l-32.67-2.514l0,0
			l-32.041-2.513l0,0l-37.695-3.142l23.245,37.694c6.283,11.31,24.502,18.849,30.156,18.849h0.629c3.141,0,6.281-1.257,8.167-3.771
			c0.628-1.256,1.257-2.513,1.257-3.77c8.167,6.282,18.219,10.053,22.617,10.681h0.628c3.142,0,6.281-1.257,8.168-3.77
			c0.628-1.258,1.256-2.514,1.256-4.397c8.168,6.91,18.848,10.68,23.246,11.309h0.628c3.142,0,6.282-1.257,8.167-3.77
			c0.629-1.257,1.257-2.514,1.257-3.771c8.167,6.282,18.22,10.053,22.617,10.681h0.628c3.142,0,6.283-1.256,8.168-3.771
			c0.628-1.256,1.257-2.513,1.257-5.024c8.167,6.91,18.849,10.68,23.245,11.309h0.628c3.143,0,6.283-1.257,8.168-3.77
			c0.628-1.258,1.256-2.515,1.256-3.771c8.168,6.282,18.221,10.052,22.617,10.681h0.629c3.142,0,6.282-1.257,8.167-3.771
			c0.628-1.256,1.257-2.513,1.257-4.397c8.167,6.911,18.849,10.682,23.245,11.31h0.629c3.142,0,6.282-1.257,8.167-3.771
			c0.628-1.257,1.258-2.513,1.258-3.77c8.167,6.282,18.219,10.052,22.616,10.681h0.629c3.142,0,6.282-1.257,8.168-3.77
			c0.628-1.257,1.256-2.515,1.256-4.398c8.168,6.283,18.22,10.054,22.617,10.682h0.629c3.141,0,6.281-1.257,8.167-3.771
			c0.628-1.257,1.257-2.513,1.257-3.77c8.167,6.282,18.219,10.053,22.617,10.681h0.628c3.142,0,6.282-1.257,8.168-3.77
			c0.628-1.258,1.257-2.515,1.257-4.398c8.167,6.911,18.848,10.681,23.245,11.31h0.628c3.142,0,6.283-1.257,8.168-3.77
			c0.628-1.257,1.256-2.514,1.256-3.77c8.168,6.281,18.22,10.052,22.617,10.68h0.629c3.141,0,6.282-1.256,8.167-3.771
			c0.629-1.256,1.257-2.513,1.257-5.024c8.167,6.91,18.848,10.68,23.245,11.309h0.629c3.142,0,6.282-1.257,8.167-3.77
			c0.629-1.257,1.257-2.515,1.257-3.771c8.167,6.282,18.221,10.052,22.617,10.681h0.628c3.143,0,6.283-1.257,8.168-3.771
			c0.628-1.256,1.256-2.513,1.256-4.396c8.168,6.91,18.849,10.681,23.246,11.309h0.628c3.143,0,6.282-1.257,8.167-3.771
			c0.629-1.257,1.258-2.513,1.258-3.77l0,0L1096.939,436.337z M637.682,409.95c-0.628,1.257-3.141,1.885-4.397,1.885
			c-4.396-0.628-20.731-6.91-26.387-16.963l-18.848-30.156l27.015,1.885l20.732,33.299l0,0l0,0
			C638.311,404.296,638.939,408.065,637.682,409.95z M670.352,412.464c-0.629,1.256-3.143,1.885-4.398,1.885
			c-4.396-0.629-20.731-6.911-26.387-16.963l0,0l-18.848-30.157l27.016,1.886l20.732,33.298
			C670.352,406.81,671.608,410.579,670.352,412.464z M703.021,414.977c-0.628,1.258-3.141,1.886-4.397,1.886
			c-4.396-0.628-20.731-6.911-26.387-16.963l-18.848-30.156l27.015,1.885l20.732,33.298l0,0l0,0
			C703.65,409.322,704.278,413.092,703.021,414.977z M735.062,418.118c-0.628,1.256-3.141,1.885-4.397,1.885
			c-4.396-0.629-20.731-6.911-26.387-16.963l0,0l-18.848-30.157l27.015,1.885l20.733,33.299
			C735.691,411.835,736.319,415.604,735.062,418.118z M768.36,420.003c-0.628,1.256-3.141,1.885-4.396,1.885
			c-4.397-0.629-20.732-6.911-26.388-16.963l-18.848-30.157l27.015,1.886l20.732,33.298l0,0l0,0
			C768.36,414.349,769.615,418.118,768.36,420.003z M800.401,422.516c-0.628,1.258-3.141,1.886-4.396,1.886
			c-4.397-0.628-20.732-6.911-26.388-16.964l0,0l-18.848-30.155l27.015,1.885l20.732,33.298
			C801.03,416.861,801.656,420.631,800.401,422.516z M833.698,425.657c-0.628,1.256-3.141,1.885-4.396,1.885
			c-4.397-0.629-20.732-6.911-26.388-16.963l-18.848-30.156l26.387,1.885l20.732,33.298l0,0l0,0
			C833.698,420.003,834.954,423.144,833.698,425.657z M865.74,428.17c-0.629,1.257-3.142,1.885-4.397,1.885
			c-4.397-0.628-20.732-6.911-26.388-16.963l0,0l-18.848-30.156l27.015,1.886l20.733,33.298
			C865.74,422.516,866.995,426.285,865.74,428.17z M897.781,430.055c-0.629,1.257-3.142,1.886-4.397,1.886
			c-4.397-0.628-20.732-6.911-26.388-16.964l-18.848-30.155l27.016,1.885l20.732,33.298l0,0l0,0
			C898.408,424.4,899.036,428.17,897.781,430.055z M930.449,432.567c-0.628,1.257-3.142,1.886-4.396,1.886
			c-4.398-0.629-20.732-6.911-26.387-16.964l0,0l-18.849-30.156l27.015,1.885l20.732,33.298
			C930.449,426.913,931.707,430.683,930.449,432.567z M963.119,435.081c-0.629,1.256-3.142,1.885-4.397,1.885
			c-4.397-0.628-20.732-6.911-26.388-16.963l-18.848-30.156l27.016,1.886l20.732,33.297l0,0l0,0
			C963.119,429.427,964.375,433.196,963.119,435.081z M995.16,438.223c-0.629,1.256-3.142,1.886-4.396,1.886
			c-4.398-0.63-20.733-6.911-26.389-16.965l0,0l-18.848-30.155l27.016,1.885l20.732,33.298
			C995.789,431.939,996.418,435.709,995.16,438.223z M1028.459,440.107c-0.63,1.256-3.143,1.885-4.398,1.885
			c-4.396-0.629-20.732-6.911-26.387-16.964l-18.849-30.156l27.017,1.885l20.731,33.298l0,0l0,0
			C1028.459,434.453,1029.715,438.223,1028.459,440.107z M1060.5,442.62c-0.63,1.257-3.143,1.885-4.398,1.885
			c-4.396-0.628-20.732-6.911-26.387-16.963l0,0l-18.849-30.156l27.017,1.886l20.731,33.297
			C1061.128,436.966,1061.756,440.735,1060.5,442.62z M1093.798,445.762c-0.63,1.256-3.143,1.886-4.398,1.886
			c-4.396-0.63-20.731-6.911-26.387-16.965l-18.849-30.155l27.017,1.885l20.731,33.298l0,0l0,0
			C1093.798,440.107,1095.054,443.248,1093.798,445.762z"/>
		<path fill="#393943" d="M637.682,409.322c-0.628,1.257-3.141,1.885-4.397,1.885c-4.396-0.628-20.731-6.911-26.387-16.963
			l-18.848-30.156l27.015,1.885l20.732,33.299l0,0l0,0C638.311,403.668,638.939,407.438,637.682,409.322z"/>
		<path fill="#393943" d="M670.352,412.464c-0.629,1.256-3.143,1.885-4.398,1.885c-4.396-0.629-20.731-6.911-26.387-16.963l0,0
			l-18.848-30.157l27.016,1.886l20.732,33.298C670.352,406.181,671.608,409.95,670.352,412.464z"/>
		<path fill="#393943" d="M703.021,414.977c-0.628,1.258-3.141,1.886-4.397,1.886c-4.396-0.628-20.731-6.911-26.387-16.963
			l-18.848-30.156l27.015,1.885l20.732,33.298l0,0l0,0C703.021,409.322,704.278,413.092,703.021,414.977z"/>
		<path fill="#393943" d="M735.062,417.489c-0.628,1.257-3.141,1.885-4.397,1.885c-4.396-0.628-20.731-6.91-26.387-16.963l0,0
			l-18.848-30.156l27.015,1.885l20.733,33.299C735.691,411.835,736.319,415.604,735.062,417.489z"/>
		<path fill="#393943" d="M768.36,420.003c-0.628,1.256-3.141,1.885-4.396,1.885c-4.397-0.629-20.732-6.911-26.388-16.963
			l-18.848-30.157l27.015,1.886l20.732,33.298l0,0l0,0C768.36,414.349,769.615,417.489,768.36,420.003z"/>
		<path fill="#393943" d="M800.401,422.516c-0.628,1.258-3.141,1.886-4.396,1.886c-4.397-0.628-20.732-6.911-26.388-16.964l0,0
			l-18.848-30.155l27.015,1.885l20.732,33.298C801.03,416.861,801.656,420.631,800.401,422.516z"/>
		<path fill="#393943" d="M833.698,425.028c-0.628,1.257-3.141,1.885-4.396,1.885c-4.397-0.628-20.732-6.91-26.388-16.963
			l-18.848-30.156l27.015,1.885l20.732,33.298l0,0l0,0C833.698,419.374,834.954,423.144,833.698,425.028z"/>
		<path fill="#393943" d="M865.74,427.542c-0.629,1.256-3.142,1.885-4.397,1.885c-4.397-0.629-20.732-6.911-26.388-16.963l0,0
			l-18.848-30.156l27.015,1.886l20.733,33.297C865.74,421.888,866.995,425.657,865.74,427.542z"/>
		<path fill="#393943" d="M897.781,430.055c-0.629,1.257-3.142,1.886-4.397,1.886c-4.397-0.628-20.732-6.911-26.388-16.964
			l-18.848-30.155l27.016,1.885l20.732,33.298l0,0l0,0C897.781,424.4,899.036,428.17,897.781,430.055z"/>
		<path fill="#393943" d="M929.823,432.567c-0.629,1.257-3.142,1.886-4.397,1.886c-4.397-0.629-20.732-6.911-26.388-16.964l0,0
			l-18.848-30.156l27.016,1.885l20.732,33.298C930.449,426.913,931.077,430.683,929.823,432.567z"/>
		<path fill="#393943" d="M962.49,435.709c-0.628,1.257-3.142,1.885-4.396,1.885c-4.398-0.628-20.732-6.91-26.387-16.963
			l-18.849-30.156l27.015,1.886l20.732,33.298l0,0l0,0C963.119,429.427,963.748,433.196,962.49,435.709z"/>
		<path fill="#393943" d="M995.16,438.223c-0.629,1.256-3.142,1.886-4.396,1.886c-4.398-0.63-20.733-6.911-26.389-16.965l0,0
			l-18.848-30.155l27.016,1.885l20.732,33.298C995.16,432.567,996.418,435.709,995.16,438.223z"/>
		<path fill="#393943" d="M1027.829,440.107c-0.628,1.256-3.141,1.885-4.396,1.885c-4.397-0.629-20.732-6.911-26.388-16.964
			l-18.848-30.156l27.016,1.885l20.731,33.298l0,0l0,0C1028.459,434.453,1029.087,438.223,1027.829,440.107z"/>
		<path fill="#393943" d="M1060.5,443.248c-0.63,1.257-3.143,1.885-4.398,1.885c-4.396-0.628-20.732-6.91-26.387-16.963l0,0
			l-18.849-30.156l27.017,1.886l20.731,33.298C1060.5,437.594,1061.756,440.735,1060.5,443.248z"/>
		<path fill="#393943" d="M1093.168,445.762c-0.628,1.256-3.141,1.886-4.396,1.886c-4.396-0.63-20.732-6.911-26.387-16.965
			l-18.849-30.155l27.016,1.885l20.731,33.298l0,0l0,0C1093.168,440.107,1094.426,443.877,1093.168,445.762z"/>
	</g>
	<g>
		<path d="M1050.448,357.177"/>
		<path d="M1075.577,409.95l-0.629-0.628c-0.628-0.628-1.256-1.257-1.256-1.885l0,0l-18.848-30.156l-1.257-4.398h-1.258l0,0
			l-32.668-2.513l0,0l-32.041-2.513l0,0l-37.696-3.143v0.628l-27.644-2.513l0,0l-32.67-2.513l0,0l-32.041-2.515l0,0l-37.694-3.141
			l0.628,0.628l-27.016-2.513l0,0l-32.67-2.515l0,0l-32.041-2.513l0,0l-37.695-3.142v0.629l-27.644-2.515l0,0l-32.669-2.513l0,0
			l-33.927-3.77l0,0l-37.695-3.143l23.246,37.695c6.282,11.31,24.502,18.849,30.156,18.849h0.628c3.142,0,6.281-1.257,8.168-3.77
			c0.628-1.257,1.256-2.515,1.256-3.771c8.168,6.282,18.22,10.052,22.617,10.681h0.629c3.141,0,6.282-1.257,8.167-3.771
			c0.628-1.256,1.257-2.513,1.257-4.396c8.167,6.91,18.848,10.681,23.245,11.309h0.628c3.142,0,6.283-1.257,8.168-3.771
			c0.628-1.257,1.256-2.513,1.256-3.77c8.168,6.282,18.22,10.052,22.618,10.681h0.628c3.143,0,6.282-1.257,8.167-3.77
			c0.629-1.257,1.257-2.514,1.257-5.026c8.167,6.911,18.849,10.682,23.245,11.31h0.629c3.142,0,6.282-1.257,8.167-3.771
			c0.628-1.257,1.257-2.513,1.257-3.77c8.167,6.282,18.221,10.052,22.617,10.681h0.628c3.143,0,6.283-1.257,8.168-3.77
			c0.628-1.258,1.256-2.515,1.256-4.398c8.169,6.911,18.849,10.681,23.246,11.309h0.628c3.143,0,6.282-1.256,8.167-3.77
			c0.63-1.256,1.258-2.513,1.258-3.77c8.167,6.282,18.22,10.053,22.616,10.681h0.63c3.141,0,6.281-1.257,8.166-3.771
			c0.63-1.257,1.258-2.513,1.258-4.396c8.167,6.282,18.22,10.052,22.617,10.681h0.628c3.142,0,6.282-1.257,8.168-3.771
			c0.628-1.256,1.256-2.514,1.256-3.771c8.168,6.283,18.22,10.054,22.617,10.682h0.629c3.141,0,6.282-1.257,8.167-3.771
			c0.629-1.256,1.257-2.513,1.257-4.396c8.167,6.91,18.848,10.681,23.245,11.309h0.629c3.141,0,6.282-1.257,8.167-3.77
			c0.629-1.258,1.257-2.514,1.257-3.771c8.167,6.282,18.22,10.052,22.617,10.681h0.628c3.142,0,6.283-1.257,8.168-3.77
			c0.628-1.257,1.256-2.514,1.256-5.026c8.168,6.911,18.849,10.682,23.246,11.31h0.628c3.143,0,6.282-1.257,8.167-3.771
			c0.629-1.257,1.257-2.513,1.257-3.77c8.168,6.282,18.221,10.052,22.617,10.681h0.629c3.142,0,6.282-1.257,8.167-3.77
			c0.629-1.257,1.257-2.515,1.257-4.398c8.167,6.911,18.849,10.681,23.245,11.31h0.629c3.142,0,6.282-1.257,8.167-3.771
			c0.629-1.256,1.258-2.513,1.258-3.77l0,0L1075.577,409.95z M616.948,383.562c-0.628,1.258-3.142,1.886-4.396,1.886
			c-4.398-0.628-20.732-6.91-26.388-16.963l-18.848-30.156l27.015,1.885l20.732,33.298l0,0l0,0
			C617.576,377.909,618.205,381.679,616.948,383.562z M649.618,386.077c-0.629,1.256-3.142,1.885-4.397,1.885
			c-4.397-0.629-20.732-6.911-26.387-16.964l0,0l-18.849-30.156l27.017,1.885l20.731,33.299
			C649.618,380.423,650.246,384.192,649.618,386.077z M682.287,389.218c-0.628,1.257-3.142,1.885-4.396,1.885
			c-4.398-0.628-20.732-6.909-26.387-16.963l-18.849-30.155l27.016,1.885l20.731,33.298l0,0l0,0
			C682.287,383.562,683.545,386.705,682.287,389.218z M714.328,391.731c-0.628,1.256-3.141,1.885-4.396,1.885
			c-4.397-0.629-20.732-6.911-26.387-16.964l0,0l-18.849-30.156l27.016,1.885l20.731,33.298
			C714.957,386.077,715.586,389.847,714.328,391.731z M747.627,394.244c-0.629,1.257-3.143,1.885-4.397,1.885
			c-4.397-0.628-20.731-6.911-26.387-16.963l-18.849-30.156l27.016,1.885l20.731,33.299l0,0l0,0
			C747.627,387.962,748.884,391.731,747.627,394.244z M779.668,396.757c-0.629,1.257-3.142,1.885-4.397,1.885
			c-4.396-0.628-20.731-6.909-26.387-16.963l0,0l-18.849-30.155l27.016,1.885l20.731,33.298
			C780.297,391.103,780.925,394.244,779.668,396.757z M812.338,399.271c-0.629,1.256-3.143,1.885-4.398,1.885
			c-4.396-0.629-20.732-6.911-26.387-16.963l-18.849-30.157l27.017,1.885l20.731,33.298l0,0l0,0
			C812.966,393.616,813.594,397.386,812.338,399.271z M845.007,401.783c-0.628,1.257-3.142,1.885-4.397,1.885
			c-4.396-0.628-20.731-6.911-26.387-16.963l0,0l-18.848-30.156l27.015,1.885l20.731,33.299
			C845.007,396.129,846.264,399.898,845.007,401.783z M877.049,403.668c-0.629,1.257-3.143,1.885-4.398,1.885
			c-4.396-0.628-20.732-6.911-26.387-16.963l-18.849-30.156l27.017,1.886l20.731,33.298l0,0l0,0
			C877.677,398.014,878.305,401.783,877.049,403.668z M909.718,406.181c-0.628,1.257-3.143,1.886-4.397,1.886
			c-4.397-0.628-20.731-6.91-26.387-16.964l0,0l-18.848-30.155l27.015,1.885l20.731,33.298
			C909.718,400.526,910.346,404.296,909.718,406.181z M942.387,409.322c-0.628,1.257-3.141,1.885-4.397,1.885
			c-4.396-0.628-20.731-6.911-26.387-16.963l-18.848-30.156l27.015,1.885l20.732,33.299l0,0l0,0
			C942.387,403.668,943.644,406.81,942.387,409.322z M974.429,411.835c-0.629,1.257-3.143,1.885-4.398,1.885
			c-4.396-0.628-20.731-6.91-26.387-16.963l0,0l-18.849-30.156l27.017,1.886l20.731,33.298
			C975.057,406.181,975.685,409.95,974.429,411.835z M1007.727,414.349c-0.629,1.257-3.143,1.886-4.398,1.886
			c-4.396-0.629-20.731-6.911-26.387-16.963l-18.848-30.157l27.016,1.885l20.732,33.298l0,0l0,0
			C1007.727,408.065,1008.983,411.835,1007.727,414.349z M1039.768,416.861c-0.629,1.257-3.143,1.885-4.398,1.885
			c-4.396-0.628-20.731-6.911-26.387-16.963l0,0l-18.848-30.156l27.016,1.885l20.732,33.298
			C1040.396,411.207,1041.024,414.349,1039.768,416.861z M1072.437,419.374c-0.628,1.257-3.142,1.885-4.397,1.885
			c-4.397-0.628-20.731-6.91-26.387-16.963l-18.848-30.156l27.015,1.886l20.732,33.298l0,0l0,0
			C1073.065,413.72,1073.694,417.489,1072.437,419.374z"/>
		<path fill="#393943" d="M616.948,383.562c-0.628,1.258-3.142,1.886-4.396,1.886c-4.398-0.628-20.732-6.91-26.388-16.963
			l-18.848-30.156l27.015,1.885l20.732,33.298l0,0l0,0C617.576,377.909,618.205,381.051,616.948,383.562z"/>
		<path fill="#393943" d="M648.99,386.077c-0.628,1.256-3.141,1.885-4.396,1.885c-4.397-0.629-20.732-6.911-26.388-16.964l0,0
			l-18.848-30.156l27.015,1.885l20.732,33.299C649.618,380.423,650.246,384.192,648.99,386.077z"/>
		<path fill="#393943" d="M682.287,388.59c-0.628,1.257-3.142,1.885-4.396,1.885c-4.398-0.628-20.732-6.91-26.387-16.963
			l-18.849-30.155l27.016,1.885l20.731,33.297l0,0l0,0C682.287,382.936,683.545,386.705,682.287,388.59z"/>
		<path fill="#393943" d="M714.328,391.103c-0.628,1.258-3.141,1.886-4.396,1.886c-4.397-0.628-20.732-6.91-26.387-16.963l0,0
			l-18.849-30.156l27.016,1.885l20.731,33.298C714.957,385.448,715.586,389.218,714.328,391.103z"/>
		<path fill="#393943" d="M747.627,393.616c-0.629,1.256-3.143,1.885-4.397,1.885c-4.397-0.629-20.731-6.911-26.387-16.964
			l-18.849-30.156l27.016,1.885l20.731,33.299l0,0l0,0C747.627,387.962,748.884,391.731,747.627,393.616z"/>
		<path fill="#393943" d="M779.668,396.129c-0.629,1.257-3.142,1.885-4.397,1.885c-4.396-0.628-20.731-6.911-26.387-16.963l0,0
			l-18.849-30.156l27.016,1.886l20.731,33.298C779.668,390.475,780.925,394.244,779.668,396.129z"/>
		<path fill="#393943" d="M812.338,398.642c-0.629,1.258-3.143,1.886-4.398,1.886c-4.396-0.628-20.732-6.91-26.387-16.963
			l-18.849-30.156l27.017,1.885l20.731,33.298l0,0l0,0C812.966,392.987,813.594,396.757,812.338,398.642z"/>
		<path fill="#393943" d="M845.007,401.783c-0.628,1.257-3.142,1.885-4.397,1.885c-4.396-0.628-20.731-6.911-26.387-16.963l0,0
			l-18.848-30.156l27.015,1.885l20.731,33.299C845.007,395.501,846.264,399.271,845.007,401.783z"/>
		<path fill="#393943" d="M877.049,403.668c-0.629,1.257-3.143,1.885-4.398,1.885c-4.396-0.628-20.732-6.911-26.387-16.963
			l-18.849-30.156l27.017,1.886l20.731,33.298l0,0l0,0C877.049,398.014,878.305,401.783,877.049,403.668z"/>
		<path fill="#393943" d="M909.09,406.81c-0.629,1.257-3.143,1.886-4.398,1.886c-4.396-0.629-20.732-6.911-26.387-16.963l0,0
			l-18.848-30.157l26.387,1.885l20.731,33.298C909.09,400.526,910.346,404.296,909.09,406.81z"/>
		<path fill="#393943" d="M941.759,409.322c-0.628,1.257-3.143,1.885-4.397,1.885c-4.397-0.628-20.731-6.911-26.387-16.963
			l-18.848-30.156l27.015,1.885l20.731,33.299l0,0l0,0C942.387,403.668,943.016,407.438,941.759,409.322z"/>
		<path fill="#393943" d="M974.429,411.835c-0.629,1.257-3.143,1.885-4.398,1.885c-4.396-0.628-20.731-6.91-26.387-16.963l0,0
			l-18.849-30.156l27.017,1.886l20.731,33.298C974.429,406.181,975.685,409.95,974.429,411.835z"/>
		<path fill="#393943" d="M1007.098,414.349c-0.628,1.257-3.141,1.886-4.397,1.886c-4.396-0.629-20.731-6.911-26.387-16.963
			l-18.848-30.157l27.015,1.885l20.732,33.298l0,0l0,0C1007.727,408.694,1008.355,411.835,1007.098,414.349z"/>
		<path fill="#393943" d="M1039.768,416.861c-0.629,1.257-3.143,1.885-4.398,1.885c-4.396-0.628-20.731-6.911-26.387-16.963l0,0
			l-18.848-30.156l27.016,1.885l20.732,33.298C1039.768,411.207,1040.396,414.977,1039.768,416.861z"/>
		<path fill="#393943" d="M1072.437,419.374c-0.628,1.257-3.142,1.885-4.397,1.885c-4.397-0.628-20.731-6.91-26.387-16.963
			l-18.848-30.156l26.387,1.886l20.732,33.298l0,0l0,0C1072.437,413.72,1073.694,417.489,1072.437,419.374z"/>
	</g>
	<g>
		<path d="M1027.829,330.79"/>
		<path d="M1052.961,383.562l-0.629-0.628c-0.629-0.628-1.257-1.257-1.257-1.885l0,0l-18.848-30.156l-1.257-4.397h-1.257l0,0
			l-32.669-2.513l0,0l-32.041-2.514l0,0l-37.696-3.142v0.628l-27.644-2.513l0,0l-32.67-2.514l0,0l-32.041-2.514l0,0l-37.694-3.141
			l0.628,0.628l-27.016-2.514l0,0l-32.67-2.514l0,0l-32.041-2.513l0,0l-37.694-3.143v0.628l-27.645-2.513l0,0l-32.67-2.513l0,0
			l-32.041-2.515l0,0l-37.694-3.141l23.245,37.695c6.282,11.309,24.503,18.848,30.156,18.848h0.628c3.143,0,6.282-1.257,8.167-3.77
			c0.629-1.258,1.257-2.514,1.257-3.771c8.168,6.282,18.221,10.052,22.617,10.681h0.629c3.142,0,6.282-1.257,8.167-3.77
			c0.628-1.257,1.258-2.514,1.258-4.398c8.167,6.911,18.848,10.682,23.244,11.31h0.628c3.143,0,6.283-1.256,8.169-3.771
			c0.628-1.256,1.256-2.513,1.256-3.77c8.168,6.283,18.22,10.053,22.616,10.681h0.63c3.141,0,6.281-1.257,8.167-3.77
			c0.629-1.257,1.257-2.514,1.257-5.026c8.167,6.911,18.848,10.681,23.245,11.309h0.629c3.141,0,6.282-1.256,8.167-3.77
			c0.628-1.256,1.257-2.513,1.257-3.77c8.167,6.282,18.22,10.053,22.617,10.681h0.628c3.142,0,6.283-1.257,8.168-3.771
			c0.628-1.257,1.256-2.513,1.256-4.396c8.168,6.91,18.848,10.68,23.246,11.309h0.628c3.142,0,6.282-1.257,8.167-3.77
			c0.629-1.257,1.257-2.514,1.257-3.771c8.167,6.282,18.22,10.053,22.617,10.682h0.629c3.141,0,6.282-1.257,8.167-3.771
			c0.628-1.257,1.257-2.514,1.257-4.397c8.167,6.282,18.219,10.053,22.617,10.681h0.628c3.143,0,6.283-1.257,8.168-3.77
			c0.628-1.258,1.256-2.514,1.256-3.771c8.169,6.282,18.221,10.052,22.617,10.681h0.629c3.142,0,6.282-1.257,8.167-3.77
			c0.628-1.257,1.258-2.514,1.258-4.398c8.166,6.911,18.848,10.682,23.244,11.31h0.629c3.142,0,6.282-1.256,8.168-3.771
			c0.627-1.256,1.257-2.513,1.257-3.77c8.167,6.283,18.219,10.053,22.616,10.681h0.629c3.142,0,6.282-1.257,8.168-3.77
			c0.628-1.257,1.256-2.514,1.256-5.026c8.168,6.911,18.848,10.681,23.246,11.31h0.628c3.142,0,6.282-1.257,8.167-3.771
			c0.629-1.256,1.257-2.513,1.257-3.77c8.167,6.282,18.22,10.053,22.617,10.681h0.629c3.141,0,6.282-1.257,8.167-3.771
			c0.628-1.257,1.257-2.513,1.257-4.396c8.167,6.91,18.848,10.68,23.245,11.309h0.629c3.141,0,6.282-1.257,8.167-3.77
			c0.628-1.257,1.257-2.514,1.257-3.771l0,0L1052.961,383.562z M594.331,357.177c-0.628,1.257-3.142,1.886-4.396,1.886
			c-4.398-0.629-20.733-6.911-26.388-16.964l-18.849-30.155l27.017,1.885l20.731,33.298l0,0l0,0
			C594.331,351.522,595.589,355.292,594.331,357.177z M626.372,359.689c-0.628,1.257-3.142,1.885-4.396,1.885
			c-4.398-0.628-20.732-6.91-26.387-16.963l0,0l-18.849-30.156l27.016,1.885l20.731,33.298
			C626.372,354.035,627.63,357.805,626.372,359.689z M659.043,362.831c-0.63,1.257-3.143,1.885-4.398,1.885
			c-4.396-0.628-20.732-6.911-26.387-16.963l-18.849-30.156l27.017,1.886l20.731,33.298l0,0l0,0
			C659.671,357.177,660.299,360.318,659.043,362.831z M691.712,365.344c-0.628,1.257-3.143,1.885-4.397,1.885
			c-4.398-0.628-20.732-6.909-26.387-16.963l0,0l-18.849-30.155l27.016,1.885l20.731,33.298
			C691.712,359.689,692.969,363.459,691.712,365.344z M724.382,367.857c-0.629,1.256-3.143,1.885-4.398,1.885
			c-4.396-0.629-20.731-6.911-26.387-16.963l-18.849-30.156l27.017,1.885l20.731,33.297l0,0l0,0
			C725.01,362.203,725.638,365.344,724.382,367.857z M757.051,370.37c-0.628,1.257-3.142,1.885-4.397,1.885
			c-4.396-0.628-20.731-6.911-26.387-16.963l0,0l-18.848-30.156l27.015,1.886l20.732,33.298
			C757.051,364.716,757.68,368.485,757.051,370.37z M789.721,372.883c-0.629,1.257-3.143,1.885-4.398,1.885
			c-4.396-0.628-20.731-6.909-26.387-16.963l-18.848-30.155l27.016,1.885l20.732,33.298l0,0l0,0
			C789.721,367.229,790.977,370.998,789.721,372.883z M821.762,375.396c-0.629,1.257-3.143,1.885-4.397,1.885
			c-4.397-0.628-20.732-6.911-26.388-16.963l0,0l-18.848-30.156l27.016,1.885l20.732,33.297
			C822.39,369.742,823.019,373.512,821.762,375.396z M854.431,377.281c-0.628,1.257-3.142,1.885-4.397,1.885
			c-4.396-0.628-20.731-6.911-26.387-16.963l-18.848-30.156l27.015,1.885l20.733,33.297l0,0l0,0
			C854.431,371.627,855.688,375.396,854.431,377.281z M886.473,379.794c-0.629,1.257-3.143,1.885-4.398,1.885
			c-4.396-0.628-20.731-6.911-26.387-16.963l0,0L836.84,334.56l27.016,1.886l20.732,33.298
			C886.473,374.14,887.729,377.909,886.473,379.794z M919.142,382.936c-0.628,1.258-3.142,1.886-4.397,1.886
			c-4.397-0.628-20.731-6.911-26.387-16.963l-18.848-30.156l27.015,1.885l20.732,33.297l0,0l0,0
			C919.77,377.281,920.399,380.423,919.142,382.936z M951.811,385.448c-0.628,1.257-3.141,1.885-4.396,1.885
			c-4.397-0.628-20.732-6.91-26.388-16.963l0,0l-18.848-30.156l27.015,1.885l20.733,33.299
			C951.811,379.794,953.068,383.562,951.811,385.448z M984.481,387.962c-0.628,1.256-3.142,1.885-4.396,1.885
			c-4.398-0.629-20.733-6.911-26.389-16.964l-18.848-30.156l26.388,1.886l20.732,33.298l0,0l0,0
			C985.11,381.679,985.738,385.448,984.481,387.962z M1017.151,390.475c-0.629,1.258-3.142,1.886-4.398,1.886
			c-4.396-0.628-20.731-6.911-26.387-16.963l0,0l-18.848-30.156l27.016,1.885l20.732,33.297
			C1017.151,384.82,1017.779,387.962,1017.151,390.475z M1049.82,392.987c-0.628,1.257-3.142,1.885-4.396,1.885
			c-4.398-0.628-20.732-6.91-26.388-16.963l-18.848-30.156l27.015,1.885l20.732,33.298l0,0l0,0
			C1049.82,387.333,1051.075,391.103,1049.82,392.987z"/>
		<path fill="#393943" d="M594.331,357.177c-0.628,1.257-3.142,1.886-4.396,1.886c-4.398-0.629-20.733-6.911-26.388-16.964
			l-18.849-30.155l27.017,1.885l20.731,33.298l0,0l0,0C594.331,351.522,595.589,354.664,594.331,357.177z"/>
		<path fill="#393943" d="M626.372,359.689c-0.628,1.257-3.142,1.885-4.396,1.885c-4.398-0.628-20.732-6.91-26.387-16.963l0,0
			l-18.849-30.156l27.016,1.885l20.731,33.298C626.372,354.035,627.63,357.805,626.372,359.689z"/>
		<path fill="#393943" d="M659.043,362.203c-0.63,1.256-3.143,1.885-4.398,1.885c-4.396-0.629-20.732-6.911-26.387-16.963
			l-18.849-30.156l27.017,1.885l20.731,33.298l0,0l0,0C659.671,356.549,660.299,360.318,659.043,362.203z"/>
		<path fill="#393943" d="M691.712,364.716c-0.628,1.257-3.143,1.885-4.397,1.885c-4.398-0.628-20.732-6.91-26.387-16.963l0,0
			l-18.849-30.155l27.016,1.885l20.731,33.298C691.712,359.062,692.969,362.831,691.712,364.716z"/>
		<path fill="#393943" d="M724.382,367.229c-0.629,1.258-3.143,1.886-4.398,1.886c-4.396-0.628-20.731-6.91-26.387-16.963
			l-18.849-30.156l27.017,1.885l20.731,33.298l0,0l0,0C725.01,361.574,725.638,365.344,724.382,367.229z"/>
		<path fill="#393943" d="M757.051,369.742c-0.628,1.256-3.142,1.885-4.397,1.885c-4.396-0.629-20.731-6.911-26.387-16.963l0,0
			l-18.848-30.156l27.015,1.885l20.732,33.298C757.051,364.088,757.68,367.857,757.051,369.742z"/>
		<path fill="#393943" d="M789.721,372.255c-0.629,1.257-3.143,1.885-4.398,1.885c-4.396-0.628-20.731-6.911-26.387-16.963
			l-18.848-30.155l27.016,1.885l20.732,33.298l0,0l0,0C789.721,366.601,790.977,370.37,789.721,372.255z"/>
		<path fill="#393943" d="M821.762,375.396c-0.629,1.257-3.143,1.885-4.397,1.885c-4.397-0.628-20.732-6.911-26.388-16.963l0,0
			l-18.848-30.156l27.016,1.885l20.732,33.297C822.39,369.742,823.019,372.883,821.762,375.396z"/>
		<path fill="#393943" d="M853.803,377.281c-0.628,1.257-3.143,1.885-4.397,1.885c-4.397-0.628-20.732-6.911-26.387-16.963
			l-18.849-30.156l27.016,1.885l20.732,33.297l0,0l0,0C853.803,371.627,855.06,375.396,853.803,377.281z"/>
		<path fill="#393943" d="M885.844,380.423c-0.628,1.256-3.142,1.885-4.397,1.885c-4.396-0.629-20.731-6.91-26.387-16.964l0,0
			l-18.848-30.155l27.015,1.885l20.732,33.298C886.473,374.768,887.101,377.909,885.844,380.423z"/>
		<path fill="#393943" d="M919.142,382.936c-0.628,1.258-3.142,1.886-4.397,1.886c-4.397-0.628-20.731-6.911-26.387-16.963
			l-18.848-30.156l27.015,1.885l20.732,33.297l0,0l0,0C919.142,377.281,920.399,381.051,919.142,382.936z"/>
		<path fill="#393943" d="M951.183,385.448c-0.628,1.257-3.142,1.885-4.397,1.885c-4.397-0.628-20.731-6.91-26.387-16.963l0,0
			l-18.848-30.156l27.015,1.885l20.732,33.299C951.811,379.794,952.44,383.562,951.183,385.448z"/>
		<path fill="#393943" d="M984.481,387.962c-0.628,1.256-3.142,1.885-4.396,1.885c-4.398-0.629-20.733-6.911-26.389-16.964
			l-18.848-30.156l26.388,1.886l20.732,33.298l0,0l0,0C984.481,382.308,985.738,386.077,984.481,387.962z"/>
		<path fill="#393943" d="M1016.522,390.475c-0.628,1.258-3.141,1.886-4.396,1.886c-4.397-0.628-20.732-6.911-26.388-16.963l0,0
			L966.89,345.24l27.015,1.885l20.732,33.297C1016.522,384.82,1017.779,388.59,1016.522,390.475z"/>
		<path fill="#393943" d="M1049.192,392.987c-0.629,1.257-3.142,1.885-4.397,1.885c-4.397-0.628-20.732-6.91-26.388-16.963
			l-18.848-30.156l27.016,1.885l20.732,33.298l0,0l0,0C1049.82,387.333,1050.448,391.103,1049.192,392.987z"/>
	</g>
	<g>
		<path d="M1008.983,302.519"/>
		<path d="M1034.114,354.664l-0.629-0.629c-0.628-0.628-1.256-1.256-1.256-1.885l0,0l-18.848-30.156l-1.258-4.397h-1.257l0,0
			l-32.669-2.513l0,0l-32.042-2.514l0,0l-37.694-3.143v0.629l-27.644-2.514l0,0l-32.67-2.513l0,0l-32.041-2.514l0,0l-37.695-3.142
			l0.628,0.628l-27.015-2.513l0,0l-32.67-2.513l0,0l-32.041-2.513l0,0l-37.695-3.142v0.628l-27.644-2.513l0,0l-32.67-2.513l0,0
			l-32.041-2.513l0,0l-37.695-3.142l23.245,37.695c6.283,11.31,24.503,18.849,30.157,18.849h0.628c3.142,0,6.282-1.257,8.167-3.771
			c0.629-1.256,1.257-2.513,1.257-3.771c8.167,6.283,18.22,10.054,22.617,10.682h0.628c3.142,0,6.283-1.256,8.168-3.771
			c0.628-1.256,1.257-2.513,1.257-4.396c8.167,6.911,18.848,10.681,23.245,11.309h0.628c3.142,0,6.283-1.257,8.168-3.77
			c0.628-1.257,1.256-2.514,1.256-3.771c8.168,6.282,18.22,10.053,22.617,10.682h0.629c3.142,0,6.282-1.258,8.167-3.771
			c0.628-1.257,1.257-2.514,1.257-5.025c8.167,6.91,18.849,10.681,23.245,11.309h0.629c3.142,0,6.282-1.257,8.167-3.771
			c0.628-1.257,1.257-2.513,1.257-3.77c8.168,6.282,18.22,10.052,22.617,10.681h0.628c3.143,0,6.282-1.257,8.167-3.77
			c0.629-1.257,1.258-2.514,1.258-4.398c8.168,6.911,18.848,10.682,23.245,11.31h0.628c3.143,0,6.282-1.256,8.168-3.771
			c0.629-1.256,1.257-2.513,1.257-3.77c8.167,6.283,18.22,10.053,22.616,10.681h0.629c3.142,0,6.282-1.257,8.168-3.77
			c0.628-1.257,1.256-2.514,1.256-4.397c8.168,6.282,18.22,10.052,22.618,10.68h0.628c3.142,0,6.281-1.256,8.167-3.77
			c0.629-1.256,1.257-2.513,1.257-3.77c8.167,6.282,18.22,10.053,22.617,10.681h0.629c3.141,0,6.281-1.257,8.167-3.771
			c0.628-1.257,1.257-2.513,1.257-4.396c8.167,6.91,18.848,10.68,23.245,11.309h0.628c3.142,0,6.283-1.257,8.168-3.77
			c0.628-1.257,1.256-2.515,1.256-3.771c8.168,6.282,18.22,10.053,22.617,10.681h0.629c3.143,0,6.282-1.257,8.167-3.771
			c0.629-1.256,1.257-2.513,1.257-5.024c8.167,6.909,18.848,10.681,23.246,11.309h0.628c3.142,0,6.282-1.257,8.167-3.77
			c0.629-1.258,1.257-2.515,1.257-3.771c8.167,6.282,18.22,10.052,22.617,10.681h0.628c3.143,0,6.283-1.257,8.168-3.77
			c0.628-1.257,1.256-2.514,1.256-4.398c8.168,6.911,18.849,10.682,23.246,11.31h0.628c3.143,0,6.283-1.256,8.168-3.771
			c0.628-1.256,1.257-2.513,1.257-3.77l0,0L1034.114,354.664z M575.485,328.277c-0.628,1.256-3.142,1.885-4.396,1.885
			c-4.398-0.629-20.733-6.911-26.389-16.963l-18.848-30.157l27.016,1.885l20.732,33.297l0,0l0,0
			C575.485,322.623,576.74,326.393,575.485,328.277z M607.526,331.418c-0.628,1.257-3.142,1.885-4.396,1.885
			c-4.398-0.628-20.732-6.91-26.388-16.963l0,0l-18.849-30.156l26.388,1.885l20.732,33.298
			C608.154,325.136,608.781,328.905,607.526,331.418z M640.823,333.932c-0.628,1.257-3.142,1.886-4.396,1.886
			c-4.398-0.629-20.733-6.911-26.389-16.964l-18.848-30.157l27.016,1.885l20.732,33.297l0,0l0,0
			C640.823,328.277,641.45,332.047,640.823,333.932z M672.865,336.444c-0.628,1.257-3.142,1.885-4.396,1.885
			c-4.398-0.628-20.732-6.911-26.388-16.963l0,0l-18.848-30.157l27.015,1.885l20.732,33.298
			C672.865,330.79,674.12,334.56,672.865,336.444z M705.533,338.957c-0.629,1.257-3.142,1.885-4.397,1.885
			c-4.397-0.628-20.732-6.91-26.388-16.963l-18.848-30.156l27.016,1.885l20.732,33.298l0,0l0,0
			C706.161,333.303,706.789,336.444,705.533,338.957z M738.202,341.471c-0.628,1.256-3.142,1.886-4.396,1.886
			c-4.398-0.63-20.732-6.911-26.387-16.964l0,0l-18.85-30.157l27.017,1.885l20.731,33.297
			C738.202,335.816,739.46,339.586,738.202,341.471z M770.872,343.983c-0.629,1.257-3.142,1.885-4.397,1.885
			c-4.397-0.628-20.732-6.911-26.387-16.963l-18.849-30.156l26.388,1.885l20.731,33.298l0,0l0,0
			C771.5,338.329,772.129,342.099,770.872,343.983z M802.913,346.496c-0.629,1.257-3.142,1.885-4.397,1.885
			c-4.397-0.628-20.732-6.91-26.387-16.963l0,0l-18.849-30.156l27.017,1.886l20.731,33.298
			C803.541,340.842,804.17,344.611,802.913,346.496z M835.582,348.381c-0.628,1.257-3.141,1.885-4.396,1.885
			c-4.396-0.628-20.732-6.909-26.387-16.963l-18.849-30.155l27.016,1.885l20.731,33.298l0,0l0,0
			C835.582,342.727,836.84,346.496,835.582,348.381z M867.625,351.522c-0.63,1.257-3.143,1.885-4.398,1.885
			c-4.396-0.628-20.732-6.911-26.387-16.963l0,0l-18.849-30.156l27.016,1.885l20.732,33.298
			C868.252,345.24,868.881,349.01,867.625,351.522z M900.293,354.035c-0.627,1.257-3.142,1.885-4.396,1.885
			c-4.398-0.628-20.732-6.91-26.387-16.963l-18.849-30.156l27.016,1.885l20.731,33.299l0,0l0,0
			C900.922,348.381,901.551,352.15,900.293,354.035z M932.963,356.549c-0.629,1.256-3.142,1.885-4.397,1.885
			c-4.396-0.629-20.731-6.91-26.387-16.963l0,0l-18.849-30.155l27.016,1.885l20.731,33.297
			C932.963,350.895,934.22,354.664,932.963,356.549z M965.633,359.062c-0.629,1.257-3.143,1.885-4.397,1.885
			c-4.397-0.628-20.732-6.911-26.388-16.963L916,313.827l27.016,1.885l20.732,33.298l0,0l0,0
			C966.261,353.407,966.89,356.549,965.633,359.062z M998.303,361.574c-0.629,1.257-3.143,1.885-4.398,1.885
			c-4.396-0.628-20.731-6.91-26.387-16.963l0,0L948.67,316.34l27.015,1.885l20.733,33.299
			C998.303,355.92,999.559,359.689,998.303,361.574z M1030.972,364.088c-0.628,1.256-3.142,1.885-4.397,1.885
			c-4.397-0.629-20.731-6.91-26.387-16.963l-18.848-30.156l27.015,1.886l20.732,33.297l0,0l0,0
			C1030.972,358.434,1032.229,362.203,1030.972,364.088z"/>
		<path fill="#393943" d="M575.485,328.277c-0.628,1.256-3.142,1.885-4.396,1.885c-4.398-0.629-20.733-6.911-26.389-16.963
			l-18.848-30.157l27.016,1.885l20.732,33.297l0,0l0,0C575.485,322.623,576.74,326.393,575.485,328.277z"/>
		<path fill="#393943" d="M607.526,330.79c-0.628,1.257-3.142,1.885-4.396,1.885c-4.398-0.628-20.732-6.911-26.388-16.963l0,0
			l-18.849-30.157l27.016,1.885l20.732,33.298C608.154,325.136,608.781,328.905,607.526,330.79z"/>
		<path fill="#393943" d="M640.196,333.303c-0.629,1.257-3.142,1.886-4.397,1.886c-4.397-0.629-20.732-6.91-26.388-16.964
			l-18.848-30.156l27.015,1.885l20.733,33.298l0,0l0,0C640.823,327.648,641.45,331.418,640.196,333.303z"/>
		<path fill="#393943" d="M672.865,335.816c-0.628,1.256-3.142,1.885-4.396,1.885c-4.398-0.629-20.732-6.911-26.388-16.963l0,0
			l-18.848-30.157l27.015,1.885l20.732,33.297C672.865,330.162,674.12,333.932,672.865,335.816z"/>
		<path fill="#393943" d="M705.533,338.329c-0.629,1.257-3.142,1.885-4.397,1.885c-4.397-0.628-20.732-6.911-26.388-16.963
			l-18.848-30.157l27.016,1.885l20.732,33.298l0,0l0,0C706.161,332.675,706.789,336.444,705.533,338.329z"/>
		<path fill="#393943" d="M738.202,340.842c-0.628,1.257-3.142,1.885-4.396,1.885c-4.398-0.628-20.732-6.909-26.387-16.963l0,0
			l-18.85-30.156l27.017,1.885l20.731,33.298C738.202,335.188,739.46,338.957,738.202,340.842z"/>
		<path fill="#393943" d="M770.872,343.983c-0.629,1.257-3.142,1.885-4.397,1.885c-4.397-0.628-20.732-6.911-26.387-16.963
			l-18.849-30.156l26.388,1.885l20.731,33.298l0,0l0,0C770.872,337.701,772.129,341.471,770.872,343.983z"/>
		<path fill="#393943" d="M802.913,346.496c-0.629,1.257-3.142,1.885-4.397,1.885c-4.397-0.628-20.732-6.91-26.387-16.963l0,0
			l-18.849-30.156l27.017,1.886l20.731,33.298C803.541,340.842,804.17,343.983,802.913,346.496z"/>
		<path fill="#393943" d="M834.954,349.01c-0.629,1.256-3.142,1.885-4.396,1.885c-4.398-0.629-20.733-6.91-26.388-16.963
			l-18.849-30.156l27.017,1.885l20.731,33.298l0,0l0,0C835.582,342.727,836.212,346.496,834.954,349.01z"/>
		<path fill="#393943" d="M867.625,351.522c-0.63,1.257-3.143,1.885-4.398,1.885c-4.396-0.628-20.732-6.911-26.387-16.963l0,0
			l-18.849-30.156l27.016,1.885l20.732,33.298C867.625,345.868,868.881,349.01,867.625,351.522z"/>
		<path fill="#393943" d="M900.293,354.035c-0.627,1.257-3.142,1.885-4.396,1.885c-4.398-0.628-20.732-6.91-26.387-16.963
			l-18.849-30.156l27.016,1.885l20.731,33.299l0,0l0,0C900.293,348.381,901.551,352.15,900.293,354.035z"/>
		<path fill="#393943" d="M932.334,356.549c-0.627,1.256-3.142,1.885-4.396,1.885c-4.398-0.629-20.732-6.91-26.387-16.963l0,0
			l-18.849-30.155l27.016,1.885l20.731,33.297C932.963,350.895,933.592,354.664,932.334,356.549z"/>
		<path fill="#393943" d="M965.633,359.062c-0.629,1.257-3.143,1.885-4.397,1.885c-4.397-0.628-20.732-6.911-26.388-16.963
			L916,313.827l27.016,1.885l20.732,33.298l0,0l0,0C965.633,353.407,966.89,357.177,965.633,359.062z"/>
		<path fill="#393943" d="M997.674,361.574c-0.628,1.257-3.142,1.885-4.397,1.885c-4.396-0.628-20.731-6.91-26.387-16.963l0,0
			l-18.849-30.156l27.016,1.885l20.732,33.299C998.303,355.92,998.931,359.689,997.674,361.574z"/>
		<path fill="#393943" d="M1030.344,364.088c-0.629,1.256-3.143,1.885-4.398,1.885c-4.396-0.629-20.731-6.91-26.387-16.963
			l-18.848-30.156l27.016,1.886l20.732,33.297l0,0l0,0C1030.972,358.434,1031.6,362.203,1030.344,364.088z"/>
	</g>
	<g>
		<path d="M978.825,265.451"/>
		<path d="M1003.957,318.225l-0.63-0.628c-0.628-0.628-1.256-1.257-1.256-1.885l0,0l-18.849-30.157l-1.256-4.397h-1.258l0,0
			l-32.668-2.513l0,0L916,276.131l0,0l-37.695-3.141v0.628l-27.644-2.513l0,0l-32.67-2.513l0,0l-32.041-2.513l0,0l-37.694-3.141
			l0.628,0.628l-27.017-2.513l0,0l-32.669-2.513l0,0l-32.041-2.513l0,0l-37.694-3.142v0.628L591.819,251l0,0l-32.67-2.513l0,0
			l-32.041-2.513l0,0l-37.695-3.142l23.245,37.696c6.283,11.309,24.502,18.848,30.156,18.848h0.629c3.142,0,6.282-1.256,8.167-3.77
			c0.629-1.256,1.257-2.513,1.257-3.77c8.167,6.283,18.221,10.052,22.617,10.681h0.628c3.143,0,6.283-1.257,8.168-3.77
			c0.628-1.257,1.256-2.513,1.256-4.398c8.168,6.911,18.849,10.68,23.246,11.308h0.628c3.143,0,6.283-1.256,8.168-3.771
			c0.628-1.256,1.257-2.513,1.257-3.769c8.168,6.283,18.22,10.052,22.616,10.68h0.629c3.142,0,6.282-1.257,8.167-3.77
			c0.629-1.257,1.258-2.514,1.258-5.026c8.167,6.911,18.848,10.681,23.244,11.309h0.629c3.142,0,6.282-1.256,8.168-3.77
			c0.628-1.256,1.256-2.513,1.256-3.77c8.168,6.282,18.22,10.053,22.618,10.681h0.628c3.142,0,6.281-1.257,8.167-3.771
			c0.629-1.257,1.257-2.513,1.257-4.396c8.167,6.91,18.848,10.681,23.245,11.309h0.629c3.141,0,6.282-1.257,8.167-3.77
			c0.628-1.257,1.257-2.514,1.257-3.771c8.167,6.282,18.22,10.053,22.617,10.682h0.628c3.142,0,6.283-1.257,8.168-3.771
			c0.628-1.257,1.256-2.514,1.256-4.397c8.168,6.282,18.22,10.053,22.617,10.681h0.629c3.141,0,6.282-1.257,8.167-3.77
			c0.628-1.258,1.257-2.514,1.257-3.771c8.167,6.282,18.219,10.052,22.617,10.681h0.628c3.142,0,6.283-1.257,8.168-3.77
			c0.628-1.257,1.256-2.514,1.256-4.398c8.168,6.911,18.85,10.682,23.246,11.31h0.628c3.143,0,6.283-1.256,8.168-3.771
			c0.628-1.256,1.256-2.513,1.256-3.77c8.168,6.283,18.221,10.053,22.617,10.681h0.629c3.142,0,6.282-1.257,8.167-3.77
			c0.628-1.257,1.257-2.514,1.257-5.026c8.168,6.911,18.849,10.681,23.245,11.31h0.63c3.141,0,6.281-1.257,8.166-3.771
			c0.63-1.256,1.258-2.513,1.258-3.77c8.167,6.282,18.22,10.053,22.617,10.681h0.627c3.143,0,6.283-1.257,8.169-3.771
			c0.628-1.257,1.256-2.513,1.256-4.396c8.168,6.91,18.848,10.68,23.246,11.309h0.628c3.142,0,6.281-1.257,8.167-3.77
			c0.629-1.257,1.257-2.514,1.257-3.771l0,0L1003.957,318.225z M545.327,291.838c-0.629,1.256-3.142,1.885-4.397,1.885
			c-4.397-0.628-20.732-6.911-26.387-16.963l-18.849-30.156l27.017,1.885l20.731,33.297l0,0l0,0
			C545.327,286.184,546.584,289.953,545.327,291.838z M577.368,294.979c-0.628,1.257-3.142,1.885-4.396,1.885
			c-4.398-0.628-20.733-6.911-26.388-16.963l0,0l-18.849-30.156l27.017,1.885l20.731,33.298
			C577.996,288.697,578.625,292.466,577.368,294.979z M610.666,297.492c-0.629,1.257-3.142,1.885-4.397,1.885
			c-4.397-0.628-20.732-6.911-26.387-16.963l-18.849-30.156l27.017,1.885l20.731,33.297l0,0l0,0
			C610.666,291.838,611.923,295.607,610.666,297.492z M642.707,300.005c-0.628,1.257-3.142,1.885-4.396,1.885
			c-4.398-0.628-20.733-6.91-26.387-16.961l0,0l-18.85-30.157l27.017,1.885l20.731,33.298
			C642.707,294.351,643.965,298.121,642.707,300.005z M676.006,302.519c-0.629,1.257-3.143,1.886-4.398,1.886
			c-4.396-0.629-20.732-6.911-26.387-16.963l-18.849-30.156l27.017,1.885l20.731,33.298l0,0l0,0
			C676.006,296.864,676.634,300.005,676.006,302.519z M708.047,305.031c-0.628,1.257-3.143,1.885-4.397,1.885
			c-4.397-0.628-20.732-6.911-26.388-16.963l0,0l-18.849-30.156l27.017,1.885l20.731,33.297
			C708.047,299.377,709.304,303.146,708.047,305.031z M740.716,307.544c-0.628,1.257-3.142,1.885-4.397,1.885
			c-4.396-0.628-20.731-6.91-26.387-16.962l-18.848-30.157l27.015,1.885l20.732,33.298l0,0l0,0
			C741.345,301.89,741.973,305.659,740.716,307.544z M773.386,310.058c-0.628,1.258-3.143,1.886-4.397,1.886
			c-4.397-0.628-20.732-6.911-26.387-16.963l0,0l-18.849-30.156l27.016,1.885l20.731,33.297
			C773.386,304.403,774.643,308.173,773.386,310.058z M805.427,311.942c-0.628,1.257-3.143,1.885-4.397,1.885
			c-4.397-0.628-20.731-6.911-26.387-16.963l-18.848-30.156l27.015,1.885l20.731,33.297l0,0l0,0
			C805.427,306.288,806.684,310.058,805.427,311.942z M837.468,314.455c-0.628,1.257-3.142,1.885-4.397,1.885
			c-4.396-0.628-20.731-6.91-26.387-16.963l0,0l-18.848-30.156l27.015,1.885l20.731,33.298
			C838.097,308.801,838.725,312.57,837.468,314.455z M870.766,317.597c-0.628,1.257-3.141,1.886-4.397,1.886
			c-4.396-0.629-20.731-6.911-26.387-16.964l-18.848-30.157l27.015,1.885l20.732,33.297l0,0l0,0
			C870.766,311.942,872.023,315.084,870.766,317.597z M902.807,320.109c-0.628,1.257-3.141,1.885-4.397,1.885
			c-4.396-0.628-20.731-6.91-26.387-16.963l0,0l-18.848-30.156l27.015,1.885l20.732,33.298
			C902.807,314.455,904.064,318.225,902.807,320.109z M936.105,322.623c-0.628,1.256-3.142,1.885-4.397,1.885
			c-4.397-0.629-20.731-6.911-26.387-16.964l-18.848-30.156l27.015,1.885l20.732,33.297l0,0l0,0
			C936.105,316.969,936.733,320.109,936.105,322.623z M968.146,325.136c-0.628,1.257-3.141,1.886-4.397,1.886
			c-4.396-0.629-20.731-6.911-26.387-16.964l0,0l-18.848-30.157l27.015,1.885l20.733,33.298
			C968.146,319.481,969.403,323.251,968.146,325.136z M1000.816,327.648c-0.628,1.257-3.142,1.885-4.397,1.885
			c-4.397-0.628-20.732-6.91-26.388-16.963l-18.848-30.156l27.016,1.885l20.732,33.298l0,0l0,0
			C1001.444,321.994,1002.073,325.764,1000.816,327.648z"/>
		<path fill="#393943" d="M545.327,291.838c-0.629,1.256-3.142,1.885-4.397,1.885c-4.397-0.628-20.732-6.911-26.387-16.963
			l-18.849-30.156l27.017,1.885l20.731,33.297l0,0l0,0C545.327,286.184,546.584,289.325,545.327,291.838z"/>
		<path fill="#393943" d="M577.368,294.351c-0.628,1.256-3.142,1.885-4.396,1.885c-4.398-0.628-20.733-6.911-26.388-16.963l0,0
			l-18.849-30.157l27.017,1.885l20.731,33.298C577.996,288.697,578.625,292.466,577.368,294.351z"/>
		<path fill="#393943" d="M610.666,296.864c-0.629,1.256-3.142,1.885-4.397,1.885c-4.397-0.628-20.732-6.911-26.387-16.963
			l-18.849-30.156l27.017,1.885l20.731,33.298l0,0l0,0C610.666,291.209,611.923,294.979,610.666,296.864z"/>
		<path fill="#393943" d="M642.707,299.377c-0.628,1.257-3.142,1.885-4.396,1.885c-4.398-0.628-20.733-6.911-26.387-16.963l0,0
			l-18.85-30.156l27.017,1.885l20.731,33.297C642.707,293.723,643.965,297.492,642.707,299.377z"/>
		<path fill="#393943" d="M675.377,301.89c-0.629,1.258-3.142,1.886-4.397,1.886c-4.396-0.628-20.731-6.91-26.387-16.962
			l-18.849-30.157l27.016,1.885l20.731,33.298l0,0l0,0C676.006,296.236,676.634,300.005,675.377,301.89z"/>
		<path fill="#393943" d="M708.047,304.403c-0.628,1.256-3.143,1.885-4.397,1.885c-4.397-0.629-20.732-6.911-26.388-16.963l0,0
			l-18.849-30.156l27.017,1.885l20.731,33.298C708.047,298.749,709.304,302.519,708.047,304.403z"/>
		<path fill="#393943" d="M740.716,307.544c-0.628,1.257-3.142,1.885-4.397,1.885c-4.396-0.628-20.731-6.91-26.387-16.962
			l-18.848-30.157l27.015,1.885l20.732,33.298l0,0l0,0C741.345,301.262,741.973,305.031,740.716,307.544z"/>
		<path fill="#393943" d="M773.386,310.058c-0.628,1.258-3.143,1.886-4.397,1.886c-4.397-0.628-20.732-6.911-26.387-16.963l0,0
			l-18.849-30.156l27.016,1.885l20.731,33.297C773.386,304.403,774.014,307.544,773.386,310.058z"/>
		<path fill="#393943" d="M804.799,312.57c-0.629,1.257-3.143,1.885-4.398,1.885c-4.396-0.628-20.731-6.91-26.387-16.963
			l-18.849-30.156l27.017,1.885l20.731,33.297l0,0l0,0C805.427,306.288,806.055,310.058,804.799,312.57z"/>
		<path fill="#393943" d="M837.468,315.084c-0.628,1.256-3.142,1.885-4.397,1.885c-4.396-0.629-20.731-6.911-26.387-16.964l0,0
			l-18.848-30.156l27.015,1.885l20.731,33.298C837.468,309.43,838.725,312.57,837.468,315.084z"/>
		<path fill="#393943" d="M870.138,317.597c-0.628,1.257-3.143,1.886-4.397,1.886c-4.397-0.629-20.732-6.911-26.388-16.964
			l-18.848-30.157l27.016,1.885l20.731,33.297l0,0l0,0C870.766,311.942,871.395,315.712,870.138,317.597z"/>
		<path fill="#393943" d="M902.179,320.109c-0.628,1.257-3.143,1.885-4.397,1.885c-4.397-0.628-20.731-6.91-26.387-16.963l0,0
			l-18.848-30.156l27.015,1.885l20.731,33.298C902.807,314.455,903.436,318.225,902.179,320.109z"/>
		<path fill="#393943" d="M935.477,322.623c-0.629,1.256-3.143,1.885-4.398,1.885c-4.396-0.629-20.731-6.911-26.387-16.964
			l-18.848-30.156l27.016,1.885l20.732,33.297l0,0l0,0C935.477,316.969,936.733,320.738,935.477,322.623z"/>
		<path fill="#393943" d="M967.518,325.136c-0.628,1.257-3.143,1.886-4.396,1.886c-4.398-0.629-20.733-6.911-26.389-16.964l0,0
			l-18.848-30.157l27.016,1.885l20.732,33.298C968.146,319.481,968.775,323.251,967.518,325.136z"/>
		<path fill="#393943" d="M1000.816,327.648c-0.628,1.257-3.142,1.885-4.397,1.885c-4.397-0.628-20.732-6.91-26.388-16.963
			l-18.848-30.156l27.016,1.885l20.732,33.298l0,0l0,0C1000.816,321.994,1002.073,325.764,1000.816,327.648z"/>
	</g>
	<g>
		<path d="M949.926,230.897"/>
		<path d="M975.057,283.042l-0.628-0.628c-0.629-0.628-1.257-1.256-1.257-1.885l0,0l-18.221-30.156l-1.257-4.398h-1.256l0,0
			l-32.67-3.141l0,0l-32.041-3.142l0,0l-37.695-3.141v0.628l-27.644-2.513l0,0l-32.669-3.141l0,0l-32.041-3.142l0,0l-37.696-3.141
			l0.629,0.628l-27.016-2.513l0,0l-32.669-3.142l0,0l-32.041-3.141l0,0l-37.696-3.141v0.628l-27.643-2.513l0,0l-32.67-3.142l0,0
			l-34.555-3.141l0,0l-37.695-3.142l23.246,37.696c6.281,11.309,23.873,18.848,30.155,19.476h0.628c3.143,0,6.283-1.257,8.168-3.77
			c0.628-1.257,1.256-2.513,1.256-3.77c8.169,6.282,18.221,10.68,22.617,10.68h0.629c3.142,0,6.282-1.256,8.167-3.77
			c0.628-1.256,1.258-2.513,1.258-4.398c8.167,6.911,18.848,10.681,23.245,11.309h0.628c3.142,0,6.282-1.257,8.168-3.77
			c0.628-1.256,1.257-2.513,1.257-3.77c8.167,6.283,18.219,10.681,22.617,10.681h0.628c3.142,0,6.281-1.256,8.167-3.77
			c0.629-1.256,1.257-2.513,1.257-5.026c8.167,6.911,18.848,10.68,23.246,11.309h0.628c3.142,0,6.282-1.257,8.167-3.77
			c0.629-1.257,1.257-2.513,1.257-3.77c8.167,6.282,18.22,10.68,22.617,10.68h0.628c3.142,0,6.283-1.256,8.168-3.77
			c0.628-1.256,1.256-2.513,1.256-4.398c8.168,6.911,18.848,10.681,23.246,11.309h0.628c3.142,0,6.282-1.257,8.167-3.77
			c0.629-1.256,1.257-2.513,1.257-3.77c8.168,6.283,18.22,10.681,22.617,10.681h0.629c3.141,0,6.282-1.256,8.167-3.77
			c0.628-1.256,1.257-2.513,1.257-4.398c8.167,6.283,18.22,10.681,22.617,10.681h0.628c3.143,0,6.282-1.257,8.168-3.77
			c0.628-1.257,1.256-2.513,1.256-3.77c8.168,6.282,18.221,10.68,22.617,10.68h0.629c3.142,0,6.282-1.256,8.167-3.77
			c0.628-1.256,1.258-2.513,1.258-4.398c8.166,6.911,18.848,10.681,23.244,11.309h0.629c3.142,0,6.282-1.256,8.168-3.77
			c0.627-1.256,1.256-2.513,1.256-3.77c8.168,6.283,18.22,10.681,22.617,10.681h0.629c3.142,0,6.282-1.257,8.168-3.77
			c0.628-1.257,1.256-2.513,1.256-5.026c8.168,6.911,18.848,10.681,23.246,11.309h0.628c3.142,0,6.281-1.256,8.167-3.77
			c0.629-1.256,1.257-2.513,1.257-3.77c8.167,6.283,18.22,10.681,22.617,10.681h0.628c3.142,0,6.283-1.256,8.168-3.77
			c0.628-1.256,1.257-2.513,1.257-4.398c8.167,6.911,18.848,10.68,23.245,11.309h0.629c3.141,0,6.282-1.257,8.167-3.77
			c0.628-1.256,1.257-2.513,1.257-3.77l0,0L975.057,283.042z M516.428,253.514c-0.628,1.256-3.142,1.885-4.397,1.885
			c-4.396-0.628-20.731-6.911-26.387-16.963l-18.22-30.157l27.016,2.513l20.104,33.298l0,0l0,0
			C517.057,247.86,517.685,251.629,516.428,253.514z M548.469,256.655c-0.628,1.257-3.142,1.885-4.397,1.885
			c-4.396-0.628-20.731-6.911-26.387-16.963l0,0l-18.22-30.156l27.016,2.513l20.104,33.297
			C549.098,251.001,549.726,254.143,548.469,256.655z M581.767,259.168c-0.628,1.256-3.141,1.885-4.397,1.885
			c-4.396-0.628-20.731-6.911-26.387-16.963l-18.22-30.156l27.015,2.513l20.104,33.298l0,0l0,0
			C581.767,253.514,583.024,257.284,581.767,259.168z M613.808,262.31c-0.628,1.257-3.142,1.885-4.397,1.885
			c-4.396-0.628-20.731-6.911-26.387-16.963l0,0l-18.22-30.156l27.016,2.513l20.104,33.297
			C614.437,256.655,615.065,260.425,613.808,262.31z M647.106,264.823c-0.628,1.256-3.141,1.885-4.396,1.885
			c-4.397-0.628-20.732-6.911-26.388-16.963l-18.848-30.785l27.015,2.513l20.104,33.297l0,0l0,0
			C647.106,259.168,648.363,262.938,647.106,264.823z M679.147,267.964c-0.628,1.257-3.141,1.885-4.396,1.885
			c-4.397-0.628-20.732-6.911-26.388-16.963l0,0l-18.22-30.156l27.016,2.513l20.104,33.297
			C679.147,262.31,680.404,265.451,679.147,267.964z M711.817,270.477c-0.628,1.257-3.142,1.885-4.396,1.885
			c-4.398-0.628-20.733-6.911-26.389-16.963l-18.219-30.156l27.015,2.513l20.104,33.298l0,0l0,0
			C712.445,264.823,713.073,268.592,711.817,270.477z M744.486,273.619c-0.628,1.256-3.141,1.885-4.396,1.885
			c-4.397-0.628-20.732-6.911-26.388-16.963l0,0l-18.22-30.156l27.017,2.513l20.104,33.297
			C744.486,267.964,745.115,271.734,744.486,273.619z M776.528,275.503c-0.629,1.256-3.142,1.885-4.397,1.885
			c-4.397-0.628-20.732-6.911-26.388-16.963l-18.22-30.156l27.016,2.513l20.104,33.297l0,0l0,0
			C776.528,269.849,777.782,273.619,776.528,275.503z M808.569,278.645c-0.629,1.256-3.142,1.885-4.397,1.885
			c-4.397-0.628-20.732-6.911-26.388-16.963l0,0l-18.219-30.156l27.015,2.513l20.104,33.298
			C809.197,272.99,809.823,276.76,808.569,278.645z M841.238,281.158c-0.628,1.256-3.141,1.885-4.396,1.885
			c-4.397-0.628-20.732-6.911-26.388-16.963l-18.22-30.156l27.015,2.513l20.104,33.298l0,0l0,0
			C841.865,275.503,842.493,279.273,841.238,281.158z M873.906,284.299c-0.628,1.256-3.142,1.885-4.396,1.885
			c-4.398-0.628-20.733-6.911-26.389-16.963l0,0l-18.219-30.156l27.016,2.513l20.104,33.298
			C873.906,278.645,875.164,282.414,873.906,284.299z M906.575,286.812c-0.628,1.256-3.141,1.885-4.396,1.885
			c-4.397-0.628-20.732-6.911-26.388-16.963l-18.22-30.156l27.017,2.513l20.104,33.298l0,0l0,0
			C907.205,281.158,907.832,284.927,906.575,286.812z M939.245,289.953c-0.629,1.256-3.142,1.885-4.397,1.885
			c-4.397-0.628-20.732-6.911-26.387-16.963l0,0l-18.22-30.156l27.016,2.513l20.104,33.298
			C939.245,284.299,940.502,287.44,939.245,289.953z M971.914,292.466c-0.628,1.256-3.141,1.885-4.396,1.885
			c-4.396-0.628-20.732-6.911-26.387-16.963l-18.221-30.157l27.017,2.513l20.104,33.298l0,0l0,0
			C971.914,286.812,973.172,290.582,971.914,292.466z"/>
		<path fill="#393943" d="M516.428,253.514c-0.628,1.256-3.142,1.885-4.397,1.885c-4.396-0.628-20.731-6.911-26.387-16.963
			l-18.22-30.157l27.016,2.513l20.104,33.298l0,0l0,0C517.057,247.231,517.685,251.001,516.428,253.514z"/>
		<path fill="#393943" d="M548.469,256.027c-0.628,1.256-3.142,1.885-4.397,1.885c-4.396-0.628-20.731-6.911-26.387-16.963l0,0
			l-18.22-30.157l27.016,2.513l20.104,33.298C549.098,250.373,549.726,254.143,548.469,256.027z"/>
		<path fill="#393943" d="M581.767,259.168c-0.628,1.256-3.141,1.885-4.397,1.885c-4.396-0.628-20.731-6.911-26.387-16.963
			l-18.22-30.156l27.015,2.513l20.104,33.298l0,0l0,0C581.767,253.514,583.024,257.284,581.767,259.168z"/>
		<path fill="#393943" d="M613.808,261.682c-0.628,1.256-3.142,1.885-4.397,1.885c-4.396-0.628-20.731-6.911-26.387-16.963l0,0
			l-18.22-30.157l27.016,2.513l20.104,33.298C614.437,256.027,615.065,259.797,613.808,261.682z"/>
		<path fill="#393943" d="M647.106,264.194c-0.628,1.257-3.141,1.885-4.396,1.885c-4.397-0.628-20.732-6.911-26.388-16.963
			l-18.848-30.156l27.015,2.513l20.104,33.297l0,0l0,0C647.106,258.54,647.735,262.31,647.106,264.194z"/>
		<path fill="#393943" d="M679.147,267.336c-0.628,1.256-3.141,1.885-4.396,1.885c-4.397-0.628-20.732-6.911-26.388-16.963l0,0
			l-18.22-30.157l27.016,2.513l20.104,33.298C679.147,261.682,680.404,265.451,679.147,267.336z"/>
		<path fill="#393943" d="M711.817,270.477c-0.628,1.257-3.142,1.885-4.396,1.885c-4.398-0.628-20.733-6.911-26.389-16.963
			l-18.219-30.156l27.015,2.513l20.104,33.298l0,0l0,0C712.445,264.823,713.073,267.964,711.817,270.477z"/>
		<path fill="#393943" d="M743.858,272.99c-0.628,1.256-3.142,1.885-4.396,1.885c-4.398-0.628-20.732-6.911-26.388-16.963l0,0
			l-18.22-30.157l27.015,2.513l19.478,32.669C744.486,267.336,745.115,271.105,743.858,272.99z"/>
		<path fill="#393943" d="M775.899,275.503c-0.628,1.256-3.141,1.885-4.396,1.885c-4.397-0.628-20.732-6.911-26.388-16.963
			l-18.22-30.156l27.016,2.513l20.104,33.297l0,0l0,0C776.528,269.849,777.156,273.619,775.899,275.503z"/>
		<path fill="#393943" d="M808.569,278.645c-0.629,1.256-3.142,1.885-4.397,1.885c-4.397-0.628-20.732-6.911-26.388-16.963l0,0
			l-18.219-30.156l27.015,2.513l20.104,33.298C808.569,272.99,809.823,276.76,808.569,278.645z"/>
		<path fill="#393943" d="M841.238,281.786c-0.628,1.257-3.141,1.885-4.396,1.885c-4.397-0.628-20.732-6.911-26.388-16.963
			l-18.22-30.156l27.015,2.513l20.104,33.297l0,0l0,0C841.238,276.131,842.493,279.273,841.238,281.786z"/>
		<path fill="#393943" d="M873.28,284.299c-0.629,1.256-3.142,1.885-4.397,1.885c-4.397-0.628-20.732-6.911-26.388-16.963l0,0
			l-18.22-30.156l27.017,2.513l20.104,33.298C873.906,278.645,874.534,282.414,873.28,284.299z"/>
		<path fill="#393943" d="M906.575,286.812c-0.628,1.256-3.141,1.885-4.396,1.885c-4.397-0.628-20.732-6.911-26.388-16.963
			l-18.22-30.156l27.017,2.513l20.104,33.298l0,0l0,0C906.575,281.158,907.832,284.927,906.575,286.812z"/>
		<path fill="#393943" d="M938.616,289.953c-0.628,1.256-3.141,1.885-4.396,1.885c-4.397-0.628-20.732-6.911-26.388-16.963l0,0
			l-18.22-30.156l27.017,2.513l20.104,33.298C939.245,284.299,939.873,288.068,938.616,289.953z"/>
		<path fill="#393943" d="M971.286,293.094c-0.628,1.257-3.142,1.885-4.396,1.885c-4.398-0.628-20.733-6.911-26.388-16.963
			l-18.22-30.156l27.016,2.513l20.104,33.297l0,0l0,0C971.914,286.812,972.543,290.582,971.286,293.094z"/>
	</g>
	<g>
		<path d="M921.655,205.138"/>
		<path d="M944.901,258.54l-0.629-0.628c-0.628-0.628-1.256-1.257-1.256-1.885l0,0l-17.592-30.785l-1.256-4.398h-1.258l0,0
			l-32.669-3.77l0,0l-32.042-3.77l0,0l-37.694-4.398v0.628l-27.645-3.142l0,0l-32.669-6.282l0,0l-32.041-3.77l0,0l-37.696-4.398
			l0.63,0.628l-27.017-3.142l0,0l-32.669-3.77l0,0l-32.67-4.397l0,0l-37.695-4.397v0.628l-27.644-3.142l0,0l-32.669-3.77l0,0
			l-32.041-3.77l0,0l-37.696-4.398l21.989,38.324c6.283,11.309,23.246,19.476,29.528,20.104h0.628c3.142,0,6.283-1.256,8.168-3.77
			c0.628-1.256,1.257-2.513,1.257-3.77c7.539,6.911,17.591,11.309,21.988,11.309h0.629c3.141,0,6.281-1.256,8.167-3.77
			c0.628-1.256,1.257-2.513,1.257-4.398c7.539,6.911,18.219,11.309,22.617,11.937h0.628c3.142,0,6.281-1.256,8.167-3.77
			c0.629-1.256,1.257-2.513,1.257-3.77c7.539,6.911,17.592,11.309,21.989,11.309h0.628c3.142,0,6.283-1.256,8.168-3.77
			c0.628-1.256,1.256-2.513,1.256-5.026c7.539,6.911,18.22,11.309,22.617,11.937h0.629c3.141,0,6.282-1.256,8.167-3.77
			c0.628-1.256,1.257-2.513,1.257-3.77c7.539,6.911,17.591,11.309,21.989,11.309h0.628c3.142,0,6.282-1.257,8.167-3.77
			c0.629-1.256,1.257-2.513,1.257-4.397c7.539,6.911,18.22,11.309,22.617,11.937h0.628c3.142,0,6.283-1.257,8.168-3.77
			c0.628-1.257,1.256-2.513,1.256-3.77c7.539,6.911,17.592,11.309,21.989,11.309h0.628c3.142,0,6.283-1.257,8.168-3.77
			c0.628-1.257,1.257-2.513,1.257-4.398c7.539,6.911,17.591,11.309,21.988,11.309h0.629c3.141,0,6.282-1.256,8.167-3.77
			c0.628-1.256,1.257-2.513,1.257-3.77c7.539,6.911,17.591,11.309,21.989,11.309h0.628c3.142,0,6.282-1.256,8.167-3.77
			c0.629-1.256,1.257-2.513,1.257-4.398c7.539,6.911,18.22,11.309,22.617,11.937h0.628c3.142,0,6.283-1.256,8.168-3.77
			c0.628-1.256,1.256-2.513,1.256-3.77c7.539,6.911,17.592,11.309,21.989,11.309h0.629c3.141,0,6.282-1.256,8.167-3.77
			c0.628-1.256,1.257-2.513,1.257-5.026c7.539,6.911,18.219,11.309,22.617,11.937h0.628c3.143,0,6.283-1.257,8.168-3.77
			c0.628-1.257,1.256-2.513,1.256-3.77c7.539,6.911,17.593,11.309,21.989,11.309h0.628c3.143,0,6.283-1.257,8.168-3.77
			c0.628-1.257,1.256-2.513,1.256-4.398c7.539,6.911,18.221,11.309,22.617,11.937h0.629c3.143,0,6.282-1.257,8.167-3.77
			c0.629-1.257,1.258-2.513,1.258-3.77l0,0V258.54L944.901,258.54z M487.529,213.934c-1.257,1.256-3.142,1.885-4.397,1.885
			c-4.397-0.628-20.732-7.54-25.759-18.22l-17.592-30.785l26.388,3.142l18.848,33.926l0,0l0,0
			C487.529,208.279,488.783,212.049,487.529,213.934z M519.57,217.704c-1.257,1.256-3.142,1.885-4.396,1.885
			c-4.398-0.628-20.733-7.539-25.759-18.22l0,0l-18.221-30.785l26.387,3.142l18.849,33.926
			C520.198,212.049,520.825,215.819,519.57,217.704z M552.239,222.101c-1.256,1.257-3.141,1.885-4.396,1.885
			c-4.397-0.628-20.732-7.539-25.759-18.219l-17.592-30.785l26.388,3.141l18.848,33.926l0,0l0,0
			C552.866,216.447,553.494,219.588,552.239,222.101z M584.281,225.871c-1.257,1.257-3.142,1.885-4.397,1.885
			c-4.397-0.628-20.732-7.539-25.76-18.219l0,0l-17.591-30.785l26.388,3.141l18.848,33.926
			C584.907,220.216,585.535,223.986,584.281,225.871z M616.948,229.641c-1.257,1.256-3.142,1.885-4.396,1.885
			c-4.398-0.628-20.732-7.54-25.759-18.22L569.2,182.521l26.389,3.141l18.848,33.926l0,0l0,0
			C617.576,223.986,618.205,227.755,616.948,229.641z M648.99,233.41c-1.256,1.256-3.141,1.885-4.396,1.885
			c-4.397-0.628-20.732-7.54-25.759-18.22l0,0l-17.592-30.785l26.388,3.141l18.848,33.926
			C649.618,227.755,650.875,231.525,648.99,233.41z M682.287,237.18c-1.257,1.256-3.142,1.885-4.396,1.885
			c-4.398-0.628-20.732-7.539-25.759-18.22l-17.591-30.785l26.387,3.141l18.848,33.926l0,0l0,0
			C682.287,231.525,683.545,235.295,682.287,237.18z M714.328,241.577c-1.256,1.257-3.141,1.885-4.396,1.885
			c-4.397-0.628-20.732-7.539-25.759-18.219l0,0l-18.221-31.413l26.388,3.141l18.849,33.926
			C714.957,235.295,715.586,239.064,714.328,241.577z M746.37,244.719c-1.257,1.256-3.142,1.885-4.397,1.885
			c-4.397-0.628-20.732-7.539-25.759-18.22l-17.592-30.785l26.388,3.141l18.848,33.926l0,0l0,0
			C746.998,239.064,747.627,242.206,746.37,244.719z M778.411,248.488c-1.257,1.256-3.142,1.885-4.397,1.885
			c-4.397-0.628-20.732-7.539-25.758-18.22l0,0l-17.593-30.785l26.388,3.141l18.848,33.926
			C779.039,242.834,779.668,246.604,778.411,248.488z M811.08,252.258c-1.257,1.256-3.142,1.885-4.396,1.885
			c-4.398-0.628-20.732-7.539-25.759-18.22l-17.591-30.785l26.387,3.141l18.848,33.926l0,0l0,0
			C811.709,246.604,812.338,250.373,811.08,252.258z M843.121,256.027c-1.256,1.256-3.141,1.885-4.396,1.885
			c-4.397-0.628-20.732-7.539-25.759-18.22l0,0l-17.591-30.785l26.387,3.142l18.848,33.926
			C843.75,250.373,844.379,254.143,843.121,256.027z M876.42,259.797c-1.256,1.256-3.142,1.885-4.397,1.885
			c-4.397-0.628-20.731-7.539-25.759-18.22l-17.592-30.785l26.388,3.142l18.848,33.926l0,0l0,0
			C876.42,254.143,877.677,257.912,876.42,259.797z M908.461,264.194c-1.256,1.257-3.142,1.885-4.397,1.885
			c-4.397-0.628-20.731-7.539-25.759-18.219l0,0l-17.591-30.785l26.387,3.141l18.848,33.926
			C909.09,257.912,909.718,261.682,908.461,264.194z M941.131,267.964c-1.258,1.257-3.143,1.885-4.398,1.885
			c-4.396-0.628-20.732-7.539-25.758-18.219l-17.592-30.785l26.387,3.141l18.848,33.926l0,0l0,0
			C941.759,262.31,942.387,266.079,941.131,267.964z"/>
		<path fill="#393943" d="M487.529,213.306c-1.257,1.256-3.142,1.885-4.397,1.885c-4.397-0.628-20.732-7.539-25.759-18.22
			l-17.592-30.784l26.388,3.141l18.848,33.926l0,0l0,0C487.529,207.651,488.783,211.421,487.529,213.306z"/>
		<path fill="#393943" d="M519.57,217.704c-1.257,1.256-3.142,1.885-4.396,1.885c-4.398-0.628-20.733-7.539-25.759-18.22l0,0
			l-18.221-31.413l26.387,3.141l18.849,33.926C520.198,212.049,520.825,215.19,519.57,217.704z"/>
		<path fill="#393943" d="M552.239,221.473c-1.256,1.256-3.141,1.885-4.396,1.885c-4.397-0.628-20.732-7.539-25.759-18.22
			l-17.592-30.785l26.388,3.142l18.848,33.926l0,0l0,0C552.866,215.819,553.494,219.588,552.239,221.473z"/>
		<path fill="#393943" d="M584.281,225.243c-1.257,1.256-3.142,1.885-4.397,1.885c-4.397-0.628-20.732-7.539-25.76-18.22l0,0
			l-17.591-30.785l26.388,3.142l18.848,33.926C584.907,219.588,585.535,223.358,584.281,225.243z"/>
		<path fill="#393943" d="M616.948,229.012c-1.257,1.256-3.142,1.885-4.396,1.885c-4.398-0.628-20.732-7.539-25.759-18.22
			L569.2,181.892l26.389,3.142l18.848,33.926l0,0l0,0C617.576,223.358,618.205,227.127,616.948,229.012z"/>
		<path fill="#393943" d="M648.99,232.782c-1.256,1.256-3.141,1.885-4.396,1.885c-4.397-0.628-20.732-7.539-25.759-18.22l0,0
			l-17.592-30.785l26.388,3.142l18.848,33.926C649.618,227.127,650.246,230.897,648.99,232.782z"/>
		<path fill="#393943" d="M682.287,237.18c-1.257,1.256-3.142,1.885-4.396,1.885c-4.398-0.628-20.732-7.539-25.759-18.22
			l-17.591-30.785l26.387,3.141l18.848,33.926l0,0l0,0C682.287,231.525,683.545,234.667,682.287,237.18z"/>
		<path fill="#393943" d="M714.328,240.949c-1.256,1.256-3.141,1.885-4.396,1.885c-4.397-0.628-20.732-7.539-25.759-18.22l0,0
			l-18.221-30.785l26.388,3.141l18.849,33.926C714.328,235.295,715.586,239.064,714.328,240.949z"/>
		<path fill="#393943" d="M745.741,244.719c-1.257,1.256-3.142,1.885-4.396,1.885c-4.398-0.628-20.732-7.539-25.759-18.22
			l-17.593-30.785l26.389,3.141l18.848,33.926l0,0l0,0C746.37,239.064,746.998,242.834,745.741,244.719z"/>
		<path fill="#393943" d="M778.411,248.488c-1.257,1.256-3.142,1.885-4.397,1.885c-4.397-0.628-20.732-7.539-25.758-18.22l0,0
			l-17.593-30.785l26.388,3.141l18.848,33.926C778.411,242.834,779.668,246.604,778.411,248.488z"/>
		<path fill="#393943" d="M811.08,252.258c-1.257,1.256-3.142,1.885-4.396,1.885c-4.398-0.628-20.732-7.539-25.759-18.22
			l-17.591-30.785l26.387,3.141l18.848,33.926l0,0l0,0C811.08,246.604,812.338,250.373,811.08,252.258z"/>
		<path fill="#393943" d="M843.121,256.655c-1.256,1.257-3.141,1.885-4.396,1.885c-4.397-0.628-20.732-7.539-25.759-18.219l0,0
			l-17.591-30.785l26.387,3.141l18.848,33.926C843.75,251.001,844.379,254.143,843.121,256.655z"/>
		<path fill="#393943" d="M875.791,259.797c-1.257,1.256-3.142,1.885-4.396,1.885c-4.398-0.628-20.732-7.539-25.759-18.22
			l-17.592-30.785l26.387,3.142l18.848,33.926l0,0l0,0C876.42,254.143,877.049,257.912,875.791,259.797z"/>
		<path fill="#393943" d="M907.832,264.194c-1.257,1.257-3.142,1.885-4.396,1.885c-4.398-0.628-20.732-7.539-25.759-18.219l0,0
			l-17.592-30.785l26.388,3.141l18.848,33.926C908.461,258.54,909.09,262.31,907.832,264.194z"/>
		<path fill="#393943" d="M940.502,267.964c-1.256,1.257-3.142,1.885-4.397,1.885c-4.397-0.628-20.731-7.539-25.759-18.219
			l-17.591-30.785l26.387,3.141l18.848,33.926l0,0l0,0C941.131,262.31,941.759,266.079,940.502,267.964z"/>
	</g>
	<g>
		<path d="M888.358,168.071"/>
		<path d="M910.346,222.101l-0.628-0.628c-0.628-0.628-1.257-1.257-1.257-1.885l0,0l-16.963-31.413l-1.257-4.398h-1.257l0,0
			l-32.67-4.397l0,0l-32.041-4.398l0,0l-37.695-5.026v0.628l-27.644-3.77l0,0l-32.669-4.398l0,0l-32.042-4.397l0,0l-37.695-5.026
			l0.629,0.628l-27.016-3.77l0,0l-32.669-4.398l0,0l-32.042-4.398l0,0l-37.695-5.026v0.628l-27.643-3.77l0,0l-32.042-8.167l0,0
			l-32.041-4.398l0,0l-37.695-5.026l21.361,38.952c5.652,11.937,23.245,20.104,28.898,20.732h0.628c3.143,0,6.283-1.256,8.168-3.77
			c0.628-1.256,1.257-2.513,1.257-3.77c7.539,6.911,17.592,11.309,21.988,11.937h0.628c3.143,0,6.283-1.257,8.168-3.77
			c0.628-1.257,1.257-2.513,1.257-4.398c7.539,6.911,18.22,11.937,22.617,12.565h0.628c3.143,0,6.282-1.256,8.167-3.77
			c0.63-1.256,1.258-2.513,1.258-3.77c7.539,6.911,17.591,11.309,21.988,11.937h0.628c3.143,0,6.282-1.256,8.167-3.77
			c0.63-1.256,1.258-2.513,1.258-5.026c7.539,6.911,18.22,11.937,22.616,12.565h0.628c3.143,0,6.283-1.256,8.169-3.77
			c0.628-1.256,1.257-2.513,1.257-3.77c7.539,6.911,17.591,11.309,21.987,11.937h0.63c3.141,0,6.281-1.257,8.167-3.77
			c0.628-1.257,1.257-2.513,1.257-4.398c7.539,6.911,18.22,11.937,22.617,12.565h0.628c3.142,0,6.282-1.256,8.168-3.77
			c0.628-1.256,1.256-2.513,1.256-3.77c7.539,6.911,17.592,11.309,21.989,11.937h0.628c3.142,0,6.282-1.256,8.168-3.77
			c0.628-1.256,1.256-2.513,1.256-4.398c7.539,6.911,17.592,11.309,21.989,11.937h0.628c3.142,0,6.282-1.256,8.168-3.77
			c0.628-1.256,1.257-2.513,1.257-3.77c7.539,6.911,17.591,11.309,21.988,11.937h0.629c3.141,0,6.281-1.257,8.167-3.77
			c0.628-1.257,1.257-2.513,1.257-4.398c7.539,6.911,18.219,11.937,22.617,12.565h0.628c3.142,0,6.283-1.256,8.168-3.77
			c0.628-1.256,1.256-2.513,1.256-3.77c7.539,6.911,17.592,11.309,21.989,11.937h0.628c3.142,0,6.283-1.256,8.168-3.77
			c0.628-1.256,1.256-2.513,1.256-5.026c7.539,6.911,18.22,11.937,22.617,12.565h0.629c3.141,0,6.282-1.256,8.167-3.77
			c0.629-1.256,1.257-2.513,1.257-3.77c7.539,6.911,17.591,11.309,21.989,11.937h0.628c3.142,0,6.282-1.256,8.168-3.77
			c0.628-1.256,1.256-2.513,1.256-4.398c7.539,6.911,18.22,11.937,22.617,12.565h0.629c3.141,0,6.282-1.257,8.167-3.77
			c0.628-1.257,1.257-2.513,1.257-3.77l0,0L910.346,222.101z M453.603,168.699c-1.257,1.257-3.142,1.885-4.398,1.885
			c-4.396-0.628-20.731-8.167-25.759-18.219l-16.962-31.413l26.386,3.77l18.221,33.926l0,0l0,0
			C454.231,163.045,455.488,166.814,453.603,168.699z M485.644,173.097c-0.629,1.885-2.514,1.885-4.398,1.885
			c-4.396-0.628-20.104-8.167-25.758-18.22l0,0l-16.964-31.413l26.388,3.77l18.22,34.554
			C486.272,167.443,487.529,171.212,485.644,173.097z M518.313,178.123c-1.256,1.257-3.141,1.885-4.396,1.885
			c-4.397-0.628-20.732-8.167-25.76-18.219l-16.963-31.413l26.387,3.77l18.221,33.926l0,0l0,0
			C518.942,172.469,520.198,176.238,518.313,178.123z M550.354,182.521c-1.256,1.256-3.141,1.885-4.396,1.885
			c-4.397-0.628-20.104-8.167-25.76-18.219l0,0l-16.963-31.413l26.387,3.77l18.221,34.554
			C550.983,176.867,552.239,180.636,550.354,182.521z M583.652,186.919c-1.256,1.256-3.141,1.885-4.396,1.885
			c-4.397-0.628-20.732-8.167-25.76-18.22l-16.963-31.413l26.388,3.77l18.22,33.926l0,0l0,0
			C584.281,181.265,584.907,185.034,583.652,186.919z M615.693,191.316c-1.256,1.257-3.141,1.885-4.396,1.885
			c-4.397-0.628-20.104-8.167-25.76-18.219l0,0l-16.963-31.413l26.388,3.77l18.22,34.554
			C616.322,185.662,616.948,189.432,615.693,191.316z M648.363,195.714c-1.257,1.256-3.142,1.885-4.396,1.885
			c-4.398-0.628-20.733-8.167-25.759-18.219l-16.964-31.413l26.388,3.77l18.22,33.926l0,0l0,0
			C648.99,190.06,649.618,193.83,648.363,195.714z M680.404,200.74c-1.257,1.257-3.142,1.885-4.396,1.885
			c-4.398-0.628-20.104-8.167-25.759-18.219l0,0l-16.964-31.413l26.388,3.142l18.22,34.554
			C681.031,195.086,681.659,198.228,680.404,200.74z M712.445,204.51c-1.256,1.257-3.141,1.885-4.396,1.885
			c-4.397-0.628-20.732-8.167-25.759-18.219l-16.964-31.413l26.388,3.77l18.22,33.926l0,0l0,0
			C713.073,198.855,713.7,202.625,712.445,204.51z M744.486,208.908c-1.256,1.257-3.141,1.885-4.396,1.885
			c-4.397-0.628-20.104-8.167-25.759-18.219l0,0l-16.964-31.413l26.388,3.77l18.22,34.554
			C745.115,203.253,745.741,207.023,744.486,208.908z M777.156,213.306c-1.257,1.256-3.142,1.885-4.396,1.885
			c-4.398-0.628-20.732-8.167-25.759-18.22l-16.964-31.413l26.388,3.77l18.22,33.926l0,0l0,0
			C777.782,207.651,778.411,211.421,777.156,213.306z M809.197,217.704c-1.257,1.256-3.142,1.885-4.396,1.885
			c-4.398-0.628-20.104-8.167-25.759-18.22l0,0l-16.964-31.413l26.388,3.77l18.22,34.554
			C809.823,212.049,810.452,215.819,809.197,217.704z M841.865,222.101c-1.257,1.257-3.142,1.885-4.397,1.885
			c-4.397-0.628-20.732-8.167-25.759-18.219l-16.964-31.413l26.388,3.77l18.22,33.926l0,0l0,0
			C842.493,216.447,843.121,220.216,841.865,222.101z M873.906,226.499c-1.257,1.256-3.142,1.885-4.396,1.885
			c-4.398-0.628-20.104-8.167-25.759-18.219l0,0l-16.964-31.413l26.388,3.77l18.22,34.554
			C874.534,220.845,875.164,224.614,873.906,226.499z M906.575,231.525c-1.256,1.256-3.141,1.885-4.396,1.885
			c-4.397-0.628-20.732-8.167-25.759-18.22l-16.963-31.413l26.387,3.77l18.22,33.926l0,0l0,0
			C907.205,225.871,907.832,229.641,906.575,231.525z"/>
		<path fill="#393943" d="M453.603,168.699c-1.257,1.257-3.142,1.885-4.398,1.885c-4.396-0.628-20.731-8.167-25.759-18.219
			l-16.962-31.413l26.386,3.77l18.221,33.926l0,0l0,0C454.231,163.045,455.488,166.187,453.603,168.699z"/>
		<path fill="#393943" d="M485.644,173.097c-1.257,1.256-3.142,1.885-4.398,1.885c-4.396-0.628-20.104-8.167-25.758-18.22l0,0
			l-16.963-31.413l26.387,3.77l18.221,34.554C486.272,167.443,487.529,171.212,485.644,173.097z"/>
		<path fill="#393943" d="M518.313,177.495c-1.256,1.256-3.141,1.885-4.396,1.885c-4.397-0.628-20.732-8.167-25.76-18.22
			l-16.963-31.413l26.387,3.77l18.221,33.926l0,0l0,0C518.942,171.841,520.198,175.61,518.313,177.495z"/>
		<path fill="#393943" d="M550.354,181.893c-1.256,1.257-3.141,1.885-4.396,1.885c-4.397-0.628-20.104-8.167-25.76-18.219l0,0
			l-16.963-31.413l26.387,3.77l18.221,34.554C550.983,176.238,552.239,180.008,550.354,181.893z"/>
		<path fill="#393943" d="M583.652,186.291c-1.256,1.256-3.141,1.885-4.396,1.885c-4.397-0.628-20.732-8.167-25.76-18.219
			l-16.963-31.413l26.388,3.77l18.22,33.926l0,0l0,0C584.281,180.636,584.907,184.406,583.652,186.291z"/>
		<path fill="#393943" d="M615.693,190.688c-1.256,1.256-3.141,1.885-4.396,1.885c-4.397-0.628-20.104-8.167-25.76-18.22l0,0
			l-16.963-31.413l26.388,3.77l18.22,34.555C616.322,185.034,616.948,188.804,615.693,190.688z"/>
		<path fill="#393943" d="M648.363,195.714c-1.257,1.256-3.142,1.885-4.396,1.885c-4.398-0.628-20.733-8.167-25.759-18.219
			l-16.964-31.413l26.388,3.77l18.22,33.926l0,0l0,0C648.99,190.06,649.618,193.83,648.363,195.714z"/>
		<path fill="#393943" d="M680.404,200.112c-1.257,1.256-3.142,1.885-4.396,1.885c-4.398-0.628-20.104-8.167-25.759-18.22l0,0
			l-16.964-31.413l26.388,3.77l18.22,34.554C681.031,194.458,681.659,198.228,680.404,200.112z"/>
		<path fill="#393943" d="M711.817,204.51c-1.257,1.257-3.142,1.885-4.396,1.885c-4.398-0.628-20.733-8.167-25.76-18.219
			l-16.963-31.413l26.388,3.77l18.848,33.298l0,0l0,0C712.445,198.855,713.073,202.625,711.817,204.51z"/>
		<path fill="#393943" d="M743.858,208.908c-1.256,1.257-3.142,1.885-4.396,1.885c-4.398-0.628-20.104-8.167-25.76-18.219l0,0
			l-16.963-31.413l26.388,3.77l18.22,34.554C744.486,203.253,745.115,207.023,743.858,208.908z"/>
		<path fill="#393943" d="M776.528,213.306c-1.257,1.256-3.142,1.885-4.397,1.885c-4.397-0.628-20.732-8.167-25.759-18.22
			l-16.964-31.413l26.389,3.77l18.219,33.926l0,0l0,0C777.156,207.651,777.782,211.421,776.528,213.306z"/>
		<path fill="#393943" d="M808.569,218.332c-1.257,1.257-3.142,1.885-4.397,1.885c-4.397-0.628-20.104-8.167-25.759-18.219l0,0
			l-16.963-31.413l26.388,3.77l18.219,34.554C809.197,212.677,809.823,215.819,808.569,218.332z"/>
		<path fill="#393943" d="M841.238,222.101c-1.256,1.257-3.141,1.885-4.396,1.885c-4.397-0.628-20.732-8.167-25.759-18.219
			l-16.964-31.413l26.388,3.77l18.22,33.926l0,0l0,0C841.865,216.447,843.121,220.216,841.238,222.101z"/>
		<path fill="#393943" d="M873.28,227.127c-1.257,1.256-3.142,1.885-4.397,1.885c-4.397-0.628-20.104-8.167-25.759-18.22l0,0
			l-16.964-31.413l26.388,3.77l18.22,34.554C873.906,221.473,875.164,224.614,873.28,227.127z"/>
		<path fill="#393943" d="M905.948,231.525c-1.257,1.256-3.142,1.885-4.396,1.885c-4.398-0.628-20.732-8.167-25.76-18.22
			l-16.963-31.413l26.388,3.77l18.22,33.926l0,0l0,0C906.575,225.871,907.832,229.641,905.948,231.525z"/>
	</g>
	<g>
		<path d="M855.06,137.915"/>
		<path d="M875.164,192.573l-0.63-0.628c-0.628-0.628-1.256-1.256-1.256-2.513l0,0l-15.707-32.041l-1.257-4.398h-1.256l0,0
			l-32.67-5.654l0,0l-32.041-5.654l0,0l-37.067-6.911v0.628l-27.644-5.026l0,0l-32.669-5.654l0,0l-32.041-5.654l0,0l-37.067-6.911
			l0.628,0.628l-27.015-5.026l0,0l-32.67-5.654l0,0l-30.784-6.911l0,0l-37.067-6.911v0.628l-27.644-5.026l0,0l-32.67-5.654l0,0
			l-32.04-5.654l0,0l-37.067-6.911l19.477,39.58c5.654,11.937,22.617,20.732,28.271,21.989h0.629
			c3.142,0.628,6.282-0.628,8.167-3.142c0.628-0.628,1.256-1.885,1.256-3.77c7.539,6.911,16.964,11.937,21.361,12.565h0.628
			c3.143,0.628,6.283-0.628,8.168-3.142c0.628-1.256,1.256-2.513,1.256-4.397c7.539,7.539,17.592,12.565,21.989,13.193h0.628
			c3.143,0.628,6.283-0.628,8.168-3.142c0.628-0.628,1.256-1.885,1.256-3.77c7.539,6.911,16.964,11.937,21.361,12.565h0.628
			c3.142,0.628,6.283-0.628,8.168-3.142c0.628-1.256,1.256-2.513,1.885-4.396c7.539,7.539,17.591,12.564,21.988,13.193h0.629
			c3.142,0.628,6.282-0.628,8.167-3.142c0.628-0.628,1.257-1.885,1.257-3.77c7.539,6.911,16.963,11.937,21.36,12.565h0.629
			c3.141,0.628,6.282-0.628,8.167-3.141c0.628-1.257,1.257-2.513,1.257-4.398c7.539,7.539,17.591,12.565,21.988,13.193h0.629
			c3.141,0.628,6.282-0.628,8.167-3.141c0.628-0.628,1.257-1.885,1.257-3.77c7.539,6.911,16.963,11.937,21.36,12.565h0.629
			c3.141,0.628,6.282-0.628,8.167-3.141c0.628-1.257,1.257-2.513,1.257-4.398c7.539,6.911,16.963,11.937,21.36,12.565h0.628
			c3.142,0.628,6.283-0.628,8.168-3.142c0.628-0.628,1.256-1.885,1.256-3.77c7.539,6.911,16.963,11.937,21.361,12.565h0.628
			c3.142,0.628,6.283-0.628,8.168-3.142c0.628-1.256,1.256-2.513,1.256-4.397c7.539,7.54,17.592,12.565,21.989,13.194h0.628
			c3.142,0.628,6.283-0.628,8.168-3.142c0.628-0.628,1.256-1.885,1.256-3.77c7.539,6.911,16.964,11.937,21.361,12.565h0.628
			c3.142,0.628,6.283-0.628,8.168-3.142c0.628-1.256,1.256-2.513,1.885-4.397c7.539,7.539,17.591,12.565,21.988,13.193h0.629
			c3.141,0.628,6.282-0.628,8.167-3.142c0.628-0.628,1.257-1.885,1.257-3.77c7.539,6.911,16.963,11.937,21.36,12.565h0.628
			c3.142,0.628,6.283-0.628,8.168-3.142c0.628-1.256,1.257-2.513,1.257-4.397c7.539,7.539,17.591,12.565,21.988,13.193h0.629
			c3.142,0.628,6.281-0.628,8.167-3.142c0.629-0.628,1.257-1.885,1.257-3.77l0,0L875.164,192.573z M420.933,121.58
			c-1.256,1.256-3.141,1.885-4.396,1.256c-4.397-0.628-20.104-8.795-25.132-19.476l-15.706-32.041l26.388,5.026l16.963,35.183l0,0
			l0,0C421.562,115.926,422.19,119.695,420.933,121.58z M452.974,127.234c-1.256,1.256-3.142,1.885-4.397,1.256
			c-4.396-0.628-20.104-8.795-25.131-19.476l0,0l-15.706-32.04L434.125,82l16.964,35.183
			C453.603,121.58,454.231,125.35,452.974,127.234z M485.015,132.889c-1.256,1.256-3.142,1.885-4.397,1.256
			c-4.396-0.628-20.104-8.795-25.13-19.476l-15.707-32.041l26.388,5.026l16.963,35.183l0,0l0,0
			C486.272,127.234,486.9,131.004,485.015,132.889z M517.057,139.171c-1.257,1.257-3.143,1.885-4.398,1.257
			c-4.396-0.628-20.104-8.796-24.502-19.476l0,0l-15.707-32.041l26.388,5.026L515.8,129.12
			C517.685,133.517,518.313,137.286,517.057,139.171z M549.726,144.825c-1.257,1.257-3.142,1.885-4.397,1.257
			c-4.397-0.628-20.104-8.796-25.131-19.476l-15.706-32.041l26.388,5.026l16.963,35.183l0,0l0,0
			C550.354,139.171,550.983,142.94,549.726,144.825z M581.767,150.48c-1.256,1.256-3.141,1.885-4.397,1.256
			c-4.396-0.628-20.104-8.796-25.131-19.476l0,0l-15.706-32.041l26.388,5.026l16.963,35.183
			C582.396,144.825,583.024,148.595,581.767,150.48z M613.808,156.134c-1.256,1.256-3.142,1.885-4.397,1.256
			c-4.396-0.628-20.104-8.795-25.13-19.476l-15.707-32.041l26.388,5.026l16.963,35.183l0,0l0,0
			C615.065,150.48,615.693,154.25,613.808,156.134z M645.85,161.789c-1.257,1.256-3.143,1.885-4.398,1.256
			c-4.396-0.628-20.104-8.795-24.502-19.476l0,0l-16.335-31.413l26.388,5.026l16.964,35.183
			C646.478,156.134,647.106,159.904,645.85,161.789z M677.891,167.443c-1.257,1.256-3.143,1.885-4.398,1.256
			c-4.396-0.628-20.104-8.795-25.13-19.476l-15.706-32.041l26.388,5.026l16.963,35.183l0,0l0,0
			C678.519,161.789,679.147,164.93,677.891,167.443z M709.932,173.097c-1.257,1.256-3.143,1.885-4.397,1.256
			c-4.397-0.628-20.104-8.795-25.131-19.476l0,0l-15.706-32.041l26.388,5.026l16.963,35.183
			C710.56,167.443,711.189,171.212,709.932,173.097z M741.973,178.751c-1.257,1.256-3.143,1.885-4.397,1.256
			c-4.397-0.628-20.104-8.795-25.131-19.476l-15.706-32.041l26.388,5.026l16.963,35.183l0,0l0,0
			C743.23,173.097,743.23,176.867,741.973,178.751z M774.014,184.406c-1.256,1.256-3.142,1.885-4.397,1.256
			c-4.396-0.628-20.104-8.795-25.131-19.476l0,0l-15.706-32.042l26.388,5.026l16.963,35.183
			C774.643,178.751,775.271,182.521,774.014,184.406z M806.684,190.06c-1.257,1.256-3.143,1.885-4.398,1.256
			c-4.396-0.628-20.104-8.795-25.13-19.476l-15.706-32.042l26.388,5.026l16.963,35.183l0,0l0,0
			C807.312,184.406,807.94,188.175,806.684,190.06z M838.725,195.714c-1.257,1.256-3.143,1.885-4.397,1.256
			c-4.397-0.628-20.104-8.795-25.131-19.476l0,0l-15.706-32.042l26.388,5.026l16.963,35.182
			C839.353,190.06,839.982,193.83,838.725,195.714z M870.766,201.997c-1.256,1.256-3.141,1.885-4.397,1.256
			c-4.396-0.628-20.104-8.795-25.131-19.476l-15.706-32.041l26.388,5.026l16.963,35.183l0,0l0,0
			C871.395,196.343,872.023,200.112,870.766,201.997z"/>
		<path fill="#393943" d="M420.933,120.952c-1.256,1.256-3.141,1.885-4.396,1.256c-4.397-0.628-20.104-8.795-25.132-19.476
			L375.698,70.69l26.388,5.026l16.963,35.183l0,0l0,0C421.562,115.297,422.19,119.067,420.933,120.952z"/>
		<path fill="#393943" d="M452.974,126.606c-1.256,1.256-3.142,1.885-4.397,1.256c-4.396-0.628-20.104-8.795-25.131-19.476l0,0
			L407.74,76.345l26.388,5.026l16.963,35.183C453.603,120.952,454.231,124.721,452.974,126.606z"/>
		<path fill="#393943" d="M485.015,132.889c-1.256,1.256-3.142,1.885-4.397,1.256c-4.396-0.628-20.104-8.795-25.13-19.476
			l-15.707-32.041l26.388,5.026l16.963,35.183l0,0l0,0C486.272,127.234,486.9,131.004,485.015,132.889z"/>
		<path fill="#393943" d="M517.057,138.543c-1.257,1.256-3.143,1.885-4.398,1.256c-4.396-0.628-20.104-8.795-24.502-19.476l0,0
			l-15.707-32.041l26.388,5.026l16.963,35.183C517.685,132.889,518.313,136.658,517.057,138.543z"/>
		<path fill="#393943" d="M549.726,144.197c-1.257,1.256-3.142,1.885-4.397,1.256c-4.397-0.628-20.104-8.795-25.131-19.476
			l-15.706-32.041l26.388,5.026l16.963,35.183l0,0l0,0C550.354,138.543,550.983,142.312,549.726,144.197z"/>
		<path fill="#393943" d="M581.767,149.852c-1.256,1.256-3.141,1.885-4.397,1.256c-4.396-0.628-20.104-8.795-25.131-19.476l0,0
			l-15.706-32.041l26.388,5.026l16.963,35.182C582.396,144.197,583.024,147.967,581.767,149.852z"/>
		<path fill="#393943" d="M613.808,156.134c-1.256,1.256-3.142,1.885-4.397,1.256c-4.396-0.628-20.104-8.795-25.13-19.476
			l-15.079-32.041l26.389,5.026l16.963,35.183l0,0l0,0C615.065,150.48,615.693,154.25,613.808,156.134z"/>
		<path fill="#393943" d="M645.85,161.789c-1.257,1.256-3.143,1.885-4.398,1.256c-4.396-0.628-20.104-8.795-24.502-19.476l0,0
			l-15.706-32.041l26.388,5.026l16.963,35.183C646.478,156.134,647.106,159.904,645.85,161.789z"/>
		<path fill="#393943" d="M677.262,167.443c-1.256,1.256-3.142,1.885-4.397,1.256c-4.396-0.628-20.104-8.795-25.13-19.476
			l-15.707-32.041l26.388,5.026l16.963,35.183l0,0l0,0C678.519,161.789,679.147,165.558,677.262,167.443z"/>
		<path fill="#393943" d="M709.304,173.097c-1.257,1.256-3.143,1.885-4.398,1.256c-4.396-0.628-20.104-8.795-25.13-19.476l0,0
			l-15.707-32.041l26.387,5.026l16.965,35.183C709.932,167.443,710.56,171.212,709.304,173.097z"/>
		<path fill="#393943" d="M741.973,178.751c-1.257,1.256-3.143,1.885-4.397,1.256c-4.397-0.628-20.104-8.795-25.131-19.476
			l-15.706-32.041l26.388,5.026l16.963,35.183l0,0l0,0C742.601,173.097,743.23,176.867,741.973,178.751z"/>
		<path fill="#393943" d="M773.386,185.034c-1.257,1.256-3.143,1.885-4.397,1.256c-4.397-0.628-20.104-8.795-25.131-19.476l0,0
			l-15.706-32.041l26.388,5.026l16.963,35.183C774.643,179.38,775.271,182.521,773.386,185.034z"/>
		<path fill="#393943" d="M806.055,190.06c-1.256,1.256-3.142,1.885-4.397,1.256c-4.396-0.628-20.104-8.795-25.13-19.476
			l-15.707-32.042l26.388,5.026l16.963,35.183l0,0l0,0C807.312,184.406,807.312,188.175,806.055,190.06z"/>
		<path fill="#393943" d="M838.097,196.343c-1.257,1.256-3.143,1.885-4.398,1.256c-4.396-0.628-20.104-8.795-25.13-19.476l0,0
			l-15.707-32.041l26.387,5.026l16.965,35.183C838.725,190.688,839.353,194.458,838.097,196.343z"/>
		<path fill="#393943" d="M870.766,201.997c-1.256,1.256-3.141,1.885-4.397,1.256c-4.396-0.628-20.104-8.795-25.131-19.476
			l-15.706-32.041l26.388,5.026l16.963,35.183l0,0l0,0C871.395,196.343,872.023,200.112,870.766,201.997z"/>
	</g>
	
		<ellipse fill="#666666" stroke="#666666" stroke-width="1.1693" stroke-linecap="round" cx="707.419" cy="45.561" rx="12.563" ry="6.911"/>
	
		<ellipse opacity="0.6" fill="#666666" stroke="#666666" stroke-width="1.1693" stroke-linecap="round" enable-background="new    " cx="758.308" cy="48.074" rx="20.731" ry="9.424"/>
	
		<ellipse opacity="0.5" fill="#666666" stroke="#666666" stroke-width="1.1693" stroke-linecap="round" enable-background="new    " cx="828.044" cy="55.613" rx="27.016" ry="15.707"/>
	<path fill="#666666" stroke="#666666" stroke-width="1.1693" stroke-linecap="round" d="M857.573,147.338"/>
</g>
</svg>
