<?xml version="1.0" encoding="utf-8"?>
<!-- Generator: Adobe Illustrator 26.5.0, SVG Export Plug-In . SVG Version: 6.00 Build 0)  -->
<svg version="1.1" id="Layer_1" xmlns="http://www.w3.org/2000/svg" xmlns:xlink="http://www.w3.org/1999/xlink" x="0px" y="0px"
	 viewBox="0 0 36 35.9" style="enable-background:new 0 0 36 35.9;" xml:space="preserve">
<style type="text/css">
	.st0{fill-rule:evenodd;clip-rule:evenodd;fill:#244FA2;}
	.st1{fill-rule:evenodd;clip-rule:evenodd;fill:#A7A9AC;stroke:#000000;stroke-width:0.25;stroke-miterlimit:10;}
	.st2{fill-rule:evenodd;clip-rule:evenodd;fill:#F0F2F3;}
	.st3{fill-rule:evenodd;clip-rule:evenodd;fill:#C9CED2;}
	.st4{fill-rule:evenodd;clip-rule:evenodd;fill:url(#SVGID_1_);}
	.st5{fill-rule:evenodd;clip-rule:evenodd;fill:#F0F2F3;stroke:#58595B;stroke-width:0.5;stroke-miterlimit:10;}
	.st6{fill-rule:evenodd;clip-rule:evenodd;fill:#F7C06A;}
	.st7{fill-rule:evenodd;clip-rule:evenodd;fill:#AEB1B2;}
	.st8{fill:#00090F;}
	.st9{fill:#E2FCFB;}
	.st10{fill-rule:evenodd;clip-rule:evenodd;fill:#58595B;}
	.st11{fill-rule:evenodd;clip-rule:evenodd;fill:url(#SVGID_00000114044934447286009850000008048618123414191026_);}
	.st12{fill-rule:evenodd;clip-rule:evenodd;fill:url(#SVGID_00000091697247599247424100000018068414448818636967_);}
	.st13{fill-rule:evenodd;clip-rule:evenodd;fill:url(#SVGID_00000054250751056358647430000010607508851246647724_);}
	.st14{fill:#AEB1B2;}
	.st15{fill:#E65800;}
	.st16{fill:url(#SVGID_00000099657097173049715130000002135776696758498433_);}
	.st17{fill:url(#SVGID_00000118365620130317433130000006112737264832023479_);}
	.st18{fill:url(#SVGID_00000174570086817562216830000010164493835777840009_);}
	.st19{opacity:0.39;enable-background:new    ;}
	.st20{fill:#FE9EFF;}
	.st21{fill:#9F9F9F;}
	.st22{fill:#F5F1DA;}
	.st23{fill:url(#SVGID_00000000206507414912848060000016696931975413932192_);}
	.st24{fill:#D1D3D4;}
	.st25{fill:#FFFAF5;}
	.st26{fill:#5F7A33;}
	.st27{fill:#9DC953;}
	.st28{fill:#C7FF69;}
	.st29{fill:url(#SVGID_00000112607683310681172290000002079400421903668617_);}
	.st30{fill:#397093;}
	.st31{fill:#194C73;}
	.st32{fill:#AAD8EA;}
	.st33{fill:#F9FAFA;}
	.st34{fill:#DECC6D;}
</style>
<g id="Floppy">
	<g id="FloppyGrp">
		<path class="st0" d="M35,6.6L29.3,1h-25l0,0C2.5,1.1,1.1,2.5,1.1,4.3v27.2c0,1.8,1.5,3.3,3.3,3.3l0,0h27.3c0.9,0,1.7-0.4,2.3-0.9
			c0.6-0.6,1-1.4,1-2.4l0,0l0,0V6.6z"/>
		<path class="st1" d="M27.5,1c0,3,0,6,0,9c0,0.2,0,0.4,0,0.6c-0.2,1-0.9,1.7-1.9,1.7c-2.1,0-4.1,0-6.2,0c-2.8,0-5.7,0-8.5,0
			c-1.4,0-2.1-0.8-2.1-2.2c0-2.9,0-5.7,0-8.6c0-0.2,0-0.4,0-0.5C14.9,1,21.2,1,27.5,1z M25.5,6.6C25.5,6.6,25.6,6.6,25.5,6.6
			c0-1.1,0-2.3,0-3.4c0-0.3-0.1-0.4-0.4-0.4c-1.6,0-3.3,0-4.9,0c-0.3,0-0.4,0.1-0.4,0.4c0,2.2,0,4.5,0,6.7c0,0.3,0.1,0.4,0.4,0.4
			c1.6,0,3.2,0,4.8,0c0.3,0,0.4-0.1,0.4-0.4C25.5,8.9,25.5,7.8,25.5,6.6z"/>
		<path class="st2" d="M4.9,33c0-1.7,0-3.5,0-5.2c0-2.6,0-5.1,0-7.7C4.9,18.7,5.6,18,7,18c7.3,0,14.7,0,22,0c1.4,0,2.1,0.7,2.1,2.1
			c0,4.2,0,8.4,0,12.5c0,0.1,0,0.3,0,0.4C22.4,33,13.7,33,4.9,33z"/>
		<path class="st3" d="M4.9,33c8.8,0,17.5,0,26.3,0c0,0.6,0,1.2,0,1.8c-0.2,0-0.4,0-0.6,0c-8.4,0-16.8,0-25.2,0c-0.2,0-0.4,0-0.6,0
			C4.9,34.2,4.9,33.6,4.9,33z"/>
		<path class="st3" d="M29.8,29.4c0-0.4-0.3-0.6-0.6-0.6l0,0H6.8l0,0l0,0c-0.4,0-0.6,0.3-0.6,0.6S6.5,30,6.8,30l0,0l0,0h22.4l0,0
			C29.5,30.1,29.8,29.8,29.8,29.4z"/>
		<path class="st3" d="M29.8,21.6c0-0.4-0.3-0.6-0.6-0.6l0,0H6.8l0,0l0,0c-0.4,0-0.6,0.3-0.6,0.6s0.3,0.6,0.6,0.6l0,0l0,0h22.4l0,0
			C29.5,22.2,29.8,21.9,29.8,21.6z"/>
		<path class="st3" d="M29.8,25.5c0-0.4-0.3-0.6-0.6-0.6l0,0H6.8l0,0l0,0c-0.4,0-0.6,0.3-0.6,0.6s0.3,0.6,0.6,0.6l0,0l0,0h22.4l0,0
			C29.5,26.1,29.8,25.9,29.8,25.5z"/>
	</g>
</g>
<g id="Folder">
	<g id="FolderGrp">
		
			<linearGradient id="SVGID_1_" gradientUnits="userSpaceOnUse" x1="16.036" y1="-1010.889" x2="15.3507" y2="-1037.8036" gradientTransform="matrix(1 0 0 -1 0 -1006)">
			<stop  offset="0" style="stop-color:#DBAA5D"/>
			<stop  offset="1" style="stop-color:#A17E44"/>
		</linearGradient>
		<path class="st4" d="M14.8,7.6h15.3c0.7,0,1.2,0.6,1.2,1.2v22.4c0,0.7-0.6,1.2-1.2,1.2H1.2c-0.7,0-1.2-0.6-1.2-1.2V8.9
			c0-0.7,0.6-1.3,1.2-1.3h2.9V5.7c0-0.7,0.6-1.2,1.2-1.2h8.2c0.7,0,1.2,0.6,1.2,1.2L14.8,7.6z"/>
		<polygon class="st5" points="16.5,28.6 32.9,15.8 25.3,1.7 5.3,12.5 11.8,28.6 		"/>
		<path class="st3" d="M5.6,13.4h26l-0.3-0.6h-2.7l-3.8-7l0,0l0,0c-0.1-0.2-0.4-0.3-0.6-0.2S23.9,6,24,6.2l0,0l0,0l3.5,6.5h-2.2
			l-3-5.6l0,0c-0.1-0.2-0.4-0.3-0.6-0.2c-0.2,0.1-0.3,0.4-0.2,0.6l0,0l0,0l2.8,5.1h-2.2l-2.3-4.2l0,0c-0.1-0.2-0.4-0.3-0.6-0.2
			S18.9,8.6,19,8.8l0,0l0,0l2,3.7h-2.2l-1.5-2.8l0,0c-0.1-0.2-0.4-0.3-0.6-0.2s-0.3,0.4-0.2,0.6l0,0l0,0l1.3,2.3H5.7L5.6,13.4z"/>
		<path class="st6" d="M4.5,15.1c0.2-0.7,1-1.2,1.6-1.2H35c0.7,0,1.1,0.5,0.9,1.2l-4.1,16.1c-0.2,0.7-1,1.2-1.6,1.2h-29
			c-0.7,0-1.1-0.5-0.9-1.2L4.5,15.1z"/>
		<polygon class="st7" points="31.6,13.4 5.6,13.4 5.8,13.9 31.9,13.9 		"/>
	</g>
</g>
<g id="Pointer">
	<polygon class="st8" points="25.1,20.6 10.9,6.2 10.1,27.1 15.3,23.1 18.8,29.8 23.6,27.2 20.3,21.1 	"/>
	<polygon class="st9" points="15.5,21.3 12,24.2 12,9.3 22.3,19.7 18.3,20.2 21.8,26.8 19.2,28.2 	"/>
</g>
<g id="Export">
	<path class="st10" d="M21.7,0.9H6.1v33.9h25.4c0,0,0-16.4,0-23.8l-4.6-4.7L21.7,0.9z"/>
	
		<linearGradient id="SVGID_00000153706838990303478150000004326423950566697134_" gradientUnits="userSpaceOnUse" x1="22.076" y1="26.8125" x2="25.138" y2="30.1137" gradientTransform="matrix(1 0 0 -1 0 38)">
		<stop  offset="0" style="stop-color:#F0F2F3"/>
		<stop  offset="0.7347" style="stop-color:#EAECEE"/>
		<stop  offset="1" style="stop-color:#CBD0D4"/>
	</linearGradient>
	
		<polygon style="fill-rule:evenodd;clip-rule:evenodd;fill:url(#SVGID_00000153706838990303478150000004326423950566697134_);" points="
		25.3,7.4 21.7,3.6 21.7,11.5 29.2,11.5 	"/>
	
		<linearGradient id="SVGID_00000126295418260323164860000003747353955053909414_" gradientUnits="userSpaceOnUse" x1="29.8" y1="26.5" x2="29.8" y2="26.5" gradientTransform="matrix(1 0 0 -1 0 38)">
		<stop  offset="0" style="stop-color:#F0F2F3"/>
		<stop  offset="1" style="stop-color:#C9CED2"/>
	</linearGradient>
	<path style="fill-rule:evenodd;clip-rule:evenodd;fill:url(#SVGID_00000126295418260323164860000003747353955053909414_);" d="
		M29.8,11.5"/>
	
		<linearGradient id="SVGID_00000048474765774707022630000018184652498563788965_" gradientUnits="userSpaceOnUse" x1="18.5675" y1="35.353" x2="18.6097" y2="8.8141" gradientTransform="matrix(1 0 0 -1 0 38)">
		<stop  offset="0" style="stop-color:#F0F2F3"/>
		<stop  offset="1" style="stop-color:#C9CED2"/>
	</linearGradient>
	<path style="fill-rule:evenodd;clip-rule:evenodd;fill:url(#SVGID_00000048474765774707022630000018184652498563788965_);" d="
		M19.5,2.4H7.9v30.3h21.4c0,0,0-11.7,0-19.2h-9.7L19.5,2.4z"/>
	<polygon class="st7" points="19.9,13.1 19.9,2.4 17.9,2.4 17.9,14.9 19.9,14.9 19.9,14.8 29.4,14.8 29.4,13.1 	"/>
	<path class="st14" d="M21.2,21.5c-0.4-0.7-0.8-1.3-1.4-1.8H8v5.4l0.8,0.6v-4.2c3.1-0.1,6,0,8.7,1.6c2.9,1.6,3.3,4.7,0.9,7.3
		c-0.6,0.7-1.3,1.3-2.2,2.2c0.7,0.1,1,0.3,1.2,0.2C21.1,31.5,24.5,27.1,21.2,21.5z"/>
	<path d="M11.2,8.1v4.4c2.9,1.2,5.6,2.1,8.1,3.6c1.6,0.9,3.3,2.4,4.3,4.2c3.3,5.6-0.1,10-3.8,11.3c-0.2,0.1-0.5-0.1-1.2-0.2
		c0.9-0.9,1.5-1.6,2.2-2.2c2.4-2.6,2-5.6-0.9-7.3c-2.7-1.5-5.7-1.7-8.7-1.6v4.2l-9.9-8.4v-0.4L11.2,8.1z"/>
	<path class="st15" d="M23.6,24.2c-0.1-1-0.4-2-1.1-3.1c-0.8-1.4-2.2-2.7-3.8-3.6c-1.7-1-3.5-1.7-5.5-2.5c-0.8-0.3-1.7-0.7-2.5-1
		l-0.9-0.4V11l-6.4,4.9l6.4,5.5v-2.6h1.3c0.5,0,0.9,0,1.4,0c2.4,0,5.2,0.2,8,1.8C22.2,21.3,23.3,22.7,23.6,24.2z"/>
</g>
<g id="Paint">
	<path d="M27.8,10.3c-3.6,4.7-17.3,4.7-21.2,0C10.4,6.2,23.3,6,27.8,10.3z"/>
	
		<linearGradient id="SVGID_00000136392678018211990750000018045623009849001106_" gradientUnits="userSpaceOnUse" x1="4.0464" y1="20.2" x2="30.2464" y2="20.2" gradientTransform="matrix(1 0 0 -1 0 38)">
		<stop  offset="0" style="stop-color:#BABABA"/>
		<stop  offset="0.1006" style="stop-color:#F0F0F0"/>
		<stop  offset="0.3329" style="stop-color:#DADADA"/>
		<stop  offset="0.5171" style="stop-color:#5C5C5C"/>
		<stop  offset="0.636" style="stop-color:#5B5B5B"/>
		<stop  offset="0.7921" style="stop-color:#696969"/>
		<stop  offset="0.8537" style="stop-color:#666666"/>
		<stop  offset="1" style="stop-color:#000000"/>
	</linearGradient>
	<path style="fill:url(#SVGID_00000136392678018211990750000018045623009849001106_);" d="M30.2,26.9V8.6V8.5V8.4V8.3l0,0
		C30,4.8,24.2,2,17.1,2c-7,0-12.8,2.8-13,6.3l0,0V27l0,0c0,0.1,0,0.1,0,0.2c0,3.5,5.9,6.4,13.1,6.4s13.1-2.9,13.1-6.4
		C30.2,27.1,30.2,27,30.2,26.9z"/>
	
		<linearGradient id="SVGID_00000170962068613859383670000008874624215670406019_" gradientUnits="userSpaceOnUse" x1="28.9101" y1="31.3" x2="6.8421" y2="31.3" gradientTransform="matrix(1 0 0 -1 0 38)">
		<stop  offset="0" style="stop-color:#BABABA"/>
		<stop  offset="0.1006" style="stop-color:#F0F0F0"/>
		<stop  offset="0.3329" style="stop-color:#DADADA"/>
		<stop  offset="0.5171" style="stop-color:#5C5C5C"/>
		<stop  offset="0.636" style="stop-color:#5B5B5B"/>
		<stop  offset="0.7921" style="stop-color:#696969"/>
		<stop  offset="0.8537" style="stop-color:#666666"/>
		<stop  offset="1" style="stop-color:#000000"/>
	</linearGradient>
	<path style="fill:url(#SVGID_00000170962068613859383670000008874624215670406019_);" d="M28.4,10.6c0.7-0.7,1.1-1.5,1.1-2.3
		c0-3.1-5.5-5.5-12.3-5.5S5,5.2,5,8.3C5,9,5.3,9.8,5.9,10.4C7.8,8.5,12.1,7.2,17,7.2C22.2,7.2,26.5,8.6,28.4,10.6z"/>
	
		<linearGradient id="SVGID_00000109000822569830653640000000088830008766683541_" gradientUnits="userSpaceOnUse" x1="16.295" y1="31.5119" x2="18.3379" y2="21.9261" gradientTransform="matrix(1 0 0 -1 0 38)">
		<stop  offset="0" style="stop-color:#FE9EFF"/>
		<stop  offset="1" style="stop-color:#774A78"/>
	</linearGradient>
	<path style="fill:url(#SVGID_00000109000822569830653640000000088830008766683541_);" d="M17.2,13.8c5,0,9.2-1.3,11.2-3.2
		c-1.8-2-6.2-3.4-11.3-3.4c-5,0-9.2,1.3-11.2,3.2C7.7,12.4,12.1,13.8,17.2,13.8z"/>
	<path class="st19" d="M17.9,14.8c-7.2,0-12.4-2.7-12.5-6.2C4.9,9.5,5.5,11,6,11.9c0.9,1.6,0.8,3.3,0.7,5.1c0,0.9-0.1,1.8-0.1,2.7
		c0.1,0.7,0.2,1.5,0.5,2.1s0.7,0.6,1-0.1c0.2-0.5,0.3-1,0.3-1.5c0.1-0.7,0.2-1.5,0.3-2.3c0.1,0,0.2,0,0.3,0c0,0.5,0.2,1,0.1,1.5
		c-0.1,1-0.2,2-0.3,3.1c-0.1,1.9-0.1,3.8-0.1,5.7c0,0.5,0.1,1,0.8,1.1s1.3-0.2,1.5-0.8c0.2-0.6,0.4-1.3,0.4-2
		c-0.1-1.4-0.3-2.8-0.4-4.3c0-1.4,0-2.8,0.6-4.2c0.5-1.1,1.6-2.6,2.6-2.4c2.9,0.5,5.3,0.2,8.2-0.4c1.6-0.4,2.6-1,3.7-2.3
		C24.2,14,21,14.8,17.9,14.8z"/>
	<path class="st20" d="M17.8,14c-7.2,0-13-2.8-13.1-6.3c-0.4,0.8-0.5,1.7,0,2.5c0.9,1.6,0.8,3.3,0.7,5.1c0,0.9-0.1,1.8-0.1,2.7
		c0.1,0.7,0.2,1.5,0.5,2.1s0.7,0.6,1-0.1c0.2-0.5,0.3-1,0.3-1.5c0.1-0.7,0.2-1.5,0.3-2.3c0.1,0,0.2,0,0.3,0c0,0.5,0.2,1,0.1,1.5
		c-0.1,1-0.2,2-0.3,3.1c-0.1,1.9-0.1,3.8-0.1,5.7c0,0.5,0.1,1,0.8,1.1s1.3-0.2,1.5-0.8c0.2-0.6,0.4-1.3,0.4-2
		C10,23.4,9.8,22,9.7,20.5c-0.1-1.5-0.2-2.9,0.4-4.3c0.5-1.1,1.7-1.9,2.7-1.8c2.9,0.5,5.8,0.4,8.7-0.3c1.6-0.4,3.2-0.9,4.5-1.8
		C23.9,13.5,21,14,17.8,14z"/>
</g>
<g id="Brush">
	<path class="st21" d="M22.8,4.4c-2.6,2.6-11,11-11.7,11.7c-1.7,2.2,3.5,3.3,2.6,5.7c-1.8,2.6-5.4,3.7-7.8,5.8
		c-3.1,2.1-1,7.1,2.6,6.7c3.9-1.1,4.9-6.2,7.5-8.9c2.7-2.5,4.2,3.8,6.5,2.2c0.6-0.7,9.8-9.5,12.2-12.4c0-0.2,0-0.3,0-0.5
		C34.6,14.6,24,3,22.8,4.4z"/>
	<path class="st22" d="M34.2,13.1c-0.2,0.2-0.3,0.5-0.6,0.7c-2.5,2.5-6.7,6.8-6.7,6.8C23,16.7,19,13,15.2,9.1c0,0,4.5-4.4,7.1-7
		c0.6-0.6,1.1-0.6,1.8,0c0.3,0.3,0.5,0.5,0.8,0.8c0.3,0.6,0.4,0.9,0.1,1.5c0,0.1-0.1,0.2-0.2,0.4c0.2-0.1,0.3-0.1,0.4-0.2
		c0.6-0.2,1-0.2,1.5,0.3c1,1,2.1,2.1,3.1,3.1c0.5,0.5,0.5,1,0.1,1.5c-0.7,1-1.3,2-2,3c0.1-0.1,0.2-0.1,0.3-0.2
		c0.9-0.6,1.8-1.2,2.7-1.9c0.6-0.4,1-0.4,1.6,0.2c0.4,0.4,0.8,0.8,1.2,1.2c0.2,0.2,0.4,0.5,0.6,0.7C34.2,12.8,34.2,12.9,34.2,13.1z"
		/>
	
		<linearGradient id="SVGID_00000018237557561547752480000014613726559532254893_" gradientUnits="userSpaceOnUse" x1="6.0064" y1="20.206" x2="17.1784" y2="7.9243" gradientTransform="matrix(1 0 0 -1 0 38)">
		<stop  offset="0" style="stop-color:#A2D0E6"/>
		<stop  offset="3.657111e-02" style="stop-color:#607D8A"/>
		<stop  offset="0.522" style="stop-color:#648391"/>
		<stop  offset="0.5445" style="stop-color:#82A7B8"/>
		<stop  offset="1" style="stop-color:#7799A8"/>
	</linearGradient>
	<path style="fill:url(#SVGID_00000018237557561547752480000014613726559532254893_);" d="M7.1,32.2c-9.7-4.5,3.5-8.9,6-12.5
		c0-4.2-6.2-3.4-0.4-7.9c3.8,3.8,7.7,7.7,11.5,11.5c-4.7,6.9-5.2-3.8-9.2,0.6c-2.3,2.7-3.4,7.3-7,8.3C7.6,32.2,7.3,32.2,7.1,32.2z"
		/>
	<polygon class="st24" points="15.2,9.3 12.7,11.8 24.2,23.3 26.9,20.7 	"/>
	<path class="st21" d="M23.8,21.2c-0.5,0-0.9-0.4-0.9-0.9s0.4-0.9,0.9-0.9s0.9,0.4,0.9,0.9S24.3,21.2,23.8,21.2z"/>
	<path class="st21" d="M20.7,18.3c-0.5,0-0.9-0.4-0.9-0.9s0.4-0.9,0.9-0.9s0.9,0.4,0.9,0.9S21.2,18.3,20.7,18.3z"/>
	<path class="st20" d="M32.5,10.7C31,9.4,29.4,12,28,12.6c0.5-1.5,3-3.1,1.8-4.6c-1.6-1-2.8-4.4-5-3.2c1.1-1.7-1-3-1.9-1.1
		c7,4.9,0.8,7.7,4.1,7.9c0,0.5-1.8,1.2-1.5,2.1c0.4,1,1.3,0.5,1.9-0.1c0.4,2.8,2-0.8,3.6-0.4c1,0.2,2,0.4,2.3,0.8
		c0.4-0.2,0.6-0.6,0.8-0.9c0-0.2,0-0.3,0-0.5C33.7,11.9,33.1,11.3,32.5,10.7z M27.5,13.6L27.5,13.6C27.5,13.5,27.5,13.6,27.5,13.6
		L27.5,13.6z"/>
	<circle class="st25" cx="7.8" cy="28.3" r="1.4"/>
</g>
<g id="Undo">
	<path class="st26" d="M28.8,27.4c0-0.5,0.1-1,0.2-1.5c0.4-2.8-0.4-5.6-3.1-7.3c-1.1-0.7-2.4-1.2-3.7-1.6c-1.3-0.3-2.6-0.5-3.9-0.6
		c-0.1,0-0.2,0-0.3,0c1.6,0.2,3.1,0.7,4.4,1.8c0.7,0.6,1.2,1.3,1.6,2.2c0.6,1.3,0.7,2.7,0.6,4.1c-0.1,0.8-0.4,1.5-0.8,2.2
		c-0.6,1-1.4,1.8-2.3,2.4c-2,1.4-4.2,2.1-6.6,2.5c-0.7,0.1-1.4,0.3-2.1,0.3c0,0-0.1,0-0.2,0.1c0.7,0,1.3,0,2-0.1
		c0.8,0,1.7-0.1,2.5-0.2c1.2-0.2,2.5-0.4,3.7-0.7c1.7-0.4,3.4-1,5-1.7C26.9,28.9,28.7,27.4,28.8,27.4L28.8,27.4z"/>
	<path class="st27" d="M28.8,27.4c0.4-0.1,0.6-0.5,0.9-0.8c0.6-0.6,1.1-1.3,1.5-2c0.6-1.2,0.9-2.5,1.1-3.8c0.1-1,0.1-2,0-3
		c-0.3-2.2-1.1-4.2-2.6-5.9c-1.2-1.4-2.7-2.4-4.3-3.1c-2.1-1-4.3-1.4-6.6-1.6c-0.4,0-0.7,0-1.1-0.1c-0.2,0-0.3-0.1-0.3-0.3
		c0-0.8,0-3.3,0-4.1c0-0.1,0.1-0.2-0.1-0.3c-0.1,0-0.2,0-0.3,0.1c-0.4,0.2-13.3,8.6-14.8,9.4C2.2,12,2,12,2,12.1s0.2,0.1,0.3,0.2
		c1.9,1,13.7,8.8,14.7,9.3c0.4,0.2,0.4,0.2,0.4-0.2c0-0.9,0-3.5,0-4.4c0-0.5,0-0.4,0.5-0.4c0.1,0,0.1,0,0.2,0c0.1-0.1,0.2,0,0.3,0
		c1.3,0,2.6,0.2,3.9,0.6c1.3,0.3,2.5,0.8,3.7,1.6c2.6,1.7,3.4,4.5,3.1,7.3C29,26.4,28.8,26.9,28.8,27.4z"/>
	<polygon class="st28" points="17.3,2.4 2.3,11.9 4.7,11.5 16,4.8 	"/>
</g>
<g id="Redo">
	<path class="st27" d="M5.4,27.5c-0.4-0.2-0.7-0.5-1-0.8c-0.6-0.6-1.1-1.3-1.5-2c-0.6-1.2-0.9-2.5-1.1-3.8c-0.1-1-0.1-2,0-3
		c0.3-2.2,1.1-4.2,2.6-5.9c1.2-1.4,2.7-2.4,4.3-3.1c2.1-1,4.3-1.4,6.6-1.6c0.4,0,0.7,0,1.1-0.1c0.2,0,0.3-0.1,0.3-0.3
		c0-0.8,0-3.3,0-4.1c0-0.1-0.1-0.2,0.1-0.3c0.1,0,0.2,0,0.3,0.1c0.4,0.2,13.3,8.6,14.8,9.4c0.1,0,0.3,0.1,0.2,0.2
		c0,0.1-0.2,0.1-0.3,0.2c-1.9,1-13.7,8.8-14.7,9.3c-0.4,0.2-0.4,0.2-0.4-0.2c0-0.9,0-3.5,0-4.4c0-0.5,0-0.4-0.5-0.4
		c-0.1,0-0.1,0-0.2,0c-0.1-0.1-0.2,0-0.3,0c-1.3,0-2.6,0.2-3.9,0.6c-1.3,0.3-2.5,0.8-3.7,1.6c-2.6,1.7-3.4,4.5-3.1,7.3
		C5.2,26.5,5.4,27,5.4,27.5z"/>
	<path class="st26" d="M5.4,27.5c0-0.5-0.1-1-0.2-1.5c-0.4-2.8,0.4-5.6,3.1-7.3c1.1-0.7,2.4-1.2,3.7-1.6c1.3-0.3,2.6-0.5,3.9-0.6
		c0.1,0,0.2,0,0.3,0c-1.6,0.2-3.1,0.7-4.4,1.8c-0.7,0.6-1.2,1.3-1.6,2.2c-0.6,1.3-0.7,2.7-0.6,4.1c0.1,0.8,0.4,1.5,0.8,2.2
		c0.6,1,1.4,1.8,2.3,2.4c2,1.4,4.2,2.1,6.6,2.5c0.7,0.1,1.4,0.3,2.1,0.3c0,0,0.1,0,0.2,0.1c-0.7,0-1.3,0-2-0.1
		c-0.8,0-1.7-0.1-2.5-0.2c-1.2-0.2-2.5-0.4-3.7-0.7c-1.7-0.4-3.4-1-5-1.7C7.3,29,5.5,27.5,5.4,27.5L5.4,27.5z"/>
	<polygon class="st28" points="16.9,2.5 31.9,12 29.5,11.6 18.2,4.8 	"/>
</g>
<g id="Delete">
	<polygon class="st26" points="32.6,9 29.5,5.9 18.5,16.9 7.2,5.9 4.1,9 15.3,20 4.1,31.3 7.2,34.4 18.5,23.1 29.5,34.4 32.6,31.3 
		21.6,20 	"/>
	<polygon class="st27" points="31.9,6.5 28.8,3.4 17.7,14.5 6.5,3.4 3.4,6.5 14.6,17.6 3.4,28.8 6.5,31.9 17.7,20.7 28.8,31.9 
		31.9,28.8 20.8,17.6 	"/>
	<g>
		<polygon class="st28" points="17.7,14.5 19.5,14.3 29,5.1 28.7,3.4 		"/>
		<polygon class="st28" points="5.6,28.5 14.7,19.4 14.6,17.6 3.4,28.8 		"/>
		<polygon class="st28" points="6.7,4.7 6.5,3.4 3.4,6.5 5,6.4 		"/>
	</g>
</g>
<g id="Elevation">
	
		<linearGradient id="SVGID_00000061470433902399580060000009659382073167961512_" gradientUnits="userSpaceOnUse" x1="17.9" y1="10.3454" x2="17.9" y2="42.9248" gradientTransform="matrix(1 0 0 -1 0 38)">
		<stop  offset="0" style="stop-color:#DAA980"/>
		<stop  offset="0.228" style="stop-color:#C78F76"/>
		<stop  offset="0.6321" style="stop-color:#487183"/>
		<stop  offset="1" style="stop-color:#346883"/>
	</linearGradient>
	
		<rect x="1.5" y="2.2" style="fill:url(#SVGID_00000061470433902399580060000009659382073167961512_);" width="32.8" height="33.1"/>
	<polygon class="st30" points="1.6,28 1.6,35.1 9.8,35.3 21.8,20.1 12,21.8 9.4,24 	"/>
	<polygon class="st31" points="34.4,35.2 34.3,27.6 32.3,25.6 28.2,20.9 23.6,18.1 21.3,15 19.2,22.8 9.5,35.2 30.7,35.4 30.8,35.4 
			"/>
	<path class="st30" d="M28.9,16.8c0,0,0.1-0.1,0.1,0H28.9L28.9,16.8z"/>
	<polygon class="st32" points="22,13.8 20.6,20.4 15.8,26 22,22.1 22.2,24.4 24.6,23.8 24.9,28.1 27,26 28.2,27 33,30.6 28.2,21 
		25.5,18.8 24.1,17.4 	"/>
	<polygon class="st33" points="11.3,21.4 9.2,24.4 5.9,27.5 10.2,25.3 9.4,27.1 12.9,23.3 13.1,26 15.7,21.9 15.7,22.5 17.9,20.8 
		15.9,24.6 14.2,27.3 16.2,26.1 20.7,20.5 22.1,13.7 16.2,17.1 	"/>
	<polygon class="st30" points="14.2,34.1 22,32.6 20.4,28.4 17.1,29.6 	"/>
	<polygon class="st34" points="11.7,4.9 8.4,4.9 5.8,6.9 4.8,10 5.8,13.1 8.4,15 11.7,15 14.4,13.1 15.4,10 14.4,6.9 	"/>
</g>
</svg>
