<?xml version="1.0" encoding="utf-8"?>
<!-- Generator: Adobe Illustrator 26.5.0, SVG Export Plug-In . SVG Version: 6.00 Build 0)  -->
<svg version="1.1" id="Layer_1" xmlns="http://www.w3.org/2000/svg" xmlns:xlink="http://www.w3.org/1999/xlink" x="0px" y="0px"
	 viewBox="0 0 36 35.9" style="enable-background:new 0 0 36 35.9;" xml:space="preserve">
<style type="text/css">
	.st0{fill-rule:evenodd;clip-rule:evenodd;fill:#58595B;}
	.st1{fill-rule:evenodd;clip-rule:evenodd;fill:#244FA2;}
	.st2{fill-rule:evenodd;clip-rule:evenodd;fill:#A7A9AC;stroke:#000000;stroke-width:0.25;stroke-miterlimit:10;}
	.st3{fill-rule:evenodd;clip-rule:evenodd;fill:#F0F2F3;}
	.st4{fill-rule:evenodd;clip-rule:evenodd;fill:#C9CED2;}
	.st5{fill-rule:evenodd;clip-rule:evenodd;fill:url(#SVGID_1_);}
	.st6{fill-rule:evenodd;clip-rule:evenodd;fill:#F0F2F3;stroke:#58595B;stroke-width:0.5;stroke-miterlimit:10;}
	.st7{fill-rule:evenodd;clip-rule:evenodd;fill:#F7C06A;}
	.st8{fill-rule:evenodd;clip-rule:evenodd;fill:#AEB1B2;}
	.st9{fill:#00090F;}
	.st10{fill:#E2FCFB;}
	.st11{fill-rule:evenodd;clip-rule:evenodd;fill:url(#SVGID_00000092442919772169618630000010805851621564646802_);}
	.st12{fill-rule:evenodd;clip-rule:evenodd;fill:url(#SVGID_00000013871758336921050780000008075817979321648288_);}
	.st13{fill:#AEB1B2;}
	.st14{fill:#E65800;}
</style>
<path class="st0" d="M27.8,34.6h-25V1.1c6.2,0,15.7,0,15.7,0l9.3,10C27.8,11.1,27.8,26.4,27.8,34.6z"/>
<g id="Floppy">
	<g id="FloppyGrp">
		<path class="st1" d="M35,6.6L29.3,1h-25l0,0C2.5,1.1,1.1,2.5,1.1,4.3v27.2c0,1.8,1.5,3.3,3.3,3.3l0,0h27.3c0.9,0,1.7-0.4,2.3-0.9
			c0.6-0.6,1-1.4,1-2.4l0,0l0,0V6.6z"/>
		<path class="st2" d="M27.5,1c0,3,0,6,0,9c0,0.2,0,0.4,0,0.6c-0.2,1-0.9,1.7-1.9,1.7c-2.1,0-4.1,0-6.2,0c-2.8,0-5.7,0-8.5,0
			c-1.4,0-2.1-0.8-2.1-2.2c0-2.9,0-5.7,0-8.6c0-0.2,0-0.4,0-0.5C14.9,1,21.2,1,27.5,1z M25.5,6.6C25.5,6.6,25.6,6.6,25.5,6.6
			c0-1.1,0-2.3,0-3.4c0-0.3-0.1-0.4-0.4-0.4c-1.6,0-3.3,0-4.9,0c-0.3,0-0.4,0.1-0.4,0.4c0,2.2,0,4.5,0,6.7c0,0.3,0.1,0.4,0.4,0.4
			c1.6,0,3.2,0,4.8,0c0.3,0,0.4-0.1,0.4-0.4C25.5,8.9,25.5,7.8,25.5,6.6z"/>
		<path class="st3" d="M4.9,33c0-1.7,0-3.5,0-5.2c0-2.6,0-5.1,0-7.7C4.9,18.7,5.6,18,7,18c7.3,0,14.7,0,22,0c1.4,0,2.1,0.7,2.1,2.1
			c0,4.2,0,8.4,0,12.5c0,0.1,0,0.3,0,0.4C22.4,33,13.7,33,4.9,33z"/>
		<path class="st4" d="M4.9,33c8.8,0,17.5,0,26.3,0c0,0.6,0,1.2,0,1.8c-0.2,0-0.4,0-0.6,0c-8.4,0-16.8,0-25.2,0c-0.2,0-0.4,0-0.6,0
			C4.9,34.2,4.9,33.6,4.9,33z"/>
		<path class="st4" d="M29.8,29.4c0-0.4-0.3-0.6-0.6-0.6l0,0H6.8l0,0l0,0c-0.4,0-0.6,0.3-0.6,0.6S6.5,30,6.8,30l0,0l0,0h22.4l0,0
			C29.5,30.1,29.8,29.8,29.8,29.4z"/>
		<path class="st4" d="M29.8,21.6c0-0.4-0.3-0.6-0.6-0.6l0,0H6.8l0,0l0,0c-0.4,0-0.6,0.3-0.6,0.6s0.3,0.6,0.6,0.6l0,0l0,0h22.4l0,0
			C29.5,22.2,29.8,21.9,29.8,21.6z"/>
		<path class="st4" d="M29.8,25.5c0-0.4-0.3-0.6-0.6-0.6l0,0H6.8l0,0l0,0c-0.4,0-0.6,0.3-0.6,0.6s0.3,0.6,0.6,0.6l0,0l0,0h22.4l0,0
			C29.5,26.1,29.8,25.9,29.8,25.5z"/>
	</g>
</g>
<g id="Folder">
	<g id="FolderGrp">
		
			<linearGradient id="SVGID_1_" gradientUnits="userSpaceOnUse" x1="16.036" y1="1048.889" x2="15.3507" y2="1075.8036" gradientTransform="matrix(1 0 0 1 0 -1044)">
			<stop  offset="0" style="stop-color:#DBAA5D"/>
			<stop  offset="1" style="stop-color:#A17E44"/>
		</linearGradient>
		<path class="st5" d="M14.8,7.6h15.3c0.7,0,1.2,0.6,1.2,1.2v22.4c0,0.7-0.6,1.2-1.2,1.2H1.2c-0.7,0-1.2-0.6-1.2-1.2V8.9
			c0-0.7,0.6-1.3,1.2-1.3h2.9V5.7c0-0.7,0.6-1.2,1.2-1.2h8.2c0.7,0,1.2,0.6,1.2,1.2L14.8,7.6z"/>
		<polygon class="st6" points="16.5,28.6 32.9,15.8 25.3,1.7 5.3,12.5 11.8,28.6 		"/>
		<path class="st4" d="M5.6,13.4h26l-0.3-0.6h-2.7l-3.8-7l0,0l0,0c-0.1-0.2-0.4-0.3-0.6-0.2S23.9,6,24,6.2l0,0l0,0l3.5,6.5h-2.2
			l-3-5.6l0,0c-0.1-0.2-0.4-0.3-0.6-0.2c-0.2,0.1-0.3,0.4-0.2,0.6l0,0l0,0l2.8,5.1h-2.2l-2.3-4.2l0,0c-0.1-0.2-0.4-0.3-0.6-0.2
			S18.9,8.6,19,8.8l0,0l0,0l2,3.7h-2.2l-1.5-2.8l0,0c-0.1-0.2-0.4-0.3-0.6-0.2s-0.3,0.4-0.2,0.6l0,0l0,0l1.3,2.3H5.7L5.6,13.4z"/>
		<path class="st7" d="M4.5,15.1c0.2-0.7,1-1.2,1.6-1.2H35c0.7,0,1.1,0.5,0.9,1.2l-4.1,16.1c-0.2,0.7-1,1.2-1.6,1.2h-29
			c-0.7,0-1.1-0.5-0.9-1.2L4.5,15.1z"/>
		<polygon class="st8" points="31.6,13.4 5.6,13.4 5.8,13.9 31.9,13.9 		"/>
	</g>
</g>
<g id="Pointer">
	<polygon class="st9" points="25.1,20.6 10.9,6.2 10.1,27.1 15.3,23.1 18.8,29.8 23.6,27.2 20.3,21.1 	"/>
	<polygon class="st10" points="15.5,21.3 12,24.2 12,9.3 22.3,19.7 18.3,20.2 21.8,26.8 19.2,28.2 	"/>
</g>
<g id="Export">
	<path class="st0" d="M6.1,34.8V0.9h15.3c0.8,0,0.8,0,5.4,4.9c4.7,4.9,4.7,5,4.7,5.7c0,7.5,0,14.3,0,21.8l0,1.5H6.1z"/>
	
		<linearGradient id="SVGID_00000091010061830054511760000004029831842756143039_" gradientUnits="userSpaceOnUse" x1="14.8785" y1="4.7895" x2="20.6694" y2="32.3929">
		<stop  offset="0" style="stop-color:#F0F2F3"/>
		<stop  offset="1" style="stop-color:#C9CED2"/>
	</linearGradient>
	<path style="fill-rule:evenodd;clip-rule:evenodd;fill:url(#SVGID_00000091010061830054511760000004029831842756143039_);" d="
		M29.8,33.4H7.4V2.6c5.5,0,8.2,0,13.8,0c0.1,0,8.6,8.8,8.6,9.1C29.8,19.2,29.8,25.9,29.8,33.4z"/>
	
		<linearGradient id="SVGID_00000076577709538963126990000007571081098579352969_" gradientUnits="userSpaceOnUse" x1="21.7671" y1="10.7503" x2="24.8291" y2="7.449">
		<stop  offset="0" style="stop-color:#F0F2F3"/>
		<stop  offset="0.7347" style="stop-color:#EAECEE"/>
		<stop  offset="1" style="stop-color:#CBD0D4"/>
	</linearGradient>
	
		<polygon style="fill-rule:evenodd;clip-rule:evenodd;fill:url(#SVGID_00000076577709538963126990000007571081098579352969_);" points="
		25,7 21.4,3.2 21.4,11 28.9,11 	"/>
	<polygon class="st0" points="21.1,12.3 21.1,1.9 19.3,1.9 19.3,13.9 21.1,13.9 21.1,13.9 31,13.9 31,12.3 	"/>
	<polygon class="st8" points="19.4,13.8 19.4,2.5 17.4,2.5 17.4,15.5 19.4,15.5 19.4,15.5 29.8,15.5 29.8,13.8 	"/>
	<path class="st13" d="M13.1,11.3v4.4c2.9,1.2,5.6,2.1,8.1,3.6c1.6,0.9,3.3,2.4,4.3,4.2c3.3,5.6-0.1,10-3.8,11.3
		c-0.2,0.1-0.5-0.1-1.2-0.2c0.9-0.9,1.5-1.6,2.2-2.2c2.4-2.6,2-5.6-0.9-7.3c-2.7-1.5-5.7-1.7-8.7-1.6v4.2l-6.5-5.8l0-4.7L13.1,11.3z
		"/>
	<path d="M11.2,8.1v4.4c2.9,1.2,5.6,2.1,8.1,3.6c1.6,0.9,3.3,2.4,4.3,4.2c3.3,5.6-0.1,10-3.8,11.3c-0.2,0.1-0.5-0.1-1.2-0.2
		c0.9-0.9,1.5-1.6,2.2-2.2c2.4-2.6,2-5.6-0.9-7.3c-2.7-1.5-5.7-1.7-8.7-1.6v4.2l-9.9-8.4v-0.4L11.2,8.1z"/>
	<path class="st14" d="M23.6,24.2c-0.1-1-0.4-2-1.1-3.1c-0.8-1.4-2.2-2.7-3.8-3.6c-1.7-1-3.5-1.7-5.5-2.5c-0.8-0.3-1.7-0.7-2.5-1
		l-0.9-0.4V11l-6.4,4.9l6.4,5.5v-2.6l1.3,0c0.5,0,0.9,0,1.4,0c2.4,0,5.2,0.2,8,1.8C22.2,21.3,23.3,22.7,23.6,24.2z"/>
</g>
</svg>
