<?xml version="1.0" encoding="utf-8"?>
<!-- Generator: Adobe Illustrator 26.5.0, SVG Export Plug-In . SVG Version: 6.00 Build 0)  -->
<svg version="1.1" id="Layer_1" xmlns="http://www.w3.org/2000/svg" xmlns:xlink="http://www.w3.org/1999/xlink" x="0px" y="0px"
	 viewBox="0 0 32 32" style="enable-background:new 0 0 32 32;" xml:space="preserve">
<style type="text/css">
	.st0{fill:#1E1E1E;}
	.st1{fill:#FFFFFF;}
	.st2{display:none;}
	.st3{display:inline;fill:#FFFFFF;}
	.st4{display:inline;}
	.st5{fill:#00A99D;}
	.st6{display:inline;fill:#00A99D;}
	.st7{fill:#E8FF10;}
</style>
<g id="Circle">
	<ellipse cx="16" cy="15.9" rx="16" ry="16"/>
</g>
<g id="Square">
	<rect class="st0" width="31.9" height="32"/>
</g>
<g id="Visibility">
	<g id="Light">
		<polygon class="st1" points="15.5,6.7 16.6,6.6 16.6,2.9 15.5,2.9 		"/>
		<polygon class="st1" points="24.8,14.9 24.7,15.9 28.5,15.9 28.5,14.9 		"/>
		<polygon class="st1" points="27,9.6 26.5,8.7 23.4,10.6 23.8,11.5 		"/>
		<polygon class="st1" points="20,7.5 20.9,8.1 22.8,4.9 21.9,4.4 		"/>
		<polygon class="st1" points="15.5,27.9 16.5,27.9 16.5,24.2 15.5,24.2 		"/>
		<polygon class="st1" points="23.3,20.3 26.6,22.2 27.1,21.3 23.9,19.5 		"/>
		<polygon class="st1" points="20,23.4 21.8,26.5 22.7,26 20.8,22.8 		"/>
		<polygon class="st1" points="7,14.9 3.3,14.9 3.3,15.9 7.1,15.9 		"/>
		<polygon class="st1" points="8.6,10.6 5.3,8.7 4.8,9.6 8,11.4 		"/>
		<polygon class="st1" points="4.7,21.3 5.3,22.2 8.4,20.4 8,19.4 		"/>
		<polygon class="st1" points="9.2,26 10.1,26.5 12,23.4 11.1,22.8 		"/>
		<polygon class="st1" points="11.9,7.6 10.1,4.4 9.2,4.9 11.1,8.2 		"/>
		<path class="st1" d="M8.1,15.4c0,4.1,3.2,7.5,7.2,7.8V7.6C11.2,7.9,8.1,11.3,8.1,15.4z"/>
	</g>
	<g id="Stippling">
		<path class="st1" d="M18.1,22.9l5.4-5.4c0.1-0.4,0.2-0.8,0.2-1.3l-6.9,6.9C17.3,23.1,17.7,23.1,18.1,22.9z"/>
		<path class="st1" d="M23.7,13.9L16.6,21v1l7.2-7.2C23.8,14.5,23.7,14.2,23.7,13.9z"/>
		<path class="st1" d="M23.1,12l-6.5,6.5v1l6.8-6.8C23.3,12.5,23.2,12.3,23.1,12z"/>
		<path class="st1" d="M22.2,10.5l-5.6,5.6v1l6-6C22.5,10.9,22.3,10.7,22.2,10.5z"/>
		<path class="st1" d="M20.9,9.3l-4.3,4.3v1l4.9-4.9C21.3,9.6,21.1,9.4,20.9,9.3z"/>
		<path class="st1" d="M19.5,8.3l-2.8,2.8v1l3.5-3.5C19.9,8.6,19.7,8.4,19.5,8.3z"/>
		<path class="st1" d="M17.6,7.7l-1,1v1l1.8-1.8C18.2,7.8,17.9,7.8,17.6,7.7z"/>
	</g>
</g>
<g id="Folder">
	<g id="Stippling_00000163035540097796950980000017996340976698674599_">
		<polygon class="st1" points="20.4,14.3 10.3,25 11.2,25 21.3,14.3 		"/>
		<polygon class="st1" points="18.1,14.3 8,25 9,25 19.1,14.3 		"/>
		<polygon class="st1" points="15.8,14.3 6.8,23.9 6.5,25 6.7,25 16.8,14.3 		"/>
		<polygon class="st1" points="13.6,14.3 7.7,20.5 7.3,21.9 14.5,14.3 		"/>
		<polygon class="st1" points="11.2,14.3 8.7,17 8.3,18.4 12.2,14.3 		"/>
		<path class="st1" d="M9.7,14.3c-0.2,0-0.4,0.2-0.4,0.5L9.2,15l0.7-0.7H9.7z"/>
		<polygon class="st1" points="24.9,14.3 14.8,25 15.7,25 25.8,14.3 		"/>
		<polygon class="st1" points="22.6,14.3 12.5,25 13.5,25 23.6,14.3 		"/>
		<path class="st1" d="M27.6,14.3h-0.5L17,25h0.9l10-10.6C27.8,14.4,27.7,14.3,27.6,14.3z"/>
		<polygon class="st1" points="27.6,16.1 19.2,25 20.2,25 27.2,17.6 		"/>
		<polygon class="st1" points="25.1,24.6 25.5,23.2 23.7,25 24.7,25 		"/>
		<polygon class="st1" points="26.6,19.6 21.5,25 22.4,25 26.1,21.1 		"/>
	</g>
	<polygon class="st1" points="26,11.6 22.2,3.9 9,11.6 	"/>
	<path class="st1" d="M29.1,12.5h-2.7V7.6H11.7V6.3c0-0.7-0.5-1.2-1.1-1.2H5c-0.6,0-1.1,0.5-1.1,1.2v1.3v0.1v19l0,0l0,0h22.6
		l3.8-13.1C30.2,13,29.7,12.5,29.1,12.5z M4.6,8.8V6.7c0-0.3,0.2-0.5,0.5-0.5h5.2c0.3,0,0.5,0.2,0.5,0.5v2h14.8v3.8H8.4
		c-0.6,0-1.1,0.5-1.1,1.2l-2.7,10L4.6,8.8C4.6,8.9,4.6,8.9,4.6,8.8z M25.8,25.7H5L8.2,14c0-0.3,0.2-0.5,0.5-0.5h20.1
		c0.3,0,0.5,0.2,0.5,0.5L25.8,25.7z"/>
</g>
<g id="Redo">
	<path id="Dial_00000146484452856491953720000013288258649566051479_" class="st1" d="M22.3,19.5l-0.9-1.1l-1.6-1.9
		c0.2-0.3,0.3-0.6,0.3-0.9c0-0.7-0.5-1.3-1.1-1.5V11c0-0.2-0.2-0.4-0.4-0.4s-0.4,0.2-0.4,0.4v1.5v1.7c-0.6,0.2-1.1,0.8-1.1,1.5
		c0,0.9,0.7,1.5,1.5,1.5c0.2,0,0.4,0,0.5-0.1l2.6,3c0.2,0.2,0.4,0.2,0.6,0.1C22.5,19.9,22.5,19.6,22.3,19.5z M17.6,15.6
		c0-0.5,0.4-0.9,0.9-0.9s0.9,0.4,0.9,0.9s-0.4,0.9-0.9,0.9S17.6,16.1,17.6,15.6z"/>
	<g id="Arrow">
		<path class="st1" d="M9.1,23c-0.7,0.7-1.4,1.4-2.1,2.1c-1.2-0.7-3-4.4-3.5-6.9C2.9,15.6,3.1,13,4,10.5s2.4-4.6,4.5-6.4
			c-0.2-0.3-0.7-1-0.9-1.4c0.8,0.1,3.9,0.7,5,0.9c-0.5,1.6-1,3.2-1.6,4.8c-0.3-0.4-0.7-1.1-1-1.5c-1.6,1.4-2.6,3-3.3,4.9
			c-0.6,1.9-0.7,3.9-0.3,5.9C6.9,19.7,7.8,21.4,9.1,23z"/>
		<path class="st1" d="M10.2,27.8C9.6,27.4,9,27,8.5,26.6c0.6-0.8,1.2-1.6,1.9-2.4c0.5,0.3,0.9,0.7,1.4,1
			C11.2,26.1,10.7,26.9,10.2,27.8z"/>
		<path class="st1" d="M13.8,29.3c-0.4,0-1.1-0.3-1.7-0.6c0.1-0.5,0.4-0.9,0.5-1.4c0.2-0.5,0.4-0.9,0.6-1.4c0.5,0.2,0.9,0.3,1.4,0.5
			C14.4,27.4,14.1,28.4,13.8,29.3z"/>
		<path class="st1" d="M17.8,29.9c-0.6,0-1.1,0-1.7-0.1c0.1-1,0.2-2,0.4-3c0.5,0,0.9,0,1.3,0.1C17.8,27.9,17.7,28.9,17.8,29.9z"/>
		<path class="st1" d="M19.5,26.7c0.4-0.1,0.7-0.1,1.1-0.2c0.3,1,0.5,1.9,0.8,2.9c-0.5,0.2-0.9,0.2-1.5,0.3
			C19.9,28.7,19.7,27.7,19.5,26.7z"/>
	</g>
	<path id="Watch_00000133510333024877969500000009674410303615443606_" class="st1" d="M18.9,6.7V5.9h1c0.2,0,0.3-0.2,0.3-0.3V4.5
		c0-0.2-0.2-0.3-0.3-0.3h-2.8c-0.2,0-0.3,0.2-0.3,0.3v1.1c0,0.2,0.2,0.3,0.3,0.3h1v0.8c-4.7,0.2-8.4,4.1-8.4,8.8
		c0,4.9,4,8.8,8.8,8.8c4.9,0,8.8-4,8.8-8.8C27.3,10.8,23.6,6.9,18.9,6.7z M18.7,21.8v-0.5h-0.5v0.5c-3.3-0.1-6-2.8-6.1-6.1h0.6v-0.5
		h-0.6c0.1-3.3,2.8-6,6.1-6.1v0.6h0.5V9.2c3.3,0.1,6,2.8,6.1,6.1h-0.5v0.5h0.5C24.7,19.1,22.1,21.7,18.7,21.8z"/>
</g>
<g id="Undo">
	<path id="Watch" class="st1" d="M12.5,6.6V5.9h1c0.2,0,0.3-0.2,0.3-0.3V4.4c0-0.2-0.2-0.3-0.3-0.3h-2.8c-0.2,0-0.3,0.2-0.3,0.3v1.1
		c0,0.2,0.2,0.3,0.3,0.3h1v0.8C7,6.8,3.3,10.7,3.3,15.4c0,4.9,4,8.8,8.8,8.8c4.9,0,8.8-4,8.8-8.8C20.9,10.7,17.2,6.9,12.5,6.6z
		 M12.3,21.8v-0.5h-0.5v0.5c-3.3-0.1-6-2.8-6.1-6.1h0.6v-0.5H5.7c0.1-3.3,2.8-6,6.1-6.1v0.6h0.5V9.1c3.3,0.1,6,2.8,6.1,6.1h-0.5v0.5
		h0.5C18.3,19,15.6,21.6,12.3,21.8z"/>
	<path id="Dial" class="st1" d="M15.9,19.4L15,18.3l-1.6-1.9c0.2-0.3,0.3-0.6,0.3-0.9c0-0.7-0.5-1.3-1.1-1.5v-3.1
		c0-0.2-0.2-0.4-0.4-0.4s-0.4,0.2-0.4,0.4v1.5v1.7c-0.6,0.2-1.1,0.8-1.1,1.5c0,0.9,0.7,1.5,1.5,1.5c0.2,0,0.4,0,0.5-0.1l2.6,3
		c0.2,0.2,0.4,0.2,0.6,0.1C16,19.9,16,19.6,15.9,19.4z M11.2,15.5c0-0.5,0.4-0.9,0.9-0.9S13,15,13,15.5s-0.4,0.9-0.9,0.9
		S11.2,16,11.2,15.5z"/>
	<g id="Arrow_00000079471509766822954260000003758130298103195558_">
		<path class="st1" d="M20.4,27.8c0.6-0.4,1.1-0.8,1.7-1.2c-0.6-0.8-1.2-1.6-1.9-2.4c-0.5,0.3-0.9,0.7-1.4,1
			C19.3,26.1,19.8,26.9,20.4,27.8z"/>
		<path class="st1" d="M16.7,29.3c0.4,0,1.1-0.3,1.7-0.6c-0.1-0.5-0.4-0.9-0.5-1.4c-0.2-0.5-0.4-0.9-0.6-1.4
			c-0.5,0.2-0.9,0.3-1.4,0.5C16.2,27.4,16.5,28.4,16.7,29.3z"/>
		<path class="st1" d="M12.8,29.9c0.6,0,1.1,0,1.7-0.1c-0.1-1-0.2-2-0.4-3c-0.5,0-0.9,0-1.3,0.1C12.8,27.9,12.8,28.8,12.8,29.9z"/>
		<path class="st1" d="M11,26.7c-0.4-0.1-0.7-0.1-1.1-0.2c-0.3,1-0.5,1.9-0.8,2.9c0.5,0.2,0.9,0.2,1.5,0.3
			C10.7,28.7,10.9,27.7,11,26.7z"/>
		<path class="st1" d="M21.5,23c0.7,0.7,1.4,1.4,2.1,2.1c1.2-0.7,3-4.4,3.5-6.9c0.5-2.6,0.3-5.2-0.6-7.7S24.1,5.9,22,4.2
			c0.3-0.4,0.7-1.2,1-1.5c-0.8,0.1-3.9,0.7-5,0.9c0.5,1.6,1,3.2,1.6,4.8c0.3-0.4,0.7-1.1,1-1.5c1.6,1.4,2.6,3,3.3,4.9
			c0.6,1.9,0.7,3.9,0.3,5.9C23.7,19.6,22.8,21.4,21.5,23z"/>
	</g>
</g>
<g id="Floppy">
	<path class="st1" d="M21.9,4.2h-16v23.6h20.3V9.4L21.9,4.2z M16.2,5.8h2.1v4.4h-2.1V5.8z M25.2,26.6H6.8V5.2h3.4v6.2h10.4V5.2h0.7
		l3.9,4.7V26.6z"/>
	<path class="st1" d="M22.1,16.2c-0.4-0.4-1-0.6-1.6-0.6h-8.9c-0.6,0-1.1,0.2-1.5,0.6c-0.5,0.4-0.7,1-0.7,1.6v5.4
		c0,0.6,0.2,1.1,0.6,1.5c0.4,0.4,1,0.7,1.6,0.7h8.9c0.6,0,1.2-0.3,1.6-0.7c0.4-0.4,0.6-0.9,0.6-1.5v-5.4
		C22.8,17.1,22.5,16.6,22.1,16.2z M21.1,24.2h-9.9v-0.6h9.9V24.2z M21.1,22.5h-9.9v-0.6h9.9V22.5z M21.1,20.8h-9.9v-0.6h9.9V20.8z
		 M21.1,19.1h-9.9v-0.6h9.9V19.1z M21.1,17.4h-9.9v-0.6h9.9V17.4z"/>
</g>
<g id="Elevation" class="st2">
	<path class="st3" d="M9.1,3.1C6.8,3.1,5,5,5,7.2s1.8,4.1,4.1,4.1s4.1-1.8,4.1-4.1C13.2,5,11.3,3.1,9.1,3.1z"/>
	<path class="st3" d="M24.3,20.3L23,19.5l-3-5.4l-1.3-1.6l-2.1,5.1l-1.4,0.2l-0.7,1.4l-2.3-3l-3.7,5.5h-1l-2.9,4.8h22.6L24.3,20.3z
		 M12.3,24.5l-1.2,1.3H9.8l2-2.2L12.3,24.5z M8.9,25.7H7.6l3.5-3.8v0.3l0.3,0.7L8.9,25.7z M8,23l1-0.1l2-2.8V21l-4.3,4.7H6.6L8,23z
		 M12.1,25.8l0.6-0.6l0.3,0.6H12.1z M14,26l-2-4.2l-0.7-2.5l1.3,1.2l-0.5-2.9l3.2,4.8l1.5,3.8L14,26z M19.7,24l-1.5-1.1l0.1-6.7
		l2.1,3.6l-1-5.4l2.8,5.9l1.4,0.7l2,4.5h-4.7L19.7,24z"/>
</g>
<g id="Paint" class="st2">
	<g id="Stippling_00000049940187168252142910000007554324485086293165_" class="st4">
		<path class="st1" d="M16.3,5.1C16.2,5.1,16.2,5.1,16.3,5.1l-3.6,3c0.3,0,0.5,0,0.8,0.1L17,5.1C16.8,5.1,16.5,5.1,16.3,5.1z"/>
		<path class="st1" d="M14.1,5.1l-3.2,2.7c0.2,0,0.5,0.1,0.7,0.1L15,5.1C14.7,5.1,14.4,5.1,14.1,5.1z"/>
		<path class="st1" d="M11.8,5.3L9.2,7.5c0.2,0.1,0.4,0.1,0.6,0.2l2.9-2.4C12.4,5.3,12.1,5.3,11.8,5.3z"/>
		<path class="st1" d="M9.1,5.9l-1,0.8c0,0.1,0.2,0.3,0.4,0.4l1.9-1.6C9.8,5.7,9.4,5.8,9.1,5.9z"/>
		<path class="st1" d="M20.1,5.2l-3.5,3c0.3,0,0.6,0,0.9,0l3.4-2.9C20.6,5.3,20.3,5.3,20.1,5.2z"/>
		<path class="st1" d="M18.2,5.1l-3.7,3.1c0.3,0,0.5,0,0.8,0l3.7-3C18.7,5.1,18.5,5.1,18.2,5.1z"/>
		<path class="st1" d="M21.8,5.5l-3.2,2.7c0.3,0,0.6,0,0.9-0.1l3-2.5C22.3,5.6,22,5.5,21.8,5.5z"/>
		<path class="st1" d="M23.4,5.9L20.9,8c0.4,0,0.7-0.1,1.1-0.2l2-1.7C23.8,6,23.6,5.9,23.4,5.9z"/>
		<path class="st1" d="M24.6,6.7l-0.9,0.8C24.3,7.3,24.6,7,24.6,6.7L24.6,6.7z"/>
	</g>
	<path class="st3" d="M26.5,24.4c-0.2-0.3-0.3-0.6-0.3-0.9c0-2.8,0-3.8,0-6.6c0,0,0,0,0.1,0c0-2.9,0-5.8,0-8.7
		c0-0.2,0.1-0.3,0.2-0.5C27,7.1,26.9,6,26.2,5.5c-0.7-0.6-1.6-0.9-2.5-1.2c-2.4-0.6-4.9-0.7-7.4-0.8c-2.6,0-5.3,0.1-7.8,0.8
		C7.6,4.6,6.7,5,6,5.7C5.5,6.4,5.4,6.9,5.9,7.6C6,7.8,6.2,8.1,6.2,8.3c0,5.6,0.1,9.5,0.1,15.1c0,0.3-0.1,0.7-0.3,1
		c-0.7,0.8-0.4,1.6,0.5,2.2c1.1,0.8,2.4,1.1,3.8,1.4c4.2,0.7,8.4,0.6,12.5-0.1c1-0.2,2-0.5,2.9-1C26.8,26.3,27.1,25.2,26.5,24.4z
		 M15.6,16.4c0.3,1.1,0.7,2.1,0.9,3.2c0,0.5-0.2,1.1-0.5,1.6c-0.3,0.5-1.2,0.8-2.3,0.8s-2.3-2.7-1.3-7.4c0.1-0.4,0.2-1.1-0.2-1.2
		c-0.4-0.1-0.7,0.1-0.9,1c-0.1,0.6,0,1.7-0.3,2.1c-0.4,0.6-1.4,0.5-1.8,0C7.3,14.4,10.4,14,8,11.4c-0.7-0.7-1.5-1.7-0.8-2.6
		c2.9,1.4,7.3,1.3,9.9,1.4c-0.9,1.7-0.6,1.2-1.3,2.1C15,13.4,15.4,15.3,15.6,16.4z M24.4,26.3c-1.1,0.5-2.3,0.7-3.4,0.8
		c-3.4,0.5-6,0.5-9.2,0.1c-1.2-0.2-2.9-0.7-4.1-1.1c-0.2-0.1-0.4-0.2-0.6-0.3c-0.3-0.2-0.4-1.2,0.9-0.7c2.5,0.9,3.1,1,5.8,1.2
		c1.1,0,2.7,0,4.1,0V10.1l0.9-0.1l0.1,16.4c0.2,0,0.4,0,0.6,0c0.4,0,0.5-0.4,0.5-0.7c0-3.2,0-3.9,0-7.1c0-2.8,0-5.7,0-8.5
		c0-0.1,0-0.2,0-0.3c1.6-0.3,3.2-0.7,4.8-1c0,0.1,0,0.2,0,0.2c0,6.1,0.1,10.4,0.1,16.5C25,25.9,24.8,26.1,24.4,26.3z M16.2,8.9
		c-5.2,0-9.4-1-9.4-2.1c0-1.2,4.2-2.1,9.4-2.1s9.4,1,9.4,2.1C25.5,7.9,21.4,8.9,16.2,8.9z"/>
</g>
<g id="Brush" class="st2">
	<path class="st3" d="M28.1,9.1l-1.9,0.7l1.1-1.6c-1.1-1.1-2.2-2.1-3.5-3.4l-4.2,1l2.9-2.7c-0.2-0.2-1.8-1.7-1.8-1.7
		c-3.2,3.3-6.3,6.6-9.5,9.9c-0.3,0.3-0.3,0.6-0.2,1c0.4,1.2,0.7,2.3,1.1,3.5c0.2,0.8,0.1,1.6-0.7,2c-0.7,0.4-1.4,0.9-2.1,1.2
		c-0.3,0.1-0.6,0.3-0.9,0.4l0.8,0.8c0.1,0,0.2-0.1,0.3-0.1c1.1-0.5,2.1-1.2,3-1.8c0.7-0.5,0.9-1.3,0.7-2.2c-0.3-1.2-0.6-2.4-0.9-3.5
		c-0.1-0.4-0.1-0.7,0.2-1c0.7-0.7,1.4-1.4,2.1-2.2c2.8,2.9,5.5,5.7,8.3,8.7c-0.8,0.8-1.5,1.6-2.3,2.3c-0.4,0.3-2.9-0.8-4.1-1
		c-1.1-0.2-1.9,0.3-2.5,1.4c-0.5,1-1,1.9-1.4,2.9c0,0,0,0,0,0.1l0.7,0.8c0.1-0.1,0.1-0.2,0.2-0.4c0.5-1,1-1.9,1.5-2.9
		c0.4-0.8,0.7-1,1.6-0.8c1.1,0.3,2.2,0.7,3.3,1.1c0.6,0.2,0.9,0.2,1.3-0.3c3-3.1,9.3-9.8,9.2-10C29.5,10.4,28.8,9.7,28.1,9.1z
		 M23.5,17c-2.7-2.8-5.4-5.6-8.1-8.4c0.4-0.4,0.9-0.8,1.4-1.3c0,0,1.2,1.2,2.1,0.9C19.7,7.9,21.6,7,22,6.8c-0.1,0.6-0.8,2.7-0.9,3.4
		c-0.1,1.1,0.6,1.7,1.7,1.6c0.4,0,0.8-0.2,1.2-0.2c0.6-0.1,0.8,0.1,0.7,0.7c-0.1,0.3-0.1,0.7-0.2,1c-0.2,1.1-0.1,1.4,0.8,1.8
		C24.7,15.7,24,16.4,23.5,17z"/>
	<path class="st3" d="M12.4,23.6l-3.3-3.5l-0.8-0.8c-1.6,0.9-2.6,2.4-3.2,4.2c-0.7,2.3-0.2,3.6,1.8,4.4c2.5,0.7,5.2-1.6,6.3-3.6
		L12.4,23.6z M8.2,25.8c-0.9,0-1.6-0.7-1.6-1.6s0.7-1.6,1.6-1.6s1.6,0.7,1.6,1.6S9.1,25.8,8.2,25.8z"/>
</g>
<g id="Export" class="st2">
	<polygon class="st3" points="20.1,9.4 26.1,9.4 26.1,9.4 20.1,4.1 	"/>
	<g class="st4">
		<path class="st1" d="M11.3,18.7H19c-0.3-0.3-0.6-0.5-1-0.8c-0.6-0.3-1.3-0.6-1.9-0.8h-4.8V18.7z"/>
		<path class="st1" d="M26.1,10.5h-6.6l0,0H19V4H6v7.3l1.2-1V9.9h0.6l2-1.6H7.3V7.7h3.5l0.6-0.4v0.4H18v0.6h-6.7v1.6h6.8v0.6h-6.8
			v0.1c1.2,0.5,2.4,0.9,3.5,1.4h10.5v0.6h-9.1c0.5,0.2,0.9,0.5,1.3,0.7s0.8,0.5,1.2,0.8h6.6v0.6h-5.8c0.5,0.5,0.9,1,1.2,1.6h4.6v0.6
			h-4.2c0.3,0.5,0.5,1.1,0.6,1.6h3.6v0.6h-3.5c0.1,0.5,0.1,1.1,0,1.6h3.5v0.6h-3.6c-0.2,0.6-0.4,1.1-0.7,1.6h4.3v0.6h-4.8
			c-0.6,0.7-1.4,1.2-2.2,1.6h7v0.6h-18v-0.6h9.8c0,0,0,0-0.1,0c0.6-0.6,1.1-1.1,1.5-1.6H7.3v-0.6h11.9c0.4-0.5,0.6-1,0.7-1.6H7.3
			v-0.6H20c0-0.6-0.1-1.1-0.4-1.6h-8.2v0.6l-0.7-0.6H7.3v-0.6h2.6L8,17.1H7.3v-0.6L6,15.4v12h20.2L26.1,10.5z M18.1,6.1H7.3V5.5
			h10.8V6.1z"/>
	</g>
	<path class="st3" d="M20.9,19.9c-0.1-0.8-0.3-1.7-0.8-2.6c-0.6-1.1-1.5-2.1-2.7-2.8c-1.3-0.8-2.8-1.4-4.4-2
		c-0.6-0.2-2.6-1.1-2.6-1.1v-2l-5.2,4l5.2,4.3v-2.2h1c0.4,0,0.7,0,1.1,0c1.9,0,4,0.2,6.2,1.4C19.8,17.7,20.7,18.7,20.9,19.9z"/>
</g>
<g id="Lo5">
	<path id="N5_00000161623432412111804150000016598136117493720488_" class="st5" d="M24,6.2V3.9h0H7.8v10h0v1.7c0.6,0,9.3,0,9.4,0
		c0.6,0,1.7,0,2.1,1.2c0,0.2,0.1,3.6,0.1,3.6h0c0,1.5,0,3.1,0,3.1l0,0c-0.3,1.5-1.5,1.5-2.2,1.5c-0.1,0-2.4,0-2.5,0
		c-0.7,0-2.2,0-2.2-2.3c0,0,0,0,0-0.1H7.8v0.1h0c0,0.5,0.2,4.5,4.5,4.6h7.2c4.3-0.1,4.5-4.1,4.5-4.6h0v0v-2.3l0,0c0,0,0-2.6,0-2.8
		l0,0c-0.1-1.2-0.8-4.1-4.5-4.2h-7v-7L24,6.2z"/>
</g>
<g id="Lo4" class="st2">
	<path id="N4_00000141430432205364971890000002358315377476367258_" class="st6" d="M24.1,17.9v-2.4h-2.4V3.9H17h-0.3L7.7,13v2.5
		v2.4h4.7H17v7h-2.5v2.3h9.6v-2.3h-2.4v-7H24.1z M12.4,15.5v-2.6L17,8.3v7.2H12.4z"/>
</g>
<g id="Lo3" class="st2">
	<path id="N3_00000131349041421549199410000013288103306229667772_" class="st6" d="M24,8c-0.1-1.2-0.8-4.1-4.5-4.2h-7.2
		C8,4,7.8,7.9,7.8,8.5h0v0.1h4.7c0-0.1,0-0.1,0-0.1c0-2.3,1.4-2.3,2.2-2.3c0.1,0,2.4,0,2.5,0c0.6,0,1.9,0,2.2,1.5l0,0
		c0,0,0,3.2,0,3.2c0,2.3-1.4,2.3-2.2,2.3c0,0-3.5,0-4.5,0v2.3c0,0,4.5,0,4.5,0c0.7,0,2.2,0,2.2,2.3c0,0,0,5.5,0,5.5l0,0
		c-0.3,1.5-1.5,1.5-2.2,1.5c-0.1,0-2.4,0-2.5,0c-0.7,0-2.2,0-2.2-2.3c0,0,0,0,0-0.1H7.8v0.1h0c0,0.5,0.2,4.5,4.5,4.6h7.2
		c4.3-0.1,4.5-4.1,4.5-4.6h0v0l0-4.7c0-0.4-0.1-2.2-1.4-3.5c1.3-1.2,1.4-3.1,1.4-3.5h0L24,8z"/>
</g>
<g id="Lo1">
	<polygon id="N1_00000175320731253421439700000002479766387374767271_" class="st5" points="19.6,3.9 14.6,3.9 7.7,10.9 12.3,10.9 
		14.9,8.3 14.9,24.9 10.3,24.9 10.3,27.2 24.1,27.2 24.1,24.9 19.6,24.9 	"/>
</g>
<g id="Lo0">
	<path id="No_00000147937448863516279020000000871873455890910111_" class="st7" d="M24.3,8.5c0-0.5-0.2-4.5-4-4.6h-8.5
		C7.9,4,7.8,8,7.8,8.5h0v14.1h0c0,0.5,0.2,4.5,4,4.6h8.5c3.8-0.1,4-4.1,4-4.6h0v-0.1V8.6L24.3,8.5L24.3,8.5z M20.1,22.6
		c0,2.3-1.3,2.3-1.9,2.3c-0.1,0-4.3,0-4.3,0c-0.6,0-1.9,0-1.9-2.3c0,0,0-14,0-14c0-2.3,1.3-2.3,1.9-2.3c0.1,0,4.3,0,4.3,0
		c0.6,0,1.9,0,1.9,2.3C20.1,8.5,20.1,22.6,20.1,22.6z"/>
	<rect id="Hole_00000056402781468401690400000011379864824535810702_" x="13.8" y="13.2" class="st7" width="4.2" height="4.6"/>
</g>
<g id="Lo2">
	<path id="N2_00000034779656092246409870000012436081277710342831_" class="st5" d="M19.3,22.4v2.5h-6.8v-3.1l9.1-9.1l0.4-0.4l0,0
		c0.3-0.3,1.9-1.7,2-3.3h0v0c0-0.1,0-0.2,0-0.2V8.5h0c0-0.5-0.2-4.5-4.5-4.6l-2.7,0v0l-1,0l-1,0v0l-2.7,0C8,4,7.8,7.9,7.8,8.5h0v0.1
		h4.7c0-0.1,0-0.1,0-0.1c0-2.3,1.4-2.3,2.2-2.3c0.1,0,0.2,0,0.3,0c0.8,0,1.9,0,1.9,0c0.1,0,0.2,0,0.3,0c0.6,0,1.8,0,2.1,1.5v0.7
		c0,0,0,0,0,0.1v0h0c0,0.4-0.3,0.9-1,1.7c0,0-0.2,0.1-0.4,0.3l0,0l-0.1,0.1c0,0,0,0,0,0L7.8,20.7l0.1,0H7.8v6.5h2.9h1.8h6.8H24h0
		v-4.8H19.3z"/>
</g>
<g id="No5">
	<path id="N5" class="st5" d="M23.6,3.3V0.2h0H7.4v13.4h0v2.3c0.6,0,9.3,0,9.4,0c0.6,0,1.7,0,2.1,1.6c0,0.3,0.1,4.8,0.1,4.8h0
		c0,2,0,4.1,0,4.1l0,0c-0.3,2-1.5,2-2.2,2c-0.1,0-2.4,0-2.5,0c-0.7,0-2.2,0-2.2-3.1c0,0,0-0.1,0-0.2H7.4v0.2h0c0,0.7,0.2,6,4.5,6.2
		h7.2c4.3-0.2,4.5-5.5,4.5-6.2h0v0v-3.1l0,0c0,0,0-3.5,0-3.8l0-0.1c-0.1-1.6-0.8-5.5-4.5-5.6h-7V3.3L23.6,3.3z"/>
</g>
<g id="No4">
	<path id="N4" class="st5" d="M23.7,19.1v-3.2h-2.4V0.2h-4.7h-0.3L7.3,12.5v3.4v3.2H12h4.6v9.4h-2.5v3.1h9.6v-3.1h-2.4v-9.4H23.7z
		 M12,15.9v-3.6l4.6-6.2v9.8H12z"/>
</g>
<g id="No3">
	<path id="N3" class="st5" d="M23.6,5.8c-0.1-1.6-0.8-5.5-4.5-5.6h-7.2C7.6,0.4,7.4,5.7,7.4,6.4h0v0.2h4.7c0-0.1,0-0.2,0-0.2
		c0-3.1,1.4-3.1,2.2-3.1c0.1,0,2.4,0,2.5,0c0.6,0,1.9,0,2.2,2l0,0c0,0,0,4.3,0,4.3c0,3.1-1.4,3.1-2.2,3.1c0,0-3.5,0-4.5,0v3.1
		c0,0,4.5,0,4.5,0c0.7,0,2.2,0,2.2,3.1c0,0,0,7.4,0,7.4l0,0c-0.3,2-1.5,2-2.2,2c-0.1,0-2.4,0-2.5,0c-0.7,0-2.2,0-2.2-3.1
		c0,0,0-0.1,0-0.2H7.4v0.2h0c0,0.7,0.2,6,4.5,6.2h7.2c4.3-0.2,4.5-5.5,4.5-6.2h0v0l0-6.4c0-0.5-0.1-3-1.4-4.7
		c1.3-1.7,1.4-4.2,1.4-4.7h0L23.6,5.8z"/>
</g>
<g id="No2">
	<path id="N2" class="st5" d="M18.9,25.1v3.3h-6.8v-4.2L21.2,12l0.4-0.5l0,0c0.3-0.4,1.9-2.3,2-4.4h0V7c0-0.1,0-0.2,0-0.3V6.4h0
		c0-0.7-0.2-6-4.5-6.2l-2.7,0v0l-1,0l-1,0v0l-2.7,0C7.6,0.4,7.4,5.7,7.4,6.4h0v0.2h4.7c0-0.1,0-0.2,0-0.2c0-3.1,1.4-3.1,2.2-3.1
		c0.1,0,0.2,0,0.3,0c0.8,0,1.9,0,1.9,0c0.1,0,0.2,0,0.3,0c0.6,0,1.8,0,2.1,2v0.9c0,0,0,0,0,0.1v0h0c0,0.6-0.3,1.3-1,2.3
		c0,0-0.2,0.2-0.4,0.5l0,0l-0.1,0.1c0,0,0,0,0,0L7.4,22.8l0.1,0.1H7.4v8.8h2.9h1.8h6.8h4.7h0v-6.5H18.9z"/>
</g>
<g id="No1">
	<polygon id="N1" class="st5" points="19.2,0.2 14.2,0.2 7.3,9.6 11.9,9.6 14.5,6.1 14.5,28.5 9.9,28.5 9.9,31.6 23.7,31.6 
		23.7,28.5 19.2,28.5 	"/>
</g>
<g id="No0">
	<path id="No" class="st5" d="M24.8,6.4c0-0.7-0.2-6-4.5-6.2h-9.6C6.4,0.4,6.2,5.7,6.2,6.4h0v19h0c0,0.7,0.2,6,4.5,6.2h9.6
		c4.3-0.2,4.5-5.5,4.5-6.2h0v-0.2V6.6L24.8,6.4L24.8,6.4z M20.1,25.4c0,3.1-1.4,3.1-2.2,3.1c-0.1,0-4.8,0-4.9,0
		c-0.7,0-2.2,0-2.2-3.1c0,0,0-18.9,0-18.9c0-3.1,1.4-3.1,2.2-3.1c0.1,0,4.8,0,4.9,0c0.7,0,2.2,0,2.2,3.1
		C20.1,6.5,20.1,25.4,20.1,25.4z"/>
	<rect id="Hole" x="13" y="12.8" class="st5" width="4.7" height="6.2"/>
</g>
</svg>
