<?xml version="1.0" encoding="utf-8"?>
<!-- Generator: Adobe Illustrator 26.5.0, SVG Export Plug-In . SVG Version: 6.00 Build 0)  -->
<svg version="1.1" xmlns="http://www.w3.org/2000/svg" xmlns:xlink="http://www.w3.org/1999/xlink" x="0px" y="0px"
	 viewBox="0 0 458 464" style="enable-background:new 0 0 458 464;" xml:space="preserve">
<style type="text/css">
	.st0{fill-rule:evenodd;clip-rule:evenodd;fill:#DAD9DA;}
	.st1{fill-rule:evenodd;clip-rule:evenodd;fill:#E5E8E9;}
	.st2{fill-rule:evenodd;clip-rule:evenodd;fill:#A49DAB;}
	.st3{fill-rule:evenodd;clip-rule:evenodd;fill:#FFFFFF;}
	.st4{fill-rule:evenodd;clip-rule:evenodd;fill:#948A9A;}
	.st5{fill-rule:evenodd;clip-rule:evenodd;fill:#EAA022;}
	.st6{fill-rule:evenodd;clip-rule:evenodd;fill:#746975;}
	.st7{fill:none;}
	.st8{fill-rule:evenodd;clip-rule:evenodd;fill:#6F8FC2;}
	.st9{fill-rule:evenodd;clip-rule:evenodd;}
	.st10{fill:#99C1E7;}
</style>
<g id="Plant">
	<path class="st0" d="M211.2,402.5c2.7,1.5,4.9,0.2,4.9-2.9v-75.3c0-3.1-2.2-6.9-5-8.4L74,241.5c-2.7-1.5-5-0.2-5,3l-0.2,71.9
		c0,3.1,2.2,6.9,4.9,8.5L211.2,402.5z"/>
	<path class="st1" d="M222.3,402.4c-2.7,1.5-4.9,0.2-4.9-2.9v-75.3c0-3.1,2.2-6.9,5-8.4l204.8-112.3c2.7-1.5,5-0.2,5,3l0.2,71.9
		c0,3.1-2.2,6.9-4.9,8.5L222.3,402.4z"/>
	<path class="st2" d="M76,235.4c-2.7,1.5-2.8,4.1-0.2,5.7l135.9,73.7c2.6,1.7,6.8,2.2,9.5,0.7L425.7,203c2.7-1.5,2.8-4.1,0.1-5.8
		L291.7,124c-2.6-1.7-7-1.8-9.8-0.3L76,235.4z"/>
	<g id="Stack_3">
		<path class="st1" d="M209.5,45.5C209.5,45.5,209.6,45.5,209.5,45.5c0.1-8.8,0.1-17.5,0.1-26.7c-7.2,4-14.1,5-21,1.7
			c-3.7-1.7-4-0.5-4,2.6c0.1,7.5,0.1,15,0.1,22.5c0.1,0,0.1,0.1,0.2,0.1l-0.2,106.9c8.3,4.5,16.6,5.5,24.9-0.1
			C209.6,152.8,209.5,76.8,209.5,45.5z"/>
		<ellipse class="st3" cx="197.1" cy="17.4" rx="12.4" ry="5.6"/>
		<path class="st4" d="M197,21c-3.1-0.9-8.4,0.3-8.4-3.9c0-3.7,5.3-3.2,8.3-3.3c3.4-0.1,8.9-0.5,8.9,3.7C205.9,21,200.4,20.4,197,21
			z"/>
		<path class="st5" d="M184.8,55.9c0,3.1,0,6.1,0,9.2c8.3,4.5,16.6,5.5,24.8-0.1c0-3.1,0-6.1,0-9.2
			C201.4,61.4,193.1,60.4,184.8,55.9z"/>
		<path class="st5" d="M184.8,74.8c0,3.1,0,6.1,0,9.2c8.3,4.5,16.6,5.5,24.8-0.1c0-3.1,0-6.1,0-9.2
			C201.4,80.3,193.1,79.4,184.8,74.8z"/>
		<path class="st5" d="M184.8,93.7c0,3.1,0,6.1,0,9.2c8.3,4.5,16.6,5.5,24.8-0.1c0-3.1,0-6.1,0-9.2
			C201.4,99.2,193.1,98.3,184.8,93.7z"/>
	</g>
	<g id="Stack_2">
		<path class="st1" d="M168.5,87.9C168.6,87.9,168.6,87.9,168.5,87.9c0.1-8.8,0.1-17.5,0.1-26.7c-7.2,4-14.1,5-21,1.7
			c-3.7-1.7-4-0.5-4,2.6c0.1,7.5,0.1,15,0.1,22.5c0.1,0,0.1,0.1,0.2,0.1L143.7,195c8.3,4.5,16.6,5.5,24.9-0.1
			C168.6,195.2,168.6,119.2,168.5,87.9z"/>
		<ellipse class="st3" cx="156.2" cy="59.8" rx="12.4" ry="5.6"/>
		<path class="st4" d="M156.1,63.4c-3.1-0.9-8.4,0.3-8.4-3.9c0-3.7,5.3-3.2,8.3-3.3c3.4-0.1,8.9-0.5,8.9,3.7
			C164.9,63.4,159.4,62.8,156.1,63.4z"/>
		<path class="st5" d="M143.9,98.3c0,3.1,0,6.1,0,9.2c8.3,4.5,16.6,5.5,24.8-0.1c0-3.1,0-6.1,0-9.2
			C160.5,103.8,152.2,102.8,143.9,98.3z"/>
		<path class="st5" d="M143.9,117.2c0,3.1,0,6.1,0,9.2c8.3,4.5,16.6,5.5,24.8-0.1c0-3.1,0-6.1,0-9.2
			C160.5,122.7,152.2,121.8,143.9,117.2z"/>
		<path class="st5" d="M143.9,136.1c0,3.1,0,6.1,0,9.2c8.3,4.5,16.6,5.5,24.8-0.1c0-3.1,0-6.1,0-9.2
			C160.5,141.6,152.2,140.7,143.9,136.1z"/>
	</g>
	<g id="Stack_1">
		<path class="st1" d="M126.2,125.3L126.2,125.3c0.1-8.8,0.1-17.5,0.1-26.7c-7.2,4-14.1,5-21,1.7c-3.7-1.7-4-0.5-4,2.6
			c0.1,7.5,0.1,15,0.1,22.5c0.1,0,0.1,0.1,0.2,0.1l-0.2,106.9c8.3,4.6,16.6,5.5,24.9-0.1C126.3,232.7,126.2,156.6,126.2,125.3z"/>
		<ellipse class="st3" cx="113.8" cy="97.2" rx="12.4" ry="5.6"/>
		<path class="st4" d="M113.7,100.8c-3.1-0.9-8.4,0.3-8.4-3.9c0-3.7,5.3-3.2,8.3-3.3c3.4-0.1,8.9-0.5,8.9,3.7
			C122.6,100.8,117.1,100.2,113.7,100.8z"/>
		<path class="st5" d="M101.5,135.7c0,3.1,0,6.1,0,9.2c8.3,4.5,16.6,5.5,24.8-0.1c0-3.1,0-6.1,0-9.2
			C118.1,141.2,109.8,140.3,101.5,135.7z"/>
		<path class="st5" d="M101.5,154.6c0,3.1,0,6.1,0,9.2c8.3,4.5,16.6,5.5,24.8-0.1c0-3.1,0-6.1,0-9.2
			C118.1,160.1,109.8,159.2,101.5,154.6z"/>
		<path class="st5" d="M101.5,173.6c0,3.1,0,6.1,0,9.2c8.3,4.5,16.6,5.5,24.8-0.1c0-3.1,0-6.1,0-9.2
			C118.1,179,109.8,178.1,101.5,173.6z"/>
	</g>
	<path class="st0" d="M219.1,264.7c2.7,1.5,4.9,0.2,4.9-2.9l-0.3-61.3c0-3.1-2.3-6.9-5-8.3l-79.9-40.3c-2.7-1.5-5-0.1-5,3l0.1,57.9
		c0,3.1,2.2,6.9,5,8.4L219.1,264.7z"/>
	<path class="st1" d="M230.2,264.5c-2.7,1.5-4.9,0.3-5-2.9l-0.3-61.3c0-3.1,2.2-6.9,4.9-8.4l98.4-51.5c2.7-1.5,5-0.2,5,2.9
		c0,0,0.2,7.9,0.1,10.7s-5.7,5.1-5.7,5.1l0.3,6.9l5.5,5.7l0.3,31.5c0,3.1-2.2,4.9-4.9,6.5L230.2,264.5z"/>
	<path class="st2" d="M140.7,147.7c-2.7,1.5-2.8,4.1-0.1,5.7l78.6,39.5c2.7,1.6,6.8,2.2,9.5,0.6l98.1-51.7c2.7-1.5,2.8-4.2,0.1-5.8
		l-76.8-42c-2.6-1.6-7-1.8-9.8-0.3L140.7,147.7z"/>
	<g id="Door_Side">
		<path class="st4" d="M267.1,377.5c-3.6,2-9.4,5.5-13,7.5c-1.8,1-2.7,0.8-2.7-1.5c0-11.6,0.1-25.3,0-36.9c0-2,1-2.9,2.6-3.8
			c13.9-8.1,27.8-16.3,41.7-24.3c0.6-0.4,1.6-0.1,2.4-0.2c0,10.9-0.1,39.5-0.1,41.8C283.1,367.4,273.2,374.4,267.1,377.5z"/>
		<path class="st0" d="M298,360.1c0-10.9,0.1-30.9,0.1-41.8c0.5-1.1,1.2-2.2,2.6-1.7c1.5,0.6,1.5,2,1.5,3.4c0,10.4,0,27.5,0,37.9
			C301.7,358.9,299.8,359.7,298,360.1z"/>
	</g>
	<g id="Window">
		<path class="st6" d="M223.6,213.2c0.2,3.8-0.4,7.8,1.1,11.5l0,0c-0.8,0.1-1.5,0.1-2.2,0.2c-26.5-15.3-56-27.8-82.5-43.1
			c-1.9-1.1-2.4-2.4-2.4-4.5c0-3,0-5.9,0-8.9c24.7,14.3,52.6,26,77.4,40.2c2.3,1.3,4.3,3.2,7.1,3.3
			C222.6,212.3,223.1,212.7,223.6,213.2z"/>
		<path class="st3" d="M137.5,180.1l-3.8,2.1l89.8,48.1l109.9-58.4c0,0,1.6-1.9,0-2.8c-1.6-0.9-5.9-3.4-5.9-3.4s0.6,3.8-2,5.9
			c-2.6,2.1-97.5,51.6-98.3,52c-2.8,1.4-2.5,3.5-6.8,1.1C216.4,222.3,137.5,180.1,137.5,180.1z"/>
		<line class="st7" x1="137.6" y1="168.4" x2="137.6" y2="178.2"/>
		<path class="st4" d="M327.6,159.4c0,2.1,0,4.2,0,6.3c-0.2,3.4,0.8,5-2.7,7c-33.3,19.2-64.3,31.6-97.6,50.9
			c-0.8,0.5-1.8,0.7-2.7,1.1c-1.5-3.7-0.9-7.7-1.1-11.5c31.8-16,43.5-22.1,75.1-39C303.8,171.4,322,161,327.6,159.4z"/>
	</g>
	<g id="Roof_1_">
		<path class="st4" d="M98.1,224.2c8.6-3,17.6-3.4,26.6-3.9c3.4-0.2,5.7,3.1,8.5,4.6c8.6,4.6,16.9,9.6,25.3,14.5
			c0.7,0.4,1.1,1.2,1.6,1.8c-9,1.1-18,2.2-27,3.3C121.4,237.8,109.7,231,98.1,224.2z"/>
		<path class="st0" d="M98.1,224.2c11.7,6.8,23.4,13.6,35,20.4c0,4.2-0.4,8.3-0.5,12.6c-0.9,0.3-23.3-13-34.6-19.6
			C95.1,235.9,95.2,226.8,98.1,224.2z"/>
		<path class="st1" d="M132.6,257.1c0.2-4.3,0.2-8.4,0.5-12.6c9-1.1,18-2.2,27-3.3c-5.8,5.2-13,8.1-19.5,12
			C137.9,254.9,133.5,257.7,132.6,257.1z"/>
	</g>
	<g id="Roof">
		<path class="st4" d="M181.1,272.2c8.6-3,17.6-3.4,26.6-3.9c3.4-0.2,5.7,3.1,8.5,4.6c8.6,4.6,16.9,9.6,25.3,14.5
			c0.7,0.4,1.1,1.2,1.6,1.8c-9,1.1-18,2.2-27,3.3C204.4,285.8,192.8,279,181.1,272.2z"/>
		<path class="st0" d="M181.1,272.2c11.7,6.8,23.4,13.6,35,20.4c0,4.2-0.4,8.3-0.5,12.6c-0.9,0.3-23.3-13-34.6-19.6
			C178.1,283.8,178.3,274.8,181.1,272.2z"/>
		<path class="st1" d="M215.7,305.1c0.2-4.3,0.2-8.4,0.5-12.6c9-1.1,18-2.2,27-3.3c-5.8,5.2-13,8.1-19.5,12
			C220.9,302.8,216.6,305.7,215.7,305.1z"/>
	</g>
	<g id="Grate">
		<path class="st4" d="M379.1,216.1c-6.2,1.1-11.1,5-16.4,7.9c-25.3,13.8-50.5,27.9-75.7,41.9c-9.1,5.1-18.4,9.9-27.4,15.2
			c-2.3,1.4-3.6,0.9-5.6-0.2c-6.7-3.6-12.6-8.5-19.6-11.4c-0.1,1-0.1,2-0.2,3c6.6,4.1,13.2,8.2,19.8,12.4c2.5,1.6,4.7,0.7,7-0.5
			c14.2-7.9,28.5-15.8,42.8-23.6c20.8-11.3,41.3-23.4,62.4-34.2c4.4-2.3,8.6-5,12.9-7.5C379.2,218.1,379.1,217.1,379.1,216.1z"/>
		<g>
			<g>
				<path class="st6" d="M372.2,216.8c1.2,0.1,2.2-0.4,2.6-1.3c0.5-1.2-0.5-1.8-1.3-2.3c-4.2-2.6-8.5-5.1-12.7-7.7
					c-1.6-1-3.1-0.7-3.9,0.6c-1.2,1.8,0.8,2.1,1.8,2.7C363.2,211.6,367.7,214.2,372.2,216.8z"/>
			</g>
			<g>
				<path class="st6" d="M363.3,221.6c1.2,0.1,2.2-0.4,2.6-1.3c0.5-1.2-0.5-1.8-1.3-2.3c-4.2-2.6-8.5-5.1-12.7-7.7
					c-1.6-1-3.1-0.7-3.9,0.6c-1.2,1.8,0.8,2.1,1.8,2.7C354.3,216.4,358.8,219,363.3,221.6z"/>
			</g>
			<g>
				<path class="st6" d="M354.3,226.5c1.2,0.1,2.2-0.3,2.6-1.3c0.5-1.2-0.5-1.8-1.3-2.3c-4.2-2.6-8.5-5.1-12.7-7.7
					c-1.6-1-3.1-0.7-3.9,0.6c-1.2,1.8,0.8,2.1,1.8,2.7C345.3,221.2,349.9,223.9,354.3,226.5z"/>
			</g>
			<g>
				<path class="st6" d="M345.4,231.3c1.2,0.1,2.2-0.3,2.6-1.3c0.5-1.2-0.5-1.8-1.3-2.3c-4.2-2.6-8.5-5.1-12.7-7.7
					c-1.6-1-3.1-0.7-3.9,0.6c-1.2,1.8,0.8,2.1,1.8,2.7C336.4,226.1,341,228.7,345.4,231.3z"/>
			</g>
			<g>
				<path class="st6" d="M336.5,236.1c1.2,0.1,2.2-0.3,2.6-1.3c0.5-1.2-0.5-1.8-1.3-2.3c-4.2-2.6-8.5-5.1-12.7-7.7
					c-1.6-1-3.1-0.7-3.9,0.6c-1.2,1.8,0.8,2.1,1.8,2.7C327.5,230.9,332.1,233.5,336.5,236.1z"/>
			</g>
			<g>
				<path class="st6" d="M327.6,241c1.2,0.1,2.2-0.4,2.6-1.3c0.5-1.2-0.5-1.8-1.3-2.3c-4.2-2.6-8.5-5.1-12.7-7.7
					c-1.6-1-3.1-0.7-3.9,0.6c-1.2,1.8,0.8,2.1,1.8,2.7C318.6,235.7,323.1,238.4,327.6,241z"/>
			</g>
			<g>
				<path class="st6" d="M318.7,245.8c1.2,0.1,2.2-0.4,2.6-1.3c0.5-1.2-0.5-1.8-1.3-2.3c-4.2-2.6-8.5-5.1-12.7-7.7
					c-1.6-1-3.1-0.7-3.9,0.6c-1.2,1.8,0.8,2.1,1.8,2.7C309.7,240.6,314.2,243.2,318.7,245.8z"/>
			</g>
			<g>
				<path class="st6" d="M309.7,250.6c1.2,0.1,2.2-0.4,2.6-1.3c0.5-1.2-0.5-1.8-1.3-2.3c-4.2-2.6-8.5-5.1-12.7-7.7
					c-1.6-1-3.1-0.7-3.9,0.6c-1.2,1.8,0.8,2.1,1.8,2.7C300.7,245.4,305.3,248,309.7,250.6z"/>
			</g>
			<g>
				<path class="st6" d="M300.8,255.5c1.2,0.1,2.2-0.4,2.6-1.3c0.5-1.2-0.5-1.8-1.3-2.3c-4.2-2.6-8.5-5.1-12.7-7.7
					c-1.6-1-3.1-0.7-3.9,0.6c-1.2,1.8,0.8,2.1,1.8,2.7C291.8,250.3,296.4,252.9,300.8,255.5z"/>
			</g>
			<g>
				<path class="st6" d="M291.9,260.3c1.2,0.1,2.2-0.3,2.6-1.3c0.5-1.2-0.5-1.8-1.3-2.3c-4.2-2.6-8.5-5.1-12.7-7.7
					c-1.6-1-3.1-0.7-3.9,0.6c-1.2,1.8,0.8,2.1,1.8,2.7C282.9,255.1,287.5,257.7,291.9,260.3z"/>
			</g>
			<g>
				<path class="st6" d="M283,265.2c1.2,0.1,2.2-0.3,2.6-1.3c0.5-1.2-0.5-1.8-1.3-2.3c-4.2-2.6-8.5-5.1-12.7-7.7
					c-1.6-1-3.1-0.7-3.9,0.6c-1.2,1.8,0.8,2.1,1.8,2.7C274,259.9,278.5,262.6,283,265.2z"/>
			</g>
			<g>
				<path class="st6" d="M274.1,270c1.2,0.1,2.2-0.3,2.6-1.3c0.5-1.2-0.5-1.8-1.3-2.3c-4.2-2.6-8.5-5.1-12.7-7.7
					c-1.6-1-3.1-0.7-3.9,0.6c-1.2,1.8,0.8,2.1,1.8,2.7C265.1,264.8,269.6,267.4,274.1,270z"/>
			</g>
			<g>
				<path class="st6" d="M265.1,274.8c1.2,0.1,2.2-0.4,2.6-1.3c0.5-1.2-0.5-1.8-1.3-2.3c-4.2-2.6-8.5-5.1-12.7-7.7
					c-1.6-1-3.1-0.7-3.9,0.6c-1.2,1.8,0.8,2.1,1.8,2.7C256.1,269.6,260.7,272.2,265.1,274.8z"/>
			</g>
			<g>
				<path class="st6" d="M256.2,279.7c1.2,0.1,2.2-0.4,2.6-1.3c0.5-1.2-0.5-1.8-1.3-2.3c-4.2-2.6-8.5-5.1-12.7-7.7
					c-1.6-1-3.1-0.7-3.9,0.6c-1.2,1.8,0.8,2.1,1.8,2.7C247.2,274.4,251.8,277.1,256.2,279.7z"/>
			</g>
		</g>
	</g>
	<g id="Door_Front">
		<path class="st4" d="M152.2,369.6c3.6,2,9.4,5.5,13,7.5c1.8,1,2.7,0.8,2.7-1.5c0-11.6-0.1-25.3,0-36.9c0-2-1-2.9-2.6-3.8
			c-13.9-8.1-27.8-16.3-41.7-24.3c-0.6-0.4-1.6-0.1-2.4-0.2c0,10.9,0.1,39.5,0.1,41.8C136.2,359.5,146.1,366.5,152.2,369.6z"/>
	</g>
	<path id="DoorHighLight" class="st1" d="M121.3,352.1c0-10.9-0.1-30.9-0.1-41.8c-0.5-1.1-1.2-2.2-2.6-1.7c-1.5,0.6-1.5,2-1.5,3.4
		c0,10.4,0,27.5,0,37.9C117.5,351,119.5,351.7,121.3,352.1z"/>
</g>
<g id="Truck">
	<g id="Box">
		<path class="st0" d="M86.8,411.9c0.7,0.4,1.3,0.1,1.3-0.8V377c0-0.8-0.6-1.9-1.4-2.3l-37.3-20.3c-0.7-0.4-1.4,0-1.4,0.8l-0.1,33.2
			c0,0.8,0.6,1.9,1.3,2.3L86.8,411.9z"/>
		<path class="st1" d="M89.8,411.8c-0.7,0.4-1.3,0.1-1.3-0.8v-34.1c0-0.8,0.6-1.9,1.4-2.3l55.7-30.5c0.7-0.4,1.4,0,1.4,0.8l0.1,33.2
			c0,0.8-0.6,1.9-1.3,2.3L89.8,411.8z"/>
		<path class="st2" d="M50,353.1c-0.7,0.4-0.8,1.1,0,1.6l37,20.1c0.7,0.5,1.9,0.6,2.6,0.2l55.6-30.6c0.7-0.4,0.8-1.1,0-1.6
			l-36.5-19.9c-0.7-0.5-1.9-0.5-2.7-0.1L50,353.1z"/>
	</g>
	<g id="Cab">
		<path class="st8" d="M82.5,415.3l-3.1-23.4l-0.2-1.6l-31-18.3l-23.5,11.4l-4.1,21.1l28.5,15.2c0,0,0.9,1,2.2,1.5l-0.1,0.1
			l-0.4,26.6l11.7-5.3v-5.4c0,0,2-8.9,4.5-10.5s7.6-4.5,7.6-4.5s3,0,3.6,2s1,3.5,1,3.5l3.5-1.8L82.5,415.3z"/>
		<polygon class="st4" points="24.6,385 20.5,404.5 51.2,421.4 57,400.6 25.1,383.1 		"/>
		<path class="st9" d="M49,419.8c0.3-1.5,0.4-2.8,0.7-4.1c0.3-1.5,0.8-3,1.1-4.4c0.1-0.5,0.2-1,0.3-1.4c0.4-1.5-0.2-2.3-1.7-2.8
			c-0.4,0.5-0.8,0.9-1.1,1.4c-1.4,2.4-2.7,4.9-3.9,7.4c-0.2,0.4,0.3,1.1,0.6,1.9c-4.4-2.6-8.8-5.1-13.2-7.7c0.1-0.1,0.1-0.2,0.2-0.3
			c0.5,0.2,1,0.3,1.5,0.5c-0.2-1.4-0.7-2.8-0.7-4.1c0-1.6,0.5-3.2,0.7-4.7c0.2-1.4,0.3-2.7-0.5-4.2c-1.4-2.9-4.3-3.4-6.5-4.9
			c-0.8-0.5-1.9-0.7-2.8-0.8c-0.3,0-0.9,0.8-1,1.3c-0.4,1.1-0.6,2.2-0.8,3.5c-1.1-1.3-0.9-8,0.2-8.8c0.1,0.2,0.2,0.4,0.3,0.6
			c2.1-1.1,2.2-3.2,2.8-5.1c2.8,1.7,5.6,3.3,8.4,5c3.8,2.2,7.6,4.4,11.4,6.5c2.7,1.5,5.4,3,8,4.5c1.1,0.6,1.8,1.5,1.3,2.9
			c-0.2,0.6-0.1,1.3-0.2,2c0.2,0,0.4,0.1,0.6,0.1c0.2-0.8,0.4-1.5,0.6-2.3c0.1-0.4,0.3-0.9,0.6-1.1c0.9-0.5,1.3-0.1,1.3,0.9
			c0,0.3,0,0.6,0,1.4c7.3-4.2,14.4-8.3,21.5-12.4c0.7,1-0.1,1.4-0.7,1.7c-3.8,2.2-7.6,4.3-11.4,6.5c-3.1,1.7-6.2,3.3-9.1,5.4
			c-1,0.7-1.4,2.6-1.8,4c-0.5,2.2-0.6,4.5-1.1,6.7c-0.4,1.7-0.8,3.5-1.8,4.8C51.8,421.4,50.3,421.2,49,419.8z M51.1,415.8
			c-1,0.7-1.4,2.3-1,3.9C51.2,419.3,51.8,417.1,51.1,415.8z"/>
		<path class="st9" d="M22.3,409c3.8,2.2,23.9,13.7,24.9,14.5c0.4,0.3,0.8,1,0.8,1.6c0.1,1.4,0.1,2.9,0.1,4.3c0,0.3-0.2,0.8-0.4,0.9
			c-0.3,0.1-0.7-0.1-1-0.3c-0.3-0.2-0.6-0.5-0.9-0.8c-0.9-0.6-1.6-0.4-2,0.6c-0.7,1.7-0.7,1.7-2.3,0.8c-3-1.7-6-3.5-8.9-5.2
			c-1.5-0.9-3.1-1.6-4.6-2.6c-0.7-0.5-1.6-1.2-1.7-1.9c-0.5-2.4-1.8-4.1-4-5.3c-0.6-0.3-0.9-1.3-1-2c-0.2-1-0.1-2.1-0.1-3.1
			C21.3,410,21.1,408.3,22.3,409z"/>
		<path class="st9" d="M24.7,426.6c1.4,0.7,2.4,1.1,3.4,1.7c5,2.9,10.1,5.8,15.1,8.8c0.7,0.4,1.1,1.4,1.3,2.2c0.2,0.7,0,1.5,0.1,2.3
			c0,1.1-0.5,1.3-1.3,0.8c-1.5-0.8-3-1.7-4.4-2.6c-3.2-1.8-6.3-3.6-9.5-5.5c-1.3-0.8-2.7-1.5-4-2.3c-0.3-0.2-0.5-0.7-0.6-1
			C24.6,429.8,24.7,428.4,24.7,426.6z"/>
		<path class="st10" d="M80.4,414.3c-3.3,1.7-6.5,3.5-9.7,5.3c-2.3,1.3-4.7,2.5-6.4,4.6c-1.4,1.8-2.9,3.4-3.5,5.7
			c-0.6,2.1-1.5,4.2-4,5c-1.8,0.6-3.4,1.7-5,2.7c-1.1,0.6-2.1,0.7-3.2,0c-4.5-2.6-8.9-5.3-13.4-7.9c-3.8-2.2-7.7-4.4-11.5-6.6
			c-0.6-0.3-1.2-0.7-1.6-1.2c-0.3-0.3-0.3-0.9-0.5-1.7c8.4,4.9,16.4,9.6,24.7,14.5c0.2-1,0.3-1.6,0.4-2.2c0.3,1.1-0.2,2.6,1.4,3.2
			c1.2,0.5,2.3,1.4,3.4,0.7c0-4.8,0-9.5,0-14.2c0-0.3-0.1-0.8-0.3-0.9c-4.1-2.3-8.3-4.6-12.5-7c-4.1-2.3-8.1-4.7-12.2-7
			c-1.6-0.9-3.3-1.8-4.9-2.8c-0.1,0-0.1-0.1-0.1-0.1c-0.5-0.1-1.6,0.5-1.7,1.3l0.1,17.8h-0.2v7v0.2v0.9c0.1,0.2,0.3,0.5,0.8,0.8
			c1.3,0.8,24.5,14.4,24.5,14.4l3.7,1.9c0,0,0.9,0.2,1.7-0.5c0.1-0.1,0.3-0.2,0.4-0.3v-4.4c0-0.2,0-0.4,0-0.6l0,0
			c0-0.8,0-1.6,0.1-2.3c0.1-0.6,1.2-1.1,2-1.5c1.6-0.9,3.2-1.9,4.9-2.6c2.4-1,3.9-2.5,4.7-5.2c0.7-2.5,1.8-5,4.1-6.6
			c1.9-1.4,3.9-2.7,5.9-3.9c3-1.8,6-3.5,9-5.3c0.3-0.2,0.3-0.8,0.5-1.2C81.3,414.4,80.8,414.1,80.4,414.3z M20.7,413.6
			c0.1-1.2,0-2.4,0-3.7c0-0.9,0.1-2.2,1.1-1.8c0.3,0.1,1.3,0.6,1.8,0.8c3.8,2.3,7.7,4.5,11.6,6.7c2.7,1.5,5.3,3.2,7.9,4.7
			c1.1,0.6,2.2,1.3,3.3,1.9c1.2,0.7,2,1.6,1.9,3c0,1.4,0,2.9-0.1,4.3c0,0.3-0.3,0.9-0.5,1c-0.4,0.1-0.8-0.1-1.2-0.3
			c-0.3-0.1-0.5-0.5-0.8-0.7c-1.1-0.7-1.4-0.5-1.8,0.7c-0.4,1.2-1,1.5-2.1,0.9c-1.2-0.6-2.4-1.3-3.5-2c-3.6-2.1-7.2-4.1-10.8-6.3
			c-0.7-0.5-1.5-1.3-1.7-2.2c-0.6-2.2-1.8-3.8-3.8-4.8C21,415.6,20.6,414.8,20.7,413.6z M21,427c0.4,0.5,0.9,0.8,1.5,1.4
			c-0.8,0-1.3,0.1-1.8,0.1c0.2,0.5,0.4,1,0.5,1.5c-2-1.7-0.7-4.1-1.2-6.1c0.1-0.1,0.2-0.2,0.3-0.3c0.7,0.3,1.4,0.7,2.4,1.2
			C20.7,425,20.2,426,21,427z M44.7,440.7c-0.1,3-0.2,3.1-2.7,1.7c-3.6-2.1-7.2-4.3-10.8-6.4c-1.9-1.1-3.8-2.1-5.7-3.1
			c-0.9-0.5-1.5-1.1-1.5-2.2c0-1-0.1-2.1-0.1-3.1c0.1-1.3,0.6-1.6,1.7-0.9c3.8,2.2,7.7,4.3,11.5,6.5c1.8,1,3.4,2.2,5.2,3.1
			C44.5,437.3,45,438.8,44.7,440.7z"/>
		<path id="Window_1_" class="st9" d="M61.9,417.5c-0.8,0.5-1.3,0.8-1.8,1.1c-1,0.8-1.4-0.3-2.1-0.9c0.4,0.1,0.9,0.2,1.8,0.4
			c-0.4-0.7-0.7-1-0.9-1.4s-0.4-0.9-0.7-1.5c-0.7,0.3-1.4,0.7-2.2,1.1c-0.1-0.4-0.2-0.7-0.2-1c0.5-3.3,1-6.6,1.6-9.9
			c0-0.3,0.2-0.7,0.4-0.8c3.5-2,7-4,10.4-5.9c0.1-0.1,0.3,0,0.6,0c0,1,0,2,0,2.9c0,1.9,0,3.9,0,5.8c0,1-0.2,1.6-1.2,2.1
			c-1.9,1-3.7,2.2-5.8,3.4C61.9,414.6,61.9,416.2,61.9,417.5z"/>
		<path id="Dorrhandle" class="st9" d="M69,417.4c-0.8,0.5-1.5,1-2.3,1.6c-0.2-1.2,0.6-1.9,2.1-1.9C68.8,417.1,68.9,417.3,69,417.4z
			"/>
		<path id="Highlight" class="st3" d="M51.1,415.8c0.7,1.3,0.1,3.5-1,3.9C49.7,418.1,50.2,416.5,51.1,415.8z"/>
	</g>
	<g id="Wheels">
		<path class="st3" d="M118.4,406c0.1-3.3,3.1-7,6.3-7.7c1.9-0.4,3.6,1.5,3,3.5c-0.8,3-2.3,5.4-5.2,6.8
			C119.9,409.9,118.3,408.9,118.4,406z"/>
		<path class="st3" d="M147.7,389.5c-0.7,3.5-2.2,6-5,7.5c-2.2,1.2-3.1,1.1-4.1-0.2c-1-1.2-0.8-2.7-0.2-4c1-2.2,2.2-4.2,4.6-5.3
			c1.1-0.5,2.1-1.2,3.1-0.3C146.9,387.8,147.2,388.8,147.7,389.5z"/>
		<path class="st3" d="M66.6,435.9c0-3.7,3.4-7,6.5-7.9c1.5-0.4,3.2,1.4,2.9,3.1c-0.6,3.1-2.1,5.7-4.9,7.3c-0.2,0.1-0.3,0.2-0.5,0.2
			C68.1,439.7,66.5,438.6,66.6,435.9z"/>
		<path class="st9" d="M124.8,402.9c0.4-0.2,1.1-0.5,1.1-0.7c0-1.1-0.1-2.3-0.2-3.3c0.7,0.1,1.4,1.4,1.1,2.6
			c-0.8,2.7-1.9,5.2-4.7,6.4c-0.9,0.4-1.7,1-2.8,0.3c-1.1-0.7-1.1-1.7-0.9-2.9c0.5,1.2,0.3,2.8,2.1,2.6c1.3-0.1,2.6-1.8,2.3-3
			c-0.4,0.3-0.7,0.6-1.2,1.1c0-1.5,1.2-1.8,1.8-2.6c0.5,0.4,1,0.7,1.5,1.1C124.9,403.9,124.9,403.4,124.8,402.9L124.8,402.9z"/>
		<path class="st9" d="M68.9,436.1c0.8-0.9,1.6-1.7,2.5-2.6c1.4,1.4,1.9,1.3,2.6-0.4c0.1-0.4,0.3-0.8,0.4-1.2
			c0.6-2.1-0.4-3.2-2.5-2.9c0-0.1,0-0.2,0-0.3c0.6-0.1,1.5-0.4,1.8-0.2c0.6,0.6,1.4,1.4,1.4,2.2c0.2,3.2-2.8,7-6,7.7
			c-1.1,0.2-2.1-0.5-2.3-1.6c-0.1-0.6,0-1.2,0.2-1.7c0,0.3,0,0.6,0.1,0.9c0.2,1.6,1.1,2.1,2.6,1.4c0.5-0.3,1.1-0.5,1.5-0.9
			c0.3-0.2,0.4-0.6,0.5-1c0-0.1-0.4-0.6-0.5-0.5c-0.3,0.2-0.5,0.5-0.8,0.7c-0.3,0.3-0.7,0.6-1,0.8C69.1,436.4,69,436.2,68.9,436.1z"
			/>
		<path class="st9" d="M143.1,392.6c0-0.2,0-0.5,0.1-0.7c0.3-0.4,0.6-0.8,0.9-1.1c0.2,0.4,0.5,0.8,0.7,1.2c0.1,0.1,0.1,0.3,0.2,0.7
			c0.4-0.5,0.7-0.9,0.9-1.3c0.1,0.1,0.3,0.2,0.4,0.2c-0.5,0.9-0.9,2-1.6,2.6c-1.2,1.1-2.5,1.9-3.9,2.8c-0.3,0.2-1-0.2-1.5-0.4l0,0
			c1.1-0.4,2.2-0.7,3.2-1.3c0.3-0.2,0.3-1.1,0.4-1.7c-0.2-0.1-0.4-0.1-0.5-0.2c-0.3,0.6-0.5,1.1-0.8,1.7
			C140.7,394.2,141.4,393,143.1,392.6c0.2,0.6,0.4,1.2,0.6,1.7c0.1,0,0.2,0,0.4,0c0.1-0.9,0.2-1.8,0.3-2.6c-0.1,0-0.2-0.1-0.3-0.1
			C143.6,391.9,143.3,392.3,143.1,392.6z"/>
		<path class="st9" d="M124.9,402.9c-0.8-0.4-1.6-0.8-2.6-1.2c-0.2,0.2-0.6,0.7-0.9,1.2c-0.1-0.1-0.2-0.2-0.3-0.2
			c0.4-1.4,2-2.5,3.1-2.2C125.6,400.9,125.1,402,124.9,402.9L124.9,402.9z"/>
		<path class="st9" d="M70.3,431c0.9-0.3,1.2-0.5,1.8-0.7c0,0.6,0,1,0,1.6c0.5-0.3,0.8-0.5,1.3-0.8c0,0.7,0,1.3,0,1.9
			c-0.1,0.1-0.2,0.2-0.3,0.3C72.2,432.6,71.4,431.9,70.3,431z"/>
		<path class="st9" d="M144.8,389.7c-1,0.1-1.7,0.2-2.6,0.3c0,0.3,0,0.6,0,0.9c-0.6,0.2-1.1,0.4-1.6,0.6
			C140.8,389.6,143,388.6,144.8,389.7z"/>
		<path class="st9" d="M139.3,396.6c-0.4-0.6-1.2-1.1-1.2-1.7c0-1.1,0.4-2.3,0.6-3.4c0.2,0,0.3,0.1,0.5,0.1
			c-0.1,0.3-0.1,0.5-0.2,0.8C138,393.9,138.8,395.3,139.3,396.6L139.3,396.6z"/>
		<path class="st9" d="M145,387.4c1.4,0,2,1.3,1.4,3C145.9,389.5,145.5,388.5,145,387.4z"/>
		<path class="st9" d="M120.9,400.2c0.9-0.6,1.8-1.2,2.8-1.8c0.1,0.1,0.2,0.2,0.2,0.4c-0.9,0.5-1.9,1.1-2.8,1.6
			C121,400.4,121,400.3,120.9,400.2z"/>
		<path class="st9" d="M143.1,392.6c0.3-0.3,0.6-0.6,0.9-1c0.1,0,0.2,0.1,0.3,0.1c-0.1,0.9-0.2,1.8-0.3,2.6c-0.1,0-0.2,0-0.4,0
			C143.4,393.7,143.3,393.2,143.1,392.6L143.1,392.6z"/>
		<path class="st9" d="M114.3,410.4c0.3,2.3-0.2,2.4-3.3,1.5c-0.1,1.9-1.1,2.9-3.1,3.4c-0.1-1-0.2-2-0.2-2.9c0-1.4,0.2-2.8,0.2-4.2
			c0-1.6-0.6-2.3-2.1-2.7c0.6-1.3,1.4-1.6,2.4-0.6c0.8,0.7,1.4,1.5,2.2,2.3c0.1-0.1,0.2-0.2,0.3-0.3c-0.9-0.9-1.8-1.9-2.8-3
			c0.4-0.3,0.6-0.6,0.9-0.8c4-2.3,8-4.5,12-6.8s7.9-4.6,11.9-6.9s8-4.5,12-6.8c2.2-1.3,4.5-2.5,6.7-3.8c1.4-0.7,3.1,0.2,3.1,1.8
			c0.1,1.6,0,3.2-0.1,4.8c0,0.4-0.3,1.1-0.6,1.2c-0.9,0.4-1,1-1,1.8c0,2-0.6,2.4-2.5,1.8c-0.9,1.7-1.6,3.5-2.6,5
			c-1.9,2.7-4.3,4.9-7.7,5.6c-2,0.4-3.7-0.5-5.4-1.7c-0.7,2.1-2,3-3.9,2.7c-1.5,2.3-2.8,4.7-4.5,6.8c-1.5,1.9-3.6,3.4-6.2,3.6
			c-1.2,0.1-2.4-0.4-3.6-0.8C115.8,411.3,115.2,410.8,114.3,410.4z M118.4,406c-0.1,2.9,1.6,3.9,4.2,2.7c2.9-1.4,4.4-3.9,5.2-6.8
			c0.6-2-1.2-3.9-3-3.5C121.5,398.9,118.4,402.6,118.4,406z M147.7,389.5c-0.4-0.7-0.8-1.7-1.5-2.3c-1-0.8-2.1-0.2-3.1,0.3
			c-2.4,1.1-3.6,3.1-4.6,5.3c-0.6,1.3-0.8,2.7,0.2,4s1.9,1.4,4.1,0.2C145.5,395.5,147,393,147.7,389.5z"/>
		<path class="st9" d="M81.1,412.8c1.2,0.6,2.3,1.3,3.4,1.9c0.7,0.4,1.4,0.9,2.2,1.2c1.6,0.6,2.7,1.9,2.8,3.7c0.1,1.7,0.1,3.3,0,5
			c-0.1,1.8-2,3.4-3.8,3.1c-1-0.2-2-0.7-2.8-1.2c-0.4-0.2-0.5-1-0.5-1.6c0-2.9,0-5.8,0.1-8.7c0-1.2,0-1.2-1.6-3.1
			C81,413,81,412.9,81.1,412.8z"/>
		<path class="st9" d="M79.4,429.1c-0.3,3-1.7,5.5-3.4,7.7c-1.3,1.7-3.1,3.1-4.8,4.4c-2.2,1.7-4.2,1.2-6.7,0.2
			c-2.7-1.1-2.7-2.7-2-4.9c0.9-2.7,1.8-5.4,3-7.9c0.5-1,1.6-1.9,2.6-2.5c2.1-1.3,4.4-2.5,6.6-3.7c1.4-0.8,2.8,0,3.6,2
			C78.8,425.8,79,427.5,79.4,429.1z M66.6,435.9c-0.1,2.6,1.5,3.8,4,2.7c0.2-0.1,0.3-0.1,0.5-0.2c2.8-1.6,4.4-4.1,4.9-7.3
			c0.3-1.7-1.4-3.5-2.9-3.1C69.9,428.9,66.6,432.2,66.6,435.9z"/>
		<path class="st9" d="M90.8,425.2c-0.4-1.8-0.4-3.6-0.2-5.5c0.3-1.9-0.1-3.5-2.3-4.5c0.8-0.5,1.3-0.9,1.9-1.2
			c4.1-2.4,8.2-4.8,12.4-7.2c2.1-1.2,3.2-0.9,3.6,1.5c0.5,2.4,0.3,5,0.3,7.5c0,0.4-0.4,0.8-0.7,1c-4.8,2.8-9.6,5.5-14.5,8.2
			C91.3,425.2,91.1,425.2,90.8,425.2z"/>
	</g>
</g>
</svg>
