<?xml version="1.0" encoding="utf-8"?>
<!-- Generator: Adobe Illustrator 16.0.4, SVG Export Plug-In . SVG Version: 6.00 Build 0)  -->
<!DOCTYPE svg PUBLIC "-//W3C//DTD SVG 1.1//EN" "http://www.w3.org/Graphics/SVG/1.1/DTD/svg11.dtd">
<svg version="1.1" id="Layer_1" xmlns="http://www.w3.org/2000/svg" xmlns:xlink="http://www.w3.org/1999/xlink" x="0px" y="0px"
	 width="841.9px" height="595.3px" viewBox="0 0 841.9 595.3" enable-background="new 0 0 841.9 595.3" xml:space="preserve">
<g id="Box_1_">
	
		<linearGradient id="Rightside_2_" gradientUnits="userSpaceOnUse" x1="337.8376" y1="405.8796" x2="324.3829" y2="336.9252" gradientTransform="matrix(1 0 0 -1 -5.517578e-02 595.1597)">
		<stop  offset="0" style="stop-color:#292924"/>
		<stop  offset="3.964844e-02" style="stop-color:#618C76"/>
		<stop  offset="0.3398" style="stop-color:#5D7F6D"/>
		<stop  offset="0.6592" style="stop-color:#5A7768"/>
		<stop  offset="1" style="stop-color:#5A7566"/>
	</linearGradient>
	<polygon id="Rightside_1_" fill="url(#Rightside_2_)" points="297.3,181 297.3,253 364.5,268.1 365.9,189.7 	"/>
	
		<linearGradient id="Leftside_2_" gradientUnits="userSpaceOnUse" x1="387.5134" y1="408.6404" x2="407.4363" y2="335.7094" gradientTransform="matrix(1 0 0 -1 -5.517578e-02 595.1597)">
		<stop  offset="0" style="stop-color:#262622"/>
		<stop  offset="3.596467e-02" style="stop-color:#292B26"/>
		<stop  offset="0.2192" style="stop-color:#334136"/>
		<stop  offset="0.4064" style="stop-color:#3A5343"/>
		<stop  offset="0.5966" style="stop-color:#40614D"/>
		<stop  offset="0.792" style="stop-color:#426A54"/>
		<stop  offset="1" style="stop-color:#436D56"/>
	</linearGradient>
	<polygon id="Leftside_1_" fill="url(#Leftside_2_)" points="430.1,254.7 364.5,268.1 365.9,189.7 430.1,177 	"/>
	
		<linearGradient id="Ribbon_4_" gradientUnits="userSpaceOnUse" x1="333.6882" y1="408.5417" x2="327.2975" y2="335.5497" gradientTransform="matrix(1 0 0 -1 -5.517578e-02 595.1597)">
		<stop  offset="0" style="stop-color:#6A4726"/>
		<stop  offset="1.349678e-02" style="stop-color:#7D5832"/>
		<stop  offset="5.808594e-02" style="stop-color:#C49460"/>
		<stop  offset="0.2172" style="stop-color:#CEA26D"/>
		<stop  offset="0.4675" style="stop-color:#DCB57E"/>
		<stop  offset="0.7253" style="stop-color:#E5C189"/>
		<stop  offset="1" style="stop-color:#E8C58C"/>
	</linearGradient>
	<polygon id="Ribbon_3_" fill="url(#Ribbon_4_)" points="322.2,184.5 338.6,186.2 338.6,262.6 322.2,259.2 	"/>
	
		<linearGradient id="Ribbon_5_" gradientUnits="userSpaceOnUse" x1="399.0876" y1="411.3503" x2="400.2546" y2="339.183" gradientTransform="matrix(1 0 0 -1 -5.517578e-02 595.1597)">
		<stop  offset="0" style="stop-color:#78512D"/>
		<stop  offset="0.1161" style="stop-color:#C2925E"/>
		<stop  offset="0.2784" style="stop-color:#CEA26D"/>
		<stop  offset="0.5091" style="stop-color:#DCB57E"/>
		<stop  offset="0.7468" style="stop-color:#E5C189"/>
		<stop  offset="1" style="stop-color:#E8C58C"/>
	</linearGradient>
	<polygon id="Ribbon_2_" fill="url(#Ribbon_5_)" points="391.4,185 407.9,181.6 407.9,259.2 391.4,262.6 	"/>
	
		<linearGradient id="BackII_1_" gradientUnits="userSpaceOnUse" x1="407.698" y1="423.7058" x2="367.698" y2="419.2058" gradientTransform="matrix(1 0 0 -1 -5.517578e-02 595.1597)">
		<stop  offset="0" style="stop-color:#292924"/>
		<stop  offset="0.6683" style="stop-color:#696966"/>
		<stop  offset="0.6718" style="stop-color:#696966"/>
		<stop  offset="0.8306" style="stop-color:#61615F"/>
		<stop  offset="1" style="stop-color:#5F5F5D"/>
	</linearGradient>
	<polygon id="BackII" fill="url(#BackII_1_)" points="430.1,177 365.9,162.6 365.9,189.7 	"/>
	
		<linearGradient id="Back_1_" gradientUnits="userSpaceOnUse" x1="334.5139" y1="420.7566" x2="356.8469" y2="400.4231" gradientTransform="matrix(1 0 0 -1 -5.517578e-02 595.1597)">
		<stop  offset="0" style="stop-color:#292924"/>
		<stop  offset="0.6683" style="stop-color:#696966"/>
		<stop  offset="0.6718" style="stop-color:#696966"/>
		<stop  offset="0.8306" style="stop-color:#61615F"/>
		<stop  offset="1" style="stop-color:#5F5F5D"/>
	</linearGradient>
	<polygon id="Back" fill="url(#Back_1_)" points="297.3,181 365.9,189.7 365.9,162.6 	"/>
</g>
<g id="Lid">
	
		<linearGradient id="Leftside_3_" gradientUnits="userSpaceOnUse" x1="308.4939" y1="432.0398" x2="352.4944" y2="410.0395" gradientTransform="matrix(1 0 0 -1 -5.517578e-02 595.1597)">
		<stop  offset="0" style="stop-color:#52534D"/>
		<stop  offset="5.769014e-02" style="stop-color:#545851"/>
		<stop  offset="0.2826" style="stop-color:#5B6A5E"/>
		<stop  offset="0.5125" style="stop-color:#607769"/>
		<stop  offset="0.7485" style="stop-color:#62806F"/>
		<stop  offset="1" style="stop-color:#638372"/>
	</linearGradient>
	<polygon id="Leftside" fill="url(#Leftside_3_)" points="294.7,160.5 294.7,180.9 366.1,190.1 366.1,167.3 	"/>
	
		<linearGradient id="Rightside_3_" gradientUnits="userSpaceOnUse" x1="402.7468" y1="412.5007" x2="397.0802" y2="432.5007" gradientTransform="matrix(1 0 0 -1 -5.517578e-02 595.1597)">
		<stop  offset="0" style="stop-color:#2B4F3C"/>
		<stop  offset="0.1609" style="stop-color:#2B4334"/>
		<stop  offset="0.3611" style="stop-color:#2A372C"/>
		<stop  offset="0.5658" style="stop-color:#292E26"/>
		<stop  offset="0.7761" style="stop-color:#282923"/>
		<stop  offset="1" style="stop-color:#282822"/>
	</linearGradient>
	<polygon id="Rightside" fill="url(#Rightside_3_)" points="366.1,167.3 366.1,190.1 433.1,176.4 433.1,153.4 	"/>
	
		<linearGradient id="Top_1_" gradientUnits="userSpaceOnUse" x1="360.7688" y1="447.9138" x2="366.7686" y2="428.2479" gradientTransform="matrix(1 0 0 -1 -5.517578e-02 595.1597)">
		<stop  offset="0" style="stop-color:#435E4E"/>
		<stop  offset="0.2349" style="stop-color:#445348"/>
		<stop  offset="0.4795" style="stop-color:#454B45"/>
		<stop  offset="0.7315" style="stop-color:#454742"/>
		<stop  offset="1" style="stop-color:#454542"/>
	</linearGradient>
	<polygon id="Top" fill="url(#Top_1_)" points="362.6,147.4 294.4,161 365.9,167.5 433.1,153.4 	"/>
	<g id="Bow">
		
			<linearGradient id="SVGID_1_" gradientUnits="userSpaceOnUse" x1="307.7253" y1="461.6033" x2="344.1244" y2="447.1606" gradientTransform="matrix(1 0 0 -1 -5.517578e-02 595.1597)">
			<stop  offset="1.210938e-03" style="stop-color:#A77546"/>
			<stop  offset="0.5884" style="stop-color:#DDBA81"/>
			<stop  offset="1" style="stop-color:#C6965D"/>
		</linearGradient>
		<path fill="url(#SVGID_1_)" d="M304.8,135.4c0,0,16.4,16.9,26.9,16.2c10.5-0.7,25.7-5.8,29.4-6.5c4-0.2-39.3-2.2-47.5-5.7
			C305.4,135.9,304.8,135.4,304.8,135.4z"/>
		
			<linearGradient id="SVGID_2_" gradientUnits="userSpaceOnUse" x1="347.0256" y1="463.5125" x2="345.9872" y2="451.652" gradientTransform="matrix(1 0 0 -1 -5.517578e-02 595.1597)">
			<stop  offset="0" style="stop-color:#905F37"/>
			<stop  offset="0.5219" style="stop-color:#A16E42"/>
			<stop  offset="1" style="stop-color:#C4965B"/>
		</linearGradient>
		<polygon fill="url(#SVGID_2_)" points="337.1,130.6 344.9,143.7 355.8,144.6 		"/>
		<linearGradient id="SVGID_3_" gradientUnits="userSpaceOnUse" x1="305.489" y1="175.4792" x2="360.8225" y2="157.6458">
			<stop  offset="0" style="stop-color:#C19058"/>
			<stop  offset="0.1869" style="stop-color:#EECC91"/>
			<stop  offset="0.5912" style="stop-color:#E6C288"/>
			<stop  offset="0.6775" style="stop-color:#D6AC73"/>
			<stop  offset="0.7806" style="stop-color:#CA9B63"/>
			<stop  offset="0.8868" style="stop-color:#C3915A"/>
			<stop  offset="1" style="stop-color:#C18E57"/>
		</linearGradient>
		<path fill="url(#SVGID_3_)" d="M362,156.1l-0.7-11c0,0-36.6,7.7-43.2,13c0,0,0,0,0,0l-0.2-0.1c-11.5,9.6-12.9,6-17.9,16
			c-0.8,1.7,3,16.8,3,16.8l26.2-22.1c0.1,0.1,0.1,0.1,0.1,0.1S340.9,161.6,362,156.1z"/>
		<linearGradient id="SVGID_4_" gradientUnits="userSpaceOnUse" x1="375.6765" y1="158.3528" x2="426.1765" y2="178.1028">
			<stop  offset="0" style="stop-color:#916037"/>
			<stop  offset="0.2657" style="stop-color:#DDB376"/>
			<stop  offset="0.4452" style="stop-color:#C08F57"/>
			<stop  offset="0.7117" style="stop-color:#E0B87A"/>
			<stop  offset="0.9988" style="stop-color:#BF8F57"/>
		</linearGradient>
		<path fill="url(#SVGID_4_)" d="M408,156.1l-6.1-2.2l-30.4,2.2l24.5,10.1l18.1,11.4c0,0,9.5,7.9,15.8,16.9c1.1,1.6,2.2-22,2.2-22
			S427.7,162.8,408,156.1z"/>
		
			<linearGradient id="SVGID_5_" gradientUnits="userSpaceOnUse" x1="364.5955" y1="450.3943" x2="367.0119" y2="438.2282" gradientTransform="matrix(1 0 0 -1 -5.517578e-02 595.1597)">
			<stop  offset="0" style="stop-color:#C49660"/>
			<stop  offset="0.2144" style="stop-color:#FFE9B8"/>
			<stop  offset="0.5543" style="stop-color:#B07C4C"/>
			<stop  offset="1" style="stop-color:#8E683F"/>
		</linearGradient>
		<path fill="url(#SVGID_5_)" d="M366.4,158c0,0,5.4-0.1,4.7-2.8c-0.7-2.7-2.2-8.6-2.2-8.6s-0.6-2-3.9-2.5s-3.5,0.7-3.4,2
			c0.1,1.3,0.6,9.5,0.6,9.5S363,157.8,366.4,158z"/>
		
			<linearGradient id="SVGID_6_" gradientUnits="userSpaceOnUse" x1="404.9587" y1="466.4441" x2="400.9412" y2="441.4828" gradientTransform="matrix(1 0 0 -1 -5.517578e-02 595.1597)">
			<stop  offset="0" style="stop-color:#905F37"/>
			<stop  offset="0.5219" style="stop-color:#A16E42"/>
			<stop  offset="1" style="stop-color:#C4965B"/>
		</linearGradient>
		<path fill="url(#SVGID_6_)" d="M401.9,153.8c0,0,28.4-4.1,31.2-18.2c0.3-1.4,0.1-3.4,0.1-4.2c-3.6-2.9-12.4-1.3-12.4-1.3
			s-5.8,10.9-24.7,13.7c-16.5,2.5-24.9,12.2-24.9,12.2L401.9,153.8z"/>
		<linearGradient id="SVGID_7_" gradientUnits="userSpaceOnUse" x1="374.9714" y1="146.7371" x2="426.9714" y2="122.4036">
			<stop  offset="0" style="stop-color:#BA8855"/>
			<stop  offset="0.1531" style="stop-color:#D6AA6F"/>
			<stop  offset="0.3448" style="stop-color:#BD8A56"/>
			<stop  offset="0.4873" style="stop-color:#DAAE70"/>
			<stop  offset="0.669" style="stop-color:#FFE9B8"/>
			<stop  offset="0.7375" style="stop-color:#BE8C57"/>
			<stop  offset="0.8091" style="stop-color:#D7AB6F"/>
			<stop  offset="1" style="stop-color:#BA8855"/>
		</linearGradient>
		<path fill="url(#SVGID_7_)" d="M425.7,115.2c-2.5-1.8-11.1-0.3-13.4,0.4c-2.2,0.7-8.3,3.2-9.1,3.5l-0.1-0.1c0,0-15.2,8-19.6,11.7
			c-4.4,3.7-15.6,13.3-15.3,14.5l2.9,11c0,0,26.1-14,30.1-16.2s16.8-8.6,16.8-8.6l-0.1,0c1.5-0.4,13.5-3.5,15.3,2.6
			C433.5,135,433.4,120.9,425.7,115.2z"/>
		<linearGradient id="SVGID_8_" gradientUnits="userSpaceOnUse" x1="302.4822" y1="127.0886" x2="360.4822" y2="130.3386">
			<stop  offset="0" style="stop-color:#A77546"/>
			<stop  offset="0.2022" style="stop-color:#FBE6B5"/>
			<stop  offset="0.4293" style="stop-color:#BD8D5B"/>
			<stop  offset="0.5884" style="stop-color:#DDBA81"/>
			<stop  offset="0.7428" style="stop-color:#CCA064"/>
			<stop  offset="1" style="stop-color:#9B693E"/>
		</linearGradient>
		<path fill="url(#SVGID_8_)" d="M336.4,120c0,0-1.8-1.8-6.9-4.2c-4.7-2.2-7.5-2.6-12.5-2.2l0,0c0,0,0,0-0.1,0c-0.1,0-0.1,0-0.2,0
			l0,0c-1,0.2-4.2,0.9-9.3,4.5c-6.2,4.3-2.6,17.3-2.6,17.3c0.6-5.9,0.8-5.9,2.7-9.8c1.4-2.8,4.6-3.6,5.1-3.7l0,0c0,0,4.1-1,9.3,0.5
			s7.1,2.2,7.1,2.2l26.7,20l5.3,0.4C361.1,145,343.2,123.6,336.4,120z"/>
	</g>
	
		<linearGradient id="Ribbon_6_" gradientUnits="userSpaceOnUse" x1="329.6599" y1="423.1248" x2="334.3067" y2="411.5074" gradientTransform="matrix(1 0 0 -1 -5.517578e-02 595.1597)">
		<stop  offset="1.171875e-03" style="stop-color:#986E44"/>
		<stop  offset="0.4799" style="stop-color:#C49460"/>
	</linearGradient>
	<path id="Ribbon_1_" fill="url(#Ribbon_6_)" d="M322.2,184.2c0,0-0.6-9,0.3-9.9c7.5-7.6,16.2-10.2,16.2-10.2v22.5L322.2,184.2z"/>
	
		<linearGradient id="Ribbon_7_" gradientUnits="userSpaceOnUse" x1="400.5281" y1="425.075" x2="397.7784" y2="413.1596" gradientTransform="matrix(1 0 0 -1 -5.517578e-02 595.1597)">
		<stop  offset="0" style="stop-color:#956C42"/>
		<stop  offset="0.4799" style="stop-color:#C49460"/>
	</linearGradient>
	<polygon id="Ribbon" fill="url(#Ribbon_7_)" points="407.9,181.6 391.4,185 391.7,164.4 396,166.2 407.9,173.6 	"/>
</g>
</svg>
