<?xml version="1.0" encoding="utf-8"?>
<!-- Generator: Adobe Illustrator 16.0.4, SVG Export Plug-In . SVG Version: 6.00 Build 0)  -->
<!DOCTYPE svg PUBLIC "-//W3C//DTD SVG 1.1//EN" "http://www.w3.org/Graphics/SVG/1.1/DTD/svg11.dtd">
<svg version="1.1" xmlns="http://www.w3.org/2000/svg" xmlns:xlink="http://www.w3.org/1999/xlink" x="0px" y="0px"
	 width="217.07px" height="290.72px" viewBox="0 0 217.07 290.72" enable-background="new 0 0 217.07 290.72" xml:space="preserve">
<g id="Washer">
	<g>
		<polygon fill="#E7EBEC" stroke="#000000" stroke-miterlimit="10" points="123.3,285.7 5.63,217.76 5.63,54.87 123.3,122.81 		"/>
		<polyline fill="#EEF1F2" stroke="#000000" stroke-miterlimit="10" points="5.63,54.88 123.3,122.82 212.57,71.37 94.85,3.43 
			5.82,54.93 		"/>
		<polygon fill="#DCE0E0" stroke="#000000" stroke-miterlimit="10" points="212.56,234.38 212.57,234.27 212.57,71.36 
			123.35,122.82 123.3,285.7 		"/>
		<path fill="#FBFDFF" d="M122.98,119.39L10.73,54.62l17.09-9.76l-13.76,9.76c22.07,10.06,61.24,32.4,61.24,32.4
			s38.83,31.73,48.82,26.41c6.92-3.69,22.87-11.63,34.37-14.53L122.98,119.39z"/>
		<polygon fill="#A6ABAE" points="212.49,76.94 123.76,128.17 123.76,128.71 212.49,77.48 		"/>
		<path fill="#C6CCCF" d="M211.04,232.87l0.02-0.11L210.08,88.7c-3.93,19.48-13.69,76.22-10.09,92.8
			c5.04,23.2,4.03,35.81-8.07,42.87c-11.68,6.81-51.03,30.32-60.61,54.33L211.04,232.87z"/>
		<polygon fill="#E6EAEA" points="121.84,282.48 7.03,216.2 7.03,57.27 121.84,123.56 		"/>
		<g>
			<path fill="#44535C" d="M90.65,173.01C90.65,172.84,90.52,164.17,90.65,173.01L90.65,173.01z"/>
			<path fill="#44535C" d="M87.64,190.6c-0.54,0.98-1.15,1.84-1.81,2.59C87.74,192.78,88.66,191.99,87.64,190.6z"/>
			<path fill="#44535C" d="M70.92,192.76c-0.46,0.02-0.91-0.03-1.32-0.18c-1.53-0.23-2.59-0.43-2.83-0.55
				c0.63-0.15,1.2-0.27,1.73-0.38c-0.09-0.16-0.16-0.33-0.22-0.52c0.42,0.12,0.83,0.22,1.24,0.32c4.49-0.82,4.75,0.01,3.63,0.68
				c12.57,1.59,16.28-6.83,14.26-19.01c0.17,1.63,0.91,4.31,1.06,6.52c-0.25-0.31-1.05-1.34-1.24-1.53c0.32,1.93-0.68,3.44-1.1,4.72
				c-1.4-2.53,0.81-3,0.99-4.82c-2.44-2.36-0.02,4.51-5.01,2.75c2.42-2.39,3.09-6.07,2.01-11.05c2.73,5.65,0.38-0.96,0.03-0.11
				c0.6-2.39,0.93-2.16,1.43-1.94c-1.95-6.53,0.73-4.16-3.35-11.22c7.32,8.67,6.37,6.95,8.43,16.59c-0.04-2.75-0.5-5.48-1.3-8.16
				c-4.45-10.61-12.67-21.05-22.3-27.63c-4.94-3.17-10.07-5.38-14.74-6.26c-10.21-1.45-17.34,4.53-17.34,16.29
				c0,7.39,2.82,15.75,7.44,23.51c0.09,0.15,0.18,0.29,0.27,0.44c0.17,0.29,0.35,0.57,0.53,0.86c0.16,0.25,0.31,0.49,0.47,0.74
				c0.08,0.12,0.16,0.24,0.23,0.35c2.67,4.07,5.78,7.83,9.09,11.11c3.38,3.32,7.07,6.21,10.94,8.44c3.48,2.01,6.82,3.32,9.91,3.99
				c4.74,0.83,8.96-0.15,11.97-3.52C82.3,193.93,75.39,193.35,70.92,192.76z M87.13,182.41c0.11-0.51,0.1-1.62,0.25-2.6
				C88.09,181.79,86.47,185.51,87.13,182.41z M36.61,149.99c0.57,1.51,0.58,3.25,1.01,4.82C37.11,154.27,36.35,151.68,36.61,149.99z
				 M38.88,151.82c0.18,0.43,0.25,0.61-0.01-0.02c-2.71-5.65-2.79-9.85-0.25-12.6C40.15,142.6,44.61,165.86,38.88,151.82z
				 M42.64,147C47.17,154.22,40.01,153.27,42.64,147L42.64,147z M55.96,173.63C56.41,173.89,55.96,174.47,55.96,173.63
				c-0.04,5.07-4.3-2.82-6.54-7.76C58.56,174.05,60.74,176.64,55.96,173.63z M55.96,171.39c-0.39-0.59-3.58-4.13-6.3-8.59
				c-1.82-2.7-3.31-5.75-3.75-8.93c0.53,3,2.05,6.14,3.75,8.93C55.04,170.76,63.31,175.63,55.96,171.39z M60.99,174.54
				c0.69,0.44,1.22,1.15,1.76,1.26C61.2,175.61,57.44,172.25,60.99,174.54z M59.99,155.27c0.4-0.27,1.9,0.36,2.51,1.2
				C61.99,157.09,61,155.81,59.99,155.27z M61.49,149.66c-7.89-4.54-0.14-7.24-3.02-11.21c1.53,2.11,0.74-1.69,0.12-0.34
				C60.32,133.83,66.76,149.02,61.49,149.66z M69.04,188.15c1.14-0.45,3.82,1.5,5.28,1.55C74.81,190.78,70.84,189.04,69.04,188.15z
				 M81.35,169.85c1.32,1.73-0.15,3.19,0,4.74C80.54,173.01,81.1,171.16,81.35,169.85z M78.59,169c0.7,1.27-0.33,1.97-0.25,3.09
				C77.94,171.3,78.46,169.8,78.59,169z M77.24,174.8c0.32-0.55,0.61-1.17,0.84-1.86C77.98,173.66,77.68,174.28,77.24,174.8
				c-1.28,2.19-3.27,3.31-5.96,3.35c0.56,0.25-0.42,0.37-3.51-0.44C70.51,177.72,75.28,177.15,77.24,174.8z M72.15,180.73
				c-0.15,0.05-0.34,0.1-0.6,0.15c0.16-0.54,0.89-0.55,0.94-0.39c0.81-0.34,1.63-0.67,2.44-1.01c-0.02-0.01-0.04-0.01-0.06-0.02
				c-1.77,0.44-3.79,0.39-6.09-0.18c3.48-0.12,5.5-0.06,6.09,0.18c0.09-0.02,0.17-0.04,0.26-0.06c0.65-0.27,1.3-0.54,1.95-0.81
				c-0.61,0.35-1.26,0.61-1.95,0.81c-0.07,0.03-0.13,0.06-0.2,0.08C75.44,179.73,74.51,180.14,72.15,180.73z M68.03,140.23
				c-0.04,0.75-1.54-0.41-1.51-1.12C67.29,139.37,67.44,139.89,68.03,140.23z M68.03,143.97c-0.79,0.3-1.7-0.75-2.76-1.6
				C65.5,140.71,67.8,142.04,68.03,143.97z M66.77,144.24c2.87,2.47,3.77,9.88,0,8.22C65.09,149.94,65.04,144.73,66.77,144.24z
				 M68.07,182.32c4.01,0.25,8.02,0.5,12.02,0.75C85.01,189.93,72.72,184.29,68.07,182.32c-0.35-0.02-0.7-0.04-1.05-0.06
				c4.91,1.14,4.15,2.86,0,0C65.78,181.4,66.47,181.64,68.07,182.32z"/>
			<path fill="#44535C" d="M85.8,166.32c0.7,2.36,1.61,4.68,1.97,6.84C87.32,168.89,86.42,166.58,85.8,166.32z"/>
			<path fill="#44535C" d="M72.49,180.49c-0.31,0.13-0.63,0.26-0.94,0.39c0.22-0.05,0.4-0.1,0.6-0.15
				C72.42,180.64,72.51,180.55,72.49,180.49z"/>
			<path fill="#44535C" d="M87.12,178c0.03,0.03,0.07,0.07,0.11,0.1c-0.02-0.14-0.05-0.29-0.09-0.43
				C87.14,177.79,87.13,177.9,87.12,178z"/>
			<path fill="#44535C" d="M68.5,191.65c0.26,0.47,0.65,0.76,1.1,0.93c0.41,0.06,0.85,0.12,1.32,0.18c0.85-0.04,1.69-0.32,2.23-0.64
				c-1.14-0.15-2.34-0.37-3.63-0.68C69.2,191.5,68.86,191.57,68.5,191.65z"/>
			<path fill="#44535C" d="M55.96,171.39C56.05,171.44,55.1,170.08,55.96,171.39L55.96,171.39z"/>
			<path fill="#44535C" d="M38.87,151.8c0,0.01,0.01,0.02,0.01,0.02C38.48,150.83,37.53,148.52,38.87,151.8z"/>
			<path fill="#44535C" d="M71.29,178.15c-0.41-0.18-1.64-0.43-3.51-0.44C69.06,178.03,70.22,178.17,71.29,178.15z"/>
			<path fill="#44535C" d="M42.64,147C42.16,148.13,43.55,148.45,42.64,147L42.64,147z"/>
		</g>
		<path fill="#EFF3F5" d="M7.94,59.09c0,0.8,0,2.6,0,2.6s93.6,54.31,96.14,54.17c2.54-0.13-40.02-22.37-52.97-31.38
			C38.15,75.47,7.94,59.09,7.94,59.09z"/>
		<path fill="#F3F8FA" d="M7.91,58.48c0,1.17,0.12,3.22,0.12,3.22S47.25,82.36,64.3,92.67C81.35,102.98,7.91,58.48,7.91,58.48z"/>
		<path fill="#F2F5F6" d="M20.05,88.96c0.03,6.54,90.4,51.3,98.77,58.25c2.46,7.65-36.31-14.82-35.9-10.74
			c-20.7-21.38-35.73-22.9-47.98-22.45c-28.02,4.49-14.89,60.93,17.69,86.04c0.81,8.26-24.57-11.25-21.36-1.65
			c1,3.75-18.74-5.48-18.74-3.64C4.03,143.27,9.49,83.92,9.2,83.04C11.31,84.26,16.2,98.99,20.05,88.96z"/>
		<path fill="#DEE1E3" d="M8.09,78.14c2.63,1.08,5.08,2.41,7.27-0.71c2.19-3.11,105.51,60.48,105.51,60.48l-0.18,7.52L8,80.45
			L8.09,78.14z"/>
		<g>
			<path fill="#A6ABAE" d="M35.97,96.63L17.93,86.21c-0.94-0.54-1.7-2.44-1.7-3.38V70.67c0-0.93,0.76-1.96,1.7-1.42l18.75,10.82
				c0.94,0.54,1.7,2.44,1.7,3.38v12.17C38.37,96.55,36.91,97.17,35.97,96.63z M17.89,69.73c-0.72-0.41-1.11,0.68-1.11,1.4
				l-0.16,11.93c0,0.72,0.58,2.34,1.3,2.75l18.05,10.42c0.72,0.41,2-0.13,2-0.85V83.22c0-0.72-0.7-2.3-1.64-2.84L17.89,69.73z"/>
		</g>
		<polygon fill="#A6ABAE" points="122.85,129.05 5.94,61.56 5.94,60.84 122.85,128.33 		"/>
		<path fill="#C6CCCF" d="M63.5,108.96c-0.67-0.04,1.05,2.52,0.85,2.53c-0.2,0.01,3.29,1.71,3.48,1.7c0.2-0.01,1.38-0.94,2.1-0.52
			c0.72,0.42,1.71-4.33-1.45-8.44c-3.15-4.11-1.12,1.46-1.12,2.26C67.38,107.3,66,109.11,63.5,108.96z"/>
		<path fill="#A6ABAE" d="M67.66,103.45l0,6.11c0,0-0.69,0.65-3.88-1.81l0,0c0.82,1.29-0.2,0.93,0.41,1.58
			C68.02,113.4,71.38,109.18,67.66,103.45z"/>
		<path fill="#F2F5F6" d="M62.87,99.84c2.1,0.3,3.49,1.41,4.55,2.45c0.23,0.22,0.26,0.49,0.26,0.49l0,6.78c0,0-0.73,0.7-4.2-2.06
			c-0.37-0.3-0.64-0.89-0.64-0.89l-0.06-6.6L62.87,99.84z"/>
		<polygon fill="#A6ABAE" points="60.16,97.31 54.2,93.88 54.2,93.22 60.16,96.66 		"/>
		<polygon fill="#A6ABAE" points="59.28,99.39 54.64,96.71 54.64,96.06 59.28,98.74 		"/>
		<polygon fill="#A6ABAE" points="59.41,102.05 52.63,98.13 52.63,97.48 59.41,101.39 		"/>
		<polygon fill="#A6ABAE" points="60.07,104.75 55.43,102.07 55.43,101.41 60.07,104.09 		"/>
		<polygon fill="#A6ABAE" points="71.45,103.84 77.41,107.27 77.41,106.62 71.45,103.18 		"/>
		<polygon fill="#A6ABAE" points="72.33,106.92 76.97,109.6 76.97,108.95 72.33,106.27 		"/>
		<polygon fill="#A6ABAE" points="72.2,109.43 78.98,113.35 78.98,112.69 72.2,108.77 		"/>
		<polygon fill="#A6ABAE" points="71.54,111.37 76.18,114.05 76.18,113.39 71.54,110.72 		"/>
		<path fill="#C6CCCF" d="M63.48,101.06l0.09-0.16c1.85,0.27,3.15,1.16,4.16,2.08v-0.18c0,0-0.03-0.26-0.26-0.49
			c-1.06-1.03-2.45-2.15-4.55-2.45l-0.09,0.16l0.06,6.6c0,0,0.27,0.59,0.64,0.89c0,0,0.01,0.01,0.01,0.01L63.48,101.06z"/>
		<polygon fill="#8D9194" points="65.47,103.04 64.97,102.75 64.97,100.53 65.47,100.82 		"/>
		<path fill="#DEE1E3" d="M120.63,267.39l0.06-1.59c-0.02-0.01-0.04-0.02-0.06-0.03v-61.71l-3.44,51.54l-12.38-0.61
			c-14.07-7.2-27.5-10.66-31.99-14.26c-5.14-4.13-10.04-5.8-10.04-3.93c0,1.87-2.8-0.45-4.44-0.69c-1.63-0.24,1.4,2.68-0.7,2.63
			c-2.1-0.05-10.74-4.1-9.57-1.56c1.17,2.54,72.15,41.66,72.15,41.66l0.36-9.96l0.05,0.03V267.39L120.63,267.39z"/>
		<polygon fill="#A6ABAE" points="122.87,264.1 6.07,196.66 6.07,195.46 122.87,262.89 		"/>
		<polygon fill="#7F878D" points="116.37,141.59 93.08,128.14 93.08,124.23 116.37,137.68 		"/>
		<polygon fill="#DEE1E3" points="115.9,140.91 93.37,127.91 93.37,124.76 115.9,137.77 		"/>
		<path fill="#F2F5F6" d="M93.72,125.36c0,0.35,0,1.98,0,1.98s7.12,1.82,18.81,10.1c2.59,1.83,3.31,0.69,3.31,0.69L93.72,125.36z"/>
		<polygon fill="#7F878D" points="98.86,131.02 98.39,130.75 98.39,127.71 98.86,127.98 		"/>
		<polygon fill="#7F878D" points="104.52,134.29 104.05,134.02 104.05,130.97 104.52,131.24 		"/>
		<polygon fill="#7F878D" points="110.36,137.71 109.89,137.44 109.89,134.4 110.36,134.67 		"/>
		<polygon fill="#7F878D" points="116.25,126.64 93.02,113.22 93.02,122.85 116.25,136.27 		"/>
		<polygon fill="#44535C" points="115.67,127.12 93.95,114.58 93.95,122.87 115.67,135.41 		"/>
		<path fill="#DEE1E3" d="M35.46,157.92c-4.73,0.77-5.43,10-5.43,10s8.24,22.85,33.1,37.85c20.14,12.15,33.27,1.7,33.97,0.7
			c0.7-1-7.35-15.98-7.35-15.98s-4.55,15.93-28.55,1.38C43.34,181.04,35.46,157.92,35.46,157.92z"/>
		<path fill="#C6CCCF" d="M84.69,155.23c0,0-15.85-26.76-31.26-26.98c-18.1-0.25-13,4.14-13,4.14s5.76-4.32,15.2-1.62
			C64.31,133.25,74.61,139.88,84.69,155.23z"/>
		<path fill="#A6ABAE" d="M101.3,168.07c-5.39-13.84-14.08-26.26-25.54-37.49c2.06,1.53,3.64,3.26,5.59,4.83
			c-0.07-0.59-0.99-0.82-1.06-1.42c-0.89-0.6-1.68-1.24-2.13-2.03c-13.49-12.7-31.84-19.85-39.92-16.89
			c2.06,0.05,4.41-0.87,6.65,0.36c-5.31-0.3-9.68,0.91-13.3,3.29c0.38,0.15,0.45-0.18,0.8-0.08c1.25-0.88,2.67-1.49,4.26-1.82
			c1.13-0.53,2.37-0.89,3.99-0.64c0.35-0.34,0.87-0.4,1.6-0.15c6.45-1.28,20.2,4.27,30.6,13.39c0.09,0.05,0.18,0.1,0.27,0.15
			c15.92,13.16,26.26,30.14,30.07,47.59c-0.39-0.08-1.38-1.11-1.33-0.5c0.62,0.36,1.24,0.72,1.86,1.08
			c1.51,6.62,1.34,16.38-0.23,21.13c0,0-0.05,0.11-0.04,0.12c-5.87,14.01-19.88,21.27-44.17,5.27c-4.92-3.24-9.1-7.32-13.04-11.54
			c-3.53-3.48-6.44-7.23-9.05-11.11c-2.9-3.93-5.1-8.16-7.45-12.33c-2.13-3.19-3.01-6.92-4.79-10.26c0,0.18,0,0.36,0,0.53
			c3.31,8.57,7.73,16.67,13.04,24.38c0.97,0.75,1.3,1.76,2.13,2.57c5.57,6.8,11.68,13.37,20.22,18.9
			c20.4,11.87,31.82,9.52,39.65,1.49C106.46,201.72,107.53,182.26,101.3,168.07z"/>
		<path fill="#44535C" d="M72.49,210.32c15.45,5.83,26.99,0.8,30.7-12.55c0.02-0.06-0.45-0.05,0-0.53
			c2.21-2.38,1.8-12.25,0.76-17.73c-3.04-16.02-11.49-30.13-22.33-42.91c-0.32-0.37-2.3-2.04-1.27-1.79
			c14.52,15.25,26.84,34.93,25.38,56.78c-1.22,18.14-15.02,26.04-31.97,19.72C73.78,211.32,69.9,209.85,72.49,210.32z"/>
		<path fill="#44535C" d="M22.57,126.71c3.25-6.66,7.97-10.95,14.97-11.56c-7.31,2.56-13.6,6.77-15.48,18.08
			c-0.36,1.44-0.6,3.05-0.51,5.22c-0.42,0.3-0.42,2.63,0,3.41c0.07,6.44,1.57,12.23,3.55,17.79c-0.12,0.69,1.05,2.12,0.51,2.13
			c-3-7.81-5.38-15.91-5.08-25.23c0-0.09,0-0.17,0-0.26c0.37-2.12,0.58-4.49,1.02-6.5C21.98,128.92,22.4,128.01,22.57,126.71z"/>
		<g>
			<path fill="#A6ABAE" d="M115.13,276.83l-22.25-12.85c-0.94-0.54-1.7-2.44-1.7-3.38v-10.77c0-0.94,0.76-1.96,1.7-1.42l22.95,13.25
				c0.93,0.54,1.7,2.44,1.7,3.38v10.77C117.53,276.75,116.06,277.37,115.13,276.83z M92.85,248.9c-0.72-0.41-1.11,0.68-1.11,1.4
				l-0.16,10.53c0,0.72,0.58,2.34,1.3,2.75l22.25,12.85c0.72,0.41,2-0.13,2-0.85v-10.77c0-0.72-0.7-2.3-1.63-2.84L92.85,248.9z"/>
		</g>
		<path fill="#FFFFFF" d="M22.33,143.45c-0.64-0.48,1.4-1.28,1.23-1.9c-0.18-1.14,0.74-2.69,0.09-3.67c0-0.26,0.66-1.64,0.66-1.9
			c0.66-0.99-0.43-1.32-0.24-3.01c0.28,0.71,0.63,0.3,0.63,0.04c1.2,0.32,0.98-1.98,1.09-3.27c0-0.08,0.83-1.4,0.83-1.49
			c1.08-1.73,1.31-2.94,2.89-3.94c0.64-0.34,1.61-1.44,1.93-2.26c5.34-4.1,12.74-3.11,19.93-4.03
			C33.89,114.55,21.32,120.66,22.33,143.45z"/>
		<path fill="#F3F8FA" d="M15.28,67.82c5.05,2.21-5.97-4-6.35-3.34c-0.37,0.66-0.74,12-0.37,12.39c0.37,0.39,0.99-0.83,0.99-0.83
			s0.49,1.18,0.37-1.68c-0.04-1.08-0.35-6.73,0.27-5.14c0.62,1.58,2.37-1.96,2.37-1.96S12.19,66.46,15.28,67.82z"/>
		
			<linearGradient id="SVGID_1_" gradientUnits="userSpaceOnUse" x1="25.8914" y1="755.5466" x2="27.9925" y2="758.6562" gradientTransform="matrix(1 0 0 -1 -0.0552 841.7495)">
			<stop  offset="0" style="stop-color:#C2C6C9"/>
			<stop  offset="0.1464" style="stop-color:#BABDC2"/>
			<stop  offset="0.3321" style="stop-color:#A7AAB1"/>
			<stop  offset="0.5391" style="stop-color:#8C8F99"/>
			<stop  offset="0.7615" style="stop-color:#6B6E7B"/>
			<stop  offset="0.994" style="stop-color:#454D5D"/>
			<stop  offset="1" style="stop-color:#444C5C"/>
		</linearGradient>
		<path fill="url(#SVGID_1_)" d="M35.02,88.32c0-0.96-0.64-2.1-1.42-2.56l-12.82-7.4c-0.79-0.45-1.42-0.05-1.42,0.91
			c0,0.08,0.01,0.17,0.02,0.26l0.02,0.01c0.13,1.76,0.7,3.37,1.39,3.77l12.82,7.4c0.69,0.4,1.26-0.55,1.39-2.17L35,88.55
			C35.01,88.48,35.02,88.4,35.02,88.32z"/>
	</g>
</g>
<g id="Dryer">
	<polygon fill="#E7EBEC" stroke="#000000" stroke-miterlimit="10" points="123.81,285.2 6.13,217.26 6.13,54.37 123.81,122.3 	"/>
	<polyline fill="#EEF1F2" stroke="#000000" stroke-miterlimit="10" points="6.13,54.37 123.81,122.31 213.08,70.87 95.35,2.92 
		6.32,54.42 	"/>
	<polygon fill="#DCE0E0" stroke="#000000" stroke-miterlimit="10" points="213.06,233.88 213.08,233.76 213.08,70.86 123.86,122.31 
		123.81,285.2 	"/>
	<path fill="#FBFDFF" d="M123.48,118.89L11.23,54.11l17.09-9.76l-13.76,9.76c22.07,10.06,61.24,32.4,61.24,32.4
		s38.83,31.73,48.82,26.41c6.92-3.69,22.87-11.63,34.37-14.53L123.48,118.89z"/>
	<polygon fill="#E6EAEA" points="122.04,281.87 6.86,215.38 6.86,55.95 122.04,122.44 	"/>
	<path fill="#EFF3F5" d="M7.77,57.77c0,0.8,0,2.61,0,2.61s93.9,54.48,96.45,54.35c2.55-0.13-40.14-22.44-53.14-31.49
		C38.08,74.2,7.77,57.77,7.77,57.77z"/>
	<path fill="#F3F8FA" d="M7.74,57.16c0,1.17,0.12,3.23,0.12,3.23s39.35,20.73,56.45,31.07C81.41,101.8,7.74,57.16,7.74,57.16z"/>
	<path fill="#F2F5F6" d="M19.92,87.73c0.03,6.56,90.69,51.46,99.08,58.44c2.47,7.67-36.43-14.87-36.01-10.78
		c-20.77-21.45-35.84-22.98-48.14-22.52c-28.11,4.5-14.93,61.12,17.74,86.32c0.81,8.28-24.65-11.28-21.43-1.66
		c1,3.77-18.8-5.49-18.8-3.65C3.84,142.22,9.32,82.67,9.03,81.8C11.15,83.02,16.06,97.8,19.92,87.73z"/>
	<path fill="#DEE1E3" d="M7.92,76.88c2.63,1.08,5.09,2.41,7.29-0.71c2.2-3.12,105.85,60.67,105.85,60.67l-0.18,7.54L7.83,79.2
		L7.92,76.88z"/>
	<path fill="#C6CCCF" d="M17.73,78.27v3.77c0,0,0.13,1.3,3.05,2.88c2.92,1.58,20.54,11.96,20.54,11.96s2.65-0.71-7.15-5.86
		c-1.99-1.04-4.5-3.82-3.84-3.54c3.91,1.65-1.99-1.76-0.13-1.4C32.04,86.43,17.59,77.58,17.73,78.27z"/>
	<g>
		<path fill="#A6ABAE" d="M41.17,97.77L18.14,84.48c-0.94-0.54-1.7-2.45-1.7-3.39v-10.8c0-0.94,0.76-1.96,1.7-1.42l23.73,13.7
			c0.94,0.54,1.7,2.45,1.7,3.39v10.8C43.57,97.69,42.1,98.31,41.17,97.77z M18.11,69.35C17.39,68.93,17,70.04,17,70.76l-0.16,10.56
			c0,0.72,0.58,2.35,1.3,2.76l23.02,13.29c0.72,0.42,2.01-0.13,2.01-0.85v-10.8c0-0.72-0.7-2.31-1.64-2.85L18.11,69.35z"/>
	</g>
	<polygon fill="#A6ABAE" points="123.42,128.17 6.49,60.66 6.49,59.94 123.42,127.45 	"/>
	<path fill="#C6CCCF" d="M63.51,107.8c-0.67-0.04,1.05,2.53,0.86,2.54c-0.2,0.01,3.3,1.72,3.49,1.71c0.2-0.01,1.38-0.94,2.11-0.52
		c0.73,0.42,1.71-4.35-1.45-8.47c-3.16-4.12-1.12,1.46-1.12,2.27C67.4,106.14,66.01,107.94,63.51,107.8z"/>
	<path fill="#A6ABAE" d="M67.68,102.27l0,6.12c0,0-0.69,0.65-3.89-1.82l0,0c0.82,1.29-0.2,0.94,0.41,1.58
		C68.04,112.25,71.42,108.01,67.68,102.27z"/>
	<path fill="#F2F5F6" d="M62.88,98.65c2.11,0.3,3.5,1.42,4.57,2.45c0.23,0.23,0.26,0.49,0.26,0.49l0,6.8c0,0-0.73,0.7-4.22-2.07
		c-0.37-0.3-0.64-0.89-0.64-0.89l-0.06-6.62L62.88,98.65z"/>
	<polygon fill="#A6ABAE" points="60.15,96.11 54.18,92.66 54.18,92.01 60.15,95.46 	"/>
	<polygon fill="#A6ABAE" points="59.28,98.2 54.62,95.51 54.62,94.85 59.28,97.54 	"/>
	<polygon fill="#A6ABAE" points="59.41,100.87 52.6,96.93 52.6,96.28 59.41,100.21 	"/>
	<polygon fill="#A6ABAE" points="60.07,103.57 55.41,100.89 55.41,100.23 60.07,102.92 	"/>
	<polygon fill="#A6ABAE" points="71.49,102.66 77.46,106.11 77.46,105.45 71.49,102 	"/>
	<polygon fill="#A6ABAE" points="72.36,105.76 77.02,108.44 77.02,107.78 72.36,105.1 	"/>
	<polygon fill="#A6ABAE" points="72.23,108.27 79.04,112.2 79.04,111.54 72.23,107.61 	"/>
	<polygon fill="#A6ABAE" points="71.57,110.22 76.23,112.91 76.23,112.25 71.57,109.56 	"/>
	<path fill="#C6CCCF" d="M63.49,99.87l0.09-0.16c1.86,0.27,3.16,1.17,4.17,2.08v-0.18c0,0-0.03-0.26-0.26-0.49
		c-1.07-1.04-2.46-2.15-4.57-2.45l-0.09,0.16l0.06,6.62c0,0,0.27,0.59,0.64,0.89c0,0,0.01,0.01,0.01,0.01L63.49,99.87z"/>
	<polygon fill="#8D9194" points="65.48,101.85 64.99,101.57 64.99,99.34 65.48,99.63 	"/>
	<path fill="#DEE1E3" d="M120.82,266.73l0.06-1.6c-0.02-0.01-0.04-0.02-0.06-0.03v-61.9l-3.46,51.71l-12.42-0.61
		c-14.12-7.22-27.59-10.69-32.09-14.31c-5.15-4.15-10.07-5.81-10.07-3.94s-2.81-0.45-4.45-0.7c-1.64-0.24,1.41,2.69-0.7,2.64
		c-2.11-0.05-10.77-4.11-9.6-1.56s72.38,41.79,72.38,41.79l0.36-9.99l0.05,0.03V266.73L120.82,266.73z"/>
	<polygon fill="#A6ABAE" points="121.47,262.48 7.51,196.69 7.51,195.52 121.47,261.31 	"/>
	<polygon fill="#7F878D" points="116.55,140.53 93.18,127.04 93.18,123.12 116.55,136.61 	"/>
	<polygon fill="#DEE1E3" points="116.08,139.85 93.48,126.8 93.48,123.64 116.08,136.69 	"/>
	<path fill="#F2F5F6" d="M93.83,124.25c0,0.36,0,1.99,0,1.99s7.14,1.83,18.87,10.13c2.6,1.84,3.32,0.69,3.32,0.69L93.83,124.25z"/>
	<polygon fill="#7F878D" points="98.98,129.93 98.51,129.66 98.51,126.6 98.98,126.87 	"/>
	<polygon fill="#7F878D" points="104.66,133.21 104.19,132.94 104.19,129.88 104.66,130.15 	"/>
	<polygon fill="#7F878D" points="110.52,136.64 110.05,136.37 110.05,133.31 110.52,133.58 	"/>
	<polygon fill="#7F878D" points="116.43,125.53 93.12,112.07 93.12,121.74 116.43,135.19 	"/>
	<polygon fill="#44535C" points="115.85,126.01 94.06,113.43 94.06,121.75 115.85,134.33 	"/>
	<path fill="#F2F5F6" d="M105.42,187.11c0,23.16-18.77,31.09-41.93,17.72c-23.16-13.37-41.93-42.98-41.93-66.14
		s18.77-31.09,41.93-17.72C86.65,134.34,105.42,163.95,105.42,187.11z"/>
	<path fill="#A6ABAE" d="M101.43,167.1c-5.41-13.88-14.13-26.34-25.63-37.61c2.06,1.53,3.65,3.27,5.61,4.85
		c-0.07-0.6-0.99-0.83-1.07-1.42c-0.89-0.6-1.68-1.25-2.13-2.04c-13.53-12.74-31.94-19.92-40.04-16.94
		c2.07,0.05,4.42-0.87,6.67,0.36c-5.33-0.3-9.71,0.92-13.35,3.3c0.38,0.16,0.45-0.18,0.8-0.07c1.25-0.88,2.67-1.49,4.27-1.83
		c1.13-0.54,2.38-0.89,4-0.64c0.35-0.34,0.88-0.4,1.6-0.15c6.47-1.29,20.27,4.28,30.7,13.43c0.09,0.05,0.18,0.1,0.27,0.15
		c15.97,13.2,26.34,30.23,30.17,47.74c-0.39-0.08-1.38-1.11-1.33-0.5c0.62,0.36,1.24,0.72,1.87,1.08c1.51,6.64,1.34,16.43-0.23,21.2
		c0,0-0.05,0.11-0.04,0.12c-5.88,14.06-19.94,21.33-44.31,5.28c-4.94-3.25-9.13-7.35-13.08-11.58c-3.54-3.49-6.47-7.25-9.08-11.14
		c-2.91-3.95-5.12-8.19-7.47-12.37c-2.14-3.2-3.02-6.94-4.81-10.29c0,0.18,0,0.36,0,0.54c3.32,8.6,7.76,16.72,13.08,24.46
		c0.98,0.75,1.3,1.77,2.14,2.57c5.58,6.83,11.72,13.41,20.29,18.96c20.47,11.9,31.92,9.55,39.78,1.49
		C106.61,200.85,107.68,181.33,101.43,167.1z"/>
	<path fill="#44535C" d="M72.53,209.48c15.5,5.85,27.08,0.81,30.8-12.59c0.02-0.06-0.45-0.05,0-0.53
		c2.22-2.39,1.81-12.29,0.76-17.78c-3.04-16.07-11.52-30.22-22.4-43.04c-0.32-0.37-2.3-2.04-1.27-1.79
		c14.56,15.3,26.93,35.04,25.46,56.96c-1.22,18.2-15.07,26.12-32.07,19.78C73.82,210.49,69.93,209.01,72.53,209.48z"/>
	<path fill="#44535C" d="M22.44,125.6c3.26-6.68,7.99-10.99,15.02-11.59c-7.33,2.57-13.64,6.79-15.53,18.14
		c-0.36,1.44-0.6,3.06-0.51,5.23c-0.42,0.3-0.42,2.64,0,3.42c0.06,6.46,1.57,12.27,3.56,17.85c-0.12,0.69,1.05,2.12,0.51,2.14
		c-3.01-7.84-5.39-15.96-5.09-25.31c0-0.09,0-0.18,0-0.26c0.37-2.13,0.58-4.5,1.02-6.52C21.86,127.82,22.28,126.91,22.44,125.6z"/>
	<path fill="#E6EAEA" d="M35.62,156.11c-4.74,0.78-5.45,10.03-5.45,10.03s8.26,22.92,33.2,37.97c20.2,12.19,33.38,1.7,34.08,0.7
		c0.7-1-7.38-16.03-7.38-16.03s-4.57,15.98-28.64,1.39C43.52,179.3,35.62,156.11,35.62,156.11z"/>
	<path fill="#E2E6E7" d="M28.14,123.51l8.59-3.94l6.82,2.3l4.55-0.18l2.27,2.25c0,0-20.47,1.53-16.93,22.08
		c3.54,20.55,9.6,32.95,20.47,37.82c10.87,4.87,13.14,1.03,15.16,5.71c2.02,4.68,0.8-5.87,6.57-3c5.77,2.86,4.04-9.61,7.58-4.29
		c3.54,5.32,7.08-2.24,7.58-9.44c0.51-7.2,2.78-10.58,0.51-14.7c-2.27-4.12-3.22-5.96-4.99-9.32c-1.77-3.36-6.63-10.27-6.63-10.27
		s14.59,15.39,19.9,30.4c5.31,15.01,6.13,31-4.99,35.12c-11.12,4.12-25.06-9.43-27.04-1.44c-1.98,7.99-17.69-8.92-24.51-17.08
		c-6.82-8.16-18.19-27.6-18.95-43.5C23.33,126.12,25.86,128.99,28.14,123.51z"/>
	<path fill="#FFFFFF" d="M23.5,143.01c-0.64-0.48,1.4-1.28,1.23-1.91c-0.18-1.14,0.74-2.7,0.09-3.68c0-0.26,0.66-1.65,0.66-1.9
		c0.66-0.99-0.43-1.33-0.24-3.02c0.28,0.72,0.63,0.3,0.63,0.04c1.2,0.32,0.99-1.98,1.1-3.27c0-0.09,0.83-1.41,0.83-1.49
		c1.08-1.74,1.31-2.95,2.9-3.95c0.64-0.34,1.62-1.45,1.93-2.27c5.36-4.11,12.78-3.12,20-4.04C35.09,114.01,22.48,120.14,23.5,143.01
		z"/>
	<path fill="#E2E6E7" d="M90.64,178.86c-1.55,1.59-1.38,13.95,0.41,15.54c1.79,1.59,14.75,8.93,15.16,8.75
		c0.41-0.18,3.16-6.95,0.96-23.7c-2.07-15.8-0.14,0.33-6.48,0.26C94.36,179.63,91.33,178.16,90.64,178.86z"/>
	<path fill="#F3F8FA" d="M17.35,68.09c7.14,3.42-7.91-5.62-8.43-5.04c-0.53,0.57-1.05,11.86-0.53,12.34
		c0.53,0.48,1.41-0.59,1.41-0.59s1.41,2.74,1.41-0.07s1.41-0.42,2.28,1.32c0.88,1.74,0-8.96,0-8.96S12.97,65.99,17.35,68.09z"/>
	<path fill="#E6EAEA" d="M92.58,166.21c-2.07,5.56-1.52,14.01-1.52,14.01s6.34,2.42,10.2,1.06c3.86-1.36,4.96-2.92,4.96-8.16
		C106.23,172.71,92.58,166.21,92.58,166.21z"/>
	<path fill="#A6ABAE" d="M108.2,180.28c-0.77-5.93-0.99-7.36-1.29-6.84v-0.05l-13.78-7.96v0.83l13.55,7.83
		c-0.04,0.15-0.09,0.31-0.14,0.49c0.13,0.96,0.29,2.15,0.48,3.62c2.19,16.76-0.55,23.53-0.96,23.7c-0.39,0.17-12.09-6.45-14.8-8.47
		c0.22,0.87,0.49,1.51,0.81,1.8c1.79,1.59,14.75,8.93,15.16,8.75C107.65,203.8,110.4,197.03,108.2,180.28z"/>
	<polygon fill="#44535C" points="114.88,263.13 14.62,205.24 14.62,203.55 114.88,261.43 	"/>
	<polygon fill="#44535C" points="114.7,266.77 14.45,208.89 14.45,207.19 114.7,265.07 	"/>
	<polygon fill="#44535C" points="114.79,270.64 14.54,212.75 14.54,211.06 114.79,268.94 	"/>
	<polygon fill="#44535C" points="114.62,274.28 14.36,216.4 14.36,214.7 114.62,272.58 	"/>
	<polygon fill="#A6ABAE" points="213,76.43 124.26,127.66 124.26,128.21 213,76.98 	"/>
	<path fill="#C6CCCF" d="M211.55,232.36l0.02-0.11L210.59,88.2c-3.93,19.48-13.69,76.22-10.09,92.8c5.04,23.2,4.03,35.81-8.07,42.87
		c-11.68,6.81-51.03,30.32-60.61,54.33L211.55,232.36z"/>
</g>
</svg>
