<?xml version="1.0" encoding="utf-8"?>
<!-- Generator: Adobe Illustrator 16.0.4, SVG Export Plug-In . SVG Version: 6.00 Build 0)  -->
<!DOCTYPE svg PUBLIC "-//W3C//DTD SVG 1.1//EN" "http://www.w3.org/Graphics/SVG/1.1/DTD/svg11.dtd">
<svg version="1.1" xmlns="http://www.w3.org/2000/svg" xmlns:xlink="http://www.w3.org/1999/xlink" x="0px" y="0px" width="841.9px"
	 height="595.3px" viewBox="0 0 841.9 595.3" enable-background="new 0 0 841.9 595.3" xml:space="preserve">
<g id="Box_1_">
	<polygon id="Rightside_1_" fill="#009444" points="-66.4,-18 -66.1,54 1.3,68.8 2.2,-9.6 	"/>
	<polygon id="Leftside_1_" fill="#006838" points="66.8,55 1.3,68.8 2.2,-9.6 66.4,-22.7 	"/>
	<polygon id="Ribbon_3_" fill="#FBB040" points="-41.5,-14.6 -25,-13 -24.7,63.3 -41.2,60.1 	"/>
	<polygon id="Ribbon_2_" fill="#F15A29" points="27.7,-14.5 44.2,-18 44.6,59.7 28.1,63.2 	"/>
	<polygon id="BackII" fill="#58595B" points="66.4,-22.7 2.1,-36.7 2.2,-9.6 	"/>
	<polygon id="Back" fill="#414042" points="-66.4,-18 2.2,-9.6 2.1,-36.7 	"/>
</g>
<g id="Lid">
	<polygon id="Leftside_3_" fill="#006838" points="-69.2,-38.5 -69.1,-18.1 2.5,-9.2 2.4,-32.1 	"/>
	<polygon id="Rightside_3_" fill="#034927" points="2.4,-32.1 2.5,-9.2 69.4,-23.3 69.3,-46.3 	"/>
	<polygon id="Top_2_" fill="#0B2B19" points="-1.3,-52 -69.4,-38 2.1,-31.9 69.3,-46.3 	"/>
	<g id="Bow_2_">
		<path fill="#F15A29" d="M-59.2-63.6c0,0,16.5,16.8,27,16c10.5-0.8,23.8-6.3,27.7-6.6c3.9-0.3-37.8-2.1-45.9-5.5
			C-58.6-63-59.2-63.6-59.2-63.6z"/>
		<polygon fill="#BE1E2D" points="-26.9,-68.6 -19,-55.5 -8.1,-54.7 		"/>
		<path fill="#FBB040" d="M-2.6-54.3c0,0-36.5,7.9-43.2,13.2c0,0-0.1,0.1-0.1,0.1l-0.1-0.1c-11.4,9.6-12.8,6.1-17.8,16.1
			c-0.8,1.7,3.1,16.8,3.1,16.8l26.1-22.2c0,0,11.6-7.1,32.7-12.8L-2.6-54.3z"/>
		<path fill="#F15A29" d="M44.2-43.5L44.2-43.5L38-45.6L7.7-43.3l24.5,10l0,0l18.1,11.3c0,0,9.5,7.9,15.8,16.8
			c1.1,1.6,2.1-22,2.1-22S63.8-36.8,44.2-43.5z"/>
		<path fill="#BE1E2D" d="M38-45.7c0,0,28.4-4.3,31.1-18.4c0.3-1.4,0-4.2,0-4.2l-12.4-1.2c0,0-5.8,10.9-24.6,13.8
			C15.6-53.1,7.3-43.3,7.3-43.3L38-45.7z"/>
		<path fill="#FBB040" d="M61.6-84.4c-2.5-1.8-11.1-0.3-13.4,0.5c-2.1,0.7-8.2,3.1-9,3.5l0,0c0,0-15.2,8.1-19.6,11.8
			C15.1-65,4-55.3,4.3-54.2l2.9,11c0,0,26.1-14.2,30-16.3c4-2.1,16.7-8.7,16.7-8.7l-0.1-0.1c1.4-0.4,13.5-3.7,15.3,2.6
			C69.5-64.6,69.3-78.7,61.6-84.4z"/>
		<path fill="#FBB040" d="M-2.8-54.3c0,0-18-21.3-24.8-24.9l0,0c-0.1-0.1-1.9-1.8-6.9-4.1c-4.8-2.2-7.7-2.6-12.9-2.2
			c0,0-3,0.3-9.3,4.6c-6.2,4.3-2.5,17.3-2.5,17.3c0.6-5.9,0.8-5.9,2.7-9.7c1.5-3.1,5.1-3.9,5.1-3.9s4.1-1,9.3,0.5
			c5.3,1.5,7.1,2.2,7.1,2.2l0,0l26.8,19.9L-2.8-54.3z"/>
		<path fill="#F15A29" d="M2.6-41.4c0,0,5.4-0.1,4.7-2.8S5-52.7,5-52.7s-0.6-2-3.9-2.5c-3.3-0.5-3.5,0.7-3.4,2
			c0.1,1.3,0.6,9.5,0.6,9.5S-0.9-41.5,2.6-41.4z"/>
	</g>
	<path id="Ribbon_6_" fill="#F7941E" d="M-41.5-15c0,0-0.6-9,0.2-9.9c7.5-7.6,16.2-10.3,16.2-10.3l0.1,22.5L-41.5-15z"/>
	<polygon id="Ribbon_1_" fill="#BE1E2D" points="44.2,-18 27.7,-14.5 27.9,-35.1 32.2,-33.3 44.1,-26 	"/>
</g>
</svg>
