<?xml version="1.0" encoding="utf-8"?>
<!-- Generator: Adobe Illustrator 16.0.4, SVG Export Plug-In . SVG Version: 6.00 Build 0)  -->
<!DOCTYPE svg PUBLIC "-//W3C//DTD SVG 1.1//EN" "http://www.w3.org/Graphics/SVG/1.1/DTD/svg11.dtd">
<svg version="1.1" id="Layer_1" xmlns="http://www.w3.org/2000/svg" xmlns:xlink="http://www.w3.org/1999/xlink" x="0px" y="0px"
	 width="458px" height="464px" viewBox="0 0 458 464" enable-background="new 0 0 458 464" xml:space="preserve">
<g>
	<path fill-rule="evenodd" clip-rule="evenodd" fill="#DAD9DA" d="M211.2,402.5c2.7,1.5,4.9,0.2,4.9-2.9v-75.3c0-3.1-2.2-6.9-5-8.4
		L74,241.5c-2.7-1.5-5-0.2-5,3l-0.2,71.9c0,3.1,2.2,6.9,4.9,8.5L211.2,402.5z"/>
	<path fill-rule="evenodd" clip-rule="evenodd" fill="#E5E8E9" d="M222.3,402.4c-2.7,1.5-4.9,0.2-4.9-2.9v-75.3c0-3.1,2.2-6.9,5-8.4
		l204.8-112.3c2.7-1.5,5-0.2,5,3l0.2,71.9c0,3.1-2.2,6.9-4.9,8.5L222.3,402.4z"/>
	<path fill-rule="evenodd" clip-rule="evenodd" fill="#A49DAB" d="M76,235.4c-2.7,1.5-2.8,4.1-0.2,5.7l135.9,73.7
		c2.6,1.7,6.8,2.2,9.5,0.7L425.7,203c2.7-1.5,2.8-4.1,0.1-5.8L291.7,124c-2.6-1.7-7-1.8-9.8-0.3L76,235.4z"/>
	<g id="Stack_3">
		<path fill-rule="evenodd" clip-rule="evenodd" fill="#E5E8E9" d="M209.5,45.5C209.5,45.5,209.6,45.5,209.5,45.5
			c0.1-8.8,0.1-17.5,0.1-26.7c-7.2,4-14.1,5-21,1.7c-3.7-1.7-4-0.5-4,2.6c0.1,7.5,0.1,15,0.1,22.5c0.1,0,0.1,0.1,0.2,0.1l-0.2,106.9
			c8.3,4.5,16.6,5.5,24.9-0.1C209.6,152.8,209.5,76.8,209.5,45.5z"/>
		<ellipse fill-rule="evenodd" clip-rule="evenodd" fill="#FFFFFF" cx="197.1" cy="17.4" rx="12.4" ry="5.6"/>
		<path fill-rule="evenodd" clip-rule="evenodd" fill="#948A9A" d="M197,21c-3.1-0.9-8.4,0.3-8.4-3.9c0-3.7,5.3-3.2,8.3-3.3
			c3.4-0.1,8.9-0.5,8.9,3.7C205.9,21,200.4,20.4,197,21z"/>
		<path fill-rule="evenodd" clip-rule="evenodd" fill="#EAA022" d="M184.8,55.9c0,3.1,0,6.1,0,9.2c8.3,4.5,16.6,5.5,24.8-0.1
			c0-3.1,0-6.1,0-9.2C201.4,61.4,193.1,60.4,184.8,55.9z"/>
		<path fill-rule="evenodd" clip-rule="evenodd" fill="#EAA022" d="M184.8,74.8c0,3.1,0,6.1,0,9.2c8.3,4.5,16.6,5.5,24.8-0.1
			c0-3.1,0-6.1,0-9.2C201.4,80.3,193.1,79.4,184.8,74.8z"/>
		<path fill-rule="evenodd" clip-rule="evenodd" fill="#EAA022" d="M184.8,93.7c0,3.1,0,6.1,0,9.2c8.3,4.5,16.6,5.5,24.8-0.1
			c0-3.1,0-6.1,0-9.2C201.4,99.2,193.1,98.3,184.8,93.7z"/>
	</g>
	<g id="Stack_2">
		<path fill-rule="evenodd" clip-rule="evenodd" fill="#E5E8E9" d="M168.5,87.9C168.6,87.9,168.6,87.9,168.5,87.9
			c0.1-8.8,0.1-17.5,0.1-26.7c-7.2,4-14.1,5-21,1.7c-3.7-1.7-4-0.5-4,2.6c0.1,7.5,0.1,15,0.1,22.5c0.1,0,0.1,0.1,0.2,0.1L143.7,195
			c8.3,4.5,16.6,5.5,24.9-0.1C168.6,195.2,168.6,119.2,168.5,87.9z"/>
		<ellipse fill-rule="evenodd" clip-rule="evenodd" fill="#FFFFFF" cx="156.2" cy="59.8" rx="12.4" ry="5.6"/>
		<path fill-rule="evenodd" clip-rule="evenodd" fill="#948A9A" d="M156.1,63.4c-3.1-0.9-8.4,0.3-8.4-3.9c0-3.7,5.3-3.2,8.3-3.3
			c3.4-0.1,8.9-0.5,8.9,3.7C164.9,63.4,159.4,62.8,156.1,63.4z"/>
		<path fill-rule="evenodd" clip-rule="evenodd" fill="#EAA022" d="M143.9,98.3c0,3.1,0,6.1,0,9.2c8.3,4.5,16.6,5.5,24.8-0.1
			c0-3.1,0-6.1,0-9.2C160.5,103.8,152.2,102.8,143.9,98.3z"/>
		<path fill-rule="evenodd" clip-rule="evenodd" fill="#EAA022" d="M143.9,117.2c0,3.1,0,6.1,0,9.2c8.3,4.5,16.6,5.5,24.8-0.1
			c0-3.1,0-6.1,0-9.2C160.5,122.7,152.2,121.8,143.9,117.2z"/>
		<path fill-rule="evenodd" clip-rule="evenodd" fill="#EAA022" d="M143.9,136.1c0,3.1,0,6.1,0,9.2c8.3,4.5,16.6,5.5,24.8-0.1
			c0-3.1,0-6.1,0-9.2C160.5,141.6,152.2,140.7,143.9,136.1z"/>
	</g>
	<g id="Stack_1">
		<path fill-rule="evenodd" clip-rule="evenodd" fill="#E5E8E9" d="M126.2,125.3C126.2,125.3,126.2,125.3,126.2,125.3
			c0.1-8.8,0.1-17.5,0.1-26.7c-7.2,4-14.1,5-21,1.7c-3.7-1.7-4-0.5-4,2.6c0.1,7.5,0.1,15,0.1,22.5c0.1,0,0.1,0.1,0.2,0.1l-0.2,106.9
			c8.3,4.6,16.6,5.5,24.9-0.1C126.3,232.7,126.2,156.6,126.2,125.3z"/>
		<ellipse fill-rule="evenodd" clip-rule="evenodd" fill="#FFFFFF" cx="113.8" cy="97.2" rx="12.4" ry="5.6"/>
		<path fill-rule="evenodd" clip-rule="evenodd" fill="#948A9A" d="M113.7,100.8c-3.1-0.9-8.4,0.3-8.4-3.9c0-3.7,5.3-3.2,8.3-3.3
			c3.4-0.1,8.9-0.5,8.9,3.7C122.6,100.8,117.1,100.2,113.7,100.8z"/>
		<path fill-rule="evenodd" clip-rule="evenodd" fill="#EAA022" d="M101.5,135.7c0,3.1,0,6.1,0,9.2c8.3,4.5,16.6,5.5,24.8-0.1
			c0-3.1,0-6.1,0-9.2C118.1,141.2,109.8,140.3,101.5,135.7z"/>
		<path fill-rule="evenodd" clip-rule="evenodd" fill="#EAA022" d="M101.5,154.6c0,3.1,0,6.1,0,9.2c8.3,4.5,16.6,5.5,24.8-0.1
			c0-3.1,0-6.1,0-9.2C118.1,160.1,109.8,159.2,101.5,154.6z"/>
		<path fill-rule="evenodd" clip-rule="evenodd" fill="#EAA022" d="M101.5,173.6c0,3.1,0,6.1,0,9.2c8.3,4.5,16.6,5.5,24.8-0.1
			c0-3.1,0-6.1,0-9.2C118.1,179,109.8,178.1,101.5,173.6z"/>
	</g>
	<path fill-rule="evenodd" clip-rule="evenodd" fill="#DAD9DA" d="M219.1,264.7c2.7,1.5,4.9,0.2,4.9-2.9l-0.3-61.3
		c0-3.1-2.3-6.9-5-8.3l-79.9-40.3c-2.7-1.5-5-0.1-5,3l0.1,57.9c0,3.1,2.2,6.9,5,8.4L219.1,264.7z"/>
	<path fill-rule="evenodd" clip-rule="evenodd" fill="#E5E8E9" d="M230.2,264.5c-2.7,1.5-4.9,0.3-5-2.9l-0.3-61.3
		c0-3.1,2.2-6.9,4.9-8.4l98.4-51.5c2.7-1.5,5-0.2,5,2.9c0,0,0.2,7.9,0.1,10.7s-5.7,5.1-5.7,5.1l0.3,6.9l5.5,5.7l0.3,31.5
		c0,3.1-2.2,4.9-4.9,6.5L230.2,264.5z"/>
	<path fill-rule="evenodd" clip-rule="evenodd" fill="#A49DAB" d="M140.7,147.7c-2.7,1.5-2.8,4.1-0.1,5.7l78.6,39.5
		c2.7,1.6,6.8,2.2,9.5,0.6l98.1-51.7c2.7-1.5,2.8-4.2,0.1-5.8l-76.8-42c-2.6-1.6-7-1.8-9.8-0.3L140.7,147.7z"/>
	<g id="Door_Side">
		<path fill-rule="evenodd" clip-rule="evenodd" fill="#948A9A" d="M267.1,377.5c-3.6,2-9.4,5.5-13,7.5c-1.8,1-2.7,0.8-2.7-1.5
			c0-11.6,0.1-25.3,0-36.9c0-2,1-2.9,2.6-3.8c13.9-8.1,27.8-16.3,41.7-24.3c0.6-0.4,1.6-0.1,2.4-0.2c0,10.9-0.1,39.5-0.1,41.8
			C283.1,367.4,273.2,374.4,267.1,377.5z"/>
		<path fill-rule="evenodd" clip-rule="evenodd" fill="#DAD9DA" d="M298,360.1c0-10.9,0.1-30.9,0.1-41.8c0.5-1.1,1.2-2.2,2.6-1.7
			c1.5,0.6,1.5,2,1.5,3.4c0,10.4,0,27.5,0,37.9C301.7,358.9,299.8,359.7,298,360.1z"/>
	</g>
	<g id="Window">
		<path fill-rule="evenodd" clip-rule="evenodd" fill="#746975" d="M223.6,213.2c0.2,3.8-0.4,7.8,1.1,11.5c0,0,0,0,0,0
			c-0.8,0.1-1.5,0.1-2.2,0.2c-26.5-15.3-56-27.8-82.5-43.1c-1.9-1.1-2.4-2.4-2.4-4.5c0-3,0-5.9,0-8.9c24.7,14.3,52.6,26,77.4,40.2
			c2.3,1.3,4.3,3.2,7.1,3.3C222.6,212.3,223.1,212.7,223.6,213.2z"/>
		<path fill-rule="evenodd" clip-rule="evenodd" fill="#FFFFFF" d="M137.5,180.1l-3.8,2.1l89.8,48.1l109.9-58.4c0,0,1.6-1.9,0-2.8
			c-1.6-0.9-5.9-3.4-5.9-3.4s0.6,3.8-2,5.9c-2.6,2.1-97.5,51.6-98.3,52c-2.8,1.4-2.5,3.5-6.8,1.1
			C216.4,222.3,137.5,180.1,137.5,180.1z"/>
		<line fill="none" x1="137.6" y1="168.4" x2="137.6" y2="178.2"/>
		<path fill-rule="evenodd" clip-rule="evenodd" fill="#948A9A" d="M327.6,159.4c0,2.1,0,4.2,0,6.3c-0.2,3.4,0.8,5-2.7,7
			c-33.3,19.2-64.3,31.6-97.6,50.9c-0.8,0.5-1.8,0.7-2.7,1.1c-1.5-3.7-0.9-7.7-1.1-11.5c31.8-16,43.5-22.1,75.1-39
			C303.8,171.4,322,161,327.6,159.4z"/>
	</g>
	<g id="Roof_1_">
		<path fill-rule="evenodd" clip-rule="evenodd" fill="#948A9A" d="M98.1,224.2c8.6-3,17.6-3.4,26.6-3.9c3.4-0.2,5.7,3.1,8.5,4.6
			c8.6,4.6,16.9,9.6,25.3,14.5c0.7,0.4,1.1,1.2,1.6,1.8c-9,1.1-18,2.2-27,3.3C121.4,237.8,109.7,231,98.1,224.2z"/>
		<path fill-rule="evenodd" clip-rule="evenodd" fill="#DAD9DA" d="M98.1,224.2c11.7,6.8,23.4,13.6,35,20.4c0,4.2-0.4,8.3-0.5,12.6
			c-0.9,0.3-23.3-13-34.6-19.6C95.1,235.9,95.2,226.8,98.1,224.2z"/>
		<path fill-rule="evenodd" clip-rule="evenodd" fill="#E5E8E9" d="M132.6,257.1c0.2-4.3,0.2-8.4,0.5-12.6c9-1.1,18-2.2,27-3.3
			c-5.8,5.2-13,8.1-19.5,12C137.9,254.9,133.5,257.7,132.6,257.1z"/>
	</g>
	<g id="Roof">
		<path fill-rule="evenodd" clip-rule="evenodd" fill="#948A9A" d="M181.1,272.2c8.6-3,17.6-3.4,26.6-3.9c3.4-0.2,5.7,3.1,8.5,4.6
			c8.6,4.6,16.9,9.6,25.3,14.5c0.7,0.4,1.1,1.2,1.6,1.8c-9,1.1-18,2.2-27,3.3C204.4,285.8,192.8,279,181.1,272.2z"/>
		<path fill-rule="evenodd" clip-rule="evenodd" fill="#DAD9DA" d="M181.1,272.2c11.7,6.8,23.4,13.6,35,20.4c0,4.2-0.4,8.3-0.5,12.6
			c-0.9,0.3-23.3-13-34.6-19.6C178.1,283.8,178.3,274.8,181.1,272.2z"/>
		<path fill-rule="evenodd" clip-rule="evenodd" fill="#E5E8E9" d="M215.7,305.1c0.2-4.3,0.2-8.4,0.5-12.6c9-1.1,18-2.2,27-3.3
			c-5.8,5.2-13,8.1-19.5,12C220.9,302.8,216.6,305.7,215.7,305.1z"/>
	</g>
	<g id="Grate">
		<path fill-rule="evenodd" clip-rule="evenodd" fill="#948A9A" d="M379.1,216.1c-6.2,1.1-11.1,5-16.4,7.9
			c-25.3,13.8-50.5,27.9-75.7,41.9c-9.1,5.1-18.4,9.9-27.4,15.2c-2.3,1.4-3.6,0.9-5.6-0.2c-6.7-3.6-12.6-8.5-19.6-11.4
			c-0.1,1-0.1,2-0.2,3c6.6,4.1,13.2,8.2,19.8,12.4c2.5,1.6,4.7,0.7,7-0.5c14.2-7.9,28.5-15.8,42.8-23.6
			c20.8-11.3,41.3-23.4,62.4-34.2c4.4-2.3,8.6-5,12.9-7.5C379.2,218.1,379.1,217.1,379.1,216.1z"/>
		<g>
			<g>
				<path fill-rule="evenodd" clip-rule="evenodd" fill="#746975" d="M372.2,216.8c1.2,0.1,2.2-0.4,2.6-1.3c0.5-1.2-0.5-1.8-1.3-2.3
					c-4.2-2.6-8.5-5.1-12.7-7.7c-1.6-1-3.1-0.7-3.9,0.6c-1.2,1.8,0.8,2.1,1.8,2.7C363.2,211.6,367.7,214.2,372.2,216.8z"/>
			</g>
			<g>
				<path fill-rule="evenodd" clip-rule="evenodd" fill="#746975" d="M363.3,221.6c1.2,0.1,2.2-0.4,2.6-1.3c0.5-1.2-0.5-1.8-1.3-2.3
					c-4.2-2.6-8.5-5.1-12.7-7.7c-1.6-1-3.1-0.7-3.9,0.6c-1.2,1.8,0.8,2.1,1.8,2.7C354.3,216.4,358.8,219,363.3,221.6z"/>
			</g>
			<g>
				<path fill-rule="evenodd" clip-rule="evenodd" fill="#746975" d="M354.3,226.5c1.2,0.1,2.2-0.3,2.6-1.3c0.5-1.2-0.5-1.8-1.3-2.3
					c-4.2-2.6-8.5-5.1-12.7-7.7c-1.6-1-3.1-0.7-3.9,0.6c-1.2,1.8,0.8,2.1,1.8,2.7C345.3,221.2,349.9,223.9,354.3,226.5z"/>
			</g>
			<g>
				<path fill-rule="evenodd" clip-rule="evenodd" fill="#746975" d="M345.4,231.3c1.2,0.1,2.2-0.3,2.6-1.3c0.5-1.2-0.5-1.8-1.3-2.3
					c-4.2-2.6-8.5-5.1-12.7-7.7c-1.6-1-3.1-0.7-3.9,0.6c-1.2,1.8,0.8,2.1,1.8,2.7C336.4,226.1,341,228.7,345.4,231.3z"/>
			</g>
			<g>
				<path fill-rule="evenodd" clip-rule="evenodd" fill="#746975" d="M336.5,236.1c1.2,0.1,2.2-0.3,2.6-1.3c0.5-1.2-0.5-1.8-1.3-2.3
					c-4.2-2.6-8.5-5.1-12.7-7.7c-1.6-1-3.1-0.7-3.9,0.6c-1.2,1.8,0.8,2.1,1.8,2.7C327.5,230.9,332.1,233.5,336.5,236.1z"/>
			</g>
			<g>
				<path fill-rule="evenodd" clip-rule="evenodd" fill="#746975" d="M327.6,241c1.2,0.1,2.2-0.4,2.6-1.3c0.5-1.2-0.5-1.8-1.3-2.3
					c-4.2-2.6-8.5-5.1-12.7-7.7c-1.6-1-3.1-0.7-3.9,0.6c-1.2,1.8,0.8,2.1,1.8,2.7C318.6,235.7,323.1,238.4,327.6,241z"/>
			</g>
			<g>
				<path fill-rule="evenodd" clip-rule="evenodd" fill="#746975" d="M318.7,245.8c1.2,0.1,2.2-0.4,2.6-1.3c0.5-1.2-0.5-1.8-1.3-2.3
					c-4.2-2.6-8.5-5.1-12.7-7.7c-1.6-1-3.1-0.7-3.9,0.6c-1.2,1.8,0.8,2.1,1.8,2.7C309.7,240.6,314.2,243.2,318.7,245.8z"/>
			</g>
			<g>
				<path fill-rule="evenodd" clip-rule="evenodd" fill="#746975" d="M309.7,250.6c1.2,0.1,2.2-0.4,2.6-1.3c0.5-1.2-0.5-1.8-1.3-2.3
					c-4.2-2.6-8.5-5.1-12.7-7.7c-1.6-1-3.1-0.7-3.9,0.6c-1.2,1.8,0.8,2.1,1.8,2.7C300.7,245.4,305.3,248,309.7,250.6z"/>
			</g>
			<g>
				<path fill-rule="evenodd" clip-rule="evenodd" fill="#746975" d="M300.8,255.5c1.2,0.1,2.2-0.4,2.6-1.3c0.5-1.2-0.5-1.8-1.3-2.3
					c-4.2-2.6-8.5-5.1-12.7-7.7c-1.6-1-3.1-0.7-3.9,0.6c-1.2,1.8,0.8,2.1,1.8,2.7C291.8,250.3,296.4,252.9,300.8,255.5z"/>
			</g>
			<g>
				<path fill-rule="evenodd" clip-rule="evenodd" fill="#746975" d="M291.9,260.3c1.2,0.1,2.2-0.3,2.6-1.3c0.5-1.2-0.5-1.8-1.3-2.3
					c-4.2-2.6-8.5-5.1-12.7-7.7c-1.6-1-3.1-0.7-3.9,0.6c-1.2,1.8,0.8,2.1,1.8,2.7C282.9,255.1,287.5,257.7,291.9,260.3z"/>
			</g>
			<g>
				<path fill-rule="evenodd" clip-rule="evenodd" fill="#746975" d="M283,265.2c1.2,0.1,2.2-0.3,2.6-1.3c0.5-1.2-0.5-1.8-1.3-2.3
					c-4.2-2.6-8.5-5.1-12.7-7.7c-1.6-1-3.1-0.7-3.9,0.6c-1.2,1.8,0.8,2.1,1.8,2.7C274,259.9,278.5,262.6,283,265.2z"/>
			</g>
			<g>
				<path fill-rule="evenodd" clip-rule="evenodd" fill="#746975" d="M274.1,270c1.2,0.1,2.2-0.3,2.6-1.3c0.5-1.2-0.5-1.8-1.3-2.3
					c-4.2-2.6-8.5-5.1-12.7-7.7c-1.6-1-3.1-0.7-3.9,0.6c-1.2,1.8,0.8,2.1,1.8,2.7C265.1,264.8,269.6,267.4,274.1,270z"/>
			</g>
			<g>
				<path fill-rule="evenodd" clip-rule="evenodd" fill="#746975" d="M265.1,274.8c1.2,0.1,2.2-0.4,2.6-1.3c0.5-1.2-0.5-1.8-1.3-2.3
					c-4.2-2.6-8.5-5.1-12.7-7.7c-1.6-1-3.1-0.7-3.9,0.6c-1.2,1.8,0.8,2.1,1.8,2.7C256.1,269.6,260.7,272.2,265.1,274.8z"/>
			</g>
			<g>
				<path fill-rule="evenodd" clip-rule="evenodd" fill="#746975" d="M256.2,279.7c1.2,0.1,2.2-0.4,2.6-1.3c0.5-1.2-0.5-1.8-1.3-2.3
					c-4.2-2.6-8.5-5.1-12.7-7.7c-1.6-1-3.1-0.7-3.9,0.6c-1.2,1.8,0.8,2.1,1.8,2.7C247.2,274.4,251.8,277.1,256.2,279.7z"/>
			</g>
		</g>
	</g>
	<g id="Door_Front">
		<path fill-rule="evenodd" clip-rule="evenodd" fill="#948A9A" d="M152.2,369.6c3.6,2,9.4,5.5,13,7.5c1.8,1,2.7,0.8,2.7-1.5
			c0-11.6-0.1-25.3,0-36.9c0-2-1-2.9-2.6-3.8c-13.9-8.1-27.8-16.3-41.7-24.3c-0.6-0.4-1.6-0.1-2.4-0.2c0,10.9,0.1,39.5,0.1,41.8
			C136.2,359.5,146.1,366.5,152.2,369.6z"/>
	</g>
	<path fill-rule="evenodd" clip-rule="evenodd" fill="#E5E8E9" d="M121.3,352.1c0-10.9-0.1-30.9-0.1-41.8c-0.5-1.1-1.2-2.2-2.6-1.7
		c-1.5,0.6-1.5,2-1.5,3.4c0,10.4,0,27.5,0,37.9C117.5,351,119.5,351.7,121.3,352.1z"/>
	<g id="Box">
		<path fill-rule="evenodd" clip-rule="evenodd" fill="#DAD9DA" d="M78.6,408.7c0.7,0.4,1.3,0.1,1.3-0.8v-34.1
			c0-0.8-0.6-1.9-1.4-2.3l-37.3-20.3c-0.7-0.4-1.4,0-1.4,0.8l-0.1,33.2c0,0.8,0.6,1.9,1.3,2.3L78.6,408.7z"/>
		<path fill-rule="evenodd" clip-rule="evenodd" fill="#E5E8E9" d="M81.6,408.6c-0.7,0.4-1.3,0.1-1.3-0.8v-34.1
			c0-0.8,0.6-1.9,1.4-2.3l55.7-30.5c0.7-0.4,1.4,0,1.4,0.8l0.1,33.2c0,0.8-0.6,1.9-1.3,2.3L81.6,408.6z"/>
		<path fill-rule="evenodd" clip-rule="evenodd" fill="#A49DAB" d="M41.8,349.9c-0.7,0.4-0.8,1.1,0,1.6l37,20.1
			c0.7,0.5,1.9,0.6,2.6,0.2l55.6-30.6c0.7-0.4,0.8-1.1,0-1.6l-36.5-19.9c-0.7-0.5-1.9-0.5-2.7-0.1L41.8,349.9z"/>
	</g>
	<g id="Cab">
		<path fill-rule="evenodd" clip-rule="evenodd" fill="#6F8FC2" d="M74.3,412.1l-3.1-23.4l-0.2-1.6l-31-18.3l-23.5,11.4l-4.1,21.1
			l28.5,15.2c0,0,0.9,1,2.2,1.5l-0.1,0.1l-0.4,26.6l11.7-5.3V434c0,0,2-8.9,4.5-10.5s7.6-4.5,7.6-4.5s3,0,3.6,2c0.6,2,1,3.5,1,3.5
			l3.5-1.8L74.3,412.1z"/>
		<polygon fill-rule="evenodd" clip-rule="evenodd" fill="#948A9A" points="16.4,381.8 12.3,401.3 43,418.2 48.8,397.4 16.9,379.9 
					"/>
		<path fill-rule="evenodd" clip-rule="evenodd" d="M40.8,416.6c0.3-1.5,0.4-2.8,0.7-4.1c0.3-1.5,0.8-3,1.1-4.4
			c0.1-0.5,0.2-1,0.3-1.4c0.4-1.5-0.2-2.3-1.7-2.8c-0.4,0.5-0.8,0.9-1.1,1.4c-1.4,2.4-2.7,4.9-3.9,7.4c-0.2,0.4,0.3,1.1,0.6,1.9
			c-4.4-2.6-8.8-5.1-13.2-7.7c0.1-0.1,0.1-0.2,0.2-0.3c0.5,0.2,1,0.3,1.5,0.5c-0.2-1.4-0.7-2.8-0.7-4.1c0-1.6,0.5-3.2,0.7-4.7
			c0.2-1.4,0.3-2.7-0.5-4.2c-1.4-2.9-4.3-3.4-6.5-4.9c-0.8-0.5-1.9-0.7-2.8-0.8c-0.3,0-0.9,0.8-1,1.3c-0.4,1.1-0.6,2.2-0.8,3.5
			c-1.1-1.3-0.9-8,0.2-8.8c0.1,0.2,0.2,0.4,0.3,0.6c2.1-1.1,2.2-3.2,2.8-5.1c2.8,1.7,5.6,3.3,8.4,5c3.8,2.2,7.6,4.4,11.4,6.5
			c2.7,1.5,5.4,3,8,4.5c1.1,0.6,1.8,1.5,1.3,2.9c-0.2,0.6-0.1,1.3-0.2,2c0.2,0,0.4,0.1,0.6,0.1c0.2-0.8,0.4-1.5,0.6-2.3
			c0.1-0.4,0.3-0.9,0.6-1.1c0.9-0.5,1.3-0.1,1.3,0.9c0,0.3,0,0.6,0,1.4c7.3-4.2,14.4-8.3,21.5-12.4c0.7,1-0.1,1.4-0.7,1.7
			c-3.8,2.2-7.6,4.3-11.4,6.5c-3.1,1.7-6.2,3.3-9.1,5.4c-1,0.7-1.4,2.6-1.8,4c-0.5,2.2-0.6,4.5-1.1,6.7c-0.4,1.7-0.8,3.5-1.8,4.8
			C43.6,418.2,42.1,418,40.8,416.6z M42.9,412.6c-1,0.7-1.4,2.3-1,3.9C43,416.1,43.6,413.9,42.9,412.6z"/>
		<path fill-rule="evenodd" clip-rule="evenodd" d="M14.1,405.8C17.9,408,38,419.5,39,420.3c0.4,0.3,0.8,1,0.8,1.6
			c0.1,1.4,0.1,2.9,0.1,4.3c0,0.3-0.2,0.8-0.4,0.9c-0.3,0.1-0.7-0.1-1-0.3c-0.3-0.2-0.6-0.5-0.9-0.8c-0.9-0.6-1.6-0.4-2,0.6
			c-0.7,1.7-0.7,1.7-2.3,0.8c-3-1.7-6-3.5-8.9-5.2c-1.5-0.9-3.1-1.6-4.6-2.6c-0.7-0.5-1.6-1.2-1.7-1.9c-0.5-2.4-1.8-4.1-4-5.3
			c-0.6-0.3-0.9-1.3-1-2c-0.2-1-0.1-2.1-0.1-3.1C13.1,406.8,12.9,405.1,14.1,405.8z"/>
		<path fill-rule="evenodd" clip-rule="evenodd" d="M16.5,423.4c1.4,0.7,2.4,1.1,3.4,1.7c5,2.9,10.1,5.8,15.1,8.8
			c0.7,0.4,1.1,1.4,1.3,2.2c0.2,0.7,0,1.5,0.1,2.3c0,1.1-0.5,1.3-1.3,0.8c-1.5-0.8-3-1.7-4.4-2.6c-3.2-1.8-6.3-3.6-9.5-5.5
			c-1.3-0.8-2.7-1.5-4-2.3c-0.3-0.2-0.5-0.7-0.6-1C16.4,426.6,16.5,425.2,16.5,423.4z"/>
		<path fill="#99C1E7" d="M72.2,411.1c-3.3,1.7-6.5,3.5-9.7,5.3c-2.3,1.3-4.7,2.5-6.4,4.6c-1.4,1.8-2.9,3.4-3.5,5.7
			c-0.6,2.1-1.5,4.2-4,5c-1.8,0.6-3.4,1.7-5,2.7c-1.1,0.6-2.1,0.7-3.2,0c-4.5-2.6-8.9-5.3-13.4-7.9c-3.8-2.2-7.7-4.4-11.5-6.6
			c-0.6-0.3-1.2-0.7-1.6-1.2c-0.3-0.3-0.3-0.9-0.5-1.7c8.4,4.9,16.4,9.6,24.7,14.5c0.2-1,0.3-1.6,0.4-2.2c0.3,1.1-0.2,2.6,1.4,3.2
			c1.2,0.5,2.3,1.4,3.4,0.7c0-4.8,0-9.5,0-14.2c0-0.3-0.1-0.8-0.3-0.9c-4.1-2.3-8.3-4.6-12.5-7c-4.1-2.3-8.1-4.7-12.2-7
			c-1.6-0.9-3.3-1.8-4.9-2.8c-0.1,0-0.1-0.1-0.1-0.1c-0.5-0.1-1.6,0.5-1.7,1.3l0.1,17.8h-0.2v7v0.2v0.9c0.1,0.2,0.3,0.5,0.8,0.8
			c1.3,0.8,24.5,14.4,24.5,14.4l3.7,1.9c0,0,0.9,0.2,1.7-0.5c0.1-0.1,0.3-0.2,0.4-0.3v-4.4c0-0.2,0-0.4,0-0.6v0c0-0.8,0-1.6,0.1-2.3
			c0.1-0.6,1.2-1.1,2-1.5c1.6-0.9,3.2-1.9,4.9-2.6c2.4-1,3.9-2.5,4.7-5.2c0.7-2.5,1.8-5,4.1-6.6c1.9-1.4,3.9-2.7,5.9-3.9
			c3-1.8,6-3.5,9-5.3c0.3-0.2,0.3-0.8,0.5-1.2C73.1,411.2,72.6,410.9,72.2,411.1z M12.5,410.4c0.1-1.2,0-2.4,0-3.7
			c0-0.9,0.1-2.2,1.1-1.8c0.3,0.1,1.3,0.6,1.8,0.8c3.8,2.3,7.7,4.5,11.6,6.7c2.7,1.5,5.3,3.2,7.9,4.7c1.1,0.6,2.2,1.3,3.3,1.9
			c1.2,0.7,2,1.6,1.9,3c0,1.4,0,2.9-0.1,4.3c0,0.3-0.3,0.9-0.5,1c-0.4,0.1-0.8-0.1-1.2-0.3c-0.3-0.1-0.5-0.5-0.8-0.7
			c-1.1-0.7-1.4-0.5-1.8,0.7c-0.4,1.2-1,1.5-2.1,0.9c-1.2-0.6-2.4-1.3-3.5-2c-3.6-2.1-7.2-4.1-10.8-6.3c-0.7-0.5-1.5-1.3-1.7-2.2
			c-0.6-2.2-1.8-3.8-3.8-4.8C12.8,412.4,12.4,411.6,12.5,410.4z M12.8,423.8c0.4,0.5,0.9,0.8,1.5,1.4c-0.8,0-1.3,0.1-1.8,0.1
			c0.2,0.5,0.4,1,0.5,1.5c-2-1.7-0.7-4.1-1.2-6.1c0.1-0.1,0.2-0.2,0.3-0.3c0.7,0.3,1.4,0.7,2.4,1.2C12.5,421.8,12,422.8,12.8,423.8z
			 M36.5,437.5c-0.1,3-0.2,3.1-2.7,1.7c-3.6-2.1-7.2-4.3-10.8-6.4c-1.9-1.1-3.8-2.1-5.7-3.1c-0.9-0.5-1.5-1.1-1.5-2.2
			c0-1-0.1-2.1-0.1-3.1c0.1-1.3,0.6-1.6,1.7-0.9c3.8,2.2,7.7,4.3,11.5,6.5c1.8,1,3.4,2.2,5.2,3.1C36.3,434.1,36.8,435.6,36.5,437.5z
			"/>
		<path id="Window_1_" fill-rule="evenodd" clip-rule="evenodd" d="M53.7,414.3c-0.8,0.5-1.3,0.8-1.8,1.1c-1,0.8-1.4-0.3-2.1-0.9
			c0.4,0.1,0.9,0.2,1.8,0.4c-0.4-0.7-0.7-1-0.9-1.4c-0.2-0.4-0.4-0.9-0.7-1.5c-0.7,0.3-1.4,0.7-2.2,1.1c-0.1-0.4-0.2-0.7-0.2-1
			c0.5-3.3,1-6.6,1.6-9.9c0-0.3,0.2-0.7,0.4-0.8c3.5-2,7-4,10.4-5.9c0.1-0.1,0.3,0,0.6,0c0,1,0,2,0,2.9c0,1.9,0,3.9,0,5.8
			c0,1-0.2,1.6-1.2,2.1c-1.9,1-3.7,2.2-5.8,3.4C53.7,411.4,53.7,413,53.7,414.3z"/>
		<path id="Dorrhandle" fill-rule="evenodd" clip-rule="evenodd" d="M60.8,414.2c-0.8,0.5-1.5,1-2.3,1.6c-0.2-1.2,0.6-1.9,2.1-1.9
			C60.6,413.9,60.7,414.1,60.8,414.2z"/>
		<path id="Highlight" fill-rule="evenodd" clip-rule="evenodd" fill="#FFFFFF" d="M42.9,412.6c0.7,1.3,0.1,3.5-1,3.9
			C41.5,414.9,42,413.3,42.9,412.6z"/>
	</g>
	<g id="Wheels">
		<path fill-rule="evenodd" clip-rule="evenodd" fill="#FFFFFF" d="M110.2,402.8c0.1-3.3,3.1-7,6.3-7.7c1.9-0.4,3.6,1.5,3,3.5
			c-0.8,3-2.3,5.4-5.2,6.8C111.7,406.7,110.1,405.7,110.2,402.8z"/>
		<path fill-rule="evenodd" clip-rule="evenodd" fill="#FFFFFF" d="M139.5,386.3c-0.7,3.5-2.2,6-5,7.5c-2.2,1.2-3.1,1.1-4.1-0.2
			c-1-1.2-0.8-2.7-0.2-4c1-2.2,2.2-4.2,4.6-5.3c1.1-0.5,2.1-1.2,3.1-0.3C138.7,384.6,139,385.6,139.5,386.3z"/>
		<path fill-rule="evenodd" clip-rule="evenodd" fill="#FFFFFF" d="M58.4,432.7c0-3.7,3.4-7,6.5-7.9c1.5-0.4,3.2,1.4,2.9,3.1
			c-0.6,3.1-2.1,5.7-4.9,7.3c-0.2,0.1-0.3,0.2-0.5,0.2C59.9,436.5,58.3,435.4,58.4,432.7z"/>
		<path fill-rule="evenodd" clip-rule="evenodd" d="M116.6,399.7c0.4-0.2,1.1-0.5,1.1-0.7c0-1.1-0.1-2.3-0.2-3.3
			c0.7,0.1,1.4,1.4,1.1,2.6c-0.8,2.7-1.9,5.2-4.7,6.4c-0.9,0.4-1.7,1-2.8,0.3c-1.1-0.7-1.1-1.7-0.9-2.9c0.5,1.2,0.3,2.8,2.1,2.6
			c1.3-0.1,2.6-1.8,2.3-3c-0.4,0.3-0.7,0.6-1.2,1.1c0-1.5,1.2-1.8,1.8-2.6c0.5,0.4,1,0.7,1.5,1.1
			C116.7,400.7,116.7,400.2,116.6,399.7L116.6,399.7z"/>
		<path fill-rule="evenodd" clip-rule="evenodd" d="M60.7,432.9c0.8-0.9,1.6-1.7,2.5-2.6c1.4,1.4,1.9,1.3,2.6-0.4
			c0.1-0.4,0.3-0.8,0.4-1.2c0.6-2.1-0.4-3.2-2.5-2.9c0-0.1,0-0.2,0-0.3c0.6-0.1,1.5-0.4,1.8-0.2c0.6,0.6,1.4,1.4,1.4,2.2
			c0.2,3.2-2.8,7-6,7.7c-1.1,0.2-2.1-0.5-2.3-1.6c-0.1-0.6,0-1.2,0.2-1.7c0,0.3,0,0.6,0.1,0.9c0.2,1.6,1.1,2.1,2.6,1.4
			c0.5-0.3,1.1-0.5,1.5-0.9c0.3-0.2,0.4-0.6,0.5-1c0-0.1-0.4-0.6-0.5-0.5c-0.3,0.2-0.5,0.5-0.8,0.7c-0.3,0.3-0.7,0.6-1,0.8
			C60.9,433.2,60.8,433,60.7,432.9z"/>
		<path fill-rule="evenodd" clip-rule="evenodd" d="M134.9,389.4c0-0.2,0-0.5,0.1-0.7c0.3-0.4,0.6-0.8,0.9-1.1
			c0.2,0.4,0.5,0.8,0.7,1.2c0.1,0.1,0.1,0.3,0.2,0.7c0.4-0.5,0.7-0.9,0.9-1.3c0.1,0.1,0.3,0.2,0.4,0.2c-0.5,0.9-0.9,2-1.6,2.6
			c-1.2,1.1-2.5,1.9-3.9,2.8c-0.3,0.2-1-0.2-1.5-0.4l0,0c1.1-0.4,2.2-0.7,3.2-1.3c0.3-0.2,0.3-1.1,0.4-1.7c-0.2-0.1-0.4-0.1-0.5-0.2
			c-0.3,0.6-0.5,1.1-0.8,1.7C132.5,391,133.2,389.8,134.9,389.4c0.2,0.6,0.4,1.2,0.6,1.7c0.1,0,0.2,0,0.4,0c0.1-0.9,0.2-1.8,0.3-2.6
			c-0.1,0-0.2-0.1-0.3-0.1C135.4,388.7,135.1,389.1,134.9,389.4z"/>
		<path fill-rule="evenodd" clip-rule="evenodd" d="M116.7,399.7c-0.8-0.4-1.6-0.8-2.6-1.2c-0.2,0.2-0.6,0.7-0.9,1.2
			c-0.1-0.1-0.2-0.2-0.3-0.2c0.4-1.4,2-2.5,3.1-2.2C117.4,397.7,116.9,398.8,116.7,399.7L116.7,399.7z"/>
		<path fill-rule="evenodd" clip-rule="evenodd" d="M62.1,427.8c0.9-0.3,1.2-0.5,1.8-0.7c0,0.6,0,1,0,1.6c0.5-0.3,0.8-0.5,1.3-0.8
			c0,0.7,0,1.3,0,1.9c-0.1,0.1-0.2,0.2-0.3,0.3C64,429.4,63.2,428.7,62.1,427.8z"/>
		<path fill-rule="evenodd" clip-rule="evenodd" d="M136.6,386.5c-1,0.1-1.7,0.2-2.6,0.3c0,0.3,0,0.6,0,0.9
			c-0.6,0.2-1.1,0.4-1.6,0.6C132.6,386.4,134.8,385.4,136.6,386.5z"/>
		<path fill-rule="evenodd" clip-rule="evenodd" d="M131.1,393.4c-0.4-0.6-1.2-1.1-1.2-1.7c0-1.1,0.4-2.3,0.6-3.4
			c0.2,0,0.3,0.1,0.5,0.1c-0.1,0.3-0.1,0.5-0.2,0.8C129.8,390.7,130.6,392.1,131.1,393.4L131.1,393.4z"/>
		<path fill-rule="evenodd" clip-rule="evenodd" d="M136.8,384.2c1.4,0,2,1.3,1.4,3C137.7,386.3,137.3,385.3,136.8,384.2z"/>
		<path fill-rule="evenodd" clip-rule="evenodd" d="M112.7,397c0.9-0.6,1.8-1.2,2.8-1.8c0.1,0.1,0.2,0.2,0.2,0.4
			c-0.9,0.5-1.9,1.1-2.8,1.6C112.8,397.2,112.8,397.1,112.7,397z"/>
		<path fill-rule="evenodd" clip-rule="evenodd" d="M134.9,389.4c0.3-0.3,0.6-0.6,0.9-1c0.1,0,0.2,0.1,0.3,0.1
			c-0.1,0.9-0.2,1.8-0.3,2.6c-0.1,0-0.2,0-0.4,0C135.2,390.5,135.1,390,134.9,389.4L134.9,389.4z"/>
		<path fill-rule="evenodd" clip-rule="evenodd" d="M106.1,407.2c0.3,2.3-0.2,2.4-3.3,1.5c-0.1,1.9-1.1,2.9-3.1,3.4
			c-0.1-1-0.2-2-0.2-2.9c0-1.4,0.2-2.8,0.2-4.2c0-1.6-0.6-2.3-2.1-2.7c0.6-1.3,1.4-1.6,2.4-0.6c0.8,0.7,1.4,1.5,2.2,2.3
			c0.1-0.1,0.2-0.2,0.3-0.3c-0.9-0.9-1.8-1.9-2.8-3c0.4-0.3,0.6-0.6,0.9-0.8c4-2.3,8-4.5,12-6.8c4-2.3,7.9-4.6,11.9-6.9
			c4-2.3,8-4.5,12-6.8c2.2-1.3,4.5-2.5,6.7-3.8c1.4-0.7,3.1,0.2,3.1,1.8c0.1,1.6,0,3.2-0.1,4.8c0,0.4-0.3,1.1-0.6,1.2
			c-0.9,0.4-1,1-1,1.8c0,2-0.6,2.4-2.5,1.8c-0.9,1.7-1.6,3.5-2.6,5c-1.9,2.7-4.3,4.9-7.7,5.6c-2,0.4-3.7-0.5-5.4-1.7
			c-0.7,2.1-2,3-3.9,2.7c-1.5,2.3-2.8,4.7-4.5,6.8c-1.5,1.9-3.6,3.4-6.2,3.6c-1.2,0.1-2.4-0.4-3.6-0.8
			C107.6,408.1,107,407.6,106.1,407.2z M110.2,402.8c-0.1,2.9,1.6,3.9,4.2,2.7c2.9-1.4,4.4-3.9,5.2-6.8c0.6-2-1.2-3.9-3-3.5
			C113.3,395.7,110.2,399.4,110.2,402.8z M139.5,386.3c-0.4-0.7-0.8-1.7-1.5-2.3c-1-0.8-2.1-0.2-3.1,0.3c-2.4,1.1-3.6,3.1-4.6,5.3
			c-0.6,1.3-0.8,2.7,0.2,4c1,1.3,1.9,1.4,4.1,0.2C137.3,392.3,138.8,389.8,139.5,386.3z"/>
		<path fill-rule="evenodd" clip-rule="evenodd" d="M72.9,409.6c1.2,0.6,2.3,1.3,3.4,1.9c0.7,0.4,1.4,0.9,2.2,1.2
			c1.6,0.6,2.7,1.9,2.8,3.7c0.1,1.7,0.1,3.3,0,5c-0.1,1.8-2,3.4-3.8,3.1c-1-0.2-2-0.7-2.8-1.2c-0.4-0.2-0.5-1-0.5-1.6
			c0-2.9,0-5.8,0.1-8.7c0-1.2,0-1.2-1.6-3.1C72.8,409.8,72.8,409.7,72.9,409.6z"/>
		<path fill-rule="evenodd" clip-rule="evenodd" d="M71.2,425.9c-0.3,3-1.7,5.5-3.4,7.7c-1.3,1.7-3.1,3.1-4.8,4.4
			c-2.2,1.7-4.2,1.2-6.7,0.2c-2.7-1.1-2.7-2.7-2-4.9c0.9-2.7,1.8-5.4,3-7.9c0.5-1,1.6-1.9,2.6-2.5c2.1-1.3,4.4-2.5,6.6-3.7
			c1.4-0.8,2.8,0,3.6,2C70.6,422.6,70.8,424.3,71.2,425.9z M58.4,432.7c-0.1,2.6,1.5,3.8,4,2.7c0.2-0.1,0.3-0.1,0.5-0.2
			c2.8-1.6,4.4-4.1,4.9-7.3c0.3-1.7-1.4-3.5-2.9-3.1C61.7,425.7,58.4,429,58.4,432.7z"/>
		<path fill-rule="evenodd" clip-rule="evenodd" d="M82.6,422c-0.4-1.8-0.4-3.6-0.2-5.5c0.3-1.9-0.1-3.5-2.3-4.5
			c0.8-0.5,1.3-0.9,1.9-1.2c4.1-2.4,8.2-4.8,12.4-7.2c2.1-1.2,3.2-0.9,3.6,1.5c0.5,2.4,0.3,5,0.3,7.5c0,0.4-0.4,0.8-0.7,1
			c-4.8,2.8-9.6,5.5-14.5,8.2C83.1,422,82.9,422,82.6,422z"/>
	</g>
</g>
</svg>
