<?xml version="1.0" encoding="utf-8"?>
<!-- Generator: Adobe Illustrator 16.0.4, SVG Export Plug-In . SVG Version: 6.00 Build 0)  -->
<!DOCTYPE svg PUBLIC "-//W3C//DTD SVG 1.1//EN" "http://www.w3.org/Graphics/SVG/1.1/DTD/svg11.dtd">
<svg version="1.1" xmlns="http://www.w3.org/2000/svg" xmlns:xlink="http://www.w3.org/1999/xlink" x="0px" y="0px"
	 width="841.89px" height="595.28px" viewBox="0 0 841.89 595.28" enable-background="new 0 0 841.89 595.28" xml:space="preserve">
<g id="Back">
</g>
<g id="Joyback">
	<path d="M297.393,61.1c-0.141-7.971-0.052-2.086-0.015-0.337c-0.979-44.831-38.886-79.276-74.913-97.766
		c-23.779-12.203-48.514-22.542-72.908-33.432c-21.661-9.669-16.977-28.159-32.992-44.155
		c-10.653-10.641-37.107-14.302-44.368-25.238c-0.355-0.535-0.666-1.146-0.956-1.789c-23.074-2.604-52.044-0.712-68.167,2.163
		c-4.72,3.825-13.517,6.296-17.431,8.286c-9.486,4.825-20.446,9.491-28.004,17.261c-6.836,7.027-8.065,18.35-15.572,24.337
		c-22.102,17.626-44.294,35.137-66.455,52.688c-19.686,15.593-39.258,31.33-58.988,46.869
		c-16.809,13.238-35.709,5.197-54.483,15.724c-40.047,22.452-56.191,51.249-55.803,95.417c0.193,22.165-15.044,25.428-2.217,49.31
		c11.745,21.867,19.305,42.341,40.895,55.599c46.311,28.438,92.976,56.079,140.262,82.87c37.56,21.277,84.905,63.168,130.485,51.137
		c43.705-11.537,79.526-63.869,110.026-94.751c35.723-36.172,70.858-72.924,107.42-108.26
		c15.786-15.256,29.674-30.491,39.803-50.185c6.432-12.506,24.301-31.789,24.375-45.66C297.391,61.229,297.393,61.211,297.393,61.1z
		"/>
</g>
<g id="Gray2">
	<path fill-rule="evenodd" clip-rule="evenodd" fill="#393E43" d="M301.021,62.481c-0.604,0.534-1.208,1.069-2.27,2.008
		c0-4.808,0-9.236,0-13.666c-2.314,3.374-4.403,2.862-6.854,0.344c2.784-5.132-0.911-9.243-2.548-13.709
		c-2.046-5.581-4.429-11.039-6.418-16.639c-0.428-1.203,0.209-2.785,1.169-4.394c5.608,13.133,14.83,24.516,16.921,39.056
		C301.021,57.814,301.021,60.148,301.021,62.481z"/>
	<path fill-rule="evenodd" clip-rule="evenodd" fill="#393E43" d="M289.151,83.348c-7.823,13.335-15.341,26.863-23.641,39.894
		c-2.75,4.316-7.581,7.281-11.34,10.985c-7.536,7.428-15.063,14.867-22.431,22.461c-2.167,2.232-3.589,5.178-5.7,7.477
		c-2.652,2.891-5.233,6.494-8.627,7.893c-4.335,1.785-6.793,4.717-8.656,8.408c-3.255,6.447-7.811,11.359-14.417,14.459
		c-1.512,0.709-2.77,2.322-3.726,3.791c-4.55,6.998-9.229,13.795-17.297,17.289c-0.813,0.354-1.255,1.506-1.94,2.219
		c-6.413,6.666-12.89,13.271-19.241,19.994c-2.726,2.885-5.021,6.186-7.834,8.973c-3.989,3.951-8.389,7.488-12.399,11.42
		c-3.416,3.346-6.447,7.082-9.804,10.492c-2.993,3.041-6.254,5.814-9.295,8.811c-4.087,4.025-8.02,8.209-12.122,12.221
		c-5.565,5.441-10.594,11.773-17.026,15.892c-6.478,4.146-9.375,11.002-14.936,15.588c-3.635,2.998-7.479,5.766-10.917,8.969
		c-3.912,3.646-7.357,7.793-11.244,11.469c-1.977,1.871-4.478,3.188-6.742,4.754c-0.393-0.404-0.786-0.809-1.179-1.211
		c0.758-2.221,1.317-4.533,2.315-6.639c2.096-4.422,1.504-6.289-2.949-8.297c-0.351-5.234,1.692-7.947,7.283-7.033
		c0.539,0.088,1.222-0.393,1.771-0.723c14.886-8.914,27.394-20.549,38.988-33.365c8.689-9.604,18.022-18.623,26.939-28.027
		c1.774-1.869,3.022-4.26,4.403-6.477c2.21-3.553,4.344-6.262,8.812-8.291c5.084-2.311,8.533-8.307,12.566-12.814
		c3.709-4.145,7.091-8.592,10.92-12.619c2.618-2.754,5.976-4.801,8.618-7.535c7.698-7.965,15.061-16.258,22.818-24.16
		c11.619-11.838,23.547-23.373,35.19-35.188c12.669-12.854,25.041-26.001,37.774-38.79c9.819-9.862,19.988-19.376,30.026-29.019
		c1.387-1.332,2.919-2.512,4.384-3.763C288.716,83.02,288.934,83.184,289.151,83.348z M40.827,325.719
		c2.533,4.639,2.92,4.654,6.042,0.336C44.726,325.936,43.009,325.84,40.827,325.719z"/>
	<path fill-rule="evenodd" clip-rule="evenodd" fill="#393E43" d="M94.38,165.594c2.373,2.025,4.323,2.773,4.682-1.406
		c0.302-3.529,2.289-4.754,5.697-4.764c1.997-0.006,3.992-0.791,6.602-1.359c-1.091-1.85-1.707-2.891-2.785-4.717
		c5.414,1.992,4.668-8.643,11.05-3.242c0.765-4.594,1.393-8.367,1.929-11.587c1.588,0,3.452,0,5.768,0
		c-4.812,4.546-3.16,10.276-2.601,16.056c0.188,1.938-1.66,4.129-2.738,6.117c-0.972,1.793-2.163,3.467-3.257,5.193
		c0.36,0.242,0.72,0.484,1.08,0.727c1.004-1.287,2.008-2.574,3.492-4.475c0.36,2.697,0.63,4.713,0.887,6.635
		c-4.463,2.521-9.011,5.092-13.938,7.873c0.121,0.215,0.633,1.127,1.478,2.633c-3.395,0.176-6.5,0.338-9.606,0.5
		c-0.414,0.764-0.828,1.527-1.242,2.289c1.46,0.686,2.92,1.369,4.369,2.047c-1.457,4.027-2.61,7.553-7.937,6.865
		c-1.313-0.17-2.902,1.801-4.87,3.127c-1.435-4.322-2.843-8.562-4.251-12.803c-0.361,0.115-0.722,0.229-1.083,0.344
		c0.573,4.158,1.4,8.301,1.665,12.479c0.54,8.51-1.571,16.391-5.562,23.992c-11.469,21.836-30.382,32.676-53.76,37.107
		c-4.068,0.771-8.201,1.213-12.312,1.738c-0.418,0.055-0.896-0.363-2.473-1.062c5.604-0.965,10.22-1.596,14.761-2.572
		c15.771-3.389,29.976-10.051,40.335-22.646c3.066-3.729,3.378-9.74,4.871-14.73c0.459-1.535,0.439-3.23,0.996-4.719
		c2.799-7.477,4.056-14.994,2.104-22.965c-0.856-3.5-0.499-7.279-1.172-10.842c-0.877-4.639,2.976-6.031,5.133-5.033
		c5.12,2.367,6.805-1.365,9.453-3.746C92.248,167.655,93.306,166.612,94.38,165.594z"/>
	<path fill-rule="evenodd" clip-rule="evenodd" fill="#393E43" d="M-285.883,176.897c0,0-0.193-0.016-0.196-0.018
		c4.565,7.824,12.537,11.582,19.68,16.26c7.053,4.619,14.422,8.758,21.478,13.375c0.95,0.621,1.582,3.068,1.149,4.211
		c-1.353,3.576-3.286,6.932-5.203,10.795c-4.934-2.117-10.825-4.475-16.543-7.195c-1.829-0.871-3.753-2.402-4.693-4.141
		c-5.292-9.791-10.333-19.719-15.344-29.658C-286.062,179.516-285.792,178.116-285.883,176.897z"/>
	<path fill-rule="evenodd" clip-rule="evenodd" fill="#393E43" d="M49.827,207.534c2.508-1.49,5.016-2.98,7.901-4.697
		c1.207,5.246-1.762,8.084-4.916,10.34c-9.871,7.061-21.471,9.699-33.12,11.744c-2.529,0.443-5.488-1.566-8.249-2.445
		c0.031-0.465,0.062-0.93,0.092-1.395c4.968-0.84,10.229-0.916,14.838-2.689c8.069-3.104,15.737-7.248,23.573-10.955L49.827,207.534
		z"/>
	<path fill-rule="evenodd" clip-rule="evenodd" fill="#393E43" d="M49.946,207.436c-1.709,0.486-3.419,0.975-5.128,1.461
		c18.945-14.104,25.657-31.549,15.102-55.273c2.257,1.844,4.064,2.824,5.192,4.318c9.351,12.389,5.454,34.846-8.478,43.064
		c-2.634,1.555-4.553,4.32-6.804,6.527C49.827,207.534,49.946,207.436,49.946,207.436z"/>
	<path fill-rule="evenodd" clip-rule="evenodd" fill="#393E43" d="M-196.577,130.257c14.877-5.975,28.957-11.629,43.036-17.284
		C-166.025,122.577-179.802,128.984-196.577,130.257z"/>
	<path fill-rule="evenodd" clip-rule="evenodd" fill="#393E43" d="M-163.29,212.079c2.615-6.508,5.647-8.82,9.1-6.943
		c2.546,1.385,4.873,2.844,2.388,6.492C-154.693,215.87-157.019,216.17-163.29,212.079z"/>
	<path fill-rule="evenodd" clip-rule="evenodd" fill="#393E43" d="M62.549,227.733c-13.148,11.51-28.352,17.916-45.972,18.33
		C33.245,243.288,48.333,236.594,62.549,227.733z"/>
	<path fill-rule="evenodd" clip-rule="evenodd" fill="#393E43" d="M-68.608,238.506c0.615,3.953,1.23,7.906,1.92,12.338
		c1.185-0.619,1.93-1.01,3.816-1.994c-2.844,4.812-5.151,8.717-8.097,13.701c-0.849-3.369-1.576-6.254-2.454-9.738
		c1.851,0.301,2.856,0.463,3.964,0.645c0-5.146,0-10,0-14.852C-69.175,238.573-68.891,238.54-68.608,238.506z"/>
	<path fill-rule="evenodd" clip-rule="evenodd" fill="#393E43" d="M-140.608,222.68c-1.276,2.234-2.553,4.469-3.773,6.604
		c-5.762-4.25-5.771-8.129,1.274-14.609c1.39,2.682,2.708,5.227,4.027,7.771C-139.588,222.524-140.098,222.602-140.608,222.68z"/>
	<path fill-rule="evenodd" clip-rule="evenodd" fill="#393E43" d="M37.17,227.825c7.005-4.145,14.01-8.289,21.016-12.434
		C52.146,221.213,46.408,227.526,37.17,227.825z"/>
	<path fill-rule="evenodd" clip-rule="evenodd" fill="#393E43" d="M139.154,142.971c-3.816,0.611-6.401,1.234-9.004,1.314
		c-0.781,0.023-1.608-1.467-2.415-2.266c1.171-0.895,2.342-1.788,3.727-2.847c-0.563-0.822-1.608-2.348-2.652-3.873
		c0.237-0.212,0.475-0.424,0.712-0.636C132.507,137.239,135.492,139.814,139.154,142.971z"/>
	<path fill-rule="evenodd" clip-rule="evenodd" fill="#393E43" d="M-221.785,238.04c-2.008-0.42-4.253-0.43-5.94-1.406
		c-1.098-0.637-1.383-2.678-1.071-4.604c2.485,1.336,4.971,2.672,7.456,4.01C-221.488,236.706-221.637,237.374-221.785,238.04z"/>
	<path fill-rule="evenodd" clip-rule="evenodd" fill="#393E43" d="M41.169,99.371c3.7,2.131,7.4,4.262,11.888,6.846
		c-5.709,1.097-11.703-2.975-11.789-6.93C41.271,99.284,41.169,99.371,41.169,99.371z"/>
	<path fill-rule="evenodd" clip-rule="evenodd" fill="#393E43" d="M-65.134,188.973c2.074,2.775,4.054,5.426,6.017,8.051
		C-63.539,198.276-65.641,195.604-65.134,188.973z"/>
	<path fill-rule="evenodd" clip-rule="evenodd" fill="#393E43" d="M-71.993,236.227c-0.271,3.68-0.541,7.361-0.811,11.041
		c-0.205,0.004-0.41,0.006-0.615,0.01c0-3.689,0-7.377,0-11.066C-72.944,236.217-72.469,236.223-71.993,236.227z"/>
	<path fill-rule="evenodd" clip-rule="evenodd" fill="#393E43" d="M40.827,325.719c2.182,0.121,3.899,0.217,6.042,0.336
		C43.747,330.373,43.359,330.357,40.827,325.719z"/>
	<path fill-rule="evenodd" clip-rule="evenodd" fill="#393E43" d="M35.944,285.79c0-3.217-0.201-6.455,0.138-9.637
		c0.087-0.818,1.871-1.459,2.875-2.18c0.631,0.887,1.868,1.834,1.787,2.65c-0.317,3.195-1.051,6.352-1.63,9.521
		C38.057,286.026,37,285.909,35.944,285.79z"/>
	<path fill-rule="evenodd" clip-rule="evenodd" fill="#393E43" d="M50.269,278.932c-1.56,2.469-2.987,4.727-4.413,6.982
		c-0.617-2.656-1.702-5.32-1.667-7.969c0.02-1.463,1.914-2.9,2.963-4.352C48.062,275.153,48.972,276.711,50.269,278.932z"/>
	<path fill-rule="evenodd" clip-rule="evenodd" fill="#393E43" d="M55.214,267.805c2.734,5.279,2.418,9.641-0.509,14.027
		C51.236,278.606,51.314,275.836,55.214,267.805z"/>
	<path fill-rule="evenodd" clip-rule="evenodd" fill="#393E43" d="M69.178,269.336c1.297,4.48,1.319,8.842-1.22,12.963
		c-0.694-0.049-1.388-0.098-2.083-0.148c0.288-4.32,0.576-8.641,0.864-12.961C67.552,269.239,68.365,269.288,69.178,269.336z"/>
	<path fill-rule="evenodd" clip-rule="evenodd" fill="#393E43" d="M50.047,252.405c3.937,3.43,4.029,8.877,0.004,13.402
		c-2.501-4.637-0.655-9.07,0.102-13.496C50.155,252.307,50.047,252.405,50.047,252.405z"/>
	<path fill-rule="evenodd" clip-rule="evenodd" fill="#393E43" d="M60.241,272.081c0.285-4.021,0.569-8.041,0.854-12.062
		c0.979,0.061,1.959,0.121,2.938,0.182c-0.261,4.014-0.521,8.025-0.782,12.037C62.248,272.184,61.245,272.133,60.241,272.081z"/>
	<path fill-rule="evenodd" clip-rule="evenodd" fill="#393E43" d="M66.927,257.911c0.273-3.658,0.547-7.314,0.82-10.971
		c0.856,0.061,1.713,0.123,2.57,0.184c-0.259,3.658-0.518,7.316-0.776,10.975C68.669,258.036,67.798,257.973,66.927,257.911z"/>
	<path fill-rule="evenodd" clip-rule="evenodd" fill="#393E43" d="M72.064,262.477c0.309-3.402,0.617-6.803,0.925-10.205
		c0.709,0.049,1.418,0.098,2.127,0.146c-0.166,3.451-0.331,6.902-0.497,10.354C73.768,262.674,72.917,262.575,72.064,262.477z"/>
	<path fill-rule="evenodd" clip-rule="evenodd" fill="#393E43" d="M77.771,263.571c0.178-3.701,0.355-7.402,0.533-11.104
		c0.568,0.027,1.137,0.055,1.705,0.082c-0.186,3.717-0.372,7.432-0.557,11.148C78.891,263.655,78.331,263.614,77.771,263.571z"/>
	<path fill-rule="evenodd" clip-rule="evenodd" fill="#393E43" d="M77.307-14.335c0,3.284,0,6.568,0,9.852
		c-0.582-0.034-1.164-0.068-1.746-0.103c0.276-3.354,0.552-6.709,0.829-10.063C76.695-14.545,77.001-14.44,77.307-14.335z"/>
	<path fill-rule="evenodd" clip-rule="evenodd" fill="#393E43" d="M72.252-11.286c0-3.447,0-6.896,0-10.343
		c0.35-0.002,0.7-0.004,1.05-0.006c0,3.445,0,6.891,0,10.336C72.952-11.294,72.602-11.29,72.252-11.286z"/>
	<path fill="#393E43" d="M90.043-136.648c1.768,0.817,3.49,1.472,5.173,2.012c-1.729-0.684-3.471-1.349-5.205-2.025
		C90.022-136.656,90.033-136.652,90.043-136.648z"/>
	<path fill="#393E43" d="M129.503-104.281c-1.603-1.834-2.016-4.761-3.707-6.452c-6.408-6.407-12.571-13.28-19.888-18.485
		c-3.219-2.291-6.908-3.92-10.691-5.418c-1.684-0.54-3.406-1.194-5.173-2.012c-0.01-0.004-0.021-0.008-0.031-0.014
		c-0.939-0.433-1.943-0.835-2.995-1.213c-6.743-2.428-15.684-3.758-25.407-4.325c-0.011-0.001-0.02-0.003-0.03-0.005
		c-11.152-1.326-29.985,0.152-43.612,1.646c-0.015-0.065-0.021-0.125-0.037-0.19c-5.576,0.613-10.646,1.337-14.889,2.092
		c-0.003,0-0.006,0.001-0.009,0.002c-0.033,0.005-0.063,0.012-0.096,0.018c-5.176,0.925-9.105,1.896-11.151,2.771
		c-15.167,6.543-29.365,13.488-35.859,26.088c-4.456,19.84-0.843,33.886,9.345,46.162c-3.782-2.882-7.564-5.763-11.347-8.645
		c-0.412,0.474-0.823,0.947-1.235,1.422c3.156,13.091,14.25,19.034,24.022,26.155c4.621-3.831,8.874-5.485,14.612-2.943
		c6.145,2.722,12.749,4.468,19.251,6.286c2.139,0.599,4.586,0.095,6.893,0.095c-8.062-5.778-8.062-5.778-7.776-9.71
		C4.509-53.92-0.582-56.833-5.672-59.744c0.216-0.369,0.433-0.738,0.649-1.107c4.154,1.58,8.309,3.161,12.463,4.742
		c-0.919-1.971-2.194-3.081-3.676-3.669c-5.275-2.092-7.458-6.521-7.068-11.485c0.468-5.962-3.529-4.439-6.427-4.802
		c-3.802-0.477-4.653,1.823-3.633,5.477c-11.933-9.221-15.303-23.05-10.326-31.071c0.948,0.466,2.407,0.853,3.75,1.367
		c0.041-8.979,7.417-17.062,19.191-22.749c1.597-0.438,3.43-1.067,5.564-1.956c20.477-8.521,57.298-4.42,68.844-1.377
		c15.371,5.203,25.879,13.921,27.238,23.945c0.199-0.549,0.395-1.08,0.59-1.567c1.594,2.272,3.282,4.731,5.029,7.149
		c0.976,1.351,2.87,2.586,2.945,3.951c0.547,9.941-3.856,17.68-11.577,23.604c-1.354,1.039-3.31,1.296-4.988,1.913
		c-0.394-2.303-1.353-4.691-1.021-6.886c0.334-2.21,1.95-4.227,3.004-6.327c-1.879-0.181-3.08,0.113-3.726,0.877
		C83.876-71.1,73.684-68.129,63.501-64.87c-6.582,2.107-12.876,5.114-19.299,7.719c0.204,0.896,0.407,1.793,0.611,2.689
		c14.389,4.138,28.288-0.528,42.636-3.31c-5.787,5.066-12.367,9.16-17.902,14.363c-3.63,3.412-6.771,6.579-12.03,6.763
		c-2.638,0.093-5.26,0.614-7.889,0.942c-0.034,0.527-0.068,1.056-0.102,1.584c4.303,0.869,8.84,3.065,12.866,2.357
		c11.587-2.037,23.034-5.003,34.401-8.101c5.527-1.507,10.246-4.846,13.25-9.982c1.39-2.376,1.789-5.686,3.702-7.342
		c10.581-9.161,16.72-20.321,18.189-34.38C132.434-96.345,132.902-100.391,129.503-104.281z"/>
	<path fill="#393E43" d="M109.977-41.167c-7.341,3.038-14.537,6.448-22.038,8.941c-0.043,0.015-0.085,0.03-0.128,0.044
		c-3.904,0.67-8.967,1.919-15.559,3.965c-2.35,0.729-4.261,1.444-5.806,2.127c-0.011-0.006-0.021-0.012-0.032-0.019
		c-0.011,0.016-0.023,0.031-0.035,0.047c-6.933,3.077-6.308,5.454-3.763,5.14l0,0c-0.891,1.217,7.493,17.068,9.223,18.002
		c0,0,0,0,0.001,0c0.325,0.285,0.742,0.525,1.27,0.711c5.072,2.852,18.091,9.58,30.265-4.34c0.378-0.41,0.746-0.849,1.103-1.314
		c0.008-0.01,0.016-0.018,0.024-0.027c4.643-5.834,6.052-10.218,5.895-13.469C111.992-28.23,112.08-35.676,109.977-41.167z"/>
	<path fill-rule="evenodd" clip-rule="evenodd" fill="#393E43" d="M275.328-3.846c-31.17-45.062-97.562-48.568-138.981-79.302
		c-1.388,6.509-2.775,13.018-4.162,19.527c7.761-7.238,0.301,25.52,4.795,32.506c8.864,13.775,5.333,30.762-4.274,43.226
		c-17.17,22.276-57.468,22.765-82.743,32.666c2.284,6.544,81.212-15.917,81.001-10.741c-1.656,40.292-37.776,54.986-61.956,77.057
		c-6.318,5.768,9.396,7.047,10.454,6.891c9.537-1.402,18.355-14.854,22.128-22.498c15.462-1.515,38.875-31.826,49.452-42.209
		c26.1-25.619,64.321-52.461,82.155-84.346c5.749,16.023,5.645,37.89-2.709,53.253c-3.895,7.163-24.941,20.288-19.43,28.854
		c-10.922-3.343-14.055,10.995-23.624,17.501c-21.216,23.273-43.748,45.266-65.708,67.824
		c-18.173,18.668-34.421,31.053-28.493,57.025c0.483,2.117,48.513-42.922,51.222-45.723c5.485-5.67,49.948-54.393,53.121-50.967
		c0-14.891,31.177-29.271,39.145-40.982C237.022,55.893,284.91,10,275.328-3.846C263.229-21.338,277.184-1.165,275.328-3.846z"/>
	<path fill-rule="evenodd" clip-rule="evenodd" fill="#393E43" d="M-68.228,218.411c1.302,0.377,2.605,0.754,3.907,1.131
		c-3.224-10.182-9.99-16.189-8.826-27.961c1.003-10.145,3.983-22.639,8.893-31.57c7.758-14.113,24.041-24.203,36.863-33.037
		c-2.781,0.523-16.975-6.957-16.68-7.732c-3.5,1.133-6.889-7.764-10.924-10.279c-4.861-3.028-11.415,0.648-14.262-4.253
		c-3.353-5.771-8.768-4.592-12.894-9.146c-6.14-6.778-1.432-7.079-13.28-6.745c0.604-0.891,1.208-1.781,1.812-2.671
		c-10.83,4.438-7.011-7.758-13.972-7.438c-6.75,0.31-14.845-7.001-20.591-10.171c-0.255,2.959-0.51,5.918-0.765,8.877
		c-7.452-3.082-6.383,8.779-7.687,12.965c-2.351,7.549-8.859,11.994-11.605,18.708c1.589-0.344,3.177-0.688,4.766-1.032
		c-7.667,23.941-32.246,27.384-53.088,29.237c0.438,2.067,5.782,3.487,7.566,4.31c-0.118-3.428,1.277-5.234,4.867-3.577
		c-8.172,9.618,23.863,13.542,18.768,20.884c5.071,2.164,9.615,4.584,14.637,6.078c5.388,1.604,7.708,8.709,14.009,8.141
		c6.359-0.574,41.39,20.527,40.286,23.113c3.727-2.119,7.684,0.559,12.439-0.832c-0.345,19.658,17.104,45.08,37.587,48.344
		C-55.972,237.194-67.077,231.307-68.228,218.411C-66.736,218.842-67.022,231.915-68.228,218.411z"/>
	<path fill-rule="evenodd" clip-rule="evenodd" fill="#393E43" d="M79.365,270.717L79.365,270.717
		c3.774-11.564,6.652-33.221,5.88-47.107c-1.726,1.209-2.971,2.602-3.878,4.121c0,0.002-0.001,0.002-0.001,0.002
		c-3.55,3.301-11.726,17.26-53.763,32.154l0,0c-0.089-0.314-0.178-0.625-0.265-0.934c-0.463,0.352-0.927,0.703-1.391,1.053
		c0.011,0.158-0.074,29.527-0.074,29.527l0,0c0.012,1.49,1.113,3.266,1.591,2.527c1.28,1.232,14.79,2.505,18.617,1.599
		c0,0,0.001,0,0.001,0c1.605,0.01,3.497-0.592,5.435-1.33c12.755-3.258,20.598-6.607,25.524-16.08
		c0.795-1.357,1.575-3.242,2.32-5.527C79.363,270.721,79.364,270.719,79.365,270.717z"/>
	<g>
		<path fill="#393E43" d="M-285.883,176.897c-0.015-0.026-0.031-0.053-0.046-0.08c-0.053,0.021-0.095,0.043-0.15,0.062
			C-286.076,176.881-285.883,176.897-285.883,176.897z"/>
		<path fill="#393E43" d="M41.042,99.302c0.042,0.022,0.084,0.046,0.127,0.068l0.103-0.087
			C41.194,99.293,41.119,99.294,41.042,99.302z"/>
		<path fill="#393E43" d="M-25.636,64.838c-1.265-0.66-1.722-2.867-2.554-4.354c-1.03-2.196-3.705-3.946-3.892-5.932
			c-0.741-7.824-6.745-13.027-9.039-20.621c1.412,0.388,2.769,0.678,4.068,1.134c5.355,1.879,9.995,7.783,16.582,2.843
			c0.423-0.317,1.556,0.336,2.365,0.504c1.873,0.388,3.75,0.756,5.626,1.131c-1.147-1.914-2.554-3.042-4.144-3.77
			c-5.168-2.361-10.076-4.944-13.072-10.146c-1.295-2.248-2.959-3.792-6.143-2.841c-1.102,0.329-2.719-1.07-4.131-1.777
			c0.012,0.011,0.024,0.021,0.036,0.032c-0.003-0.001-0.201-0.118-0.201-0.118c0.054,0.025,0.11,0.059,0.165,0.086
			c-4.473-4.128-9.643-7.729-13.274-12.501c-8.972-11.792-12.249-25.005-6.968-39.479c0.607-1.665,1.706-4.41,2.701-4.466
			c6.018-0.339,4.364-4.531,4.517-7.925c0.206-4.567,0.488-9.132,0.721-13.377c3.471,1.417,6.349,2.593,9.227,3.768
			c0.579-0.461,1.158-0.923,1.737-1.385c-8.862-12.227-12.442-25.599-8.901-41.007c-1.648,0.934-2.113,1.119-2.487,1.419
			c-44.458,35.552-88.922,71.097-133.333,106.707c-3.037,2.436-5.961,3.528-10.02,2.965c-8.979-1.246-17.908-0.589-26.606,2.347
			c-17.08,5.766-30.511,16.741-42.643,29.608c-1.24,4.618-3.339,9.203-3.512,13.86c-0.235,6.354,0.997,12.763,1.524,18.347
			c-6.167-4.384-8.546-11.994-5.331-19.811c1.193-2.9,2.48-5.764,3.725-8.644c-9.638,7.709-16.163,17.584-20.275,29.137l0.118-0.1
			c-0.669,1.955-1.882,3.903-1.91,5.867c-0.139,9.624,0.099,19.253,0.063,28.88c-0.01,2.793,0.372,6.08-0.903,8.287
			c-4.35,7.534-4.481,15.779-5.152,23.981c-0.251,3.078-1.375,6.676-0.221,9.166c3.228,6.963,7.425,13.476,11.246,20.162
			c4.038-1.553,2.258-3.9,0.908-6.453c-1.912-3.617,1.166-10.363,2.44-11.986c3.205,3.49,6.048,6.586,8.866,9.654
			c1.293-1.41,2.083-2.271,2.873-3.133c1.396,2.801,2.791,5.602,4.252,8.535c1.359-2.123,2.467-3.754,0.874-7.314
			c-1.958-4.375-1.748-9.721-2.475-14.646c-0.355,0.018-0.71,0.035-1.065,0.053c-0.207,1.285-0.414,2.568-0.659,4.09
			c-3.688-3.33-3.902-7.523-0.897-11.477c2.863-3.769,3.696-8.12,2.457-12.477c-0.599,1.193-1.249,2.487-1.899,3.781
			c-0.611-0.138-1.221-0.275-1.832-0.414c0.224-2.938,0.448-5.877,0.672-8.816c2.899,0.615,5.808,1.191,8.69,1.876
			c0.612,0.146,1.09,0.792,1.699,1.028c4.063,1.578,8.145,3.108,12.221,4.654c-5.023-4.331-10.798-7.17-15.851-10.969
			c-5.195-3.907-9.042-9.142-10.09-15.959c6.985,3.914,10.988,11.895,19.591,13.764c-5.73-6.017-11.963-11.122-16.356-17.496
			c-7.454-10.813-7.957-15.23-5.389-21.853c2.195,10.06,11.344,10.528,17.222,13.5c1.556,3.152,2.757,5.586,3.912,7.926
			c4.607-3.156,8.748-4.074,13.28-3.234c9.136,1.694,18.261,3.444,27.405,5.089c1.081,0.195,2.254-0.124,3.385-0.205
			c-1.016-1.091-2.043-1.571-3.083-1.842c-3.3-0.299-6.51-0.787-9.601-1.456c-2.43-0.359-4.846-0.771-7.217-1.362
			c-12.633-3.15-22.812-9.915-29.345-21.482c-2.062-3.651-2.785-8.425-2.239-12.992c0-0.002,0-0.003,0-0.004
			c0-20.792,25.04-37.646,55.928-37.646c23.833,0,44.17,10.038,52.224,24.173c0.042-0.962,0.084-1.925,0.127-2.887
			c1.604,0.619,2.088,1.262,2.36,1.983c2.563,6.82,2.598,14.014,0.429,20.652c-4.384,17.574-26.846,31.011-54.078,31.354
			c-0.356,0.075-0.713,0.15-1.071,0.221c0.084,0.368,0.169,0.737,0.254,1.106c2.632,0,5.264,0,7.919,0
			c0.695,4.492,3.352,6.194,7.381,4.889c9.132-2.959,18.249-6.002,27.209-9.436c3.315-1.27,6.007-3.843,6.082-9.177
			c-4.434,2.286-8.112,4.183-11.791,6.08c3.688-3.681,7.895-6.497,12.074-9.352c14.108-9.638,22.501-31.473,3.803-47.002
			c-0.769-0.639-1.841-1.142-2.231-1.964c-1.451-3.056-3.47-6.138-3.798-9.359c-0.483-4.743,0.013-9.651,0.622-14.421
			c0.673-5.271,1.945-10.467,2.957-15.695c0.953,0.147,1.907,0.294,2.86,0.44c-0.244,3.019-0.488,6.038-0.775,9.598
			c2.18,0.67,5.91,0.763,8.024,2.658c7.194,6.448,17.505,5.923,24.929,12.308c4.793,4.123,11.883,5.5,17.79,8.42
			c10.315,5.1,20.44,10.586,30.776,15.642c13.296,6.505,26.722,12.743,40.091,19.098c7.324,3.481,14.678,6.902,21.952,10.486
			c2.338,1.151,4.346,2.994,6.708,4.078c8.525,3.913,17.159,7.589,25.708,11.45c6.36,2.873,12.22,7.24,19.757,6.409
			c-4.64-2.465-9.25-4.985-13.925-7.381C9.525,82.908-8.115,73.987-25.636,64.838z"/>
	</g>
</g>
<g id="Gray1">
	<path fill-rule="evenodd" clip-rule="evenodd" fill="#847E83" d="M247.947,16.136c-10.115-4.101-11.813-12.555-11.825-22.16
		c-0.007-5.961-0.274-12.008-1.35-17.846c-0.622-3.375-3.082-6.411-5.495-9.384c1.947,8.147-5.294,10.617-8.757,14.904
		c-3.344,4.139-7.926,7.301-12.094,10.735c-1.078,0.889-2.641,1.189-4.111,1.816c0.246,0.798,0.521,1.693,0.547,1.775
		c-2.363,2.139-4.337,3.949-6.337,5.729c-6.526,5.808-13.107,11.556-19.563,17.44c-1.527,1.392-2.421,3.503-4,4.808
		c-4.535,3.747-9.338,7.168-13.898,10.884c-2.143,1.745-3.896,3.959-5.962,5.808c-2.502,2.237-4.722,2.062-5.325-1.568
		c-0.454-2.728-1.447-4.203-4.352-4.34c-0.663-0.031-1.381-1.119-1.885-1.85c-0.856-1.242-1.563-2.587-1.673-3.896
		c-0.453-2.419-0.479-5.062-1.572-7.145c-0.424-0.807-3.285-0.563-4.999-0.403c-2.181,0.204-4.323,0.809-6.482,1.241
		c-0.16-0.457-0.32-0.913-0.48-1.37c1.996-0.731,3.993-1.464,6.545-2.399c0.54-0.896,1.479-2.452,2.033-3.37
		c0.465-2.239,0.714-3.926,1.174-5.553c0.976-3.454,2.779-6.84,2.96-10.321c0.461-8.861,2.147-17.832-0.887-26.603
		c-0.321-0.931-0.175-2.146-0.727-2.856c-6.621-8.529-3.894-18.447-4.236-27.896c-0.113-3.153-0.018-6.314-0.018-9.989
		c-0.948,1.257-1.724,2.285-2.942,3.901c1.105-6.215,2.095-11.775,2.887-16.229c1.191,1.072,2.703,3.211,4.763,4.166
		c22.767,10.545,45.395,21.44,68.523,31.134c16.231,6.803,31.536,14.918,45.655,25.312c3.836,2.824,7.279,6.184,11.066,9.438
		c-0.553,4.363-1.155,9.117-1.976,15.593c-4.284,2.881-9.943,6.688-15.602,10.492C247.554,16.133,247.947,16.136,247.947,16.136z"/>
	<path fill-rule="evenodd" clip-rule="evenodd" fill="#847E83" d="M-114.306,95.202c1.13,2.435,2.124,4.577,3.155,6.801
		c-2.102,0,0.5,3.587,3.465,4.71c-1.39,5.228,5.667,8.714,6.621,4.103c0.396-0.139,0.791-0.277,1.188-0.416
		c1.268,2.128,10.217,3.631,9.135,2.082c0.291-0.321,0.582-0.643,0.873-0.964c3.21,2.688,6.42,5.375,9.414,7.882
		c1.835-2.826,3.705-5.706,5.575-8.586c0.362,0.253,0.724,0.506,1.085,0.759c-3.162,6.543-3.162,6.543,3.525,9.882
		c-0.727,2.496-1.451,4.996-2.193,7.56c-4.427,0.719-4.945,1.832-2.743,6.174c3.293-3.182,6.133-3.423,7.795-0.277
		c0.464,0.877-0.675,3.774-1.481,3.956c-4.971,1.117-4.492,4.833-2.572,4.495c0.556,1.579,1.298,3.688,2.136,6.07
		c-2.61,1.186-3.167,4.396-2.798,3.768c2.156,1.205,4.019,2.246,6.354,3.552c0.199-1.006,0.175-1.791,0.509-2.368
		c0.629-1.085,1.365-2.161,2.285-2.985c0.227-0.202,1.975,0.73,1.938,0.892c-0.271,1.185-0.77,2.327-1.288,3.44
		c-2.57,5.515-5.772,10.824-7.603,16.571c-2.205,6.926-3.275,14.215-4.781,21.358c-0.273,1.294-0.408,2.647-0.383,3.968
		c0.156,8.271,3.965,15.906,3.464,24.545c-0.229,3.945,4.623,8.288,7.451,12.25c0.873,1.223,2.673,1.784,4.048,2.648
		c-0.611,0.657-1.224,1.314-1.836,1.973c-3.379-3.141-7.113-5.982-10.065-9.483c-6.763-8.02-11.333-17.138-12.708-27.743
		c-1.195-9.207-1.424-9.256-10.222-9.555c-2.411-8.613-10.522-9.498-17.369-12.641c0.324-0.778,0.651-1.566,1.235-2.969
		c-2.276,0.123-4.215,0.084-6.105,0.362c-3.42,0.503-5.65-0.167-6.371-4.146c-0.809-4.471-2.396-4.868-5.806-2.629
		c-2.587-1.097-4.714-2.265-6.987-2.91c-6.153-1.748-7.266-3.652-5.479-9.631c0.429-1.434-2.625,0.456-4.118,4.242
		c-2.762-1.731-5.199-3.1-7.448-4.727c-1.628-1.179-3.218-4.046-4.463-3.852c-7.505,1.174-3.899-5.014-5.874-7.727
		c3.771,1.006,7.193,1.918,10.615,2.831c0.341-0.562,0.682-1.123,1.022-1.685c-1.362-1.45-2.724-2.901-5.005-5.332
		c1.119-1.35,2.752-3.278,4.33-5.25c0.439-0.551,0.889-1.19,1.043-1.857c1.466-6.284,8.287-9.469,5.823-10.269
		c2.292-1.99,4.046-3.512,6.054-5.254c-1.438-1.334,0.104-6.25-4.039-4.479c0-2.619-1.102-6.227,0.2-8.378
		c4.391-7.254,7.028-14.959,8.667-23.174c0.115-0.575,3.43-1.411,4.063-0.828c2.761,2.538,6.788,5.332,7.196,8.447
		c0.796,6.087,3.74,6.161,8.151,5.211C-115.021,95.49-114.438,95.245-114.306,95.202z"/>
	<path fill-rule="evenodd" clip-rule="evenodd" fill="#847E83" d="M11.22-39.309c-19.963-4.246-38.432-11.346-50.942-28.795
		c-9.789-13.653-9.419-28.98-0.221-42.899c6.034-9.131,14.399-14.814,24.194-18.979c7.342-3.122,14.594-6.46,21.821-9.843
		c1.354-0.633,2.4-1.928,3.477-2.824c1.515,4.928,1.7,10.271-1.459,15.047c-1.041,1.575-3.516,3.273-5.222,3.162
		c-11.318-0.73-15.812,6.949-20.066,15.299c-0.822,1.611-0.188,5.844-4.451,3.502c-0.128-0.07-1.215,1.393-1.707,2.229
		c-6.685,11.355-4.359,24.818,6.473,34.169c5.23,4.517,11.215,8.161,16.512,12.945c-4.373-2.242-8.746-4.483-13.945-7.149
		c2.122,4.49,3.086,8.211,7.378,10.544c6.593,3.584,12.646,8.162,18.929,12.318C11.733-40.16,11.476-39.735,11.22-39.309z"/>
	<path fill-rule="evenodd" clip-rule="evenodd" fill="#847E83" d="M-268.147,125.686c-26.198-15.618-28.57-48.149-4.664-69.041
		c-2.049,8.313-4.922,17.161-6.211,26.234c-0.807,5.682,0.814,11.699,1.246,17.573c0.13,1.777-0.285,3.604-0.079,5.364
		c0.297,2.529,0.39,5.311,1.544,7.464C-274.133,117.348-271.261,121.044-268.147,125.686z"/>
	<path fill-rule="evenodd" clip-rule="evenodd" fill="#847E83" d="M239.027,139.092c-0.754-4.163,1.713-5.753,5.157-6.938
		c1.506-0.518,3.66-1.794,3.862-3.004c0.986-5.887,5.01-9.312,9.004-13.081c5.532-5.222,10.521-11.016,15.937-16.368
		c3.824-3.779,7.969-7.234,12.68-10.478c-6.804,11.457-13.325,23.099-20.621,34.233c-1.69,2.58-6.042,3.396-9.135,5.088
		c-1.33,0.727-3.212,1.317-3.749,2.477c-2.844,6.132-5.065,7.7-12.019,7.638C239.774,138.803,239.4,138.948,239.027,139.092z"/>
	<path fill-rule="evenodd" clip-rule="evenodd" fill="#847E83" d="M108.812-50.104c-6.399,13.197-46.217,25.209-55.967,17.294
		C72.853-35.001,91.199-41.384,108.812-50.104z"/>
	<path fill-rule="evenodd" clip-rule="evenodd" fill="#847E83" d="M-47.508,149.408c-8.473,10.055-15.111,20.769-10.651,34.688
		c3.976,12.407,11.931,21.644,23.45,27.776c0.557,0.296,1.109,0.601,2.098,1.136c-11.135-0.838-26.142-15.24-29.949-28.269
		C-66.6,170.924-61.09,156.027-48,146.304c0.151,1.278,0.269,2.269,0.386,3.258L-47.508,149.408z"/>
	<path fill-rule="evenodd" clip-rule="evenodd" fill="#847E83" d="M54.135,46.533c19.41-6.328,38.821-12.655,58.231-18.983
		c0.17,0.537,0.339,1.073,0.509,1.61C95.107,40.638,75.687,46.938,54.135,46.533z"/>
	<path fill-rule="evenodd" clip-rule="evenodd" fill="#847E83" d="M-164.016,91.158c14.83-14.003,16.161-30.033,7.092-47.808
		c11.104,7.77,13.848,19.525,8.32,31.246C-151.985,81.763-157.469,86.858-164.016,91.158z"/>
	<path fill-rule="evenodd" clip-rule="evenodd" fill="#847E83" d="M59.626-52.429c1.877-3.247,3.494-6.048,5.097-8.822
		c1.017,1.419,2.132,2.975,3.831,5.348c0.148-6.301,6.257-10.9,11.123-9.729c3.082,0.742,6.218,1.264,9.301,1.878
		C87.636-59.503,73.542-53.774,59.626-52.429z"/>
	<path fill-rule="evenodd" clip-rule="evenodd" fill="#847E83" d="M-286.049,139.877c1.021-0.586,1.949-1.117,2.876-1.649
		c0.35,0.334,0.699,0.668,1.049,1.002c-1.93,2.297-3.86,4.594-6.219,7.401c-3.924-5.599-4.962-11.452-4.95-17.352
		c0.018-8.919,0.676-17.836,1.018-26.756c0.089-2.306,0.014-4.617,0.014-6.927c0.427-0.013,0.854-0.025,1.28-0.038
		c0.351,8.522,0.548,17.057,1.157,25.562c0.162,2.27,1.926,4.387,2.354,6.686C-286.757,131.642-286.529,135.568-286.049,139.877z"/>
	<path fill-rule="evenodd" clip-rule="evenodd" fill="#847E83" d="M55.847,207.147c-2.109,9.604-10.861,13.687-38.889,19.089
		c2.638-6.115,8.553-3.021,12.266-5.141c4.279-2.444,9.12-3.888,13.518-6.15C46.945,212.782,50.894,210.124,55.847,207.147z"/>
	<path fill-rule="evenodd" clip-rule="evenodd" fill="#847E83" d="M-160.457,95.042c-3.532,8.617-31.426,19.459-36.475,14.299
		C-184.844,104.602-172.645,99.82-160.457,95.042z"/>
	<path fill-rule="evenodd" clip-rule="evenodd" fill="#847E83" d="M-272.215,194.648c-5.96,8.461,4.053,13.334,3.781,20.306
		c-0.465,0.222-0.928,0.443-1.393,0.665c-5.505-10.56-11.01-21.12-17.152-32.905C-281.266,187.333-276.777,190.96-272.215,194.648z"
		/>
	<path fill-rule="evenodd" clip-rule="evenodd" fill="#847E83" d="M-158.213,116.839c-10.324,8.225-22.074,12.848-35.15,14.143
		c5.908-2.014,11.914-3.781,17.694-6.11C-169.736,122.48-164.024,119.54-158.213,116.839z"/>
	<path fill-rule="evenodd" clip-rule="evenodd" fill="#847E83" d="M247.947,16.136c0,0-0.393-0.003-0.395-0.001
		c1.674,0.809,3.349,1.614,5.022,2.421c0.001,0.466,0.002,0.933,0.003,1.398c-2.938,0.948-5.878,1.896-8.817,2.845
		c-0.351-0.398-0.701-0.798-1.052-1.197C244.455,19.78,246.201,17.958,247.947,16.136z"/>
	<path fill-rule="evenodd" clip-rule="evenodd" fill="#847E83" d="M239.027,139.092c0.373-0.145,0.747-0.289,1.116-0.433
		c0.828,1.358,1.66,2.715,2.493,4.07c-1.409,0.356-2.817,0.716-4.228,1.068c-1.6,0.4-3.202,0.794-4.803,1.19
		c-0.294-0.344-0.587-0.688-0.88-1.032C234.826,142.334,236.926,140.713,239.027,139.092z"/>
	<path fill-rule="evenodd" clip-rule="evenodd" fill="#847E83" d="M49.909,238.99c-7.74,2.952-15.479,5.904-23.22,8.856
		c-0.135-0.349-0.269-0.697-0.402-1.046c7.649-3.015,15.299-6.028,22.947-9.042C49.458,238.168,49.684,238.58,49.909,238.99z"/>
	<path fill-rule="evenodd" clip-rule="evenodd" fill="#847E83" d="M64.006,243.26c-7.693,3.761-15.386,7.521-23.079,11.283
		c-0.193-0.395-0.387-0.788-0.58-1.183c7.652-3.721,15.305-7.441,22.957-11.162C63.539,242.552,63.773,242.906,64.006,243.26z"/>
	<g>
		<path fill-rule="evenodd" clip-rule="evenodd" fill="#847E83" d="M-256.933,89.04c-8.575-9.114-12.825-22.599-4.499-33.341
			c2.208-2.848,4.621-5.537,6.841-8.182c0.013,0.098,0.054,0.299,0.098,0.537c0.392-4.351,1.971-8.477,4.519-12.228
			c-5.17,4.133-10.064,8.625-13.721,13.847c-12.506,17.862-6.312,33.58,9.627,45.875c4.29,3.31,9.896,4.913,14.898,7.3
			c0.221-0.489,0.441-0.979,0.662-1.469c-3.205-1.686-6.574-3.123-9.57-5.123C-251.235,94.148-254.342,91.793-256.933,89.04z"/>
		<path fill-rule="evenodd" clip-rule="evenodd" fill="#847E83" d="M-23.329,36.4c-9.043-6.436-18.704-12.188-26.928-19.544
			c-14.637-13.094-18.703-34.899-9.111-50.991c4.09-6.86,4.559-13.539,4.979-20.729c0.095-1.608,0.015-3.228,0.015-5.975
			c1.706,2.682,2.765,4.344,4.353,6.839c-1.27-13.27-2.427-25.375-3.568-37.316c-20.896,16.552-42.168,33.618-63.709,50.341
			c-6.82,5.296-12.146,12.101-20.152,16.38c-8.175,4.37-13.732,12.646-21.922,17.877c-8.736,5.582-15.887,13.698-23.523,20.927
			c-1.991,1.885-4.125,3.321-6.452,4.079c10.135,2.477,18.733,7.192,24.556,13.292c1.146-1.854,2.466-3.346,2.667-4.973
			c0.507-4.108,0.19-8.312,0.501-12.454c0.461-6.128,1.419-12.131,8.107-17.392c-2.244,7.183,1.164,11.129,5.531,13.528
			c13.488,7.41,27.247,14.334,40.975,21.301c5.924,3.006,12.053,5.602,18.043,8.477c13.062,6.27,26.091,12.604,39.141,18.896
			c2.049,0.988,4.136,1.899,6.205,2.846c0.318-0.398,0.637-0.798,0.956-1.196c-1.94-3.064-4.358-5.831-5.891-9.176
			c-1.345-2.936-2.024-5.072-0.708-7.454c1.98-3.581,1.238-6.312-1.441-8.71c1.187-1.301,2.237-2.452,3.139-3.439
			c5.932,2.718,11.787,5.4,17.614,8.069c3.448-6.021,7.314,1.427,11.005-0.911C-20.499,38.083-21.993,37.351-23.329,36.4z"/>
	</g>
	<path fill-rule="evenodd" clip-rule="evenodd" fill="#847E83" d="M125.185-102.758c-1.271-3.03-1.67-6.679-3.624-9.115
		c-3.265-4.07-7.402-7.46-11.296-10.999c-1.57-1.428-3.322-2.82-5.238-3.674c-9.103-4.052-18.238-8.041-27.477-11.767
		c-0.931-0.375-1.663-0.777-2.248-1.246l-0.826,13.06c0.032,0.248,0.064,0.488,0.098,0.742c3.889-1.443,7.844,3.042,11.726-0.588
		c0.181-0.17,2.202,1.16,2.93,2.121c4.664,6.162,8.904,12.668,13.856,18.58c7.936,9.476,7.1,23.641,1.723,30.715
		c-4.225,5.56-9.444,10.364-13.739,14.984c1.345-0.624,3.565-1.656,6.521-3.029c-0.655,4.506-0.283,7.52-4.974,9.433
		c-6.937,2.83-13.21,7.282-19.766,11.044c0.102,0.521,0.203,1.042,0.304,1.563c1.564,0,3.312,0.461,4.665-0.074
		c9.17-3.63,18.709-6.674,27.211-11.519c5.744-3.272,9.516-9.849,15.026-13.731c6.492-4.575,7.032-11.378,8.778-17.825
		C130.656-90.806,127.699-96.769,125.185-102.758z"/>
</g>
<g id="Gray3">
	<path fill-rule="evenodd" clip-rule="evenodd" fill="#BCBEC0" d="M-174.092,26.888c-10.394-3.623-20.34-8.083-31.966-7.891
		c-9.511,0.158-17.852,2.897-26.215,6.466c-11.816,5.041-19.475,16.768-18.596,12.183c-0.053,0.039-1.113,0.461-1.638,1.241
		c-4.043,6.026-8.537,11.839-11.809,18.269c-3.783,7.437-2.324,15.123,1.354,22.459c3.852,7.683,9.998,13.092,16.929,17.854
		c-6.854-2.237-12.271-6.565-16.537-12.182c-9.911-13.049-8.949-28.192,2.329-40.253c11.502-12.301,24.188-23.143,41.341-26.031
		c9.03-1.521,18.422-0.933,27.654-1.189c2.405-0.066,4.568,5.745,7.011,0.037c0.838,0.946,4.765-2.563,5.597,1.326
		c0.421,1.967,3.175,3.507,5.038,5.042c0.499,0.412,1.598,0.096,2.422,0.114c-1.015,0.896-2.029,1.791-3.044,2.687L-174.092,26.888z
		"/>
	<path fill-rule="evenodd" clip-rule="evenodd" fill="#BCBEC0" d="M-270.654,121.664c-23.083-12.866-23.044-49.56-2.511-65.278
		c-1.24,5.53-2.764,12.343-4.297,19.153c-0.251,1.117-0.706,2.214-0.787,3.341c-0.374,5.208-0.909,10.425-0.865,15.635
		c0.029,3.386,2.804,6.396,0.383,10.341c-0.898,1.464,1.001,4.967,2.148,7.28C-275.13,115.065-273.142,117.729-270.654,121.664z"/>
	<path fill-rule="evenodd" clip-rule="evenodd" fill="#BCBEC0" d="M-69.763,168.824c-1.649,13.916-9.133,26.978-1.931,41.776
		c-1.583-0.765-2.284-1.104-3.723-1.799c0.229,2.065,0.41,3.695,0.642,5.785c-1.09-0.549-1.992-1.003-3.18-1.601
		c3.774,6.446,7.416,12.665,11.057,18.884c-6.672-4.841-11.031-11.49-13.95-18.972c-1.732-4.438-2.678-9.245-3.466-13.972
		c-0.704-4.229,0.464-7.928,4.885-9.932c0.69-0.312,1.183-1.506,1.383-2.38C-76.597,180.269-75.544,173.77-69.763,168.824z"/>
	<path fill-rule="evenodd" clip-rule="evenodd" fill="#BCBEC0" d="M-48.366,201.36c-5.954-1.845-13.066-12.46-14.305-20.567
		c-2.179-14.255,3.175-26.956,15.452-34.66c-1.336,2.327-2.336,4.945-4.063,6.934c-10.333,11.896-10.521,24.671-3.531,38.067
		C-53.035,194.543-50.713,197.671-48.366,201.36z"/>
	<path fill-rule="evenodd" clip-rule="evenodd" fill="#BCBEC0" d="M-138.723,103.033c-1.423,0.221-2.304,0.356-3.346,0.518
		c0.155-0.604,0.233-1.076,0.395-1.518c2.104-5.724,4.111-11.486,6.404-17.133c0.635-1.562,2.131-2.775,3.232-4.147
		c1.173,1.801,3.592,3.854,3.29,5.358c-0.98,4.874-2.506,9.769-4.686,14.232c-1.965,4.024-5.067,7.492-7.668,11.206
		c-0.474-0.268-0.948-0.535-1.422-0.802C-141.372,108.41-140.22,106.072-138.723,103.033z"/>
	<path fill-rule="evenodd" clip-rule="evenodd" fill="#BCBEC0" d="M59.361-32.721c12.943-3.949,24.507-7.478,36.262-11.063
		c1.095,3.289-0.224,4.953-3.716,5.701c-9.579,2.05-19.11,4.317-28.686,6.386C62.378-31.515,61.356-32.164,59.361-32.721z"/>
	<path fill-rule="evenodd" clip-rule="evenodd" fill="#BCBEC0" d="M-154.031,77.629c5.892-11.48,3.811-22.541-1.999-33.91
		C-143.258,50.049-146.115,70.109-154.031,77.629z"/>
	<path fill-rule="evenodd" clip-rule="evenodd" fill="#BCBEC0" d="M239.912-1.007c-1.114-2.661-2.229-5.322-3.483-8.318
		c2.037-0.235,3.171-0.366,4.248-0.491c-1.21-1.951-2.227-3.591-3.243-5.23c2.521-0.786,5.041-1.571,7.687-2.396
		c0.309,2.455,0.507,4.029,0.864,6.865c1.506-2.119,2.247-3.163,3.359-4.729C251.28-7.117,241.826-6.993,239.912-1.007z"/>
	<path fill-rule="evenodd" clip-rule="evenodd" fill="#BCBEC0" d="M-163.053,96.442c-4.486,6.176-22.915,12.954-31.967,11.786
		C-184.722,104.431-174.423,100.634-163.053,96.442z"/>
	<path fill-rule="evenodd" clip-rule="evenodd" fill="#BCBEC0" d="M-290.999,96.082c0.801,15.461,1.603,30.922,2.412,46.524
		c-2.775-3.891-3.893-8.551-3.966-13.389c-0.167-11.037-0.052-22.078-0.052-33.118C-292.07,96.093-291.535,96.087-290.999,96.082z"
		/>
	<path fill-rule="evenodd" clip-rule="evenodd" fill="#BCBEC0" d="M283.81,91.262c-5.598,9.694-11.195,19.389-16.793,29.083
		c-0.466-0.24-0.932-0.481-1.397-0.723c0.941-5.141,9.198-8.353,4.227-14.933c4.625-4.633,9.141-9.157,13.656-13.681
		C283.605,91.093,283.708,91.178,283.81,91.262z"/>
	<path fill-rule="evenodd" clip-rule="evenodd" fill="#BCBEC0" d="M91.548,35.197c-0.495,1.144-0.729,3.032-1.525,3.311
		c-6.037,2.109-12.161,3.988-18.33,5.678c-0.7,0.191-1.843-1.236-3.522-2.448c8.523-2.34,15.975-4.386,23.427-6.431L91.548,35.197z"
		/>
	<path fill-rule="evenodd" clip-rule="evenodd" fill="#BCBEC0" d="M-269.994,213.504c-5.217-10.059-10.434-20.116-15.65-30.174
		c6.873,9.168,13.373,18.536,16.896,29.506C-269.164,213.059-269.579,213.282-269.994,213.504z"/>
	<path fill-rule="evenodd" clip-rule="evenodd" fill="#BCBEC0" d="M254.224,124.374c3.005-3.146,6.009-6.293,10.006-10.479
		c-0.208,3.39,0.601,6.887-0.739,8.215c-2.102,2.083-5.654,2.702-8.592,3.941C254.674,125.493,254.449,124.933,254.224,124.374z"/>
	<path fill-rule="evenodd" clip-rule="evenodd" fill="#BCBEC0" d="M91.598,35.306c2.638-1.354,4.71-4.241,8.481-2.49
		c0.671,0.312,2.369-1.885,3.735-2.675c1.03-0.595,2.289-0.794,3.446-1.169c0.26,0.669,0.52,1.338,0.78,2.008
		c-4.206,1.942-8.348,4.051-12.667,5.698c-0.946,0.36-2.519-0.919-3.814-1.462C91.548,35.197,91.598,35.306,91.598,35.306z"/>
	<path fill-rule="evenodd" clip-rule="evenodd" fill="#BCBEC0" d="M27.454,222.805c5.8-4.198,10.396-7.568,16.847-5.854
		c-2.4,1.214-4.71,2.679-7.224,3.571C34.426,221.463,31.582,221.858,27.454,222.805z"/>
	<path fill-rule="evenodd" clip-rule="evenodd" fill="#BCBEC0" d="M230.546-35.728c4.722,2.925,9.443,5.851,14.165,8.776
		c-0.137,0.293-0.273,0.585-0.41,0.878c-1.927-0.735-3.854-1.47-6.135-2.341c-0.452,1.063-0.938,2.204-1.208,2.84
		c-2.13-3.015-4.423-6.262-6.717-9.508C230.343-35.298,230.445-35.513,230.546-35.728z"/>
	<path fill-rule="evenodd" clip-rule="evenodd" fill="#BCBEC0" d="M106.868-47.395c-1.99,1.91-3.9,3.917-6.033,5.651
		c-0.454,0.369-2.378-0.075-2.479-0.451c-0.299-1.121-0.461-3.165,0.094-3.477c2.476-1.392,5.221-2.306,7.868-3.392
		C106.502-48.507,106.686-47.952,106.868-47.395z"/>
	<path fill-rule="evenodd" clip-rule="evenodd" fill="#BCBEC0" d="M206.707,184.276c-4.265,3.825-7.479,6.709-10.351,9.284
		C196.343,190.416,201.09,185.178,206.707,184.276z"/>
	<path fill-rule="evenodd" clip-rule="evenodd" fill="#BCBEC0" d="M153.399,235.527c3.428-3.587,6.855-7.173,10.283-10.76
		c0.218,0.196,0.436,0.392,0.653,0.588c-3.493,3.479-6.986,6.959-10.48,10.438C153.703,235.705,153.55,235.616,153.399,235.527z"/>
	<path fill-rule="evenodd" clip-rule="evenodd" fill="#BCBEC0" d="M185.66,205.805c-3.657,3.046-7.315,6.093-10.973,9.139
		c-0.117-0.093-0.233-0.187-0.351-0.279c3.183-3.505,6.366-7.01,9.549-10.515C184.477,204.702,185.068,205.253,185.66,205.805z"/>
	<path fill-rule="evenodd" clip-rule="evenodd" fill="#BCBEC0" d="M109.712-121.958c-3.471-2.166-6.941-4.332-10.409-6.496
		c-0.017-0.4-0.036-0.802-0.055-1.203c4.923,1.436,9.873,2.83,13.181,8.662C110.933-121.524,110.323-121.741,109.712-121.958z"/>
	<path fill-rule="evenodd" clip-rule="evenodd" fill="#BCBEC0" d="M-174.222,27.02c5.066,0.748,7.733,4.405,10.698,7.7
		c-0.372,0.438-0.743,0.877-1.115,1.316c-3.149-3.052-6.298-6.103-9.45-9.151C-174.092,26.888-174.222,27.02-174.222,27.02z"/>
	<path fill-rule="evenodd" clip-rule="evenodd" fill="#BCBEC0" d="M92.402-49.129c0,0-0.142-0.231-0.14-0.23
		c-2.814,1.364-5.63,2.727-8.446,4.089C85.879-48.688,87.156-54.442,92.402-49.129z"/>
	<path fill-rule="evenodd" clip-rule="evenodd" fill="#BCBEC0" d="M158.801,13.47c0.887,1.772,1.521,3.041,2.259,4.514
		c-2.83,0.233-5.939,4.524-8.962-2.099c2.092,0.948,3.144,1.425,4.471,2.027C157.208,16.639,157.915,15.235,158.801,13.47z"/>
	<path fill-rule="evenodd" clip-rule="evenodd" fill="#BCBEC0" d="M136.452-81.848c-0.459,4.742-0.919,9.484-1.378,14.227
		c-0.521-0.049-1.041-0.098-1.562-0.147c0.714-4.713,1.428-9.425,2.142-14.138C135.919-81.887,136.186-81.868,136.452-81.848z"/>
	<path fill-rule="evenodd" clip-rule="evenodd" fill="#BCBEC0" d="M155.057-1.091c1.517,0.183,3.033,0.364,4.55,0.547
		c-1.652,1.425-3.305,2.85-4.956,4.274c-0.453-0.362-0.906-0.726-1.358-1.089c0.636-1.288,1.271-2.577,1.909-3.867
		C155.205-1.226,155.057-1.091,155.057-1.091z"/>
</g>
<g id="Stick">
	<g>
		<path fill-rule="evenodd" clip-rule="evenodd" fill="#C03841" d="M-38.139-113.85c-0.515,0.369-1.029,0.737-1.543,1.106
			C-39.04-112.934-38.324-113.022-38.139-113.85z"/>
		<path fill-rule="evenodd" clip-rule="evenodd" fill="#C03841" d="M99.421-252.186c16.56-23.395,21.359-50.895,10.393-77.652
			c-9.48-21.968-30.778-38.385-55.001-41.339c-28.783-3.509-59.553,9.066-75.717,34.364c-10.491,16.419-8.461,33.47-7.942,38.746
			c2.394,11.628,3.484,23.236,6.457,30.281c2.696,6.388,6.375,12.373,11.264,17.324c4.646,4.705,11.21,7.97,14.754,13.708
			c7.348,11.897,3.872,33.546,4.493,47.154c0.479,10.494,1.01,20.985,1.551,31.476c0.355,6.895,3.892,19.945,0.614,26.332
			c-1.079-6.993-15.225,4.985-17.583,7.013c-5.456,4.69-5.617,11.597-10.379,16.252c-3.166,12.336,5.45,25.091,14.693,31.812
			C18.628-61.003,51.888-58.65,77.09-70.508c13.637-6.418,17.911-15.448,25.138-27.924c-0.543-14.437-7.608-25.383-21.299-32.434
			c-12.988-6.685-5.187-24.237-4.326-37.314c0.735-11.164,1.47-22.328,2.205-33.492c0.515-7.813,5.389-27.027,2.023-33.866
			C81.324-234.538,97.78-249.867,99.421-252.186C108.355-264.807,96.726-248.377,99.421-252.186z M87.418-110.208
			C87.18-110.017,86.121-109.161,87.418-110.208C87.418-110.208,87.226-110.053,87.418-110.208z"/>
	</g>
	<g>
		<path fill-rule="evenodd" clip-rule="evenodd" fill="#CC4851" d="M110.67-329.334c-5.95-14.289-16.475-24.532-29.037-30.632
			c-1.358-0.659-7.623-5.216-9.082-3.205c-2.223,3.067,4.459,2.865,2.938,5.602c-1.044,1.879-7.687,0.431-9.616,0.874
			c-5.03,1.158-3.747,2.684-5.746,6.395c-3.229,5.996-19.419,5.126-24.913,5.397c-5.34,0.264-11.413,3.166-16.69,1.521
			c-6.038-1.882-9.13,0.942-15.131,3.831c-11.25,5.415-19.548,11.963-23.681,24.128c-3.787,11.148-2.196-11.084-4.174-12.999
			c-2.494,4.295-7.841,30.975-2.552,32.197c4.204-3.84,9.736,9.433,16.999,8.128c2.233-0.401,8.404-1.951,10.193-3.275
			c3.251-2.409,3.394-4.668,5.767-7.017c1.973-1.954,4.546,0.11,6.49-3.007c1.544-2.477,2.354-5.037,4.126-7.444
			c3.609-4.9,1.703-11.15,4.676-16.956c1.277-2.495,9.146-8.557,11.516-5.201c1.34,1.897-2.581,4.249,1.056,4.695
			c3.493,0.428,8.327,1.075,10.367,2.226c2.919,1.645,3.887,16.428,4.97,19.763c2.104,6.478,6.662,13.409,14.216,13.347
			c6.634-0.056,16.362,1.743,22.1-2.14c3.738-2.53,10.116-13.469,4.72-16.918c-2.313,19.532-32.479,20.859-36.179,1.813
			c-1.843-9.486-8.964-14.808,1.962-20.014c11.466-5.462,18.364-9.043,27.915,0.074c0.25-4.855-5.148-7.179-4.177-11.278
			c1.352-5.7,6.778-3.539,6.376-8.932c7.382-6.661,20.806,20.736,22.356,24.523c0.931,2.273,0.389,13.909,0.68,14.117
			c4.619,3.31,2.215,9.106,4.569,13.467C119.441-304.007,114.506-321.863,110.67-329.334
			C110.422-329.93,114.572-321.736,110.67-329.334z"/>
		<path fill-rule="evenodd" clip-rule="evenodd" fill="#CC4851" d="M-26.379-281.284c2.83,10.797,7.349,21.364,15.296,29.413
			c5.95,6.026,17.797,10.897,16.048,21.098c2.069-1.085,0.431-4.086,2.87-4.9c-4.33,3.246-0.772,19.561-0.566,24.348
			c0.439,10.227,0.887,20.452,1.382,30.677c0.511,10.559,1.066,21.116,1.608,31.674c0.2,3.903,1.293,8.376,1.018,12.292
			c-0.374,5.315-4.667,3.999-8.531,5.993c-6.094,3.146-12.035,8.794-15.827,14.476c-4.663,6.985-4.395,10.076-4.405,18.671
			c2.473,4.865,7.945,9.353,13.218,11.931c2.176,1.063,11.462,8.546,4.872,10.462c3.97,1.668,6.081-0.958,10.834-0.376
			c6.646,0.813,2.503-9.515,9.177-6.975c5.284,2.012,4.44-1.953,2.309-4.929c-1.324-1.848-11.18,0.04-13.312-0.986
			c-0.323-0.969,4.279-11.02,4.889-12.406c1.73-3.933,12.085-1.401,6.673-8.02c-0.969-0.661-1.169-1.501-0.601-2.521
			c2.418-3-7.042-3.03-7.974-3.682c-5.947-4.159-4.708,6.264-9.761,4.932c0.994-4.024-0.463-4.562-4.053-6.251
			c6.902,0.449,11.523-11.358,15.811-16.05c3.052-3.34,4.731-7.346,2.249-11.639c-1.583-2.729,1.816-5.511,1.589-8.837
			c-0.708-10.343-1.57-20.603-2.266-30.962c-0.318-4.729,2.022-8.041,2.464-12.461c0.642-6.416-4.843-7.097-0.23-14.317
			c-9.595,2.482,4.037-26.669-9.365-29.39c1.169,1.365,2.338,2.729,3.508,4.094c-4.544-5.302-7.194-11.53-10.652-17.713
			c-2.105-3.765-4.947-6.767-9.37-7.58c-2.627-4.976-6.909-8.671-11.146-12.228c-5.295-4.445-6.641-9.875-7.537-15.884
			c-2.39-2.045,1.474-6.332-2.133-7.196C-32.565-294.453-27.326-284.895-26.379-281.284
			C-22.725-267.343-27.635-286.072-26.379-281.284z"/>
		<path fill-rule="evenodd" clip-rule="evenodd" fill="#CC4851" d="M100.832-110.992c-2.08-5.558-5.78-10.979-10.49-15.051
			c-4.167-3.603-13.436-5.979-15.992-10.856c-2.655-5.067-1.004-14.102-1.037-19.537c-0.062-10.4,2.375-21.1,3.103-31.505
			c0.604-8.645,8.88-47.216-4.162-47.805c-4.092-0.231-14.687,3.688-18.147,7.003c-7.531,7.214-3.537,12.342-3.294,20.533
			c0.108,3.646-5.504,4.861-2.054,9.14c2.651,3.288,0.091,6.562,0.129,10.119c0.096,8.927,4.104,17.515-1.01,25.971
			c-3.263,5.393,1.871,14.334-0.672,17.805c-2.756,3.762-1.522,7.499,1.25,10.723c2.872,3.337-1.162,3.296-1.935,6.354
			c-0.886,3.504,9.235,5.908,2.672,7.806c-5.693,1.644-2.574,8.734,2.239,7.62c9.214-2.138,13.042-2.654,12.477-11.801
			c-0.173-2.811,3.736-15.132,7.294-15.612c-0.142,3.126-1.02,7.432-0.356,10.529c0.973,0.354,1.816,0.109,2.531-0.734
			c3.547,0.552-2.376,12.125,4.854,12.186c5.409,0.045,2.134,10.42,11.726,9.56c-4.021,2.588-0.609,5.983-2.074,9.367
			c1.059-0.59,2.02-0.464,2.882,0.377c0.474,1.044-13.672-3.265-15.997-4.087c-5.14-1.815-15.665-6.133-20.472-1.281
			c-4.102,4.141-9.458,9.56-9.891,15.548c-0.47,6.496,3.79,16.476,12.147,11.904c6.669-3.646,2.791,6.147,8.27,5.309
			c7.974-1.228,15.149-7.205,23.011-7.582c2.674-4.54-0.915-7.086,6.525-6.155C98.714-89.142,107.069-106.477,100.832-110.992z
			 M87.507-110.75C85.61-111.558,88.227-110.438,87.507-110.75C87.282-110.845,87.572-110.721,87.507-110.75z"/>
		<path fill-rule="evenodd" clip-rule="evenodd" fill="#CC4851" d="M99.09-272.927c-0.262,0.605-5.203-0.691-2.515-3.74
			c5.575-6.333-10.792-3.933-12.888-3.167c-5.484,2.001-9.226,3.53-14.913,4.86c-4.753,1.112-7.171,5.583-12.281,6.957
			c-3.505,0.942,1.64,5.78,2.113,7.361c1.583,5.295-10.195,6.807-5.599,12.987c3.884,5.223,27.816,2.705,22.864,8.386
			c10.102-0.764,7.887-8.965,15.458-12.538c6.958-3.284,16.989-15.284,16.547-23.386C104.452-274.384,101.076-277.524,99.09-272.927
			C98.649-271.906,101.177-277.757,99.09-272.927z"/>
	</g>
	<path fill-rule="evenodd" clip-rule="evenodd" fill="#D26B70" d="M15.991-366.507c14.117-1.848,25.041-6.213,39.884-4.403
		c13.831,1.687,25.756,6.875,35.485,16.586c-1.35,1.854-12.892-5.783-15.128-7.181c-5.803-3.619,2.305,6.479-1.347,6.475
		c-2.949-0.003-13.17-1.714-13.232,3.893c-0.082,7.459-15.771,7.512-20.754,7.726c-7.28,0.312-18.56,4.861-24.858-0.161
		c-0.678-3.426-1.098-20.27-5.94-17.234c-13.058,8.188-27.842,20.873-31.253,36.277c-5.94-5.738,3.782-16.715,7.996-21.779
		C-5.364-355.677,5.56-360.673,15.991-366.507C16.976-366.636,11.421-363.952,15.991-366.507z"/>
	<path fill-rule="evenodd" clip-rule="evenodd" fill="#D26B70" d="M91.512-311.088c-1.554,14.145-9.11,18.831-22.959,17.398
		c-13.318-1.377-10.613-11.455-15.333-20.47c-1.541-2.944-5.245-7.673-0.699-10.127c6.191-3.34,15.162-8.633,22.386-8.695
		C88.425-333.099,83.688-315.034,91.512-311.088C91.412-310.177,88.032-312.843,91.512-311.088z"/>
</g>
<g id="Butt1">
	<g>
		<g>
			<path fill-rule="evenodd" clip-rule="evenodd" fill="#CC4851" d="M55.12,157.491c0.17-3.516-2.994-9.224-5.241-12.646
				c-6.261-4.523-10.057-10.004-17.46-13.945c-12.085-6.435-23.547-8.078-37.292-7.699c-9.982,3.869-20.796,3.387-30.059,10.02
				c-9.73,6.967-18.386,14.768-17.852,27.646c0.276,0.552,0.171,6.856,0.189,8.139c-0.577,7.825,0.48,15.886,4.638,22.682
				c9.313,15.225,29.619,22.132,46.339,24.292c14.972,1.935,32.346-2.365,44.156-12.1C54.58,193.955,59.733,172.455,55.12,157.491
				C55.15,156.875,57.359,164.752,55.12,157.491z M-52.375,161.66c0.69,1.594,0.633,3.202,0.052,4.821
				C-51.743,164.863-51.685,163.253-52.375,161.66z"/>
			<path fill-rule="evenodd" clip-rule="evenodd" fill="#CC4851" d="M-53.057,156.957
				C-53.089,157.577-52.887,157.516-53.057,156.957C-53.066,157.132-53.057,156.957-53.057,156.957z"/>
		</g>
		<path fill-rule="evenodd" clip-rule="evenodd" fill="#D26B70" d="M-48.697,145.581c6.768-4.644,12.065-12.236,20.329-14.375
			c3.283,1.469-10.435,11.308-12.651,14.571c-4.967,7.316-6.684,15.424-2.173,23.505c2.75,4.927,7.369,8.78,11.776,12.172
			c2.104,1.62,13.158,6.018,13.203,8.498C-41.855,188.512-50.589,165.785-48.697,145.581
			C-47.708,144.902-48.737,146.013-48.697,145.581z"/>
		<path fill-rule="evenodd" clip-rule="evenodd" fill="#C03841" d="M55.469,158.565c3.528,11.442,0.695,31.064-6.737,40.439
			c-8.211,10.357-22.978,16.742-35.913,18.246c-28.935,3.362-67.527-13.773-65.064-47.172c6.854,7.997,7.423,16.172,18.583,20.083
			c11.787,4.13,25.074,6.629,37.562,6.91c10.417,0.234,22.854-2.462,31.851-7.863c5.245-3.15,8.808-7.977,12.058-13.045
			C50.242,172.371,51.8,160.475,55.469,158.565C57.708,165.827,53.52,159.58,55.469,158.565z"/>
		<path fill-rule="evenodd" clip-rule="evenodd" fill="#D26B70" d="M8.362,176.813c-11.668-4.154,2.437-17.898,4.291-24.483
			c2.456-8.721,11.435-15.215,21.143-10.444c8.267,4.062,12.831,19.632,8.426,27.82C37.705,178.103,16.219,177.449,8.362,176.813
			C2.758,174.818,8.99,176.864,8.362,176.813z"/>
		<path fill-rule="evenodd" clip-rule="evenodd" fill="#C03841" d="M8.362,176.813c3.364,0.272,0.952,2.972,3.771,3.265
			c1.664,0.173,3.943-2.089,5.583-1.013c2.341,1.536-0.087,5.29,4.023,5.464c3.926,0.167,4.021-3.126,6.583-5.117
			c2.568-1.994,13.401-4.269,7.866,1.026c-2.414,2.31-5.369,2.655-8.115,4.292c-2.559,1.525-2.892,6.424-4.623,7.037
			c-4.027-5.357-22.379-2.236-28.802-2.383c-2.118-0.049-0.844-5.061-0.393-6.071C-3.793,178.953,5.524,181.413,8.362,176.813
			C8.99,176.864,7.336,178.475,8.362,176.813z"/>
		<path fill-rule="evenodd" clip-rule="evenodd" fill="#D26B70" d="M23.452,191.767c6.415-2.271,12.285-5.536,18.867-8.02
			c-7.164,8.232-18.47,10.44-28.612,12.691C15.569,192.172,20.396,194.141,23.452,191.767
			C23.728,191.669,20.542,194.028,23.452,191.767z"/>
	</g>
	<path fill-rule="evenodd" clip-rule="evenodd" fill="#BCBEC0" d="M7.912,171.732c2.299-0.589,5.177-2.324,6.773-1.519
		c2.948,1.487,4.439-0.046,6.697-0.96c2.901-1.176,6.387-2.279,8.646,3.68c-7.709,0.403-14.747,0.772-21.786,1.141
		C8.133,173.293,8.022,172.512,7.912,171.732z"/>
	<path fill-rule="evenodd" clip-rule="evenodd" fill="#BCBEC0" d="M33.293,164.499c1.63,1.599,3.26,3.197,4.89,4.796
		c-0.637,0.643-1.274,1.284-1.911,1.927c-1.828-1.396-5.045-1.376-4.858-4.826C32.041,165.762,32.667,165.13,33.293,164.499z"/>
</g>
<g id="Butt2">
	<g>
		<path fill-rule="evenodd" clip-rule="evenodd" fill="#CC4851" d="M-255.314,38.274C-254.994,37.987-255.314,38.161-255.314,38.274
			C-255.271,38.236-255.314,38.275-255.314,38.274z"/>
		<path fill-rule="evenodd" clip-rule="evenodd" fill="#CC4851" d="M-158.587,41.57c-6.487-12.525-19.487-21.967-33.613-24.322
			c-10.661,2.058-22.124-0.78-33.472,2.572c-5.285,1.562-21.8,7.644-23.43,12.609c-0.008-0.06,0.004-0.089,0.037-0.089
			c0.017-0.068-4.159,3.942-4.122,3.942c-1.664,0-3.234,4.452-2.979,5.818c-6.481,4.876-4.514,14.752-3.427,21.32
			c-2,19.536,15.951,31.717,33.035,36.065c17.515,4.459,35.264,0.966,50.651-8.212c7.548-4.503,14.438-9.555,16.733-18.491
			c1.141-4.443,1.257-9.223,1.666-13.77C-156.922,52.505-158.542,47.749-158.587,41.57C-159.433,39.937-158.567,44.32-158.587,41.57
			z M-251.129,34.31C-251.138,34.29-251.11,34.354-251.129,34.31L-251.129,34.31z"/>
	</g>
	<path fill-rule="evenodd" clip-rule="evenodd" fill="#D26B70" d="M-189.926,17.711c11.953,5.547,25.053,9.72,28.537,23.963
		c3.184,13.019-11.36,34.412-24.713,36.719c3.401-18.68-13.05-11.88-24.491-11.488c-6.497,0.223-13.017-0.338-19.371-1.719
		c-4.325-0.939-15.148-7.371-19.229-5.289c5.831,1.993,7.817,9.826,14.95,8.901c1.931-0.25,3.178,2.746,5.01,3.146
		c3.218,0.701,5.818-1.547,9.413-0.484c8.805,2.604,14.593,1.124,23.255,1.105c6.676-0.015,10.789,7.019,2.328,7.723
		c-3.313,0.275-0.743-2.934-3.177-2.367c-4.03,0.938-7.67,1.878-11.844,2.059c-9.594,0.416-19.571-1.756-28.461-5.31
		c-13.723-5.486-24.271-21.673-18.278-36.626c1.334-1.218,4.189-3.998,6.023-5.708c11.098-7.643,32.465-21.023,47.586-12.923
		c-3.411,1.263-30.28,5.209-11.026,6.621c6.198,0.455,12.396-0.348,18.596-0.053c6.996,0.336-6.661-7.31-5.979-6.484
		c2.78-1.521,5.208-0.452,7.759-2.303C-191.999,17.367-190.962,17.539-189.926,17.711C-183.859,20.527-190.962,17.54-189.926,17.711
		z M-191.968,77.244C-192.02,77.222-192.741,76.909-191.968,77.244C-191.968,77.244-192.074,77.198-191.968,77.244z
		 M-177.936,65.904c9.717-3.427,15.563-18.743,9.513-27.507c-5.248-7.599-4.742,1.389-4.561,5.331
		C-172.607,51.895-178.544,57.646-177.936,65.904C-167.354,62.172-178.241,61.763-177.936,65.904z M-180.584,65.737
		c-0.231-2.579-3.645-2.488-3.674-0.249C-184.286,67.516-181.069,68.606-180.584,65.737
		C-180.682,64.646-180.776,66.871-180.584,65.737z"/>
	<path fill-rule="evenodd" clip-rule="evenodd" fill="#C03841" d="M-186.102,78.394c15.874-2.745,28.884-26.678,23.294-41.147
		c9.59,5.442,4.974,31.35,1.477,39.334c-5.498,12.552-23.216,20.103-35.707,23.139c-23.838,5.794-66.588-5.12-63.391-36.352
		c10.746,11.718,19.644,18.533,36.226,19.899C-214.566,84.061-191.168,90.324-186.102,78.394
		C-180.45,77.417-188.986,85.185-186.102,78.394z"/>
</g>
<g id="Outline">
	<path fill="none" stroke="#000000" stroke-width="5" stroke-miterlimit="10" d="M299.802,59.454
		c0,13.878-17.933,33.216-24.378,45.747c-10.129,19.693-24.018,34.929-39.803,50.185c-36.562,35.336-71.698,72.088-107.42,108.26
		c-30.5,30.882-66.322,83.214-110.026,94.751c-45.58,12.031-92.926-29.859-130.485-51.137
		c-47.286-26.791-93.952-54.432-140.262-82.87c-21.59-13.258-29.15-33.731-40.895-55.599c-12.827-23.882,2.41-27.145,2.217-49.31
		c-0.389-44.168,15.756-72.965,55.803-95.417c18.774-10.526,37.675-2.485,54.483-15.724c19.729-15.539,39.302-31.276,58.988-46.869
		C-99.817-56.08-77.625-73.59-55.523-91.216c7.507-5.987,8.736-17.31,15.572-24.337c7.558-7.77,18.518-12.436,28.004-17.261
		c5.553-2.824,20.95-6.611,20.559-13.869c-0.78-14.473-1.592-28.944-2.378-43.417c-1.376-25.335,2.723-43.679-16.148-61.319
		c-77.235-72.203,59.315-178.453,114.844-87.893c12.303,20.065,12.829,43.325,4.474,64.983c-8.826,22.88-29.193,30.46-30.846,55.524
		c-1.061,16.079-12.758,64.064-3.951,77.33c7.261,10.937,33.715,14.598,44.368,25.238c16.016,15.996,11.331,34.486,32.992,44.155
		c24.394,10.89,49.129,21.229,72.908,33.432C260.993-20.113,299.008,14.458,299.802,59.454
		C299.802,60.787,299.629,49.659,299.802,59.454z"/>
</g>
</svg>
