<?xml version="1.0" encoding="utf-8"?>
<!-- Generator: Adobe Illustrator 16.0.4, SVG Export Plug-In . SVG Version: 6.00 Build 0)  -->
<!DOCTYPE svg PUBLIC "-//W3C//DTD SVG 1.1//EN" "http://www.w3.org/Graphics/SVG/1.1/DTD/svg11.dtd">
<svg version="1.1" xmlns="http://www.w3.org/2000/svg" xmlns:xlink="http://www.w3.org/1999/xlink" x="0px" y="0px"
	 width="595.28px" height="841.89px" viewBox="0 0 595.28 841.89" enable-background="new 0 0 595.28 841.89" xml:space="preserve">
<g id="Dryer">
	<rect x="4.42" y="4.33" fill="#E6EAEA" stroke="#27292B" stroke-miterlimit="10" width="163.89" height="226.88"/>
	<path fill="#EFF3F5" d="M5.71,6.18c0,1.14,0,3.71,0,3.71s133.62,0.38,137.25-1.9S85.83,9.04,67.33,6.85S5.71,6.18,5.71,6.18z"/>
	<path fill="#F3F8FA" d="M5.67,5.33c0,1.67,0.17,4.5,0.17,4.5s56-2.83,80.33-2.17C110.5,8.33,5.67,5.33,5.67,5.33z"/>
	<path fill="#F2F5F6" d="M23,38.83c0.04,9.32,129.06-1.28,141,1.75c3.52,8.89-51.84,8.77-51.25,14.25c-29.55-13.46-51-3.25-68.5,7.5
		C4.25,91.83,23,161.58,69.5,170.58c1.15,11.12-35.07,4.19-30.5,15.25c1.42,4.54-26.75,7.63-26.75,10.25
		C0.12,129.57,7.92,40.34,7.5,39.33C10.52,39.33,17.5,56.33,23,38.83z"/>
	<path fill="#DEE1E3" d="M5.92,33.25c3.75-0.62,7.25-0.75,10.38-7s150.62-0.62,150.62-0.62l-0.25,10.88L5.79,36.62L5.92,33.25z"/>
	<path fill="#C6CCCF" d="M19.87,27.18v5.37c0,0,0.19,1.74,4.34,1.6c4.15-0.15,29.23,0.15,29.23,0.15s3.77-3.18-10.18-2.47
		c-2.83,0.15-6.41-1.74-5.47-1.89c5.56-0.86-2.83-0.87-0.19-1.89C40.23,27.03,19.68,26.31,19.87,27.18z"/>
	<g>
		<path fill="#A6ABAE" d="M53.23,35.67H20.46c-1.33,0-2.42-2.09-2.42-3.42V16.87c0-1.33,1.09-3.42,2.42-3.42h33.76
			c1.33,0,2.42,2.09,2.42,3.42v15.37C56.65,33.58,54.56,35.67,53.23,35.67z M20.42,14.17c-1.02,0-1.58,1.89-1.58,2.92l-0.23,15.16
			c0,1.02,0.83,2.86,1.86,2.86h32.76c1.02,0,2.86-1.83,2.86-2.86V16.87c0-1.02-1-2.71-2.33-2.71H20.42z"/>
	</g>
	<rect x="5.08" y="10.33" fill="#A6ABAE" width="162.5" height="1"/>
	<path fill="#C6CCCF" d="M85.02,31.58c-0.96,0.5,1.5,2.74,1.22,2.92c-0.28,0.18,4.69-0.26,4.97-0.44c0.28-0.18,1.97-2.47,3-2.47
		s2.44-7.6-2.06-10.86c-4.5-3.27-1.59,3-1.59,4.15C90.56,26.02,88.59,29.73,85.02,31.58z"/>
	<path fill="#A6ABAE" d="M90.96,20.29l0,8.72c0,0-0.99,1.49-5.54,0.61l0,0.01c1.17,1.17-0.28,1.5,0.58,1.92
		C91.47,34.2,96.28,25.39,90.96,20.29z"/>
	<path fill="#F2F5F6" d="M84.12,19.07c3-1.3,4.98-0.86,6.5-0.26c0.33,0.13,0.37,0.48,0.37,0.48l0,9.67c0,0-1.04,1.6-6,0.52
		c-0.53-0.12-0.92-0.74-0.92-0.74L84,19.38L84.12,19.07z"/>
	<rect x="71.75" y="16.77" fill="#A6ABAE" width="8.5" height="0.94"/>
	<rect x="72.38" y="20.46" fill="#A6ABAE" width="6.62" height="0.94"/>
	<rect x="69.5" y="24.15" fill="#A6ABAE" width="9.69" height="0.94"/>
	<rect x="73.5" y="27.46" fill="#A6ABAE" width="6.62" height="0.94"/>
	<rect x="96.38" y="16.77" fill="#A6ABAE" width="8.5" height="0.94"/>
	<rect x="97.63" y="20.46" fill="#A6ABAE" width="6.62" height="0.94"/>
	<rect x="97.44" y="24.15" fill="#A6ABAE" width="9.69" height="0.94"/>
	<rect x="96.5" y="27.46" fill="#A6ABAE" width="6.62" height="0.94"/>
	<path fill="#C6CCCF" d="M85,20.32l0.13-0.3c2.64-1.15,4.49-0.94,5.94-0.46v-0.26c0,0-0.04-0.35-0.37-0.48
		c-1.52-0.6-3.5-1.04-6.5,0.26l-0.13,0.3l0.08,9.37c0,0,0.39,0.62,0.92,0.74c0.01,0,0.01,0,0.02,0L85,20.32z"/>
	<rect x="87.13" y="18.33" fill="#8D9194" width="0.71" height="3.17"/>
	<path fill="#DEE1E3" d="M166.58,210.65l0.08-2.32c-0.03,0-0.06,0-0.08,0v-88.09l-4.92,76.42L144,206
		c-20.09,1.32-39.27,7.46-45.67,6C91,210.33,84,212,84,214.67s-4,1.67-6.33,2.67s2,2.67-1,4.33s-15.33,3-13.67,5.67s103,0,103,0
		l0.51-14.5l0.08,0L166.58,210.65L166.58,210.65z"/>
	<rect x="5.33" y="202.42" fill="#A6ABAE" width="162.17" height="1.67"/>
	<rect x="127.25" y="29" fill="#7F878D" width="33.25" height="5.58"/>
	<rect x="127.67" y="29.51" fill="#DEE1E3" width="32.17" height="4.5"/>
	<path fill="#F2F5F6" d="M128.17,30.09c0,0.51,0,2.83,0,2.83s10.16-3.26,26.86-1.09c3.7,0.48,4.73-1.74,4.73-1.74H128.17z"/>
	<rect x="134.83" y="29.58" fill="#7F878D" width="0.67" height="4.35"/>
	<rect x="142.92" y="29.58" fill="#7F878D" width="0.67" height="4.35"/>
	<rect x="151.25" y="29.65" fill="#7F878D" width="0.67" height="4.35"/>
	<rect x="127.17" y="13.33" fill="#7F878D" width="33.17" height="13.75"/>
	<rect x="128.5" y="14.5" fill="#44535C" width="31" height="11.83"/>
	<circle fill="#F2F5F6" cx="85" cy="110" r="59.67"/>
	<path fill="#A6ABAE" d="M138.99,84.8c-7.7-15.31-20.1-25.88-36.47-32.47c2.94,0.49,5.19,1.65,7.98,2.29
		c-0.1-0.79-1.41-0.36-1.52-1.15c-1.27-0.12-2.39-0.39-3.04-1.15c-19.26-7.01-45.45-2.1-56.98,8.79c2.94-1.62,6.3-4.87,9.5-4.97
		c-7.59,3.96-13.81,9.28-18.99,15.66c0.54-0.09,0.64-0.63,1.14-0.76c1.78-2.29,3.81-4.32,6.08-6.11c1.61-1.69,3.38-3.22,5.7-4.2
		c0.5-0.77,1.25-1.29,2.28-1.53c9.21-7.15,28.84-10.55,43.69-6.11c0.13,0,0.25,0,0.38,0c22.73,5.66,37.49,21.38,42.92,43.16
		c-0.55,0.21-1.96-0.45-1.9,0.38c0.89,0,1.77,0,2.66,0c2.15,8.2,1.91,22.28-0.32,30.36c0,0-0.07,0.2-0.06,0.2
		c-8.37,24.84-28.38,46.75-63.06,43.92c-7.03-0.57-13-2.95-18.61-5.73c-5.04-2.06-9.2-5.01-12.92-8.4
		c-4.14-3.22-7.29-7.44-10.64-11.46c-3.04-2.8-4.29-7.4-6.84-10.7c0,0.25,0,0.51,0,0.76c4.72,9.52,11.04,17.42,18.61,24.06
		c1.39,0.26,1.85,1.45,3.04,1.91c7.94,5.12,16.68,9.46,28.87,10.31c29.12,0.13,45.43-12.63,56.6-30.56
		C146.35,128.58,147.89,99.92,138.99,84.8z"/>
	<path fill="#44535C" d="M97.86,168.87c22.05-4.41,38.53-21.1,43.83-43.22c0.02-0.1-0.64,0.3,0-0.75
		c3.15-5.22,2.57-18.97,1.09-25.93c-4.33-20.37-16.39-33.54-31.88-42.85c-0.45-0.27-3.28-1.01-1.81-1.5
		c20.72,9.81,38.32,27.74,36.22,60.14c-1.74,26.9-21.44,49.55-45.64,54.5C99.7,169.24,94.15,170.33,97.86,168.87z"/>
	<path fill="#44535C" d="M26.59,90.65c4.64-12.18,11.37-22.2,21.37-28.84c-10.44,9.68-19.42,20.87-22.1,38.57
		c-0.51,2.34-0.86,4.85-0.72,7.86c-0.6,0.77-0.6,4.1,0,4.87c0.09,9.14,2.24,16.16,5.07,22.47c-0.18,1.09,1.5,2.15,0.72,2.62
		c-4.29-8.67-7.67-18.28-7.25-31.83c0-0.12,0-0.25,0-0.37c0.52-3.33,0.83-6.88,1.45-10.11C25.76,94.29,26.35,92.65,26.59,90.65z"/>
	<path fill="#E6EAEA" d="M45.33,123.25c-6.75,5-7.75,18.75-7.75,18.75s11.76,25.82,47.25,26.75c28.75,0.75,47.5-25,48.5-27
		S122.83,125,122.83,125s-6.5,26.5-40.75,25.5C56.57,149.75,45.33,123.25,45.33,123.25z"/>
	<path fill="#E2E6E7" d="M34.68,83l12.23-12.67L56.62,68l6.47-4l3.24,1.33c0,0-29.13,19-24.09,45.33c5.03,26.33,13.67,39,29.13,37
		c15.46-2,18.7-9.33,21.58-4.33s1.14-9,9.35-9.67s5.75-17,10.79-12.33c5.03,4.67,10.07-9,10.79-19.67
		c0.72-10.67,3.96-17.33,0.72-21.33c-3.24-4-4.58-5.83-7.1-9.17c-2.52-3.33-9.44-9.17-9.44-9.17s20.77,9.92,28.32,26.92
		c7.55,17,8.72,39.08-7.1,54.08s-35.66,7.17-38.48,20.17c-2.82,13-25.17,1.83-34.88-4.17s-25.89-24.33-26.97-46.33
		C27.85,90.67,31.45,92.67,34.68,83z"/>
	<path fill="#FFFFFF" d="M28.08,114.56c-0.91-0.16,1.99-2.97,1.75-3.73c-0.26-1.47,1.06-4.45,0.12-5.31c0-0.37,0.94-2.88,0.94-3.25
		c0.94-1.95-0.61-1.54-0.34-4.1c0.4,0.79,0.9-0.1,0.9-0.46c1.71-0.53,1.41-3.63,1.56-5.56c0-0.12,1.19-2.69,1.19-2.81
		c1.54-3.36,1.87-5.28,4.12-8c0.91-1.01,2.3-3.39,2.75-4.81c7.62-10.25,18.19-14.94,28.45-22.18
		C44.58,63.77,26.64,82.85,28.08,114.56z"/>
	<path fill="#E2E6E7" d="M123.63,110.41c-2.21,3.53-1.96,20.99,0.59,21.77c2.55,0.79,20.99,0.59,21.58,0
		c0.59-0.59,4.49-12.48,1.37-34.52c-2.94-20.79-0.2,0.59-9.22,5.69C128.92,108.45,124.61,108.85,123.63,110.41z"/>
	<path fill="#F3F8FA" d="M19.33,13c10.17-1-11.25-1.5-12-0.25s-1.5,17.75-0.75,18s2-2,2-2s2,2.75,2-1.25s2-1.75,3.25,0
		s0-12.75,0-12.75S13.11,13.61,19.33,13z"/>
	<path fill="#E6EAEA" d="M126.39,90.82c-2.94,9.61-2.16,21.18-2.16,21.18s9.02-1.76,14.52-6.86c5.49-5.1,7.06-8.23,7.06-15.69
		C145.81,88.86,126.39,90.82,126.39,90.82z"/>
	<path fill="#A6ABAE" d="M148.62,98c-1.1-7.79-1.41-9.66-1.83-8.68v-0.07h-19.62v1.18h19.29c-0.06,0.24-0.13,0.52-0.2,0.81
		c0.19,1.25,0.41,2.82,0.69,4.76c3.12,22.04-0.78,33.93-1.37,34.52c-0.56,0.56-17.21,0.76-21.07,0.11c0.31,1.05,0.7,1.75,1.16,1.89
		c2.55,0.79,20.99,0.59,21.58,0C147.84,131.93,151.74,120.04,148.62,98z"/>
	
		<linearGradient id="SVGID_1_" gradientUnits="userSpaceOnUse" x1="86.8474" y1="634.1248" x2="86.8474" y2="630.9774" gradientTransform="matrix(1 0 0 -1 -0.0552 841.7495)">
		<stop  offset="0" style="stop-color:#C2C6C9"/>
		<stop  offset="0.1464" style="stop-color:#BABDC2"/>
		<stop  offset="0.3321" style="stop-color:#A7AAB1"/>
		<stop  offset="0.5391" style="stop-color:#8C8F99"/>
		<stop  offset="0.7615" style="stop-color:#6B6E7B"/>
		<stop  offset="0.994" style="stop-color:#454D5D"/>
		<stop  offset="1" style="stop-color:#444C5C"/>
	</linearGradient>
	<rect x="15.46" y="208" fill="url(#SVGID_1_)" width="142.67" height="2.41"/>
	
		<linearGradient id="SVGID_2_" gradientUnits="userSpaceOnUse" x1="86.5974" y1="628.9998" x2="86.5974" y2="625.2166" gradientTransform="matrix(1 0 0 -1 -0.0552 841.7495)">
		<stop  offset="0" style="stop-color:#C2C6C9"/>
		<stop  offset="0.1464" style="stop-color:#BABDC2"/>
		<stop  offset="0.3321" style="stop-color:#A7AAB1"/>
		<stop  offset="0.5391" style="stop-color:#8C8F99"/>
		<stop  offset="0.7615" style="stop-color:#6B6E7B"/>
		<stop  offset="0.994" style="stop-color:#454D5D"/>
		<stop  offset="1" style="stop-color:#444C5C"/>
	</linearGradient>
	<rect x="15.21" y="213.33" fill="url(#SVGID_2_)" width="142.67" height="2.41"/>
	
		<linearGradient id="SVGID_3_" gradientUnits="userSpaceOnUse" x1="86.7224" y1="623.4998" x2="86.7224" y2="619.8661" gradientTransform="matrix(1 0 0 -1 -0.0552 841.7495)">
		<stop  offset="0" style="stop-color:#C2C6C9"/>
		<stop  offset="0.1464" style="stop-color:#BABDC2"/>
		<stop  offset="0.3321" style="stop-color:#A7AAB1"/>
		<stop  offset="0.5391" style="stop-color:#8C8F99"/>
		<stop  offset="0.7615" style="stop-color:#6B6E7B"/>
		<stop  offset="0.994" style="stop-color:#454D5D"/>
		<stop  offset="1" style="stop-color:#444C5C"/>
	</linearGradient>
	<rect x="15.33" y="218.76" fill="url(#SVGID_3_)" width="142.67" height="2.41"/>
	
		<linearGradient id="SVGID_4_" gradientUnits="userSpaceOnUse" x1="86.4724" y1="618.4998" x2="86.4724" y2="614.3881" gradientTransform="matrix(1 0 0 -1 -0.0552 841.7495)">
		<stop  offset="0" style="stop-color:#C2C6C9"/>
		<stop  offset="0.1464" style="stop-color:#BABDC2"/>
		<stop  offset="0.3321" style="stop-color:#A7AAB1"/>
		<stop  offset="0.5391" style="stop-color:#8C8F99"/>
		<stop  offset="0.7615" style="stop-color:#6B6E7B"/>
		<stop  offset="0.994" style="stop-color:#454D5D"/>
		<stop  offset="1" style="stop-color:#444C5C"/>
	</linearGradient>
	<rect x="15.08" y="224.09" fill="url(#SVGID_4_)" width="142.67" height="2.41"/>
</g>
<g id="Washer">
	<rect x="4.42" y="4.33" fill="#E6EAEA" stroke="#27292B" stroke-miterlimit="10" width="163.89" height="226.88"/>
	<g>
		<path fill="#44535C" d="M123.79,100.64C123.79,100.4,123.59,88.13,123.79,100.64L123.79,100.64z"/>
		<path fill="#44535C" d="M119.48,128.23c-0.77,1.85-1.64,3.58-2.59,5.19C119.63,131.26,120.95,129.37,119.48,128.23z"/>
		<path fill="#44535C" d="M95.62,145.1c-0.65,0.41-1.3,0.7-1.88,0.82c-2.18,0.94-3.69,1.51-4.04,1.55c0.9-0.74,1.71-1.38,2.47-1.97
			c-0.12-0.15-0.24-0.33-0.31-0.57c0.6-0.18,1.19-0.37,1.77-0.56c6.41-4.87,6.78-3.89,5.18-2.02c17.94-8.08,23.25-23.17,20.35-38.88
			c0.25,2.18,1.3,5.41,1.51,8.43c-0.36-0.23-1.5-1.04-1.77-1.17c0.46,2.49-0.97,5.47-1.57,7.64c-1.99-2.46,1.15-4.95,1.42-7.7
			c-3.48-1.37-0.03,6.45-7.16,8.06c3.46-5.41,4.42-11.22,2.87-17.43c3.89,5.82,0.54-1.67,0.04-0.18c0.86-3.92,1.33-3.84,2.04-3.95
			c-2.78-7.72,1.04-6.54-4.79-13.26c10.45,6.34,9.09,4.68,12.04,16.73c-0.06-3.89-0.72-7.4-1.85-10.57
			c-6.36-11.48-18.09-19.6-31.84-21.06c-7.05-0.45-14.37,0.62-21.04,3.21C54.49,78.56,44.3,92.98,44.3,109.77
			c0,10.55,4.02,20.16,10.62,27.43c0.12,0.14,0.25,0.27,0.38,0.41c0.25,0.26,0.5,0.52,0.75,0.78c0.22,0.22,0.44,0.45,0.67,0.67
			c0.11,0.11,0.22,0.21,0.33,0.31c3.82,3.6,8.25,6.42,12.98,8.36c4.82,1.95,10.09,3.03,15.62,3.03c4.97,0,9.73-0.87,14.14-2.46
			c6.77-2.72,12.8-7.6,17.09-14.89C111.86,137.38,102,142.25,95.62,145.1z M118.76,116.95c0.16-0.81,0.14-2.39,0.36-3.91
			C120.12,115.28,117.81,121.92,118.76,116.95z M46.63,112.32c0.81,1.69,0.83,4.16,1.43,6.05
			C47.35,118.01,46.27,114.94,46.63,112.32z M49.88,113.06c0.25,0.47,0.36,0.67-0.02-0.03c-3.87-5.83-3.98-11.75-0.36-17.79
			C51.68,98.85,58.06,128.38,49.88,113.06z M55.25,103.07C61.71,109.66,51.49,114.19,55.25,103.07L55.25,103.07z M74.26,130.11
			C74.91,130.11,74.26,131.31,74.26,130.11c-0.05,7.26-6.14-0.48-9.33-5.69C77.97,128.57,81.08,130.47,74.26,130.11z M74.26,126.91
			c-0.56-0.52-5.11-2.95-9-7.07c-2.6-2.35-4.73-5.48-5.36-9.65c0.76,3.84,2.93,7.08,5.36,9.65
			C72.95,126.77,84.75,126.91,74.26,126.91z M81.44,127.26c0.98,0.07,1.74,0.65,2.51,0.36C81.74,128.62,76.38,126.92,81.44,127.26z
			 M80.01,100.58c0.57-0.71,2.71-1.05,3.59-0.35C82.87,101.53,81.45,100.52,80.01,100.58z M82.16,91.33
			c-11.27,0.03-0.2-10.21-4.31-13.52c2.18,1.75,1.06-3.02,0.17-0.59C80.49,69.71,89.68,86.07,82.16,91.33z M92.93,140.07
			c1.63-1.59,5.45-1,7.54-2.13C101.18,139.06,95.5,139.84,92.93,140.07z M110.51,103.78c1.88,1.38-0.22,4.68,0,6.76
			C109.35,108.98,110.15,105.86,110.51,103.78z M106.56,104.85c0.99,1.24-0.47,3.08-0.36,4.62
			C105.64,108.67,106.37,106.1,106.56,104.85z M104.64,114.24c0.46-1.06,0.87-2.17,1.21-3.35
			C105.7,112.01,105.27,113.13,104.64,114.24c-1.83,4.18-4.67,7.41-8.5,9.69c0.8-0.11-0.6,0.87-5,2.26
			C95.04,123.96,101.84,119.21,104.64,114.24z M97.37,126.91c-0.21,0.19-0.48,0.42-0.86,0.71c0.22-0.89,1.28-1.52,1.35-1.33
			c1.16-1.15,2.32-2.3,3.48-3.45c-0.02,0-0.05,0.01-0.08,0.02c-2.52,2.08-5.42,3.68-8.7,4.77c4.96-3.03,7.84-4.61,8.7-4.77
			c0.12-0.1,0.25-0.2,0.37-0.3c0.93-0.92,1.85-1.84,2.78-2.75c-0.87,1-1.8,1.91-2.78,2.75c-0.09,0.09-0.19,0.19-0.29,0.28
			C102.07,122.76,100.74,124.12,97.37,126.91z M91.49,72.48c-0.06,1.11-2.2,0.68-2.15-0.36C90.43,71.87,90.64,72.49,91.49,72.48z
			 M91.49,77.82c-1.13,1.07-2.43,0.33-3.95,0C87.88,75.25,91.16,75.25,91.49,77.82z M89.7,79.24c4.1,1.16,5.38,11,0,11.74
			C87.3,88.77,87.22,81.37,89.7,79.24z M91.55,132.54c5.72-2.94,11.44-5.89,17.16-8.83C115.73,129.43,98.18,131.53,91.55,132.54
			c-0.5,0.26-1,0.51-1.5,0.77c7.01-2.42,5.93,0.66,0,0C88.28,133.11,89.27,132.89,91.55,132.54z"/>
		<path fill="#44535C" d="M116.86,95.08c1,2.79,2.3,5.35,2.82,8.14C119.03,97.5,117.74,94.95,116.86,95.08z"/>
		<path fill="#44535C" d="M97.86,126.28c-0.45,0.44-0.9,0.89-1.35,1.33c0.31-0.25,0.58-0.47,0.86-0.71
			C97.76,126.56,97.89,126.36,97.86,126.28z"/>
		<path fill="#44535C" d="M118.74,110.67c0.05,0.02,0.1,0.04,0.15,0.06c-0.03-0.18-0.08-0.37-0.13-0.54
			C118.77,110.35,118.76,110.51,118.74,110.67z"/>
		<path fill="#44535C" d="M92.16,145.49c0.37,0.45,0.92,0.56,1.57,0.42c0.58-0.25,1.21-0.52,1.88-0.82
			c1.21-0.75,2.42-1.85,3.19-2.75c-1.62,0.73-3.35,1.41-5.18,2.02C93.17,144.71,92.68,145.09,92.16,145.49z"/>
		<path fill="#44535C" d="M74.26,126.91C74.39,126.91,73.03,125.76,74.26,126.91L74.26,126.91z"/>
		<path fill="#44535C" d="M49.86,113.03c0.01,0.01,0.01,0.02,0.02,0.03C49.3,111.98,47.95,109.45,49.86,113.03z"/>
		<path fill="#44535C" d="M96.14,123.94c-0.59,0.08-2.34,0.74-5,2.26C92.96,125.59,94.62,124.84,96.14,123.94z"/>
		<path fill="#44535C" d="M55.25,103.07C54.57,105.08,56.54,104.4,55.25,103.07L55.25,103.07z"/>
	</g>
	<path fill="#EFF3F5" d="M5.71,6.18c0,1.14,0,3.71,0,3.71s133.62,0.38,137.25-1.9S85.83,9.04,67.33,6.85S5.71,6.18,5.71,6.18z"/>
	<path fill="#F3F8FA" d="M5.67,5.33c0,1.67,0.17,4.5,0.17,4.5s56-2.83,80.33-2.17C110.5,8.33,5.67,5.33,5.67,5.33z"/>
	<path fill="#F2F5F6" d="M23,38.83c0.04,9.32,129.06-1.28,141,1.75c3.52,8.89-51.84,8.77-51.25,14.25c-29.55-13.46-51-3.25-68.5,7.5
		C4.25,91.83,23,161.58,69.5,170.58c1.15,11.12-35.07,4.19-30.5,15.25c1.42,4.54-26.75,7.63-26.75,10.25
		C0.12,129.57,7.92,40.34,7.5,39.33C10.52,39.33,17.5,56.33,23,38.83z"/>
	<path fill="#DEE1E3" d="M5.92,33.25c3.75-0.62,7.25-0.75,10.38-7s150.62-0.62,150.62-0.62l-0.25,10.88L5.79,36.62L5.92,33.25z"/>
	<g>
		<path fill="#A6ABAE" d="M45.73,36.67H19.96c-1.33,0-2.42-2.09-2.42-3.42V15.87c0-1.33,1.09-3.42,2.42-3.42h26.76
			c1.33,0,2.42,2.09,2.42,3.42v17.37C49.15,34.58,47.06,36.67,45.73,36.67z M19.92,13.17c-1.02,0-1.58,1.89-1.58,2.92l-0.23,17.16
			c0,1.02,0.83,2.86,1.86,2.86h25.76c1.02,0,2.86-1.83,2.86-2.86V15.87c0-1.02-1-2.71-2.33-2.71H19.92z"/>
	</g>
	<rect x="5.08" y="10.33" fill="#A6ABAE" width="162.5" height="1"/>
	<path fill="#C6CCCF" d="M85.02,31.58c-0.96,0.5,1.5,2.74,1.22,2.92c-0.28,0.18,4.69-0.26,4.97-0.44c0.28-0.18,1.97-2.47,3-2.47
		s2.44-7.6-2.06-10.86c-4.5-3.27-1.59,3-1.59,4.15C90.56,26.02,88.59,29.73,85.02,31.58z"/>
	<path fill="#A6ABAE" d="M90.96,20.29l0,8.72c0,0-0.99,1.49-5.54,0.61l0,0.01c1.17,1.17-0.28,1.5,0.58,1.92
		C91.47,34.2,96.28,25.39,90.96,20.29z"/>
	<path fill="#F2F5F6" d="M84.12,19.07c3-1.3,4.98-0.86,6.5-0.26c0.33,0.13,0.37,0.48,0.37,0.48l0,9.67c0,0-1.04,1.6-6,0.52
		c-0.53-0.12-0.92-0.74-0.92-0.74L84,19.38L84.12,19.07z"/>
	<rect x="71.75" y="16.77" fill="#A6ABAE" width="8.5" height="0.94"/>
	<rect x="72.38" y="20.46" fill="#A6ABAE" width="6.62" height="0.94"/>
	<rect x="69.5" y="24.15" fill="#A6ABAE" width="9.69" height="0.94"/>
	<rect x="73.5" y="27.46" fill="#A6ABAE" width="6.62" height="0.94"/>
	<rect x="96.38" y="16.77" fill="#A6ABAE" width="8.5" height="0.94"/>
	<rect x="97.63" y="20.46" fill="#A6ABAE" width="6.62" height="0.94"/>
	<rect x="97.44" y="24.15" fill="#A6ABAE" width="9.69" height="0.94"/>
	<rect x="96.5" y="27.46" fill="#A6ABAE" width="6.62" height="0.94"/>
	<path fill="#C6CCCF" d="M85,20.32l0.13-0.3c2.64-1.15,4.49-0.94,5.94-0.46v-0.26c0,0-0.04-0.35-0.37-0.48
		c-1.52-0.6-3.5-1.04-6.5,0.26l-0.13,0.3l0.08,9.37c0,0,0.39,0.62,0.92,0.74c0.01,0,0.01,0,0.02,0L85,20.32z"/>
	<rect x="87.13" y="18.33" fill="#8D9194" width="0.71" height="3.17"/>
	<path fill="#DEE1E3" d="M166.58,210.65l0.08-2.32c-0.03,0-0.06,0-0.08,0v-88.09l-4.92,76.42L144,206
		c-20.09,1.32-39.27,7.46-45.67,6C91,210.33,84,212,84,214.67s-4,1.67-6.33,2.67s2,2.67-1,4.33s-15.33,3-13.67,5.67s103,0,103,0
		l0.51-14.5l0.08,0L166.58,210.65L166.58,210.65z"/>
	<rect x="5.33" y="202.42" fill="#A6ABAE" width="162.17" height="1.67"/>
	<rect x="127.25" y="29" fill="#7F878D" width="33.25" height="5.58"/>
	<rect x="127.67" y="29.51" fill="#DEE1E3" width="32.17" height="4.5"/>
	<path fill="#F2F5F6" d="M128.17,30.09c0,0.51,0,2.83,0,2.83s10.16-3.26,26.86-1.09c3.7,0.48,4.73-1.74,4.73-1.74H128.17z"/>
	<rect x="134.83" y="29.58" fill="#7F878D" width="0.67" height="4.35"/>
	<rect x="142.92" y="29.58" fill="#7F878D" width="0.67" height="4.35"/>
	<rect x="151.25" y="29.65" fill="#7F878D" width="0.67" height="4.35"/>
	<rect x="127.17" y="13.33" fill="#7F878D" width="33.17" height="13.75"/>
	<rect x="128.5" y="14.5" fill="#44535C" width="31" height="11.83"/>
	<path fill="#DEE1E3" d="M45,124.58c-6.75,5-7.75,18.75-7.75,18.75s11.76,25.82,47.25,26.75c28.75,0.75,47.5-25,48.5-27
		s-10.5-16.75-10.5-16.75s-6.5,26.5-40.75,25.5C56.24,151.09,45,124.58,45,124.58z"/>
	<path fill="#C6CCCF" d="M115.27,80.17c0,0-22.62-25.14-44.62-12.75C44.81,81.98,52.08,84.05,52.08,84.05s8.22-10.91,21.69-14.84
		C86.17,65.6,100.88,66.57,115.27,80.17z"/>
	<path fill="#A6ABAE" d="M138.99,84.8c-7.7-15.31-20.1-25.88-36.47-32.47c2.94,0.49,5.19,1.65,7.98,2.29
		c-0.1-0.79-1.41-0.36-1.52-1.15c-1.27-0.12-2.39-0.39-3.04-1.15c-19.26-7.01-45.45-2.1-56.98,8.79c2.94-1.62,6.3-4.87,9.5-4.97
		c-7.59,3.96-13.81,9.28-18.99,15.66c0.54-0.09,0.64-0.63,1.14-0.76c1.78-2.29,3.81-4.32,6.08-6.11c1.61-1.69,3.38-3.22,5.7-4.2
		c0.5-0.77,1.25-1.29,2.28-1.53c9.21-7.15,28.84-10.55,43.69-6.11c0.13,0,0.25,0,0.38,0c22.73,5.66,37.49,21.38,42.92,43.16
		c-0.55,0.21-1.96-0.45-1.9,0.38c0.89,0,1.77,0,2.66,0c2.15,8.2,1.91,22.28-0.32,30.36c0,0-0.07,0.2-0.06,0.2
		c-8.37,24.84-28.38,46.75-63.06,43.92c-7.03-0.57-13-2.95-18.61-5.73c-5.04-2.06-9.2-5.01-12.92-8.4
		c-4.14-3.22-7.29-7.44-10.64-11.46c-3.04-2.8-4.29-7.4-6.84-10.7c0,0.25,0,0.51,0,0.76c4.72,9.52,11.04,17.42,18.61,24.06
		c1.39,0.26,1.85,1.45,3.04,1.91c7.94,5.12,16.68,9.46,28.87,10.31c29.12,0.13,45.43-12.63,56.6-30.56
		C146.35,128.58,147.89,99.92,138.99,84.8z"/>
	<path fill="#44535C" d="M97.86,168.87c22.05-4.41,38.53-21.1,43.83-43.22c0.02-0.1-0.64,0.3,0-0.75
		c3.15-5.22,2.57-18.97,1.09-25.93c-4.33-20.37-16.39-33.54-31.88-42.85c-0.45-0.27-3.28-1.01-1.81-1.5
		c20.72,9.81,38.32,27.74,36.22,60.14c-1.74,26.9-21.44,49.55-45.64,54.5C99.7,169.24,94.15,170.33,97.86,168.87z"/>
	<path fill="#44535C" d="M26.59,90.65c4.64-12.18,11.37-22.2,21.37-28.84c-10.44,9.68-19.42,20.87-22.1,38.57
		c-0.51,2.34-0.86,4.85-0.72,7.86c-0.6,0.77-0.6,4.1,0,4.87c0.09,9.14,2.24,16.16,5.07,22.47c-0.18,1.09,1.5,2.15,0.72,2.62
		c-4.29-8.67-7.67-18.28-7.25-31.83c0-0.12,0-0.25,0-0.37c0.52-3.33,0.83-6.88,1.45-10.11C25.76,94.29,26.35,92.65,26.59,90.65z"/>
	<g>
		<path fill="#A6ABAE" d="M158.73,228.67h-31.76c-1.33,0-2.42-2.09-2.42-3.42v-15.37c0-1.33,1.09-3.42,2.42-3.42h32.76
			c1.33,0,2.42,2.09,2.42,3.42v15.37C162.15,226.58,160.06,228.67,158.73,228.67z M126.92,207.17c-1.02,0-1.58,1.89-1.58,2.92
			l-0.23,15.16c0,1.02,0.83,2.86,1.86,2.86h31.76c1.02,0,2.86-1.83,2.86-2.86v-15.37c0-1.02-1-2.71-2.33-2.71H126.92L126.92,207.17z
			"/>
	</g>
	<path fill="#FFFFFF" d="M26.25,114.75c-0.91-0.16,1.99-2.97,1.75-3.73c-0.26-1.47,1.06-4.45,0.12-5.31c0-0.36,0.94-2.88,0.94-3.25
		c0.94-1.95-0.61-1.54-0.34-4.1c0.4,0.79,0.9-0.1,0.9-0.46c1.71-0.53,1.41-3.63,1.56-5.56c0-0.12,1.19-2.69,1.19-2.81
		c1.54-3.37,1.87-5.28,4.12-8c0.91-1.01,2.3-3.39,2.75-4.81c7.62-10.25,18.19-14.94,28.45-22.18
		C42.75,63.96,24.81,83.04,26.25,114.75z"/>
	<path fill="#F3F8FA" d="M16.19,12.58c7.21-1-8.53-0.79-9.06,0.46s-1.06,17.75-0.53,18c0.53,0.25,1.42-2,1.42-2s0.7,1.28,0.53-2.71
		c-0.06-1.5-0.5-9.31,0.38-7.56s3.38-4.75,3.38-4.75S11.78,13.2,16.19,12.58z"/>
	
		<linearGradient id="SVGID_5_" gradientUnits="userSpaceOnUse" x1="33.239" y1="811.3894" x2="33.239" y2="818.5381" gradientTransform="matrix(1 0 0 -1 -0.0552 841.7495)">
		<stop  offset="0" style="stop-color:#C2C6C9"/>
		<stop  offset="0.1464" style="stop-color:#BABDC2"/>
		<stop  offset="0.3321" style="stop-color:#A7AAB1"/>
		<stop  offset="0.5391" style="stop-color:#8C8F99"/>
		<stop  offset="0.7615" style="stop-color:#6B6E7B"/>
		<stop  offset="0.994" style="stop-color:#454D5D"/>
		<stop  offset="1" style="stop-color:#444C5C"/>
	</linearGradient>
	<path fill="url(#SVGID_5_)" d="M44.37,25.58c0-1.37-0.91-2.47-2.03-2.47h-18.3c-1.12,0-2.03,1.11-2.03,2.47
		c0,0.12,0.01,0.24,0.03,0.35h0.03c0.19,2.41,0.99,4.23,1.98,4.23h18.3c0.99,0,1.79-1.83,1.98-4.23h0.03
		C44.35,25.82,44.37,25.7,44.37,25.58z"/>
</g>
</svg>
