<?xml version="1.0" encoding="utf-8"?>
<!-- Generator: Adobe Illustrator 15.0.2, SVG Export Plug-In . SVG Version: 6.00 Build 0)  -->
<!DOCTYPE svg PUBLIC "-//W3C//DTD SVG 1.1//EN" "http://www.w3.org/Graphics/SVG/1.1/DTD/svg11.dtd">
<svg version="1.1" id="Layer_1" xmlns="http://www.w3.org/2000/svg" xmlns:xlink="http://www.w3.org/1999/xlink" x="0px" y="0px"
	 width="595.279px" height="841.89px" viewBox="0 0 595.279 841.89" enable-background="new 0 0 595.279 841.89"
	 xml:space="preserve">
<radialGradient id="SVGID_1_" cx="43.012" cy="38.8472" r="37.3821" gradientUnits="userSpaceOnUse">
	<stop  offset="0.4911" style="stop-color:#F26522"/>
	<stop  offset="0.9349" style="stop-color:#FFDE17"/>
</radialGradient>
<path fill="url(#SVGID_1_)" d="M79.409,35.563c-1.951-2.337-5.004-5.244-9.896-6.537c-0.456-0.122-0.859-0.229-1.224-0.348
	c-0.188-0.306-0.405-0.597-0.663-0.857c-3.068-3.106,14.744-2.281,7.756-5.937c-2.697-1.411-6.63-2.932-11.646-2.253
	c-0.469,0.064-0.883,0.119-1.266,0.146c-0.289-0.21-0.602-0.395-0.938-0.535c-4.023-1.696,12.747-7.75,4.895-8.453
	c-3.033-0.271-7.248-0.171-11.621,2.374c-0.409,0.238-0.771,0.448-1.113,0.621c-0.348-0.085-0.707-0.135-1.072-0.137
	c-4.366-0.027,8.812-12.039,1.285-9.683c-2.904,0.91-6.76,2.615-9.826,6.641c-0.286,0.376-0.54,0.709-0.79,0.998
	c-0.354,0.057-0.705,0.148-1.044,0.286c-4.046,1.646,3.533-14.495-2.518-9.438c-2.336,1.952-5.246,5.003-6.538,9.896
	c-0.12,0.456-0.229,0.859-0.349,1.225c-0.305,0.187-0.595,0.405-0.855,0.662c-3.106,3.069-2.28-14.743-5.936-7.756
	c-1.412,2.697-2.932,6.631-2.254,11.646c0.062,0.469,0.119,0.883,0.146,1.265c-0.21,0.29-0.396,0.602-0.537,0.939
	c-1.695,4.024-7.75-12.748-8.451-4.893c-0.272,3.031-0.171,7.247,2.375,11.621c0.236,0.408,0.445,0.771,0.618,1.111
	c-0.084,0.348-0.135,0.708-0.137,1.073c-0.006,0.989-0.627,1.079-1.557,0.712c-0.005-0.002-0.01-0.005-0.014-0.005
	c-0.06-0.024-0.117-0.049-0.179-0.076c-1.407-0.617-3.42-2.13-5.104-3.185c-0.004-0.002-0.007-0.004-0.011-0.005
	c-0.065-0.042-0.131-0.083-0.195-0.123c-2.098-1.282-3.604-1.736-2.624,1.396c0.512,1.634,1.274,3.569,2.562,5.494
	c1.001,1.499,2.319,2.991,4.08,4.332c0.376,0.286,0.707,0.541,0.997,0.791c0.058,0.352,0.147,0.705,0.285,1.043
	c1.646,4.045-14.494-3.533-9.438,2.518c1.953,2.336,5.005,5.244,9.897,6.537c0.456,0.121,0.86,0.229,1.224,0.348
	c0.188,0.306,0.406,0.597,0.664,0.857c3.068,3.106-14.744,2.279-7.757,5.937c2.698,1.41,6.63,2.932,11.646,2.253
	c0.469-0.064,0.883-0.119,1.265-0.146c0.289,0.21,0.603,0.395,0.94,0.535c4.022,1.696-12.748,7.75-4.896,8.453
	c3.033,0.271,7.248,0.171,11.621-2.376c0.408-0.236,0.77-0.446,1.112-0.619c0.348,0.085,0.708,0.135,1.072,0.137
	c4.367,0.027-8.812,12.039-1.285,9.682c2.904-0.91,6.761-2.614,9.826-6.64c0.287-0.376,0.541-0.709,0.791-0.998
	c0.354-0.057,0.704-0.148,1.044-0.286c4.046-1.646-3.533,14.493,2.518,9.438c2.336-1.953,5.246-5.003,6.537-9.897
	c0.121-0.457,0.229-0.86,0.35-1.224c0.305-0.187,0.594-0.405,0.855-0.664c3.105-3.067,2.28,14.744,5.936,7.757
	c1.412-2.698,2.933-6.63,2.253-11.645c-0.062-0.469-0.118-0.883-0.146-1.265c0.21-0.29,0.395-0.604,0.536-0.941
	c1.696-4.022,7.75,12.75,8.452,4.895c0.271-3.031,0.172-7.247-2.375-11.621c-0.237-0.408-0.446-0.771-0.618-1.111
	c0.084-0.348,0.134-0.708,0.136-1.073c0.028-4.367,12.039,8.812,9.683,1.285c-0.91-2.905-2.615-6.761-6.642-9.828
	c-0.376-0.284-0.708-0.54-0.998-0.789c-0.056-0.354-0.147-0.705-0.285-1.045C68.327,34.034,84.467,41.614,79.409,35.563z"/>
<radialGradient id="SVGID_2_" cx="42.782" cy="39.083" r="23.436" gradientUnits="userSpaceOnUse">
	<stop  offset="0.402" style="stop-color:#FFDE17"/>
	<stop  offset="0.9172" style="stop-color:#F26522"/>
</radialGradient>
<circle fill="url(#SVGID_2_)" cx="42.782" cy="39.083" r="23.436"/>
<radialGradient id="SVGID_3_" cx="14.303" cy="40.8135" r="7.2474" gradientUnits="userSpaceOnUse">
	<stop  offset="0.402" style="stop-color:#FFDE17"/>
	<stop  offset="0.9172" style="stop-color:#F26522"/>
</radialGradient>
<path fill="url(#SVGID_3_)" d="M20.714,42.396c0.521-0.567,4.803,5.299-4.463,4.996c-4.962-0.162-8.681-3.864-9.171-5.244
	c-0.491-1.381-2.02-5.521,2.729-7.344c4.75-1.821,5.459,1.162,6.005,1.879c0.546,0.717,2.083,3.313,2.729,4.47
	C19.253,42.423,19.949,43.225,20.714,42.396z"/>
<radialGradient id="SVGID_4_" cx="60.2214" cy="37.3628" r="7.2072" gradientUnits="userSpaceOnUse">
	<stop  offset="0.402" style="stop-color:#FFDE17"/>
	<stop  offset="0.9172" style="stop-color:#F26522"/>
</radialGradient>
<path fill="url(#SVGID_4_)" d="M69.151,35.423c0.765,5.303-4.368,6.256-8.537,6.669c-0.586,0.059-1.493,0.043-2.099,0.043
	c-2.476,0.006-5.044-0.129-7.299-0.095c4.333-2.536,0.034-7.232,3.726-9.451C58.783,33.748,66.61,32.65,69.151,35.423z"/>
<path fill="#FFFFFF" d="M64.248,28.111c2.228,0.35,4.229,1.28,4.695,3.204c-0.58-1.057-1.856-1.978-4.303-1.967
	c-3.803,0.019-3.068,1.065-4.471,2.27c-0.598,0.514-2.332,0.7-3.318,0.791c-0.011,0-0.021-0.002-0.033-0.002
	c0.122-0.201,1.329-1.832,2.347-2.571C61.202,28.356,63.64,28.012,64.248,28.111z"/>
<path d="M63.92,27.553C63.947,27.542,63.903,27.542,63.92,27.553L63.92,27.553z"/>
<path fill="#FFFFFF" d="M46.895,31.034c1.743,0.191,4.43,1.476,5.155,2.675c-7.062,1.639-0.312-2.56-10.402,0.553
	c-1.804,0.557-3.389,2.599-3.782,4.651c-0.669-2.616,0.505-5.639,3.327-7.007C43.126,30.971,44.094,30.725,46.895,31.034z"/>
<path d="M70.159,36.857c-0.064-0.539,0.008-1.769-0.997-2.546c0.564-1.001,2.201-5.808-4.669-6.659
	c-0.445-0.055-0.556-0.086-0.573-0.099c-0.032,0.011-0.161,0.033-0.601,0.062c-2.732-4.431-6.253-10.31-17.598-11.842
	c10.559,3.478,13.333,5.672,16.562,12.007c-1.482,0.516-4.263,1.931-5.32,3.054c-0.199,0.138-0.378,0.3-0.512,0.507
	c-1.763,0.05-0.317-1.275-1.705-1.386c0.329,1.463,0.229,1.901-0.523,2.539c-0.29,0.248-0.68,0.527-1.181,0.909
	c-3.508-4.695-14.839-3.927-15.971,2.307c-6.004,0.987-12.785,1.118-18.659,2.25c-2.747-1.149-1.995-3.124-4.712-3.721
	c-4.108-0.901-6.6,1.374-7.375,4.155c-0.602,2.116-0.206,4.527,1.212,6.06c3.357,3.042,10.159,3.612,13.088,4.895
	c1.692,0.57,1.188,1.168,2.973,3.067c0.604,0.645,2.359,2.928,2.871,3.533l2.539,2.099c-3.202-3.312-4.252-8.045-9.567-10.256
	c0.442-1.283,2.936-0.324,2.894-2.144c-7.586,4.376-16.938-2.106-15.591-7.202c0.263-0.996,0.938-1.942,2.119-2.742
	c7.489-5.073,8.321,8.619,11.645,6.816c2.1-1.14,0.527-0.813-0.041-3.52c-0.665,1.171,0.579,2.196-0.414,2.857
	c-1.781-0.87-1.352-1.1-1.875-3.189c6.435-0.355,11.815-1.867,18.541-1.901c-0.825,1.999-0.034,3.754,1.563,5.03
	c0.719,1.198,2.262,2.041,4.955,2.027c2.61,0.404,5.415,0.005,7.346-1.514c2.605,1.451,5.286,0.162,7.938,0.162
	c0.046,0,0.096,0.004,0.146,0.004c-0.047,2.435,2.682,3.683,0.946,6.844c-5.136,0.406-12.896,1.163-17.986-1.362
	c2.23,3.087,9.925,6.684,13.788,2.558c-0.185,2.057-2.121,2.186-2.855,3.639c3.408-0.615,3.711-4.635,7.969-4.317
	c2.679-3.513-2.021-5.314-0.198-7.469c3.463,2.726,3.763,5.456,3.021,7.949c-1.208,4.065-9.165,9.496-15.348,11.925l10.819-4.195
	c2.134-2.588,4.552-4.361,5.562-7.712c0.371-1.22,0.478-2.497,0.176-3.829c-0.871-3.857-2.629-4.013-2.629-4.013
	S70.817,42.413,70.159,36.857z M59.165,29.835c2.037-1.479,4.475-1.823,5.083-1.725c2.228,0.35,4.229,1.28,4.695,3.204
	c-0.58-1.057-1.856-1.978-4.303-1.967c-3.803,0.019-3.068,1.065-4.471,2.27c-0.598,0.514-2.332,0.7-3.318,0.791
	c-0.011,0-0.021-0.002-0.033-0.002C56.941,32.206,58.148,30.575,59.165,29.835z M41.647,34.261
	c-1.804,0.557-3.389,2.599-3.783,4.651c-0.668-2.616,0.506-5.639,3.328-7.007c1.935-0.935,2.901-1.181,5.702-0.872
	c1.743,0.191,4.429,1.476,5.155,2.675C44.987,35.347,51.739,31.149,41.647,34.261z M59.511,41.844l0.159,0.102
	c-0.662,0.014-1.115,0.009-1.235,0.009l0.005,0.027c-2.444,0.007-5,0.025-7.223,0.059c4.333-2.536,0.034-7.232,3.726-9.451
	c3.842,1.158,11.668,0.061,14.209,2.834C69.915,40.726,64.77,41.653,59.511,41.844z"/>
<path d="M17.446,44.316c-2.146,1.731-6.921,0.438-6.975-1.848c0.398-1.501,2.458-1.174,3.016-2.499
	c0.821-2.231-3.459-1.487-3.408-2.77C17.561,36.974,11.688,43.021,17.446,44.316z M15.149,44.695
	c-0.198-1.424-2.006-2.161-2.654-3.396C10.999,42.919,11.939,44.307,15.149,44.695z"/>
<path d="M36.101,32.643c0,0-1.258-3.921,4.423-3.826c2.587,0.044,3.505-0.043-1.502-0.73c-0.912-0.126-6.676,1.375-4.757,3.955
	C35.388,33.549,36.101,32.643,36.101,32.643z"/>
<path d="M52.417,30.5c-0.229,0.753,0.324-2.305,0.324-2.305s2.002-4.104,6.106-1.609C61.472,28.181,54.183,24.647,52.417,30.5z"/>
</svg>
