<?xml version="1.0" encoding="utf-8"?>
<!-- Generator: Adobe Illustrator 16.0.4, SVG Export Plug-In . SVG Version: 6.00 Build 0)  -->
<!DOCTYPE svg PUBLIC "-//W3C//DTD SVG 1.1//EN" "http://www.w3.org/Graphics/SVG/1.1/DTD/svg11.dtd">
<svg version="1.1" id="Layer_1" xmlns="http://www.w3.org/2000/svg" xmlns:xlink="http://www.w3.org/1999/xlink" x="0px" y="0px"
	 width="184px" height="84px" viewBox="0 0 184 84" enable-background="new 0 0 184 84" xml:space="preserve">
<g id="Skuggis">
	<path fill="#603813" d="M19.697,68.785c-0.102,1.092-0.565,2.456-0.477,3.34c2.096-1.046,2.357-4.562,2.028-7.635
		C20.788,65.979,20.081,67.22,19.697,68.785C19.596,69.877,20.081,67.22,19.697,68.785z"/>
	<path fill="#603813" d="M25.352,66.16c0-0.268-0.562-0.642-0.834-0.596c-0.069,0.713-0.928,1.041-1.135,1.686
		c-0.029,0.093,0.396,1.535-0.297,1.535c-0.02,0.471,0.299,1.074,0.835,1.074c0.872,0,0.286-1.111,1.551-0.955
		C25.125,68.012,25.748,67.043,25.352,66.16C25.352,66.121,25.727,66.994,25.352,66.16z"/>
	<path fill="#603813" d="M34.392,18.462c0.063-0.315,0.192-0.601,0.386-0.856c-0.355-0.555-0.682-1.127-0.961-1.724
		c-0.779-1.671-0.324-4.572-1.619-5.79c-1.121-1.054-2.815-1.104-4.044-1.986c-0.171-0.124-2.485-3.47-2.682-1.475
		c0.237,0.525,0.019,1.749,0.073,1.481c-0.152,0.736,0.061,1.19-0.551,1.381c-0.539,0.527-2.895-0.248-3.459-0.478
		c-0.164,0.894,0.009,1.903-0.239,2.744c-0.806-0.101-2.495-0.429-2.833,0.547c-0.346,1.002-0.682,1.975-0.985,3.031
		c0,0.514-0.119,1.196-0.119,1.79c0,1.042-0.306,0.271-0.597,1.073c-0.707,0.463-0.852,1.295-1.055,2.048
		c-0.217,0.809,0.371,0.758-0.557,0.946c-0.421,0.085-0.723,0.394-1.125,0.521c-0.761,0.242-0.403,0.449-0.365,1.261
		c0.03,0.643,0.019,1.29-0.044,1.931c-0.094,0.943-0.434,1.951-0.842,2.806c-0.343,0.719-1.019,1.395-1.156,2.198
		c-0.143,0.836,0.925,1.621,0.707,2.702c-0.162,0.803-2.16,0.158-2.993,0.557c-0.902,0.431-1.45,1.574-1.778,2.466
		c-0.797,2.171-0.654,4.906-0.77,7.183c-0.052,1.034,0.181,2.32,0.8,3.171c0.6,0.823,1.157,2.044,0.469,2.99
		c-0.548-0.048-0.909-0.283-1.432-0.357c0.416,1.857,1.876,4.049,0.297,5.887c-0.784,0.913-1.819,0.51-1.609,2.105
		c-0.401,0.47-0.24,2.414-0.358,3.103c-0.44,0.362-1.033-0.774-1.551,0.238c-0.69,0.767,0.193,1.99-0.239,2.863
		c0.17,0.159,0.37,0.197,0.6,0.116c0.626-0.059,0.562,0.703,0.66,1.184c0.215,1.058,0.326,2.133,0.524,3.193
		c0.221,1.182,0.646,4.044,2.195,3.51c0,0.33,0.074,0.312-0.162,0.229c-0.252,0.305,0.672,1.812,0.597,2.386
		c0,0.546-0.946,0.69-0.955,0.835c0.178,0.883,0.559,1.705,1.13,2.401c0.632,0.771-0.727,1.374,0.062,2.013
		c0.551,0.594,1.425,0.352,2.098,0.188c0.367-0.105,0.742-0.168,1.123-0.188c0.119,0.118,0.553,0.12,0.71,0.12
		c0-1.653-0.425-2.532,1.147-3.382c1.271-0.689,2.84-0.667,4.053,0.079c0.101,0.062,0.289-0.027,0.26-0.312
		c-0.028-0.284,0.5-2.25,0.897-3.437c0.683-2.043,0.9-4.411,1.045-6.55c0-0.731,0.131-1.412,0.106-2.16
		c-0.043-1.322,0.122-0.936,1.069-1.556c0.704-0.462,1.353-0.966,1.382-1.877l0,0l0,0l0,0c0.05-0.382,0.423-1.923,0.544-1.804
		c0.122,0.119,1.292-0.03,1.767-0.538c0.953-1.021,1.774-1.866,0.856-2.999c-1.012-1.25-2.338-2.185-3.648-3.153
		c-1.176-0.87-1.123-1.224-1.123-2.654c0-1.392,1.774-1.61,1.193-3.181c-0.582-1.57,2.744-7.275,3.341-8.113
		c0.998-0.65,2.4-2.744,3.697-2.744c-0.264-2.318,1.247-2.481,2.029-4.056c-0.104-0.272-0.38-0.504-0.766-0.869
		c-0.012-0.559-0.809-0.592-0.454-1.126c0.399-0.602,0.655-1.35,1.006-1.988c0.344-0.624,0.665-1.254,1.019-1.872
		c0.244-0.427,0.399-1.043,0.728-1.303c0.405-0.32,1.323-0.12,1.808-0.12c1.819-0.195,2.043-1.26,0.836-2.504
		C34.126,19.73,34.232,19.139,34.392,18.462z M21.685,59.577L21.685,59.577C21.685,59.578,21.685,59.578,21.685,59.577z"/>
</g>
<g id="Sverige">
	<radialGradient id="SVGID_1_" cx="17.4165" cy="44.6367" r="32.8375" gradientUnits="userSpaceOnUse">
		<stop  offset="0" style="stop-color:#FFDE5C"/>
		<stop  offset="0.0583" style="stop-color:#FFD65D"/>
		<stop  offset="0.2342" style="stop-color:#FFC360"/>
		<stop  offset="0.4154" style="stop-color:#FFB862"/>
		<stop  offset="0.6084" style="stop-color:#FFB463"/>
		<stop  offset="1" style="stop-color:#96632A"/>
	</radialGradient>
	<path fill="url(#SVGID_1_)" stroke="#000000" stroke-width="0.2274" stroke-miterlimit="10" d="M19.418,67.724
		c-0.102,1.092-0.565,2.456-0.477,3.34c2.096-1.046,2.357-4.562,2.028-7.635C20.509,64.917,19.802,66.158,19.418,67.724
		C19.317,68.815,19.802,66.158,19.418,67.724z"/>
	<radialGradient id="SVGID_2_" cx="17.418" cy="44.6367" r="32.8368" gradientUnits="userSpaceOnUse">
		<stop  offset="0" style="stop-color:#FFDE5C"/>
		<stop  offset="0.0583" style="stop-color:#FFD65D"/>
		<stop  offset="0.2342" style="stop-color:#FFC360"/>
		<stop  offset="0.4154" style="stop-color:#FFB862"/>
		<stop  offset="0.6084" style="stop-color:#FFB463"/>
		<stop  offset="1" style="stop-color:#96632A"/>
	</radialGradient>
	<path fill="url(#SVGID_2_)" stroke="#000000" stroke-width="0.2274" stroke-miterlimit="10" d="M25.073,65.099
		c0-0.268-0.562-0.642-0.835-0.596c-0.068,0.713-0.927,1.041-1.134,1.686c-0.03,0.093,0.396,1.535-0.298,1.535
		c-0.019,0.471,0.299,1.074,0.836,1.074c0.871,0,0.285-1.111,1.551-0.955C24.847,66.95,25.469,65.981,25.073,65.099
		C25.073,65.06,25.447,65.933,25.073,65.099z"/>
	<radialGradient id="SVGID_3_" cx="17.4165" cy="44.6367" r="32.8375" gradientUnits="userSpaceOnUse">
		<stop  offset="0" style="stop-color:#FFDE5C"/>
		<stop  offset="0.0583" style="stop-color:#FFD65D"/>
		<stop  offset="0.2342" style="stop-color:#FFC360"/>
		<stop  offset="0.4154" style="stop-color:#FFB862"/>
		<stop  offset="0.6084" style="stop-color:#FFB463"/>
		<stop  offset="1" style="stop-color:#96632A"/>
	</radialGradient>
	<path fill="url(#SVGID_3_)" stroke="#000000" stroke-width="0.2274" stroke-miterlimit="10" d="M34.113,17.401
		c0.062-0.315,0.191-0.601,0.385-0.856c-0.354-0.555-0.682-1.127-0.96-1.724c-0.78-1.671-0.324-4.572-1.62-5.79
		c-1.121-1.054-2.814-1.104-4.043-1.986c-0.172-0.124-2.485-3.47-2.682-1.475c0.236,0.525,0.018,1.749,0.072,1.481
		c-0.151,0.736,0.062,1.19-0.55,1.381c-0.54,0.527-2.896-0.248-3.459-0.478c-0.164,0.894,0.009,1.903-0.239,2.744
		c-0.806-0.101-2.495-0.429-2.833,0.547c-0.346,1.002-0.682,1.975-0.985,3.031c0,0.514-0.119,1.196-0.119,1.79
		c0,1.042-0.306,0.271-0.597,1.073c-0.707,0.463-0.852,1.295-1.055,2.048c-0.217,0.809,0.371,0.758-0.557,0.946
		c-0.421,0.085-0.723,0.394-1.125,0.521c-0.761,0.242-0.403,0.449-0.365,1.261c0.03,0.643,0.019,1.29-0.044,1.931
		c-0.094,0.943-0.434,1.951-0.842,2.806c-0.343,0.719-1.019,1.395-1.156,2.198c-0.143,0.836,0.925,1.621,0.707,2.702
		c-0.162,0.803-2.16,0.158-2.993,0.557c-0.902,0.431-1.45,1.574-1.778,2.466c-0.797,2.171-0.654,4.906-0.77,7.183
		c-0.052,1.034,0.181,2.32,0.8,3.171c0.6,0.823,1.157,2.044,0.469,2.99c-0.548-0.048-0.909-0.283-1.432-0.357
		c0.416,1.857,1.876,4.049,0.297,5.887c-0.784,0.913-1.819,0.51-1.609,2.105c-0.401,0.47-0.24,2.414-0.358,3.103
		c-0.44,0.362-1.033-0.774-1.551,0.238c-0.69,0.767,0.193,1.99-0.239,2.863c0.17,0.159,0.37,0.197,0.6,0.116
		c0.626-0.059,0.562,0.703,0.66,1.184c0.215,1.058,0.326,2.133,0.524,3.193c0.221,1.182,0.646,4.044,2.195,3.51
		c0,0.33,0.074,0.312-0.162,0.229c-0.252,0.305,0.672,1.812,0.597,2.386c0,0.546-0.946,0.69-0.955,0.835
		c0.178,0.883,0.559,1.705,1.13,2.401c0.632,0.771-0.727,1.374,0.062,2.013c0.551,0.594,1.425,0.352,2.098,0.188
		c0.367-0.105,0.742-0.168,1.123-0.188c0.119,0.118,0.553,0.12,0.71,0.12c0-1.653-0.425-2.532,1.147-3.382
		c1.271-0.689,2.84-0.667,4.053,0.079c0.101,0.062,0.289-0.027,0.26-0.312c-0.028-0.284,0.5-2.25,0.897-3.437
		c0.683-2.043,0.9-4.411,1.045-6.55c0-0.731,0.131-1.412,0.106-2.16c-0.043-1.322,0.122-0.936,1.069-1.556
		c0.704-0.462,1.353-0.966,1.382-1.877l0,0l0,0l0,0c0.05-0.382,0.423-1.923,0.544-1.804c0.122,0.119,1.293-0.03,1.768-0.538
		c0.952-1.021,1.774-1.866,0.856-2.999c-1.012-1.25-2.339-2.185-3.648-3.153c-1.176-0.87-1.123-1.224-1.123-2.654
		c0-1.392,1.774-1.61,1.193-3.181c-0.582-1.57,2.745-7.275,3.34-8.113c0.998-0.65,2.4-2.744,3.698-2.744
		c-0.265-2.318,1.247-2.481,2.028-4.056c-0.104-0.272-0.379-0.504-0.766-0.869c-0.012-0.559-0.809-0.592-0.453-1.126
		c0.399-0.602,0.654-1.35,1.006-1.988c0.344-0.624,0.664-1.254,1.018-1.872c0.244-0.427,0.4-1.043,0.729-1.303
		c0.404-0.32,1.322-0.12,1.807-0.12c1.82-0.195,2.044-1.26,0.836-2.504C33.848,18.668,33.954,18.078,34.113,17.401z M21.406,58.516
		L21.406,58.516C21.406,58.517,21.406,58.517,21.406,58.516z"/>
</g>
<path id="Vattern" fill="#536F8C" stroke="#000000" stroke-width="0.2274" stroke-miterlimit="10" d="M11.876,62.681
	c0.768-0.973,0.514-1.544,1.551-2.146c0,0.199,0,0.397,0,0.597c0.089,0.366-0.327,0.229-0.239,0.597
	c0.188,0.012,0.414-0.016,0.358,0.238c-0.154,0.309-0.248,0.375-0.597,0.238c-0.014,0.424-0.441,0.434-0.358,0.955
	c-0.069,0.885-0.584,1.324-0.835,2.027c-0.27,0.049,0.063,0.699-0.477,0.478c0.086-0.364-0.122-0.435-0.119-0.716
	c0.135-0.422,0.37-0.744,0.358-1.312C11.576,63.256,11.894,63.136,11.876,62.681z"/>
<path id="Vanern" fill="#536F8C" stroke="#000000" stroke-width="0.2274" stroke-miterlimit="10" d="M11.085,58.489
	c-0.015,0.006-0.026,0.013-0.042,0.018c0.107-0.683-0.401-0.953-1.193-1.073c-0.259-0.021-0.054,0.423-0.12,0.597
	c-0.51,0.033-0.285-0.669-0.835-0.597c0,0.04,0,0.079,0,0.12c0.14,0.019,0.1,0.217,0.119,0.357
	c-0.259,0.021-0.379-0.098-0.357-0.357c-0.434,0.842,0.417,1.898,0.119,2.624c-0.39-0.218-0.267-0.51-0.477-0.716
	c-0.937-0.92-0.758,0.425-1.475,1.016v0.574c0.114,0.125,0.321,0.158,0.402,0.317c-0.093,0.026-0.139,0.1-0.12,0.238
	c0.31-0.071,0.43,0.048,0.358,0.358c0.508-0.248,0.697-0.814,1.193-1.074c0.219,0.218,0.063,0.668-0.12,0.835
	c0,0.119,0,0.239,0,0.358c0.825-0.287,1.208-1.248,2.028-1.193c-0.02-0.416,0.27-0.521,0.52-0.669v-0.071
	c-0.254-0.098-0.107-0.295,0-0.469V58.489z"/>
<g id="Pin">
	<path opacity="0.5" fill="#1B1B1B" enable-background="new    " d="M10.075,60.998c-0.462-0.343-0.958-0.333-1.414,0.015
		c-0.574,0.438-0.687,1.031-0.368,1.646c0.211,0.408,0.492,0.784,0.832,1.27c0.039,0.098,0.141,0.168,0.258,0.168
		c0.118,0,0.217-0.068,0.258-0.165c0.342-0.498,0.622-0.882,0.834-1.297C10.793,62.011,10.651,61.424,10.075,60.998z"/>
	<path fill="#1B1B1B" d="M10.275,60.785c-0.462-0.342-0.957-0.333-1.414,0.015c-0.573,0.438-0.687,1.031-0.368,1.647
		c0.211,0.408,0.493,0.784,0.833,1.269c0.039,0.099,0.14,0.169,0.258,0.169c0.117,0,0.217-0.069,0.258-0.165
		c0.341-0.499,0.621-0.882,0.834-1.298C10.995,61.798,10.851,61.212,10.275,60.785z"/>
	<path fill="#008BD0" d="M10.52,60.511c-0.463-0.342-0.958-0.333-1.415,0.015c-0.573,0.438-0.686,1.031-0.369,1.646
		c0.213,0.409,0.493,0.785,0.834,1.27c0.039,0.099,0.14,0.169,0.258,0.169c0.117,0,0.217-0.069,0.258-0.165
		c0.341-0.499,0.621-0.883,0.834-1.298C11.238,61.523,11.095,60.938,10.52,60.511z"/>
	<circle fill="#1B1B1B" cx="9.824" cy="61.559" r="0.543"/>
</g>
<g id="Pin_1_">
	<path opacity="0.5" fill="#1B1B1B" enable-background="new    " d="M23.045,52.283c-0.462-0.343-0.958-0.333-1.414,0.015
		c-0.574,0.438-0.687,1.031-0.368,1.646c0.211,0.408,0.492,0.784,0.832,1.27c0.039,0.098,0.141,0.168,0.258,0.168
		c0.118,0,0.217-0.068,0.258-0.165c0.342-0.498,0.622-0.882,0.834-1.297C23.764,53.296,23.621,52.709,23.045,52.283z"/>
	<path fill="#1B1B1B" d="M23.245,52.07c-0.462-0.342-0.957-0.333-1.414,0.015c-0.573,0.438-0.687,1.031-0.368,1.647
		c0.211,0.408,0.493,0.784,0.833,1.269c0.039,0.099,0.14,0.169,0.258,0.169c0.117,0,0.217-0.069,0.258-0.165
		c0.341-0.499,0.621-0.882,0.834-1.298C23.965,53.083,23.821,52.497,23.245,52.07z"/>
	<path fill="#008BD0" d="M23.49,51.796c-0.463-0.342-0.958-0.333-1.415,0.015c-0.573,0.438-0.686,1.031-0.369,1.646
		c0.213,0.409,0.493,0.785,0.834,1.27c0.039,0.099,0.14,0.169,0.258,0.169c0.117,0,0.217-0.069,0.258-0.165
		c0.341-0.499,0.621-0.883,0.834-1.298C24.208,52.809,24.065,52.224,23.49,51.796z"/>
	<circle fill="#1B1B1B" cx="22.794" cy="52.844" r="0.543"/>
</g>
<g id="Pin_2_">
	<path opacity="0.5" fill="#1B1B1B" enable-background="new    " d="M9.428,72.236c-0.462-0.343-0.958-0.333-1.414,0.015
		c-0.574,0.438-0.687,1.031-0.368,1.646c0.211,0.408,0.492,0.784,0.832,1.27c0.039,0.098,0.141,0.168,0.258,0.168
		c0.118,0,0.217-0.068,0.258-0.165c0.342-0.498,0.622-0.882,0.834-1.297C10.146,73.249,10.004,72.662,9.428,72.236z"/>
	<path fill="#1B1B1B" d="M9.628,72.023c-0.462-0.342-0.957-0.333-1.414,0.015c-0.573,0.438-0.687,1.031-0.368,1.647
		c0.211,0.408,0.493,0.784,0.833,1.269c0.039,0.099,0.14,0.169,0.258,0.169c0.117,0,0.217-0.069,0.258-0.165
		c0.341-0.499,0.621-0.882,0.834-1.298C10.348,73.036,10.204,72.45,9.628,72.023z"/>
	<path fill="#008BD0" d="M9.873,71.749c-0.463-0.342-0.958-0.333-1.415,0.015c-0.573,0.438-0.686,1.031-0.369,1.646
		c0.213,0.409,0.493,0.785,0.834,1.27c0.039,0.099,0.14,0.169,0.258,0.169c0.117,0,0.217-0.069,0.258-0.165
		c0.341-0.499,0.621-0.883,0.834-1.298C10.591,72.762,10.448,72.177,9.873,71.749z"/>
	<circle fill="#1B1B1B" cx="9.177" cy="72.797" r="0.543"/>
</g>
<g id="Pin_3_">
	<path opacity="0.5" fill="#1B1B1B" enable-background="new    " d="M27.217,29.918c-0.461-0.343-0.957-0.333-1.414,0.015
		c-0.574,0.438-0.686,1.031-0.367,1.646c0.211,0.408,0.492,0.784,0.832,1.27c0.039,0.098,0.141,0.168,0.258,0.168
		s0.217-0.068,0.258-0.165c0.342-0.498,0.621-0.882,0.834-1.297C27.936,30.931,27.793,30.344,27.217,29.918z"/>
	<path fill="#1B1B1B" d="M27.418,29.705c-0.463-0.342-0.957-0.333-1.414,0.015c-0.574,0.438-0.688,1.031-0.369,1.647
		c0.211,0.408,0.494,0.784,0.834,1.269c0.039,0.099,0.139,0.169,0.258,0.169c0.117,0,0.217-0.069,0.258-0.165
		c0.34-0.499,0.621-0.882,0.834-1.298C28.137,30.718,27.994,30.132,27.418,29.705z"/>
	<path fill="#008BD0" d="M27.662,29.431c-0.463-0.342-0.957-0.333-1.414,0.015c-0.574,0.438-0.686,1.031-0.369,1.646
		c0.213,0.409,0.492,0.785,0.834,1.27c0.039,0.099,0.139,0.169,0.258,0.169c0.117,0,0.217-0.069,0.258-0.165
		c0.34-0.499,0.621-0.883,0.834-1.298C28.381,30.443,28.238,29.858,27.662,29.431z"/>
	<circle fill="#1B1B1B" cx="26.967" cy="30.479" r="0.543"/>
</g>
</svg>
