<?xml version="1.0" encoding="utf-8"?>
<!-- Generator: Adobe Illustrator 16.0.4, SVG Export Plug-In . SVG Version: 6.00 Build 0)  -->
<!DOCTYPE svg PUBLIC "-//W3C//DTD SVG 1.1//EN" "http://www.w3.org/Graphics/SVG/1.1/DTD/svg11.dtd">
<svg version="1.1" id="Layer_1" xmlns="http://www.w3.org/2000/svg" xmlns:xlink="http://www.w3.org/1999/xlink" x="0px" y="0px"
	 width="595.28px" height="425.2px" viewBox="0 0 595.28 425.2" enable-background="new 0 0 595.28 425.2" xml:space="preserve">

  <rect x="10" y="10" width="30" height="30" stroke="black" fill="transparent" stroke-width="5"/>
  <rect x="60" y="10" rx="10" ry="10" width="30" height="30" stroke="black" fill="transparent" stroke-width="5"/>

  <circle cx="25" cy="75" r="20" stroke="red" fill="transparent" stroke-width="5"/>
  <ellipse cx="75" cy="75" rx="20" ry="5" stroke="red" fill="transparent" stroke-width="5"/>

  <line x1="10" x2="50" y1="110" y2="150" stroke="orange" stroke-width="5"/>
  <polyline points="60 110 65 120 70 115 75 130 80 125 85 140 90 135 95 150 100 145"
      stroke="orange" fill="transparent" stroke-width="5"/>

  <polygon points="50 160 55 180 70 180 60 190 65 205 50 195 35 205 40 190 30 180 45 180"
      stroke="green" fill="transparent" stroke-width="5"/>

  <path d="M20,230 Q40,205 50,230 T90,230" fill="none" stroke="blue" stroke-width="5"/>

</svg>
