<?xml version="1.0" encoding="utf-8"?>
<!-- Generator: Adobe Illustrator 16.0.4, SVG Export Plug-In . SVG Version: 6.00 Build 0)  -->
<!DOCTYPE svg PUBLIC "-//W3C//DTD SVG 1.1//EN" "http://www.w3.org/Graphics/SVG/1.1/DTD/svg11.dtd">
<svg version="1.1" id="Layer_1" xmlns="http://www.w3.org/2000/svg" xmlns:xlink="http://www.w3.org/1999/xlink" x="0px" y="0px"
	 width="303.103px" height="274.564px" viewBox="0 0 303.103 274.564" enable-background="new 0 0 303.103 274.564"
	 xml:space="preserve">
<path opacity="0.4" stroke="#3C2415" stroke-width="2" stroke-miterlimit="10" d="M87.597,105.641L0,157.416
	c0,0,157.762,91.816,167.581,97.49c3.982,2.302,1.147,2.678,10.607,7.766c4.255,2.288,85.477-49.547,85.477-49.547
	s-4.366-5.545-12.576-10.91S87.597,105.641,87.597,105.641z"/>
<path fill="#FFFFFF" stroke="#3C2415" stroke-width="2" stroke-miterlimit="10" d="M42.887,152.958
	c0.792,6.21-0.417,14.146,6.156,20.562c3.649,3.562,10.122,6.735,14.425,5.921c4.304-0.813,8.492-3.838,9.073-4.42
	c0.582-0.581,1.847-2.389,1.847-2.389l-3.004-2c0,0-0.522-9.193-4.045-15.139c-3.522-5.947-10.601-12.758-14.855-12.086
	S42.391,149.067,42.887,152.958z"/>
<path fill="#FFFFFF" stroke="#3C2415" stroke-width="2" stroke-miterlimit="10" d="M24.561,55.623
	c-2.199,10.507-5.783,70.619-4.806,71.27c0.978,0.652,26.065,15.639,26.065,15.639s7.819,0.325,11.403,2.606
	c3.584,2.28,7.788,8.153,9.774,10.1c2.001,1.962,92.855,52.129,92.855,52.129s4.235-0.977,10.752,1.955
	c6.516,2.933,10.947,12.311,12.577,12.962c1.629,0.651,32.71,17.664,32.71,17.664l-1.874-30.056l-22.972-56.935
	c0,0-6.479-6.109-14.042-10.509C166.364,136.261,24.561,55.623,24.561,55.623z"/>
<path fill="#FFFFFF" stroke="#3C2415" stroke-width="2" stroke-miterlimit="10" d="M296.042,193.322v-29.287
	c0,0-23.136-59.406-25.953-57.513c-5.227,3.511-21.101,13.437-38.256,23.346c-18.876,10.905-38.908,21.694-38.908,21.694
	s-2.096,0.861-1.394,2.602c0.701,1.74,22.485,55.729,22.485,55.729l1.874,30.056l2.667-1.522l72.74-41.526L296.042,193.322z"/>
<path fill="#FFFFFF" stroke="#3C2415" stroke-width="2" stroke-miterlimit="10" d="M18.859,126.486
	c-1.629,0.163-2.118,4.154-1.629,5.946s24.028,20.526,24.028,20.526h1.629c0,0,5.43-8.552,7.901-8.96s1.697-0.59,1.697-0.59
	s-4.514-0.423-5.98-0.748C45.039,142.334,18.859,126.486,18.859,126.486z"/>
<polygon fill="#FFFFFF" stroke="#3C2415" stroke-width="2" stroke-miterlimit="10" points="156.852,136.761 156.852,167.76 
	186.284,185.854 186.284,154.44 "/>
<polygon fill="#FFFFFF" stroke="#3C2415" stroke-width="2" stroke-miterlimit="10" points="187.772,155.621 187.772,185.854 
	204.493,195.588 "/>
<polygon fill="#FFFFFF" stroke="#3C2415" stroke-width="2" stroke-miterlimit="10" points="184.566,178.41 184.566,187.229 
	188.917,187.229 188.917,189.977 192.925,189.977 192.139,188.396 190.273,187.311 190.52,178.41 "/>
<polygon fill="#FFFFFF" stroke="#3C2415" stroke-width="2" stroke-miterlimit="10" points="157.54,176.578 164.525,181.044 
	164.525,179.212 158.57,175.09 "/>
<path fill="#FFFFFF" stroke="#3C2415" stroke-width="2" stroke-miterlimit="10" d="M73.284,171.998l80.609,46.308
	c0,0,1.248,0.78,1.871,0.78s2.82-0.804,2.82-0.804s4.508-7.929,9.498-8.552c4.988-0.623-6.941-1.65-8.23-2.363
	c-1.289-0.711-92.512-51.873-92.512-51.873s3.605,7.928,3.761,11.826S70.954,170.66,73.284,171.998z"/>
<path fill="#FFFFFF" stroke="#3C2415" stroke-width="2" stroke-miterlimit="10" d="M186.284,237.951l20.016,8.792
	c0,0,7.474,2.491,14.483-0.995c4.885-2.43,65.246-38.576,70.658-40.84c5.413-2.265,7.162-7.478,5.638-11.246
	c-0.699-1.729-5.78,3.237-5.78,3.237l-75.407,43.049l-33.123-17.954c0,0,2.621,5.822,2.621,8.629S186.284,237.951,186.284,237.951z"
	/>
<polygon fill="#FFFFFF" stroke="#3C2415" stroke-width="2" stroke-miterlimit="10" points="214.495,217.539 295.311,170.906 
	295.311,181.044 215.107,227.373 "/>
<polygon fill="#FFFFFF" stroke="#3C2415" stroke-width="2" stroke-miterlimit="10" points="219.379,228.285 219.379,234.209 
	290.634,193.322 290.634,187.289 "/>
<polygon fill="#FFFFFF" stroke="#3C2415" stroke-width="2" stroke-miterlimit="10" points="211.739,230.311 211.739,234.209 
	215.648,236.051 217.508,234.989 217.508,230.311 215.891,231.402 "/>
<polygon fill="#FFFFFF" stroke="#3C2415" stroke-width="2" stroke-miterlimit="10" points="296.042,184.759 292.852,186.945 
	292.862,191.488 296.042,189.52 "/>
<path fill="#FFFFFF" stroke="#3C2415" stroke-width="2" stroke-miterlimit="10" d="M106.257,8.462L24.561,55.623
	c0,0,147.134,83.635,156.292,88.803c3.714,2.098,1.07,2.439,9.893,7.074c3.969,2.084,79.719-45.132,79.719-45.132
	s-4.072-5.05-11.729-9.938C251.078,91.543,106.257,8.462,106.257,8.462z"/>
<path fill="#FFFFFF" stroke="#3C2415" stroke-width="2" stroke-miterlimit="10" d="M194.713,155.621l17.025,39.967
	c0,0,35.104-16.885,39.991-19.983c4.887-3.099,35.513-23.886,35.513-23.886v-2.345l-16.779-37.793L194.713,155.621z"/>
<polygon fill="#FFFFFF" stroke="#3C2415" stroke-width="2" stroke-miterlimit="10" points="19.844,115.494 22.769,116.793 
	23.448,105.797 20.375,104.833 "/>
<polyline fill="#FFFFFF" stroke="#3C2415" stroke-width="2" stroke-miterlimit="10" points="19.589,119.074 19.59,124.504 
	23.102,126.309 23.448,120.703 19.589,118.64 "/>
<path fill="#FFFFFF" stroke="#3C2415" stroke-width="2" stroke-miterlimit="10" d="M161.032,214.234
	c-2.447,3.396-4.477,10.584-1.017,18.946c4.539,10.97,13.63,12.414,14.933,12.632c1.304,0.217,5.966,1.827,9.618-2.518
	c3.651-4.344,1.718-9.086,1.718-9.086s-2.012-15.997-11.344-21.854C165.608,206.498,161.032,214.234,161.032,214.234z"/>
<path fill="#FFFFFF" stroke="#3C2415" stroke-width="2" stroke-miterlimit="10" d="M167.78,217.358
	c2.85-0.528,9.34,3.7,11.295,10.864s0.218,11.074-2.823,11.726c-3.042,0.651-7.603-0.502-10.427-6.768
	C163.002,226.916,161.916,218.445,167.78,217.358z"/>
<path fill="#FFFFFF" stroke="#3C2415" stroke-width="2" stroke-miterlimit="10" d="M52.269,151.611
	c2.849-0.528,9.34,3.7,11.294,10.863c1.955,7.164,0.218,11.074-2.823,11.727c-3.041,0.65-7.603-0.502-10.426-6.768
	C47.49,161.168,46.404,152.697,52.269,151.611z"/>
</svg>
