<?xml version="1.0" encoding="utf-8"?>
<!-- Generator: Adobe Illustrator 16.0.4, SVG Export Plug-In . SVG Version: 6.00 Build 0)  -->
<!DOCTYPE svg PUBLIC "-//W3C//DTD SVG 1.1//EN" "http://www.w3.org/Graphics/SVG/1.1/DTD/svg11.dtd">
<svg version="1.1" xmlns="http://www.w3.org/2000/svg" xmlns:xlink="http://www.w3.org/1999/xlink" x="0px" y="0px" width="64px"
	 height="64px" viewBox="0 0 64 64" enable-background="new 0 0 64 64" xml:space="preserve">
<g id="GreenPin">
	<path id="Outline_2_" fill="#3B3A33" d="M26.605,25.372c0.007-2.407-0.984-4.399-3.149-5.522c-1.413-0.732-0.225-1.877,0.272-2.867
		c0.688-1.372,1.113-2.87,1.214-4.402c0.354-5.409-2.788-9.368-7.471-11.59c-1.31-0.621-2.733-0.928-4.163-0.966V0
		c-0.063,0.002-0.126,0.012-0.189,0.015c-0.025,0-0.051-0.004-0.076-0.004v0.01c-1.34,0.068-2.669,0.375-3.897,0.958
		C4.463,3.2,1.319,7.16,1.675,12.568c0.1,1.533,0.525,3.031,1.214,4.402c0.497,0.99,1.685,2.135,0.272,2.867
		c-2.166,1.123-3.201,3.115-3.15,5.522c0.006,0.275,0.011,0.513,0.016,0.727c-0.006-0.252-0.011-0.501-0.016-0.71
		c0.115,5.464,0.068,10.93,0.074,16.396c0.002,1.11,0.029,2.17,0.738,3.091c0.518,0.672,1.418,0.932,1.873,1.633
		c0.568,0.874,0.478,2.32,0.382,3.666H3.09c-0.037,1.92,0.203,4.568,1.957,5.671c3.144,1.975,8.187,1.562,11.715,1.236
		c3.205-0.293,6.457-1.154,6.829-4.857c0.159-1.59-0.556-4.346,0.329-5.709c0.455-0.701,1.355-0.961,1.873-1.633
		c0.709-0.922,0.736-1.98,0.738-3.092c0.006-5.442,0.07-12.799,0.086-13.83S26.602,26.823,26.605,25.372z"/>
	<path id="Mid_2_" fill="#8CC63F" d="M24.73,42.052c-0.076,2.135-2.619,2.006-2.803,3.914c-0.203,2.123,0.431,4.531-0.211,6.59
		c-0.473,1.516-2.238,1.855-3.595,2.154c-2.831,0.709-5.744,1.029-8.62,0.453c-1.069-0.215-3.538-0.447-4.308-1.303
		c-0.762-0.849-0.584-2.564-0.588-3.705c0.008-1.406,0.21-2.857,0.082-4.196c-0.184-1.907-2.727-1.779-2.802-3.913
		c0.018,0.522-0.017-0.458-0.046-1.292c-0.041-1.168-0.04-1.15-0.024-0.707c-0.124-3.479-0.236-6.959-0.167-10.441
		c0.055-2.717-0.377-6.167,2.865-7.913c1.51-0.908,3.57-1.473,1.535-3.885c-1.648-1.954-2.557-4.483-2.404-7.009
		c0.262-4.325,3.854-8.261,8.164-8.848c0.416-0.057,0.826-0.07,1.233-0.067v0.016c0.579-0.035,1.168-0.018,1.765,0.063
		c4.31,0.586,7.901,4.523,8.163,8.848c0.152,2.525-0.645,5.154-2.403,7.009c-1.589,1.679,0.024,2.977,1.535,3.885
		c3.326,2.078,2.811,5.196,2.864,7.913C25.051,33.761,24.876,37.907,24.73,42.052z"/>
	<path id="Low_2_" fill="#009245" d="M24.73,42.066c0.045-1.247,0.068-1.887,0.077-2.144c0-0.013,0-0.028,0.001-0.04
		c0.004-0.145,0.004-0.123,0,0c-0.001,0.012-0.001,0.025-0.001,0.04c-0.015,0.405-0.058,1.591-0.074,2.077
		c0.146-4.123,0.316-8.247,0.235-12.373c-0.055-2.717,0.504-6.971-2.865-7.914c-0.318-0.191-0.64-0.401-0.936-0.627
		c-0.013-0.004-0.023-0.008-0.035-0.012c-0.022-0.021-0.041-0.043-0.064-0.064c-1.054-0.835-1.717-1.896-0.5-3.182
		c1.758-1.854,2.557-4.483,2.403-7.009c-0.143-2.366-1.288-4.611-2.995-6.26c0.055,0.303,0.085,0.62,0.219,0.884
		c2.779,5.525-2.682,14.146-10.208,13.358c-0.881-0.092-3.486-1.431-4.365-1.537c0.557,0.375,1.317,1.533,1.271,2.396
		c-0.244,1.033-1.614,1.654-1.819,1.717c2.979,1.049,12.388,1.439,15.48,0.353c1.161,1.455,3.037,2.887,1.589,4.195
		c-1.074,0.971-1.461,2.417-1.517,3.91c-0.163,4.345-0.299,8.695-0.556,13.035c-0.155,2.631-1.01,3.527-3.671,4.033
		c-3.255,0.618-6.525,0.473-9.786-0.033c-0.234,0.22-0.316,0.488-0.248,0.802c3.568,0.38,7.139,0.586,10.712,0.077
		c1.204-0.172,1.613,0.34,1.528,1.497c-0.131,1.785-0.193,3.573-0.285,5.361c1.034-0.229,1.797-0.447,2.359-0.737
		c0.474-0.3,0.854-0.71,1.038-1.299c0.642-2.059,0.008-4.468,0.212-6.591c0.037-0.381,0.17-0.679,0.357-0.932
		c0.09-0.161,0.225-0.301,0.409-0.434C23.511,43.916,24.681,43.504,24.73,42.066z"/>
	<g id="High_2_">
		<circle fill="#FCEE21" cx="10.19" cy="8.089" r="3.125"/>
		<path fill="#FCEE21" d="M8.665,50.299c0.003-0.521,0.027-0.906,0.054-1.25c-0.542-0.026-1.813,0.014-2.548-0.271
			c-0.003,0.091-0.006,0.176-0.007,0.278c0.004,1.141-0.174,2.856,0.588,3.705c0.398,0.443,1.254,0.718,2.134,0.91
			C8.566,52.668,8.668,51.29,8.665,50.299z"/>
		<path fill="#FCEE21" d="M5.873,39.744c-0.001-0.031-0.002-0.063-0.003-0.098c-0.006-0.2-0.006-0.186-0.001-0.042
			c-0.122-3.717-0.229-5.655-0.161-9.446c0.045-2.448-0.232-5.434,1.403-7.505c-0.34,0.193-0.702,0.378-1.039,0.581
			c-3.242,1.746-2.811,5.196-2.865,7.913c-0.068,3.438-0.02,3.433,0.103,6.817c0.005,0.148,0.033,0.869,0.048,1.291
			c0.029,0.834,0.071,2.022,0.054,1.5c0.027,0.772,0.413,2.149,0.857,2.533H4.27c0.482,0.008,1.736,0.688,1.667-1.529
			c-0.01-0.315-0.023-0.756-0.037-1.172C5.886,40.183,5.878,39.917,5.873,39.744z"/>
	</g>
</g>
<g id="BluePin">
	<path id="Mid_1_" fill="#3FA2C6" d="M24.728,42.052c-0.076,2.135-2.619,2.006-2.803,3.914c-0.203,2.123,0.43,4.531-0.211,6.59
		c-0.473,1.516-2.238,1.855-3.596,2.154c-2.83,0.709-5.744,1.029-8.619,0.453c-1.07-0.215-3.539-0.447-4.309-1.303
		c-0.762-0.849-0.584-2.564-0.588-3.705c0.008-1.406,0.211-2.857,0.082-4.196c-0.184-1.907-2.727-1.779-2.801-3.913
		c0.018,0.522-0.018-0.458-0.047-1.292c-0.041-1.168-0.039-1.15-0.023-0.707c-0.125-3.479-0.236-6.959-0.168-10.441
		c0.055-2.717-0.377-6.167,2.865-7.913c1.51-0.908,3.57-1.473,1.535-3.885c-1.648-1.954-2.557-4.483-2.404-7.009
		c0.262-4.325,3.854-8.261,8.164-8.848c0.416-0.057,0.826-0.07,1.234-0.067v0.016c0.578-0.035,1.168-0.018,1.764,0.063
		c4.311,0.586,7.902,4.523,8.164,8.848c0.152,2.525-0.645,5.154-2.404,7.009c-1.588,1.679,0.025,2.977,1.535,3.885
		c3.326,2.078,2.811,5.196,2.865,7.913C25.048,33.761,24.873,37.907,24.728,42.052z"/>
	<path id="Low_1_" fill="#005092" d="M24.728,42.066c0.045-1.247,0.068-1.887,0.076-2.144c0-0.013,0-0.028,0.002-0.04
		c0.004-0.145,0.004-0.123,0,0c-0.002,0.012-0.002,0.025-0.002,0.04c-0.014,0.405-0.057,1.591-0.074,2.077
		c0.146-4.123,0.316-8.247,0.236-12.373c-0.055-2.717,0.504-6.971-2.865-7.914c-0.318-0.191-0.641-0.401-0.936-0.627
		c-0.014-0.004-0.023-0.008-0.035-0.012c-0.023-0.021-0.041-0.043-0.064-0.064c-1.055-0.835-1.717-1.896-0.5-3.182
		c1.758-1.854,2.557-4.483,2.402-7.009c-0.143-2.366-1.287-4.611-2.994-6.26c0.055,0.303,0.084,0.62,0.219,0.884
		c2.779,5.525-2.682,14.146-10.209,13.358c-0.881-0.092-3.486-1.431-4.365-1.537c0.557,0.375,1.318,1.533,1.271,2.396
		c-0.244,1.033-1.615,1.654-1.82,1.717c2.98,1.049,12.389,1.439,15.48,0.353c1.162,1.455,3.037,2.887,1.59,4.195
		c-1.074,0.971-1.461,2.417-1.518,3.909c-0.162,4.346-0.299,8.695-0.555,13.035c-0.156,2.631-1.01,3.527-3.672,4.033
		c-3.254,0.618-6.525,0.473-9.785-0.033c-0.234,0.22-0.316,0.488-0.248,0.802c3.568,0.38,7.139,0.586,10.711,0.077
		c1.205-0.172,1.613,0.34,1.529,1.497c-0.131,1.785-0.193,3.573-0.285,5.361c1.033-0.229,1.797-0.447,2.359-0.737
		c0.473-0.3,0.854-0.71,1.037-1.299c0.643-2.059,0.008-4.468,0.213-6.591c0.037-0.381,0.17-0.679,0.357-0.932
		c0.09-0.161,0.225-0.301,0.408-0.434C23.507,43.916,24.677,43.504,24.728,42.066z"/>
	<g id="High_1_">
		<circle fill="#21F1FC" cx="10.187" cy="8.089" r="3.125"/>
		<path fill="#21F1FC" d="M8.662,50.299c0.004-0.521,0.027-0.906,0.055-1.25c-0.543-0.026-1.814,0.014-2.549-0.271
			c-0.002,0.091-0.006,0.176-0.006,0.278c0.004,1.141-0.174,2.856,0.588,3.705c0.398,0.443,1.254,0.718,2.133,0.91
			C8.564,52.668,8.666,51.29,8.662,50.299z"/>
		<path fill="#21F1FC" d="M5.867,39.646c-0.121-3.746-0.23-5.683-0.162-9.488c0.045-2.448-0.232-5.434,1.404-7.505
			c-0.34,0.193-0.703,0.378-1.039,0.581c-3.242,1.746-2.811,5.196-2.865,7.913c-0.068,3.438-0.02,3.433,0.102,6.817
			c0.006,0.148,0.033,0.869,0.049,1.291c0.029,0.834,0.07,2.022,0.053,1.5c0.027,0.772,0.414,2.149,0.857,2.533h0.002
			c0.482,0.008,1.736,0.688,1.666-1.529c-0.01-0.315-0.023-0.756-0.037-1.172C5.88,40.106,5.873,39.809,5.867,39.646z"/>
	</g>
</g>
<g id="RedPin">
	<path id="Mid" fill="#C63F77" d="M24.732,42.051c-0.076,2.135-2.619,2.006-2.803,3.914c-0.203,2.123,0.43,4.531-0.211,6.59
		c-0.473,1.516-2.239,1.855-3.596,2.154c-2.83,0.709-5.744,1.029-8.619,0.453c-1.07-0.215-3.539-0.447-4.309-1.303
		c-0.762-0.848-0.584-2.564-0.588-3.705c0.008-1.406,0.211-2.857,0.082-4.195c-0.184-1.908-2.727-1.779-2.801-3.914
		c0.018,0.523-0.018-0.457-0.047-1.291c-0.041-1.168-0.039-1.15-0.023-0.707c-0.125-3.479-0.236-6.959-0.168-10.442
		c0.055-2.717-0.377-6.167,2.865-7.913c1.51-0.908,3.57-1.473,1.535-3.885c-1.648-1.954-2.557-4.483-2.404-7.009
		C3.908,6.473,7.5,2.537,11.81,1.95c0.416-0.057,0.826-0.07,1.234-0.067v0.016c0.578-0.035,1.168-0.018,1.764,0.063
		c4.311,0.586,7.903,4.523,8.165,8.848c0.152,2.525-0.645,5.154-2.404,7.009c-1.588,1.679,0.025,2.977,1.535,3.885
		c3.326,2.078,2.811,5.196,2.865,7.913C25.053,33.76,24.877,37.906,24.732,42.051z"/>
	<path id="Low" fill="#92003D" d="M24.732,42.066c0.045-1.248,0.068-1.887,0.076-2.145c0-0.012,0-0.027,0.002-0.039
		c0.004-0.145,0.004-0.123,0,0c-0.002,0.012-0.002,0.025-0.002,0.039c-0.014,0.406-0.057,1.592-0.074,2.078
		c0.146-4.123,0.316-8.248,0.236-12.374c-0.055-2.717,0.504-6.971-2.865-7.914c-0.318-0.191-0.641-0.401-0.936-0.627
		c-0.014-0.004-0.023-0.008-0.035-0.012c-0.023-0.021-0.041-0.043-0.064-0.064c-1.055-0.835-1.717-1.896-0.5-3.182
		c1.758-1.854,2.557-4.483,2.402-7.009c-0.143-2.366-1.287-4.611-2.995-6.26c0.055,0.303,0.084,0.62,0.219,0.884
		c2.779,5.525-2.682,14.146-10.209,13.358c-0.881-0.092-3.486-1.431-4.365-1.537c0.557,0.375,1.318,1.533,1.271,2.396
		c-0.244,1.033-1.615,1.654-1.82,1.717c2.98,1.049,12.389,1.439,15.481,0.353c1.162,1.455,3.037,2.887,1.59,4.195
		c-1.074,0.971-1.461,2.417-1.518,3.909c-0.162,4.346-0.299,8.696-0.555,13.036c-0.157,2.631-1.01,3.527-3.672,4.033
		c-3.254,0.617-6.525,0.473-9.785-0.033c-0.234,0.219-0.316,0.488-0.248,0.801c3.568,0.381,7.139,0.586,10.711,0.078
		c1.205-0.172,1.613,0.34,1.529,1.496c-0.131,1.785-0.193,3.574-0.285,5.361c1.033-0.229,1.797-0.447,2.36-0.736
		c0.473-0.301,0.854-0.711,1.037-1.299c0.643-2.059,0.008-4.469,0.213-6.592c0.037-0.381,0.17-0.678,0.357-0.932
		c0.09-0.16,0.225-0.301,0.408-0.434C23.512,43.916,24.682,43.504,24.732,42.066z"/>
	<g id="High">
		<circle fill="#FCA6C1" cx="10.191" cy="8.088" r="3.125"/>
		<path fill="#FCA6C1" d="M8.666,50.299c0.004-0.521,0.027-0.906,0.055-1.25c-0.543-0.027-1.814,0.014-2.549-0.271
			c-0.002,0.092-0.006,0.176-0.006,0.279c0.004,1.141-0.174,2.855,0.588,3.705c0.398,0.443,1.254,0.717,2.133,0.91
			C8.568,52.668,8.669,51.289,8.666,50.299z"/>
		<path fill="#FCA6C1" d="M5.871,39.646C5.75,35.9,5.64,33.963,5.708,30.158c0.045-2.448-0.232-5.434,1.404-7.505
			c-0.34,0.193-0.703,0.378-1.039,0.581c-3.242,1.746-2.811,5.196-2.865,7.913c-0.068,3.437-0.02,3.433,0.102,6.818
			c0.006,0.148,0.033,0.869,0.049,1.291c0.029,0.834,0.07,2.021,0.053,1.5c0.027,0.771,0.414,2.148,0.857,2.533h0.002
			c0.482,0.008,1.736,0.688,1.666-1.529c-0.01-0.316-0.023-0.756-0.037-1.172C5.884,40.105,5.876,39.809,5.871,39.646z"/>
	</g>
</g>
</svg>
