<?xml version="1.0" encoding="utf-8"?>
<!-- Generator: Adobe Illustrator 16.0.4, SVG Export Plug-In . SVG Version: 6.00 Build 0)  -->
<!DOCTYPE svg PUBLIC "-//W3C//DTD SVG 1.1//EN" "http://www.w3.org/Graphics/SVG/1.1/DTD/svg11.dtd">
<svg version="1.1" id="Layer_1" xmlns="http://www.w3.org/2000/svg" xmlns:xlink="http://www.w3.org/1999/xlink" x="0px" y="0px"
	 width="841.89px" height="595.28px" viewBox="0 0 841.89 595.28" enable-background="new 0 0 841.89 595.28" xml:space="preserve">
<g id="Blip">
	<path fill-rule="evenodd" clip-rule="evenodd" d="M45.823,73.933C18.19,56.729-0.921,68.636-27.483,56.017
		c-1.242,0.136-26.108,16.531-26.625,4.563c-1.488-34.368,2.213-63.916-15.071-94.294c40.444,3.314,53.56-58.803,90.785-55.62
		c-13.536,18.505-3.834,32.278,8.697,47.49c15.959,19.392,37.111-26.329,25.304,25.063C51.082,2.926,55.273,62.313,45.823,73.933z"
		/>
	<path fill-rule="evenodd" clip-rule="evenodd" fill="#C2376B" d="M45.205,2.564c3.243-0.468,5.718,31.402-15.543,35.319
		c27.112,0.783,14.231,18.65,13.499,29.266c-5.865-3.225-21.467-11.253-15.474-17.56c-35.248,17.56-81.004,2.204-80.155-41.432
		c0.863-44.395,35.537-73.377,69.673-94.662C3.848-60.807,27.125-52.484,29.109-29.543c12.675,0.812,17.483-8.701,27.664-9.796
		C53.549-25.2,48.455-11.568,45.205,2.564C45.169,2.57,47.953-9.386,45.205,2.564z"/>
	<path fill-rule="evenodd" clip-rule="evenodd" fill="#9E1F63" d="M-44.36-34.424c-3.858,7.241-6.968,14.791-9.33,22.65
		c-3.797-7.032-6.533-11.813-10.268-18.879"/>
	<path fill-rule="evenodd" clip-rule="evenodd" fill="#9E1F63" d="M-37.914,57.857c-6.446,2.545-3.917,2.545-12.966,4.85
		c0-8.745,0-17.49,0-26.235C-44.36,47.087-34.56,51.987-37.914,57.857z"/>
	<path fill-rule="evenodd" clip-rule="evenodd" fill="#9E1F63" d="M29.662,39.894C-51.992,62.854-27.369-46.078,12.021-80.653
		C-16.896-63.334-60.013-18.03-49.114,19.314C-38.822,54.576,5.055,65.785,29.662,39.894C16.126,43.7,28.9,40.695,29.662,39.894z"/>
	<g>
		<path fill-rule="evenodd" clip-rule="evenodd" d="M24.944-2.416C14.895-30.36,3.137-2.782,12.364,5.023
			C23.578,14.506,19.286-0.359,24.944-2.416C23.445-6.584,24.589-2.287,24.944-2.416z"/>
		<path fill-rule="evenodd" clip-rule="evenodd" d="M-26.6-15.054c-3.611,3.484-11.953,25.49,2.586,22.607
			C-13.252,5.419-20.098-21.325-26.6-15.054C-29.539-12.218-24.863-16.729-26.6-15.054z"/>
	</g>
</g>
<g id="Pipe">
	<path d="M-92.547-101.873h-0.075c-2.845,0.001-5.101,0.824-6.707,2.444c-1.672,1.688-2.506,4.122-2.479,7.236
		c0.115,13.393,0.062,26.854,0.004,38.42c-0.016,3.145,0.78,5.482,2.434,7.146c1.661,1.672,4.014,2.486,7.192,2.489
		c1.943,0.002,4.33,0.005,5.123,0.252c0.248,0.793,0.25,3.177,0.253,5.487c0,0.498,0.027,88.467-0.007,132.366l-0.003,0.523
		c-0.014,1.779-0.032,3.994,1.619,5.658c1.15,1.159,2.798,1.723,5.039,1.723c0.106,0,0.215-0.001,0.326-0.004
		c14.291-0.316,118.475-0.332,139.215-0.332c5.298,0,9.694,0.001,12.896,0.002l8.871-0.023c0.378,0.048,0.739,0.071,1.075,0.071
		c0.362,0,0.696-0.027,1.004-0.078h0.006v-0.001c1.365-0.224,2.212-0.883,2.707-1.452c1.392-1.604,1.105-3.619,0.934-4.822
		c-0.029-0.21-0.075-0.527-0.076-0.637c0.1-44.849,0.121-135.455,0.121-136.081c-0.001-1.771,0.243-2.52,0.354-2.769
		c0.238-0.033,0.657-0.033,0.835-0.033h0.147l0.155,0.001c0.16,0,0.318-0.001,0.475-0.005c0.076-0.001,0.154-0.002,0.234-0.002
		c0.457,0,1,0.023,1.573,0.048c0.694,0.03,1.411,0.062,2.154,0.062c2.133,0,4.812-0.238,6.612-2.102
		c0.767-0.794,1.666-2.213,1.589-4.464l-0.011-0.312c0.067-0.898,0.107-2.229,0.172-4.299c0.09-2.938,0.188-6.922,0.278-11.219
		c0.216-10.363,0.333-20.146,0.312-26.172c-0.019-5.474-3.724-9.03-9.44-9.062C91.875-101.813-90.815-101.873-92.547-101.873
		L-92.547-101.873z"/>
	<path fill="#262262" d="M98.806-92.738c-0.013-3.952-2.497-6.051-6.456-6.072c-0.366-0.002-183.181-0.063-184.972-0.062
		c-4.237,0.002-6.224,2.268-6.186,6.654c0.11,12.819,0.069,25.641,0.004,38.462c-0.023,4.561,1.984,6.615,6.629,6.62
		c8.364,0.01,8.364,0.133,8.373,8.736c0.001,0.832,0.027,89.08-0.007,132.371c-0.002,2.822-0.316,4.993,3.914,4.899
		c14.644-0.324,125.409-0.342,152.18-0.331c3.023-0.008,6.048-0.016,9.07-0.024l0.001-0.001c0,0,0,0.001,0.001,0.001
		c3.777,0.569,2.443-2.343,2.447-3.923c0.099-44.537,0.121-135.324,0.121-136.074c-0.004-6.334,2.672-5.759,4.902-5.807
		c3.333-0.071,9.384,1.181,9.229-3.357c-0.017-0.037-0.035-0.067-0.052-0.103C98.194-50.942,98.854-78.936,98.806-92.738z"/>
	<path fill-rule="evenodd" clip-rule="evenodd" fill="#1C75BC" d="M98.674-64.258c0.082-9.492,0.159-18.984,0.127-28.477
		c-0.014-3.952-2.498-6.051-6.457-6.072c-0.957-0.006-144.206-0.066-144.206-0.066c-5.773,0.008-11.545,0.101-17.317,0.363
		c1.631,3.491,4.704,4.385,8.132,4.187c3.306-0.19,4.461,1.146,4.253,4.368c-0.744,11.55,2.854,22.639,3.693,34.007
		c0.317,4.304,2.237,4.675,5.656,4.649c0.417-0.003,0.833,0.003,1.25,0.001l144.306-1.139L98.674-64.258z"/>
	<path fill-rule="evenodd" clip-rule="evenodd" fill="#1C75BC" d="M79.149-14.001c-0.018-3.869-0.553-7.77-2.468-11.495
		c-4.847-9.433-22.804-11.893-33.46-13.388s-13.006-1.093-29.612,0.55s-27.754,3.898-42.106,14.353
		c-4.148,3.021-10.75,10.416-11.417,16.25c-0.666,5.825-0.062,12.172-0.103,17.785c-0.216,29.621,1.738,59.204,1.188,88.819
		c9.307-0.03,18.614-0.06,27.921-0.09c26.77,0.011,53.542,0.021,80.311,0.031c3.024-0.008,6.049-0.016,9.071-0.024
		c0.269-1.455,0.774-2.91,0.775-4.365C79.278,58.283,79.313,22.141,79.149-14.001z"/>
	<path fill-rule="evenodd" clip-rule="evenodd" fill="#27AAE1" d="M31.762-39.447c7.248-0.05,23.318,2.662,27.858,8.546
		c6.827,8.848,10.491,18.363,10.304,29.907c-0.494,30.432-0.148,60.876-0.193,91.316c-0.004,2.769,0.527,5.718-1.629,8.085
		c-26.771-0.011-53.541-0.021-80.312-0.031c-1.693-1.737-1.513-3.971-1.577-6.117c-0.954-32.132-0.919-64.273-1.181-96.413
		c-0.09-11.08,4.781-18.458,11.257-26.421C4.442-40.019,14.815-38.453,31.762-39.447z"/>
	<path fill-rule="evenodd" clip-rule="evenodd" fill="#27AAE1" d="M84.753-96.603c-0.99-2.158-2.971-1.985-4.854-2.212
		c0,0-1.804,0.021-2.062-0.001L-25.609-98.71c-1.227,0.017-2.454,0.193-3.682,0.452c-1.518,2.244-0.484,3.545,1.771,4.355
		c1.253,0.449,2.594,0.484,3.905,0.659c5.909,0.791,6.309,1.21,6.445,6.867c0.223,9.218,1.416,18.394,1.117,27.636
		c-0.075,2.313-0.087,4.907,2.848,6.058c0.865-0.001,59.891,0.34,85.824,0.34c7.35,0,7.78-0.357,7.877-7.556
		c0.121-9.101-0.047-18.204,0.086-27.306c0.027-1.884-0.175-3.866,1.423-5.408C83.215-93.779,85.72-94.498,84.753-96.603z"/>
	<g>
		<rect x="-86.397" y="-46.805" width="172.65" height="3"/>
	</g>
</g>
</svg>
