<?xml version="1.0" encoding="utf-8"?>
<!-- Generator: Adobe Illustrator 26.5.0, SVG Export Plug-In . SVG Version: 6.00 Build 0)  -->
<svg version="1.1" xmlns="http://www.w3.org/2000/svg" xmlns:xlink="http://www.w3.org/1999/xlink" x="0px" y="0px"
	 viewBox="0 0 1920 1080" style="enable-background:new 0 0 1920 1080;" xml:space="preserve">
<style type="text/css">
	.st0{fill:#4D4D4D;}
	.st1{fill:none;stroke:#00FF00;stroke-miterlimit:10;}
	.st2{fill:#C5895C;}
	.st3{fill:#AD744B;}
	.st4{fill:#D9AC79;}
	.st5{fill:#B47E55;}
	.st6{fill:#E3C3A6;}
	.st7{fill:#BE8C60;}
	.st8{opacity:0.31;fill:#B2B2B2;enable-background:new    ;}
	.st9{opacity:0.82;fill:#CBCBCB;enable-background:new    ;}
	.st10{fill:#F1F1F1;}
	.st11{opacity:0.72;fill:#989898;enable-background:new    ;}
	.st12{opacity:0.28;fill:#333333;enable-background:new    ;}
	.st13{fill:#855B3A;}
	.st14{fill:#A3704C;}
	.st15{fill:#9C663D;}
	.st16{fill:#603813;}
	.st17{fill:#42210B;}
</style>
<g id="Grid">
	<g id="Grid_00000081641746628707114180000009630986986921684898_">
		<rect x="0" y="-0.1" class="st0" width="64" height="64"/>
		<line class="st1" x1="32" y1="-2.4" x2="32" y2="66.6"/>
		<line class="st1" x1="-3.9" y1="31.9" x2="71.6" y2="31.9"/>
	</g>
</g>
<g id="TurnDownLeft">
	<path id="Outline_00000031926178103493336970000010772894846199086489_" d="M9.2,19.6H9H1.3H0.8v0.5v23.7v0.5h0.5l7.9,0l1.7-2.1
		c2.4,0,6.7,0,7.3,0.1c2.3,0.1,2.8,1.2,2.9,1.4c0,0.8,0,9.1,0,12.7c-1.9,1-2.1,2.3-2.1,2.3v0v0v7.7c0,0.2,0.1,4.6,12.9,4.6
		c6.3,0,12.9-1.6,12.9-4.6v-7.7c0-0.1-0.4-1.7-2.5-2.3l-0.2-12.6v-0.7c0-9.4-0.1-20-26.5-22.1h-5.1l-1.4-1.4L9.2,19.6L9.2,19.6z"/>
	<g id="Pipe">
		<path class="st2" d="M41.8,43.9c0-9.5,0.6-20.2-26-22.3l0,0h-5.6v20.1v0h5.6l0,0c2.5,0,4.7,0.1,5.5,1.2c0.2,0.3,0.3,0.6,0.4,1
			v11.6l20.2,0.2L41.8,43.9L41.8,43.9z"/>
		<path class="st3" d="M16.1,23.7c7.3,0.6,19.2,4.9,19.5,20.1v11.6h5.2V43.9C42,23.4,22.3,23.9,16.1,23.7z"/>
		<path class="st4" d="M15.8,23.7h-5.6v6h5.6c6.2,0.6,9.7,5.1,10,14.1v11.6h6V43.9C31.8,29.5,23.3,23.7,15.8,23.7z"/>
		<path class="st5" d="M15.8,32.8h-5.6v5.1h5.6c5.9,0.4,7.3,1.5,8,2.9C23.9,36.1,17.8,32.8,15.8,32.8z"/>
		<path class="st6" d="M30.1,43.9c0.2-14.6-8.8-19-14.4-19l-5.6,0.1v3.5h5.6c6.5,0.2,12.1,6.5,12.1,15.5l0,0v11.6h2.2L30.1,43.9
			L30.1,43.9z"/>
		<path class="st3" d="M23.8,55.5l0-11.6c0-2.5-2.9-3.3-8-3.5h-5.6v1.3h5.6c0,0,4.4-0.2,5.6,1.4c0.1,0.2,0.2,0.5,0.3,0.8l0,12.6
			L23.8,55.5z"/>
	</g>
</g>
<g id="TurnDownRight">
	<path id="Outlinef_00000116917768039837002550000011534736510909262013_" d="M33.1,71c-9.8,0.3-12.6-2.4-12.6-2.4
		c-1-0.7-1.5-1.4-1.5-2.2v-7.7c0.1-0.7,0.7-1.9,2-2.3L21.1,35c0-7.1,7.2-13.4,15.3-13.4h0c1.9-0.2,9.9-0.2,14.5-0.2
		c1.3,0,2.3,0,2.7,0l1.8-1.8l8.4,0v24.7l-8.4-0.1l-2-1.7h-7.4c-2.1,0.2-3.5,2-3.9,3.6c0,0.3,0,6,0.1,10.1c2.2,1.1,2.5,2.6,2.5,2.6
		v7.7C44.9,68.9,39.6,71,33.1,71z M83,30.8l-0.8-0.4l0,0l0,0l0.9,0.4l0,0l0,0.1L83,30.8z"/>
	<g id="RightTurnDown">
		<g id="Pipe_00000074412545110487741850000003460793748533917631_">
			<path class="st7" d="M56.9,21.9H41.1c-1.9,0-19.8-0.7-19.4,15.6h0v19.7h20.1c0-0.3,0-10.3,0-10.6c0-1.3,0.9-4.3,4.2-4.6
				c0.2,0,10.8,0,11,0C56.9,35.3,56.9,28.6,56.9,21.9z"/>
			<path class="st5" d="M56.9,37.5l-10.8-0.2c-2.8,0.3-5.8,3.3-5.8,4.9c-0.7-3.7-3.7-8.6,4.8-9.6l11.8-0.3
				C56.9,32.4,56.9,37.5,56.9,37.5z"/>
			<path class="st5" d="M56.9,41.9H46.5c-2.9,0.2-4.2,1.8-4.7,4c0-3,1.1-5,4.1-5.3h11L56.9,41.9L56.9,41.9z"/>
			<path class="st4" d="M41.1,24c-11.6-0.2-15.2,5.3-15.3,13.4l0,0v19.7h6V37.4l0,0c0.2-4.8,2.8-7.6,9.3-7.4h15.9v-6
				C56.9,24,41.1,24,41.1,24z"/>
			<path class="st6" d="M41.1,25.2L41.1,25.2c-9.2,0-13.2,4.4-13.3,12.2v19.7h2.2V37.4c0-5.3,3-8.7,11-8.8h15.9v-3.4H41.1z"/>
			<path class="st3" d="M50.7,32.4c-16.7,0-15,7.2-15.5,10.9l0,6.1l0,7.7h5.5l-0.5-16.6C40.1,32.4,49,33.7,50.7,32.4z"/>
			<path class="st2" d="M41.7,37.6"/>
			<path class="st3" d="M36.4,22.1c-8.1,0-14.8,6.3-14.8,12.9l0,13.9l0,8.2H24l-0.3-13.8C22.5,23.4,34.7,23.3,36.4,22.1z"/>
		</g>
	</g>
</g>
<g id="TurnUpRight">
	<path id="Outline_00000036210739606520734860000002435553115422183573_" d="M32-0.5C19.1-0.3,19.1,3.7,19.1,3.7v7.5l2.4,1.4v15.6
		c0.6,6.9,8.9,14.3,15.8,14.3c0.1,0,16.3,0,16.3,0l2.2,1.7l8.2,0V19.5h-8.4l-1.9,1.8c0,0-7.1,0-7.2,0c-2.3,0-3.5-1.1-3.9-3.3
		c-0.1-1.1,0-5.6,0-5.6l2.5-0.8c0,0-0.1-7.9-0.1-8c-0.2-0.7-0.8-1.4-1.8-2c-1.5-0.8-3.8-1.5-6.6-1.8c-1.4-0.2-2.8-0.2-4.3-0.3
		L32-0.5L32-0.5L32-0.5z"/>
	<g id="Pipe_00000074422229040898110320000002160454760197850527_">
		<path class="st5" d="M54.5,21.7h-7.7c-3,0.1-4.8-1.5-4.8-5.3l0.1-6L22,9.3v18.8c0.6,6.8,9.1,14,15.5,13.8h4.3h12.6v-9.6L54.5,21.7
			L54.5,21.7z"/>
		<path class="st7" d="M41.8,21.7c-3.5,0-6.3-1.4-6.2-4V9.3H24.1V21c0.8,7.5,7.5,10.7,17.7,11.3h12.6V21.7H41.8z"/>
		<path class="st4" d="M42.8,23.8c-7.3,0.1-10.6-3-10.7-4.8l0-9.8h-6V21c0.5,4.5,3.2,8.3,15.7,8.9h12.6v-6L42.8,23.8L42.8,23.8z"/>
		<path class="st2" d="M45.8,21.7C41.3,20.8,42,19.9,42,9.3h-1.3v8.1C40.4,19.3,40.7,22,45.8,21.7z"/>
		<path class="st3" d="M41.8,25"/>
		<path class="st6" d="M41.8,25c-6.5-0.3-11.1-1.3-11.4-4.1V9.3h-2.2V21c0,4,4.1,7.3,13.7,7.5h12.6V25L41.8,25L41.8,25z"/>
		<path class="st7" d="M22.5,21.1c0.4,7.4,5.7,14.7,13.9,15.4l17.8,0.9l-0.3,3.1l-14.2-0.4C30.5,40.5,21.8,31.5,22.5,21.1z"/>
	</g>
</g>
<g id="TurnUpLeft">
	<path id="Outline" d="M0.8,44.2V19.5h8.4l1.8,1.7c0,0,7.1-0.3,7.1-0.3c2,0.1,3.1-1.9,3.1-2.3l0-6.1l-2.2-0.9l0.2-8.3
		c0.5-1.4,2.9-3.7,12.9-3.7c11.8,0,12.8,2.9,12.8,4.2c-0.1,7.7,0,7.7-0.1,7.8l-0.4,0.1c-0.1,0-1,0.3-1.9,0.8l-0.1,11.7
		c-0.9,7.6-3.4,11.5-12.6,16.4c-3.7,2.2-11.9,2.3-18.6,1.9c-0.3,0-2.1,1.7-2.1,1.7H0.8z"/>
	<g id="LeftTurnUp">
		<path class="st2" d="M24,9v8.9c0,1.8-2.1,3.6-5,3.8l-9.5,0L9.1,41.9l10.6,0c9.3,0.1,21.3-6.5,22-17.9l0.2-5V9H24z"/>
		<path class="st3" d="M38.7,32.5c-1.8,2.5-7,7.5-19.7,7.7h-9v1.6v0h9C33.6,41.5,38.7,32.5,38.7,32.5z"/>
		<path class="st3" d="M21.9,9.2v9c-0.1,1.6-1.2,3-3.7,3.5c3.6,0.1,5.7-1.2,5.8-3.8V9.2C24,9.2,21.9,9.2,21.9,9.2z"/>
		<path class="st4" d="M26,9v10c-0.2,2.9-2.2,4.6-7,4.6h-9v6h9c7.7-0.1,12.6-3.1,13-10.6V9H26z"/>
		<path class="st6" d="M28,9v10c0,3.5-2.4,5.7-9,5.8h-9v3.5h9C26.2,28,30,25,30.3,19V9H28z"/>
		<path class="st3" d="M35.5,9v10C35,36,10,32.7,10,32.7v4.4v0.7c0,0,30.2,3.7,30.6-18.8V9H35.5z"/>
	</g>
</g>
<g id="Vertical_00000162337140494556094580000012650776746242132136_">
	<path id="Outline_00000129919755177605366960000005285802626741895054_" d="M32,71c-1.8,0-3.5-0.1-5.1-0.4
		c-5.4-0.7-7.9-2.7-7.9-4.2l0-7.7c0.2-1,1.2-1.9,2.3-2.3l0-43.9l-2.4-1l0-7.8c0.2-1.1,1.6-3.6,10.9-4.1c0.6,0,1.3-0.1,2-0.1
		c10.8,0.1,12.6,2.8,12.9,4l0,0.1l0.1,8l-2.4,0.9l0,43.9c1.9,0.9,2.3,2.2,2.3,2.2l0,0.1v7.8C44.9,69.4,38.3,71,32,71z"/>
	<g id="Pipe_00000098195254799671705360000003582013225832324763_">
		<polygon class="st3" points="21.9,9.6 42,9.6 41.8,57.2 21.7,57.2 		"/>
		<polygon class="st7" points="24,9.6 35.5,9.6 35.3,57.2 23.8,57.2 		"/>
		<polygon class="st4" points="26.1,9.6 32.1,9.6 31.8,57.2 25.8,57.2 		"/>
		<polygon class="st6" points="28.1,9.6 30.3,9.6 30.1,57.2 27.8,57.2 		"/>
		<polygon class="st2" points="40.7,9.6 42,9.6 41.7,57.2 40.5,57.2 		"/>
	</g>
</g>
<g id="Horizontal">
	<polygon id="Outline_00000131355545563815608050000009022421112373770649_" points="55.5,44.2 53.3,42.4 10.9,42.5 9.1,44.2 
		0.7,44.2 0.7,19.6 9.1,19.6 10.9,21.3 53.7,21.3 55.5,19.6 63.9,19.6 63.9,44.2 	"/>
	<g id="Pipe_00000097473726825270896360000015435979682583921329_">
		<rect x="10" y="21.8" class="st2" width="45" height="18.8"/>
		<rect x="10" y="23.9" class="st4" width="45" height="6.1"/>
		<polygon class="st5" points="55,40.6 10,40.6 10,41.8 10,41.8 55,41.8 		"/>
		<rect x="10" y="25.1" class="st6" width="45" height="3.5"/>
		<rect x="10" y="32.6" class="st5" width="45" height="5.2"/>
	</g>
</g>
<g id="GlassVert_00000037689636508507511620000011436854165450410161_">
	<g id="GlassVert">
		<polygon class="st8" points="42.1,2.2 42.1,64.5 36.7,63.1 32.3,62.8 30.1,62.8 27.4,63.1 24.8,63.6 21.9,64.5 22.2,2.1 24.7,1.3 
			27.2,0.8 30,0.6 32.1,0.5 36.4,0.8 		"/>
		<polygon class="st9" points="32.1,0.5 32.1,62.9 26.1,63.4 26.1,1 28.1,0.8 30.4,0.5 		"/>
		<polygon class="st10" points="30.4,0.5 30.4,62.9 28.1,63.2 28.1,0.8 		"/>
		<polygon class="st11" points="42,2.2 42.1,64.5 40.7,64.1 40.7,1.8 		"/>
		<polygon class="st12" points="39.6,1.6 39.7,63.9 35.9,63.1 35.9,0.8 		"/>
	</g>
</g>
<g id="Cross4">
	<path id="Outline_00000150066164899494584430000013027455399594889614_" d="M31.6,70.9c-4.6,0-12.4-1-12.6-4.5c0-0.1,0-4.9,0-7.7
		c0.2-1,1.2-1.7,2.1-2.2l0.1-14H10.8l-1.7,1.7l-8.3,0.1L0.7,19.5h8.4l1.8,1.8l10.3,0.1v-8.9l-2.3-1l0-7.8c0.1-0.4,0.9-3.4,10.9-4.1
		c0.7,0,1.3-0.1,2-0.1c9,0.1,11.8,2.4,12.4,3.1c0.3,0.3,0.5,0.7,0.5,1l0,0l0,0.2l0,7.8l-2.4,0.9v9l11.2-0.1l1.8-1.8h8.4v24.6l-8.4,0
		l-2.1-1.8l-10.9,0.1l0,13.8c1.1,0.4,2.3,1.6,2.3,2.4c0,2.3,0,7.6,0,7.7c-0.1,3.7-7.1,4.5-12.9,4.6L31.6,70.9z"/>
	<g id="Pipe_00000160890965425118821640000017634749118372841651_">
		<polygon class="st2" points="55.3,21.7 42,21.9 42,9.1 21.8,9.1 21.8,21.8 21.8,21.8 10,21.8 10,41.9 21.8,41.9 21.8,57.8 
			42,57.8 42,41.9 55.3,41.8 		"/>
		<polygon class="st4" points="32.1,54.7 32.1,32.8 26,38.4 26,55.2 		"/>
		<polygon class="st6" points="30.3,53.9 30.3,36.2 28.1,38.2 28.1,54.3 		"/>
		<rect x="21.9" y="9.1" class="st3" width="2.1" height="12.7"/>
		<polygon class="st4" points="32.1,9.1 32.1,30.5 26,24.9 26,9.1 		"/>
		<polygon class="st6" points="30.3,9.1 30.3,27.1 28.1,25.1 28.1,9.1 		"/>
		<rect x="40.7" y="9.1" class="st2" width="1.3" height="14.9"/>
		<polygon class="st4" points="22.5,24 10,24 10,30.1 28.7,30.1 		"/>
		<polygon class="st5" points="21.1,40.6 10,40.6 10,41.9 10,41.9 20,41.9 		"/>
		<polygon class="st6" points="21.9,25.2 10,25.2 10,28.7 25.5,28.7 		"/>
		<polygon class="st5" points="10,37.9 24.6,37.5 29.2,32.5 10,32.7 		"/>
		<polygon class="st4" points="55.3,23.9 40.5,24 34.7,29.8 55.3,30 		"/>
		<polygon class="st5" points="55.3,40.5 42,40.7 43.5,42 42,42 55.3,41.8 		"/>
		<polygon class="st6" points="55.3,25.1 40.7,25.1 37.7,28.4 55.3,28.6 		"/>
		<polygon class="st5" points="40.7,37.9 55.3,37.7 55.3,32.6 34.7,32.7 		"/>
		<polygon class="st3" points="40.7,9.1 40.7,21.6 35.8,26 35.8,9.1 		"/>
		<polygon class="st3" points="40.7,55.2 40.7,39.7 35.8,35.3 35.8,53.9 		"/>
	</g>
</g>
<g id="Cross3Up">
	<path d="M0.5,20.4l0-0.5h8.7v0.3l1.3,1.2h10.8l0-8.9l-2.3-1l0-7.8c0.2-2.1,4.8-4.1,13-4.2l0.4,0c10.9,0,12.4,3.7,12.4,3.9l0,0.1
		l0,0.1c0,2.9,0,7.3,0,7.6l0.1,0.4l-0.4,0.1l-2,0.7l0,9.1l11.1,0l1.9-1.8h8.4v24.7l-8.4-0.1l-2-1.7l-42.9-0.1l-1.7,2.2l-8.5,0
		L0.5,20.4z"/>
	<g id="Cross_3Up">
		<polygon class="st2" points="55.1,22 41.8,22 41.7,9.4 21.5,9.4 21.6,22 21.6,22 9.8,22 9.8,42 55.1,42.1 		"/>
		<polygon class="st3" points="23.8,9.4 23.8,22 21.7,22 21.7,9.4 		"/>
		<polygon class="st4" points="31.8,9.4 31.9,30.7 25.8,25 25.8,9.4 		"/>
		<polygon class="st6" points="30.1,9.4 30.1,27.2 27.9,25.3 27.8,9.4 		"/>
		<polygon class="st4" points="22.3,24.1 9.8,24.1 9.8,30.2 28.5,30.2 		"/>
		<polygon class="st5" points="54.2,40.8 9.8,40.8 9.8,42 9.8,42 54.5,42 		"/>
		<polygon class="st6" points="21.7,25.3 9.8,25.3 9.8,28.8 25.3,28.8 		"/>
		<polygon class="st5" points="9.8,38 55.1,37.7 55.2,32.7 9.8,32.8 		"/>
		<polygon class="st4" points="55.1,24.1 40.3,24.1 34.5,30 55.1,30.2 		"/>
		<polygon class="st6" points="55.1,25.4 40.5,25.3 37.5,28.5 55.1,28.8 		"/>
		<polygon class="st3" points="40.5,9.4 40.5,21.7 35.6,26.1 35.6,9.4 		"/>
	</g>
</g>
<g id="Cross3Down">
	<path d="M31.9,71c-12.7,0-12.8-4.4-12.8-4.6c0-0.1,0.1-7.6,0.1-7.6c0.2-0.8,0.9-1.9,2.2-2.5l0.1-13.9H11l-2,2.1l-8.4,0.1V19.5
		l8.7,0l1.8,1.8l42.6,0l1.9-1.8H64l0,24.8l-8.5-0.2l-1.9-1.6l-11-0.1l0,13.9c2,0.7,2.4,2.3,2.4,2.4l0,0.1v0.1c0,6.3,0,7.6-0.1,7.8
		l0,0c-0.4,2.8-6.8,4.3-12.9,4.3H31.9z"/>
	<g id="Pipe_00000158721965019976518510000010250337806972304007_">
		<polygon class="st2" points="55.3,21.9 10,21.8 10,41.9 21.8,41.9 21.8,57.9 42,57.9 42,42 55.3,42 		"/>
		<polygon class="st4" points="32.1,54.8 32.1,32.8 26,38.4 26,55.3 		"/>
		<polygon class="st6" points="30.3,54 30.3,36.3 28.1,38.2 28.1,54.3 		"/>
		<polygon class="st4" points="54.8,24 10,24 10,30.1 54.9,30.1 		"/>
		<polygon class="st5" points="21.1,40.7 10,40.7 10,41.9 10,41.9 20,41.9 		"/>
		<polygon class="st6" points="54.1,25.2 10,25.2 10,29 54.4,28.6 		"/>
		<polygon class="st5" points="10,37.9 24.6,37.5 29.2,32.5 10,32.7 		"/>
		<polygon class="st5" points="55.3,40.7 42,40.7 43.6,42 42,42 55.3,42 		"/>
		<polygon class="st5" points="40.7,37.9 55.3,37.9 55.3,32.7 34.7,32.7 		"/>
		<polygon class="st3" points="40.7,55.3 40.7,39.7 35.8,35.3 35.8,54 		"/>
	</g>
</g>
<g id="Cross3Left">
	<path id="Outline_00000048468059494510878530000000411475459033623440_" d="M32.2,70.9c-10.4,0-12.4-3-12.8-4.3h-0.1l0-0.5l0-7.5
		c0.2-0.9,0.8-1.6,1.9-2.2l0.2-14l-10.6-0.1l-1.7,2.1l-6.2,0l-0.5,0H0.6V19.8l0,0v-0.1l0.5,0h8.2v0.3l1.3,1.2l10.8,0.1l0-9l-2.2-1
		l0.1-7.8c0.5-1,2.7-4.2,11.2-4.2c0.5,0,1.1,0,1.7,0c10.9,0.4,12.6,3,12.8,4l0,0.1l0,0.1c0,0.3,0.1,7,0,7.6l0,0.3l-0.3,0.1
		c-0.6,0.2-1.5,0.5-2,0.7l0,43.9c0.7,0.4,2.1,1.2,2.4,2.3c0,0.1,0,0.1,0,7.6C45.1,66.4,44.9,70.9,32.2,70.9z"/>
	<g id="Pipe_00000168104167213195847410000014412464271146177154_">
		<polygon class="st2" points="42.2,9.4 22,9.4 21.9,21.8 10.2,21.8 10.2,41.9 21.9,41.8 22,58.1 42.2,58.1 		"/>
		<polygon class="st4" points="32.3,55 32.2,32.9 26.2,38.5 26.2,55.5 		"/>
		<polygon class="st6" points="30.5,54.2 30.5,36.4 28.2,38.3 28.3,54.5 		"/>
		<polygon class="st3" points="24.2,9.4 24.2,22 22.1,22 22.1,9.4 		"/>
		<polygon class="st4" points="32.3,9.4 32.2,30.7 26.2,25 26.2,9.4 		"/>
		<polygon class="st6" points="30.5,9.4 30.5,27.2 28.2,25.3 28.3,9.4 		"/>
		<polygon class="st4" points="22.7,24.1 10.2,23.9 10.2,30 28.9,30.2 		"/>
		<polygon class="st5" points="21.3,40.8 10.2,40.6 10.2,41.9 10.2,41.9 20.3,41.8 		"/>
		<polygon class="st6" points="22.1,25.3 10.2,25.2 10.2,28.6 25.6,28.8 		"/>
		<polygon class="st5" points="10.2,37.8 24.8,37.6 29.4,32.6 10.2,32.7 		"/>
		<polygon class="st3" points="36,9.4 36,19.2 36,25.6 36,54.2 40.9,55.5 40.9,21.2 40.9,19.9 40.9,9.4 		"/>
	</g>
</g>
<g id="Cross3Right">
	<path d="M31.9,70.9c-8.1-0.1-11.1-1.8-12.3-3.2C19,66.9,19,66.2,19,66l0,0c0-0.7,0-2.4,0-7.4c0.2-0.9,0.8-1.6,1.9-2.2l0.3-44
		l-2.2-1V3.7c0.1-0.5,1-4.2,12.5-4.2l0.4,0c10.7,0.1,12.6,3.3,12.8,3.9c0,0,0,0.1,0,0.1l0,0c0,0.3,0.1,8,0.1,8s-1.2,0.4-2.4,0.8
		l-0.1,8.9l11.1,0l1.9-1.8h8.4v24.7l-8.4-0.1l-2-1.7l-11-0.1l0.2,13.9c1.6,0.5,2.3,2.2,2.3,2.3l0,0.1v7.8c0,2.9-6.4,4.6-12.6,4.6
		L31.9,70.9z"/>
	<g id="Pipe_00000158004318643677420970000005493624752396388259_">
		<polygon class="st2" points="55.2,21.8 41.9,21.8 42,9.3 21.8,9.3 21.7,21.8 21.7,21.8 21.8,58 42,58 41.9,41.9 55.2,41.9 		"/>
		<polygon class="st3" points="23.9,9.7 23.9,58 21.8,58.4 21.8,9.7 		"/>
		<polygon class="st4" points="55.2,23.9 40.4,23.9 34.6,29.8 55.2,30 		"/>
		<polygon class="st5" points="55.2,40.6 41.9,40.6 43.4,41.9 41.9,41.9 55.2,41.9 		"/>
		<polygon class="st6" points="55.2,25.2 40.6,25.1 37.6,28.3 55.2,28.6 		"/>
		<polygon class="st5" points="40.6,37.8 55.2,37.8 55.2,32.7 34.6,32.7 		"/>
		<polygon class="st3" points="40.7,9.3 40.6,21.5 35.7,25.9 35.8,9.3 		"/>
		<polygon class="st4" points="25.9,9.7 25.9,55.8 32,55.4 32,9.7 		"/>
		<polygon class="st6" points="30.2,9.7 30.2,55.4 28,55.7 28,9.7 		"/>
		<polygon class="st3" points="40.7,55.5 40.6,39.6 35.7,35.2 35.8,54.2 		"/>
	</g>
</g>
<g id="LeftEnd_00000076578460719905238460000005451503994742647457_">
	<rect x="1.3" y="20" class="st2" width="7.7" height="23.7"/>
	<rect x="1.3" y="32.5" class="st5" width="7.7" height="6"/>
	<rect x="1.3" y="22.5" class="st4" width="7.7" height="7.1"/>
	<rect x="1.3" y="23.9" class="st6" width="7.7" height="4.1"/>
	<rect x="1.3" y="42.1" class="st5" width="7.7" height="1.5"/>
	<polygon class="st5" points="9,20 10.8,21.8 10.4,25.1 9,23.9 	"/>
	<polygon class="st4" points="10.3,28.5 9,28 9,23.9 10.4,25.1 	"/>
	<polygon class="st5" points="10.3,32.4 9,32.4 9,28 10.3,28.5 	"/>
	<polygon class="st13" points="10.7,41.9 9,43.6 9,38.4 10.5,37.5 	"/>
	<polygon class="st14" points="10.3,32.4 10.5,37.5 9,38.4 9,32.4 	"/>
	<rect x="1.3" y="20" class="st14" width="1.2" height="23.7"/>
</g>
<g id="UpperEnd_00000089540933029541786840000001378109935078881697_">
	<path class="st3" d="M22.2,8.9V1.5c-1.5,0.6-2.4,1.4-2.6,2.2h0v7.5h0C19.7,10.3,20.6,9.5,22.2,8.9z"/>
	<path class="st3" d="M36.4,0.3v7.4c2.7,0.3,5,0.9,6.4,1.7V2C41.4,1.2,39.1,0.6,36.4,0.3z"/>
	<path class="st7" d="M22.2,1.5v7.4c0.7-0.3,1.5-0.6,2.5-0.8V0.8C23.7,1,22.9,1.2,22.2,1.5z"/>
	<path class="st7" d="M32.1,0v7.4c1.5,0,2.9,0.1,4.3,0.3V0.3C35.1,0.1,33.6,0,32.1,0z"/>
	<path class="st4" d="M27.2,0.3c-0.9,0.1-1.8,0.3-2.5,0.4v7.4c0.8-0.2,1.6-0.3,2.5-0.5V0.3z"/>
	<path class="st4" d="M32,0c-0.7,0-1.4,0-2,0.1v7.4c0.7,0,1.3-0.1,2-0.1c0,0,0.1,0,0.1,0V0C32.1,0,32,0,32,0z"/>
	<path class="st6" d="M30,7.5V0.1c-1,0-1.9,0.1-2.8,0.2v7.4C28.1,7.6,29,7.5,30,7.5z"/>
	<path class="st2" d="M42.8,2v7.4c0.9,0.5,1.4,1.1,1.6,1.7V3.6C44.2,3,43.7,2.5,42.8,2z"/>
	<path class="st13" d="M19.6,11.2l2.4,1c0.6-0.4,1.3-0.9,2.1-1.3l-1.9-2C20.7,9.4,19.8,10.1,19.6,11.2z"/>
	<path class="st3" d="M25.9,10.5l-1.9,0.5l-1.9-2c0.8-0.3,1.6-0.6,2.5-0.8L25.9,10.5z"/>
	<path class="st7" d="M27.2,7.7l0.9,2.5l-2.2,0.3l-1.3-2.3C25.5,8,26.3,7.8,27.2,7.7z"/>
	<path class="st4" d="M30,7.5l0.3,2.5l-2.2,0.1l-0.9-2.5C28.2,7.6,29.1,7.5,30,7.5z"/>
	<path class="st7" d="M32.1,7.4V10L30.3,10L30,7.4C30.8,7.4,31.5,7.4,32.1,7.4z"/>
	<path class="st3" d="M35.9,10.3l0.5-2.7c-1.2-0.2-2.7-0.2-4.3-0.3V10L35.9,10.3z"/>
	<path class="st13" d="M40.5,11l2.3-1.6c-1.7-0.9-3.8-1.4-6.4-1.7l-0.5,2.7L40.5,11z"/>
	<path class="st3" d="M42.1,12l2.3-0.9c-0.1-0.6-0.6-1.2-1.6-1.8L40.5,11L42.1,12z"/>
</g>
<g id="LowerEnd_00000077317580525956840460000013671953527275509411_">
	<polygon class="st13" points="21.5,56.8 21.7,55.4 25,55 25,55.7 	"/>
	<polygon class="st7" points="27.6,54.6 27.4,55.3 24.8,55.7 25,55 	"/>
	<polygon class="st4" points="30.2,54.2 30.2,55 27.4,55.3 27.6,54.6 	"/>
	<polygon class="st13" points="41.7,55.1 41.8,56.5 36.6,55.3 35.8,54.2 	"/>
	<polygon class="st14" points="30.2,54.2 35.8,54.2 36.6,55.3 30.1,55 	"/>
	<path class="st3" d="M44.4,58.7C44,56.6,38.6,55,32,55s-12,1.6-12.4,3.7h0v7.5h0c0.2-2.1,5.7-3.8,12.4-3.8s12.2,1.7,12.4,3.8h0
		L44.4,58.7z"/>
	<path class="st7" d="M22.3,56.5v7.4c2.3-0.9,5.8-1.5,9.7-1.5c1.6,0,3.2,0.1,4.6,0.3v-7.4c-1.4-0.2-3-0.3-4.6-0.3
		C28.1,55,24.6,55.6,22.3,56.5z"/>
	<path class="st4" d="M24.8,55.7v7.4c2-0.5,4.5-0.7,7.2-0.7c0.1,0,0.2,0,0.3,0V55c-0.1,0-0.2,0-0.3,0C29.3,55,26.8,55.3,24.8,55.7z"
		/>
	<path class="st6" d="M27.4,62.7c0.9-0.1,1.8-0.2,2.8-0.2V55c-1,0-1.9,0.1-2.8,0.2V62.7z"/>
	<path class="st2" d="M42.5,56.8v7.4c1.1,0.6,1.8,1.2,1.9,1.9h0l0-7.5C44.3,58,43.6,57.4,42.5,56.8z"/>
	<path class="st13" d="M19.6,66.4c0,0.6,0.5,1.2,1.3,1.8v-3.6C20,65.1,19.6,65.6,19.6,66.4z"/>
	<path class="st3" d="M32,70.4c6.9,0,12.4-1.8,12.4-4.1s-5.6-4.1-12.4-4.1c-1.8,0-3.5,0.1-5,0.3v7.5C28.5,70.3,30.2,70.4,32,70.4z"
		/>
	<path class="st14" d="M23,69.2c1.1,0.4,2.5,0.7,4,0.9v-7.5c-1.5,0.2-2.9,0.5-4,0.9V69.2z"/>
	<path class="st15" d="M23,63.6c-0.9,0.3-1.6,0.7-2.2,1v3.6c0.6,0.4,1.3,0.7,2.2,1V63.6z"/>
	<path class="st16" d="M39.5,64.7c-1.8,0.5-4.5,0.8-7.5,0.8c-3,0-5.6-0.3-7.5-0.8c-1.6,0.4-2.6,1-2.6,1.7c0,1.4,4.5,2.5,10,2.5
		s10-1.1,10-2.5C42,65.7,41,65.2,39.5,64.7z"/>
	<path class="st17" d="M40.7,65.1c-2.6-1-5.7-1.2-8.6-1.2c-3,0-6.4,0.2-8.5,1.2c1.8,1.1,5.6,2.2,8.5,2.2
		C35,67.3,38.8,66.2,40.7,65.1z"/>
</g>
<g id="RightEnd">
	<rect x="55.8" y="20.1" class="st2" width="7.7" height="23.7"/>
	<rect x="55.8" y="32.5" class="st5" width="7.7" height="6"/>
	<rect x="55.8" y="22.6" class="st4" width="7.7" height="7.1"/>
	<rect x="55.8" y="24" class="st6" width="7.7" height="4.1"/>
	<rect x="55.8" y="42.2" class="st5" width="7.7" height="1.5"/>
	<polygon class="st5" points="55.8,20.1 53.9,21.9 54.3,25.2 55.8,24 	"/>
	<polygon class="st4" points="54.4,28.6 55.8,28 55.8,24 54.3,25.2 	"/>
	<polygon class="st5" points="54.4,32.4 55.8,32.5 55.8,28 54.4,28.6 	"/>
	<polygon class="st13" points="53.6,41.9 55.8,43.7 55.8,38.5 54.3,37.5 	"/>
	<polygon class="st14" points="54.4,32.4 54.3,37.5 55.8,38.5 55.8,32.5 	"/>
	<rect x="62.2" y="20.1" class="st14" width="1.2" height="23.7"/>
</g>
</svg>
