<?xml version="1.0" encoding="utf-8"?>
<!-- Generator: Adobe Illustrator 16.0.4, SVG Export Plug-In . SVG Version: 6.00 Build 0)  -->
<!DOCTYPE svg PUBLIC "-//W3C//DTD SVG 1.1//EN" "http://www.w3.org/Graphics/SVG/1.1/DTD/svg11.dtd">
<svg version="1.1" id="Layer_1" xmlns="http://www.w3.org/2000/svg" xmlns:xlink="http://www.w3.org/1999/xlink" x="0px" y="0px"
	 width="841.9px" height="595.3px" viewBox="0 0 841.9 595.3" enable-background="new 0 0 841.9 595.3" xml:space="preserve">
<g id="R5">
	
		<radialGradient id="SVGID_1_" cx="-4.5632" cy="595.7849" r="28.8952" gradientTransform="matrix(1 0 0 -1 -5.517578e-02 595.1597)" gradientUnits="userSpaceOnUse">
		<stop  offset="1.544563e-02" style="stop-color:#F5E766"/>
		<stop  offset="5.757428e-02" style="stop-color:#F5E661"/>
		<stop  offset="0.1685" style="stop-color:#F1E04D"/>
		<stop  offset="0.3167" style="stop-color:#EEDD41"/>
		<stop  offset="0.4746" style="stop-color:#EEDC3D"/>
		<stop  offset="0.7887" style="stop-color:#D2A62A"/>
		<stop  offset="1" style="stop-color:#A8762B"/>
	</radialGradient>
	<path fill="url(#SVGID_1_)" d="M21.3,17.6C5.4,26.3-6,14-6,14s25-29.5,26.8-32.2c1.1-1.8,0.8-4.5,0.4-6.2C15.7-29.1,8.6-32,0.8-32
		c-17.5,0-31.6,14.2-31.6,31.6c0,7.9,2.9,14.8,7.7,20.1c5.8,6.4,14.4,10.5,24,11C21,31.7,21.5,17.5,21.3,17.6z"/>
	<path d="M11.6,6.1C8.8,3.9,4.3,1.8,4.3,1.8L3,3.3c0,0,7.9,1.7,16.5,13.6c-0.2,0.1-1.8,1-2.2,1.2c-8.9,4-13.6,0.6-15.8-0.2
		s-6.9-4.6-6.9-4.6l-1.2,1.5c0,0,2,2.2,5.9,4.1c3.9,1.9,7,3.2,10.5,3.2c2.4,0,4.2-0.8,7.2-1.8c1.1-0.4,2.9-1.8,5.2-3.4
		C22.2,17,18.6,11.7,11.6,6.1z"/>
	
		<radialGradient id="SVGID_2_" cx="7.1223" cy="577.3699" r="13.6826" gradientTransform="matrix(1 0 0 -1 -5.517578e-02 595.1597)" gradientUnits="userSpaceOnUse">
		<stop  offset="0" style="stop-color:#EDAE6C"/>
		<stop  offset="0.8041" style="stop-color:#7A5129"/>
		<stop  offset="1" style="stop-color:#64401C"/>
	</radialGradient>
	<path fill="url(#SVGID_2_)" d="M2.4,18.9c-1.5-0.5-6.8-4-8.2-5.1L3.5,2.7c2.3,1.6,10.4,5.1,16.7,13.9c-0.2,0.1-1.3,1.5-1.7,1.7
		C10.4,22.1,4.7,19.7,2.4,18.9z"/>
	<path d="M7.3-27.3c-4.1-1.4-7.8-1.3-8.4,0.2c-0.4,1.1,1.2,2.3,3.5,3.4l1.3-2.2l1.1,3.2c0.3,0.1,0.6,0.2,0.9,0.3
		c4.1,1.4,7.4,2.1,8,0.5C14.3-23.4,11.4-25.8,7.3-27.3z"/>
	<path d="M1.9-21.2C-2.2-22.6-6-22.5-6.5-21c-0.4,1.2,1.1,2.9,3.7,4.2l1.9-2.7l1.3,4c4,1.4,7.3,1.1,7.9-0.4
		C8.8-17.3,6-19.8,1.9-21.2z"/>
</g>
<g id="R4">
	<radialGradient id="SVGID_3_" cx="-5.55" cy="-5.8499" r="37.6026" gradientUnits="userSpaceOnUse">
		<stop  offset="1.544563e-02" style="stop-color:#F5E766"/>
		<stop  offset="5.757428e-02" style="stop-color:#F5E661"/>
		<stop  offset="0.1685" style="stop-color:#F1E04D"/>
		<stop  offset="0.3167" style="stop-color:#EEDD41"/>
		<stop  offset="0.4746" style="stop-color:#EEDC3D"/>
		<stop  offset="0.7887" style="stop-color:#D2A62A"/>
		<stop  offset="1" style="stop-color:#A8762B"/>
	</radialGradient>
	<path fill="url(#SVGID_3_)" d="M23.9,17.7c-20.8,9.3-30-2.9-30-2.9S17.8-4.6,22.7-10.7c4.8-6.1,2.2-9.4,2.2-9.4l0,0
		c-3.2-5.5-12.7-11.5-24.2-11.5c-17.5,0-31.6,14.2-31.6,31.6c0,6.1,1.8,11.9,4.8,16.7c5.6,8.9,15.5,14.9,26.8,14.9
		c11.7,0,21.9-6.4,27.4-15.9C26.9,16.3,25.5,16.9,23.9,17.7z"/>
	<path d="M12.3-25.5c-3.6-2.4-7.2-3.3-8.2-2c-0.7,1,0.5,2.5,2.5,4.2L8.5-25l0.2,3.4c0.3,0.2,0.5,0.4,0.8,0.5
		c3.6,2.4,6.6,3.9,7.6,2.6C18.1-19.9,15.9-23,12.3-25.5z"/>
	<path d="M7.5-18.6c-3.6-2.4-7.2-3.3-8.2-2c-0.7,1,0.4,3.1,2.5,5.1l2.5-2.1l0.2,4.2c3.5,2.4,6.8,3,7.7,1.7
		C13.2-13,11.1-16.1,7.5-18.6z"/>
	
		<radialGradient id="SVGID_4_" cx="16.137" cy="581.1648" r="21.4953" gradientTransform="matrix(1 0 0 -1 -5.517578e-02 595.1597)" gradientUnits="userSpaceOnUse">
		<stop  offset="1.454880e-03" style="stop-color:#C7915A"/>
		<stop  offset="8.810513e-02" style="stop-color:#B3814D"/>
		<stop  offset="0.2614" style="stop-color:#95683A"/>
		<stop  offset="0.4384" style="stop-color:#7E552D"/>
		<stop  offset="0.6184" style="stop-color:#6F4924"/>
		<stop  offset="0.8032" style="stop-color:#67421E"/>
		<stop  offset="1" style="stop-color:#64401C"/>
	</radialGradient>
	<path fill="url(#SVGID_4_)" d="M8.9,2.2C8.8,1.9-5,13.9-5,13.9s7.7,5.5,13.7,5.5c9.9,0,14.3-3.7,14.3-3.7S10.8,6.7,8.9,2.2z"/>
	<path d="M8.9,2.2c2.9,5.8,12.3,12.2,14,13.5c-1.2,1.2-5.6,2.5-7.3,2.9c-12.8,3-20.2-5-20.2-5L-7,15.2c0,0,7.5,5.5,15.2,5.9
		c7.5,0.4,17.2-2.7,19.3-5.1c0,0-14.1-7.8-17.2-15L8.9,2.2z"/>
</g>
<g id="R3">
	<radialGradient id="SVGID_5_" cx="-7.675" cy="-5.8499" r="38.8654" gradientUnits="userSpaceOnUse">
		<stop  offset="1.544563e-02" style="stop-color:#F5E766"/>
		<stop  offset="5.757428e-02" style="stop-color:#F5E661"/>
		<stop  offset="0.1685" style="stop-color:#F1E04D"/>
		<stop  offset="0.3167" style="stop-color:#EEDD41"/>
		<stop  offset="0.4746" style="stop-color:#EEDC3D"/>
		<stop  offset="0.7887" style="stop-color:#D2A62A"/>
		<stop  offset="1" style="stop-color:#A8762B"/>
	</radialGradient>
	<path fill="url(#SVGID_5_)" d="M23.6,18.1L14.1,4c0,0,6.3-5.3,10.3-8.7c5-4.3,5.3-8.8,5.2-10.4C24.3-25,13.9-31.6,1.9-31.6
		c-17.5,0-31.6,14.2-31.6,31.6c0,7.6,2.7,14.6,7.2,20.1c5.8,7,14.6,11.5,24.4,11.5c12.3,0,21.2-5.4,26.4-15.7L23.6,18.1z"/>
	<path d="M21-21.3c-2.6-3.5-5.8-5.5-7.1-4.5C13-25.1,13.6-23.2,15-21l2.3-1.1l-0.8,3.3c0.2,0.3,0.4,0.5,0.5,0.8
		c2.6,3.5,5,5.9,6.4,4.9C24.7-14.2,23.6-17.8,21-21.3z"/>
	<path d="M14.2-16.3c-2.6-3.5-5.8-5.5-7.1-4.5c-1,0.8-0.6,3,0.7,5.6l3.1-1.1l-1.1,4.1c2.6,3.4,5.5,5,6.8,4
		C17.9-9.2,16.8-12.9,14.2-16.3z"/>
	
		<radialGradient id="SVGID_6_" cx="19.8728" cy="580.531" r="21.0548" gradientTransform="matrix(1 0 0 -1 -5.517578e-02 595.1597)" gradientUnits="userSpaceOnUse">
		<stop  offset="1.454880e-03" style="stop-color:#C7915A"/>
		<stop  offset="8.810513e-02" style="stop-color:#B3814D"/>
		<stop  offset="0.2614" style="stop-color:#95683A"/>
		<stop  offset="0.4384" style="stop-color:#7E552D"/>
		<stop  offset="0.6184" style="stop-color:#6F4924"/>
		<stop  offset="0.8032" style="stop-color:#67421E"/>
		<stop  offset="1" style="stop-color:#64401C"/>
	</radialGradient>
	<path fill="url(#SVGID_6_)" d="M15.5,3C15,1.9-0.7,14.5-0.7,14.5S7,20,13,20c9.9,0,13.5-4.8,13.5-4.8S18.8,10.1,15.5,3z"/>
	<path d="M15.4,2.9c2.9,5.8,8.6,11.5,10.4,12.8c-1.2,1.2-2.9,1.7-4.6,2.1c-12.8,3-19.7-4.2-19.7-4.2l-2.9,0.9c0,0,7.5,5.5,15.2,5.9
		c7.5,0.4,12.8-2.2,14.8-4.6c0,0-8.8-6.7-11.9-13.9L15.4,2.9z"/>
</g>
<g id="R2">
	<radialGradient id="SVGID_7_" cx="-5.925" cy="-7.8499" r="42.0186" gradientUnits="userSpaceOnUse">
		<stop  offset="1.544563e-02" style="stop-color:#F5E766"/>
		<stop  offset="5.757428e-02" style="stop-color:#F5E661"/>
		<stop  offset="0.1685" style="stop-color:#F1E04D"/>
		<stop  offset="0.3167" style="stop-color:#EEDD41"/>
		<stop  offset="0.4746" style="stop-color:#EEDC3D"/>
		<stop  offset="0.7887" style="stop-color:#D2A62A"/>
		<stop  offset="1" style="stop-color:#A8762B"/>
	</radialGradient>
	<path fill="url(#SVGID_7_)" d="M-1.4,13.4c0,0,27.3-10.1,29.7-11.8c2.2-1.5,3.3-5.5,3.2-6.4c-1.8-15.8-15-26.7-31.2-26.7
		c-17.5,0-31.6,14.2-31.6,31.6c0,8.9,3.7,17,9.7,22.8c5.7,5.5,13.4,8.9,22,8.9c13.6,0,25.2-8.6,29.6-20.7
		C29.5,11.5,20.1,17.2-1.4,13.4z"/>
	
		<radialGradient id="SVGID_8_" cx="10.4553" cy="587.364" r="8.9554" gradientTransform="matrix(1 0 0 -1 -5.517578e-02 595.1597)" gradientUnits="userSpaceOnUse">
		<stop  offset="1.454880e-03" style="stop-color:#C7915A"/>
		<stop  offset="8.810513e-02" style="stop-color:#B3814D"/>
		<stop  offset="0.2614" style="stop-color:#95683A"/>
		<stop  offset="0.4384" style="stop-color:#7E552D"/>
		<stop  offset="0.6184" style="stop-color:#6F4924"/>
		<stop  offset="0.8032" style="stop-color:#67421E"/>
		<stop  offset="1" style="stop-color:#64401C"/>
	</radialGradient>
	<path fill="url(#SVGID_8_)" d="M1.5,12.4l16.9-6.5c2.4,2.7,5.5,4.5,7.1,5.7c-1.2,1.2-6.3,1.7-10,2.1C5.8,14.5,3.5,12.9,1.5,12.4z"
		/>
	<path d="M18.4,5.8c2.8,3.5,5.1,4.2,6.9,5.5c-1.2,1.2-6.3,1.6-10,2.1c-9,1.1-13.8-1-13.8-1l-2.8,1.1c0,0,6,2.4,13.8,2.1
		c7.5-0.3,15.5-2.1,17.6-4.5c0,0-6.2-1.5-10.2-5.9L18.4,5.8z"/>
	<path d="M14.9-13.2c-1.7-4-4.3-6.7-5.8-6c-1.2,0.5-1.3,2.8-0.6,5.6l3.2-0.4l-2.1,3.7c1.7,3.9,4.1,6.2,5.6,5.5S16.6-9.2,14.9-13.2z"
		/>
	<path d="M22.7-16.4c-1.7-4-4.3-6.7-5.8-6c-1.1,0.5-0.9,2.4-0.1,4.9l2.5-0.5l-1.6,3c0.1,0.3,0.2,0.6,0.4,0.9c1.7,4,3.5,6.9,5,6.2
		C24.5-8.7,24.4-12.5,22.7-16.4z"/>
</g>
<g id="Ball" display="none">
	<radialGradient id="SVGID_9_" cx="-5.8" cy="-7.0999" r="35.6232" gradientUnits="userSpaceOnUse">
		<stop  offset="1.544563e-02" style="stop-color:#F5E766"/>
		<stop  offset="5.757428e-02" style="stop-color:#F5E661"/>
		<stop  offset="0.1685" style="stop-color:#F1E04D"/>
		<stop  offset="0.3167" style="stop-color:#EEDD41"/>
		<stop  offset="0.4746" style="stop-color:#EEDC3D"/>
		<stop  offset="0.7887" style="stop-color:#D2A62A"/>
		<stop  offset="1" style="stop-color:#A8762B"/>
	</radialGradient>
	<path display="inline" fill="url(#SVGID_9_)" d="M0.3-31.6c8.3,0,15.8,3.2,21.4,8.4C28-17.5,31.9-9.2,31.9,0c0,8.4-3.2,16-8.5,21.6
		c-5.8,6.1-14,10-23.1,10c-8.9,0-16.9-3.7-22.7-9.6c-5.5-5.7-8.9-13.5-8.9-22c0-8.6,3.4-16.3,8.9-22C-16.6-27.9-8.5-31.6,0.3-31.6z"
		/>
</g>
<g id="R1" display="none">
	<path display="inline" d="M29.9,3.3c-0.6,0.7-2.5,6-13.7,9.7c-6.7,2.2-13,0.6-13,0.6l-1.3-0.4l-2.2-0.7l3,3c0.2,0,2.6,0.7,6,0.7
		c2.4,0,5.2-0.3,8.2-1.3C29.1,10.8,31,4.3,31.1,4.1l0.3-1l0.3-3.9L29.9,3.3z"/>
	<path display="inline" d="M14.6-10.4L12.2-7c1.3,4.1,3.5,6.6,5,6.1c1.6-0.5,1.8-4.2,0.5-8.4c-1.3-4.1-3.6-7.1-5.2-6.6
		c-1.2,0.4-1.6,2.6-1.2,5.5H14.6z"/>
	<path display="inline" d="M22.6-13.7l-1.9,2.8c0.1,0.3,0.2,0.6,0.3,0.9c1.3,4.1,2.8,7.2,4.4,6.7c1.6-0.5,1.8-4.2,0.5-8.4
		c-1.3-4.1-3.6-7.1-5.2-6.6c-1.1,0.3-1.1,2.3-0.6,4.9L22.6-13.7z"/>
</g>
<g id="D5" display="none">
	<path display="inline" fill="#231F20" d="M-3.8-22.9c-0.1-3.1-1.7-5.6-3.6-5.6c-1.4,0-2.6,1.5-3.1,3.5l3.6,0.6l-3.8,1.9
		c0.1,3,1.7,5.2,3.6,5.2C-5.2-17.3-3.7-19.8-3.8-22.9z"/>
	<path display="inline" fill="#231F20" d="M10.7-22.9C10.6-26,9-28.5,7.1-28.5c-1.4,0-2.6,1.5-3.1,3.5l3.6,0.6l-3.8,1.9
		c0.1,3,1.7,5.2,3.6,5.2C9.3-17.3,10.8-19.8,10.7-22.9z"/>
	<radialGradient id="SVGID_10_" cx="1.4094" cy="-7.2029" r="40.2686" fx="-6.3722" fy="-6.9757" gradientUnits="userSpaceOnUse">
		<stop  offset="0.524" style="stop-color:#4E300D"/>
		<stop  offset="0.8214" style="stop-color:#C78E56"/>
	</radialGradient>
	<path display="inline" fill="url(#SVGID_10_)" d="M-0.9-9.2c-0.3,0-1.2,0-1.5,0C-23.3-9.3-28.7,4.7-28.7,4.7s0.1,0.8,1.6,2.5
		c7,8,14.5,18.7,25.1,19.2c0.2,0,4.6,0,4.7,0c6.8-0.3,12.9-4.8,17.4-10.1c2.5-3,4.4-6.2,5.6-9.2c0.9-2.2,1.8-4,1.8-4
		S19.4-10.2-0.9-9.2z"/>
	<path display="inline" fill="#231F20" d="M0.9-10.2c-0.3,0-1.8,0-2.1,0c-6.5,0-11.7,1.2-15.8,2.9c-9.4,3.9-13,10.3-13,10.3
		s2.9,6.6,8,13.1c4.6,5.8,10.9,11.5,18.3,12.4c4.4,0.5,7-0.1,10.9-1c5.7-1.3,10.7-5.8,14.6-10c6.7-7.2,8.3-14.5,8.3-14.5
		c0,0-2.4-5.4-10.9-9.3C14.9-8.2,8.9-9.9,0.9-10.2z M2.6,25.4c-1.9,0.2-4.7,0.1-6.3-0.3C-17,22-27,3.3-27,3.3S-19.1-8.1-0.9-7.6
		c0.3,0,1.7,0.1,2,0.1C20.5-6.9,27,3.2,27,3.2s-1.2,3.1-3.6,7.1C19.6,16.3,12.9,24,2.6,25.4z"/>
</g>
<g id="D4" display="none">
	<radialGradient id="SVGID_11_" cx="-0.425" cy="-10.8499" r="38.0132" gradientUnits="userSpaceOnUse">
		<stop  offset="0.524" style="stop-color:#4E300E"/>
		<stop  offset="0.8214" style="stop-color:#C78F56"/>
	</radialGradient>
	<path display="inline" fill="url(#SVGID_11_)" d="M2.1,2.2c-0.3,0-1.2,0-1.5,0c-13.5,0-26.3,5.9-26.3,5.9s0.1,0.8,1.6,2.5
		c7,8,12.5,12.7,23.1,13.2c0.2,0,4.6,0,4.7,0c10.6-0.5,16.1-5.2,23.1-13.2c1.5-1.8,1.6-2.5,1.6-2.5S15.6,2.2,2.1,2.2z"/>
	<path display="inline" d="M0.9,0.9c-0.3,0-1.3,0-1.6,0c-14.7,0-28.6,5.7-28.6,5.7s0.1,0.9,1.7,2.8c7.6,8.9,13.6,13.9,25.1,14.5
		c0.2,0,5,0,5.2,0c11.5-0.6,17.5-5.5,25.1-14.5c1.7-2,1.7-2.8,1.7-2.8S15.6,0.9,0.9,0.9z M24,11.2c-6.5,6-11.6,10-21.3,10.4
		c-0.1,0-4.2,0-4.4,0c-9.8-0.4-14.9-4.4-21.3-10.4c-1.4-1.3-2.7-3.3-2.7-3.3s13-5.1,25.5-5.1c0.2,0,1.1,0,1.4,0c12.5,0,25,5,25,5
		S25.4,9.9,24,11.2z"/>
	<path display="inline" d="M11.4-12.2c0-4.3-1.6-7.8-3.5-7.8c-1.4,0-2.6,2.1-3.1,4.9l3.6,0.9l-3.8,2.6c0.1,4.3,1.7,7.3,3.6,7.3
		C10-4.3,11.5-7.8,11.4-12.2z"/>
	<path display="inline" d="M-3-12.2C-3.1-16.5-4.7-20-6.6-20c-1.4,0-2.6,2.1-3.1,4.9l3.6,0.9l-3.8,2.6c0.1,4.3,1.7,7.3,3.6,7.3
		S-2.9-7.8-3-12.2z"/>
</g>
<g id="D3" display="none">
	<radialGradient id="SVGID_12_" cx="-0.3" cy="5.1501" r="22.2784" gradientUnits="userSpaceOnUse">
		<stop  offset="0.4441" style="stop-color:#64401C"/>
		<stop  offset="1" style="stop-color:#C78F56"/>
	</radialGradient>
	<path display="inline" fill="url(#SVGID_12_)" d="M1,13.9c-0.3,0-1.2,0-1.5,0c-13.5,0-26.3-2.1-26.3-2.1s0.1,0.8,1.6,2.5
		c7,8,12.5,10.7,23.1,11.2c0.2,0,4.6,0,4.7,0c10.6-0.5,16.1-3.2,23.1-11.2c1.5-1.8,1.6-2.5,1.6-2.5S14.5,13.9,1,13.9z"/>
	<path display="inline" d="M0.9,12.5c-0.3,0-1.3,0-1.6,0c-14.2,0-27.5-2.3-27.5-2.3s0.1,0.9,1.7,2.8c7.3,8.9,13.1,11.9,24.1,12.5
		c0.2,0,4.8,0,5,0C13.7,24.9,19.4,22,26.7,13c1.6-2,1.7-2.8,1.7-2.8S15.1,12.5,0.9,12.5z M23.1,14.9c-6.2,6-11.1,8-20.6,8.4
		c-0.1,0-4.1,0-4.2,0c-9.4-0.4-14.3-2.4-20.6-8.4c-1.4-1.3-1.4-1.9-1.4-1.9s11.4,1.6,23.4,1.6c0.2,0,1.1,0,1.3,0
		c12.1,0,23.4-1.6,23.4-1.6S24.5,13.5,23.1,14.9z"/>
	<path display="inline" d="M11.5-6.3c-0.1-4.3-1.7-7.8-3.6-7.8c-1.4,0-2.6,2.1-3.1,4.9l3.6,0.9L4.6-5.7c0.1,4.3,1.7,7.3,3.6,7.3
		S11.5-2,11.5-6.3z"/>
	<path display="inline" d="M-3-6.3c-0.1-4.3-1.7-7.8-3.6-7.8c-1.4,0-2.6,2.1-3.1,4.9l3.6,0.9l-3.8,2.6c0.1,4.3,1.7,7.3,3.6,7.3
		S-3-2-3-6.3z"/>
</g>
<g id="D2" display="none">
	<radialGradient id="SVGID_13_" cx="0.6868" cy="7.2708" r="19.5662" gradientUnits="userSpaceOnUse">
		<stop  offset="0.4441" style="stop-color:#64401C"/>
		<stop  offset="1" style="stop-color:#C78E56"/>
	</radialGradient>
	<path display="inline" fill="url(#SVGID_13_)" d="M1.2,15.9c-0.3,0-1.2,0-1.5,0c-13.5,0-26.3-4.1-26.3-4.1s-0.4,1.3,1.6,2.5
		c9.8,6.3,12.5,8.7,23.1,9.2c0.2,0,4.6,0,4.7,0c10.6-0.5,16.1-1.2,23.1-9.2c1.5-1.8,1.6-2.5,1.6-2.5S14.8,15.9,1.2,15.9z"/>
	<path display="inline" d="M0.9,14.5c-0.3,0-1.3,0-1.6,0c-14.2,0-27.5-4.3-27.5-4.3s0.1,0.9,1.7,2.8c7.3,8.9,13.1,9.9,24.1,10.5
		c0.2,0,4.8,0,5,0C13.7,22.9,19.4,22,26.7,13c1.6-2,1.7-2.8,1.7-2.8S15.1,14.5,0.9,14.5z M23.1,14.9c-7.5,4.8-11.1,6-20.6,6.4
		c-0.1,0-4.1,0-4.2,0c-9.4-0.4-14-1.6-20.6-6.4c-1.6-1-1.4-1.9-1.4-1.9s11.4,3.6,23.4,3.6c0.2,0,1.1,0,1.3,0
		c12.1,0,23.4-3.6,23.4-3.6S24.7,13.8,23.1,14.9z"/>
	<path display="inline" d="M11.5-3.3c-0.1-4.3-1.7-7.8-3.6-7.8c-1.4,0-2.6,2.1-3.1,4.9l3.6,0.9L4.6-2.7c0.1,4.3,1.7,7.3,3.6,7.3
		S11.5,1,11.5-3.3z"/>
	<path display="inline" d="M-3-3.3c-0.1-4.3-1.7-7.8-3.6-7.8C-8-11.1-9.2-9-9.7-6.2l3.6,0.9l-3.8,2.6c0.1,4.3,1.7,7.3,3.6,7.3
		S-3,1-3-3.3z"/>
</g>
<g id="D1" display="none">
	<path display="inline" d="M11.3,4.4c-0.1-4.3-1.7-7.8-3.6-7.8c-1.4,0-2.6,2.1-3.1,4.9l3.6,0.9L4.4,5c0.1,4.3,1.7,7.3,3.6,7.3
		C9.9,12.3,11.3,8.7,11.3,4.4z"/>
	<path display="inline" d="M-3.2,4.4c-0.1-4.3-1.7-7.8-3.6-7.8c-1.4,0-2.6,2.1-3.1,4.9l3.6,0.9L-10.1,5c0.1,4.3,1.7,7.3,3.6,7.3
		C-4.6,12.3-3.2,8.7-3.2,4.4z"/>
</g>
</svg>
