<?xml version="1.0" encoding="utf-8"?>
<!-- Generator: Adobe Illustrator 16.0.4, SVG Export Plug-In . SVG Version: 6.00 Build 0)  -->
<!DOCTYPE svg PUBLIC "-//W3C//DTD SVG 1.1//EN" "http://www.w3.org/Graphics/SVG/1.1/DTD/svg11.dtd">
<svg version="1.1" id="Layer_1" xmlns="http://www.w3.org/2000/svg" xmlns:xlink="http://www.w3.org/1999/xlink" x="0px" y="0px"
	 width="841.891px" height="595.279px" viewBox="0 0 841.891 595.279" enable-background="new 0 0 841.891 595.279"
	 xml:space="preserve">
<g id="Foot">
	<path fill="#6CCFF5" d="M88.698,0.299c-4.124-1.049-8.231-2.167-12.354-3.226c-1.499-0.384-3.1-0.48-4.521-1.044
		c-5.691-2.256-11.298-4.727-16.998-6.96c-6.854-2.686-12.604-7.083-18.026-11.843c-3.121-2.742-2.245-1.532-4.102-4.912
		c-0.5,0-1.65-1.581-2.047-1.276c-8.055,6.169-6.87,6.32-15.356,6.798c-6.724,0.377-12.989-6.607-13.656-6.607
		c-2.109,5.392-2.604,5.496-6.983,9.354c-5.291,4.661-9.619,9.975-13.225,16.047c-1.613,2.717-2.049,3.412,1.141,5.843
		c1.636,1.248,3.533,2.152,5.312,3.211c0.006,0.184,7.893,3.149,30.784,3.087c1.261-0.77,9.173-1.897,10.079-2.701
		c1.333-2.453,2.55-2.664,4.65-0.442c0.005,0.004,0.011,0.008,0.016,0.012c0.561,0.535,2.894,1.132,4.186,1.997
		c1.593-0.079,3.876,1.646,5.524,1.534c15.504-1.057,26.604-2.046,31.412-0.94c1.116,0.257,4.38,0.239,5.525,0.082
		c4.246-0.164,9.375-1.989,10.397-4.203C91.272,2.344,90.902,0.86,88.698,0.299z"/>
	<path d="M7.239-6.779C4.973-6.359,3.474-7.35,2.96-9.251c-0.49-1.816-0.686-3.673,1.48-4.987c1.81-1.098,3.33-2.67,5.404-3.654
		c-1.175,1.269-2.239,2.662-3.544,3.779c-3.151,2.702-3.194,4.026,0.03,6.615C6.633-7.256,6.938-7.018,7.239-6.779z"/>
	<path d="M90.457,4.108c0.815-1.764,0.445-3.248-1.759-3.809c-4.124-1.049-8.231-2.167-12.354-3.226
		c-1.499-0.384-3.1-0.48-4.521-1.044c-5.691-2.256-11.298-4.727-16.998-6.96c-6.854-2.686-12.051-7.646-17.526-12.343
		c-2.812-2.413-3.432-2.357-4.282-4.092c-0.5,0-0.716-1.068-1.216-1.068c-0.551,1.69-0.485,1.948,2.23,4.449
		c4.266,3.925,8.778,7.646,13.53,10.958c3.66,2.551,7.816,4.407,11.819,6.439c1.46,0.74,3.146,1.612,4.675,1.523
		c3.16-0.184,5.733,1.391,7.966,2.862c2.7,1.781,5.605,1.502,8.358,2.323c1.325,0.395,2.798,0.38,4.055,0.904
		c1.514,0.632,1.712,1.768,0.271,2.832c-2.288,1.691-4.592,3.127-7.705,2.948c-3.567-0.206-7.155-2.525-10.742-0.075
		c-7.494-0.003-14.99-0.021-22.485-0.001c-2.457,0.007-4.505-0.766-6.278-2.541c-2.164-2.167-6.858-2.573-9.571-1.279
		c-1.695,0.81-3.551,1.409-5.398,1.751c-3.347,0.617-6.752,0.914-10.117,1.445C3.806,7.467-4.48,6.361-12.488,3.024
		c-2.895-1.206-4.447-3.562-3.1-6.329c1.861-3.816,4.066-7.772,7.094-10.649c6.065-5.765,7.688-6.587,11.517-13.873
		c-0.667,0-0.974-1.774-2.111,0.428c-3.435,5.074-3.437,5.606-6.256,7.983c-6.298,5.31-9.619,9.975-13.225,16.047
		c-1.613,2.717-2.049,3.412,1.141,5.843c1.636,1.248,3.533,2.152,5.312,3.211c0.006,0.184,7.893,3.149,30.784,3.087
		c1.261-0.77,9.173-1.897,10.079-2.701c1.333-2.454,2.55-2.664,4.65-0.442c0.005,0.004,0.011,0.008,0.016,0.012
		c0.561,0.535,2.894,1.132,4.186,1.997c1.593-0.079,3.876,1.646,5.524,1.534c15.504-1.057,26.604-2.046,31.412-0.94
		c1.116,0.257,4.38,0.239,5.525,0.082C84.305,8.147,89.434,6.322,90.457,4.108z M89.188,3.871c-1.21,0.96-2.657,1.624-4.016,2.399
		c-0.112-0.17-0.228-0.339-0.342-0.509c0.844-1.162,1.606-2.398,2.571-3.448c0.378-0.412,1.21-0.405,1.834-0.591
		C89.24,2.462,89.548,3.586,89.188,3.871z"/>
</g>
<g id="Leg">
	<path id="Fill_1_" fill="#6CCFF5" d="M13.557-8.29c0.07,0.088,0.137,0.182,0.205,0.279c-0.144-0.213-0.296-0.406-0.45-0.564
		C8.094-13.918,2.008-16.86-4.552-18.56c-1.65-0.428-7.445-0.85-12.94,9.47c-0.807,1.514-1.485,3.429-4.886,12.538
		c-0.41,1.096-2.384,9.838-2.823,10.937c0.312-0.781,0.312-1.755,0.323-2.722l-3.212,2.11c0.146-0.03,0.292-0.061,0.452-0.097
		c-0.983,2.356-1.552,3.856-2.217,5.288c-1.999,4.299-3.846,8.573-3.687,13.869c0.113,3.733-0.225,7.496-0.566,11.213
		c-1.041,11.333-3.581,22.5-1.718,34.141c0.353,2.2,0.618,4.429,0.784,6.658c0.913,12.195,4.553,23.58,7.536,35.167
		c1.28,4.974,2.424,9.999,3.522,15.034c1.674,7.674,3.182,15.4,4.894,23.062c2.022,9.051,4.305,20.024,6.239,29.099
		c0.841,3.951,1.081,8.072,1.776,12.065l2.016-1.325c0.177,0.54,0.373,1.073,0.609,1.592c3.315,7.292,12.372,9.673,18.997,5.32
		c6.368-4.183,9.091-13.064,6.35-20.221c-0.069-1.748-0.179-3.5-0.381-5.232c-1.01-8.675-3.573-19.317-4.021-28.015
		c-0.767-14.918-0.95-29.869-1.164-44.804c-0.066-4.613,0.664-9.213,0.854-13.833c0.315-7.682,0.186-15.423,0.8-23.056
		c0.795-9.87,2.136-19.66,3.246-29.484c0.794-7.014,1.904-13.99,2.317-21.047c0.476-8.156-0.074-16.361-1.24-24.492
		c-0.239-1.666-0.44-3.306-1.004-4.77L13.557-8.29z M14.143-7.338c-0.032-0.066-0.065-0.132-0.101-0.197
		C14.077-7.469,14.111-7.404,14.143-7.338z M13.961-7.685c-0.037-0.065-0.077-0.128-0.115-0.19
		C13.884-7.813,13.924-7.75,13.961-7.685z M14.052,180.032c-0.001-0.013-0.003-0.022-0.005-0.034
		C14.049,180.009,14.051,180.02,14.052,180.032L14.052,180.032z M-9.744,190.714c-0.083-0.287-0.166-0.573-0.244-0.86
		C-9.91,190.141-9.827,190.427-9.744,190.714L-9.744,190.714z M14.543-6.092c0.017,0.117,0.028,0.234,0.029,0.346
		C14.57-5.857,14.559-5.975,14.543-6.092z M14.213-7.182c0.032,0.071,0.061,0.14,0.088,0.211
		C14.274-7.043,14.244-7.112,14.213-7.182z M14.357-6.819c0.026,0.075,0.049,0.148,0.072,0.223
		C14.406-6.67,14.384-6.744,14.357-6.819z M14.47-6.454c0.021,0.082,0.035,0.163,0.05,0.243C14.505-6.291,14.49-6.371,14.47-6.454z"
		/>
	<g id="Outline_1_">
		<path d="M-18.689,151.699c-0.91-3.818-2.206-7.625-2.495-11.506c-0.598-8.018-3.013-15.424-4.792-23.053
			c-1.966-8.431-4.097-16.82-5.775-25.33c-0.874-4.429-0.954-9.072-1.347-13.623c-0.426-4.924-1.268-9.892-1.084-14.768
			c0.288-7.693,1.137-15.354,2.008-22.977c1.053-9.202,3.648-17.8,6.961-26.085c0.313-0.781,0.312-1.755,0.323-2.721l-3.213,2.111
			c0.145-0.03,0.292-0.062,0.453-0.096c-0.983,2.356-1.552,3.856-2.217,5.287c-1.999,4.3-3.846,8.574-3.687,13.87
			c0.113,3.734-0.225,7.496-0.566,11.213c-1.042,11.333-3.582,22.5-1.717,34.142c0.351,2.2,0.618,4.429,0.783,6.657
			c0.914,12.195,4.555,23.58,7.537,35.166c1.28,4.975,2.424,9.999,3.523,15.035c1.674,7.673,3.181,15.399,4.894,23.061
			c2.022,9.051,4.304,20.025,6.24,29.098c0.841,3.951,1.081,8.072,1.776,12.066l2.622-1.723c-0.009-0.317-0.009-0.635-0.02-0.953
			c-0.079-2.559-1.139-5.1-1.751-7.647C-13.056,177.182-15.889,163.447-18.689,151.699z"/>
		<path d="M17.298-5.351c-0.24-1.667-0.44-3.306-1.005-4.769l-2.748,1.805c0.54,0.685,1.005,1.717,1.015,2.544
			c0.126,10.842,0.313,21.691,0.098,32.517c-0.104,5.247-1.121,10.434-1.553,15.672C12.237,53,11.786,63.657,8.945,73.809
			c-0.685,2.447-1.116,5.117-1.165,7.713C7.652,88.398,7.8,95.29,7.831,102.176c0.003,0.608-0.013,1.219-0.056,1.823
			c-0.703,9.982-1.797,19.94-0.11,30.016c0.484,2.894,0.664,5.854,1.021,8.778c1.724,14.096,4.403,30.202,6.27,44.275
			c0.098,0.734,0.328,1.537,0.642,2.295l1.771-1.164c-0.265-0.714-0.413-1.512-0.441-2.44c-0.064-2.128-0.177-4.268-0.423-6.378
			c-1.011-8.676-3.574-19.319-4.021-28.017c-0.767-14.918-0.951-29.869-1.164-44.804c-0.067-4.612,0.664-9.212,0.854-13.832
			c0.315-7.684,0.184-15.424,0.8-23.057c0.795-9.871,2.136-19.661,3.247-29.484c0.794-7.013,1.904-13.99,2.316-21.048
			C19.014,10.985,18.463,2.78,17.298-5.351z"/>
	</g>
</g>
</svg>
