<?xml version="1.0" encoding="utf-8"?>
<!-- Generator: Adobe Illustrator 16.0.4, SVG Export Plug-In . SVG Version: 6.00 Build 0)  -->
<!DOCTYPE svg PUBLIC "-//W3C//DTD SVG 1.1//EN" "http://www.w3.org/Graphics/SVG/1.1/DTD/svg11.dtd">
<svg version="1.1" id="Layer_1" xmlns="http://www.w3.org/2000/svg" xmlns:xlink="http://www.w3.org/1999/xlink" x="0px" y="0px"
	 width="841.891px" height="595.279px" viewBox="0 0 841.891 595.279" enable-background="new 0 0 841.891 595.279"
	 xml:space="preserve">
<g id="Foot" display="none">
	<path display="inline" fill="#6CCFF5" d="M73.843,16.387c-4.123-1.049-8.23-2.167-12.354-3.226c-1.499-0.384-3.1-0.479-4.521-1.044
		c-5.69-2.256-11.298-4.727-16.997-6.96C33.116,2.471,27.366-1.925,21.944-6.685c-3.121-2.742-2.245-1.532-4.103-4.912
		c-0.5,0-1.649-1.581-2.047-1.276C7.74-6.704,8.925-6.553,0.439-6.075c-6.725,0.377-12.989-6.606-13.656-6.606
		c-2.109,5.392-2.604,5.496-6.983,9.354c-5.291,4.661-9.618,9.976-13.225,16.047c-1.613,2.718-2.049,3.412,1.141,5.844
		c1.637,1.248,3.533,2.151,5.312,3.211c0.006,0.184,7.893,3.148,30.784,3.087c1.261-0.771,9.173-1.897,10.079-2.701
		c1.333-2.453,2.55-2.664,4.649-0.442c0.005,0.004,0.012,0.009,0.017,0.013c0.561,0.534,2.894,1.132,4.186,1.997
		c1.593-0.079,3.876,1.646,5.524,1.533c15.504-1.057,26.604-2.046,31.412-0.939c1.115,0.257,4.38,0.239,5.524,0.082
		c4.246-0.164,9.375-1.989,10.397-4.203C76.417,18.433,76.047,16.949,73.843,16.387z"/>
	<path display="inline" d="M-7.616,9.31c-2.266,0.42-3.765-0.571-4.278-2.473c-0.49-1.815-0.687-3.673,1.479-4.986
		c1.811-1.099,3.33-2.671,5.404-3.654C-6.186-0.534-7.25,0.859-8.555,1.976c-3.151,2.701-3.194,4.025,0.03,6.614
		C-8.222,8.833-7.917,9.071-7.616,9.31z"/>
	<path display="inline" d="M75.602,20.197c0.814-1.764,0.444-3.248-1.76-3.81c-4.123-1.049-8.23-2.167-12.354-3.226
		c-1.499-0.384-3.1-0.479-4.521-1.044c-5.69-2.256-11.298-4.727-16.997-6.96C33.116,2.471,27.919-2.489,22.444-7.185
		c-2.812-2.413-3.432-2.357-4.282-4.093c-0.5,0-0.716-1.067-1.216-1.067c-0.551,1.689-0.485,1.948,2.229,4.449
		c4.267,3.925,8.778,7.646,13.53,10.958c3.66,2.551,7.816,4.406,11.819,6.438c1.46,0.74,3.146,1.612,4.675,1.523
		c3.16-0.185,5.733,1.391,7.966,2.861c2.7,1.781,5.605,1.502,8.358,2.323c1.325,0.396,2.798,0.38,4.055,0.904
		c1.514,0.632,1.712,1.768,0.271,2.832c-2.288,1.69-4.593,3.127-7.705,2.948c-3.567-0.206-7.155-2.525-10.742-0.075
		c-7.494-0.003-14.99-0.021-22.485-0.001c-2.457,0.007-4.505-0.767-6.277-2.541c-2.164-2.167-6.858-2.573-9.571-1.279
		c-1.695,0.811-3.551,1.409-5.398,1.751c-3.347,0.617-6.752,0.914-10.116,1.445c-8.604,1.362-16.89,0.257-24.897-3.08
		c-2.895-1.206-4.447-3.562-3.1-6.329c1.86-3.816,4.065-7.772,7.094-10.649c6.064-5.765,7.688-6.587,11.517-13.873
		c-0.667,0-0.974-1.773-2.11,0.429c-3.436,5.073-3.438,5.605-6.257,7.982c-6.298,5.311-9.618,9.976-13.225,16.047
		c-1.613,2.718-2.049,3.412,1.141,5.844c1.637,1.248,3.533,2.151,5.312,3.211c0.006,0.184,7.893,3.148,30.784,3.087
		c1.261-0.771,9.173-1.897,10.079-2.701c1.333-2.454,2.55-2.664,4.649-0.442c0.005,0.004,0.012,0.009,0.017,0.013
		c0.561,0.535,2.894,1.132,4.186,1.997c1.593-0.079,3.876,1.646,5.524,1.533c15.504-1.057,26.604-2.046,31.412-0.939
		c1.115,0.257,4.38,0.239,5.524,0.082C69.45,24.236,74.579,22.411,75.602,20.197z M74.333,19.96c-1.21,0.96-2.657,1.624-4.016,2.399
		c-0.112-0.17-0.229-0.339-0.342-0.509c0.844-1.162,1.605-2.398,2.57-3.448c0.378-0.412,1.21-0.405,1.834-0.591
		C74.385,18.551,74.693,19.675,74.333,19.96z"/>
</g>
<g id="Leg">
	<path id="Fill_1_" fill="#6CCFF5" d="M13.557-8.29c0.07,0.088,0.137,0.183,0.205,0.279c-0.144-0.213-0.296-0.406-0.45-0.564
		C8.094-13.918,2.008-16.86-4.552-18.56c-1.65-0.428-7.445-0.851-12.94,9.47c-0.807,1.514-1.485,3.429-4.886,12.538
		c-0.41,1.096-2.385,9.838-2.823,10.938c0.312-0.781,0.312-1.756,0.323-2.723l-3.212,2.11c0.146-0.03,0.292-0.062,0.451-0.097
		c-0.982,2.355-1.552,3.855-2.217,5.287c-1.999,4.3-3.846,8.573-3.687,13.869c0.112,3.733-0.226,7.496-0.566,11.213
		c-1.041,11.333-3.581,22.5-1.718,34.142c0.353,2.2,0.618,4.429,0.784,6.658c0.913,12.194,4.553,23.579,7.536,35.167
		c1.279,4.974,2.424,9.999,3.521,15.033c1.674,7.675,3.182,15.4,4.895,23.062c2.021,9.051,4.305,20.023,6.238,29.099
		c0.842,3.951,2.081,14.072,2.776,18.065l2.016-1.325c0.178,0.54,0.373,1.073,0.609,1.592c3.315,7.292,12.372,7.673,18.997,3.32
		c6.368-4.184,10.426-4.668,7.685-11.825c-0.068-1.748-1.514-15.896-1.716-17.628c-1.01-8.675-4.573-19.317-5.021-28.015
		c-0.768-14.918-0.95-29.869-1.164-44.805c-0.066-4.612,0.664-9.213,0.854-13.833c0.315-7.682,0.187-15.423,0.8-23.056
		c0.795-9.87,2.137-19.66,3.246-29.484c0.794-7.014,1.904-13.989,2.317-21.047c0.476-8.155-0.074-16.36-1.24-24.492
		c-0.239-1.665-0.439-3.306-1.004-4.77L13.557-8.29z M14.143-7.338c-0.032-0.065-0.064-0.132-0.101-0.197
		C14.077-7.469,14.111-7.404,14.143-7.338z M13.961-7.685c-0.037-0.065-0.077-0.128-0.115-0.19
		C13.884-7.813,13.924-7.75,13.961-7.685z M15.052,180.032c-0.001-0.013-0.003-0.021-0.005-0.034
		C15.049,180.009,15.051,180.02,15.052,180.032L15.052,180.032z M-9.744,190.714c-0.083-0.286-0.166-0.572-0.244-0.859
		C-9.91,190.141-9.827,190.427-9.744,190.714L-9.744,190.714z M14.543-6.092c0.017,0.117,0.027,0.234,0.028,0.346
		C14.57-5.857,14.559-5.975,14.543-6.092z M14.213-7.182c0.032,0.071,0.061,0.14,0.088,0.211
		C14.274-7.043,14.244-7.112,14.213-7.182z M14.357-6.819c0.026,0.074,0.049,0.147,0.072,0.223
		C14.406-6.67,14.384-6.744,14.357-6.819z M14.47-6.454c0.021,0.082,0.035,0.163,0.05,0.243C14.505-6.291,14.49-6.371,14.47-6.454z"
		/>
	<g id="Outline_1_">
		<path d="M-18.689,151.699c-0.91-3.818-2.206-7.625-2.495-11.506c-0.598-8.019-3.013-15.424-4.792-23.053
			c-1.966-8.432-4.097-16.82-5.774-25.33c-0.874-4.43-0.954-9.072-1.348-13.623c-0.426-4.924-1.268-9.893-1.084-14.769
			c0.288-7.692,1.138-15.354,2.009-22.977c1.053-9.202,3.647-17.8,6.961-26.085c0.312-0.781,4.259-15.006,6.174-19.827l-2.428,4.479
			c0.146-0.029-6.345,14.676-6.184,14.642c-0.982,2.355-1.552,3.855-2.217,5.287c-1.999,4.3-3.846,8.574-3.688,13.87
			c0.113,3.733-0.225,7.496-0.565,11.213c-1.042,11.333-3.582,22.5-1.717,34.142c0.351,2.2,0.617,4.43,0.782,6.657
			c0.914,12.195,4.556,23.58,7.537,35.166c1.28,4.975,2.425,9.999,3.523,15.035c1.674,7.673,3.181,15.398,4.894,23.061
			c2.022,9.051,4.305,20.025,6.24,29.099c0.841,3.95,2.081,14.071,2.776,18.065l2.622-1.723c-0.01-0.317-0.01-0.635-0.021-0.953
			c-0.079-2.559-2.139-11.1-2.751-13.647C-13.056,177.182-15.889,163.447-18.689,151.699z"/>
		<path d="M17.298-5.351c-1.332-5.51-7.885-7.735-8.45-9.199l0.517,2.493c0.54,0.685,5.185,5.459,5.194,6.286
			c0.126,10.842,0.313,21.69,0.099,32.517c-0.104,5.247-1.121,10.435-1.554,15.672C12.237,53,11.786,63.657,8.945,73.809
			c-0.685,2.446-1.115,5.117-1.165,7.713C7.652,88.398,7.8,95.29,7.831,102.176c0.003,0.608-0.014,1.22-0.057,1.823
			c-0.703,9.982-1.797,19.94-0.109,30.017c0.483,2.894,0.664,5.854,1.021,8.777c1.725,14.097,6.403,35.202,8.271,49.275
			c0.098,0.734,2.328,13.909,2.642,14.667l1.9-0.905c-0.266-0.714-2.153-16.253-2.181-17.182c-0.064-2.128-1.566-7.157-1.812-9.268
			c-1.011-8.676-4.574-19.318-5.021-28.017c-0.767-14.918-0.95-29.869-1.164-44.804c-0.066-4.612,0.664-9.212,0.854-13.832
			c0.314-7.685,0.184-15.424,0.8-23.058c0.795-9.871,2.136-19.66,3.247-29.483c0.794-7.014,1.904-13.99,2.316-21.048
			C19.014,10.985,18.463,2.78,17.298-5.351z"/>
	</g>
</g>
<g id="Thigh" display="none">
	<path id="Fill" display="inline" fill-rule="evenodd" clip-rule="evenodd" fill="#6CCFF5" d="M45.698,65.707l-1.472-18.748
		l-0.128,0.011c-0.218-1.065-0.95-1.958-2.055-2.854c-3.273-2.648,4.004-36.554,1.126-39.635c-3.376-3.611-5.991-8.02-9.557-11.388
		c-8.773-8.286-12.454-9.012-21.544-16.933c-1.873-1.631-6.776-1.624-8.893-2.994c-1.412-0.916-9.479,1.458-10.848,0.463
		c-6.437-4.675-20.516,9.838-28.073,11.201c-10.328,1.863-9.718,10.857-7.805,21.225c0.709,6.067,1.945,9.726,3.947,12.236
		c1.767,5.112,4.002,10.137,4.904,15.405c1.833,10.719,3.091,21.572,3.968,32.424c0.551,6.828-0.501,13.797,0.054,20.624
		c0.446,5.516,2.221,10.913,3.406,16.362c1.045,4.813,1.718,9.752,3.205,14.415c4.977,15.615,10.255,31.125,15.369,46.694
		c0.257,0.782,0.05,1.728,0.058,2.597c-0.827-0.029,2.048,17.87,1.329,17.57c-1.012-0.422-4.359,19.557-0.518,28.479l0.67,8.547
		c-1.254-0.007,4.241,2.984,2.987,2.982c2.966,2.887,7.599-1.579,14.224-1.77c3.774-0.109,6.167-2.138,8.241-5.254
		c4.434-6.662,7.022-13.985,8.732-21.792c1.202-5.495,3.141-10.818,4.433-16.297c0.652-2.763,0.44-5.725,0.895-8.553
		c2.189-13.583,4.598-27.129,6.666-40.731c0.953-6.277,1.56-12.636,1.866-18.98c0.352-7.296-0.273-14.674,3.007-21.544
		c0.328-0.687,0.174-1.613,0.252-2.427c0.157-1.627,0.296-3.256,0.485-4.879c0.474-4.074,1.265-8.138,1.365-12.218
		C46.029,68.545,45.893,67.141,45.698,65.707L45.698,65.707z"/>
	<path id="Outline" display="inline" fill-rule="evenodd" clip-rule="evenodd" d="M45.995,69.945c0.034-1.4-0.102-2.804-0.297-4.238
		l-1.472-18.748l-0.128,0.011c-0.218-1.065-0.95-1.958-2.055-2.854c-3.273-2.648,4.004-36.554,1.126-39.635
		c-3.376-3.611-5.991-8.02-9.557-11.388c-8.773-8.286-12.454-9.012-21.544-16.933c-1.873-1.631-6.776-1.624-8.893-2.994
		c-1.412-0.916-9.479,1.458-10.848,0.463c-6.437-4.675-20.516,9.838-28.073,11.201c-10.328,1.863-9.718,10.857-7.805,21.225
		c0.709,6.067,1.945,9.726,3.947,12.236c1.767,5.112,4.002,10.137,4.904,15.405c1.833,10.719,3.091,21.572,3.968,32.424
		c0.551,6.828-0.501,13.797,0.054,20.624c0.446,5.516,2.221,10.913,3.406,16.362c1.045,4.813,1.718,9.752,3.205,14.415
		c4.977,15.615,10.255,31.125,15.369,46.694c0.257,0.782,0.05,1.728,0.058,2.597c-0.827-0.029,2.048,17.87,1.329,17.57
		c-0.415-0.173-1.222,3.083-1.765,7.599l6.639,0.342c-0.843-10.208-3.497-23.68-3.609-24.113c-0.563-2.169-1.356-4.273-1.933-6.439
		c-1.18-4.43-1.761-9.111-3.501-13.282c-5.41-12.967-10.154-26.124-12.895-39.988c-1.013-5.123-2.001-10.253-2.872-15.403
		c-0.815-4.824-2.097-9.685-2.048-14.521c0.103-10.252,0.891-20.503,1.51-30.748c0.129-2.121,0.229-4.546,1.267-6.231
		c1.321-2.146,1.152-3.733,0.058-5.65c-4.223-7.4-8.419-14.816-12.651-22.211c-1.135-3.097-2.376-6.562-2.73-9.132
		c0.578-4.362,1.068-8.745,1.951-13.044c0.243-1.186,1.872-2.853,2.953-2.929c2.927-0.205,12.546-3.718,14.96-5.423
		c6.518-4.601,11.004-8.495,24.281-6.127c10.807,1.927,20.271,8.802,28.264,16.493c7.32,7.044,4.461,45.015,10.089,53.743
		c0.499,0.774,1.125,1.465,1.813,2.248l0.905,11.542c-1.115,1.168-0.79,2.536-0.672,3.967c0.263,3.232,1.094,6.827,0.088,9.678
		c-2.516,7.131-2.442,14.507-3.051,21.796c-0.484,5.795,0.292,11.695-0.173,17.493c-0.64,7.979-1.515,15.985-3.012,23.834
		c-3.403,17.845-7.12,35.63-10.985,53.378c-1.234,5.671-2.984,11.299-5.165,16.661c-1.514,3.724-4.021,7.072-6.39,10.356
		c-0.882,1.225-2.543,2.259-4.005,2.553c-1.371,0.276-2.774,0.404-4.186,0.473l-0.104,2.018c1.339-0.366,2.78-0.649,4.333-0.694
		c3.774-0.109,6.167-2.138,8.241-5.254c4.434-6.662,7.022-13.985,8.732-21.792c1.202-5.495,3.141-10.818,4.433-16.297
		c0.652-2.763,0.44-5.725,0.895-8.553c2.189-13.583,4.598-27.129,6.666-40.731c0.953-6.277,1.56-12.636,1.866-18.98
		c0.352-7.296-0.273-14.674,3.007-21.544c0.328-0.687,0.174-1.613,0.252-2.427c0.157-1.627,0.296-3.256,0.485-4.879
		C45.104,78.089,45.895,74.025,45.995,69.945z"/>
</g>
<g id="LegR">
	<path fill-rule="evenodd" clip-rule="evenodd" fill="#6CCFF5" d="M-21.742,14.774C-12.089-4.239-1.967-22.333,8.755-13.037
		c10.722,9.295,12.393,6.639,9.931,55.804c-2.461,49.164-0.614,120.36-1.1,125.541c-0.486,5.181-2.484,37.831-9.167,38.416
		c-6.682,0.585-23.935-5.095-27.253-33.356C-22.155,145.103-33.523,58.85-33.417,50.452C-33.313,42.053-21.742,14.774-21.742,14.774
		z"/>
	<path fill-rule="evenodd" clip-rule="evenodd" d="M-19.488,13.283c-2.407,5.476-4.864,10.912-7.192,16.45
		c-0.836,1.988-1.523,4.159-2.002,6.36c-2.966,13.659-3.002,27.656-1.558,41.468c2.36,22.584,5.368,45.032,8.085,67.542
		c1.138,9.414,2.236,18.836,3.321,28.263c0.111,0.976-0.005,2.003-0.528,3.15c-0.494-2.856-1.057-5.693-1.473-8.571
		c-2.685-18.599-5.678-37.125-7.902-55.833c-2.079-17.485-5.55-34.67-4.652-52.876c0.341-6.912-0.697-14.038,0.557-21.038
		c0.221-1.237,0.211-2.701,0.708-3.671c3.396-6.647,6.884-13.208,10.383-19.753c0.459-0.857,1.16-1.467,1.749-2.191
		C-19.825,12.817-19.656,13.05-19.488,13.283z"/>
	<path fill-rule="evenodd" clip-rule="evenodd" d="M9.052-15.519c1.276,1.397,2.424,3.139,3.847,4.134
		c8.024,5.603,7.911,10.26,7.965,23.119c0.047,11.479-0.195,22.966-0.296,34.449c-0.015,1.549,0.099,3.099,0.074,4.648
		c-0.516,32.444-0.632,64.911-1.739,97.326c-0.588,17.233-2.84,34.383-4.498,51.542c-0.235,2.434-1.357,4.71-2.067,7.059
		c-1.306-0.01-2.612-0.023-3.918-0.034c0.155-0.876,0.135-1.934,0.493-2.6c5.363-9.988,4.932-21.918,5.343-33.19
		c1.116-30.597,1.581-61.234,2.237-91.857c0.439-20.508,0.642-41.024,1.231-61.523c0.144-4.95,0.394-9.831,0.18-14.808
		c-0.177-4.109-1.352-6.667-3.798-8.714C10.48-9,11.866-7.875,8.322-11.09C10.189-11.074,7.187-15.535,9.052-15.519z"/>
</g>
<g id="ThighR" display="none">
	<path id="Fill_3_" display="inline" fill-rule="evenodd" clip-rule="evenodd" fill="#6CCFF5" d="M45.411,22.642
		c-0.007-0.068-0.038-0.246-0.085-0.508c-0.053-1.269-0.206-2.306-0.529-2.796l0,0c-1.329-6.893-4.351-22.147-4.445-22.947
		c-1.186-0.021-6.103-13.953-7.233-14.258c-7.324-1.98-6.177-1.845-13.511-3.777c-6.741-1.778-13.539-3.271-20.287-5.016
		c-1.154-0.298-8.906-5.098-9.669-5.958c-2.159-2.434-11.831-0.541-15.766,1.485c-5.842,3.003-11.019,6.835-15.003,12.693
		c-3.353,4.931-5.78,10.199-7.604,15.949c0.004-0.01,0.005-0.022,0.009-0.031c0.642-1.933-2.062,3.543-2.062,3.543l0.708,2.385
		c0.091,8.926,2.524,24.224,6.147,33.563c-0.053,0.493-0.103,0.795,0.01,0.963c0.559,0.841,1.083,1.714,1.592,2.599
		c0.217,0.408,0.437,0.802,0.659,1.162c2.48,4.44,4.775,9.04,9.252,11.784c1.643,1.006,3.113,2.884,4.041,4.733
		c1.248,2.484,1.804,5.369,2.825,8.007c1.012,2.62,2.478,5.059,3.31,7.732c1.715,5.514,3.146,11.129,4.68,16.708
		c1.641,5.965,3.671,11.854,4.809,17.924c1.945,10.389,3.27,20.903,4.975,31.345c0.674,4.123,0.065,7.719-1.73,11.385
		c-0.861,1.76-5.498,9.526-4.689,10.221c-0.91,8.698-0.605,25.417,2.737,31.661c3.792,7.084,7.62,21.282,17.417,21.654
		c0.018,0,0.035,0.006,0.053,0.005c0.022-0.002,0.046-0.003,0.069-0.005c0.599,0.016,1.218-0.013,1.862-0.105
		c0.337-0.047,0.666-0.097,0.988-0.147c3.027-0.297,6.049-0.68,9.051-1.163c2.882-0.464,5.029-2.168,6.213-5.261
		c1.455-3.803,3.285-7.444,4.505-11.335c0.974-3.108,1.345-6.474,1.862-9.753c0.56-3.557,0.457-7.365,1.549-10.679
		c3.621-10.987,7.365-21.947,11.603-32.641c4.537-11.444,5.091-23.762,6.243-35.888c0.781-8.21,0.084-16.638-0.06-24.968
		c-0.062-3.618-0.454-7.235-0.588-10.855c-0.083-2.273,0.038-4.552,0.073-7.224c1.655,0.58-3.273-23.728-4.502-33.316
		c-0.055-0.441,0.526-5.336,0.454-8.861C45.366,22.647,45.385,22.645,45.411,22.642z"/>
	<path id="Outline_3_" display="inline" fill-rule="evenodd" clip-rule="evenodd" d="M44.797,19.339
		c-1.329-6.893-4.351-22.147-4.445-22.947c-1.186-0.021-6.103-13.953-7.233-14.258c-7.324-1.98-6.177-1.845-13.511-3.777
		c-6.741-1.778-13.539-3.271-20.287-5.016c-1.154-0.298-8.906-5.098-9.669-5.958c-2.159-2.434-11.831-0.541-15.766,1.485
		c-5.842,3.003-11.019,6.835-15.003,12.693c-3.353,4.931-5.78,10.199-7.604,15.949c0.004-0.01,0.005-0.022,0.009-0.031
		c0.642-1.933-2.062,3.543-2.062,3.543l0.708,2.385c0.091,8.926,2.524,24.224,6.147,33.563c-0.053,0.493-0.103,0.795,0.01,0.963
		c0.559,0.841,1.083,1.714,1.592,2.599c0.217,0.408,0.437,0.802,0.659,1.162c2.48,4.44,4.775,9.04,9.252,11.784
		c1.643,1.006,3.113,2.884,4.041,4.733c1.248,2.484,1.804,5.369,2.825,8.007c1.012,2.62,2.478,5.059,3.31,7.732
		c1.715,5.514,3.146,11.129,4.68,16.708c1.641,5.965,3.671,11.854,4.809,17.924c1.945,10.389,3.27,20.903,4.975,31.345
		c0.674,4.123,0.277,7.831-1.73,11.385c-9.594,16.993-4.453,25.699-4.864,27.729l2.085-0.635c0.117-0.537-0.365-10.223,1.634-19.179
		c0.283-1.27,1.023-2.391,1.616-3.533c2.426-4.674,4.59-9.312,3.594-15.155c-1.693-9.94-2.768-20.008-4.763-29.874
		c-2.116-10.453-4.875-20.769-7.588-31.076c-1.905-7.229-4.665-14.283-2.412-21.954c0.149-0.503-0.188-1.389-0.553-1.856
		c-0.875-1.12-1.899-2.096-3.035-3.314c-3.831,1.436-6.821,0.133-8.968-4.525c-0.886-1.922-0.892-4.738-2.196-5.933
		c-1.125-1.028-2.382-1.886-3.704-2.699c-0.001-0.001-0.002-0.003-0.003-0.006c-3.475-6.333-7.701-25.309-9.374-35.416
		c1.615-8.566,5.348-16.048,10.529-22.476c5.737-7.12,13.841-10.157,21.736-13.327c0.582-0.232,2.046,0.652,2.386,1.4
		c1.282,2.821,11.766,7.671,15.953,8.418c5.708,1.017,11.445,1.828,17.124,3.028c5.059,1.07,14.196,2.957,13.444,5.036
		c-0.247,0.682,4.811,11.881,5.054,12.449c0.718,1.679,2.73,15.62,4.383,21.606c0.075,0.894,0.082,5.293,0.11,8.336
		c-0.101,0.546-0.064,1.553,0.063,2.867c0,0.01,0.001,0.024,0.002,0.034c0.001,0.001,0.001,0.002,0.001,0.004
		c0.723,7.366,4.273,24.222,2.484,23.587c-1.383,3.043,0.07,11.911,0.397,15.883c0.842,10.23,1.783,20.598,1.158,30.754
		c-0.642,10.45-0.722,21.128-3.594,31.266c-1.418,5.004-2.247,10.31-4.218,15.01c-3.827,9.124-8.291,17.907-12.433,26.866
		c-0.375,0.813-0.738,2.438-0.412,2.735c2.718,2.459,1.769,5.675,1.601,8.521c-0.462,7.876-3.581,14.806-6.783,21.583
		c-0.708,1.496-2.789,2.702-4.417,3.005c-0.309,0.057-0.619,0.102-0.93,0.147c-5.144,0.959-9.435-0.014-12.956-2.124l0.693,5.894
		c0.824,0.264,1.693,0.422,2.618,0.458c0.018,0,0.035,0.006,0.053,0.005c0.022-0.002,0.046-0.003,0.069-0.005
		c0.599,0.016,1.218-0.013,1.862-0.105c0.337-0.047,0.666-0.097,0.988-0.147c3.027-0.297,6.049-0.68,9.051-1.163
		c2.882-0.464,5.029-2.168,6.213-5.261c1.455-3.803,3.285-7.444,4.505-11.335c0.974-3.108,1.345-6.474,1.862-9.753
		c0.56-3.557,0.457-7.365,1.549-10.679c3.621-10.987,7.365-21.947,11.603-32.641c4.537-11.444,5.091-23.762,6.243-35.888
		c0.781-8.21,0.084-16.638-0.06-24.968c-0.062-3.618-0.454-7.235-0.588-10.855c-0.083-2.273,0.038-4.552,0.073-7.224
		c1.655,0.58-3.273-23.728-4.502-33.316c-0.055-0.441,0.526-5.336,0.454-8.861c0.024-0.002,0.042-0.004,0.069-0.007
		c-0.007-0.068-0.038-0.246-0.085-0.508C45.273,20.865,45.12,19.829,44.797,19.339z"/>
</g>
<g id="TopA">
	<path id="Fill_2_" fill-rule="evenodd" clip-rule="evenodd" fill="#6CCFF5" d="M70.935-197.955
		c-1.591-0.358-3.552-0.872-4.48-2.021c-2.524-3.125-5.002-6.189-8.62-8.11c-0.118-0.062-0.21-0.17-0.313-0.259
		c-6.623-5.731-13.803-10.459-22.334-12.935c-5.368-1.558-10.68-2.304-16.032-0.133c-0.376,0.152-0.822,0.771-0.804,1.154
		c0.152,3.354,0.403,6.703,0.575,9.3c2.337,0.819,4.192,1.286,5.877,2.101c3.288,1.59,6.775,0.988,9.27-1.68
		c0.374-0.4,1.271-0.482,1.899-0.423c0.566,0.055,1.096,0.502,1.639,0.781c4.018,2.064,8.153,3.863,10.995,7.719
		c1.626,2.205,3.814,3.995,5.74,5.98c0.396,0.407,0.751,0.853,1.125,1.282c-0.55,0.33-1.093,0.674-1.653,0.987
		c-1.636,0.91-3.354,1.696-4.894,2.746c-1.139,0.776-2.048,1.888-3.497,3.265c-0.205-2.72-0.375-4.967-0.56-7.434
		c-1.446,1.313-1.824,2.912-1.745,5.222c0.107,3.115,1.161,6.333-0.854,9.274c-0.162,0.238,0.013,0.707,0.05,1.457
		c0.498-0.573,0.792-0.821,0.972-1.134c3.063-5.311,7.646-8.688,13.435-10.486c1.156-0.358,2.383-0.54,3.592-0.66
		c1.052-0.103,1.407,0.439,1.568,1.581c0.625,4.421-1.709,7.525-4.462,10.41c-0.501,0.526-1.644,0.444-2.492,0.632
		c-0.792,0.175-1.688,0.164-2.355,0.551c-0.733,0.425-1.276,1.197-1.871,1.847c-2.853,3.108-5.062,3.358-8.448,0.88
		c-1.246-0.913-2.292-2.277-3.669-2.806c-6.718-2.58-13.307-1.882-19.657,1.359c-0.453,0.232-0.702,0.863-1.046,1.308
		c0.654,0.156,1.309,0.449,1.961,0.442c1.46-0.015,2.918-0.201,4.38-0.271c0.731-0.036,1.506,0.19,2.194,0.022
		c4.829-1.181,9.039,0.761,13.285,2.542c0.151,0.063,0.226,0.313,0.514,0.738c-0.366,0.238-0.736,0.457-1.094,0.684h0
		c-9.878,1.913-19.219,0.002-20.875-1.02c-0.006-0.003-0.012-0.004-0.017-0.007c-3.552-2.438-7.926-3.51-11.234-5.815
		c1.77-0.794,3.532-1.528,5.229-2.387c0.362-0.184,0.496-0.82,0.735-1.248c-0.477-0.171-0.968-0.522-1.425-0.481
		c-1.955,0.176-3.937,0.306-5.838,0.756c-2.474,0.585-4.768,0.144-6.896-0.959c-5.8-3.005-10.797-6.935-14.268-12.635
		c-1.149-1.888-2.5-3.753-4.126-5.224c-1.623-1.468-3.772-2.335-5.57-3.632c-2.379-1.718-8.134,3.908-11.786,5.812
		c-0.536,0.135-1.104,0.329-1.689,0.6c-0.146,0.014-0.329,0.111-0.507,0.242c-2.603,1.282-2.716,2.018-4.95,4.071l0.782,1.747
		c-0.625,0.386-0.971,0.713-0.936,0.936c0.117,0.762,0.146,1.538,0.215,2.308c-0.194-0.007-1.005-1.538-1.375-2.859
		c-2.069,2.95-0.807,5.707-1.151,8.228c-0.275,2.01,0.234,4.135,0.456,6.203c0.415,3.877,0.53,7.831,1.398,11.607
		c1.209,5.256,3.254,10.32,4.447,15.578c0.82,3.617,0.802,7.423,1.171,11.27c-1.337,0.396-2.999,0.701-2.175,2.857
		c1.035,2.704,2.061,5.4,3.725,7.819c0.595,0.864,1.096,1.946,1.192,2.971c0.728,7.792,5.491,14.427,6.292,22.186
		c0.027,0.259,0.198,0.502,0.308,0.751c1.861,4.226,3.762,8.435,5.572,12.681c0.958,2.25,0.655,4.737,2.431,6.994
		c1.783,2.265,2.38,5.541,3.209,8.457c0.77,2.702,1.314,5.494,1.638,8.282c0.128,1.098,0.482,1.4,1.36,1.566
		c1.906,0.36,3.81,0.728,5.969,1.142c-0.368,0.78-0.572,1.419-0.934,1.951c-2.814,4.134-5.651,8.252-8.496,12.366
		c-1.947,2.814-3.919,5.611-5.872,8.421c-0.113,0.164-0.169,0.371-0.226,0.565c-1.126,3.917-3.495,7.125-6.102,10.11
		c-2.482,2.844-5.334,5.36-7.905,8.131c-3.527,3.799-5.322,8.486-7.235,13.263c-3.097,7.735-3.104,15.591-2.521,23.583
		c0.11,1.507,0.998,4.57,1.667,5.045c3.591,9.612,11.694,24.037,16.701,26.321c0.002,0.001,0.004,0.001,0.005,0.002
		c0.497,0.416,1.01,0.806,1.558,1.136c3.508,2.113,5.305,0.088,4.947-0.352c0.492-0.293,0.953-0.749,1.482-0.85
		c3.377-0.652,6.765-1.249,10.16-1.803c0.646-0.105,1.362-0.04,2.002,0.12c8.251,2.066,9.26-3.683,9.246-4.701
		c-0.045-3.087,0.414-6.214,0.994-9.265c0.292-1.543,1.248-2.964,1.937-4.425c1.153-2.448,1.989-5.137,3.572-7.268
		c2.736-3.68,5.864-7.083,8.975-10.464c2.612-2.839,5.471-5.448,8.156-8.221c6.446-6.658,12.749-13.458,19.32-19.99
		c3.688-3.664,7.744-6.965,11.729-10.317c2.109-1.773,4.397-3.339,6.655-4.928c1.047-0.738,2.361-1.145,3.293-1.99
		c1.926-1.748,3.691-3.673,5.491-5.555c1.378-1.442,6.139,0.753,5.608-2.506c-0.176-1.08,0.263-1.551,1.328-1.458
		c0.995,0.088,1.987,0.201,3.16,0.32c-0.55-1.982-1.016-3.625-3.392-3.84c-3.85-0.35-5.246-2.132-5.374-6.004
		c-0.035-1.115-0.557-2.409-1.272-3.277c-3.357-4.072-6.892-7.996-10.284-12.041c-0.813-0.969-1.488-2.132-1.935-3.316
		c-1.25-3.31-0.729-5.918,1.189-7.618c0.833-0.74,1.676-1.577,2.196-2.541c1.409-2.615,2.658-5.317,3.954-7.992
		c0.731-1.51,1.482-3.013,2.129-4.558c1.953-4.667,1.191-10.161,4.38-14.464c0.14-0.188,0.088-0.514,0.14-0.772
		c0.413-2.001,0.658-4.058,1.284-5.991c1.209-3.732,2.658-7.388,3.947-11.095c0.187-0.539,0.034-1.193,0.057-1.793
		c0.038-1.009-0.245-2.204,0.194-2.993c2.072-3.733,3.125-7.93,5.371-11.574c0.097-0.157-0.022-0.434,0-0.65
		c0.372-3.728,0.386-7.539,1.214-11.163c1.122-4.907,1.834-9.762,0.118-14.551c-1.388-3.871-3.175-7.617-5.032-11.294
		c-1.453-2.879-3.278-5.571-4.949-8.34c-0.638-1.056-1.306-2.094-2.185-3.5c1.208,0.02,1.832,0.029,2.503,0.04
		C73.183-196.913,72.46-197.611,70.935-197.955z"/>
	<path id="Outline_2_" fill-rule="evenodd" clip-rule="evenodd" d="M70.935-197.955c-1.591-0.359-3.552-0.873-4.48-2.021
		c-2.524-3.125-5.002-6.188-8.62-8.11c-0.118-0.062-0.21-0.17-0.313-0.259c-6.623-5.731-13.803-10.459-22.334-12.935
		c-5.368-1.558-10.68-2.304-16.032-0.133c-0.376,0.152-0.822,0.771-0.804,1.154c0.153,3.354,0.403,6.703,0.575,9.3
		c2.337,0.819,4.193,1.286,5.877,2.1c3.288,1.59,6.775,0.988,9.27-1.68c0.374-0.4,1.271-0.482,1.899-0.422
		c0.566,0.054,1.096,0.502,1.639,0.781c4.018,2.063,8.153,3.862,10.995,7.718c1.626,2.205,3.814,3.995,5.74,5.98
		c0.396,0.408,0.752,0.853,1.125,1.282c-0.55,0.33-1.093,0.674-1.653,0.988c-1.636,0.91-3.354,1.696-4.893,2.745
		c-1.14,0.776-2.049,1.888-3.497,3.265c-0.205-2.719-0.375-4.967-0.56-7.433c-1.447,1.313-1.824,2.912-1.745,5.222
		c0.107,3.116,1.162,6.334-0.854,9.274c-0.162,0.238,0.013,0.707,0.051,1.458c0.498-0.574,0.792-0.821,0.972-1.134
		c3.063-5.311,7.646-8.688,13.435-10.486c1.156-0.358,2.383-0.54,3.591-0.659c1.052-0.104,1.407,0.439,1.568,1.58
		c0.625,4.421-1.708,7.525-4.462,10.41c-0.501,0.526-1.644,0.444-2.491,0.633c-0.792,0.174-1.689,0.163-2.355,0.55
		c-0.734,0.426-1.276,1.198-1.871,1.847c-2.854,3.108-5.062,3.358-8.448,0.88c-1.246-0.913-2.292-2.277-3.669-2.806
		c-6.718-2.58-13.307-1.882-19.657,1.36c-0.453,0.231-0.702,0.862-1.046,1.307c0.654,0.156,1.309,0.449,1.961,0.442
		c1.46-0.015,2.918-0.2,4.38-0.271c0.731-0.036,1.506,0.19,2.194,0.022c4.829-1.181,9.039,0.762,13.285,2.542
		c0.152,0.064,0.226,0.313,0.514,0.739c-0.366,0.237-0.736,0.456-1.093,0.683h0c-9.879,1.913-19.219,0.002-20.876-1.02
		c-0.006-0.003-0.012-0.004-0.017-0.007c-3.552-2.438-7.926-3.51-11.234-5.815c1.77-0.793,3.532-1.528,5.23-2.387
		c0.362-0.184,0.495-0.819,0.734-1.248c-0.477-0.17-0.968-0.522-1.425-0.481c-1.955,0.176-3.937,0.307-5.838,0.756
		c-2.474,0.585-4.768,0.144-6.896-0.959c-5.8-3.004-10.797-6.935-14.268-12.635c-1.149-1.888-2.5-3.753-4.126-5.223
		c-1.623-1.468-3.772-2.336-5.57-3.633c-2.379-1.717-8.133,3.909-11.786,5.812c-0.536,0.135-1.103,0.329-1.689,0.6
		c-0.146,0.014-0.329,0.112-0.507,0.242c-2.603,1.282-2.715,2.018-4.95,4.071l0.782,1.747c-0.625,0.386-0.971,0.713-0.936,0.936
		c0.117,0.762,0.146,1.538,0.215,2.309c-0.194-0.007-1.005-1.538-1.375-2.86c-2.069,2.95-0.806,5.708-1.151,8.228
		c-0.275,2.01,0.234,4.135,0.456,6.203c0.415,3.877,0.53,7.831,1.398,11.608c1.209,5.255,3.254,10.32,4.447,15.577
		c0.821,3.617,0.802,7.423,1.171,11.27c-1.337,0.396-2.999,0.702-2.175,2.857c1.036,2.705,2.061,5.4,3.725,7.819
		c0.595,0.864,1.096,1.947,1.192,2.971c0.728,7.792,5.491,14.427,6.292,22.186c0.027,0.259,0.198,0.503,0.308,0.751
		c1.861,4.226,3.761,8.435,5.571,12.681c0.958,2.25,0.655,4.737,2.431,6.994c1.783,2.265,2.38,5.541,3.209,8.457
		c0.77,2.702,1.314,5.494,1.638,8.282c0.128,1.098,0.482,1.4,1.36,1.566c1.906,0.36,3.81,0.728,5.969,1.142
		c-0.368,0.78-0.572,1.419-0.934,1.951c-2.814,4.134-5.651,8.252-8.496,12.366c-1.947,2.814-3.919,5.611-5.872,8.421
		c-0.113,0.164-0.169,0.371-0.226,0.565c-1.126,3.917-3.495,7.125-6.102,10.11c-2.482,2.844-5.334,5.36-7.905,8.131
		c-3.527,3.799-5.322,8.486-7.235,13.263c-3.097,7.735-3.104,15.591-2.521,23.583c0.11,1.507,0.998,4.57,1.667,5.045
		c3.591,9.612,11.694,24.038,16.701,26.321c0.002,0.001,0.004,0.002,0.006,0.003c0.496,0.416,1.01,0.806,1.557,1.135
		c3.508,2.113,5.305,0.088,4.947-0.352c0.492-0.293,0.953-0.749,1.482-0.85c3.377-0.652,6.765-1.249,10.16-1.803
		c0.646-0.105,1.362-0.04,2.002,0.12c8.251,2.066,9.26-3.683,9.246-4.701c-0.045-3.087,0.414-6.214,0.994-9.265
		c0.292-1.543,1.248-2.964,1.937-4.425c1.153-2.448,1.989-5.137,3.572-7.268c2.736-3.68,5.864-7.083,8.975-10.464
		c2.612-2.839,5.471-5.448,8.156-8.221c6.446-6.658,12.749-13.458,19.32-19.99c3.688-3.664,7.744-6.965,11.729-10.317
		c2.109-1.773,4.397-3.339,6.655-4.928c1.047-0.738,2.361-1.145,3.293-1.99c1.926-1.748,3.691-3.673,5.491-5.555
		c1.378-1.442,6.139,0.753,5.608-2.506c-0.176-1.08,0.263-1.551,1.328-1.458c0.995,0.088,1.987,0.201,3.16,0.32
		c-0.55-1.982-1.016-3.625-3.392-3.84c-3.85-0.35-5.246-2.132-5.374-6.004c-0.035-1.115-0.557-2.409-1.272-3.277
		c-3.357-4.072-6.892-7.996-10.284-12.041c-0.813-0.969-1.488-2.132-1.935-3.316c-1.25-3.31-0.729-5.918,1.189-7.618
		c0.833-0.74,1.676-1.577,2.196-2.541c1.409-2.615,2.658-5.317,3.954-7.992c0.731-1.51,1.482-3.013,2.129-4.558
		c1.953-4.667,1.191-10.161,4.38-14.464c0.14-0.188,0.088-0.514,0.14-0.772c0.413-2.001,0.658-4.058,1.284-5.991
		c1.209-3.732,2.658-7.388,3.947-11.095c0.187-0.539,0.034-1.193,0.057-1.793c0.038-1.008-0.245-2.203,0.194-2.994
		c2.072-3.733,3.125-7.93,5.371-11.574c0.097-0.157-0.022-0.433,0-0.65c0.372-3.728,0.386-7.539,1.214-11.162
		c1.122-4.907,1.834-9.763,0.118-14.552c-1.388-3.871-3.175-7.617-5.032-11.294c-1.452-2.879-3.277-5.571-4.949-8.339
		c-0.638-1.057-1.306-2.094-2.185-3.5c1.208,0.02,1.832,0.029,2.503,0.04C73.183-196.913,72.461-197.611,70.935-197.955z
		 M22.858-214.757c3.012,0.246,5.85,0.478,8.933,0.73C29.67-211.267,25.096-211.748,22.858-214.757z M57.295-196.931
		c-0.204-0.598-0.765-1.097-1.228-1.579c-2.091-2.178-4.195-4.344-6.315-6.494c-2.176-2.207-4.261-4.471-7.364-5.54
		c-2.228-0.768-4.432-1.781-6.418-3.044c-3.637-2.311-7.545-3.433-11.8-3.774c-0.786-0.062-1.507-1.204-2.166-1.931
		c-0.043-0.048,0.732-1.206,1.084-1.183c3.004,0.19,6.07,0.225,8.974,0.912c3.332,0.791,6.602,2.011,9.731,3.416
		c1.67,0.749,2.939,2.35,4.475,3.444c4.343,3.095,8.803,6.029,13.063,9.234c1.594,1.199,2.824,2.914,4.105,4.487
		c1.486,1.826,2.868,3.741,4.248,5.65c0.335,0.465,0.493,1.059,0.732,1.593c-0.157,0.21-0.314,0.419-0.472,0.628
		c-1.122-0.632-2.222-1.309-3.375-1.881c-0.789-0.392-1.633-0.843-2.482-0.912C59.915-194.076,58.096-194.582,57.295-196.931z
		 M-35.774-135.708c-0.069-0.26,1.973-1.074,3.031-1.645c0.105-0.057,0.161-0.206,0.284-0.369c-0.292-1.667-0.949-2.826-2.977-2.036
		c-1.342,0.523-1.969-0.182-2.122-1.354c-0.155-1.193-0.076-2.415-0.153-3.621c-0.089-1.396-0.018-2.852-0.396-4.174
		c-1.488-5.192-3.186-10.324-4.681-15.515c-0.67-2.328-1.296-4.718-1.5-7.118c-0.349-4.102-0.365-8.232-0.473-12.354
		c-0.012-0.425,0.182-1.053,0.496-1.255c1.3-0.839,2.604-1.928,4.052-2.232c3.093-0.65,6.326-0.646,9.406-1.334
		c2.443-0.546,4.832-1.553,7.069-2.699c1.037-0.531,1.566-0.536,2.221,0.245c1.782,2.124,3.572,4.241,5.31,6.401
		c0.458,0.571,0.737,1.288,1.218,2.151c-1.795-0.216-3.188-0.384-4.582-0.552c-0.08,0.306-0.159,0.611-0.239,0.917
		c1.803,0.814,3.615,1.611,5.407,2.452c0.943,0.442,2.117,0.743,2.726,1.486c1.969,2.403,3.635,5.053,5.598,7.46
		c1.077,1.321,2.544,2.32,3.779,3.522c0.346,0.336,0.661,0.869,0.693,1.331c0.069,1.024,0.613,2.09,1.428,2.939l0,0
		c2.59,4.236,4.665,3.351,4.623,4.485c-0.012,0.105-0.024,0.209-0.047,0.306c-1.273,5.455-3.53,10.407-7.54,14.415
		c-2.434,2.435-4.949,4.791-7.461,7.146c-3.846,3.603-7.696,7.203-11.615,10.726c-0.506,0.455-1.63,0.833-2.135,0.581
		c-3.133-1.57-6.392-3.043-9.144-5.154C-34.832-131.581-35.291-133.885-35.774-135.708z M55.68-34.057
		c-1.599,1.728-3.26,3.441-5.108,4.887c-3.95,3.089-8.201,5.807-12.036,9.025C30.462-13.371,23.572-5.422,16.72,2.55
		c-0.422,0.491-0.922,1.131-1.469,1.228c-0.42,0.074-0.971-0.601-1.483-0.955c-0.394,1.116-0.566,2.25-1.149,3.103
		c-0.862,1.26-1.714,2.333-1.96,4.013c-0.169,1.159-1.574,2.183-2.533,3.163c-0.599,0.612-1.505,0.927-2.087,1.55
		C-0.19,21.318-2.274,30.03-5.307,38.232c-0.716,1.938-1.55,2.592-3.372,2.638c-1.35,0.033-2.695,0.288-4.042,0.284
		c-1.101-0.001-2.248-0.09-3.292-0.409c-1.475-0.45-2.875-1.148-4.307-1.742c-0.084,0.172-0.169,0.345-0.255,0.517
		c1.272,0.816,2.577,1.589,3.799,2.474c0.426,0.309,0.647,0.896,0.963,1.356c-0.507,0.271-0.986,0.677-1.525,0.787
		c-1.708,0.347-3.431,0.651-5.163,0.837c-0.924,0.099-1.921,0.081-2.81-0.162c-1.228-0.338-2.556-0.254-3.81-0.509
		c-3.035-3.871-11.57-15.417-16.312-24.116c-0.256-0.93-0.481-1.745-0.681-2.563c-0.352-1.43-0.89-2.862-0.947-4.311
		c-0.231-5.922,0.467-11.714,2.008-17.488c1.609-6.027,4.002-11.522,8.362-16.018c2.824-2.912,5.743-5.74,8.75-8.461
		c1.595-1.445,3.417-2.669,5.251-3.805c0.529-0.328,1.827-0.302,2.144,0.08c0.945,1.147,1.649,2.52,2.257,3.889
		c0.085,0.192-0.839,0.938-1.387,1.286c-1.315,0.832-2.701,1.553-4.02,2.381c-0.325,0.203-0.502,0.642-0.748,0.972
		c1.17-0.014,2.062-0.456,3.002-0.723c4.153-1.179,8.284-2.469,12.492-3.413c5.039-1.129,10.461-0.304,15.223-2.954
		c0.392-0.219,0.923-0.227,1.395-0.257c5.208-0.332,10.416-0.649,15.625-0.969c3.349-0.206,6.745,0.312,10.022-1.033
		c1.208-0.495,2.691-0.319,4.049-0.449c0.11,0.303,0.221,0.606,0.331,0.909c-3.948,2.213-7.932,4.365-11.834,6.656
		c-3.935,2.31-7.788,4.756-11.759,7.193c2.555,0.45,4.513-0.245,6.468-1.834c2.43-1.976,5.098-3.749,7.886-5.174
		c5.859-2.995,11.886-5.658,17.801-8.546c4.446-2.17,8.819-4.492,13.242-6.711c0.883-0.443,1.845-0.729,2.771-1.087
		C60.19-39.202,58.002-36.568,55.68-34.057z M63.586-61.439c4.127,2.971,4.247,7.256,3.992,11.676
		c-0.023,0.402-0.364,0.907-0.708,1.152c-2.846,2.031-5.588,4.265-8.632,5.95c-4.442,2.46-9.105,4.521-13.683,6.733
		c-0.357,0.172-0.779,0.259-1.178,0.292c-5.657,0.462-11.313,0.922-16.973,1.342c-0.658,0.048-1.334-0.227-1.999-0.212
		c-1.286,0.027-2.571,0.144-3.854,0.243c-1.545,0.12-3.095,0.22-4.633,0.4c-4.036,0.473-8.058,1.069-12.101,1.457
		c-3.966,0.38-7.95,0.608-11.931,0.786c-0.613,0.027-1.586-0.435-1.792-0.924c-0.216-0.513,0.118-1.458,0.515-1.99
		c1.054-1.416,2.272-2.71,3.424-4.053c-0.171-0.175-0.343-0.35-0.515-0.525c-1.224,0.961-2.461,1.908-3.663,2.896
		c-0.468,0.384-0.78,1.023-1.295,1.274c-1.653,0.803-3.405,2.127-5.051,2.035c-1.936-0.109-3.736-4.427-3.873-6.71
		c-0.329-5.455,3.535-8.724,6.224-12.609c2.305-3.332,4.671-6.623,7.071-9.887c0.437-0.594,1.104-1.256,1.77-1.399
		c2.028-0.436,2.348,0.038,2.09,2.123c-0.446,3.619-0.793,7.25-1.161,10.879c-0.023,0.224,0.132,0.467,0.706,0.76
		c0.333-1.59,0.704-3.174,0.987-4.773c0.519-2.928,0.934-5.876,1.532-8.786c0.083-0.401,0.928-0.804,1.481-0.924
		c5.53-1.194,11.071-2.351,16.617-3.471c1.845-0.372,3.727-0.561,5.576-0.914c2.701-0.515,5.425-0.966,8.07-1.695
		c2.859-0.79,5.646-1.851,8.453-2.823c3.321-1.15,6.629-2.335,9.946-3.499c0.376-0.132,0.762-0.233,1.524-0.464
		c0.75,1.674,1.428,3.211,2.131,4.735c0.136,0.295,0.324,0.71,0.575,0.786c3.874,1.181,5.226,5.007,7.871,7.469
		C61.989-63.283,62.617-62.135,63.586-61.439z M78.376-172.396c-0.126,2.215,1.251,4.497,1.843,6.78
		c0.267,1.03,0.44,2.151,0.333,3.198c-0.36,3.503-0.868,6.989-1.315,10.483c-0.336,2.628-1.087,3.481-3.354,3.796
		c-0.104,1.322,0.016,2.713-0.372,3.946c-0.418,1.333-1.383,2.483-1.961,3.78c-0.279,0.627-0.348,1.419-0.285,2.116
		c0.222,2.476,1.547,5.014-0.542,7.319c-0.083,0.089-0.083,0.256-0.117,0.386c-1.411,5.062-2.898,10.103-4.209,15.19
		c-1.105,4.29-2.015,8.629-2.993,12.95c-0.25,1.107-0.184,2.357-0.688,3.32c-2.449,4.673-5.069,9.256-7.566,13.904
		c-0.734,1.365-1.526,2.439-3.195,2.771c-0.802,0.159-1.86,0.688-2.174,1.349c-1.261,2.651-3.849,3.063-6.143,3.905
		c-5.267,1.933-10.572,3.762-15.879,5.581c-1.461,0.501-2.977,1.129-4.481,1.167c-6.989,0.17-13.467,2.753-20.216,4.021
		c-2.359,0.443-4.827,0.31-7.246,0.439c-0.854,0.107-1.766,0.595-2.727,0.726c-1.079,0.146-2.203-0.024-3.307-0.067
		c-1.683-0.063-3.375-0.061-5.048-0.232c-1.188-0.122-1.715-0.85-2.001-2.138c-0.657-2.95-1.595-5.842-2.502-8.73
		c-0.648-2.062-1.45-4.075-2.15-6.122c-0.853-2.493-1.562-5.04-2.532-7.485c-1.128-2.837-2.28-5.696-3.776-8.346
		c-1.376-2.436,0.674-6.043-2.756-7.682c-0.069-0.033-0.026-0.263-0.068-0.39c-1.019-3.003-2.147-5.974-3.038-9.014
		c-1.186-4.045-2.187-8.145-3.359-12.573c3.535,0.385,6.404,1.13,8.779,3.066c3.445,2.81,3.397,2.871,6.727-0.116
		c0.252-0.225,0.458-0.503,0.716-0.723c4.319-3.703,8.662-7.378,12.953-11.115c1.168-1.018,2.305-2.118,3.24-3.346
		c3.091-4.059,6.847-7.706,8.233-12.86c0.034-0.127,0.146-0.232,0.192-0.358c0.626-1.719,1.387-3.407,1.793-5.177
		c1.172-2.268-2.137-3.374-4.88-5.205c-0.592-2.103-1.353-4.101-3.402-5.486c-1.189-0.803-2.12-2.042-3.034-3.19
		c-1.815-2.278-3.219-5.005-5.385-6.85c-2.298-1.959-3.638-4.264-4.771-6.896c-0.443-1.031-1-2.346-1.88-2.792
		c-2.554-1.294-3.864-3.482-5.196-5.797c-0.341-0.593-1.302-0.863-2.017-1.195c-0.412-0.191-0.938-0.132-1.354-0.317
		c-2.515-1.114-8.456,0.198-13.126,1.811c0.03-0.402-0.024-0.749-0.233-0.949c-0.796-0.76,5.288-2.147,5.288-2.147
		s2.832-2.306,2.289-2.365c3.071-2.052,4.681-0.968,6.205-0.102c4.012,2.279,5.88,2.666,7.91,7.008
		c0.282,0.604,0.676,1.22,1.174,1.646c2.715,2.321,5.608,4.451,8.175,6.922c1.441,1.39,4.733,1.732,3.271,5.082
		c1.814,0.293,3.646,0.178,5.06,0.893c4.163,2.102,8.644,3.668,12.247,6.795c0.275,0.238,0.749,0.265,1.138,0.355
		c4.665,3.09,16.835,3.681,24.146,1.861c1.327-0.236,2.626-0.634,3.924-1.011c3.252-0.94,6.944-1.226,9.65-3.004
		c5.252-3.453,10.735-7.059,12.329-13.928c0.11-0.475,0.739-1.15,1.133-1.154c0.461-0.004,0.96,0.591,1.385,0.987
		c0.577,0.537,1.039,1.542,1.656,1.633c3.85,0.572,5.28,3.443,7.019,6.4C77.277-177.332,78.547-175.376,78.376-172.396z"/>
</g>
<g id="TopB">
	<path id="Fill_4_" fill="#6CCFF5" d="M69.49-172.561c-0.392-0.363-0.401-1.123-0.632-1.679c-0.585-1.41-0.994-2.944-1.829-4.191
		c-4.41-6.593-9.471-12.813-13.272-19.733c-4.661-8.486-11.492-14.304-19.466-19.245c-2.993-1.854-6.912-2.789-7.714-7.419
		c-2.355,1.3-4.271,3.069-6.398,3.374c-3.77,0.542-5.655,3.109-7.46,5.71c-2.329,3.352-4.22,7.007-6.283,10.542
		c-2.387,4.094-5.009,8.093-4.901,13.141c0.011,0.522-0.504,1.442-0.91,1.526c-2.876,0.599-2.536,2.754-2.75,4.872
		c-0.208,2.059-0.622,4.203-1.464,6.076c-3.388,7.547-6.971,15.008-10.504,22.489c-0.161,0.34-0.378,0.655-0.604,0.965
		c-0.256,0.339-3.719,3.533-5.41,5.24c-0.446-0.243-0.973-0.501-1.606-0.796c-2.662-1.241-3.757-3.444-3.804-6.318
		c-0.036-2.217-0.226-4.431-0.346-6.646c-0.313-0.022-0.626-0.045-0.939-0.067c-0.359,1.441-0.718,2.882-1.078,4.323
		c-2.042-4.513-3.676-8.948-4.71-13.518c-0.963-4.255-0.765-8.13,3.189-11.592c4.278-3.745,7.683-8.506,11.334-12.935
		c0.609-0.739,0.779-2.062,0.682-3.069c-0.048-0.5-1.106-1.056-1.807-1.311c-2.155-0.781-4.515-1.134-6.505-2.197
		c-2.813-1.502-3.428-1.447-4.674,1.373c-2.769,6.261-3.897,13.309-8.854,18.532c-0.264,0.278-0.347,0.766-0.43,1.173
		c-0.762,3.741-1.629,7.467-2.227,11.235c-0.934,5.889-2.761,11.91-2.226,17.691c0.625,6.759,3.23,13.367,5.271,19.95
		c1.094,3.53,2.988,6.809,4.188,10.313c1.071,3.132,1.695,6.418,2.498,9.64c0.953,3.826,1.928,7.648,2.81,11.49
		c0.462,2.011,0.627,4.092,1.135,6.089c1.301,5.127,2.758,10.215,4.047,15.345c0.215,0.854-0.256,1.862-0.144,2.765
		c0.62,4.969,1.32,9.929,2.007,14.89c0.026,0.194,0.153,0.413,0.3,0.547c1.998,1.82,0.862,3.188-0.514,4.72
		c-5.177,5.762-11.021,11.108-15.212,17.525c-5.068,7.758-8.97,16.326-12.873,24.776c-2.369,5.128-1.525,10.268,1.56,15.288
		c4.286,6.976,8.097,14.249,11.889,21.51c0.976,1.868,2.02,4.437,1.485,6.218c-1.689,5.622,1.061,10.192,2.646,15.061
		c0.22,0.675,1.228,1.689,1.676,1.598c3.042-0.626,3.389,1.63,4.773,3.947c0.641-1.086,1.219-2.215,1.944-3.241
		c0.457-0.646,1.067-1.516,1.724-1.632c5.017-0.891,20.604-12.605,25.661-13.228c9.35-1.148,22.38-8.826,23.421-10.456
		C27.92,15.379,64.691,3.501,64.66,0c-0.047-5.584,28.009-27.664,26.695-35.744c-1.614-9.928-3.622-8.71-10.095-16.019
		c-5.166-5.834-11.785-10.377-17.698-15.562c-1.782-1.562-3.364-3.353-5.825-5.831c2.128-0.294,3.409-0.637,4.685-0.617
		c3.712,0.059,4.718-1.063,4.956-4.668c0.238-3.629,0.956-7.229,1.503-10.836c0.219-1.441,0.598-2.858,0.808-4.3
		c0.608-4.168,1.167-8.342,1.826-13.087c-2.579-2.852-2.167-5.104,1.616-7.897c2.572-1.898,5.522-3.909,6.923-6.591
		c1.383-2.648,2-6.467,1.227-9.302c-1.386-5.087-2.288-10.028-1.9-15.298c0.17-2.321-0.818-4.728-0.636-7.044
		c0.231-2.963-1.845-4.922-2.466-7.387C75.071-164.978,73.141-169.178,69.49-172.561z"/>
	<path id="Outline_4_" d="M69.49-172.561c-0.392-0.363-0.401-1.123-0.632-1.679c-0.585-1.41-0.994-2.944-1.829-4.191
		c-4.41-6.593-9.471-12.813-13.272-19.733c-4.661-8.486-11.492-14.304-19.466-19.245c-2.993-1.854-6.912-2.789-7.714-7.419
		c-2.355,1.3-4.271,3.069-6.398,3.374c-3.77,0.542-5.655,3.109-7.46,5.71c-2.329,3.352-4.22,7.007-6.283,10.542
		c-2.387,4.094-5.009,8.093-4.901,13.141c0.011,0.522-0.504,1.442-0.91,1.526c-2.876,0.599-2.536,2.754-2.75,4.872
		c-0.208,2.059-0.622,4.203-1.464,6.076c-3.388,7.547-6.971,15.008-10.504,22.489c-0.161,0.34-0.378,0.655-0.604,0.965
		c-0.256,0.339-3.719,3.533-5.41,5.24c-0.446-0.243-0.973-0.501-1.606-0.796c-2.662-1.241-3.757-3.444-3.804-6.318
		c-0.036-2.217-0.226-4.431-0.346-6.646c-0.313-0.022-0.626-0.045-0.939-0.067c-0.359,1.441-0.718,2.882-1.078,4.323
		c-2.042-4.513-3.676-8.948-4.71-13.518c-0.963-4.255-0.765-8.13,3.189-11.592c4.278-3.745,7.683-8.506,11.334-12.935
		c0.609-0.739,0.779-2.062,0.682-3.069c-0.048-0.5-1.106-1.056-1.807-1.311c-2.155-0.781-4.515-1.134-6.505-2.197
		c-2.813-1.502-3.428-1.447-4.674,1.373c-2.769,6.261-3.897,13.309-8.854,18.532c-0.264,0.278-0.347,0.766-0.43,1.173
		c-0.762,3.741-1.629,7.467-2.227,11.235c-0.934,5.889-2.761,11.91-2.226,17.691c0.625,6.759,3.23,13.367,5.271,19.95
		c1.094,3.53,2.988,6.809,4.188,10.313c1.071,3.132,1.695,6.418,2.498,9.64c0.953,3.826,1.928,7.648,2.81,11.49
		c0.462,2.011,0.627,4.092,1.135,6.089c1.301,5.127,2.758,10.215,4.047,15.345c0.215,0.854-0.256,1.862-0.144,2.765
		c0.62,4.969,1.32,9.929,2.007,14.89c0.026,0.194,0.153,0.413,0.3,0.547c1.998,1.82,0.862,3.188-0.514,4.72
		c-5.177,5.762-11.021,11.108-15.212,17.525c-5.068,7.758-8.97,16.326-12.873,24.776c-2.369,5.128-1.525,10.268,1.56,15.288
		c4.286,6.976,8.097,14.249,11.889,21.51c0.976,1.868,2.02,4.437,1.485,6.218c-1.689,5.622,1.061,10.192,2.646,15.061
		c0.22,0.675,1.228,1.689,1.676,1.598c3.042-0.626,3.389,1.63,4.773,3.947c0.641-1.086,1.219-2.215,1.944-3.241
		c0.457-0.646,1.067-1.516,1.724-1.632c5.017-0.891,20.604-12.605,25.661-13.228c9.35-1.148,22.38-8.826,23.421-10.456
		C27.92,15.379,64.691,3.501,64.66,0c-0.047-5.584,28.009-27.664,26.695-35.744c-1.614-9.928-3.622-8.71-10.095-16.019
		c-5.166-5.834-11.785-10.377-17.698-15.562c-1.782-1.562-3.364-3.353-5.825-5.831c2.128-0.294,3.409-0.637,4.685-0.617
		c3.712,0.059,4.718-1.063,4.956-4.668c0.238-3.629,0.956-7.229,1.503-10.836c0.219-1.441,0.598-2.858,0.808-4.3
		c0.608-4.168,1.167-8.342,1.826-13.087c-2.579-2.852-2.167-5.104,1.616-7.897c2.572-1.898,5.522-3.909,6.923-6.591
		c1.383-2.648,2-6.467,1.227-9.302c-1.386-5.087-2.288-10.028-1.9-15.298c0.17-2.321-0.818-4.728-0.636-7.044
		c0.231-2.963-1.845-4.922-2.466-7.387C75.071-164.978,73.141-169.178,69.49-172.561z M-27.408-201.979
		c0.364-0.066,0.729-0.133,1.093-0.199c0.935,1.695,2.882,3.582,2.604,5.048c-0.651,3.439-3.484,5.383-7.694,6.662
		C-29.923-194.736-28.665-198.358-27.408-201.979z M84.544-40.35c0.356,0.643,0.71,1.287,1.405,2.546
		C89.66-32.42,59.048,1.385,53.368,1.998c-10.807,1.166-14.86,8.617-25.722,9.201c-6.254,0.337-17.436,9.308-23.212,11.71
		c-12.629,5.254-15.489,13.039-29.829,16.422c-4.904,1.156-6.064,0.292-6.83-4.82c-0.306-2.045-0.56-4.296-0.019-6.224
		c0.836-2.986-0.108-5.234-1.506-7.7c-4.714-8.312-9.446-16.622-13.779-25.133c-1.149-2.257-1.505-5.312-1.169-7.861
		c1.16-8.804,6.219-15.907,10.948-23.1c0.312-0.475,0.959-0.86,1.525-1.016c8.676-2.388,17.333-4.549,26.349-5.737
		c7.215-0.95,13.372,1.367,19.951,2.657c2.779,0.545,5.592,0.914,8.37,1.457c8.832,1.727,17.616,3.734,26.496,5.159
		c5.008,0.804,10.165,0.747,15.259,0.945c2.595,0.101,5.222,0.074,7.796-0.22c1.306-0.149,2.778-0.742,3.742-1.613
		c2.629-2.375,4.91-5.138,7.55-7.5C82.212-43.986,82.627-43.804,84.544-40.35z M78.006-49.691c1.988,1.735,1.906,3.203,0.187,5.012
		c-1.002,1.054-1.606,2.501-2.649,3.498c-3.312,3.159-6.029,7.64-11.808,5.895c-11.196,3.207-21.446-1.762-32.05-3.698
		c-7.316-1.334-14.663-2.509-21.971-3.892c-3.176-0.602-6.279-1.587-9.435-2.312c-1.109-0.256-2.326-0.526-3.411-0.332
		c-8.753,1.576-17.487,3.259-26.226,4.914c-1.368,0.26-2.729,0.547-4.094,0.822c-0.197-0.331-0.395-0.661-0.593-0.991
		c3.193-4.122,6.717-8.033,9.501-12.413c4.228-6.65,9.577-10.053,17.649-8.262c2.004,0.444,4.17,0.111,6.211,0.449
		c7.876,1.299,15.339-1.118,22.92-2.423c2.872-0.495,5.659-1.655,8.537-1.907c6.65-0.58,12.38-3.577,18.232-6.318
		c2.584-1.209,4.679-1.34,6.349,1.616c0.781,1.383,2.372,2.318,3.619,3.43C65.308-60.953,71.612-55.27,78.006-49.691z
		 M71.832-162.06c1.6,6.612,4.168,12.878,3.365,19.888c-0.167,1.458,0.394,3.105,0.969,4.521c2.122,5.224,3.592,10.336-0.48,15.376
		c-0.706,0.872-0.969,2.089-1.501,3.113c-1.44,2.78-2.68,2.932-5.422-0.059c-0.375,2.77-1.592,5.398-0.787,7.027
		c2.331,4.711,0.615,8.92-0.434,13.313c-0.266,1.116-0.498,2.246-0.646,3.382c-0.818,6.264-1.605,12.532-2.404,18.819
		c-0.552,0.077-0.968,0.209-1.372,0.18c-5.982-0.448-11.515,1.079-16.904,3.561c-3.307,1.522-6.696,2.965-10.188,3.951
		c-4.013,1.134-8.156,1.863-12.282,2.519c-7.393,1.174-14.792,2.703-22.235,3.059c-6.161,0.294-12.384-1.192-18.59-1.294
		c-3.376-0.056-3.44-1.62-3.526-4.088c-0.07-2.032-0.708-4.038-1.01-6.067c-0.181-1.216-0.206-2.454-0.29-3.683
		c-0.153-2.25-0.022-4.563-0.505-6.74c-0.944-4.259-2.394-8.407-3.307-12.672c-0.503-2.345-0.041-4.898-0.542-7.244
		c-1.042-4.867-2.172-9.747-3.747-14.463c-2.649-7.933-5.831-15.688-8.491-23.619c-2.186-6.521-4.633-13.055-3.003-20.217
		c0.955-4.189,1.504-8.469,2.394-12.674c0.275-1.302,1.069-2.495,1.589-3.655c1.67,5.6,2.948,10.968,4.89,16.085
		c1.926,5.071,4.09,10.25,8.745,13.535c1.853,1.308,3.644,2.235,2.777,5.513c1.977-2.528,2.849-3.796,2.578-4.739
		c0.921-0.827,1.956-1.876,2.216-2.112c0.474-0.429,4.338-6.543,4.338-6.543s-0.01,0.006-0.02,0.013
		c8.084-12.834,12.842-27.139,18.088-41.252c2.855-7.681,6.575-14.991,13.632-19.856c0.892-0.615,2.17-0.668,3.27-0.98
		c-0.204,1.056-0.211,2.201-0.645,3.15c-2.342,5.14-5.229,10.078-7.087,15.38c-2.207,6.297-3.763,12.848-5.21,19.375
		c-0.947,4.275-0.564,8.922-1.948,13.004c-1.38,4.074,0.023,7.136,1.994,9.938c6.258,8.896,14.762,15.051,24.915,18.881
		c1.044,0.393,2.623,0.483,3.518-0.037c5.166-2.998,10.212-6.205,15.267-9.39c0.583-0.368,1.42-1.067,1.387-1.562
		c-0.244-3.635,0.449-7.222-1.648-10.838c-2.959-5.102-5.504-10.528-5.409-16.802c0.034-2.321-0.555-4.896-1.641-6.94
		c-2.897-5.449-6.244-10.66-9.355-16c-0.676-1.16-1.123-2.456-1.664-3.695c-0.431-0.985-0.601-2.229-1.311-2.925
		c-2.678-2.616-5.529-5.055-8.675-7.885c0.604-0.272,1.943-1.418,2.706-1.115c2.374,0.942,4.715,2.2,6.723,3.774
		c2.52,1.976,4.778,4.312,7.001,6.634c2.79,2.912,5.728,5.754,8.066,9.011c3.708,5.164,7.042,10.603,10.407,16.005
		C64.458-175.658,69.881-170.121,71.832-162.06z M51.133-152.86c-0.977,1.171-1.506,2.248-2.37,2.764
		c-3.422,2.039-6.903,3.996-10.467,5.774c-1.019,0.508-2.635,0.805-3.56,0.35c-4.357-2.141-9.58-2.765-12.844-6.882
		c-3.864-4.875-9.276-8.689-10.917-15.087c-0.488-1.907-0.314-4.121,0.077-6.091c1.51-7.594,2.876-15.248,4.988-22.683
		c1.59-5.595,4.221-10.896,6.443-16.306c0.204-0.496,0.885-1.22,1.205-1.154c0.612,0.126,1.332,0.627,1.638,1.178
		c0.701,1.26,1.18,2.644,1.761,4c-3.31,3.995-6.444,7.781-9.579,11.566c0.236,0.309,0.473,0.619,0.708,0.928
		c1.188-0.748,2.431-1.422,3.553-2.259c2.758-2.058,5.42-4.244,8.2-6.268c1.453-1.058,2.63-0.682,3.592,0.96
		c2.481,4.239,5.399,8.253,7.551,12.646c1.664,3.396,3.066,7.166,3.449,10.885c0.573,5.56,2.742,10.469,4.795,15.455
		c2.066,5.017,2.214,4.948-1.835,8.235c-0.292,0.238-0.435,0.659-1.004,1.559C48.055-153.148,49.159-153.045,51.133-152.86z"/>
	<polygon fill="#82F46E" points="2.552,-114.062 -30.848,-131.391 -64.058,-113.701 -57.898,-150.822 -84.985,-176.94 
		-47.778,-182.552 -31.308,-216.384 -14.472,-182.732 22.793,-177.523 -4.01,-151.113 	"/>
</g>
</svg>
