<?xml version="1.0" encoding="utf-8"?>
<!-- Generator: Adobe Illustrator 16.0.4, SVG Export Plug-In . SVG Version: 6.00 Build 0)  -->
<!DOCTYPE svg PUBLIC "-//W3C//DTD SVG 1.1//EN" "http://www.w3.org/Graphics/SVG/1.1/DTD/svg11.dtd">
<svg version="1.1" id="FinalHouse" xmlns="http://www.w3.org/2000/svg" xmlns:xlink="http://www.w3.org/1999/xlink" x="0px" y="0px"
	 width="708.66px" height="850.39px" viewBox="0 0 708.66 850.39" enable-background="new 0 0 708.66 850.39" xml:space="preserve">
<polygon id="BackgroundFill" fill-rule="evenodd" clip-rule="evenodd" fill="#02335C" points="432.805,147.767 0.371,149.659 
	0.371,-2.455 432.805,-4.347 "/>
<g id="Hill">
	<path fill-rule="evenodd" clip-rule="evenodd" fill="#265EB2" d="M15.002,73.468c0.495,0.634,1.213,0.552,1.894,0.593
		c0.875,0.902,2.027,0.415,3.044,0.607c3.758,1.469,7.786,1.881,11.64,2.971c0.83,0.221,1.66,0.442,2.489,0.664
		c0.62,0.194,1.24,0.388,1.858,0.582c0.603,0.026,1.205,0.051,1.807,0.077c1.475,1.049,3.178,1.234,4.913,1.295
		c0.853,1.47,2.503,1.181,3.782,1.609c6.488,2.175,13.024,4.208,19.543,6.29c0.818,0.225,1.637,0.45,2.455,0.676
		c2.261,1.439,4.472,3.087,7.386,1.727l0.025,0.03c0.258,3.139,3.069,2.371,4.854,3.171c0.571,0.948,1.469,1.163,2.486,1.108
		c0.424,0.687,1.153,0.606,1.807,0.716c2.049,1.459,4.449,2.124,6.764,2.977c0.067,0.024,0.167,0.069,0.293,0.131
		c1.777,0.801,5.561,2.665,6.002,3.049c-0.137,0.103-0.268,0.208-0.398,0.312c5.928,3.816,14.601,9.979,18.121,14.58l5.264,13.865
		l-35.738-2.967l-32.343-2.641c-0.562,0.01-1.125,0.021-1.687,0.031c-0.102-0.065-0.202-0.129-0.303-0.193l-2.677-0.218l0.408-0.734
		c-1.2-0.455-2.401-0.909-3.601-1.363c-0.373-0.548-0.948-0.48-1.497-0.493l-0.167,0.083l-0.14-0.125
		c-0.788-0.478-1.639-0.836-2.489-1.197c-1.328-2.192-1.186-2.731-1.896-2.352c0.375-0.226-0.553-1.561-0.2-1.8
		c0,0,1.066-0.067,1.066-0.067c1.4-3.666,6.677-3.571,8.321-4.435c1.115-0.539,2.237-1.06,3.341-1.62
		c0.607-0.308,1.527-0.529,1.343-1.406c-0.032-0.152-0.084-0.268-0.151-0.357c-0.015-0.881-2.755-1.864-4.285-2.588
		c-0.213-0.147-0.448-0.267-0.696-0.368c-0.002-0.001-0.005-0.003-0.007-0.004c-0.142-0.092-0.288-0.142-0.434-0.158
		c-0.916-0.294-1.929-0.44-2.66-0.867c-4.772-2.785-9.903-4.953-14.872-7.405c-0.158-0.078-0.316-0.143-0.475-0.202l0,0
		c-0.978-1.144-2.877-1.692-3.905-1.793l0,0c-0.922-0.382-2.003-0.816-1.915-1.902c0.095-1.165,1.49-1.536,2.473-2.055
		c0.628-0.333,1.284-0.618,1.896-0.978c4.735-2.774,4.792-2.884-0.111-5.646c-1.678-0.945-3.107-2.64-5.828-2.555
		c1.57,2.117,3.477,3.149,5.384,4.024c2.534,1.162,1.989,2.113-0.012,3.063c-2.092,0.993-4.255,1.831-6.357,2.802
		c-0.794,0.367-2.073,1.107-0.663,1.859c1.443,0.77,2.748,1.943,4.303,2.515c0.001,0,0.002,0.001,0.003,0.001
		c1.689,0.858,3.573,2.408,5.025,2.674c0.002,0,0.003,0,0.004,0c1.882,1.153,4.02,1.873,5.995,2.809
		c3.594,1.704,6.932,3.97,10.633,5.449c0.004,0.002,0.007,0.005,0.012,0.007c0.925,0.39,1.873,1.378,2.628,2.527
		c-0.474,0.395-1.123,0.61-1.684,0.916c-1.66-0.193-7.64,1.292-9.379,3.578c-2.313,0.747-4.419,2.051-6.84,2.583
		c0.369,0.934,0.891,1.435,1.515,1.683c0.228,0.405,0.431,1.143,1.015,1.811c-10.912-0.978-21.712-0.104-32.435,2.055
		c0-16.978,0-33.957,0-50.934C5.636,72.187,10.319,72.827,15.002,73.468z"/>
	<path fill-rule="evenodd" clip-rule="evenodd" fill="#0C2C60" d="M17.503,73.986c5.804,2.269,12.024,2.905,17.977,4.588
		c0.171-6.46,0.22-12.89-4.613-18.071c-0.968,0.175-1.825,0.572-2.122,1.575c-1.188,4.009-3.695,4.917-7.489,3.499
		c-1.102-0.411-2.456-0.147-3.693-0.193C17.543,68.251,17.523,71.118,17.503,73.986z"/>
	<path fill-rule="evenodd" clip-rule="evenodd" fill="#042E96" d="M17.563,65.383c1.237,0.046,2.591-0.218,3.693,0.193
		c3.793,1.419,6.3,0.51,7.489-3.499c0.297-1.003,1.154-1.399,2.122-1.575c-0.876-3.122-4.225-1.013-5.765-2.728
		c-1.588,0.005-3.179,0.01-4.768,0.014C19.411,60.321,18.487,62.853,17.563,65.383z"/>
	<path fill-rule="evenodd" clip-rule="evenodd" fill="#0C2C60" d="M20.334,57.79c1.588-0.004,3.179-0.009,4.768-0.014
		c-0.311-2.506-0.622-5.012-0.932-7.518c-1.262-0.03-2.525-0.06-3.786-0.089C20.367,52.708,20.351,55.249,20.334,57.79z"/>
	<path fill-rule="evenodd" clip-rule="evenodd" fill="#042E96" d="M20.385,50.168c1.261,0.029,2.524,0.059,3.786,0.089
		c-0.314-1.825-0.655-3.646-0.929-5.477c-0.144-0.971-0.305-1.994-1.531-1.889c-1.198,0.104-1.272,1.185-1.291,2.135
		C20.388,46.741,20.395,48.455,20.385,50.168z"/>
</g>
<g id="Clouds">
	<path fill-rule="evenodd" clip-rule="evenodd" fill="#032B4E" d="M62.867-1.378c-15.213,0-30.425,0-45.639,0
		c-4.703,0-9.406,0-14.108,0H0l0.63,3.393c0,12.423,0,24.846,0,37.269c1.157-0.028,2.099,0.139,2.634,1.449
		c0.549,1.346,2.061,1.418,2.686,0.515c1.739-2.511,5.236-3.479,5.635-7.279c0.259-2.461,2.47-4.248,5.085-3.3
		c2.996,1.084,2.864,1.408,3.052-1.837c0.084-1.455-0.512-3.781,1.205-3.959c2.678-0.279,5.323,0.238,5.562-3.554
		c0.509,0.18,1.017,0.36,1.525,0.54l0.001,0c0.37-0.601,1.092-0.967,1.461-1.568l0,0l2.844-2.377c0.772,0.509,1.551,1,2.351,1.449
		c2.987-0.369,6.672,0.375,6.938-4.342c3.788,0.027,4.588-6.416,9.372-4.361c0.14,0.06,1.213,0.029,1.051-1.142
		c-0.291-2.098,3.671-6.336,5.666-5.809C62.613,5.006,63.04,2.234,62.867-1.378z"/>
	<path fill-rule="evenodd" clip-rule="evenodd" fill="#032B4E" d="M431.905-2.355c-2.607,0-154.54,0.666-157.147,0.666
		c-42.059,0-84.117,0-126.175,0c-0.233,2.19,1.568,3.112,2.808,4.315c1.008,0.979,3.424,0.704,2.529,3.309
		c-0.186,0.54,0.971,0.685,1.461,0.172c1.599-1.67,2.726-0.231,3.26,0.814c1.247,2.438,3.481,3.504,5.625,4.728
		c0.687,0.392,1.284,0.727,1.438,1.527c0.477,2.487,1.77,3.266,3.925,1.736c0.578,1.002-0.794,1.511-0.349,1.872
		c3.038,2.464,5.664,5.361,8.512,7.967c1.544,1.414,3.254,2.297,4.161,4.459c0.771,1.837,2.351,3.336,3.573,4.984
		c0.859-0.712,1.761-1.023,2.077,0.398c0.007,0.035,0.009,0.062,0.015,0.095l0.019,0.508c-0.154,0.956-1.559,0.57-2.144,1.093
		c-0.334,0.3-1.065,0.154-0.995,0.913c1.838,0.205,2.587,1.414,3.426,5.527l28.921-3.495l7.09,3.57l25.541-2.345
		c2.138,0.021,4.263-0.032,6.336-0.39c4.405-0.762,8.827-0.521,13.217-0.906c4.898-0.43,159.181-1.742,164.148-1.51
		c0-2.752,0-5.503,0-8.255c-11.071,0.099-82.167,4.619-93.243,3.771c-0.041-0.291-89.376-3.28-89.417-3.57
		c11.111-1.962,171.548-4.59,182.66-6.553c0-7.557,0-15.115,0-22.672c0-0.487,0-0.974,0-1.46v-1.27H431.905z"/>
</g>
<g id="Moon">
	<path fill="#FBF3B6" d="M116.835,22.792c0.264,1.102,0.159,1.948-0.5,2.363c-2.646,1.662-17.349,2-27.208,2.417
		c-0.089,0.624-0.139,1.259-0.139,1.905c0,7.771,6.631,14.072,14.812,14.072c8.181,0,14.812-6.3,14.812-14.072
		C118.611,27.057,117.968,24.78,116.835,22.792z"/>
	<path fill="#C1B885" d="M116.835,22.792c-2.505-4.398-7.403-7.385-13.036-7.385c-7.499,0-13.693,5.296-14.672,12.166
		c9.859-0.418,24.562-0.755,27.208-2.417C116.994,24.74,117.099,23.894,116.835,22.792z"/>
</g>
<g id="Foreground">
	<rect x="1.036" y="128.537" fill-rule="evenodd" clip-rule="evenodd" fill="#BBCFEF" width="215.922" height="30.907"/>
	<path fill-rule="evenodd" clip-rule="evenodd" fill="#EBEEF5" d="M7.06,151.178c18.413-4.852,36.393-1.732,54.403,1.308
		c-11.149,1.145-26.04,3.48-51.297-0.286C10.166,151.179,7.06,152.2,7.06,151.178z"/>
	<path fill-rule="evenodd" clip-rule="evenodd" fill="#7E9BB6" d="M120.665,127.035c10.536-1.896,20.677-5.054,32.014-4.465
		c7.062,1.354,12.714,4.32,18.588,7.034l-0.017,0.129c0.072,0.217,0.145,0.434,0.216,0.651c-2.545,0.406-5.089,0.813-7.635,1.22
		c-6.765,0.283-13.531,0.566-20.295,0.849c-5.998-0.041-12.001-0.213-17.992-0.09c-8.161,0.168-16.237-0.472-24.347-0.783
		c3.582-0.892,7.163-1.785,10.744-2.679C113.046,128.627,115.477,127.97,120.665,127.035z"/>
	<path fill-rule="evenodd" clip-rule="evenodd" fill="#EBEEF5" d="M145.149,138.563c6.28-0.282,12.561-0.564,18.84-0.848
		c1.973,1.277,4.379,0.556,6.583,0.678c14.356,0.795,28.659,1.845,42.736,3.85c-26.461,5.136-52.799,4.058-80.221-0.67
		c3.729-0.919,6.356-1.779,9.299-1.935C143.582,139.575,144.717,139.559,145.149,138.563z"/>
	<path fill-rule="evenodd" clip-rule="evenodd" fill="#EBEEF5" d="M69.965,131.345c1.791-0.112,3.581-0.226,5.37-0.338
		c2.11,0.036,4.24,0.295,6.296-0.254c0.784,0.062,1.566,0.125,2.349,0.189l0.369,0.021c4.139,0.276,8.278,0.552,12.417,0.828
		c9.368,1.602,18.739,3.198,28.1,4.815c1.294,0.223,2.543,0.559,3.752,1.159c-61.531,2.954-85.13-2.752-71-1.188
		c1.997-1.198,3.427-2.056,4.856-2.915C65.237,133.266,67.982,132.837,69.965,131.345z"/>
	<path fill-rule="evenodd" clip-rule="evenodd" fill="#7E9BB6" d="M69.965,131.345c-1.983,1.493-4.728,1.921-7.492,2.318
		c-12.947,0.734-25.929,0.637-38.896,0.487c-6.12-0.07-12.268-0.503-19.144-2.164c8.919-1.7,16.978-3.042,25.204-3.949
		c1.058-0.118,2.192,0.008,2.916-0.686c11.706,0.227,23.338,0.794,34.625,3.086C68.204,130.646,69.34,130.632,69.965,131.345z"/>
</g>
<g id="Snodriva">
	<path fill-rule="evenodd" clip-rule="evenodd" fill="#EBEEF5" d="M4.322,134.769c4.181,2.785,8.765,4.455,13.611,5.513
		c2.43,0.531,4.866,0.957,7.594,1.236c-0.842,1.049-1.816,0.363-2.615,0.847c2.151,0.243,4.291,0.392,6.423,0.502v-0.053h13.282
		c0.849-0.136,1.742-0.279,2.744-0.439c-1.882-0.697-3.454-1.471-5.276-1.842c2.81-1.27,5.618-2.547,8.433-3.806
		c0.553-0.247,1.229-0.293,1.348-1.113c-1.872-1.498-4.187-2.26-5.917-3.994c-0.575-0.034-1.056-0.28-1.452-0.72
		c-1.91-0.849-3.815-1.704-5.728-2.544c-4.362-1.916-8.839-3.351-13.593-3.622c-0.43,0.211-0.854,0.217-1.269-0.043
		c-0.393-0.013-0.785-0.025-1.177-0.038c-0.205,0.179-0.421,0.208-0.652,0.058c-0.923,0.09-1.846,0.181-2.769,0.272l-0.133,0.026
		c-0.51,0.401-1.109,0.535-1.72,0.632c-1.541,0.438-3.081,0.876-4.621,1.315c-0.289,0.105-0.577,0.21-0.866,0.315
		c-1.959,0.941-3.918,1.883-5.877,2.825c-0.033,0.125-0.028,0.296-0.105,0.366C1.466,132.762,1.421,132.835,4.322,134.769z"/>
	<path fill-rule="evenodd" clip-rule="evenodd" fill="#BBCFEF" d="M56.341,138.819c2.033,1.659,4.441,2.05,6.719,2.875
		c0.392,0.142,0.858,0.002,1.13,0.52c-0.373,0.542-0.89,0.417-1.369,0.417c-7.922,0.004-15.844,0.002-23.767-0.003
		c-0.233-0.001-0.467-0.06-0.714-0.305c1.35-0.247,2.7-0.494,4.347-0.796c-1.882-0.797-3.455-1.682-5.276-2.106
		c2.811-1.453,5.618-2.913,8.434-4.352c0.553-0.283,1.229-0.335,1.348-1.274c1.961,1.131,3.561,3.137,5.831,3.52
		C53.951,138.39,55.131,138.65,56.341,138.819z"/>
</g>
<g id="Huset">
	<g id="HusVagg">
		<polygon fill-rule="evenodd" clip-rule="evenodd" fill="#70070A" points="96.347,134.542 11.286,134.542 9.183,71.431 
			50.579,39.792 61.896,42.808 99.015,64.792 		"/>
		<path fill-rule="evenodd" clip-rule="evenodd" fill="#370409" d="M9.571,93.927c0,0-0.755-9.823-0.388-15.403
			c0.368-5.58,44.215-44.992,52.053-39.829c7.837,5.163,38.157,36.608,38.157,36.608s-0.537,22.386-0.803,19.744
			c-0.267-2.644-18.651-28.555-27.896-37.072c-9.244-8.518-15.486-7.216-16.607-8.098c-1.121-0.881-33.951,38.207-39.931,39.382
			L9.571,93.927z"/>
		<path fill-rule="evenodd" clip-rule="evenodd" fill="#370409" d="M54.122,111.893c-13.832-4.954-29.634-24.989-42.727-20.266
			l-0.519,43.278h85.061l-0.69-29.923C81.636,128.116,61.383,114.493,54.122,111.893z"/>
	</g>
	<g id="FonsterTopp">
		<path fill-rule="evenodd" clip-rule="evenodd" fill="#BBCFEF" d="M50.317,80.072c-0.058,0.466-0.439,0.463-0.854,0.462
			c-2.92-0.003-5.84-0.03-8.759,0.023c-1.156,0.021-1.127-0.584-0.922-1.167c0.271-0.775,0.369-1.567,0.565-2.348
			c0.105-0.421,0.104-0.719-0.532-0.765c-2.869-0.21-5.739-0.25-8.613-0.114c-0.937-0.036-1.873-0.046-2.799,0.113
			c-0.606,0.196-0.486,0.499-0.163,0.831c0.028,0.177,0.057,0.354,0.085,0.532c-0.092,0.424,0.049,0.785,0.4,1.088
			c0.13,0.471,0.259,0.943,0.389,1.415c-0.255,0.264-0.537,0.407-0.98,0.425c-2.596,0.104-5.191,0.185-7.79,0.215
			c-0.58,0.006-1.172-0.498-1.743-0.005c-0.851,0.043-1.702,0.087-2.553,0.131c-0.019-0.137-0.038-0.275-0.057-0.412
			c0.821-0.437,1.747-0.653,2.642-0.933c0.22,0.047,0.386,0.006,0.454-0.201c0.133-0.053,0.266-0.107,0.399-0.161
			c0.674,0.126,1.096-0.296,1.597-0.544c0.266-0.119,0.532-0.237,0.798-0.355c1.741-0.726,3.575-1.344,4.544-2.951
			c1.327-1.35,2.961-2.213,5.041-2.376c1.128,0.041,2.256,0.131,3.377-0.069c0.719,0.087,1.438,0.174,2.157,0.26
			c0.375,0.292,0.799,0.471,1.322,0.407c0.134,0.048,0.269,0.095,0.402,0.143c0.075,0.239,0.255,0.324,0.531,0.269
			c1.521,0.875,2.667,2.039,3.583,3.393c0.264,0.391,0.46,0.875,1.101,0.96c0.078,0.183,0.229,0.248,0.446,0.204
			c0.271,0.231,0.616,0.23,0.96,0.23c0.333,0.276,0.711,0.418,1.178,0.287c0.309,0.041,0.618,0.082,0.926,0.122
			c0.143,0.141,0.304,0.165,0.487,0.059C48.665,79.659,49.639,79.549,50.317,80.072z"/>
		<path fill-rule="evenodd" clip-rule="evenodd" fill="#BD9CA3" d="M50.703,79.917c-0.15-0.021-0.3-0.043-0.45-0.065
			c-0.057,0.466-0.439,0.463-0.853,0.462c-2.92-0.003-5.84-0.03-8.759,0.024c-1.156,0.021-1.126-0.584-0.922-1.167
			c0.271-0.774,0.369-1.567,0.565-2.348c0.105-0.421,0.104-0.719-0.532-0.765c-1.829-0.134-3.66-0.198-5.49-0.192
			c-1.831-0.006-3.661,0.058-5.491,0.192c-0.636,0.046-0.638,0.344-0.532,0.765c0.196,0.781,0.293,1.573,0.565,2.348
			c0.205,0.583,0.235,1.189-0.922,1.167c-2.919-0.054-5.839-0.027-8.759-0.024c-0.415,0.001-0.796,0.004-0.853-0.462
			c-0.15,0.022-0.3,0.043-0.45,0.065c-0.796,0.563-1.171,1.349-1.072,2.244c0.04,0.133,0.08,0.267,0.12,0.4
			c0.217,0.075,0.272,0.211,0.198,0.395c0.195,0.313,0.353,0.635,0.28,1.003c0.406,0.194,0.187,0.542,0.271,0.814
			c0.629-0.182,1.277-0.208,1.934-0.21c2.409-0.009,4.833-0.162,7.144,0.638h3.729c-0.003,0.032-0.006,0.064-0.007,0.095
			c0.011,0.461,0.377,0.496,0.793,0.52c1.019,0.059,2.036,0.054,3.052,0.015c1.016,0.039,2.033,0.044,3.052-0.015
			c0.417-0.024,0.782-0.059,0.793-0.52c-0.001-0.031-0.005-0.062-0.008-0.095h3.773v-0.014c2.297-0.782,4.707-0.632,7.101-0.624
			c0.656,0.002,1.305,0.029,1.933,0.21c0.085-0.273-0.135-0.621,0.271-0.814c-0.072-0.368,0.085-0.69,0.281-1.003
			c-0.074-0.184-0.019-0.32,0.199-0.395c0.04-0.133,0.079-0.267,0.119-0.4C51.874,81.265,51.499,80.48,50.703,79.917z"/>
		<path fill-rule="evenodd" clip-rule="evenodd" fill="#78593F" d="M31.102,75.945c-0.756,0.031-1.512,0.071-2.267,0.126
			c-0.637,0.046-0.637,0.344-0.532,0.766c0.197,0.78,0.294,1.573,0.565,2.347c0.171,0.49,0.217,0.993-0.454,1.13
			c0.606,0.754,1.963,2.732,1.568,4.9h0.505c-0.003,0.032-0.005,0.064-0.007,0.095c0.011,0.461,0.377,0.495,0.793,0.52
			c0.428,0.025,0.855,0.037,1.283,0.042L31.102,75.945z"/>
		<path fill-rule="evenodd" clip-rule="evenodd" fill="#78593F" d="M18.376,85.517c0.045,0.181-0.012,0.36-0.198,0.422
			c-0.321,0.106-0.232-0.153-0.274-0.283c-0.252-0.786-0.502-1.574-0.752-2.36c-0.126-0.619-0.259-1.235-0.375-1.854
			c-0.12-0.646-0.051-1.215,0.866-1.385c0.029,0.276,0.128,0.48,0.524,0.378c0.852-0.043,1.703-0.087,2.554-0.13
			c0.436,0.226,1.095,0.32,0.875,0.966c-0.292,0.857-0.085,1.708-0.006,2.562c-0.866,0.115-1.727,0.226-2.583,0.418
			C18.042,84.468,17.966,84.866,18.376,85.517z"/>
	</g>
	<g id="Fonster">
		<path fill-rule="evenodd" clip-rule="evenodd" fill="#F8D07F" d="M40.867,87.328c0,0,0.073-0.83-0.318-1.826H27.842
			c-0.177,0.949-0.085,1.937-0.084,2.725c0.002,2.272-0.358,17.47-0.358,17.47l14.02,0.31L40.867,87.328z"/>
		<path fill-rule="evenodd" clip-rule="evenodd" fill="#EA7D56" d="M29.363,103.873c-0.232-1.257-0.185-4.856-1.92-5.436
			c-0.091,2.313-0.015,4.614,0.002,6.934C29.499,105.255,29.791,105.393,29.363,103.873z"/>
		<path fill-rule="evenodd" clip-rule="evenodd" fill="#EA7D56" d="M41.169,101.753c0.112-1.541,0.097-3.11-0.048-4.653
			c-1.14,0.085-1.497,3.844-1.921,4.607c-0.852,1.531-1.357,3.007,1.705,3.176C40.984,104.698,40.905,101.832,41.169,101.753
			C41.198,101.359,41.165,101.755,41.169,101.753z"/>
		<path fill-rule="evenodd" clip-rule="evenodd" fill="#EA7D56" d="M40.572,85.502h-4.364c0.253,0.435,0.352,0.896,0.498,1.362
			c0.322,1.023,2.062,0.378,2.291,0.779c0.207,0.364-1.516,0.291-1.611,0.577c-0.095,0.287,1.64,0.609,1.255,0.83
			c-0.854,0.491,0.065,0.823,0.354,1.597c0.34,0.913,0.707,2.366,2.136,3.148c0.027-0.877,0.021-1.755,0.01-2.632
			C41.435,89.576,41.404,87.202,40.572,85.502z"/>
		<path fill="#EA7D56" d="M32.566,85.502h-4.042c-0.24,0.696-0.392,1.404-0.667,2.057c-0.627,1.489-0.828,4.915,0.134,6.369
			c1.505-0.171,1.848-3.562,2.008-4.091c0.413-1.358,1.484-2.271,2.671-3.444C32.417,86.269,32.428,85.926,32.566,85.502z"/>
		<path fill-rule="evenodd" clip-rule="evenodd" fill="#78593F" d="M40.288,89.26c-1.473,0.015-2.944,0.098-4.414,0.174
			c-0.735,0.038-1.053-0.116-1.036-0.559c0.013-0.339,0.001-3.079,0.011-3.417h-0.914c-0.002,0.382,0.107,3.165,0.106,3.546
			c-0.002,0.328-0.264,0.452-0.808,0.45c-0.782-0.003-4.788-0.031-5.569-0.028v0.334c0.75,0.001,4.724,0.02,5.473,0.006
			c0.643-0.011,0.916,0.122,0.907,0.511c-0.027,1.207-0.022,2.415-0.018,3.622c0.001,0.459-0.292,0.679-1.143,0.649
			c-0.66-0.022-4.558-0.097-5.219-0.012v0.308c0.692,0.078,4.617,0.045,5.309,0.031c0.771-0.016,1.119,0.118,1.037,0.602
			c-0.07,0.41-0.002,0.828-0.066,1.237c-0.023,0.154,0.019,0.283,0.115,0.404c0.006,0.747-0.003,1.495,0.026,2.241
			c0.015,0.413-0.324,0.576-0.98,0.562c-0.738-0.016-4.701-0.061-5.439-0.077v0.439c0.82-0.008,4.867,0.059,5.687,0.042
			c0.495-0.01,0.733,0.126,0.729,0.429c-0.02,1.328-0.032,2.654-0.038,3.981h0.796c0.05-1.313,0.085-2.627,0.094-3.941
			c0.002-0.373,0.288-0.482,0.864-0.474c1.345,0.019,2.69,0.022,4.035,0.032c0.764-0.04,1.139-0.055,1.322,0.055v-0.537
			c-0.183,0.118-0.559,0.113-1.345,0.102c-0.2-0.003-0.398-0.023-0.597-0.036c-1.106,0.002-2.215-0.012-3.321,0.011
			c-0.807,0.017-1.054-0.206-1.042-0.647c0.021-0.729-0.019-1.459-0.034-2.19c-0.001,0-0.002,0-0.003,0
			c0.007-0.567,0.061-1.137,0-1.702c-0.048-0.439,0.254-0.547,0.93-0.535c1.176,0.023,2.354,0.01,3.531,0.012
			c0.626,0.036,1.256-0.187,1.881-0.039v-0.504c-0.615,0.143-1.276,0.101-1.917,0.139c-1.208,0.004-2.417,0.01-3.625,0.012
			c-0.58,0.001-0.803-0.148-0.791-0.512c0.043-1.282,0.033-2.564,0.026-3.847c-0.002-0.346,0.357-0.371,0.799-0.373
			c1.682-0.007,3.362-0.019,5.044-0.029c0.13-0.087,0.299-0.079,0.464-0.078v-0.597C41.011,89.188,40.748,89.256,40.288,89.26z"/>
		<path fill-rule="evenodd" clip-rule="evenodd" fill="#473534" d="M42.022,85.158v-0.602c-4.642,0.156-9.974,0.179-14.211,0.526
			c-0.003-0.027-0.005-0.054-0.009-0.083h-1.057c0.011,0.13,0.021,0.26,0.032,0.39c0.282,6.001,0.192,14.291,0.612,20.234
			c0.257-0.054,0.514-0.107,0.771-0.162v-4.776c-0.026-0.176-0.046-0.393-0.07-0.662c-0.291-0.064-0.291-0.238-0.295-0.412
			c-0.068-2.271-0.139-4.542-0.198-6.812c-0.004-0.137,0.086-0.275,0.134-0.413c0.002-0.196,0.005-0.394,0.008-0.59
			c-0.218-0.292-0.235-0.581,0.012-0.869c0.017-0.689,0.034-1.378,0.051-2.068c0-0.195,0.001-0.39,0.001-0.586
			c-0.025-0.184-0.05-1.292-0.075-2.176h3.834c0.16-0.032,0.359-0.057,0.606-0.087c0.059-0.358,0.218-0.357,0.377-0.364
			c2.08-0.083,4.161-0.17,6.241-0.243c0.125-0.005,0.251,0.107,0.378,0.165c0.18,0.003,0.36,0.007,0.541,0.01
			c0.267-0.268,0.532-0.289,0.796,0.016c0.156,0.005,0.312,0.01,0.468,0.015c-0.019,0.166-0.033,0.332-0.036,0.497
			c0.048,0.02,0.096,0.039,0.145,0.058c-0.028,0.91-0.056,2.286-0.084,2.492c0,0.195,0,0.391,0.001,0.585
			c0.017,0.69,0.034,1.379,0.051,2.069c0.247,0.287,0.23,0.577,0.012,0.868c0.003,0.197,0.005,0.394,0.008,0.59
			c0.047,0.138,0.138,0.276,0.134,0.413c-0.059,2.271-0.13,4.542-0.197,6.812c-0.005,0.174-0.005,0.347-0.296,0.412
			c-0.024,0.27-0.043,0.487-0.07,0.662v4.776c0.257,0.055,0.514,0.108,0.77,0.162c0.42-5.944,0.33-14.233,0.613-20.234
			c0.018-0.205,0.034-0.41,0.051-0.614H42.022z"/>
	</g>
	<g id="Fonsterbrada">
		<path fill-rule="evenodd" clip-rule="evenodd" fill="#BBCFEF" d="M22.656,106.785c0.196-0.029,0.392-0.057,0.588-0.085
			c0.436,0.206,0.715,0.021,0.952-0.269c0.306-0.026,0.612-0.051,0.918-0.077c0.213,0.19,0.306,0.09,0.359-0.105l-0.018-0.061
			c0.439-0.082,0.911-0.052,1.31-0.27c0.245-0.059,0.489-0.118,0.734-0.177c0.299-0.024,0.599-0.048,0.898-0.072
			c0.169,0.062,0.307,0.044,0.391-0.109c0.229-0.02,0.457-0.039,0.686-0.058c0.052,0.272,0.243,0.391,0.573,0.394
			c0.253,0.002,0.534,0.048,0.521,0.32c-0.012,0.261-0.349,0.234-0.54,0.341c-0.289,0.163-0.737-0.025-0.969,0.289
			c0.384,0.281,0.918-0.045,1.226,0.306c-0.48,0.262-1.019,0.135-1.521,0.12c-1.48-0.046-2.957-0.184-4.441-0.113
			C23.782,106.986,23.02,107.51,22.656,106.785z"/>
		<path fill-rule="evenodd" clip-rule="evenodd" fill="#719EC3" d="M22.656,106.785c0.363,0.725,1.126,0.201,1.667,0.374
			c-0.154,0.397,0.55,0.743,0.254,1.039c-0.67,0.67-0.14,0.641,0.44,0.664c0.174,0.006,0.238,0.136,0.295,0.255l-0.01,0.075
			c-0.5-0.11-1.007-0.05-1.513-0.042c-0.672-0.004-1.344-0.009-2.017-0.013c-0.178-0.659-0.355-1.317-0.534-1.977
			c0.211-0.006,0.363-0.085,0.446-0.251c0.113-0.053,0.227-0.106,0.34-0.16C22.238,106.734,22.454,106.674,22.656,106.785z"/>
		<path fill-rule="evenodd" clip-rule="evenodd" fill="#BD9CA3" d="M31.038,109.239c-1.17-0.152-2.349-0.052-3.523-0.088
			c-0.437-0.253-0.879-0.235-1.324-0.016c-0.293-0.006-0.586-0.012-0.878-0.018c-0.057-0.119-0.121-0.249-0.295-0.255
			c-0.58-0.023-1.11,0.006-0.44-0.664c0.295-0.296-0.409-0.642-0.254-1.039c1.484-0.071,2.961,0.067,4.441,0.113
			c0.502,0.016,1.041,0.143,1.521-0.121c2.592,0.001,5.185,0.002,7.777,0.004c0.244,0.183,0.488,0.18,0.731-0.001
			c0.645-0.005,1.292,0.001,1.937-0.017c1.334-0.04,2.679,0.076,4.001-0.163c0.062,0,0.124,0,0.186,0
			c0.106,0.205,0.33,0.125,0.512,0.149c0.467-0.004,0.934-0.008,1.402-0.011c0.497-0.01,1.014-0.118,1.443,0.204
			c-0.006,0.25-0.11,0.517,0.159,0.726c-0.001,0.116-0.001,0.232-0.001,0.348c-0.148,0.084-0.17,0.183-0.048,0.298
			c-0.104,0.174-0.209,0.348-0.312,0.521c-5.649-0.098-11.298-0.039-16.946,0.006C31.096,109.215,31.067,109.231,31.038,109.239z"/>
		<path fill-rule="evenodd" clip-rule="evenodd" fill="#F8E7C7" d="M44.732,106.974c-1.323,0.239-2.667,0.123-4.001,0.163
			c-0.645,0.019-1.292,0.012-1.937,0.017c-0.245-0.243-0.488-0.247-0.731,0.002c-2.593-0.002-5.185-0.002-7.777-0.004
			c-0.308-0.35-0.842-0.024-1.226-0.305c0.232-0.314,0.68-0.126,0.969-0.289c0.191-0.107,0.528-0.08,0.54-0.341
			c0.013-0.271-0.268-0.318-0.521-0.32c-0.33-0.002-0.521-0.122-0.572-0.394c0.006-0.04,0.019-0.08,0.04-0.116
			c1.11-0.146,2.221-0.292,3.331-0.437c0.188-0.058,0.375-0.116,0.562-0.173c1.246,0.108,2.492-0.212,3.737,0.004
			c0.056,0.017,0.112,0.034,0.169,0.049c0.033,0.202,0.153,0.291,0.399,0.217c0.477,0.037,0.953,0.074,1.43,0.111
			c0,0,0.067,0.024,0.067,0.024l0.071-0.015c0.173,0.352,0.535,0.283,0.87,0.273c0.288,0.243,0.637,0.339,1.04,0.307
			c0.084,0.008,0.168,0.017,0.252,0.026c0.227,0.063,0.455,0.126,0.682,0.189c0.129,0.143,0.3,0.23,0.511,0.262
			c0.088,0.167,0.209,0.278,0.451,0.196c0.303,0.044,0.606,0.089,0.909,0.134c0.209,0.157,0.462,0.107,0.706,0.103
			C44.712,106.762,44.722,106.868,44.732,106.974z"/>
		<path fill-rule="evenodd" clip-rule="evenodd" fill="#78593F" d="M41.917,111.153c0.153,0.743-0.237,1.459-0.16,2.2
			c-0.305-0.008-0.609-0.017-0.914-0.025c0.051-0.569,0.101-1.139,0.152-1.708C41.353,111.533,41.5,111.156,41.917,111.153z"/>
		<path fill-rule="evenodd" clip-rule="evenodd" fill="#585660" d="M43.631,110.696c-0.502,0.099-1.005,0.198-1.508,0.298
			c0.007-0.077-0.01-0.161,0.023-0.229c0.496-1.009,0.498-1.008-0.845-1.004c-0.091,0.001-0.184,0.004-0.275,0.006
			c-0.012-0.045-0.024-0.09-0.038-0.134c0.228-0.241,0.556-0.198,0.845-0.171c0.96,0.09,1.894,0.355,2.877,0.29
			c-0.271,0.377-0.418,0.824-0.871,1.1C43.769,110.8,43.7,110.748,43.631,110.696z"/>
		<path fill-rule="evenodd" clip-rule="evenodd" fill="#473534" d="M41.026,109.768c0.091-0.002,0.184-0.005,0.275-0.006
			c1.343-0.004,1.341-0.004,0.845,1.004c-0.033,0.067-0.016,0.152-0.023,0.229c-0.068,0.053-0.136,0.105-0.205,0.159
			c-0.417,0.003-0.565,0.38-0.922,0.467C40.772,111,40.715,110.382,41.026,109.768z"/>
		<path fill-rule="evenodd" clip-rule="evenodd" fill="#957080" d="M27.215,111.037c0.045,0.212,0.089,0.424,0.134,0.636
			c0.274,0.228,0.395,0.496,0.316,0.818c0.106,0.985,0.98,0.531,1.581,0.59c0.076-0.74-0.313-1.456-0.161-2.2
			c-0.069-0.053-0.137-0.105-0.205-0.158c-0.503-0.1-1.005-0.199-1.508-0.298C27.335,110.632,27.446,110.865,27.215,111.037z"/>
		<path fill-rule="evenodd" clip-rule="evenodd" fill="#957080" d="M43.644,111.238c-0.044,0.212-0.089,0.424-0.134,0.636
			c-0.274,0.228-0.395,0.496-0.315,0.818c-0.106,0.985-0.981,0.531-1.581,0.59c-0.077-0.74,0.312-1.456,0.16-2.2
			c0.069-0.053,0.138-0.105,0.206-0.158c0.502-0.1,1.005-0.199,1.508-0.298C43.525,110.833,43.413,111.066,43.644,111.238z"/>
		<path fill-rule="evenodd" clip-rule="evenodd" fill="#78593F" d="M29.085,110.882c-0.152,0.744,0.237,1.46,0.161,2.2
			c0.304-0.008,0.609-0.017,0.914-0.025c-0.051-0.569-0.101-1.138-0.152-1.707C29.65,111.263,29.503,110.886,29.085,110.882z"/>
		<path fill-rule="evenodd" clip-rule="evenodd" fill="#585660" d="M27.372,110.426c0.503,0.099,1.005,0.198,1.508,0.298
			c-0.007-0.076,0.01-0.161-0.023-0.229c-0.496-1.009-0.498-1.008,0.845-1.004c0.092,0,0.184,0.003,0.275,0.005
			c0.012-0.045,0.025-0.09,0.039-0.134c-0.228-0.241-0.556-0.198-0.845-0.171c-0.96,0.09-1.894,0.356-2.877,0.29
			c0.271,0.377,0.417,0.823,0.871,1.1C27.233,110.53,27.303,110.478,27.372,110.426z"/>
		<path fill-rule="evenodd" clip-rule="evenodd" fill="#473534" d="M29.977,109.497c-0.091-0.002-0.183-0.005-0.275-0.005
			c-1.343-0.004-1.341-0.005-0.845,1.004c0.033,0.067,0.016,0.152,0.023,0.229c0.068,0.053,0.136,0.105,0.205,0.158
			c0.418,0.004,0.565,0.381,0.922,0.468C30.231,110.729,30.288,110.111,29.977,109.497z"/>
	</g>
	<g id="FonsterLuckaH">
		<path fill-rule="evenodd" clip-rule="evenodd" fill="#27100D" d="M41.813,106.895c-0.043-2.041-0.41-4.101-0.317-6.1
			c0.111-2.425-0.112-4.817-0.165-7.219c-0.06-2.805-0.007-7.378,0.269-7.485c0.161-0.062,0.21-0.242,0.171-0.422
			c0.208,0.072,0.415,0.143,0.622,0.215c-0.036,0.329-0.131,0.665-0.099,0.987c0.244,2.404,0.125,4.821,0.235,7.232
			c0.175,3.855,0.05,7.725,0.059,11.589c0.001,0.44-0.019,0.871-0.202,1.279C42.195,106.944,42.004,106.919,41.813,106.895z"/>
		<path fill-rule="evenodd" clip-rule="evenodd" fill="#78593F" d="M51.209,85.795c-2.938,0.029-5.877,0.058-8.815,0.088
			c-0.036,0.329-0.131,0.665-0.099,0.987c0.244,2.404,0.125,4.821,0.235,7.232c0.175,3.855,0.05,7.725,0.059,11.589
			c0.001,0.44-0.019,0.871-0.202,1.278c0.408,0.331,0.446-0.382,0.776-0.275c0.619-0.249,1.237-0.497,1.856-0.746c0,0,0,0,0-0.001
			l5.687-0.282c0,0,0.367-3.336,0.368-3.561c0.002-3.959-0.007-7.919,0.056-11.878C51.139,89.612,51.345,86.213,51.209,85.795z"/>
		<path fill-rule="evenodd" clip-rule="evenodd" fill="#473534" d="M50.073,104.149c-0.075-0.368-0.096-0.738-0.098-1.109h0.015
			c-0.006-4.981-0.009-9.961,0.004-14.942c0.002-0.885,0.065-0.875-0.774-0.759c-0.633,0.088-4.384-0.091-5.019-0.068
			c-0.32,0.011-0.645,0.119-0.638,0.628c0.007,0.601,0.405,0.475,0.682,0.472c1.504-0.014,3.007-0.049,4.511-0.078
			c0.143,0.01,0.286,0.021,0.429,0.032c0.006,0.279,0.011,0.558,0.017,0.837c-1.579-0.006-3.157-0.03-4.735-0.006
			c-0.348,0.004-0.936-0.29-0.909,0.577c0.022,0.728,0.553,0.451,0.884,0.493c1.646,0.211,3.269-0.387,4.913-0.243
			c0.077,0.974-0.396,1.026-0.954,1.049c-1.498,0.062-3.007-0.231-4.493,0.231c-0.153,0.037-0.344,0.062-0.293,0.34
			c0.018,0.099,0.193,0.148,0.296,0.22c0.235,0.003,0.47,0.013,0.705,0.011c1.377-0.009,2.754-0.027,4.132-0.024
			c0.209,0.001,0.537-0.094,0.508,0.388c-0.018,0.29-0.254,0.382-0.468,0.394c-0.201,0.011-0.403,0.007-0.604,0.007
			c-1.31-0.002-2.621-0.016-3.93,0c-0.235,0.003-0.623-0.165-0.627,0.366c-0.003,0.358,0.273,0.631,0.554,0.665
			c0.464,0.056,0.924,0.02,1.396-0.094c1.164-0.282,2.335-0.15,3.535-0.127c-0.088,0.63-0.332,0.558-0.51,0.607
			c-1.363,0.376-2.744,0.145-4.115,0.139c-0.456-0.002-0.789,0-0.958,0.62c-0.028,0.015-0.056,0.03-0.085,0.045
			c0.029,0.047,0.058,0.096,0.086,0.144c0.085,0.152,0.188,0.221,0.342,0.19c1.505-0.299,3.021-0.067,4.531-0.135
			c0.3-0.014,0.686-0.024,0.689,0.513c0.003,0.543-0.396,0.571-0.684,0.519c-1.3-0.237-2.602,0.071-3.898-0.062
			c-0.302-0.031-0.67-0.258-0.694,0.343c-0.021,0.538,0.373,0.522,0.677,0.53c0.269,0.006,0.539,0.009,0.808-0.007
			c1.071-0.065,2.131-0.364,3.21-0.252c0.254,0.026,0.608-0.09,0.624,0.424c0.015,0.53-0.317,0.605-0.638,0.619
			c-0.134,0.006-0.276,0.027-0.403-0.017c-1.094-0.381-2.21-0.157-3.315-0.197c-0.286-0.01-0.796-0.266-0.783,0.422
			c0.011,0.544,0.474,0.346,0.748,0.349c1.077,0.013,2.155-0.047,3.23,0.001c0.452,0.02,1.246-0.372,1.267,0.496
			c0.021,0.941-0.778,0.524-1.219,0.543c-1.144,0.051-2.289-0.003-3.433,0.006c-0.202,0.002-0.495-0.139-0.544,0.335
			c0.181,0.311,0.433,0.201,0.652,0.192c1.104-0.047,2.167,0.007,3.311-0.079c0.786-0.059,0.982-0.143,0.987,0.702
			c-1.538-0.021-3.077-0.046-4.615-0.059c-0.327-0.002-0.646,0.15-0.611,0.655c0.035,0.504,0.37,0.381,0.633,0.337
			c1.518-0.255,3.04-0.447,4.572-0.482c0.356,0.957-0.1,1.046-0.645,1.049c-1.243,0.006-2.486,0.015-3.729,0.027
			c-0.298,0.004-0.737-0.058-0.752,0.412c-0.021,0.603,0.45,0.359,0.706,0.363c1.074,0.018,2.149-0.014,3.224-0.025
			c0.83-0.009,1.318-0.009,1.296,0.365c-0.023,0.375-0.133,0.608-0.473,0.595c-1.331-0.052-2.663-0.104-3.993-0.187
			c-0.306-0.019-0.574,0.033-0.635,0.444c-0.076,0.51,0.235,0.549,0.518,0.554c0.303,0.005,0.608-0.038,0.908,0.005
			c1.377,0.2,2.801-0.507,4.155,0.44C49.905,105.138,50.194,104.75,50.073,104.149z"/>
		<path fill-rule="evenodd" clip-rule="evenodd" fill="#BBCFEF" d="M51.209,85.773c-2.938,0.037-5.877,0.073-8.815,0.11
			c-0.207-0.089-0.414-0.179-0.622-0.269c-0.354-0.815-0.288-1.312,0.543-1.583c0.737-0.24,1.479-0.38,2.224-0.523
			c1.883-0.033,3.711,0.348,5.483,1.146c0.432,0.174,0.856,0.365,1.191,0.771C51.213,85.541,51.211,85.657,51.209,85.773z"/>
	</g>
	<g id="FonsterLuckaV">
		<path fill-rule="evenodd" clip-rule="evenodd" fill="#27100D" d="M17.758,106.925c-0.044-2.041-0.41-4.1-0.318-6.1
			c0.112-2.426-0.111-4.816-0.164-7.219c-0.061-2.804-0.007-7.378,0.269-7.485c0.161-0.062,0.209-0.242,0.171-0.422
			c0.207,0.071,0.415,0.143,0.622,0.214c-0.037,0.329-0.132,0.664-0.099,0.986c0.244,2.405,0.124,4.822,0.234,7.232
			c0.176,3.855,0.051,7.726,0.06,11.589c0,0.44-0.02,0.872-0.203,1.28C18.14,106.976,17.949,106.951,17.758,106.925z"/>
		<path fill-rule="evenodd" clip-rule="evenodd" fill="#78593F" d="M27.153,85.826c-2.938,0.029-5.877,0.059-8.815,0.088
			c-0.037,0.329-0.132,0.664-0.099,0.986c0.244,2.405,0.124,4.822,0.234,7.232c0.176,3.855,0.051,7.726,0.06,11.589
			c0,0.44-0.02,0.872-0.203,1.279c0.408,0.33,0.447-0.383,0.776-0.275c0.619-0.249,1.238-0.497,1.857-0.747l-0.001,0l5.687-0.282
			c0,0,0.367-3.337,0.367-3.562c0.002-3.959-0.006-7.919,0.056-11.878C27.083,89.643,27.289,86.245,27.153,85.826z"/>
		<path fill-rule="evenodd" clip-rule="evenodd" fill="#473534" d="M25.487,103.902c-0.074-0.368-0.095-0.738-0.098-1.109h0.015
			c-0.006-4.981-0.008-9.962,0.005-14.942c0.001-0.885,0.069-0.951-0.771-0.833c-0.632,0.088-4.388-0.017-5.022,0.006
			c-0.32,0.012-0.645,0.119-0.638,0.629c0.008,0.601,0.405,0.475,0.683,0.472c1.503-0.015,3.007-0.05,4.51-0.078
			c0.143,0.011,0.286,0.021,0.429,0.032c0.006,0.279,0.011,0.558,0.017,0.837c-1.579-0.007-3.158-0.031-4.736-0.007
			c-0.348,0.005-0.936-0.29-0.909,0.577c0.022,0.729,0.553,0.451,0.884,0.493c1.646,0.211,3.269-0.387,4.914-0.244
			c0.077,0.974-0.396,1.026-0.954,1.05c-1.498,0.062-3.008-0.232-4.494,0.231c-0.152,0.037-0.344,0.062-0.293,0.34
			c0.018,0.098,0.193,0.148,0.296,0.22c0.235,0.004,0.47,0.014,0.705,0.012c1.377-0.009,2.754-0.027,4.131-0.024
			c0.209,0,0.538-0.094,0.509,0.388c-0.019,0.289-0.254,0.382-0.467,0.393c-0.201,0.011-0.403,0.007-0.605,0.007
			c-1.31-0.002-2.62-0.016-3.93,0c-0.235,0.003-0.623-0.166-0.626,0.365c-0.003,0.358,0.272,0.631,0.554,0.665
			c0.464,0.056,0.924,0.02,1.396-0.095c1.164-0.281,2.335-0.149,3.535-0.127c-0.088,0.63-0.331,0.558-0.509,0.607
			c-1.364,0.376-2.745,0.146-4.116,0.139c-0.456-0.002-0.789,0-0.957,0.619c-0.028,0.015-0.057,0.03-0.084,0.045
			c0.028,0.048,0.057,0.096,0.085,0.145c0.086,0.152,0.188,0.221,0.342,0.19c1.505-0.3,3.021-0.067,4.532-0.135
			c0.3-0.014,0.686-0.024,0.689,0.513c0.003,0.542-0.396,0.571-0.684,0.518c-1.3-0.236-2.602,0.072-3.898-0.062
			c-0.302-0.031-0.67-0.258-0.694,0.343c-0.021,0.538,0.373,0.522,0.678,0.529c0.269,0.006,0.539,0.009,0.808-0.007
			c1.071-0.065,2.131-0.364,3.211-0.252c0.253,0.026,0.607-0.09,0.623,0.424c0.016,0.53-0.317,0.605-0.638,0.619
			c-0.134,0.005-0.276,0.027-0.402-0.018c-1.095-0.381-2.21-0.157-3.315-0.197c-0.285-0.01-0.796-0.266-0.783,0.422
			c0.01,0.544,0.474,0.345,0.748,0.349c1.076,0.013,2.154-0.048,3.23,0c0.453,0.021,1.247-0.371,1.267,0.496
			c0.021,0.941-0.778,0.523-1.218,0.543c-1.143,0.051-2.289-0.003-3.433,0.006c-0.202,0.002-0.494-0.139-0.544,0.335
			c0.181,0.311,0.433,0.201,0.652,0.191c1.105-0.046,2.168,0.007,3.312-0.078c0.785-0.059,0.981-0.143,0.987,0.702
			c-1.539-0.021-3.077-0.046-4.616-0.059c-0.327-0.002-0.646,0.15-0.611,0.655c0.035,0.505,0.37,0.381,0.633,0.338
			c1.519-0.255,3.041-0.448,4.573-0.483c0.355,0.957-0.101,1.046-0.645,1.049c-1.243,0.006-2.485,0.015-3.729,0.027
			c-0.298,0.003-0.738-0.058-0.752,0.412c-0.02,0.603,0.451,0.358,0.706,0.363c1.075,0.019,2.149-0.013,3.224-0.025
			c0.83-0.01,1.318-0.01,1.296,0.365c-0.022,0.374-0.133,0.608-0.473,0.594c-1.331-0.052-2.663-0.104-3.994-0.186
			c-0.306-0.019-0.573,0.032-0.634,0.443c-0.077,0.511,0.234,0.55,0.517,0.554c0.304,0.005,0.609-0.039,0.908,0.005
			c1.378,0.2,2.801-0.507,4.155,0.44C25.32,104.891,25.608,104.502,25.487,103.902z"/>
		<path fill-rule="evenodd" clip-rule="evenodd" fill="#BBCFEF" d="M27.153,85.742c-2.938,0.036-5.877,0.073-8.815,0.11
			c-0.207-0.09-0.415-0.179-0.622-0.269c-0.354-0.814-0.289-1.312,0.543-1.583c0.738-0.24,1.479-0.38,2.225-0.523
			c1.883-0.033,3.71,0.348,5.483,1.146c0.431,0.173,0.855,0.365,1.191,0.771C27.156,85.51,27.155,85.626,27.153,85.742z"/>
	</g>
	<g id="Skorsten">
		<path fill-rule="evenodd" clip-rule="evenodd" fill="#70070A" d="M36.2,41.686c-0.245,0.037-0.488,0.074-0.732,0.111
			c0,0-0.027,0.006-0.027,0.006c-1.635,0.487-3.318,0.338-4.986,0.373v-0.041h-4.874v0.097c-2.841-0.068-5.684-0.141-8.525-0.213
			c-0.306,0.085-0.673,0.038-0.851,0.397C16.216,43.62,16.672,44.29,18,43.92c0.092-0.006,0.183-0.013,0.274-0.019
			c0.242,0.15,0.449,0.373,0.433,0.698c-0.042,0.804-0.084,1.608-0.127,2.412c0.528,2.215,0.977,3.258,0.309,4.449
			c0.77,1.467,0.389,2.323,0.045,4.041c0.018,0.3,0.035,0.6,0.054,0.9c-0.349,1.812-0.027,7.432,1.985,7.039
			c0.314-0.062,2.285-3.028,2.613-3.019c0.581-0.098,1.415-1.337,1.965-1.246c5.182,0.857,5.904-3.462,8.397-6.888
			c1.053-1.446,0.335-3.251,0.929-4.796c0.496-1.526-1.193-3.755,1.514-4.613C36.676,42.789,36.581,42.048,36.2,41.686z"/>
		<path fill-rule="evenodd" clip-rule="evenodd" fill="#370409" d="M17.982,43.812c3.173-0.211,6.346-0.422,9.519-0.634
			c0.365,0.043,0.729,0.086,1.094,0.13c0.192,0.067,0.518,0.014,0.553,0.222c0.181,1.07-0.269,0.401-0.344,0.406
			c-3.378,0.242-6.769,0.712-10.104,0.134C18.461,43.983,18.221,43.897,17.982,43.812z"/>
		<path fill-rule="evenodd" clip-rule="evenodd" fill="#BBCFEF" d="M28.553,43.264c-0.367-0.008-0.734-0.017-1.101-0.024
			c0.094-1.157-0.73-1.02-1.454-1.037c-2.979-0.072-5.958-0.149-8.937-0.224c0.003-0.338,0.108-0.601,0.491-0.655
			c3.044,0.618,6.095,0.306,9.156,0.142c2.912-0.156,5.864-0.79,8.733,0.337c-1.859,0.555-3.781,0.284-5.672,0.4
			C29.007,42.25,28.463,42.338,28.553,43.264z"/>
		<path fill-rule="evenodd" clip-rule="evenodd" fill="#FBFCFC" d="M26.708,41.466c2.912-0.156,5.864-0.79,8.733,0.337l0.027-0.006
			c0.043-0.157,0.094-0.264,0.15-0.331c-0.899-0.331-2.64-0.935-3.75-1.098c-0.199,0.018-0.415,0.007-0.652-0.034
			c-0.226,0.025-0.418-0.01-0.582-0.096c-3.07-0.486-6.159-0.684-9.269-0.352c-0.495,0.167-0.991,0.334-1.487,0.501
			c-0.775,0.312-1.55,0.624-2.325,0.936C20.596,41.942,23.646,41.63,26.708,41.466z"/>
	</g>
	<g id="Tak">
		<path fill="#BBCFEF" d="M105.48,71.181c-0.849-1.722-1.956-3.269-3.602-4.351c-0.374-0.309-0.749-0.618-1.125-0.927
			c-2.128-0.393-4.334-0.689-4.413-3.59c-2.723,0.564-4.346-1.46-6.099-2.84c-10.266-8.079-20.807-15.739-32.296-22.017
			c-3.771-1.842-6.151,1.021-8.499,2.89C38.13,49.358,26.805,58.378,15.849,67.82c-4.2,3.62-8.937,5.701-13.968,6.524
			c-1.317,1.463-1.831,2.876-0.323,3.83c2.898,1.831,5.712,1.072,7.92,1.951c2.002-0.577,3.959-1.396,5.838-2.515
			c2.062-1.284,4.122-2.568,6.184-3.854c1.558-3.692,5.081-5.606,7.612-8.41c7.117-6.958,14.312-13.844,21.32-20.917
			c2.693-2.719,5.457-3.348,8.687-1.453c10.083,5.915,20.166,11.842,28.435,20.302c2.029,2.327,4.057,4.654,6.086,6.982
			c0.175,0.121,0.315,0.271,0.415,0.444c2.122,1.789,4.162,3.699,6.401,5.332c1.465,1.068,3.272,1.54,4.828,0.014
			C106.821,74.542,106.282,72.809,105.48,71.181z"/>
		<path fill-rule="evenodd" clip-rule="evenodd" fill="#EBEEF5" d="M86.2,53.92c-7.148-5.504-14.143-11.255-22.05-15.65
			c-0.063-0.038-0.128-0.075-0.181-0.105c-1.25-0.713-2.86-1.502-4.5-2.883c-0.581,0.052-1.163,0.103-1.743,0.155
			c-0.46,0.028-0.92,0.056-1.379,0.084c-0.377,0.065-0.753,0.13-1.13,0.195c-0.977,0.328-1.954,0.656-2.931,0.984
			c-0.303,0.042-0.606,0.082-0.909,0.122c-1.561,1.2-2.976,2.617-4.907,3.258c-2.799,2.222-5.598,4.444-8.395,6.667
			c-0.382,0.333-0.763,0.667-1.144,1.001c-0.56,0.354-1.121,0.708-1.682,1.062c-2.032,2.629-5.108,3.878-7.678,5.797
			C27.566,57.825,9.35,68.15,6.007,70.414h0c-1.772,1.25-3.481,2.584-5.068,4.081c5.368-0.714,10.422-2.822,14.873-6.657
			c10.956-9.441,22.281-18.462,33.599-27.473c2.347-1.869,4.727-4.733,8.499-2.89c0.907,0.495,1.805,1.001,2.7,1.514
			c0.219,0.125,0.438,0.252,0.657,0.379c0.804,0.465,1.604,0.935,2.399,1.413c0.079,0.047,0.158,0.093,0.237,0.141
			c1.927,1.162,3.83,2.36,5.71,3.589l0,0c7.104,4.639,13.908,9.719,20.592,14.98c1.762,1.388,3.394,3.428,6.141,2.833
			C93.43,58.965,89.674,56.595,86.2,53.92z"/>
	</g>
	<path id="Vaggkant" fill-rule="evenodd" clip-rule="evenodd" fill="#957080" d="M99.394,75.231l-2.335,5.098
		c-0.007,0.413,0.164-3.453,0.155-3.04c-0.021,1.014-0.123,2.026-0.155,3.04c-0.024,0.762-0.365,1.15-1.219,1.092
		c-0.423-0.029-0.85-0.009-1.275-0.003c-2.403,0.031-2.983,0.817-2.267,2.987c0.315,0.955,1.112,0.948,1.929,0.964
		c2.653,0.052,2.655,0.052,2.612,2.51c-0.02,1.104-0.105,2.21-0.059,3.311c0.04,0.904-0.391,1.246-1.288,1.381
		c-2.261,0.34-2.291,0.395-2.344,2.506c-0.015,0.618,0.018,1.236,0.023,1.855c0.017,1.949,0.014,1.967,2.024,2.23
		c0.673,0.088,1.061,0.38,1.067,1.006c0.015,1.324-0.012,2.649-0.017,3.973c-0.002,0.628-0.396,0.882-1,0.841
		c-1.54-0.104-2.005,0.667-1.914,1.953c0.031,0.439,0.028,0.884-0.001,1.324c-0.048,0.719,0.247,1.124,1.056,1.01
		c1.415-0.199,1.755,0.454,1.575,1.616c-0.082,0.522-0.131,1.065-0.071,1.585c0.172,1.465-0.293,2.29-2.062,2.164
		c-0.778-0.055-1.211,0.457-1.228,1.181c-0.032,1.457-0.023,2.914-0.042,4.37c-0.011,0.871,0.587,0.952,1.321,0.98
		c1.699,0.068,1.84,0.275,1.72,1.793c-0.131,1.671-0.231,3.346-0.256,5.021c-0.015,1.014-0.392,1.408-1.521,1.368
		c-1.919-0.068-1.922-0.011-1.919,1.77c0.001,0.397-0.03,0.797,0.008,1.191c0.079,0.812-0.331,1.023-1.154,1.099
		c-2.543,0.234-5.09,0.206-7.637,0.254c-3.448,0.066-6.897,0.135-10.33,0.481c-0.012-0.044-0.025-0.088-0.038-0.132
		c-3.749-0.438-43.929,0.161-47.7,0.088c-2.547-0.048-5.094-0.021-7.637-0.254c-0.824-0.076-1.232-0.287-1.154-1.099
		c0.038-0.394,0.007-0.794,0.008-1.191c0.003-1.78,0-1.837-1.918-1.769c-1.129,0.041-1.507-0.354-1.521-1.367
		c-0.025-1.675-0.125-3.35-0.257-5.021c-0.119-1.519,0.021-1.725,1.721-1.793c0.733-0.029,1.332-0.109,1.321-0.981
		c-0.018-1.457-0.009-2.914-0.041-4.37c-0.016-0.724-0.45-1.236-1.228-1.181c-1.769,0.126-2.235-0.699-2.063-2.164
		c0.062-0.521,0.011-1.063-0.07-1.585c-0.18-1.163,0.16-1.815,1.575-1.616c0.809,0.114,1.104-0.292,1.055-1.01
		c-0.03-0.44-0.032-0.885-0.001-1.324c0.091-1.285-0.374-2.058-1.914-1.953c-0.605,0.041-0.998-0.212-1-0.841
		c-0.005-1.324-0.032-2.648-0.018-3.973c0.007-0.626,0.394-0.917,1.067-1.006c2.011-0.264,2.007-0.282,2.024-2.23
		c0.005-0.619,0.038-1.237,0.022-1.854c-0.052-2.112-0.083-2.167-2.343-2.507c-0.897-0.135-1.327-0.476-1.288-1.381
		c0.046-1.101-0.04-2.207-0.059-3.31c-0.044-2.458-0.042-2.459,2.611-2.511c0.817-0.017,1.614-0.008,1.929-0.963
		c0.718-2.171,0.136-2.958-2.267-2.988c-0.425-0.005-0.852-0.026-1.275,0.003c-0.854,0.059-1.194-0.33-1.218-1.091
		c-0.018-0.566,1.538,0.489-0.018-0.566l-2.716-1.13c0.023,0.805,0.047,1.609,0.07,2.414c0.476,0.63,0.49,1.289,0.137,1.97
		c0.367,3.578,0.321,7.168,0.438,10.754c0.387,0.551,0.451,1.119,0.09,1.706c0.047,0.762,0.093,1.524,0.139,2.287
		c0.313,0.132,0.375,0.425,0.314,0.658c-0.356,1.398-0.071,2.81-0.146,4.213c0.064,1.5,0.129,3,0.194,4.5
		c0.417,0.785,0.509,1.583,0.104,2.399c0.032,0.23,0.062,0.461,0.094,0.691c0.072,0.051,0.212,0.111,0.206,0.151
		c-0.315,2.021,0.137,4.024,0.146,6.036c0.002,0.473-0.121,0.833-0.634,1.069c-0.979,0.448-0.843,0.97,0.009,1.411
		c0.585,0.303,0.818,0.695,0.601,1.298c0.049,0.683,0.097,1.367,0.146,2.051c0.351,0.346,0.377,0.706,0.055,1.081
		c0.093,1.388,0.187,2.776,0.28,4.164c0.167,0.218,0.164,0.442,0.026,0.67c0.03,1.551,0.061,3.103,0.091,4.654
		c0.043,0.551,0.087,1.102,0.131,1.652c0.71,0.026,1.439-0.178,2.127,0.143c4.609,0.124,9.22,0.238,13.829,0.373
		c3.01,0.088,36.796-0.369,44.765-0.357c-0.024,0.083-0.047,0.165-0.071,0.247c3.273-0.11,6.545-0.231,9.819-0.327
		c4.609-0.135,9.219-0.25,13.829-0.373c0.688-0.321,1.417-0.117,2.127-0.143c0.043-0.551,0.087-1.102,0.13-1.652
		c0.031-1.551,0.061-3.103,0.092-4.654c-0.139-0.229-0.141-0.452,0.025-0.67c0.094-1.388,0.187-2.775,0.28-4.164
		c-0.323-0.375-0.296-0.735,0.055-1.081c0.048-0.684,0.097-1.368,0.146-2.051c-0.218-0.602,0.016-0.995,0.601-1.297
		c0.853-0.441,0.99-0.963,0.01-1.411c-0.514-0.235-0.636-0.597-0.635-1.069c0.01-2.012,0.462-4.016,0.147-6.036
		c-0.006-0.041,0.134-0.101,0.206-0.151c0.031-0.23,0.062-0.461,0.094-0.691c-0.405-0.816-0.313-1.614,0.104-2.399
		c0.063-1.5,0.129-3,0.193-4.5c-0.074-1.403,0.21-2.814-0.146-4.213c-0.06-0.232,0.002-0.526,0.314-0.658
		c0.047-0.762,0.093-1.524,0.139-2.286c-0.361-0.587-0.296-1.155,0.09-1.707c0.118-3.586,0.072-7.177,0.438-10.754
		c-0.352-0.681-0.338-1.339,0.137-1.97C99.771,79.382,99.345,76.896,99.394,75.231z"/>
	<g id="Dorrtak">
		<path fill-rule="evenodd" clip-rule="evenodd" fill="#FFFFFF" d="M92.97,80.908c-3.336-2.229-6.604-4.401-9.86-6.592
			c-2.08-1.399-4.141-2.827-6.209-4.243c-0.73-0.5-1.468-0.99-2.182-1.513c-0.615-0.451-1.137-0.487-1.816-0.02
			c-0.701,0.482-1.588,0.69-2.316,1.142c-1.244,0.771-2.407,1.67-3.64,2.459c-2.448,1.567-4.85,3.226-7.402,4.604
			c-2.645,1.428-5.543,2.241-8.557,2.521c-0.325,0.03-0.812-0.12-0.972-0.356c-0.123-0.182,0.048-0.746,0.266-0.943
			c1.208-1.094,2.468-2.133,3.719-3.179c0.589-0.491,1.164-1.014,1.808-1.423c2.181-1.382,4.334-2.823,6.605-4.043
			c2.121-1.14,4.315-2.222,6.595-2.966c1.957-0.639,3.996-0.533,5.847,0.824c1.206,0.883,2.684,1.385,3.944,2.206
			c3.031,1.976,6.016,4.023,9,6.071c1.434,0.985,2.826,2.033,4.232,3.058C92.939,79.177,93.263,79.95,92.97,80.908z"/>
		<path fill="#BD9CA3" d="M69.125,81.18c1.513-0.491,3.213-0.923,5.355-1.09c0.004-0.023,0.008-0.047,0.012-0.069
			c0.464,0,0.929,0.008,1.394-0.002c3.586-0.073,7.174-0.139,10.76-0.234c0.871-0.023,1.77-0.519,2.564,0.296
			c0.082,0.083,0.623-0.091,0.718-0.269c0.088-0.164-0.146-0.721-0.228-0.718c-0.809,0.021-1.259-0.654-1.878-0.896
			c-0.933-0.363-1.195-1.737-2.438-1.512c-0.026,0.004-0.083-0.1-0.109-0.161c-0.251-0.614-0.693-0.545-1.249-0.455
			c-2.211,0.358-3.559-0.724-3.772-2.921c-0.021-0.216-0.21-0.483-0.399-0.604c-0.705-0.447-1.665-0.678-2.12-1.293
			c-0.857-1.159-2.265-1.25-3.269-2.06c-0.215-0.174-0.584-0.327-0.822-0.264c-0.332,0.089-0.606,0.39-0.906,0.601
			c0.299,0.182,0.578,0.459,0.901,0.529c0.999,0.216,1.996,0.371,2.736,1.194c0.929,1.036,1.252,2.492,2.718,3.196
			c1.486,0.714,2.768,1.853,4.146,2.796c0.503,0.344,1.025,0.661,1.539,0.99c-0.036,0.109-0.071,0.217-0.107,0.326
			c-0.819,0-1.648-0.081-2.457,0.016c-2.367,0.282-3.976-0.783-5.221-2.682c-0.166-0.252-0.824-0.454-1.083-0.328
			c-1.828,0.89-3.671,0.708-5.518,0.182c-0.329-0.093-0.821-0.513-0.804-0.751c0.04-0.588,0.441-0.887,1.144-0.762
			c0.956,0.17,1.932,0.269,2.902,0.295c1.148,0.031,1.461-0.389,1.382-1.317c-0.596-0.324-1.117-0.481-1.452-0.822
			c-0.412-0.42-0.69-0.456-1.209-0.182c-0.729,0.385-1.538,0.62-2.312,0.922c-0.213,0.083-0.437,0.151-0.631,0.268
			c-1.464,0.865-2.899,1.783-4.392,2.593c-0.759,0.413-1.079,0.136-1.265-0.741c-0.05-0.238-0.33-0.476-0.564-0.599
			c-0.079-0.041-0.361,0.261-0.521,0.435c-0.153,0.167-0.227,0.434-0.405,0.545c-0.575,0.361-1.182,0.67-1.919,1.08
			c-0.459-0.342-1.034-0.543-1.111,0.627c-0.007,0.104-0.526,0.308-0.735,0.24c-0.519-0.168-0.784-0.063-0.846,0.479
			c-0.08,0.684-0.306,0.863-0.875,0.33c-0.149-0.139-0.534-0.192-0.699-0.095c-0.141,0.083-0.115,0.439-0.173,0.673
			c-0.08,0.312-0.169,0.622-0.195,0.717c-0.642-0.14-1.018-0.222-1.393-0.304c0.064,0.331,0.098,0.673,0.211,0.986
			c0.036,0.097,0.29,0.162,0.442,0.16c1.021-0.014,2.042-0.068,3.063-0.072c0.395-0.001,0.793,0.08,1.186,0.146
			c0.594,0.102,1.181,0.307,1.776,0.326C63.707,81.016,66.416,81.098,69.125,81.18z M59.188,78.689
			c1.257-0.722,2.515-1.443,3.771-2.164c0.083,0.151,0.166,0.303,0.248,0.455c-1.288,0.666-2.575,1.332-3.863,1.997
			C59.292,78.881,59.24,78.785,59.188,78.689z"/>
	</g>
	<g id="Polkagris1">
		<path fill-rule="evenodd" clip-rule="evenodd" fill="#A1A5B4" d="M57.549,104.592c1.824-1.184,0.228-12.79,0.152-14.873
			c-0.052-1.452,0.912-5.812,0.064-6.641c-1.479-2.384-3.139-5.617-5.975-2.79c2.554,2.169,1.64,8.311,1.588,11.354
			c-0.083,4.867,0.189,9.676,0.202,14.587c0.003,1.345,0.212,12.445-0.094,12.445c0.024,4.543,1.07,0.191,2.532,2.896
			c2.755,0.038,1.835-5.943,1.84-7.583c-0.01,0.035-0.026,0.064-0.048,0.089C57.805,111.992,58.676,106.297,57.549,104.592
			C57.554,104.588,58.639,106.241,57.549,104.592z"/>
		<path fill-rule="evenodd" clip-rule="evenodd" fill="#EBEEF5" d="M54.534,84.201c0.174,11.735,0.994,24.649-0.888,36.384
			c0-12.703,0-22.518,0-32.333C54.018,88.798,54.327,87.755,54.534,84.201z"/>
		<path fill-rule="evenodd" clip-rule="evenodd" fill="#DD473E" d="M56.241,119.625c-0.696-1.196-1.685-0.483-2.521-0.76
			c-0.003-0.711-0.007-1.423-0.011-2.135c2.039-0.099,2.858-2.762,4.325-4.063c0,0,0.048-0.082,0.048-0.083
			c-0.006,1.828-0.013,3.655-0.02,5.482C57.354,118.354,57.078,119.635,56.241,119.625z"/>
		<path fill-rule="evenodd" clip-rule="evenodd" fill="#DD473E" d="M53.79,106.818c1.773-0.554,2.458-3.149,3.977-4.183
			c1.141,1.71-0.145,3.629,0.235,5.405c-1.439,0.993-2.25,3.236-3.879,3.852C54.036,110.198,53.534,108.557,53.79,106.818z"/>
		<path fill-rule="evenodd" clip-rule="evenodd" fill="#DD473E" d="M57.99,81.132c0.073,0.072,0.13,0.158,0.172,0.26
			c0.206,1.493-0.099,2.937-0.223,4.398c-1.184,2.294-2.425,4.507-4.262,5.865c-0.24-1.674,0.179-3.429-0.345-5.082
			c-0.202-0.637,0.489-0.654,0.545-1.167C55.37,84.212,56.174,81.712,57.99,81.132z"/>
		<path fill-rule="evenodd" clip-rule="evenodd" fill="#DD473E" d="M58.161,92.372c-0.042-0.102-0.099-0.188-0.172-0.26
			c-0.125,0.04-0.243,0.09-0.358,0.146c-0.05,0.271-0.111,0.541-0.186,0.81c-1.519,1.033-2.204,3.629-3.977,4.182
			c0-0.096-0.001-0.192-0.001-0.287c-0.134,0.138-0.228,0.3-0.136,0.589c0.524,1.654,0.105,3.409,0.345,5.083
			c1.837-1.358,3.077-3.571,4.262-5.865C58.062,95.309,58.366,93.865,58.161,92.372z"/>
	</g>
	<g id="Polkagris1_1_">
		<path fill-rule="evenodd" clip-rule="evenodd" fill="#A1A5B4" d="M87.826,103.422c1.825-1.184,0.228-12.789,0.152-14.873
			c-0.052-1.451,0.911-5.812,0.064-6.641c-1.479-2.383-3.14-5.616-5.976-2.789c2.554,2.169,1.64,8.31,1.588,11.354
			c-0.083,4.867,0.189,9.676,0.202,14.587c0.004,1.345,0.021,14.565-0.285,14.565c0.024,4.544,1.714,0.706,3.176,3.411
			c2.755,0.038,1.382-8.578,1.387-10.218c-0.01,0.035-0.026,0.064-0.048,0.088C88.081,110.822,88.952,105.127,87.826,103.422
			C87.831,103.419,88.915,105.071,87.826,103.422z"/>
		<path fill-rule="evenodd" clip-rule="evenodd" fill="#EBEEF5" d="M84.811,83.031c0.174,11.736,0.995,26.434-0.888,38.168
			c0-12.703,0-24.302,0-34.117C84.295,87.628,84.604,86.586,84.811,83.031z"/>
		<path fill-rule="evenodd" clip-rule="evenodd" fill="#DD473E" d="M86.518,118.455c-0.696-1.196-1.685-0.483-2.521-0.76
			c-0.003-0.711-0.007-1.423-0.012-2.135c2.04-0.098,2.858-2.762,4.325-4.063c0,0,0.048-0.081,0.048-0.082
			c-0.007,1.827-0.014,3.654-0.021,5.481C87.63,117.184,87.354,118.466,86.518,118.455z"/>
		<path fill-rule="evenodd" clip-rule="evenodd" fill="#DD473E" d="M84.067,105.648c1.773-0.553,2.458-3.149,3.976-4.182
			c1.141,1.71-0.145,3.629,0.236,5.405c-1.439,0.993-2.25,3.236-3.88,3.852C84.312,109.028,83.811,107.387,84.067,105.648z"/>
		<path fill-rule="evenodd" clip-rule="evenodd" fill="#DD473E" d="M88.266,79.963c0.073,0.071,0.131,0.158,0.172,0.26
			c0.206,1.493-0.099,2.937-0.223,4.398c-1.184,2.294-2.425,4.507-4.261,5.865c-0.24-1.674,0.178-3.429-0.346-5.083
			c-0.202-0.635,0.489-0.653,0.545-1.166C85.646,83.042,86.45,80.543,88.266,79.963z"/>
		<path fill-rule="evenodd" clip-rule="evenodd" fill="#DD473E" d="M88.438,91.202c-0.041-0.101-0.099-0.188-0.172-0.259
			c-0.124,0.04-0.242,0.09-0.357,0.146c-0.05,0.271-0.111,0.541-0.187,0.81c-1.519,1.033-2.203,3.629-3.976,4.182
			c0-0.096-0.001-0.191-0.001-0.287c-0.134,0.138-0.228,0.3-0.136,0.589c0.524,1.653,0.105,3.408,0.345,5.083
			c1.837-1.358,3.077-3.571,4.262-5.865C88.338,94.139,88.643,92.695,88.438,91.202z"/>
	</g>
	<g id="TrappFan">
		<path fill-rule="evenodd" clip-rule="evenodd" fill="#473534" d="M65.561,134.981c-0.213,0.107-0.384,0.029-0.539-0.122
			c-0.567,0.001-0.633-0.388-0.6-0.812c0.112-1.478-0.216-2.931-0.232-4.401c-0.302-0.092-0.604-0.184-0.906-0.276
			c-0.677-0.114-0.831-0.578-0.822-1.182c0.021-1.513,0.022-3.026,0.032-4.538c-0.246-0.399-0.523-0.75-1.059-0.726l0,0
			c-0.195-0.14-0.39-0.279-0.586-0.418c-0.665,0.172-1.279-0.188-1.935-0.184c-0.178,0.001-0.302-0.059-0.388-0.155l-3.689-1.472
			c0.019,0.991,0.033,1.981,0.047,2.973c0.032,2.053,0.586,8.017,0.387,10.094c1.963,1.084,6.136,2.52,6.799,3.019
			c1.763,1.328,4.206,2.338,6.077,3.526c0.015-1.203-0.171-3.468-0.156-4.671C67.217,135.285,66.382,135.16,65.561,134.981z"/>
		<path fill-rule="evenodd" clip-rule="evenodd" fill="#E6B08E" d="M54.837,120.663l29.148-0.696c0,0,0.852-0.078,1.316,0.348
			s7.931,2.025,7.141,2.503c-0.791,0.478-29.473,1.675-29.949,1.112c-0.476-0.563-6.962-2.678-6.882-2.646
			C55.692,121.316,54.837,120.663,54.837,120.663z"/>
		<path fill-rule="evenodd" clip-rule="evenodd" fill="#957080" d="M92.661,124.628c-0.077-1.129-0.113-1.569-0.487-1.729
			c-0.005,0.004-0.006,0.008-0.013,0.012c-0.092,0.056-0.57,0.122-1.336,0.193c-0.168,0.181-0.427,0.197-0.708,0.187
			c-0.445-0.015-0.891-0.022-1.335-0.027c-3.321,0.228-8.59,0.482-13.566,0.663c-0.013,0.008-0.027,0.014-0.041,0.022
			c-0.344,0.069-0.729,0.326-0.991,0.015c-5.525,0.191-10.479,0.281-11.691,0.13c-0.008,1.456-0.011,2.912-0.031,4.368
			c-0.008,0.604,0.145,1.067,0.822,1.183c0.096-0.311,0.287-0.482,0.631-0.479c3.978,0.035,19.925-0.847,20.68-0.777
			c1.802-0.035,7.235-0.289,7.819-0.29C92.897,126.971,92.485,125.778,92.661,124.628z"/>
		<path fill-rule="evenodd" clip-rule="evenodd" fill="#E6B08E" d="M64.19,129.646c-0.716-0.092-0.188-0.184-0.906-0.276
			c0.226-0.311,0.679-0.481,1.495-0.479c9.436,0.035,18.184-1,27.634-0.792c-0.014,0.277,2.005,0.664,1.991,0.941
			C85.238,129.535,71.304,129.595,64.19,129.646z"/>
		<path fill-rule="evenodd" clip-rule="evenodd" fill="#957080" d="M94.855,130.855c-0.077-1.129-0.076-1.654-0.451-1.814
			c-0.005,0.004-3.431,0.13-3.876,0.125c-4.312-0.082-14.358,0.588-14.62,0.276c-5.525,0.191-10.505,0.354-11.718,0.203
			c-0.009,1.456,0.111,2.903,0.091,4.36c-0.008,0.604,0.544,0.886,1.221,1c0.095-0.311,1.478-0.318,1.823-0.315
			c3.978,0.035,6.343-0.588,10.327-0.379c0.79-0.007,1.58-0.014,2.371-0.021c0.938-0.43,1.918-0.206,2.886-0.184
			c0.421-0.011,0.842-0.021,1.263-0.033c0.724-0.415,1.488-0.212,2.243-0.143c1.802-0.035,3.604-0.071,5.406-0.107
			c0.116-0.446,0.335-0.513,0.663-0.181c0.583,0,1.167-0.001,1.75-0.002C94.717,132.514,94.679,132.006,94.855,130.855z"/>
		<path fill-rule="evenodd" clip-rule="evenodd" fill="#E6B08E" d="M67.991,135.634c-0.716-0.092-2.02-0.484-2.737-0.576
			c0.225-0.311,0.678-0.481,1.495-0.478c9.436,0.035,18.185-1,27.634-0.792c-0.014,0.278,2.005,0.664,1.992,0.941
			C87.208,135.223,75.105,135.584,67.991,135.634z"/>
		<path fill-rule="evenodd" clip-rule="evenodd" fill="#957080" d="M96.83,137.459c-0.076-1.129-0.081-2.569-0.455-2.73
			c-1.832-0.276-7.926,0.39-8.372,0.386c-4.312-0.083-8.032,0.604-8.294,0.292c-5.525,0.191-10.505,0.354-11.718,0.203
			c-0.009,1.456,0.111,2.904,0.091,4.36c-0.008,0.604,0.543,0.886,1.221,1.001c0.095-0.311,1.478-0.319,1.823-0.316
			c3.978,0.035,6.342-0.587,10.327-0.378c0.79-0.007,1.58-0.014,2.37-0.021c0.938-0.43,1.918-0.206,2.886-0.184
			c0.421-0.011,0.842-0.021,1.263-0.033c0.724-0.415,1.487-0.212,2.243-0.143c1.802-0.035,5.484-0.287,6.068-0.287
			C96.768,138.481,96.654,138.61,96.83,137.459z"/>
	</g>
	<polygon id="Dorr" fill-rule="evenodd" clip-rule="evenodd" fill="#370409" points="83.922,121.2 58.035,121.2 58.035,80.454 
		83.571,79.86 	"/>
	<g id="Julejus">
		<path fill-rule="evenodd" clip-rule="evenodd" fill="#957080" d="M79.046,63.681c-0.745,0.051-1.246-0.202-1.4-0.829
			c-0.152-0.615,0.088-1.104,0.842-1.295c0.727-0.184,1.276,0.035,1.462,0.668C80.153,62.908,79.787,63.393,79.046,63.681z"/>
		<path fill-rule="evenodd" clip-rule="evenodd" fill="#E6B08E" d="M73.315,59.705c0.009,0.628-0.43,0.988-1.023,1.057
			c-0.733,0.084-1.412-0.132-1.48-0.89c-0.055-0.616,0.454-0.887,1.083-0.937C72.589,58.878,73.115,59.106,73.315,59.705z"/>
		<path fill-rule="evenodd" clip-rule="evenodd" fill="#BD9CA3" d="M83.495,63.426c-0.061,0.58-0.471,0.92-1.107,0.961
			c-0.597,0.039-1.192-0.104-1.254-0.733c-0.066-0.678,0.43-1.046,1.156-1.09C82.94,62.524,83.317,62.888,83.495,63.426z"/>
		<path fill-rule="evenodd" clip-rule="evenodd" fill="#E6B08E" d="M86.055,64.72c-0.155-0.237-0.416-0.277-0.705-0.264
			c-0.534-1.053-0.381-1.829,1.168-2.039c0.252,0.188,0.504,0.376,0.756,0.563C87.473,63.866,87.09,64.459,86.055,64.72z"/>
		<path fill-rule="evenodd" clip-rule="evenodd" fill="#E6B08E" d="M41.43,59.739c-0.037-1.35,0.541-1.9,2.058-1.224
			c0.056,0.529,0.265,1.09-0.401,1.491C42.413,60.411,41.908,60.112,41.43,59.739z"/>
		<path fill-rule="evenodd" clip-rule="evenodd" fill="#BD9CA3" d="M67.097,56.069c0.11,0.641-0.142,0.994-0.748,1.085
			c-0.753,0.114-1.229-0.192-1.341-0.832c-0.096-0.547,0.294-0.829,0.876-0.89C66.543,55.362,66.964,55.625,67.097,56.069z"/>
		<path fill-rule="evenodd" clip-rule="evenodd" fill="#BD9CA3" d="M68.925,59.33c-0.615,0.002-1.1-0.263-1.213-0.767
			c-0.116-0.515,0.18-1.003,0.866-1.051c0.62-0.043,1.058,0.283,1.148,0.828C69.81,58.836,69.473,59.15,68.925,59.33z"/>
		<path fill-rule="evenodd" clip-rule="evenodd" fill="#BD9CA3" d="M46.031,56.252c0.71,1.136,0.656,1.929-1.202,1.911
			c-0.046-0.075-0.112-0.134-0.199-0.176c-0.152-0.557-0.061-1.093,0.266-1.607C45.275,56.337,45.653,56.294,46.031,56.252z"/>
		<path fill-rule="evenodd" clip-rule="evenodd" fill="#957080" d="M76.283,61.238c0.083,0.578-0.187,0.947-0.872,1.053
			c-0.644,0.1-1.129-0.075-1.245-0.66c-0.113-0.574,0.225-0.938,0.89-1.048C75.693,60.477,76.167,60.623,76.283,61.238z"/>
		<path fill-rule="evenodd" clip-rule="evenodd" fill="#E6B08E" d="M30.791,67.561c-0.369,0.082-0.737,0.164-1.105,0.247
			c-0.183-0.105-0.366-0.21-0.549-0.316c0.146-0.434,0.292-0.867,0.438-1.301c0.436-0.054,0.873-0.106,1.31-0.16
			C31.205,66.544,31.186,67.054,30.791,67.561z"/>
		<path fill-rule="evenodd" clip-rule="evenodd" fill="#E6B08E" d="M36.904,64.072c-0.515-0.039-1.029-0.078-1.543-0.117
			c-0.089-0.23-0.177-0.46-0.266-0.691c0.314-0.146,0.438-0.383,0.445-0.675c0.513-0.224,1.047-0.307,1.605-0.248
			c0.128,0.359,0.257,0.717,0.386,1.075C37.323,63.636,37.113,63.854,36.904,64.072z"/>
		<path fill-rule="evenodd" clip-rule="evenodd" fill="#F8E7C7" d="M39.706,61.852c-0.842,0.04-0.868-0.456-0.838-0.986
			C40.094,60.575,40.344,60.923,39.706,61.852z"/>
		<path fill-rule="evenodd" clip-rule="evenodd" fill="#D1D4DF" d="M61.725,53.528c-0.58,0.104-1.159,0.208-1.738,0.312
			c-0.247-0.646-1.243-1.015-0.862-1.893c0.759-0.407,1.534-0.533,2.333-0.173C61.545,52.358,61.635,52.943,61.725,53.528z"/>
		<path fill-rule="evenodd" clip-rule="evenodd" fill="#E6B08E" d="M58.191,51.418c-0.514,0.105-1.029,0.21-1.542,0.316
			c-0.657-0.705-0.922-1.41,0.104-2.112c0.57,0.002,0.982,0.208,1.197,0.67C58.095,50.656,58.411,50.985,58.191,51.418z"/>
		<path fill-rule="evenodd" clip-rule="evenodd" fill="#BD9CA3" d="M52.725,52.612c-1.249,1.822-1.481,1.851-2.682,0.336
			C50.899,51.458,51.458,51.388,52.725,52.612z"/>
		<path fill-rule="evenodd" clip-rule="evenodd" fill="#E6B08E" d="M52.909,50.895c0.043-0.275,0.087-0.551,0.131-0.826
			c0.631-0.275,1.292-0.607,1.815,0.051c0.28,0.354,0.091,0.771-0.234,1.035C53.928,51.716,53.376,51.408,52.909,50.895z"/>
		<path fill-rule="evenodd" clip-rule="evenodd" fill="#F8E7C7" d="M49.594,55.027c-0.774,0.927-1.663,0.965-2.637,0.346
			c-0.107-0.658,0.067-1.192,0.914-1.394C48.938,53.725,49.292,54.349,49.594,55.027z"/>
		<path fill-rule="evenodd" clip-rule="evenodd" fill="#E6B08E" d="M34.538,65.696c-1.083,0.764-1.974,1.094-1.971-0.598
			C33.521,64.626,34.31,64.524,34.538,65.696z"/>
	</g>
</g>
<g id="Julgran">
	<path fill="#2F3E1B" d="M119.088,113.049c-0.488,0.144-0.845,0.292-1.131,0.442c-0.01-0.247-0.026-0.493-0.046-0.739
		c0.049,0.019,0.097,0.036,0.143,0.052c1.621,0.579,1.939-1.417,7.083,0.008c0-2.294-7.408-5.005-7.408-7.299
		c-0.668-0.786,0.413-1.472,0.129-2.235c-0.002-0.005-0.004-0.01-0.005-0.014c1.011,0.22,1.996,0.466,3.166,0.624
		c-0.047-0.41-0.094-0.821-0.14-1.231c-0.349-0.325-1.582-1.385-2.8-2.431c-0.11-0.343-0.292-0.719-0.365-1.188
		c-0.443-0.09-0.886-0.18-1.33-0.271c-0.456-0.395-0.813-0.708-0.975-0.859c-0.002,0-0.003,0.001-0.005,0.001
		c-0.592-0.925-1.421-1.657-2.196-2.434c0.21-0.009,0.421-0.019,0.631-0.027c0.857-0.591,1.715-1.183,2.573-1.774
		c0.248-1.178-0.395-1.826-1.357-2.284c-0.306-0.627-0.998-1.054-0.965-1.857c0.749-1.511-0.393-1.659-1.381-1.916
		c0.021-0.423-0.309-0.555-0.464-0.832c-0.39-0.056-0.738-0.205-1.06-0.401c0.605-0.472,1.177-1.089,1.699-1.913
		c-0.612-1.351-1.225-2.701-1.972-4.348c1.313-0.071,1.781,1.716,2.826,1.071c-0.621-2.05-1.212-4.003-1.804-5.957
		c0.607-0.285,0.995-0.766,1.206-1.402c-1.43,0.153-1.617-1.928-3.082-1.715c-0.345-1.113-0.691-2.225-1.037-3.337
		c-0.488-1.262-0.912-2.554-1.482-3.777c-0.47-1.008-0.374-3.004-1.495-2.857c0.72,6.468,1.58,13.587,1.58,13.587l-1.096,7.574
		l1.503,4.553l-1.299,6.665l-1.299,9.502l3.222,5.031l-3.912,7.354v3.687c0.889,0.193,1.782,0.36,2.699,0.314
		c2.088-0.105,4.309,1.155,6.213-0.67c1.374,1.561,3.106,0.138,4.618,0.555l0.219-0.03l0.211,0.067
		c0.002-0.357,0.004-0.714,0.006-1.072c2.462,1.34,6.243,3.573,7.618,3.548C126.327,120.517,119.088,115.343,119.088,113.049z"/>
	<path fill="#3F5C1B" d="M108.654,109.059l-3.222-5.031l1.299-9.502l1.299-6.665l-1.503-4.553l1.096-7.574
		c0,0-0.86-7.119-1.58-13.587c-0.018,0.002-0.035,0-0.054,0.004c-1.499,0.281-1.041,2.212-1.058,3.535
		c-0.002,0.151,0.008,0.301,0.012,0.452c-0.762,2.892-1.526,5.783-2.288,8.673c-0.282,0.906-1.065,1.64-0.92,2.69
		c0.494-0.005,0.987-0.009,1.479-0.014c0.023,0.006,0.044,0.013,0.066,0.02l-1.9,2.277c0.527,0.091,0.958,0.041,1.325-0.268
		c0.144-0.122,0.301-0.248,0.459-0.374c0.266,1.218-1.32,1.854-1.038,3.077c-0.716,1.234-2.581,2.117-1.213,3.984
		c-0.458,1.313-0.917,2.626-1.395,3.99c1.333,0.237,1.416-1.396,2.5-1.356c0.42,0.851-0.545,1.549-0.268,2.375
		c-1.793,0.804-2.514,2.073-1.731,3.994c-0.819,1.608-1.638,3.218-2.728,5.361c1.904-1.13,2.575-2.646,4.347-3.475
		c-0.756,2-1.478,3.675-2.407,5.226c-2.335,2-7.036,4.354-7.524,6.077c0.81,0.249,2.924-0.287,4.958-0.87c0,0.108,0,0.217,0,0.325
		c0,0.726,0,1.451,0,2.177c-0.097-0.052-0.208-0.099-0.338-0.138c0,2.295-7.408,5.005-7.408,7.299
		c5.144-1.424,5.461,0.571,7.083-0.007c0.204-0.073,0.436-0.163,0.664-0.23c0,0.178,0,0.356,0,0.535
		c1.285,0.674,2.666,1.19,3.722,2.245c1.495-0.326,2.919,0.058,4.354,0.37v-3.687L108.654,109.059z"/>
	<path fill-rule="evenodd" clip-rule="evenodd" fill="#BBCFEF" d="M98.905,102.039c-0.244,1.976,0.418,2.599,2.466,2.023
		c1.847-0.519,3.704-1.205,6.164-1.246c-3.301,3.163-6.59,4.999-10.893,4.26c-4.703-1.061,0-1.836,0-2.753
		C97.723,103.886,98.08,102.73,98.905,102.039z"/>
	<path fill-rule="evenodd" clip-rule="evenodd" fill="#BBCFEF" d="M101.728,90.437c1.445,0.215,2.843,0.004,4.211-0.412
		c0.032-0.672-0.901-0.13-0.867-0.788c2.76-0.091,5.487-0.299,7.611-2.396c0.988,0.257,2.13,0.405,1.382,1.916
		c-3.082,0.658-5.676,2.296-8.243,4.023c-1.742,1.172-3.5,2.463-5.827,1.65C99.214,92.51,99.936,91.241,101.728,90.437z"/>
	<path fill-rule="evenodd" clip-rule="evenodd" fill="#BBCFEF" d="M108.997,68.007c-2.256,0.501-2.782-1.663-4.077-2.643
		c-0.003-0.151-0.014-0.301-0.011-0.453c0.016-1.322-0.441-3.253,1.057-3.534c1.181-0.222,1.071,1.829,1.548,2.854
		C108.085,65.454,108.509,66.746,108.997,68.007z"/>
	<path fill-rule="evenodd" clip-rule="evenodd" fill="#BBCFEF" d="M111.84,74.496c-2.948-0.019-5.321-1.076-7.124-4.061
		c1.609,0.613,2.828,1.101,4.063,1.539c0.587,0.208,1.244,0.392,1.253-0.628c1.464-0.213,1.651,1.868,3.082,1.714
		C112.896,73.721,112.488,74.216,111.84,74.496z"/>
	<path fill-rule="evenodd" clip-rule="evenodd" fill="#BBCFEF" d="M102.632,74.037c1.06,0.169,1.933-0.876,3.272-0.442
		c-0.964,1.108-1.838,2.113-2.712,3.118c-0.493,0.005-0.987,0.01-1.48,0.015C101.567,75.676,102.351,74.942,102.632,74.037z"/>
	<path fill-rule="evenodd" clip-rule="evenodd" fill="#BBCFEF" d="M117.699,102.066c-4.251,0.205-8.396-0.014-12.021-3.056
		c1.082-0.417,1.969,0.112,2.872,0.201c0.911,0.089,1.833,0.139,2.727,0.322c1.244,0.257,2.428-0.011,3.632-0.214
		c0.894-0.149,1.169-0.609,0.872-1.445c0.636,0.129,1.271,0.258,1.907,0.388c0.174,1.113,0.348,2.228,0.521,3.341
		C118.04,101.758,117.87,101.912,117.699,102.066z"/>
	<path fill-rule="evenodd" clip-rule="evenodd" fill="#BBCFEF" d="M115.03,90.614c0.963,0.458,1.605,1.107,1.357,2.285
		c-0.857,0.591-1.715,1.182-2.573,1.773c-0.21,0.009-0.42,0.019-0.63,0.027c-1.87-0.011-3.55-0.457-4.983-2.091
		C110.64,91.946,113.569,93.661,115.03,90.614z"/>
	<path fill-rule="evenodd" clip-rule="evenodd" fill="#BBCFEF" d="M119.122,112.902c-2.303,1.936-5.383,1.267-8.521,2.274
		c1.007,0.297,1.45,0.428,2.204,0.65c-0.902,0.353-1.787,0.649-2.664,0.884c-2.034,0-3.499,0-4.963,0
		c0.381,0.251,0.763,0.463,1.156,0.618c-1.273,0.062-2.549-0.03-3.853-0.294c-1.457-0.295-2.411-0.718-1.423-3.006
		c-1.338,1.101-2.148,1.768-2.958,2.434c-2.657,0.826-3.548,2.374,0,4.129c2.345,0.632,4.644,1.068,7.152,0.66
		c4.845-0.788,11.37-2.347,15.781-4.541C121.003,115.302,119.15,114.311,119.122,112.902z"/>
	<path fill-rule="evenodd" clip-rule="evenodd" fill="#BBCFEF" d="M108.793,82.488c-0.273-0.125-0.524-0.299-0.74-0.528
		c-0.347-0.077-0.821-0.14-1.456-0.187h-0.001c-1.484,0.646-2.97,1.267-4.494-0.329c-0.715,1.234-2.581,2.117-1.213,3.985
		c0.521-0.11,1.038-0.237,1.562-0.326c1.01-0.171,1.956-0.662,2.881-1.093l0,0h0.001c0.708-0.33,1.405-0.625,2.109-0.713
		C108.142,83.021,108.68,82.739,108.793,82.488z"/>
</g>
<g id="Palette">
	<rect x="437.051" y="42.469" fill-rule="evenodd" clip-rule="evenodd" fill="#C80107" width="3.225" height="3.672"/>
	<rect x="437.051" y="46.141" fill-rule="evenodd" clip-rule="evenodd" fill="#70070A" width="3.225" height="3.672"/>
	<rect x="437.051" y="49.833" fill-rule="evenodd" clip-rule="evenodd" fill="#370409" width="3.225" height="3.672"/>
	<rect x="437.051" y="53.504" fill-rule="evenodd" clip-rule="evenodd" fill="#EBEEF5" width="3.225" height="3.672"/>
	<rect x="437.051" y="57.227" fill-rule="evenodd" clip-rule="evenodd" fill="#BBCFEF" width="3.225" height="3.671"/>
	<rect x="437.051" y="60.898" fill-rule="evenodd" clip-rule="evenodd" fill="#7E9BB6" width="3.225" height="3.672"/>
	<rect x="437.051" y="64.35" fill-rule="evenodd" clip-rule="evenodd" fill="#525A85" width="3.225" height="3.672"/>
	<rect x="437.051" y="68.022" fill-rule="evenodd" clip-rule="evenodd" fill="#02335C" width="3.225" height="3.672"/>
	<rect x="437.051" y="71.77" fill-rule="evenodd" clip-rule="evenodd" fill="#70070A" width="3.225" height="3.671"/>
	<rect x="437.051" y="75.441" fill-rule="evenodd" clip-rule="evenodd" fill="#70070A" width="3.225" height="3.672"/>
</g>
<g id="Snogubb">
	<path fill-rule="evenodd" clip-rule="evenodd" fill="#EBEEF5" d="M0.802,138.535c2.877-4.823,7.146-5.401,12.076-3.958
		c0.712,1.287,1.668,2.497,2.092,3.87c1.034,3.359-0.391,5.489-4.64,7.406c-3.031,0.565-5.631-0.541-8.115-2.095
		C1.389,142.112,0.274,140.546,0.802,138.535z"/>
	<path fill-rule="evenodd" clip-rule="evenodd" fill="#7E9BB6" d="M36.746,143.022c4.595,4.689,10.006,4.724,15.766,2.763
		c-1.972,3.097-5.329,2.263-8.137,2.675c-3.916,0.576-7.855-0.248-11.776-0.604c-1.78-1.113-1.784-2.277-0.001-3.34
		C33.869,143.757,35.213,143.102,36.746,143.022z"/>
	<path fill-rule="evenodd" clip-rule="evenodd" fill="#7E9BB6" d="M2.215,143.757c2.484,1.554,5.083,2.661,8.115,2.095
		c-2.677,1.655-5.569,1.173-8.276,0.41C-0.121,145.647,1.153,144.547,2.215,143.757z"/>
	<path fill-rule="evenodd" clip-rule="evenodd" fill="#BBCFEF" d="M55.643,140.571c-0.929,1.379-1.857,2.758-2.786,4.137
		c-0.244,0.226-0.487,0.451-0.731,0.676l0.021-0.045c-5.761,1.962-11.171,1.927-15.766-2.762c-0.587-1.652-1.717-3.182-0.949-5.112
		c0.449-1.13,2.755-3.329,2.25-7.649c-0.148-1.275,0.143-2.495,0.674-3.657c0.966-0.759,1.927-1.524,2.898-2.276
		c0.546-0.423,0.997-0.706,0.475-1.598c-1.926-3.287-0.306-4.995,2.836-5.918c4.837,0.925,5.209,1.612,3.728,6.494
		c-0.172,0.567,0.556,0.549,0.972,0.639c2.641,2.007,4.208,4.192,2.593,7.809c-0.979,2.189,1.927,2.938,2.643,4.596
		C55.019,137.425,54.529,139.194,55.643,140.571z"/>
	<g>
		<path fill-rule="evenodd" clip-rule="evenodd" fill="#EBEEF5" d="M51.108,125.622c-0.109,0.361,0.145,0.484,0.451,0.55
			c-0.127-0.216-0.27-0.426-0.427-0.631C51.124,125.568,51.116,125.594,51.108,125.622z"/>
		<path fill-rule="evenodd" clip-rule="evenodd" fill="#EBEEF5" d="M39.941,136.691c5.941-0.413,6.013,0.158,0.556-4.113
			c-1.011-0.791,0.143-2.495,0.674-3.657c0.966-0.759,1.927-1.524,2.897-2.276c0.546-0.423,0.998-0.706,0.475-1.598
			c-1.926-3.287-0.307-4.995,2.836-5.918c0.515,0.099,0.976,0.194,1.393,0.293c0.067-1.887-1.14-2.416-4.492-3.056
			c-3.142,0.923-4.762,2.631-2.836,5.918c0.522,0.892,0.071,1.175-0.475,1.598c-0.971,0.751-1.932,1.517-2.898,2.276
			c-0.531,1.163-0.823,2.382-0.674,3.657c0.506,4.32-1.799,6.519-2.25,7.649c-0.768,1.93,0.362,3.46,0.949,5.112
			c0.942,0.962,1.919,1.725,2.927,2.318C38.419,143.407,38.057,136.822,39.941,136.691z"/>
	</g>
</g>
<g id="Kransen">
	<path fill-rule="evenodd" clip-rule="evenodd" fill="#230509" d="M62.861,89.941c2.286,0.002,4.474-0.091,6.751-0.312
		c0.041-1.363-5.92-4.311-7.398-4.144C61.301,87.299,59.466,89.941,62.861,89.941C63.935,89.943,60.705,89.941,62.861,89.941z"/>
	<path fill-rule="evenodd" clip-rule="evenodd" fill="#230509" d="M73.084,89.361c0.648-0.081,2.601-0.147,3.346-0.047
		c3.199,0.429,1-1.311,1.929-1.914c1.076-0.697,0.961-2.567-1.323-2.488C76.716,85.573,70.44,89.688,73.084,89.361
		C73.515,89.307,71.972,89.499,73.084,89.361z"/>
	<path fill-rule="evenodd" clip-rule="evenodd" fill="#70070A" d="M64.772,88.721c-1.074-0.011-2.147-0.03-3.22-0.031
		c-2.157,0-2.157,0.004-1.825-2.08c0.103-0.486,0.206-0.973,0.308-1.46c0.56-0.049,0.672-0.523,0.87-0.916
		c1.421-0.16,2.301,0.974,3.446,1.468c1.107,0.478,2.096,1.223,3.283,1.535c0.62,0.163,0.684,0.623,0.668,1.141
		C67.126,88.492,65.949,88.606,64.772,88.721z"/>
	<path fill-rule="evenodd" clip-rule="evenodd" fill="#70070A" d="M75.727,83.661c0.31-0.011,0.619-0.022,0.927-0.033
		c0.913,0.511,1.101,1.452,1.383,2.337c-0.095,0.108-0.19,0.217-0.285,0.325c-0.264,0.004-1.036-0.502-0.616,0.273
		c0.914,1.684-0.159,1.449-1.19,1.558c-0.781,0.082-1.761-0.519-2.326,0.535c-0.28,0-0.56,0-0.84,0
		c-0.109-0.593-0.573-0.601-1.004-0.547c-1.113,0.138-1.057-0.439-0.771-1.187c0.425,0.028,0.798-0.12,1.151-0.338
		c0.846-0.123,1.292-0.662,1.508-1.445C74.46,84.799,75.307,84.528,75.727,83.661z"/>
	<path fill-rule="evenodd" clip-rule="evenodd" fill="#230509" d="M82.955,98.733c0.007-0.191-0.124-0.388-0.19-0.582
		c-0.441-0.046-2.964-3.791-1.866-4.169c-0.167-0.561-0.489-0.996-1.031-1.248c-1.228,0.158-3.896-2.255-5.028-2.715
		c-0.812-0.004-2.187,0.413-2.689-0.412h0c-1.156,0.278-2.331,0.43-3.524,0.456c-1.158,2.073-4.046,2.823-5.033,1.154
		c-0.451,1.366,0.355,3.004-1.21,3.811c0.175,0.877,0.607,5.453-1.046,5.61c-1.381,1.4,0.974,2.765,1.214,4.168
		c0.313,0.186-0.537,2.49-0.597,2.703c0.126,0.286,0.066,0.429-0.182,0.428c-0.026,0.078-0.053,0.157-0.08,0.236
		c0.065,0.042,0.131,0.085,0.196,0.127c0.685,0.233,3.262,0.604,1.848,1.524c0.183,0.261,0.482,0.386,0.794,0.386
		c0.633,0.02,1.286-0.236,1.426,0.489c-0.002-0.001-0.005-0.002-0.007-0.003c0.09,0.473,0.469,0.709,0.91,0.802
		c0.001,0,0.001-0.001,0.002-0.002c3.295,0.696-0.479,1.101,0.92,2.46c1.614-1.403,9.858-3.707,11.24-2.484
		c0.071-0.072,0.144-0.143,0.216-0.215c0.16-0.549-0.763-1.22,0.189-1.68c-0.036-0.842,2.612-5.966,3.169-4.715
		C83.169,104.657,82.931,99.364,82.955,98.733C82.961,98.542,82.883,100.667,82.955,98.733z M70.905,106.061
		c-1.449-0.679-3.624-2.601-3.337-4.574c-0.573-0.438,0.832-4.487,1.884-4.576c0.485-0.003,0.97-0.006,1.455-0.008
		c0.311-0.113,0.622-0.226,1.163-0.422c-0.76-0.203-1.314-0.352-1.865-0.5c-0.069-0.422,0.434-0.277,0.496-0.545
		c0.283-1.271,0.682-1.349,1.197-0.233c1.887,0.65,1.994,1.788,2.575,3.301c-0.001,0-0.002,0-0.003,0.001
		c0.375,0.874,0.468-1.083,0.897-1.06c0.865,0.043,2.722,4.25,1.562,4.869c-0.068,0.07-0.136,0.14-0.203,0.209
		c0.048,0.664-0.727,0.955-0.781,1.572c-0.069,0.032-0.133,0.064-0.194,0.097c-0.697-0.111-2.38-0.013-2.446,0.767
		c0.373,0.302,0.788,0.535,1.245,0.699C74.573,106.303,71.019,107.476,70.905,106.061C69.858,105.571,70.937,106.459,70.905,106.061
		z"/>
	<path fill-rule="evenodd" clip-rule="evenodd" fill="#2F3E1B" d="M81.285,97.586c0.007-0.191-0.124-0.388-0.19-0.582
		c-0.441-0.046-2.964-3.791-1.866-4.169c-0.167-0.561-0.489-0.996-1.031-1.248c-1.228,0.158-3.896-2.255-5.028-2.715
		c-0.812-0.004-2.187,0.413-2.689-0.412h0c-1.156,0.278-2.331,0.43-3.524,0.456c-1.158,2.073-4.046,2.823-5.033,1.154
		c-0.451,1.366,0.355,3.004-1.21,3.811c0.175,0.877,0.607,5.453-1.046,5.61c-1.381,1.4,0.974,2.765,1.214,4.168
		c0.313,0.186-0.537,2.49-0.597,2.703c0.126,0.286,0.066,0.429-0.182,0.428c-0.026,0.078-0.053,0.157-0.08,0.236
		c0.065,0.042,0.131,0.085,0.196,0.127c0.685,0.233,3.262,0.604,1.848,1.524c0.183,0.261,0.482,0.386,0.794,0.386
		c0.633,0.02,1.286-0.236,1.426,0.489c-0.002-0.001-0.005-0.002-0.007-0.003c0.09,0.473,0.469,0.709,0.91,0.802
		c0.001,0,0.001-0.001,0.002-0.002c3.295,0.696-0.479,1.101,0.92,2.46c1.614-1.403,9.858-3.707,11.24-2.484
		c0.071-0.072,0.144-0.143,0.216-0.215c0.16-0.549-0.763-1.22,0.189-1.68c-0.036-0.842,2.612-5.966,3.169-4.715
		C81.499,103.51,81.261,98.217,81.285,97.586C81.292,97.396,81.213,99.521,81.285,97.586z M69.235,104.915
		c-1.449-0.679-3.624-2.601-3.337-4.574c-0.573-0.438,0.832-4.487,1.884-4.576c0.485-0.003,0.97-0.006,1.455-0.008
		c0.311-0.113,0.622-0.226,1.163-0.422c-0.76-0.203-1.314-0.352-1.865-0.5c-0.069-0.422,0.434-0.277,0.496-0.545
		c0.283-1.271,0.682-1.349,1.197-0.233c1.887,0.65,1.994,1.788,2.575,3.301c-0.001,0-0.002,0-0.003,0.001
		c0.375,0.874,0.468-1.083,0.897-1.06c0.865,0.043,2.722,4.25,1.562,4.869c-0.068,0.07-0.136,0.14-0.203,0.209
		c0.048,0.664-0.727,0.955-0.781,1.572c-0.069,0.032-0.133,0.064-0.194,0.097c-0.697-0.111-2.38-0.013-2.446,0.767
		c0.373,0.302,0.788,0.535,1.245,0.699C72.903,105.156,69.349,106.33,69.235,104.915C68.188,104.424,69.267,105.313,69.235,104.915z
		"/>
	<path fill="#3F5C1B" d="M77.922,103.479c1.159-0.619-0.697-4.826-1.562-4.869c-0.428-0.023-0.522,1.911-0.892,1.071
		c0.159,0.759,0.126,1.414-0.278,1.63c-0.068,0.07-0.136,0.14-0.203,0.209c0.048,0.664-0.727,0.955-0.781,1.572
		c-0.069,0.032-0.133,0.064-0.194,0.097c-0.697-0.111-2.38-0.013-2.446,0.767c0.373,0.302,0.788,0.535,1.245,0.699
		c0.017,0.48-1.943,1.25-2.997,1.032c0.651,0.689,1.438,1.238,2.083,1.54c0.114,1.415,3.668,0.242,3.646-0.404
		c-0.457-0.164-0.872-0.396-1.245-0.699c0.065-0.78,1.749-0.878,2.446-0.767c0.061-0.033,0.125-0.065,0.194-0.097
		c0.054-0.617,0.829-0.908,0.781-1.572C77.787,103.619,77.854,103.548,77.922,103.479z"/>
	<path fill="#3F5C1B" d="M61.804,108.815c0.171,0.245,0.447,0.359,0.737,0.374c0.011-0.031,0.021-0.062,0.032-0.093
		c0.248,0.001,0.308-0.142,0.182-0.428c0.06-0.213,0.91-2.517,0.597-2.703c-0.24-1.403-2.595-2.768-1.214-4.168
		c1.653-0.157,1.222-4.733,1.046-5.61c1.565-0.807,0.759-2.445,1.21-3.811c0.987,1.669,3.875,0.919,5.033-1.154
		c1.194-0.026,2.369-0.178,3.524-0.456h0c0.502,0.824,1.878,0.408,2.689,0.412c0.691,0.281,1.956,1.289,3.115,1.996
		c0.044-0.091,0.106-0.166,0.211-0.202c-0.167-0.561-0.489-0.996-1.031-1.248c-1.228,0.158-3.896-2.255-5.028-2.715
		c-0.812-0.004-2.187,0.413-2.689-0.412h0c-1.156,0.278-2.331,0.43-3.524,0.456c-1.158,2.073-4.046,2.823-5.033,1.154
		c-0.451,1.366,0.355,3.004-1.21,3.811c0.175,0.877,0.607,5.453-1.046,5.61c-1.381,1.4,0.974,2.765,1.214,4.168
		c0.313,0.186-0.537,2.49-0.597,2.703c0.126,0.286,0.066,0.429-0.182,0.428c-0.026,0.078-0.053,0.157-0.08,0.236
		c0.065,0.042,0.131,0.085,0.196,0.127C60.641,107.523,63.218,107.895,61.804,108.815z"/>
	<g id="Kranslampor_1_">
		<path fill-rule="evenodd" clip-rule="evenodd" fill="#EA7D56" d="M74.917,102.388c0.538,0,1.125-0.171,1.471,0.461
			c0.191,0.349,0.115,0.66-0.087,0.97c-0.43,0.659-0.963,0.571-1.512,0.192c-0.542-0.377-0.595-0.81-0.092-1.28
			c0.094-0.089,0.143-0.229,0.213-0.344C74.911,102.387,74.917,102.388,74.917,102.388z"/>
		<path fill-rule="evenodd" clip-rule="evenodd" fill="#EA7D56" d="M73.356,89.94c0.518,0.146,1.022,0.39,1.015,0.991
			c-0.005,0.531-0.412,0.908-0.954,0.889c-0.633-0.023-1.019-0.445-0.998-1.083C72.437,90.204,72.857,90.005,73.356,89.94z"/>
		<path fill-rule="evenodd" clip-rule="evenodd" fill="#EA7D56" d="M73.554,108.739c-0.019,0.287-0.326,0.722-0.885,0.776
			c-0.517,0.051-0.981-0.33-0.972-0.841c0.011-0.519,0.383-0.987,0.984-0.996C73.134,107.671,73.581,107.827,73.554,108.739z"/>
		<path fill-rule="evenodd" clip-rule="evenodd" fill="#EA7D56" d="M66.426,102.828c-0.08,0.576-0.367,0.964-0.994,0.937
			c-0.451-0.02-0.893-0.294-0.795-0.735c0.119-0.542,0.438-1.092,1.174-1.052C66.361,102.007,66.483,102.352,66.426,102.828z"/>
		<path fill-rule="evenodd" clip-rule="evenodd" fill="#78593F" d="M65.464,107.322c-0.422,0.002-0.757-0.126-0.754-0.617
			c0.003-0.583,0.457-0.749,0.901-0.759c0.418-0.01,0.675,0.318,0.687,0.74C66.313,107.25,65.909,107.327,65.464,107.322z"/>
		<path fill-rule="evenodd" clip-rule="evenodd" fill="#EA7D56" d="M64.496,96.018c1.118,0.534,0.331,1.049-0.014,1.569
			c-0.397-0.013-0.785-0.068-0.832-0.566C63.593,96.419,64.028,96.196,64.496,96.018z"/>
		<path fill-rule="evenodd" clip-rule="evenodd" fill="#473534" d="M79.24,103.107c-0.011,0.399-0.181,0.662-0.61,0.666
			c-0.42,0.004-0.648-0.227-0.62-0.64c0.028-0.423,0.282-0.732,0.704-0.75C79.167,102.367,79.238,102.737,79.24,103.107z"/>
		<path fill-rule="evenodd" clip-rule="evenodd" fill="#EA7D56" d="M79.51,98.024c-0.164,0.305-0.347,0.622-0.738,0.614
			c-0.364-0.007-0.552-0.25-0.509-0.623c0.048-0.429,0.345-0.582,0.725-0.541C79.277,97.506,79.477,97.697,79.51,98.024z"/>
		<path fill-rule="evenodd" clip-rule="evenodd" fill="#78593F" d="M67.376,91.024c0.003,0.456-0.041,0.818-0.49,0.849
			c-0.385,0.028-0.547-0.252-0.517-0.601c0.031-0.38,0.145-0.835,0.543-0.891C67.391,90.314,67.328,90.799,67.376,91.024z"/>
		<path fill-rule="evenodd" clip-rule="evenodd" fill="#78593F" d="M61.708,99.019c0.406,0.04,0.682,0.181,0.626,0.568
			c-0.05,0.339-0.192,0.689-0.636,0.646c-0.365-0.035-0.689-0.24-0.658-0.635C61.07,99.219,61.405,99.064,61.708,99.019z"/>
		<path fill-rule="evenodd" clip-rule="evenodd" fill="#78593F" d="M70.869,93.354c-0.357,0.292-0.78,0.248-1.197,0.233
			c0.001-0.438-0.08-0.953,0.551-1.015C70.765,92.518,70.933,92.862,70.869,93.354z"/>
	</g>
</g>
</svg>
