<?xml version="1.0" encoding="utf-8"?>
<!-- Generator: Adobe Illustrator 15.0.2, SVG Export Plug-In . SVG Version: 6.00 Build 0)  -->
<!DOCTYPE svg PUBLIC "-//W3C//DTD SVG 1.1//EN" "http://www.w3.org/Graphics/SVG/1.1/DTD/svg11.dtd">
<svg version="1.1" id="Layer_1" xmlns="http://www.w3.org/2000/svg" xmlns:xlink="http://www.w3.org/1999/xlink" x="0px" y="0px"
	 width="595.28px" height="841.89px" viewBox="0 0 595.28 841.89" enable-background="new 0 0 595.28 841.89" xml:space="preserve">
<g id="Seat_1_">
	<g>
		<path fill-rule="evenodd" clip-rule="evenodd" fill="#8795CB" d="M54.492,24.255c4.111,4.223,11.171,5.496,15,10
			c5.316-5.017,1.711-18.956,10-21c0.604,0.125-0.124-0.345,0.479,0c-5.874-3.956-13.246-7.99-18.947-10.448
			C56.098,7.542,55.509,15.614,54.492,24.255z"/>
	</g>
	<path fill="#5E61AC" d="M39.968,87.93c-3.684-0.553-27.993-17.763-35.464-20.994c-3,2.081-4.368,5.044-2.93,10.32
		c8.212,8.594,22.912,19.957,35.789,20.919C36.293,93.488,37.236,89.896,39.968,87.93z"/>
	<path fill="#484B85" d="M84.136,24.29c-1.041,1.369-2.006,3.105-2.885,5.055C82.168,27.367,83.133,25.646,84.136,24.29z"/>
	<path fill="#484B85" d="M65.375,53.846c1.233-5.041,2.209-10.338,3.407-15.414C67.679,43.088,66.563,48.644,65.375,53.846z"/>
	<path fill="#484B85" d="M68.807,38.329c0.245-1.035,0.499-2.061,0.768-3.073C69.319,36.22,69.063,37.25,68.807,38.329z"/>
	<path fill="#7685C2" d="M48.575,55.256c1.809-10.192,3.055-20.945,7-29c4.293,3.374,10.434,4.9,14,9
		c-0.269,1.012-0.522,2.038-0.768,3.073c-0.009,0.034-0.017,0.07-0.024,0.104c-1.198,5.075-2.174,10.373-3.407,15.414
		c-0.487,2.138-0.987,4.212-1.504,6.141c-0.261,0.977-0.255,0.671-0.525,1.561c0.834,2.263,5.704,1.142,8.17,6.393
		c0.207-2.441,0.882-6.913,1.934-12.158c1.719-8.572,4.448-19.207,7.802-26.436c0.879-1.95,1.844-3.686,2.885-5.055
		c0.107-0.145,0.215-0.288,0.323-0.424c0,0,0,0,0,0c1.568-1.978,3.229-3.044,4.95-2.776c-0.007,0.048-0.016,0.103-0.022,0.152
		c0.062,0.008,0.124,0.003,0.188,0.015c-2.965-3.035-5.777-6.223-10-8c-8.289,2.044-4.684,15.983-10,21
		c-3.829-4.504-10.889-5.777-15-10c1.02-8.647,1.607-16.726,6.541-21.458c-3.916-1.167-5.092-2.324-9.541-1.542
		c-7.253,6.577-6.432,21.228-9.881,31.609c-1.066,4.852-3.857,15.37-4.078,16.1c-0.17,1.274-0.289,2.599-1.041,3.292
		C39.823,50.521,44.456,54.67,48.575,55.256z"/>
	<path fill="#6774A9" d="M71.516,67.939c-2.466-5.251-7.336-4.129-8.17-6.393c0.271-0.889,0.265-0.583,0.525-1.561
		c0.517-1.929,1.017-4.003,1.504-6.141c1.188-5.202,2.304-10.757,3.407-15.414c0.008-0.034,0.016-0.07,0.024-0.104
		c0.256-1.079,0.512-2.108,0.768-3.073c-3.566-4.1-9.707-5.626-14-9c-3.945,8.055-5.191,18.808-7,29c-4.119-0.586-8.752-4.734-12-3
		c-3.282,0.384-4.409,2.924-7,4c-9.204,6.083-19.73,6.978-25.07,10.68c3.405,1.472,9.552,7.357,16.404,11.736
		c8.055,5.146,16.797,8.79,18.957,9.237c1.315-0.733,20.053-11.524,31.584-18.531C71.441,69.041,71.464,68.554,71.516,67.939z"/>
	<path fill="#484B85" d="M89.41,21.089c-1.722-0.268-3.382,0.798-4.95,2.776c0,0,0,0,0,0c-0.108,0.136-0.216,0.28-0.323,0.424
		c-1.003,1.355-1.968,3.077-2.885,5.055c-3.354,7.229-6.083,17.864-7.802,26.436c-1.052,5.245-1.727,9.717-1.934,12.158
		c-0.052,0.614-0.075,1.101-0.066,1.438c-11.531,7.007-30.269,17.798-31.584,18.531c-0.047,0.026-0.076,0.042-0.078,0.042
		c-2.602,1.957-3.829,4.684-2.784,9.26c0.06,0.26,0.122,0.522,0.196,0.795c0.054,0.056,0.11,0.113,0.164,0.169
		c1.124,0.039,2.239,0.006,3.337-0.128c1.046-0.205,9.136-4.848,9.084-4.879c9.959-5.568,25.606-15.205,29.79-18.579
		c0-0.333,0.168,0.334,0.168,0.001c-0.607-2.664,8.121-42.179,9.645-53.349C89.394,21.192,89.403,21.138,89.41,21.089z"/>
</g>
<g id="ArmRest_2_">
	<path fill-rule="evenodd" clip-rule="evenodd" fill="#C5C3C2" d="M48.631,67.068c0,0-5.688,2.75-5.688,4.875
		c0,2.018,0,3.438,0,3.438l7.499,3.584c0,0-3.182-2.4-0.124-5.021c0.875-0.75,4.751-3.271,4.751-3.271L48.631,67.068z"/>
	<polygon fill-rule="evenodd" clip-rule="evenodd" fill="#7685C2" points="65.693,57.631 48.443,67.131 55.069,70.672 
		71.568,61.506 	"/>
	<polygon fill-rule="evenodd" clip-rule="evenodd" fill="#8795CB" points="65.281,58.656 52.693,65.588 57.528,68.172 
		69.568,61.483 	"/>
	<path fill-rule="evenodd" clip-rule="evenodd" fill="#EDEAE9" d="M48.631,68.506c2.013,1.291,2.209,1.064,4.25,2.188
		c-2.354,1.168-4.063,1.938-4.625,4.062c-1.742-0.824-2.508-1.301-4.25-2.125C44.536,70.01,47.86,68.59,48.631,68.506z"/>
	<path fill-rule="evenodd" clip-rule="evenodd" fill="#AEADAC" d="M54.943,70.689l-0.032,0.018c-0.632,0.413-3.846,2.52-4.634,3.195
		c-2.67,2.288-0.583,4.408-0.011,4.908l4.677-2.77V70.689z"/>
	<polygon fill-rule="evenodd" clip-rule="evenodd" fill="#5E61AC" points="71.549,61.527 54.911,70.707 54.943,76.09 71.485,66.34 	
		"/>
	<path fill-rule="evenodd" clip-rule="evenodd" fill="#EDEAE9" d="M71.592,61.705l-0.001-0.084l9.042-5.329
		c0.356-0.14,0.686-0.183,0.984-0.153l-4.868-3.473c-0.438-0.486-1.096-0.593-1.866-0.291l-9.042,5.33v0.002
		c1.284,0.899,4.571,3.207,5.751,4.082V61.705L71.592,61.705z"/>
	<path fill="#C5C3C2" d="M71.407,66.448l0.011,9.276l5.653,3.457l-0.014-9.671C75.563,63.026,71.407,66.448,71.407,66.448z"/>
	<path fill="#EDEAE9" d="M54.818,93.84c2.2-2.498,22.334-14.667,22.334-14.667l-5.875-3.75c0,0-19,12.125-22.125,14
		c-0.257,0.154-0.479,0.397-0.678,0.703c1.788,0.941,4.142,2.265,6.314,3.753C54.8,93.867,54.809,93.851,54.818,93.84z"/>
	<path fill="#C5C3C2" d="M47.568,113.006l5.834,4.072c0-2.364-0.888-20.479,1.387-23.199c-2.173-1.488-4.526-2.812-6.314-3.753
		C46.267,93.544,47.568,108.646,47.568,113.006z"/>
	<polygon fill-rule="evenodd" clip-rule="evenodd" fill="#C5C3C2" points="77.067,83.672 71.381,87.297 71.319,95.257 
		77.111,98.799 	"/>
	<path fill="#EDEAE9" d="M58.412,110.797l18.74-11.957l-5.875-3.75c0,0-12.948,8.401-13.146,8.707
		C58.131,103.797,58.402,110.809,58.412,110.797z"/>
	<path fill="#AEADAC" d="M82.931,71.222l-0.02-13.544c-0.256-1.371-1.181-1.849-2.361-1.386l-3.335,1.966l-5.707,3.363l0.061,4.801
		c3.276-1.881,4.869,0.612,5.432,3.328l0.014,9.468l-14.279,8.954c-5.042,3.042-7.863,5.605-7.874,5.617
		c-2.626,3-1.46,19.506-1.458,20.134v3.155l29.479-18.812v-3.156l-0.038,0.025l0.07-23.9C82.918,71.23,82.925,71.226,82.931,71.222z
		 M58.409,110.728c-0.247-5.419-0.781-12.704,1.033-15.514c0.198-0.306,0.91-0.804,1.167-0.958
		c1.83-1.099,10.713-6.929,16.432-10.566l0.096,15.086L58.409,110.728z"/>
</g>
</svg>
