<?xml version="1.0" encoding="utf-8"?>
<!-- Generator: Adobe Illustrator 16.0.4, SVG Export Plug-In . SVG Version: 6.00 Build 0)  -->
<!DOCTYPE svg PUBLIC "-//W3C//DTD SVG 1.1//EN" "http://www.w3.org/Graphics/SVG/1.1/DTD/svg11.dtd">
<svg version="1.1" id="Layer_1" xmlns="http://www.w3.org/2000/svg" xmlns:xlink="http://www.w3.org/1999/xlink" x="0px" y="0px"
	 width="472px" height="782px" viewBox="0 0 472 782" style="enable-background:new 0 0 472 782;" xml:space="preserve">
<style type="text/css">
<![CDATA[
	.st0{fill:#B1ACAD;}
	.st1{fill:#84A7BF;}
	.st2{fill:#F7F2F2;}
	.st3{fill:#5D7687;}
	.st4{fill:url(#SVGID_1_);}
	.st5{fill:url(#SVGID_2_);}
	.st6{fill:#D0CCCB;}
]]>
</style>
<g id="Flatroof">
	<polygon class="st6" points="74.4,69.4 122.3,98.3 186.9,61.9 139,32.6 	"/>
	<polygon class="st2" points="139,32.6 139.1,28.7 74.4,65.5 74.4,69.4 	"/>
	<polygon class="st0" points="186.9,57.9 186.9,61.9 139,32.6 139.1,28.7 	"/>
	<path class="st6" d="M140.3,23.9L66.2,66l54.9,33.1l74-41.8L140.3,23.9z M74.4,65.5l64.6-36.8l47.9,29.3l-64.6,36.4L74.4,65.5z"/>
</g>
<g id="Roofbox">
	<polygon class="st2" points="146.6,48 146.3,64.1 127.8,74.5 128.1,58.4 	"/>
	<polygon class="st0" points="128.1,58.4 114.4,50.2 114.1,66.2 127.8,74.5 	"/>
	<polygon class="st6" points="114.4,50.2 128.1,58.4 146.6,48 132.9,39.6 	"/>
</g>
<polygon class="st2" points="195.2,57.3 191.4,265.4 117.4,307 121.1,99 "/>
<polygon class="st0" points="121.1,99 66.2,65.9 62.5,273.8 117.4,307 "/>
<g id="Windows_1_">
	<polygon class="st1" points="158.2,87.6 157.8,107.5 120.8,128.3 121.1,108.5 	"/>
	<polygon class="st3" points="121.1,108.5 71.8,78.9 71.5,98.8 120.8,128.3 	"/>
	<polygon class="st1" points="175.9,78.2 175.8,86.4 160.6,94.9 160.8,86.8 	"/>
	<polygon class="st1" points="175.7,89 175.6,97.2 160.5,105.7 160.6,97.6 	"/>
	<polygon class="st1" points="157.7,114.3 157.3,134.3 120.3,155.1 120.7,135.2 	"/>
	<polygon class="st3" points="120.7,135.2 71.3,105.7 71,125.6 120.3,155.1 	"/>
	<polygon class="st1" points="175.4,105 175.3,113.2 160.2,121.6 160.3,113.5 	"/>
	<polygon class="st1" points="175.2,115.8 175.1,124 160,132.5 160.1,124.3 	"/>
	<polygon class="st1" points="157.2,141.1 156.8,161.1 119.8,181.9 120.2,162 	"/>
	<polygon class="st3" points="120.2,162 70.9,132.5 70.5,152.4 119.8,181.9 	"/>
	<polygon class="st1" points="175,131.8 174.8,140 159.7,148.4 159.8,140.3 	"/>
	<polygon class="st1" points="174.8,142.6 174.6,150.8 159.5,159.3 159.6,151.1 	"/>
	<polygon class="st1" points="156.6,167.8 156.2,187.8 119.2,208.5 119.6,188.7 	"/>
	<polygon class="st3" points="119.6,188.7 70.2,159.2 69.9,179 119.2,208.5 	"/>
	<polygon class="st1" points="174.3,158.5 174.2,166.6 159.1,175.1 159.2,167 	"/>
	<polygon class="st1" points="174.1,169.3 174,177.4 158.9,185.9 159,177.8 	"/>
	<polygon class="st1" points="156.1,194.6 155.7,214.6 118.7,235.3 119.1,215.5 	"/>
	<polygon class="st3" points="119.1,215.5 69.8,186 69.4,205.8 118.7,235.3 	"/>
	<polygon class="st1" points="173.9,185.3 173.7,193.4 158.6,201.9 158.7,193.8 	"/>
	<polygon class="st1" points="173.7,196.1 173.5,204.2 158.4,212.7 158.5,204.6 	"/>
	<polygon class="st1" points="156,221.4 155.7,241.3 118.7,262.1 119,242.3 	"/>
	<polygon class="st3" points="119,242.3 69.7,212.8 69.3,232.6 118.7,262.1 	"/>
	<polygon class="st1" points="173.8,212.1 173.6,220.2 158.5,228.7 158.7,220.6 	"/>
	<polygon class="st1" points="173.6,222.9 173.4,231 158.3,239.5 158.5,231.4 	"/>
	<polygon class="st1" points="155.6,248.2 155.2,268.1 118.2,288.9 118.5,269.1 	"/>
	<polygon class="st3" points="118.5,269.1 69.2,239.6 68.9,259.4 118.2,288.9 	"/>
	<polygon class="st1" points="173.3,238.8 173.2,247 158,255.5 158.2,247.4 	"/>
	<polygon class="st1" points="173.1,249.7 173,257.8 157.8,266.3 158,258.2 	"/>
</g>
<linearGradient id="SVGID_1_" gradientUnits="userSpaceOnUse" x1="61.5791" y1="274.687" x2="121.6522" y2="102.7944" gradientTransform="matrix(0.9998 1.787698e-02 -1.787698e-02 0.9998 2.9776 -2.2768)">
	<stop  offset="0" style="stop-color:#000000;stop-opacity:0.4"/>
	<stop  offset="1" style="stop-color:#030306;stop-opacity:0"/>
</linearGradient>
<polygon class="st4" points="121.1,99 66.2,65.9 62.5,273.8 117.4,307 "/>
<linearGradient id="SVGID_2_" gradientUnits="userSpaceOnUse" x1="196.8838" y1="262.7505" x2="101.7182" y2="71.2295" gradientTransform="matrix(0.9998 1.787698e-02 -1.787698e-02 0.9998 2.9776 -2.2768)">
	<stop  offset="0" style="stop-color:#000000;stop-opacity:0.4"/>
	<stop  offset="1" style="stop-color:#030306;stop-opacity:0"/>
</linearGradient>
<polygon class="st5" points="195.2,57.3 191.4,265.4 117.4,307 121.1,99 "/>
</svg>
