<?xml version="1.0" encoding="utf-8"?>
<!-- Generator: Adobe Illustrator 16.0.4, SVG Export Plug-In . SVG Version: 6.00 Build 0)  -->
<!DOCTYPE svg PUBLIC "-//W3C//DTD SVG 1.1//EN" "http://www.w3.org/Graphics/SVG/1.1/DTD/svg11.dtd">
<svg version="1.1" id="Layer_1" xmlns="http://www.w3.org/2000/svg" xmlns:xlink="http://www.w3.org/1999/xlink" x="0px" y="0px"
	 width="708.66px" height="850.39px" viewBox="0 0 708.66 850.39" enable-background="new 0 0 708.66 850.39" xml:space="preserve">
<polygon fill="#F7931E" points="36.073,5.604 29.523,1.864 20.045,7.319 13.35,3.496 15.28,0.113 13.157,-3.522 19.805,-7.319 
	29.282,-1.863 35.832,-5.604 26.542,-11.167 32.75,-14.712 29.27,-20.805 23.01,-17.23 22.868,-28.277 16.159,-24.51 
	15.869,-13.152 9.618,-9.582 7.756,-12.77 3.488,-12.749 3.488,-20.236 13.207,-26.121 13.151,-33.814 3.488,-28.459 3.488,-33.828 
	-3.529,-33.828 -3.529,-28.52 -12.966,-33.828 -12.966,-26.285 -3.529,-20.761 -3.529,-12.713 -7.162,-12.695 -9.166,-9.186 
	-16.109,-13.152 -16.4,-24.51 -23.109,-28.276 -23.251,-17.23 -29.511,-20.805 -32.991,-14.712 -26.784,-11.167 -36.073,-5.604 
	-29.523,-1.863 -20.046,-7.318 -12.644,-3.091 -14.558,0.261 -12.779,3.307 -19.805,7.319 -29.282,1.864 -35.832,5.604 
	-26.542,11.167 -32.75,14.712 -29.269,20.806 -23.009,17.23 -22.868,28.277 -16.159,24.511 -15.869,13.152 -9.24,9.367 
	-7.034,13.145 -3.288,13.125 -3.288,20.761 -12.726,26.286 -12.726,33.828 -3.288,28.521 -3.288,33.828 3.729,33.828 3.729,28.459 
	13.392,33.815 13.448,26.122 3.729,20.236 3.729,13.091 7.885,13.07 9.871,9.59 16.109,13.152 16.4,24.511 23.108,28.277 
	23.25,17.23 29.51,20.806 32.99,14.712 26.783,11.167 "/>
</svg>
