<?xml version="1.0" encoding="utf-8"?>
<!-- Generator: Adobe Illustrator 16.0.4, SVG Export Plug-In . SVG Version: 6.00 Build 0)  -->
<!DOCTYPE svg PUBLIC "-//W3C//DTD SVG 1.1//EN" "http://www.w3.org/Graphics/SVG/1.1/DTD/svg11.dtd">
<svg version="1.1" id="Spaceship" xmlns="http://www.w3.org/2000/svg" xmlns:xlink="http://www.w3.org/1999/xlink" x="0px" y="0px"
	 width="430px" height="400px" viewBox="0 0 430 400" enable-background="new 0 0 430 400" xml:space="preserve">
<path id="Contour" fill="#332B2B" d="M-32.207-26.941c6.984-0.57,14.159-1.235,20.905,0.19c7.507,1.568,10.738-3.231,14.681-7.507
	c0.808-0.57,1.568-1.14,1.996-2.09c0.427-0.333,0.998-0.618,1.283-1.045c1.996-2.993,4.371-3.183,7.744-2.043
	c9.407,3.183,18.91,5.986,28.412,8.79c1.853,0.57,1.758,0.998,0.665,2.375c-2.898,3.563-5.654,7.222-8.504,10.785
	c-2.708-0.522-3.278,1.045-3.753,3.326c-2.518,12.115-5.274,24.183-7.935,36.251c-0.76,3.516-0.76,3.516,2.375,5.084
	c0.095,0.237,0.048,0.618,0.475,0.522H26.09c1.331,3.706,3.753,6.842,5.464,10.357c0.333,0.713,0.712,1.378,1.188,2.233
	c-2.233,0.19-4.324,0.285-6.367,0.522c-5.654,0.665-11.355,0.38-17.009,0.665c-3.611,0.19-7.222,0.428-10.833,0.475
	c-1.093,0-1.568-0.237-1.9-1.473c-1.235-4.751-2.851-9.407-4.039-14.159c-0.475-1.805-1.045-2.898-3.088-3.088
	c-1.521-0.143-2.993-0.855-4.608-0.855c-5.084-1.615-10.31-2.708-15.251-4.704c-11.545-4.656-22.758-9.93-31.738-18.957
	c-2.47-2.471-4.561-5.179-6.319-8.22c-0.38-0.618-0.522-1.52-1.378-1.805c0-0.618,0-1.283,0-1.9
	c1.615-2.281,3.658-3.991,6.129-5.369c6.557-3.658,13.684-5.559,21-6.841C-39.19-25.991-35.722-26.418-32.207-26.941z"/>
<path id="FillB" fill="#BCAFAC" d="M26.851-16.488c-16.154-4.371-32.545-7.364-50.79-7.27c-5.511-0.19-12.448,0.38-19.29,1.615
	c-5.255,0.943-10.456,2.144-15.344,4.225c3.728,1.72,7.464,3.9,10.185,6.154c6.75,5.593,27.564,12.42,43.25,13.593
	C8.083,2.818,17.615,6.793,23.186,7.44c0.002-0.01,0.004-0.021,0.007-0.031c0.333-1.377-0.095-1.805-1.331-2.043
	c-2.375-0.427-4.799-0.95-7.174-1.473C8.938,2.659,3.237,1.423-2.464,0.188c-0.998-0.19-1.806-0.57-1.948-1.71
	C-4.507-2.33-4.174-2.948-3.557-3.375c0.808-0.57,1.663-0.285,2.518-0.095c7.839,1.71,15.726,3.326,23.613,5.083
	c1.33,0.285,1.948,0.19,2.233-1.33c0.95-4.989,2.043-9.882,3.278-14.824C28.371-15.823,27.943-16.203,26.851-16.488z"/>
<path id="FillA" fill="#848484" d="M-48.389-11.763c-2.721-2.254-6.457-4.435-10.185-6.154c-2.007,0.854-3.966,1.842-5.846,3.044
	c-2.803,1.758-2.803,1.996-0.902,4.751C-60-2.33-52.589,2.991-44.369,7.315c19.479,10.167,40.67,13.874,62.288,15.726
	c1.283,0.095,1.853-0.285,2.138-1.52c0.996-4.693,1.992-9.387,3.129-14.081C17.615,6.793,8.083,2.818-5.139,1.83
	C-20.825,0.657-41.639-6.17-48.389-11.763z"/>
<path id="Fin2" fill="#848484" d="M37.018-27.986c-8.457-2.613-16.867-5.226-25.324-7.887c-0.903-0.285-1.473,0.047-2.09,0.665
	c-2.471,2.423-4.941,4.846-7.839,7.697c9.692,2.756,18.862,5.417,27.984,8.077c0.808,0.237,1.331-0.143,1.806-0.76
	c1.948-2.471,3.943-4.941,5.892-7.412C37.255-27.796,37.161-27.938,37.018-27.986z"/>
<path id="Fin" fill="#BCAFAC" d="M21.34,28.899c-0.064-0.115-0.128-0.231-0.191-0.347c-0.285-0.475-0.712-0.57-1.188-0.618
	C12.549,27.317,5.185,26.7-2.227,26.034c-1.473-0.095-1.521,0.523-1.14,1.71c0.078,0.247,0.145,0.494,0.22,0.741
	c0.667,2.176,1.273,4.352,1.87,6.528c0.998,3.373,0.998,3.326,4.324,3.136c1.093-0.047,2.233-0.047,3.326-0.095
	c6.367-0.285,12.733-0.618,19.527-0.902C24.262,34.193,22.797,31.54,21.34,28.899z"/>
<path id="Highlight" fill="#FFFFFF" d="M27.583-12.611c0.05-0.372,0.131-0.731,0.278-1.064c0.099-0.377,0.172-0.657,0.201-0.77
	c-0.321-0.288-1.302-0.563-1.924-0.681c-12.03-2.324-14.266-4.156-27.979-5.261c-4.137-0.4-13.244-0.468-18.417-0.52
	c-3.973-0.042-11.378,0.195-15.104,0.52c2.758,0.751,5.265,2.603,7.253,3.452c4.933,2.109,20.759,2.532,32.518,3.861
	C14.32-11.955,21.03-7.23,25.2-6.688c0.001-0.002,0.581,0,0.963,0C26.45-8.199,27.116-10.819,27.583-12.611z"/>
<g id="Flame_2_">
	<path id="Flame" fill="#DB4C2C" d="M29.236,26.58c-3.136-1.568-5.224-7.89-4.416-11.406c2.661-12.068,2.996-13.067,5.562-25.183
		c0.475-2.281,3.479-3.677,8.104-5.625C53.5-14.208,62.674-9.647,73.27,1.091c-6.794-1.853-12.971,1.331-19.433,2.043
		c-3.611,0.38-7.079,0.285-10.595-0.57c-0.57-0.142-1.235-0.808-1.71-0.095c-0.428,0.665,0,1.378,0.427,1.948
		c0.855,1.188,2.138,1.853,3.421,2.471c6.034,2.946,12.543,4.276,19.052,5.559c7.27,1.473,14.586,2.613,21.998,3.421
		c0.618,0.047,1.235,0.285,2.233,0.475c-3.278,3.278-7.079,4.751-11.213,5.606c-8.837,1.758-17.437,0.143-26.036-1.615
		c-3.041-0.618-6.034-1.71-9.882-1.853c4.846,4.134,9.169,7.839,13.921,11.925c-5.179,0.285-9.788-0.237-14.396-0.617
		C36.496,29.408,29.521,26.627,29.236,26.58z"/>
	<path id="Flame_1_" fill="#DD7F2A" d="M29.817-7.511c0.475-2.281,6.749-4.703,9.457-4.18c15.014,1.425,13.102-0.021,23.697,10.717
		c-6.794-1.853-5.571,1.516-12.033,2.228c-3.611,0.38-4.734-0.083-8.25-0.938c-0.57-0.142-3.65,1.236-4.125,1.949
		c-0.428,0.665,1.323,3.18,1.75,3.75c0.855,1.188,5.842,5.007,7.125,5.625c6.034,2.946,6.491,2.467,13,3.75
		c7.27,1.473,7.588,0.942,15,1.75c2.761,0.212,8.853,2.157,7.375,1.875c-3.278,3.278-11.527,0.013-15.661,0.868
		c-8.837,1.758-17.065-3.42-25.665-5.178c-3.041-0.618-4.027-0.982-7.875-1.125c4.846,4.134,6.791,10.674,11.542,14.76
		c-5.179,0.285-6.483-1.82-11.091-2.2c-4.561-0.38-4.909-7.455-9.375-8.5C24.259,17.544,27.251,4.604,29.817-7.511z"/>
	<path fill="#FEDD48" d="M25.527,12.438c0,0,4.209,7.267,6.709,7.892s-3.625-4.875-1.625-8.75s6-1,8.125-1s-4.25-5.375-2.5-9
		s7.625-5.375,9.875-5.25s-3.625-5.625-7.625-5.375s-9.791,4.405-10.314,8S25.527,12.438,25.527,12.438z"/>
</g>
<g id="Window">
	<path fill="#332B2B" d="M-19.634-2.511C-19.7,4.17-27.757,6.513-32.281,6.512c-6.953,0-11.711-6.071-11.711-9.679
		c0-6.807,2.05-13.858,12.218-13.857C-24.889-16.898-19.634-11.203-19.634-2.511z"/>
	<path fill="#B0D7F0" d="M-32.258-14.831c5.236-0.062,9.475,4.176,9.413,9.412c0,5.111-4.114,9.225-9.226,9.288
		c-5.235,0.062-9.474-4.177-9.412-9.413C-41.483-10.654-37.37-14.768-32.258-14.831z"/>
	<circle fill="#FFFFFF" cx="-34.722" cy="-9.295" r="1.833"/>
</g>
</svg>
