<?xml version="1.0" encoding="utf-8"?>
<!-- Generator: Adobe Illustrator 26.5.0, SVG Export Plug-In . SVG Version: 6.00 Build 0)  -->
<svg version="1.1" id="Layer_1" xmlns="http://www.w3.org/2000/svg" xmlns:xlink="http://www.w3.org/1999/xlink" x="0px" y="0px"
	 viewBox="0 0 372.7 485.9" style="enable-background:new 0 0 372.7 485.9;" xml:space="preserve">
<style type="text/css">
	.st0{fill:#5F1100;}
	.st1{fill:#3C100D;}
	.st2{fill:#614C47;}
	.st3{fill:#A33100;}
	.st4{fill:#C34300;}
	.st5{fill:#B73200;}
	.st6{fill:#65534E;}
	.st7{fill:#D36000;}
	.st8{fill:#D74E00;}
	.st9{fill:#C64400;}
	.st10{fill:#E15600;}
	.st11{fill:#C33E00;}
	.st12{fill:#CE3500;}
	.st13{fill:#EDE0CC;}
	.st14{fill:#8A2C00;}
	.st15{fill:#A73800;}
	.st16{fill:#FF7D26;}
	.st17{fill:#E35100;}
	.st18{fill:#862400;}
	.st19{fill:#FF7F2A;}
	.st20{fill:#D9CCB7;}
	.st21{fill:#E3D8C1;}
	.st22{fill:#D4C4B1;}
	.st23{fill:#CEBBAC;}
	.st24{fill:#DACDB9;}
	.st25{fill:#C84300;}
	.st26{fill:#FF7D00;}
	.st27{fill:#FF8429;}
	.st28{fill:#EA6300;}
	.st29{fill:#E45900;}
	.st30{fill:#972900;}
	.st31{fill:#C23E00;}
	.st32{fill:#EC6500;}
	.st33{fill:#400B00;}
	.st34{fill:#B53700;}
	.st35{fill:#913115;}
	.st36{fill:#BE4500;}
	.st37{fill:#933114;}
	.st38{fill:#491A27;}
	.st39{fill:#631E1D;}
	.st40{fill:#781E00;}
	.st41{fill:#711B00;}
	.st42{fill:#2C0E14;}
	.st43{fill:#3B1A23;}
	.st44{fill:#2D0500;}
	.st45{fill:#4C0E00;}
	.st46{fill:#420B00;}
	.st47{fill:#3C0C00;}
	.st48{fill:#581300;}
	.st49{fill:#A63700;}
	.st50{fill:#8E2F00;}
	.st51{fill:#C44500;}
	.st52{fill:#D24E00;}
	.st53{fill:#AA3900;}
	.st54{fill:#A2918A;}
	.st55{fill:#A43100;}
	.st56{fill:#8B2600;}
	.st57{fill:#9E3000;}
	.st58{fill:#982F00;}
	.st59{fill:#C74500;}
	.st60{fill:#B03900;}
	.st61{fill:#8D2900;}
	.st62{fill:#972E00;}
	.st63{fill:#D14700;}
	.st64{fill:#FF6700;}
	.st65{fill:#7E2200;}
	.st66{fill:#B43500;}
	.st67{fill:#A28A7E;}
	.st68{fill:#55474A;}
	.st69{fill:#655A67;}
	.st70{fill:#7D91B8;}
	.st71{fill:#4B3834;}
	.st72{fill:#6D605E;}
	.st73{fill:#57484A;}
	.st74{fill:#685D5A;}
	.st75{fill:#59484B;}
	.st76{fill:#A33000;}
	.st77{fill:#D75100;}
	.st78{fill:#A03200;}
	.st79{fill:#701E00;}
	.st80{fill:#AF3800;}
	.st81{fill:#F25E00;}
	.st82{fill:#B73700;}
	.st83{fill:#C14700;}
	.st84{fill:#D05200;}
	.st85{fill:#742100;}
	.st86{fill:#C24A00;}
	.st87{fill:#B83900;}
	.st88{fill:#ACA1A0;}
	.st89{fill:#64646E;}
	.st90{fill:#667092;}
	.st91{fill:#6C6261;}
	.st92{fill:#423033;}
	.st93{fill:#781F00;}
	.st94{fill:#9897A8;}
	.st95{fill:#4E4D58;}
	.st96{fill:#454C62;}
	.st97{fill:#5C1100;}
	.st98{fill:#50658D;}
	.st99{fill:#7E96BC;}
	.st100{fill:#722500;}
	.st101{fill:#692600;}
	.st102{fill:#5C2000;}
	.st103{fill:#2E0801;}
	.st104{fill:#7D2200;}
	.st105{fill:#8E2700;}
	.st106{fill:#D54500;}
	.st107{fill:#B23200;}
	.st108{fill:#8B1F00;}
	.st109{fill:#892800;}
	.st110{fill:#651900;}
	.st111{fill:#752200;}
	.st112{fill:#C94F00;}
	.st113{fill:#772800;}
	.st114{fill:#A7A5A7;}
	.st115{fill:#79727A;}
	.st116{fill:#7E839D;}
	.st117{fill:#8FA9C0;}
	.st118{fill:#8C2500;}
	.st119{fill:#B83700;}
	.st120{fill:#F66E00;}
	.st121{fill:#C2B7AE;}
	.st122{fill:#AB9A8B;}
	.st123{fill:#655E66;}
	.st124{fill:#B2A6A8;}
	.st125{fill:#B7ABAE;}
	.st126{fill:#BFBABD;}
	.st127{fill:#ABADC2;}
	.st128{fill:#4E0900;}
	.st129{fill:#410700;}
	.st130{fill:#B2B2BF;}
	.st131{fill:#530E00;}
	.st132{fill:#93A2BB;}
	.st133{fill:#554B4B;}
	.st134{fill:#B9ADB0;}
	.st135{fill:#3D0C00;}
	.st136{fill:#4A0F00;}
	.st137{fill:#952700;}
	.st138{fill:#D05321;}
	.st139{fill:#F36E00;}
	.st140{fill:#D13900;}
	.st141{fill:#AE2D00;}
	.st142{fill:#380B00;}
	.st143{fill:#691300;}
	.st144{fill:#B62E00;}
	.st145{fill:#9C1A00;}
	.st146{fill:#621900;}
	.st147{fill:#C94100;}
	.st148{fill:#1F0100;}
	.st149{fill:#460D00;}
	.st150{fill:#401203;}
	.st151{fill:#400900;}
	.st152{fill:#4F0D00;}
	.st153{fill:#6F2300;}
	.st154{fill:#672108;}
	.st155{fill:#4F3C3D;}
	.st156{fill:#605853;}
	.st157{fill:#64666F;}
	.st158{fill:#C7CDD4;}
	.st159{fill:#8CA0BC;}
	.st160{fill:#6C6772;}
	.st161{fill:#5E5653;}
	.st162{fill:#D95400;}
	.st163{fill:#5C1700;}
	.st164{fill:#832600;}
	.st165{fill:#660000;}
	.st166{fill:#5E1100;}
	.st167{fill:#FF7D25;}
	.st168{fill:#FB6F00;}
	.st169{fill:#B24D2E;}
	.st170{fill:#A53400;}
	.st171{fill:#D4D6B6;}
	.st172{fill:#110C0B;}
	.st173{fill:#290801;}
	.st174{fill:#432315;}
	.st175{fill:#7B7485;}
	.st176{fill:#7B7584;}
	.st177{fill:#9BA7BB;}
	.st178{fill:#C54400;}
	.st179{fill:#4D1400;}
	.st180{fill:#8D9CB5;}
	.st181{fill:#72819A;}
	.st182{fill:#6B6670;}
	.st183{fill:#5B5057;}
</style>
<polygon class="st0" points="140.4,51.3 141.9,81 166.8,83.7 166.8,60 "/>
<polygon class="st1" points="186.9,64.1 168.8,41.1 140.4,51.6 166.9,59.9 "/>
<polygon class="st2" points="202.5,97.6 186.7,64.5 166.8,60 166.8,83.7 "/>
<polygon class="st3" points="185.6,107.8 146.8,111.5 141.9,81 166.8,83.7 "/>
<polygon class="st4" points="193.1,122.5 178.8,126.6 146.8,111.5 185.6,107.8 "/>
<polygon class="st5" points="138.5,41.5 140.4,51.3 169,41.1 137.9,38.6 "/>
<polygon class="st6" points="193.1,122.5 202.5,97.6 166.8,83.7 185.6,107.8 "/>
<polygon class="st7" points="220.2,127.7 230.7,101 202.5,97.6 193.1,122.5 "/>
<polygon class="st8" points="193.1,143.9 178.8,126.6 193.1,122.5 220.2,127.7 "/>
<polygon class="st9" points="239,77.7 249.9,99.9 265.8,99.9 265,75.8 "/>
<polygon class="st10" points="293.6,99.1 265.8,99.9 265,75.8 283.1,77.3 "/>
<polygon class="st11" points="293.6,99.1 265.8,99.9 276,125 290.3,129.4 "/>
<polygon class="st12" points="306.7,137.3 314,133.9 300.9,119.8 290.3,129.4 "/>
<polygon class="st13" points="242.4,123.9 252.3,144.1 283.9,143.6 290.3,129.4 276,125 "/>
<polygon class="st14" points="239,77.7 230.7,101 242.6,98.6 249.9,99.9 "/>
<polygon class="st15" points="232.8,69.9 214.2,88.8 230.7,101 239,77.7 "/>
<polygon class="st16" points="249.2,56 283.1,77.3 313.2,76.9 285,55.4 "/>
<polygon class="st17" points="233.8,14.4 236.6,52.4 249.9,49.2 240.9,13.1 "/>
<polygon class="st18" points="221,14.4 213.8,53.9 236.6,52.4 233.8,14.4 "/>
<polygon class="st19" points="240.9,13.1 230.6,11.6 221,14.4 233.8,14.4 "/>
<polygon class="st20" points="223.4,146.2 193.1,143.9 220.2,127.7 226.4,128.9 "/>
<polygon class="st21" points="252.3,144.1 223.4,146.2 226.4,128.9 242.4,123.9 "/>
<polygon class="st22" points="217.2,165.7 251.6,159.5 252.3,144.1 223.4,146.2 "/>
<polygon class="st23" points="208,166.9 217.2,165.8 223.4,146.2 193.1,143.9 184.4,149.4 "/>
<polygon class="st24" points="281.9,156.1 251.6,159.5 252.3,144.1 283.9,143.6 "/>
<polygon class="st25" points="300.9,119.8 293.6,99.1 290.3,129.4 "/>
<polygon class="st26" points="328.1,121.7 300.9,119.8 293.6,99.1 324.1,99.1 "/>
<polygon class="st27" points="283.1,77.3 293.6,99.1 324.1,99.1 313.2,76.9 "/>
<polygon class="st28" points="249.2,56 239,77.7 265,75.8 283.1,77.3 "/>
<polygon class="st29" points="232.8,69.9 246.7,55.8 249.2,56 239,77.7 "/>
<polygon class="st30" points="287.2,50.9 285,55.4 313.2,76.9 312.4,57.9 "/>
<polygon class="st31" points="319.4,14.8 314.7,14.8 287.2,50.9 312.4,57.9 "/>
<polygon class="st32" points="307,15.9 314.7,14.8 287.2,50.9 299.8,25.7 "/>
<polygon class="st33" points="12.5,237.5 39.6,229.2 44.8,228.1 42.3,265.3 "/>
<polygon class="st34" points="35.2,176.9 10.3,201.2 12.5,237.5 39.6,229.2 "/>
<polygon class="st35" points="44.5,156.5 35.2,176.9 43.8,177.2 "/>
<polygon class="st36" points="39.6,229.2 44.8,228.1 43.8,177.2 35.2,176.9 "/>
<polygon class="st37" points="65.4,205.9 69.2,214.8 44.8,228.1 43.8,177.5 44.5,156.5 "/>
<polygon class="st38" points="68.1,250.1 42.3,265.3 44.8,228.1 69.2,214.8 "/>
<polygon class="st39" points="77.5,272.4 44.1,288.7 42.3,265.3 68.1,250.1 "/>
<polygon class="st40" points="7.4,258.8 6.5,268.8 42.3,265.3 12.5,237.5 "/>
<polygon class="st41" points="16.3,302.2 44.1,288.7 42.3,265.3 6.5,268.8 "/>
<polygon class="st42" points="78.3,303.5 52.5,317.3 44.1,288.7 77.5,272.4 "/>
<polygon class="st43" points="58.5,329.2 52.5,317.3 78.3,303.5 78.6,318.3 "/>
<polygon class="st44" points="79.9,362.5 79,335.2 58.5,329.2 58.8,352.3 "/>
<polygon class="st45" points="30,327.1 52.5,317.3 44.1,288.7 16.3,302.2 "/>
<polygon class="st46" points="38.9,339.6 58.5,329.2 52.5,317.3 30,327.1 "/>
<polygon class="st47" points="58.8,352.3 47.8,350.1 38.9,339.6 58.5,329.2 "/>
<polygon class="st48" points="78.6,318.3 79,335.2 58.5,329.2 "/>
<polygon class="st49" points="83.5,296.6 78.6,318.3 97.3,321.1 98.6,314.2 "/>
<polygon class="st50" points="97.3,349.2 79.9,362.5 78.6,318.3 97.3,321.1 "/>
<polygon class="st51" points="111.1,289.3 98.6,314.2 83.5,296.6 96.6,271.9 "/>
<polygon class="st52" points="121.8,269.9 111.1,289.3 96.6,271.9 104,261 "/>
<polygon class="st53" points="120.6,237 118.4,229.5 104,261 121.8,269.9 "/>
<polygon class="st52" points="133.4,317 167.6,330.8 192.2,317.3 163.6,305.7 "/>
<polygon class="st54" points="157.2,281.4 163.6,305.7 192.2,317.3 192.2,295 "/>
<polygon class="st55" points="111.1,289.3 98.6,314.2 133.4,317 130.9,286.5 "/>
<polygon class="st56" points="157.2,281.4 130.9,286.5 133.4,317 163.6,305.7 "/>
<polygon class="st57" points="125.2,349.2 97.3,349.2 97.3,321.1 98.6,314.2 "/>
<polygon class="st58" points="133.4,317 131.5,331.4 125.2,349.2 98.6,314.2 "/>
<polygon class="st59" points="167.6,330.8 125.2,349.2 131.5,331.4 133.4,317 "/>
<polygon class="st60" points="125.5,388.4 177.2,376 167.6,330.8 125.2,349.2 "/>
<polygon class="st61" points="92.8,383.3 125.5,388.4 125.2,349.2 97.3,349.2 "/>
<polygon class="st50" points="83.5,379.7 92.8,383.3 97.3,349.2 79.9,362.5 "/>
<polygon class="st62" points="127.5,424 153.5,430.2 177.2,376 125.5,388.4 "/>
<polygon class="st63" points="204.6,264.8 267.8,300.3 275.5,290.5 229.1,254 "/>
<polygon class="st64" points="293.2,318.7 304,310.5 275.5,290.5 267.8,300.3 "/>
<polygon class="st65" points="190.5,280.3 204.6,264.8 267.8,300.3 263.3,317.6 "/>
<polygon class="st66" points="281.1,328.6 293.2,318.7 267.8,300.3 263.3,317.6 "/>
<polygon class="st67" points="230.9,183.3 232.8,207.2 246.9,203.8 248.4,185.3 "/>
<polygon class="st68" points="268.6,202.1 246.9,203.8 248.4,185.3 270.8,186.5 "/>
<polygon class="st69" points="278.9,198.7 268.6,202.1 270.8,186.5 279.5,184.6 "/>
<polygon class="st70" points="290.2,179.5 291,188.5 278.9,198.7 279.5,184.6 "/>
<polygon class="st71" points="206.3,180.1 230.9,183.3 217.2,165.8 208,166.9 "/>
<polygon class="st72" points="253.7,177.7 230.9,183.3 217.2,165.8 251.6,159.5 "/>
<polygon class="st73" points="270.8,186.5 253.7,177.7 230.9,183.3 248.4,185.3 "/>
<polygon class="st74" points="285.5,168.1 281.9,156.1 251.6,159.5 253.7,177.7 "/>
<polygon class="st75" points="279.5,184.6 285.5,168.1 253.7,177.7 270.8,186.5 "/>
<polygon class="st76" points="153.2,253.7 151.1,229.2 120.6,237.3 122,271.5 "/>
<polygon class="st77" points="157.2,281.4 130.9,286.5 111.1,289.3 121.8,269.9 "/>
<polygon class="st78" points="149.6,252.7 161.7,273 158.5,281.5 121.8,269.9 "/>
<polygon class="st79" points="179.2,266.8 161.7,273 149.6,252.7 176.9,251.2 "/>
<polygon class="st80" points="175.8,207.2 174.1,238.6 210,236.5 207.2,206 "/>
<polygon class="st81" points="206.3,180.1 175.8,207.2 207.2,206 230.9,183.3 "/>
<polygon class="st0" points="210,236.5 204.6,264.8 229.1,254 236.2,235.2 "/>
<polygon class="st82" points="232.8,207.2 207.2,206 210,236.5 236.2,235.2 "/>
<polygon class="st83" points="149,205.5 147.7,229.2 120.6,237 118.4,229.5 "/>
<polygon class="st84" points="172.1,189.1 149,205.5 147.7,229.2 175.8,207.2 "/>
<polygon class="st85" points="174.1,238.6 176.9,251.2 149.6,252.7 147.7,229.2 "/>
<polygon class="st86" points="172.1,189.1 208,166.9 206.3,180.1 175.8,207.2 "/>
<polygon class="st87" points="196.5,370.5 192.2,317.3 167.6,330.8 177.2,376 "/>
<polygon class="st88" points="219.5,362.3 214.9,316.3 192.2,317.3 196.5,370.5 "/>
<polygon class="st89" points="227.7,311.8 214.9,316.3 219.5,362.3 242,352.1 "/>
<polygon class="st90" points="255.6,348.3 256.7,325.4 227.6,311.7 242,352.1 "/>
<polygon class="st91" points="192.2,295 227.9,311.7 214.9,316.3 192.2,317.3 "/>
<polygon class="st92" points="190.5,280.3 192.2,295 256.7,325.4 263.3,317.6 "/>
<polygon class="st93" points="190.5,415.3 153.5,430.2 177.2,376 196.5,370.5 "/>
<polygon class="st94" points="214.9,408.6 190.5,415.3 196.5,370.5 219.5,362.3 "/>
<polygon class="st95" points="243.9,399.9 214.9,408.6 219.5,362.3 242,352.1 "/>
<polygon class="st96" points="260.9,389 255.6,348.3 242,352.1 243.9,399.9 "/>
<polygon class="st97" points="271.8,333.7 281.1,328.6 263.3,317.6 256.7,325.4 "/>
<polygon class="st98" points="260.9,389 271.8,333.7 256.7,325.4 255.6,348.3 "/>
<polygon class="st99" points="285,376.9 260.9,389 271.8,333.7 284.5,343.3 "/>
<polygon class="st100" points="92.8,383.3 98,399.9 127.5,424 125.5,388.4 "/>
<polygon class="st101" points="83.5,379.7 94.6,401.8 98,399.9 92.8,383.3 "/>
<polygon class="st102" points="127.5,424 108.7,417.9 94.6,401.8 98,399.9 "/>
<polygon class="st103" points="153.1,440 153.5,430.2 108.7,417.9 109.7,424.7 "/>
<polygon class="st104" points="207.8,455.8 206,435.3 153.5,430.2 153.1,440 "/>
<polygon class="st105" points="220.4,428.2 223.2,444.6 207.8,455.8 206,435.3 "/>
<polygon class="st106" points="220.4,428.2 190.5,415.3 153.5,430.2 206,435.3 "/>
<polygon class="st107" points="234.5,420.9 220.4,428.2 190.5,415.3 214.9,408.6 "/>
<polygon class="st108" points="234.8,438.1 223.2,444.6 220.4,428.2 234.5,420.9 "/>
<polygon class="st109" points="210,236.5 174.1,238.6 179.2,266.8 204.6,264.8 "/>
<polygon class="st110" points="192.2,295 179.2,266.8 161.7,273 158.5,281.5 "/>
<polygon class="st111" points="204.6,264.8 179.2,266.8 192.2,295 190.5,280.3 "/>
<polygon class="st112" points="313.9,206.6 303.4,211.4 291,188.5 290.2,179.5 "/>
<polygon class="st113" points="294.4,227.2 303.4,236 313.9,206.6 303.4,211.4 "/>
<polygon class="st114" points="250.6,227.2 236.2,235.2 232.8,207.2 246.9,203.8 "/>
<polygon class="st115" points="268.7,224.4 250.6,227.2 246.9,203.8 268.6,202.1 "/>
<polygon class="st116" points="281.4,219.3 278.9,198.7 268.6,202.1 268.7,224.4 "/>
<polygon class="st117" points="303.4,211.4 281.4,219.3 278.9,198.7 291,188.5 "/>
<polygon class="st118" points="146.4,120.2 146.8,111.5 178.8,126.6 179.2,146.5 "/>
<polygon class="st119" points="193.1,143.9 178.8,126.6 179.2,146.5 184.4,149.4 "/>
<polygon class="st120" points="335,135.7 314,133.9 300.9,119.8 328.1,121.7 "/>
<polygon class="st121" points="306.5,145.3 306.7,137.3 290.3,129.4 283.9,143.6 "/>
<polygon class="st122" points="303.1,156.6 281.9,156.1 283.9,143.6 306.5,145.3 "/>
<polygon class="st123" points="249.8,247 229.1,254 236.2,235.2 250.6,227.2 "/>
<polygon class="st124" points="267.3,245.8 268.7,224.4 250.6,227.2 249.8,247 "/>
<polygon class="st125" points="266.1,264.5 259.1,254.3 249.8,247 267.3,245.8 "/>
<polygon class="st126" points="290.1,239.3 267.3,245.8 268.7,224.4 281.4,219.3 "/>
<polygon class="st127" points="281.4,219.3 303.4,211.4 294.4,227.2 290.1,239.3 "/>
<polygon class="st128" points="306.2,248.7 290.1,239.3 294.4,227.2 303.4,236 "/>
<polygon class="st129" points="280.8,260.8 290.1,239.3 306.2,248.7 301.4,255.2 "/>
<polygon class="st130" points="267.3,245.8 266.1,264.5 280.8,260.8 290.1,239.3 "/>
<polygon class="st131" points="291.5,279.7 279.4,269.6 280.8,260.8 301.4,255.2 "/>
<polygon class="st132" points="280.8,260.8 266.1,264.5 274.9,288.8 279.4,269.6 "/>
<polygon class="st133" points="249.8,247 248.1,268.4 229.1,254 "/>
<polygon class="st134" points="266.1,264.5 248.1,268.4 249.8,247 259.1,254.3 "/>
<polygon class="st135" points="275.5,290.5 289.9,293 291.5,279.7 279.4,269.6 "/>
<polygon class="st136" points="314.1,304.9 322,293 291.5,279.7 289.9,293 "/>
<polygon class="st137" points="326.8,290.7 322,293 291.5,279.7 301.4,255.2 "/>
<polygon class="st138" points="332.8,283.4 326.8,290.7 301.4,255.2 306.2,248.7 "/>
<polygon class="st139" points="335.6,306.3 346.6,309.7 332.8,283.4 326.8,290.7 "/>
<polygon class="st140" points="311,333.7 318.7,330.3 304,310.5 293.2,318.7 "/>
<polygon class="st141" points="298.6,341 311,333.7 293.2,318.7 281.1,328.6 "/>
<polygon class="st142" points="291.7,347.6 298.6,341 281.1,328.6 271.8,333.7 "/>
<polygon class="st143" points="314.1,304.9 315.8,313 326.8,305.4 322,293 "/>
<polygon class="st144" points="335.6,306.3 326.8,305.4 322,293 326.8,290.7 "/>
<polygon class="st145" points="328.5,326.6 337.6,326 335.6,306.3 326.8,305.4 "/>
<polygon class="st146" points="315.8,313 316.1,326.6 328.5,326.6 326.8,305.4 "/>
<polygon class="st147" points="344.6,328.9 337.6,326 335.6,306.3 346.6,309.7 "/>
<polygon class="st148" points="320.3,347.2 344.6,328.9 337.6,326 322.6,337 "/>
<polygon class="st149" points="316.1,326.6 325.7,330.3 322.6,337 337.6,326 "/>
<polygon class="st150" points="309.9,350.6 291.7,347.6 300.3,340.4 318.7,330.3 "/>
<polygon class="st151" points="214.9,408.6 243.9,399.9 281.9,404.2 285.1,421.2 "/>
<polygon class="st152" points="260.9,389 295.8,394.6 281.9,404.2 243.9,399.9 "/>
<polygon class="st153" points="305.4,387.9 295.8,394.6 260.9,389 286.7,377.1 "/>
<polygon class="st110" points="296.1,411.6 305.7,406.2 305.4,387.9 295.8,394.6 "/>
<polygon class="st154" points="285.1,421.2 296.1,411.6 295.8,394.6 281.9,404.2 "/>
<polygon class="st155" points="290.2,179.5 305.3,164.3 285.5,168.1 279.5,184.6 "/>
<polygon class="st156" points="303.1,156.6 305.3,164.3 285.5,168.1 281.9,156.1 "/>
<polygon class="st157" points="306.6,145.3 317.9,150 312.2,159.4 303.3,156.6 "/>
<polygon class="st158" points="331.9,155.1 328.3,145 335,135.7 337.3,145.9 "/>
<polygon class="st159" points="317.8,150 321.3,161.8 331.9,155.1 328.3,145 "/>
<polygon class="st160" points="310.7,173.1 311.6,167.9 305.3,164.3 290.2,179.5 "/>
<polygon class="st161" points="303.1,156.6 305.3,164.3 312.4,159.4 "/>
<polygon class="st162" points="230.9,183.3 207.2,206 232.8,207.2 "/>
<polygon class="st163" points="175.8,207.2 147.7,229.2 174.1,238.6 "/>
<polygon class="st164" points="214.2,88.8 246.7,55.8 236.6,52.4 213.8,53.9 "/>
<polygon class="st165" points="186.7,64.5 188.8,54.1 214.2,88.8 202.5,97.6 "/>
<polygon class="st166" points="172.1,36.6 169,41.1 186.7,64.5 188.8,54.1 "/>
<polygon class="st167" points="139.1,37.5 137.9,38.6 169,41.1 172.4,34.6 "/>
<polygon class="st168" points="206.6,48.8 188.8,54.1 172.1,36.6 172.4,34.6 "/>
<polygon class="st169" points="214.2,88.8 213.8,53.9 206.6,48.8 188.8,54.1 "/>
<polygon class="st170" points="230.7,101 202.5,97.6 214.2,88.8 "/>
<polygon class="st171" points="255.1,111.7 249.9,99.9 242.6,98.6 242.4,113 "/>
<polygon class="st172" points="242.1,123.9 275.7,125 265.5,99.9 260.5,114.7 "/>
<polygon class="st173" points="249.9,49.2 251.2,55 246.7,55.8 236.6,52.4 "/>
<polygon class="st174" points="242.4,113 220.2,127.7 230.7,101 242.6,98.6 "/>
<polygon class="st174" points="242.1,123.9 242.4,113 220.2,127.7 226.4,128.9 "/>
<polygon class="st175" points="255.1,111.7 260.5,114.7 242.1,123.9 242.4,113 "/>
<polygon class="st176" points="265.5,99.9 249.9,99.9 255.1,111.7 260.5,114.7 "/>
<polygon class="st177" points="248.1,268.4 266.1,264.5 275.5,290.5 "/>
<polygon class="st178" points="314,133.9 328.3,145 335,135.7 "/>
<polygon class="st179" points="306.7,137.3 306.5,145.3 317.8,150 328.3,145 314,133.9 "/>
<polygon class="st179" points="312.1,159.4 321.1,161.8 317.8,150 "/>
<polygon class="st179" points="312.1,159.4 305.2,164.3 327.3,163.9 321.3,161.8 "/>
<polygon class="st179" points="311.5,167.7 305.3,164.4 327.3,163.9 317,167.4 "/>
<polygon class="st180" points="331.9,155.1 321.3,161.8 327.3,163.9 327.5,165.9 "/>
<polygon class="st181" points="327.9,169.3 327.5,163.9 331.9,155.1 332,160.6 "/>
<polygon class="st182" points="318.7,171.3 310.7,173.1 311.5,167.7 317.7,167.3 "/>
<polygon class="st183" points="318.7,171.3 327.9,169.3 327.5,163.9 317.7,167.3 "/>
</svg>
