<?xml version="1.0" encoding="utf-8"?>
<!-- Generator: Adobe Illustrator 26.5.0, SVG Export Plug-In . SVG Version: 6.00 Build 0)  -->
<svg version="1.1" xmlns="http://www.w3.org/2000/svg" xmlns:xlink="http://www.w3.org/1999/xlink" x="0px" y="0px"
	 viewBox="0 0 595.3 425.2" enable-background="new 0 0 595.3 425.2" xml:space="preserve">
<g id="Palette_00000105417561333714941280000008892917792666863804_">
	<rect x="52.6" y="102.3" fill-rule="evenodd" clip-rule="evenodd" fill="#68432C" width="16" height="16"/>
	<rect x="68.6" y="102.3" fill-rule="evenodd" clip-rule="evenodd" fill="#E36B35" width="16" height="16"/>
	<rect x="85.1" y="102.3" fill-rule="evenodd" clip-rule="evenodd" fill="#F3926B" width="16" height="16"/>
	<rect x="101.1" y="102.3" fill-rule="evenodd" clip-rule="evenodd" fill="#736E6B" width="16" height="16"/>
	<rect x="117.1" y="102.3" fill-rule="evenodd" clip-rule="evenodd" fill="#9D9295" width="16" height="16"/>
	<rect x="133.1" y="102.3" fill-rule="evenodd" clip-rule="evenodd" fill="#F0EEEE" width="16" height="16"/>
</g>
<g id="SubColor">
	<path fill-rule="evenodd" clip-rule="evenodd" fill="#9D9295" d="M38.8,33.1c1.5-0.2,3-0.2,4.5,0h1.4c1-0.3,1.9-1.1,2.9-0.1
		c0.3-0.3,0.5-0.5,0.8-0.8c1-0.8,2.2-0.4,3.3-0.5c0.8-0.1,1,0.2,1.7-0.7c0.2-0.3,0.5-0.8,0.9-0.4c0.4,0.3,0.3,0.9-0.1,1.2
		c-0.5,0.8-1.1,0.2-1,2.1c-0.7-0.1-1.3,0.1-2,0l0,0c0,0,0,0,0,0c-0.3,0-0.8,0.2-0.9,0c-1.3-1.1-1.9,0.1-1.8,0.9
		c0.1,1.2-0.7,2.3-0.4,3.6c0.3,1,1,1.8,0.9,3.1l-3.2-0.2c0.6-1.4,0.2-2.9,1-4.2c-0.1-0.3-0.3-0.6-0.4-0.8c-0.5-0.2-1.3,0.4-1.6-0.5
		c0-0.1,0-0.2,0-0.2c0.3-1.1-0.2-1.3-1-1.4H42c-0.8,0-1.6,0.1-2.4,0h-2.4v-1.1L38.8,33.1L38.8,33.1z"/>
	<path fill-rule="evenodd" clip-rule="evenodd" fill="#68432C" d="M46.8,37.2c0.2,0.6,0.1,1.5,1.2,1.2c-0.2-1.2,0.5-2.3,0.4-3.6
		c0-0.7,0.5-2,1.8-0.9c0.2,0.2,0.6,0,0.9,0c0-1.8-0.5-2.1-2.9-1.7c-0.3,0.3-0.5,0.5-0.8,0.8c-0.9,0.2-2.1,0-2.2,1.5
		c-0.1,0.9,0,1.6,1,1.8C46.5,36.6,46.6,36.9,46.8,37.2z"/>
	<path fill="#68432C" d="M115.6,40.4c-0.2-2.6-0.2-1.4-0.1-3.9c0-1.4,0.1-6.6,0-7.3c-0.2-2.3-0.1-6.8-0.3-8.6c-0.2-1.6-7.3-1-9-1
		c-6.5,0-6.4,0.3-6.6-6.3c0-1.5,0.9-7.1-0.8-8.1c-2,5,2.4,14.4-4.6,14.5c-7.5,0.1-9.2,0.1-10.8,7.1c-1.6,6.7-13.3,0.6-18.6,2.7
		c-3.8,0.8-5.1,11.8-6.5,11.8c-0.1,0.1-0.4,0.1-0.7,0.2c20.5,0.4,49.9,0.9,61.6,1.1c-1.7,0-3.1-0.1-3.9-0.2
		C116,42,115.1,40.7,115.6,40.4z"/>
	<g>
		<path fill="#9D9295" d="M69.3,28.2c-1-0.1-2-0.1-2.8,0c0.1,0,0.1,0,0.2,0C67.5,28.3,68.4,28.3,69.3,28.2z"/>
		<path fill="#9D9295" d="M115,41.4c0.6-0.1-0.3-1.5,0.2-1.8c-0.2-2.6-0.2-1.4-0.1-3.9c0-1.4,0.1-6.6,0-7.3
			c-0.2-2.3-0.1-6.8-0.3-8.6c-0.2-1.6-7.3-1-9-1c-6.5,0-6.4,0.3-6.6-6.3c0-1.5,0.9-7.1-0.8-8.1c-2,5,2.4,14.4-4.6,14.5
			c-7.5,0.1-9.2,0.1-10.8,7.1c-0.7,3-3.4,3.4-6.7,3.2c0,0,0,0-0.1,0.1c-4.2-0.4-12.4-2.8-15,3.7c-3,7.5-3.3,6.1-2.5,6.6
			c-0.3,0.6-0.5,0.9-0.8,0.9c-0.1,0.1-0.4,0.1-0.7,0.2c15.5,0.3,44.8,0.8,61.6,1.1C117.2,41.6,115.8,41.5,115,41.4z"/>
	</g>
	<path fill-rule="evenodd" clip-rule="evenodd" fill="#9D9295" d="M139.7,34.7c-1.5-0.2-3-0.2-4.4,0h-1.4c-1-0.3-1.9-1.1-2.9-0.1
		c-0.3-0.3-0.5-0.5-0.8-0.8c-1-0.8-2.2-0.4-3.3-0.5c-0.8-0.1-1,0.2-1.7-0.7c-0.2-0.3-0.5-0.8-0.9-0.4c-0.4,0.3-0.3,0.9,0.1,1.2
		c0.5,0.8,1.1,0.2,1,2.1c0.7-0.1,1.3,0.1,2,0l0,0c0,0,0,0,0,0c0.3,0,0.8,0.2,0.9,0c1.3-1.1,1.9,0.1,1.8,0.9
		c-0.1,1.2,0.7,2.3,0.4,3.6c-0.3,1-1,1.8-0.9,3.1l3.2-0.2c-0.6-1.4-0.2-2.9-1-4.2c0.1-0.3,0.3-0.6,0.4-0.8c0.5-0.2,1.3,0.4,1.6-0.5
		c0-0.1,0-0.2,0-0.2c-0.3-1.1,0.2-1.3,1-1.4h1.7c0.8,0,1.6,0.1,2.4,0h2.4v-1.1L139.7,34.7L139.7,34.7z"/>
	<path fill-rule="evenodd" clip-rule="evenodd" fill="#68432C" d="M131.8,38.8c-0.2,0.6-0.1,1.5-1.2,1.2c0.2-1.2-0.5-2.3-0.4-3.6
		c0-0.7-0.5-2-1.8-0.9c-0.2,0.2-0.6,0-0.9,0c0-1.8,0.5-2.1,2.9-1.7c0.3,0.3,0.5,0.5,0.8,0.8c0.9,0.2,2.1,0,2.2,1.5
		c0.1,0.9,0,1.6-1,1.8C132,38.3,131.9,38.6,131.8,38.8z"/>
	<path fill-rule="evenodd" clip-rule="evenodd" fill="#F0EEEE" d="M100.7,19.8c-0.8,0-1.6,0-2.4,0c-3.3,0.4-6.6,0-9.9,0.1l-0.2-0.1
		c0-0.2-0.1-0.4-0.3-0.4c-2.1-0.4-0.5,1-0.7,1.5c0.3,0.3,0.5,0.2,0.8,0l0,0c2,0.8,4.1,0.7,6.4,0.5c-1.1,0.9-1.5,1.5-1.7,2.4
		c0,0,0,0,0,0c0-0.3,0-0.7,0.1-1c-0.1-0.2-0.2-0.3-0.3-0.4c-0.9-0.1-1.6,0.2-2.2,0.8c-0.4,0.9,0,2.2-1.1,2.8c-0.5,0.5-1.3,1-1,1.8
		c0.3,0.7,1.2,0.3,1.9,0.3c0.8,0,1.5,0,1.9,0.6c0,0,0,0.1-0.1,0.1c-0.1-0.3-0.3-0.4-0.7-0.2c-0.5,0.3-0.3,0.8-0.2,1.3
		c0.1,0.6,0.5,1,1,1.2c0.2,0.1,0.3,0.1,0.5,0.1c1-0.3,1.5-1.1,2.2-1.8c0.4-0.6,0.8-1.1,1.2-1.7c-0.9-0.9,0.2-1.2,0.5-1.7
		c-1.5-0.3-0.4-2.6-2.3-2.7c1.3-0.4,2.4-1.6,3.9-0.7c0.1,0.2,0.2,0.2,0.4,0.1c0.6,0,1.2-0.1,1.8-0.1c1.6-0.1,0.1-2.2,1.5-2.4
		C101.3,20.2,101,20,100.7,19.8z"/>
	<path fill-rule="evenodd" clip-rule="evenodd" fill="#736E6B" d="M113.2,37.9c0-0.4,0-0.8,0-1.2c0-0.8,0-1.7,0-2.5c0,0,0,0,0,0
		c0,0,0,0,0,0c0.1-0.8,0.2-1.5-0.4-2.3c-0.6-0.9-2-2,0.5-2.2c0.3,0.3,0.4,0.7,0.3,1.3c1.3-0.4,1.8-3.9-1.8-4.3
		c-0.1-0.1-0.1-0.2-0.2-0.3c0.5-0.5,2.9,0.2,2-1.1c-1.1-1.5-0.3-2.8,0.5-4.2c0.9-1.3-0.6-1.4-2.2-1.3c-0.7,0-1.3,0.1-2,0.1
		c-1,0.2-1,0.4-0.1,0.7c1,0.3,1.7,0.9,1,1.5c-1.6,1.4-0.7,2.7-0.2,4c-0.1,0.2-0.2,0.4-0.3,0.6c-0.9,0.1-1.9,0.3-3.1,0.7
		c-2.3-0.2-4.5,0-6.8-0.3c-2.9-0.4-1.8,3.1-3.9,2.2c0,0-7.4,9.3-7.5,9.1c-0.8,0.2-9.8,1.6-3.9,2.5c2,1,4.6-0.1,6.4-0.4
		c0,0.2,4.1,0.3,5,0.7c1.6-0.9,1.6-3,3.1-3.9c3.3-2.1-1.4-4.9,1.8-6.9c0,0-0.6-0.3-1.1-0.6c-1,0.1-1.6,0-1.6-0.3
		c0-0.4,0.8-0.1,1.6,0.3c0.4,0,0.8-0.1,1.2-0.1c1,0.3,1.9,0.5,2.7,0.6c4,0.3,7.1,1.4,6.3,3.7l0,0c-0.3,0.2-0.5,0.5-0.8,0.7
		c0.1,0.6-0.3,1.1-0.9,1.6c-1.2,1,0.1,1.2,1.5,1.3c-0.3,0.6,0.8,1.1,0.2,1.7c-0.6,0.6-0.4,1.3,0.6,1.6c0.7,0.2,1.1-0.7,2.1-0.6
		c0.6-0.5,0.8,0,1.3-0.7C111.7,39.2,113,39.2,113.2,37.9z"/>
	<path fill-rule="evenodd" clip-rule="evenodd" fill="#736E6B" d="M74.7,27.9c-1.2-1-2.5-0.8-3.7-0.1c-1.4,0.1-2.8,0.2-4.2,0.1
		c-2-0.2-3.9,0-4.7,2.4c-0.3,0.9-1,1.8-1.3,2.7c-0.7,1.8-2.1,3.3-2,5.4c0.6,0.2,1.3,0.3,2.2,0.2c1.4-1,4,1,4.5-2c0,0,0.1,0,0.2,0
		c1.2,0.3,1.8-0.6,2.5-1.4c1.4-1.6,3-3.2,5-3.9c1.3-0.5,1.3-2.4,3-2.1l0,0c0.3-0.2,0.6-0.5,0.9-0.8C76.2,28.2,75.5,28,74.7,27.9z"/>
	<path fill-rule="evenodd" clip-rule="evenodd" fill="#F0EEEE" d="M108.8,39.2c-3,0.4-5.9-0.1-8.7,0.5c-0.4,0.1-1,0.2-1.2-0.4
		c-0.1-0.3,0-0.8,0.3-0.9c1.8-0.1,1.5-1.8,1.9-2.8c0.9-2.3,2.9-3.3,4.6-4.7c1-0.8,2,0,2,1.3c0,1.4-0.5,3.1,1.6,3.5
		c0.3,0.1,0.3,0.5,0.3,0.9c0,0.8-0.6,0-0.8,0.3c-0.6,0.8-2-1.1-2.3,0.6C106.5,38.9,108.3,38.2,108.8,39.2z"/>
	<path fill-rule="evenodd" clip-rule="evenodd" fill="#F0EEEE" d="M107.5,24.6c-0.2,0-0.6-0.1-0.6-0.2c-0.1-0.8,0.6-1.4,0.4-2.4
		c-0.1-0.4,0.9-0.4,1.4-0.5c0.1,0,0.3,0,0.4,0.1c0.7,0.9-0.6,1.5-0.3,2.4C108.8,24.5,108.1,24.5,107.5,24.6z"/>
	<path fill-rule="evenodd" clip-rule="evenodd" fill="#9D9295" d="M108.8,33.8c-0.3,0.9-1.3,0.9-2,1.3c-0.4,0.2-0.8-0.2-0.7-0.7
		c0.1-1,0.8-1.4,1.6-1.6C108.2,32.7,108.7,33.1,108.8,33.8z"/>
	<path fill="#68432C" d="M165.2,42c-0.9-6.4-19.4,1.8-21.8,0.5c-2.4,0.4-5.9,0.2-8.7,0.2c-1.6,0-3.1,0.1-4.7,0.1
		c-1.8-0.1-5-1.2-6.4-1c-0.7,0.1-3.2,0.8-5.1,0.6c-1.4,0.5-2.7,0-4.1-0.2c-0.2,0.1-0.5,0.1-0.8,0.1c-0.4,0-1.5,0-2.7,0l0,0
		c0,0,0,0-0.1,0c-0.8,0-1.7,0-2.5-0.1c-6-0.1-21.1-0.5-31.6-0.8c-0.2,0-0.5,0-0.7,0c-6.5-0.2-11-0.3-10.1-0.3C63.9,41,62,41,60,40.9
		c-7.5-0.1-14.9,0.1-22.4,0.7c-7.1,0.6-15.4-0.3-22.8,1.4c-0.9,0.1-4.4-0.1-5.1,0.8c-0.5,0.6-5,1.5-4.1,2.1
		c-1.1-0.4-0.8,2.8-0.4,3.5C6,51.1,9,51,10.1,51.2c1.2,0.2,11.8,2.2,11.9,4.1c0,0.4-1.5,1.5-1.5,1.4c-1.1,1.5,0.4,7.8,0.6,9.6
		c0.7,5.9,3.3,5.1,6.6,7.9c1.6,1.3,3.2,3.1,4.9,3.9c1.4,0.7,3.8-0.4,5.3-0.4c5-0.1,10-0.1,15-0.2c4.6-0.1,9.9-1.2,14.5,0.3
		c1.9,0.6,3.3,5,4.3,7.1c1.5,3,1.7,3,4.1,3.2c8.2,0.7,17,0.8,25.4,0.8c3.1,0,5.7,0.9,8.7,0.6c3.9-0.4,7.3-4.9,11.4-5.6
		c7.6-1.3,15.3-4.8,22.4-8.5c2.9-1.5,6.4-4,8.8-6.9c1.2-1.5,0.3-3.4,1.2-4.8c0.9-1.5,2.5-2.3,3.5-3.8C159,57.6,167,45.4,165.2,42z
		 M33,75.6c0.1,2.6-6.6-3.2-6.6-4.6c0.1-2.2-0.8-12.4,0.4-13.6c1,2.6,1.7,5.1,2.2,8.4c0.4,2.1,0.8,3.1-0.6,3.5
		c-0.2,0.1-1.4,0.6-1.2,1.2c0.2,0.8,3.5,0,4.2,0.5C33.5,72.4,32.9,71.7,33,75.6C33,75.8,33,76.2,33,75.6z M59.9,76.2
		c-5.2,0.1-10.5,0.2-15.7,0.3c-2.2,0-4.3,0.1-6.5,0.1c-2.9,0.1-2.6-1.1-1.9-5.1c2.4,1,6.4-0.3,9.1-0.3c3,0,6.4-0.7,9.2,0.9
		c0.9,0.6,6.1,2.2,6.4,3.4C60.4,75.9,60.2,76.1,59.9,76.2z"/>
	<path fill-rule="evenodd" clip-rule="evenodd" fill="#E36B35" d="M21.6,62.1c-0.2-2.8-1.2-5.5,0.4-4c0.5-0.5,0.5-2.7,1.5-1.8
		c0.9,0.9,1.2,4,1.2,5.5c0,1.7-0.6,4.2,0.1,5.7c0.8,2.1-2.8,2.9-2.7,0.8c0.6-0.2,0.9,1,0.9-2c0-0.9-0.3-4.1-1.2-2.7
		C21.6,63.4,21.8,62.1,21.6,62.1C21.5,60.8,21.8,62.1,21.6,62.1z"/>
	<path fill-rule="evenodd" clip-rule="evenodd" fill="#9D9295" d="M40.5,70.8c-0.7,0.5-1.4,0-2.1,0.3c-0.2,0.1-0.5-0.1-0.6,0.1
		c-0.5,1.1-0.9,0.4-1.4,0.1c-0.1-0.1-0.3-0.1-0.5-0.2c0.2-0.4,0.6-0.7,0.4-1.2c-0.2-0.9,0-1.7,0-2.6c-0.2-1.7-0.2-1.9,0.7-1.6
		c0.1,0.6,0.5,1,0.5,1.9c0,0.6,0.7,0.5,1,0.5c3.4,0.1,6.8,0.2,10.1,0c1.2-0.1,2.4,0.2,3.6-0.3c0.3-0.1,0.5,0.1,0.5,0.4
		c0,0.3-0.1,0.5-0.4,0.7c-0.7,0.6-1.4,0.2-2.1,0.2c-3.5,0.1-7,0.1-10.4,0c-0.8,0-1.8,0.2-2.7,0.3c0.2,1.1,0.6,1.6,1.4,1.5
		C39.1,70.6,39.8,70.5,40.5,70.8z"/>
	<path fill-rule="evenodd" clip-rule="evenodd" fill="#E36B35" d="M33,67.5c0.1-0.4,0.8-0.4,0.4-1.1c-0.2-0.4-0.6-0.2-0.9,0.1
		c-0.8,0.7-1.6,0.5-1.8-0.3c-0.1-0.5-0.1-0.8,0.2-1c0.3-0.2,0.5-0.3,0.7,0.2c0.2,0.7,0.6,0.6,0.9,0.5c0.9-0.4,1.3,0.7,1.8,1.4
		c0.2,0.3,0.1,0.6-0.2,0.7c-0.3,0.1-0.6,0.2-0.9,0.3C33.1,68,33.1,67.7,33,67.5z"/>
	<path fill-rule="evenodd" clip-rule="evenodd" fill="#9D9295" d="M33,67.5c0.4,0,0.4,0.4,0.3,0.8c-0.7,0.3-1.2,1.1-2,0.9
		c-0.4-0.1-0.8-0.2-1-0.7C31,67.4,32.2,68.7,33,67.5z"/>
	<path fill-rule="evenodd" clip-rule="evenodd" fill="#9D9295" d="M30.6,69.8c-0.8,0.2-1.6,0.4-2.4,0.6c-0.3,0.1-0.7,0.4-0.9-0.3
		c-0.2-0.8,0.4-0.5,0.5-0.8c0.4-0.5,0.9-0.6,1.4-0.5C29.3,70.4,30.3,69.1,30.6,69.8z"/>
	<path fill-rule="evenodd" clip-rule="evenodd" fill="#E36B35" d="M37,65.6c-1.1-0.3-0.5,1.1-0.7,1.6c-0.5-0.8-0.4-1.7-0.2-2.5
		c0.1-0.6,0.6-0.9,0.9-0.5C37.4,64.6,36.9,65.1,37,65.6z"/>
	<path fill-rule="evenodd" clip-rule="evenodd" fill="#9D9295" d="M33.6,76.6c1.1-0.7,0.2-2.3,0.8-3.4c0.3,1.2,0.2,2.3,0.1,3.4
		C34.5,77,34,76.9,33.6,76.6z"/>
	<path fill-rule="evenodd" clip-rule="evenodd" fill="#E36B35" d="M131.2,55.5c-0.4,1.3,5.6,1.8,7.7,1.4c0.9-0.2,6.1,1.6,6.4,2.5
		c-0.4-1.1,1.4-1.2,1.4-0.5c-0.2,0.6-0.6,0.8-1,0.6c0.2,1.1,1.2-0.3,1.6,0.5c0.5,0.7-0.4,2.5,0.2,3.2c-2.4,0.3-3.6,2.9-4.8,4.5
		c-0.5-1-0.7-2.1-0.6-3.3c-0.5,1.1-2.7,3.4-2.8,4c0.5,0,1,0,1.5,0.1c-0.7,0.4-9,2.6-8.8,3.3c0.1,0.6,0.7-0.5,0.8,0.3
		c0.1,1.6-3.6-0.1-4-0.3c-0.8,0.8,0.3,2.3-1.2,2.4c-3.2,0.3-6.4,1.2-9.7,1.4c-3,0.2-6.4-1.1-9.2-0.4c-2.2,0.6-9.8-2.7-11,0.1
		c-0.2,0.4-8.5,0.4-9.7-0.4c-0.5-0.3-2.8-0.8-3-1.5c1.1,3.8-6.7-2.9-4.2-3.1c-0.6,0.1-0.1,2.1-0.6,2.1c-1.6,0.3-5.7-3-8.3-2.2
		c0.1-0.2,0.3-0.4,0.4-0.6c-2.2,0.4-4.5-1.1-6.7-0.6c-0.2,0-4-0.6-4-0.6c-4.1-3.9-6,1.6-7.9-4.7c0.1,2.5-3.9,1.6-3.9,1
		c-0.1-1.3,1.5,0.4,1.6-0.8c0.1-1.4-11.8-3.2-12.4-3.3C38.6,57,27.6,55.8,26.3,56c0-0.8,0.4-1.4,0.9-1.8c-0.7,0.3-1.4,0.8-1.9,1.6
		c-0.1-3.4,16.7-3.5,19.6-3.4c5,0,11.5-1,16.2,0.2c5.8,1.5,12.4-1.4,18.1,0.8c3.9,1.6,10.1,0.8,13.3,0.1c4.8,0.3,10.9-0.2,15.9,0.6
		c0.8,0.6,11.2,0.9,11.4,0.5C120.6,53.7,130.7,54.9,131.2,55.5C131,56,130.8,54.9,131.2,55.5z"/>
	<path fill-rule="evenodd" clip-rule="evenodd" fill="#F3926B" d="M118,57.8c1.4,1.6-5.2,0.3-5.1,3.6c-0.2-0.4-0.3-0.9-0.3-1.4
		c-1.5,0,2.4,2.5,3.4,2.6c0.9,0.1,10.7-0.5,11.3,0.9c1.5,3.7,3.1-2,2.7,4.2c-0.2,3-2.3-1.4-3.1,0c-0.6,0.8-1.3,1-2.1,0.4
		c-1.2-0.4-0.3,1.4-1,2.4c-0.9,1.3-7-1.2-6,0.7c-1.5,1-6.7,0.9-8.8-0.1c0.2-1.3-0.9-1.7-1.2,0.1c-0.3-2.7-0.8,0.2-1.5-0.5
		c-1.9-1.9-13.1-1-16.3-1.2c0.7,0,6.5-0.3,6.5,0.3c-1.3,0-8.6,0.5-8.2,0.9c0.8-0.2-2.2,1-1.5,0.5c-1,0.7,1.4-2.7,0.7-1.4
		c-0.3,0.1-3.3,3.2-3.2,0.2c0,0.7-0.2,1.1-0.7,1.3c-0.6,0.1-10.1-8.1-9.7-9c0.9-0.8,9.5-0.3,12.1-0.3c1,0,10.1-0.2,9.9,1.2
		c1-1.8,9.8-1.6,9.9-0.8c0-0.2-0.4-2.2,0.2-2.1c0.4,0,0.2,0.9,0.2,1.2c0-1.5,4.5,0,3.2,0.8c0.8-0.3,1.3-1.1,1.6-2.2
		c-1.4-0.3-12.6,0.2-12.4-1.5c3.8-1.8,8.9,1.9,12.4-0.3C113.1,57.2,116.5,59.7,118,57.8C118.1,58,117.4,58.6,118,57.8z"/>
	<path fill-rule="evenodd" clip-rule="evenodd" fill="#9D9295" d="M152.2,41.5c-3.4,0-5.6,0.2-6.1,0.2c-0.4,0-1.2,0.4-1.9,2.4
		c-0.7,2-2.1,5.1-2.1,5.1s-1.1,1.3,0.5,1.3s5.1,0,5.8,0c1.2,0,2-1.4,2.4-2.4c0.4-1,1.9-4.7,1.9-4.7S154.1,41.5,152.2,41.5z"/>
	<path fill="#9D9295" d="M161.7,40.2c-1.3,0.2-2.5,0.3-2.7,0.5c-0.2,0.2-1,1.6-1.2,2.2c-0.3,0.7-1.2,4.6-1.9,5.1
		c-0.7,0.5-1.4,2.4,0.7,2.3s5.1,0.5,5.4-0.2c0.3-0.7,2.4-4.3,2.6-4.9s1.3-4.8-0.9-5.2C162.5,39.8,163,40,161.7,40.2z"/>
	<path fill-rule="evenodd" clip-rule="evenodd" fill="#9D9295" d="M133.3,42.3c2.7,0.3,2.4-0.2,4.4-0.1c2,0.1,1.7,0.5,1.2,2.2
		c-0.4,1.7-2.1,5.2-2.1,5.2s-1.1,1.2-3.1,0.8s-3.6-0.3-3.6-0.3s-1.6-0.8-1-1.9c0.6-1.1,2.3-4.7,2.3-4.7S131.7,42.1,133.3,42.3z"/>
	<path fill-rule="evenodd" clip-rule="evenodd" fill="#F0EEEE" d="M163.6,45.8c-0.2,0-0.1,0.3-0.3,0.3c-0.5-0.1-0.5-0.9-0.2-1.2
		c0.8-1,0.1-1.4-0.3-2.2c-0.6-1,0.8-1.2,1.3-1.5c0.1-0.2,0.8,0.5,0.7,1C164.6,43.8,164.1,44.7,163.6,45.8z"/>
	<path fill-rule="evenodd" clip-rule="evenodd" fill="#F0EEEE" d="M152.5,43.8c-0.5-0.7-0.4,2.9-1.2,0.5c0-0.1-0.3,1-0.5,0.4
		c-0.8-1.7-0.7-1.3-1.1,0c-0.2-1.6-0.3-1.3-0.8-1c-1.2,0.9-2.5-0.6-4.5,0.7c-0.1,0.3,0.3-0.5,0-0.8c-0.1-0.5,1-0.3,1-0.8
		c2-0.4,2.4,0.9,4.4,0c0.1-0.4,0.7-0.4,0.9-0.7c0.1-0.1,0.1,0.3,0.3,0.3c0.1,0,0.3-0.3,0.3-0.1c0.4,0.2,0.9-0.2,1.3,1.3
		C152.6,43.7,152.6,43.8,152.5,43.8z"/>
	<path fill-rule="evenodd" clip-rule="evenodd" fill="#F0EEEE" d="M138.2,46.9c-0.2-0.1-0.7,0-0.5-1.1c0.5-2-0.2-1.6-0.5-1.6
		c-2.5,0-2.7,0-5.2,0.1c0,0-0.3-0.3-0.3-0.4c-0.3-0.8,0.2-1,0.5-1.1c0.9,0.1,0.1,0.3,1,0.3c2.1,0.3,3.4,0.6,5.5-0.3
		c0.2,0.1,0.3,0.3,0.5,0.4c0.2,0.3,0.2,0.6,0,1C138.6,44.2,138.4,45.5,138.2,46.9z"/>
	<path fill-rule="evenodd" clip-rule="evenodd" fill="#9D9295" d="M139.3,44.2c0-0.3,0-0.7,0-1c1.6,0,3.9,0.1,5.7-0.4
		c0,0.4-0.6,1.1-0.6,1.5c-0.6,0-1.9,0.4-3.7,0C140.2,44.2,139.7,45.6,139.3,44.2z"/>
	<path fill-rule="evenodd" clip-rule="evenodd" fill="#736E6B" d="M111.3,85.4c0.3-1.7,0.5-3.4,0.4-5.1c-0.1,0.6-0.2,1.3-0.4,1.8
		c-0.2-0.5-2.5-0.4-3-0.2c-1.4,0.4-0.1,1.1-0.9,2.2c0.6-0.8-5.1-1.7-5.4-1.7c-2.5,0.1-5.6,0.3-8.1-0.2c-5.4-0.9-11.3,0.2-16.5-2.6
		c0.2,2.2,1.8,0.8,1.9,3c-0.2,0-6.6,0.2-5.5-2.2c-2.7,5.6,8.7,2.2,8.5,1.9c-0.4,0-0.6,0.3-0.7,0.8c0.8,0.9,4.8,1.8,5.9,1.4
		c0.8-0.3,0.4,1.6,1.2,1.6c1.4-0.1,2.9,0.3,4.3-0.2c1.5-0.8,7.8-2.1,9.6-0.7c-1.8,1.1,3.9,1.4,3.9,1.4c1.4,1.5,2.4,1,4.2,1.3
		C112,88.2,111.2,86.1,111.3,85.4C111.6,84,111.1,86.3,111.3,85.4z"/>
	<path fill-rule="evenodd" clip-rule="evenodd" fill="#9D9295" d="M125.5,42.6c-2.8-0.3-8.9-0.3-9.4-0.4c-3.3-0.5-2.9,0.6-5,3.4
		c-0.9,1.1-4,4.6-0.4,4.9c3.6,0.3,10.5,0.6,10.9,0.2c0.4-0.4,0.8-0.4,2.6-2.8C125.9,45.5,128.6,42.4,125.5,42.6"/>
	<path fill-rule="evenodd" clip-rule="evenodd" fill="#F0EEEE" d="M125.1,45.2c-0.4-0.1-1.6,0.6-1.2-0.4c0.2-0.5-0.8-0.7-1.2-0.7
		c-4.1,0-4.4,0-8.5,0.1c-0.1,0-0.5-0.3-0.5-0.4c-0.4-0.8,0.3-0.9,0.9-1.1c1.4,0.1,0.1,0.2,1.5,0.3c3.3,0.3,5.1,0.8,8.5,0
		c0.3,0.1,1,0,1.2,0.1c0.3,0.3,0.5,0.7,0.3,1C125,44.2,125.3,43.9,125.1,45.2z"/>
	<path fill-rule="evenodd" clip-rule="evenodd" fill="#9D9295" d="M78.2,50.5c2.8,0.5,4.2,0.2,6.9-0.3c2.6-0.5,5.7-5.8,6.7-6.9
		c1-1.1-3.2-2.3-11-1.8c-2.8,0.2-7,6.1-7.3,6.9c-0.4,0.8,1.9,2.2,1.9,2.2S78.2,50.5,78.2,50.5z"/>
	<path fill-rule="evenodd" clip-rule="evenodd" fill="#9D9295" d="M68.8,41.4c-2.8-0.3-8.9-0.4-9.4-0.4c-3.3-0.6-2.9,0.7-5,3.7
		c-0.9,1.2-4,5-0.4,5.3c3.6,0.3,10.5,0.6,10.9,0.2c0.4-0.4,0.8-0.4,2.6-3S71.9,41.2,68.8,41.4"/>
	<path fill-rule="evenodd" clip-rule="evenodd" fill="#F0EEEE" d="M68.4,44c-0.4-0.1-1.6,0.6-1.2-0.4c0.2-0.5-0.8-0.7-1.2-0.7
		c-4.1,0-4.4,0-8.5,0.1c-0.1,0-0.5-0.3-0.5-0.4c-0.4-0.8,0.3-0.9,0.9-1.1c1.4,0.1,0.1,0.2,1.5,0.3c3.3,0.3,5.1,0.8,8.5,0
		c0.3,0.1,1,0,1.2,0.1c0.3,0.3,0.5,0.7,0.3,1C68.3,43,68.6,42.7,68.4,44z"/>
	<path fill-rule="evenodd" clip-rule="evenodd" fill="#9D9295" d="M70.2,43.3c0-0.3,0-0.7,0-1c2,0,4.7,0.1,6.9-0.4
		c0,0.4-0.8,1.1-0.8,1.5c-0.8,0-2.4,0.4-4.5,0C71.3,43.3,70.7,44.7,70.2,43.3z"/>
	<g>
		<path fill-rule="evenodd" clip-rule="evenodd" fill="#F0EEEE" d="M77.7,44.1C77.7,44.1,77.7,44.1,77.7,44.1
			C77.7,44.2,77.7,44.2,77.7,44.1z"/>
		<path fill-rule="evenodd" clip-rule="evenodd" fill="#F0EEEE" d="M89.7,43.3C89.7,43.3,89.7,43.3,89.7,43.3
			c-0.5-1.6-1.2-1.1-1.9-1.3c-0.1-0.2-0.4,0.1-0.5,0.1c-0.2,0-0.2-0.4-0.4-0.3c-0.3,0.3-1.2,0.3-1.4,0.7c-1.1,0.3-1.8,0.4-2.4,0.3
			c-0.1-0.1,0.1-0.2-0.5-0.2c-0.1,0-0.2,0.1-0.2,0.1c-0.9-0.2-1.8-0.4-3.2-0.2c0.1,0.5-1.6,0.3-1.4,0.8c0.2,0.2,0.1,0.6,0,0.8
			c1.7-0.8,3.1-0.5,4.4-0.4c0,0,0,0.1,0,0.1c0,0.1,0.3,0.4,0.3,0.4c1.5,0,2.2-0.1,3-0.1c0,0.1,0,0.2,0,0.3c0-0.1,0.1-0.2,0.1-0.3
			c0.4,0,0.8,0,1.3,0c0.1,0.1,0.1,0.1,0.2,0.2c0.3,0.4,0.5,0,0.6-0.2c0.1,0,0.1,0,0.2,0c0.2,0.3,0.3,0.5,0.4,0.6
			c0,0.2-0.9,0.4-1,0.8c-0.3,1.1,0.6,0.5,0.8,0.7c0.8-1.4,0.8-2.1,1.5-2.1C89.7,43.8,89.8,43.5,89.7,43.3z"/>
	</g>
	<path fill-rule="evenodd" clip-rule="evenodd" fill="#9D9295" d="M98.5,41.6c3.7,0.4,3.3-0.2,5.9-0.1c2.6,0.1,2.2,0.5,1.7,2.4
		c-0.6,1.9-2.9,5.7-2.9,5.7s-1.5,1.3-4.2,0.9c-2.7-0.4-4.8-0.3-4.8-0.3s-2.1-0.8-1.3-2.1c0.8-1.2,3.2-5.2,3.2-5.2
		S96.3,41.4,98.5,41.6z"/>
	<path fill-rule="evenodd" clip-rule="evenodd" fill="#F0EEEE" d="M105.1,46c-0.3-0.1-1,0-0.6-1c0.6-1.8-0.3-1.4-0.6-1.4
		c-3.4,0-3.7,0-7.1,0.1c-0.1,0-0.4-0.3-0.4-0.4c-0.3-0.7,0.3-0.9,0.7-1c1.2,0.1,0.1,0.2,1.3,0.3c2.8,0.3,4.6,0.5,7.4-0.2
		c0.2,0.1,0.5,0.2,0.7,0.3c0.3,0.3,0.2,0.6,0,0.9C105.6,43.6,105.4,44.8,105.1,46z"/>
	<path fill="#9D9295" d="M15.1,42.2c3.6-0.8-0.9,2.4-1.9,4.4c-1,2-1.3-0.4-4.5,0.5s-3.8,0.3-4.1-1.1s-0.1-3.2,2-3.5L15.1,42.2z"/>
	<path fill-rule="evenodd" clip-rule="evenodd" fill="#9D9295" d="M155.9,42.5c-0.1,0.4-0.2,0.7-0.3,1.1c-0.5,0.1-1.1,0.2-1.6,0.5
		c-0.6,0.3-0.7-0.2-0.8-0.7c-0.1-0.6,0.3-0.7,0.6-0.6C154.4,43,155.1,41.9,155.9,42.5z"/>
	<path fill-rule="evenodd" clip-rule="evenodd" fill="#F0EEEE" d="M12.8,44.2c-1.9,0.6-3.8,0.2-5.7,0.3c-0.3,0-0.7,0-0.7-0.6
		c0-0.7,0.4-0.4,0.7-0.3C8.9,44.3,10.9,43.3,12.8,44.2L12.8,44.2z"/>
	<path fill-rule="evenodd" clip-rule="evenodd" fill="#9D9295" d="M31.8,41.4c-4.2-0.2-10.4-0.9-11.3,1.9c-3.2,9.5-4.1,5.9,4.3,7
		c3.3,0.4,5.4,0.3,6.9-3C34.4,41,34.5,41.5,31.8,41.4z"/>
	<path fill-rule="evenodd" clip-rule="evenodd" fill="#F0EEEE" d="M22,42.6c1.2-0.2,2.4-0.6,3.7-0.4c0.5-0.1,0.9-0.2,1.4,0
		c1,0,2,0,3,0c0.6,0.3,1.6-0.2,2.2,0.6c-2.2,0.3-4.3,0.1-6.4,0.1C24.7,42.9,23.3,43.3,22,42.6z"/>
	<path fill-rule="evenodd" clip-rule="evenodd" fill="#9D9295" d="M49.1,41.2c-4.2-0.2-10.5-0.9-11.3,1.9c-1.8,6.1-6.2,7.5,2.6,7.3
		c3.4-0.1,6.8,0.8,8.3-2.6C51.4,41.5,51.8,41.3,49.1,41.2z"/>
	<path fill-rule="evenodd" clip-rule="evenodd" fill="#F0EEEE" d="M48.6,45.4c-0.2-0.1-0.7,0-0.5-1.1c0.5-2-0.2-1.6-0.5-1.6
		c-2.5,0-5.5,0.4-8,0.4c0,0-0.3-0.3-0.3-0.4c-0.3-0.8,0.2-1,0.5-1.1c0.9,0.1,0.1,0.3,1,0.3c2.1,0.3,6.2,0.2,8.3-0.6
		c0.2,0.1,0.3,0.3,0.5,0.4c0.2,0.3,0.2,0.6,0,1C49,42.7,48.8,44,48.6,45.4z"/>
	<path fill-rule="evenodd" clip-rule="evenodd" fill="#9D9295" d="M63.7,20.1c1.5-0.2,3-0.2,4.4,0h1.4c1-0.3,1.9-1.1,2.9-0.1
		c0.3-0.3,0.5-0.5,0.8-0.8c1-0.8,2.2-0.4,3.3-0.5c0.8-0.1,1,0.2,1.7-0.7c0.2-0.3,0.5-0.8,0.9-0.4c0.4,0.3,0.3,0.9-0.1,1.2
		c-0.5,0.8-1.1,0.2-1,2.1c-0.7-0.1-1.3,0.1-2,0l0,0c0,0,0,0,0,0c-0.3,0-0.8,0.2-0.9,0c-1.3-1.1-1.9,0.1-1.8,0.9
		c0.1,1.2-0.7,2.3-0.4,3.6c0.3,1,1,1.8,0.9,3.1l-3.2-0.2c0.6-1.4,0.2-2.9,1-4.2c-0.1-0.3-0.3-0.6-0.4-0.8c-0.5-0.2-1.3,0.4-1.6-0.5
		c0-0.1,0-0.2,0-0.2c0.3-1.1-0.2-1.3-1-1.4h-1.7c-0.8,0-1.6,0.1-2.4,0h-2.4v-1.1L63.7,20.1L63.7,20.1z"/>
	<path fill-rule="evenodd" clip-rule="evenodd" fill="#68432C" d="M71.7,24.2c0.2,0.6,0.1,1.5,1.2,1.2c-0.2-1.2,0.5-2.3,0.4-3.6
		c0-0.7,0.5-2,1.8-0.9c0.2,0.2,0.6,0,0.9,0c0-1.8-0.5-2.1-2.9-1.7c-0.3,0.3-0.5,0.5-0.8,0.8c-0.9,0.2-2.1,0-2.2,1.5
		c-0.1,0.9,0,1.6,1,1.8C71.4,23.6,71.5,23.9,71.7,24.2z"/>
	<path fill="none" stroke="#000000" stroke-miterlimit="10" d="M165.2,42c-0.6-4.3-9.2-2-15.4-0.4c-2,0.1-3.2,0.2-3.6,0.2
		c-0.3,0-0.6,0.2-1.1,0.8c-0.8,0.1-1.4,0.1-1.7,0c-1.2,0.2-2.7,0.2-4.2,0.2c-0.1-0.3-0.5-0.5-1.5-0.5c-2-0.1-1.7,0.5-4.4,0.1
		c-0.3,0-0.5,0-0.8,0.1c-0.3-1.2-0.1-2.5-0.8-3.6c0.1-0.3,0.3-0.5,0.4-0.8c0.1,0,0.2,0,0.3-0.1c0.5,0,1.1,0.3,1.4-0.4
		c0-0.1,0-0.2,0-0.2c-0.3-1.1,0.2-1.3,1-1.4h1.7c0.8,0,1.6,0.1,2.4,0h2.4v-1.1h-1.6c-1.5-0.2-3-0.2-4.4,0h-1.4
		c-1-0.3-1.9-1.1-2.9-0.1c-0.3-0.3-0.5-0.5-0.8-0.8c-1-0.8-2.2-0.4-3.3-0.5c-0.8-0.1-1,0.2-1.7-0.7c-0.2-0.3-0.5-0.8-0.9-0.4
		c-0.4,0.3-0.3,0.9,0.1,1.2c0.5,0.8,1.1,0.2,1,2.1c0.7-0.1,1.3,0.1,2,0c0,0,0,0,0,0c0.3,0,0.8,0.2,0.9,0c1.3-1.1,1.9,0.1,1.8,0.9
		c-0.1,1.2,0.6,2.3,0.4,3.5c-0.3,0.9-0.9,1.7-0.9,2.7c-1.8-0.2-4.7-1.1-6-0.9c-0.5,0.1-1.8,0.4-3.2,0.6c-2.1-0.1-4-0.1-4.2-0.1
		c-0.2,0-0.5-0.1-0.7-0.1c0.1-0.1,0.1-0.3,0.1-0.6c1.1,0,2.3,0,3.3,0.1c-1.4,0-2.5-0.1-3.3-0.1c-0.1-0.4-0.2-0.9,0-1.1
		c-0.2-2.6-0.2-1.4-0.1-3.9c0-1.4,0.1-6.6,0-7.3c-0.2-2.3-0.1-6.8-0.3-8.6c0-0.2-0.2-0.4-0.4-0.5c0-0.1,0-0.2,0-0.3
		c-0.2-1.6-7.3-1-9-1c-3.5,0-5,0.1-5.8-0.8c-0.3-0.9-0.3-2.4-0.4-4.7c0-1.4,0.8-6.4-0.5-7.8c-0.2-0.5-0.4-0.8-0.7-1
		c-2,5,2.4,14.4-4.6,14.5c-2.9,0-4.9,0-6.4,0.4c-0.5,0-0.7,0.1-0.7,0.2c-1.9,0.8-2.8,2.5-3.7,6.4c-0.7,3-3.4,3.4-6.7,3.2
		c0,0,0,0-0.1,0.1c-0.1,0-0.2,0-0.2,0l0,0c0.3-0.2,0.6-0.5,0.9-0.8c-0.8-0.2-1.6-0.3-2.3-0.5c-0.3-0.3-0.7-0.5-1-0.6
		c-0.2-0.7-0.6-1.2-0.8-1.9c-0.2-1.2,0.5-2.3,0.4-3.5c0-0.7,0.5-2,1.8-0.9c0.2,0.2,0.6,0,0.9,0c0,0,0,0,0,0c0.7,0.1,1.3-0.1,2,0
		c-0.1-1.8,0.5-1.2,1-2.1c0.4-0.4,0.5-0.9,0.1-1.2c-0.4-0.4-0.7,0.1-0.9,0.4c-0.6,0.9-0.8,0.6-1.7,0.7c-1.1,0.1-2.3-0.3-3.3,0.5
		c-0.3,0.3-0.5,0.5-0.8,0.8c-1-1-1.9-0.2-2.9,0.1h-1.4c-1.5-0.2-3-0.2-4.4,0h-1.6v1.1h2.4c0.8,0.1,1.6,0,2.4,0h1.7
		c0.8,0.1,1.3,0.3,1,1.4c0,0.1,0,0.2,0,0.2c0.3,0.7,0.9,0.4,1.4,0.4c0.1,0,0.2,0.1,0.3,0.1c0.1,0.3,0.3,0.5,0.4,0.8
		c-0.7,1.1-0.5,2.4-0.8,3.6c-1.4,0.1-2.7,0.2-4.1,0.1c-2-0.2-3.9,0-4.7,2.4c-0.3,0.9-1,1.8-1.3,2.7c-0.7,1.8-2.1,3.3-2,5.4
		c0,0,0.1,0,0.1,0c-0.6,1.1-0.5,0.8-0.1,1.1c-0.3,0.6-0.5,0.9-0.8,0.9c-0.1,0.1-0.4,0.1-0.7,0.2c0.5,0,1.1,0,1.6,0
		c-0.1,0.1-0.2,0.3-0.2,0.3c-3.3,0-6.5,0-9.8,0.1c-0.1-1-0.6-1.8-0.9-2.7c-0.2-1.2,0.5-2.3,0.4-3.5c0-0.7,0.5-2,1.8-0.9
		c0.2,0.2,0.6,0,0.9,0c0,0,0,0,0,0c0.7,0.1,1.3-0.1,2,0c-0.1-1.8,0.5-1.2,1-2.1c0.4-0.4,0.5-0.9,0.1-1.2c-0.4-0.4-0.7,0.1-0.9,0.4
		c-0.6,0.9-0.8,0.6-1.7,0.7c-1.1,0.1-2.3-0.3-3.3,0.5c-0.3,0.3-0.5,0.5-0.8,0.8c-1-1-1.9-0.2-2.9,0.1h-1.4c-1.5-0.2-3-0.2-4.5,0
		h-1.6v1.1h2.4c0.8,0.1,1.6,0,2.4,0h1.7c0.8,0.1,1.3,0.3,1,1.4c0,0.1,0,0.2,0,0.2c0.3,0.7,0.9,0.4,1.4,0.4c0.1,0,0.2,0.1,0.3,0.1
		c0.1,0.3,0.3,0.5,0.4,0.8c-0.7,1.2-0.4,2.6-0.9,3.9c-3.1-0.1-6.7-0.2-8.4,0.6c-1.3,0.1-2.5,0.2-3.9,0.2c0-0.5-0.6-0.5-1.9-0.6
		c-3.9-0.1-9.7-0.5-11.1,0.9c-1.4,0.1-2.9,0.3-4.3,0.5c0.3-0.5,0.1-0.8-1.2-0.5l-8.5,0.4c-2.1,0.3-2.3,2.1-2,3.5
		c0.1,0.3,0.1,0.5,0.2,0.8C4.8,47.7,5,49,5.2,49.5C6,51.1,9,51,10.1,51.2c1.2,0.2,11.8,2.2,11.9,4.1c0,0.4-1.5,1.5-1.5,1.4
		c-1.1,1.5,0.4,7.8,0.6,9.6c0.7,5.9,3.3,5.1,6.6,7.9c1.6,1.3,3.2,3.1,4.9,3.9c1.4,0.7,3.8-0.4,5.3-0.4c5-0.1,10-0.1,15-0.2
		c4.6-0.1,9.9-1.2,14.5,0.3c1.9,0.6,3.3,5,4.3,7.1c1.5,3,1.7,3,4.1,3.2c8.2,0.7,17,0.8,25.4,0.8c3.1,0,5.7,0.9,8.7,0.6
		c3.9-0.4,7.3-4.9,11.4-5.6c7.6-1.3,15.3-4.8,22.4-8.5c2.9-1.5,6.4-4,8.8-6.9c1.2-1.5,0.3-3.4,1.2-4.8c0.9-1.5,2.5-2.3,3.5-3.8
		C159,57.6,167,45.4,165.2,42z M33,75.6c0.1,2.6-6.6-3.2-6.6-4.6c0.1-2.2-0.8-12.4,0.4-13.6c1,2.6,1.7,5.1,2.2,8.4
		c0.3,1.5,0.5,2.5,0.2,3c-0.5,0-0.9,0-1.3,0.5c-0.2,0.2-0.7,0-0.6,0.7c-0.1,0.2-0.2,0.3-0.1,0.5c0.2,0.8,3.5,0,4.2,0.5
		C33.5,72.4,32.9,71.7,33,75.6C33,75.8,33,76.2,33,75.6z M59.9,76.2c-5.2,0.1-10.5,0.2-15.7,0.3c-2.2,0-4.3,0.1-6.5,0.1
		c-2.9,0.1-2.6-1.1-1.9-5.1c2.4,1,6.4-0.3,9.1-0.3c3,0,6.4-0.7,9.2,0.9c0.9,0.6,6.1,2.2,6.4,3.4C60.4,75.9,60.2,76.1,59.9,76.2z"/>
	<path fill="none" stroke="#000000" stroke-miterlimit="10" d="M168.2,50.9"/>
</g>
<g id="SubGradient">
	<g id="Submarine">
		<path fill-rule="evenodd" clip-rule="evenodd" fill="#9D9295" d="M38.9,33.1c1.5-0.2,3-0.2,4.5,0h1.4c1-0.3,1.9-1.1,2.9-0.1
			c0.3-0.3,0.5-0.5,0.8-0.8c1-0.8,2.2-0.4,3.3-0.5c0.8-0.1,1,0.2,1.7-0.7c0.2-0.3,0.5-0.8,0.9-0.4c0.4,0.3,0.3,0.9-0.1,1.2
			c-0.5,0.8-1.1,0.2-1,2.1c-0.7-0.1-1.3,0.1-2,0l0,0c0,0,0,0,0,0c-0.3,0-0.8,0.2-0.9,0c-1.3-1.1-1.9,0.1-1.8,0.9
			c0.1,1.2-0.7,2.3-0.4,3.6c0.3,1,1,1.8,0.9,3.1l-3.2-0.2c0.6-1.4,0.2-2.9,1-4.2c-0.1-0.3-0.3-0.6-0.4-0.8c-0.5-0.2-1.3,0.4-1.6-0.5
			c0-0.1,0-0.2,0-0.2c0.3-1.1-0.2-1.3-1-1.4h-1.7c-0.8,0-1.6,0.1-2.4,0h-2.4v-1.1L38.9,33.1L38.9,33.1z"/>
		<path fill-rule="evenodd" clip-rule="evenodd" fill="#68432C" d="M46.9,37.2c0.2,0.6,0.1,1.5,1.2,1.2c-0.2-1.2,0.5-2.3,0.4-3.6
			c0-0.7,0.5-2,1.8-0.9c0.2,0.2,0.6,0,0.9,0c0-1.8-0.5-2.1-2.9-1.7c-0.3,0.3-0.5,0.5-0.8,0.8c-0.9,0.2-2.1,0-2.2,1.5
			c-0.1,0.9,0,1.6,1,1.8C46.6,36.7,46.8,36.9,46.9,37.2z"/>
		<path fill="#68432C" d="M115.7,40.4c-0.2-2.6-0.2-1.4-0.1-3.9c0-1.4,0.1-6.6,0-7.3c-0.2-2.3-0.1-6.8-0.3-8.6c-0.2-1.6-7.3-1-9-1
			c-6.5,0-6.4,0.3-6.6-6.3c0-1.5,0.9-7.1-0.8-8.1c-2,5,2.4,14.4-4.6,14.5c-7.5,0.1-9.2,0.1-10.8,7.1c-1.6,6.7-13.3,0.6-18.6,2.7
			c-3.8,0.8-5.1,11.8-6.5,11.8c-0.1,0.1-0.4,0.1-0.7,0.2c20.5,0.4,49.9,0.9,61.6,1.1c-1.7,0-3.1-0.1-3.9-0.2
			C116.1,42.1,115.3,40.8,115.7,40.4z"/>
		<g>
			
				<radialGradient id="SVGID_1_" cx="94.8633" cy="61.5669" r="62.8929" gradientTransform="matrix(0.9999 1.224398e-02 -5.368799e-03 0.4385 0.3377 33.4113)" gradientUnits="userSpaceOnUse">
				<stop  offset="4.920000e-02" style="stop-color:#F0EEEE"/>
				<stop  offset="0.6685" style="stop-color:#9D9295"/>
			</radialGradient>
			<path fill="url(#SVGID_1_)" d="M69.4,28.3c-1-0.1-2-0.1-2.8,0c0.1,0,0.1,0,0.2,0C67.7,28.3,68.5,28.3,69.4,28.3z"/>
			
				<radialGradient id="SVGID_00000030479491936187704570000009609756464233366206_" cx="97.0074" cy="30.6427" r="27.7345" fx="93.4386" fy="30.6478" gradientUnits="userSpaceOnUse">
				<stop  offset="3.480000e-02" style="stop-color:#F0EEEE"/>
				<stop  offset="0.616" style="stop-color:#9D9295"/>
				<stop  offset="0.8722" style="stop-color:#736E6B"/>
			</radialGradient>
			<path fill="url(#SVGID_00000030479491936187704570000009609756464233366206_)" d="M115.2,41.5c0.6-0.1-0.3-1.5,0.2-1.8
				c-0.2-2.6-0.2-1.4-0.1-3.9c0-1.4,0.1-6.6,0-7.3c-0.2-2.3-0.1-6.8-0.3-8.6c-0.2-1.6-7.3-1-9-1c-6.5,0-6.4,0.3-6.6-6.3
				c0-1.5,0.9-7.1-0.8-8.1c-2,5,2.4,14.4-4.6,14.4C86.6,19,84.9,19,83.2,26c-0.7,3-3.4,3.4-6.7,3.2c0,0,0,0-0.1,0.1
				c-4.2-0.4-12.4-2.8-15,3.7c-3,7.5-3.3,6.1-2.5,6.6c-0.3,0.6-0.5,0.9-0.8,0.9c-0.1,0.1-0.4,0.1-0.7,0.2
				c15.5,0.3,44.8,0.8,61.6,1.1C117.3,41.6,115.9,41.6,115.2,41.5z"/>
		</g>
		<path fill-rule="evenodd" clip-rule="evenodd" fill="#9D9295" d="M139.9,34.8c-1.5-0.2-3-0.2-4.4,0h-1.4c-1-0.3-1.9-1.1-2.9-0.1
			c-0.3-0.3-0.5-0.5-0.8-0.8c-1-0.8-2.2-0.4-3.3-0.5c-0.8-0.1-1,0.2-1.7-0.7c-0.2-0.3-0.5-0.8-0.9-0.4c-0.4,0.3-0.3,0.9,0.1,1.2
			c0.5,0.8,1.1,0.2,1,2.1c0.7-0.1,1.3,0.1,2,0l0,0c0,0,0,0,0,0c0.3,0,0.8,0.2,0.9,0c1.3-1.1,1.9,0.1,1.8,0.9
			c-0.1,1.2,0.7,2.3,0.4,3.6c-0.3,1-1,1.8-0.9,3.1l3.2-0.2c-0.6-1.4-0.2-2.9-1-4.2c0.1-0.3,0.3-0.6,0.4-0.8c0.5-0.2,1.3,0.4,1.6-0.5
			c0-0.1,0-0.2,0-0.2c-0.3-1.1,0.2-1.3,1-1.4h1.7c0.8,0,1.6,0.1,2.4,0h2.4v-1.1L139.9,34.8L139.9,34.8z"/>
		<path fill-rule="evenodd" clip-rule="evenodd" fill="#68432C" d="M131.9,38.9c-0.2,0.6-0.1,1.5-1.2,1.2c0.2-1.2-0.5-2.3-0.4-3.6
			c0-0.7-0.5-2-1.8-0.9c-0.2,0.2-0.6,0-0.9,0c0-1.8,0.5-2.1,2.9-1.7c0.3,0.3,0.5,0.5,0.8,0.8c0.9,0.2,2.1,0,2.2,1.5
			c0.1,0.9,0,1.6-1,1.8C132.2,38.3,132,38.6,131.9,38.9z"/>
		<path fill-rule="evenodd" clip-rule="evenodd" fill="#F0EEEE" d="M100.8,19.8c-0.8,0-1.6,0-2.4,0c-3.3,0.4-6.6,0-9.9,0.1l-0.2-0.1
			c0-0.2-0.1-0.4-0.3-0.4c-2.1-0.4-0.5,1-0.7,1.5c0.3,0.3,0.5,0.2,0.8,0l0,0c2,0.8,4.1,0.7,6.4,0.5c-1.1,0.9-1.5,1.5-1.7,2.4
			c0,0,0,0,0,0c0-0.3,0-0.7,0.1-1c-0.1-0.2-0.2-0.3-0.3-0.4c-0.9-0.1-1.6,0.2-2.2,0.8c-0.4,0.9,0,2.2-1.1,2.8c-0.5,0.5-1.3,1-1,1.8
			c0.3,0.7,1.2,0.3,1.9,0.3c0.8,0,1.5,0,1.9,0.6c0,0,0,0.1-0.1,0.1c-0.1-0.3-0.3-0.4-0.7-0.2c-0.5,0.3-0.3,0.8-0.2,1.3
			c0.1,0.6,0.5,1,1,1.2c0.2,0.1,0.3,0.1,0.5,0.1c1-0.3,1.5-1.1,2.2-1.8c0.4-0.6,0.8-1.1,1.2-1.7c-0.9-0.9,0.2-1.2,0.5-1.7
			c-1.5-0.3-0.4-2.6-2.3-2.7c1.3-0.4,2.4-1.6,3.9-0.7c0.1,0.2,0.2,0.2,0.4,0.1c0.6,0,1.2-0.1,1.8-0.1c1.6-0.1,0.1-2.2,1.5-2.4
			C101.4,20.3,101.1,20,100.8,19.8z"/>
		<path fill-rule="evenodd" clip-rule="evenodd" fill="#736E6B" d="M113.4,37.9c0-0.4,0-0.8,0-1.2c0-0.8,0-1.7,0-2.5c0,0,0,0,0,0
			c0,0,0,0,0,0c0.1-0.8,0.2-1.5-0.4-2.3c-0.6-0.9-2-2,0.5-2.2c0.3,0.3,0.4,0.7,0.3,1.3c1.3-0.4,1.8-3.9-1.8-4.3
			c-0.1-0.1-0.1-0.2-0.2-0.3c0.5-0.5,2.9,0.2,2-1.1c-1.1-1.5-0.3-2.8,0.5-4.2c0.9-1.3-0.6-1.4-2.2-1.3c-0.7,0-1.3,0.1-2,0.1
			c-1,0.2-1,0.4-0.1,0.7c1,0.3,1.7,0.9,1,1.5c-1.6,1.4-0.7,2.7-0.2,4c-0.1,0.2-0.2,0.4-0.3,0.6c-0.9,0.1-1.9,0.3-3.1,0.7
			c-2.3-0.2-4.5,0-6.8-0.3c-2.9-0.4-1.8,3.1-3.9,2.2c0,0-7.4,9.3-7.5,9.1c-0.8,0.2-9.8,1.6-3.9,2.5c2,1,4.6-0.1,6.4-0.4
			c0,0.2,4.1,0.3,5,0.7c1.6-0.9,1.6-3,3.1-3.9c3.3-2.1-1.4-4.9,1.8-6.9c0,0-0.6-0.3-1.1-0.6c-1,0.1-1.6,0-1.6-0.3
			c0-0.4,0.8-0.1,1.6,0.3c0.4,0,0.8-0.1,1.2-0.1c1,0.3,1.9,0.5,2.7,0.6c4,0.3,7.1,1.4,6.3,3.7l0,0c-0.3,0.2-0.5,0.5-0.8,0.7
			c0.1,0.6-0.3,1.1-0.9,1.6c-1.2,1,0.1,1.2,1.5,1.3c-0.3,0.6,0.8,1.1,0.2,1.7c-0.6,0.6-0.4,1.3,0.6,1.6c0.7,0.2,1.1-0.7,2.1-0.6
			c0.6-0.5,0.8,0,1.3-0.7C111.8,39.2,113.1,39.2,113.4,37.9z"/>
		<path fill-rule="evenodd" clip-rule="evenodd" fill="#F0EEEE" d="M109,39.3c-3,0.4-5.9-0.1-8.7,0.5c-0.4,0.1-1,0.2-1.2-0.4
			c-0.1-0.3,0-0.8,0.3-0.9c1.8-0.1,1.5-1.8,1.9-2.8c0.9-2.3,2.9-3.3,4.6-4.7c1-0.8,2,0,2,1.3c0,1.4-0.5,3.1,1.6,3.5
			c0.3,0.1,0.3,0.5,0.3,0.9c0,0.8-0.6,0-0.8,0.3c-0.6,0.8-2-1.1-2.3,0.6C106.6,39,108.4,38.2,109,39.3z"/>
		<path fill-rule="evenodd" clip-rule="evenodd" fill="#F0EEEE" d="M107.6,24.6c-0.2,0-0.6-0.1-0.6-0.2c-0.1-0.8,0.6-1.4,0.4-2.4
			c-0.1-0.4,0.9-0.4,1.4-0.5c0.1,0,0.3,0,0.4,0.1c0.7,0.9-0.6,1.5-0.3,2.4C109,24.6,108.2,24.6,107.6,24.6z"/>
		<path fill-rule="evenodd" clip-rule="evenodd" fill="#9D9295" d="M109,33.9c-0.3,0.9-1.3,0.9-2,1.3c-0.4,0.2-0.8-0.2-0.7-0.7
			c0.1-1,0.8-1.4,1.6-1.6C108.4,32.8,108.8,33.1,109,33.9z"/>
		
			<radialGradient id="SVGID_00000003819298696022684790000008292617324014757766_" cx="81.1957" cy="62.6426" r="72.097" gradientTransform="matrix(0.9999 1.224398e-02 -6.483061e-03 0.5294 0.4122 28.4823)" gradientUnits="userSpaceOnUse">
			<stop  offset="0.2698" style="stop-color:#F3926B"/>
			<stop  offset="0.4672" style="stop-color:#E36B35"/>
			<stop  offset="1" style="stop-color:#68432C"/>
		</radialGradient>
		<path fill="url(#SVGID_00000003819298696022684790000008292617324014757766_)" d="M165.3,42c-0.9-6.4-19.4,1.8-21.8,0.5
			c-2.4,0.4-5.9,0.2-8.7,0.2c-1.6,0-3.1,0.1-4.7,0.1c-1.8-0.1-5-1.2-6.4-1c-0.7,0.1-3.2,0.8-5.1,0.6c-1.4,0.5-2.7,0-4.1-0.2
			c-0.2,0.1-0.5,0.1-0.8,0.1c-0.4,0-1.5,0-2.7,0l0,0c0,0,0,0-0.1,0c-0.8,0-1.7,0-2.5-0.1c-6-0.1-21.1-0.5-31.6-0.8
			c-0.2,0-0.5,0-0.7,0c-6.5-0.2-11-0.3-10.1-0.3c-1.9,0-3.9-0.1-5.8-0.1c-7.5-0.1-14.9,0.1-22.4,0.7c-7.1,0.6-15.4-0.3-22.8,1.4
			c-0.9,0.1-4.4-0.1-5.1,0.8c-0.5,0.6-5,1.5-4.1,2.1c-1.1-0.4-0.8,2.8-0.4,3.5c0.8,1.6,3.8,1.5,4.9,1.7c1.2,0.2,11.7,2.2,11.9,4.1
			c0,0.4-1.5,1.5-1.5,1.4c-1.1,1.5,0.4,7.8,0.6,9.6c0.7,5.9,3.3,5.1,6.6,7.9c1.6,1.3,3.2,3.1,4.9,3.9c1.4,0.7,3.8-0.4,5.3-0.4
			c5-0.1,10-0.1,15-0.2c4.6-0.1,9.9-1.2,14.5,0.3c1.9,0.6,3.3,5,4.3,7.1c1.5,3,1.7,3,4.1,3.2c8.2,0.7,17,0.8,25.4,0.8
			c3.1,0,5.7,0.9,8.7,0.6c3.9-0.4,7.3-4.9,11.4-5.6c7.6-1.3,15.3-4.8,22.4-8.5c2.9-1.5,6.4-4,8.8-6.9c1.2-1.5,0.3-3.4,1.2-4.8
			c0.9-1.5,2.5-2.3,3.5-3.8C159.2,57.6,167.1,45.5,165.3,42z M33.1,75.6c0.1,2.6-6.6-3.2-6.6-4.6c0.1-2.2-0.8-12.4,0.4-13.6
			c1,2.6,1.7,5.1,2.2,8.4c0.4,2.1,0.8,3.1-0.6,3.5c-0.2,0.1-1.4,0.6-1.2,1.2c0.2,0.8,3.5,0,4.2,0.5C33.6,72.4,33,71.7,33.1,75.6
			C33.2,75.9,33.2,76.3,33.1,75.6z M60,76.3c-5.2,0.1-10.5,0.2-15.7,0.3c-2.2,0-4.3,0.1-6.5,0.1c-2.9,0.1-2.6-1.1-1.9-5.1
			c2.4,1,6.4-0.3,9.1-0.3c3,0,6.4-0.7,9.2,0.9c0.9,0.6,6.1,2.2,6.4,3.4C60.5,75.9,60.3,76.2,60,76.3z"/>
		<path fill-rule="evenodd" clip-rule="evenodd" fill="#E36B35" d="M21.7,62.2c-0.2-2.8-1.2-5.5,0.4-4c0.5-0.5,0.5-2.7,1.5-1.8
			c0.9,0.9,1.2,4,1.2,5.5c0,1.7-0.6,4.2,0.1,5.7c0.8,2.1-2.8,2.9-2.7,0.8c0.6-0.2,0.9,1,0.9-2c0-0.9-0.3-4.1-1.2-2.7
			C21.7,63.4,21.9,62.1,21.7,62.2C21.6,60.8,21.9,62.1,21.7,62.2z"/>
		<path fill-rule="evenodd" clip-rule="evenodd" fill="#9D9295" d="M40.6,70.8c-0.7,0.5-1.4,0-2.1,0.3c-0.2,0.1-0.5-0.1-0.6,0.1
			c-0.5,1.1-0.9,0.4-1.4,0.1c-0.1-0.1-0.3-0.1-0.5-0.2c0.2-0.4,0.6-0.7,0.4-1.2c-0.2-0.9,0-1.7,0-2.6c-0.2-1.7-0.2-1.9,0.7-1.6
			c0.1,0.6,0.5,1,0.5,1.9c0,0.6,0.7,0.5,1,0.5c3.4,0.1,6.8,0.2,10.1,0c1.2-0.1,2.4,0.2,3.6-0.3c0.3-0.1,0.5,0.1,0.5,0.4
			c0,0.3-0.1,0.5-0.4,0.7c-0.7,0.6-1.4,0.2-2.1,0.2c-3.5,0.1-7,0.1-10.4,0c-0.8,0-1.8,0.2-2.7,0.3c0.2,1.1,0.6,1.6,1.4,1.5
			C39.3,70.7,40,70.6,40.6,70.8z"/>
		<path fill-rule="evenodd" clip-rule="evenodd" fill="#E36B35" d="M33.1,67.5c0.1-0.4,0.8-0.4,0.4-1.1c-0.2-0.4-0.6-0.2-0.9,0.1
			c-0.8,0.7-1.6,0.5-1.8-0.3c-0.1-0.5-0.1-0.8,0.2-1c0.3-0.2,0.5-0.3,0.7,0.2c0.2,0.7,0.6,0.6,0.9,0.5c0.9-0.4,1.3,0.7,1.8,1.4
			c0.2,0.3,0.1,0.6-0.2,0.7c-0.3,0.1-0.6,0.2-0.9,0.3C33.3,68.1,33.2,67.8,33.1,67.5z"/>
		<path fill-rule="evenodd" clip-rule="evenodd" fill="#9D9295" d="M33.1,67.5c0.4,0,0.4,0.4,0.3,0.8c-0.7,0.3-1.2,1.1-2,0.9
			c-0.4-0.1-0.8-0.2-1-0.7C31.1,67.5,32.3,68.7,33.1,67.5z"/>
		<path fill-rule="evenodd" clip-rule="evenodd" fill="#9D9295" d="M30.7,69.9c-0.8,0.2-1.6,0.4-2.4,0.6c-0.3,0.1-0.7,0.4-0.9-0.3
			c-0.2-0.8,0.4-0.5,0.5-0.8c0.4-0.5,0.9-0.6,1.4-0.5C29.4,70.4,30.4,69.2,30.7,69.9z"/>
		<path fill-rule="evenodd" clip-rule="evenodd" fill="#E36B35" d="M37.1,65.7c-1.1-0.3-0.5,1.1-0.7,1.6c-0.5-0.8-0.4-1.7-0.2-2.5
			c0.1-0.6,0.6-0.9,0.9-0.5C37.6,64.7,37,65.2,37.1,65.7z"/>
		<path fill-rule="evenodd" clip-rule="evenodd" fill="#9D9295" d="M33.8,76.6c1.1-0.7,0.2-2.3,0.8-3.4c0.3,1.2,0.2,2.3,0.1,3.4
			C34.7,77,34.2,76.9,33.8,76.6z"/>
		<path fill-rule="evenodd" clip-rule="evenodd" fill="#9D9295" d="M152.4,41.5c-3.4,0-5.6,0.3-6.1,0.3s-1.2,0.5-1.9,2.7
			c-0.7,2.2-2.1,5.8-2.1,5.8s-1.1,1.5,0.5,1.4s5.1,0,5.8,0c1.2,0,2-1.5,2.4-2.7s1.9-5.3,1.9-5.3S154.2,41.5,152.4,41.5z"/>
		<path fill="#9D9295" d="M161.8,40.3c-1.3,0.2-2.5,0.3-2.7,0.6s-1,1.8-1.2,2.5c-0.3,0.8-1.2,5.1-1.9,5.7s-1.4,2.7,0.7,2.6
			s5.1,0.6,5.4-0.2s2.4-4.8,2.6-5.5s1.3-5.3-0.9-5.8C162.7,39.9,163.1,40.1,161.8,40.3z"/>
		<path fill-rule="evenodd" clip-rule="evenodd" fill="#9D9295" d="M133.5,42.4c2.7,0.4,2.4-0.2,4.4-0.1c2,0.1,1.7,0.5,1.2,2.5
			c-0.4,2-2.1,5.9-2.1,5.9s-1.1,1.3-3.1,1s-3.6-0.3-3.6-0.3s-1.6-0.9-1-2.2c0.6-1.3,2.3-5.4,2.3-5.4S131.9,42.1,133.5,42.4z"/>
		<path fill-rule="evenodd" clip-rule="evenodd" fill="#F0EEEE" d="M163.7,45.9c-0.2,0-0.1,0.3-0.3,0.3c-0.5-0.1-0.5-0.9-0.2-1.2
			c0.8-1,0.1-1.4-0.3-2.2c-0.6-1,0.8-1.2,1.3-1.5c0.1-0.2,0.8,0.5,0.7,1C164.8,43.8,164.2,44.7,163.7,45.9z"/>
		<path fill-rule="evenodd" clip-rule="evenodd" fill="#F0EEEE" d="M152.7,43.8c-0.5-0.7-0.4,2.9-1.2,0.5c0-0.1-0.3,1-0.5,0.4
			c-0.8-1.7-0.7-1.3-1.1,0c-0.2-1.6-0.3-1.3-0.8-1c-1.2,0.9-2.5-0.6-4.5,0.7c-0.1,0.3,0.3-0.5,0-0.8c-0.1-0.5,1-0.3,1-0.8
			c2-0.4,2.4,0.9,4.4,0c0.1-0.4,0.7-0.4,0.9-0.7c0.1-0.1,0.1,0.3,0.3,0.3c0.1,0,0.3-0.3,0.3-0.1c0.4,0.2,0.9-0.2,1.3,1.3
			C152.8,43.8,152.7,43.8,152.7,43.8z"/>
		<path fill-rule="evenodd" clip-rule="evenodd" fill="#F0EEEE" d="M138.4,47c-0.2-0.1-0.7,0-0.5-1.1c0.5-2-0.2-1.6-0.5-1.6
			c-2.5,0-2.7,0-5.2,0.1c0,0-0.3-0.3-0.3-0.4c-0.3-0.8,0.2-1,0.5-1.1c0.9,0.1,0.1,0.3,1,0.3c2.1,0.3,3.4,0.6,5.5-0.3
			c0.2,0.1,0.3,0.3,0.5,0.4c0.2,0.3,0.2,0.6,0,1C138.7,44.3,138.6,45.6,138.4,47z"/>
		<path fill-rule="evenodd" clip-rule="evenodd" fill="#9D9295" d="M139.4,44.2c0-0.3,0-0.7,0-1c1.6,0,3.9,0.1,5.7-0.4
			c0,0.4-0.6,1.1-0.6,1.5c-0.6,0-1.9,0.4-3.7,0C140.3,44.2,139.8,45.7,139.4,44.2z"/>
		<path fill-rule="evenodd" clip-rule="evenodd" fill="#736E6B" d="M111.4,85.5c0.3-1.7,0.5-3.4,0.4-5.1c-0.1,0.6-0.2,1.3-0.4,1.8
			c-0.2-0.5-2.5-0.4-3-0.2c-1.4,0.4-0.1,1.1-0.9,2.2c0.6-0.8-5.1-1.7-5.4-1.7c-2.5,0.1-5.6,0.3-8.1-0.2c-5.4-0.9-11.3,0.2-16.5-2.6
			c0.2,2.2,1.8,0.8,1.9,3c-0.2,0-6.6,0.2-5.5-2.2c-2.7,5.6,8.7,2.2,8.5,1.9c-0.4,0-0.6,0.3-0.7,0.8c0.8,0.9,4.8,1.8,5.9,1.4
			c0.8-0.3,0.4,1.6,1.2,1.6c1.4-0.1,2.9,0.3,4.3-0.2c1.5-0.8,7.8-2.1,9.6-0.7c-1.8,1.1,3.9,1.4,3.9,1.4c1.4,1.5,2.4,1,4.2,1.3
			C112.1,88.2,111.3,86.2,111.4,85.5C111.8,84,111.3,86.4,111.4,85.5z"/>
		<path fill-rule="evenodd" clip-rule="evenodd" fill="#9D9295" d="M125.7,42.6c-2.8-0.3-8.9-0.3-9.4-0.4c-3.3-0.5-2.9,0.6-5,3.4
			c-0.9,1.1-4,4.6-0.4,4.9c3.6,0.3,10.5,0.6,10.9,0.2c0.4-0.4,0.8-0.4,2.6-2.8C126,45.5,128.7,42.4,125.7,42.6"/>
		<path fill-rule="evenodd" clip-rule="evenodd" fill="#F0EEEE" d="M125.2,45.3c-0.4-0.1-1.6,0.6-1.2-0.4c0.2-0.5-0.8-0.7-1.2-0.7
			c-4.1,0-4.4,0-8.5,0.1c-0.1,0-0.5-0.3-0.5-0.4c-0.4-0.8,0.3-0.9,0.9-1.1c1.4,0.1,0.1,0.2,1.5,0.3c3.3,0.3,5.1,0.8,8.5,0
			c0.3,0.1,1,0,1.2,0.1c0.3,0.3,0.5,0.7,0.3,1C125.2,44.2,125.5,44,125.2,45.3z"/>
		<path fill-rule="evenodd" clip-rule="evenodd" fill="#9D9295" d="M78.2,49.9c2.8,0.5,4.4,0.5,7,0s5.7-5.5,6.7-6.6s-3.2-2.2-11-1.8
			c-2.8,0.1-7,5.8-7.3,6.6c-0.4,0.7,2.1,1.5,2.1,1.5"/>
		<path fill-rule="evenodd" clip-rule="evenodd" fill="#9D9295" d="M66.6,41.5c-2.8-0.3-8.9-0.3-9.4-0.4c-3.3-0.5-2.9,0.6-5,3.4
			c-0.9,1.1-4,4.6-0.4,4.9s10.5,0.6,10.9,0.2c0.4-0.4,0.8-0.4,2.6-2.8C67,44.4,69.7,41.3,66.6,41.5"/>
		<path fill-rule="evenodd" clip-rule="evenodd" fill="#F0EEEE" d="M66.2,44.2c-0.4-0.1-1.6,0.6-1.2-0.4c0.2-0.5-0.8-0.7-1.2-0.7
			c-4,0-4.4,0-8.5,0.1c-0.1,0-0.5-0.3-0.5-0.4c-0.4-0.8,0.3-0.9,0.9-1.1c1.4,0.1,0.1,0.2,1.5,0.3c3.3,0.3,5.1,0.8,8.5,0
			c0.3,0.1,1,0,1.2,0.1c0.3,0.3,0.5,0.7,0.3,1C66.1,43.1,66.4,42.9,66.2,44.2z"/>
		<path fill-rule="evenodd" clip-rule="evenodd" fill="#9D9295" d="M68,43.4c0-0.3,0-0.7,0-1c2.6,0,6.3,0.1,9.3-0.4
			c0,0.4-1,1.1-1,1.5c-1,0-3.2,0.4-6,0C69.5,43.3,68.7,44.8,68,43.4z"/>
		<g>
			<path fill-rule="evenodd" clip-rule="evenodd" fill="#F0EEEE" d="M77.9,44.1C77.9,44.1,77.9,44.1,77.9,44.1
				C77.8,44.2,77.8,44.2,77.9,44.1z"/>
			<path fill-rule="evenodd" clip-rule="evenodd" fill="#F0EEEE" d="M89.9,43.4C89.9,43.4,89.9,43.4,89.9,43.4
				c-0.5-1.6-1.2-1.1-1.9-1.3c-0.1-0.2-0.4,0.1-0.5,0.1c-0.2,0-0.2-0.4-0.4-0.3c-0.3,0.3-1.2,0.3-1.4,0.7c-1.1,0.3-1.8,0.4-2.4,0.3
				c-0.1-0.1,0.1-0.2-0.5-0.2c-0.1,0-0.2,0.1-0.2,0.1c-0.9-0.2-1.8-0.4-3.2-0.2c0.1,0.5-1.6,0.3-1.4,0.8c0.2,0.2,0.1,0.6,0,0.8
				c1.7-0.8,3.1-0.5,4.4-0.4c0,0,0,0.1,0,0.1c0,0.1,0.3,0.4,0.3,0.4c1.5,0,2.2-0.1,3-0.1c0,0.1,0,0.2,0,0.3c0-0.1,0.1-0.2,0.1-0.3
				c0.4,0,0.8,0,1.3,0c0.1,0.1,0.1,0.1,0.2,0.2c0.3,0.4,0.5,0,0.6-0.2c0.1,0,0.1,0,0.2,0c0.2,0.3,0.3,0.5,0.4,0.6
				c0,0.2-0.9,0.4-1,0.8c-0.3,1.1,0.6,0.5,0.8,0.7c0.8-1.4,0.8-2.1,1.5-2.1C89.9,43.8,89.9,43.6,89.9,43.4z"/>
		</g>
		<path fill-rule="evenodd" clip-rule="evenodd" fill="#9D9295" d="M98.6,42c3.7,0.3,3.3-0.2,5.9-0.1c2.6,0.1,2.2,0.5,1.7,2.2
			c-0.6,1.7-2.9,5.2-2.9,5.2s-1.5,1.2-4.2,0.8s-4.8-0.3-4.8-0.3s-2.1-0.8-1.3-1.9c0.8-1.1,3.2-4.7,3.2-4.7S96.4,41.8,98.6,42z"/>
		<path fill-rule="evenodd" clip-rule="evenodd" fill="#F0EEEE" d="M105.3,46.1c-0.3-0.1-1,0-0.6-1c0.6-1.8-0.3-1.4-0.6-1.4
			c-3.4,0-3.7,0-7.1,0.1c-0.1,0-0.4-0.3-0.4-0.4c-0.3-0.7,0.3-0.9,0.7-1c1.2,0.1,0.1,0.2,1.3,0.3c2.8,0.3,4.6,0.5,7.4-0.2
			c0.2,0.1,0.5,0.2,0.7,0.3c0.3,0.3,0.2,0.6,0,0.9C105.8,43.7,105.5,44.9,105.3,46.1z"/>
		<path fill="#9D9295" d="M15.3,42.3c3.6-0.8-0.9,2.4-1.9,4.4c-1,2-1.3-0.4-4.5,0.5s-3.8,0.3-4.1-1.1s-0.1-3.2,2-3.5L15.3,42.3z"/>
		<path fill-rule="evenodd" clip-rule="evenodd" fill="#9D9295" d="M156,42.6c-0.1,0.4-0.2,0.7-0.3,1.1c-0.5,0.1-1.1,0.2-1.6,0.5
			c-0.6,0.3-0.7-0.2-0.8-0.7c-0.1-0.6,0.3-0.7,0.6-0.6C154.6,43,155.3,42,156,42.6z"/>
		<path fill-rule="evenodd" clip-rule="evenodd" fill="#F0EEEE" d="M12.9,44.2c-1.9,0.6-3.8,0.2-5.7,0.3c-0.3,0-0.7,0-0.7-0.6
			c0-0.7,0.4-0.4,0.7-0.3C9.1,44.3,11,43.3,12.9,44.2L12.9,44.2z"/>
		<path fill-rule="evenodd" clip-rule="evenodd" fill="#9D9295" d="M31.9,41.3c-4.2-0.1-10.4-0.6-11.3,1.2c-1.1,2.2-4.1,3.7,4.3,4.4
			c3.3,0.3,5.1,0.7,6.6-1.4C34.2,41.6,34.7,41.4,31.9,41.3z"/>
		<path fill-rule="evenodd" clip-rule="evenodd" fill="#F0EEEE" d="M18.2,49.9c-0.4,0-0.8-0.1-0.8-0.7c0-0.2,0.6-0.7,0.8-0.6
			c1.3,0.7,2.6,0,3.9,0.2c2,0.3,4-0.1,6-0.2c0.5,1.2,0.1,1.8-0.7,1.8C24.3,50.4,21.3,50.5,18.2,49.9z"/>
		<path fill-rule="evenodd" clip-rule="evenodd" fill="#9D9295" d="M18.2,49.9c2.2-0.3,4.5-0.2,6.7,0.1c0.9,0.1,1.8-0.2,2.6-0.1
			c0.6,0.1,0.6-0.8,0.5-1.4c0.5,0,0.7,0.3,0.5,0.9c-0.1,0.5-0.2,1.2-0.7,1.2c-3.1-0.1-6.3,0.4-9.4-0.4
			C18.4,50.3,18.3,50.1,18.2,49.9z"/>
		<path fill-rule="evenodd" clip-rule="evenodd" fill="#F0EEEE" d="M22.2,42.7c1.2-0.2,2.4-0.6,3.7-0.4c0.5-0.1,0.9-0.2,1.4,0
			c1,0,2,0,3,0c0.6,0.3,1.6-0.2,2.2,0.6c-2.2,0.3-4.3,0.1-6.4,0.1C24.8,42.9,23.4,43.4,22.2,42.7z"/>
		<path fill-rule="evenodd" clip-rule="evenodd" fill="#9D9295" d="M48.1,41.1c-4.2-0.1-10.4-0.6-11.3,1.4c-1.1,2.5-4.1,4.1,4.3,4.9
			c3.3,0.3,5.1,0.7,6.6-1.6C50.4,41.4,50.9,41.2,48.1,41.1z"/>
		<path fill-rule="evenodd" clip-rule="evenodd" fill="#F0EEEE" d="M47.7,45.4c-0.2-0.1-0.7,0-0.5-1.1c0.5-2-0.2-1.6-0.5-1.6
			c-2.5,0-5.5,0.4-8,0.4c0,0-0.3-0.3-0.3-0.4c-0.3-0.8,0.2-1,0.5-1.1c0.9,0.1,0.1,0.3,1,0.3c2.1,0.3,6.2,0.2,8.3-0.6
			c0.2,0.1,0.3,0.3,0.5,0.4c0.2,0.3,0.2,0.6,0,1C48,42.7,47.9,44,47.7,45.4z"/>
		<path fill-rule="evenodd" clip-rule="evenodd" fill="#9D9295" d="M63.9,20.2c1.5-0.2,3-0.2,4.5,0h1.4c1-0.3,1.9-1.1,2.9-0.1
			c0.3-0.3,0.5-0.5,0.8-0.8c1-0.8,2.2-0.4,3.3-0.5c0.8-0.1,1,0.2,1.7-0.7c0.2-0.3,0.5-0.8,0.9-0.4c0.4,0.3,0.3,0.9-0.1,1.2
			c-0.5,0.8-1.1,0.2-1,2.1c-0.7-0.1-1.3,0.1-2,0l0,0c0,0,0,0,0,0c-0.3,0-0.8,0.2-0.9,0c-1.3-1.1-1.9,0.1-1.8,0.9
			c0.1,1.2-0.7,2.3-0.4,3.6c0.3,1,1,1.8,0.9,3.1l-3.2-0.2c0.6-1.4,0.2-2.9,1-4.2c-0.1-0.3-0.3-0.6-0.4-0.8c-0.5-0.2-1.3,0.4-1.6-0.5
			c0-0.1,0-0.2,0-0.2c0.3-1.1-0.2-1.3-1-1.4H67c-0.8,0-1.6,0.1-2.4,0h-2.4v-1.1L63.9,20.2L63.9,20.2z"/>
		<path fill-rule="evenodd" clip-rule="evenodd" fill="#68432C" d="M71.8,24.3c0.2,0.6,0.1,1.5,1.2,1.2c-0.2-1.2,0.5-2.3,0.4-3.6
			c0-0.7,0.5-2,1.8-0.9c0.2,0.2,0.6,0,0.9,0c0-1.8-0.5-2.1-2.9-1.7c-0.3,0.3-0.5,0.5-0.8,0.8c-0.9,0.2-2.1,0-2.2,1.5
			c-0.1,0.9,0,1.6,1,1.8C71.5,23.7,71.7,24,71.8,24.3z"/>
		<g>
			<path fill="none" stroke="#000000" stroke-width="2" stroke-miterlimit="10" d="M66.6,28.2c0.1,0,0.1,0,0.2,0
				c0.9,0.1,1.8,0.1,2.7,0C68.4,28.2,67.5,28.2,66.6,28.2z"/>
			<path fill="none" stroke="#000000" stroke-width="2" stroke-miterlimit="10" d="M165.3,42c-0.6-4.3-9.2-2-15.4-0.4
				c-2,0.1-3.2,0.2-3.6,0.2c-0.3,0-0.6,0.2-1.1,0.8c-0.8,0.1-1.4,0.1-1.7,0c-1.2,0.2-2.7,0.2-4.2,0.2c-0.1-0.3-0.5-0.5-1.5-0.5
				c-2-0.1-1.7,0.5-4.4,0.1c-0.3,0-0.5,0-0.8,0.1c-0.3-1.2-0.1-2.5-0.8-3.6c0.1-0.3,0.3-0.5,0.4-0.8c0.1,0,0.2,0,0.3-0.1
				c0.5,0,1.1,0.3,1.4-0.4c0-0.1,0-0.2,0-0.2c-0.3-1.1,0.2-1.3,1-1.4h1.7c0.8,0,1.6,0.1,2.4,0h2.4v-1.1h-1.6c-1.5-0.2-3-0.2-4.4,0
				h-1.4c-1-0.3-1.9-1.1-2.9-0.1c-0.3-0.3-0.5-0.5-0.8-0.8c-1-0.8-2.2-0.4-3.3-0.5c-0.8-0.1-1,0.2-1.7-0.7c-0.2-0.3-0.5-0.8-0.9-0.4
				c-0.4,0.3-0.3,0.9,0.1,1.2c0.5,0.8,1.1,0.2,1,2.1c0.7-0.1,1.3,0.1,2,0c0,0,0,0,0,0c0.3,0,0.8,0.2,0.9,0c1.3-1.1,1.9,0.1,1.8,0.9
				c-0.1,1.2,0.6,2.3,0.4,3.5c-0.3,0.9-0.9,1.7-0.9,2.7c-1.8-0.2-4.7-1.1-6-0.9c-0.5,0.1-1.8,0.4-3.2,0.6c-2.1-0.1-4-0.1-4.2-0.1
				c-0.2,0-0.5-0.1-0.7-0.1c0.1-0.1,0.1-0.3,0.1-0.6c1.1,0,2.3,0,3.3,0.1c-1.4,0-2.5-0.1-3.3-0.1c-0.1-0.4-0.2-0.9,0-1.1
				c-0.2-2.6-0.2-1.4-0.1-3.9c0-1.4,0.1-6.6,0-7.3c-0.2-2.3-0.1-6.8-0.3-8.6c0-0.2-0.2-0.4-0.4-0.5c0-0.1,0-0.2,0-0.3
				c-0.2-1.6-7.3-1-9-1c-3.5,0-5,0.1-5.8-0.8c-0.3-0.9-0.3-2.4-0.4-4.7c0-1.4,0.8-6.4-0.5-7.8c-0.2-0.5-0.4-0.8-0.7-1
				c-2,5,2.4,14.4-4.6,14.4c-2.9,0-4.9,0-6.4,0.4c-0.5,0-0.7,0.1-0.7,0.2c-1.9,0.8-2.8,2.5-3.7,6.4c-0.7,3-3.4,3.4-6.7,3.2
				c0,0,0,0-0.1,0.1c-4.2-0.4-12.4-2.8-15,3.7c-3,7.5-3.3,6.1-2.5,6.6c-0.3,0.6-0.5,0.9-0.8,0.9c-0.1,0.1-0.4,0.1-0.7,0.2
				c0.5,0,1.1,0,1.6,0c-0.1,0.1-0.2,0.3-0.2,0.3c-3.3,0-6.5,0-9.8,0.1c-0.1-1-0.6-1.8-0.9-2.7c0-0.1,0-0.2,0-0.3
				c0-1.1,0.5-2.1,0.5-3.2c0-0.7,0.5-2,1.8-0.9c0.2,0.2,0.6,0,0.9,0c0,0,0,0,0,0c0.7,0.1,1.3-0.1,2,0c-0.1-1.8,0.5-1.2,1-2.1
				c0.4-0.4,0.5-0.9,0.1-1.2c-0.4-0.4-0.7,0.1-0.9,0.4c-0.6,0.9-0.8,0.6-1.7,0.7c-1.1,0.1-2.3-0.3-3.3,0.5c-0.3,0.3-0.5,0.5-0.8,0.8
				c-1-1-1.9-0.2-2.9,0.1h-1.4c-1.5-0.2-3-0.2-4.5,0h-1.6v1.1h2.4c0.8,0.1,1.6,0,2.4,0h1.7c0.8,0.1,1.3,0.3,1,1.4c0,0.1,0,0.2,0,0.2
				c0.3,0.7,0.9,0.4,1.4,0.4c0.1,0,0.2,0.1,0.3,0.1c0.1,0.3,0.3,0.5,0.4,0.8c-0.7,1.2-0.4,2.6-0.9,3.9c-3.1-0.1-6.7-0.2-8.4,0.6
				c-1.3,0.1-2.5,0.2-3.9,0.2c0-0.5-0.6-0.5-1.9-0.6c-3.9-0.1-9.7-0.5-11.1,0.9c-1.4,0.1-2.9,0.3-4.3,0.5c0.3-0.5,0.1-0.8-1.2-0.5
				l-8.5,0.4c-2.1,0.3-2.3,2.1-2,3.5c0.1,0.3,0.1,0.5,0.2,0.8c-0.1,0.9,0.1,2.2,0.3,2.7c0.8,1.6,3.8,1.5,4.9,1.7
				c1.2,0.2,11.7,2.2,11.9,4.1c0,0.4-1.5,1.5-1.5,1.4c-1.1,1.5,0.4,7.8,0.6,9.6c0.7,5.9,3.3,5.1,6.6,7.9c1.6,1.3,3.2,3.1,4.9,3.9
				c1.4,0.7,3.8-0.4,5.3-0.4c5-0.1,10-0.1,15-0.2c4.6-0.1,9.9-1.2,14.5,0.3c1.9,0.6,3.3,5,4.3,7.1c1.5,3,1.7,3,4.1,3.2
				c8.2,0.7,17,0.8,25.4,0.8c3.1,0,5.7,0.9,8.7,0.6c3.9-0.4,7.3-4.9,11.4-5.6c7.6-1.3,15.3-4.8,22.4-8.5c2.9-1.5,6.4-4,8.8-6.9
				c1.2-1.5,0.3-3.4,1.2-4.8c0.9-1.5,2.5-2.3,3.5-3.8C159.2,57.6,167.1,45.5,165.3,42z M33.1,75.6c0.1,2.6-6.6-3.2-6.6-4.6
				c0.1-2.2-0.8-12.4,0.4-13.6c1,2.6,1.7,5.1,2.2,8.4c0.3,1.5,0.5,2.5,0.2,3c-0.5,0-0.9,0-1.3,0.5c-0.2,0.2-0.7,0-0.6,0.7
				c-0.1,0.2-0.2,0.3-0.1,0.5c0.2,0.8,3.5,0,4.2,0.5C33.6,72.4,33,71.7,33.1,75.6C33.2,75.9,33.2,76.3,33.1,75.6z M60,76.3
				c-5.2,0.1-10.5,0.2-15.7,0.3c-2.2,0-4.3,0.1-6.5,0.1c-2.9,0.1-2.6-1.1-1.9-5.1c2.4,1,6.4-0.3,9.1-0.3c3,0,6.4-0.7,9.2,0.9
				c0.9,0.6,6.1,2.2,6.4,3.4C60.5,75.9,60.3,76.2,60,76.3z"/>
			<path fill="none" stroke="#000000" stroke-width="2" stroke-miterlimit="10" d="M67,21.3h1.7c0.8,0.1,1.3,0.3,1,1.4
				c0,0.1,0,0.2,0,0.2c0.3,0.7,0.9,0.4,1.4,0.4c0.1,0,0.2,0.1,0.3,0.1c0.1,0.3,0.3,0.5,0.4,0.8c-0.8,1.3-0.4,2.8-1,4.2l3.2,0.2
				c0.1-1.3-0.6-2.1-0.9-3.1c-0.2-1.2,0.5-2.3,0.4-3.5c0-0.7,0.5-2,1.8-0.9c0.2,0.2,0.6,0,0.9,0c0,0,0,0,0,0c0.7,0.1,1.3-0.1,2,0
				c-0.1-1.8,0.5-1.2,1-2.1c0.4-0.4,0.5-0.9,0.1-1.2c-0.4-0.4-0.7,0.1-0.9,0.4c-0.6,0.9-0.8,0.6-1.7,0.7c-1.1,0.1-2.3-0.3-3.3,0.5
				c-0.3,0.3-0.5,0.5-0.8,0.8c-1-1-1.9-0.2-2.9,0.1h-1.4c-1.5-0.2-3-0.2-4.5,0h-1.6v1.1h2.4C65.5,21.3,66.3,21.3,67,21.3z"/>
		</g>
	</g>
</g>
</svg>
