<?xml version="1.0" encoding="utf-8"?>
<!-- Generator: Adobe Illustrator 16.0.4, SVG Export Plug-In . SVG Version: 6.00 Build 0)  -->
<!DOCTYPE svg PUBLIC "-//W3C//DTD SVG 1.1//EN" "http://www.w3.org/Graphics/SVG/1.1/DTD/svg11.dtd">
<svg version="1.1" xmlns="http://www.w3.org/2000/svg" xmlns:xlink="http://www.w3.org/1999/xlink" x="0px" y="0px"
	 width="595.28px" height="425.2px" viewBox="0 0 595.28 425.2" enable-background="new 0 0 595.28 425.2" xml:space="preserve">
<g id="Submarine">
	<path fill-rule="evenodd" clip-rule="evenodd" fill="#9D9295" d="M42.802,42.083c1.484-0.231,2.979-0.175,4.45,0h1.354
		c0.98-0.276,1.912-1.122,2.923-0.085c0.262-0.259,0.524-0.52,0.784-0.779c1.027-0.752,2.223-0.372,3.342-0.494
		c0.848-0.091,1.019,0.192,1.652-0.69c0.218-0.303,0.536-0.808,0.946-0.444c0.372,0.328,0.31,0.86-0.106,1.249
		c-0.493,0.834-1.08,0.217-0.961,2.053c-0.696-0.119-1.285,0.101-1.98-0.019c0,0,0,0,0,0c0,0,0,0.001,0,0.002
		c-0.321,0.013-0.761,0.169-0.947,0.017c-1.306-1.07-1.881,0.148-1.849,0.882c0.057,1.25-0.653,2.349-0.433,3.572
		c0.33,1.028,1.029,1.848,0.934,3.135l-3.181-0.152c0.632-1.387,0.22-2.929,1.02-4.201c-0.141-0.283-0.281-0.563-0.422-0.846
		c-0.541-0.169-1.282,0.36-1.633-0.471c-0.001-0.082-0.002-0.162-0.004-0.243c0.263-1.11-0.239-1.337-1.017-1.401h-1.705
		c-0.771,0.038-1.566,0.089-2.398,0h-2.407v-1.083H42.802z"/>
	<path fill-rule="evenodd" clip-rule="evenodd" fill="#68432C" d="M50.757,46.173c0.171,0.644,0.148,1.486,1.227,1.219
		c-0.219-1.223,0.49-2.322,0.434-3.572c-0.032-0.734,0.543-1.953,1.848-0.882c0.186,0.152,0.626-0.003,0.947-0.017
		c0.007-1.82-0.453-2.084-2.894-1.656c-0.261,0.259-0.522,0.52-0.784,0.779c-0.898,0.241-2.062-0.004-2.193,1.488
		c-0.08,0.908-0.042,1.582,0.993,1.794C50.476,45.61,50.616,45.891,50.757,46.173z"/>
	<path fill="#68432C" d="M119.578,49.367c-0.232-2.595-0.188-1.432-0.112-3.881c0.045-1.438,0.086-6.58,0.04-7.277
		c-0.153-2.294-0.077-6.816-0.304-8.586c-0.204-1.59-7.335-1.039-9.034-1.05c-6.549-0.046-6.37,0.302-6.57-6.322
		c-0.046-1.517,0.868-7.062-0.763-8.1c-2.047,4.965,2.389,14.398-4.574,14.451c-7.465,0.056-9.156,0.088-10.779,7.071
		c-1.557,6.7-13.307,0.566-18.61,2.671c-3.83,0.75-5.081,11.754-6.496,11.782c-0.146,0.095-0.383,0.141-0.657,0.168
		c20.458,0.362,49.909,0.867,61.559,1.064c-1.691-0.042-3.123-0.1-3.851-0.182C119.984,51.044,119.127,49.721,119.578,49.367z"/>
	<g>
		<radialGradient id="SVGID_1_" cx="71.875" cy="37.2021" r="1.0005" gradientUnits="userSpaceOnUse">
			<stop  offset="0.0492" style="stop-color:#F0EEEE"/>
			<stop  offset="0.6685" style="stop-color:#9D9295"/>
			<stop  offset="1" style="stop-color:#736E6B"/>
		</radialGradient>
		<path fill="url(#SVGID_1_)" d="M73.289,37.228c-1-0.089-1.954-0.12-2.827-0.047c0.051,0.005,0.102,0.005,0.153,0.011
			C71.519,37.288,72.404,37.279,73.289,37.228z"/>
		<radialGradient id="SVGID_2_" cx="94.3604" cy="38.5112" r="25.4307" fx="96.0782" fy="37.8392" gradientUnits="userSpaceOnUse">
			<stop  offset="0.0348" style="stop-color:#F0EEEE"/>
			<stop  offset="0.5477" style="stop-color:#9D9295"/>
			<stop  offset="0.8722" style="stop-color:#736E6B"/>
		</radialGradient>
		<path fill="url(#SVGID_2_)" d="M119.039,50.433c0.557-0.131-0.299-1.455,0.151-1.809c-0.232-2.595-0.188-1.432-0.112-3.881
			c0.045-1.438,0.086-6.58,0.04-7.277c-0.153-2.294-0.077-6.816-0.304-8.586c-0.204-1.59-7.334-1.038-9.034-1.05
			c-6.549-0.046-6.37,0.302-6.569-6.322c-0.047-1.517,0.868-7.062-0.764-8.099c-2.047,4.965,2.389,14.398-4.574,14.45
			c-7.465,0.056-9.156,0.088-10.779,7.071c-0.697,2.996-3.431,3.424-6.715,3.172c-0.026,0.021-0.048,0.04-0.072,0.061
			c-4.217-0.39-12.383-2.829-15.024,3.694c-3.045,7.524-3.291,6.053-2.542,6.581c-0.255,0.581-0.501,0.94-0.753,0.945
			c-0.146,0.095-0.383,0.142-0.657,0.168c15.476,0.273,44.834,0.782,61.559,1.064C121.198,50.572,119.767,50.515,119.039,50.433z"/>
	</g>
	<path fill-rule="evenodd" clip-rule="evenodd" fill="#9D9295" d="M143.714,43.744c-1.484-0.231-2.979-0.175-4.45,0h-1.354
		c-0.98-0.276-1.912-1.122-2.923-0.085c-0.262-0.259-0.524-0.52-0.784-0.779c-1.027-0.752-2.223-0.372-3.342-0.494
		c-0.848-0.091-1.019,0.192-1.652-0.69c-0.218-0.303-0.536-0.808-0.946-0.444c-0.372,0.328-0.31,0.86,0.106,1.249
		c0.493,0.834,1.08,0.217,0.961,2.053c0.696-0.119,1.285,0.101,1.98-0.019c0,0,0,0,0,0c0,0,0,0.001,0,0.002
		c0.321,0.013,0.761,0.169,0.947,0.017c1.306-1.07,1.881,0.148,1.849,0.882c-0.057,1.25,0.653,2.349,0.433,3.572
		c-0.33,1.028-1.029,1.848-0.934,3.135l3.181-0.152c-0.632-1.387-0.22-2.929-1.02-4.201c0.141-0.283,0.281-0.563,0.422-0.846
		c0.541-0.169,1.282,0.36,1.633-0.471c0.001-0.082,0.002-0.162,0.004-0.243c-0.263-1.11,0.239-1.337,1.017-1.401h1.705
		c0.771,0.038,1.566,0.089,2.398,0h2.407v-1.083H143.714z"/>
	<path fill-rule="evenodd" clip-rule="evenodd" fill="#68432C" d="M135.759,47.834c-0.171,0.644-0.148,1.486-1.227,1.219
		c0.219-1.223-0.49-2.322-0.434-3.572c0.032-0.734-0.543-1.953-1.848-0.882c-0.186,0.152-0.626-0.003-0.947-0.017
		c-0.007-1.82,0.453-2.084,2.894-1.656c0.261,0.259,0.522,0.52,0.784,0.779c0.898,0.241,2.062-0.004,2.193,1.488
		c0.08,0.908,0.042,1.582-0.993,1.794C136.041,47.271,135.9,47.552,135.759,47.834z"/>
	<path fill-rule="evenodd" clip-rule="evenodd" fill="#F0EEEE" d="M104.651,28.773c-0.805-0.003-1.609-0.005-2.415-0.008
		c-3.294,0.432-6.599,0.024-9.896,0.102l-0.152-0.086c0.018-0.215-0.077-0.357-0.284-0.422c-2.087-0.372-0.464,1.045-0.746,1.543
		c0.262,0.274,0.541,0.249,0.83,0.049l-0.001,0.004c1.987,0.838,4.076,0.729,6.354,0.483c-1.053,0.937-1.52,1.544-1.658,2.413
		c-0.017-0.007-0.032-0.014-0.049-0.021c0-0.336,0.014-0.673,0.079-1.011c-0.063-0.184-0.174-0.329-0.343-0.428
		c-0.855-0.056-1.61,0.175-2.233,0.781c-0.422,0.924-0.005,2.176-1.103,2.835c-0.467,0.542-1.344,1.018-0.988,1.809
		c0.32,0.709,1.205,0.346,1.855,0.323c0.766-0.027,1.456-0.021,1.864,0.582c-0.019,0.041-0.028,0.097-0.053,0.127
		c-0.129-0.258-0.298-0.429-0.715-0.2c-0.516,0.282-0.299,0.834-0.214,1.286c0.105,0.571,0.476,0.953,0.975,1.221
		c0.167,0.09,0.346,0.13,0.534,0.124c0.997-0.271,1.521-1.138,2.237-1.76c0.389-0.556,0.779-1.112,1.168-1.667
		c-0.908-0.9,0.167-1.161,0.531-1.652c-1.52-0.263-0.37-2.642-2.261-2.651c1.347-0.413,2.442-1.593,3.88-0.664
		c0.097,0.189,0.221,0.207,0.368,0.052c0.601-0.029,1.202-0.053,1.803-0.09c1.612-0.1,0.131-2.173,1.535-2.411
		C105.252,29.215,104.952,28.994,104.651,28.773z"/>
	<path fill-rule="evenodd" clip-rule="evenodd" fill="#736E6B" d="M117.229,46.896c0.014-0.402,0.027-0.803,0.037-1.205
		c-0.014-0.844-0.03-1.687-0.046-2.53c-0.002,0.002-0.002,0.003-0.004,0.005c0.001-0.002,0.001-0.003,0.004-0.005
		c0.102-0.778,0.191-1.491-0.402-2.301c-0.643-0.878-1.953-1.998,0.488-2.173c0.271,0.317,0.393,0.721,0.29,1.252
		c1.331-0.406,1.794-3.871-1.784-4.292c-0.062-0.087-0.13-0.172-0.214-0.253c0.483-0.478,2.903,0.165,2.003-1.085
		c-1.063-1.469-0.269-2.842,0.458-4.23c0.859-1.276-0.551-1.363-2.162-1.347c-0.65,0.026-1.302,0.051-1.955,0.077
		c-0.996,0.19-1.038,0.385-0.098,0.703c0.994,0.335,1.686,0.886,0.953,1.503c-1.601,1.353-0.715,2.686-0.191,4.038
		c-0.096,0.197-0.191,0.394-0.285,0.59c-0.863,0.077-1.864,0.271-3.06,0.655c-2.252-0.165-4.519,0.043-6.771-0.251
		c-2.89-0.378-1.766,3.057-3.909,2.212c-0.042,0.017-7.419,9.278-7.509,9.06c-0.762,0.188-9.77,1.554-3.861,2.474
		c2.025,1.003,4.584-0.142,6.393-0.397c0.006,0.229,4.122,0.271,4.988,0.718c1.576-0.911,1.568-2.98,3.079-3.949
		c3.268-2.096-1.387-4.906,1.787-6.932c-0.046-0.012-0.551-0.312-1.105-0.592c-0.977,0.062-1.585,0.005-1.557-0.301
		c0.035-0.387,0.84-0.062,1.557,0.301c0.354-0.023,0.768-0.065,1.208-0.114c1.044,0.284,1.852,0.534,2.693,0.592
		c3.994,0.275,7.059,1.433,6.282,3.731v0c-0.254,0.239-0.511,0.479-0.765,0.718c0.054,0.606-0.258,1.113-0.888,1.63
		c-1.204,0.988,0.067,1.218,1.479,1.334c-0.262,0.581,0.82,1.083,0.226,1.71c-0.564,0.598-0.385,1.291,0.61,1.601
		c0.684,0.212,1.077-0.745,2.128-0.57c0.623-0.481,0.761-0.039,1.255-0.732C115.652,48.198,116.973,48.198,117.229,46.896z"/>
	<path fill-rule="evenodd" clip-rule="evenodd" fill="#F0EEEE" d="M112.841,48.231c-3.012,0.353-5.861-0.063-8.665,0.457
		c-0.414,0.076-1.003,0.185-1.232-0.41c-0.133-0.346,0.042-0.846,0.32-0.868c1.816-0.147,1.465-1.824,1.864-2.801
		c0.92-2.26,2.927-3.329,4.64-4.684c0.986-0.782,2.005-0.004,2.043,1.271c0.042,1.386-0.5,3.061,1.636,3.518
		c0.335,0.072,0.33,0.537,0.335,0.888c0.01,0.814-0.604-0.02-0.849,0.347c-0.565,0.838-2.021-1.061-2.254,0.587
		C110.479,47.933,112.292,47.151,112.841,48.231z"/>
	<path fill-rule="evenodd" clip-rule="evenodd" fill="#F0EEEE" d="M111.484,33.563c-0.155-0.05-0.607-0.097-0.628-0.218
		c-0.134-0.797,0.615-1.432,0.375-2.362c-0.105-0.404,0.885-0.373,1.384-0.515c0.104-0.03,0.293,0.01,0.354,0.088
		c0.699,0.881-0.639,1.465-0.337,2.398C112.814,33.514,112.064,33.536,111.484,33.563z"/>
	<path fill-rule="evenodd" clip-rule="evenodd" fill="#9D9295" d="M112.824,42.826c-0.324,0.868-1.303,0.935-2.022,1.298
		c-0.407,0.205-0.767-0.177-0.739-0.668c0.054-0.971,0.787-1.351,1.571-1.56C112.242,41.733,112.658,42.079,112.824,42.826z"/>
	
		<radialGradient id="SVGID_3_" cx="92.9062" cy="70.2256" r="64.6363" fx="82.7049" fy="70.699" gradientTransform="matrix(0.9996 -0.0296 0.0082 0.2753 -0.5323 53.6483)" gradientUnits="userSpaceOnUse">
		<stop  offset="0.2698" style="stop-color:#F3926B"/>
		<stop  offset="0.4672" style="stop-color:#E36B35"/>
		<stop  offset="1" style="stop-color:#68432C"/>
	</radialGradient>
	<path fill="url(#SVGID_3_)" d="M169.186,50.976c-0.883-6.427-19.396,1.756-21.782,0.531c-2.408,0.418-5.944,0.16-8.718,0.161
		c-1.575,0-3.144,0.133-4.719,0.083c-1.816-0.058-4.952-1.172-6.353-0.977c-0.736,0.103-3.214,0.82-5.148,0.588
		c-1.421,0.523-2.69-0.021-4.135-0.222c-0.226,0.073-0.498,0.108-0.827,0.098c-0.431-0.013-1.484-0.023-2.667-0.042v0
		c-0.01,0-0.033,0-0.068-0.001c-0.832-0.014-1.722-0.033-2.506-0.062c-5.982-0.149-21.107-0.532-31.614-0.806
		c-0.214,0.03-0.478,0.015-0.745-0.02c-6.504-0.17-11.022-0.293-10.065-0.282c-1.932-0.031-3.864-0.061-5.796-0.091
		c-7.521-0.118-14.858,0.098-22.372,0.704c-7.149,0.576-15.44-0.255-22.843,1.396c-0.939,0.12-4.382-0.065-5.138,0.803
		c-0.498,0.573-4.967,1.457-4.089,2.138c-1.084-0.359-0.774,2.78-0.42,3.502c0.78,1.589,3.796,1.5,4.91,1.692
		c1.241,0.213,11.75,2.231,11.925,4.062c0.043,0.449-1.523,1.503-1.46,1.424c-1.144,1.451,0.376,7.8,0.604,9.632
		c0.732,5.901,3.281,5.139,6.638,7.927c1.554,1.292,3.189,3.05,4.878,3.917c1.418,0.728,3.783-0.393,5.335-0.414
		c5.005-0.069,10.011-0.141,15.017-0.208c4.649-0.062,9.922-1.174,14.489,0.302c1.859,0.601,3.281,5.049,4.324,7.133
		c1.508,3.012,1.721,2.959,4.125,3.155c8.167,0.668,16.959,0.75,25.408,0.783c3.098,0.012,5.742,0.9,8.734,0.598
		c3.897-0.394,7.339-4.914,11.375-5.599c7.589-1.289,15.265-4.75,22.449-8.471c2.894-1.499,6.407-3.997,8.784-6.89
		c1.202-1.463,0.34-3.37,1.187-4.76c0.936-1.539,2.468-2.297,3.492-3.796C163.012,66.591,170.974,54.412,169.186,50.976z
		 M37.003,84.555c0.074,2.603-6.65-3.223-6.618-4.582c0.053-2.187-0.792-12.368,0.418-13.58c1.019,2.626,1.676,5.073,2.249,8.424
		c0.366,2.142,0.751,3.137-0.636,3.547c-0.206,0.061-1.365,0.585-1.199,1.245c0.206,0.816,3.461-0.024,4.219,0.459
		c2.05,1.306,1.458,0.593,1.567,4.471C37.011,84.85,37.021,85.207,37.003,84.555z M63.899,85.219
		c-5.234,0.089-10.468,0.189-15.703,0.256c-2.173,0.028-4.346,0.056-6.519,0.114c-2.888,0.078-2.629-1.061-1.933-5.071
		c2.409,1.006,6.364-0.294,9.104-0.331c2.969-0.041,6.392-0.743,9.202,0.939c0.942,0.563,6.102,2.167,6.397,3.376
		C64.358,84.887,64.175,85.126,63.899,85.219z"/>
	<path fill-rule="evenodd" clip-rule="evenodd" fill="#E36B35" d="M25.576,71.125c-0.158-2.819-1.243-5.514,0.364-4.047
		c0.46-0.455,0.506-2.743,1.489-1.764c0.875,0.867,1.168,3.955,1.172,5.508c0.004,1.696-0.551,4.17,0.058,5.695
		c0.841,2.104-2.789,2.936-2.698,0.76c0.566-0.244,0.93,0.958,0.884-1.975c-0.013-0.859-0.292-4.06-1.177-2.701
		C25.552,72.357,25.757,71.086,25.576,71.125C25.5,69.768,25.768,71.084,25.576,71.125z"/>
	<path fill-rule="evenodd" clip-rule="evenodd" fill="#9D9295" d="M44.505,79.804c-0.676,0.543-1.428,0.027-2.125,0.328
		c-0.188,0.08-0.518-0.076-0.583,0.07c-0.481,1.084-0.946,0.438-1.433,0.055c-0.143-0.111-0.315-0.137-0.474-0.203
		c0.16-0.395,0.554-0.654,0.394-1.24c-0.238-0.869-0.018-1.721,0.004-2.58c-0.23-1.721-0.158-1.895,0.669-1.627
		c0.072,0.648,0.529,1.01,0.467,1.863c-0.043,0.6,0.675,0.525,1.014,0.533c3.378,0.072,6.762,0.236,10.132-0.018
		c1.182-0.09,2.408,0.184,3.576-0.344c0.262-0.117,0.45,0.072,0.479,0.375c0.032,0.346-0.14,0.482-0.385,0.699
		c-0.719,0.631-1.397,0.166-2.095,0.188c-3.483,0.102-6.964,0.055-10.446-0.027c-0.838-0.02-1.751,0.225-2.708,0.336
		c0.25,1.088,0.645,1.615,1.439,1.5C43.116,79.612,43.818,79.524,44.505,79.804z"/>
	<path fill-rule="evenodd" clip-rule="evenodd" fill="#E36B35" d="M36.975,76.452c0.148-0.383,0.799-0.428,0.449-1.102
		c-0.219-0.418-0.588-0.213-0.925,0.082c-0.834,0.73-1.61,0.539-1.785-0.309c-0.096-0.463-0.083-0.791,0.234-1.016
		c0.267-0.188,0.55-0.348,0.69,0.199c0.172,0.67,0.562,0.631,0.867,0.508c0.94-0.377,1.292,0.738,1.797,1.445
		c0.199,0.279,0.063,0.586-0.164,0.699c-0.293,0.145-0.6,0.225-0.9,0.332C37.118,77.034,37.059,76.735,36.975,76.452z"/>
	<path fill-rule="evenodd" clip-rule="evenodd" fill="#9D9295" d="M36.975,76.452c0.437,0.043,0.42,0.395,0.264,0.84
		c-0.68,0.287-1.237,1.09-2.028,0.941c-0.421-0.08-0.783-0.188-1.043-0.715C34.997,76.413,36.2,77.69,36.975,76.452z"/>
	<path fill-rule="evenodd" clip-rule="evenodd" fill="#9D9295" d="M34.591,78.843c-0.784,0.211-1.566,0.426-2.351,0.631
		c-0.323,0.084-0.701,0.373-0.877-0.328c-0.208-0.822,0.357-0.533,0.548-0.781c0.395-0.514,0.882-0.551,1.376-0.516
		C33.298,79.386,34.286,78.144,34.591,78.843z"/>
	<path fill-rule="evenodd" clip-rule="evenodd" fill="#E36B35" d="M40.957,74.606c-1.121-0.26-0.473,1.061-0.669,1.627
		c-0.471-0.773-0.408-1.674-0.184-2.52c0.148-0.555,0.564-0.879,0.929-0.492C41.408,73.618,40.864,74.118,40.957,74.606z"/>
	<path fill-rule="evenodd" clip-rule="evenodd" fill="#9D9295" d="M37.645,85.573c1.067-0.742,0.203-2.277,0.783-3.355
		c0.304,1.203,0.219,2.342,0.133,3.42C38.532,85.983,38.023,85.89,37.645,85.573z"/>
	<path fill-rule="evenodd" clip-rule="evenodd" fill="#9D9295" d="M156.243,50.479c-3.42,0.003-5.626,0.265-6.074,0.268
		s-1.207,0.481-1.928,2.729c-0.722,2.248-2.091,5.841-2.091,5.841s-1.123,1.451,0.504,1.436s5.094-0.05,5.814-0.035
		c1.196,0.024,2.029-1.549,2.433-2.706s1.855-5.301,1.855-5.301S158.077,50.478,156.243,50.479z"/>
	<path fill="#9D9295" d="M165.694,49.212c-1.263,0.182-2.473,0.314-2.682,0.591c-0.209,0.277-0.963,1.76-1.22,2.512
		c-0.257,0.752-1.199,5.121-1.927,5.671s-1.397,2.682,0.674,2.594s5.053,0.577,5.354-0.232s2.364-4.795,2.571-5.528
		c0.207-0.733,1.343-5.341-0.939-5.802C166.522,48.813,166.958,49.03,165.694,49.212z"/>
	<path fill-rule="evenodd" clip-rule="evenodd" fill="#9D9295" d="M137.331,51.312c2.708,0.392,2.404-0.188,4.36-0.093
		c1.956,0.096,1.661,0.537,1.219,2.492c-0.441,1.955-2.125,5.908-2.125,5.908s-1.112,1.339-3.139,0.967
		c-2.027-0.372-3.56-0.303-3.56-0.303s-1.568-0.871-0.963-2.172c0.604-1.301,2.343-5.396,2.343-5.396S135.72,51.078,137.331,51.312z
		"/>
	<path fill-rule="evenodd" clip-rule="evenodd" fill="#F0EEEE" d="M167.555,54.844c-0.198-0.003-0.124,0.318-0.323,0.313
		c-0.457-0.058-0.51-0.917-0.25-1.209c0.844-0.951,0.147-1.41-0.332-2.204c-0.61-1.01,0.813-1.248,1.268-1.51
		c0.138-0.198,0.846,0.501,0.663,0.961C168.61,52.804,168.097,53.672,167.555,54.844z"/>
	<path fill-rule="evenodd" clip-rule="evenodd" fill="#F0EEEE" d="M156.542,52.76c-0.518-0.747-0.412,2.856-1.175,0.48
		c-0.027-0.082-0.257,0.974-0.509,0.406c-0.768-1.727-0.69-1.324-1.06,0.031c-0.158-1.601-0.274-1.334-0.754-0.976
		c-1.238,0.931-2.538-0.595-4.494,0.711c-0.131,0.349,0.251-0.519,0.003-0.795c-0.073-0.456,1.047-0.314,0.975-0.771
		c2-0.408,2.355,0.918,4.351-0.028c0.141-0.375,0.694-0.434,0.926-0.705c0.121-0.061,0.144,0.3,0.267,0.317
		c0.083,0.007,0.256-0.3,0.323-0.116c0.441,0.198,0.928-0.242,1.268,1.323C156.625,52.731,156.585,52.77,156.542,52.76z"/>
	<path fill-rule="evenodd" clip-rule="evenodd" fill="#F0EEEE" d="M142.249,55.93c-0.241-0.145-0.729-0.011-0.47-1.115
		c0.478-2.036-0.215-1.565-0.459-1.565c-2.506-0.014-2.735,0.016-5.242,0.076c-0.046-0.035-0.287-0.331-0.314-0.43
		c-0.252-0.85,0.202-0.97,0.544-1.147c0.873,0.074,0.084,0.266,0.958,0.34c2.069,0.336,3.41,0.556,5.476-0.276
		c0.171,0.131,0.342,0.259,0.512,0.386c0.211,0.291,0.152,0.634,0.03,0.995C142.606,53.207,142.416,54.535,142.249,55.93z"/>
	<path fill-rule="evenodd" clip-rule="evenodd" fill="#9D9295" d="M143.283,53.193c-0.009-0.333-0.019-0.662-0.029-0.992
		c1.609-0.003,3.861,0.083,5.675-0.374c0,0.393-0.628,1.079-0.628,1.468c-0.635,0-1.938,0.424-3.685-0.018
		C144.165,53.165,143.701,54.62,143.283,53.193z"/>
	<path fill-rule="evenodd" clip-rule="evenodd" fill="#736E6B" d="M115.301,94.449c0.345-1.658,0.47-3.377,0.412-5.107
		c-0.087,0.645-0.228,1.261-0.424,1.847c-0.226-0.508-2.529-0.362-2.98-0.225c-1.391,0.425-0.125,1.138-0.859,2.175
		c0.571-0.808-5.063-1.72-5.445-1.701c-2.5,0.117-5.635,0.264-8.106-0.157c-5.417-0.921-11.314,0.244-16.54-2.566
		c0.241,2.19,1.755,0.777,1.95,3.042c-0.201-0.041-6.622,0.182-5.458-2.207c-2.733,5.625,8.652,2.232,8.499,1.903
		c-0.367,0.015-0.605,0.292-0.717,0.833c0.825,0.922,4.788,1.8,5.885,1.4c0.762-0.275,0.44,1.603,1.191,1.572
		c1.441-0.057,2.896,0.314,4.319-0.224c1.489-0.776,7.76-2.073,9.646-0.685c-1.79,1.137,3.914,1.431,3.86,1.374
		c1.449,1.53,2.397,1.01,4.219,1.28C115.968,97.182,115.156,95.148,115.301,94.449C115.611,92.963,115.115,95.345,115.301,94.449z"
		/>
	<path fill-rule="evenodd" clip-rule="evenodd" fill="#9D9295" d="M129.518,51.602c-2.804-0.27-8.902-0.323-9.363-0.394
		c-3.306-0.509-2.865,0.62-4.986,3.405c-0.855,1.125-4.012,4.58-0.441,4.877c3.57,0.297,10.482,0.598,10.88,0.205
		c0.398-0.393,0.843-0.359,2.557-2.781C129.88,54.492,132.601,51.396,129.518,51.602"/>
	<path fill-rule="evenodd" clip-rule="evenodd" fill="#F0EEEE" d="M129.081,54.238c-0.39-0.135-1.611,0.618-1.192-0.414
		c0.156-0.462-0.838-0.672-1.233-0.672c-4.05-0.013-4.421,0.015-8.471,0.071c-0.076-0.033-0.464-0.309-0.509-0.402
		c-0.407-0.794,0.326-0.907,0.879-1.072c1.412,0.069,0.137,0.248,1.548,0.318c3.345,0.314,5.112,0.786,8.451,0.008
		c0.276,0.123,0.953-0.025,1.229,0.094c0.341,0.271,0.528,0.684,0.331,1.021C129.019,53.203,129.35,52.934,129.081,54.238z"/>
	<path fill-rule="evenodd" clip-rule="evenodd" fill="#9D9295" d="M82.017,58.81c2.827,0.469,4.395,0.476,7.02-0.003
		c2.625-0.479,5.692-5.512,6.691-6.574c0.999-1.062-3.172-2.157-10.974-1.753c-2.793,0.145-6.968,5.839-7.333,6.558
		c-0.365,0.72,2.069,1.453,2.069,1.453"/>
	<path fill-rule="evenodd" clip-rule="evenodd" fill="#9D9295" d="M70.449,50.493c-2.804-0.27-8.902-0.323-9.362-0.394
		c-3.307-0.509-2.865,0.62-4.986,3.405c-0.856,1.125-4.013,4.58-0.442,4.877s10.482,0.598,10.88,0.205
		c0.398-0.393,0.843-0.359,2.557-2.781S73.531,50.288,70.449,50.493"/>
	<path fill-rule="evenodd" clip-rule="evenodd" fill="#F0EEEE" d="M70.012,53.129c-0.39-0.135-1.611,0.618-1.192-0.414
		c0.156-0.462-0.839-0.672-1.233-0.672c-4.05-0.013-4.421,0.015-8.472,0.071c-0.076-0.033-0.464-0.309-0.509-0.402
		c-0.407-0.794,0.327-0.907,0.88-1.072c1.412,0.069,0.136,0.248,1.547,0.318c3.345,0.314,5.112,0.786,8.451,0.008
		c0.276,0.123,0.953-0.025,1.228,0.094c0.341,0.271,0.529,0.684,0.331,1.021C69.949,52.095,70.281,51.826,70.012,53.129z"/>
	<path fill-rule="evenodd" clip-rule="evenodd" fill="#9D9295" d="M71.897,52.322c-0.015-0.333-0.031-0.662-0.048-0.992
		c2.632-0.003,6.318,0.083,9.287-0.374c0,0.393-1.029,1.079-1.029,1.468c-1.04,0-3.172,0.424-6.029-0.018
		C73.34,52.293,72.58,53.749,71.897,52.322z"/>
	<g>
		<path fill-rule="evenodd" clip-rule="evenodd" fill="#F0EEEE" d="M81.718,53.08C81.718,53.08,81.717,53.081,81.718,53.08
			C81.651,53.199,81.675,53.171,81.718,53.08z"/>
		<path fill-rule="evenodd" clip-rule="evenodd" fill="#F0EEEE" d="M93.722,52.331c0.007-0.01,0.014-0.013,0.021-0.024
			c-0.503-1.565-1.226-1.125-1.878-1.323c-0.099-0.184-0.357,0.124-0.479,0.116c-0.182-0.017-0.216-0.378-0.396-0.317
			c-0.343,0.271-1.164,0.33-1.373,0.705c-1.05,0.335-1.792,0.383-2.447,0.326c-0.082-0.083,0.061-0.183-0.513-0.231
			c-0.08,0.041-0.164,0.08-0.246,0.125c-0.878-0.162-1.753-0.396-3.246-0.191c0.109,0.456-1.552,0.314-1.444,0.771
			c0.243,0.183,0.081,0.617-0.004,0.795c1.749-0.787,3.143-0.545,4.377-0.433c0.007,0.028,0.009,0.051,0.018,0.082
			c0.028,0.099,0.268,0.395,0.314,0.43c1.498-0.036,2.184-0.061,3.028-0.072c0.014,0.086,0.028,0.159,0.043,0.259
			c0.039-0.096,0.068-0.175,0.101-0.261c0.371-0.004,0.785-0.006,1.312-0.004c0.054,0.08,0.097,0.143,0.158,0.234
			c0.258,0.392,0.498,0.012,0.637-0.235c0.054-0.007,0.12-0.025,0.188-0.036c0.154,0.304,0.284,0.492,0.394,0.589
			c-0.008,0.238-0.884,0.364-0.991,0.817c-0.259,1.104,0.585,0.547,0.826,0.692c0.789-1.384,0.832-2.102,1.509-2.116
			C93.714,52.782,93.761,52.547,93.722,52.331z"/>
	</g>
	<path fill-rule="evenodd" clip-rule="evenodd" fill="#9D9295" d="M102.475,50.986c3.663,0.344,3.252-0.166,5.898-0.082
		c2.646,0.084,2.248,0.471,1.65,2.188c-0.597,1.717-2.876,5.188-2.876,5.188s-1.504,1.176-4.247,0.849
		c-2.743-0.327-4.817-0.266-4.817-0.266s-2.122-0.765-1.303-1.907c0.819-1.142,3.17-4.738,3.17-4.738S100.294,50.781,102.475,50.986
		z"/>
	<path fill-rule="evenodd" clip-rule="evenodd" fill="#F0EEEE" d="M109.129,55.042c-0.327-0.127-0.986-0.009-0.636-0.979
		c0.646-1.788-0.291-1.374-0.621-1.374c-3.391-0.013-3.701,0.014-7.092,0.066c-0.063-0.031-0.388-0.291-0.426-0.377
		c-0.34-0.747,0.274-0.852,0.737-1.008c1.182,0.065,0.114,0.233,1.296,0.299c2.8,0.295,4.615,0.488,7.409-0.243
		c0.231,0.116,0.463,0.228,0.693,0.339c0.286,0.255,0.205,0.557,0.04,0.874C109.612,52.65,109.354,53.816,109.129,55.042z"/>
	<path fill="#9D9295" d="M19.117,51.237c3.583-0.824-0.912,2.383-1.886,4.409c-0.974,2.026-1.349-0.362-4.542,0.495
		c-3.193,0.857-3.751,0.269-4.05-1.088s-0.059-3.164,2.008-3.452L19.117,51.237z"/>
	<path fill-rule="evenodd" clip-rule="evenodd" fill="#9D9295" d="M159.866,51.511c-0.11,0.368-0.219,0.736-0.33,1.104
		c-0.535,0.142-1.099,0.177-1.597,0.456c-0.556,0.306-0.741-0.164-0.833-0.679c-0.107-0.608,0.313-0.73,0.576-0.646
		C158.438,51.994,159.108,50.917,159.866,51.511z"/>
	<path fill-rule="evenodd" clip-rule="evenodd" fill="#F0EEEE" d="M16.775,53.205c-1.9,0.633-3.826,0.213-5.739,0.321
		c-0.299,0.017-0.676,0.039-0.658-0.559c0.024-0.719,0.414-0.409,0.669-0.32c1.884,0.658,3.847-0.396,5.714,0.583L16.775,53.205z"/>
	<path fill-rule="evenodd" clip-rule="evenodd" fill="#9D9295" d="M35.753,50.284c-4.2-0.12-10.445-0.561-11.341,1.215
		c-1.133,2.247-4.147,3.684,4.342,4.373c3.327,0.27,5.106,0.662,6.583-1.437C38.1,50.511,38.535,50.364,35.753,50.284z"/>
	<path fill-rule="evenodd" clip-rule="evenodd" fill="#F0EEEE" d="M22.089,58.9c-0.355-0.048-0.805-0.11-0.769-0.712
		c0.015-0.242,0.624-0.698,0.827-0.583c1.277,0.726,2.568-0.024,3.862,0.164c1.959,0.287,3.971-0.124,5.959-0.239
		c0.477,1.193,0.148,1.751-0.738,1.757C28.18,59.312,25.126,59.5,22.089,58.9z"/>
	<path fill-rule="evenodd" clip-rule="evenodd" fill="#9D9295" d="M22.089,58.9c2.247-0.322,4.507-0.223,6.733,0.137
		c0.908,0.145,1.751-0.169,2.632-0.073c0.588,0.062,0.566-0.784,0.514-1.432c0.451,0.002,0.672,0.306,0.525,0.935
		c-0.121,0.527-0.228,1.239-0.715,1.22c-3.136-0.121-6.284,0.433-9.404-0.36C22.265,59.301,22.183,59.048,22.089,58.9z"/>
	<path fill-rule="evenodd" clip-rule="evenodd" fill="#F0EEEE" d="M26.048,51.631c1.235-0.211,2.448-0.555,3.748-0.418
		c0.453-0.139,0.904-0.154,1.353,0.016c0.992-0.014,1.983-0.027,2.974-0.041c0.628,0.344,1.581-0.205,2.233,0.586
		c-2.192,0.336-4.286,0.117-6.359,0.1C28.681,51.861,27.299,52.322,26.048,51.631z"/>
	<path fill-rule="evenodd" clip-rule="evenodd" fill="#9D9295" d="M51.953,50.089c-4.2-0.134-10.445-0.629-11.341,1.364
		c-1.133,2.521-4.147,4.133,4.342,4.906c3.327,0.303,5.106,0.743,6.583-1.612C54.299,50.344,54.734,50.178,51.953,50.089z"/>
	<path fill-rule="evenodd" clip-rule="evenodd" fill="#F0EEEE" d="M51.542,54.377c-0.241-0.145-0.729-0.011-0.47-1.115
		c0.478-2.036-0.215-1.565-0.459-1.565c-2.506-0.014-5.53,0.37-8.037,0.43c-0.046-0.035-0.287-0.331-0.314-0.43
		c-0.252-0.85,0.202-0.97,0.544-1.147c0.873,0.074,0.084,0.266,0.958,0.34c2.069,0.336,6.205,0.202,8.271-0.631
		c0.171,0.131,0.342,0.259,0.512,0.386c0.211,0.291,0.152,0.634,0.03,0.995C51.899,51.655,51.708,52.982,51.542,54.377z"/>
	<path fill-rule="evenodd" clip-rule="evenodd" fill="#9D9295" d="M67.724,29.123c1.484-0.231,2.979-0.175,4.45,0h1.354
		c0.98-0.276,1.912-1.122,2.923-0.085c0.262-0.259,0.524-0.52,0.784-0.779c1.027-0.752,2.223-0.372,3.342-0.494
		c0.848-0.091,1.019,0.192,1.652-0.69c0.218-0.303,0.536-0.808,0.946-0.444c0.372,0.328,0.31,0.86-0.106,1.249
		c-0.493,0.834-1.08,0.217-0.961,2.053c-0.696-0.119-1.285,0.101-1.98-0.019c0,0,0,0,0,0c0,0,0,0.001,0,0.002
		c-0.321,0.013-0.761,0.169-0.947,0.017c-1.306-1.07-1.881,0.148-1.849,0.882c0.057,1.25-0.653,2.349-0.433,3.572
		c0.33,1.028,1.029,1.848,0.934,3.135l-3.181-0.152c0.632-1.387,0.22-2.929,1.02-4.201c-0.141-0.283-0.281-0.563-0.422-0.846
		c-0.541-0.169-1.282,0.36-1.633-0.471c-0.001-0.082-0.002-0.162-0.004-0.243c0.263-1.11-0.239-1.337-1.017-1.401h-1.705
		c-0.771,0.038-1.566,0.089-2.398,0h-2.407v-1.083H67.724z"/>
	<path fill-rule="evenodd" clip-rule="evenodd" fill="#68432C" d="M75.679,33.212c0.171,0.644,0.148,1.486,1.227,1.219
		c-0.219-1.223,0.49-2.322,0.434-3.572c-0.032-0.734,0.543-1.953,1.848-0.882c0.186,0.152,0.626-0.003,0.947-0.017
		c0.007-1.82-0.453-2.084-2.894-1.656c-0.261,0.259-0.522,0.52-0.784,0.779c-0.898,0.241-2.062-0.004-2.193,1.488
		c-0.08,0.908-0.042,1.582,0.993,1.794C75.398,32.649,75.539,32.93,75.679,33.212z"/>
	<g>
		<path fill-rule="evenodd" clip-rule="evenodd" fill="none" stroke="#000000" stroke-width="2" stroke-miterlimit="10" d="
			M70.461,37.18c0.051,0.005,0.102,0.005,0.153,0.011c0.904,0.096,1.789,0.087,2.674,0.036C72.29,37.138,71.334,37.107,70.461,37.18
			z"/>
		<path fill-rule="evenodd" clip-rule="evenodd" fill="none" stroke="#000000" stroke-width="2" stroke-miterlimit="10" d="
			M169.186,50.976c-0.594-4.325-9.17-2.034-15.444-0.446c-1.979,0.077-3.247,0.216-3.572,0.218c-0.269,0.002-0.65,0.184-1.068,0.808
			c-0.79,0.108-1.384,0.112-1.696-0.048c-1.203,0.209-2.688,0.249-4.22,0.237c-0.127-0.346-0.54-0.479-1.494-0.525
			c-1.956-0.096-1.652,0.485-4.36,0.093c-0.303-0.044-0.545-0.007-0.76,0.058c-0.317-1.208-0.127-2.482-0.798-3.563
			c0.137-0.273,0.272-0.544,0.408-0.818c0.102-0.021,0.187-0.05,0.27-0.08c0.498-0.001,1.073,0.264,1.368-0.438
			c0.002-0.082,0.003-0.162,0.004-0.243c-0.263-1.11,0.239-1.337,1.018-1.401h1.705c0.771,0.038,1.565,0.089,2.397,0h2.407v-1.083
			h-1.636c-1.484-0.231-2.979-0.175-4.45,0h-1.354c-0.98-0.276-1.911-1.122-2.923-0.085c-0.262-0.259-0.523-0.52-0.784-0.779
			c-1.026-0.752-2.223-0.372-3.343-0.494c-0.848-0.091-1.019,0.192-1.652-0.69c-0.218-0.303-0.535-0.808-0.945-0.444
			c-0.371,0.328-0.31,0.86,0.105,1.249c0.493,0.834,1.08,0.217,0.961,2.053c0.696-0.118,1.283,0.1,1.977-0.019
			c0,0.017-0.002,0.03-0.002,0.047c0.322,0.013,0.762,0.169,0.947,0.017c1.306-1.07,1.881,0.148,1.849,0.882
			c-0.056,1.234,0.632,2.322,0.438,3.527c-0.292,0.91-0.871,1.658-0.934,2.71c-1.846-0.168-4.674-1.127-5.989-0.944
			c-0.506,0.07-1.833,0.425-3.24,0.569c-2.107-0.064-3.972-0.097-4.219-0.135c-0.238-0.037-0.453-0.062-0.655-0.082
			c0.137-0.095,0.135-0.308,0.084-0.568c1.147,0.02,2.252,0.039,3.306,0.056c-1.351-0.034-2.529-0.077-3.321-0.135
			c-0.09-0.424-0.24-0.916,0.01-1.112c-0.231-2.595-0.188-1.432-0.112-3.881c0.045-1.438,0.086-6.58,0.04-7.277
			c-0.153-2.294-0.077-6.816-0.304-8.586c-0.024-0.192-0.155-0.353-0.361-0.487c-0.009-0.088-0.018-0.178-0.027-0.256
			c-0.203-1.59-7.334-1.038-9.033-1.05c-3.468-0.024-5.04,0.051-5.79-0.846c-0.292-0.924-0.321-2.385-0.392-4.733
			c-0.044-1.42,0.754-6.368-0.481-7.847c-0.15-0.451-0.365-0.802-0.67-0.996c-2.048,4.965,2.389,14.398-4.574,14.45
			c-2.858,0.021-4.866,0.043-6.352,0.449c-0.476-0.04-0.658,0.062-0.692,0.234c-1.911,0.788-2.836,2.519-3.734,6.387
			c-0.697,2.996-3.432,3.424-6.716,3.172c-0.026,0.021-0.048,0.04-0.072,0.061c-4.217-0.39-12.384-2.829-15.024,3.694
			c-3.045,7.524-3.29,6.053-2.541,6.581c-0.256,0.581-0.502,0.94-0.753,0.945c-0.146,0.095-0.384,0.142-0.657,0.168
			c0.52,0.009,1.057,0.019,1.606,0.028c-0.079,0.144-0.158,0.26-0.237,0.349c-3.281-0.034-6.537-0.015-9.787,0.085
			c-0.076-1.03-0.646-1.77-0.934-2.667c-0.019-0.103-0.022-0.204-0.028-0.305c-0.05-1.085,0.517-2.091,0.466-3.22
			c-0.031-0.734,0.543-1.953,1.849-0.882c0.187,0.152,0.626-0.003,0.947-0.017c0-0.018-0.002-0.03-0.002-0.048
			c0.694,0.119,1.281-0.1,1.977,0.019c-0.118-1.836,0.468-1.219,0.961-2.053c0.415-0.388,0.478-0.921,0.106-1.249
			c-0.41-0.364-0.729,0.141-0.946,0.444c-0.634,0.882-0.805,0.599-1.652,0.69c-1.12,0.123-2.315-0.258-3.343,0.494
			c-0.26,0.259-0.521,0.52-0.783,0.779c-1.012-1.036-1.943-0.19-2.924,0.085h-1.354c-1.473-0.175-2.967-0.231-4.451,0h-1.635v1.083
			h2.406c0.832,0.089,1.627,0.038,2.398,0h1.705c0.777,0.064,1.279,0.291,1.017,1.401c0.001,0.081,0.003,0.161,0.004,0.243
			c0.296,0.702,0.871,0.436,1.368,0.438c0.083,0.03,0.168,0.059,0.27,0.08c0.136,0.273,0.271,0.545,0.408,0.818
			c-0.726,1.172-0.446,2.57-0.896,3.865c-3.144-0.12-6.676-0.195-8.354,0.639c-1.258,0.097-2.55,0.153-3.866,0.187
			c0.025-0.457-0.562-0.514-1.874-0.552c-3.936-0.112-9.666-0.506-11.109,0.906c-1.447,0.119-2.882,0.292-4.29,0.541
			c0.312-0.546,0.102-0.802-1.237-0.494l-8.47,0.364c-2.066,0.288-2.307,2.096-2.008,3.452c0.063,0.288,0.141,0.539,0.25,0.751
			c-0.123,0.896,0.075,2.231,0.291,2.671c0.78,1.589,3.796,1.5,4.91,1.692c1.24,0.213,11.75,2.231,11.926,4.062
			c0.043,0.449-1.523,1.503-1.461,1.424c-1.144,1.451,0.376,7.8,0.604,9.632c0.732,5.901,3.281,5.139,6.638,7.927
			c1.554,1.292,3.188,3.05,4.878,3.917c1.419,0.728,3.783-0.393,5.336-0.414c5.005-0.069,10.01-0.141,15.016-0.208
			c4.649-0.062,9.923-1.174,14.489,0.302c1.859,0.601,3.281,5.049,4.323,7.133c1.508,3.012,1.721,2.959,4.125,3.155
			c8.167,0.668,16.959,0.75,25.408,0.783c3.098,0.012,5.742,0.9,8.734,0.598c3.897-0.394,7.34-4.914,11.375-5.599
			c7.59-1.289,15.266-4.75,22.449-8.471c2.894-1.499,6.407-3.997,8.784-6.89c1.202-1.463,0.34-3.37,1.187-4.76
			c0.936-1.539,2.469-2.297,3.492-3.796C163.012,66.591,170.973,54.412,169.186,50.976z M37.002,84.555
			c0.074,2.603-6.649-3.223-6.617-4.582c0.053-2.187-0.792-12.368,0.418-13.58c1.02,2.626,1.676,5.073,2.249,8.424
			c0.262,1.528,0.521,2.465,0.15,3.03c-0.465-0.024-0.92,0.033-1.292,0.517c-0.187,0.241-0.719-0.017-0.559,0.723
			c-0.115,0.159-0.182,0.334-0.135,0.522c0.206,0.816,3.461-0.024,4.219,0.459c2.051,1.306,1.459,0.593,1.566,4.471
			C37.011,84.85,37.022,85.207,37.002,84.555z M63.899,85.219c-5.234,0.089-10.469,0.189-15.703,0.256
			c-2.172,0.028-4.346,0.056-6.518,0.114c-2.889,0.078-2.63-1.061-1.934-5.071c2.409,1.006,6.364-0.294,9.105-0.331
			c2.969-0.041,6.392-0.743,9.201,0.939c0.941,0.563,6.102,2.167,6.397,3.376C64.358,84.887,64.174,85.126,63.899,85.219z"/>
		<path fill-rule="evenodd" clip-rule="evenodd" fill="none" stroke="#000000" stroke-width="2" stroke-miterlimit="10" d="
			M70.893,30.206h1.705c0.778,0.064,1.28,0.291,1.018,1.401c0.001,0.081,0.002,0.161,0.004,0.243
			c0.295,0.702,0.87,0.436,1.368,0.438c0.083,0.03,0.168,0.059,0.27,0.08c0.136,0.273,0.271,0.545,0.408,0.818
			c-0.786,1.269-0.383,2.803-1.012,4.183l3.181,0.152c0.096-1.286-0.603-2.105-0.933-3.133c-0.194-1.205,0.493-2.293,0.438-3.527
			c-0.032-0.734,0.543-1.953,1.849-0.882c0.186,0.152,0.625-0.003,0.947-0.017c0-0.018-0.002-0.03-0.002-0.047
			c0.693,0.118,1.28-0.1,1.977,0.019c-0.119-1.836,0.468-1.219,0.961-2.053c0.415-0.388,0.477-0.921,0.105-1.249
			c-0.41-0.364-0.728,0.141-0.945,0.444c-0.634,0.882-0.805,0.599-1.652,0.69c-1.12,0.123-2.316-0.258-3.343,0.494
			c-0.261,0.259-0.522,0.52-0.784,0.779c-1.012-1.036-1.942-0.19-2.923,0.085h-1.354c-1.472-0.175-2.966-0.231-4.45,0h-1.636v1.083
			h2.407C69.328,30.294,70.122,30.244,70.893,30.206z"/>
	</g>
</g>
<g id="Palette">
	<rect x="52.583" y="102.334" fill-rule="evenodd" clip-rule="evenodd" fill="#68432C" width="16" height="16"/>
	<rect x="68.583" y="102.334" fill-rule="evenodd" clip-rule="evenodd" fill="#E36B35" width="16" height="16"/>
	<rect x="85.133" y="102.334" fill-rule="evenodd" clip-rule="evenodd" fill="#F3926B" width="16" height="16"/>
	<rect x="101.133" y="102.334" fill-rule="evenodd" clip-rule="evenodd" fill="#736E6B" width="16" height="16"/>
	<rect x="117.133" y="102.334" fill-rule="evenodd" clip-rule="evenodd" fill="#9D9295" width="16" height="16"/>
	<rect x="133.133" y="102.334" fill-rule="evenodd" clip-rule="evenodd" fill="#F0EEEE" width="16" height="16"/>
</g>
</svg>
