<?xml version="1.0" encoding="utf-8"?>
<!-- Generator: Adobe Illustrator 26.5.0, SVG Export Plug-In . SVG Version: 6.00 Build 0)  -->
<svg version="1.1" id="Computer" xmlns="http://www.w3.org/2000/svg" xmlns:xlink="http://www.w3.org/1999/xlink" x="0px" y="0px"
	 viewBox="0 0 1920 1080" style="enable-background:new 0 0 1920 1080;" xml:space="preserve">
<style type="text/css">
	.st0{fill:url(#Case_Shadow_00000096749235578651568400000003249300002729263032_);}
	.st1{fill:url(#Case_00000031203364476509808780000013388350959184013493_);}
	.st2{fill:url(#Stand_00000102505181757917906980000015292166061564697234_);}
	.st3{fill:url(#SVGID_1_);}
	.st4{fill:#6F5F8C;}
	.st5{fill:url(#Shadow_00000016784893858434760220000007958131976363714467_);}
	.st6{fill:url(#SVGID_00000160155816947747999270000002046826226691209141_);}
	.st7{fill:url(#SVGID_00000043424713885164177590000012191379907157173936_);}
	.st8{fill:url(#Monitor_Case_00000007408485733982343630000010232903152020894892_);}
	.st9{fill:url(#Bezel_00000142139494216938915400000003809145233865165207_);}
	.st10{fill:url(#SVGID_00000123437759674485713980000006780353102086547868_);}
	.st11{fill:url(#SVGID_00000022544577606368243450000014060061645394271370_);}
	.st12{fill:url(#SVGID_00000121958697614110902420000008122688287607123126_);}
	.st13{fill:url(#SVGID_00000129184736015525499400000003301290961478132118_);}
	.st14{fill:url(#SVGID_00000150784040849327749790000001416445088015632030_);}
	.st15{fill:url(#SVGID_00000062186190199911777770000015408094007685867167_);}
	.st16{fill:url(#SVGID_00000139270752487430681410000001415639231468750013_);}
	.st17{fill:url(#SVGID_00000032650877521905072410000007493763925833277367_);}
	.st18{fill:#90847B;}
	.st19{fill:#D7C9BE;}
	.st20{fill:url(#SVGID_00000049944267839843465810000005443449310525975200_);}
	.st21{fill:#211302;}
	.st22{fill:#AAA696;}
	.st23{fill:#898274;}
	.st24{fill:#DADCD2;}
	.st25{fill:none;}
	.st26{fill:#A7AA99;}
	.st27{fill:#BCC0B4;}
	.st28{fill:#ECEEE7;}
</style>
<linearGradient id="Case_Shadow_00000092426234969459948480000008246905269611982722_" gradientUnits="userSpaceOnUse" x1="326.9023" y1="580.3356" x2="326.9023" y2="592.0343">
	<stop  offset="0" style="stop-color:#151002"/>
	<stop  offset="1" style="stop-color:#241D0E;stop-opacity:0"/>
</linearGradient>
<path id="Case_Shadow" style="fill:url(#Case_Shadow_00000092426234969459948480000008246905269611982722_);" d="M633.7,588.3
	c-4.8-6-6.4-7.8-6.4-7.8h-29.7h-18.8H26.5c0,0-1.6,1.9-6.4,7.8c-4.8,6,1.2,5.2,1.2,5.2h22.9l535.7-0.6l29.8,0.6h22.9
	C632.5,593.5,638.6,594.3,633.7,588.3z"/>
<linearGradient id="Case_00000080189486897127669610000006395346937770909084_" gradientUnits="userSpaceOnUse" x1="326.3323" y1="428.3108" x2="326.3323" y2="577.4005">
	<stop  offset="0" style="stop-color:#CBC0B7"/>
	<stop  offset="0.3623" style="stop-color:#D1C5BB"/>
	<stop  offset="0.4662" style="stop-color:#DFD5C9"/>
	<stop  offset="0.498" style="stop-color:#988A7D"/>
	<stop  offset="0.587" style="stop-color:#8C8071"/>
	<stop  offset="0.9995" style="stop-color:#ACA195"/>
</linearGradient>
<polygon id="Case" style="fill:url(#Case_00000080189486897127669610000006395346937770909084_);" points="635.2,580.9 628.8,500.9 
	584.4,426.4 73.9,426.4 23.1,501 17.4,581.2 "/>
<g id="Monitor">
	
		<linearGradient id="Stand_00000124873004778670359530000018002389954042055610_" gradientUnits="userSpaceOnUse" x1="327.7441" y1="426.2353" x2="327.7441" y2="490.9695">
		<stop  offset="0" style="stop-color:#857A70"/>
		<stop  offset="0.3623" style="stop-color:#675F54"/>
		<stop  offset="0.5404" style="stop-color:#514834"/>
		<stop  offset="0.6026" style="stop-color:#605743"/>
		<stop  offset="0.8687" style="stop-color:#6A604D"/>
		<stop  offset="0.9319" style="stop-color:#4A4230"/>
		<stop  offset="0.9561" style="stop-color:#2B2514"/>
		<stop  offset="0.9995" style="stop-color:#DCD2C6"/>
	</linearGradient>
	<polygon id="Stand" style="fill:url(#Stand_00000124873004778670359530000018002389954042055610_);" points="585.2,492.5 
		582.4,463.1 558.5,426.8 97.7,426.4 73.1,463.1 70.2,492.8 	"/>
	<g id="Badge">
		<linearGradient id="SVGID_1_" gradientUnits="userSpaceOnUse" x1="597.3705" y1="512.6871" x2="597.3705" y2="532.484">
			<stop  offset="4.921260e-04" style="stop-color:#E3D5C8"/>
			<stop  offset="6.695989e-02" style="stop-color:#BBB1A7"/>
			<stop  offset="0.1516" style="stop-color:#A0988C"/>
			<stop  offset="0.8496" style="stop-color:#948A89"/>
			<stop  offset="0.9114" style="stop-color:#9C918D"/>
			<stop  offset="0.9997" style="stop-color:#85786E"/>
		</linearGradient>
		<rect x="573.3" y="512.8" class="st3" width="48.1" height="20.2"/>
		<path class="st4" d="M609.6,525.8c0.1-0.1,0.3-0.2,0.5-0.3c0.2-0.1,0.3-0.2,0.4-0.4c0.1-0.4,0.2-0.8,0.2-1.2c0-1.2,0-2.3,0-3.5
			c0-0.3-0.1-0.6-0.5-0.7c-0.2,0-0.4-0.1-0.4-0.4c0-0.2,0.1-0.4,0.4-0.5c0.2-0.1,0.5-0.1,0.7-0.2c0.5-0.1,0.9-0.3,1.4-0.4
			c0.4-0.1,0.7,0,0.7,0.5c0,0.2-0.1,0.4,0.1,0.5c0.1,0,0.3-0.1,0.5-0.2c0.6-0.3,1.1-0.6,1.7-0.8c0.7-0.3,1.5-0.1,2.1,0.3
			c0.2,0.1,0.4,0.4,0.5,0.6c0.4,0.9,0.4,1.8,0.3,2.8c-0.1,1-0.2,2,0,3c0.1,0.3,0.2,0.5,0.4,0.6c0.1,0.1,0.3,0.2,0.3,0.4
			c0.1,0.3,0,0.5-0.3,0.5c-0.5,0-1,0-1.5,0.1c-0.3,0-0.6,0-0.9,0c-0.5,0-0.6-0.2-0.6-0.7c0-0.5,0.1-1.1,0.1-1.6
			c0-0.9-0.1-1.8-0.1-2.7c0-0.3-0.1-0.6-0.2-0.8c-0.1-0.5-0.5-0.7-1-0.7c-0.1,0-0.2,0-0.3,0c-1,0.2-1.1,0.4-1.1,1.3
			c0,0.8-0.1,1.5,0,2.3c0,0.5,0.1,0.9,0.1,1.4c0,0.3,0.2,0.5,0.5,0.5c0.1,0,0.2,0.1,0.3,0.1c0.1,0.1,0.2,0.3,0.2,0.5
			c0,0.1-0.2,0.2-0.4,0.2c-0.3,0-0.6,0-0.9,0c-0.9,0-1.8,0-2.8-0.1c-0.1,0-0.2-0.1-0.3-0.1c-0.3,0.1-0.6,0.2-0.9,0.2
			c-0.7,0.1-1.4,0.1-2.1-0.1c-0.2-0.1-0.4-0.2-0.3-0.4c0-0.2,0-0.3,0-0.5c0-0.2-0.1-0.2-0.2-0.1c-0.2,0.2-0.5,0.4-0.7,0.6
			c-0.7,0.7-1.5,0.9-2.5,0.7c-1-0.3-1.4-0.9-1.4-1.9c0-1.4-0.1-2.9-0.1-4.3c0-0.5,0-0.6-0.5-0.7c-0.2-0.1-0.4-0.2-0.4-0.5
			c0-0.3,0.2-0.3,0.4-0.4c0.8-0.2,1.6-0.3,2.4-0.5c0.4-0.1,0.6,0,0.5,0.4c0,0.5-0.1,1-0.1,1.6c-0.1,1.2-0.1,2.5,0.1,3.7
			c0.1,0.4,0.3,0.6,0.6,0.7c0.4,0.2,0.8,0.2,1.2,0c0.5-0.2,0.6-0.7,0.6-1.2c0.1-0.9,0.1-1.9,0.1-2.8c0-0.2-0.1-0.5-0.1-0.7
			c-0.1-0.3-0.2-0.4-0.5-0.4c-0.1,0-0.2,0-0.3,0c-0.2,0-0.4,0-0.4-0.2c-0.1-0.2-0.1-0.5,0.2-0.5c0.3-0.1,0.7-0.2,1.1-0.2
			c0.5,0,1.1-0.1,1.5-0.3c0,0,0,0,0,0c0.7-0.2,0.9-0.1,0.8,0.6c0,1.8,0,3.6,0,5.5c0,0.3,0,0.5,0.1,0.8c0,0.2,0.1,0.3,0.3,0.3
			C609.2,525.6,609.4,525.7,609.6,525.8z"/>
		<path class="st4" d="M596.4,526.7c-0.6-0.1-1.1-0.2-1.6-0.2c-0.2,0-0.3-0.1-0.3-0.4c-0.1-0.6-0.1-1.2,0.1-1.9
			c0-0.1,0.1-0.3,0.2-0.3c0.1,0,0.4,0,0.4,0.1c0.1,0.2,0.2,0.4,0.3,0.6c0.2,1,1.6,1.1,2.2,0.6c0.4-0.3,0.5-1,0.2-1.4
			c-0.1-0.2-0.5-0.3-0.8-0.5c-0.6-0.2-1.1-0.4-1.7-0.6c-1-0.4-1.6-1.8-1.1-2.9c0.6-1.3,1.7-2,3.2-1.9c0.5,0,1,0.1,1.5,0.3
			c0.7,0.2,0.9,0.5,0.8,1.3c0,0.2-0.1,0.3-0.1,0.5c-0.1,0.4-0.5,0.4-0.8,0.1c-0.1-0.1-0.1-0.2-0.1-0.3c-0.2-0.6-0.6-0.9-1.2-0.8
			c-0.7,0.1-1.1,0.5-1,1.2c0,0.4,0.2,0.7,0.6,0.8c0.5,0.2,1.1,0.4,1.6,0.5c0.5,0.2,1,0.4,1.4,0.9c0.4,0.7,0.4,1.4,0.1,2
			c-0.4,1-1.2,1.7-2.3,1.9C597.4,526.6,596.9,526.6,596.4,526.7z"/>
		<path class="st4" d="M583.6,520c-0.2-0.2-0.4-0.5-0.6-0.7c-0.8-0.8-1.6-1.6-2.4-2.5c-0.2-0.2-0.2-0.3,0-0.4
			c0.2-0.2,0.4-0.3,0.5-0.5c0.1-0.1,0.2-0.2,0.4,0c0.6,0.6,1.3,1.3,1.9,1.9c0.4,0.4,0.9,0.8,1.2,1.3c0.5,0.6,0.4,1.5-0.1,2
			c-0.6,0.5-1.4,0.5-2-0.1c-1-1-2-2-3-3c-0.1-0.1-0.2-0.2,0-0.4c0.2-0.2,0.4-0.4,0.5-0.6c0.1-0.1,0.2-0.1,0.3,0c0.5,0.5,1,1,1.4,1.4
			c0.5,0.5,1,1,1.5,1.5C583.3,520,583.4,520,583.6,520C583.5,520,583.5,520,583.6,520z"/>
		<path class="st4" d="M576.9,522.4c0.1-0.1,0.2-0.1,0.3-0.2c0.7-0.7,1.5-1.5,2.2-2.2c0.2-0.2,0.4-0.4,0.7-0.6c0,0,0.2-0.1,0.2,0
			c0.2,0.2,0.4,0.4,0.6,0.6c0.1,0.1,0.1,0.3-0.1,0.4c-0.5,0.6-1.1,1.1-1.6,1.7c-0.5,0.5-0.9,0.9-1.4,1.4c-0.4,0.4-1.1,0.5-1.6,0.2
			c-0.6-0.3-0.9-0.9-0.8-1.4c0.1-0.3,0.2-0.6,0.4-0.8c1-1,1.9-2,2.9-3c0.3-0.3,0.3-0.3,0.6,0c0.1,0.1,0.3,0.3,0.4,0.4
			c0.2,0.2,0.2,0.3,0,0.5c-0.8,0.8-1.6,1.7-2.4,2.5C577.1,521.9,576.9,522.1,576.9,522.4C576.8,522.3,576.8,522.4,576.9,522.4z"/>
		<path class="st4" d="M585.8,522.4c0.1-0.1,0.2-0.1,0.2-0.2c0.9-0.9,1.8-1.8,2.8-2.8c0.3-0.3,0.3-0.3,0.5,0
			c0.1,0.1,0.3,0.3,0.4,0.4c0.1,0.1,0.2,0.2,0,0.4c-0.7,0.7-1.4,1.4-2,2.1c-0.3,0.3-0.7,0.6-1,1c-0.5,0.6-1.5,0.4-1.9,0
			c-0.5-0.4-0.6-1.2-0.2-1.8c0.2-0.3,0.4-0.5,0.7-0.8c0.6-0.6,1.2-1.2,1.8-1.9c0.2-0.2,0.4-0.4,0.5-0.7c0.1-0.2,0.4-0.2,0.5-0.1
			c0.2,0.2,0.4,0.4,0.6,0.6c0.1,0.1,0.1,0.2,0,0.4c-0.6,0.7-1.3,1.3-1.9,2c-0.3,0.3-0.6,0.6-0.9,1
			C585.8,522.1,585.7,522.2,585.8,522.4C585.7,522.3,585.8,522.4,585.8,522.4z"/>
		<path class="st4" d="M583.4,515.6c0.1,0.1,0.1,0.2,0.2,0.3c0.7,0.7,1.4,1.4,2.1,2.2c0.2,0.2,0.4,0.5,0.6,0.7
			c0.1,0.2,0.2,0.3,0,0.4c-0.2,0.2-0.3,0.3-0.5,0.5c-0.1,0.1-0.2,0.1-0.4,0c-0.3-0.3-0.5-0.5-0.8-0.8c-0.5-0.5-0.9-1-1.4-1.4
			c-0.3-0.4-0.7-0.7-1-1.1c-0.5-0.6-0.3-1.7,0.4-2.1c0.7-0.3,1.2-0.2,1.8,0.3c1,1,1.9,1.9,2.9,2.9c0.3,0.3,0.3,0.3,0,0.6
			c-0.1,0.1-0.3,0.3-0.4,0.5c-0.1,0.1-0.2,0.1-0.4,0c-0.6-0.6-1.1-1.1-1.7-1.7c-0.4-0.4-0.8-0.8-1.1-1.1
			C583.6,515.7,583.5,515.6,583.4,515.6C583.4,515.6,583.4,515.6,583.4,515.6z"/>
		<path class="st4" d="M581.2,522.2c-0.1,0.1-0.2,0.1-0.3,0.2c-0.5,0.5-1.1,1.1-1.6,1.6c-0.4,0.4-0.8,0.8-1.2,1.2
			c-0.1,0.1-0.2,0.1-0.4,0c-0.1-0.2-0.3-0.3-0.5-0.5c-0.2-0.2-0.2-0.3,0-0.4c1-1,2-2.1,3.1-3.1c0.1-0.1,0.2-0.2,0.2-0.3
			c0.1,0,0.2,0,0.3,0c0.9-0.2,1.8,0.4,1.8,1.5c0,0.4-0.1,0.7-0.4,0.9c-1,1-2,2-3.1,3.1c-0.2,0.2-0.3,0.2-0.4,0
			c-0.1-0.2-0.3-0.3-0.5-0.5c-0.2-0.2-0.2-0.3,0-0.5c0.5-0.5,1.1-1.1,1.6-1.6c0.4-0.4,0.8-0.8,1.1-1.2
			C581.1,522.4,581.2,522.3,581.2,522.2C581.2,522.2,581.2,522.2,581.2,522.2z"/>
		<path class="st4" d="M583.4,523.1c0.3,0,0.6,0.1,0.9,0.3c0.4,0.4,0.8,0.8,1.2,1.2c0.6,0.6,1.3,1.3,1.9,1.9c0.2,0.2,0.2,0.3,0,0.5
			c-0.2,0.1-0.3,0.3-0.4,0.5c-0.2,0.2-0.3,0.2-0.5,0c-0.7-0.7-1.4-1.5-2.2-2.2c-0.2-0.2-0.5-0.4-0.7-0.7c-0.1,0-0.1-0.1-0.2-0.1
			c0,0.1,0,0.2,0.1,0.2c0.4,0.4,0.7,0.7,1.1,1.1c0.6,0.6,1.2,1.2,1.8,1.9c0,0,0,0.2,0,0.2c-0.2,0.2-0.4,0.4-0.6,0.6
			c-0.1,0.1-0.2,0.1-0.3,0c-0.6-0.6-1.3-1.2-1.9-1.8c-0.4-0.4-0.8-0.8-1.2-1.3c-0.4-0.5-0.5-1.2-0.2-1.7
			C582.4,523.3,582.9,523.1,583.4,523.1z"/>
		<path class="st4" d="M590,522.2c-0.1,0.1-0.3,0.2-0.4,0.3c-0.8,0.8-1.6,1.6-2.4,2.4c-0.4,0.4-0.4,0.4-0.9,0c0,0,0,0-0.1-0.1
			c-0.4-0.4-0.4-0.4,0-0.8c0.8-0.8,1.5-1.5,2.3-2.3c0.3-0.3,0.5-0.5,0.8-0.8c0.4-0.4,0.9-0.3,1.4-0.2c0.5,0.2,0.8,0.5,0.9,1.1
			c0.1,0.5,0,0.9-0.4,1.3c-1,1-2,2-3,3c-0.2,0.2-0.3,0.2-0.5,0c-0.2-0.2-0.4-0.3-0.5-0.5c-0.1-0.1-0.1-0.2,0-0.3
			c0.4-0.4,0.8-0.8,1.3-1.3c0.6-0.6,1.1-1.1,1.7-1.7C590.1,522.4,590.1,522.3,590,522.2C590.1,522.2,590.1,522.2,590,522.2z"/>
		<path class="st4" d="M583.6,528.9c-0.1-0.1-0.1-0.2-0.2-0.2c-0.9-0.9-1.8-1.8-2.7-2.7c-0.4-0.4-0.4-0.4,0-0.8c0.5-0.5,0.5-0.5,1,0
			c0.9,0.9,1.9,1.9,2.8,2.8c0.4,0.4,0.5,0.9,0.3,1.5c-0.2,0.6-0.7,0.9-1.2,0.9c-0.3,0-0.7-0.1-0.9-0.3c-0.7-0.7-1.4-1.3-2.1-2
			c-0.4-0.4-0.7-0.7-1.1-1.1c-0.2-0.1-0.2-0.3,0-0.4c0.2-0.2,0.3-0.3,0.5-0.5c0.1-0.2,0.3-0.2,0.4,0c0.4,0.5,0.9,0.9,1.3,1.4
			c0.5,0.5,1,1,1.5,1.5C583.3,528.9,583.4,528.9,583.6,528.9C583.6,528.9,583.6,528.9,583.6,528.9z"/>
		<path class="st4" d="M616.2,529.7c0-0.2,0-0.4,0-0.6c0-0.1-0.1-0.3-0.2-0.3c-0.1,0-0.3,0.1-0.4,0.2c-0.1,0.2-0.1,0.5-0.2,0.8
			c0,0.1,0,0.3,0,0.4c0,0.1,0,0.3-0.2,0.3c-0.2,0-0.2-0.2-0.2-0.3c0-0.3,0-0.7,0-1c0-0.1-0.1-0.3-0.2-0.3c-0.1,0-0.3,0.1-0.4,0.2
			c-0.1,0.1-0.1,0.3-0.1,0.4c0,0.3,0,0.6-0.1,0.9c0,0.1-0.1,0.2-0.1,0.2c-0.1-0.1-0.2-0.1-0.2-0.2c0-0.5,0-1.1,0-1.6
			c0-0.2,0.1-0.2,0.3-0.1c0.1,0,0.2,0,0.3,0c0.2-0.1,0.5-0.1,0.7,0c0.1,0,0.2,0,0.3,0c0.6-0.3,1.1,0,1.1,0.7c0,0.3,0,0.7-0.1,1
			c0,0.1-0.1,0.1-0.2,0.2c-0.1-0.1-0.2-0.1-0.2-0.2C616.2,530.1,616.2,529.9,616.2,529.7C616.2,529.7,616.2,529.7,616.2,529.7z"/>
		<path class="st4" d="M594.6,529.4c0-0.3,0-0.5,0-0.8c0-0.2,0.1-0.3,0.3-0.2c0.1,0,0.2,0,0.3,0c0.2-0.1,0.5-0.1,0.7,0.1
			c0.1,0.1,0.2,0.1,0.4,0c0.4-0.3,0.9,0,1,0.5c0,0.4,0,0.8,0,1.2c0,0.1-0.1,0.2-0.2,0.2c-0.2,0-0.2-0.1-0.2-0.2c0-0.4,0-0.7,0-1.1
			c0-0.2,0-0.3-0.2-0.3c-0.2,0-0.4,0.1-0.4,0.3c0,0.2,0,0.4,0,0.7c0,0.2,0,0.3,0,0.5c0,0.1-0.1,0.1-0.2,0.2
			c-0.1-0.1-0.1-0.1-0.1-0.2c0-0.4,0-0.7-0.1-1.1c0-0.2,0-0.3-0.3-0.3c-0.2,0-0.4,0.1-0.4,0.3c0,0.3,0,0.7-0.1,1c0,0.1,0,0.2,0,0.3
			c0,0-0.1,0.1-0.2,0.1c-0.1,0-0.1-0.1-0.1-0.2C594.6,530,594.6,529.7,594.6,529.4C594.6,529.4,594.6,529.4,594.6,529.4z"/>
		<path class="st4" d="M612,529.6c0,0.3,0.1,0.4,0.3,0.5c0.2,0.1,0.4,0,0.5-0.1c0.1,0,0.1-0.1,0.1-0.2c0.1,0,0.2,0,0.3,0
			c0,0.1,0,0.2,0,0.2c-0.2,0.4-0.5,0.5-1,0.4c-0.3,0-0.6-0.4-0.7-0.8c0-0.4,0-0.7,0.2-1c0.2-0.3,0.7-0.4,1.1-0.3
			c0.3,0.2,0.6,0.6,0.5,1c0,0.1-0.2,0.2-0.2,0.2c-0.3,0-0.5,0-0.8,0C612.2,529.6,612.1,529.6,612,529.6z M612,529.2
			c0.2,0,0.5,0,0.7,0c0.1,0,0.2-0.1,0.2-0.1c0-0.1,0-0.2-0.1-0.2C612.5,528.6,612.1,528.8,612,529.2z"/>
		<path class="st4" d="M604.1,529.5c0,0.4-0.1,0.7-0.5,0.9c-0.3,0.2-0.6,0.1-0.9,0c-0.3-0.2-0.5-0.7-0.4-1.2
			c0.1-0.4,0.4-0.7,0.8-0.8c0.5-0.1,0.9,0.3,1,0.8C604.1,529.3,604.1,529.4,604.1,529.5z M602.6,529.4c0,0.4,0.2,0.7,0.5,0.7
			c0.4,0,0.6-0.3,0.6-0.8c0-0.4-0.2-0.6-0.5-0.6C602.9,528.7,602.6,529,602.6,529.4z"/>
		<path class="st4" d="M605.3,530.5c-0.3,0-0.6,0-0.8-0.4c0-0.1,0-0.2,0-0.3c0.1,0,0.2,0,0.3,0c0,0,0.1,0.1,0.1,0.1
			c0.2,0.2,0.5,0.2,0.7,0c0.1-0.1,0.1-0.2-0.1-0.3c-0.2-0.1-0.4-0.2-0.7-0.2c-0.3-0.1-0.4-0.2-0.4-0.5c0-0.3,0.1-0.5,0.4-0.5
			c0.2-0.1,0.5-0.1,0.7,0c0.1,0,0.3,0.2,0.4,0.3c0,0,0,0.2,0,0.2c-0.1,0-0.2,0-0.2-0.1c-0.2-0.2-0.3-0.2-0.6-0.2
			c-0.1,0-0.1,0.1-0.2,0.2c0.1,0.1,0.1,0.2,0.2,0.2c0.2,0.1,0.3,0.1,0.5,0.2c0.4,0.1,0.5,0.3,0.5,0.6c0,0.3-0.3,0.6-0.7,0.6
			C605.5,530.5,605.4,530.5,605.3,530.5z"/>
		<path class="st4" d="M617.9,530.5c-0.3,0-0.6-0.1-0.7-0.4c0-0.1,0-0.2,0-0.3c0.1,0,0.2,0,0.3,0.1c0.2,0.2,0.4,0.3,0.6,0.2
			c0.1,0,0.2-0.1,0.2-0.2c0-0.1-0.1-0.2-0.2-0.2c-0.2-0.1-0.4-0.1-0.6-0.2c-0.3-0.1-0.4-0.2-0.4-0.5c0-0.2,0.1-0.4,0.3-0.5
			c0.3-0.2,0.8-0.1,1,0.1c0.1,0.1,0.1,0.2,0.1,0.4c-0.1,0-0.2,0-0.3-0.1c-0.2-0.1-0.4-0.2-0.6-0.1c-0.2,0.1-0.1,0.2,0,0.3
			c0.2,0.1,0.3,0.1,0.5,0.2c0.5,0.2,0.6,0.3,0.6,0.7c-0.1,0.3-0.4,0.5-0.8,0.5C618,530.5,618,530.5,617.9,530.5z"/>
		<path class="st4" d="M609.2,530.5c-0.3,0-0.6-0.1-0.7-0.4c0-0.1,0-0.2,0-0.3c0.1,0,0.3,0,0.3,0.1c0.1,0.3,0.4,0.3,0.6,0.2
			c0.1,0,0.2-0.1,0.2-0.2c-0.1-0.1-0.1-0.2-0.2-0.2c-0.2-0.1-0.4-0.1-0.6-0.2c-0.2-0.1-0.3-0.3-0.3-0.5c0-0.2,0.1-0.4,0.3-0.5
			c0.3-0.1,0.5-0.1,0.8,0c0.1,0,0.2,0.2,0.3,0.3c0,0.1,0,0.2,0,0.3c-0.1,0-0.2,0-0.3-0.1c-0.2-0.1-0.3-0.2-0.5-0.2
			c-0.1,0-0.2,0.1-0.3,0.2c0.1,0.1,0.1,0.2,0.2,0.2c0.2,0.1,0.4,0.1,0.6,0.2c0.2,0.1,0.4,0.2,0.4,0.5c0,0.3-0.2,0.5-0.4,0.6
			C609.5,530.5,609.3,530.5,609.2,530.5z"/>
		<path class="st4" d="M607.3,529.9c0.1-0.3,0.2-0.7,0.3-1c0-0.1,0.1-0.2,0.1-0.3c0.1-0.1,0.2-0.1,0.3-0.1c0,0.1,0.1,0.2,0,0.2
			c-0.3,0.7-0.5,1.4-0.8,2.1c-0.1,0.2-0.2,0.3-0.4,0.4c-0.1,0-0.3,0-0.3-0.1c-0.1-0.1,0.1-0.2,0.2-0.2c0.2-0.1,0.3-0.3,0.2-0.5
			c-0.1-0.4-0.3-0.8-0.4-1.2c0-0.1-0.1-0.2-0.1-0.3c0-0.1-0.1-0.3,0.1-0.3c0.2-0.1,0.3,0.1,0.3,0.2c0.1,0.3,0.2,0.6,0.3,0.9
			C607.1,529.7,607.2,529.8,607.3,529.9C607.2,529.9,607.2,529.9,607.3,529.9z"/>
		<path class="st4" d="M598.6,529.6c0-0.2,0.1-0.4,0.1-0.6c0.2-0.5,1-0.7,1.4-0.3c0.1,0.1,0.1,0.2,0.1,0.3c0,0.1,0,0.2-0.1,0.2
			c-0.1,0-0.2,0-0.3-0.1c-0.1-0.2-0.3-0.3-0.5-0.3c-0.3,0.1-0.3,0.3-0.4,0.5c0,0.2,0,0.4,0,0.5c0.1,0.1,0.2,0.3,0.3,0.3
			c0.1,0,0.3-0.1,0.4-0.2c0,0,0.1-0.1,0.1-0.1c0.1,0,0.1-0.1,0.2,0c0,0,0.1,0.1,0.1,0.1c-0.1,0.2-0.1,0.4-0.3,0.5
			C599.4,530.8,598.6,530.3,598.6,529.6z"/>
		<path class="st4" d="M610.5,529.6c0-0.2,0-0.4,0-0.5c0-0.1-0.1-0.2-0.1-0.3c-0.2-0.1-0.1-0.2,0-0.3c0.1-0.1,0.1-0.2,0.2-0.3
			c0.1-0.1,0.1-0.1,0.2-0.2c0.1,0.1,0.1,0.1,0.2,0.2c0.1,0.1,0.1,0.2,0.2,0.3c0.1,0.1,0.2,0.2,0,0.3c-0.2,0.1-0.2,0.3-0.2,0.4
			c0,0.2,0,0.4,0,0.6c0,0.2,0,0.3,0.2,0.4c0,0,0.1,0.1,0.1,0.2c0,0.1-0.1,0.1-0.2,0.1c-0.2,0-0.5-0.1-0.5-0.4c0,0,0,0,0-0.1
			C610.5,529.9,610.5,529.8,610.5,529.6C610.5,529.6,610.5,529.6,610.5,529.6z"/>
		<path class="st4" d="M600.9,529.4c0-0.2,0-0.5,0-0.7c0-0.2,0.1-0.3,0.3-0.2c0.1,0.1,0.2,0.1,0.3,0c0.1-0.1,0.3-0.1,0.3,0.1
			c0.1,0.2,0,0.2-0.2,0.3c-0.3,0.1-0.4,0.2-0.4,0.5c0,0.3,0,0.6-0.1,0.8c0,0.1-0.1,0.2-0.2,0.3c-0.1-0.1-0.2-0.2-0.2-0.3
			C600.9,529.9,600.9,529.7,600.9,529.4C600.9,529.4,600.9,529.4,600.9,529.4z"/>
		<path class="st4" d="M598.3,529.5c0,0.2,0,0.5,0,0.7c0,0.1,0,0.3-0.2,0.2c-0.1,0-0.2-0.1-0.2-0.2c0-0.5,0-1,0-1.5
			c0-0.1,0.1-0.3,0.2-0.2c0.1,0,0.2,0.1,0.2,0.2C598.3,529,598.3,529.2,598.3,529.5C598.3,529.5,598.3,529.5,598.3,529.5z"/>
		<path class="st4" d="M598.1,528.2c-0.1-0.1-0.2-0.2-0.2-0.3c0-0.1,0.1-0.1,0.2-0.2c0.1,0.1,0.2,0.1,0.2,0.2
			C598.3,528,598.2,528.1,598.1,528.2z"/>
	</g>
	
		<radialGradient id="Shadow_00000146492439135163484360000015040391329464914836_" cx="310.8029" cy="180.7819" r="312.2005" gradientUnits="userSpaceOnUse">
		<stop  offset="0.6059" style="stop-color:#151002"/>
		<stop  offset="0.8366" style="stop-color:#171204;stop-opacity:0.4278"/>
		<stop  offset="0.9584" style="stop-color:#1F190A;stop-opacity:0.1258"/>
		<stop  offset="1" style="stop-color:#241D0E;stop-opacity:2.271469e-02"/>
	</radialGradient>
	
		<ellipse id="Shadow" style="fill:url(#Shadow_00000146492439135163484360000015040391329464914836_);" cx="330.1" cy="439.3" rx="168.4" ry="33.1"/>
	<g id="Foot">
		
			<linearGradient id="SVGID_00000053538814328925986380000014272437291687716763_" gradientUnits="userSpaceOnUse" x1="325.692" y1="410.3311" x2="325.692" y2="448.1658">
			<stop  offset="0" style="stop-color:#090A03"/>
			<stop  offset="0.7808" style="stop-color:#403823"/>
			<stop  offset="0.9292" style="stop-color:#736959"/>
		</linearGradient>
		
			<ellipse style="fill:url(#SVGID_00000053538814328925986380000014272437291687716763_);" cx="325.7" cy="429.9" rx="147.4" ry="18.5"/>
		
			<linearGradient id="SVGID_00000094607923339469738720000003698302207509595291_" gradientUnits="userSpaceOnUse" x1="178.2856" y1="444.6028" x2="473.0614" y2="444.6028">
			<stop  offset="0" style="stop-color:#4B4331"/>
			<stop  offset="0.227" style="stop-color:#322C1E"/>
			<stop  offset="0.7307" style="stop-color:#9B8E80"/>
			<stop  offset="1" style="stop-color:#4F4735"/>
		</linearGradient>
		<path style="fill:url(#SVGID_00000094607923339469738720000003698302207509595291_);" d="M473,430.5
			c-2.7,9.9-67.6,17.9-147.3,17.9c-81.4,0-147.4-8.3-147.4-18.5v11.6h0.1c2.3,10,67.3,18,147.3,18c81.4,0,147.4-8.3,147.4-18.5
			c0-0.2,0-0.4-0.1-0.6V430.5z"/>
	</g>
	
		<linearGradient id="Monitor_Case_00000163789932645258978980000017807717882092029848_" gradientUnits="userSpaceOnUse" x1="326.6147" y1="7.6113" x2="326.6147" y2="415.8502">
		<stop  offset="0" style="stop-color:#C5B7A9"/>
		<stop  offset="0.1537" style="stop-color:#C0B2A4"/>
		<stop  offset="0.5404" style="stop-color:#B6A79B"/>
		<stop  offset="0.8687" style="stop-color:#A89C90"/>
		<stop  offset="0.9995" style="stop-color:#A39688"/>
	</linearGradient>
	
		<rect id="Monitor_Case" x="70.8" y="8.8" style="fill:url(#Monitor_Case_00000163789932645258978980000017807717882092029848_);" width="511.6" height="418.4"/>
	
		<linearGradient id="Bezel_00000080184817900596502280000004671640996505900470_" gradientUnits="userSpaceOnUse" x1="328.7515" y1="45.2528" x2="328.7515" y2="375.0403">
		<stop  offset="0" style="stop-color:#948577"/>
		<stop  offset="3.857037e-02" style="stop-color:#645A48"/>
		<stop  offset="8.956692e-02" style="stop-color:#978B80"/>
		<stop  offset="0.5404" style="stop-color:#47402F"/>
		<stop  offset="0.9812" style="stop-color:#9B8E80"/>
		<stop  offset="0.9995" style="stop-color:#E8DFCE"/>
	</linearGradient>
	<path id="Bezel" style="fill:url(#Bezel_00000080184817900596502280000004671640996505900470_);" d="M107.1,195.7l0.3-142.1
		c0,0-1-9.4,13.2-9.8c14.3-0.3,275.8-2.4,275.8-2.4l137.6,0.3c0,0,14.6-2.4,14.6,17.1s1.7,160.2,1.7,160.2l1,151.8
		c0,0,3.1,14.3-12.2,15.3c-15.3,1-160.9,2.8-160.9,2.8l-254.6-1.4c0,0-18.8,3.5-18.1-20.2C106.4,343.7,107.1,195.7,107.1,195.7z"/>
	<g id="Screen">
		
			<linearGradient id="SVGID_00000160191237956694019740000008210558913789775805_" gradientUnits="userSpaceOnUse" x1="327.3044" y1="48.2913" x2="327.3044" y2="372.4539">
			<stop  offset="0" style="stop-color:#0C0D0A"/>
			<stop  offset="0.2892" style="stop-color:#292E28"/>
			<stop  offset="0.5404" style="stop-color:#2A3029"/>
			<stop  offset="0.8667" style="stop-color:#34312D"/>
			<stop  offset="0.9995" style="stop-color:#0C0501"/>
		</linearGradient>
		<path style="fill:url(#SVGID_00000160191237956694019740000008210558913789775805_);" d="M110.8,197.5l2.8,164.1
			c0,0-4,14.3,14.3,15.1c18.3,0.8,180.8,4.8,196.4,4.8c15.5,0,190-3.2,202.8-5.6c12.7-2.4,14.7-3.2,15.1-17.1
			c0.4-13.9,2-133.4,1.6-156.9c-0.4-23.5-4-119.5-4.8-129.9c-0.8-10.4,0-21.1-15.9-21.1c-15.9,0-168.1-2-181.6-1.6
			c-13.5,0.4-210.3,2.8-213.5,3.2c-3.2,0.4-12.7-0.8-13.1,12.3S110.8,179.6,110.8,197.5z"/>
		
			<linearGradient id="SVGID_00000068678153431478593790000002440358706703035026_" gradientUnits="userSpaceOnUse" x1="112.3092" y1="214.6445" x2="154.6621" y2="214.6445">
			<stop  offset="0" style="stop-color:#0C0D0A"/>
			<stop  offset="0.9995" style="stop-color:#0C0501;stop-opacity:0"/>
		</linearGradient>
		<path style="fill:url(#SVGID_00000068678153431478593790000002440358706703035026_);" d="M162.5,51.7c-20.1,0.3-33.8,0.5-34.6,0.6
			c-3.2,0.4-12.7-0.8-13.1,12.3c-0.4,13.1-4,114.7-4,132.6l2.8,164.1c0,0-4,14.3,14.3,15.1c4.4,0.2,17.4,0.6,34.6,1V51.7z"/>
		
			<linearGradient id="SVGID_00000020385209934953535330000013788326169483317147_" gradientUnits="userSpaceOnUse" x1="550.319" y1="212.3075" x2="487.6368" y2="214.0016">
			<stop  offset="0" style="stop-color:#0C0D0A"/>
			<stop  offset="0.9995" style="stop-color:#0C0501;stop-opacity:0"/>
		</linearGradient>
		<path style="fill:url(#SVGID_00000020385209934953535330000013788326169483317147_);" d="M539,72c-0.8-10.4,0-21.1-15.9-21.1
			c-5.4,0-26.3-0.2-52.2-0.5v328.1c29-0.8,51.8-1.7,56.2-2.5c12.7-2.4,14.7-3.2,15.1-17.1c0.4-13.9,2-133.4,1.6-156.9
			C543.4,178.4,539.8,82.4,539,72z"/>
		
			<radialGradient id="SVGID_00000014622599491454394530000002826501790365866408_" cx="238.5207" cy="145.2055" r="69.4954" gradientUnits="userSpaceOnUse">
			<stop  offset="0" style="stop-color:#5B635D;stop-opacity:0.7"/>
			<stop  offset="1" style="stop-color:#323733;stop-opacity:0"/>
		</radialGradient>
		
			<rect x="39.3" y="72.9" style="fill:url(#SVGID_00000014622599491454394530000002826501790365866408_);" width="399.9" height="143.5"/>
	</g>
</g>
<g id="Mouse">
	
		<linearGradient id="SVGID_00000132060984227935668490000007644499674969352881_" gradientUnits="userSpaceOnUse" x1="669.9329" y1="622.0092" x2="656.3799" y2="739.0912">
		<stop  offset="0" style="stop-color:#656254"/>
		<stop  offset="0.3118" style="stop-color:#5E5D50"/>
		<stop  offset="0.7809" style="stop-color:#867E70"/>
		<stop  offset="1" style="stop-color:#373E37"/>
	</linearGradient>
	<path style="fill:url(#SVGID_00000132060984227935668490000007644499674969352881_);" d="M677.9,619.8l-128-11.3c0,0-20.7-6-32,7.5
		c-11.3,13.6-58,72.7-58,72.7s-7.9,11.7,11.3,13.2c19.2,1.5,362.2,42.2,362.2,42.2s23,14.3,26-15.1c3-29.4,9.4-76.4,9.4-76.4
		s10.4-12.8-25.7-16C807,633.4,677.9,619.8,677.9,619.8z"/>
	
		<linearGradient id="SVGID_00000092441819177304111240000017880493195789480113_" gradientUnits="userSpaceOnUse" x1="759.9586" y1="640.8464" x2="746.1234" y2="679.5287">
		<stop  offset="0" style="stop-color:#5B635D"/>
		<stop  offset="0.3118" style="stop-color:#C2B5AD"/>
		<stop  offset="0.7809" style="stop-color:#867E70"/>
		<stop  offset="0.8252" style="stop-color:#534E40"/>
		<stop  offset="0.852" style="stop-color:#534E40"/>
		<stop  offset="1" style="stop-color:#615F4F"/>
	</linearGradient>
	<path style="fill:url(#SVGID_00000092441819177304111240000017880493195789480113_);" d="M720.1,637.7l-1.5,25.9
		c0,0-0.8,5.4,4.2,6.5c5,1.1,55.6,19.7,55.6,19.7s5.4,2.3,4.8,0.4s0-30.1,0-30.1L720.1,637.7z"/>
	
		<linearGradient id="SVGID_00000013161090156019973350000014828531901819475854_" gradientUnits="userSpaceOnUse" x1="812.025" y1="629.8617" x2="828.6838" y2="678.144">
		<stop  offset="0" style="stop-color:#5B635D"/>
		<stop  offset="0.3118" style="stop-color:#C2B5AD"/>
		<stop  offset="0.7809" style="stop-color:#867E70"/>
		<stop  offset="0.8252" style="stop-color:#534E40"/>
		<stop  offset="0.852" style="stop-color:#534E40"/>
		<stop  offset="1" style="stop-color:#615F4F"/>
	</linearGradient>
	<path style="fill:url(#SVGID_00000013161090156019973350000014828531901819475854_);" d="M790.1,657.6c8.5-2.7,14.3-6.5,22.6-7.8
		c8.3-1.3,45.5-5.2,48.4-5.2c3,0,6.4-0.4,6.2,1.6c-0.1,2-0.6,11.4-0.6,11.4s0.1,1.6-6.4,3.8c-6.5,2.3-70,27-72.1,27.2
		s-5.3,3.6-5.2,1.6s-1.6-28.1-0.2-28.6S790.1,657.6,790.1,657.6z"/>
	
		<linearGradient id="SVGID_00000022560105445946386180000016154940464704873903_" gradientUnits="userSpaceOnUse" x1="788.9031" y1="619.9658" x2="795.9619" y2="650.4598">
		<stop  offset="0" style="stop-color:#B4A89F"/>
		<stop  offset="0.1512" style="stop-color:#BAA9A1"/>
		<stop  offset="0.2792" style="stop-color:#BFAFA7"/>
		<stop  offset="1" style="stop-color:#D3C6BC"/>
	</linearGradient>
	<path style="fill:url(#SVGID_00000022560105445946386180000016154940464704873903_);" d="M797.7,619.1c-10-0.4-30.5,3.4-41,6.6
		s-29.9,9.2-29.9,9.2s-9.2,2-6,3.1c3.2,1.1,63,22.4,63,22.4s14.2-8.4,29.6-10.4c15.4-1.9,45.7-4.9,48.4-5.2s7.1,1,5.2-1
		c-1.9-2.1-26.7-10.2-37.1-14.3S807.3,619.4,797.7,619.1z"/>
	<path class="st18" d="M803.3,622.6l-26.3,3.1c-2.4,0.4-4.2,1.8-4,3.2c0.2,1.4,2.3,2.2,4.7,1.9l26.3-3.1c2.4-0.4,4.2-1.8,4-3.2
		C807.9,623.1,805.7,622.3,803.3,622.6z"/>
	<path class="st19" d="M802.8,621.8l-26.3,3.1c-2.4,0.4-4.2,1.8-4,3.2c0.2,1.4,2.3,2.2,4.7,1.9l26.3-3.1c2.4-0.4,4.2-1.8,4-3.2
		C807.4,622.3,805.2,621.4,802.8,621.8z"/>
	<path class="st18" d="M821.3,628.8l-26.3,3.1c-2.4,0.4-4.2,1.8-4,3.2c0.2,1.4,2.3,2.2,4.7,1.9l26.3-3.1c2.4-0.4,4.2-1.8,4-3.2
		C825.9,629.3,823.8,628.5,821.3,628.8z"/>
	<path class="st19" d="M820.7,628.1l-26.3,3.1c-2.4,0.4-4.2,1.8-4,3.2c0.2,1.4,2.3,2.2,4.7,1.9l26.3-3.1c2.4-0.4,4.2-1.8,4-3.2
		C825.2,628.6,823.1,627.7,820.7,628.1z"/>
	<path class="st18" d="M839.6,636.4l-26.3,3.1c-2.4,0.4-4.2,1.8-4,3.2c0.2,1.4,2.3,2.2,4.7,1.9l26.3-3.1c2.4-0.4,4.2-1.8,4-3.2
		C844.1,636.9,842,636,839.6,636.4z"/>
	<path class="st19" d="M838.8,635.4l-26.3,3.1c-2.4,0.4-4.2,1.8-4,3.2c0.2,1.4,2.3,2.2,4.7,1.9l26.3-3.1c2.4-0.4,4.2-1.8,4-3.2
		C843.3,635.9,841.2,635.1,838.8,635.4z"/>
</g>
<g id="Keyboard">
	
		<linearGradient id="SVGID_00000039838669368208155810000016805403423357271193_" gradientUnits="userSpaceOnUse" x1="333.3095" y1="558.9514" x2="333.3095" y2="746.96">
		<stop  offset="0" style="stop-color:#D5CCB8"/>
		<stop  offset="0.2585" style="stop-color:#D4CCB1"/>
		<stop  offset="0.4103" style="stop-color:#D9D1B6"/>
		<stop  offset="0.8076" style="stop-color:#E3DAC0"/>
		<stop  offset="0.8774" style="stop-color:#D5CAAD"/>
		<stop  offset="0.9295" style="stop-color:#CFC3A5"/>
		<stop  offset="0.9384" style="stop-color:#BFB396"/>
		<stop  offset="0.9548" style="stop-color:#A89A7F"/>
		<stop  offset="0.9648" style="stop-color:#9F9177"/>
		<stop  offset="0.9943" style="stop-color:#7D715B"/>
		<stop  offset="1" style="stop-color:#766A55"/>
	</linearGradient>
	<path style="fill:url(#SVGID_00000039838669368208155810000016805403423357271193_);" d="M180,556.1c-50.6,0.2-111.9-0.9-111.9-0.9
		s-5.6,0.2-6.4,3c-0.8,2.8-28.3,89.6-28.3,89.6L8.2,715.2c0,0-13.9,26.8-2.8,35.5c1.6,1.3,5.3,1.8,5.3,1.8l158.3-0.7l485.9-1.4
		c0,0,18.2-2.1,6.7-28s-45-110.5-45-110.5L599,562.5c0,0,2-3.2-4.8-3.2S180,556.1,180,556.1z"/>
	<polygon class="st21" points="117.6,715 143.4,598.2 292.3,599.1 502.6,600 530,714.3 276.4,714.5 	"/>
	<polygon class="st21" points="617.5,693.7 538.9,694 526.1,650.3 515.8,600.1 586.5,599.6 601,643.3 	"/>
	<polygon class="st21" points="50.1,693.6 107.2,693.7 119.3,646.2 128.3,598 79.4,597.9 65.4,645.9 	"/>
	<g id="L1">
		<g id="back_space">
			<path class="st22" d="M481.4,600.4c-1,0.5-1.6,0.9-1.6,1.3c-0.3,1.9,2.1,17.5,2.1,17.5s22.5,0,23.5,0c1,0-0.2-4.8-0.9-8.5
				c-1.3-7.6-0.5-11.8-5.9-12c-5.3-0.2-9.2,0-9.8,0C488,598.7,484.3,598.7,481.4,600.4z"/>
			<polygon class="st23" points="489.9,610.3 482.1,619.2 505.4,619.3 502.9,610.2 			"/>
			<path class="st24" d="M487.5,610.1c0,0-0.8-3.5-0.9-4.7c-0.2-1.9-1.7-6.5,0.9-6.5c2.3,0,7.1-0.3,12.3-0.1c1.1,0,3,1.7,3.4,3.5
				c0.5,2.7,1.2,6.4,1.2,6.4s-0.3,2.7-2.5,2.8c-3.2,0-3.7,0.2-6.8,0.2C491.8,611.6,487.9,612.3,487.5,610.1z"/>
		</g>
		<g id="f9">
			<path class="st22" d="M457.2,600.2c-1,0.5-2.5,1.5-2.5,1.9c-0.3,1.9,3.1,16.7,3.1,16.7s22.5,0,23.5,0c1,0,0.1-5.1-0.6-8.5
				c-1.6-7.5-0.7-11.8-6.1-12c-5.3-0.2-9.2,0-9.8,0C463.8,598.3,460.2,598.6,457.2,600.2z"/>
			<polygon class="st23" points="465.8,609.9 458,618.8 481.3,618.8 478.8,609.7 			"/>
			<path class="st24" d="M463.3,609.6c0,0-0.8-3.5-0.9-4.7c-0.2-1.9-1.3-6.5,0.9-6.5c2.3-0.1,7.1-0.3,12.3-0.1c1.1,0,3,1.7,3.4,3.5
				c0.5,2.7,1.2,6.4,1.2,6.4s-0.3,2.7-2.5,2.8c-3.2,0-3.7,0.2-6.8,0.2C467.6,611.1,463.8,611.9,463.3,609.6z"/>
		</g>
		<g id="f8">
			<path class="st22" d="M433.2,600.3c-1,0.5-2,1.6-2,2c-0.3,1.9,1.8,16.4,1.8,16.4s22.5,0,23.5,0c1,0,0.1-5.1-0.6-8.5
				c-1.6-7.5-0.7-11.8-6.1-12c-5.3-0.2-9.2,0-9.8,0C439.1,598.2,436.2,598.6,433.2,600.3z"/>
			<polygon class="st23" points="441,609.8 433.2,618.7 456.5,618.8 454,609.7 			"/>
			<path class="st24" d="M438.6,609.6c0,0-0.8-3.5-0.9-4.7c-0.2-1.9-1.3-6.5,0.9-6.5s7.1-0.3,12.3-0.1c1.1,0,3,1.7,3.4,3.5
				c0.5,2.7,1.2,6.4,1.2,6.4s-0.3,2.7-2.5,2.8c-3.2,0-3.7,0.2-6.8,0.2S439,611.8,438.6,609.6z"/>
		</g>
		<g id="f7">
			<path class="st22" d="M383.4,603.6c0.1,1,1,13.7,1,14c0,2,4.2,0.8,4.2,0.8s41.2-0.1,42.3-0.2c1,0,0.3-3.2,0.3-4.4
				c-0.2-2.4-0.2-15.2-2.9-15.1c-2.2,0.1-38.2,0-38.7,0C386.2,598.7,383.3,602.2,383.4,603.6z"/>
			<polygon class="st23" points="392.3,610.3 385.2,618.5 431.4,618.3 428.9,610.4 			"/>
			<path class="st24" d="M390.5,609.1c0,0-0.8-6.4-1-7.6c-0.2-1.2-0.6-2.6,1.7-2.7c2.3-0.1,35.3,0,36.4,0s1.7-0.3,2.1,2.2
				c0.5,3,0.7,6,0.7,6s1,3.9-1.2,4c-30.8,1-36.3-0.2-36.3-0.2S390.5,610.8,390.5,609.1z"/>
		</g>
		<g id="f6">
			<path class="st22" d="M337.6,602.9c0.1,1,0,13.9,0,14.3c0,2,2.5,0.9,2.5,0.9s41.8,0.2,42.8,0.2c1,0,0.5-4.3,0.5-6
				c-0.1-2.6,0.2-13.3-3.3-13.5c-2.9-0.1-35-0.8-37.7-0.4C339.8,598.7,337.5,601.5,337.6,602.9z"/>
			<polygon class="st23" points="344.4,609.7 338.2,618.1 383.5,618.1 380.6,610.1 			"/>
			<path class="st24" d="M341.8,609.3c0,0,0-6.6-0.1-7.9c-0.1-1.2-0.1-2.8,2.2-2.9c2.3-0.1,32.9,0.1,35,0.1c1.1,0,2.1,0.3,2.4,2.7
				c0.3,2.9,0.5,5.8,0.5,5.8s1.1,3.6-1.1,3.6c-30.8,1-33.2,0.3-34,0.2S341.9,611.2,341.8,609.3z"/>
		</g>
		<g id="f5">
			<path class="st22" d="M290.5,600.4c0.1,1-1,14.8-1,15.1c0,2,0.9,2,0.9,2s43.7,0.3,44.7,0.3c1,0,0.6-5.4,0.7-7.6
				c0-2.8,0.5-11.5-3.6-11.8c-3.6-0.3-37.2-0.5-37.7-0.5C292.4,598.1,290.4,599.1,290.5,600.4z"/>
			<polygon class="st23" points="293.8,609.5 288.5,617.5 335.5,617.8 330.9,609.7 			"/>
			<path class="st24" d="M292.8,608.8c0,0,0-6.2,0.1-7.5c0-1.2-0.4-3.3,1.9-3.4c2.3-0.1,32.4,0.3,35.6,0.4c1.1,0,2.3-0.1,2.5,2.1
				c0.2,2.8,0.2,6.8,0.2,6.8s0.1,3.2-2.1,3.3c-21.6,0.8-31.9,0-33.4-0.1C296,610.5,293,610.8,292.8,608.8z"/>
		</g>
		<g id="f4">
			<path class="st22" d="M242.6,602c0.1,1-1.2,11.4-1.2,11.8c0,2-0.6,4.4-0.6,4.4s45.6-0.5,46.6-0.5c1,0,0.8-6.5,0.9-9.2
				c0.1-3,0.8-9.6-4-10.2c-4.3-0.5-38.5-0.4-39-0.4C243.8,597.9,242.5,600.6,242.6,602z"/>
			<polygon class="st25" points="244.6,609 240.4,618.2 287.6,617.5 281.8,609.3 			"/>
			<path class="st24" d="M243.7,608.1c0,0,0.1-7,0.2-8.3c0.1-1.2,1.3-2.1,3.6-2.1c2.3-0.1,30.2,0.3,34.3,0.5c1.1,0,3.1,0.1,3.1,2.1
				c0.1,2.7-0.3,6.3-0.3,6.3s0.3,3.9-1.9,4c-22.5,0.5-31.4-0.4-33.8-0.4C246.6,610,244,610.2,243.7,608.1z"/>
			<polygon class="st23" points="244.2,609.3 241.3,618.1 288.1,617.5 283.2,609.5 			"/>
		</g>
		<g id="F3">
			<path class="st22" d="M193.2,599.7c0.1,1-1.9,13.7-1.9,14.1c0,2-0.3,3.3-0.3,3.3s47.9,1.2,48.9,1.2s0.9-8.5,1.1-11.7
				c0.2-3.2,1.2-7.8-4.3-8.5c-5-0.7-40.4-0.9-41-0.8C194.8,597.3,193.1,598.3,193.2,599.7z"/>
			<polygon class="st23" points="195.3,608.6 191.2,617.1 240,618.3 232.8,609 			"/>
			<path class="st24" d="M192.5,608.3c0,0,0.2-5.7,0.4-6.9c0.2-1.2,0.8-3.9,3.1-4c2.3-0.1,32,0.3,37.2,0.5c1.1,0,2.1,0,2,1.9
				c-0.1,2.6-0.5,7.1-0.5,7.1s0.4,3-1.8,3.1c-30.7,0.8-29.1,0.4-32.3,0.4C197.5,610.4,193,610.6,192.5,608.3z"/>
		</g>
		<g id="F2">
			<path class="st22" d="M167.8,599.2c0,1-1.2,7.7-1.2,8.1c-0.3,1.9-0.8,9.3-0.8,9.3s23.3,0.8,24.3,0.8s1.5-11.5,2.1-14.6
				c0.7-3.8-3-4.7-8.4-5.5c-5-0.7-11.5-0.4-12.1-0.4C170.7,596.9,167.8,596.9,167.8,599.2z"/>
			<polygon class="st23" points="167.8,608.1 165.8,616.4 190,617.2 181.9,609 			"/>
			<path class="st24" d="M166.9,607.8c0,0,0.8-5.7,1-7c0.2-1.2,0.2-3.9,2.5-3.9c2.3-0.1,7.6,0,12.8,0.1c1.1,0,2.3,0.4,2.1,2.2
				c-0.4,2.5-1.1,8-1.1,8s0,2.6-2.2,2.7c-3.2,0-4.2,0.2-7.4,0.1C171.5,610,167.3,610.1,166.9,607.8z"/>
		</g>
		<g id="F1">
			<path class="st22" d="M143.1,598.8c-0.2,1.3-2.3,9-2.1,12.6c0,2-0.1,4.1-0.1,4.1s22.7,0.8,23.7,0.8s1.6-10.3,2.2-13.4
				c0.9-5.4-5.7-6-8.3-6.1c-5-0.2-12.4-0.5-13-0.4C144.6,596.5,143.4,597.5,143.1,598.8z"/>
			<polygon class="st23" points="143.6,608.7 141.4,615.6 164.1,616.4 156.6,608.9 			"/>
			<path class="st24" d="M142.1,607.6c0,0,0.8-5.9,1-7.2c0.2-1.2,0-3.9,2.3-3.9s6.9,0.1,12.1,0.3c1.1,0,2.2-0.2,2,1.6
				c-0.4,2.5-0.9,8.4-0.9,8.4s0,2.6-2.2,2.7c-3.2,0-4.1,0.1-7.3,0C145.9,609.5,142.5,609.8,142.1,607.6z"/>
		</g>
	</g>
	<g id="L2">
		<g id="Quote">
			<polygon class="st26" points="492.8,628.1 484.8,634.9 508.6,635.2 508.6,627.6 			"/>
			<path class="st27" d="M491,615.8c0,0-1.5,0.2-2.8,0.5c-5.4,1.3-7.6,3.6-7.6,3.6l4.3,15l8.7-5.9L491,615.8z"/>
			<path class="st28" d="M491.6,627.7c0,0-1.9-8.7-2.1-10c-0.2-1.2,0.1-1.8,2.4-1.9c2.3-0.1,12.2-0.1,12.2-0.1s3.1,0.4,2.9,2.4
				c-0.2,2,1.6,9.5,1.6,9.5s-0.1,1.4-2.3,1.5c-2.2,0.1-11,0.4-11,0.4S492.1,629.9,491.6,627.7z"/>
		</g>
		<g id="Pipe">
			<path class="st27" d="M466.5,615.6c0,0-1.7,0.2-3.1,0.7c-4.8,1.5-6.8,3.6-6.8,3.6l1.4,15.3l9.8-5.8L466.5,615.6z"/>
			<polygon class="st26" points="467.5,628 458,635.2 484.8,634.9 483.3,627.6 			"/>
			<path class="st28" d="M466.3,627.5c0,0-1.7-8.6-1.9-9.9c-0.2-1.2,0.1-1.9,2.4-2s12.3-0.1,12.3-0.1s3,0.3,2.8,2.3
				c-0.2,2,1.4,9.5,1.4,9.5s-0.1,1.5-2.3,1.6c-2.2,0.1-11.1,0.4-11.1,0.4S466.8,629.8,466.3,627.5z"/>
		</g>
		<g id="Plus">
			<path class="st27" d="M442,615c0,0-2.4,0.2-3.9,0.8c-4.1,1.6-5,3.3-5,3.3l1.4,16.7l25.8-0.4c0,0-2.2-17-3.4-18.8
				c-1.2-1.9-3.3-1.6-3.3-1.6L442,615z"/>
			<polygon class="st26" points="442.2,627.5 434.5,635.7 460.3,635.3 457.9,627.1 			"/>
			<path class="st28" d="M441.1,626.9c0,0-1.5-8.5-1.6-9.8c-0.2-1.2,0.2-2,2.4-2c2.3-0.1,12.4,0,12.4,0s2.5,0.3,2.7,2.3
				c0.3,2,1.2,9,1.2,9.5c0,0.5-0.2,1.6-2.4,1.7c-2.2,0.1-11.2,0.3-11.2,0.3S441.5,629.2,441.1,626.9z"/>
		</g>
		<g id="Dash">
			<path class="st27" d="M417.4,615.4c0,0-2.9,0.1-4.6,0.9c-3.5,1.6-3.9,2.8-3.9,2.8l0.8,16.6l24.7,0.1l-1.4-14.2
				c0,0-0.8-5.2-1.9-5.9C430.1,615,417.4,615.4,417.4,615.4z"/>
			<polygon class="st26" points="416.9,627.9 409.8,635.6 434.5,635.7 432.6,627.6 			"/>
			<path class="st28" d="M415.9,627.2c0,0-1.3-8.4-1.4-9.7c-0.1-1.2,0.2-2,2.5-2.1s11.1,0,12.5,0c1.4,0,2.5,0.2,2.8,2.1
				c0.3,1.9,0.9,9.6,0.9,9.6s-0.2,1.7-2.4,1.8c-2.2,0.1-11.3,0.3-11.3,0.3S416.2,629.6,415.9,627.2z"/>
		</g>
		<g id="_x30_">
			<path class="st27" d="M392.9,615.3c0,0-2.1,0.2-3.9,1.1c-3,1.6-3.8,2.8-3.8,2.8l0.9,16.2l23.6,0.3l-1.2-15.8c0,0,0-3-1.4-4
				C405.4,614.6,392.9,615.3,392.9,615.3z"/>
			<polygon class="st26" points="391.6,627.9 386.2,635.4 409.8,635.6 408.2,627.5 			"/>
			<path class="st28" d="M391.6,627c0,0-0.8-8.2-0.9-9.5c-0.1-1.2,0.4-1.8,2.7-1.9s9.4,0,10.3,0c0.9,0,4-0.2,4.2,2
				c0.2,2.2,0.8,8.7,0.8,9.5c0,0.7-0.9,1.7-3.1,1.8c-2.2,0.1-10.7,0.3-10.7,0.3S391.8,629.4,391.6,627z"/>
		</g>
		<g id="_x39_">
			<path class="st27" d="M384.1,619.1c0,0,0-1-1.4-2.6c-1.2-1.4-3.1-1-3.1-1l-12.7,0.1c0,0-2,0.5-3.4,1.4c-2.4,1.6-2,2.2-2.3,3.2
				c-0.4,1,0.6,15.2,0.6,15.2h23.9L384.1,619.1z"/>
			<polygon class="st26" points="369,628.1 361.7,635.4 385.6,635.4 381.5,627.9 			"/>
			<path class="st28" d="M366.9,626.9c0,0-0.8-7.8-0.9-9.1c-0.1-1.2,0.2-2.2,2.5-2.3s11.1-0.1,11.1-0.1s3.3,0,3.3,2
				c0,2,0.5,9.1,0.5,9.6c0,0.5-0.9,1.5-3.1,1.6c-2.2,0.1-10,0.2-10,0.2S367,629.4,366.9,626.9z"/>
		</g>
		<g id="_x38_">
			<path class="st27" d="M360,619.6c0-1-0.3-2.1-0.9-2.9c-1.1-1.4-1.3-1.4-3.8-1.4c-2.5,0-9.2-0.1-10.6-0.1c-1.4,0-3.4-0.2-5.1,1.2
				c-1.9,1.5-2.2,3.4-2.2,3.4l0.1,15.8l23-0.3C360.4,635.4,360,620.5,360,619.6z"/>
			<polygon class="st26" points="345,626.5 337.5,635.7 360.4,635.4 358.6,627.7 			"/>
			<path class="st28" d="M341.6,626.7c0,0,0.2-7.5,0.2-8.7c-0.1-1.2,0.1-2.8,2.4-2.9s11,0,11,0s3.6,0,3.4,1.9c-0.2,2,0,9.6,0,9.6
				s-0.5,1.9-2.7,2c-2.2,0.1-11,0.2-11,0.2S341.7,629.3,341.6,626.7z"/>
		</g>
		<g id="_x37_">
			<path class="st27" d="M334.4,616c-1-0.9-3.8-1.1-3.8-1.1l-12,0c0,0-1.6-0.1-3.4,1.4c-1.9,1.5-2.1,3.4-2.1,3.4v16l22.9-0.3
				c0,0,0-15.3,0-16.1C335.9,618.4,335.4,616.9,334.4,616z"/>
			<polygon class="st26" points="318.1,626.5 313,635.5 335.9,635.4 332.2,626.3 			"/>
			<path class="st28" d="M316.4,626.6c0,0,0.1-8,0.1-9.3c0-1.2,0.3-2.4,2.6-2.4c2.3-0.1,12.4,0,12.4,0s1.8,0,1.7,2
				c-0.2,2,0.3,9.6,0.3,9.6s-0.6,1.9-2.9,2c-2.2,0.1-11,0.3-11,0.3S316.4,629.2,316.4,626.6z"/>
		</g>
		<g id="_x36_">
			<path class="st27" d="M312.1,619.3c0-1.3-0.9-2.1-1.8-2.9c-0.9-0.8-3.6-1.3-3.6-1.3s-10.6,0-11.1,0c-0.5,0-3.2,0.2-4.5,0.9
				c-2.2,1.2-2.2,4-2.2,4l-0.2,15.7l23.2-0.2C312.1,635.4,312.2,619.8,312.1,619.3z"/>
			<polygon class="st26" points="293.6,626.5 288.8,635.4 312.1,635.4 307.2,626.3 			"/>
			<path class="st28" d="M292.3,626.4c0,0-0.3-7.8-0.3-9c0-1.2,0.2-2.3,2.4-2.4c2.3-0.1,10.9,0,12,0s2.2,0.4,2.1,1.7
				c-0.1,1.3,0.1,9.1,0.1,9.7c0,0.6-0.5,1.8-2.7,1.9s-8.8,0.2-9.8,0.1C295,628.3,292.2,628.3,292.3,626.4z"/>
		</g>
		<g id="_x35_">
			<path class="st27" d="M286.1,615.9c-1.4-1.2-4.5-1.1-4.5-1.1s-10-0.1-12.5-0.1c-1.1,0-2.2,0.8-2.8,1.6c-0.8,1.1-1.3,4-1.3,4
				l-0.4,15.4l23.4-0.2v-16.5C288,618.9,288.3,617.8,286.1,615.9z"/>
			<polygon class="st26" points="267.9,626.5 264.6,635.6 288,635.4 282.1,626.2 			"/>
			<path class="st28" d="M267.2,625.9c0,0,0.1-7.6,0.1-8.8c0-1.2,0.3-2.1,2.6-2.2c2.3-0.1,11.4,0,11.4,0s3.2,0,3,1.9
				c0,2.1,0,8.1,0.1,9.2s-1.4,1.9-3.7,2c-2.2,0.1-8.9,0-10.1,0C269.4,628.1,267.1,628.6,267.2,625.9z"/>
		</g>
		<g id="_x34_">
			<path class="st27" d="M262.1,616.4c-1.9-1.9-5.6-1.8-5.6-1.8s-10.7,0.1-12.1,0c-1.4,0-2-0.1-3.1,0.5c-1.3,0.7-1.4,4.6-1.4,4.6
				l-0.4,15.8l24.1-0.1v-16.1C263.7,619.3,264.2,618.4,262.1,616.4z"/>
			<polygon class="st26" points="242.2,626.5 239.6,635.5 263.7,635.4 256.4,626.2 			"/>
			<path class="st28" d="M240.7,626.1c0,0,0.2-7.8,0.3-9.1c0-1.2,0.4-2.5,2.7-2.5c2.3-0.1,13.1,0,13.1,0s2.5-0.1,2.5,1.9
				c0,2,0.2,8.9,0,9.9c-0.2,0.9-1.4,2.1-3.6,2.2c-2.2,0.1-12,0.1-12,0.1S240.5,628.9,240.7,626.1z"/>
		</g>
		<g id="_x33_">
			<path class="st27" d="M237,615.9c-1.4-1.2-4.5-1.4-4.5-1.4s-11.3,0.1-12.5,0.1s-2.1-0.2-3.3,0.5c-1.3,0.7-1.4,4.6-1.4,4.6
				l-1.1,15.8h25V618C239.3,618,238.4,617.1,237,615.9z"/>
			<polygon class="st26" points="216.5,626.5 214.3,635.4 239.3,635.4 230.7,626.2 			"/>
			<path class="st28" d="M216.1,625.8c0,0,0.2-8,0.3-9.2c0.1-1.2,0.9-2.1,3.2-2.2c2.3-0.1,12.3,0,12.3,0s1.9-0.2,1.8,1.8
				c-0.2,2-0.1,8.9-0.5,9.7c-0.4,0.9-0.5,2.4-2.7,2.5c-2.2,0.1-11.1-0.1-11.1-0.1S215.9,628.7,216.1,625.8z"/>
		</g>
		<g id="_x32_">
			<path class="st27" d="M214.6,618.9c-0.2-0.6-1-1.8-2.8-3c-1.6-1.1-5-1.7-5-1.7s-11.2,0-12.1,0s-2.2-0.1-3.3,0.5
				c-1.3,0.7-1.4,4.6-1.4,4.6l-0.9,16.3l24.7-0.1C213.8,635.4,214.7,619.5,214.6,618.9z"/>
			<polygon class="st26" points="190.6,626.5 189.1,635.5 213.8,635.4 205.9,626 			"/>
			<path class="st28" d="M189.5,625.7c0,0,0.6-7.7,0.7-8.9c0.1-1.2,0.5-2.6,2.8-2.7c2.3-0.1,13.3,0,13.3,0s2.4,0,2.2,1.9
				c-0.2,2-0.7,9.6-0.7,9.6s-1.1,2.5-3.3,2.6c-2.2,0.1-12.2,0-12.2,0S189.2,628.7,189.5,625.7z"/>
		</g>
		<g id="_x31_">
			<path class="st27" d="M187.1,615.7c-1.4-1.2-5.9-1.6-5.9-1.6s-12.8-0.1-13.5,0c-0.7,0-1.3-0.2-2.4,0.5c-1.3,0.7-1.4,4.6-1.4,4.6
				l-1.5,16.5l26.4-0.2l0.7-17.6C189.5,617.8,189.4,617.7,187.1,615.7z"/>
			<polygon class="st26" points="165.1,626.5 162.4,635.6 188.8,635.4 179.3,626.2 			"/>
			<path class="st28" d="M163.5,625.6c0,0,0.9-7.6,1-8.8c0.1-1.2,0.6-2.7,2.8-2.7s13.3,0,13.3,0s1.7-0.3,1.5,1.7
				c-0.2,2-0.9,9.8-0.9,9.8s-0.6,2.5-2.8,2.6c-2.2,0.1-12.3,0-12.3,0S163.1,628.7,163.5,625.6z"/>
		</g>
		<g id="Esc">
			<path class="st22" d="M138.9,615.6c0.1,1-1.5,14-1.5,14.3c0,2-0.1,4.4-0.1,4.4s23.2,0.2,24.2,0.2s2.2-11.7,2.3-14.9
				c0.2-3.2-2.4-4.5-7.9-5.3c-5-0.7-12-0.2-12.5-0.2C142.5,614.2,138.8,614.2,138.9,615.6z"/>
			<polygon class="st23" points="138.8,627.1 137.4,634.3 160.2,634.5 152,627.3 			"/>
			<path class="st24" d="M138.4,621.9c0,0,0.2-3,0.4-4.2c0.2-1.2,0.1-3.4,2.4-3.4s8.1-0.1,13.5-0.2c1.1,0,1.2,1.2,1.1,2.1
				c-0.4,2.6-1.1,9.4-1.1,9.4s-0.2,1.9-2.4,2c-10.3,0-14.4,0.5-14.3-0.6C138.3,624.5,138.2,624.1,138.4,621.9z"/>
		</g>
	</g>
	<g id="L3">
		<g id="Tab">
			<path class="st22" d="M135.4,636.8c0.1,1-1.7,9.9-1.7,10.3c0,2,0.1,6.2,0.1,6.2s36.2-0.4,37.3-0.4c1,0,2.5-11.3,2.7-14.5
				c0.2-3.2,1.4-3.6-4.1-4.3c-5-0.7-31.4-0.5-32-0.4C136.6,633.7,135.3,635.4,135.4,636.8z"/>
			<polygon class="st23" points="134.8,647.3 134.2,653 171.5,653 161.6,646.8 			"/>
			<path class="st24" d="M134.2,646.1c0,0,0.9-7.1,1.1-8.3c0.2-1.2,0.4-4.1,2.7-4.2s23.3,0,28.5,0.2c1.1,0-0.3,3.8-0.3,5.7
				c-0.1,2.6-1.6,7-1.6,7s-0.5,0.7-2.8,0.8c-7.8,0.9-15.6,0.6-18.7,0.6C140,647.8,134.7,648.3,134.2,646.1z"/>
		</g>
		<g id="q">
			<path class="st27" d="M196.4,634.2c-1.4-0.4-5.5-0.6-5.5-0.6s-10.7-0.2-13.2,0c-2.5,0.2-2.4,1.2-2.6,2.3
				c-0.2,1.1-3.4,17.4-2.6,17.8c0.4,0.2,0.5,0.2,0.5,0.2h25.5l1-17.1C199.5,636.8,199.9,635.2,196.4,634.2z"/>
			<polygon class="st26" points="175.1,646.6 172.9,653.9 198.5,653.9 189.4,646.7 			"/>
			<path class="st28" d="M173.7,645.1c0.3-1.7,1.4-7.7,1.5-8.9c0.1-1.2,0-2.6,2.3-2.6c2.3-0.1,13.3,0,13.3,0s2.7,0,2.4,2
				c-0.3,2-1.5,8.8-1.6,9.5c-0.1,0.7-0.7,2-2.9,2.1c-2.2,0.1-10.8,0.2-12.4,0S173.4,646.8,173.7,645.1z"/>
		</g>
		<g id="w">
			<path class="st27" d="M221.4,634.1c-1.4-0.4-4.4-0.3-4.4-0.3s-12.2,0.1-13.1,0.1c-1,0-2.4,0.4-2.6,1.7c0,0.1,0,0.2,0,0.3
				c-0.3,2.4-2.3,16.5-2.3,17.2c0,0.7,0.6,0.7,0.6,0.7h24.3l1.4-16.7C225.2,637.1,224.6,634.9,221.4,634.1z"/>
			<polygon class="st26" points="201.3,646.7 199.5,653.8 223.8,653.8 216.3,646.6 			"/>
			<path class="st28" d="M200.2,645.1c0.2-1.7,0.9-7.6,1.1-8.9s0.8-2.2,3.1-2.2c2.3-0.1,10.9-0.1,11.7-0.1c0.8,0,2.9-0.2,2.6,1.8
				c-0.2,2-0.9,8.8-1,9.4s-0.4,1.9-2.6,2c-2.2,0.1-10.7,0-12.1,0C201.7,647.2,200,646.8,200.2,645.1z"/>
		</g>
		<g id="e">
			<path class="st27" d="M247.2,634.2c-1.4-0.4-3.1-0.5-3.1-0.5l-13.1,0.1c0,0-1.8-0.1-3.2,0.4c-1.9,0.7-1.6,2.3-1.7,2.7
				c-0.1,0.4-1.5,16.9-1.5,16.9l24.5,0l1.3-17.5C250.4,636.3,250.2,635,247.2,634.2z"/>
			<polygon class="st26" points="228.8,646.1 224.6,653.8 249.2,653.8 243.3,646.4 			"/>
			<path class="st28" d="M226.7,645.6c0,0,0.7-8.1,0.8-9.3c0.1-1.2,0.4-2.4,2.7-2.4c2.3-0.1,12.8,0,12.8,0s2.7-0.1,2.5,1.9
				c-0.2,2-0.6,8.8-0.8,9.4s-0.8,1.7-3,1.8s-11.1,0.2-11.7,0.2C229.3,647.1,226.7,647.5,226.7,645.6z"/>
		</g>
		<g id="r">
			<path class="st27" d="M274.7,637.7c0-0.9,0-2.7-2.8-3.4c-1.4-0.4-16.3-0.3-16.6-0.3s-2,0.2-2.9,1.1c-1.1,1-1.1,3.6-1.1,3.6
				l-1.1,14.9l24.6-0.5C274.7,653.1,274.7,638.7,274.7,637.7z"/>
			<polygon class="st26" points="254,646.9 250.1,653.6 274.7,653.1 268.4,646.4 			"/>
			<path class="st28" d="M252.9,644.9c0-3,0.2-7.2,0.2-8.5c0-1.2,0.4-2.5,2.7-2.5c2.3-0.1,13.1,0,13.1,0s2.3,0.1,2,2.1
				c-0.2,2-0.4,8.9-0.5,9.5s0.1,1.8-2.5,1.8c-2.5,0-10.7,0-12.3,0C254.1,647.1,252.9,647.3,252.9,644.9z"/>
		</g>
		<g id="t">
			<path class="st27" d="M299.7,653.3c0,0-0.2-15.9-0.2-16.4c0-0.5-0.4-2.2-2.9-2.8c-1.5-0.3-15.7-0.4-15.7-0.4s-1.6,0-2.7,0.8
				c-1.5,1.1-1.6,2.8-1.6,2.8l-0.2,16l0,0l0,0L299.7,653.3z"/>
			<polygon class="st26" points="280.5,646.6 276.3,653.4 299.7,653.3 294.3,646.3 			"/>
			<path class="st28" d="M278.9,645.7c0-1.7-0.1-7.9-0.1-9.2c0-1.2-0.3-2.8,2-2.8c2.3-0.1,12.5,0,12.5,0s3.1,0.5,2.9,2.5
				c-0.2,2,0.1,9,0,9.4c-0.1,0.5-0.3,1.6-3.2,1.6s-10.1-0.1-11.3-0.1C280.5,647.1,278.9,647.5,278.9,645.7z"/>
		</g>
		<g id="y">
			<path class="st27" d="M325,653.9c0,0-0.8-15.7-0.7-16.6c0.1-0.9-1-2.7-3.3-3.2c-1.5-0.3-14.8,0-14.8,0s-1.9,0-3.3,0.5
				c-1.9,0.7-1.6,2.8-1.6,2.8l-0.2,17L325,653.9z"/>
			<polygon class="st26" points="305.4,646.9 301.1,654.4 325,653.9 319.9,646.8 			"/>
			<path class="st28" d="M304,645.7c0,0-0.3-8-0.3-9.3c0-1.2,0.4-2.3,2.6-2.4s12.9,0,12.9,0s2.8,0.2,2.6,2.1s0,9.1,0,9.4
				c-0.1,0.4-0.7,2.1-2.9,2.2c-2.2,0.1-11.8,0.2-11.8,0.2S304,648.4,304,645.7z"/>
		</g>
		<g id="u">
			<path class="st27" d="M349.3,653.6l-0.7-16.3c0,0,0-2.3-2.1-2.7c-1.5-0.3-3-0.3-3-0.3l-12.8,0c0,0-1.9,0.1-3.3,0.6
				c-1.9,0.7-1.7,2.6-1.7,2.6l-0.2,16.3L349.3,653.6z"/>
			<polygon class="st26" points="331.4,646.5 325.6,653.7 349.3,653.6 345.1,646.7 			"/>
			<path class="st28" d="M330,646.2c0,0-0.2-8.3-0.2-9.5c0-1.2,0.2-2.2,2.5-2.3c2.3-0.1,8.6,0.1,10.6,0.1c2,0,3.5-0.1,3.7,2.1
				c0.2,2,0.2,8.5,0.2,9.5s-0.4,1.8-2.6,1.9c-2.2,0.1-10.8,0-11.8,0S330.1,648.1,330,646.2z"/>
		</g>
		<g id="I">
			<path class="st27" d="M356,634.3c0,0-2.2,0-3.6,0.4c-2.4,0.8-2.5,2.9-2.5,2.9l0.7,16.3l24,0.2c0,0-1.3-15.3-1.4-17.2
				s-1.4-2.8-4-2.8S356,634.3,356,634.3z"/>
			<polygon class="st26" points="356.2,646.3 350.6,653.9 374.6,654 370.6,646.4 			"/>
			<path class="st28" d="M354.7,645.1c0,0-0.2-7.4-0.3-8.6c-0.1-1.2,0.3-2.1,2.5-2.2c2.3-0.1,9.5,0,11.4,0s2.6-0.4,2.9,2.2
				s0.7,7.7,0.7,8.8c0,1.2-0.5,1.7-2.7,1.8c-2.2,0.1-9,0.2-10.9,0.2S354.8,647.6,354.7,645.1z"/>
		</g>
		<g id="o">
			<path class="st27" d="M381.4,634.4c0,0-2.5,0-3.9,0.4c-3,0.9-3.1,2.8-3.1,2.8l0.9,16.4l24.2,0.3c0,0-1.6-15.5-1.8-17.1
				c-0.2-1.6-0.5-2.8-3.9-2.8S381.4,634.4,381.4,634.4z"/>
			<polygon class="st26" points="382.1,647 375.3,654 399.4,654.4 395.8,647 			"/>
			<path class="st28" d="M380.6,645.9c0,0-1-6.7-1-8c0-2.7,0-3.4,3-3.5c2.3-0.1,11.1,0,11.1,0s2.9,0.2,2.7,2.2
				c-0.2,2,0.7,9.3,0.7,9.5c0,0.2-0.4,1.8-2.6,1.9c-2.2,0.1-11.5,0.3-11.5,0.3S380.8,648.4,380.6,645.9z"/>
		</g>
		<g id="p">
			<path class="st27" d="M406.7,634.6c0,0-2.8,0-4.2,0.3c-3.5,1-3.6,2.8-3.6,2.8l1.7,16.5l23.7-0.2c0,0,0-7.7-1.6-16.3
				c-0.6-3.2-3-3.2-3-3.2L406.7,634.6z"/>
			<polygon class="st26" points="407.4,647.1 400.7,654.2 424.3,654 422,646.8 			"/>
			<path class="st28" d="M406,645.2c0,0-1.2-7.3-1.3-8.5c-0.1-1.2,0.2-2,2.4-2.1c2.3-0.1,11.9,0,11.9,0s2.7,0.3,2.8,2.2
				c0,2,1,9.3,0.9,9.5c0,0.1-0.2,1.2-2.4,1.3c-2.2,0.1-11.4-0.2-11.4-0.2S406.3,647.6,406,645.2z"/>
		</g>
		<g id="Baracket_Left">
			<path class="st27" d="M431.3,634.4c0,0-2.9,0.1-4.3,0.5c-4.1,1-3.3,2.2-3.3,2.2l1.9,17.3l23.8,0.1c0,0,0.6-4.6-1.6-18.1
				c-0.2-1.2-1.1-2.2-2.9-2.1C443.1,634.2,431.3,634.4,431.3,634.4z"/>
			<polygon class="st26" points="432.5,647.5 425.3,654.5 449.4,654.4 447.2,647.1 			"/>
			<path class="st28" d="M431.1,646.5c0,0-1.4-8.5-1.6-9.8c-0.1-1.2,0.3-2.4,2.6-2.5c2.3-0.1,12.8,0,12.8,0s2.4,0.7,2.8,2.7
				c0.4,1.9,0.7,9.4,0.7,9.5c0,0.1-0.2,1.6-2.4,1.7c-2.2,0.1-11.3,0.3-11.3,0.3S431.4,648.8,431.1,646.5z"/>
		</g>
		<g id="Bracket_Left">
			<path class="st27" d="M457.4,634.8c0,0-3.4-0.1-4.8,0.3c-4.6,1.1-4.1,2.6-4.1,2.6l2,16.8h24.8c0,0,0.8-4.8-2.2-16.6
				c-0.8-3.1-4.6-3.2-4.6-3.2L457.4,634.8z"/>
			<polygon class="st26" points="458.3,647.6 450.5,654.5 475.3,654.5 472.9,647.2 			"/>
			<path class="st28" d="M456.8,646.7c0,0-1.7-8.6-1.9-9.9c-0.2-1.2,0.1-1.9,2.4-2c2.3-0.1,12.3-0.1,12.3-0.1s3,0.3,2.8,2.3
				c-0.2,2,1.4,9.5,1.4,9.5s-0.1,1.5-2.3,1.6s-11.1,0.4-11.1,0.4S457.3,648.9,456.8,646.7z"/>
		</g>
		<g id="delete">
			<path class="st22" d="M472.6,638.5c0.3,0.9,1.5,13,1.5,13.4c0,2,2,2,2,2s34.8-0.2,35.8-0.2c1,0,0.4-3.3,0.4-4.6
				c-0.2-2.4-1.9-14.8-5.5-14.5c-2.2,0.2-26.9,0.4-27.4,0.4C478.4,635,471.9,636,472.6,638.5z"/>
			<polygon class="st23" points="485.5,646.8 477.5,653.8 512.4,653.6 509.8,647.4 			"/>
			<path class="st24" d="M482,645.4c0,0-1.8-7.1-2-8.4c-0.2-1.2-1.1-1.8,1.2-1.8s23.3-0.3,24.4-0.3s2.5-0.5,3.6,2
				c1.4,3.1,2.7,9.3,2.7,9.3s-0.2,2-2.4,2C478.6,649.2,483.5,648.3,482,645.4z"/>
		</g>
	</g>
	<g id="L4">
		<g id="return">
			<path class="st22" d="M456.8,656.2c0.1,1,2.1,15.5,2.1,15.9c0,2,3.1,1.5,3.1,1.5s51.5-0.2,52.5-0.2s2.6-2.2,2.6-3.5
				c-0.2-2.4-2.6-16.1-6.2-15.8c-2.2,0.2-50.8-0.2-51.4-0.2C458.6,653.9,456.7,654.8,456.8,656.2z"/>
			<polygon class="st23" points="469.9,666.4 460.2,673.4 514.7,673 515.9,666.5 			"/>
			<path class="st24" d="M466.3,665.4c0,0-2-7.6-2.2-8.9c-0.2-1.2-0.7-2.6,1.6-2.6s43.7-0.1,44.8-0.1s2.2,0,2.9,2.6
				c0.8,2.8,2.6,8.4,2.6,8.4s1.2,2.8-1,2.8c-30.8,1-43-0.1-44.3-0.2C469.4,667.3,466.7,667.7,466.3,665.4z"/>
		</g>
		<g id="Quote_00000166670739319490550950000011526146627683726759_">
			<path class="st27" d="M432.1,655.2c0.1,1,2.4,15.7,2.4,16.1c0,2,2.1,1.8,2.1,1.8s19.9-0.2,20.9-0.2c1,0,1.9-0.5,1.9-1.8
				c-0.2-2.4-1.4-17.8-3.6-17.8s-21.2,0.1-21.7,0.1C433.1,653.5,432,653.8,432.1,655.2z"/>
			<polygon class="st26" points="442.2,666.1 434.8,673 458.6,672.9 457.1,666.4 			"/>
			<path class="st28" d="M440.3,665.6c0,0-1.2-8.4-1.3-9.7c-0.2-1.2-0.3-2.2,2-2.3c2.3-0.1,11.7,0.1,12.7,0.1s2.7-0.3,3,2.3
				c0.3,2.8,1.4,9.7,1.4,9.7s-0.3,1.8-2.5,1.9c-2.2,0.1-11.6-0.1-11.6-0.1S440.8,667.9,440.3,665.6z"/>
		</g>
		<g id="Colon">
			<path class="st27" d="M407.1,656.1c0.1,1,1.3,15.1,1.3,15.4c0,2,2,1.7,2,1.7l21.4-0.1c0,0,1.8,0.4,1.8-1.9c0-2.3-1.8-12.6-2-13.3
				c-0.3-1.3-0.1-4.1-2.4-4.1c-0.7,0-18.5,0.1-19.1,0.2C409.2,653.9,407,654.7,407.1,656.1z"/>
			<polygon class="st26" points="415.8,666 408.9,673 433,672.9 431.1,666.1 			"/>
			<path class="st28" d="M414.2,664.9c0,0-1.3-7.9-1.4-9.1c-0.1-1.2,0.2-2,2.5-2s11.6,0,11.6,0s3.5-0.1,3.7,2.5
				c0.3,2.8,1.4,7.9,1.4,9.2c0,1.2-1.1,1.6-3.3,1.7c-2.2,0.1-10.9,0.3-10.9,0.3S414.6,667.2,414.2,664.9z"/>
		</g>
		<g id="l">
			<path class="st27" d="M382,655.6c0,0.1,0.4,9.6,0.6,13.7c0.1,1.3,0,1.8,0,2.1c0,1.8,2.7,1.6,2.7,1.6l21.8-0.2c0,0,0-0.3,0-2.3
				c0-2-0.9-11.8-1.1-12.5c-0.2-1.1,0.5-4.4-2.7-4.3c-0.7,0-18.8,0.1-19.4,0.1C383,653.9,382.2,654.3,382,655.6z"/>
			<polygon class="st26" points="389.4,666 383.8,672.9 407,672.9 404.7,666 			"/>
			<path class="st28" d="M387.8,664.8c0,0-0.8-7.7-0.9-8.9c-0.1-1.2,0.2-1.9,2.5-1.9c2.3-0.1,11.8,0,11.8,0s3-0.2,3.2,2.3
				c0.2,2.7,0.8,9.1,0.9,9.3c0,0.1,0.1,1.4-2.1,1.5c-2.2,0.1-12.8,0-12.8,0S388,667.2,387.8,664.8z"/>
		</g>
		<g id="k">
			<path class="st27" d="M356.7,655.3c0,1,0.4,10.5,0.6,14.4c0.1,1.4,0,1.9,0,2.2c0,1.6,2.6,1.1,2.6,1.1l21-0.1c0,0,0.6-0.9,0.6-2.7
				s-0.5-11.5-0.5-12.1c-0.1-1.5-0.2-4.8-1.9-4.8c-3.9,0-14.3,0-16.3,0c-0.2,0-2.3,0-2.3,0C359.5,653.5,356.7,654,356.7,655.3z"/>
			<polygon class="st26" points="363.1,665.9 357.3,673 381.1,673 378.3,665.9 			"/>
			<path class="st28" d="M362.2,664.6c0,0-0.8-7.6-0.9-8.8c-0.1-1.2,0.3-2.1,2.5-2.2c2.3-0.1,12.6,0,12.6,0s2.4-0.3,2.5,2.1
				c0.2,2.6,0.9,6.3,1,7.7c0,1.4-0.3,3.1-2.6,3.2c-2.2,0.1-11.7,0.4-11.7,0.4S362.4,667.1,362.2,664.6z"/>
		</g>
		<g id="j">
			<path class="st27" d="M332.2,655.4c0,0.1,0.3,16.5,0,16.7c0,1.3,3.3,0.9,3.3,0.9l20-0.1c0,0,0.5-1.3,0.5-2.8
				c0-1.5-0.3-11.4-0.4-11.8c-0.2-0.9,0.7-4.7-1.3-5c-1.8-0.2-17.8-0.5-19.2-0.2C334.2,653.5,332.4,654.1,332.2,655.4z"/>
			<polygon class="st26" points="337.9,664.9 331.5,673 356.2,673.1 352.4,665.2 			"/>
			<path class="st28" d="M336.6,664c-0.2-1.9-0.3-8.2-0.3-8.2s0-2.4,2.3-2.4c2.3-0.1,11.7,0,11.7,0s3.3,0.1,3.2,2.5
				c-0.1,1.9,0.3,4.8,0.5,8.6c0,0.3-0.6,1.4-2.9,1.5c-2.2,0.1-9.5,0-10.8-0.1C338.9,665.8,336.7,665.9,336.6,664z"/>
		</g>
		<g id="h">
			<path class="st27" d="M307.2,655c0,0.1,0,10.9,0.2,14.3c0.1,1.6,0,3,0,3.2c0,1.1,4.2,0.6,4.2,0.6l18.4,0c0,0,0.7-1.4,0.7-2.7
				c0-1.3-0.2-11.3-0.3-11.7c-0.2-0.7,1.1-5.4-2.6-5.4c-0.4,0-6.6,0.1-6.6,0.1s-8.4-0.1-10.1-0.1c-0.2,0-2.2,0.1-2.3,0.1
				C307.9,653.5,307.4,653.7,307.2,655z"/>
			<polygon class="st26" points="310.3,665.8 306.7,673 329.8,673.1 326.8,665.7 			"/>
			<path class="st28" d="M310.4,664.3c0,0,0-7.3-0.1-8.5c0-1.2-0.3-2.2,1.9-2.2s13.2-0.1,13.2-0.1s2.3,0.4,2.4,2.7
				c0,2.4,0,7.8,0,8.3c0,0.5,0.2,1.7-2,1.8s-10.2-0.1-12.3-0.1S310.6,666.3,310.4,664.3z"/>
		</g>
		<g id="g">
			<path class="st27" d="M281.9,655.5c0,0.1-0.5,11.5-0.4,14.7c0,1.7,0.2,2.4,0.2,2.6c1.9,0.3,5,0.4,5,0.4l17.7,0
				c0,0,0.7-1.6,0.7-2.6s0.1-11.3,0-11.6c-0.1-0.6,0.8-4.1-0.5-5c-1.3-0.9-2.8-0.5-5-0.6c-1.7-0.1-15.5,0.1-15.6,0.1
				C283.1,653.5,282.2,654.2,281.9,655.5z"/>
			<polygon class="st26" points="285.2,665.7 281.7,672.8 305.5,673.1 300.3,665.6 			"/>
			<path class="st28" d="M284.1,663.7c0,0,0-6.6,0-7.8c0-1.2,0.5-2.5,2.8-2.5c2.3-0.1,12.9,0,12.9,0s3,0.1,3,2.4
				c0,2.3-0.4,6.7-0.5,8.5c-0.1,1.3-0.9,2.1-3.1,2.2c-2.2,0.1-12.2,0.1-12.2,0.1S284,666.4,284.1,663.7z"/>
		</g>
		<g id="f">
			<path class="st27" d="M256.4,657.2c0,0.1-0.9,10.6-0.9,13.5c0,1.9,0,2,0,2.1c0,0.7,5.6,0.5,5.6,0.5l18.2,0c0,0-0.1-1.9-0.1-2.6
				c0-0.8,0.3-11.2,0.3-11.4c-0.1-2,1.2-5.8-2.3-5.9c-1.6,0-6.9,0.1-6.9,0.1s-7.9-0.2-9.3-0.2c-0.1,0-1.4,0.1-2.8,0.2
				C257.4,653.4,256.7,655.9,256.4,657.2z"/>
			<polygon class="st26" points="259,665.7 256.1,673.1 279.4,673.2 274.1,665.5 			"/>
			<path class="st28" d="M258.3,664.8c0,0,0.6-8.1,0.7-9.4c0-1.2-0.1-1.8,2.2-1.9c2.3-0.1,12.9-0.3,12.9-0.3s2.1-0.2,2.1,1.6
				c0,2.2-0.1,7.4-0.2,9.4c-0.1,1.8-1.4,2.4-3.7,2.5c-2.2,0.1-10.9,0-10.9,0S258.1,666.9,258.3,664.8z"/>
		</g>
		<g id="d">
			<path class="st27" d="M230.9,654.7c0,0.1-1.9,13.2-1.9,15.9c0,2,0,2.4,1.7,2.4c1.8,0,5.1-0.1,5.1-0.1l18.3,0.3c0,0,0-2.3,0-2.8
				s0.8-10.9,0.8-11.1c-0.1-0.3,1.2-5.2-2.6-5.7c-1.6-0.2-7.3-0.3-7.3-0.3s-9.3-0.1-10.5-0.1C234.3,653.2,231.2,653.5,230.9,654.7z"
				/>
			<polygon class="st26" points="233,665.2 229.5,672.6 254.1,673.2 248.5,665.2 			"/>
			<path class="st28" d="M231.4,664.2c0.2-1.6,1-7.1,1.1-8.3c0.1-1.2,0.5-2.2,2.7-2.2s12.7,0,12.7,0s2.5-0.1,2.5,1.5
				c0,2.2-0.9,7.9-1.1,9.5c-0.2,1.3-1.1,1.6-3.4,1.7c-2.2,0.1-11.6-0.4-12.7-0.4C232.2,666,231.2,665.8,231.4,664.2z"/>
		</g>
		<g id="s">
			<path class="st27" d="M205,655c0,0.1-2.2,13.4-2.2,15.9c0,2.1,0,1.5,0,2.1c0,0.2,2.5,0.3,2.5,0.3l22.6,0c0,0,1.8-16.2,1.7-17.7
				c-0.2-1.5-2.8-2.4-6-2.4c-1.5,0-15.6-0.3-15.7-0.3C206.9,653,205.2,653.8,205,655z"/>
			<polygon class="st26" points="205.2,665.2 202.8,673 227.9,673.3 220.6,665.2 			"/>
			<path class="st28" d="M204.8,664.5c0.3-1.8,1.2-7.5,1.3-8.8c0.1-1.2,0.4-2.1,2.7-2.2c2.3-0.1,13.8,0,13.8,0s2-0.1,1.8,1.9
				c-0.2,2.1-1.5,8.8-1.6,9.5c-0.1,0.6-0.5,1.3-2.7,1.4s-12.1,0-13.2-0.1S204.5,666.3,204.8,664.5z"/>
		</g>
		<g id="a">
			<path class="st27" d="M200.1,653.5c-1.4-0.4-6.1-0.2-6.1-0.2s-12.2,0.1-13.1,0.1c-1,0-2.4,0.4-2.6,1.7c0,0.1-2.7,13.7-2.7,16
				s1,2.3,1,2.3h25.2l2-17.9C203.7,655.5,203.3,654.3,200.1,653.5z"/>
			<polygon class="st26" points="178.3,665.5 176.6,673 201.7,673.3 193.3,665.2 			"/>
			<path class="st28" d="M177.5,663.9c0,0,1.4-6.9,1.6-8.1s0.4-2.2,2.7-2.3c2.3-0.1,13-0.3,13-0.3s2.7,0,2.4,2
				c-0.3,2-1.6,9.1-1.7,9.8c-0.1,0.7-1.3,1.2-3.6,1.3c-2.2,0.1-12.5,0-12.5,0S177.2,667,177.5,663.9z"/>
		</g>
		<g id="Control">
			<path class="st22" d="M131.8,655.5c-0.3,0.9-3.5,14.6-3.5,15c0,2,1.5,2.3,1.5,2.3s43.7,0,44.8,0s1.6-9.1,2-12.4
				c0.3-2.8,2.7-6.3-2.8-7c-5-0.7-38.6,0-39.2,0C133.6,653.4,132.3,654,131.8,655.5z"/>
			<polygon class="st23" points="130.3,666.5 129.4,673 173.7,672.7 165.5,666.7 			"/>
			<path class="st24" d="M129.9,664.9c0,0,2.2-8,2.4-9.3c0.2-1.2,0.2-2.3,2.5-2.3c2.3-0.1,28.2-0.3,33.4-0.1c1.1,0,2,0.3,1.9,2.1
				c-0.1,2.6-2.4,10.3-2.4,10.3s-2,1.1-4.2,1.2c-22.3,1-27.2,0.2-30.4,0.1C129.8,666.8,130.1,667.1,129.9,664.9z"/>
		</g>
	</g>
	<g id="L5">
		<g id="z">
			<path class="st27" d="M212.4,672.5c-1.5-0.3-8-0.2-8-0.2s-12.2,0.1-13.1,0.1c-1,0-2.4,0.4-2.6,1.7c0,0.1-2.5,14.8-2.5,17
				s0.8,1.9,0.8,1.9l25.6,0.1l1.6-19.3C214.1,674,213.7,672.8,212.4,672.5z"/>
			<polygon class="st26" points="189.6,686 186.9,693 212.1,693.4 202.9,685.8 			"/>
			<path class="st28" d="M187.5,684.7c0,0,1.7-8.2,1.8-9.4s0.4-2.2,2.7-2.3s13.8-0.2,13.8-0.2s2.3-0.1,2,1.9c-0.3,2-1.5,9-1.6,9.7
				c-0.1,0.7-0.7,2-2.9,2.1c-2.2,0.1-14,0-14,0S187.2,686.7,187.5,684.7z"/>
			<g id="Shift">
				<path class="st22" d="M126.9,675.3c0.1,1-2.3,11-2.3,11.4c-1.1,1.6,0.4,6.9,0.4,6.9s60,0.8,60-0.1c0.1-2.3,2-12.9,2.2-16.1
					c0.3-3,1-4.7-3-4.8c-5-0.1-52.8,0.4-54.1,0.4C129.2,673.1,126.8,673.9,126.9,675.3z"/>
				<polygon class="st23" points="126.7,686.7 125.1,693.5 185,693.8 175,686 				"/>
				<path class="st24" d="M125,684.5c0,0,1.5-6.4,1.7-7.7c0.2-1.2,0.6-3.6,2.9-3.6c2.3-0.1,43.2-0.3,48.4-0.1c1.1,0,1.9,0.3,1.8,2.1
					c-0.1,2.6-2,9.4-2,9.4s-1.6,2-3.8,2.1c-30.7,0.8-41.5,0.2-44.7,0.1C126.2,686.7,125.4,686.7,125,684.5z"/>
			</g>
		</g>
		<g id="x">
			<path class="st27" d="M215.8,674.6c-0.1,0-0.4,1-0.6,2.6c-0.6,4-1.6,12.3-1.6,14.2c0,2.1,0.7,1.9,0.7,1.9c0,0.2,3.5,0.2,3.5,0.2
				s21.5,0,21.6,0s0.3-2.4,0.3-2.6c0-0.2,1.1-16,0.9-16.4c0-0.1-0.9-1.1-2.1-1.3c-1.4-0.2-6.7-0.3-7-0.3c-0.4,0-11.8,0.1-13,0.1
				C217.4,673,216,673.3,215.8,674.6z"/>
			<polygon class="st26" points="216.8,686 213.4,693 238.4,693.3 230.1,685.8 			"/>
			<path class="st28" d="M215.2,684.6c0,0,0.6-8,0.7-9.2c0.1-1.2,0.3-2.3,2.6-2.3c2.3-0.1,14.7-0.1,14.8-0.1c0.5,0,1.9-0.2,1.7,1.9
				c-0.1,2.1-1.2,9-1.3,9.6c-0.1,0.6-1.6,1.7-3.8,1.8c-2.2,0.1-12.4-0.1-12.4-0.1S214.9,686.6,215.2,684.6z"/>
		</g>
		<g id="c">
			<path class="st27" d="M241.9,674.3c-0.2,0-1.3,14.3-1.3,16.5c0.1,2,0.1,2,0.1,2.1c0,0.4,3.3,0.4,3.3,0.4s21.5,0,21.7,0
				c0.2,0,0.6-2.3,0.6-2.5c0-0.4,0.9-15.5,0.5-16.4c-0.1-0.2-0.5-1.3-1.6-1.5c-1.3-0.2-7-0.1-7.8-0.1c-0.9,0-11.4,0.1-12.8,0.1
				C243.6,672.9,242.1,673.2,241.9,674.3z"/>
			<polygon class="st26" points="244,686 240.7,693.1 265.7,693.2 258.9,685.8 			"/>
			<path class="st28" d="M241.6,684.8c0,0,0.8-8.1,0.9-9.3c0.1-1.2,0.2-2.3,2.4-2.4c2.3-0.1,13.5-0.1,13.8-0.1s2.3-0.1,2.3,2
				c0,2.2-0.7,8.9-0.8,9.5c-0.1,0.6-0.5,2-2.7,2.1c-2.2,0.1-13.6,0-13.6,0S241.4,686.8,241.6,684.8z"/>
		</g>
		<g id="v">
			<path class="st27" d="M268.1,674.8c-0.4,3.2-0.7,13-0.8,15.5c-0.1,1.9,0,1.7-0.3,2.3c0,0.7,3.4,0.4,3.4,0.4s20.1,0.1,20.4,0.1
				c0.3,0,0.8-2,0.8-2.4c-0.1-0.6,1.3-15.1,0.8-16.4c-0.1-0.3-0.6-1.4-1.6-1.6c-1.2-0.2-7.2,0-8.3,0c-1.3,0-9.9,0.1-11.5,0.1
				C269.7,672.9,268.2,673.2,268.1,674.8z"/>
			<polygon class="st26" points="270.9,685.2 267,693 291.1,693.2 286.4,685.1 			"/>
			<path class="st28" d="M269.9,684.5c0,0,0.4-8,0.5-9.2c0-1.2,0-2.4,2.3-2.4c2.3-0.1,13.4-0.1,13.7-0.1c0.4,0,2.3-0.1,2.4,2.1
				c0.1,2.3-0.3,8.9-0.4,9.4c-0.1,0.5-0.4,1.9-2.6,2c-2.2,0.1-13.5,0-13.5,0S269.8,686.6,269.9,684.5z"/>
		</g>
		<g id="b">
			<path class="st27" d="M293.9,676.2c0.1,2.5-0.5,12.8-0.3,15.5c0.1,1.8,1.7,1.4,1.7,1.4s22.3-0.1,22.8-0.1c0.5,0-0.1-1.8-0.1-2.4
				c-0.1-0.8,0.4-14.4,0-16.2c-0.2-0.5-0.6-1.7-1.6-1.9c-1.2-0.1-6.6-0.1-8.1-0.1c-1.7,0-9,0.1-10.8,0
				C296.1,672.4,293.8,672.9,293.9,676.2z"/>
			<polygon class="st26" points="298.7,684.8 294.1,692.7 318.1,693 312.5,684.8 			"/>
			<path class="st28" d="M296.7,683.6c0,0,0.4-6.9,0.4-8.2c0-1.2-0.1-2.2,2.2-2.3c2.3-0.1,13.6,0.1,14.1,0.1c0.5,0,1.6-0.3,1.8,1.9
				c0.2,2.4-0.2,8.9-0.3,9.3c-0.1,0.4-0.9,1.5-3.2,1.6c-2.2,0.1-12.8-0.1-12.8-0.1S296.7,685.7,296.7,683.6z"/>
		</g>
		<g id="n">
			<path class="st27" d="M319.7,674.7c-0.2,2.4,0.2,12.9,0.4,16c0.1,1.7,0,1.7-0.2,2.4c0.9,0,1.5,0.1,1.5,0.1s22.3,0.1,22.9,0.1
				s0.2-1.6,0.2-2.4c-0.1-1.1-0.5-13.6-0.6-16.2c-0.2-0.6-0.3-2.2-1.1-2.3c-1.1-0.1-6.4,0-8.2,0c-2.2,0-10.4,0.1-12.5,0.2
				C320.7,672.5,319.8,673.2,319.7,674.7z"/>
			<polygon class="st26" points="325.6,686 320.2,693 343.8,693.2 339.4,685.7 			"/>
			<path class="st28" d="M323.9,684.4c0,0-0.2-7.5-0.3-8.7c0-1.2-0.8-2.3,1.5-2.4c2.3-0.1,12.2,0,12.8,0s3.5-0.3,3.8,2
				c0.3,2.5,0.2,8.3,0.2,8.6c0,0.6,0.3,1.8-1.9,1.9c-2.2,0.1-14.6,0.2-14.6,0.2S323.9,686.5,323.9,684.4z"/>
		</g>
		<g id="m">
			<path class="st27" d="M345.1,675.4c-0.1,2,0.5,11.6,0.4,15c0,1.5,0.1,2.6,0.1,2.6c2,0,2.7,0.1,2.7,0.1s19.9,0,20.6,0
				c0.7,0,1.4-1.3,1.4-2.1c-0.1-1.3-0.2-13.5-1.1-16.2c-0.2-0.7-0.9-1.9-1.6-2c-1-0.1-16.7,0-19,0
				C347.1,672.8,345.2,673.9,345.1,675.4z"/>
			<polygon class="st26" points="352.8,686 345.4,693 370.1,693.1 365.6,685.8 			"/>
			<path class="st28" d="M350.4,684c0,0-0.6-7-0.7-8.3c-0.1-1.2-0.7-2.4,1.5-2.4c2.3-0.1,13.6-0.1,14.3-0.1s1.8-0.2,2.2,2.1
				c0.4,2.6,0.8,9,0.7,9.2c0,0.2-0.9,1.5-3.1,1.6c-2.2,0.1-12.3,0.1-12.3,0.1S350.5,686.2,350.4,684z"/>
		</g>
		<g id="Lessthan">
			<path class="st27" d="M370.7,675.3c-0.1,1.6,0.8,10.5,1.2,14.5c0.1,1.4,0.2,2.3,0.2,2.3c0,1.6,2.3,1,2.3,1s19.9-0.1,20.7-0.1
				s1.6-1,1.6-2c-0.1-1.5-0.4-13-1.5-16.2c-0.3-0.8-0.7-1.6-1.3-1.6c-0.9-0.1-4.6,0-7.2,0c-3,0-9.3,0-11.9,0
				C373.1,673.3,370.8,673.9,370.7,675.3z"/>
			<polygon class="st26" points="380,686 373.2,693 396.5,693.1 392.7,685.8 			"/>
			<path class="st28" d="M377.3,684.3c0,0-1-6.8-1.1-8.1c-0.1-1.2-0.7-2.7,1.6-2.8s12.5-0.1,13.3-0.1c1.8-0.1,2.5-0.1,3,2.4
				c0.5,2.6,0.9,8.8,0.9,8.9c-0.1,0.5-0.5,1.6-2.7,1.7c-2.2,0.1-12-0.1-12-0.1S377.5,686.5,377.3,684.3z"/>
		</g>
		<g id="Greaterthan">
			<path class="st27" d="M397.9,673.6c-0.8,0-1.5,0.5-1.5,1.9c0,1.2,1.5,9.9,1.6,13.9c0,1.3,0.2,3.2,0.2,3.3c0,0.5,2.1,0.5,2.1,0.5
				s20.1-0.1,21-0.1c0.9,0,1.7-0.8,1.7-1.9c-0.2-1.7-0.7-12.5-2-16.1c-0.3-0.9-0.7-1.6-1.3-1.6c-0.8,0-4.1,0-7.1,0
				c-3.5,0-8.9,0-11.7,0C399.3,673.4,398,673.4,397.9,673.6z"/>
			<polygon class="st26" points="407.2,686 399.7,692.8 422.8,693 419.9,685.8 			"/>
			<path class="st28" d="M404.1,684.4c0,0-1.6-6.9-1.8-8.1c-0.1-1.2-1-2.7,1.3-2.8s12.6-0.1,13.6-0.1c0.9,0,2.3,0,2.9,2.5
				c0.7,2.7,1.6,8.8,1.6,8.9c0,0.1,0.1,1.6-2.1,1.7c-2.2,0.1-12.2,0.3-12.2,0.3S404.4,686.6,404.1,684.4z"/>
		</g>
		<g id="Questionmark">
			<path class="st27" d="M422,675.2c0.1,1,2.4,15.6,2.4,16c0,2,2.1,1.9,2.1,1.9s19.9-0.2,20.9-0.2c1,0,1.9-0.5,1.9-1.8
				c-0.2-2.4-1.4-17.8-3.6-17.8s-20.8,0.3-21.4,0.3C423.4,673.7,421.9,673.9,422,675.2z"/>
			<polygon class="st26" points="434.4,686 426.1,692.9 449.2,693 447.3,685.8 			"/>
			<path class="st28" d="M430.7,685.1c0,0-2-7.6-2.2-8.9c-0.2-1.2-0.7-2.6,1.6-2.6s12.4,0.2,13.5,0.2s2.3-0.2,3,2.3
				c0.8,2.8,2,8.8,2,8.8s0.2,1.8-2,1.9c-2.2,0.1-12.5,0.1-12.5,0.1S431.2,687.3,430.7,685.1z"/>
		</g>
		<g id="line_feed">
			<path class="st22" d="M492.8,676.7c0.4,0.9,2.6,15.1,2.6,15.5c0,2,2.4,1.7,2.4,1.7s21.2-0.2,22.2-0.2s4.1-2.2,1-10.4
				c-1-2.6-1.9-10.2-5.5-9.9c-2.2,0.2-19.1,0.5-19.7,0.5C494.8,673.9,491.7,674.1,492.8,676.7z"/>
			<polygon class="st23" points="505.5,685.6 495.9,693.7 520.7,693.5 520.2,685.5 			"/>
			<path class="st24" d="M504.1,684.6c0,0-2.8-6.7-3-7.9c-0.2-1.2-1.8-2.9,0.5-2.9s13.2,0,14.2,0s2.6,1,3.3,3.6c0.8,2.8,2.3,8,2.3,8
				s0.9,1.8-2.1,1.5c-5.2-0.4-11.6,0.1-13-0.1C504.9,686.5,504.6,686.9,504.1,684.6z"/>
		</g>
		<g id="shift">
			<path class="st22" d="M447.8,676.4c0.1,1,2.2,15.4,2.2,15.8c0,2,3,1.6,3,1.6s40.5-0.3,41.5-0.3c1,0,2.8-5.2-0.3-13.3
				c-1-2.6-0.9-6.9-4.4-6.7c-2.2,0.2-38.1,0.2-38.7,0.2C450.1,673.8,447.5,673.8,447.8,676.4z"/>
			<polygon class="st23" points="460.8,685.5 451.2,693.6 494.9,693.2 494.1,685.7 			"/>
			<path class="st24" d="M457.7,684.6c0,0-2.4-6.6-2.6-7.8c-0.2-1.2-0.5-3.1,1.8-3.2c2.3-0.1,31.3-0.1,32.4-0.1s2.8-0.2,3.5,2.4
				c0.8,2.8,2.6,9.3,2.6,9.3s0,1.6-3.3,1.5c-26.6-0.6-30.5-0.1-30.5-0.1S458.1,686.9,457.7,684.6z"/>
		</g>
	</g>
	<g id="L6">
		<g id="Caps">
			<path class="st22" d="M122.9,697.5c0.1,1-3.1,12.8-3.1,13.2c0,2,0.2,4.4,0.2,4.4s31.8,0,32.9,0s2.9-9.6,3.1-12.7
				c0.2-3.7,1.9-7.7,0.1-7.9c-5-0.4-30.5-0.2-31.1-0.1C124,694.3,122.8,696.1,122.9,697.5z"/>
			<polygon class="st23" points="123,709.6 120.2,714.9 152.6,715 144.4,709.5 			"/>
			<path class="st24" d="M120.5,708.5c0,0,2.2-9.1,2.4-10.4c0.2-1.2,0.3-3.5,2.6-3.5c2.3-0.1,16-0.4,21.2-0.2c1.1,0,2.6-0.3,2.5,1.5
				c-0.1,2.6-1.8,9.7-1.8,9.7s0,3.4-2.2,3.5c-12.2,0.9-11.6,0.6-14.7,0.5C127.3,709.6,121.1,709.9,120.5,708.5z"/>
		</g>
		<g id="Left">
			<path class="st22" d="M157.1,697.9c0.1,1-1.8,12-1.8,12.3c-0.6,2.2-1.3,5-1.3,5s40.1-0.4,41.1-0.4s1.3-1,1.5-4.2
				c0.2-3.2,2.3-16.5,0.8-16.6c-5-0.4-37.7,0.3-38.2,0.3C158.2,694.4,157,696.5,157.1,697.9z"/>
			<polygon class="st23" points="157.7,708.4 154.3,715.1 195,714.7 187.2,708.3 			"/>
			<path class="st24" d="M156.5,707.2c0,0,0.7-6,0.9-7.3c0.2-1.2,0.7-5.4,2.9-5.4s22.8-0.3,28-0.1c1.1,0,2.3-0.4,2.2,1.5
				c-0.1,2.6-1.5,11.4-1.5,11.4s-1,2.2-3.2,2.2c-14.9,0.1-21.4-0.1-24.5-0.2C158.2,709.2,156.9,709.4,156.5,707.2z"/>
		</g>
		<g id="Space">
			<path class="st27" d="M434.5,693.2c-1.5-0.3-218.7,0.4-218.7,0.4s-12.5,0-13.4,0c-1,0-2.3,0.5-2.5,1.9c0,0.1-2.6,14.4-2.6,16.6
				s0.5,2.7,0.5,2.7l241-0.7c0,0,1.1-5.9-2.3-18.1C436.2,694.1,435.7,693.4,434.5,693.2z"/>
			<polygon class="st26" points="200.7,706.8 197.9,714.6 438.5,714 436.1,707.1 			"/>
			<path class="st28" d="M198.7,705.6c0,0,1.7-8.2,1.8-9.4c0.1-1.2,0.4-2.2,2.7-2.3c2.3-0.1,230.8-0.4,230.8-0.4s1.6,0.3,2,2.3
				c0.4,2,2.2,8.8,2.1,9.5c-0.1,0.7,0.8,2-1.4,2.1c-2.2,0.1-236.2,0-236.2,0S198.3,707.6,198.7,705.6z"/>
		</g>
		<g id="right">
			<path class="st22" d="M438,696.7c0.1,1,2.4,15.3,2.4,15.7c0,2,2.3,1.7,2.3,1.7s35.5-0.1,36.5-0.1c1,0,1.9-5.5-1.2-13.6
				c-1-2.6-0.8-6.7-4.4-6.4c-2.2,0.2-32.4,0-32.9,0C439.9,694.1,437.8,694.1,438,696.7z"/>
			<polygon class="st23" points="450.8,708.9 442.9,714 479.3,713.9 477.8,708.3 			"/>
			<path class="st24" d="M447.8,707.2c0,0-1.8-8.4-2-9.7c-0.2-1.2-1.3-3.1,1-3.1s26.2-0.1,27.2-0.1s2.1-0.2,2.8,2.3
				c0.8,2.8,2.2,8.5,2.2,8.5s1.4,3.7-1.9,3.9c-14.4,0.9-26.3,0.6-26.3,0.6S448.2,709.4,447.8,707.2z"/>
		</g>
		<g id="alternate">
			<path class="st22" d="M477.5,696.9c0.1,1,1.6,13.8,2.1,16c0.3,1.7,5.6,1.3,5.6,1.3s41.6-0.2,42.7-0.2c1,0-1.2-6.9-3.8-15.2
				c-1-2.6-0.9-5.2-2.9-5.1c-2.2,0.1-40.3,0.5-40.8,0.6C479.2,694.4,477.2,694.3,477.5,696.9z"/>
			<polygon class="st23" points="490.3,708.6 483.7,713.9 527.7,714.1 524.4,708.1 			"/>
			<path class="st24" d="M488.3,706.7c0,0-2.8-8-2.9-9.2c-0.2-1.2-0.8-3,1.5-3c2.3-0.1,31.5-0.5,32.6-0.5s2.6,0.2,3.3,2.7
				c0.8,2.8,2.6,9.3,2.6,9.3s1.2,2.4-2.1,2.7c-17.5,1.5-27.8,0.6-31.7,0.5C490.6,709.2,488.7,708.9,488.3,706.7z"/>
		</g>
	</g>
	<g id="Act_L1">
		<g id="Again">
			<path class="st22" d="M101,598.2c-0.2,1.3-2.5,9.8-2.2,13.4c0,2-0.5,4.6-0.5,4.6s24.6,0.9,25.6,0.9c1,0,2.3-11.3,2.9-14.4
				c0.9-4.4-6.5-5-9.1-5.1c-5-0.2-12.4-0.5-13-0.4C103.9,597.2,101.3,596.9,101,598.2z"/>
			<polygon class="st23" points="102.9,608.1 100.8,616.3 123.5,617.1 113.4,608.6 			"/>
			<path class="st24" d="M99.2,606.8c0,0,1.1-4.3,1.3-5.5c0.2-1.2,0.2-3.9,2.5-4c2.3-0.1,6.2-0.1,11.4,0.1c1.1,0,3-0.1,2.8,1.7
				c-0.4,2.5-0.9,6.1-0.9,6.1s-0.1,4.3-2.3,4.4c-3.2,0-8,0-11.1,0C99.7,609.5,99.7,609,99.2,606.8z"/>
		</g>
		<g id="Stop">
			<path class="st22" d="M76.2,598.7c-0.2,1.3-2.7,9-2.5,12.5c0,2,0.3,4.2,0.3,4.2s22.7,0.8,23.7,0.8s1.5-12.5,2.4-15.6
				c0.9-3.4-5.9-3.8-8.5-3.9c-5-0.2-12.4-0.5-13-0.4C77.6,596.4,76.4,597.3,76.2,598.7z"/>
			<polygon class="st23" points="76.6,608.6 74.5,615.5 97.2,616.2 89.6,608.8 			"/>
			<path class="st24" d="M75.2,607.4c0,0,0.8-5.9,1-7.2c0.2-1.2,0-3.9,2.3-3.9c2.3-0.1,6.9,0.1,12.1,0.3c1.1,0,2.2-0.2,2,1.6
				c-0.4,2.5-1.5,8.6-1.5,8.6s-0.3,2.3-2.6,2.4c-3.2,0-3.2,0.1-6.4,0.1C79,609.4,75.6,609.7,75.2,607.4z"/>
		</g>
	</g>
	<g id="Act_L2">
		<g id="Props">
			<path class="st22" d="M70.9,616.3c-0.2,1.3-2.3,9-2.1,12.6c0,2-0.1,4.1-0.1,4.1s22.9,0.5,24,0.5c1,0,1.5-12.2,2.4-15.3
				c0.9-3.4-5.6-4.4-8.3-4.5c-5-0.2-12.9,0.2-13.5,0.2C72.4,614,71.2,614.9,70.9,616.3z"/>
			<polygon class="st23" points="71.3,626.2 69.2,633.1 91.9,633.8 82.8,626.3 			"/>
			<path class="st24" d="M68.9,626.3c0,0,1.5-7.5,1.7-8.8c0.2-1.2,0.4-3.5,2.6-3.6c2.3-0.1,7.6-0.4,12.8-0.2c1.1,0,2.4,0.3,2.1,2.2
				c-0.4,2.5-1.7,8.3-1.7,8.3s-0.4,3.4-2.6,3.5c-3.2,0-3.5,0-6.6,0C74,627.8,69.3,628.6,68.9,626.3z"/>
		</g>
		<g id="Undo">
			<path class="st22" d="M96.1,616.3c-0.2,1.3-2.1,9.1-1.8,12.7c0,2-0.9,5.4-0.9,5.4s26,0.5,27,0.5s2-12.2,2.8-15.3
				c0.9-3.4-8.1-5.9-10.7-6c-5-0.2-12.9,0.2-13.5,0.2C98.1,613.9,96.4,614.9,96.1,616.3z"/>
			<polygon class="st23" points="97,626.1 94.9,633 117.6,633.8 108.7,626.5 			"/>
			<path class="st24" d="M94.7,625.8c0,0,1.4-7.1,1.6-8.3c0.2-1.2,0.4-3.5,2.6-3.6c2.3-0.1,7.6-0.4,12.8-0.2c1.1,0,2.4,0.3,2.1,2.2
				c-0.4,2.5-1.7,8.3-1.7,8.3s-0.2,3-2.4,3.1c-3.2,0-3.7,0-6.8,0S95.1,628,94.7,625.8z"/>
		</g>
	</g>
	<g id="Act_L3">
		<g id="Expose">
			<path class="st22" d="M66.2,635.8c-0.2,1.3-2.3,9-2.1,12.6c0,2-0.1,4.1-0.1,4.1s24.6,0.8,25.6,0.8s2-13.6,2.8-16.7
				c0.9-3.4-7.7-3.3-10.4-3.4c-5-0.2-12.9,0.2-13.5,0.2C67.7,633.5,66.5,634.5,66.2,635.8z"/>
			<polygon class="st23" points="66.7,645.7 64.6,652.6 87.2,653.4 78.1,646 			"/>
			<path class="st24" d="M64.2,645.8c0,0,1.5-7.5,1.7-8.8c0.2-1.2,0.8-3.5,3.1-3.6c2.3-0.1,7.4,0,12.6,0.2c1.1,0,2.2,0.2,1.9,2.1
				c-0.4,2.5-1.7,8.1-1.7,8.1s-0.4,3.4-2.6,3.5c-3.2,0-3.5,0-6.6,0C69.3,647.3,64.6,648.1,64.2,645.8z"/>
		</g>
		<g id="Put">
			<path class="st22" d="M92.4,635.8c-0.2,1.3-2.3,9-2.1,12.6c0,2-0.1,4.1-0.1,4.1s24.5,1.2,25.5,1.2c1,0,2.6-14.4,3.5-17.5
				c0.5-1.6-8.5-2.6-11.2-2.7c-5-0.2-12.7-0.1-13.2-0.1C93.9,633.4,92.7,634.4,92.4,635.8z"/>
			<polygon class="st23" points="92.9,645.6 90.7,652.5 113.4,653.3 104.3,645.9 			"/>
			<path class="st24" d="M90.4,645.8c0,0,1.5-7.5,1.7-8.8c0.2-1.2,0.8-3.5,3.1-3.6c2.3-0.1,7.4,0,12.6,0.2c1.1,0,2.2,0.2,1.9,2.1
				c-0.4,2.5-1.7,8.1-1.7,8.1s-0.4,3.4-2.6,3.5c-3.2,0-3.5,0-6.6,0C95.5,647.2,90.8,648,90.4,645.8z"/>
		</g>
	</g>
	<g id="Act_L4">
		<g id="Open">
			<path class="st22" d="M61.2,655.4c-0.2,1.3-3.9,8.8-3.6,12.4c0,2,0.1,4.4,0.1,4.4s25.2,0.6,26.2,0.6s4-13.4,4.8-16.5
				c0.9-3.4-10.8-3-13.5-3.1c-5-0.2-10.4-0.2-10.9-0.2C63.4,653.1,61.4,654,61.2,655.4z"/>
			<polygon class="st23" points="60.1,665.1 58,672 81.8,672.7 72.6,665.3 			"/>
			<path class="st24" d="M57.7,665.2c0,0,3.1-8.7,3.3-9.9c0.2-1.2,2.3-2,4.6-2.1c2.3-0.1,5,0,10.2,0.2c1.1,0,3.4,0,3.1,1.9
				c-0.4,2.5-3.2,9-3.2,9s-0.9,2.3-3.2,2.4c-3.2,0-3.5,0-6.6,0C62.8,666.6,58.1,667.4,57.7,665.2z"/>
		</g>
		<g id="Get">
			<path class="st22" d="M87.6,655.7c-0.2,1.3-4,9-3.7,12.6c0,2,0.6,4.1,0.6,4.1s25.4,0.3,26.4,0.3s2.9-14.6,3.8-17.7
				c0.5-1.6-8.7-1.5-11.4-1.6c-5-0.2-12.7-0.1-13.2-0.1C89.1,653.4,87.9,654.4,87.6,655.7z"/>
			<polygon class="st23" points="88.1,665.6 85.9,672.5 109.9,673 99.5,665.9 			"/>
			<path class="st24" d="M84.7,665.4c0,0,2.4-7.2,2.6-8.5c0.2-1.2,0.8-3.5,3.1-3.6c2.3-0.1,7.7-0.3,12.9-0.1c1.1,0,2.5,0.2,2.2,2.1
				c-0.4,2.5-2.3,8.3-2.3,8.3s-1.2,3.1-3.4,3.2c-3.2,0-2.7,0.3-5.9,0.3C90.7,667.2,85.1,667.7,84.7,665.4z"/>
		</g>
	</g>
	<g id="Act_L5">
		<g id="Find">
			<path class="st22" d="M55.4,675.2c-0.2,1.3-3.9,8.8-3.6,12.4c0,2,0.1,4.4,0.1,4.4s25.2,0.6,26.2,0.6c1,0,4.9-14.1,5.8-17.2
				c0.9-3.4-11.7-2.3-14.4-2.4c-5-0.2-10.4-0.2-10.9-0.2C57.6,672.9,55.7,673.8,55.4,675.2z"/>
			<polygon class="st23" points="55.4,684.9 52.2,691.7 76,692.4 65.6,685.3 			"/>
			<path class="st24" d="M51.8,685.4c0,0,3.2-9.2,3.4-10.4c0.2-1.2,2.3-2,4.6-2.1s5,0,10.2,0.2c1.1,0,3.4,0,3.1,1.9
				c-0.4,2.5-3.2,9-3.2,9s-0.7,2.6-2.9,2.7c-2.8,0.5-3.4,0.4-6.5,0.3C57.4,687,52.2,687.7,51.8,685.4z"/>
		</g>
		<g id="Delete">
			<path class="st22" d="M82.3,675.5c-0.2,1.3-4,9-3.7,12.6c0,2,0.6,4.1,0.6,4.1s25.4,0.3,26.4,0.3s3.9-15.2,4.8-18.4
				c0.4-1.6-9.6-0.9-12.2-1c-5-0.2-12.7,0-13.3,0C83.8,673.1,82.5,674.1,82.3,675.5z"/>
			<polygon class="st23" points="82.7,685.4 80.6,692.3 104.5,692.7 94.1,685.7 			"/>
			<path class="st24" d="M79.4,685.2c0,0,2.4-7.2,2.6-8.5c0.2-1.2,0.8-3.5,3.1-3.6c2.3-0.1,6.9,0.1,12.1-0.1
				c2.5-0.1,3.8,0.5,3.5,2.3c-0.4,2.5-2.9,8.1-2.9,8.1s-1.2,3.1-3.4,3.2c-3.2,0-2.7,0.3-5.9,0.3C85.4,686.9,79.8,687.4,79.4,685.2z"
				/>
		</g>
	</g>
	<g id="Num_L1">
		<g id="R3">
			<path class="st22" d="M563.8,603.8c0.2,1,1.7,10.7,2.8,14.4c0.3,1.4,2.1,1,2.1,1s20.8-0.9,21.8-0.9s1.3-4.6,1-5.9
				s-1-13.6-4.7-13.5c-15,0.3-18.9,1.5-20.2,2S563.3,601.7,563.8,603.8z"/>
			<polygon class="st23" points="578.6,611.1 568.5,618.7 590.9,618.2 588.8,611 			"/>
			<path class="st24" d="M575.1,609.1c-0.3-0.8-2-7.7-2.2-8.6c-0.2-0.9,0.9-1,3.2-1.2c2.3-0.2,8.4-0.3,9.1-0.3c2.5,0,3.4,0.3,4,3.2
				c0.7,3.1,1.6,8.4,1.7,9c0.1,0.7-3.8,0.4-5.6,0.5c-5.1,0.1-6.5,0-7.8-0.2C576.2,611.2,575.5,609.9,575.1,609.1z"/>
		</g>
		<g id="R2">
			<path class="st22" d="M540.7,603.9c0.2,1,1.7,10.7,2.8,14.4c0.3,1.4,2.1,1,2.1,1s20.8-0.9,21.8-0.9s1.3-4.6,1-5.9
				c-0.3-1.3-1.1-13.3-4.9-13.3c-15.2-0.3-18.7,1.3-20.1,1.8C542.1,601.4,540.2,601.8,540.7,603.9z"/>
			<polygon class="st23" points="554.4,611.2 543.9,619 567.8,618.3 566.6,610.8 			"/>
			<path class="st24" d="M552,609.2c-0.3-0.8-2-7.7-2.2-8.6c-0.2-0.9,0.9-1,3.2-1.2c2.3-0.2,8-0.3,8.8-0.3c2.5,0,3.7,0.2,4.3,3.2
				c0.7,3.1,1.6,7.6,1.6,8.3c0.1,0.7-3.7,1-5.6,1.1c-5,0.5-6.5,0-7.9-0.1C553.1,611.3,552.4,610,552,609.2z"/>
		</g>
		<g id="R1">
			<path class="st22" d="M517.1,604.3c0.2,1,1.7,10.7,2.8,14.4c0.3,1.4,2.1,1,2.1,1s20.8-0.9,21.8-0.9c1,0,1.3-4.6,1-5.9
				s-1.2-13.9-4.9-13.8c-15,0.3-18.8,1.4-20.1,1.9C518.4,601.4,516.6,602.2,517.1,604.3z"/>
			<polygon class="st23" points="530.5,611.2 520.3,619.5 544.2,618.7 542.7,611.1 			"/>
			<path class="st24" d="M528.4,609.6c-0.3-0.8-2-7.7-2.2-8.6c-0.2-0.9,0.9-1.3,3.2-1.5c2.3-0.2,8.2-0.4,9-0.4
				c2.5,0,3.5,0.6,4.1,3.5c0.7,3.1,1.6,7.6,1.6,8.3c0.1,0.7-3.7,1-5.6,1.1c-5,0.5-6.5,0-7.9-0.1
				C529.5,611.7,528.8,610.4,528.4,609.6z"/>
		</g>
	</g>
	<g id="Num_L2">
		<g id="R6">
			<path class="st22" d="M568.6,621.8c0.5,0.9,2.5,9.6,3.6,13.3c-0.1,1.4,1.5,1.2,2.2,1.2c0,0,20-0.5,21-0.5s2.8-4.7,2.5-6
				c-0.3-1.3-1.9-13.6-4.6-13.8c-15-0.9-19.8,1.4-21.1,1.9C570.8,618.5,567.6,620,568.6,621.8z"/>
			<polygon class="st23" points="583.7,628.6 574.8,636.1 595.9,635.6 595.3,628.6 			"/>
			<path class="st24" d="M580.8,626.7c-0.3-0.8-1.8-8.2-2-9.1c-0.2-0.9,0.5-1.3,2.8-1.3c2.3-0.1,9,0.1,9.8,0
				c2.4-0.2,2.9,1.5,3.8,4.4c1,3.1,1.7,6,2,7.7c0.1,0.7-3.4,1-6.5,1.2c-5,0.3-6.3-0.4-7.6-0.6C581.9,628.9,581.2,627.5,580.8,626.7z
				"/>
		</g>
		<g id="R5">
			<path class="st22" d="M544.9,621.2c0.5,0.9,2.5,10.5,3.6,14.1c0.3,1.4,2.2,0.8,2.2,0.8s20.8-0.9,21.8-0.9s1.9-4.8,1.6-6.1
				c-0.3-1.6-2.2-13.4-4.9-13.6c-15-0.9-19.4,1.2-20.7,1.7C547.2,618,543.9,619.4,544.9,621.2z"/>
			<polygon class="st23" points="560,628 550.2,636.2 572.9,635.2 571.6,628 			"/>
			<path class="st24" d="M557.2,626.1c-0.3-0.8-1.8-8.2-2-9.1c-0.2-0.9,0.5-1.3,2.8-1.3s9,0.1,9.8,0c2.4-0.2,2.9,1.5,3.8,4.4
				c1,3.1,1.7,6,2,7.7c0.1,0.7-3.4,1-6.5,1.2c-5,0.3-6.3-0.4-7.6-0.6C558.2,628.3,557.5,627,557.2,626.1z"/>
		</g>
		<g id="R4">
			<path class="st22" d="M520.3,621.6c0.5,0.9,2.5,10.5,3.6,14.1c0.3,1.4,2.2,0.8,2.2,0.8s20.8-0.9,21.8-0.9s2.2-4.6,1.9-5.8
				s-2.1-13.8-4.8-14c-15-0.9-19.8,1.4-21.1,1.9C522.6,618.3,519.3,619.8,520.3,621.6z"/>
			<polygon class="st23" points="535.2,629.8 525.6,636.6 548.3,635.6 547.1,629.6 			"/>
			<path class="st24" d="M532.6,626.5c-0.3-0.8-1.8-8.2-2-9.1c-0.2-0.9,0.5-1.3,2.8-1.3c2.3-0.1,9,0.1,9.8,0
				c2.4-0.2,3.1,0.6,3.7,3.5c0.7,3.1,2.2,7.6,2.3,8.3c0.1,0.7-4.6,0.9-6.4,1c-5,0.5-6.5,0-7.9-0.1
				C533.6,628.7,532.9,627.3,532.6,626.5z"/>
		</g>
	</g>
	<g id="Num_L3">
		<g id="R9">
			<path class="st22" d="M573.2,638.9c0.4,0.9,3.3,10.1,4.3,13.8c0.3,1.4,2.2,1.3,2.2,1.3s20.5-0.5,21.5-0.5s0.9-1.3,2.1-5.7
				c-1.5-4.3-3-12.6-6.6-12.7c-14.3-0.2-17.9,0.6-18.5,0.6C577.3,635.9,572.1,636.3,573.2,638.9z"/>
			<polygon class="st23" points="588.7,647.6 579.8,654 601.8,653.5 601.7,647.8 			"/>
			<path class="st24" d="M587,646.4c-0.3-0.8-3.5-8.5-3.8-9.4s-0.7-1.5,1.6-1.5c2.3-0.1,11.8-0.1,12.6-0.1c1.1,0,2.8,3.2,3.9,5.9
				c1.3,2.9,1.8,5.9,1.8,5.9s0.2,0.8-1.7,1c-5,0.5-10.4,0.3-11.7,0.2C588.3,648.2,587.3,647.2,587,646.4z"/>
		</g>
		<g id="R8">
			<path class="st22" d="M550.6,638.4c0.4,0.9,2.8,10.4,3.9,14.1c0.3,1.4,2.2,1.3,2.2,1.3s20.5-0.3,21.5-0.3c1,0,0.9-1.4,2.1-5.8
				c-1.5-4.3-3-12.6-6.6-12.7c-14.3-0.2-18.9,0.2-19.4,0.2C553.3,635.1,549.5,635.7,550.6,638.4z"/>
			<polygon class="st23" points="564.8,648.4 556.8,653.7 578.7,653.2 576.4,648.4 			"/>
			<path class="st24" d="M561.6,646.5c-0.3-0.8-1.7-8.6-2.1-9.5s0.9-1.8,3.1-1.9c2.3-0.1,9.9-0.2,10.7-0.3c2.4-0.2,3.4,3.4,4,6.4
				c0.7,3.1,1.4,5.6,1.5,6.3c0.1,0.7-1.1,1.2-2.9,1.4c-5,0.5-9.8,0.4-11.1,0.3C563.5,649,561.9,647.4,561.6,646.5z"/>
		</g>
		<g id="R7">
			<path class="st22" d="M525.1,639.4c0.4,0.9,2.5,10.5,3.6,14.1c0.3,1.4,2.2,1.3,2.2,1.3s20.5-0.3,21.5-0.3s0.9-1.4,2.1-5.8
				c-1.5-4.3-3.1-13.5-5.8-13.6c-15.3-0.4-19.5,0.7-20,0.9C528,636.3,524,636.7,525.1,639.4z"/>
			<polygon class="st23" points="540,647.5 531,654.8 552.9,654.3 551.9,647.3 			"/>
			<path class="st24" d="M537.1,646.1c-0.3-0.8-2.6-8.6-2.8-9.5c-0.2-0.9,0.9-1.2,3.2-1.3s9.2-0.1,10-0.1c2.4-0.2,4.2,3.8,4.8,6.7
				c0.7,3.1,1.2,4.3,1.2,5c0.1,0.7-0.5,1.3-2.4,1.5c-5,0.5-9.8,0.2-11.2,0C538.8,648.2,537.5,647,537.1,646.1z"/>
		</g>
	</g>
	<g id="Num_L4">
		<g id="R12_Right">
			<path class="st22" d="M580.3,657c0.4,0.9,3.6,11,4.7,14.7c0.3,1.4,2.2,1.3,2.2,1.3s20.5-0.5,21.5-0.5c1,0,0.9-1.3,2.1-5.7
				c-1.5-4.3-3-12.4-6.6-12.7c-2.2-0.2-18,0.2-18.6,0.2C584.6,654.5,579.1,654.4,580.3,657z"/>
			<polygon class="st23" points="596.1,666.6 587.2,673 609.2,672.6 610.4,666.8 			"/>
			<path class="st24" d="M593.6,665.6c-0.3-0.8-4-8.4-4.4-9.3s-0.4-1.7,1.9-1.8s12.9-0.1,13.6-0.1c1.1,0,2.3,3.1,3.5,5.8
				c1.3,2.9,2.2,6,2.2,6s0.2,0.8-1.7,1c-5,0.5-10.4,0.3-11.7,0.2C595.7,667.2,593.9,666.4,593.6,665.6z"/>
		</g>
		<g id="R11">
			<path class="st22" d="M555,657.7c0.4,0.9,3,10.2,4,13.9c0.3,1.4,1.5,1.6,1.5,1.6s22.1-0.3,23.1-0.3c1,0,1.5-1.5,1.3-6.2
				c-1.5-4.3-3-12.4-6.6-12.7c-2.2-0.2-18,0.2-18.6,0.2C558.7,654.4,553.9,655.1,555,657.7z"/>
			<polygon class="st23" points="570.1,666.5 561.1,673.1 583.8,673 584.5,666.7 			"/>
			<path class="st24" d="M567.7,665.5c-0.3-0.8-2.9-7.9-3.3-8.8c-0.4-0.9,0.1-1.9,2.4-1.9s11.8-0.1,12.6-0.1c1.1,0,1.8,2.8,2.9,5.5
				c1.3,2.9,2.2,6,2.2,6s0.2,0.8-1.7,1c-5,0.5-10.4,0.3-11.7,0.2C569.7,667.1,568,666.3,567.7,665.5z"/>
		</g>
		<g id="R10_Left">
			<path class="st22" d="M529.8,657.6c0.4,0.9,2.9,11,4,14.7c0.3,1.4,1.3,1.9,1.3,1.9s22.6-0.3,23.6-0.3c1,0,1.2-2.7,1-7.3
				c-1.5-4.3-3-12.4-6.6-12.7c-2.2-0.2-18,0.2-18.6,0.2C533.5,654.3,528.7,654.9,529.8,657.6z"/>
			<polygon class="st23" points="544.9,666.4 535.1,674 558.9,673.9 558.7,666.1 			"/>
			<path class="st24" d="M542.5,665.3c-0.3-0.8-2.9-7.9-3.3-8.8s0.1-1.9,2.4-1.9s11.8-0.1,12.6-0.1c1.1,0,1.8,2.8,2.9,5.5
				c1.3,2.9,2.2,6,2.2,6s0.2,0.8-1.7,1c-5,0.5-10.4,0.3-11.7,0.2C544.6,666.9,542.8,666.2,542.5,665.3z"/>
		</g>
	</g>
	<g id="Num_L5">
		<g id="R15">
			<path class="st22" d="M585.6,676.7c0.4,0.9,2.9,11,4,14.7c0.3,1.4,1.3,1.9,1.3,1.9s22.6-0.3,23.6-0.3s3-3.1,2.8-7.7
				c-1-2.6-4.8-12-8-11.9c-2.2,0.1-20.1,0.4-20.7,0.4C587.6,673.9,584.4,674.1,585.6,676.7z"/>
			<polygon class="st23" points="601.6,686.2 591.4,693.3 614.7,693 615.1,685.7 			"/>
			<path class="st24" d="M600,684.6c-0.3-0.8-4.5-8.1-4.9-9s-1.1-1.9,1.2-2c2.3-0.1,12.8,0,13.6,0c1.1,0,1.5,1.2,3.2,3.7
				c1.7,2.5,3.8,7.3,3.8,7.3s0.9,1.6-1.6,1.8c-5,0.3-10.3,0.6-11.9,0.3C602.2,686.4,600.3,685.5,600,684.6z"/>
		</g>
		<g id="R14_Down">
			<path class="st22" d="M559.9,676.8c0.4,0.9,2.9,11,4,14.7c0.3,1.4,1.3,1.9,1.3,1.9s22.6-0.3,23.6-0.3c1,0,3-3.1,2.8-7.7
				c-1-2.6-4.1-11.8-7.7-11.9c-2.2,0-20.4,0.4-20.9,0.4C561.9,674,558.8,674.2,559.9,676.8z"/>
			<polygon class="st23" points="575.9,686.4 565.7,693.4 589,693.2 589.4,685.8 			"/>
			<path class="st24" d="M573.4,684.6c-0.3-0.8-3.6-7.9-4-8.8s-1.1-1.9,1.2-2s12.8,0,13.6,0c1.1,0,1.5,1.2,3.2,3.7
				c1.7,2.5,3.8,7.3,3.8,7.3s0.7,1.5-1.8,1.7c-5,0.3-12,0.5-13.6,0.2C574.6,686.3,573.7,685.4,573.4,684.6z"/>
		</g>
		<g id="R13">
			<path class="st22" d="M534.5,676.8c0.4,0.9,2.9,11,4,14.7c0.3,1.4,1.3,1.9,1.3,1.9s22.6-0.3,23.6-0.3s2.4-2.8,2.2-7.5
				c-1-2.6-3.5-12.1-7.1-12.2c-2.2,0-20.4,0.4-20.9,0.4C536.5,674,533.4,674.2,534.5,676.8z"/>
			<polygon class="st23" points="550.5,686.4 540.3,693.4 563.6,693.1 564,685.8 			"/>
			<path class="st24" d="M548,684.6c-0.3-0.8-3.6-7.9-4-8.8s-1.1-1.9,1.2-2c2.3-0.1,12.8,0,13.6,0c1.1,0,1.5,1.2,3.2,3.7
				c1.7,2.5,3.2,7.5,3.2,7.5s0.3,1.1-1.5,1.3c-4.9,0.7-12,0.3-13.3,0.3S548.3,685.4,548,684.6z"/>
		</g>
	</g>
</g>
</svg>
