<?xml version="1.0" encoding="utf-8"?>
<!-- Generator: Adobe Illustrator 16.0.4, SVG Export Plug-In . SVG Version: 6.00 Build 0)  -->
<!DOCTYPE svg PUBLIC "-//W3C//DTD SVG 1.1//EN" "http://www.w3.org/Graphics/SVG/1.1/DTD/svg11.dtd">
<svg version="1.1" id="Layer_1" xmlns="http://www.w3.org/2000/svg" xmlns:xlink="http://www.w3.org/1999/xlink" x="0px" y="0px"
	 width="208px" height="477px" viewBox="0 0 208 477" enable-background="new 0 0 208 477" xml:space="preserve">
<path d="M141.9,288.4c0-48.6,0-241,0-241.2c0-22.9-18.9-41.5-42.1-41.5c-23.2,0-42.1,18.6-42.1,41.5c0,0.5-0.1,192.7-0.1,241.2
	c-31.5,15.8-52,48.2-52,84.1c0,51.9,42.2,94.1,94.1,94.1c51.9,0,94.1-42.2,94.1-94.1C193.8,336.7,173.4,304.2,141.9,288.4z
	 M99.8,458.3c-47.3,0-85.7-38.5-85.7-85.7c0-34.4,20.6-65.4,52-78.8c0-37.4,0.1-246.2,0.1-246.5c0-18.3,15.1-33.2,33.8-33.2
	s33.8,14.9,33.8,33.2c0,0.3,0,209.1,0,246.5c31.3,13.4,52,44.4,52,78.8C185.5,419.8,147,458.3,99.8,458.3z"/>
<linearGradient id="SVGID_1_" gradientUnits="userSpaceOnUse" x1="99.751" y1="448.5264" x2="99.751" y2="26.9915">
	<stop  offset="0.3376" style="stop-color:#1C75BC"/>
	<stop  offset="0.375" style="stop-color:#4F71AE"/>
	<stop  offset="0.4591" style="stop-color:#836696"/>
	<stop  offset="0.5454" style="stop-color:#A55982"/>
	<stop  offset="0.6325" style="stop-color:#BE4B72"/>
	<stop  offset="0.7206" style="stop-color:#D03B67"/>
	<stop  offset="0.8102" style="stop-color:#DD2B5E"/>
	<stop  offset="0.9021" style="stop-color:#E51D5A"/>
	<stop  offset="1" style="stop-color:#E71758"/>
</linearGradient>
<path fill="url(#SVGID_1_)" d="M125.2,299.5c0,0,0-252,0-252.3c0-13.7-11.4-24.8-25.4-24.8c-14,0-25.4,11.1-25.4,24.8
	c0,0.1-0.1,252.3-0.1,252.3c-30.2,10.5-52,39.3-52,73.1c0,42.7,34.6,77.4,77.4,77.4c42.7,0,77.4-34.6,77.4-77.4
	C177.1,338.7,155.4,310,125.2,299.5z"/>
<ellipse transform="matrix(0.7909 -0.6119 0.6119 0.7909 -193.5654 113.7364)" fill="#FFFFFF" cx="69.7" cy="340.1" rx="18" ry="11.3"/>
<circle fill="#FFFFFF" cx="46.7" cy="378.1" r="13.5"/>
<circle fill="#FFFFFF" cx="89.5" cy="48.2" r="6.3"/>
<g>
	<path d="M178.5,73.5H139c-2.8,0-5-2.2-5-5s2.2-5,5-5h39.5c2.8,0,5,2.2,5,5S181.2,73.5,178.5,73.5z"/>
</g>
<g>
	<path d="M178.5,272.8H139c-2.8,0-5-2.2-5-5s2.2-5,5-5h39.5c2.8,0,5,2.2,5,5S181.2,272.8,178.5,272.8z"/>
</g>
<g>
	<path d="M178.5,139.9H139c-2.8,0-5-2.2-5-5s2.2-5,5-5h39.5c2.8,0,5,2.2,5,5S181.2,139.9,178.5,139.9z"/>
</g>
<g>
	<path d="M178.5,206.4H139c-2.8,0-5-2.2-5-5s2.2-5,5-5h39.5c2.8,0,5,2.2,5,5S181.2,206.4,178.5,206.4z"/>
</g>
<g>
	<path d="M163.7,239.6H139c-2.8,0-5-2.2-5-5s2.2-5,5-5h24.7c2.8,0,5,2.2,5,5S166.5,239.6,163.7,239.6z"/>
</g>
<g>
	<path d="M163.7,173.1H139c-2.8,0-5-2.2-5-5s2.2-5,5-5h24.7c2.8,0,5,2.2,5,5S166.5,173.1,163.7,173.1z"/>
</g>
<g>
	<path d="M163.7,106.7H139c-2.8,0-5-2.2-5-5s2.2-5,5-5h24.7c2.8,0,5,2.2,5,5S166.5,106.7,163.7,106.7z"/>
</g>
</svg>
