<?xml version="1.0" encoding="UTF-8" standalone="no"?>
<!DOCTYPE svg PUBLIC "-//W3C//DTD SVG 1.1//EN" "http://www.w3.org/Graphics/SVG/1.1/DTD/svg11.dtd">
<svg width="100%" height="100%" viewBox="0 0 32 32" version="1.1" xmlns="http://www.w3.org/2000/svg" xmlns:xlink="http://www.w3.org/1999/xlink" xml:space="preserve" xmlns:serif="http://www.serif.com/" style="fill-rule:evenodd;clip-rule:evenodd;stroke-linejoin:round;stroke-miterlimit:2;">
    <g id="Horizontal">
        <rect x="0" y="9" width="32" height="15" style="fill:rgb(53,62,53);"/>
        <rect x="0" y="10" width="32" height="6" style="fill:rgb(169,138,98);"/>
        <path d="M10,10L11,11L13,11L15,10L10,10Z" style="fill:rgb(162,100,99);"/>
        <path d="M18,10L19,11L21,11L23,10L18,10Z" style="fill:rgb(162,100,99);"/>
        <path d="M14,16L20,16L18,12.8L16,12L14,13.6L14,16Z" style="fill:rgb(162,100,99);"/>
        <path d="M1,11.333L2,12.667L5,14L7,12.667L7,10L1,10" style="fill:rgb(162,100,99);"/>
        <path d="M25,11.333L26,12.667L29,13L30,11.667L31,10L25,10" style="fill:rgb(162,100,99);"/>
        <path d="M32,22L32,13L31,13L30,14L29,16L5.5,16L0,13L0,22L32,22Z" style="fill:rgb(162,100,99);"/>
        <path d="M13,12L8,12L8,14L12,14L13,12Z" style="fill:rgb(162,100,99);"/>
        <path d="M24,12L20,12L21,15L25,14L24,12Z" style="fill:rgb(162,100,99);"/>
        <path d="M14,18L16,19L19,19L20,18L20,16L14,16L14,18Z" style="fill:rgb(124,74,72);"/>
        <path d="M0,18L3,16L0,14L0,18Z" style="fill:rgb(124,74,72);"/>
        <path d="M7,16L8,15L12,15L13,16L7,16Z" style="fill:rgb(162,100,99);"/>
        <path d="M8,19L7,18L7,16L13,16L12,18L8,19Z" style="fill:rgb(124,74,72);"/>
        <path d="M8,22L5,18L0,19L0,22L8,22Z" style="fill:rgb(124,74,72);"/>
        <path d="M4,19L1,20L2,21L6,21L4,19Z" style="fill:rgb(53,62,53);"/>
        <path d="M13,19L16,22L10,22L10,20L13,19Z" style="fill:rgb(124,74,72);"/>
        <path d="M19,22L21,19L24,19L26,22L19,22Z" style="fill:rgb(124,74,72);"/>
        <path d="M23,16L24.667,15L28,15L28,16L23,16Z" style="fill:rgb(162,100,99);"/>
        <path d="M28,19C28,19 25.631,19.109 25.5,19C25.369,18.891 23,16 23,16L28,16L28,19Z" style="fill:rgb(124,74,72);"/>
        <path d="M32,19C32,19 30.631,19.109 30.5,19C30.369,18.891 29,17 29,17L30.732,14.268L32,14L32,19Z" style="fill:rgb(124,74,72);"/>
        <path d="M32,20L29,20L27,22L32,22L32,20Z" style="fill:rgb(124,74,72);"/>
        <path d="M22,20L20,22L25,22L23.78,20.187L22,20Z" style="fill:rgb(53,62,53);"/>
    </g>
    <g id="Vertical">
        <path d="M8.5,0.027L8.5,32.008L23.5,32.008L23.5,0.027L8.5,0.027Z" style="fill:rgb(53,62,53);"/>
        <path d="M9.5,0.027L9.5,32.008L15.5,32.008L15.5,0.027L9.5,0.027Z" style="fill:rgb(169,138,98);"/>
        <path d="M9.5,22.014L10.5,21.015L10.5,19.016L9.5,17.017L9.5,22.014Z" style="fill:rgb(162,100,99);"/>
        <path d="M9.5,14.019L10.5,13.019L10.5,11.02L9.5,9.021L9.5,14.019Z" style="fill:rgb(162,100,99);"/>
        <path d="M15.5,18.016L15.5,12.02L12.3,14.019L11.5,16.017L13.1,18.016L15.5,18.016Z" style="fill:rgb(162,100,99);"/>
        <path d="M10.833,31.009L12.167,30.009L13.5,27.011L12.167,25.012L9.5,25.012L9.5,31.009" style="fill:rgb(162,100,99);"/>
        <path d="M10.833,7.023L12.167,6.023L12.5,3.025L11.167,2.025L9.5,1.026L9.5,7.023" style="fill:rgb(162,100,99);"/>
        <path d="M21.5,0.027L12.5,0.027L12.5,1.026L13.5,2.025L15.5,3.025L15.5,26.511L12.5,32.008L21.5,32.008L21.5,0.027Z" style="fill:rgb(162,100,99);"/>
        <path d="M11.5,19.016L11.5,24.013L13.5,24.013L13.5,20.015L11.5,19.016Z" style="fill:rgb(162,100,99);"/>
        <path d="M11.5,8.022L11.5,12.02L14.5,11.02L13.5,7.023L11.5,8.022Z" style="fill:rgb(162,100,99);"/>
        <path d="M17.5,18.016L18.5,16.017L18.5,13.019L17.5,12.02L15.5,12.02L15.5,18.016L17.5,18.016Z" style="fill:rgb(124,74,72);"/>
        <path d="M17.5,32.008L15.5,29.01L13.5,32.008L17.5,32.008Z" style="fill:rgb(124,74,72);"/>
        <path d="M15.5,25.012L14.5,24.013L14.5,20.015L15.5,19.016L15.5,25.012Z" style="fill:rgb(162,100,99);"/>
        <path d="M18.5,24.013L17.5,25.012L15.5,25.012L15.5,19.016L17.5,20.015L18.5,24.013Z" style="fill:rgb(124,74,72);"/>
        <path d="M21.5,24.013L17.5,27.011L18.5,32.008L21.5,32.008L21.5,24.013Z" style="fill:rgb(124,74,72);"/>
        <path d="M18.5,28.011L19.5,31.009L20.5,30.009L20.5,26.012L18.5,28.011Z" style="fill:rgb(53,62,53);"/>
        <path d="M18.5,19.016L21.5,16.017L21.5,22.014L19.5,22.014L18.5,19.016Z" style="fill:rgb(124,74,72);"/>
        <path d="M21.5,13.019L18.5,11.02L18.5,8.022L21.5,6.023L21.5,13.019Z" style="fill:rgb(124,74,72);"/>
        <path d="M15.5,9.021L14.5,7.356L14.5,4.024L15.5,4.024L15.5,9.021Z" style="fill:rgb(162,100,99);"/>
        <path d="M18.5,4.024C18.5,4.024 18.609,6.392 18.5,6.523C18.391,6.654 15.5,9.021 15.5,9.021L15.5,4.024L18.5,4.024Z" style="fill:rgb(124,74,72);"/>
        <path d="M18.5,0.027C18.5,0.027 18.609,1.395 18.5,1.526C18.391,1.657 16.5,3.025 16.5,3.025L13.768,1.294L13.5,0.027L18.5,0.027Z" style="fill:rgb(124,74,72);"/>
        <path d="M19.5,0.027L19.5,3.025L21.5,5.024L21.5,0.027L19.5,0.027Z" style="fill:rgb(124,74,72);"/>
        <path d="M19.5,10.021L21.5,12.02L21.5,7.023L19.687,8.242L19.5,10.021Z" style="fill:rgb(53,62,53);"/>
    </g>
</svg>
