<?xml version="1.0" encoding="utf-8"?>
<!-- Generator: Adobe Illustrator 16.0.4, SVG Export Plug-In . SVG Version: 6.00 Build 0)  -->
<!DOCTYPE svg PUBLIC "-//W3C//DTD SVG 1.1//EN" "http://www.w3.org/Graphics/SVG/1.1/DTD/svg11.dtd">
<svg version="1.1" id="Layer_1" xmlns="http://www.w3.org/2000/svg" xmlns:xlink="http://www.w3.org/1999/xlink" x="0px" y="0px"
	 width="708.66px" height="850.39px" viewBox="0 0 708.66 850.39" enable-background="new 0 0 708.66 850.39" xml:space="preserve">
<g id="Head">
	<path fill="#7CAB41" d="M3.34,281.777c6.354,10.94-8.01,17.44,58.988,14.34c39.26,1.346,62.002-1.4,66.624-18.042
		c-0.54-6.338,15.974-126.089-57.607-128.561C-15.78,146.587,3.34,281.777,3.34,281.777z"/>
	<path fill="#657E36" d="M71.345,149.515c-10.058-0.336-18.673,1.15-26.081,4.012c2.465-0.156,5.021-0.197,7.684-0.107
		c56.309,1.891,57.553,91.724,55.251,134.898c13.001-3.338,20.888-5.128,20.68-7.568C128.33,274.408,144.923,151.985,71.345,149.515
		z"/>
	<path d="M69.694,284.978c-1.896-0.104-3.812-0.082-5.685-0.347c-3.026-0.427-6.037-0.986-9.018-1.638
		c-0.485-0.105-1.095-0.988-1.07-1.491c0.036-0.886,0.875-1.382,1.885-1.197c1.104,0.203,2.156,0.618,3.257,0.838
		c2.243,0.449,4.48,1,6.756,1.201c5.938,0.532,11.707-0.142,17.19-2.397c0.425-0.175,0.854-0.344,1.305-0.429
		c0.889-0.173,1.829-0.25,2.169,0.756c0.318,0.941-0.457,1.349-1.253,1.629c-1.919,0.674-3.828,1.38-5.788,1.937
		c-1.564,0.443-3.184,0.81-4.808,0.978c-1.631,0.164-3.29,0.036-4.933,0.036C69.698,284.896,69.698,284.938,69.694,284.978z"/>
	<path fill="#657E36" d="M110.191,263.433c-5.583,11.196-18.736,17.807-27.911,19.427c-9.181,1.624,25.395-2.624,28.427-6.775
		C113.739,271.934,110.191,263.433,110.191,263.433z"/>
	<path fill="#657E36" d="M107.886,242.012c-18.45,34.213-42.066,22.736-61.228,22.649c-15.576-0.07,21.634,18.378,48.042,2.372
		c12.656-7.673,15.781-8.301,18.743-13.343C116.405,248.652,107.886,242.012,107.886,242.012z"/>
	<path d="M115.448,258.259c-2.48-3.417-6.208-5.185-10.545-5.987c-0.561-0.104-1.352-0.069-1.752,0.22
		c-0.57,0.413-0.882,1.12-1.31,1.699c0.588,0.284,1.161,0.607,1.77,0.842c1.044,0.396,2.104,0.736,3.155,1.1
		c-0.538,0.964-0.896,2.062-1.647,2.866c-1.856,1.987-9.545,6.301-12.893,7.343c-3.839,1.193-7.787,2.095-11.666,3.204
		c-2.886,0.826-5.733,0.89-8.596,1.785c-1.027,0.321-4.004,0.535-5.035,0.665c-1.029-0.128-2.057-0.343-3.082-0.665
		c-2.863-0.896-5.712-1.404-8.597-2.232c-3.874-1.109-7.83-1.563-11.67-2.758c-4.911-1.53-9.468-3.682-12.893-7.343
		c-0.751-0.803-1.11-1.903-1.648-2.868c1.051-0.362,2.118-0.702,3.156-1.098c0.612-0.233,1.179-0.558,1.77-0.841
		c-0.424-0.58-0.733-1.287-1.31-1.699c-0.403-0.29-1.191-0.324-1.753-0.22c-4.339,0.803-8.057,2.568-10.542,5.985
		c-0.459,0.633-0.796,2.007-0.434,2.323c0.966,0.83,1.552-0.346,2.13-0.873c2.261-2.062,3.127-2.059,5.223,0.146
		c0.168,0.175,0.317,0.37,0.506,0.522c2.019,1.638,3.949,3.375,6.091,4.876c3.221,2.264,7.192,3.161,10.943,4.388
		c4.062,1.326,8.21,1.546,12.347,2.678c3.193,0.877,6.39,2.187,9.64,2.323c0.038,0.002,0.082,0,0.119,0.002v-0.002
		c0.457,0,2.041,0,2.074,0c3.247-0.137,6.444-0.558,9.637-1.433c4.138-1.132,8.285-2.244,12.347-3.57
		c3.755-1.227,7.726-2.124,10.948-4.387c2.132-1.501,4.068-3.237,6.089-4.875c0.188-0.154,0.339-0.349,0.506-0.523
		c2.098-2.204,2.961-2.209,5.221-0.148c0.575,0.529,1.171,1.706,2.128,0.875C116.245,260.264,115.906,258.891,115.448,258.259z"/>
	<path fill="#657E36" d="M67.025,253.356c-10.961,0-28.146-7.271-35.618-14.525c7.127,9.783,27.461,21.012,40.241,21.012
		c21.58,0,37.299-11.75,37.299-42.327c0-1.368-0.066-2.717-0.193-4.053C106.723,235.849,88.818,253.356,67.025,253.356z"/>
</g>
<path fill="#1C6787" d="M127.428,121.35c1.205,6.956-3.584,12.646-10.644,12.646H11.455c-7.06,0-11.849-5.69-10.644-12.646
	L19.349,14.404c1.206-6.956,7.968-12.646,15.027-12.646h59.487c7.06,0,13.822,5.691,15.027,12.646L127.428,121.35z"/>
<path fill="#449CC2" d="M108.736,78.647c0.407,47.904-18.334,44.25-46.833,50l-25.089,3.551c-16.18,0-38.411,4.115-31.911-20.551
	l12.435-76.02c0-18.706,13.116-33.87,29.295-33.87h33.215c16.18,0,29.296,15.164,29.296,33.87L108.736,78.647z"/>
<path fill="#4AAAD4" d="M91.145,19.564c0,0,24.822-19.5-47.653-11.761c-31.509,3.365-31.616,106.36-31.5,106.51
	c2.427,3.152,7.75-59.75,33-73.75S91.145,19.564,91.145,19.564z"/>
<path fill="#3E8FB3" d="M12.907,116.042c0,0-18.48,16.148,53.995,8.409c59.603-6.365,36.307-100.258,33.88-103.409
	c-2.427-3.151,5.25,59.75-20,73.75S12.907,116.042,12.907,116.042z"/>
<path fill="#114054" d="M127.808,121.35l-15.339-88.498l4.434,53.461c0.453,52.098-19.379,38.079-51.033,44.333l-33.682,1.527
	c-9.508,0-20.895,1.251-28.443-1.542c1.929,2.08,4.75,3.364,8.091,3.364h105.329C124.224,133.997,129.014,128.306,127.808,121.35z"
	/>
<g>
	<path fill="#A3CFE2" d="M18.415,124.434c-2.761,0-8.72-1.605-8.72-4.688l6.874-79.295c-0.11-2.135,4.039-16.813,11.862-26.261
		C33.185,8.449,49.374,3.515,57.668,3.515l34.026,2.023c2.761,0,8.888,6.335,8.888,9.417s-8.293-2.836-11.054-2.836L60.736,8.813
		c-16.875-0.395-22.542,9.321-28.294,15.855c-13.5,15.333-23.092,72.835-16.414,88.453
		C21.277,125.398,21.176,124.434,18.415,124.434z"/>
</g>
<path fill="#C7EEFF" d="M33.4,12.087c0,0,1.5-1.502,8.75-4.001s15.75-3.75,2.25,2s-13.998,13.56-14.998,15.06
	s-8.622,11.62-4.667,0.333S31.804,13.118,33.4,12.087z"/>
<path fill="none" stroke="#0A2530" stroke-width="3" stroke-miterlimit="10" d="M127.906,121.35
	c1.206,6.956-3.584,12.646-10.643,12.646H11.934c-7.06,0-11.849-5.69-10.644-12.646L19.828,14.404
	c1.206-6.956,7.968-12.646,15.027-12.646h59.487c7.061,0,13.822,5.691,15.027,12.646L127.906,121.35z"/>
<path d="M84.822,90.817c-9.015,0-16.458-7.617-20.426-15.216c-1.7,3.249-3.57,7.88-6.821,10.33
	c-3.365,2.537-7.967,2.272-12.867,2.272c-7.854,0.001-15.169-1.856-19.172-7.523c-3.876-5.485-7.189-11.278-5.266-16.916
	c5.442-15.952,12.141-28.852,21.825-39.344c3.177-3.44,6.575-6.681,9.544-8c1.71-0.76,3.316-1.146,4.775-1.146
	c2.152,0,6.01,0.872,7.66,6.711c0.29,1.028,0.549,2.063,0.782,3.102c0.025-0.114,0.053-0.228,0.08-0.342
	c1.867-7.896,6-8.164,9.127-8.164c2.463,0,5.168-0.368,8.301,1.732c3.887,2.606,6.846,7.703,9.682,11.485
	c7.633,10.193,13.163,19.079,15.983,32.43c1.26,5.962,0.187,13.397-3.681,18.515c-3.367,4.457-4.922,5.657-9.844,6.696
	C92.834,87.793,86.518,90.817,84.822,90.817z"/>
<path fill="#FFFFFF" d="M64.809,41.981c0.85-5.458,1.371-11.129,2.674-16.633c1.895-8.007,6.281-9.654,13.431-4.862
	c3.668,2.46,7.028,5.683,9.638,9.163C98.31,40.011,103.2,51.61,105.839,64.103c2.422,11.468-6.856,21.087-15.264,22.862
	c-11.037,2.332-21.934-4.123-24.842-14.627c-0.24-0.871-0.439-1.753-0.781-3.121c-1.096,6.273-3.978,10.881-8.946,14.627
	c-7.737,5.834-22.124,4.115-28.331-4.672c-3.229-4.568-4.713-9.49-3.527-14.982c3.114-14.414,8.758-27.775,19.065-38.941
	c2.508-2.717,6.011-4.893,9.492-6.44c4.537-2.017,7.556-0.718,8.858,3.888c1.509,5.339,2.105,10.912,3.055,16.39
	C64.787,40.077,64.756,41.098,64.809,41.981z"/>
<path fill="#B3B3B3" d="M93.717,78.749C82.68,81.08,68.777,77.61,65.869,67.106c-0.24-0.872,0.34-3.423,0-4.792
	c-0.533,3.057-0.885,4.224-2.301,6.583c-1.47,2.291-2.053,4.945-4.421,6.729c-7.738,5.835-22.124,4.115-28.332-4.671
	c-3.229-4.569-4.713-9.491-3.526-14.983c0.741-3.429,1.629-6.795,2.686-10.089c-2.53,5.834-4.39,11.968-5.759,18.306
	c-1.187,5.492,0.298,10.414,3.526,14.982c6.208,8.787,20.594,10.506,28.332,4.672c4.706-3.549,7.81-8.369,9.054-14.189
	c0.274,1.113,0.461,1.914,0.673,2.684c2.908,10.504,13.805,16.959,24.842,14.627c6.95-1.467,14.476-8.302,15.515-17.104
	C103.092,74.494,98.283,77.784,93.717,78.749z"/>
<g>
	<path d="M45.402,67.877l7.476,2.167c0.126-0.486,0.222-0.992,0.282-1.517c-1.087-2.69-1.819-5.582-3.353-8.018
		c-1.903-3.026-5.692-3.099-7.571-0.075c-1.509,2.428-2.441,5.361-2.862,8.173c-0.62,4.146,2.464,7.349,6.448,7.403
		c1.966,0.027,2.906-0.062,4.187-1.392L45.402,67.877z"/>
	<path d="M83.84,68.708l6.335,1.335c0.126-0.486,0.222-0.992,0.282-1.517c-1.088-2.69-1.82-5.582-3.354-8.018
		c-1.902-3.026-5.691-3.099-7.57-0.075c-1.51,2.428-2.441,5.361-2.862,8.173c-0.62,4.146,2.464,7.349,6.448,7.403
		c1.966,0.027,2.395,0.584,3.676-0.744L83.84,68.708z"/>
</g>
<path fill="#A3CFE2" d="M94.734,87.989c-1.671,0.354-7.986,3.376-9.682,3.376c-9.016,0.001-16.459-7.616-20.426-15.216
	c-1.701,3.249-3.571,7.88-6.822,10.33c-3.365,2.537-7.967,2.273-12.867,2.273c-7.854,0-15.169-1.857-19.172-7.523
	c-0.109-0.155-0.216-0.312-0.325-0.467c0.971,2.143,2.545,4.27,4.244,6.34c3.597,4.386,10.169,5.823,17.224,5.822
	c4.404,0,8.538,0.205,11.561-1.759c2.921-1.896,4.602-5.479,6.13-7.994c3.564,5.881,10.25,11.776,18.35,11.775
	c1.523,0,7.198-2.339,8.7-2.613c4.423-0.804,5.819-1.731,8.847-5.181c0.957-1.093,1.718-2.324,2.303-3.627
	C100.488,86.204,98.709,87.15,94.734,87.989z"/>
<path fill="#1C6787" d="M74.652,90.817c-2.82-0.124-3.871-0.684-6.625-0.684c-2.023,0-6.281-0.066-8.251,0.002
	c-6.315,0.213-14.172,4.82-15.499,8.387c-2.403,6.463-3.441,14.889-6.229,23.428c-0.761,2.342-0.09,4.02,0.621,5.029l40.315-33.386
	C77.297,92.909,76.816,90.913,74.652,90.817z"/>
<path fill="#A3CFE2" d="M48.378,130.448c1.989,0.021,3.979,0.028,5.97,0.028c1.655,0,3.311-0.005,4.966-0.01
	c1.539-0.005,3.077-0.009,4.616-0.009l14.274,0.001c6.01-0.005,9.326-0.954,11.09-3.171c1.201-1.51,1.525-3.506,0.967-5.935
	c-1.654-7.198-3.585-14.481-5.451-21.524l-0.141-0.53c-0.662-2.503-2.734-4.509-5.686-5.705l-40.315,33.386
	c0.01,0.014,0.019,0.029,0.028,0.043C40.292,129.243,43.549,130.395,48.378,130.448z"/>
<path d="M63.923,128.331c-5.173,0.002-10.354,0.048-15.527-0.01c-6.212-0.066-9.486-2.159-8.331-5.713
	c2.556-7.833,5.378-15.638,8.276-23.431c1.011-2.718,5.088-4.562,10.47-4.747c4.736-0.16,9.52-0.123,14.252,0.086
	c4.986,0.219,8.772,2.402,9.544,5.325c1.941,7.323,3.889,14.646,5.577,21.988c1.08,4.694-1.876,6.495-9.987,6.503
	c-2.379,0.002-4.758-0.002-7.136-0.004C68.68,128.329,66.301,128.329,63.923,128.331z"/>
<path fill="#FFFFFF" d="M64.938,106.99c-3.758,0-7.527,0.146-11.266-0.106c-0.875-0.059-2.357-1.456-2.361-2.239
	c-0.01-4.099,3.503-7.607,7.654-7.759c4.309-0.16,8.635-0.17,12.944-0.041c4.042,0.123,7.411,3.603,7.142,7.577
	c-0.059,0.839-1.808,2.163-2.854,2.237c-3.734,0.275-7.504,0.109-11.264,0.109C64.934,106.84,64.938,106.917,64.938,106.99z"/>
<path fill="#FFFFFF" d="M44.975,122.524c4.6-1.371,9.151-2.99,13.809-4.057c7.781-1.785,15.271,0.049,22.566,2.943
	c0.766,0.302,1.282,1.343,1.914,2.043c-0.684,0.602-1.359,1.717-2.047,1.723c-11.587,0.103-23.178,0.077-34.769,0.02
	c-0.417-0.002-0.833-0.616-1.25-0.945C45.125,123.676,45.05,123.098,44.975,122.524z"/>
<path fill="#1C6787" d="M272.467,121.351c1.205,6.956-3.584,12.646-10.644,12.646H156.494c-7.06,0-11.849-5.69-10.644-12.646
	l18.538-106.946c1.206-6.956,7.968-12.646,15.027-12.646h59.487c7.06,0,13.822,5.691,15.027,12.646L272.467,121.351z"/>
<path fill="#449CC2" d="M253.775,78.647c0.407,47.904-18.334,44.25-46.833,50l-25.089,3.551c-16.18,0-38.411,4.115-31.911-20.551
	l12.435-76.02c0-18.706,13.116-33.87,29.295-33.87h33.215c16.18,0,29.296,15.164,29.296,33.87L253.775,78.647z"/>
<path fill="#4AAAD4" d="M236.184,19.564c0,0,24.822-19.5-47.653-11.761c-31.509,3.365-31.616,106.36-31.5,106.51
	c2.427,3.152,7.75-59.75,33-73.75S236.184,19.564,236.184,19.564z"/>
<path fill="#3E8FB3" d="M157.946,116.042c0,0-18.48,16.148,53.995,8.409c59.603-6.365,36.307-100.258,33.88-103.409
	c-2.427-3.151,5.25,59.75-20,73.75S157.946,116.042,157.946,116.042z"/>
<path fill="#114054" d="M272.847,121.351l-15.339-88.498l4.434,53.461c0.453,52.098-19.379,38.079-51.033,44.333l-33.682,1.527
	c-9.508,0-20.895,1.251-28.443-1.542c1.929,2.08,4.75,3.364,8.091,3.364h105.329C269.263,133.998,274.053,128.307,272.847,121.351z"
	/>
<g>
	<path fill="#A3CFE2" d="M163.454,124.435c-2.761,0-8.72-1.605-8.72-4.688l6.874-79.295c-0.11-2.135,4.039-16.813,11.862-26.261
		c4.754-5.741,20.943-10.675,29.237-10.675l34.026,2.023c2.761,0,8.888,6.335,8.888,9.417s-8.293-2.836-11.054-2.836l-28.792-3.306
		c-16.875-0.395-22.542,9.321-28.294,15.855c-13.5,15.333-23.092,72.835-16.414,88.453
		C166.316,125.398,166.215,124.435,163.454,124.435z"/>
</g>
<path fill="#C7EEFF" d="M178.439,12.087c0,0,1.5-1.502,8.75-4.001s15.75-3.75,2.25,2s-13.998,13.56-14.998,15.06
	s-8.622,11.62-4.667,0.333S176.843,13.119,178.439,12.087z"/>
<path fill="none" stroke="#0A2530" stroke-width="3" stroke-miterlimit="10" d="M272.945,121.351
	c1.206,6.956-3.584,12.646-10.643,12.646H156.973c-7.06,0-11.849-5.69-10.644-12.646l18.538-106.946
	c1.206-6.956,7.968-12.646,15.027-12.646h59.487c7.061,0,13.822,5.691,15.027,12.646L272.945,121.351z"/>
<path d="M229.861,90.817c-9.015,0-16.458-7.617-20.426-15.216c-1.7,3.249-3.57,7.88-6.821,10.33
	c-3.365,2.537-7.967,2.272-12.867,2.272c-7.854,0.001-15.169-1.856-19.172-7.523c-3.876-5.485-7.189-11.278-5.266-16.916
	c5.442-15.952,12.141-28.852,21.825-39.344c3.177-3.44,6.575-6.681,9.544-8c1.71-0.76,3.316-1.146,4.775-1.146
	c2.152,0,6.01,0.872,7.66,6.711c0.29,1.028,0.549,2.063,0.782,3.102c0.025-0.114,0.053-0.228,0.08-0.342
	c1.867-7.896,6-8.164,9.127-8.164c2.463,0,5.168-0.368,8.301,1.732c3.887,2.606,6.846,7.703,9.682,11.485
	c7.633,10.193,13.163,19.079,15.983,32.43c1.26,5.962,0.187,13.397-3.681,18.515c-3.367,4.457-4.922,5.657-9.844,6.696
	C237.873,87.793,231.557,90.817,229.861,90.817z"/>
<path fill="#FFFFFF" d="M209.848,41.981c0.85-5.458,1.371-11.129,2.674-16.633c1.895-8.007,6.281-9.654,13.431-4.862
	c3.668,2.46,7.028,5.683,9.638,9.163c7.758,10.362,12.648,21.961,15.287,34.454c2.422,11.468-6.856,21.087-15.264,22.862
	c-11.037,2.332-21.934-4.123-24.842-14.627c-0.24-0.871-0.439-1.753-0.781-3.121c-1.096,6.273-3.978,10.881-8.946,14.627
	c-7.737,5.834-22.124,4.115-28.331-4.672c-3.229-4.568-4.713-9.49-3.527-14.982c3.114-14.414,8.758-27.775,19.065-38.941
	c2.508-2.717,6.011-4.893,9.492-6.44c4.537-2.017,7.556-0.718,8.858,3.888c1.509,5.339,2.105,10.912,3.055,16.39
	C209.826,40.078,209.795,41.099,209.848,41.981z"/>
<path fill="#B3B3B3" d="M238.756,78.75c-11.037,2.331-24.94-1.139-27.848-11.643c-0.24-0.872,0.34-3.423,0-4.792
	c-0.533,3.057-0.885,4.224-2.301,6.583c-1.47,2.291-2.053,4.945-4.421,6.729c-7.738,5.835-22.124,4.115-28.332-4.671
	c-3.229-4.569-4.713-9.491-3.526-14.983c0.741-3.429,1.629-6.795,2.686-10.089c-2.53,5.834-4.39,11.968-5.759,18.306
	c-1.187,5.492,0.298,10.414,3.526,14.982c6.208,8.787,20.594,10.506,28.332,4.672c4.706-3.549,7.81-8.369,9.054-14.189
	c0.274,1.113,0.461,1.914,0.673,2.684c2.908,10.504,13.805,16.959,24.842,14.627c6.95-1.467,14.476-8.302,15.515-17.104
	C248.131,74.495,243.322,77.785,238.756,78.75z"/>
<g>
	<path d="M190.441,67.877l7.476,2.167c0.126-0.486,0.222-0.992,0.282-1.517c-1.087-2.69-1.819-5.582-3.353-8.018
		c-1.903-3.026-5.692-3.099-7.571-0.075c-1.509,2.428-2.441,5.361-2.862,8.173c-0.62,4.146,2.464,7.349,6.448,7.403
		c1.966,0.027,2.906-0.062,4.187-1.392L190.441,67.877z"/>
	<path d="M228.879,68.708l6.335,1.335c0.126-0.486,0.222-0.992,0.282-1.517c-1.088-2.69-1.82-5.582-3.354-8.018
		c-1.902-3.026-5.691-3.099-7.57-0.075c-1.51,2.428-2.441,5.361-2.862,8.173c-0.62,4.146,2.464,7.349,6.448,7.403
		c1.966,0.027,2.395,0.584,3.676-0.744L228.879,68.708z"/>
</g>
<path fill="#A3CFE2" d="M239.773,87.99c-1.671,0.354-7.986,3.376-9.682,3.376c-9.016,0.001-16.459-7.616-20.426-15.216
	c-1.701,3.249-3.571,7.88-6.822,10.33c-3.365,2.537-7.967,2.273-12.867,2.273c-7.854,0-15.169-1.857-19.172-7.523
	c-0.109-0.155-0.216-0.312-0.325-0.467c0.971,2.143,2.545,4.27,4.244,6.34c3.597,4.386,10.169,5.823,17.224,5.822
	c4.404,0,8.538,0.205,11.561-1.759c2.921-1.896,4.602-5.479,6.13-7.994c3.564,5.881,10.25,11.776,18.35,11.775
	c1.523,0,7.198-2.339,8.7-2.613c4.423-0.804,5.819-1.731,8.847-5.181c0.957-1.093,1.718-2.324,2.303-3.627
	C245.527,86.205,243.748,87.15,239.773,87.99z"/>
<path fill="#1C6787" d="M232.341,94.31c-4.974-0.104-6.83-0.576-11.688-0.576c-3.569,0-11.083-0.055-14.558,0.002
	c-11.142,0.18-30.294,3.727-32.635,6.73c-4.24,5.441-0.782,12.868-5.701,20.058c-1.342,1.972-0.159,3.384,1.096,4.234l71.13-28.111
	C237.009,96.071,236.161,94.391,232.341,94.31z"/>
<path fill="#A3CFE2" d="M184.181,127.679c3.141,0.017,6.283,0.023,9.425,0.023c2.611,0,5.227-0.004,7.838-0.009
	c2.43-0.004,4.858-0.007,7.288-0.007l22.533,0.001c9.486-0.004,14.721-0.804,17.506-2.67c1.896-1.271,2.407-2.952,1.528-4.997
	c-2.61-6.061-2.469-11.848-5.415-17.778l-2.554-4.448c-1.045-2.107-5.176-0.14-9.836-1.147l-63.642,28.111
	c0.017,0.012,0.031,0.024,0.044,0.036C171.417,126.664,176.558,127.634,184.181,127.679z"/>
<path fill="#251E1A" d="M241.417,123.498c-0.201-0.233-0.404-0.466-0.607-0.699c0.75-3.701,3.42-14.374,2.843-17.042
	c-0.113-0.519-0.21-0.972-0.306-1.375l-0.051-0.57c-0.103-0.378-0.207-0.757-0.312-1.136c-0.091-0.021-0.169-0.049-0.235-0.083
	c-0.421-0.806-1.065-1.348-2.335-2.005c0,0-0.001-0.001-0.003-0.001c-0.937-0.684-2.002-1.263-3.474-1.504
	c-1.438-0.236-2.855-0.22-4.293-0.115c-0.406,0.239-0.858,0.323-1.372,0.199c-0.484,0.523-1.965,0.273-2.807,0.268
	c-0.562-0.004-2.03,0.192-3.399,0.375c-0.457,0.098-0.925,0.151-1.4,0.182c-0.154,0.019-0.304,0.037-0.44,0.053
	c-1.201,0.136-2.321,0.136-3.256,0.167c-0.123,0.011-0.262,0.02-0.426,0.025c-0.091,0.003-0.182,0.005-0.273,0.007
	c-0.012,0.001-0.025,0.001-0.037,0.002c-0.027,0.002-0.054,0.002-0.082,0.001c-3.18,0.094-6.344,0.06-9.514-0.141
	c-0.399-0.025-0.721-0.068-0.919-0.17c-0.711-0.011-1.474-0.026-2.211-0.047c-0.818,0.131-1.64,0.064-2.392-0.048
	c-0.258-0.039-0.514-0.079-0.771-0.119c-0.005,0-0.01-0.001-0.015-0.001l0.001-0.001c-2.556-0.4-5.084-0.885-7.622-1.341
	c-0.164-0.029-0.297-0.138-0.445-0.21c-0.87,0.166-1.725,0.254-2.466-0.238c-0.77-0.019-1.541-0.016-2.306-0.061
	c-0.172-0.01-0.319-0.029-0.44-0.058c-0.777-0.019-1.611-0.026-2.351-0.002c-1.289,0.241-2.596,0.397-3.955,0.329
	c-0.88,0.531-1.882,0.93-2.852,1.37c-1.41,0.637-2.636,1.493-3.708,2.443c-1.377,1.221-1.94,2.701-2.862,4.067
	c-0.076,0.111-0.132,0.225-0.179,0.339c-0.006,0.011-0.012,0.022-0.018,0.034c0,0,0,0.005,0,0.013
	c-0.212,0.544-0.168,1.115-0.25,1.67c-0.046,0.31-0.175,0.531-0.414,0.656h0.387l0.124,1.732c0.027,0,0.054,0.001,0.081,0.002
	c-0.07,3.442-0.183,7.922-0.311,8.615c-0.231,1.027-0.442,2.336-0.086,3.078c0.409,0.726,1.104,1.381,2.207,1.872
	c0.785,0.338,1.652,0.646,2.325,1.054c1.586-0.046,2.991,0.079,4.342,0.267c0.837,0.022,1.799,0.02,2.701,0.009
	c0.151-0.021,0.328-0.035,0.528-0.042c0.896-0.031,1.778-0.025,2.666-0.037c1.018-0.373,2.05,0.217,2.988,0.348
	c0.189-0.055,1.167-0.146,1.361-0.167c3.278-0.373,5.692,1.432,8.844,1.12c0.905-0.09,1.89-0.138,2.861,0.006
	c0.695-0.074,1.592-0.135,2.7-0.159c0.14-0.013,0.295-0.022,0.464-0.03c0.391-0.016,0.78-0.044,1.168-0.08
	c0.342-0.033,0.702-0.072,1.074-0.115c2.789-0.343,5.559-0.974,8.415-0.897c0.181,0.005,0.336,0.012,0.476,0.021
	c0.004,0,0.008,0,0.012,0c2.667,0.137,6.126-0.053,7.991,0.347c1.865,0.4,4.592,0.221,4.765,0.587
	c0.054-0.028,0.109-0.057,0.163-0.085c0.49-0.094,1.048-0.028,1.66,0.159c1.683,0.087,3.282,0.106,4.707-0.071
	c2.49-0.316,2.683-1.421,3.204-2.377C241.155,123.709,241.129,123.558,241.417,123.498z"/>
<path fill-rule="evenodd" clip-rule="evenodd" fill="#D51515" d="M210.145,107.017c-0.364-1.146-0.702-2.168-1.008-3.194
	c-0.177-0.595-0.398-1.167-1.01-1.627c-0.182-0.136-0.438-0.269-0.259-0.483c0.135-0.161,0.386-0.118,0.612-0.105
	c1.264,0.069,2.528,0.129,3.792,0.2c0.561,0.031,1.159,0.2,0.693,0.632c-1.348,1.252-2.095,2.645-2.369,4.185
	C210.578,106.725,210.391,106.81,210.145,107.017z"/>
<path fill-rule="evenodd" clip-rule="evenodd" fill="#D51515" d="M194.816,99.967c-2.945,0.021-3.736,1.624-4.716,3.084
	c-0.14,0.208-0.05,0.607-0.544,0.534c-0.446-0.065-0.311-0.429-0.245-0.657c0.288-1.001-0.308-1.784-1.144-2.537
	c-0.312-0.28-0.998-0.549-0.652-0.947c0.312-0.358,0.912-0.009,1.385,0.005C190.88,99.507,192.857,99.582,194.816,99.967z"/>
<path fill-rule="evenodd" clip-rule="evenodd" fill="#D51515" d="M222.589,101.66c0.688-0.054,0.927,0.108,0.721,0.541
	c-0.485,1.012-1.062,2.005-1.217,3.082c-0.023,0.163-0.109,0.331-0.364,0.353c-0.252,0.021-0.419-0.119-0.471-0.279
	c-0.356-1.093-0.947-2.083-2.097-2.915c-0.535-0.387,0.129-0.52,0.557-0.591C220.685,101.688,221.706,101.906,222.589,101.66z"/>
<path fill-rule="evenodd" clip-rule="evenodd" fill="#D51515" d="M198.71,104.148c-0.359-1.584-1.022-2.826-2.387-3.939
	c1.238-0.216,2.061,0.263,2.961,0.439c0.711,0.14,1.807-0.075,2.058,0.467c0.258,0.556-0.925,0.638-1.358,1.02
	C199.4,102.649,199.459,103.329,198.71,104.148z"/>
<path fill-rule="evenodd" clip-rule="evenodd" fill="#D51515" d="M229.524,100.932c0.059-0.009,0.455-0.062,0.847-0.13
	c1.253-0.218,1.642-0.025,1.341,0.838c-0.25,0.711-0.326,1.748-1.294,1.949c-0.715,0.148-0.947-0.928-1.489-1.411
	c-0.139-0.125-0.259-0.26-0.384-0.392c-0.209-0.221-0.748-0.359-0.475-0.707C228.324,100.753,228.787,100.917,229.524,100.932z"/>
<path fill="#D51515" d="M227.159,123.941c0.05-0.101,0.09-0.206,0.158-0.302c0.254-0.372-0.196-1.204,0.61-1.086
	c1.099,0.158,1.883,0.961,2.629,1.513c0.917,0.669,0.633,0.816-0.853,0.643c-0.46-0.054-0.917-0.097-0.985-0.104
	c-0.775,0.008-1.169,0.133-1.633-0.119C226.592,124.217,227.072,124.111,227.159,123.941z"/>
<path fill="#D51515" d="M184.437,123.489c1.23-0.571,1.742-1.39,1.871-2.156c0.031-0.174,0.053-0.452,0.525-0.5
	c0.523-0.054,0.27,0.25,0.325,0.409c0.434,1.118-0.678,2.175,1.84,2.604c-2.267,0.287-2.422,0.104-4.632,0.141
	c-0.528,0.008-1.355,0.272-1.532-0.002C182.643,123.68,183.969,123.701,184.437,123.489z"/>
<path fill="#D51515" d="M196.51,122.032c0.609,0.631,0.445,1.151,0.968,1.546c0.399,0.294,1.624,0.361,1.297,0.786
	c-0.326,0.415-1.472,0.246-2.252,0.35c-0.996,0.132-1.977,0.496-3.272,0.326C194.948,124.193,195.872,123.244,196.51,122.032z"/>
<path fill="#D51515" d="M210.889,124.416c0.567,0.334-0.018,0.462-0.596,0.484c-1.305,0.05-2.615,0.092-3.929,0.142
	c-0.235,0.009-0.495,0.041-0.646-0.083c-0.2-0.166,0.056-0.267,0.234-0.371c0.589-0.351,0.76-0.79,0.878-1.247
	c0.19-0.788,0.396-1.572,0.59-2.453c0.251,0.16,0.434,0.226,0.463,0.302C208.359,122.375,209.301,123.448,210.889,124.416z"/>
<path fill="#D51515" d="M221.516,123.604c0.418,0.334,0.247,0.458-0.499,0.415c-1.028-0.193-2-0.028-3.07-0.156
	c-0.471-0.057-1.205-0.162-0.792-0.458c0.853-0.638,1.04-1.4,0.934-2.242c-0.017-0.124,0.081-0.232,0.326-0.215
	c0.25,0.018,0.404,0.147,0.497,0.273C219.535,122.053,220.554,122.821,221.516,123.604z"/>
<path fill-rule="evenodd" clip-rule="evenodd" fill="#FFFFFF" d="M209.432,112.306c0.018,1.015-0.322,1.21-1.703,0.997
	c-2.301-0.354-4.605-0.703-6.914-1.034c-2.6-0.375-2.974-0.701-2.582-2.481c0.535-2.438,1.559-4.763,3.357-6.904
	c0.888-1.056,2.036-1.518,3.597-1.235c1.482,0.27,2.555,0.901,2.736,1.965C208.417,106.512,208.927,109.409,209.432,112.306z"/>
<path fill-rule="evenodd" clip-rule="evenodd" fill="#FFFFFF" d="M216.028,113.538c-0.589-0.021-1.179-0.022-1.764-0.069
	c-0.691-0.056-1.166-0.315-1.354-0.808c-0.913-2.381-1.521-4.759-0.619-7.233c0.338-0.931,0.967-1.72,1.753-2.445
	c1.068-0.986,2.932-0.965,4.279-0.073c1.166,0.772,1.453,1.823,1.817,2.827c0.669,1.848,1.222,3.715,1.814,5.577
	c0.236,0.742-0.506,1.601-1.619,1.797C218.926,113.357,217.495,113.534,216.028,113.538z"/>
<path fill-rule="evenodd" clip-rule="evenodd" fill="#FFFFFF" d="M197.708,104.208c-0.319,2.254-0.603,4.296-0.9,6.338
	c-0.121,0.829-1.154,0.893-1.915,0.868c-1.622-0.051-3.247-0.225-4.841-0.448c-1.719-0.24-2.136-0.758-1.618-1.91
	c0.96-2.141,1.532-4.376,3.116-6.367c0.264-0.332,0.486-0.692,0.829-0.979c0.588-0.493,1.069-1.265,2.215-1.027
	c1.182,0.246,2.206,0.754,2.536,1.686C197.371,103.044,197.561,103.729,197.708,104.208z"/>
<path fill-rule="evenodd" clip-rule="evenodd" fill="#FFFFFF" d="M222.736,106.712c0.159-1.699,0.728-3.077,1.356-4.422
	c0.483-1.029,2.497-1.15,3.208-0.229c1.78,2.306,3.778,4.546,4.431,7.209c0.216,0.881-0.046,1.461-1.217,1.73
	c-1.63,0.374-3.297,0.669-4.953,0.99c-0.339,0.065-0.729-0.011-0.788-0.244C224.325,109.935,223.252,108.242,222.736,106.712z"/>
<path fill-rule="evenodd" clip-rule="evenodd" fill="#B3B3B3" d="M188.122,103.293c-0.075,1.812-0.491,3.591-0.87,5.378
	c-0.2,0.94-0.924,1.029-1.961,0.952c-0.223-0.016-0.448-0.048-0.661-0.095c-3.024-0.674-3.17-0.692-2.624-2.941
	c0.526-2.158,1.494-4.251,3.271-6.103c0.699-0.728,1.465-0.737,2.23-0.036C188.454,101.315,188.164,102.319,188.122,103.293z"/>
<path fill-rule="evenodd" clip-rule="evenodd" fill="#B3B3B3" d="M236.029,108.065c0.036,0.584-1.376,1.646-2.234,1.696
	c-0.575,0.033-0.667-0.24-0.72-0.541c-0.209-1.171-0.616-2.298-1.394-3.356c-0.272-0.37-0.337-0.812-0.202-1.215
	c0.405-1.201,0.855-2.396,1.322-3.587c0.103-0.262,0.243-0.592,0.752-0.597c0.587-0.005,0.688,0.344,0.807,0.652
	C235.233,103.396,235.708,105.721,236.029,108.065z"/>
<path fill-rule="evenodd" clip-rule="evenodd" fill="#B3B3B3" d="M179.208,104.018c0.415-1.697,0.994-3.333,3.452-4.222
	c0.397-0.145,0.857-0.34,1.242-0.042c0.348,0.269-0.025,0.534-0.187,0.782c-1.079,1.648-2.033,3.328-2.607,5.103
	c-0.085,0.264-0.051,0.616-0.627,0.629c-0.451,0.009-0.552-0.285-0.746-0.491C179.234,105.244,179.156,104.652,179.208,104.018z"/>
<path fill-rule="evenodd" clip-rule="evenodd" fill="#B3B3B3" d="M237.963,102.206c-0.131,0.589-0.34,1.559-0.568,2.527
	c-0.043,0.182-0.107,0.426-0.425,0.435c-0.45,0.012-0.399-0.28-0.438-0.486c-0.26-1.348-0.609-2.684-1.249-3.972
	c-0.217-0.437-0.001-0.576,0.617-0.566C237.315,100.164,238.029,100.729,237.963,102.206z"/>
<path fill="#B3B3B3" d="M179.775,123.046c0.036,0.19,0.292,0.393-0.236,0.597c-0.59,0.226-0.984,0.075-1.335-0.037
	c-2.104-0.687-1.626-1.933-0.898-3.225c0.382-0.483,0.657-1.632,1.489-2.037c0.318-0.156,0.606-0.38,1.016-0.372
	c0.525,0.01,0.525,0.188,0.438,0.388C179.694,119.714,179.592,121.787,179.775,123.046z"/>
<path fill="#B3B3B3" d="M183.769,123.127c-1.162,0.532-1.996,0.522-2.38-0.036c-0.857-1.417-0.812-3.714-0.011-5.358
	c0.897-1.713,0.983-0.936,3.937-1.445c0.205-0.036,0.409-0.06,0.604-0.071c0.905-0.058,1.723-0.081,1.446,0.637
	c-0.498,1.364-0.92,2.723-1.66,4.105C185.311,121.702,185.168,122.469,183.769,123.127z"/>
<path fill="#FFFFFF" d="M195.551,121.947c-0.241,0.365-0.569,0.889-0.955,1.405c-0.545,0.712-1.748,1.097-3.073,1.281
	c-1.3,0.178-1.596-2.101-2.051-2.479c-0.259-0.22-0.362-0.496-0.514-0.75c-0.814-1.525-0.439-3.233-0.37-4.869
	c0.083-0.879,0.654-1.275,2.138-1.456c1.357-0.168,2.732,1.386,4.029,1.348c0.606-0.018,1.408,0.032,1.32,0.667
	C195.88,118.656,195.704,120.22,195.551,121.947z"/>
<path fill="#FFFFFF" d="M206.285,116.812c-0.112,2.226-0.307,4.451-0.56,6.676c-0.112,0.817-1.186,1.298-2.724,1.5
	c-1.644,0.212-2.894-1.176-3.714-1.989c-1.513-1.646-2.096-3.428-2.127-5.296c0.021-1.364,0.375-1.614,2.44-1.898
	c1.79-0.253,3.613,0.511,5.316,0.24C205.917,115.881,206.189,116.031,206.285,116.812z"/>
<path fill="#FFFFFF" d="M216.897,117.556c0.311,1.436-0.125,1.883-0.004,3.307c0.038,0.774,0.15,1.583-0.744,2.175
	c-1.091,0.684-2.938,1.724-4.269,0.961c-0.944-0.561-1.718-1.169-2.216-1.886c-1.245-1.906-1.125-3.734-0.85-5.564
	c0.042-0.379,0.339-0.579,0.836-0.622c0.417-0.036,0.852-0.037,1.278-0.053c1.078,0.003,2.842,0.103,3.98,0.294
	C215.821,116.32,216.757,116.983,216.897,117.556z"/>
<path fill="#FFFFFF" d="M225.326,118.153c1.239,2.061,0.8,3.789,0.39,5.567c-0.223,0.71-2.415,0.61-3.427-0.187
	c-1.284-1.041-2.481-2.106-3.405-3.418c-0.247-1.18,0.576-1.493,0.026-2.893c-0.073-0.18,0.19-0.238,0.487-0.188
	c1.465,0.249,2.226-0.514,3.76-0.223C224.28,117.021,224.896,117.471,225.326,118.153z"/>
<path fill="#B3B3B3" d="M231.433,118.153c1.579,1.816,1.443,4.559,2.299,6.322c0.108,0.238,0.261,0.509-0.375,0.502
	c-0.551-0.005-0.939-0.262-1.237-0.465c-1.334-0.923-2.627-1.85-3.851-2.781c-0.405-0.312-0.644-0.654-0.641-0.94
	c-0.023-0.818-0.465-1.69-1.13-2.597c-0.172-0.233-0.294-0.444,0.209-0.417C227.459,117.816,228.857,116.802,231.433,118.153z"/>
<path fill="#B3B3B3" d="M236.139,125.236c-0.661,0.005-1.004-0.104-1.111-0.441c-0.347-0.997-0.383-1.886-1.225-2.931
	c-0.129-0.159,0.014-0.427,0.452-0.416c0.31,0.008,0.445,0.012,0.639,0.153c1.035,0.751,1.087,1.585,1.722,2.042
	C237.945,124.789,237.655,125.225,236.139,125.236z"/>
<path fill="#1C6787" d="M414.428,120.648c1.205,6.956-3.584,12.646-10.644,12.646H298.455c-7.06,0-11.849-5.69-10.644-12.646
	l18.538-106.946c1.206-6.956,7.968-12.646,15.027-12.646h59.487c7.06,0,13.822,5.691,15.027,12.646L414.428,120.648z"/>
<path fill="#449CC2" d="M395.736,77.945c0.406,47.904-18.334,44.25-46.833,50l-25.089,3.551c-16.18,0-38.411,4.115-31.911-20.551
	l12.435-76.02c0-18.706,13.116-33.87,29.295-33.87h33.215c16.18,0,29.297,15.164,29.297,33.87L395.736,77.945z"/>
<path fill="#4AAAD4" d="M378.145,18.862c0,0,24.822-19.5-47.652-11.761c-31.509,3.365-31.616,106.36-31.5,106.51
	c2.427,3.152,7.75-59.75,33-73.75S378.145,18.862,378.145,18.862z"/>
<path fill="#3E8FB3" d="M299.907,115.34c0,0-18.48,16.148,53.995,8.409c59.603-6.365,36.307-100.258,33.88-103.409
	s5.25,59.75-20,73.75S299.907,115.34,299.907,115.34z"/>
<path fill="#114054" d="M414.809,120.648l-15.34-88.498l4.434,53.461c0.453,52.098-19.379,38.079-51.032,44.333l-33.682,1.527
	c-9.508,0-20.895,1.251-28.443-1.542c1.929,2.08,4.75,3.364,8.091,3.364h105.329C411.225,133.295,416.014,127.604,414.809,120.648z"
	/>
<g>
	<path fill="#A3CFE2" d="M305.415,123.732c-2.761,0-8.72-1.605-8.72-4.688l6.874-79.295c-0.11-2.135,4.039-16.813,11.862-26.261
		c4.754-5.741,20.943-10.675,29.237-10.675l34.025,2.023c2.762,0,8.889,6.335,8.889,9.417s-8.293-2.836-11.055-2.836l-28.792-3.306
		c-16.875-0.395-22.542,9.321-28.294,15.855c-13.5,15.333-23.092,72.835-16.414,88.453
		C308.277,124.696,308.176,123.732,305.415,123.732z"/>
</g>
<path fill="#C7EEFF" d="M320.4,11.385c0,0,1.5-1.502,8.75-4.001s15.75-3.75,2.25,2s-13.998,13.56-14.998,15.06
	s-8.622,11.62-4.667,0.333S318.804,12.417,320.4,11.385z"/>
<path fill="none" stroke="#0A2530" stroke-width="3" stroke-miterlimit="10" d="M414.906,120.648
	c1.205,6.956-3.584,12.646-10.643,12.646h-105.33c-7.06,0-11.849-5.69-10.644-12.646l18.538-106.946
	c1.206-6.956,7.968-12.646,15.027-12.646h59.487c7.061,0,13.822,5.691,15.027,12.646L414.906,120.648z"/>
<path d="M371.822,90.115c-9.016,0-16.459-7.617-20.426-15.216c-1.7,3.249-3.57,7.88-6.821,10.33
	c-3.365,2.537-7.967,2.272-12.867,2.272c-7.854,0.001-15.169-1.856-19.172-7.523c-3.876-5.485-7.189-11.278-5.266-16.916
	c5.442-15.952,12.141-28.852,21.825-39.344c3.177-3.44,6.575-6.681,9.544-8c1.71-0.76,3.316-1.146,4.775-1.146
	c2.152,0,6.01,0.872,7.66,6.711c0.29,1.028,0.549,2.063,0.782,3.102c0.025-0.114,0.053-0.228,0.08-0.342
	c1.867-7.896,6-8.164,9.126-8.164c2.463,0,5.168-0.368,8.301,1.732c3.888,2.606,6.847,7.703,9.683,11.485
	c7.634,10.193,13.163,19.079,15.983,32.43c1.26,5.962,0.187,13.397-3.682,18.515c-3.367,4.457-4.922,5.657-9.844,6.696
	C379.834,87.091,373.518,90.115,371.822,90.115z"/>
<path fill="#FFFFFF" d="M351.809,41.279c0.85-5.458,1.371-11.129,2.674-16.633c1.895-8.007,6.281-9.654,13.431-4.862
	c3.668,2.46,7.027,5.683,9.638,9.163c7.759,10.362,12.648,21.961,15.287,34.454c2.423,11.468-6.856,21.087-15.264,22.862
	c-11.037,2.332-21.935-4.123-24.842-14.627c-0.24-0.871-0.439-1.753-0.781-3.121c-1.096,6.273-3.978,10.881-8.946,14.627
	c-7.737,5.834-22.124,4.115-28.331-4.672c-3.229-4.568-4.713-9.49-3.527-14.982c3.114-14.414,8.758-27.775,19.065-38.941
	c2.508-2.717,6.011-4.893,9.492-6.44c4.537-2.017,7.556-0.718,8.858,3.888c1.509,5.339,2.105,10.912,3.055,16.39
	C351.787,39.375,351.756,40.396,351.809,41.279z"/>
<path fill="#B3B3B3" d="M380.717,78.047c-11.037,2.331-24.939-1.139-27.848-11.643c-0.24-0.872,0.34-3.423,0-4.792
	c-0.533,3.057-0.885,4.224-2.301,6.583c-1.47,2.291-2.053,4.945-4.421,6.729c-7.738,5.835-22.124,4.115-28.332-4.671
	c-3.229-4.569-4.713-9.491-3.526-14.983c0.741-3.429,1.629-6.795,2.686-10.089c-2.53,5.834-4.39,11.968-5.759,18.306
	c-1.187,5.492,0.298,10.414,3.526,14.982c6.208,8.787,20.594,10.506,28.332,4.672c4.706-3.549,7.81-8.369,9.054-14.189
	c0.274,1.113,0.461,1.914,0.673,2.684c2.908,10.504,13.805,16.959,24.842,14.627c6.95-1.467,14.477-8.302,15.516-17.104
	C390.092,73.792,385.283,77.083,380.717,78.047z"/>
<g>
	<path d="M332.402,67.175l7.476,2.167c0.126-0.486,0.222-0.992,0.282-1.517c-1.087-2.69-1.819-5.582-3.353-8.018
		c-1.903-3.026-5.692-3.099-7.571-0.075c-1.509,2.428-2.441,5.361-2.862,8.173c-0.62,4.146,2.464,7.349,6.448,7.403
		c1.966,0.027,2.906-0.062,4.187-1.392L332.402,67.175z"/>
	<path d="M370.84,68.006l6.335,1.335c0.126-0.486,0.222-0.992,0.282-1.517c-1.088-2.69-1.82-5.582-3.354-8.018
		c-1.902-3.026-5.691-3.099-7.57-0.075c-1.51,2.428-2.441,5.361-2.862,8.173c-0.62,4.146,2.464,7.349,6.448,7.403
		c1.966,0.027,2.395,0.584,3.676-0.744L370.84,68.006z"/>
</g>
<path fill="#A3CFE2" d="M381.734,87.288c-1.672,0.354-7.986,3.376-9.683,3.376c-9.016,0.001-16.459-7.616-20.426-15.216
	c-1.701,3.249-3.571,7.88-6.822,10.33c-3.365,2.537-7.967,2.273-12.867,2.273c-7.854,0-15.169-1.857-19.172-7.523
	c-0.109-0.155-0.216-0.312-0.325-0.467c0.971,2.143,2.545,4.27,4.244,6.34c3.597,4.386,10.169,5.823,17.224,5.822
	c4.404,0,8.538,0.205,11.561-1.759c2.921-1.896,4.602-5.479,6.13-7.994c3.564,5.881,10.25,11.776,18.35,11.775
	c1.523,0,7.197-2.339,8.699-2.613c4.424-0.804,5.819-1.731,8.848-5.181c0.957-1.093,1.718-2.324,2.303-3.627
	C387.488,85.502,385.709,86.448,381.734,87.288z"/>
<path fill="#1C6787" d="M361.652,90.115c-2.82-0.124-3.871-0.684-6.625-0.684c-2.023,0-6.281-0.066-8.251,0.002
	c-6.315,0.213-14.172,4.82-15.499,8.387c-2.403,6.463-3.441,14.889-6.229,23.428c-0.761,2.342-0.09,4.02,0.621,5.029l40.315-33.386
	C364.297,92.208,363.816,90.211,361.652,90.115z"/>
<path fill="#A3CFE2" d="M335.378,129.747c1.989,0.021,3.979,0.028,5.97,0.028c1.655,0,3.311-0.005,4.966-0.01
	c1.539-0.005,3.077-0.009,4.616-0.009l14.274,0.001c6.01-0.005,9.325-0.954,11.09-3.171c1.201-1.51,1.524-3.506,0.968-5.935
	c-1.654-7.198-3.586-14.481-5.451-21.524l-0.142-0.53c-0.662-2.503-2.733-4.509-5.687-5.705l-40.314,33.386
	c0.01,0.014,0.019,0.029,0.028,0.043C327.292,128.542,330.549,129.693,335.378,129.747z"/>
<path d="M350.923,127.629c-5.173,0.002-10.354,0.048-15.527-0.01c-6.212-0.066-9.486-2.159-8.331-5.713
	c2.556-7.833,5.378-15.638,8.276-23.431c1.011-2.718,5.088-4.562,10.47-4.747c4.736-0.16,9.52-0.123,14.251,0.086
	c4.986,0.219,8.772,2.402,9.545,5.325c1.94,7.323,3.889,14.646,5.576,21.988c1.08,4.694-1.875,6.495-9.986,6.503
	c-2.379,0.002-4.758-0.002-7.137-0.004C355.68,127.627,353.301,127.627,350.923,127.629z"/>
<path fill="#FFFFFF" d="M351.938,106.289c-3.758,0-7.527,0.146-11.266-0.106c-0.875-0.059-2.357-1.456-2.361-2.239
	c-0.01-4.099,3.503-7.607,7.654-7.759c4.309-0.16,8.635-0.17,12.944-0.041c4.042,0.123,7.411,3.603,7.142,7.577
	c-0.059,0.839-1.808,2.163-2.854,2.237c-3.734,0.275-7.504,0.109-11.264,0.109C351.934,106.138,351.938,106.215,351.938,106.289z"/>
<path fill="#FFFFFF" d="M331.975,121.822c4.6-1.371,9.151-2.99,13.809-4.057c7.781-1.785,15.271,0.049,22.565,2.943
	c0.767,0.302,1.282,1.343,1.914,2.043c-0.684,0.602-1.359,1.717-2.047,1.723c-11.587,0.103-23.178,0.077-34.769,0.02
	c-0.417-0.002-0.833-0.616-1.25-0.945C332.125,122.974,332.05,122.396,331.975,121.822z"/>
<path fill="none" stroke="#0A2530" stroke-width="3" stroke-miterlimit="10" d="M3.34,281.777c6.354,10.94-8.01,17.44,58.988,14.34
	c39.26,1.346,62.002-1.4,66.624-18.042c-0.54-6.338,15.974-126.089-57.607-128.561C-15.78,146.587,3.34,281.777,3.34,281.777z"/>
<path fill="#7CAB41" d="M7.334,453.432c6.354,10.94-8.01,17.44,58.988,14.341c39.26,1.346,62.002-1.4,66.624-18.043
	c-0.54-6.338,15.974-126.089-57.607-128.561C-11.786,318.242,7.334,453.432,7.334,453.432z"/>
<path fill="#657E36" d="M75.339,321.17c-10.058-0.336-18.673,1.15-26.081,4.012c2.465-0.156,24.629,0.423,27.291,0.513
	c56.309,1.891,59.813,121,17.948,140.139c20.333,5.194,38.583-10.988,38.375-13.428C132.324,446.064,148.917,323.641,75.339,321.17z
	"/>
<g>
	<path fill="#ADD254" d="M38.479,291.573c-2.761,0-24.649,6.035-27.983-3.255s-2.379-72.094,0.833-82.373
		s8.067-25.258,15.891-35.173c4.754-6.024,6.99,3.746,1.238,10.602c-13.5,16.09-15.362,76.879-8.685,93.269
		C25.023,287.526,41.24,291.573,38.479,291.573z"/>
</g>
<g id="Eye">
	<ellipse fill="#ADD254" cx="67.831" cy="203.636" rx="41.924" ry="44.138"/>
	<path fill="#657E36" d="M67.528,162.875c21.576,0,39.068,18.029,39.068,40.271c0,22.24-17.492,40.27-39.068,40.27
		c-21.58,0-39.07-18.03-39.07-40.27C28.458,180.904,45.948,162.875,67.528,162.875z"/>
	<ellipse fill="#FEF3F8" cx="68.956" cy="204.554" rx="34.637" ry="35.701"/>
	<ellipse fill="#7DCAE9" cx="68.958" cy="204.554" rx="22.381" ry="23.18"/>
	<ellipse fill="#BFE8FB" cx="68.958" cy="204.555" rx="15.949" ry="16.519"/>
	<path fill="#4DB0B7" d="M72.155,189.936c7.498,0,13.578,6.297,13.578,14.065s-6.08,14.065-13.578,14.065
		c-7.504,0-13.582-6.297-13.582-14.065S64.651,189.936,72.155,189.936z"/>
	<path fill="#201723" d="M72.155,195.095c5.148,0,9.322,4.235,9.322,9.46s-4.174,9.459-9.322,9.459
		c-5.152,0-9.326-4.235-9.326-9.459S67.003,195.095,72.155,195.095z"/>
	<circle fill="#FFFFFF" cx="79.464" cy="199.305" r="5.18"/>
	<circle fill="#FFFFFF" cx="79.399" cy="211.822" r="2.672"/>
</g>
<circle fill="#7CAB41" cx="15.045" cy="329.195" r="10.217"/>
<rect x="3.994" y="317.695" fill="none" stroke="#EE5AFF" stroke-width="0.4" stroke-miterlimit="10" width="132.368" height="154.667"/>
<path fill="#ADD254" d="M18.045,321.978c2.054,0,3.961,0.611,5.563,1.654c-1.822-2.799-4.974-4.654-8.563-4.654
	c-5.643,0-10.217,4.575-10.217,10.217c0,3.589,1.855,6.741,4.654,8.563c-1.043-1.602-1.654-3.509-1.654-5.563
	C7.828,326.552,12.402,321.978,18.045,321.978z"/>
<path fill="#7CAB41" d="M15.872,339.372c5.291,0.491,8.498,4.957,5.499,10.484s11.717-15.184,14.514-16.923
	c6.008-3.738-5.691,3.008-11.04-6.614s-5.016,5.544-5.016,5.544L15.872,339.372z"/>
<path fill="#657E36" d="M20.608,320.632c1.043,1.602,1.654,3.509,1.654,5.563c0,5.643-4.574,10.217-10.217,10.217
	c-2.054,0-3.961-0.611-5.563-1.654c1.822,2.799,4.974,4.654,8.563,4.654c5.643,0,10.217-4.574,10.217-10.217
	C25.262,325.605,23.407,322.454,20.608,320.632z"/>
<path fill="#657E36" d="M25.056,342.615c1.157-6.924-2.323-8.093-6.797-7.771l-2.387,4.529c5.291,0.491,8.498,4.957,5.499,10.484
	c-1.364,2.515,0.941-0.406,4.12-4.496C25.007,344.907,24.817,344.044,25.056,342.615z"/>
<path fill="#91C14C" d="M48.673,439.028c-13-18-31.342-101.763,34.135-99.001c1.543,0.065,3.026,0.229,4.465,0.462
	c-6.173-6.955-14.237-11.412-24.757-11.855c-65.478-2.762-51.108,124.813-51.108,124.813c-1.337,19.914,40.721,14.762,64.42,15.1
	C75.59,467.636,61.673,457.028,48.673,439.028z"/>
<g>
	<path fill="#ADD254" d="M40.138,463.907c-2.761,0-24.649,6.034-27.983-3.255c-3.333-9.291-2.379-72.095,0.833-82.374
		s8.067-25.258,15.891-35.173c-0.174-19.984,6.99,3.746,1.238,10.602c-13.5,16.09-15.362,76.88-8.685,93.269
		C26.682,459.859,42.899,463.907,40.138,463.907z"/>
</g>
<g>
	<ellipse fill="#ADD254" cx="47.822" cy="385.322" rx="25.549" ry="25.299"/>
	<path fill="#657E36" d="M44.921,354.597c13.793,0,24.976,11.397,24.976,25.458c0,14.059-11.183,25.457-24.976,25.457
		c-13.797,0-24.978-11.398-24.978-25.457C19.943,365.994,31.124,354.597,44.921,354.597z"/>
	<ellipse fill="#FEF3F8" cx="47.765" cy="383.237" rx="20.366" ry="20.463"/>
	<ellipse fill="#7DCAE9" cx="47.766" cy="383.237" rx="13.16" ry="13.287"/>
	<ellipse fill="#BFE8FB" cx="47.766" cy="383.237" rx="9.378" ry="9.468"/>
	<ellipse fill="#4DB0B7" cx="49.645" cy="382.919" rx="7.984" ry="8.062"/>
	<ellipse fill="#201723" cx="49.645" cy="383.237" rx="5.482" ry="5.422"/>
	<ellipse fill="#FFFFFF" cx="53.943" cy="380.228" rx="3.046" ry="2.969"/>
	<ellipse fill="#FFFFFF" cx="53.905" cy="387.402" rx="1.571" ry="1.531"/>
</g>
<path fill="#7CAB41" d="M159.677,308.007c6.354,10.94-8.01,17.44,58.988,14.34c39.26,1.346,62.002-1.4,66.624-18.042
	c-0.54-6.338,15.974-126.089-57.607-128.561C140.557,172.817,159.677,308.007,159.677,308.007z"/>
<path fill="#657E36" d="M227.681,175.745c-10.058-0.336-18.673,1.15-26.081,4.012c2.465-0.156,5.021-0.197,7.684-0.107
	c56.309,1.891,57.553,91.724,55.251,134.898c13.001-3.338,20.888-5.128,20.68-7.568
	C284.667,300.639,301.259,178.216,227.681,175.745z"/>
<path d="M226.031,311.208c-1.896-0.104-3.812-0.082-5.685-0.347c-3.026-0.427-6.037-0.986-9.018-1.638
	c-0.485-0.105-1.095-0.988-1.07-1.491c0.036-0.886,0.875-1.382,1.885-1.197c1.104,0.203,2.156,0.618,3.257,0.838
	c2.243,0.449,4.48,1,6.756,1.201c5.938,0.532,11.707-0.142,17.19-2.397c0.425-0.175,0.854-0.344,1.305-0.429
	c0.889-0.173,1.829-0.25,2.169,0.756c0.318,0.941-0.457,1.349-1.253,1.629c-1.919,0.674-3.828,1.38-5.788,1.937
	c-1.564,0.443-3.184,0.81-4.808,0.978c-1.631,0.164-3.29,0.036-4.933,0.036C226.035,311.126,226.035,311.169,226.031,311.208z"/>
<path fill="#657E36" d="M266.528,289.664c-5.583,11.196-18.736,17.807-27.911,19.427c-9.181,1.624,25.395-2.624,28.427-6.775
	C270.076,298.165,266.528,289.664,266.528,289.664z"/>
<path fill="#657E36" d="M264.222,268.243c-18.45,34.213-42.066,22.736-61.228,22.649c-15.576-0.07,21.634,18.378,48.042,2.372
	c12.656-7.673,15.781-8.301,18.743-13.343C272.742,274.882,264.222,268.243,264.222,268.243z"/>
<path d="M271.785,284.49c-2.48-3.417-6.208-5.185-10.545-5.987c-0.561-0.104-1.352-0.069-1.752,0.22
	c-0.57,0.413-0.882,1.12-1.31,1.699c0.588,0.284,1.161,0.607,1.77,0.842c1.044,0.396,2.104,0.736,3.155,1.1
	c-0.538,0.964-0.896,2.062-1.647,2.866c-1.856,1.987-9.545,6.301-12.893,7.343c-3.839,1.193-7.787,2.095-11.666,3.204
	c-2.886,0.826-5.733,0.89-8.596,1.785c-1.027,0.321-4.004,0.535-5.035,0.665c-1.029-0.128-2.057-0.343-3.082-0.665
	c-2.863-0.896-5.712-1.404-8.597-2.232c-3.874-1.109-7.83-1.563-11.67-2.758c-4.911-1.53-9.468-3.682-12.893-7.343
	c-0.751-0.803-1.11-1.903-1.648-2.868c1.051-0.362,2.118-0.702,3.156-1.098c0.612-0.233,1.179-0.558,1.77-0.841
	c-0.424-0.58-0.733-1.287-1.31-1.699c-0.403-0.29-1.191-0.324-1.753-0.22c-4.339,0.803-8.057,2.568-10.542,5.985
	c-0.459,0.633-0.796,2.007-0.434,2.323c0.966,0.83,1.552-0.346,2.13-0.873c2.261-2.062,3.127-2.059,5.223,0.146
	c0.168,0.175,0.317,0.37,0.506,0.522c2.019,1.638,3.949,3.375,6.091,4.876c3.221,2.264,7.192,3.161,10.943,4.388
	c4.062,1.326,8.21,1.546,12.347,2.678c3.193,0.877,6.39,2.187,9.64,2.323c0.038,0.002,0.082,0,0.119,0.002v-0.002
	c0.457,0,2.041,0,2.074,0c3.247-0.137,6.444-0.558,9.637-1.433c4.138-1.132,8.285-2.244,12.347-3.57
	c3.755-1.227,7.726-2.124,10.948-4.387c2.132-1.501,4.068-3.237,6.089-4.875c0.188-0.154,0.339-0.349,0.506-0.523
	c2.098-2.204,2.961-2.209,5.221-0.148c0.575,0.529,1.171,1.706,2.128,0.875C272.582,286.494,272.243,285.121,271.785,284.49z"/>
<circle fill="#7CAB41" cx="125.296" cy="329.106" r="10.217"/>
<path fill="#ADD254" d="M128.296,321.889c2.054,0,3.961,0.611,5.563,1.654c-1.822-2.799-4.974-4.654-8.563-4.654
	c-5.643,0-10.217,4.575-10.217,10.217c0,3.589,1.855,6.741,4.654,8.563c-1.043-1.602-1.654-3.509-1.654-5.563
	C118.079,326.464,122.654,321.889,128.296,321.889z"/>
<path fill="#7CAB41" d="M124,339.372c-5.291,0.491-8.498,4.957-5.499,10.484s-11.717-15.184-14.514-16.923
	c-6.008-3.738,5.691,3.008,11.04-6.614s5.016,5.544,5.016,5.544L124,339.372z"/>
<path fill="#657E36" d="M130.859,320.543c1.043,1.602,1.654,3.509,1.654,5.563c0,5.643-4.574,10.217-10.217,10.217
	c-2.054,0-3.961-0.611-5.563-1.654c1.822,2.799,4.974,4.654,8.563,4.654c5.643,0,10.217-4.574,10.217-10.217
	C135.514,325.517,133.659,322.366,130.859,320.543z"/>
<path fill="#657E36" d="M114.816,342.615c-1.157-6.924,2.323-8.093,6.797-7.771l2.387,4.529c-5.291,0.491-8.498,4.957-5.499,10.484
	c1.364,2.515-0.941-0.406-4.12-4.496C114.865,344.907,115.055,344.044,114.816,342.615z"/>
<path fill="#1C6787" d="M415.1,441.664c-4.975-0.105-6.83-0.576-11.688-0.576c-3.569,0-11.083-0.056-14.558,0.002
	c-11.143,0.18-30.295,3.727-32.636,6.729c-4.24,5.441-0.782,12.868-5.701,20.058c-1.342,1.973-0.159,3.385,1.096,4.234l71.13-28.11
	C419.768,443.425,418.918,441.744,415.1,441.664z"/>
<path fill="#A3CFE2" d="M366.938,475.033c3.141,0.017,6.282,0.023,9.425,0.023c2.611,0,5.227-0.005,7.839-0.01
	c2.431-0.004,4.858-0.007,7.288-0.007l22.533,0.001c9.486-0.004,14.721-0.804,17.506-2.67c1.896-1.271,2.406-2.951,1.527-4.997
	c-2.609-6.062-2.469-11.849-5.414-17.778l-2.555-4.447c-1.045-2.107-5.176-0.141-9.836-1.147l-63.642,28.11
	c0.017,0.012,0.031,0.024,0.044,0.037C354.174,474.017,359.316,474.988,366.938,475.033z"/>
<path fill="#251E1A" d="M424.174,470.851c-0.2-0.232-0.403-0.466-0.606-0.699c0.751-3.7,3.421-14.373,2.843-17.041
	c-0.113-0.519-0.209-0.972-0.305-1.375l-0.051-0.57c-0.104-0.379-0.207-0.758-0.312-1.137c-0.091-0.021-0.168-0.049-0.234-0.084
	c-0.422-0.806-1.066-1.348-2.336-2.005c0-0.001-0.001-0.001-0.003-0.001c-0.937-0.684-2.003-1.263-3.474-1.504
	c-1.439-0.236-2.855-0.221-4.293-0.115c-0.406,0.239-0.859,0.322-1.372,0.199c-0.484,0.522-1.966,0.272-2.808,0.268
	c-0.562-0.004-2.029,0.192-3.398,0.375c-0.457,0.098-0.926,0.15-1.4,0.182c-0.154,0.02-0.305,0.037-0.44,0.053
	c-1.201,0.136-2.321,0.137-3.257,0.166c-0.123,0.012-0.262,0.021-0.426,0.025c-0.091,0.004-0.182,0.006-0.273,0.008
	c-0.012,0.001-0.025,0.002-0.037,0.002c-0.027,0.002-0.054,0.002-0.082,0.002c-3.18,0.094-6.344,0.059-9.514-0.141
	c-0.398-0.025-0.721-0.068-0.919-0.17c-0.712-0.012-1.474-0.026-2.211-0.047c-0.817,0.131-1.64,0.064-2.392-0.049
	c-0.258-0.039-0.515-0.078-0.771-0.119c-0.006,0-0.011,0-0.016-0.001l0.001-0.001c-2.556-0.4-5.084-0.885-7.622-1.341
	c-0.164-0.029-0.297-0.138-0.445-0.21c-0.869,0.166-1.725,0.254-2.466-0.238c-0.771-0.019-1.541-0.016-2.306-0.061
	c-0.172-0.01-0.319-0.029-0.44-0.058c-0.777-0.019-1.611-0.026-2.351-0.002c-1.289,0.241-2.597,0.397-3.955,0.329
	c-0.881,0.531-1.883,0.93-2.853,1.369c-1.409,0.637-2.636,1.493-3.708,2.443c-1.377,1.221-1.939,2.701-2.862,4.066
	c-0.076,0.111-0.132,0.225-0.179,0.34c-0.006,0.01-0.013,0.021-0.019,0.033c0,0,0,0.005,0,0.013
	c-0.212,0.544-0.169,1.115-0.251,1.67c-0.045,0.31-0.175,0.531-0.413,0.655h0.387l0.124,1.732c0.027,0.001,0.054,0.002,0.081,0.002
	c-0.07,3.442-0.183,7.922-0.312,8.615c-0.23,1.027-0.441,2.336-0.086,3.078c0.409,0.726,1.105,1.381,2.207,1.871
	c0.785,0.338,1.652,0.646,2.326,1.055c1.586-0.047,2.99,0.078,4.342,0.268c0.837,0.021,1.799,0.02,2.701,0.008
	c0.15-0.021,0.327-0.034,0.527-0.041c0.896-0.031,1.778-0.025,2.666-0.037c1.018-0.373,2.05,0.217,2.987,0.349
	c0.188-0.055,1.167-0.146,1.361-0.167c3.278-0.373,5.692,1.432,8.844,1.119c0.905-0.09,1.89-0.137,2.861,0.007
	c0.695-0.074,1.593-0.136,2.7-0.159c0.14-0.013,0.295-0.021,0.464-0.029c0.392-0.016,0.78-0.045,1.169-0.08
	c0.342-0.033,0.701-0.071,1.074-0.115c2.788-0.342,5.559-0.973,8.414-0.896c0.181,0.004,0.336,0.012,0.476,0.021
	c0.004,0,0.008,0,0.012,0c2.667,0.137,6.126-0.053,7.991,0.348c1.865,0.399,4.592,0.221,4.765,0.587
	c0.054-0.028,0.108-0.057,0.163-0.085c0.489-0.094,1.047-0.027,1.66,0.159c1.682,0.087,3.281,0.106,4.707-0.071
	c2.489-0.316,2.683-1.422,3.203-2.377C423.913,471.062,423.887,470.912,424.174,470.851z"/>
<path fill-rule="evenodd" clip-rule="evenodd" fill="#D51515" d="M392.902,454.371c-0.363-1.146-0.701-2.168-1.008-3.193
	c-0.176-0.596-0.397-1.168-1.01-1.627c-0.182-0.137-0.438-0.27-0.26-0.484c0.135-0.16,0.387-0.117,0.612-0.104
	c1.265,0.069,2.528,0.13,3.792,0.2c0.562,0.031,1.159,0.2,0.693,0.633c-1.348,1.252-2.095,2.645-2.369,4.185
	C393.336,454.078,393.148,454.164,392.902,454.371z"/>
<path fill-rule="evenodd" clip-rule="evenodd" fill="#D51515" d="M377.574,447.321c-2.945,0.021-3.736,1.624-4.717,3.084
	c-0.139,0.208-0.05,0.606-0.543,0.534c-0.446-0.065-0.312-0.43-0.246-0.657c0.289-1.001-0.308-1.784-1.143-2.536
	c-0.312-0.281-0.998-0.549-0.652-0.947c0.312-0.358,0.911-0.01,1.385,0.004C373.639,446.861,375.615,446.935,377.574,447.321z"/>
<path fill-rule="evenodd" clip-rule="evenodd" fill="#D51515" d="M405.348,449.013c0.688-0.055,0.927,0.108,0.721,0.541
	c-0.485,1.012-1.062,2.005-1.217,3.081c-0.023,0.163-0.109,0.331-0.364,0.353c-0.253,0.021-0.419-0.119-0.472-0.279
	c-0.355-1.094-0.946-2.084-2.097-2.914c-0.534-0.387,0.13-0.521,0.558-0.592C403.443,449.042,404.464,449.259,405.348,449.013z"/>
<path fill-rule="evenodd" clip-rule="evenodd" fill="#D51515" d="M381.469,451.501c-0.359-1.584-1.022-2.825-2.387-3.938
	c1.238-0.216,2.061,0.263,2.961,0.438c0.711,0.141,1.807-0.074,2.058,0.467c0.259,0.557-0.925,0.639-1.358,1.02
	C382.158,450.002,382.217,450.682,381.469,451.501z"/>
<path fill-rule="evenodd" clip-rule="evenodd" fill="#D51515" d="M412.281,448.285c0.059-0.009,0.455-0.062,0.848-0.13
	c1.252-0.218,1.642-0.025,1.34,0.838c-0.25,0.711-0.326,1.748-1.294,1.949c-0.715,0.148-0.946-0.928-1.489-1.411
	c-0.139-0.124-0.258-0.26-0.383-0.392c-0.21-0.221-0.748-0.359-0.476-0.707C411.082,448.107,411.545,448.271,412.281,448.285z"/>
<path fill="#D51515" d="M409.917,471.294c0.05-0.102,0.091-0.206,0.158-0.302c0.254-0.372-0.196-1.204,0.61-1.087
	c1.099,0.158,1.883,0.961,2.629,1.514c0.918,0.669,0.633,0.816-0.854,0.643c-0.46-0.054-0.916-0.096-0.984-0.104
	c-0.775,0.009-1.17,0.134-1.634-0.118C409.35,471.57,409.83,471.464,409.917,471.294z"/>
<path fill="#D51515" d="M367.194,470.843c1.23-0.572,1.742-1.391,1.871-2.156c0.03-0.174,0.054-0.452,0.524-0.5
	c0.523-0.055,0.27,0.25,0.325,0.408c0.434,1.119-0.679,2.176,1.841,2.605c-2.268,0.287-2.423,0.104-4.633,0.141
	c-0.528,0.008-1.355,0.272-1.532-0.002C365.4,471.034,366.727,471.054,367.194,470.843z"/>
<path fill="#D51515" d="M379.268,469.385c0.609,0.631,0.445,1.151,0.969,1.546c0.399,0.295,1.624,0.361,1.297,0.787
	c-0.326,0.414-1.473,0.245-2.252,0.35c-0.996,0.133-1.977,0.496-3.271,0.326C377.706,471.546,378.63,470.597,379.268,469.385z"/>
<path fill="#D51515" d="M393.646,471.769c0.566,0.334-0.018,0.463-0.596,0.484c-1.305,0.05-2.615,0.092-3.929,0.142
	c-0.235,0.009-0.495,0.041-0.646-0.083c-0.201-0.166,0.055-0.267,0.234-0.371c0.588-0.35,0.76-0.789,0.878-1.246
	c0.19-0.788,0.396-1.572,0.591-2.453c0.25,0.16,0.434,0.226,0.463,0.303C391.117,469.729,392.059,470.801,393.646,471.769z"/>
<path fill="#D51515" d="M404.273,470.958c0.418,0.334,0.246,0.458-0.498,0.415c-1.028-0.193-2-0.029-3.07-0.156
	c-0.471-0.057-1.205-0.162-0.793-0.457c0.854-0.639,1.041-1.4,0.934-2.242c-0.017-0.125,0.082-0.232,0.326-0.215
	c0.25,0.018,0.404,0.146,0.497,0.273C402.293,469.406,403.312,470.175,404.273,470.958z"/>
<path fill-rule="evenodd" clip-rule="evenodd" fill="#FFFFFF" d="M392.189,459.66c0.018,1.015-0.322,1.21-1.703,0.997
	c-2.301-0.354-4.605-0.702-6.914-1.034c-2.6-0.375-2.974-0.701-2.582-2.481c0.535-2.438,1.56-4.763,3.357-6.903
	c0.889-1.057,2.036-1.519,3.598-1.235c1.482,0.27,2.555,0.901,2.736,1.965C391.175,453.866,391.686,456.763,392.189,459.66z"/>
<path fill-rule="evenodd" clip-rule="evenodd" fill="#FFFFFF" d="M398.786,460.892c-0.589-0.021-1.179-0.023-1.764-0.07
	c-0.691-0.055-1.165-0.314-1.354-0.808c-0.913-2.381-1.521-4.759-0.619-7.233c0.338-0.932,0.967-1.72,1.753-2.445
	c1.068-0.985,2.932-0.965,4.279-0.072c1.166,0.771,1.453,1.822,1.817,2.826c0.668,1.848,1.222,3.716,1.814,5.577
	c0.235,0.742-0.506,1.601-1.619,1.797C401.684,460.71,400.253,460.888,398.786,460.892z"/>
<path fill-rule="evenodd" clip-rule="evenodd" fill="#FFFFFF" d="M380.466,451.561c-0.319,2.254-0.603,4.296-0.899,6.338
	c-0.121,0.829-1.154,0.893-1.915,0.868c-1.622-0.051-3.247-0.225-4.841-0.447c-1.72-0.24-2.137-0.759-1.618-1.91
	c0.96-2.141,1.532-4.377,3.116-6.367c0.264-0.332,0.486-0.691,0.829-0.979c0.589-0.493,1.069-1.266,2.216-1.027
	c1.182,0.246,2.205,0.754,2.535,1.686C380.129,450.398,380.318,451.083,380.466,451.561z"/>
<path fill-rule="evenodd" clip-rule="evenodd" fill="#FFFFFF" d="M405.494,454.066c0.158-1.699,0.727-3.076,1.355-4.422
	c0.483-1.029,2.497-1.15,3.209-0.229c1.78,2.307,3.777,4.546,4.431,7.209c0.216,0.881-0.046,1.462-1.217,1.73
	c-1.63,0.375-3.298,0.67-4.952,0.99c-0.34,0.065-0.73-0.012-0.789-0.244C407.082,457.289,406.01,455.595,405.494,454.066z"/>
<path fill-rule="evenodd" clip-rule="evenodd" fill="#B3B3B3" d="M370.879,450.647c-0.074,1.812-0.49,3.591-0.869,5.378
	c-0.199,0.94-0.924,1.029-1.961,0.952c-0.223-0.017-0.447-0.048-0.661-0.095c-3.024-0.675-3.171-0.693-2.624-2.941
	c0.526-2.158,1.494-4.252,3.271-6.103c0.698-0.728,1.465-0.737,2.229-0.036C371.211,448.668,370.922,449.673,370.879,450.647z"/>
<path fill-rule="evenodd" clip-rule="evenodd" fill="#B3B3B3" d="M418.787,455.418c0.036,0.584-1.376,1.646-2.234,1.696
	c-0.574,0.032-0.666-0.24-0.72-0.541c-0.21-1.171-0.616-2.298-1.394-3.356c-0.272-0.37-0.338-0.812-0.202-1.215
	c0.405-1.201,0.855-2.396,1.322-3.587c0.103-0.262,0.243-0.592,0.753-0.597c0.586-0.005,0.688,0.345,0.807,0.652
	C417.99,450.75,418.467,453.075,418.787,455.418z"/>
<path fill-rule="evenodd" clip-rule="evenodd" fill="#B3B3B3" d="M361.965,451.372c0.415-1.697,0.994-3.333,3.452-4.222
	c0.397-0.145,0.856-0.341,1.242-0.042c0.348,0.269-0.024,0.534-0.187,0.782c-1.079,1.648-2.033,3.328-2.607,5.104
	c-0.084,0.264-0.051,0.615-0.627,0.629c-0.451,0.009-0.552-0.285-0.745-0.491C361.992,452.597,361.914,452.005,361.965,451.372z"/>
<path fill-rule="evenodd" clip-rule="evenodd" fill="#B3B3B3" d="M420.721,449.559c-0.131,0.589-0.34,1.56-0.567,2.526
	c-0.043,0.183-0.107,0.427-0.425,0.436c-0.45,0.012-0.399-0.28-0.438-0.486c-0.261-1.348-0.609-2.684-1.249-3.972
	c-0.217-0.437-0.001-0.576,0.616-0.566C420.073,447.517,420.787,448.083,420.721,449.559z"/>
<path fill="#B3B3B3" d="M362.533,470.4c0.035,0.189,0.291,0.393-0.236,0.597c-0.591,0.226-0.984,0.075-1.336-0.036
	c-2.104-0.688-1.626-1.934-0.897-3.226c0.382-0.483,0.657-1.632,1.489-2.037c0.318-0.156,0.605-0.38,1.016-0.372
	c0.525,0.011,0.525,0.188,0.438,0.389C362.451,467.068,362.35,469.14,362.533,470.4z"/>
<path fill="#B3B3B3" d="M366.527,470.48c-1.162,0.532-1.996,0.523-2.381-0.035c-0.857-1.417-0.812-3.714-0.011-5.358
	c0.897-1.714,0.983-0.936,3.937-1.445c0.205-0.036,0.41-0.06,0.605-0.071c0.904-0.058,1.723-0.081,1.445,0.637
	c-0.497,1.364-0.92,2.723-1.66,4.105C368.068,469.056,367.926,469.823,366.527,470.48z"/>
<path fill="#FFFFFF" d="M378.309,469.3c-0.24,0.365-0.568,0.889-0.955,1.405c-0.545,0.712-1.748,1.097-3.072,1.281
	c-1.3,0.178-1.596-2.101-2.051-2.479c-0.259-0.221-0.362-0.496-0.514-0.75c-0.814-1.525-0.439-3.234-0.37-4.869
	c0.083-0.88,0.654-1.275,2.138-1.456c1.357-0.169,2.732,1.386,4.029,1.349c0.605-0.018,1.408,0.031,1.319,0.666
	C378.639,466.009,378.462,467.574,378.309,469.3z"/>
<path fill="#FFFFFF" d="M389.043,464.166c-0.111,2.225-0.307,4.45-0.561,6.676c-0.111,0.816-1.186,1.298-2.724,1.5
	c-1.644,0.212-2.894-1.176-3.714-1.989c-1.514-1.646-2.096-3.429-2.127-5.296c0.021-1.364,0.375-1.614,2.439-1.898
	c1.791-0.253,3.613,0.512,5.316,0.24C388.676,463.234,388.947,463.384,389.043,464.166z"/>
<path fill="#FFFFFF" d="M399.654,464.91c0.312,1.436-0.124,1.883-0.004,3.307c0.037,0.773,0.15,1.582-0.744,2.175
	c-1.091,0.684-2.938,1.724-4.27,0.961c-0.943-0.561-1.717-1.169-2.216-1.886c-1.245-1.906-1.126-3.734-0.85-5.564
	c0.042-0.379,0.339-0.579,0.837-0.621c0.417-0.036,0.852-0.037,1.277-0.053c1.078,0.003,2.843,0.102,3.98,0.294
	C398.578,463.673,399.516,464.336,399.654,464.91z"/>
<path fill="#FFFFFF" d="M408.084,465.506c1.238,2.061,0.8,3.789,0.39,5.567c-0.224,0.71-2.415,0.609-3.427-0.188
	c-1.285-1.041-2.482-2.105-3.406-3.418c-0.246-1.18,0.576-1.492,0.027-2.893c-0.074-0.18,0.189-0.238,0.486-0.188
	c1.465,0.249,2.227-0.514,3.761-0.223C407.038,464.375,407.653,464.824,408.084,465.506z"/>
<path fill="#B3B3B3" d="M414.19,465.507c1.579,1.816,1.442,4.559,2.3,6.321c0.107,0.237,0.261,0.509-0.375,0.503
	c-0.551-0.006-0.939-0.262-1.236-0.466c-1.335-0.923-2.627-1.851-3.852-2.781c-0.404-0.312-0.644-0.654-0.641-0.94
	c-0.023-0.817-0.465-1.689-1.131-2.596c-0.172-0.233-0.294-0.445,0.209-0.418C410.217,465.169,411.615,464.156,414.19,465.507z"/>
<path fill="#B3B3B3" d="M418.896,472.589c-0.661,0.006-1.004-0.104-1.111-0.441c-0.348-0.996-0.383-1.887-1.225-2.932
	c-0.129-0.158,0.014-0.426,0.451-0.416c0.311,0.008,0.445,0.013,0.639,0.154c1.035,0.751,1.088,1.585,1.723,2.042
	C420.703,472.142,420.413,472.578,418.896,472.589z"/>
<circle fill="#ADD254" cx="10.742" cy="327.384" r="4.26"/>
<circle fill="#ADD254" cx="123.497" cy="327.384" r="4.26"/>
<g>
	<path fill="#657E36" d="M99.086,415.523c-6.146-0.101-8.438-0.544-14.439-0.544c-4.409,0-13.691-0.053-17.984,0.002
		c-13.765,0.169-37.424,3.518-40.316,6.352c-5.238,5.137-0.967,12.146-7.042,18.933c-1.658,1.861-0.196,3.194,1.354,3.996
		l87.871-26.533C104.853,417.185,103.803,415.598,99.086,415.523z"/>
	<path fill="#91C14C" d="M39.591,447.019c3.879,0.016,7.761,0.022,11.643,0.022c3.226,0,6.457-0.005,9.684-0.009
		c3.003-0.004,6.867,4.162,9.868,4.162l26.972-4.168c11.719-0.004,18.185-0.759,21.625-2.521c2.343-1.199,2.973-2.785,1.887-4.716
		c-3.224-5.722-3.05-11.185-6.688-16.781l-3.156-4.197c-1.291-1.989-6.394-0.133-12.151-1.084l-78.619,26.533
		c0.021,0.012,0.038,0.023,0.055,0.035C23.823,446.061,30.175,446.977,39.591,447.019z"/>
	<path fill="#251E1A" d="M109.316,441.31c-2.011-2.328,1.699-1.738,2.242-4.773c0.712-3.979,0.918-7.428-0.164-11.324
		c-1.149-0.258-3.051-2.619-4.402-3.373c-3.394-1.894-6.75-0.164-10.066-0.963c-1.71,1.847-12.091,1.282-14.828,1.329
		c-10.768,0.77-20.78-1.934-31.239-2.404c-5.842-0.263-10.529-1.059-16.17,1.497c-3.021,1.366-5.408,3.461-7.071,6.325
		c-0.223,0.383-2.25,5.139-2.109,5.065c3.11,4.382-3.653,6.392,2.826,9.274c8.416,3.628,18.597,0.52,27.455,2.701
		c9.384,2.312,20.255-1.085,29.807-1.012c2.662,0.02,9.55,2.056,11.726,0.968c2.391-0.46,5.346,0.423,7.865,0.108
		C107.561,444.426,108.206,441.542,109.316,441.31C109.068,441.023,108.961,441.384,109.316,441.31z"/>
	<path fill-rule="evenodd" clip-rule="evenodd" fill="#D51515" d="M71.665,431.395c-0.449-1.416-0.866-2.678-1.245-3.945
		c-0.217-0.735-0.491-1.442-1.248-2.01c-0.224-0.169-0.54-0.333-0.321-0.598c0.167-0.198,0.478-0.146,0.756-0.129
		c1.562,0.085,3.124,0.16,4.685,0.247c0.694,0.038,1.432,0.247,0.856,0.781c-1.665,1.547-2.587,3.268-2.927,5.17
		C72.201,431.033,71.969,431.139,71.665,431.395z"/>
	<path fill-rule="evenodd" clip-rule="evenodd" fill="#D51515" d="M52.729,422.686c-3.639,0.025-4.616,2.006-5.827,3.81
		c-0.171,0.257-0.062,0.749-0.671,0.66c-0.551-0.081-0.385-0.53-0.304-0.812c0.357-1.237-0.38-2.204-1.411-3.133
		c-0.386-0.348-1.233-0.679-0.806-1.171c0.385-0.442,1.125-0.012,1.711,0.005C47.868,422.118,50.31,422.209,52.729,422.686z"/>
	<path fill-rule="evenodd" clip-rule="evenodd" fill="#D51515" d="M87.039,424.777c0.85-0.067,1.145,0.134,0.891,0.668
		c-0.6,1.25-1.312,2.478-1.503,3.807c-0.029,0.201-0.135,0.409-0.45,0.436c-0.312,0.026-0.518-0.147-0.583-0.345
		c-0.439-1.352-1.169-2.575-2.59-3.601c-0.66-0.478,0.16-0.643,0.688-0.73C84.687,424.813,85.947,425.081,87.039,424.777z"/>
	<path fill-rule="evenodd" clip-rule="evenodd" fill="#D51515" d="M57.541,427.851c-0.444-1.957-1.263-3.49-2.948-4.866
		c1.53-0.266,2.545,0.325,3.658,0.542c0.878,0.174,2.232-0.092,2.542,0.577c0.319,0.688-1.143,0.789-1.678,1.259
		C58.392,425.999,58.465,426.838,57.541,427.851z"/>
	<path fill-rule="evenodd" clip-rule="evenodd" fill="#D51515" d="M95.604,423.876c0.072-0.011,0.562-0.077,1.047-0.16
		c1.546-0.269,2.028-0.031,1.655,1.035c-0.309,0.878-0.403,2.159-1.599,2.408c-0.883,0.184-1.169-1.146-1.84-1.743
		c-0.171-0.153-0.318-0.321-0.473-0.484c-0.26-0.272-0.924-0.443-0.588-0.873C94.123,423.658,94.695,423.86,95.604,423.876z"/>
	<path fill-rule="evenodd" clip-rule="evenodd" fill="#FFFFFF" d="M70.784,437.929c0.022,1.253-0.398,1.494-2.104,1.231
		c-2.842-0.438-5.689-0.867-8.541-1.277c-3.211-0.464-3.673-0.866-3.19-3.065c0.661-3.013,1.927-5.884,4.148-8.528
		c1.098-1.306,2.515-1.876,4.444-1.526c1.831,0.333,3.156,1.114,3.38,2.428C69.531,430.771,70.162,434.351,70.784,437.929z"/>
	<path fill-rule="evenodd" clip-rule="evenodd" fill="#FFFFFF" d="M78.934,439.452c-0.728-0.026-1.456-0.029-2.179-0.087
		c-0.854-0.067-1.439-0.389-1.673-0.998c-1.128-2.941-1.878-5.879-0.765-8.936c0.417-1.151,1.194-2.124,2.166-3.021
		c1.32-1.218,3.622-1.192,5.287-0.09c1.44,0.953,1.795,2.251,2.245,3.491c0.825,2.283,1.509,4.591,2.241,6.89
		c0.291,0.917-0.625,1.978-2,2.22C82.513,439.227,80.746,439.447,78.934,439.452z"/>
	<path fill-rule="evenodd" clip-rule="evenodd" fill="#FFFFFF" d="M56.302,427.924c-0.395,2.784-0.745,5.307-1.111,7.829
		c-0.149,1.024-1.426,1.103-2.366,1.073c-2.004-0.063-4.011-0.278-5.98-0.553c-2.125-0.297-2.64-0.938-1.999-2.36
		c1.186-2.644,1.893-5.406,3.85-7.865c0.326-0.41,0.601-0.854,1.024-1.209c0.727-0.609,1.321-1.563,2.737-1.269
		c1.459,0.304,2.724,0.931,3.131,2.082C55.885,426.488,56.12,427.333,56.302,427.924z"/>
	<path fill-rule="evenodd" clip-rule="evenodd" fill="#FFFFFF" d="M87.22,431.019c0.195-2.1,0.897-3.801,1.674-5.463
		c0.597-1.271,3.085-1.421,3.964-0.282c2.199,2.85,4.666,5.615,5.473,8.905c0.267,1.089-0.057,1.807-1.503,2.138
		c-2.014,0.464-4.074,0.828-6.118,1.224c-0.42,0.081-0.902-0.015-0.975-0.302C89.182,435,87.857,432.908,87.22,431.019z"/>
	<path fill-rule="evenodd" clip-rule="evenodd" fill="#B3B3B3" d="M44.458,426.795c-0.092,2.237-0.605,4.436-1.074,6.644
		c-0.246,1.161-1.141,1.271-2.422,1.176c-0.275-0.021-0.553-0.059-0.817-0.117c-3.736-0.833-3.917-0.856-3.242-3.633
		c0.65-2.667,1.846-5.253,4.042-7.539c0.863-0.898,1.81-0.911,2.754-0.045C44.869,424.351,44.512,425.592,44.458,426.795z"/>
	<path fill-rule="evenodd" clip-rule="evenodd" fill="#B3B3B3" d="M103.642,432.69c0.044,0.721-1.7,2.032-2.76,2.095
		c-0.709,0.04-0.823-0.296-0.889-0.668c-0.259-1.446-0.761-2.839-1.722-4.146c-0.336-0.457-0.417-1.002-0.25-1.501
		c0.5-1.483,1.057-2.96,1.633-4.431c0.127-0.323,0.3-0.731,0.93-0.737c0.724-0.006,0.85,0.426,0.997,0.806
		C102.657,426.921,103.246,429.794,103.642,432.69z"/>
	<path fill-rule="evenodd" clip-rule="evenodd" fill="#B3B3B3" d="M33.446,427.69c0.513-2.097,1.229-4.117,4.265-5.215
		c0.491-0.179,1.058-0.421,1.535-0.052c0.43,0.332-0.03,0.66-0.23,0.966c-1.333,2.037-2.512,4.111-3.221,6.305
		c-0.104,0.326-0.062,0.76-0.774,0.777c-0.557,0.011-0.682-0.353-0.92-0.607C33.48,429.205,33.384,428.473,33.446,427.69z"/>
	<path fill-rule="evenodd" clip-rule="evenodd" fill="#B3B3B3" d="M106.03,425.452c-0.162,0.727-0.42,1.926-0.701,3.12
		c-0.053,0.226-0.132,0.527-0.524,0.538c-0.556,0.015-0.494-0.346-0.541-0.601c-0.322-1.665-0.753-3.315-1.543-4.906
		c-0.268-0.539-0.001-0.712,0.761-0.7C105.23,422.928,106.112,423.627,106.03,425.452z"/>
</g>
<path fill="#7CAB41" d="M17.195,699.759c6.354,10.94-8.01,17.44,58.988,14.341c39.26,1.346,62.002-1.4,66.624-18.043
	c-0.54-6.338,15.974-126.089-57.607-128.562C-1.925,564.57,17.195,699.759,17.195,699.759z"/>
<path fill="#657E36" d="M85.2,567.498c-10.058-0.336-18.673,1.15-26.081,4.012c2.465-0.156,24.629,0.423,27.291,0.513
	c56.309,1.892,59.813,121,17.948,140.139c20.333,5.194,38.583-10.988,38.375-13.428C142.185,692.391,158.778,569.968,85.2,567.498z"
	/>
<circle fill="#7CAB41" cx="24.906" cy="575.522" r="10.217"/>
<path fill="#ADD254" d="M27.906,568.304c2.054,0,3.961,0.611,5.563,1.654c-1.822-2.799-4.974-4.654-8.563-4.654
	c-5.643,0-10.217,4.575-10.217,10.218c0,3.589,1.855,6.741,4.654,8.562c-1.043-1.601-1.654-3.509-1.654-5.562
	C17.688,572.879,22.263,568.304,27.906,568.304z"/>
<path fill="#7CAB41" d="M25.733,585.699c5.291,0.491,8.498,4.956,5.499,10.484S42.949,581,45.746,579.259
	c6.008-3.737-5.691,3.009-11.04-6.613c-5.349-9.623-5.016,5.543-5.016,5.543L25.733,585.699z"/>
<path fill="#657E36" d="M30.469,566.958c1.043,1.602,1.654,3.51,1.654,5.563c0,5.644-4.574,10.218-10.217,10.218
	c-2.054,0-3.961-0.611-5.563-1.654c1.822,2.799,4.974,4.653,8.563,4.653c5.643,0,10.217-4.573,10.217-10.217
	C35.123,571.933,33.268,568.781,30.469,566.958z"/>
<path fill="#657E36" d="M34.917,588.942c1.157-6.923-2.323-8.093-6.797-7.771l-2.387,4.528c5.291,0.491,8.498,4.957,5.499,10.484
	c-1.364,2.516,0.941-0.406,4.12-4.496C34.868,591.235,34.678,590.372,34.917,588.942z"/>
<path fill="#91C14C" d="M58.534,685.355c-13-18-31.342-101.764,34.135-99.001c1.543,0.064,3.026,0.229,4.465,0.461
	c-6.173-6.954-14.237-11.411-24.757-11.854C6.9,572.199,21.27,699.774,21.27,699.774c-1.337,19.914,40.721,14.762,64.42,15.1
	C85.451,713.963,71.534,703.355,58.534,685.355z"/>
<g>
	<path fill="#ADD254" d="M49.999,710.234c-2.761,0-24.649,6.034-27.983-3.255c-3.333-9.291-2.379-72.095,0.833-82.373
		c3.212-10.279,8.067-25.259,15.891-35.174c-0.174-19.983,6.99,3.746,1.238,10.603c-13.5,16.09-15.362,76.88-8.685,93.269
		C36.542,706.186,52.76,710.234,49.999,710.234z"/>
</g>
<ellipse fill="#ADD254" cx="56.576" cy="633.73" rx="25.549" ry="25.299"/>
<path fill="#657E36" d="M55.679,607.754c12.687,0,22.972,10.334,22.972,23.083c0,12.747-10.286,23.081-22.972,23.081
	c-12.69,0-22.974-10.334-22.974-23.081C32.705,618.088,42.989,607.754,55.679,607.754z"/>
<ellipse fill="#7DCAE9" cx="56.519" cy="631.645" rx="13.16" ry="13.287"/>
<ellipse fill="#BFE8FB" cx="56.519" cy="631.646" rx="9.378" ry="9.468"/>
<ellipse fill="#4DB0B7" cx="58.398" cy="631.328" rx="7.984" ry="8.062"/>
<ellipse fill="#201723" cx="58.398" cy="631.645" rx="5.482" ry="5.422"/>
<ellipse fill="#FFFFFF" cx="62.696" cy="628.636" rx="3.046" ry="2.968"/>
<ellipse fill="#FFFFFF" cx="62.658" cy="635.811" rx="1.571" ry="1.532"/>
<ellipse fill="#ADD254" cx="107.741" cy="631.118" rx="25.616" ry="26.571"/>
<path fill="#657E36" d="M105.937,605.674c12.687,0,22.972,10.334,22.972,23.083c0,12.747-10.285,23.081-22.972,23.081
	c-12.69,0-22.974-10.334-22.974-23.081C82.963,616.008,93.247,605.674,105.937,605.674z"/>
<ellipse fill="#FEF3F8" cx="106.776" cy="629.565" rx="20.367" ry="20.463"/>
<ellipse fill="#7DCAE9" cx="106.777" cy="629.565" rx="13.16" ry="13.287"/>
<ellipse fill="#BFE8FB" cx="106.777" cy="629.565" rx="9.378" ry="9.468"/>
<path fill="#4DB0B7" d="M108.657,621.186c4.409,0,7.983,3.609,7.983,8.062s-3.575,8.062-7.983,8.062
	c-4.413,0-7.987-3.609-7.987-8.062S104.245,621.186,108.657,621.186z"/>
<ellipse fill="#201723" cx="108.657" cy="629.565" rx="5.481" ry="5.422"/>
<ellipse fill="#FFFFFF" cx="112.955" cy="626.556" rx="3.045" ry="2.968"/>
<ellipse fill="#FFFFFF" cx="112.917" cy="633.73" rx="1.571" ry="1.532"/>
<circle fill="#7CAB41" cx="135.157" cy="575.433" r="10.217"/>
<path fill="#ADD254" d="M138.157,568.216c2.054,0,3.961,0.611,5.563,1.654c-1.822-2.799-4.974-4.654-8.563-4.654
	c-5.643,0-10.217,4.574-10.217,10.217c0,3.59,1.855,6.741,4.654,8.563c-1.043-1.602-1.654-3.509-1.654-5.563
	C127.94,572.791,132.515,568.216,138.157,568.216z"/>
<path fill="#7CAB41" d="M133.861,585.699c-5.291,0.491-8.498,4.956-5.499,10.484S116.645,581,113.848,579.259
	c-6.008-3.737,5.691,3.009,11.04-6.613c5.349-9.623,5.016,5.543,5.016,5.543L133.861,585.699z"/>
<path fill="#657E36" d="M140.72,566.871c1.043,1.602,1.654,3.51,1.654,5.562c0,5.644-4.574,10.218-10.217,10.218
	c-2.054,0-3.961-0.611-5.563-1.654c1.822,2.8,4.974,4.654,8.563,4.654c5.643,0,10.217-4.574,10.217-10.218
	C145.375,571.844,143.52,568.693,140.72,566.871z"/>
<path fill="#657E36" d="M124.677,588.942c-1.157-6.923,2.323-8.093,6.797-7.771l2.387,4.528c-5.291,0.491-8.498,4.957-5.499,10.484
	c1.364,2.516-0.941-0.406-4.12-4.496C124.726,591.235,124.916,590.372,124.677,588.942z"/>
<circle fill="#ADD254" cx="20.603" cy="573.711" r="4.26"/>
<circle fill="#ADD254" cx="133.358" cy="573.711" r="4.26"/>
<g>
	<path fill="#657E36" d="M108.947,661.85c-6.146-0.101-8.438-0.544-14.439-0.544c-4.409,0-13.691-0.053-17.984,0.002
		c-13.765,0.169-37.424,3.518-40.316,6.352c-5.238,5.137-0.967,12.146-7.042,18.933c-1.658,1.861-0.196,3.194,1.354,3.996
		l87.871-26.533C114.713,663.512,113.664,661.925,108.947,661.85z"/>
	<path fill="#91C14C" d="M49.452,693.346c3.879,0.016,7.761,0.022,11.643,0.022c3.226,0,6.457-0.005,9.684-0.009
		c3.003-0.004,6.002-0.007,9.003-0.007l27.836,0.001c11.719-0.004,18.185-0.759,21.625-2.521c2.343-1.199,2.973-2.785,1.887-4.716
		c-3.224-5.722-3.05-11.185-6.688-16.781l-3.156-4.197c-1.291-1.989-6.394-0.133-12.151-1.084l-78.619,26.533
		c0.021,0.012,0.038,0.023,0.055,0.035C33.684,692.388,40.036,693.304,49.452,693.346z"/>
	<path fill="#251E1A" d="M119.177,687.637c-2.011-2.328,1.699-1.738,2.242-4.773c0.712-3.979,0.918-7.428-0.164-11.324
		c-1.149-0.258-3.051-2.619-4.402-3.373c-3.394-1.894-6.75-0.164-10.066-0.963c-1.71,1.847-12.091,1.282-14.828,1.329
		c-10.768,0.77-20.78-1.934-31.239-2.404c-5.842-0.263-10.529-1.059-16.17,1.497c-3.021,1.366-5.408,3.461-7.071,6.325
		c-0.223,0.383-2.25,5.139-2.109,5.065c3.11,4.382-3.653,6.392,2.826,9.274c8.416,3.628,18.597,0.52,27.455,2.701
		c9.384,2.312,20.255-1.085,29.807-1.012c2.662,0.02,9.55,2.056,11.726,0.968c2.391-0.46,5.346,0.423,7.865,0.108
		C117.421,690.753,118.067,687.869,119.177,687.637C118.929,687.35,118.822,687.711,119.177,687.637z"/>
	<path fill-rule="evenodd" clip-rule="evenodd" fill="#D51515" d="M81.526,677.722c-0.449-1.416-0.866-2.678-1.245-3.945
		c-0.217-0.735-0.491-1.442-1.248-2.01c-0.224-0.169-0.54-0.333-0.321-0.598c0.167-0.198,0.478-0.146,0.756-0.129
		c1.562,0.085,3.124,0.16,4.685,0.247c0.694,0.038,1.432,0.247,0.856,0.781c-1.665,1.547-2.587,3.268-2.927,5.17
		C82.062,677.36,81.83,677.466,81.526,677.722z"/>
	<path fill-rule="evenodd" clip-rule="evenodd" fill="#D51515" d="M62.59,669.013c-3.639,0.025-4.616,2.006-5.827,3.81
		c-0.171,0.257-0.062,0.749-0.671,0.66c-0.551-0.081-0.385-0.53-0.304-0.812c0.357-1.237-0.38-2.204-1.411-3.133
		c-0.386-0.348-1.233-0.679-0.806-1.171c0.385-0.442,1.125-0.012,1.711,0.005C57.729,668.445,60.17,668.537,62.59,669.013z"/>
	<path fill-rule="evenodd" clip-rule="evenodd" fill="#D51515" d="M96.9,671.104c0.85-0.067,1.145,0.134,0.891,0.668
		c-0.6,1.25-1.312,2.478-1.503,3.807c-0.029,0.201-0.135,0.409-0.45,0.436c-0.312,0.026-0.518-0.147-0.583-0.345
		c-0.439-1.352-1.169-2.575-2.59-3.601c-0.66-0.478,0.16-0.643,0.688-0.73C94.547,671.14,95.808,671.408,96.9,671.104z"/>
	<path fill-rule="evenodd" clip-rule="evenodd" fill="#D51515" d="M67.401,674.178c-0.444-1.957-1.263-3.49-2.948-4.866
		c1.53-0.266,2.545,0.325,3.658,0.542c0.878,0.174,2.232-0.092,2.542,0.577c0.319,0.688-1.143,0.789-1.678,1.259
		C68.253,672.326,68.326,673.166,67.401,674.178z"/>
	<path fill-rule="evenodd" clip-rule="evenodd" fill="#D51515" d="M105.465,670.204c0.072-0.011,0.562-0.077,1.047-0.16
		c1.546-0.269,2.028-0.031,1.655,1.035c-0.309,0.878-0.403,2.159-1.599,2.408c-0.883,0.184-1.169-1.146-1.84-1.743
		c-0.171-0.153-0.318-0.321-0.473-0.484c-0.26-0.272-0.924-0.443-0.588-0.873C103.984,669.985,104.556,670.187,105.465,670.204z"/>
	<path fill-rule="evenodd" clip-rule="evenodd" fill="#FFFFFF" d="M80.645,684.256c0.022,1.253-0.398,1.494-2.104,1.231
		c-2.842-0.438-5.689-0.867-8.541-1.277c-3.211-0.464-3.673-0.866-3.19-3.065c0.661-3.013,1.927-5.884,4.148-8.528
		c1.098-1.306,2.515-1.876,4.444-1.526c1.831,0.333,3.156,1.114,3.38,2.428C79.392,677.098,80.022,680.678,80.645,684.256z"/>
	<path fill-rule="evenodd" clip-rule="evenodd" fill="#FFFFFF" d="M88.794,685.779c-0.728-0.026-1.456-0.029-2.179-0.087
		c-0.854-0.067-1.439-0.389-1.673-0.998c-1.128-2.941-1.878-5.879-0.765-8.936c0.417-1.151,1.194-2.124,2.166-3.021
		c1.32-1.218,3.622-1.192,5.287-0.09c1.44,0.953,1.795,2.251,2.245,3.491c0.825,2.283,1.509,4.591,2.241,6.89
		c0.291,0.917-0.625,1.978-2,2.22C92.374,685.554,90.606,685.774,88.794,685.779z"/>
	<path fill-rule="evenodd" clip-rule="evenodd" fill="#FFFFFF" d="M66.163,674.251c-0.395,2.784-0.745,5.307-1.111,7.829
		c-0.149,1.024-1.426,1.103-2.366,1.073c-2.004-0.063-4.011-0.278-5.98-0.553c-2.125-0.297-2.64-0.938-1.999-2.36
		c1.186-2.644,1.893-5.406,3.85-7.865c0.326-0.41,0.601-0.854,1.024-1.209c0.727-0.609,1.321-1.563,2.737-1.269
		c1.459,0.304,2.724,0.931,3.131,2.082C65.746,672.815,65.98,673.661,66.163,674.251z"/>
	<path fill-rule="evenodd" clip-rule="evenodd" fill="#FFFFFF" d="M97.081,677.346c0.195-2.1,0.897-3.801,1.674-5.463
		c0.597-1.271,3.085-1.421,3.964-0.282c2.199,2.85,4.666,5.615,5.473,8.905c0.267,1.089-0.057,1.807-1.503,2.138
		c-2.014,0.464-4.074,0.828-6.118,1.224c-0.42,0.081-0.902-0.015-0.975-0.302C99.042,681.327,97.718,679.235,97.081,677.346z"/>
	<path fill-rule="evenodd" clip-rule="evenodd" fill="#B3B3B3" d="M54.319,673.123c-0.092,2.237-0.605,4.436-1.074,6.644
		c-0.246,1.161-1.141,1.271-2.422,1.176c-0.275-0.021-0.553-0.059-0.817-0.117c-3.736-0.833-3.917-0.856-3.242-3.633
		c0.65-2.667,1.846-5.253,4.042-7.539c0.863-0.898,1.81-0.911,2.754-0.045C54.729,670.678,54.373,671.919,54.319,673.123z"/>
	<path fill-rule="evenodd" clip-rule="evenodd" fill="#B3B3B3" d="M113.502,679.017c0.044,0.721-1.7,2.032-2.76,2.095
		c-0.709,0.04-0.823-0.296-0.889-0.668c-0.259-1.446-0.761-2.839-1.722-4.146c-0.336-0.457-0.417-1.002-0.25-1.501
		c0.5-1.483,1.057-2.96,1.633-4.431c0.127-0.323,0.3-0.731,0.93-0.737c0.724-0.006,0.85,0.426,0.997,0.806
		C112.518,673.249,113.106,676.122,113.502,679.017z"/>
	<path fill-rule="evenodd" clip-rule="evenodd" fill="#B3B3B3" d="M43.307,674.017c0.513-2.097,1.229-4.117,4.265-5.215
		c0.491-0.179,1.058-0.421,1.535-0.052c0.43,0.332-0.03,0.66-0.23,0.966c-1.333,2.037-2.512,4.111-3.221,6.305
		c-0.104,0.326-0.062,0.76-0.774,0.777c-0.557,0.011-0.682-0.353-0.92-0.607C43.341,675.532,43.245,674.8,43.307,674.017z"/>
	<path fill-rule="evenodd" clip-rule="evenodd" fill="#B3B3B3" d="M115.891,671.779c-0.162,0.727-0.42,1.926-0.701,3.12
		c-0.053,0.226-0.132,0.527-0.524,0.538c-0.556,0.015-0.494-0.346-0.541-0.601c-0.322-1.665-0.753-3.315-1.543-4.906
		c-0.268-0.539-0.001-0.712,0.761-0.7C115.091,669.255,115.973,669.955,115.891,671.779z"/>
</g>
<path fill="#DC5D90" d="M200.865,709.562c6.354,10.94-8.01,17.44,58.988,14.341c39.26,1.346,62.002-1.4,66.624-18.043
	c-0.54-6.338,15.974-126.089-57.607-128.562C181.745,574.373,200.865,709.562,200.865,709.562z"/>
<path fill="#D12A6D" d="M268.869,577.3c-10.058-0.336-18.673,1.15-26.081,4.012c2.465-0.156,24.629,0.423,27.291,0.513
	c56.309,1.892,59.813,121,17.948,140.139c20.333,5.194,38.583-10.988,38.375-13.428C325.854,702.194,342.447,579.771,268.869,577.3z
	"/>
<circle fill="#DC5D90" cx="208.575" cy="585.325" r="10.217"/>
<path fill="#E999B9" d="M211.575,578.107c2.054,0,3.961,0.611,5.563,1.654c-1.822-2.799-4.974-4.654-8.563-4.654
	c-5.643,0-10.217,4.575-10.217,10.218c0,3.589,1.855,6.741,4.654,8.562c-1.043-1.601-1.654-3.509-1.654-5.562
	C201.358,582.682,205.933,578.107,211.575,578.107z"/>
<path fill="#DC5D90" d="M209.402,595.501c5.291,0.491,8.498,4.956,5.499,10.484s11.717-15.184,14.514-16.924
	c6.008-3.737-5.691,3.009-11.04-6.613c-5.349-9.623-5.016,5.543-5.016,5.543L209.402,595.501z"/>
<path fill="#D12A6D" d="M214.138,576.761c1.043,1.602,1.654,3.51,1.654,5.563c0,5.644-4.574,10.218-10.217,10.218
	c-2.054,0-3.961-0.611-5.563-1.654c1.822,2.799,4.974,4.653,8.563,4.653c5.643,0,10.217-4.573,10.217-10.217
	C218.792,581.736,216.938,578.583,214.138,576.761z"/>
<path fill="#D12A6D" d="M218.586,598.745c1.157-6.923-2.323-8.093-6.797-7.771l-2.387,4.528c5.291,0.491,8.498,4.957,5.499,10.484
	c-1.364,2.516,0.941-0.406,4.12-4.496C218.537,601.038,218.348,600.174,218.586,598.745z"/>
<path fill="#E37BA4" d="M242.204,695.158c-13-18-31.342-101.764,34.135-99.001c1.543,0.064,3.026,0.229,4.465,0.461
	c-6.173-6.954-14.237-11.411-24.757-11.854c-65.478-2.762-51.108,124.813-51.108,124.813c-1.337,19.914,40.721,14.762,64.42,15.1
	C269.12,723.766,255.204,713.158,242.204,695.158z"/>
<g>
	<path fill="#E999B9" d="M233.668,720.037c-2.761,0-24.649,6.034-27.983-3.255c-3.333-9.291-2.379-72.095,0.833-82.373
		c3.212-10.279,8.067-25.259,15.891-35.174c-0.174-19.983,6.99,3.746,1.238,10.603c-13.5,16.09-15.362,76.88-8.685,93.269
		C220.212,715.989,236.429,720.037,233.668,720.037z"/>
</g>
<circle fill="#DC5D90" cx="318.827" cy="585.236" r="10.217"/>
<path fill="#E999B9" d="M321.827,578.019c2.054,0,3.961,0.611,5.563,1.654c-1.822-2.799-4.974-4.654-8.563-4.654
	c-5.643,0-10.217,4.574-10.217,10.217c0,3.59,1.855,6.741,4.654,8.563c-1.043-1.602-1.654-3.509-1.654-5.563
	C311.609,582.593,316.184,578.019,321.827,578.019z"/>
<path fill="#DC5D90" d="M317.53,595.501c-5.291,0.491-8.498,4.956-5.499,10.484s-11.717-15.184-14.514-16.924
	c-6.008-3.737,5.691,3.009,11.04-6.613c5.349-9.623,5.016,5.543,5.016,5.543L317.53,595.501z"/>
<path fill="#D12A6D" d="M324.39,576.673c1.043,1.602,1.654,3.51,1.654,5.562c0,5.644-4.574,10.218-10.217,10.218
	c-2.054,0-3.961-0.611-5.563-1.654c1.822,2.8,4.974,4.654,8.563,4.654c5.643,0,10.217-4.574,10.217-10.218
	C329.044,581.647,327.189,578.496,324.39,576.673z"/>
<path fill="#D12A6D" d="M308.346,598.745c-1.157-6.923,2.323-8.093,6.797-7.771l2.387,4.528c-5.291,0.491-8.498,4.957-5.499,10.484
	c1.364,2.516-0.941-0.406-4.12-4.496C308.396,601.038,308.585,600.174,308.346,598.745z"/>
<circle fill="#E999B9" cx="204.272" cy="583.514" r="4.26"/>
<circle fill="#E999B9" cx="317.027" cy="583.514" r="4.26"/>
<path fill="none" stroke="#0A2530" stroke-width="3" stroke-miterlimit="10" d="M123.829,338.299
	c13.54,1.952,15.375-18.787,2.581-20.262c-11.158-1.317-12.536,18.006-23.55,10.608c-9.723-6.53-21.302-8.751-32.86-8.394
	c-10.468,0.336-20.199,2.802-28.847,8.043c-7.226,4.379-13.076,2.594-17.261-4.969c-6.401-11.638-24.918-0.916-17.505,10.502
	c2.043,3.106,5.673,4.916,9.391,4.611c5.772,0.493,7.985,5.725,5.435,10.607c-4.145,6.987-7.16,14.606-9.412,22.397
	c-4.274,14.783-5.94,30.272-6.277,45.62c-0.314,14.318-1.042,30.667,4.674,44.13c3.81,8.973,23.895,6.396,31.026,6.656
	c19.483,0.711,36.625,0.085,55.369-1.141c7.994-0.522,16.283-1.438,23.709-4.632c4.993-2.147,12.201-6.741,12.519-12.601
	c0.844-15.549,1.749-31.027,0.795-46.599c-1.243-20.282-4.798-42.042-16.23-59.3C117.957,340.736,121.277,339.02,123.829,338.299z
	 M35.905,331.93c-0.28,0.226-0.56,0.45-0.839,0.676C35.316,332.341,35.596,332.116,35.905,331.93
	C35.622,332.152,35.864,331.956,35.905,331.93z"/>
<g>
	<ellipse fill="#ADD254" cx="292.244" cy="474.541" rx="25.616" ry="26.571"/>
	<path fill="#657E36" d="M288.419,444.597c13.803,0,24.992,11.342,24.992,25.333c0,13.989-11.189,25.331-24.992,25.331
		c-13.806,0-24.994-11.342-24.994-25.331C263.426,455.939,274.614,444.597,288.419,444.597z"/>
	<ellipse fill="#FEF3F8" cx="291.279" cy="472.988" rx="20.367" ry="20.463"/>
	<ellipse fill="#7DCAE9" cx="291.28" cy="472.988" rx="13.16" ry="13.287"/>
	<ellipse fill="#BFE8FB" cx="291.28" cy="472.988" rx="9.378" ry="9.468"/>
	<path fill="#4DB0B7" d="M293.16,464.609c4.409,0,7.983,3.609,7.983,8.062s-3.575,8.062-7.983,8.062
		c-4.413,0-7.987-3.609-7.987-8.062S288.748,464.609,293.16,464.609z"/>
	<ellipse fill="#201723" cx="293.16" cy="472.988" rx="5.481" ry="5.422"/>
	<ellipse fill="#FFFFFF" cx="297.458" cy="469.979" rx="3.045" ry="2.968"/>
	<ellipse fill="#FFFFFF" cx="297.419" cy="477.153" rx="1.571" ry="1.532"/>
</g>
<g>
	<ellipse fill="#ADD254" cx="97.236" cy="390.117" rx="25.549" ry="25.299"/>
	<path fill="#657E36" d="M94.334,359.391c13.793,0,24.976,11.398,24.976,25.458c0,14.059-11.183,25.456-24.976,25.456
		c-13.798,0-24.978-11.397-24.978-25.456C69.357,370.789,80.537,359.391,94.334,359.391z"/>
	<ellipse fill="#FEF3F8" cx="97.177" cy="388.031" rx="20.367" ry="20.463"/>
	<ellipse fill="#7DCAE9" cx="97.179" cy="388.031" rx="13.16" ry="13.287"/>
	<ellipse fill="#BFE8FB" cx="97.179" cy="388.032" rx="9.377" ry="9.468"/>
	<ellipse fill="#4DB0B7" cx="99.058" cy="387.714" rx="7.984" ry="8.062"/>
	<ellipse fill="#201723" cx="99.058" cy="388.031" rx="5.482" ry="5.422"/>
	<ellipse fill="#FFFFFF" cx="103.356" cy="385.022" rx="3.046" ry="2.968"/>
	<ellipse fill="#FFFFFF" cx="103.318" cy="392.197" rx="1.571" ry="1.532"/>
</g>
<path fill="#657E36" d="M81.324,455.365c-17.317,0.057-32.107,1-31.446,3.167c0.661,2.167,15.813,5.334,21.104,5.167
	s26.938-3.501,22.368-5.834C88.78,455.532,83.73,455.357,81.324,455.365z"/>
<ellipse fill="#ADD254" cx="403.028" cy="712.56" rx="25.55" ry="25.299"/>
<ellipse fill="#657E36" cx="400.127" cy="707.291" rx="24.977" ry="25.457"/>
<ellipse fill="#FEF3F8" cx="402.971" cy="710.474" rx="20.366" ry="20.463"/>
<ellipse fill="#7DCAE9" cx="402.972" cy="710.474" rx="13.16" ry="13.287"/>
<ellipse fill="#BFE8FB" cx="402.972" cy="710.475" rx="9.378" ry="9.468"/>
<ellipse fill="#4DB0B7" cx="404.852" cy="710.157" rx="7.984" ry="8.062"/>
<ellipse fill="#201723" cx="404.852" cy="710.474" rx="5.482" ry="5.422"/>
<ellipse fill="#FFFFFF" cx="409.148" cy="707.465" rx="3.047" ry="2.968"/>
<ellipse fill="#FFFFFF" cx="409.111" cy="714.64" rx="1.57" ry="1.532"/>
<g>
	<ellipse fill="#E37BA4" cx="245.627" cy="637.258" rx="25.616" ry="26.571"/>
	<path fill="#D12A6D" d="M241.802,607.314c13.803,0,24.992,11.342,24.992,25.333c0,13.989-11.189,25.331-24.992,25.331
		c-13.806,0-24.994-11.342-24.994-25.331C216.809,618.656,227.997,607.314,241.802,607.314z"/>
	<ellipse fill="#FEF3F8" cx="244.662" cy="635.705" rx="20.367" ry="20.463"/>
	<ellipse fill="#7DCAE9" cx="244.663" cy="635.705" rx="13.16" ry="13.287"/>
	<ellipse fill="#BFE8FB" cx="244.663" cy="635.705" rx="9.378" ry="9.468"/>
	<path fill="#4DB0B7" d="M246.543,627.326c4.409,0,7.983,3.609,7.983,8.062s-3.575,8.062-7.983,8.062
		c-4.413,0-7.987-3.609-7.987-8.062S242.13,627.326,246.543,627.326z"/>
	<ellipse fill="#201723" cx="246.543" cy="635.705" rx="5.481" ry="5.422"/>
	<ellipse fill="#FFFFFF" cx="250.84" cy="632.695" rx="3.045" ry="2.968"/>
	<ellipse fill="#FFFFFF" cx="250.802" cy="639.87" rx="1.571" ry="1.532"/>
</g>
<g>
	<ellipse fill="#E37BA4" cx="293.845" cy="643.874" rx="25.616" ry="26.571"/>
	<path fill="#D12A6D" d="M290.021,613.93c13.803,0,24.992,11.342,24.992,25.333c0,13.989-11.189,25.331-24.992,25.331
		c-13.806,0-24.994-11.342-24.994-25.331C265.027,625.272,276.215,613.93,290.021,613.93z"/>
	<ellipse fill="#FEF3F8" cx="292.88" cy="642.321" rx="20.367" ry="20.463"/>
	<ellipse fill="#7DCAE9" cx="292.881" cy="642.321" rx="13.16" ry="13.287"/>
	<ellipse fill="#BFE8FB" cx="292.881" cy="642.321" rx="9.378" ry="9.468"/>
	<path fill="#4DB0B7" d="M294.761,633.942c4.409,0,7.983,3.609,7.983,8.062s-3.575,8.062-7.983,8.062
		c-4.413,0-7.987-3.609-7.987-8.062S290.349,633.942,294.761,633.942z"/>
	<ellipse fill="#201723" cx="294.761" cy="642.321" rx="5.481" ry="5.422"/>
	<ellipse fill="#FFFFFF" cx="299.059" cy="639.312" rx="3.045" ry="2.968"/>
	<ellipse fill="#FFFFFF" cx="299.021" cy="646.486" rx="1.571" ry="1.532"/>
</g>
<g>
	<path fill="#D12A6D" d="M292.196,675.112c-6.146-0.101-8.438-0.544-14.439-0.544c-4.409,0-13.691-0.053-17.984,0.002
		c-13.765,0.169-37.424,3.518-40.316,6.352c-5.238,5.137-0.967,12.146-7.042,18.933c-1.658,1.861-0.196,3.194,1.354,3.996
		l87.871-26.533C297.962,676.774,296.913,675.187,292.196,675.112z"/>
	<path fill="#E999B9" d="M232.7,706.608c3.879,0.016,7.761,0.022,11.643,0.022c3.226,0,6.457-0.005,9.684-0.009
		c3.003-0.004,6.002-0.007,9.003-0.007l27.836,0.001c11.719-0.004,18.185-0.759,21.625-2.521c2.343-1.199,2.973-2.785,1.887-4.716
		c-3.224-5.722-3.05-11.185-6.688-16.781l-3.156-4.197c-1.291-1.989-6.394-0.133-12.151-1.084l-78.619,26.533
		c0.021,0.012,0.038,0.023,0.055,0.035C216.932,705.65,223.284,706.566,232.7,706.608z"/>
	<path fill="#251E1A" d="M302.426,700.899c-2.011-2.328,1.699-1.738,2.242-4.773c0.712-3.979,0.918-7.428-0.164-11.324
		c-1.149-0.258-3.051-2.619-4.402-3.373c-3.394-1.894-6.75-0.164-10.066-0.963c-1.71,1.847-12.091,1.282-14.828,1.329
		c-10.768,0.77-20.78-1.934-31.239-2.404c-5.842-0.263-10.529-1.059-16.17,1.497c-3.021,1.366-5.408,3.461-7.071,6.325
		c-0.223,0.383-2.25,5.139-2.109,5.065c3.11,4.382-3.653,6.392,2.826,9.274c8.416,3.628,18.597,0.52,27.455,2.701
		c9.384,2.312,20.255-1.085,29.807-1.012c2.662,0.02,9.55,2.056,11.726,0.968c2.391-0.46,5.346,0.423,7.865,0.108
		C300.67,704.015,301.315,701.13,302.426,700.899C302.178,700.612,302.07,700.973,302.426,700.899z"/>
	<path fill-rule="evenodd" clip-rule="evenodd" fill="#D51515" d="M264.774,690.984c-0.449-1.416-0.866-2.678-1.245-3.945
		c-0.217-0.735-0.491-1.442-1.248-2.01c-0.224-0.169-0.54-0.333-0.321-0.598c0.167-0.198,0.478-0.146,0.756-0.129
		c1.562,0.085,3.124,0.16,4.685,0.247c0.694,0.038,1.432,0.247,0.856,0.781c-1.665,1.547-2.587,3.268-2.927,5.17
		C265.31,690.622,265.078,690.728,264.774,690.984z"/>
	<path fill-rule="evenodd" clip-rule="evenodd" fill="#D51515" d="M245.839,682.275c-3.639,0.025-4.616,2.006-5.827,3.81
		c-0.171,0.257-0.062,0.749-0.671,0.66c-0.551-0.081-0.385-0.53-0.304-0.812c0.357-1.237-0.38-2.204-1.411-3.133
		c-0.386-0.348-1.233-0.679-0.806-1.171c0.385-0.442,1.125-0.012,1.711,0.005C240.977,681.707,243.419,681.798,245.839,682.275z"/>
	<path fill-rule="evenodd" clip-rule="evenodd" fill="#D51515" d="M280.148,684.366c0.85-0.067,1.145,0.134,0.891,0.668
		c-0.6,1.25-1.312,2.478-1.503,3.807c-0.029,0.201-0.135,0.409-0.45,0.436c-0.312,0.026-0.518-0.147-0.583-0.345
		c-0.439-1.352-1.169-2.575-2.59-3.601c-0.66-0.478,0.16-0.643,0.688-0.73C277.796,684.402,279.057,684.669,280.148,684.366z"/>
	<path fill-rule="evenodd" clip-rule="evenodd" fill="#D51515" d="M250.65,687.44c-0.444-1.957-1.263-3.49-2.948-4.866
		c1.53-0.266,2.545,0.325,3.658,0.542c0.878,0.174,2.232-0.092,2.542,0.577c0.319,0.688-1.143,0.789-1.678,1.259
		C251.501,685.587,251.574,686.427,250.65,687.44z"/>
	<path fill-rule="evenodd" clip-rule="evenodd" fill="#D51515" d="M288.714,683.465c0.072-0.011,0.562-0.077,1.047-0.16
		c1.546-0.269,2.028-0.031,1.655,1.035c-0.309,0.878-0.403,2.159-1.599,2.408c-0.883,0.184-1.169-1.146-1.84-1.743
		c-0.171-0.153-0.318-0.321-0.473-0.484c-0.26-0.272-0.924-0.443-0.588-0.873C287.232,683.247,287.804,683.449,288.714,683.465z"/>
	<path fill-rule="evenodd" clip-rule="evenodd" fill="#FFFFFF" d="M263.894,697.518c0.022,1.253-0.398,1.494-2.104,1.231
		c-2.842-0.438-5.689-0.867-8.541-1.277c-3.211-0.464-3.673-0.866-3.19-3.065c0.661-3.013,1.927-5.884,4.148-8.528
		c1.098-1.306,2.515-1.876,4.444-1.526c1.831,0.333,3.156,1.114,3.38,2.428C262.64,690.36,263.271,693.94,263.894,697.518z"/>
	<path fill-rule="evenodd" clip-rule="evenodd" fill="#FFFFFF" d="M272.043,699.041c-0.728-0.026-1.456-0.029-2.179-0.087
		c-0.854-0.067-1.439-0.389-1.673-0.998c-1.128-2.941-1.878-5.879-0.765-8.936c0.417-1.151,1.194-2.124,2.166-3.021
		c1.32-1.218,3.622-1.192,5.287-0.09c1.44,0.953,1.795,2.251,2.245,3.491c0.825,2.283,1.509,4.591,2.241,6.89
		c0.291,0.917-0.625,1.978-2,2.22C275.622,698.816,273.855,699.036,272.043,699.041z"/>
	<path fill-rule="evenodd" clip-rule="evenodd" fill="#FFFFFF" d="M249.411,687.513c-0.395,2.784-0.745,5.307-1.111,7.829
		c-0.149,1.024-1.426,1.103-2.366,1.073c-2.004-0.063-4.011-0.278-5.98-0.553c-2.125-0.297-2.64-0.938-1.999-2.36
		c1.186-2.644,1.893-5.406,3.85-7.865c0.326-0.41,0.601-0.854,1.024-1.209c0.727-0.609,1.321-1.563,2.737-1.269
		c1.459,0.304,2.724,0.931,3.131,2.082C248.995,686.077,249.229,686.922,249.411,687.513z"/>
	<path fill-rule="evenodd" clip-rule="evenodd" fill="#FFFFFF" d="M280.33,690.608c0.195-2.1,0.897-3.801,1.674-5.463
		c0.597-1.271,3.085-1.421,3.964-0.282c2.199,2.85,4.666,5.615,5.473,8.905c0.267,1.089-0.057,1.807-1.503,2.138
		c-2.014,0.464-4.074,0.828-6.118,1.224c-0.42,0.081-0.902-0.015-0.975-0.302C282.291,694.588,280.966,692.497,280.33,690.608z"/>
	<path fill-rule="evenodd" clip-rule="evenodd" fill="#B3B3B3" d="M237.568,686.384c-0.092,2.237-0.605,4.436-1.074,6.644
		c-0.246,1.161-1.141,1.271-2.422,1.176c-0.275-0.021-0.553-0.059-0.817-0.117c-3.736-0.833-3.917-0.856-3.242-3.633
		c0.65-2.667,1.846-5.253,4.042-7.539c0.863-0.898,1.81-0.911,2.754-0.045C237.978,683.94,237.621,685.181,237.568,686.384z"/>
	<path fill-rule="evenodd" clip-rule="evenodd" fill="#B3B3B3" d="M296.751,692.279c0.044,0.721-1.7,2.032-2.76,2.095
		c-0.709,0.04-0.823-0.296-0.889-0.668c-0.259-1.446-0.761-2.839-1.722-4.146c-0.336-0.457-0.417-1.002-0.25-1.501
		c0.5-1.483,1.057-2.96,1.633-4.431c0.127-0.323,0.3-0.731,0.93-0.737c0.724-0.006,0.85,0.426,0.997,0.806
		C295.767,686.51,296.355,689.383,296.751,692.279z"/>
	<path fill-rule="evenodd" clip-rule="evenodd" fill="#B3B3B3" d="M226.556,687.279c0.513-2.097,1.229-4.117,4.265-5.215
		c0.491-0.179,1.058-0.421,1.535-0.052c0.43,0.332-0.03,0.66-0.23,0.966c-1.333,2.037-2.512,4.111-3.221,6.305
		c-0.104,0.326-0.062,0.76-0.774,0.777c-0.557,0.011-0.682-0.353-0.92-0.607C226.59,688.793,226.493,688.062,226.556,687.279z"/>
	<path fill-rule="evenodd" clip-rule="evenodd" fill="#B3B3B3" d="M299.14,685.041c-0.162,0.727-0.42,1.926-0.701,3.12
		c-0.053,0.226-0.132,0.527-0.524,0.538c-0.556,0.015-0.494-0.346-0.541-0.601c-0.322-1.665-0.753-3.315-1.543-4.906
		c-0.268-0.539-0.001-0.712,0.761-0.7C298.34,682.517,299.222,683.216,299.14,685.041z"/>
</g>
<path fill="none" stroke="#0A2530" stroke-width="3" stroke-miterlimit="10" d="M317.359,595.265
	c13.54,1.952,15.375-18.787,2.581-20.262c-11.158-1.317-12.536,18.006-23.55,10.608c-9.723-6.53-21.302-8.751-32.86-8.394
	c-10.468,0.336-20.199,2.802-28.847,8.043c-7.226,4.379-13.076,2.594-17.261-4.969c-6.401-11.638-24.918-0.916-17.505,10.502
	c2.043,3.106,5.673,4.916,9.391,4.611c5.772,0.493,7.985,5.725,5.435,10.607c-4.145,6.987-7.16,14.606-9.412,22.397
	c-4.274,14.783-5.94,30.272-6.277,45.62c-0.314,14.318-1.042,30.667,4.674,44.13c3.81,8.973,23.895,6.396,31.026,6.656
	c19.483,0.711,36.625,0.085,55.369-1.141c7.994-0.522,16.283-1.438,23.709-4.632c4.993-2.147,12.201-6.741,12.519-12.601
	c0.844-15.549,1.749-31.027,0.795-46.599c-1.243-20.282-4.798-42.042-16.23-59.3C311.487,597.702,314.807,595.986,317.359,595.265z
	 M229.435,588.896c-0.28,0.226-0.56,0.45-0.839,0.676C228.847,589.307,229.126,589.082,229.435,588.896
	C229.152,589.118,229.395,588.921,229.435,588.896z"/>
</svg>
