<?xml version="1.0" encoding="utf-8"?>
<!-- Generator: Adobe Illustrator 16.0.4, SVG Export Plug-In . SVG Version: 6.00 Build 0)  -->
<!DOCTYPE svg PUBLIC "-//W3C//DTD SVG 1.1//EN" "http://www.w3.org/Graphics/SVG/1.1/DTD/svg11.dtd">
<svg version="1.1" id="Layer_1" xmlns="http://www.w3.org/2000/svg" xmlns:xlink="http://www.w3.org/1999/xlink" x="0px" y="0px"
	 width="708.66px" height="850.39px" viewBox="0 0 708.66 850.39" enable-background="new 0 0 708.66 850.39" xml:space="preserve">
<path fill="#449CC2" d="M137.001,102.65c0,18.786-15.23,34.016-34.016,34.016H40.017c-18.787,0-34.016-15.229-34.016-34.016V39.682
	c0-18.786,15.229-34.016,34.016-34.016h62.969c18.785,0,34.016,15.229,34.016,34.016V102.65z"/>
<path fill="#1C6787" d="M118.261,9.291c3.417,5.304,5.407,11.613,5.407,18.391V90.65c0,18.786-15.229,34.016-34.016,34.016H26.683
	c-5.495,0-10.681-1.311-15.276-3.625c6.053,9.396,16.601,15.625,28.609,15.625h62.969c18.786,0,34.016-15.229,34.016-34.016V39.682
	C137,26.391,129.373,14.888,118.261,9.291z"/>
<g>
	<path fill="#C7EEFF" d="M14,116.625c-2.761,0-5-2.239-5-5v-71.84c-0.11-1.913-0.489-14.274,7.334-22.74
		C21.09,11.899,27.706,9.291,36,9.291h68c2.761,0,5,2.239,5,5s-2.239,5-5,5H36c-5.445,0-9.464,1.473-12.287,4.503
		c-5.352,5.746-4.734,15.359-4.728,15.456L19,39.625v72C19,114.386,16.762,116.625,14,116.625z"/>
</g>
<path fill="#449CC2" d="M295.667,104.463c0,18.786-15.23,34.016-34.016,34.016h-62.969c-18.787,0-34.016-15.229-34.016-34.016
	V41.494c0-18.786,15.229-34.016,34.016-34.016h62.969c18.785,0,34.016,15.229,34.016,34.016V104.463z"/>
<path fill="#1C6787" d="M262.5,7.479c3.417,5.304,17.788,0.669,26,38.771C310,146,215,147.166,170.074,122.854
	c6.053,9.396,16.601,15.625,28.609,15.625h62.969c18.786,0,34.016-15.229,34.016-34.016V41.494
	C295.667,28.203,283.875,7.479,262.5,7.479z"/>
<path fill="#114054" d="M280.654,123.69c-5.85,11.02-20.479,12.543-12.83,12.317c10.583-0.312,22.278-11.74,22.954-18.041
	C293.769,90.097,290.628,104.903,280.654,123.69z"/>
<path fill="#4AAAD4" d="M279.708,25.761c0,0,3.1-19.25-69.375-11.511c-59.603,6.365-33.927,103.359-31.5,106.511
	s7.75-59.75,33-73.75S279.708,25.761,279.708,25.761z"/>
<path fill="#3E8FB3" d="M172.458,113.863c0,0-3.1,19.25,69.375,11.511c59.603-6.365,33.927-103.359,31.5-106.511
	s-7.75,59.75-33,73.75S172.458,113.863,172.458,113.863z"/>
<g>
	<path fill="#A3CFE2" d="M178.833,120.761c-2.761,0-8.72-1.438-8.72-4.199v-71.84c-0.11-1.913-0.489-14.274,7.334-22.74
		c4.755-5.145,20.954-9.566,29.249-9.566l58.417,1.812c2.761,0,8.887,5.677,8.887,8.438s-8.292-2.541-11.053-2.541l-40.501-4
		c-16.875-0.354-28.507,3.821-34.666,9.334c-20.25,18.125-18.012,71.172-11.333,85.166
		C181.696,121.625,181.594,120.761,178.833,120.761z"/>
</g>
<path fill="#C7EEFF" d="M180.75,22.25c0,0,1.5-1.502,8.75-4.001s15.75-3.75,2.25,2s-13,15-14,16.5s-7.266,8.536-3.311-2.75
	S179.153,23.281,180.75,22.25z"/>
<text transform="matrix(1 0 0 1 54.3335 150.667)" font-family="'MyriadPro-Regular'" font-size="12">Base</text>
<text transform="matrix(1 0 0 1 209 154)" font-family="'MyriadPro-Regular'" font-size="12">Stylized</text>
<path fill="#449CC2" d="M137.001,271.65c0,18.786-15.23,34.016-34.016,34.016H40.017c-18.787,0-34.016-15.229-34.016-34.016v-62.969
	c0-18.786,15.229-34.016,34.016-34.016h62.969c18.785,0,34.016,15.229,34.016,34.016V271.65z"/>
<text transform="matrix(1 0 0 1 39 319.667)" font-family="'MyriadPro-Regular'" font-size="12">BaseEsque</text>
<path fill="#1C6787" d="M89.652,293.666H26.683c-5.495,0-10.681-1.311-15.276-3.625c6.053,9.396,16.601,15.625,28.609,15.625h62.969
	c3.191,0,6.276-0.449,9.206-1.271l-11.581-12.543C97.17,293.022,93.487,293.666,89.652,293.666z"/>
<path fill="#1C6787" d="M137,271.65v-62.969c0-13.291-7.628-24.794-18.74-30.391c3.417,5.304,5.407,11.613,5.407,18.391v62.969
	c0,4.241-0.783,8.297-2.201,12.042l12.639,13.689C135.962,281.181,137,276.538,137,271.65z"/>
<path fill="#A3CFE2" d="M9,208.784v71.84c0,2.761,2.239,5,5,5s5-2.239,5-5v-72l-0.014-0.375c-0.003-0.043-0.124-1.963,0.208-4.584
	l-8.116-8.792C8.729,201.336,8.926,207.482,9,208.784z"/>
<path fill="#A3CFE2" d="M104,188.291c2.761,0,5-2.239,5-5s-2.239-5-5-5H36c-0.253,0-0.5,0.01-0.75,0.015l9.218,9.985H104z"/>
<path fill="#114054" d="M134.105,285.381l-12.639-13.689c-3.581,9.455-11.252,16.892-20.857,20.16l11.581,12.543
	C122.017,301.638,130.039,294.583,134.105,285.381z"/>
<path fill="#C7EEFF" d="M36,188.291h8.468l-9.218-9.985c-7.942,0.154-14.306,2.75-18.916,7.738c-2.497,2.702-4.156,5.801-5.257,8.83
	l8.116,8.792c0.416-3.286,1.543-7.676,4.52-10.872C26.536,189.764,30.555,188.291,36,188.291z"/>
<rect x="176.333" y="199.333" fill="#114054" width="38.667" height="38"/>
<rect x="215" y="199.333" fill="#1C6787" width="38.667" height="38"/>
<rect x="253.195" y="199.333" fill="#3E8FB3" width="38.667" height="38"/>
<rect x="291.862" y="199.333" fill="#449CC2" width="38.667" height="38"/>
<rect x="330.528" y="199.333" fill="#4AAAD4" width="38.667" height="38"/>
<rect x="369.195" y="199.333" fill="#A3CFE2" width="38.668" height="38"/>
<rect x="407.861" y="199.333" fill="#C7EEFF" width="38.668" height="38"/>
<path fill="#449CC2" d="M480.728,105.703c0,18.786-15.231,34.016-34.017,34.016h-62.969c-18.787,0-34.015-15.229-34.015-34.016
	V42.734c0-18.786,15.228-34.016,34.015-34.016h62.969c18.785,0,34.017,15.229,34.017,34.016V105.703z"/>
<path fill="#1C6787" d="M447.56,8.718c3.417,5.304,17.788,0.669,26,38.771c21.5,99.75-73.5,100.916-118.427,76.604
	c6.054,9.396,16.602,15.625,28.609,15.625h62.969c18.786,0,34.016-15.229,34.016-34.016V42.734
	C480.727,29.443,468.935,8.718,447.56,8.718z"/>
<path fill="#114054" d="M465.714,124.93c-5.85,11.02-20.479,12.543-12.829,12.317c10.583-0.312,22.278-11.74,22.953-18.041
	C478.828,91.337,475.688,106.143,465.714,124.93z"/>
<path fill="#4AAAD4" d="M464.768,27.001c0,0,3.1-19.25-69.375-11.511c-59.603,6.365-33.927,103.359-31.5,106.511
	s7.75-59.75,33-73.75S464.768,27.001,464.768,27.001z"/>
<path fill="#3E8FB3" d="M357.518,115.103c0,0-3.1,19.25,69.375,11.511c59.603-6.365,33.927-103.359,31.5-106.511
	s-7.75,59.75-33,73.75S357.518,115.103,357.518,115.103z"/>
<g>
	<path fill="#A3CFE2" d="M363.893,122.001c-2.762,0-8.721-1.438-8.721-4.199v-71.84c-0.109-1.913-0.488-14.274,7.335-22.74
		c4.755-5.145,20.954-9.566,29.249-9.566l58.416,1.812c2.762,0,8.888,5.677,8.888,8.438s-8.292-2.541-11.054-2.541l-40.5-4
		c-16.875-0.354-28.508,3.821-34.666,9.334c-20.25,18.125-18.012,71.172-11.334,85.166
		C366.756,122.865,366.654,122.001,363.893,122.001z"/>
</g>
<path fill="#C7EEFF" d="M365.81,23.49c0,0,1.5-1.502,8.75-4.001s15.75-3.75,2.25,2s-13,15-14,16.5s-7.267,8.536-3.312-2.75
	S364.213,24.521,365.81,23.49z"/>
<text transform="matrix(1 0 0 1 394.0596 155.2397)" font-family="'MyriadPro-Regular'" font-size="12">Stylized</text>
<path fill-rule="evenodd" clip-rule="evenodd" d="M331.506,68.923c1.938-2.698,4.648-3.173,7.854-1.547
	c3.511,1.78,5.606,4.446,5.345,8.625c-0.125,1.981-0.021,3.977-0.021,5.972c-7.2-0.506-12.271-4.136-14.089-10.609
	c-0.627-2.233-0.467-4.855-0.023-7.176c0.479-2.505,2.737-3.678,4.958-4.575c0.08,0.102,0.159,0.203,0.239,0.305
	c-0.56,0.347-1.118,0.698-1.681,1.041c-1.929,1.173-3.178,2.712-3.345,5.118c-0.285,4.129,0.521,7.867,3.916,10.486
	c1.57,1.211,3.55,1.911,5.395,2.726c0.291,0.128,0.983-0.266,1.256-0.606c0.221-0.276,0.281-1.077,0.085-1.229
	c-2.2-1.733-2.212-3.81-1.125-6.119c0.029-0.062-0.047-0.174-0.136-0.458c-1.489,0.256-2.169,3.179-4.354,1.436
	c0.537-0.286,1.092-0.459,1.471-0.819c0.331-0.313,0.717-0.909,0.621-1.25c-0.144-0.51-0.635-1.214-1.075-1.292
	c-1.29-0.228-2.626-0.204-3.946-0.242C332.499,68.697,332.143,68.816,331.506,68.923z"/>
<path fill-rule="evenodd" clip-rule="evenodd" fill="#449CC2" d="M365.292,365.776c-0.347-1.911-0.638-3.827-0.851-5.75
	c0,0,0-0.001,0-0.002c-0.018-0.114-0.022-0.238-0.035-0.358c-0.374-3.55-0.485-7.125-0.205-10.735
	c0.291-3.765-1.321-7.059-2.734-10.392c-1.925-4.536-3.515-9.15-4.115-13.989c-0.26-2.099-1.511-3.736-3.043-4.737v-0.008h-0.01
	c-0.547-0.355-1.128-0.635-1.714-0.819c-7.459-2.347-14.388-5.466-20.783-9.659c-0.177-0.116-0.428-0.136-0.826-0.253
	c-0.099,1.843,1.581,2.254,2.64,3.037c1.24,0.918,2.576,1.735,3.931,2.509c1.243,0.712,2.565,1.308,3.716,2.261
	c-8.839-0.521-16.835-3.415-24.567-7.271c1.562,2.663,4.68,3.561,6.955,5.674c-1.132,0.463-2.013,0.389-3.006-0.039
	c-1.845-0.796-3.679-1.59-5.408-2.598c-1.506-0.876-3.029-1.211-4.968-0.919c-4.355,0.657-8.749,0.151-13.12-0.349
	c-2.442-0.279-4.756-0.747-7.036-1.66c-3.985-1.596-8.463-1.093-12.606-2.298c-3.335-0.97-6.66-1.82-9.906-4.157
	c0.685,1.921,1.473,3.056,2.985,3.751c0.669,0.309,1.679,0.645,1.185,1.587c-0.453,0.864-1.364,0.433-2.135,0.294
	c-3.121-0.563-6.21-1.201-8.599-3.049c-3.758,6.417-4.501,13.573-6.876,20.276c-1.773,5.01-4.137,9.81-7.146,14.31
	c-0.749,1.121-0.948,2.203-0.859,3.533c0.397,5.991,0.539,11.971-0.246,17.9l0.001,0c0.673,6.239-2.887,24.458-6.295,34.657
	c0.455,2.776,1.24,5.479,3.189,7.864c5.553,6.791,11.91,12.779,19.653,17.471c4.994,3.026,10.062,5.971,15.657,7.951
	c13.908,4.923,28.182,5.395,42.753,2.961c9.274-1.549,17.408-5.312,25.185-9.929c7.545-4.477,14.169-9.846,19.654-16.471
	c2.943-3.555,4.404-7.405,4.867-11.643C368.863,391.261,366.711,375.701,365.292,365.776z"/>
<path fill="#1C6787" d="M328.812,303.232c3.417,5.304,17.788,0.669,26,38.771c21.5,99.75-70.271,78.831-115.198,54.519
	c6.054,9.396,3.908,12.262,14.658,19.512s34.962,21.461,59.73,18.197s54.5-20.687,54.5-39.473l-6.523-57.512
	C361.979,323.957,350.187,303.232,328.812,303.232z"/>
<path fill="#114054" d="M354.966,407.795c-5.85,11.02-20.479,12.543-12.829,12.317c10.583-0.312,22.278-11.74,22.953-18.041
	C368.08,374.203,364.939,389.008,354.966,407.795z"/>
<path fill="#3E8FB3" d="M240.335,396.363c0,0,42.75,26.729,84.831,18.845c51.854-9.714,26.021-89.378,23.595-92.53
	s-4.753,47.898-30.003,61.898S240.335,396.363,240.335,396.363z"/>
<path fill="#4AAAD4" d="M346.039,327.01c0,0,16.188-20.739-56.287-13c-59.603,6.365-51.844,79.202-49.417,82.353
	s26.274-53.584,43.167-64.353C307.847,316.49,346.039,327.01,346.039,327.01z"/>
<g>
	<path fill-rule="evenodd" clip-rule="evenodd" d="M304.064,424.668c-9.902,0.054-18.59-3.44-26.572-9.019
		c-3.206-2.24-5.849-4.97-7.458-8.571c-1.616-3.618,0.018-5.992,4.064-6.012c3.988-0.019,7.58,1.43,11.196,2.904
		c6.534,2.663,13.268,4.834,20.398,4.505c5.126-0.237,10.069-1.768,14.894-3.595c3.434-1.3,6.926-2.457,10.436-3.539
		c1.949-0.602,3.941-0.425,5.828,0.47c1.65,0.783,2.187,2.04,1.637,3.775c-1.438,4.543-4.528,7.729-8.357,10.354
		c-4.263,2.923-8.803,5.366-13.749,6.774c-3.99,1.137-8.163,1.627-12.255,2.404C304.104,424.969,304.084,424.818,304.064,424.668z
		 M334.717,402.632c-0.119-0.188-0.237-0.376-0.355-0.565c-1.758,0.271-3.59,0.312-5.26,0.856
		c-4.676,1.522-9.317,3.168-13.913,4.919c-6.063,2.31-12.269,2.923-18.473,1.123c-5.281-1.533-10.356-3.763-15.6-5.443
		c-2.439-0.781-5.062-0.991-7.601-1.459c-0.069,0.129-0.14,0.258-0.21,0.388c0.281,0.366,0.536,0.755,0.848,1.093
		c2.702,2.928,6.155,4.728,9.734,6.264c9.145,3.926,18.686,4.753,28.463,3.323c6.916-1.012,13.337-3.356,19.03-7.475
		C332.59,404.781,333.61,403.647,334.717,402.632z M332.821,412.969c-1.042-1.082-2.287-1.796-3.746-1.875
		c-0.42-0.023-1.247,0.767-1.265,1.209c-0.07,1.736-1,2.755-2.39,3.521c-3.438,1.895-7.054,3.442-10.977,3.718
		c-5.515,0.388-11.058,0.659-16.579,0.552c-5.483-0.105-10.738-1.487-15.547-4.305c-1.344-0.787-2.234-1.733-2.352-3.373
		c-0.033-0.475-0.466-1.155-0.884-1.322c-1.008-0.404-3.404,1.004-3.846,2.098C293.565,428.117,319.483,424.853,332.821,412.969z"/>
	<path fill-rule="evenodd" clip-rule="evenodd" fill="#FFFFFF" d="M334.762,403.068c-1.106,1.014-2.128,2.149-3.337,3.023
		c-5.693,4.119-12.113,6.463-19.029,7.475c-9.778,1.43-19.318,0.603-28.463-3.323c-3.579-1.536-7.032-3.335-9.735-6.264
		c-0.311-0.337-0.565-0.727-0.847-1.092c0.07-0.129,0.14-0.259,0.21-0.389c2.539,0.469,5.161,0.679,7.601,1.46
		c5.243,1.68,10.318,3.91,15.599,5.442c6.205,1.8,12.41,1.188,18.474-1.122c4.596-1.751,9.237-3.397,13.913-4.92
		c1.67-0.543,3.502-0.585,5.26-0.856C334.524,402.69,334.644,402.879,334.762,403.068z"/>
	<path fill-rule="evenodd" clip-rule="evenodd" fill="#FFFFFF" d="M332.866,413.405c-13.338,11.883-39.256,15.147-57.583,0.222
		c0.44-1.094,2.837-2.502,3.845-2.098c0.418,0.167,0.851,0.847,0.884,1.322c0.117,1.64,1.009,2.585,2.353,3.374
		c4.807,2.818,10.062,4.199,15.546,4.305c5.521,0.106,11.065-0.163,16.579-0.552c3.924-0.276,7.539-1.823,10.977-3.718
		c1.389-0.766,2.319-1.785,2.39-3.521c0.019-0.442,0.845-1.232,1.265-1.209C330.579,411.607,331.825,412.322,332.866,413.405z"/>
</g>
<g>
	<path fill-rule="evenodd" clip-rule="evenodd" d="M314.384,399.006c2.575-1.493,2.699-2.315,0.975-5.851
		c1.59,0.575,2.479,2.225,2.119,3.933c-0.455,2.159-1.865,2.923-4.951,2.621c0.07-0.37,0.14-0.73,0.221-1.15
		c-0.281-0.023-0.447-0.079-0.587-0.041c-0.927,0.25-1.87,0.46-2.759,0.81c-0.39,0.153-0.686,0.582-0.985,0.919
		c-0.891,1-1.769,2.006-2.711,1.866c0.879-1.096,1.867-2.5,3.031-3.739C310.287,396.726,313.481,397.086,314.384,399.006z"/>
	<path fill-rule="evenodd" clip-rule="evenodd" d="M299.706,398.783c-1.202-1.317-2.714-1.559-4.286-1.263
		c-0.092,0.01-0.19,0.027-0.301,0.056c-0.835,0.216-1.481,0.631-1.959,0.894c-0.595-0.381-1.188-0.762-1.295-1.25
		c-0.262-1.204,0.125-2.547,0.229-3.717c-1.216,0.375-1.729,1.422-1.473,3.582c0.138,1.168,1.438,2.58,2.513,2.591
		c0.019,0,0.037-0.007,0.055-0.012c0.481,0.076,1.011,0.022,1.833-0.388c1.488-0.644,3.601-0.166,4.666,0.983
		c0.703,0.758,1.617,1.319,2.437,1.969c0.142-0.17,0.281-0.34,0.422-0.51C301.598,400.742,300.623,399.788,299.706,398.783z"/>
</g>
<g>
	<path fill-rule="evenodd" clip-rule="evenodd" d="M290.83,374.912c-0.358-0.145-0.777-0.214-1.064-0.447
		c-4.305-3.489-9.26-5.179-14.74-4.737c-2.215,0.179-4.366,1.269-6.522,2.017c-0.555,0.192-0.98,0.738-1.529,0.972
		c-0.371,0.157-0.853,0.052-1.285,0.063c0.128-0.409,0.133-0.943,0.403-1.209c3.362-3.322,7.449-4.853,12.121-4.237
		c4.549,0.6,8.661,2.387,12.023,5.625c0.43,0.413,0.687,1.004,1.023,1.512C291.116,374.618,290.973,374.765,290.83,374.912z"/>
	<path fill-rule="evenodd" clip-rule="evenodd" d="M339.404,373.077c-2.112-1.006-3.987-2.264-6.048-2.782
		c-2.195-0.553-4.597-0.708-6.851-0.479c-2.195,0.222-4.403,0.949-6.448,1.824c-2.003,0.856-3.807,2.178-5.789,3.35
		c-0.12-2.884,7.114-7.05,13.062-7.771C331.838,366.671,338.953,369.639,339.404,373.077z"/>
</g>
<path fill-rule="evenodd" clip-rule="evenodd" fill="#114054" d="M265.571,356.39c0.835-2.093,2.891-3.515,8.448-3.056
	c2.64,0.217,5.518,0.624,8.627,1.596c2.514,0.786,4.14,1.792,4.668,3.1c0.487,1.206-0.243,1.674-2.433,1.538
	c-1.161-0.072-2.451-0.416-3.663-0.611c-4.643-0.748-8.83-1.011-12.953-1.207c-0.851-0.041-1.829,0.167-2.55-0.206
	C264.736,357.037,265.768,356.795,265.571,356.39z"/>
<path fill-rule="evenodd" clip-rule="evenodd" fill="#114054" d="M375.016,335.486c-3.259-10.125-8.92-18.763-17.16-25.816
	c-3.246-4.946-10.603-10.035-25.271-14.272c-25.26-7.297-47.013-2.74-59.369,1.462c-0.062-0.08-0.126-0.16-0.188-0.24
	c-0.402,0.358-0.824,0.621-1.418,0.8c-2.831,0.85-5.489,2.018-8.039,3.357c-0.146,0.077-0.283,0.162-0.428,0.239
	c-0.531,0.271-0.808,0.427-0.808,0.427l-0.02,0.034c-9.226,5.051-16.754,11.481-22.229,19.617c-5.36,7.968-8.26,16.557-9.417,25.614
	c-1.318,10.34,0.149,20.452,3.433,30.421c0.055,0.076,0.12,0.149,0.154,0.231c0.015,0.031-0.037,0.084-0.061,0.126
	c-0.006,0.282-0.013,0.566-0.021,0.85c0.134,0.148,0.23,0.339,0.401,0.438c5.319,3.058,7.984,7.576,9.782,12.574
	c0.234,0.648,0.438,1.303,0.678,1.949c0.127,0.34,0.462,0.479,0.854,0.462c0.276-0.013,0.641-0.036,0.499-0.406
	c-0.684-1.797,0.864-3.148,1.354-4.702c2.229-7.075,2.176-14.268,1.653-21.478c-0.081-1.125,0.101-2.041,0.794-2.988
	c2.78-3.806,4.963-7.866,6.6-12.104c2.194-5.669,2.88-11.724,6.351-17.15c2.208,1.563,5.061,2.103,7.942,2.579
	c0.713,0.117,1.552,0.482,1.971-0.249c0.457-0.797-0.476-1.081-1.095-1.342c-1.395-0.589-2.123-1.548-2.755-3.173
	c2.998,1.977,6.068,2.695,9.149,3.517c3.826,1.019,7.961,0.593,11.643,1.943c2.106,0.773,4.242,1.169,6.497,1.405
	c4.039,0.422,8.095,0.851,12.12,0.294c1.789-0.247,3.197,0.037,4.588,0.778c1.597,0.851,3.29,1.523,4.994,2.197
	c0.917,0.362,1.732,0.425,2.778,0.033c-2.103-1.788-4.984-2.546-6.426-4.799c7.142,3.262,14.528,5.709,22.692,6.15
	c-1.064-0.806-2.284-1.311-3.434-1.912c-1.252-0.654-2.485-1.346-3.63-2.122c-0.979-0.663-2.529-1.011-2.439-2.57
	c0.367,0.1,0.601,0.116,0.764,0.214c5.906,3.546,12.308,6.186,19.194,8.17c2.067,0.594,4.077,2.294,4.403,4.707
	c0.554,4.093,2.025,7.995,3.802,11.832c1.304,2.819,2.796,5.605,2.522,8.79c-0.612,7.264,0.798,14.361,2.72,21.406
	c0.145,0.528,0.112,1.266,0.97,1.271c0.804,0.006,0.624-0.702,0.749-1.159c1.616-5.936,4.769-11.054,10.964-14.543
	c0.105-2.079,1.117-3.98,1.652-5.973C378.777,360.051,378.961,347.757,375.016,335.486z"/>
<path fill-rule="evenodd" clip-rule="evenodd" fill="#114054" d="M341,359.561c-0.835-2.093-2.891-3.515-8.448-3.056
	c-2.64,0.217-5.518,0.624-8.627,1.596c-2.514,0.786-4.14,1.792-4.668,3.1c-0.487,1.206,0.243,1.674,2.433,1.538
	c1.161-0.072,2.451-0.416,3.663-0.611c4.643-0.748,8.83-1.011,12.953-1.207c0.851-0.041,1.829,0.167,2.55-0.206
	C341.835,360.208,340.804,359.966,341,359.561z"/>
<path fill-rule="evenodd" clip-rule="evenodd" fill="#449CC2" d="M659.331,468.008c-0.347-4.841-0.638-9.697-0.851-14.568
	c0-0.002,0-0.004,0-0.007c-0.018-0.289-0.022-0.604-0.035-0.906c-0.374-8.994-0.485-18.053-0.205-27.2
	c0.291-9.54-1.321-17.885-2.734-26.33c-1.925-11.493-3.515-23.183-4.115-35.443c-0.26-5.318-1.511-9.467-3.043-12.003v-0.02h-0.01
	c-0.547-0.901-1.128-1.61-1.714-2.076c-7.459-5.946-14.388-13.85-20.783-24.472c-0.177-0.294-0.428-0.344-0.826-0.641
	c-0.099,4.669,1.581,5.712,2.64,7.695c1.24,2.326,2.576,4.396,3.931,6.356c1.243,1.804,2.565,3.314,3.716,5.728
	c-8.839-1.32-16.835-8.651-24.567-18.422c1.562,6.747,4.68,9.021,6.955,14.375c-1.132,1.174-2.013,0.986-3.006-0.099
	c-1.845-2.017-3.679-4.029-5.408-6.582c-1.506-2.219-3.029-3.069-4.968-2.328c-4.355,1.665-8.749,0.383-13.12-0.883
	c-2.442-0.707-4.756-1.892-7.036-4.207c-3.985-4.044-8.463-2.77-12.606-5.823c-3.335-2.458-6.66-4.612-9.906-10.532
	c0.685,4.867,1.473,7.743,2.985,9.505c0.669,0.782,1.679,1.634,1.185,4.021c-0.453,2.189-1.364,1.096-2.135,0.745
	c-3.121-1.428-6.21-3.042-8.599-7.725c-3.758,16.257-4.501,34.39-6.876,51.372c-1.773,12.694-4.137,24.854-7.146,36.256
	c-0.749,2.839-0.948,5.581-0.859,8.951c0.397,15.18,0.539,30.33-0.246,45.352l0.001,0.002c0.673,15.807-2.887,61.97-6.295,87.81
	c0.455,7.034,1.24,13.881,3.189,19.924c5.553,17.205,11.91,32.378,19.653,44.266c4.994,7.667,10.062,15.13,15.657,20.147
	c13.908,12.471,28.182,13.668,42.753,7.5c9.274-3.925,17.408-13.463,25.185-25.156c7.545-11.344,14.169-24.947,19.654-41.733
	c2.943-9.008,4.404-18.763,4.867-29.499C662.902,532.576,660.75,493.153,659.331,468.008z"/>
<path fill="#1C6787" d="M622.851,309.542c3.417,13.438,17.788,1.695,26,98.234c21.5,252.734-70.271,199.732-115.198,138.133
	c6.054,23.808,3.908,31.068,14.658,49.438s34.962,54.375,59.73,46.105c24.769-8.269,54.5-52.412,54.5-100.011l-6.523-145.715
	C656.018,362.051,644.226,309.542,622.851,309.542z"/>
<path fill="#114054" d="M649.005,574.47c-5.85,27.92-20.479,31.781-12.829,31.207c10.583-0.792,22.278-29.745,22.953-45.707
	C662.119,489.357,658.979,526.869,649.005,574.47z"/>
<path fill="#3E8FB3" d="M534.374,545.503c0,0,42.75,67.721,84.831,47.748c51.854-24.613,26.021-226.455,23.595-234.44
	c-2.427-7.984-4.753,121.359-30.003,156.831C587.547,551.112,534.374,545.503,534.374,545.503z"/>
<path fill="#4AAAD4" d="M640.078,369.786c0,0,16.188-52.547-56.287-32.938c-59.603,16.126-51.844,200.67-49.417,208.655
	c2.427,7.985,26.274-135.764,43.167-163.049C601.886,343.132,640.078,369.786,640.078,369.786z"/>
<g>
	<path fill-rule="evenodd" clip-rule="evenodd" d="M598.104,596.485c-9.902,0.053-18.59-3.441-26.572-9.02
		c-3.206-2.239-5.849-4.97-7.458-8.57c-1.616-3.619,0.018-5.992,4.064-6.012c3.988-0.02,7.58,1.43,11.196,2.903
		c6.534,2.663,13.268,4.834,20.398,4.505c5.126-0.237,10.069-1.768,14.894-3.595c3.434-1.3,6.926-2.456,10.436-3.538
		c1.949-0.602,3.941-0.426,5.828,0.469c1.65,0.783,2.187,2.04,1.637,3.775c-1.438,4.544-4.528,7.729-8.357,10.355
		c-4.263,2.922-8.803,5.365-13.749,6.773c-3.99,1.137-8.163,1.627-12.255,2.404C598.145,596.786,598.124,596.636,598.104,596.485z
		 M628.757,574.449c-0.119-0.188-0.237-0.376-0.355-0.565c-1.758,0.271-3.59,0.312-5.26,0.857
		c-4.676,1.521-9.317,3.168-13.913,4.919c-6.063,2.31-12.269,2.923-18.473,1.122c-5.281-1.533-10.356-3.762-15.6-5.442
		c-2.439-0.781-5.062-0.991-7.601-1.46c-0.069,0.13-0.14,0.259-0.21,0.389c0.281,0.365,0.536,0.755,0.848,1.093
		c2.702,2.928,6.155,4.728,9.734,6.264c9.145,3.926,18.686,4.753,28.463,3.323c6.916-1.012,13.337-3.356,19.03-7.475
		C626.63,576.599,627.65,575.464,628.757,574.449z M626.861,584.786c-1.042-1.082-2.287-1.797-3.746-1.875
		c-0.42-0.023-1.247,0.767-1.265,1.209c-0.07,1.736-1,2.755-2.39,3.521c-3.438,1.895-7.054,3.441-10.977,3.718
		c-5.515,0.388-11.058,0.659-16.579,0.552c-5.483-0.105-10.738-1.486-15.547-4.305c-1.344-0.787-2.234-1.734-2.352-3.373
		c-0.033-0.475-0.466-1.154-0.884-1.322c-1.008-0.404-3.404,1.004-3.846,2.098C587.605,599.933,613.523,596.669,626.861,584.786z"/>
	<path fill-rule="evenodd" clip-rule="evenodd" fill="#FFFFFF" d="M628.802,574.885c-1.106,1.015-2.128,2.149-3.337,3.022
		c-5.693,4.119-12.113,6.464-19.029,7.476c-9.778,1.431-19.318,0.603-28.463-3.323c-3.579-1.536-7.032-3.336-9.735-6.264
		c-0.311-0.338-0.565-0.727-0.847-1.092c0.07-0.13,0.14-0.26,0.21-0.389c2.539,0.469,5.161,0.678,7.601,1.459
		c5.243,1.681,10.318,3.91,15.599,5.443c6.205,1.8,12.41,1.188,18.474-1.123c4.596-1.75,9.237-3.396,13.913-4.92
		c1.67-0.543,3.502-0.585,5.26-0.855C628.564,574.507,628.684,574.696,628.802,574.885z"/>
	<path fill-rule="evenodd" clip-rule="evenodd" fill="#FFFFFF" d="M626.906,585.222c-13.338,11.883-39.256,15.146-57.583,0.223
		c0.44-1.095,2.837-2.502,3.845-2.098c0.418,0.167,0.851,0.847,0.884,1.321c0.117,1.64,1.009,2.585,2.353,3.374
		c4.807,2.817,10.062,4.197,15.546,4.305c5.521,0.105,11.065-0.164,16.579-0.553c3.924-0.275,7.539-1.822,10.977-3.718
		c1.389-0.766,2.319-1.784,2.39-3.521c0.019-0.442,0.845-1.231,1.265-1.209C624.619,583.425,625.865,584.14,626.906,585.222z"/>
</g>
<g>
	<path fill-rule="evenodd" clip-rule="evenodd" d="M585.165,547.462c-0.358-0.145-0.777-0.213-1.064-0.447
		c-4.305-3.488-9.26-5.178-14.74-4.736c-2.215,0.178-4.366,1.27-6.522,2.016c-0.555,0.193-0.98,0.738-1.529,0.973
		c-0.371,0.156-0.853,0.051-1.285,0.062c0.128-0.408,0.133-0.941,0.403-1.209c3.362-3.322,7.449-4.852,12.121-4.236
		c4.549,0.6,8.661,2.387,12.023,5.625c0.43,0.414,0.687,1.004,1.023,1.514C585.451,547.169,585.308,547.315,585.165,547.462z"/>
	<path fill-rule="evenodd" clip-rule="evenodd" d="M633.739,545.628c-2.112-1.006-3.987-2.264-6.048-2.781
		c-2.195-0.555-4.597-0.709-6.851-0.48c-2.195,0.223-4.403,0.949-6.448,1.824c-2.003,0.855-3.807,2.178-5.789,3.35
		c-0.12-2.883,7.114-7.049,13.062-7.771C626.173,539.222,633.288,542.19,633.739,545.628z"/>
</g>
<path fill-rule="evenodd" clip-rule="evenodd" fill="#114054" d="M559.906,528.94c0.835-2.094,2.891-3.516,8.448-3.057
	c2.64,0.219,5.518,0.625,8.627,1.598c2.514,0.785,4.14,1.791,4.668,3.1c0.487,1.205-0.243,1.674-2.433,1.537
	c-1.161-0.072-2.451-0.416-3.663-0.611c-4.643-0.746-8.83-1.01-12.953-1.207c-0.851-0.039-1.829,0.168-2.55-0.205
	C559.071,529.589,560.103,529.347,559.906,528.94z"/>
<path fill-rule="evenodd" clip-rule="evenodd" fill="#114054" d="M156.237,518.487c-3.259-10.124-8.92-18.763-17.16-25.816
	c-3.246-4.946-10.603-10.034-25.271-14.272c-25.26-7.297-47.013-2.739-59.369,1.463c-0.062-0.08-0.126-0.16-0.188-0.24
	c-0.402,0.357-0.824,0.621-1.418,0.8c-2.831,0.851-5.489,2.018-8.039,3.357c-0.146,0.077-0.283,0.161-0.428,0.239
	c-0.531,0.271-0.808,0.426-0.808,0.426l-0.02,0.035c-9.226,5.051-16.754,11.48-22.229,19.617c-5.36,7.967-8.26,16.557-9.417,25.613
	c-1.318,10.341,0.149,20.453,3.433,30.422c0.055,0.075,0.12,0.148,0.154,0.23c0.015,0.031-0.037,0.084-0.061,0.126
	c-0.006,0.282-0.013,0.566-0.021,0.85c0.134,0.147,0.23,0.339,0.401,0.438c5.319,3.058,7.984,7.576,9.782,12.574
	c0.234,0.647,0.438,1.303,0.678,1.949c0.127,0.34,0.462,0.479,0.854,0.462c0.276-0.013,0.641-0.036,0.499-0.406
	c-0.684-1.797,0.864-3.147,1.354-4.702c2.229-7.075,2.176-14.268,1.653-21.479c-0.081-1.125,0.101-2.04,0.794-2.988
	c2.78-3.806,4.963-7.865,6.6-12.104c2.194-5.669,2.88-11.723,6.351-17.149c2.208,1.563,5.061,2.103,7.942,2.579
	c0.713,0.117,1.552,0.481,1.971-0.249c0.457-0.797-0.476-1.081-1.095-1.343c-1.395-0.588-2.123-1.548-2.755-3.173
	c2.998,1.977,6.068,2.694,9.149,3.517c3.826,1.019,7.961,0.594,11.643,1.943c2.106,0.772,4.242,1.168,6.497,1.404
	c4.039,0.422,8.095,0.851,12.12,0.295c1.789-0.248,3.197,0.036,4.588,0.777c1.597,0.852,3.29,1.523,4.994,2.197
	c0.917,0.361,1.732,0.425,2.778,0.033c-2.103-1.788-4.984-2.547-6.426-4.799c7.142,3.262,14.528,5.709,22.692,6.149
	c-1.064-0.806-2.284-1.311-3.434-1.912c-1.252-0.654-2.485-1.346-3.63-2.122c-0.979-0.662-2.529-1.011-2.439-2.569
	c0.367,0.1,0.601,0.116,0.764,0.214c5.906,3.547,12.308,6.186,19.194,8.17c2.067,0.594,4.077,2.294,4.403,4.707
	c0.554,4.093,2.025,7.994,3.802,11.832c1.304,2.818,2.796,5.605,2.522,8.789c-0.612,7.265,0.798,14.361,2.72,21.406
	c0.145,0.529,0.112,1.266,0.97,1.271c0.804,0.006,0.624-0.701,0.749-1.159c1.616-5.937,4.769-11.054,10.964-14.543
	c0.105-2.079,1.117-3.979,1.652-5.974C159.999,543.053,160.182,530.759,156.237,518.487z"/>
<path fill-rule="evenodd" clip-rule="evenodd" fill="#114054" d="M635.335,532.112c-0.835-2.094-2.891-3.516-8.448-3.057
	c-2.64,0.217-5.518,0.625-8.627,1.596c-2.514,0.787-4.14,1.793-4.668,3.102c-0.487,1.205,0.243,1.674,2.433,1.537
	c1.161-0.072,2.451-0.416,3.663-0.611c4.643-0.748,8.83-1.01,12.953-1.207c0.851-0.041,1.829,0.166,2.55-0.205
	C636.17,532.759,635.139,532.517,635.335,532.112z"/>
<g>
	<path fill-rule="evenodd" clip-rule="evenodd" d="M609.459,564.609c2.575-1.493,2.699-2.316,0.975-5.852
		c1.59,0.576,2.479,2.225,2.119,3.934c-0.455,2.159-1.865,2.924-4.951,2.621c0.07-0.37,0.14-0.73,0.221-1.15
		c-0.281-0.023-0.447-0.079-0.587-0.041c-0.927,0.249-1.87,0.46-2.759,0.81c-0.39,0.153-0.686,0.581-0.985,0.919
		c-0.891,1-1.769,2.006-2.711,1.866c0.879-1.096,1.867-2.5,3.031-3.739C605.362,562.328,608.557,562.689,609.459,564.609z"/>
	<path fill-rule="evenodd" clip-rule="evenodd" d="M594.781,564.385c-1.202-1.316-2.714-1.559-4.286-1.263
		c-0.092,0.011-0.19,0.027-0.301,0.056c-0.835,0.217-1.481,0.631-1.959,0.895c-0.595-0.382-1.188-0.763-1.295-1.25
		c-0.262-1.203,0.125-2.547,0.229-3.717c-1.216,0.374-1.729,1.422-1.473,3.582c0.138,1.168,1.438,2.579,2.513,2.591
		c0.019,0,0.037-0.007,0.055-0.012c0.481,0.076,1.011,0.022,1.833-0.388c1.488-0.644,3.601-0.166,4.666,0.983
		c0.703,0.759,1.617,1.319,2.437,1.969c0.142-0.171,0.281-0.341,0.422-0.511C596.673,566.344,595.698,565.391,594.781,564.385z"/>
</g>
<path fill-rule="evenodd" clip-rule="evenodd" fill="#4AAAD4" d="M305.815,483.055c-0.301,0.414,0.635,0.934-0.064,1.263
	c-0.792,0.373-1.632,0.499-2.497,0.14c-7.168-2.978-14.553-4.908-22.398-4.621c-1.667,0.062-3.324-0.17-4.981-0.256
	c-4.135-0.215-8.203,0.338-12.194,1.543c-1.244,0.376-2.487,0.801-3.811,1.023c-1.411,0.237-2.714,1.105-4.066,1.695
	c-1.245,0.543-2.487,1.095-3.743,1.617c-0.385,0.16-0.893,0.377-1.09-0.203c-0.184-0.539,0.329-0.705,0.703-0.916
	c1.441-0.812,2.851-1.703,4.441-2.2c0.414-0.13,0.562-0.476,0.861-0.683c0.037,0.024,0.073,0.049,0.11,0.073
	c-0.043-0.019-0.086-0.036-0.128-0.054c-0.136-0.205-0.271-0.41-0.405-0.615c5.261-2.873,10.982-3.99,17.082-4.329
	c-1.278-1.412-2.9-1.985-4.584-3.001c2.195-0.576,4.068-0.627,5.962-0.32c0.347,0.057,0.752,0.348,0.979-0.147
	c0.158-0.341-0.119-0.6-0.319-0.85c-1.49-1.851-3.545-2.899-5.609-3.922c-0.404-0.201-1.085-0.083-0.997-0.79
	c0.084-0.674,0.7-0.737,1.237-0.797c5.866-0.654,10.6,1.104,13.658,6.424c0.134,0.229,0.298,0.44,0.457,0.654
	c0.025,0.034,0.094,0.035,0.368,0.127c0.381-1.286,0.116-2.601,0.224-3.871c0.035-0.399-0.194-0.988,0.372-1.09
	c0.545-0.098,0.572,0.51,0.739,0.88c0.308,0.687,0.673,1.351,0.917,2.058c0.582,1.691,0.834,1.84,2.468,1.07
	c0.823-0.386,1.584-0.898,2.396-1.309c0.487-0.246,1.039-0.938,1.549-0.305c0.411,0.51-0.243,0.949-0.558,1.359
	c-0.607,0.789-1.28,1.539-1.604,2.797c1.515-0.723,2.982-0.562,4.37-0.911c0.334-0.083,0.826-0.159,0.978,0.296
	c0.169,0.507-0.355,0.58-0.652,0.756c-0.785,0.467-1.595,0.897-2.376,1.37c-0.217,0.132-0.492,0.312-0.433,0.623
	c0.061,0.313,0.376,0.307,0.63,0.39c2.629,0.854,5.256,1.723,7.884,2.584c0.259,0.086,0.514,0.162,0.624,0.447
	c-0.356,0.275-0.963-0.178-1.278,0.43c1.545,0.821,2.928,1.926,4.799,1.596L305.815,483.055z"/>
<path fill-rule="evenodd" clip-rule="evenodd" fill="#4AAAD4" d="M473.871-89.855c-0.301,0.413,0.635,0.933-0.064,1.262
	c-0.792,0.373-1.632,0.499-2.497,0.14c-7.168-2.978-14.553-4.908-22.398-4.621c-1.667,0.061-3.324-0.171-4.981-0.256
	c-4.135-0.214-8.203,0.338-12.194,1.543c-1.244,0.376-2.487,0.801-3.811,1.023c-1.411,0.237-2.714,1.105-4.066,1.695
	c-1.245,0.543-2.487,1.095-3.743,1.617c-0.385,0.16-0.893,0.377-1.09-0.204c-0.184-0.539,0.329-0.705,0.703-0.915
	c1.441-0.812,2.851-1.704,4.441-2.201c0.414-0.129,0.562-0.476,0.861-0.682c0.037,0.024,0.073,0.048,0.11,0.073
	c-0.043-0.018-0.086-0.036-0.128-0.053c-0.136-0.205-0.271-0.41-0.405-0.615c5.261-2.874,10.982-3.99,17.082-4.33
	c-1.278-1.412-2.9-1.985-4.584-3c2.195-0.577,4.068-0.627,5.962-0.321c0.347,0.056,0.752,0.348,0.979-0.147
	c0.158-0.341-0.119-0.6-0.319-0.85c-1.49-1.85-3.545-2.899-5.609-3.922c-0.404-0.201-1.085-0.083-0.997-0.791
	c0.084-0.673,0.7-0.737,1.237-0.797c5.866-0.654,10.6,1.105,13.658,6.424c0.134,0.23,0.298,0.441,0.457,0.655
	c0.025,0.034,0.094,0.035,0.368,0.127c0.381-1.287,0.116-2.601,0.224-3.872c0.035-0.399-0.194-0.989,0.372-1.09
	c0.545-0.098,0.572,0.51,0.739,0.88c0.308,0.686,0.673,1.351,0.917,2.058c0.582,1.691,0.834,1.839,2.468,1.07
	c0.823-0.386,1.584-0.899,2.396-1.309c0.487-0.247,1.039-0.938,1.549-0.305c0.411,0.509-0.243,0.949-0.558,1.359
	c-0.607,0.789-1.28,1.54-1.604,2.797c1.515-0.722,2.982-0.562,4.37-0.911c0.334-0.083,0.826-0.159,0.978,0.296
	c0.169,0.507-0.355,0.58-0.652,0.756c-0.785,0.466-1.595,0.897-2.376,1.37c-0.217,0.131-0.492,0.311-0.433,0.623
	c0.061,0.313,0.376,0.307,0.63,0.389c2.629,0.854,5.256,1.724,7.884,2.585c0.259,0.085,0.514,0.161,0.624,0.447
	c-0.356,0.275-0.963-0.179-1.278,0.43c1.545,0.821,2.928,1.925,4.799,1.596L473.871-89.855z"/>
<path fill="#114054" d="M374.997,335.674c-3.259-10.125-8.92-18.763-17.16-25.816c-3.246-4.946-10.603-10.035-25.271-14.272
	c-4.13-1.193-8.163-2.064-12.08-2.677c0.089-0.112,0.219-0.2,0.336-0.271c0.781-0.473,1.591-0.904,2.376-1.37
	c0.297-0.176,0.821-0.25,0.652-0.756c-0.151-0.455-0.644-0.379-0.978-0.296c-1.388,0.349-2.855,0.189-4.37,0.911
	c0.323-1.257,0.996-2.008,1.604-2.797c0.314-0.41,0.969-0.85,0.558-1.359c-0.51-0.633-1.062,0.059-1.549,0.305
	c-0.812,0.41-1.572,0.922-2.396,1.309c-1.634,0.769-1.886,0.621-2.468-1.07c-0.244-0.707-0.609-1.372-0.917-2.058
	c-0.167-0.371-0.194-0.978-0.739-0.88c-0.566,0.102-0.337,0.691-0.372,1.09c-0.107,1.271,0.157,2.585-0.224,3.872
	c-0.274-0.092-0.343-0.093-0.368-0.127c-0.159-0.214-0.323-0.425-0.457-0.655c-3.059-5.319-7.792-7.078-13.658-6.424
	c-0.537,0.06-1.153,0.124-1.237,0.797c-0.088,0.708,0.593,0.589,0.997,0.791c2.064,1.023,4.119,2.072,5.609,3.922
	c0.2,0.25,0.478,0.509,0.319,0.85c-0.227,0.495-0.632,0.204-0.979,0.147c-1.894-0.307-3.767-0.256-5.962,0.321
	c1.554,0.937,3.051,1.505,4.277,2.695c-11.238,0.551-20.666,2.922-27.345,5.193c-0.062-0.08-0.126-0.16-0.188-0.24
	c-0.402,0.358-0.824,0.621-1.418,0.8c-2.831,0.85-5.489,2.018-8.039,3.357c-0.146,0.077-0.283,0.162-0.428,0.239
	c-0.531,0.271-0.808,0.427-0.808,0.427l-0.02,0.034c-9.226,5.051-16.754,11.481-22.229,19.617c-5.36,7.968-8.26,16.557-9.417,25.614
	c-1.318,10.34,0.149,20.452,3.433,30.421c0.055,0.076,0.12,0.149,0.154,0.231c0.015,0.031-0.037,0.084-0.061,0.126
	c-0.006,0.282-0.013,0.566-0.021,0.85c0.134,0.148,0.23,0.339,0.401,0.438c5.319,3.058,7.984,7.576,9.782,12.574
	c0.234,0.648,0.438,1.303,0.678,1.949c0.127,0.34,0.462,0.479,0.854,0.462c0.276-0.013,0.641-0.036,0.499-0.406
	c-0.684-1.797,0.864-3.148,1.354-4.702c2.229-7.075,2.176-14.268,1.653-21.478c-0.081-1.125,0.101-2.041,0.794-2.988
	c2.78-3.806,4.963-7.866,6.6-12.104c2.194-5.669,2.88-11.724,6.351-17.15c2.208,1.563,5.061,2.103,7.942,2.579
	c0.713,0.117,1.552,0.482,1.971-0.249c0.457-0.797-0.476-1.081-1.095-1.342c-1.395-0.589-2.123-1.548-2.755-3.173
	c2.998,1.977,6.068,2.695,9.149,3.517c3.826,1.019,7.961,0.593,11.643,1.943c2.106,0.773,4.242,1.169,6.497,1.405
	c4.039,0.422,8.095,0.851,12.12,0.294c1.789-0.247,3.197,0.037,4.588,0.778c1.597,0.851,3.29,1.523,4.994,2.197
	c0.917,0.362,1.732,0.425,2.778,0.033c-2.103-1.788-4.984-2.546-6.426-4.799c7.142,3.262,14.528,5.709,22.692,6.15
	c-1.064-0.806-2.284-1.311-3.434-1.912c-1.252-0.654-2.485-1.346-3.63-2.122c-0.979-0.663-2.529-1.011-2.439-2.57
	c0.367,0.1,0.601,0.116,0.764,0.214c5.906,3.546,12.308,6.186,19.194,8.17c2.067,0.594,4.077,2.294,4.403,4.707
	c0.554,4.093,2.025,7.995,3.802,11.832c1.304,2.819,2.796,5.605,2.522,8.79c-0.612,7.264,0.798,14.361,2.72,21.406
	c0.145,0.528,0.112,1.266,0.97,1.271c0.804,0.006,0.624-0.702,0.749-1.159c1.616-5.936,4.769-11.054,10.964-14.543
	c0.105-2.079,1.117-3.98,1.652-5.973C378.759,360.239,378.942,347.945,374.997,335.674z"/>
<path fill-rule="evenodd" clip-rule="evenodd" fill="#4AAAD4" d="M320.45,535.921c-0.301,0.413,0.635,0.933-0.064,1.263
	c-0.792,0.373-1.632,0.498-2.497,0.139c-7.168-2.977-14.553-4.908-22.398-4.62c-1.667,0.062-3.324-0.171-4.981-0.257
	c-4.135-0.214-8.203,0.338-12.194,1.543c-1.244,0.377-2.487,0.802-3.811,1.023c-1.411,0.238-2.714,1.105-4.066,1.695
	c-1.245,0.543-2.487,1.096-3.743,1.617c-0.385,0.16-0.893,0.377-1.09-0.203c-0.184-0.539,0.329-0.705,0.703-0.915
	c1.441-0.812,2.851-1.704,4.441-2.2c0.414-0.13,0.562-0.477,0.861-0.683c0.037,0.024,0.073,0.048,0.11,0.073
	c-0.043-0.019-0.086-0.036-0.128-0.054c-0.136-0.205-0.271-0.41-0.405-0.615c5.261-2.874,10.982-3.99,17.082-4.329
	c-1.278-1.412-2.9-1.986-4.584-3.001c2.195-0.577,4.068-0.628,5.962-0.321c0.347,0.057,0.752,0.348,0.979-0.146
	c0.158-0.342-0.119-0.6-0.319-0.85c-1.49-1.851-3.545-2.899-5.609-3.922c-0.404-0.201-1.085-0.084-0.997-0.791
	c0.084-0.674,0.7-0.736,1.237-0.797c5.866-0.654,10.6,1.105,13.658,6.424c0.134,0.23,0.298,0.441,0.457,0.654
	c0.025,0.035,0.094,0.035,0.368,0.128c0.381-1.286,0.116-2.601,0.224-3.872c0.035-0.398-0.194-0.988,0.372-1.09
	c0.545-0.098,0.572,0.51,0.739,0.881c0.308,0.686,0.673,1.351,0.917,2.058c0.582,1.69,0.834,1.839,2.468,1.07
	c0.823-0.386,1.584-0.899,2.396-1.309c0.487-0.247,1.039-0.938,1.549-0.306c0.411,0.51-0.243,0.949-0.558,1.359
	c-0.607,0.789-1.28,1.54-1.604,2.797c1.515-0.722,2.982-0.562,4.37-0.91c0.334-0.084,0.826-0.16,0.978,0.295
	c0.169,0.508-0.355,0.58-0.652,0.757c-0.785,0.466-1.595,0.897-2.376,1.37c-0.217,0.131-0.492,0.311-0.433,0.623
	c0.061,0.312,0.376,0.307,0.63,0.389c2.629,0.854,5.256,1.724,7.884,2.585c0.259,0.085,0.514,0.161,0.624,0.447
	c-0.356,0.274-0.963-0.179-1.278,0.43c1.545,0.821,2.928,1.925,4.799,1.596L320.45,535.921z"/>
<path fill="#114054" d="M156.237,635.684c-3.259-10.125-8.92-18.764-17.16-25.816c-3.246-4.946-10.603-10.035-25.271-14.271
	c-4.13-1.193-8.163-2.064-12.08-2.678c0.089-0.111,0.219-0.199,0.336-0.27c0.781-0.473,1.591-0.904,2.376-1.37
	c0.297-0.177,0.821-0.249,0.652-0.757c-0.151-0.455-0.644-0.379-0.978-0.295c-1.388,0.348-2.855,0.188-4.37,0.91
	c0.323-1.257,0.996-2.008,1.604-2.797c0.314-0.41,0.969-0.85,0.558-1.359c-0.51-0.633-1.062,0.059-1.549,0.306
	c-0.812,0.409-1.572,0.923-2.396,1.309c-1.634,0.769-1.886,0.62-2.468-1.07c-0.244-0.707-0.609-1.372-0.917-2.058
	c-0.167-0.371-0.194-0.979-0.739-0.881c-0.566,0.102-0.337,0.691-0.372,1.09c-0.107,1.271,0.157,2.586-0.224,3.872
	c-0.274-0.093-0.343-0.093-0.368-0.128c-0.159-0.213-0.323-0.424-0.457-0.654c-3.059-5.318-7.792-7.078-13.658-6.424
	c-0.537,0.061-1.153,0.123-1.237,0.797c-0.088,0.707,0.593,0.59,0.997,0.791c2.064,1.022,4.119,2.071,5.609,3.922
	c0.2,0.25,0.478,0.508,0.319,0.85c-0.227,0.494-0.632,0.203-0.979,0.146c-1.894-0.307-3.767-0.256-5.962,0.321
	c1.554,0.937,3.051,1.505,4.277,2.695c-11.238,0.551-20.666,2.922-27.345,5.193c-0.062-0.08-0.126-0.16-0.188-0.24
	c-0.402,0.358-0.824,0.62-1.418,0.8c-2.831,0.85-5.489,2.018-8.039,3.357c-0.146,0.076-0.283,0.162-0.428,0.238
	c-0.531,0.271-0.808,0.428-0.808,0.428l-0.02,0.033c-9.226,5.051-16.754,11.482-22.229,19.617c-5.36,7.969-8.26,16.557-9.417,25.615
	c-1.318,10.34,0.149,20.451,3.433,30.42c0.055,0.076,0.12,0.149,0.154,0.231c0.015,0.031-0.037,0.084-0.061,0.126
	c-0.006,0.282-0.013,0.566-0.021,0.85c0.134,0.148,0.23,0.34,0.401,0.438c5.319,3.059,7.984,7.576,9.782,12.574
	c0.234,0.648,0.438,1.304,0.678,1.949c0.127,0.341,0.462,0.479,0.854,0.463c0.276-0.013,0.641-0.035,0.499-0.406
	c-0.684-1.797,0.864-3.148,1.354-4.702c2.229-7.075,2.176-14.268,1.653-21.478c-0.081-1.126,0.101-2.041,0.794-2.988
	c2.78-3.807,4.963-7.866,6.6-12.104c2.194-5.67,2.88-11.725,6.351-17.15c2.208,1.562,5.061,2.103,7.942,2.578
	c0.713,0.117,1.552,0.482,1.971-0.248c0.457-0.797-0.476-1.081-1.095-1.342c-1.395-0.59-2.123-1.549-2.755-3.174
	c2.998,1.977,6.068,2.695,9.149,3.517c3.826,1.019,7.961,0.593,11.643,1.942c2.106,0.773,4.242,1.17,6.497,1.405
	c4.039,0.423,8.095,0.851,12.12,0.294c1.789-0.246,3.197,0.037,4.588,0.778c1.597,0.851,3.29,1.523,4.994,2.196
	c0.917,0.362,1.732,0.426,2.778,0.033c-2.103-1.787-4.984-2.546-6.426-4.799c7.142,3.262,14.528,5.709,22.692,6.15
	c-1.064-0.807-2.284-1.311-3.434-1.912c-1.252-0.654-2.485-1.346-3.63-2.121c-0.979-0.663-2.529-1.012-2.439-2.57
	c0.367,0.1,0.601,0.115,0.764,0.214c5.906,3.546,12.308,6.186,19.194,8.17c2.067,0.595,4.077,2.294,4.403,4.706
	c0.554,4.094,2.025,7.996,3.802,11.832c1.304,2.819,2.796,5.605,2.522,8.791c-0.612,7.264,0.798,14.36,2.72,21.406
	c0.145,0.527,0.112,1.266,0.97,1.271c0.804,0.006,0.624-0.702,0.749-1.159c1.616-5.936,4.769-11.054,10.964-14.543
	c0.105-2.079,1.117-3.98,1.652-5.973C159.999,660.249,160.182,647.955,156.237,635.684z"/>
<path fill-rule="evenodd" clip-rule="evenodd" fill="#114054" d="M156.237,776.651c-1.687-5.242-4.023-10.08-7.022-14.512
	c0.25-1.531-0.177-3.621,0.359-4.357l-3.723-4.117c-4.895,0.859-4.002-7.236-8.043-9.383c0.826-1.592,2.412-0.406,3.344-1.125
	c-0.289-0.748-0.955-0.947-1.631-1.17c-6.875-2.252-13.746-4.527-20.623-6.762c-0.664-0.215-1.488-0.199-1.646-1.018
	c-0.156-0.816,0.564-1.285,1.131-1.629c2.043-1.236,4.162-2.365,6.215-3.584c0.777-0.461,2.148-0.652,1.707-1.977
	c-0.396-1.191-1.684-0.994-2.557-0.775c-3.631,0.912-7.47,0.494-11.431,2.385c0.844-3.289,2.605-5.252,4.193-7.316
	c0.823-1.072,2.534-2.225,1.458-3.557c-1.333-1.656-2.776,0.154-4.05,0.799c-2.123,1.072-4.113,2.412-6.268,3.424
	c-4.273,2.01-4.932,1.623-6.453-2.801c-0.639-1.85-1.594-3.588-2.398-5.383c-0.438-0.969-0.51-2.559-1.934-2.303
	c-1.482,0.266-0.883,1.807-0.975,2.852c-0.281,3.324,0.412,6.762-0.584,10.127c-0.719-0.242-0.896-0.244-0.963-0.334
	c-0.416-0.559-0.846-1.111-1.195-1.713c-8.002-13.912-20.383-18.514-35.727-16.801c-1.404,0.156-3.016,0.322-3.236,2.084
	c-0.229,1.85,1.551,1.541,2.609,2.066c5.398,2.676,10.773,5.42,14.672,10.26c0.523,0.652,1.248,1.33,0.834,2.221
	c-0.592,1.297-1.652,0.533-2.559,0.387c-4.953-0.803-9.852-0.67-15.594,0.84c4.402,2.654,8.646,4.154,11.99,7.848
	c-8.123,0.451-13.215,4.34-18.072,9.039c-1.112,0.49-2.207,1.014-3.276,1.576c-0.146,0.076-0.283,0.16-0.428,0.238
	c-0.531,0.271-0.808,0.426-0.808,0.426l-0.02,0.035c-9.226,5.051-16.754,11.48-22.229,19.617c-5.36,7.967-8.26,16.557-9.417,25.613
	c-1.318,10.342,0.149,20.453,3.433,30.422c0.055,0.076,0.12,0.148,0.154,0.23c0.015,0.031-0.037,0.084-0.061,0.127
	c-0.006,0.281-0.013,0.566-0.021,0.85c0.134,0.146,0.23,0.338,0.401,0.438c5.319,3.059,7.984,7.576,9.782,12.574
	c0.234,0.648,0.438,1.303,0.678,1.949c0.127,0.34,0.462,0.479,0.854,0.463c0.276-0.014,0.641-0.037,0.499-0.406
	c-0.684-1.797,0.864-3.148,1.354-4.703c2.229-7.074,2.176-14.268,1.653-21.479c-0.081-1.125,0.101-2.039,0.794-2.988
	c2.78-3.805,4.963-7.865,6.6-12.104c2.194-5.668,2.88-11.723,6.351-17.148c2.208,1.562,5.061,2.102,7.942,2.578
	c0.713,0.117,1.552,0.482,1.971-0.248c0.457-0.797-0.476-1.082-1.095-1.344c-1.395-0.588-2.123-1.547-2.755-3.172
	c2.998,1.977,6.068,2.693,9.149,3.516c3.826,1.02,7.961,0.594,11.643,1.943c2.106,0.773,4.242,1.168,6.497,1.404
	c4.039,0.422,8.095,0.852,12.12,0.295c1.789-0.248,3.197,0.037,4.588,0.777c1.597,0.852,3.29,1.523,4.994,2.197
	c0.917,0.361,1.732,0.426,2.778,0.033c-2.103-1.787-4.984-2.547-6.426-4.799c7.142,3.262,14.528,5.709,22.692,6.15
	c-1.064-0.807-2.284-1.311-3.434-1.912c-1.252-0.654-2.485-1.346-3.63-2.123c-0.979-0.662-2.529-1.01-2.439-2.568
	c0.367,0.1,0.601,0.115,0.764,0.213c5.906,3.547,12.308,6.186,19.194,8.17c2.067,0.594,4.077,2.295,4.403,4.707
	c0.554,4.094,2.025,7.994,3.802,11.832c1.304,2.818,2.796,5.605,2.522,8.789c-0.612,7.266,0.798,14.361,2.72,21.406
	c0.145,0.529,0.112,1.266,0.97,1.271c0.804,0.006,0.624-0.701,0.749-1.158c1.616-5.938,4.769-11.055,10.964-14.543
	c0.105-2.08,1.117-3.98,1.652-5.975C159.999,801.216,160.182,788.923,156.237,776.651z"/>
<path fill-rule="evenodd" clip-rule="evenodd" fill="#4AAAD4" d="M339.653,590.526c0-21.325-7.82-38.61-17.467-38.61h-60.649
	c-9.647,0-17.467,17.285-17.467,38.61v10.508c0.829-5.674,1.833-11.271,3.375-16.6c2.268,3.55,5.197,4.772,8.157,5.855
	c0.732,0.266,1.594,1.094,2.024-0.565c0.469-1.81-0.489-2.454-1.125-3.049c-1.432-1.335-2.18-3.514-2.829-7.202
	c3.079,4.485,6.232,6.117,9.396,7.983c3.929,2.311,8.176,1.348,11.957,4.41c2.164,1.754,4.357,2.651,6.673,3.189
	c4.148,0.957,8.312,1.93,12.447,0.667c1.837-0.562,3.283,0.084,4.711,1.768c1.64,1.933,3.379,3.457,5.129,4.986
	c0.941,0.821,1.779,0.965,2.854,0.077c-2.159-4.061-5.119-5.782-6.599-10.896c7.333,7.405,14.92,12.961,23.305,13.96
	c-1.094-1.828-2.346-2.976-3.525-4.34c-1.287-1.485-2.553-3.055-3.729-4.818c-1.006-1.503-2.598-2.294-2.506-5.831
	c0.377,0.225,0.617,0.262,0.785,0.485c6.064,8.051,12.639,14.041,19.713,18.546c1.777,1.128,3.5,4.037,4.215,8.165
	c0.734-4.266,1.154-8.878,1.154-13.713V590.526z"/>
<path fill-rule="evenodd" clip-rule="evenodd" fill="#114054" d="M405.702,732.522c-3.259-10.124-8.92-18.763-17.16-25.816
	c-3.246-4.946-10.603-10.034-25.271-14.272c-25.26-7.297-47.013-2.739-59.369,1.463c-0.062-0.08-0.126-0.16-0.188-0.24
	c-0.402,0.357-0.824,0.621-1.418,0.8c-2.831,0.851-5.489,2.018-8.039,3.357c-0.146,0.077-0.283,0.161-0.428,0.239
	c-0.531,0.271-0.808,0.426-0.808,0.426l-0.02,0.035c-9.226,5.051-16.754,11.48-22.229,19.617c-5.36,7.967-8.26,16.557-9.417,25.613
	c-1.318,10.341,0.149,20.453,3.433,30.422c0.055,0.075,0.12,0.148,0.154,0.23c0.015,0.031-0.037,0.084-0.061,0.126
	c-0.006,0.282-0.013,0.566-0.021,0.85c0.134,0.147,0.23,0.339,0.401,0.438c5.319,3.058,7.984,7.576,9.782,12.574
	c0.234,0.647,0.438,1.303,0.678,1.949c0.127,0.34,0.462,0.479,0.854,0.462c0.276-0.013,0.641-0.036,0.499-0.406
	c-0.684-1.797,0.864-3.147,1.354-4.702c2.229-7.075,2.176-14.268,1.653-21.479c-0.081-1.125,0.101-2.04,0.794-2.988
	c2.78-3.806,4.963-7.865,6.6-12.104c2.194-5.669,2.88-11.723,6.351-17.149c2.208,1.563,5.061,2.103,7.942,2.579
	c0.713,0.117,1.552,0.481,1.971-0.249c0.457-0.797-0.476-1.081-1.095-1.343c-1.395-0.588-2.123-1.548-2.755-3.173
	c2.998,1.977,6.068,2.694,9.149,3.517c3.826,1.019,7.961,0.594,11.643,1.943c2.106,0.772,4.242,1.168,6.497,1.404
	c4.039,0.422,8.095,0.851,12.12,0.295c1.789-0.248,3.197,0.036,4.588,0.777c1.597,0.852,3.29,1.523,4.994,2.197
	c0.917,0.361,1.732,0.425,2.778,0.033c-2.103-1.788-4.984-2.547-6.426-4.799c7.142,3.262,14.528,5.709,22.692,6.149
	c-1.064-0.806-2.284-1.311-3.434-1.912c-1.252-0.654-2.485-1.346-3.63-2.122c-0.979-0.662-2.529-1.011-2.439-2.569
	c0.367,0.1,0.601,0.116,0.764,0.214c5.906,3.547,12.308,6.186,19.194,8.17c2.067,0.594,4.077,2.294,4.403,4.707
	c0.554,4.093,2.025,7.994,3.802,11.832c1.304,2.818,2.796,5.605,2.522,8.789c-0.612,7.265,0.798,14.361,2.72,21.406
	c0.145,0.529,0.112,1.266,0.97,1.271c0.804,0.006,0.624-0.701,0.749-1.159c1.616-5.937,4.769-11.054,10.964-14.543
	c0.105-2.079,1.117-3.979,1.652-5.974C409.464,757.088,409.647,744.794,405.702,732.522z"/>
<path fill-rule="evenodd" clip-rule="evenodd" fill="#4AAAD4" d="M314.8,507.991c-0.301,0.413,0.635,0.933-0.064,1.263
	c-0.791,0.373-1.631,0.498-2.496,0.139c-7.168-2.977-14.553-4.908-22.398-4.62c-1.668,0.062-3.324-0.171-4.982-0.257
	c-4.135-0.214-8.203,0.338-12.193,1.543c-1.244,0.377-2.488,0.802-3.811,1.023c-1.412,0.238-2.715,1.105-4.066,1.695
	c-1.246,0.543-2.488,1.096-3.744,1.617c-0.385,0.16-0.893,0.377-1.09-0.203c-0.184-0.539,0.33-0.705,0.703-0.915
	c1.441-0.812,2.852-1.704,4.441-2.2c0.414-0.13,0.562-0.477,0.861-0.683c0.037,0.024,0.074,0.048,0.111,0.073
	c-0.043-0.019-0.086-0.036-0.129-0.054c-0.135-0.205-0.27-0.41-0.404-0.615c5.26-2.874,10.982-3.99,17.082-4.329
	c-1.279-1.412-2.9-1.986-4.584-3.001c2.195-0.577,4.068-0.628,5.961-0.321c0.348,0.057,0.752,0.348,0.979-0.146
	c0.158-0.342-0.119-0.6-0.318-0.85c-1.49-1.851-3.545-2.899-5.609-3.922c-0.404-0.201-1.086-0.084-0.998-0.791
	c0.084-0.674,0.701-0.736,1.238-0.797c5.865-0.654,10.6,1.105,13.658,6.424c0.133,0.23,0.297,0.441,0.457,0.654
	c0.025,0.035,0.094,0.035,0.367,0.128c0.381-1.286,0.117-2.601,0.225-3.872c0.035-0.398-0.195-0.988,0.371-1.09
	c0.545-0.098,0.572,0.51,0.74,0.881c0.307,0.686,0.672,1.351,0.916,2.058c0.582,1.69,0.834,1.839,2.469,1.07
	c0.822-0.386,1.584-0.899,2.395-1.309c0.488-0.247,1.039-0.938,1.549-0.306c0.412,0.51-0.242,0.949-0.557,1.359
	c-0.607,0.789-1.281,1.54-1.604,2.797c1.514-0.722,2.982-0.562,4.369-0.91c0.334-0.084,0.826-0.16,0.979,0.295
	c0.168,0.508-0.355,0.58-0.652,0.757c-0.785,0.466-1.596,0.897-2.377,1.37c-0.217,0.131-0.492,0.311-0.432,0.623
	s0.375,0.307,0.629,0.389c2.629,0.854,5.256,1.724,7.885,2.585c0.258,0.085,0.514,0.161,0.623,0.447
	c-0.355,0.274-0.963-0.179-1.277,0.43c1.545,0.821,2.928,1.925,4.799,1.596L314.8,507.991z"/>
<g>
	<path fill="#114054" d="M668.562,384.951c-3.259-10.124-8.92-18.763-17.16-25.816c-1.037-1.58-2.499-3.174-4.478-4.75
		c0.747,0.298,1.493,0.598,2.238,0.907c1.724,0.716,3.397,0.467,4.975-0.276c1.36-0.642-0.377-1.643,0.097-2.456
		c-3.693,0.617-6.433-1.562-9.491-3.188c0.628-1.212,1.836-0.31,2.547-0.856c-0.22-0.569-0.728-0.722-1.243-0.891
		c-5.235-1.716-10.47-3.449-15.706-5.149c-0.506-0.164-1.135-0.152-1.256-0.774c-0.118-0.623,0.431-0.98,0.862-1.241
		c1.557-0.941,3.169-1.802,4.733-2.729c0.592-0.353,1.637-0.496,1.3-1.508c-0.302-0.907-1.282-0.755-1.947-0.588
		c-2.765,0.692-5.688,0.376-8.706,1.813c0.644-2.504,1.984-4,3.194-5.572c0.626-0.817,1.93-1.692,1.11-2.708
		c-1.016-1.261-2.114,0.117-3.085,0.609c-1.617,0.814-3.132,1.838-4.772,2.606c-3.255,1.531-3.757,1.235-4.916-2.132
		c-0.486-1.409-1.215-2.733-1.827-4.1c-0.333-0.739-0.388-1.949-1.473-1.755c-1.128,0.202-0.671,1.378-0.741,2.171
		c-0.215,2.533,0.312,5.152-0.445,7.714c-0.547-0.185-0.684-0.185-0.734-0.254c-0.316-0.425-0.644-0.845-0.91-1.304
		c-6.094-10.596-15.523-14.102-27.21-12.798c-1.069,0.121-2.298,0.245-2.465,1.588c-0.175,1.408,1.181,1.175,1.986,1.575
		c4.112,2.037,8.206,4.127,11.175,7.813c0.399,0.498,0.951,1.012,0.637,1.692c-0.451,0.984-1.259,0.405-1.949,0.292
		c-3.772-0.61-7.504-0.51-11.878,0.641c3.354,2.021,6.586,3.165,9.132,5.979c-12.15,0.675-23.55,2.898-34.03,8.624
		c0.268,0.406,0.534,0.813,0.804,1.22c0.015-0.01,0.024-0.023,0.039-0.033c0.074,0.049,0.146,0.096,0.219,0.146
		c-0.085-0.037-0.17-0.072-0.254-0.107c-0.001-0.002-0.002-0.004-0.004-0.006c-0.569,0.414-0.872,1.074-1.678,1.327
		c-3.169,0.988-5.977,2.765-8.848,4.383c-0.745,0.419-1.767,0.749-1.4,1.823c0.161,0.475,0.43,0.674,0.74,0.73
		c-4.73,3.743-8.802,8.027-12.111,12.945c-5.36,7.967-8.26,16.557-9.417,25.613c-1.318,10.34,0.149,20.454,3.433,30.423
		c0.055,0.074,0.12,0.148,0.154,0.23c0.015,0.031-0.037,0.084-0.061,0.125c-0.006,0.283-0.013,0.566-0.021,0.85
		c0.134,0.148,0.23,0.34,0.401,0.439c5.319,3.057,7.984,7.576,9.782,12.574c0.234,0.646,0.438,1.303,0.678,1.949
		c0.127,0.34,0.462,0.479,0.854,0.461c0.276-0.012,0.641-0.035,0.499-0.406c-0.684-1.797,0.864-3.146,1.354-4.701
		c2.229-7.076,2.176-14.268,1.653-21.479c-0.081-1.125,0.101-2.041,0.794-2.988c2.78-3.807,4.963-7.865,6.6-12.104
		c1.933-4.991,2.696-10.28,5.22-15.178c1.79,1.562,3.789,2.385,5.807,3.123c0.732,0.266,1.594,1.094,2.024-0.565
		c0.279-1.077,0.05-1.737-0.313-2.224c0.516,0.096,1.034,0.188,1.556,0.273c0.713,0.117,1.552,0.481,1.971-0.249
		c0.457-0.797-0.476-1.081-1.095-1.343c-1.244-0.524-1.958-1.35-2.547-2.675c1.943,1.72,3.904,2.79,5.871,3.949
		c3.93,2.311,8.176,1.348,11.957,4.41c2.163,1.754,4.356,2.651,6.672,3.189c4.148,0.957,8.312,1.93,12.447,0.667
		c1.838-0.562,3.283,0.084,4.711,1.768c1.641,1.933,3.379,3.457,5.129,4.986c0.941,0.821,1.779,0.965,2.854,0.077
		c-2.158-4.061-5.119-5.782-6.598-10.896c7.332,7.405,14.92,12.961,23.305,13.959c-1.094-1.828-2.346-2.975-3.525-4.339
		c-1.287-1.485-2.553-3.055-3.729-4.818c-0.772-1.154-1.889-1.894-2.324-3.776c0.763,0.209,1.526,0.411,2.301,0.589
		c5.59,6.968,11.595,12.298,18.016,16.388c1.777,1.127,3.5,4.037,4.215,8.164c0.734-4.266,1.154-8.877,1.154-13.712v-4.049
		c0.104,0.304,0.187,0.618,0.231,0.95c0.554,4.092,2.025,7.995,3.802,11.833c1.304,2.818,2.796,5.605,2.522,8.789
		c-0.612,7.264,0.798,14.362,2.72,21.407c0.145,0.529,0.112,1.266,0.97,1.271c0.804,0.006,0.624-0.701,0.749-1.16
		c1.616-5.936,4.769-11.053,10.964-14.543c0.105-2.079,1.117-3.979,1.652-5.973C672.323,409.517,672.507,397.223,668.562,384.951z"
		/>
	<path fill="#114054" d="M654.266,352.5c-0.015,0.02-0.021,0.04-0.032,0.06c0.023-0.004,0.046-0.005,0.069-0.009L654.266,352.5z"/>
</g>
</svg>
