<?xml version="1.0" encoding="utf-8"?>
<!-- Generator: Adobe Illustrator 16.0.4, SVG Export Plug-In . SVG Version: 6.00 Build 0)  -->
<!DOCTYPE svg PUBLIC "-//W3C//DTD SVG 1.1//EN" "http://www.w3.org/Graphics/SVG/1.1/DTD/svg11.dtd">
<svg version="1.1" xmlns="http://www.w3.org/2000/svg" xmlns:xlink="http://www.w3.org/1999/xlink" x="0px" y="0px"
	 width="595.28px" height="425.2px" viewBox="0 0 595.28 425.2" enable-background="new 0 0 595.28 425.2" xml:space="preserve">
<g id="Tomacorriente">
	<path fill="#FFFFFF" d="M140.017,125.827c0,7.828-6.346,14.174-14.173,14.174H14.173C6.346,140,0,133.655,0,125.827V14.173
		C0,6.346,6.346,0,14.173,0h111.671c7.827,0,14.173,6.346,14.173,14.173V125.827z"/>
	<path fill-rule="evenodd" clip-rule="evenodd" fill="#CBCACC" d="M139.493,130.186c-2.085,5.77-6.667,7.43-12.249,7.436
		c-31.301,0.035-62.602,0.039-93.902,0.127c-6.486,0.018-12.973,0.5-19.459,0.494c-7.978-0.006-12.776-4.695-13.045-12.629
		c-0.223-6.619-0.385-13.248-0.264-19.867c0.148-8.145,0.943-16.285,0.887-24.422C1.305,59.206,0.838,37.09,0.525,14.973
		c-0.023-1.717,0.193-3.438,0.298-5.156C1.29,9.835,1.757,9.854,2.225,9.873c0,39.438,0,78.875,0,118.174
		c9.064-4.029,8.365-11.551,8.318-19.16c-0.174-28.488-0.081-56.98-0.051-85.469c0.01-10.044,3.008-13.113,13.211-13.142
		c30.654-0.084,61.311-0.089,91.967-0.039c4.698,0.008,8.522-0.636,11.639-5.035c3.758-5.306,8.625-4.302,10.927,1.765
		c0.751,1.979,1.172,4.21,1.176,6.326c0.065,38.985,0.046,77.969,0.044,116.956L139.493,130.186z"/>
	<ellipse fill-rule="evenodd" clip-rule="evenodd" fill="#848486" cx="71.009" cy="69.23" rx="48.237" ry="50.268"/>
	<path fill-rule="evenodd" clip-rule="evenodd" fill="#3C3939" d="M52.92,65.263c3.081,7.277-1.129,12-6,12
		C34.911,77.263,39.909,56.163,52.92,65.263z"/>
	<path fill-rule="evenodd" clip-rule="evenodd" fill="#9F9FA2" d="M53.92,23.263c-1.496-0.17-3.381,1.715-3.69,0.357
		c22.665-10.757,46.487-0.629,57.668,11.962c1.099,2.901,1.218,5.485,3.022,7.68c-0.003,1.003,0.81,1.19,1,2c0,2.333,0,4.667,0,7
		c-1.357,0.31-0.829,2.504-1,4c-2.077-0.257-0.273-4.394-2-5c-4.163,2.837-7.06,6.94-12,9c0.027-0.973,1.224-0.776,2-1
		c-0.274-3.509-3.726,2.509-4-1c-1.312,3.498-14.306,6.885-10,16c-1.89-0.111-0.694-3.306-3-3c-1.085,1.741-0.569,4.098-4,7
		c1.158-2.527,1.684-14.011-2-13c-7.988-6.987-17.655,4.841-10,11c1.938,4.104,7.505,1.35,10,3c0.114,3.52-8.462,7.646-4,9
		c-4.157,0.017-5.317,2.459-9,5c-0.302,2.635,1.385,3.282,4,3c3.177,0.839-1.774,1.319-3,1c0.498,3.74,1.343,5.171-1,8
		c1.794,0.127,2.109-1.225,4-1c-1.524,3.707-2.54,7.284-7,12c-3.716-0.65-6.284-3.044-10-1c-1.904-0.429-2.513-2.154-5-2
		c0.184-0.851-0.39-0.943-1-1c-0.027-0.973-1.224-0.776-2-1c-9.544-8.122-18.366-16.968-21-32c2.59-0.171,7.952,0.86,5-2
		c4.063-1.785-2.741-1.819-4-3c-1.2-14.431,5.454-14.838,4-27c-0.445,2.555-1.402,4.598-3,6c1.743-4.591,3.135-9.532,7-12
		c-0.898,1.768-2.414,2.919-3,5c7.736-8.597,14.241-18.425,28-21c1.983-2.358-0.542,2.317-2.525,3.226
		c-12.138,2.528-12.581,13.726-20.931,17.75c0,3-1.544,5.024-1.544,8.024c2.555-0.111,1.985-3.349,2-6c1.753-1.893,3.474,1.745,3-3
		c1.022,0.977,2.022,1.977,3,3c2.578-0.241-1.373-1.721,0-4c11.588,3.357,28.452-0.244,36-7c2.039,0.294,1.961,2.706,4,3
		c-4.032-6.369,13.22-4.301,17-5c2.259-0.56-1.212-1.56,1-3c1.554,1.445,3.897,2.104,6,3c-4.374-6.82-19.911-13.274-24-11
		c2.767-0.43,0.052-3.146-2-2c-4.874,0.46-11.714-1.047-15,1C59.407,20.239,56.53,24.092,53.92,23.263z M46.92,77.263
		c4.871,0,9.081-4.723,6-12C39.909,56.163,34.911,77.263,46.92,77.263z"/>
	<path fill-rule="evenodd" clip-rule="evenodd" fill="#E8E5E1" d="M60.92,23.263c3.286-2.047,10.126-0.54,15-1
		c0.45,2.784-5.45-0.784-5,2c-2.068,0.915-7.37-0.649-10,2C60.92,25.263,60.92,24.263,60.92,23.263z"/>
	<path fill-rule="evenodd" clip-rule="evenodd" fill="#C2C0C1" d="M112.978,90.286c2,0,2.942-13.022,4.942-13.022
		c-0.22-3.22,1.769-4.231,1-8c0-1.667,0-3.333,0-5c-0.485-1.182-1.066-2.267-2-3c-0.333,0,0.602-9.112,0.269-9.112
		c-1.891-0.225-2.538-7.81-4.332-7.937c0-3.333-0.937,11.381-0.937,8.048c-1.357,0.31-0.829,2.504-1,4c-2.077-0.257-0.273-4.394-2-5
		c-3.566,2.431-6.212,5.782-10.001,7.99c0,0.004,0.001,0.006,0.001,0.01c-0.009,0.002-0.018,0.003-0.026,0.006
		c-0.626,0.363-1.275,0.703-1.974,0.994c0.027-0.962,1.197-0.782,1.974-0.994c0.009-0.005,0.017-0.011,0.025-0.016
		c-0.281-3.484-3.725,2.515-3.999-0.99c-1.312,3.498-14.306,6.885-10,16c-1.89-0.111-0.694-3.306-3-3c-1.085,1.741-0.569,4.098-4,7
		c1.158-2.527,1.684-14.011-2-13c5.014,6.173-1.921,15.201-10,11c1.938,4.104,7.505,1.35,10,3c0.114,3.52-8.462,7.646-4,9
		c-4.157,0.017-5.317,2.459-9,5c-0.302,2.635,1.385,3.282,4,3c3.177,0.839-1.774,1.319-3,1c0.498,3.74,1.343,5.171-1,8
		c1.794,0.127,2.109-1.225,4-1c-1.524,3.707-2.54,7.284-7,12c-3.716-0.65-6.284-3.044-10-1c0.221,0.779,0.837,1.163,2,1
		c1.694-2.271,6.677,0.59,8,2c0.333,0,0.667,0,1,0c-0.978-4.978,5.364-2.636,5-7c1.548-2.451,0.604-7.396,5-7
		c1.123,2.544,2.456,4.877,4,7c-0.755,4.755,6.681,1.319,5,7c4.798-0.203,7.519-2.481,11-4c3.109-0.891,4.659-3.341,8-4
		c0.206-4.059,5.312-3.273,4-7c5.093,1.424,4.416-7.009,8-6c1.47-5.196,0.927-12.406,1-19c-1.481,0.186-0.917,2.417-1,4
		c-1.916-0.846-2.706-4.387-1-6C110.923,76.26,112.168,90.095,112.978,90.286z M97.92,64.263c2.362-3.579,5.979,9.43,3,8
		c-0.851-0.184-0.943,0.39-1,1c5.524,4.549-12.688,6.566-8,4C82.845,74.838,87.597,58.139,97.92,64.263z"/>
	<path fill-rule="evenodd" clip-rule="evenodd" fill="#E8E5E1" d="M97.92,64.263c2.362-3.579,5.979,9.43,3,8
		C101.571,67.945,99.192,66.658,97.92,64.263z"/>
	<path fill-rule="evenodd" clip-rule="evenodd" fill="#3C3939" d="M65.92,76.263c-7.655-6.159,2.012-17.987,10-11
		C80.934,71.436,73.999,80.464,65.92,76.263z M65.92,72.263c0.511-2.823,2.419-4.247,3-7C65.69,64.768,63.535,70.456,65.92,72.263z
		 M67.92,75.263c6.239,2.053,10.838-5.286,6-8c-1.867,1.778,0.812,2.542,0,6c-2.967,2.555-4.933-1.654-6,0
		C69.128,73.475,68.534,74.373,67.92,75.263z"/>
	<path fill-rule="evenodd" clip-rule="evenodd" fill="#E8E5E1" d="M119.188,62.151c-0.002-3.998-1.93-5.662-1.932-9.66
		c-1.514-1.936,0.077-1.908-2.34-3.408c0.275,0.216-0.466-1.729-0.171-1.082l-0.24-1.311c-3.194-3.767,0.256,0.045-2.303-4.176
		c-1.073-4.553-9.176-12.357-7.014-8.363c0.812,2.146,3.548,4.592,5.365,7.363c0,2.396,0,6.145,0,8.307c0,3.333,0,6.667,0,10
		c0.054,0.004,0.093,0.004,0.144,0.007l0.491,2.323h7c0,1.667,0,3.333,0,5c0.769,3.769-1.22,4.781-1,8c-2,0-4,0-6,0
		c0,0.334,0,0.668,0,1c-0.072,6.594,0.471,13.805-1,19c-3.115,5.219-7.387,9.279-12,13c-3.342,0.66-4.891,3.109-8,4
		c-3.481,1.52-6.203,3.797-11,4c-4.386,0.518-3.285,0.312-7,1c-5.537-0.504-8.655-0.199-12-1c-0.334,0-0.666,0-1,0
		c-3.601,0.268-4.819-1.848-8-2c-1.162,0.164-1.779-0.221-2-1c-1.904-0.428-2.512-2.154-5-2c-0.334,0-0.666,0-1,0
		c0.803,2.531,4.117,2.551,6,4c1.162-0.162,1.779,0.221,2,1c5.023,0.645,8.684,2.65,14,3
		C101.139,118.542,120.438,96.713,119.188,62.151z"/>
	<path fill-rule="evenodd" clip-rule="evenodd" fill="#848486" d="M43.188,110.452c-0.75-0.412-5.609-7.309-6.579-7.5
		c-4.613-3.721-1.665-2.582-4.78-7.801c-1.471-5.195-0.928-12.406-1-19c0-0.332,0-0.666,0-1c-2,0-4,0-6,0
		c0.22-3.219-1.769-4.231-1-8c0-1.667,0-3.333,0-5h7l0.491-2.323c0.051-0.003,0.09-0.003,0.144-0.007c0-3.333,0-6.667,0-10
		c0-2.162,0-5.91,0-8.307c1.817-2.771,4.553-5.217,5.365-7.363c2.162-3.994-5.94,3.811-7.014,8.363
		c-2.559,4.222,1.878-0.783-1.316,2.983v0.833c0.221-0.271-2.275,1.966-2,1.75c-0.406,1.175,2.234-0.466-1.67,4.07
		c-0.002,3.998-1.998,6.002-2,10c-0.774,21.411,6.288,39.38,20.359,49C44.122,110.924,42.047,110.621,43.188,110.452z"/>
	<path fill-rule="evenodd" clip-rule="evenodd" fill="#3C3939" d="M91.895,77.401c-9.074-2.424-4.323-19.124,6-13
		c1.272,2.395,3.651,3.682,3,8c-0.851-0.184-0.943,0.391-1,1C98.764,76.27,95.606,77.114,91.895,77.401z"/>
	<path fill-rule="evenodd" clip-rule="evenodd" fill="#949599" d="M136.439,5.874c-0.127,1.794,1.225,2.109,1,4
		c0.664,13.336-1.329,29.329,1,41c0,0.333,0,0.667,0,1c-1.666,12.339-1.666,31.661,0,44c0.754,12.109-1.882,21.459,0,32
		c-0.85-0.184-0.943,0.39-1,1c-1.657,3.009-2.869,6.463-6,8c-0.81,0.19-0.996,1.003-2,1c-23.002-1.666-52.998-1.666-76,0
		c-2.333,0-4.666,0-7,0c-2.051-1.659-10.949-1.659-13,0c-1.666,0-3.333,0-5,0c-4.354,0.645-11.304-1.305-14,1
		c-3.096-1.135-8.904,0.318-11-4c1.279,1.388,4.722,0.612,6,2c0.935-3.399,3.082-5.585,6-7c36.967-1.367,79.756,3.089,112-3
		c4.57-32.43,0.738-73.263,2-109c2.201-1.8,5.32-2.68,7-5C137.818,9.713,133.965,6.838,136.439,5.874z"/>
	<path fill-rule="evenodd" clip-rule="evenodd" fill="#3C3939" d="M66.438,108.263c1.004,0.003,1.189-0.81,2-1
		c0.479,3.146-1.424,3.909-2,6c1,0,2,0,3,0c1.666,0,3.334,0,5,0c0.022-2.355-1.723-2.944-1-6c1.004-0.003,1.189,0.81,2,1
		c-0.755,4.755,6.682,1.319,5,7c-4.386,0.518-3.285,0.312-7,1c-5.537-0.505-8.655-0.199-12-1
		C60.46,110.286,66.801,112.627,66.438,108.263z"/>
	<path fill-rule="evenodd" clip-rule="evenodd" fill="#949599" d="M66.438,108.263c1.549-2.451,0.604-7.396,5-7
		c1.123,2.544,2.456,4.877,4,7c-0.811-0.19-0.996-1.003-2-1c-0.723,3.056,1.022,3.645,1,6c-1.666,0-3.334,0-5,0
		c4.106-1.021,1.493-2.963,2-8c-2.217-0.551-1.424,1.909-3,2C67.627,107.454,67.441,108.266,66.438,108.263z"/>
	<path fill-rule="evenodd" clip-rule="evenodd" fill="#E8E5E1" d="M68.438,107.263c1.576-0.091,0.783-2.551,3-2
		c-0.507,5.037,2.106,6.979-2,8c-1,0-2,0-3,0C67.014,111.172,68.916,110.409,68.438,107.263z"/>
	<path fill-rule="evenodd" clip-rule="evenodd" fill="#4B4D50" d="M79.438,24.155c0-0.333,0-0.667,0-1c1.184,1.483,3.777,1.556,5,3
		c-5.692-0.764-6.34,6.103-9,3C75.286,26.004,81.015,28.733,79.438,24.155z"/>
	<path fill-rule="evenodd" clip-rule="evenodd" fill="#4B4D50" d="M66.438,31.155c-3.755,7.012-12.671-0.701-13-4
		c-3.05,1.951-6.868,3.132-10,5c-0.003-1.003,0.81-1.19,1-2c1.615,0.282,1.722-0.945,3-1c3.888-1.779,7.184-4.149,12-5
		c-0.247-1.086-1.988-0.678-2-2c0.333,0,0.667,0,1,0c0.667,0,1.333,0,2,0c0,1.333,0,2.667,0,4c3.078,0.745,1.922-2.745,5-2
		C69.079,29.425,64.862,26.946,66.438,31.155z"/>
	<path fill-rule="evenodd" clip-rule="evenodd" fill="#272E31" d="M70.438,24.155c2,0,4,0,6,0c2.489,2.608-3.784,2.091-4,5
		c-0.095-1.571,0.134-3.467-2-3c0.027,3.36-1.377,5.29-3,7c0.003-1.003-0.81-1.19-1-2c-1.575-4.209,2.642-1.73-1-7
		C67.921,22.854,69.587,27.089,70.438,24.155z"/>
</g>
<g id="Button">
	<path fill="#FFFFFF" d="M280.829,126.058c0,7.828-6.346,14.173-14.173,14.173H154.985c-7.827,0-14.173-6.346-14.173-14.173V14.404
		c0-7.828,6.346-14.173,14.173-14.173h111.671c7.827,0,14.173,6.346,14.173,14.173V126.058z"/>
	<path fill-rule="evenodd" clip-rule="evenodd" fill="#CBCACC" d="M280.305,130.417c-2.085,5.771-6.667,7.43-12.249,7.437
		c-31.301,0.034-62.602,0.038-93.902,0.126c-6.486,0.019-12.973,0.5-19.459,0.495c-7.978-0.007-12.776-4.695-13.045-12.629
		c-0.223-6.619-0.385-13.249-0.264-19.868c0.148-8.145,0.943-16.284,0.887-24.422c-0.156-22.118-0.623-44.234-0.936-66.352
		c-0.023-1.717,0.193-3.438,0.298-5.156c0.467,0.019,0.934,0.037,1.401,0.057c0,39.438,0,78.876,0,118.175
		c9.064-4.029,8.365-11.551,8.318-19.161c-0.174-28.488-0.081-56.979-0.051-85.469c0.01-10.044,3.008-13.113,13.211-13.142
		c30.654-0.084,61.311-0.089,91.967-0.039c4.698,0.008,8.522-0.636,11.639-5.035c3.758-5.306,8.625-4.302,10.927,1.765
		c0.751,1.979,1.172,4.21,1.176,6.326c0.065,38.985,0.046,77.97,0.044,116.955L280.305,130.417z"/>
	<ellipse fill-rule="evenodd" clip-rule="evenodd" fill="#848486" cx="211.821" cy="69.461" rx="48.237" ry="50.268"/>
	<path fill-rule="evenodd" clip-rule="evenodd" fill="#848486" d="M184,110.682c-0.75-0.411-5.609-7.309-6.579-7.5
		c-4.613-3.721-1.665-2.582-4.78-7.8c-1.471-5.196-0.928-12.406-1-19c0-0.333,0-0.667,0-1c-2,0-4,0-6,0c0.22-3.22-1.769-4.231-1-8
		c0-1.667,0-3.333,0-5h7l0.491-2.323c0.051-0.003,0.09-0.003,0.144-0.007c0-3.333,0-6.667,0-10c0-2.162,0-5.91,0-8.307
		c1.817-2.771,4.553-5.217,5.365-7.363c2.162-3.994-5.94,3.811-7.014,8.363c-2.559,4.222,1.612,12.971-1.582,16.737l-3.138,0.641
		c0.221-0.271,0.458-0.525,0.733-0.741c-0.92-3.996,2.904-11.536-1-7c-0.002,3.998-1.998,6.002-2,10
		c-0.774,21.411,6.288,39.38,20.359,49C184.934,111.156,182.859,110.852,184,110.682z M168.641,87.382
		c-1.498-2.836-2.086-6.581-3-10c1.334,0,2.666,0,4,0C169.014,80.421,170.921,85.996,168.641,87.382z"/>
	<path fill-rule="evenodd" clip-rule="evenodd" fill="#949599" d="M277.251,6.104c-0.127,1.794,1.225,2.109,1,4
		c0.664,13.336-1.329,29.329,1,41c0,0.333,0,0.667,0,1c-1.666,12.339-1.666,31.661,0,44c0.754,12.109-1.882,21.459,0,32
		c-0.85-0.184-0.943,0.39-1,1c-1.657,3.009-2.869,6.463-6,8c-0.81,0.19-0.996,1.003-2,1c-23.002-1.666-52.998-1.666-76,0
		c-2.333,0-4.666,0-7,0c-2.051-1.659-10.949-1.659-13,0c-1.666,0-3.333,0-5,0c-4.354,0.645-11.304-1.305-14,1
		c-3.096-1.135-8.904,0.318-11-4c1.279,1.388,4.722,0.612,6,2c0.935-3.399,3.082-5.585,6-7c36.967-1.367,79.756,3.089,112-3
		c4.57-32.43,0.738-73.263,2-109c2.201-1.8,5.32-2.68,7-5C278.63,9.944,274.777,7.069,277.251,6.104z"/>
	<path fill-rule="evenodd" clip-rule="evenodd" fill="#949599" d="M256.822,47.186c-4.073-6.927-8.659-13.341-15-18
		c-0.339,0.161-0.514,0.348-0.571,0.553c-3.315-2.714-6.475-4.807-8.866-6.251c0,0,1.293-1.884-13.518-3.302
		c0.318,0,0.637,0,0.955,0c-24.32-2.908-40.578,6.759-50.03,22.484c-0.006,0.009-0.013,0.017-0.02,0.025
		c-0.666,0.843-1.227,1.888-1.706,3.072c-2.76,5.298-4.834,11.17-6.244,17.418c0,4,0,8,0,12c2.122,5.211,2.458,12.209,6,16
		c1.948,2.771,10.31,12.693,7,11c0.776,1.669,2.104,2.787,3.472,3.864c0.001,0.001,0.002,0.001,0.002,0.002
		c2.085,2.959,5.473,5.077,9.604,6.553c0.659,0.509,1.304,1.032,1.922,1.581c3.8,0.533,5.544,3.122,10,3
		c1.161,0.839,2.681,1.319,5,1c1.163-0.163,1.779,0.221,2,1c3.333,0,6.667,0,10,0c2.885-1.115,6.2-1.8,10-2
		c-0.184-0.851,0.39-0.943,1-1c3.061-0.606,5.21-2.123,8-3c-0.184-0.851,0.39-0.943,1-1c1.182-0.485,2.267-1.066,3-2
		c2.491-1.445,4.936-3.879,7.232-7.181c4.799-5.396,8.859-11.531,11.768-18.819c2.575-1.091,0.875-6.458,3-8c0-4.333,0-8.667,0-13
		C260.251,57.756,259.036,51.972,256.822,47.186z"/>
	<path fill-rule="evenodd" clip-rule="evenodd" fill="#C7C5C8" d="M248.817,40.365c-0.002-0.008-0.004-0.018-0.005-0.025
		c-0.01-0.766-0.222-1.738-0.517-2.677c-0.542-2.29-1.584-4.914-3.945-5.438c-1.619-1.407-4.387-2.995-2.564-3.859
		c0-0.333,0-0.667,0-1c-3.74,0.438,0.74,4.416-3,2c-3.117,1.734,3.406,1.508,2.915,3.054c-1.601,0.459-2.855,0.392-3.843,0.179
		c-0.749-1.692-4.054-2.442-6.072-5.232c0.981-2.802,2.668,1.452,4-1c-3.528-4.138-10.867-4.466-16-7c-1.667,0-3.333,0-5,0
		c-9.205-0.539-15.896,1.438-22,4c-1.479,0.521-2.521,1.479-4,2c-0.811,0.19-0.996,1.003-2,1c-4.235,3.431-8.833,6.5-12,11
		c0.607,3.726,2.48,6.187,5,8c-0.15,6.85-5.271,8.729-4,17c2.338-6.928,5.173-13.359,9.453-18.346
		c2.336-0.833,3.805-3.294,3.809-3.303c1.217-0.48,2.535-0.857,2.738-2.352c2.577-2.081,15.666-5.91,7-2
		c-2.544,1.123-4.877,2.456-7,4c-4.354,2.646-6.843,7.157-10,11c3.283,2.281,2.873,1.683,1,7c1.086-0.247,0.678-1.988,2-2
		c0.4-2.6,2.984-3.016,3-6c2.422-1.577,4.422-3.577,6-6c8.268-6.106,23.134-7.438,33-2c0.261,1.406,2.193,1.14,3,2
		c0.41,1.257,1.289,2.044,3,2c2.083,1.181,4.167-2.625,5,3c0.973-0.027,0.776-1.224,1-2c0.184-0.851-0.39-0.943-1-1
		c-0.529-0.805-1.043-1.623-1-3c4.438,2.896,7.466,7.201,9,13c2.634-2.057-2.053-5.214-2-8c2.54,2.659,2.54-1.924,0-2
		c3.459,0.079,5.227,0.609,2.188-3.729C247.897,42.318,249.103,41.918,248.817,40.365z M236.129,40.49
		c0.668,0.997,1.484,1.839,2.398,2.383c-0.647-0.167-1.245-0.347-1.742-0.508C236.463,41.71,236.253,41.089,236.129,40.49z
		 M241.668,43.408c1.303-0.329,2.542-0.502,3.614-0.663C244.315,43.352,243.014,43.497,241.668,43.408z"/>
	<path fill-rule="evenodd" clip-rule="evenodd" fill="#E8E5E1" d="M232.22,27.365c0.981-2.802,2.668,1.452,4-1
		c-3.528-4.138-10.867-4.466-16-7c-1.667,0-3.333,0-5,0c-9.206-0.539-15.896,1.438-22,4c-1.479,0.521-2.521,1.479-4,2
		c-2.169,5.39,0.919,0.061,3,3c-5.812,2.377-2.816,2.134-1,6c-2.487,0.154-3.096-1.571-5-2c-0.61,0.057-1.184,0.149-1,1
		c1.44,0.56,2.44,1.56,3,3c0,1.667,0,3.333,0,5c0.964-0.728,2.476-0.906,3.347-1.727c0.371,0.129,0.791,0.23,1.264,0.308
		c-0.202,0.142-0.412,0.274-0.61,0.419c0.509,2.772-5.627,5.887-1,4c1.001-1.332,1.648-3.019,3-4c-0.003,1.003,0.81,1.19,1,2
		c-1.122,0.212-1.557,1.109-2,2c0.333,0,0.667,0,1,0c8.269-6.106,23.134-7.438,33-2c0.261,1.406,2.193,1.14,3,2
		c5.121,3.208,0.215-2.331,2-3c1.877,1.789,3.762,3.571,6,5c-0.529-0.805-1.043-1.623-1-3c-0.556,0.003-1.135-0.81,0-1
		c-1.547-3.143-0.639-5.579,1-8C239.577,31.161,234.821,30.959,232.22,27.365z"/>
	<path fill-rule="evenodd" clip-rule="evenodd" fill="#FFFFFF" d="M192.323,38.435c1.268-3.76,9.044-6.252,9-8
		c-2.333-0.855-4.309,3.497-5,1c3.222-3.444,11.215-2.118,16-4c-3.236-0.431-8.65,1.315-9-2c5.355-4.506,18.865-1.24,23,2
		c-3.223-0.444-5.418-1.916-9-2c3.496,3.837,11.354,3.312,14,8c-4.145-3.075-5.094,0.098-9,2c3.357,1.308,7.627,1.706,9,5
		c-1.613-0.169-5.154-3.355-6-1c1.637-0.16,4.801,3.004,3,3c-0.334,0-0.668,0-1,0c-9.867-5.438-24.732-4.106-33,2
		c-0.334,0-0.667,0-1,0c0.443-0.891,0.877-1.788,2-2c2.941-1.392,3.783-4.883,8-5c-0.658-2.995-2.139,0.956-4,0c0-0.333,0-0.667,0-1
		C207.989,32.525,194.899,36.354,192.323,38.435z M204.323,34.435c6.111-2.019,12.113,1.019,17-1
		C215.946,32.618,208.223,31.302,204.323,34.435z"/>
	<path fill-rule="evenodd" clip-rule="evenodd" fill="#3C3939" d="M199.833,106.05c-3.221-2.779-8.107-3.893-11-7
		c-2.07,5.063-10.51,6.635-12,0c0.754-3.247,1.658-6.342,6-6c-2.248-4.752-4.495-9.505-6-15c-0.802-3.418,1.489-5.709,1-1
		c3.539,34.51,65.693,35.077,68-1c2.705,6.062-2.849,12.468-5,17c1.667,0.257,7.118,1.114,6,7c-1.315,4.112-7.878,5.119-10,1
		c-0.19-0.81-1.003-0.997-1-2c-3.305,2.695-7.615,4.385-11,7c-4.715-0.048-7.577,1.757-12,2c-0.667,0-1.333,0-2,0
		C206.784,107.766,203.881,106.334,199.833,106.05z"/>
	<path fill-rule="evenodd" clip-rule="evenodd" fill="#C9C7CA" d="M200.833,97.05c-4.474-1.193-7.717-3.617-10-7
		c1.004-0.003,1.189,0.81,2,1c2.634,2.033,5.896,3.438,9,5C202.016,96.901,201.442,96.994,200.833,97.05z"/>
	<path fill-rule="evenodd" clip-rule="evenodd" fill="#3C3939" d="M185.833,44.05c-8.464,0.351-12.364-4.706-3-10
		c-1.209,1.11-6.633,6.456-4,5c1.336-0.997,1.964-2.703,4-3c1.464,0.869,3.17,1.497,3,4c-0.41,1.257-1.289,2.044-3,2
		c0.055-1.278,1.281-1.385,1-3c-3.492-0.895-1.708,3.262-1,4c2.729,0.729,2.013-1.987,4-2c0.826-2.826-1.409-2.591-1-5
		c1.004-0.003,1.189,0.81,2,1c0,1.667,0,3.333,0,5C186.71,42.262,186.276,43.16,185.833,44.05z"/>
	<path fill-rule="evenodd" clip-rule="evenodd" fill="#3C3939" d="M237.833,35.05c1.377,0.043,2.195-0.471,3-1c0.667,0,1.333,0,2,0
		c-1.223,1.444-3.816,1.517-5,3c-0.89,2.984,1.02,8.187,3,5c-2.187-0.147-2.147-2.52-2-5c3.073-1.83,4.497,0.9,7-1
		c-1.367,0.089-1.367,7.193,0,4c0.156-1.177-0.172-2.839,1-3c0,1.667,0,3.333,0,5c-0.61,0.057-1.184,0.149-1,1
		c-2.089,1.971-6.641,0.765-9,0C235.286,39.908,236.194,37.471,237.833,35.05z"/>
	<path fill-rule="evenodd" clip-rule="evenodd" fill="#FFFFFF" d="M201.833,96.05c9.917,4.416,22.025,0.396,29-4
		c-5.218,7.415-20.904,9.757-30,5C201.442,96.994,202.016,96.901,201.833,96.05z"/>
	<path fill-rule="evenodd" clip-rule="evenodd" fill="#C7C5C8" d="M224.833,106.05c-4.715-0.048-7.577,1.757-12,2
		c0.113,0.083,0.24,0.15,0.363,0.223c-5.457-0.046-9.989-1.986-13.363-2.223c-0.609,0.057-1.184,0.149-1,1
		c2.834,0.384,11.566,3.084,16.028,1.854C222.262,110.444,237.131,101.276,224.833,106.05z"/>
	<path fill-rule="evenodd" clip-rule="evenodd" fill="#3C3939" d="M193.833,45.05c8.268-6.106,23.134-7.438,33-2
		c0.261,1.406,2.193,1.14,3,2c0.41,1.257,1.289,2.044,3,2c5.136,6.864,9.916,14.084,9,27c-2.419,7.247-6.271,13.062-11,18
		c-6.975,4.396-19.083,8.416-29,4c-3.104-1.562-6.366-2.967-9-5c-7.816-5.854-13.48-21.099-8-34c0.4-2.6,2.984-3.016,3-6
		C190.254,49.473,192.254,47.473,193.833,45.05z M185.833,79.05c8.938,27.299,53.833,21.399,54-10c0.097-18.129-13.501-29.12-31-27
		C189.932,44.34,179.589,59.983,185.833,79.05z"/>
	<path fill-rule="evenodd" clip-rule="evenodd" fill="#F8C739" d="M222.212,43.766c-7.944-3.744-16.403-2.358-22.048,0.227
		c-0.006,0.003-0.012,0.006-0.019,0.01c-25.562,10.403-17.462,53.942,12.312,53.104C240.555,96.313,249.791,53.744,222.212,43.766z"
		/>
	<path fill-rule="evenodd" clip-rule="evenodd" fill="#C7C5C8" d="M203.799,34.822c3.9-3.133,11.624-1.817,17-1"/>
	<path fill-rule="evenodd" clip-rule="evenodd" fill="#C7C5C8" d="M220.799,33.822c-4.887,2.019-10.888-1.019-17,1"/>
	<path fill-rule="evenodd" clip-rule="evenodd" fill="#FCE577" d="M236.834,65.753c-0.594-4.254-2.162-7.533-4.337-10.205
		c-2.752-4.119-7.114-8.209-13.905-9.508c-0.916-0.432-1.837-0.859-2.758-1.287c-0.444-1.65-7.556-1.65-8,0
		c-0.004,0.12-0.025,0.222-0.061,0.31c-3.939,0.446-4.061,2.37-5.939,3.433c-0.006,0.004-0.012,0.006-0.018,0.01
		c-5.487,2.17-10.07,5.245-12.713,10.261c-1.24,1.889-2.127,3.924-2.27,5.987c-0.248,3.581,9.055,4.015,16.721,3.551
		C214.098,69.095,221.819,66.503,236.834,65.753z"/>
	<path fill-rule="evenodd" clip-rule="evenodd" fill="#E8E5E1" d="M216.919,47.008c6.95,0.061,14.879,7.779,16,17
		c-7.221,2.662-10.102-0.865-15-3C215.608,51.689,223.083,54.897,216.919,47.008z"/>
	<path fill-rule="evenodd" clip-rule="evenodd" fill="#E8E5E1" d="M188.278,65.604c1.706-8.961,6.859-14.474,15-17
		C200.801,54.209,209.868,69.326,188.278,65.604z"/>
</g>
</svg>
