<?xml version="1.0" encoding="utf-8"?>
<!-- Generator: Adobe Illustrator 16.0.4, SVG Export Plug-In . SVG Version: 6.00 Build 0)  -->
<!DOCTYPE svg PUBLIC "-//W3C//DTD SVG 1.1//EN" "http://www.w3.org/Graphics/SVG/1.1/DTD/svg11.dtd">
<svg version="1.1" id="Layer_1" xmlns="http://www.w3.org/2000/svg" xmlns:xlink="http://www.w3.org/1999/xlink" x="0px" y="0px"
	 width="933.3px" height="962.7px" viewBox="0 0 933.3 962.7" enable-background="new 0 0 933.3 962.7" xml:space="preserve">
<g id="Banner_1_">
	<g>
		<path fill-rule="evenodd" clip-rule="evenodd" fill="#A4752A" d="M854.3,243.2c-6.8-3.6-10.8-6.5-11.2-14.5
			c-0.2-3.2-0.1-6.5-0.1-9.7c0-7.7,0-15.4,0-23.1c8,8.5,20.8,12.2,31.9,14.8c11.1,2.6,22.4,4.2,33.7,6.1
			c-9.1,5.8-18.2,11.7-27.3,17.5c9.4,7.5,18.8,15.1,28.3,22.3C890.9,253.2,871.4,252.4,854.3,243.2
			C847.5,239.5,862.2,247.4,854.3,243.2z"/>
		<path fill-rule="evenodd" clip-rule="evenodd" fill="#755020" d="M859,161.3c0,13.8,0,27.6,0,41.4c-5.8-2.8-15.6-6-14.9-14
			C845,176.9,851.4,169.8,859,161.3z"/>
		<g>
			<path fill-rule="evenodd" clip-rule="evenodd" d="M854.3,243.2C854.3,243.2,854.3,243.1,854.3,243.2
				C854.3,243.2,854.3,243.2,854.3,243.2C854.3,243.2,854.3,243.2,854.3,243.2z"/>
			<path fill-rule="evenodd" clip-rule="evenodd" d="M840.5,226.2c0,2.9-0.5,6.8,0.4,9.6c1.1,3.7,5,5.4,8.1,7.1
				c3.6,1.9,7.2,3.8,11,5.4c8.9,3.8,18.4,5.4,27.9,6.9c9.5,1.5,19.5,3.9,29.1,4.2c-10.5-8.3-21-16.6-31.5-25
				c10.4-6.6,20.8-13.2,31.2-19.8c-14.9-1.5-29.2-4.1-43.8-7.2c-1.9-0.4-11.4-1.6-11.4-4.4c0-6.6,0.1-13.2,0-19.7
				c-0.1-7.3-0.2-14.6,0.2-21.9c0.3-5.5,0.1-10.8-1.7-16.1c-3.8-10.9-12.4-15.8-20.9-22.6l-2-1.1l-14.6,35.6c-0.1,0-0.2-0.1-0.3-0.1
				c-0.4,0.8-0.7,1.5-1.1,2.3c7.8,3,15.6,7.4,22.6,12c2,1.3-1.2,7.5-1.6,9.8c-0.9,4.6-1.3,9.3-1.5,14
				C840.2,205.5,840.5,215.9,840.5,226.2z M858.9,161.3c0,13.8,0,27.6,0,41.4c-5.8-2.8-15.6-6-14.9-14
				C845,176.9,851.4,169.8,858.9,161.3z M857.2,158.6c-1.8,2.8-4.2,5.2-6.4,7.6c-0.6,0.6-2.5,3.6-3.4,3.7c-0.9,0.1-3.3-1.7-4.1-2.1
				c-3-1.5-5.9-3-8.9-4.5c-3.3-1.7-6.5-3.3-9.8-5l13.4-33.1c0.1,0.1,0.3,0.3,0.6,0.5c2.1,1.2,4.2,2.5,6.2,3.9
				c4.6,3.3,8.6,7.5,11.4,12.5C858.9,147.2,860.5,153.3,857.2,158.6z M843.1,219c0-7.7,0-15.4,0-23.1c8,8.5,20.8,12.2,31.9,14.8
				c11.1,2.6,22.4,4.2,33.7,6.1c-9.1,5.8-18.2,11.7-27.3,17.5c9.4,7.5,18.8,15.1,28.3,22.3c-18.7-3.4-38.3-4.2-55.3-13.4
				c0,0,0,0,0,0c0,0,0,0,0,0c0,0,0,0,0,0c-3.1-1.7-1.7-0.9,0,0c-6.7-3.6-10.7-6.5-11.1-14.5C843,225.5,843.1,222.2,843.1,219z
				 M854.9,243.5C856.6,244.4,858,245.1,854.9,243.5L854.9,243.5z"/>
		</g>
		<path fill-rule="evenodd" clip-rule="evenodd" fill="#A4752A" d="M857.6,158.7c-1.8,2.8-4.2,5.2-6.4,7.6c-0.6,0.6-2.5,3.6-3.4,3.7
			c-0.9,0.1-3.3-1.7-4.1-2.1c-3-1.5-5.9-3-8.9-4.5c-3.3-1.7-6.5-3.3-9.8-5l13.4-33.1c0.1,0.1,0.3,0.3,0.6,0.5
			c2.1,1.2,4.2,2.5,6.2,3.9c4.6,3.3,8.6,7.5,11.4,12.5C859.3,147.4,860.9,153.5,857.6,158.7z"/>
		<polygon fill-rule="evenodd" clip-rule="evenodd" fill="#D6C128" points="849.8,240.5 856.8,244.5 856.8,205 849.8,201.4 		"/>
		<polygon fill-rule="evenodd" clip-rule="evenodd" fill="#D6C128" points="863.1,247.2 859.5,245.7 859.5,206.2 863.1,207.4 		"/>
	</g>
	<g>
		<path fill-rule="evenodd" clip-rule="evenodd" fill="#A4752A" d="M585.9,240.7c-17.1,9.2-36.6,10-55.3,13.4
			c9.6-7.3,18.9-14.9,28.3-22.3c-9.1-5.8-18.2-11.7-27.3-17.5c11.2-1.9,22.6-3.4,33.7-6.1c11.1-2.6,23.9-6.3,31.9-14.8
			c0,7.7,0,15.4,0,23.1c0,3.2,0.1,6.5-0.1,9.7C596.7,234.2,592.6,237.1,585.9,240.7C578.1,244.9,592.7,237,585.9,240.7z"/>
		<path fill-rule="evenodd" clip-rule="evenodd" fill="#755020" d="M596.2,186.3c0.7,8-9.1,11.2-14.9,14c0-13.8,0-27.6,0-41.4
			C588.8,167.3,595.2,174.4,596.2,186.3z"/>
		<g>
			<path fill-rule="evenodd" clip-rule="evenodd" d="M585.9,240.7C585.9,240.7,585.9,240.7,585.9,240.7
				C585.9,240.7,585.9,240.7,585.9,240.7C585.9,240.7,585.9,240.7,585.9,240.7z"/>
			<path fill-rule="evenodd" clip-rule="evenodd" d="M599.7,192.7c-0.2-4.7-0.6-9.4-1.5-14c-0.5-2.2-3.6-8.5-1.6-9.8
				c7-4.6,14.8-9,22.6-12c-0.4-0.8-0.7-1.5-1.1-2.3c-0.1,0-0.2,0.1-0.3,0.1l-14.6-35.6l-2,1.1c-8.6,6.7-17.1,11.7-20.9,22.6
				c-1.8,5.2-2,10.6-1.7,16.1c0.4,7.3,0.3,14.6,0.2,21.9c-0.1,6.6,0,13.2,0,19.7c0,2.8-9.5,4-11.4,4.4c-14.6,3.1-28.9,5.7-43.8,7.2
				c10.4,6.6,20.8,13.2,31.2,19.8c-10.5,8.3-21,16.6-31.5,25c9.6-0.4,19.6-2.7,29.1-4.2c9.5-1.5,19-3.1,27.9-6.9
				c3.8-1.6,7.4-3.4,11-5.4c3.1-1.7,7-3.4,8.1-7.1c0.9-2.8,0.4-6.7,0.4-9.6C599.7,213.4,600,203,599.7,192.7z M596.2,186.3
				c0.7,8-9.1,11.2-14.9,14c0-13.8,0-27.6,0-41.4C588.8,167.3,595.2,174.4,596.2,186.3z M584.1,139.6c2.8-5,6.8-9.1,11.4-12.5
				c2-1.4,4-2.7,6.1-3.9c0.3-0.2,0.5-0.3,0.6-0.5l13.4,33.1c-3.3,1.7-6.5,3.3-9.8,5c-3,1.5-5.9,3-8.9,4.5c-0.8,0.4-3.2,2.2-4.1,2.1
				c-0.9-0.1-2.8-3.1-3.4-3.7c-2.2-2.4-4.7-4.8-6.4-7.6C579.8,150.8,581.3,144.7,584.1,139.6z M597,226.2c-0.4,8-4.4,10.8-11.1,14.5
				c1.7-0.9,3.1-1.7,0,0c0,0,0,0,0,0c0,0,0,0,0,0c0,0,0,0,0,0c-17.1,9.2-36.6,10-55.3,13.4c9.6-7.3,18.9-14.9,28.3-22.3
				c-9.1-5.8-18.2-11.7-27.3-17.5c11.2-1.9,22.6-3.4,33.7-6.1c11.1-2.6,23.9-6.3,31.9-14.8c0,7.7,0,15.4,0,23.1
				C597.1,219.7,597.2,223,597,226.2z M585.3,241C582.2,242.6,583.7,241.9,585.3,241L585.3,241z"/>
		</g>
		<path fill-rule="evenodd" clip-rule="evenodd" fill="#A4752A" d="M583.7,139.8c2.8-5,6.8-9.1,11.4-12.5c2-1.4,4-2.7,6.1-3.9
			c0.3-0.2,0.5-0.3,0.6-0.5l13.4,33.1c-3.3,1.7-6.5,3.3-9.8,5c-3,1.5-5.9,3-8.9,4.5c-0.8,0.4-3.2,2.2-4.1,2.1
			c-0.9-0.1-2.8-3.1-3.4-3.7c-2.2-2.4-4.7-4.8-6.4-7.6C579.4,151,580.9,144.9,583.7,139.8z"/>
		<polygon fill-rule="evenodd" clip-rule="evenodd" fill="#D6C128" points="590.4,238 583.4,242 583.4,202.5 590.4,198.9 		"/>
		<polygon fill-rule="evenodd" clip-rule="evenodd" fill="#D6C128" points="577.1,244.7 580.7,243.2 580.7,203.7 577.1,205 		"/>
	</g>
</g>
<g id="Shield_1_">
	<path d="M721.4,293.9c-1,0-2-0.4-3.1-1.2c-3.6-2.5-7.2-4.9-10.8-7.3c-6.4-4.3-13-8.7-19.2-13.4c-23.9-18.4-44.6-41.2-61.6-67.8
		c-1.7-2.9-17-29.5-27.3-56.3c-0.1-0.3-0.2-0.6-0.3-1c-3.2-9.2-6-18.7-8.2-28.4c-0.3-2-0.7-3.9-1.2-5.6c-3.4-16.5-5.3-33.8-5.7-51.4
		c-0.1-4,1.1-6,4.5-7.8C625.2,33.5,677,20,720.4,19.2l0.7,0l0.3,0c46.6,0.8,93.8,13,132.9,34.4c3.4,1.9,4.6,3.9,4.5,7.8
		c-0.4,17.6-2.3,35-5.7,51.5c-0.5,1.6-0.9,3.5-1.2,5.5c-2.2,9.6-5,19.2-8.2,28.4c-0.1,0.4-0.2,0.7-0.3,1.1
		c-10.3,26.8-25.6,53.3-27.3,56.3c-17,26.5-37.7,49.3-61.6,67.8c-6.2,4.8-12.8,9.2-19.2,13.4c-3.5,2.4-7.2,4.8-10.8,7.3
		C723.3,293.5,722.3,293.9,721.4,293.9L721.4,293.9z M720.6,23.9c-19.5,0.7-56.1,3.5-86.7,14.9c-9,3.4-17.9,7.5-26.6,11.5
		c-4.5,2.1-9.1,4.2-13.7,6.2c-4.3,1.9-4.9,5.2-4.8,8.3c0.9,41.7,11.6,82,32,119.8c20.8,38.5,49.7,70.5,85.9,94.9
		c0.9,0.6,1.9,1.3,2.8,1.9c2.6,1.8,5.2,3.6,7.9,5.3c0.7,0.4,1.5,0.4,2.4,0.5c0.4,0,0.9,0,1.4,0.1l0.1,0l0.1,0c0.5-0.1,1-0.1,1.4-0.1
		c0.9,0,1.7,0,2.4-0.5c2.7-1.7,5.3-3.5,7.9-5.3c0.9-0.6,1.9-1.3,2.8-1.9c36.3-24.5,65.2-56.4,85.9-94.9c20.3-37.7,31.1-78,32-119.8
		c0.1-3-0.5-6.4-4.8-8.3c-4.6-2-9.2-4.1-13.7-6.2c-8.6-4-17.5-8.1-26.6-11.5c-31.1-11.5-67.5-14.3-86.5-14.9l-0.3,0
		c-0.2,0-0.5,0-0.6,0v0L720.6,23.9L720.6,23.9z"/>
	<path fill="#EAEAEA" d="M723.2,23.7c-19.7,0.7-59,3.7-89.1,14.9c-9,3.4-17.9,7.5-26.6,11.5c-4.5,2.1-9.1,4.2-13.7,6.2
		c-4.3,1.9-4.9,5.2-4.8,8.3c0.9,41.7,11.6,82,32,119.8c20.8,38.5,49.7,70.5,85.9,94.9c0.9,0.6,1.9,1.3,2.8,1.9
		c2.6,1.8,5.2,3.6,7.9,5.3c0.6,0.4,4.3,0.6,5.2,0.7L723.2,23.7z"/>
	<path fill="#B2B2B2" d="M849,56.3c-4.6-2-9.2-4.1-13.7-6.2c-8.6-4-17.5-8.1-26.6-11.5c-30.7-11.4-66.7-14.2-85.9-14.9v263.1
		c0.9,0,1.6-0.1,2.3-0.5c2.7-1.7,5.3-3.5,7.9-5.3c0.9-0.6,1.9-1.3,2.8-1.9c36.3-24.5,65.2-56.4,85.9-94.9
		c20.3-37.7,31.1-78,32-119.8C853.9,61.5,853.4,58.2,849,56.3z"/>
</g>
<g>
	<path fill="#D31F26" d="M716,65.9c-1-0.8-2.3-1.5-3.5-2.1c-9.5,2.9-15.5,3.5-16.5-3.2c-0.3-1.1-1.4-1.9-2.3-1.9
		c-0.9,0-1.6,0.7-1.1,2.8C697.6,73.2,706.1,65.4,716,65.9z"/>
	<path fill="#D31F26" d="M714.3,52.9c-10.9-0.7-14.5,3.1-11,11.3c2.5-5.9,16.1-0.2,17.9,5.1c-11.9-4.8-14.1,0.7-15.8,2.9
		c2.7-1.7,18.3,0.8,27.1,2.7l-9.7-23.2L714.3,52.9z"/>
	<path fill="#D31F26" d="M700.8,165.6l-21.2,26.1c-1.2-2-2.1-5-3.1-7.6l-9.3-3.9c-0.2,0.1-0.3,0.2-0.5,0.3l-0.9-0.9
		c-0.9-1.4-5-1.9-7.2,1.8c1.9-0.3,3.4-0.1,4.2,0.8l1.3,0.9c-0.4,0.5-0.8,1-1.2,1.6c0.8,1,1.9,1.3,2.9,1.7c1.5-0.7,2.9-0.9,4.4-0.6
		c1.6,2.4,2.1,4.2,3,6.2c-2.6-0.8-5.8-2.4-10.1-4.3c-2.5,1.3-5.1,3-8.1,3.2c0.2,0.5,0.4,1.1,0.4,1.6c0,0,0,0,0,0
		c-1.4-0.1-3.3-0.2-3.8-0.1c-1.4,0.2-2.3,1.6-2.2,4.1c0.1,0.8,0.1,1.7,0.9,2c1-3.5,1.8-2.6,2.6-2.6c0.4,0,1.2,0.1,2,0.2
		c-0.1,0.4-0.2,0.8-0.4,1.2c0.6,1.5,1.7,1,2.3,1.3c4.3-3.1,4.6-3.8,6.7-3.7c4.3,0.3,5.7,0.8,8.2,1.3c-2.5,2.4-5.4,5.1-8.6,5.9
		c-0.5,0.7-0.5,1.6-0.4,2.6c0,0,0.1,0,0.1,0.1c-2.4,1.6-4.4,3.1-1.8,7.4c0.3-2.5,1.5-3.2,3-3.6c0,0.2-0.1,0.3-0.1,0.5
		c0.3,0.4,1.2,0.5,2.1,0.6c2.4-3.3,3.7-3.2,5.4-4.5c1.3-1.3,1.7-2.9,2.9-3.7c4.2-2.8,7.9-3.6,11.1-3c3.8,1.8,6.1,2.7,8.9,3
		c0.1-0.6,0.7-0.3,0.4-1.7c-0.2,0-0.3-0.1-0.5-0.2c1.2-1.3,2.8-1.6,5-0.4c-0.4-3.7-2.7-4.6-7.1-2.6c-0.2-0.3-0.4-0.6-0.6-0.9
		c-2.7-0.2-5.7,0.1-7.3-2.1l23.5-23.6L700.8,165.6z"/>
	<path fill="#D31F26" d="M797,192.4c-0.5-0.1-2.3,0-3.8,0.1c0,0,0,0,0,0c0.1-0.5,0.2-1,0.4-1.6c-3-0.2-5.7-1.9-8.1-3.2
		c-4.2,2-7.4,3.5-10.1,4.3c0.9-2,1.3-3.8,3-6.2c1.4-0.4,2.9-0.1,4.4,0.6c1.1-0.4,2.1-0.7,2.9-1.7c-0.4-0.6-0.8-1.1-1.2-1.6l1.3-0.9
		c0.8-0.8,2.2-1.1,4.2-0.8c-2.2-3.7-6.2-3.3-7.2-1.8l-0.9,0.9c-0.2-0.1-0.3-0.2-0.5-0.3l-9.3,3.9c-1,2.6-1.9,5.6-3.1,7.6l-21.2-26.1
		l-7.1,4.3l23.5,23.6c-1.6,2.2-4.6,1.9-7.3,2.1c-0.2,0.3-0.4,0.6-0.6,0.9c-4.4-2-6.8-1.1-7.1,2.6c2.2-1.2,3.8-0.8,5,0.4
		c-0.2,0.1-0.3,0.2-0.5,0.2c-0.2,1.4,0.3,1.1,0.4,1.7c2.8-0.3,5.1-1.2,8.9-3c3.2-0.6,6.9,0.2,11.1,3c1.2,0.8,1.7,2.4,2.9,3.7
		c1.7,1.3,3,1.1,5.4,4.5c0.9-0.1,1.8-0.1,2.1-0.6c0-0.2-0.1-0.4-0.1-0.5c1.5,0.4,2.8,1.1,3,3.6c2.6-4.3,0.6-5.8-1.8-7.4
		c0,0,0.1,0,0.1-0.1c0.1-1,0.1-1.9-0.4-2.6c-3.3-0.8-6.1-3.5-8.6-5.9c2.5-0.4,3.9-0.9,8.2-1.3c2.1,0,2.4,0.6,6.7,3.7
		c0.7-0.3,1.7,0.1,2.3-1.3c-0.1-0.4-0.2-0.8-0.4-1.2c0.8-0.1,1.6-0.2,2-0.2c0.8-0.1,1.7-0.9,2.6,2.6c0.7-0.3,0.8-1.1,0.9-2
		C799.3,194,798.4,192.6,797,192.4z"/>
</g>
<path fill-rule="evenodd" clip-rule="evenodd" fill="#20438B" d="M808.3,104.2c2.2,1.5,3.4,2.2,5.5,2.8c4.7,1.4,10.3,0,12.4-2
	c0.4-0.3-6-3.4-12.2-8.4c-3.4-2.8-6.9-6.3-9.9-8.9c-3.4-2.9-6.2-4.8-6.6-5.4c-0.5-0.8,5.8,1.2,7.8,1.3c3.6,0.2,6.9,0.4,9.8-0.1
	c1.4-0.2,4.4-1.4,6.6-3c2.7-2,5-4.7,5.1-5.3c-1.9,0.5-11,0.1-30.4-6c2.2-1,16.2-1.9,22.4-19.4c-9.2,3.8-21.2,8.4-21.2,8.4l-10.6,1.6
	c0,0-17.5,15.3-6.7,31s-24,24.8-31.9,19.1l-1.3-1.2c-0.4-1.6-1.1-2.6-2.3-3c-1.4-0.8,1.4,0.5-1.9-1l0,0c7.4,1.5,4.1,0.8,1.7-1
	c-6.9-6.8-1.4-3,0.6-2.7c-4.9-8.6-4.9-15.1-3.8-18.4l1.5,4.2l1.8-8.1l3.4,3.1c-0.7-3.6-1.3-7.3-3-9.1c2.9,0.6,4.9,0.6,5.2,0.4
	c0.7-0.4-3-1.9-3.2-4.5c2.4,0.3,3.6-0.1,5.5-2.2c0.6-0.6-2.7,0.7-2.5,0.3c-7.1-6.6-0.5-3.4-0.3-4.8c-10.1-5.5-2.3-3.7-2.8-5.3
	c-7.5-3.3-4.7-1.6-1.6-5.8c-1.7,0.5-4.2,1.2-7.3,0.7c0-0.6-5.6-2.2-14.5-2.4c-3.1-0.1-5.1,0.2-5.3,3.2c11.3,13.3,11.2,18.5,5.5,19.7
	c1.4,2.7,2.3,4.3,1.9,5.2c-0.7,1.4-4.4,2.7-12.5,7.3c3.8,1.3,12.1-2.9,0,5c-7.9,3.7-1.7,2.3,0.9,2.1c-1.9,2.9-4.1,5.7-7.7,8.4
	l1.8,1.7c-10.3,3.3-2.2,1.7-2.7,2.4c-0.3,0.1-0.5,0.2-0.7,0.4l-12.4,6.2c-7.9,5.7-40.1-2.4-29.3-18s-6.7-31-6.7-31l-10.6-1.6
	c0,0-12-4.5-21.2-8.4c6.2,17.5,20.2,18.4,22.4,19.4c-19.4,6-28.5,6.5-30.4,6c0,0.5,2.4,3.2,5.1,5.3c2.2,1.7,5.2,2.8,6.6,3
	c3,0.5,6.3,0.3,9.8,0.1c2-0.1,8.3-2.1,7.8-1.3c-0.4,0.6-3.2,2.6-6.6,5.4c-3,2.5-6.5,6.1-9.9,8.9c-6.1,5.1-12.5,8.1-12.2,8.4
	c2,2,7.7,3.3,12.4,2c2-0.6,3.3-1.3,5.5-2.8c1.7-1.2,4.1-3.5,5.5-4.7c2.7-2.4,5.2-4.4,6.7-5.8c0,1.1-0.8,2.2-1.8,4.1
	c-12.7,23.7-27.2,47.8-27.2,47.8c12.2,0.7,19-11.7,24.9-19.3c7.4-9.7,5.7-7.7,7.4-9.9s-0.4,1.4-3.8,9.6c-4.1,9-4,15.8-5.5,25.3
	c-1.1,7-2.8,15.4-2.9,14.4c-0.2,2.4-3.8,11.9-8.7,24.7c5.7-0.5,10-1.5,13.1-4.7c2.3-3.4,1.9-3.4,3.3-7.1c2.6-6.1,4.5-11.9,6.4-17.5
	c4-11.7,6.8-22,9.6-29.2l-0.1,7.8c0.3,3.6,0.7,12.1-0.1,17.1c-1.8,12.3-1.3,14-6.2,19.9c18.9-2.9,24.7-18.8,24.3-34.3
	c1.6,11.6,2.3,12.3,3.8,22.2c3.8-2.1,5.9-4.3,6.8-8.5c0.8-11.7,2.6-11.2,3.5-21.2l8.7-11.8c0.8,8.2,2.3,18.4,4,30
	c-2.1,2.5-6.5,7.5-6.8,7.9l-4.8,1.9l2.4,0.7c-1.3,1.3-2.9,2.9-6.5,4.6l1.5,1.3l-2.9,1.9c3.2,3.4,10.9,3.7,10.3,11.5
	c1.6-6.1,2-2.3,2.9-0.6c0.8-3,1.8-5.4,3-7.4c5.8-3.2,9.2,3.3,10.4,9.4c0.7,4.7,0.9,9.1,1,10.9c0.1,3.2,1.2,5-2.2,5.6
	c-3.2,0.6-6.5-1.5-7.3-4.7c-0.3-1.3-0.4-3.2,0.5-4.3c1.1-1.2,2.7-0.4,4.1-0.4c-2.8-4-8.7-2-10.2,2.2c-1.5,4.2,1.4,6.4,3.5,9.5
	c-0.7-0.2-1.4-0.4-2.2-0.5v-0.1c-6.5-0.8-16.5,1-21.7,5.6c-6,5.2-8.2,14-2.1,20c2.2,2.2,5.7,3.1,8.7,2c3.2-1.2,5.9-5.1,4.4-8.6
	c-1.4-3.2-6-3.8-7.9-0.8c-1.6,2.6,1.6,6.3,4.2,4.1c1-0.8,1-2.9-0.6-3.1c-1.8-0.1-1.7,2.9-0.4,1.3c0.8-1,1,0.3,0.6,0.9
	c-1.2,1.7-3.3-0.1-3.3-1.6c0-3.1,4.1-3.7,5.8-1.6c2,2.4,0.8,6-1.5,7.7c-7,5.2-14.1-4.2-10.6-10.8c2-3.7,4.4-5.9,8.7-6.5
	c2.1-0.3,4.3-0.5,6.4-0.3c1.2,0.2,3.1,0.4,4.6,0.8c0.3,0.1,0.6,0.2,0.9,0.3c0.2,0.1,0.3,0.1,0.4,0.2V214c0,0,0.1,0,0.1,0
	c0,0-0.1,0-0.1,0.1c-2,1.2-4.3,2.1-5.2,4.3c-0.7,1.7-1.7,4.7,0.5,5.7c1.4-4.8,6.7-5.7,11.1-6.4c2.5-0.4,5.1-0.4,7.3-1.7
	c2-1.2,3.8-2.7,5.6-4.2c0.6,0.5-12,17.3-4.4,16.5c-1.4-2.3,1.2-4.3,2.6-5.7c1.6-1.6,2.7-3.2,3.9-5.1c0.2,2.7-1.7,6.6-3,9
	c-1.2,2.4-3.6,4.4-6.1,5.1c-2.6,0.7-6.7-0.5-6.9-3.7c-0.1-1.2,0.3-2.2,1.2-2.9c0.9-0.8,1.5-0.2,2.6-0.3c-0.9-4.1-6.7-0.2-7.6,1.9
	c-1.5,3.4-0.5,7.5,2.5,9.7c6.7,4.9,13-0.5,17.1-5.7c0,1.3,0,1.9-0.3,3.1l0.2,1.5c-0.5,2.9-1.2,5.3-3.4,7.6c-1.3,1.4-7.6,4.2-6.8-0.2
	c-2.3,1.1-0.3,4.2,1.2,5.3c2.6,2,5.8-0.3,8.2-1.5c0.4,1.6,0.1,3.2,0.7,4.9c0.5,1.3,1.2,2.5,1.8,3.7v-3.1c0.1,0.2,0.3,0.4,0.4,0.6
	v0.8c0.1-0.1,0.2-0.3,0.3-0.4c0.1,0.1,0.2,0.3,0.3,0.4v-0.8c0.1-0.2,0.3-0.4,0.4-0.6v3.1c0.7-1.2,1.3-2.5,1.8-3.7
	c0.6-1.6,0.3-3.3,0.7-4.9c2.4,1.2,5.6,3.5,8.2,1.5c1.4-1.1,3.5-4.2,1.2-5.3c0.8,4.4-5.6,1.6-6.8,0.2c-2.1-2.3-2.9-4.7-3.4-7.6
	l0.2-1.5c-0.3-1.3-0.3-1.8-0.3-3.1c4.1,5.2,10.4,10.7,17.1,5.7c3-2.2,4-6.3,2.5-9.7c-0.9-2.1-6.7-5.9-7.6-1.9
	c1.1,0.1,1.6-0.4,2.6,0.3c0.9,0.7,1.3,1.8,1.2,2.9c-0.3,3.1-4.4,4.4-6.9,3.7c-2.6-0.7-4.9-2.8-6.1-5.1c-1.3-2.4-3.2-6.3-3-9
	c1.2,1.9,2.3,3.5,3.9,5.1c1.4,1.4,4,3.4,2.6,5.7c7.6,0.8-4.9-16-4.4-16.5c1.8,1.5,3.6,3,5.6,4.2c2.3,1.3,4.8,1.4,7.3,1.7
	c4.4,0.7,9.7,1.6,11.1,6.4c2.2-0.9,1.2-4,0.5-5.7c-0.9-2.2-3.3-3.2-5.2-4.3c0,0-0.1,0-0.1-0.1c0,0,0.1,0,0.1,0v0.1
	c0.1-0.1,0.3-0.1,0.4-0.2c0.3-0.1,0.6-0.2,0.9-0.3c1.5-0.4,3.4-0.7,4.6-0.8c2.1-0.3,4.3,0,6.4,0.3c4.2,0.6,6.7,2.8,8.7,6.5
	c3.5,6.6-3.6,15.9-10.6,10.8c-2.3-1.7-3.4-5.3-1.5-7.7c1.7-2.1,5.8-1.5,5.8,1.6c0,1.5-2.1,3.3-3.3,1.6c-0.4-0.6-0.2-1.9,0.6-0.9
	c1.3,1.6,1.4-1.4-0.4-1.3c-1.6,0.1-1.6,2.2-0.6,3.1c2.6,2.2,5.8-1.6,4.2-4.1c-1.9-3-6.6-2.4-7.9,0.8c-1.5,3.4,1.3,7.3,4.4,8.6
	c3,1.2,6.5,0.2,8.7-2c6.2-6.1,3.9-14.8-2.1-20c-5.2-4.6-15.2-6.4-21.7-5.6v0.1c-0.7,0.1-1.5,0.3-2.2,0.5c2.1-3,5-5.2,3.5-9.5
	c-1.5-4.2-7.3-6.1-10.2-2.2c1.4,0,3-0.8,4.1,0.4c1,1.1,0.8,3,0.5,4.3c-0.8,3.1-4.1,5.2-7.3,4.7c-3.3-0.6-2.2-2.4-2.2-5.6
	c0-1.9-0.5-7.3,0.4-12.3h0.2c0-0.2,0-0.3-0.1-0.5c1-4.9,3.4-9.3,9.2-9c2.2,1.4,4.1,3.9,5.4,8.8c1-1.7,1.3-5.5,2.9,0.6
	c-0.6-7.8,7.1-8.1,10.3-11.5l-2.9-1.9l1.5-1.3c-3.6-1.7-5.2-3.2-6.5-4.6l2.4-0.7l-4.8-1.9c-0.2-0.3-4.3-4.5-7.6-7.9
	c1.6-10.5,3.4-19.7,4.6-27.2l3.7,7.2c0.8,9.9,2.6,9.4,3.5,21.2c0.9,4.2,3.1,6.4,6.8,8.5c1.6-9.9,2.3-10.6,3.8-22.2
	c-0.4,15.5,5.4,31.4,24.3,34.3c-4.9-5.9-4.4-7.6-6.2-19.9c-0.7-5.1-0.4-13.5-0.1-17.1l-0.1-7.8c2.8,7.3,5.6,17.6,9.6,29.2
	c1.9,5.6,3.8,11.4,6.4,17.5c1.4,3.6,1,3.7,3.3,7.1c3.1,3.1,8,5.8,13.7,6.3c-4.9-12.8-9.2-23.9-9.3-26.3c0,1-1.7-7.4-2.9-14.4
	c-1.5-9.4-1.4-16.3-5.5-25.3c-3.4-8.3-5.4-11.8-3.8-9.6s-0.1,0.2,7.4,9.9c5.8,7.6,12.7,20,24.9,19.3c0,0-14.5-24-27.2-47.8
	c-1-1.9-1.8-3-1.8-4.1c1.6,1.4,4.1,3.4,6.7,5.8C804.2,100.8,806.6,103.1,808.3,104.2z"/>
<circle id="Eye_1_" fill="#EFEEEE" cx="731.9" cy="57.8" r="2.8"/>
<g>
	<path fill="#010101" d="M361,152.5c-8.2-12.4-12.3-27.2-12.3-43.9c0-6.6,0.7-13.8,2-21.3l21.5-21.8c5.8,5.1,12.3,9.1,19.2,12
		l-1.7,35.2c0,0.9-0.1,1.7-0.1,2.6c0,7.9,1.7,14.8,5.2,20.8l-8.7,15.8l-10.6-15L361,152.5z M366.2,131.9c1.5,1.7,3.1,2.1,4.1,2.1
		c1.5,0,3-0.8,4.6-2.4c2.6-2.6,4-6.8,4.1-12.9l0.7-29.9l-1.7-0.5c-4.9-1.4-9.4-3.9-13.4-7.4l-2.1-0.5l-1.6,2.1
		c-1.3,9-1.9,17-1.9,23.9C359,119.6,361.4,126.5,366.2,131.9z"/>
	<g>
		<path fill="#010101" d="M145.5,37.9c-2.9-2.6-6.3-4.6-10.1-5.9l-1,28.2l8.9-4.8L145.5,37.9z"/>
		<path fill="#010101" d="M167.5,38c-3-2.5-6.4-4.6-10-6.2l-5,26.6l6.7-0.8L167.5,38z"/>
		<path fill="#010101" d="M163,114.7l1.7-35.2c-6.9-2.9-13.3-6.9-19.2-12l-21.5,21.8c-1.3,7.6-2,14.7-2,21.3
			c0,16.7,4.1,31.4,12.3,43.9l14.4-15.7l10.6,15l8.7-15.8c-3.4-5.9-5.2-12.9-5.2-20.8C163,116.4,163,115.6,163,114.7z M152.6,120.8
			c-0.1,6.1-1.5,10.3-4.1,12.9c-1.6,1.6-3.1,2.4-4.6,2.4c-1.1,0-2.7-0.4-4.1-2.1c-4.8-5.3-7.2-12.2-7.2-25.5
			c0-6.8,0.6-14.8,1.9-23.9l1.6-2.1l2.1,0.5c4,3.5,8.5,6,13.4,7.4l1.7,0.5L152.6,120.8z"/>
		<path fill="#010101" d="M197.5,78.5l-12.8-10.8l-7.1,12.8c2.5,2.9,3.9,5.9,4,9l0.1,34.6c-0.1,4.1-1.1,8.1-3.1,12l16,17.9l8-16.2
			c-1.5-1.3-3.3-3.1-5.4-5.6c-3.3-3.8-4.9-7.7-4.7-11.5l1.2-31.3l3.6-4.9l2.1-0.4c4.7,4,8.2,7.9,10.2,11.8c1.2,2.3,2.3,4.8,3.3,7.6
			l6.9-13.3c-2.7-7.2-7.5-14.4-14.2-21.5L197.5,78.5z"/>
		<path fill="#010101" d="M299.2,133.6c-1.5-2.3-2.3-5.1-2.3-8.5l0-0.9l0.8-29.2l1.7-9.5l-17-18.8l-9.5,17l-16-17l-5,9.7l-5.2,6.4
			v-4.5l-10.6-10.5L229,80.6c2.7,2.9,4,6,4,9.1l-0.5,40.8c0,4-1,8.1-3,12.1l10,11.7l9.8-17.2c-1.1-1-2.2-2.2-3.1-3.7
			c-1.6-2.4-2.3-5.5-2.3-9.2l0.6-29.6l5.6-9.6l2,2.3c5.4,6.3,7.9,6.5,7.9,9.9l-0.4,33.3c-0.1,4.1-1.1,8.2-3.1,12l10.1,11.7l9.8-17.2
			c-1.1-1-2.2-2.2-3.1-3.6c-1.5-2.3-2.3-5.2-2.3-8.7l0-0.6l1-28.6l4.2-10.4l2.4,2.9c5,6.1,7.3,10.3,7.3,13.5l-0.4,28.9v1.9
			c0,9.8,1.1,13.7,2.1,15.3c1.2,2,2.8,4.2,4.8,6.6l9.8-17.2C301.1,136.1,300.1,134.9,299.2,133.6z"/>
		<path fill="#010101" d="M329.2,121.8l0.3-52.8c0-8,0.1-15.9,0.3-23.6c0.1-5.8,0.5-11.4,1.2-16.9l-14.8,11.6
			c1.3,3.6,2,7.9,2.3,12.7c0.2,5.4,0.3,10.2,0.3,14.1l-0.3,54.5c0,2.9-0.5,6-1.5,9.3c-0.8,2.8-2.4,5.8-4.7,8.9l7.7,8.5
			c2.4,2.7,4.9,5.4,7.3,8c2.3-3.6,6.1-9.6,11.2-17.7c-6.1-5.5-7.3-6.7-7.7-7C329.7,130.2,329.2,128.3,329.2,121.8z"/>
		<path fill="#010101" d="M450.3,133.5c-1.5-2.3-2.3-5.2-2.3-8.7l0-0.6l0.8-29.2l1.7-9.5l-17-17.7l-6.6,11.7h-2.1l-11.9-11.8
			l-7.1,12.8c2.7,2.9,4,6,4,9.1l-0.5,40.8c0,4-1,8.1-3,12.1l10,11.7l9.8-17.2c-1.1-1-2.2-2.2-3.1-3.6c-1.5-2.3-2.3-5.2-2.3-8.7
			l0-0.6l1.2-34.5l2.7-6.1h4.3c5.5,6.2,8,10.4,8,13.6l-0.4,33.3v1.9c0,9.8,1.1,13.7,2.1,15.3c1.2,2,2.8,4.2,4.9,6.6l9.8-17.2
			C452.3,136.1,451.3,134.9,450.3,133.5z"/>
		<path fill="#010101" d="M92,25.3c-3.7,5.1-7.1,9.4-10.2,13.1l4.6,28.3c3.8,11,6.4,21.4,7.7,31c0.4,3.1,0.7,6.1,0.7,9
			c0,10.3-3.8,16.1-9.2,23.7l-1.1,1.6l-1.7-0.9c-5.7-3.1-9.3-2.6-12.7-4.9l-1.1-0.7L70,79.8L68.3,60L53.1,37.9
			c-3,5.7-6.1,10.9-9,15.5l3.6,9.7c1.9,3.4,4.3,7.6,7.2,12.4l0.3,0.5l0,0.6c0.2,2.7,0.3,3.6,0.4,4.2c0.2,1.2,0.3,1.9,0.3,7.4
			c0,9.2-0.5,21.8-1.6,37.5l0,0.5l-0.2,0.5c-2.6,5.2-6.1,7.8-10.3,7.8c-3.7,0-7-3.4-14.1-8.1l-1.9-1.2l1.1-2.1
			c10.2-19.3,10.3-26.4,10.3-29.9c0-3.9-1.2-9.6-3.6-17.1l-0.1,0.2l-9.2-25.6l0.4-0.5c-0.7-3.1-1.1-6-1.1-8.5
			c0-5.1,2.4-11.7,7.2-20.1c-0.7-0.3-1.5-0.6-2.2-0.8c-1.1-0.4-2.2-0.8-3.3-1.3L11.7,40.5c-2.6,3.6-3.3,5.9-3.5,7.1l0,0.1l0,0.2
			c0,0-0.1,0.4-0.1,2c0,0.5,0.2,2.3,1.8,7.9l13.5,47c1,3.2,1.6,6.5,1.6,9.9c0,3.6-1.2,7.7-3.7,12.4c-2.1,4-5.6,9.7-10.6,17.1
			c7.5,2.9,17.7,6.6,30.3,11.1l9.2-17l1.9,1c10.2,5.5,19.2,10.7,26.8,15.6c4-7.1,8-14.2,12.1-21.3c4.4-7.7,8.5-15.2,12.1-22.4
			c3.5-6.9,5.2-14.4,5.2-22.5c0-5-0.6-10.4-1.7-16.1C103.7,58.3,98.8,42.3,92,25.3z"/>
		<path fill="#010101" d="M499.9,132.4c2.3-2.8,4.9-5.7,7.6-8.7C505.8,90,498,60.2,484.1,35l-12.8,9.7c4.8,8.1,8.7,15.8,11.7,23.2
			l0.8,1.9l-1.6,1.2c-3.4,2.5-9.8,6.9-19.2,13.1l0.2,26c0.1,8.8,0.2,17.7,0.4,26.4c3.5,4.5,7.4,8.2,11.5,10.9
			c3.8,2.5,7.6,5,11.4,7.4c2.1-5.6,4.6-10.5,7.4-14.6L499.9,132.4L499.9,132.4z M474.9,125.8l-0.5-0.6l-0.1-0.8
			c-0.8-7.8-1.3-14.4-1.3-19.4c0-5,0.2-9.1,0.5-12.4c1-8.9,5-10.8,10.2-14.4l2.3-1.6l1,2.8c6.4,17.6,8.8,32.1,9,51.6l-5.1,6.2
			C485.6,135.7,480.2,131.9,474.9,125.8z"/>
	</g>
</g>
<path d="M839.8,734.2c2.6-4.8,2.5-15.8-0.2-44.9c-0.5-5.8-1-11.2-1-13.1c0.1-5.6-2.6-9.6-4.6-12.5c-1.5-2.1-2.4-3.5-2.2-4.6
	c0.6-3.3,0.8-6.5,1-9.6c0.3-5.2,0.6-9.7,2.7-13.3c4.7-8.2,3.9-15.3-2.9-23.8c-9.6-12-14.2-19.2-17.8-32.4
	c-2.1-7.9-4.7-17.7-14.5-22.8c-2.1-1.1-3.9-2.1-5.3-2.9c-3.8-2.1-5.4-3-7.3-3c-1.4,0-2.7,0.5-3.6,1.5c-1.2,1.3-1.5,2.7-1.5,4.5
	c-7.6-8.9-13.9-25.3-18-36.1c-0.9-2.4-1.8-4.7-2.6-6.6c-3.4-8.4-8.9-14.4-14.2-20.3c-5.4-6-10.6-11.7-13-19.5l-0.8-2.5
	c-5.4-17.3-12-38.9-24-54.9c-2.1-2.9-3.5-8.3-4.9-13.4c-1.3-5-2.6-10.1-4.8-14.2c-4.9-9.1-10.3-18.2-16.7-28l-1.5-2.3
	c-4.3-6.5-8.7-13.3-12.5-20.1c-1.8-3.2-3.2-7.2-4.7-11.5c-2-5.6-4-11.5-7.3-16c-1.7-2.3-4.4-5.3-8.7-5.3c-1.2,0-2.2,0.2-3.1,0.4
	c-0.7,0.1-1.3,0.3-1.9,0.3c-0.4,0-0.8-0.1-1.2-0.2c-2.6-0.9-5.3-2.1-8.1-3.4c-5.1-2.3-10.3-4.7-15.7-5.4c-2.8-0.3-5.6-0.5-8.4-0.5
	c-4,0-7.8,0.3-11.5,1c-1.8,0.3-3.2,1.4-4.2,2.9c-2.6,4.3-0.7,12,3.8,25.7c0.5,1.5,1,2.9,1.2,3.6c2.3,8.3,4.4,16.6,6.5,24.7
	c3.3,13.1,6.7,26.5,11.1,40.1c1.1,3.5,1.7,7,2.2,10.7c0.7,4.4,1.4,9,3.1,13.9c3.7,10.1,5.6,15.7,4.2,24.6
	c-1.1,7.1-3.3,13.3-6.5,18.2c-0.9,1.5-2.1,2.8-3.2,4.2c-3.9,4.7-8.3,10.1-6.6,20.1c2.9,17-1.3,30.5-5.8,44.8c-0.5,1.5-0.9,3-1.4,4.5
	c-2.1,6.7-5.2,7.9-10.9,7.9c-1.6,0-3.4-0.1-5.3-0.2c-2.1-0.1-4.3-0.3-6.6-0.3c-2.3,0-4.3,0.1-6.2,0.4c-0.2,0-0.5,0-0.7,0
	c-3.2,0-8.1-2.2-12.9-4.3c-5.6-2.5-10.9-4.8-15.7-4.8c-4.7,0-7.2,2.3-8.6,4.3c-3.9,5.7-2.4,13.4-1,20.8c1.7,8.6,2.5,14.4-1.1,17.3
	c-2.3,1.9-5.5,3.2-8.9,4.5c-7.5,3-17.8,7.1-16.5,20.7c1.1,11.9,2.5,24.1,4,35.9l0.1,0.6c0.2,2,0.3,4.1,0.4,6.1
	c0.3,6.5,0.5,13.2,5.9,20.2l4.8,6.3l2.6-7.5c1.5-4.3,1.5-9.8,1.6-15.5c0-1.3,0-2.7,0-4.1c1.1,2.6,2.9,5.2,5.9,7.7l1.1,0.9
	c-0.2,0.2-0.3,0.5-0.5,0.7c-3.2,4.7-3.4,9-3.5,12.8c-0.1,2.3-0.2,4.5-0.9,6.8l4.1,1.3v4.2c-1.6,0-2.7-0.9-3.1-1.4
	c0.4,0.5,1.6,2.7,5.7,11.4c0.7,1.5,0.7,1.5,1,1.9c4.6,6.2,8.9,11.7,15.7,16.9l5.6,4.3l1.2-6.9c0.3-1.9,0.5-4,0.5-6.2
	c1.6,1.3,3.4,2.1,4.8,2.7c0.8,0.4,1.6,0.7,2.1,1c2.3,1.4,4.2,2.1,6,2.1c0.3,0,0.6,0,0.8,0v6.7l2.4,1.2c0.8,0.4,1.6,0.6,2.5,0.6
	l-3.2,4.6l4.9,2c3.5,1.4,6.7,2.8,9.9,4.2c-0.8,3.3-1.1,7.2,3.4,12.3c6.6,7.4,12.1,11.2,16.4,11.3l0.2,0c2.2,0,4.2-0.6,6.1-1.2
	c1.5-0.5,3-1,4.3-1c0.9,0,1.6,0.2,2.3,0.8c3.8,2.8,4.5,8.3,5.1,13.7c0.2,1.7,0.4,3.3,0.7,4.9l0.9,4.6l4.5-1.3c0.5-0.2,1-0.3,1.4-0.4
	c0.5,0.4,1.2,0.9,1.6,1.2c0.7,0.5,0.8,1,1,2.8c0.2,1.9,0.6,4.9,3.4,6.9c0.4,0.3,0.9,0.6,1.9,1.3c12,7.6,15.4,11.3,16.4,12.9
	c-1.8,1.7-3.7,5.1-1.7,11.8c2.6,8.6,13.7,25,23.1,25c3.5,0,6.2-2.1,7.6-5.7c1.8-4.7,0.6-9.7-0.4-14.1c-0.7-3.1-1.4-5.9-1.1-8.3
	c1-7.7-0.7-18.6-5-32.4c-4-12.8-5.3-24.8-4-35c0.1,0.1,0.2,0.2,0.3,0.3c2.9,3.2,5.9,4.8,8.7,4.8c2.2,0,4.1-1,5.5-2.7
	c1.6-2.1,2.1-5.2,1.5-8.4c2.6,0.6,6.4,2.3,9.5,3.7c-0.1,0.3-0.1,0.5-0.2,0.8c-0.8,5.1,1.1,11.1,4.8,15.4c3,3.5,6.8,5.4,10.7,5.4
	l0.2,0c2.2,0,4-1.8,4.2-4c0-0.2,0-0.4,0-0.6l0.3,0c-0.1-1.1,0.6-3.1,1.2-4.9c1-2.8,2.1-6.2,1.4-9.4c1.2-0.1,2.5-0.2,3.6-0.2
	c1.1,0,2.1,0.1,3,0.2c1.8,6.3,5.8,7.4,9.6,8c-0.6,2.5-1,5.1-1.4,7.7l-0.7,4.3l3.6,1c4.1,1.1,7.4,1.8,10.6,2.1
	c1.1,5.2,4.4,6.9,7.6,8.6c1.3,0.7,2.8,1.5,4.5,2.7l4.6,3.3l1.1-3.1c1.3,1.7,2.7,2.8,4.3,3.3c-0.1,16.5-3.8,22.9-10.4,28.6
	c-1.6,1.4-7,6.6-6.7,13.5c0.1,2.9,1.4,7.2,6.6,11c2.6,1.9,5,2.8,7.4,2.8c2.3,0,4.1-0.9,5.5-2.1c0.6,3.3,1.9,6.2,3.8,8.6
	c4,4.8,10.6,7.5,20.3,8.1c0.5,0,1,0,1.5,0c4.4,0,7.9-1.3,10.3-4c4.9-5.3,4.2-14,3.5-22.4c-0.3-3.7-0.6-7.1-0.4-10
	c1-15.2,5.1-29,11.8-39.7c0.5-0.9,1.4-1.9,2.4-3c3.2-3.8,8.1-9.5,5.9-17c-0.2-0.6-0.5-1.3-0.8-2.4c-1.2-3.1-2-5.5-2.4-7.2l3.3,0.4
	C839.1,738.2,839.8,734.2,839.8,734.2z"/>
<g>
	<path fill="#A4752A" d="M835,732.9C835,732.9,835,732.9,835,732.9C837.2,733.5,836,733.1,835,732.9z"/>
	<path fill="#A4752A" d="M835,732.9C833.6,732.5,834.2,732.7,835,732.9c7,1.8-0.1-49.2,0-57c0.2-8.3-7.8-11.8-6.7-17.8
		c1.6-8.6,0.2-17.3,4.2-24.2c3.5-6.1,3.7-11.3-2.6-19c-9.8-12.2-14.8-19.8-18.6-34c-2-7.6-4.2-15.9-12.4-20.1
		c-15.1-7.9-10.8-7.8-11.3,5.5c-13.9-6.8-23.6-37-29-50.1c-6.6-16.3-22.1-23.4-27.3-40.1c-5.5-17.8-12-39.9-24.1-56.2
		c-4.9-6.6-5.7-20.1-10-28.2c-5-9.4-10.6-18.6-16.5-27.6c-4.9-7.5-9.9-14.9-14.2-22.7c-4.5-8.1-6.5-19.8-11.7-27
		c-5-6.8-7.3-1.4-12.9-3.3c-7.6-2.6-15.4-7.7-23-8.6c-6.3-0.8-12.9-0.6-18.6,0.4c-5.5,1,2.7,22,4.1,26.9
		c6.1,21.8,10.4,42.9,17.5,64.7c2.7,8.2,2.2,16,5.3,24.4c3.9,10.7,5.9,16.9,4.4,26.7c-1.2,7.4-3.5,14.2-7.2,19.8
		c-4.3,6.7-11.1,10.6-9.2,21.3c3.4,19.9-2.2,34.7-7.3,51.2c-5.1,16.5-18.4,8.7-32.4,10.8c-10.1,1.5-29.1-15-34.9-6.6
		c-6.5,9.4,7.8,30.4-2.9,39c-8.8,7.1-25.3,6.2-23.9,21.5c1.1,12.1,2.6,24.2,4,36.4c1,8.6-0.7,16.2,5.5,24.2
		c3.5-10.1-2.4-32.5,8.4-35.9c0.7,7.6-2.7,14.9,5.9,22.2c0-3.1,0-6.2,0-9.4c3.7,4,7.3,8,11,11.9c-0.7,2.2-2.5,1.6-5.6-1.8
		c-1.3,2.2-2.7,4.3-4,6.5c-4.4,6.3-1.6,11.7-3.9,18.6c0.4-1.1,6.9,13.4,7,13.5c4.8,6.4,8.8,11.3,14.9,16.1c2.2-12.5-5.1-33,3.7-41.6
		c6.1,11.6-1.7,18.6,1.4,29.6c1.1,4.1,5.9,4.9,8.7,6.7c5.9,3.7,6-0.4,8.8-4.4c0,4.7,0,9.4,0,14.1c2.9,1.4,6.1-7.9,7.3-10.1
		c6.5,4-1.8,14.8-3.4,17.2c4.4,1.8,8.8,3.7,13.3,5.7c-0.9,4.5-2.8,7,1.6,11.9c2.9,3.3,9.3,9.8,13.3,9.9c4.5,0.1,9.8-4.6,15.3-0.6
		c6.8,4.9,6.2,14.9,7.5,21.2c3.4-1,2.7-1.7,6.8,1.5c3.9,3.1,1.5,7.5,4.3,9.6c2.1,1.5,26.2,15.5,19,20.4c-8,5.4,16.8,39.9,21.8,26.8
		c2.4-6.2-2.7-14.5-1.8-21.4c1.1-8.7-1.9-21.1-4.9-30.6c-6-19.2-6.6-37.9,0.4-52.1c3.7,3.1-1,8.7,3.1,13.2c6.3,6.8,9.7,2.3,8.1-3.3
		c-3.2-11.9,19.3,2.6,24.7,3.3c6.6-0.1,15.1-3,21.9-0.4c1.2,8.1,4.7,6.6,11.7,8c-1.7,3.9-2.3,7.9-3,12.3c4.9,1.3,8.8,2.1,13.4,2.2
		c0,8.2,3.8,7,10.7,11.9c1-2.8,1.3-5.9,1.1-9.2c0.2,0.1,8,20.4,10.5,8.3c0.8,17.9-0.4,30-11.7,39.7c-4,3.4-9.2,11.4-0.4,17.8
		c10.3,7.4,9.6-8.3,14.6-5.7c-2.1,15,4.6,21.3,20.2,22.3c16.9,1.1,9.5-19.8,10.4-32.4c1.1-15.5,5.2-30.1,12.5-41.7
		c2.7-4.3,9.9-9.5,7.9-16.6C834.8,745.7,827.9,731,835,732.9z"/>
	<path fill="#A4752A" d="M722.4,734.8c-2.5-0.5-13.2-4.9-13.8-1.1c-1.1,7.1,4.8,16.1,11.5,16c-1.1-0.1,0.1-1.7,0.3,0
		C719.8,744.9,725,738.5,722.4,734.8z"/>
</g>
<g id="RiversNLakes">
	<path fill-rule="evenodd" clip-rule="evenodd" fill="#414EA1" d="M637.5,698.9c-2.9-9.2-4.9-21.5-10.4-30.2
		c-3.1-4.9-3-10.8-7.1-14.2c-9-7.6-8.6-12.9-12.6-22.5c-3.2-7.6-9.4-15.2-13.8-22.5c2.5,0.9,6.9,1.1,9.3,3.4
		c5.9,5.8-0.6,6.9,7.7,8.2c6.1,0.9,2.5,13,8.1,18.9c9.8,10.2,7.3,13.9,11.4,25.4C632.6,672.6,646.6,696.9,637.5,698.9
		C634.6,689.8,641.5,698,637.5,698.9z"/>
	<path fill-rule="evenodd" clip-rule="evenodd" fill="#414EA1" d="M665.7,699.4c-1.7-6.1-2.1-13.4-8.4-17.8c-9.3-6.5-8.2-15-10-24.7
		c-9.8-4-13.3-27.9,1.1-5.1c0.2-3.8-0.9-18.2,3-17.7c3.2,10,2.3,18.4,2.9,28c0.6,8.7,4,12,9.3,19.7
		C666.2,685.6,670.3,700.3,665.7,699.4C665,697.1,666.3,699.5,665.7,699.4z"/>
	<path fill-rule="evenodd" clip-rule="evenodd" fill="#414EA1" d="M676.7,611.4c8.1,5,7.8,21.6,12.2,29.3c7.1,12.7,13.4,32,7.8,42
		c-5.5-2.3-2.5-11.9-2.2-15c0.5-5.9-2.2-12.3-5.4-18.4C681.4,634.8,676.7,625.5,676.7,611.4C683.3,615.5,676.7,615.6,676.7,611.4z"
		/>
	<path fill-rule="evenodd" clip-rule="evenodd" fill="#414EA1" d="M592.7,637.8c0.4,2,0.8,4,1.3,6c11.4-3.1,12.3,13,5.3,16.7
		C595.9,655.9,580.3,636.7,592.7,637.8C593.1,639.6,588.1,637.4,592.7,637.8z"/>
	<path fill-rule="evenodd" clip-rule="evenodd" fill="#414EA1" d="M699.3,636.4c7.7-0.2,8.7,9.2,7.1,13.8c-1.5,4.6-3.5,0.8-0.1,7.9
		c2.6,5.4,1.8,5.2,0.1,8.7c-3.9-4.2-11.2-13.2-8-16.8C701.2,646.9,699.8,641.1,699.3,636.4C702.5,636.4,700.6,647.9,699.3,636.4z"/>
	<path fill-rule="evenodd" clip-rule="evenodd" fill="#414EA1" d="M809.2,682.8c-9.8-8.5-0.8-9.7,4.8-12.9
		c1.1,4.3,3.9,16.6,2.7,19.4C814.3,694.7,807.6,688.3,809.2,682.8C807.5,681.4,808.8,684,809.2,682.8z"/>
	<path fill-rule="evenodd" clip-rule="evenodd" fill="#414EA1" d="M733.8,690.5c5.7,8.3,13.8,16.1,7.4,21.9c-2.3-4.4-3.6-8-5.2-12.5
		c-1.1,0.9-4.1,4.6-6.7,2.1C724.5,697.5,732.3,692.3,733.8,690.5C737.4,695.8,731.8,692.9,733.8,690.5z"/>
	<path fill-rule="evenodd" clip-rule="evenodd" fill="#414EA1" d="M805.9,730.3c1.4,4.2,2.9,8.3,4.3,12.5c-6.9-2.4-3.5,9.4-11.3,7.7
		C800,745.6,800.5,728.9,805.9,730.3C807.4,734.5,805,730.1,805.9,730.3z"/>
	<path fill-rule="evenodd" clip-rule="evenodd" fill="#414EA1" d="M764.1,668.2c1.4,5.4,3.3,11.2,2.8,16.3c-4.1-6.3-7-13.2-5.1-18.9
		c2.5-7.5,9,1,10.9,6.7C769.7,670.9,766.7,668,764.1,668.2C764.8,671.1,764.7,668.1,764.1,668.2z"/>
	<path fill-rule="evenodd" clip-rule="evenodd" fill="#414EA1" d="M633,721.7c3.9,8.2,7.4,15.8,11.2,23.9
		C634.8,741,629.3,729.1,633,721.7z"/>
	<path fill-rule="evenodd" clip-rule="evenodd" fill="#414EA1" d="M678.1,562.7c4.4,8.3-0.5,12.5-0.6,18.5
		C675.3,574.3,671.3,566.9,678.1,562.7z"/>
	<path fill-rule="evenodd" clip-rule="evenodd" fill="#414EA1" d="M659.9,589.4c2.6,5.9,4.6,10.6,7.1,16.3
		C659.6,602,656.5,594.8,659.9,589.4z"/>
	<path fill-rule="evenodd" clip-rule="evenodd" fill="#414EA1" d="M666.1,533.9c6.3,3.9,8.4,10.8,5.3,17.2
		C669.5,544.8,667.9,539.8,666.1,533.9z"/>
	<path fill-rule="evenodd" clip-rule="evenodd" fill="#414EA1" d="M714.9,641.5c3.1,3.8,3.6,7.7,3.5,11.6c0,6.9-5.7-0.3-5.5,6.1
		c0.4,11.1,14.4,19.8,5,28.4c-4.2,3.9-8.3,7-6.9,15.2c1,6,8.8,22.1,2,23.5c1.9-9.7-4.9-18.2-4.9-28.4c0-10.3,19.1-11.4,8.3-26.2
		c-2.7-3.7-4.3-7.1-5-11.2c-1.1-6.5,6.3-6,5.2-11.9c-0.9-4.5-6.8-10-3-13.3c3.3-2.8,7.2-1.9,8.1-7.4c1-6.1,9.6-23.2,2.7-29.9
		c-3.6-3.5,4-6.8,4.6-8.5c1.5-4-2.8-8.8-5-12.9c3.5-1.5,2.9-10.8,2.1-14.5c-2.3-9.5,0.4-23.2-6.1-32.2c-1-1.3-1.7-6.8-1.9-7.7
		c-1.4-5-5.9-9.9-8.3-14.9c-6.3-13-11.9-25.1-16.3-38.4c-4-12.4-8.6-24.7-13.3-37.1c-4.5-11.7-12.1-20.9-17.1-32.7
		c-3.8-8.9-10.9-14.3-14.6-23.1c-4-9.6-7.6-17.1-9.6-26.9c-1.2-5.6-5.8-7.3-8.4-12.4c-2.3-4.5-3.5-10.3-5.1-15
		c-4.5-13.9,0.5-11,11.8-8.6c-3.1,5.1-7,11.5-6.2,18.9c0.8,7.5,8.6,10.8,10,18.8c1.3,7.6,2.5,9.2,6.3,16.4c2.3,4.3,2.4,8.6,4.3,12.9
		c1.9,4.4,6.7,7.2,9.3,11.3c4.5,7.1,5.4,15.4,10.5,22.1c7.3,9.4,9.8,16.7,13.8,27.6c3.7,10.3,9.6,21,12.5,31.2
		c2.5,9,3.4,15.1,8.6,24c7.8,13.3,12.3,25.8,18.4,39.5c3.5,8,1.6,17.9,3.1,26.2c0.5,2.6,2.5,8.9,1.6,11c-0.6,1.5-3.5,0.8-3.9,2.9
		c-0.7,3.3,6.2,6.6,5.9,10.6c-0.4,4.4-3.3,7.1-5.1,10.5c1.6,5.4,2.7,7.8,1.8,12.7c-1.2,7.2-3.1,14.9-5.4,21.5
		C721.9,633.5,711.2,637,714.9,641.5C719.4,647,714.1,640.5,714.9,641.5z"/>
</g>
<text transform="matrix(1 0 0 1 644.2549 711.0415)" font-family="'MyriadPro-Bold'" font-size="25">Grums</text>
<rect x="680.5" y="718.7" fill="#BE1E2D" width="12.7" height="12.7"/>
<text transform="matrix(1 0 0 1 502.4922 571.0054)" font-family="'MyriadPro-Bold'" font-size="25">Töckfors</text>
<rect x="538.7" y="578.6" fill="#BE1E2D" width="12.7" height="12.7"/>
<linearGradient id="SVGID_1_" gradientUnits="userSpaceOnUse" x1="266.3335" y1="774.813" x2="266.3335" y2="318.7662">
	<stop  offset="0" style="stop-color:#FFFFFF"/>
	<stop  offset="0.979" style="stop-color:#C2C4C6"/>
	<stop  offset="1" style="stop-color:#000000"/>
</linearGradient>
<rect x="43" y="316.4" fill="url(#SVGID_1_)" stroke="#000000" stroke-width="5" stroke-miterlimit="10" width="446.7" height="464.6"/>
<text transform="matrix(1 0 0 1 205.5879 368.9165)" font-family="'Futura-Medium'" font-size="42">Grums</text>
<text transform="matrix(1 0 0 1 55.9995 422.9155)"><tspan x="0" y="0" font-family="'Futura-CondensedMedium'" font-size="37">I grums hittar vi ett av norra euro-</tspan><tspan x="0" y="44.4" font-family="'Futura-CondensedMedium'" font-size="37">pas största pappersbruk samt flera</tspan><tspan x="0" y="88.8" font-family="'Futura-CondensedMedium'" font-size="37">andra bruksmiljöer. På välkända </tspan><tspan x="0" y="133.2" font-family="'Futura-CondensedMedium'" font-size="37">webbsidor har Grums fått omdömen</tspan><tspan x="0" y="177.6" font-family="'Futura-CondensedMedium'" font-size="37">som “Inte lika illa som Dalsland” </tspan></text>
<g id="dPJztI.tif">
	
		<image overflow="visible" width="512" height="384" id="Layer_0_1_" xlink:href="51E6EA37AEDF13DB.png"  transform="matrix(0.3662 0 0 0.3662 179.8765 618.6685)">
	</image>
</g>
<g>
	<path fill-rule="evenodd" clip-rule="evenodd" fill="#DAD9DA" d="M700.5,673.4c1.3,0.7,2.4,0.1,2.4-1.4v-35.9c0-1.5-1.1-3.3-2.4-4
		L635,596.5c-1.3-0.7-2.4-0.1-2.4,1.4l-0.1,34.3c0,1.5,1.1,3.3,2.3,4L700.5,673.4z"/>
	<path fill-rule="evenodd" clip-rule="evenodd" fill="#E5E8E9" d="M705.8,673.3c-1.3,0.7-2.4,0.1-2.4-1.4V636c0-1.5,1.1-3.3,2.4-4
		l97.8-53.6c1.3-0.7,2.4-0.1,2.4,1.4l0.1,34.3c0,1.5-1.1,3.3-2.3,4L705.8,673.3z"/>
	<path fill-rule="evenodd" clip-rule="evenodd" fill="#A49DAB" d="M635.9,593.6c-1.3,0.7-1.3,1.9-0.1,2.7l64.9,35.2
		c1.3,0.8,3.2,1.1,4.5,0.3l97.6-53.7c1.3-0.7,1.3-2,0.1-2.8l-64-35c-1.3-0.8-3.4-0.9-4.7-0.1L635.9,593.6z"/>
	<g id="Stack_3">
		<path fill-rule="evenodd" clip-rule="evenodd" fill="#E5E8E9" d="M699.7,502.9C699.7,502.9,699.7,502.9,699.7,502.9
			c0-4.2,0-8.4,0-12.7c-3.4,1.9-6.8,2.4-10,0.8c-1.7-0.8-1.9-0.2-1.9,1.2c0,3.6,0,7.2,0,10.7c0,0,0.1,0,0.1,0l-0.1,51
			c4,2.2,7.9,2.6,11.9-0.1C699.7,554.2,699.7,517.9,699.7,502.9z"/>
		<ellipse fill-rule="evenodd" clip-rule="evenodd" fill="#FFFFFF" cx="693.8" cy="489.5" rx="5.9" ry="2.7"/>
		<path fill-rule="evenodd" clip-rule="evenodd" fill="#948A9A" d="M693.7,491.2c-1.5-0.4-4,0.1-4-1.9c0-1.8,2.5-1.5,4-1.6
			c1.6,0,4.3-0.3,4.3,1.8C698,491.2,695.3,490.9,693.7,491.2z"/>
		<path fill-rule="evenodd" clip-rule="evenodd" fill="#EAA022" d="M687.9,507.9c0,1.5,0,2.9,0,4.4c4,2.2,7.9,2.6,11.9,0
			c0-1.5,0-2.9,0-4.4C695.8,510.5,691.9,510.1,687.9,507.9z"/>
		<path fill-rule="evenodd" clip-rule="evenodd" fill="#EAA022" d="M687.9,516.9c0,1.5,0,2.9,0,4.4c4,2.2,7.9,2.6,11.9,0
			c0-1.5,0-2.9,0-4.4C695.8,519.5,691.9,519.1,687.9,516.9z"/>
		<path fill-rule="evenodd" clip-rule="evenodd" fill="#EAA022" d="M687.9,526c0,1.5,0,2.9,0,4.4c4,2.2,7.9,2.6,11.9,0
			c0-1.5,0-2.9,0-4.4C695.8,528.6,691.9,528.1,687.9,526z"/>
	</g>
	<g id="Stack_2">
		<path fill-rule="evenodd" clip-rule="evenodd" fill="#E5E8E9" d="M680.1,523.2C680.1,523.2,680.1,523.2,680.1,523.2
			c0-4.2,0-8.4,0-12.8c-3.4,1.9-6.8,2.4-10,0.8c-1.7-0.8-1.9-0.2-1.9,1.2c0,3.6,0,7.2,0,10.7c0,0,0.1,0,0.1,0l-0.1,51
			c4,2.2,7.9,2.6,11.9-0.1C680.2,574.4,680.1,538.1,680.1,523.2z"/>
		<ellipse fill-rule="evenodd" clip-rule="evenodd" fill="#FFFFFF" cx="674.2" cy="509.7" rx="5.9" ry="2.7"/>
		<path fill-rule="evenodd" clip-rule="evenodd" fill="#948A9A" d="M674.2,511.5c-1.5-0.4-4,0.1-4-1.9c0-1.8,2.5-1.5,4-1.6
			c1.6,0,4.3-0.3,4.3,1.8C678.4,511.5,675.8,511.2,674.2,511.5z"/>
		<path fill-rule="evenodd" clip-rule="evenodd" fill="#EAA022" d="M668.3,528.1c0,1.5,0,2.9,0,4.4c4,2.2,7.9,2.6,11.9,0
			c0-1.5,0-2.9,0-4.4C676.3,530.8,672.3,530.3,668.3,528.1z"/>
		<path fill-rule="evenodd" clip-rule="evenodd" fill="#EAA022" d="M668.3,537.2c0,1.5,0,2.9,0,4.4c4,2.2,7.9,2.6,11.9,0
			c0-1.5,0-2.9,0-4.4C676.3,539.8,672.3,539.3,668.3,537.2z"/>
		<path fill-rule="evenodd" clip-rule="evenodd" fill="#EAA022" d="M668.3,546.2c0,1.5,0,2.9,0,4.4c4,2.2,7.9,2.6,11.9,0
			c0-1.5,0-2.9,0-4.4C676.3,548.8,672.3,548.4,668.3,546.2z"/>
	</g>
	<g id="Stack_1">
		<path fill-rule="evenodd" clip-rule="evenodd" fill="#E5E8E9" d="M659.9,541C659.9,541,659.9,541,659.9,541c0-4.2,0-8.4,0-12.7
			c-3.4,1.9-6.8,2.4-10,0.8c-1.7-0.8-1.9-0.2-1.9,1.2c0,3.6,0,7.2,0,10.7c0,0,0.1,0,0.1,0l-0.1,51c4,2.2,7.9,2.6,11.9-0.1
			C660,592.3,659.9,556,659.9,541z"/>
		<ellipse fill-rule="evenodd" clip-rule="evenodd" fill="#FFFFFF" cx="654" cy="527.6" rx="5.9" ry="2.7"/>
		<path fill-rule="evenodd" clip-rule="evenodd" fill="#948A9A" d="M653.9,529.3c-1.5-0.4-4,0.1-4-1.9c0-1.8,2.5-1.5,4-1.6
			c1.6,0,4.3-0.3,4.3,1.8C658.2,529.3,655.6,529,653.9,529.3z"/>
		<path fill-rule="evenodd" clip-rule="evenodd" fill="#EAA022" d="M648.1,546c0,1.5,0,2.9,0,4.4c4,2.2,7.9,2.6,11.9,0
			c0-1.5,0-2.9,0-4.4C656.1,548.6,652.1,548.2,648.1,546z"/>
		<path fill-rule="evenodd" clip-rule="evenodd" fill="#EAA022" d="M648.1,555c0,1.5,0,2.9,0,4.4c4,2.2,7.9,2.6,11.9,0
			c0-1.5,0-2.9,0-4.4C656.1,557.6,652.1,557.2,648.1,555z"/>
		<path fill-rule="evenodd" clip-rule="evenodd" fill="#EAA022" d="M648.1,564.1c0,1.5,0,2.9,0,4.4c4,2.2,7.9,2.6,11.9,0
			c0-1.5,0-2.9,0-4.4C656.1,566.7,652.1,566.2,648.1,564.1z"/>
	</g>
	<path fill-rule="evenodd" clip-rule="evenodd" fill="#DAD9DA" d="M704.3,607.6c1.3,0.7,2.4,0.1,2.3-1.4l-0.1-29.2
		c0-1.5-1.1-3.3-2.4-4l-38.1-19.2c-1.3-0.7-2.4-0.1-2.4,1.4l0,27.6c0,1.5,1.1,3.3,2.4,4L704.3,607.6z"/>
	<path fill-rule="evenodd" clip-rule="evenodd" fill="#E5E8E9" d="M709.5,607.5c-1.3,0.7-2.4,0.1-2.4-1.4l-0.1-29.2
		c0-1.5,1.1-3.3,2.4-4l47-24.6c1.3-0.7,2.4-0.1,2.4,1.4c0,0,0.1,3.8,0,5.1c-0.1,1.4-2.7,2.4-2.7,2.4l0.1,3.3l2.6,2.7l0.1,15
		c0,1.5-1,2.4-2.3,3.1L709.5,607.5z"/>
	<path fill-rule="evenodd" clip-rule="evenodd" fill="#A49DAB" d="M666.9,551.7c-1.3,0.7-1.3,1.9-0.1,2.7l37.5,18.9
		c1.3,0.8,3.3,1,4.5,0.3l46.8-24.7c1.3-0.7,1.3-2,0.1-2.8L719,526.1c-1.3-0.8-3.4-0.8-4.7-0.1L666.9,551.7z"/>
	<g id="Door_Side">
		<path fill-rule="evenodd" clip-rule="evenodd" fill="#948A9A" d="M727.2,661.4c-1.7,1-4.5,2.6-6.2,3.6c-0.9,0.5-1.3,0.4-1.3-0.7
			c0-5.6,0-12.1,0-17.6c0-0.9,0.5-1.4,1.2-1.8c6.6-3.9,13.3-7.8,19.9-11.6c0.3-0.2,0.8-0.1,1.2-0.1c0,5.2-0.1,18.9-0.1,20
			C734.8,656.6,730.1,660,727.2,661.4z"/>
		<path fill-rule="evenodd" clip-rule="evenodd" fill="#DAD9DA" d="M741.9,653.1c0-5.2,0-14.8,0.1-20c0.3-0.5,0.6-1.1,1.2-0.8
			c0.7,0.3,0.7,1,0.7,1.6c0,4.9,0,13.2,0,18.1C743.7,652.5,742.8,652.9,741.9,653.1z"/>
	</g>
	<g id="Window">
		<path fill-rule="evenodd" clip-rule="evenodd" fill="#746975" d="M706.4,583c0.1,1.8-0.2,3.7,0.5,5.5c0,0,0,0,0,0
			c-0.4,0-0.7,0-1.1,0.1c-12.6-7.3-26.7-13.3-39.4-20.6c-0.9-0.5-1.1-1.2-1.1-2.1c0-1.4,0-2.8,0-4.3c11.8,6.8,25.1,12.4,36.9,19.2
			c1.1,0.6,2,1.5,3.4,1.6C705.9,582.6,706.2,582.8,706.4,583z"/>
		<path fill-rule="evenodd" clip-rule="evenodd" fill="#FFFFFF" d="M665.3,567.2l-1.8,1l42.9,22.9l52.5-27.9c0,0,0.8-0.9,0-1.3
			c-0.8-0.4-2.8-1.6-2.8-1.6s0.3,1.8-0.9,2.8c-1.2,1-46.5,24.6-46.9,24.8c-1.3,0.6-1.2,1.7-3.2,0.5
			C703,587.3,665.3,567.2,665.3,567.2z"/>
		<line fill="none" x1="665.3" y1="561.6" x2="665.3" y2="566.3"/>
		<path fill-rule="evenodd" clip-rule="evenodd" fill="#948A9A" d="M756.1,557.3c0,1,0,2,0,3c-0.1,1.6,0.4,2.4-1.3,3.3
			c-15.9,9.1-30.7,15.1-46.6,24.3c-0.4,0.2-0.9,0.4-1.3,0.5c-0.7-1.8-0.4-3.7-0.5-5.5c15.2-7.6,20.8-10.6,35.8-18.6
			C744.7,563.1,753.4,558.1,756.1,557.3z"/>
	</g>
	<g id="Roof_1_">
		<path fill-rule="evenodd" clip-rule="evenodd" fill="#948A9A" d="M646.5,588.2c4.1-1.4,8.4-1.6,12.7-1.8c1.6-0.1,2.7,1.5,4.1,2.2
			c4.1,2.2,8.1,4.6,12.1,6.9c0.3,0.2,0.5,0.6,0.8,0.9c-4.3,0.5-8.6,1.1-12.9,1.6C657.6,594.7,652.1,591.5,646.5,588.2z"/>
		<path fill-rule="evenodd" clip-rule="evenodd" fill="#DAD9DA" d="M646.5,588.2c5.6,3.2,11.2,6.5,16.7,9.7c0,2-0.2,4-0.2,6
			c-0.4,0.2-11.1-6.2-16.5-9.3C645.1,593.8,645.1,589.5,646.5,588.2z"/>
		<path fill-rule="evenodd" clip-rule="evenodd" fill="#E5E8E9" d="M663,604c0.1-2,0.1-4,0.2-6c4.3-0.5,8.6-1.1,12.9-1.6
			c-2.8,2.5-6.2,3.9-9.3,5.7C665.5,602.9,663.4,604.3,663,604z"/>
	</g>
	<g id="Roof">
		<path fill-rule="evenodd" clip-rule="evenodd" fill="#948A9A" d="M686.1,611.1c4.1-1.4,8.4-1.6,12.7-1.8c1.6-0.1,2.7,1.5,4.1,2.2
			c4.1,2.2,8.1,4.6,12.1,6.9c0.3,0.2,0.5,0.6,0.8,0.9c-4.3,0.5-8.6,1.1-12.9,1.6C697.3,617.6,691.7,614.4,686.1,611.1z"/>
		<path fill-rule="evenodd" clip-rule="evenodd" fill="#DAD9DA" d="M686.1,611.1c5.6,3.2,11.2,6.5,16.7,9.7c0,2-0.2,4-0.2,6
			c-0.4,0.2-11.1-6.2-16.5-9.3C684.7,616.7,684.8,612.4,686.1,611.1z"/>
		<path fill-rule="evenodd" clip-rule="evenodd" fill="#E5E8E9" d="M702.6,626.9c0.1-2,0.1-4,0.2-6c4.3-0.5,8.6-1.1,12.9-1.6
			c-2.8,2.5-6.2,3.9-9.3,5.7C705.1,625.8,703,627.1,702.6,626.9z"/>
	</g>
	<g id="Grate">
		<path fill-rule="evenodd" clip-rule="evenodd" fill="#948A9A" d="M780.7,584.4c-3,0.5-5.3,2.4-7.8,3.8
			c-12.1,6.6-24.1,13.3-36.1,20c-4.4,2.4-8.8,4.7-13.1,7.3c-1.1,0.6-1.7,0.4-2.7-0.1c-3.2-1.7-6-4.1-9.4-5.5c0,0.5,0,0.9-0.1,1.4
			c3.2,2,6.3,3.9,9.5,5.9c1.2,0.8,2.3,0.4,3.3-0.2c6.8-3.8,13.6-7.5,20.4-11.3c10-5.4,19.7-11.2,29.8-16.3c2.1-1.1,4.1-2.4,6.2-3.6
			C780.7,585.3,780.7,584.8,780.7,584.4z"/>
		<g>
			<g>
				<path fill-rule="evenodd" clip-rule="evenodd" fill="#746975" d="M777.3,584.7c0.6,0.1,1-0.2,1.2-0.6c0.2-0.6-0.2-0.9-0.6-1.1
					c-2-1.2-4-2.4-6-3.7c-0.7-0.5-1.5-0.3-1.9,0.3c-0.6,0.8,0.4,1,0.9,1.3C773.1,582.2,775.2,583.5,777.3,584.7z"/>
			</g>
			<g>
				<path fill-rule="evenodd" clip-rule="evenodd" fill="#746975" d="M773.1,587c0.6,0.1,1-0.2,1.2-0.6c0.2-0.6-0.2-0.9-0.6-1.1
					c-2-1.2-4-2.4-6-3.7c-0.7-0.5-1.5-0.3-1.9,0.3c-0.6,0.8,0.4,1,0.9,1.3C768.8,584.5,771,585.8,773.1,587z"/>
			</g>
			<g>
				<path fill-rule="evenodd" clip-rule="evenodd" fill="#746975" d="M768.8,589.3c0.6,0.1,1-0.2,1.2-0.6c0.2-0.6-0.2-0.9-0.6-1.1
					c-2-1.2-4-2.4-6-3.7c-0.7-0.5-1.5-0.3-1.9,0.3c-0.6,0.8,0.4,1,0.9,1.3C764.5,586.8,766.7,588.1,768.8,589.3z"/>
			</g>
			<g>
				<path fill-rule="evenodd" clip-rule="evenodd" fill="#746975" d="M764.6,591.6c0.6,0.1,1-0.2,1.2-0.6c0.2-0.6-0.2-0.9-0.6-1.1
					c-2-1.2-4-2.4-6-3.7c-0.7-0.5-1.5-0.3-1.9,0.3c-0.6,0.8,0.4,1,0.9,1.3C760.3,589.1,762.5,590.4,764.6,591.6z"/>
			</g>
			<g>
				<path fill-rule="evenodd" clip-rule="evenodd" fill="#746975" d="M760.3,593.9c0.6,0.1,1-0.2,1.2-0.6c0.2-0.6-0.2-0.9-0.6-1.1
					c-2-1.2-4-2.4-6-3.7c-0.7-0.5-1.5-0.3-1.9,0.3c-0.6,0.8,0.4,1,0.9,1.3C756,591.4,758.2,592.7,760.3,593.9z"/>
			</g>
			<g>
				<path fill-rule="evenodd" clip-rule="evenodd" fill="#746975" d="M756.1,596.3c0.6,0.1,1-0.2,1.2-0.6c0.2-0.6-0.2-0.9-0.6-1.1
					c-2-1.2-4-2.4-6-3.7c-0.7-0.5-1.5-0.3-1.9,0.3c-0.6,0.8,0.4,1,0.9,1.3C751.8,593.8,753.9,595,756.1,596.3z"/>
			</g>
			<g>
				<path fill-rule="evenodd" clip-rule="evenodd" fill="#746975" d="M751.8,598.6c0.6,0.1,1-0.2,1.2-0.6c0.2-0.6-0.2-0.9-0.6-1.1
					c-2-1.2-4-2.4-6-3.7c-0.7-0.5-1.5-0.3-1.9,0.3c-0.6,0.8,0.4,1,0.9,1.3C747.5,596.1,749.7,597.3,751.8,598.6z"/>
			</g>
			<g>
				<path fill-rule="evenodd" clip-rule="evenodd" fill="#746975" d="M747.5,600.9c0.6,0.1,1-0.2,1.2-0.6c0.2-0.6-0.2-0.9-0.6-1.1
					c-2-1.2-4-2.4-6-3.7c-0.7-0.5-1.5-0.3-1.9,0.3c-0.6,0.8,0.4,1,0.9,1.3C743.2,598.4,745.4,599.6,747.5,600.9z"/>
			</g>
			<g>
				<path fill-rule="evenodd" clip-rule="evenodd" fill="#746975" d="M743.3,603.2c0.6,0.1,1-0.2,1.2-0.6c0.2-0.6-0.2-0.9-0.6-1.1
					c-2-1.2-4-2.4-6-3.7c-0.7-0.5-1.5-0.3-1.9,0.3c-0.6,0.8,0.4,1,0.9,1.3C739,600.7,741.2,601.9,743.3,603.2z"/>
			</g>
			<g>
				<path fill-rule="evenodd" clip-rule="evenodd" fill="#746975" d="M739,605.5c0.6,0.1,1-0.2,1.2-0.6c0.2-0.6-0.2-0.9-0.6-1.1
					c-2-1.2-4-2.4-6.1-3.7c-0.7-0.5-1.5-0.3-1.9,0.3c-0.6,0.8,0.4,1,0.9,1.3C734.7,603,736.9,604.2,739,605.5z"/>
			</g>
			<g>
				<path fill-rule="evenodd" clip-rule="evenodd" fill="#746975" d="M734.8,607.8c0.6,0.1,1-0.2,1.2-0.6c0.2-0.6-0.2-0.9-0.6-1.1
					c-2-1.2-4-2.4-6-3.7c-0.7-0.5-1.5-0.3-1.9,0.3c-0.6,0.8,0.4,1,0.9,1.3C730.5,605.3,732.6,606.6,734.8,607.8z"/>
			</g>
			<g>
				<path fill-rule="evenodd" clip-rule="evenodd" fill="#746975" d="M730.5,610.1c0.6,0.1,1-0.2,1.2-0.6c0.2-0.6-0.2-0.9-0.6-1.1
					c-2-1.2-4-2.4-6-3.7c-0.7-0.5-1.5-0.3-1.9,0.3c-0.6,0.8,0.4,1,0.9,1.3C726.2,607.6,728.4,608.9,730.5,610.1z"/>
			</g>
			<g>
				<path fill-rule="evenodd" clip-rule="evenodd" fill="#746975" d="M726.2,612.4c0.6,0.1,1-0.2,1.2-0.6c0.2-0.6-0.2-0.9-0.6-1.1
					c-2-1.2-4-2.4-6-3.7c-0.7-0.5-1.5-0.3-1.9,0.3c-0.6,0.8,0.4,1,0.9,1.3C721.9,609.9,724.1,611.2,726.2,612.4z"/>
			</g>
			<g>
				<path fill-rule="evenodd" clip-rule="evenodd" fill="#746975" d="M722,614.7c0.6,0.1,1-0.2,1.2-0.6c0.2-0.6-0.2-0.9-0.6-1.1
					c-2-1.2-4-2.4-6-3.7c-0.7-0.5-1.5-0.3-1.9,0.3c-0.6,0.8,0.4,1,0.9,1.3C717.7,612.2,719.9,613.5,722,614.7z"/>
			</g>
		</g>
	</g>
	<g id="Door_Front">
		<path fill-rule="evenodd" clip-rule="evenodd" fill="#948A9A" d="M672.3,657.7c1.7,1,4.5,2.6,6.2,3.6c0.9,0.5,1.3,0.4,1.3-0.7
			c0-5.6,0-12.1,0-17.6c0-0.9-0.5-1.4-1.2-1.8c-6.6-3.9-13.3-7.8-19.9-11.6c-0.3-0.2-0.8-0.1-1.2-0.1c0,5.2,0.1,18.9,0.1,20
			C664.7,652.8,669.4,656.2,672.3,657.7z"/>
	</g>
	<path fill-rule="evenodd" clip-rule="evenodd" fill="#E5E8E9" d="M657.6,649.3c0-5.2,0-14.8-0.1-20c-0.3-0.5-0.6-1.1-1.2-0.8
		c-0.7,0.3-0.7,1-0.7,1.6c0,4.9,0,13.1,0,18.1C655.8,648.8,656.7,649.1,657.6,649.3z"/>
	<g id="Box">
		<path fill-rule="evenodd" clip-rule="evenodd" fill="#DAD9DA" d="M637.2,676.3c0.4,0.2,0.6,0,0.6-0.4v-16.3c0-0.4-0.3-0.9-0.6-1.1
			l-17.8-9.7c-0.4-0.2-0.6,0-0.6,0.4l0,15.8c0,0.4,0.3,0.9,0.6,1.1L637.2,676.3z"/>
		<path fill-rule="evenodd" clip-rule="evenodd" fill="#E5E8E9" d="M638.6,676.3c-0.4,0.2-0.6,0-0.6-0.4v-16.3
			c0-0.4,0.3-0.9,0.6-1.1l26.6-14.6c0.4-0.2,0.6,0,0.6,0.4l0,15.8c0,0.4-0.3,0.9-0.6,1.1L638.6,676.3z"/>
		<path fill-rule="evenodd" clip-rule="evenodd" fill="#A49DAB" d="M619.6,648.2c-0.4,0.2-0.4,0.5,0,0.7l17.6,9.6
			c0.3,0.2,0.9,0.3,1.2,0.1L665,644c0.4-0.2,0.4-0.5,0-0.8l-17.4-9.5c-0.3-0.2-0.9-0.2-1.3,0L619.6,648.2z"/>
	</g>
	<g id="Cab">
		<path fill-rule="evenodd" clip-rule="evenodd" fill="#6F8FC2" d="M635.1,678l-1.5-11.2l-0.1-0.8l-14.8-8.7l-11.2,5.5l-2,10.1
			l13.6,7.3c0,0,0.4,0.5,1.1,0.7l0,0.1l-0.2,12.7l5.6-2.5v-2.6c0,0,1-4.3,2.2-5c1.2-0.8,3.6-2.1,3.6-2.1s1.5,0,1.7,1
			c0.3,1,0.5,1.7,0.5,1.7l1.7-0.9L635.1,678z"/>
		<polygon fill-rule="evenodd" clip-rule="evenodd" fill="#948A9A" points="607.5,663.5 605.6,672.8 620.2,680.8 622.9,670.9 
			607.8,662.6 		"/>
		<path fill-rule="evenodd" clip-rule="evenodd" d="M619.1,680.1c0.1-0.7,0.2-1.3,0.3-1.9c0.2-0.7,0.4-1.4,0.5-2.1
			c0.1-0.2,0.1-0.5,0.2-0.7c0.2-0.7-0.1-1.1-0.8-1.3c-0.2,0.2-0.4,0.4-0.5,0.7c-0.6,1.2-1.3,2.3-1.9,3.5c-0.1,0.2,0.2,0.5,0.3,0.9
			c-2.1-1.2-4.2-2.5-6.3-3.7c0,0,0.1-0.1,0.1-0.1c0.2,0.1,0.5,0.2,0.7,0.2c-0.1-0.7-0.3-1.3-0.3-2c0-0.8,0.2-1.5,0.3-2.3
			c0.1-0.7,0.1-1.3-0.2-2c-0.7-1.4-2-1.6-3.1-2.3c-0.4-0.3-0.9-0.4-1.3-0.4c-0.2,0-0.4,0.4-0.5,0.6c-0.2,0.5-0.3,1.1-0.4,1.7
			c-0.5-0.6-0.4-3.8,0.1-4.2c0,0.1,0.1,0.2,0.1,0.3c1-0.5,1.1-1.5,1.3-2.4c1.4,0.8,2.7,1.6,4,2.4c1.8,1,3.6,2.1,5.4,3.1
			c1.3,0.7,2.6,1.4,3.8,2.2c0.5,0.3,0.8,0.7,0.6,1.4c-0.1,0.3-0.1,0.6-0.1,0.9c0.1,0,0.2,0,0.3,0.1c0.1-0.4,0.2-0.7,0.3-1.1
			c0.1-0.2,0.2-0.4,0.3-0.5c0.4-0.2,0.6,0,0.6,0.4c0,0.1,0,0.3,0,0.7c3.5-2,6.9-4,10.3-5.9c0.3,0.5-0.1,0.7-0.3,0.8
			c-1.8,1-3.6,2.1-5.5,3.1c-1.5,0.8-3,1.6-4.3,2.6c-0.5,0.3-0.7,1.2-0.8,1.9c-0.2,1-0.3,2.1-0.5,3.2c-0.2,0.8-0.4,1.7-0.8,2.3
			C620.5,680.8,619.8,680.7,619.1,680.1z M620.2,678.2c-0.5,0.3-0.7,1.1-0.5,1.9C620.2,679.9,620.5,678.8,620.2,678.2z"/>
		<path fill-rule="evenodd" clip-rule="evenodd" d="M606.4,674.9c1.8,1,11.4,6.6,11.9,6.9c0.2,0.2,0.4,0.5,0.4,0.8
			c0.1,0.7,0,1.4,0,2.1c0,0.1-0.1,0.4-0.2,0.4c-0.1,0-0.3-0.1-0.5-0.1c-0.2-0.1-0.3-0.3-0.5-0.4c-0.4-0.3-0.8-0.2-0.9,0.3
			c-0.3,0.8-0.3,0.8-1.1,0.4c-1.4-0.8-2.8-1.7-4.3-2.5c-0.7-0.4-1.5-0.8-2.2-1.2c-0.3-0.2-0.7-0.6-0.8-0.9c-0.3-1.1-0.8-2-1.9-2.5
			c-0.3-0.1-0.4-0.6-0.5-0.9c-0.1-0.5-0.1-1,0-1.5C605.9,675.4,605.8,674.6,606.4,674.9z"/>
		<path fill-rule="evenodd" clip-rule="evenodd" d="M607.5,683.4c0.7,0.3,1.1,0.5,1.6,0.8c2.4,1.4,4.8,2.8,7.2,4.2
			c0.3,0.2,0.5,0.7,0.6,1c0.1,0.3,0,0.7,0,1.1c0,0.5-0.2,0.6-0.6,0.4c-0.7-0.4-1.4-0.8-2.1-1.2c-1.5-0.9-3-1.7-4.5-2.6
			c-0.6-0.4-1.3-0.7-1.9-1.1c-0.1-0.1-0.3-0.3-0.3-0.5C607.5,684.9,607.5,684.2,607.5,683.4z"/>
		<path fill="#99C1E7" d="M634.1,677.5c-1.6,0.8-3.1,1.7-4.6,2.6c-1.1,0.6-2.3,1.2-3.1,2.2c-0.6,0.8-1.4,1.6-1.7,2.7
			c-0.3,1-0.7,2-1.9,2.4c-0.8,0.3-1.6,0.8-2.4,1.3c-0.5,0.3-1,0.3-1.5,0c-2.1-1.3-4.3-2.5-6.4-3.8c-1.8-1.1-3.7-2.1-5.5-3.1
			c-0.3-0.2-0.6-0.3-0.8-0.6c-0.1-0.2-0.1-0.4-0.2-0.8c4,2.4,7.8,4.6,11.8,6.9c0.1-0.5,0.1-0.8,0.2-1.1c0.2,0.5-0.1,1.2,0.7,1.5
			c0.6,0.2,1.1,0.7,1.6,0.3c0-2.3,0-4.5,0-6.8c0-0.2,0-0.4-0.2-0.4c-2-1.1-4-2.2-6-3.3c-1.9-1.1-3.9-2.2-5.8-3.4
			c-0.8-0.4-1.6-0.9-2.3-1.3c0,0,0,0-0.1,0c-0.3,0-0.8,0.2-0.8,0.6l0.1,8.5h-0.1v3.3v0.1v0.4c0.1,0.1,0.2,0.2,0.4,0.4
			c0.6,0.4,11.7,6.9,11.7,6.9l1.8,0.9c0,0,0.4,0.1,0.8-0.2c0.1-0.1,0.1-0.1,0.2-0.2v-2.1c0-0.1,0-0.2,0-0.3v0c0-0.4,0-0.8,0.1-1.1
			c0-0.3,0.6-0.5,0.9-0.7c0.8-0.4,1.5-0.9,2.3-1.3c1.1-0.5,1.9-1.2,2.2-2.5c0.3-1.2,0.9-2.4,1.9-3.2c0.9-0.7,1.8-1.3,2.8-1.8
			c1.4-0.9,2.9-1.7,4.3-2.5c0.1-0.1,0.2-0.4,0.2-0.6C634.6,677.5,634.3,677.4,634.1,677.5z M605.6,677.2c0-0.6,0-1.2,0-1.8
			c0-0.4,0-1,0.5-0.9c0.1,0,0.6,0.3,0.8,0.4c1.8,1.1,3.7,2.1,5.5,3.2c1.3,0.7,2.5,1.5,3.8,2.3c0.5,0.3,1,0.6,1.6,0.9
			c0.6,0.3,0.9,0.8,0.9,1.4c0,0.7,0,1.4,0,2.1c0,0.2-0.1,0.4-0.2,0.5c-0.2,0.1-0.4,0-0.6-0.1c-0.2-0.1-0.3-0.2-0.4-0.3
			c-0.5-0.3-0.7-0.3-0.9,0.3c-0.2,0.6-0.5,0.7-1,0.4c-0.6-0.3-1.1-0.6-1.7-0.9c-1.7-1-3.4-2-5.1-3c-0.4-0.2-0.7-0.6-0.8-1
			c-0.3-1.1-0.9-1.8-1.8-2.3C605.8,678.1,605.6,677.7,605.6,677.2z M605.8,683.5c0.2,0.2,0.4,0.4,0.7,0.7c-0.4,0-0.6,0-0.9,0
			c0.1,0.2,0.2,0.5,0.3,0.7c-1-0.8-0.3-2-0.6-2.9c0,0,0.1-0.1,0.1-0.1c0.3,0.2,0.7,0.3,1.2,0.6C605.6,682.6,605.4,683,605.8,683.5z
			 M617.1,690.1c-0.1,1.4-0.1,1.5-1.3,0.8c-1.7-1-3.4-2.1-5.2-3.1c-0.9-0.5-1.8-1-2.7-1.5c-0.4-0.2-0.7-0.5-0.7-1c0-0.5,0-1,0-1.5
			c0-0.6,0.3-0.8,0.8-0.4c1.8,1,3.7,2.1,5.5,3.1c0.8,0.5,1.6,1.1,2.5,1.5C617,688.5,617.2,689.2,617.1,690.1z"/>
		<path id="Window_1_" fill-rule="evenodd" clip-rule="evenodd" d="M625.3,679c-0.4,0.2-0.6,0.4-0.9,0.5c-0.5,0.4-0.7-0.2-1-0.4
			c0.2,0.1,0.4,0.1,0.9,0.2c-0.2-0.3-0.3-0.5-0.4-0.7c-0.1-0.2-0.2-0.4-0.3-0.7c-0.3,0.2-0.7,0.3-1,0.5c0-0.2-0.1-0.3-0.1-0.5
			c0.2-1.6,0.5-3.1,0.8-4.7c0-0.1,0.1-0.3,0.2-0.4c1.7-1,3.3-1.9,5-2.8c0,0,0.1,0,0.3,0c0,0.5,0,0.9,0,1.4c0,0.9,0,1.9,0,2.8
			c0,0.5-0.1,0.8-0.6,1c-0.9,0.5-1.8,1-2.8,1.6C625.3,677.6,625.3,678.4,625.3,679z"/>
		<path id="Dorrhandle" fill-rule="evenodd" clip-rule="evenodd" d="M628.7,678.9c-0.4,0.2-0.7,0.5-1.1,0.7c-0.1-0.6,0.3-0.9,1-0.9
			C628.6,678.8,628.6,678.9,628.7,678.9z"/>
		<path id="Highlight" fill-rule="evenodd" clip-rule="evenodd" fill="#FFFFFF" d="M620.2,678.2c0.3,0.6,0,1.7-0.5,1.9
			C619.5,679.3,619.7,678.5,620.2,678.2z"/>
	</g>
	<g id="Wheels">
		<path fill-rule="evenodd" clip-rule="evenodd" fill="#FFFFFF" d="M652.3,673.5c0-1.6,1.5-3.4,3-3.7c0.9-0.2,1.7,0.7,1.4,1.7
			c-0.4,1.4-1.1,2.6-2.5,3.3C653,675.4,652.2,674.9,652.3,673.5z"/>
		<path fill-rule="evenodd" clip-rule="evenodd" fill="#FFFFFF" d="M666.2,665.6c-0.3,1.7-1,2.9-2.4,3.6c-1,0.6-1.5,0.5-2-0.1
			c-0.5-0.6-0.4-1.3-0.1-1.9c0.5-1,1.1-2,2.2-2.5c0.5-0.2,1-0.5,1.5-0.2C665.9,664.8,666,665.3,666.2,665.6z"/>
		<path fill-rule="evenodd" clip-rule="evenodd" fill="#FFFFFF" d="M627.5,687.8c0-1.8,1.6-3.3,3.1-3.8c0.7-0.2,1.5,0.7,1.4,1.5
			c-0.3,1.5-1,2.7-2.4,3.5c-0.1,0-0.2,0.1-0.2,0.1C628.3,689.6,627.5,689.1,627.5,687.8z"/>
		<path fill-rule="evenodd" clip-rule="evenodd" d="M655.3,672c0.2-0.1,0.5-0.2,0.5-0.3c0-0.5-0.1-1.1-0.1-1.6
			c0.3,0.1,0.7,0.7,0.5,1.2c-0.4,1.3-0.9,2.5-2.2,3.1c-0.4,0.2-0.8,0.5-1.3,0.2c-0.5-0.3-0.5-0.8-0.5-1.4c0.2,0.6,0.1,1.3,1,1.3
			c0.6-0.1,1.2-0.9,1.1-1.4c-0.2,0.2-0.3,0.3-0.6,0.5c0-0.7,0.6-0.9,0.8-1.2c0.2,0.2,0.5,0.3,0.7,0.5
			C655.4,672.5,655.4,672.3,655.3,672L655.3,672z"/>
		<path fill-rule="evenodd" clip-rule="evenodd" d="M628.6,687.9c0.4-0.4,0.8-0.8,1.2-1.2c0.7,0.7,0.9,0.6,1.2-0.2
			c0.1-0.2,0.1-0.4,0.2-0.6c0.3-1-0.2-1.5-1.2-1.4c0-0.1,0-0.1,0-0.2c0.3,0,0.7-0.2,0.8-0.1c0.3,0.3,0.7,0.7,0.7,1.1
			c0.1,1.6-1.3,3.3-2.8,3.7c-0.5,0.1-1-0.2-1.1-0.7c0-0.3,0-0.6,0.1-0.8c0,0.1,0,0.3,0,0.4c0.1,0.8,0.5,1,1.2,0.7
			c0.3-0.1,0.5-0.2,0.7-0.4c0.1-0.1,0.2-0.3,0.2-0.5c0-0.1-0.2-0.3-0.2-0.3c-0.1,0.1-0.3,0.2-0.4,0.3c-0.2,0.1-0.3,0.3-0.5,0.4
			C628.7,688,628.7,687.9,628.6,687.9z"/>
		<path fill-rule="evenodd" clip-rule="evenodd" d="M664,667.1c0-0.1,0-0.2,0-0.3c0.1-0.2,0.3-0.4,0.4-0.5c0.1,0.2,0.2,0.4,0.3,0.6
			c0,0.1,0,0.2,0.1,0.3c0.2-0.2,0.3-0.4,0.5-0.6c0.1,0,0.1,0.1,0.2,0.1c-0.2,0.4-0.4,0.9-0.8,1.3c-0.6,0.5-1.2,0.9-1.9,1.3
			c-0.1,0.1-0.5-0.1-0.7-0.2l0,0c0.5-0.2,1.1-0.3,1.5-0.6c0.2-0.1,0.1-0.5,0.2-0.8c-0.1,0-0.2,0-0.3-0.1c-0.1,0.3-0.2,0.5-0.4,0.8
			C662.9,667.9,663.3,667.3,664,667.1c0.1,0.3,0.2,0.6,0.3,0.8c0.1,0,0.1,0,0.2,0c0-0.4,0.1-0.8,0.1-1.3c-0.1,0-0.1,0-0.2,0
			C664.3,666.8,664.2,666.9,664,667.1z"/>
		<path fill-rule="evenodd" clip-rule="evenodd" d="M655.4,672c-0.4-0.2-0.8-0.4-1.2-0.6c-0.1,0.1-0.3,0.4-0.4,0.6
			c0,0-0.1-0.1-0.1-0.1c0.2-0.6,0.9-1.2,1.5-1C655.7,671.1,655.5,671.6,655.4,672L655.4,672z"/>
		<path fill-rule="evenodd" clip-rule="evenodd" d="M629.3,685.4c0.4-0.2,0.6-0.2,0.8-0.3c0,0.3,0,0.5,0,0.8
			c0.2-0.2,0.4-0.3,0.6-0.4c0,0.3,0,0.6,0,0.9c0,0-0.1,0.1-0.1,0.1C630.2,686.2,629.8,685.9,629.3,685.4z"/>
		<path fill-rule="evenodd" clip-rule="evenodd" d="M664.9,665.7c-0.5,0.1-0.8,0.1-1.2,0.1c0,0.1,0,0.3,0,0.4
			c-0.3,0.1-0.5,0.2-0.8,0.3C663,665.7,664,665.2,664.9,665.7z"/>
		<path fill-rule="evenodd" clip-rule="evenodd" d="M662.2,669c-0.2-0.3-0.6-0.5-0.6-0.8c0-0.5,0.2-1.1,0.3-1.6c0.1,0,0.2,0,0.2,0
			c0,0.1-0.1,0.3-0.1,0.4C661.6,667.7,662,668.4,662.2,669L662.2,669z"/>
		<path fill-rule="evenodd" clip-rule="evenodd" d="M665,664.7c0.6,0,0.9,0.6,0.6,1.4C665.4,665.6,665.2,665.1,665,664.7z"/>
		<path fill-rule="evenodd" clip-rule="evenodd" d="M653.5,670.8c0.4-0.3,0.9-0.6,1.3-0.8c0,0.1,0.1,0.1,0.1,0.2
			c-0.4,0.3-0.9,0.5-1.4,0.8C653.5,670.8,653.5,670.8,653.5,670.8z"/>
		<path fill-rule="evenodd" clip-rule="evenodd" d="M664,667.1c0.1-0.2,0.3-0.3,0.4-0.5c0.1,0,0.1,0,0.2,0c0,0.4-0.1,0.8-0.1,1.3
			c-0.1,0-0.1,0-0.2,0C664.2,667.7,664.1,667.4,664,667.1L664,667.1z"/>
		<path fill-rule="evenodd" clip-rule="evenodd" d="M650.3,675.6c0.1,1.1-0.1,1.2-1.6,0.7c0,0.9-0.5,1.4-1.5,1.6
			c0-0.5-0.1-0.9-0.1-1.4c0-0.7,0.1-1.3,0.1-2c0-0.8-0.3-1.1-1-1.3c0.3-0.6,0.7-0.7,1.1-0.3c0.4,0.3,0.7,0.7,1,1.1
			c0.1-0.1,0.1-0.1,0.2-0.2c-0.4-0.5-0.9-0.9-1.3-1.4c0.2-0.1,0.3-0.3,0.5-0.4c1.9-1.1,3.8-2.2,5.7-3.3c1.9-1.1,3.8-2.2,5.7-3.3
			c1.9-1.1,3.8-2.2,5.7-3.3c1.1-0.6,2.1-1.2,3.2-1.8c0.7-0.4,1.5,0.1,1.5,0.8c0,0.8,0,1.5,0,2.3c0,0.2-0.1,0.5-0.3,0.6
			c-0.4,0.2-0.5,0.5-0.5,0.9c0,1-0.3,1.1-1.2,0.9c-0.4,0.8-0.7,1.7-1.2,2.4c-0.9,1.3-2,2.3-3.7,2.7c-1,0.2-1.8-0.2-2.6-0.8
			c-0.3,1-1,1.4-1.9,1.3c-0.7,1.1-1.4,2.3-2.2,3.3c-0.7,0.9-1.7,1.6-2.9,1.7c-0.6,0-1.2-0.2-1.7-0.4
			C651,676,650.7,675.8,650.3,675.6z M652.3,673.5c0,1.4,0.7,1.9,2,1.3c1.4-0.7,2.1-1.8,2.5-3.3c0.3-1-0.6-1.9-1.4-1.7
			C653.8,670.1,652.3,671.9,652.3,673.5z M666.2,665.6c-0.2-0.3-0.4-0.8-0.7-1.1c-0.5-0.4-1-0.1-1.5,0.2c-1.1,0.5-1.7,1.5-2.2,2.5
			c-0.3,0.6-0.4,1.3,0.1,1.9c0.5,0.6,0.9,0.7,2,0.1C665.2,668.5,665.9,667.3,666.2,665.6z"/>
		<path fill-rule="evenodd" clip-rule="evenodd" d="M634.5,676.7c0.5,0.3,1.1,0.6,1.6,0.9c0.4,0.2,0.7,0.4,1.1,0.6
			c0.8,0.3,1.3,0.9,1.3,1.8c0,0.8,0,1.6,0,2.4c0,0.9-1,1.6-1.8,1.5c-0.5-0.1-1-0.3-1.4-0.6c-0.2-0.1-0.2-0.5-0.2-0.8
			c0-1.4,0-2.8,0-4.1c0-0.6,0-0.6-0.8-1.5C634.4,676.9,634.4,676.8,634.5,676.7z"/>
		<path fill-rule="evenodd" clip-rule="evenodd" d="M633.6,684.5c-0.1,1.5-0.8,2.6-1.6,3.7c-0.6,0.8-1.5,1.5-2.3,2.1
			c-1.1,0.8-2,0.6-3.2,0.1c-1.3-0.5-1.3-1.3-1-2.3c0.4-1.3,0.9-2.6,1.4-3.8c0.2-0.5,0.8-0.9,1.2-1.2c1-0.6,2.1-1.2,3.1-1.8
			c0.6-0.4,1.4,0,1.7,1C633.3,683,633.5,683.7,633.6,684.5z M627.5,687.8c0,1.3,0.7,1.8,1.9,1.3c0.1,0,0.2-0.1,0.2-0.1
			c1.4-0.8,2.1-2,2.4-3.5c0.1-0.8-0.7-1.7-1.4-1.5C629.1,684.4,627.5,686,627.5,687.8z"/>
		<path fill-rule="evenodd" clip-rule="evenodd" d="M639.1,682.7c-0.2-0.9-0.2-1.7-0.1-2.6c0.1-0.9,0-1.7-1.1-2.1
			c0.4-0.2,0.6-0.4,0.9-0.6c2-1.1,3.9-2.3,5.9-3.4c1-0.6,1.5-0.4,1.7,0.7c0.2,1.2,0.1,2.4,0.1,3.6c0,0.2-0.2,0.4-0.4,0.5
			c-2.3,1.3-4.6,2.6-6.9,3.9C639.3,682.7,639.3,682.6,639.1,682.7z"/>
	</g>
</g>
</svg>
