<?xml version="1.0" encoding="utf-8"?>
<!-- Generator: Adobe Illustrator 16.0.4, SVG Export Plug-In . SVG Version: 6.00 Build 0)  -->
<!DOCTYPE svg PUBLIC "-//W3C//DTD SVG 1.1//EN" "http://www.w3.org/Graphics/SVG/1.1/DTD/svg11.dtd">
<svg version="1.1" id="Layer1" xmlns="http://www.w3.org/2000/svg" xmlns:xlink="http://www.w3.org/1999/xlink" x="0px" y="0px"
	 width="841.9px" height="595.301px" viewBox="0 0 841.9 595.301" enable-background="new 0 0 841.9 595.301" xml:space="preserve">
<g id="Truck">
	<g id="FrontWheel">
		<ellipse fill="#61656A" cx="137.4" cy="47.8" rx="33.5" ry="33.5"/>
		<g>
			<g>
				<g>
					<polygon fill="#515254" points="154.6,22.9 158.5,21.6 149.5,16.6 150.5,20.5 					"/>
					<polygon fill="#515254" points="119.9,72.7 116.1,73.9 125.1,79 124.1,75.1 					"/>
				</g>
			</g>
			<g>
				<g>
					<polygon fill="#515254" points="164.8,34.9 168.8,35.7 163.5,26.8 162.4,30.8 					"/>
					<polygon fill="#515254" points="109.8,60.7 105.8,59.8 111.1,68.7 112.2,64.8 					"/>
				</g>
			</g>
			<g>
				<g>
					<polygon fill="#515254" points="167.5,50.3 170.6,53.1 170.4,42.7 167.5,45.6 					"/>
					<polygon fill="#515254" points="107,45.2 104,42.5 104.1,52.8 107,50 					"/>
				</g>
			</g>
			<g>
				<g>
					<polygon fill="#515254" points="162.2,65.1 163.4,69 168.5,60 164.6,61 					"/>
					<polygon fill="#515254" points="112.4,30.4 111.1,26.5 106.1,35.6 110,34.6 					"/>
				</g>
			</g>
			<g>
				<g>
					<polygon fill="#515254" points="150.2,75.3 149.3,79.3 158.2,74 154.3,72.9 					"/>
					<polygon fill="#515254" points="124.4,20.3 125.3,16.3 116.4,21.6 120.3,22.7 					"/>
				</g>
			</g>
			<g>
				<g>
					<polygon fill="#515254" points="134.7,78 132,81.1 142.3,80.9 139.5,78 					"/>
					<polygon fill="#515254" points="139.9,17.5 142.6,14.5 132.3,14.6 135.1,17.5 					"/>
				</g>
			</g>
		</g>
		<path fill="#E7DDC9" d="M137.9,20.6c-4.8,0-9.3,1.199-13.3,3.399c-8.4,4.601-14,13.5-14,23.7c0,7.5,3.1,14.3,8,19.2
			c4.899,4.899,11.8,8,19.3,8c6.7,0,12.8-2.4,17.6-6.4c5.9-5,9.7-12.399,9.7-20.8c0-7.3-2.9-13.9-7.5-18.7
			C152.7,23.8,145.7,20.6,137.9,20.6z M137.9,67.1c-10.7,0-19.3-8.7-19.3-19.301c0-10.699,8.699-19.3,19.3-19.3
			c10.7,0,19.3,8.7,19.3,19.3C157.2,58.5,148.6,67.1,137.9,67.1z"/>
		<circle fill="#515254" cx="137.7" cy="47.9" r="17.5"/>
		<ellipse fill="#E4E4E3" stroke="#CFD2CC" stroke-miterlimit="10" cx="137.4" cy="47.9" rx="5.399" ry="5.5"/>
		<path fill="#F5F5F5" stroke="#CFD2CC" stroke-miterlimit="10" d="M137.4,43.5c-2.4,0-4.3,2-4.3,4.4h8.699
			C141.8,45.4,139.8,43.5,137.4,43.5z"/>
		<path fill="#819D6A" d="M152.1,40.9C152.1,40.9,152.2,40.9,152.1,40.9c-1.5-3-4.101-5.601-7.301-7.101c-1.1,1.4-3.899,2.4-7.1,2.4
			c-3.3,0-6.1-1-7.2-2.4c-3.2,1.5-5.8,4.101-7.399,7.2C124.5,42.1,125.5,44.9,125.5,48.1c0,3.199-0.899,5.899-2.3,7
			c1.6,3,4.2,5.5,7.3,7c1.101-1.4,3.9-2.4,7.101-2.4c3.3,0,6,1,7.1,2.4c3.1-1.5,5.6-3.9,7.2-6.9c-1.4-1.1-2.4-3.9-2.4-7.1
			C149.7,44.7,150.7,41.9,152.1,40.9z M137.5,54.3c-3.6,0-6.399-2.899-6.399-6.399c0-3.601,2.899-6.4,6.399-6.4
			c3.601,0,6.4,2.9,6.4,6.4S141,54.3,137.5,54.3z"/>
	</g>
	<g id="RearWheel">
		<ellipse fill="#61656A" cx="-107.2" cy="45.7" rx="33.5" ry="33.5"/>
		<g>
			<g>
				<g>
					<polygon fill="#515254" points="-90,20.8 -86.1,19.6 -95.1,14.5 -94.1,18.4 					"/>
					<polygon fill="#515254" points="-124.7,70.6 -128.6,71.9 -119.6,77 -120.6,73 					"/>
				</g>
			</g>
			<g>
				<g>
					<polygon fill="#515254" points="-79.9,32.8 -75.9,33.7 -81.1,24.8 -82.2,28.7 					"/>
					<polygon fill="#515254" points="-134.8,58.6 -138.8,57.8 -133.5,66.7 -132.4,62.8 					"/>
				</g>
			</g>
			<g>
				<g>
					<polygon fill="#515254" points="-77.1,48.3 -74.1,51.1 -74.2,40.7 -77.1,43.5 					"/>
					<polygon fill="#515254" points="-137.6,43.2 -140.6,40.4 -140.5,50.8 -137.6,47.9 					"/>
				</g>
			</g>
			<g>
				<g>
					<polygon fill="#515254" points="-82.4,63.1 -81.2,67 -76.1,58 -80,59 					"/>
					<polygon fill="#515254" points="-132.3,28.4 -133.5,24.5 -138.6,33.5 -134.6,32.5 					"/>
				</g>
			</g>
			<g>
				<g>
					<polygon fill="#515254" points="-94.4,73.2 -95.3,77.2 -86.4,71.9 -90.3,70.8 					"/>
					<polygon fill="#515254" points="-120.2,18.3 -119.4,14.3 -128.3,19.5 -124.4,20.6 					"/>
				</g>
			</g>
			<g>
				<g>
					<polygon fill="#515254" points="-109.9,76 -112.7,79 -102.3,78.9 -105.1,76 					"/>
					<polygon fill="#515254" points="-104.8,15.5 -102,12.5 -112.4,12.6 -109.5,15.5 					"/>
				</g>
			</g>
		</g>
		<path fill="#E7DDC9" d="M-106.7,18.6c-5.399,0-10.399,1.5-14.6,4.199C-128.9,27.6-134,36.1-134,45.8c0,7.301,2.9,14,7.7,18.9
			c5,5.1,11.9,8.3,19.6,8.3c7.9,0,15-3.3,19.9-8.6c4.5-4.9,7.3-11.4,7.3-18.5c0-7.3-2.899-13.9-7.6-18.8
			C-92,21.8-99,18.6-106.7,18.6z M-106.7,65.1C-117.4,65.1-126,56.4-126,45.8c0-10.699,8.7-19.3,19.3-19.3
			C-96,26.5-87.4,35.2-87.4,45.8C-87.4,56.4-96.1,65.1-106.7,65.1z"/>
		<circle fill="#515254" cx="-106.9" cy="45.9" r="17.5"/>
		<ellipse fill="#E4E4E3" stroke="#CFD2CC" stroke-miterlimit="10" cx="-107.2" cy="45.9" rx="5.4" ry="5.5"/>
		<path fill="#F5F5F5" stroke="#CFD2CC" stroke-miterlimit="10" d="M-107.2,41.4c-2.399,0-4.3,2-4.3,4.399h8.7
			C-102.9,43.4-104.8,41.4-107.2,41.4z"/>
		<path fill="#819D6A" d="M-92.5,38.8C-92.5,38.8-92.5,38.9-92.5,38.8c-1.5-3-4.1-5.6-7.3-7.1c-1.1,1.4-3.9,2.4-7.1,2.4
			c-3.301,0-6.101-1-7.2-2.4c-3.2,1.5-5.8,4.1-7.4,7.2c1.4,1.1,2.4,3.899,2.4,7.1s-0.9,5.9-2.3,7c1.6,3,4.199,5.5,7.3,7
			C-113,58.6-110.2,57.6-107,57.6c3.3,0,6,1,7.101,2.399c3.1-1.5,5.6-3.899,7.199-6.899C-94.1,52-95.1,49.2-95.1,46
			C-94.9,42.7-93.9,39.9-92.5,38.8z M-107.2,52.2c-3.6,0-6.399-2.9-6.399-6.4c0-3.6,2.899-6.399,6.399-6.399
			c3.601,0,6.4,2.899,6.4,6.399C-100.7,49.4-103.6,52.2-107.2,52.2z"/>
	</g>
	<g id="Cabin">
		<path fill="#6F855B" d="M-29.2-11.6l4.7-19.4L-8.6-30.4L-8-62.7c0,0,1.8-5.8,7.601-5.899C5.5-68.7,40-68.1,40-68.1
			s5,1.899,6.5,4.5C48-61,66.9-25,66.9-25l0.5-7L49-64.7c0,0-0.1-2.399,1.8-3C52.7-68.3,43.9-75.5,33.1-77
			C22.3-78.5,0.9-77.3-6.1-77s-19,1-21.3,19C-29.7-40-29.2-11.6-29.2-11.6z"/>
		<path fill="#7B9465" d="M-28.9,32.5l-28.5,0.2c0,0,1.3,16.3,1.3,17c0,0.6,4.8-0.1,4.8-0.1H55.3l11.2-0.5L65.2,42.3l-41.8,0.4
			c0,0-24.601-1.1-33.5-1C-18.9,41.8-28.4,44-28.9,32.5z"/>
		<polygon fill="#A5BA93" points="-24.2,-22.1 -9.9,-19.9 -9.9,-21.7 -9.6,-23.7 		"/>
		<path fill="#7B9465" d="M72.3-36c0,0-4.399,1.5-4.699,4.3C67.4-28.9,68.7,28,68.5,35.6C68.3,42.3,65.9,41.8,65.1,42.4
			C63.5,43.5,65.7,43.3,65.7,43.3s6.1,2.4,8.1-4.3c1.375-4.606-4.481-23.771,8.524-35.136C88.235-1.302,98.044-4.857,114.2-4.7
			C170.5-4.1,161.4-3.9,161.4-3.9L182.3-3.2c0,0-2.399-9.899-6.1-13.399c-0.4-0.4,0-0.3,0-0.3l-89.7-6.2
			C86.6-23.1,74.3-23.8,72.3-36z"/>
		<path fill="#BFCCB2" d="M104.3,43.4c0,0-29.8-0.5-30.3,0c-0.899,1-0.6,1.2-0.6,1.2s29.8,2,30.3,0.699
			C103.9,44.6,104.3,43.4,104.3,43.4z"/>
		<path fill="none" stroke="#000000" stroke-miterlimit="10" d="M-29.2,32.2"/>
		<path fill="#8CAC74" d="M49-64.7c0,0,1.7-2.199,1.3-2.8C49.8-68,46-71.6,41.6-72C37.2-72.4-8-74.7-15-71.9
			c-7,2.8-7.7,9.6-8,16.199C-23.3-49.1-24.4-31.1-24.4-31.1L-29.1-11.7c0,0-0.4,30.801,0.2,44.2c0,0,0.5,9,5.699,9.2
			c5.2,0.2,13.2,0,13.2,0l-0.8-2l1-61.4l1.4-8.699L-7.9-62c0,0,0.699-6.5,8.199-6.5C7.7-68.5,39.9-68,39.9-68s4.1,0.101,6.3,3.9
			S67.7-25.7,67.7-25.7v-6.1L49-64.7z"/>
		<path fill="#A5BA93" d="M-24.2-31.7l1.4-28.6c0,0-0.3-11.9,14.3-13.1C6.1-74.6,8-73.4,8-73.4h3.8L4.3-73c0,0-21.1-0.2-23.199,17.7
			c-2,17.9-3.4,19.7-3.4,19.7L-24.2-31.7z"/>
		<path fill="#8AA874" stroke="#000000" stroke-miterlimit="10" d="M60.7,42.7h3.6c0,0,4-0.3,4.101-6c0.1-5.7-0.7-62-0.7-62
			l-21-38.2c0,0-3.6-4.399-6.5-4.5C37.3-68.1,4.1-68.6,0-68.6C-5.3-68.6-7.9-64-7.9-62.1C-8-58.7-8.4-30.5-8.4-30.5l-1.4,8.7
			l-1,61.4l0.8,2L60.7,42.7z"/>
		<polygon id="Highlight" fill="#A5BA93" points="64.5,-26.1 -9.6,-23.7 -9.9,-19.9 32.5,-18.5 		"/>
	</g>
	<g id="Bonet">
		<path fill="#8BA378" d="M70.9-35.7c0,0,0.399,11.5,15.399,13s86.301,6,86.301,6h3.699c0,0-4.8-7.899-25.1-12.1
			C139.8-31.1,101.7-34.9,70.9-35.7z"/>
		<path fill="#A2B88F" d="M73.9-31.8l43.2,1.7c0,0,36.6-0.5,55.6,11.6c4.3,2.8-2.2,0-2.2,0s-9.6-3.399-16.899-4.8
			C127.5-28.2,87.9-30,84.3-29.8C80.7-29.6,75.5-30.9,73.9-31.8z"/>
		<path fill="none" stroke="#000000" stroke-miterlimit="10" d="M71.7-35.7c0,0,0.4,11.5,15.4,13s86.3,6,86.3,6h2.899"/>
	</g>
	<g id="FrontFender">
		<path fill="#819D6A" d="M71.6,55.8c0,0,0.5-5.699-4.801-6.199c-0.6-0.101-1.6-6.9-1.6-6.9s8.2,1.6,8.2-6.3c0-7.9,0-13.2,0-13.2
			S74-4.3,110.3-4.9c36.301-0.5,54.4-0.4,54.4-0.4l16.5,1.6l1.1,0.4l0.5,49.8c0,0-2.8,2.4-8.6-2.8c-8.5-7.5-5.4-27.7-33.9-28
			c-8-0.1-22.8,0.1-29.399,12.3c-5.601,10.3-9,22-9,22s-0.4,5.3-8.101,5.7C86.3,56.2,71.6,55.8,71.6,55.8z"/>
		<path fill="#A5BA93" d="M182.4,11.4c0,0-6.9-12.4-49.7-10.9c-31,1-51.9,3.2-55.9,19.8c-1.199,5.101,1.5,0,1.5,0S101.1,6,131.7,5.1
			C162.4,4.2,177.8,11.6,182.4,11.4z"/>
		<path fill="#6F855B" d="M109.4,31.4c0,0,3.8-16.601,29.8-15.601c18.9,0.7,23.6,8.2,27.5,15.601c3.9,7.3,4.9,9.2,6.7,11.5
			s0.2-1.601,0-2.4s-7.601-26.8-25.7-28.3c-13.6-1.1-24.4,1.9-28.2,4.4C115.6,19.1,108.6,26.7,109,32.2"/>
		<path fill="#6F855B" d="M73.5,34.8c0,0-2.3,6.101-0.399-17C75-5.3,103.4-3.7,115.1-4.4C126.8-5.1,182.3-3.2,182.3-3.2V-1.4v12.8
			c0,0-2.199-10.601-50.699-10.9C75,0.2,77,21.7,77,21.7L73.9,31"/>
	</g>
	<g id="SideWindow">
		<path fill="#CFD2CC" stroke="#F4EFE8" stroke-miterlimit="10" d="M-3.2-61.2c0,0,0.5-3.199,4.2-3.3c3.7-0.1,37.5,0,37.5,0
			s4.7,1.4,6.9,5.4s11.1,20.8,11.1,20.8s2.601,5.4-2.6,5.5c-5.101,0.1-53.3,0-53.3,0S-3-33.2-3.2-37C-3.4-40.9-3.2-61.2-3.2-61.2z"
			/>
		<polygon fill="#F4EFE8" stroke="#CFD2CC" stroke-miterlimit="10" points="16.5,-63.7 5.1,-33.2 12.8,-33.2 24.6,-63.7 		"/>
		<polygon fill="#F4EFE8" stroke="#CFD2CC" stroke-miterlimit="10" points="27,-63.7 15.6,-33.2 18.7,-33.2 30.1,-63.7 		"/>
	</g>
	<path id="Shadow" fill="#71865B" d="M-32.4,37.1c0.8,11,8.899,8.899,17.8,8.8c8.899-0.101,33.5,1,33.5,1L66,46.5l-0.7-3.7
		L23.5,43.1c0,0-24.6-1.101-33.5-1C-18.9,42.2-28.4,44.4-28.9,32.9l-28.5,0.2c0,0-1.2,2.699-1,5.3L-32.4,37.1z"/>
	<g id="Lamp">
		<path fill="#D5D4D4" stroke="#000000" stroke-miterlimit="10" d="M124.5,1.2c0,0,2.2-11.5,10.2-11.5s15.7,0,15.7,0V1.2H124.5z"/>
		<polygon fill="#D5D4D4" stroke="#000000" stroke-miterlimit="10" points="151.9,-9.2 150.4,-10.3 150.4,1.2 151.9,-0.7 		"/>
		<polygon fill="#E8E8E9" points="151.6,-7.4 150.5,-8.3 150.6,-5.1 151.6,-4.6 		"/>
		<polygon fill="#B6B8B7" points="150.5,-2.2 150.5,0.3 151.6,-0.9 151.6,-2.2 		"/>
		<path fill="#E8E8E9" d="M125.7,0.8c0,0,2.9-8.399,13-9.1s11.4,0,11.4,0v2.7c0,0-11.4-4.9-18.101,0.899
			C125.4,1,125.7,0.8,125.7,0.8z"/>
		<path fill="#B3B5B5" d="M150.1-3.1L149.9,0.8h-21c0,0,4.6-5.6,6.5-6.3C137.2-6.2,145.2-7,150.1-3.1z"/>
	</g>
	<g id="RearBumper">
		<path fill="#D5D4D4" stroke="#000000" stroke-miterlimit="10" d="M-180.3,17.9c0,0,7.3,1.8,7.3,4.8c0,2.9-4.399,4.6-5.5,4.8
			c-1.1,0.2-7.899,0-7.899,0s-4.801,0.601-4.9-4.7c-0.2-5.399,3.7-5.399,4.9-5.5C-185,17-180.3,17.9-180.3,17.9z"/>
		<path fill="#B3B5B5" d="M-190.5,22.4c0,0,1.9,2.5,6.601,2.3c4.699-0.2,9.8-1.9,10.1-3s0.6,2.2-1.1,3.3
			c-1.7,1.101-5.601,1.9-12.9,1.9C-190.2,26.9-191.1,23.6-190.5,22.4z"/>
		<path fill="#E8E8E9" d="M-183.6,19.5c-2.4,0-6.5,0.101-4.7,1.7s5.1,1.4,7,1C-179.5,21.9-175.9,19.6-183.6,19.5z"/>
	</g>
	<g id="RearFender">
		<path fill="#88A46F" d="M-141.6,40.8c0,0-2.7,7.301-13.2,6.801c-6.4-0.7-8.6-1.7-9.7-2.4c-1.1-0.7-7.1-3.8-6.8-12.5
			c0.4-8.6-0.6-36.6,55.7-40.9c57.8-4.399,58.1,40.9,58.1,40.9s-0.3,1.3,0.101,3.8c0.6,3.8,1.1,10.2,1.1,11.101
			c0,2.199,0,2.199,0,2.199s-5.9-2.199-6.8,6c-0.101,0.801-10.8,0-10.8,0l0.199-4.3c0,0,0.5-1.899-2.199-16.1
			C-78.5,21-100.4,15.5-109.1,16C-133.3,17.5-141.6,40.8-141.6,40.8z"/>
		<path fill="#6F855B" d="M-56,47.7c0-0.9-0.5-7.3-1.1-11.1C-57.5,34.2-57.2,32.8-57.2,32.8S-57.6-12.8-115.3-8.1
			c-28.2,2.3-34.9,6.8-42.9,13c1.9-0.7,3.7-1.3,3.7-1.3s25.7-8.2,59-4.7c33.3,3.6,31.2,37,31.2,37l1.1,20
			c0.301-0.101,0.5-0.101,0.5-0.2c0.9-8.1,6.801-6,6.801-6S-56,49.8-56,47.7z"/>
		<path fill="#A5BA93" d="M-64.8,36.1l0.8,2.3V35c0,0,2-33.399-30.6-37c-32.601-3.6-57.8,4.7-57.8,4.7s-12.5,4.4,1.199,2.9
			C-137.5,4.1-114.4,3-106.9,3.7s21.6,1.2,31.5,11.1C-69.8,20.3-64.8,36.1-64.8,36.1z"/>
		<path fill="#6F855B" d="M-138.7,35c0,0-6.899,7.7-16.6,6.3C-165,39.9-171.9,28.9-171,25.2c0.9-3.7-3,16.5,6.601,20
			C-155,48.7-143.8,51.2-138.7,35z"/>
	</g>
	<g id="Step">
		<path fill="#839B6E" stroke="#000000" stroke-miterlimit="10" d="M-57.3,49.8c0,0-5.5-1.3-5.6,6h1.6L70.2,56l1.4-0.2
			c0,0-0.7-6.399-6-6.1c-5.2,0.3-44.4,0-44.4,0L-57.3,49.8z"/>
		<path fill="#A5BA93" d="M-47.7,51.5c0,0-9.699-0.399-11.699,1.3c-2,1.7,127.1,0.5,127.1,0.5S54,51.1,46,51.5
			C38.1,51.9-47.7,51.5-47.7,51.5z"/>
	</g>
	<g id="FrontBumper">
		<path fill="#D5D4D4" stroke="#000000" stroke-miterlimit="10" d="M180,26.5c0,0-7.3,1.8-7.3,4.8s4.4,4.601,5.5,4.801
			c1.1,0.199,7.9,0,7.9,0s4.8,0.6,4.899-4.7c0.2-5.4-3.7-5.4-4.899-5.5C184.7,25.6,180,26.5,180,26.5z"/>
		<path fill="#B3B5B5" d="M190.2,31c0,0-1.9,2.5-6.6,2.3c-4.7-0.199-9.801-1.899-10.101-3c-0.3-1.1-0.6,2.2,1.101,3.301
			c1.699,1.1,5.6,1.899,12.899,1.899C189.9,35.5,190.8,32.2,190.2,31z"/>
		<path fill="#E8E8E9" d="M183.3,28.1c2.4,0,6.5,0.1,4.7,1.699c-1.8,1.601-5.1,1.4-7,1C179.2,30.5,175.6,28.2,183.3,28.1z"/>
	</g>
	<g id="TruckBed">
		<path fill="#8AA972" d="M-57.4,32.7l28.5-0.2l-0.2-47.3l-156.3-0.1v32c0,0,12.8,0.8,12.5,5.899c-0.301,5.101-10.9,4.5-10.301,4.5
			c0.601,0-2.199-0.1-2.199-0.1L-185,35h13.8c0,0-4-43.399,63-43.5c0.4,0,0.7,0,1.101,0c8.899,0,16.2,1.3,22.2,3.5
			C-57.7,5-57.4,32.7-57.4,32.7z"/>
		<polygon fill="#6F855B" stroke="#000000" stroke-miterlimit="10" points="-186.6,-19.5 -186.6,-14.9 -29.2,-14.7 -29.2,-19.2 		
			"/>
	</g>
	<path id="FrontWindow" fill="#CFD2CC" stroke="#F4EFE8" stroke-miterlimit="10" d="M49-64.7L67.7-31.9c0,0,0.8-2.801,3.6-3.801
		C74-36.6,50.9-67.8,50.9-67.8S48.5-65.6,49-64.7z"/>
</g>
</svg>
