<?xml version="1.0" encoding="utf-8"?>
<!-- Generator: Adobe Illustrator 15.0.2, SVG Export Plug-In . SVG Version: 6.00 Build 0)  -->
<!DOCTYPE svg PUBLIC "-//W3C//DTD SVG 1.1//EN" "http://www.w3.org/Graphics/SVG/1.1/DTD/svg11.dtd">
<svg version="1.1" id="Layer_1" xmlns="http://www.w3.org/2000/svg" xmlns:xlink="http://www.w3.org/1999/xlink" x="0px" y="0px"
	 width="595.28px" height="841.89px" viewBox="0 0 595.28 841.89" enable-background="new 0 0 595.28 841.89" xml:space="preserve">
<rect x="4.082" y="4.333" fill-rule="evenodd" clip-rule="evenodd" fill="#E6EAEA" stroke="#27292B" stroke-miterlimit="10" width="163.895" height="226.875"/>
<path fill-rule="evenodd" clip-rule="evenodd" fill="#EFF3F5" d="M5.375,6.182c0,1.142,0,3.711,0,3.711S139,10.274,142.625,7.99
	S85.5,9.037,67,6.848C48.5,4.66,5.375,6.182,5.375,6.182z"/>
<path fill-rule="evenodd" clip-rule="evenodd" fill="#F3F8FA" d="M5.333,5.333c0,1.667,0.167,4.5,0.167,4.5S61.498,7,85.832,7.667
	C110.167,8.333,5.333,5.333,5.333,5.333z"/>
<path fill-rule="evenodd" clip-rule="evenodd" fill="#F2F5F6" d="M22.667,38.833c0.038,9.316,129.057-1.276,141,1.75
	c3.517,8.89-51.837,8.765-51.25,14.25c-29.551-13.462-51-3.25-68.5,7.5c-40,29.5-21.25,99.25,25.25,108.25
	c1.155,11.121-35.071,4.191-30.5,15.25c1.424,4.535-26.75,7.627-26.75,10.25c-12.131-66.51-4.334-155.739-4.75-156.75
	C10.187,39.333,17.167,56.333,22.667,38.833z"/>
<path fill-rule="evenodd" clip-rule="evenodd" fill="#DEE1E3" d="M5.584,33.25c3.75-0.625,7.25-0.75,10.375-7
	s150.625-0.625,150.625-0.625l-0.25,10.875L5.459,36.625L5.584,33.25z"/>
<path fill-rule="evenodd" clip-rule="evenodd" fill="#C6CCCF" d="M19.54,27.177v5.37c0,0,0.188,1.741,4.336,1.595
	c4.148-0.145,29.226,0.146,29.226,0.146s3.773-3.184-10.182-2.467c-2.828,0.146-6.411-1.741-5.468-1.886
	c5.562-0.856-2.827-0.871-0.188-1.887C39.902,27.033,19.35,26.306,19.54,27.177z"/>
<g>
	<path fill="#A6ABAE" d="M52.895,35.667H20.13c-1.335,0-2.422-2.086-2.422-3.422v-15.37c0-1.335,1.087-3.422,2.422-3.422h33.765
		c1.334,0,2.422,2.087,2.422,3.422v15.37C56.317,33.58,54.229,35.667,52.895,35.667z M20.083,14.167
		c-1.023,0-1.583,1.893-1.583,2.917l-0.226,15.161c0,1.023,0.832,2.856,1.855,2.856h32.765c1.023,0,2.855-1.833,2.855-2.856v-15.37
		c0-1.023-1-2.708-2.334-2.708H20.083z"/>
</g>
<rect x="4.75" y="10.333" fill-rule="evenodd" clip-rule="evenodd" fill="#A6ABAE" width="162.5" height="1"/>
<path fill="#C6CCCF" d="M84.691,31.583c-0.958,0.499,1.5,2.738,1.219,2.915c-0.281,0.177,4.689-0.265,4.971-0.441
	c0.281-0.176,1.969-2.473,3.001-2.473s2.439-7.596-2.063-10.864s-1.595,3.004-1.595,4.151
	C90.225,26.019,88.255,29.729,84.691,31.583z"/>
<path fill-rule="evenodd" clip-rule="evenodd" fill="#A6ABAE" d="M90.624,20.291l0.001,8.716c0,0-0.987,1.494-5.538,0.611
	l-0.004,0.007c1.167,1.167-0.282,1.498,0.584,1.917C91.137,34.195,95.944,25.388,90.624,20.291z"/>
<path fill-rule="evenodd" clip-rule="evenodd" fill="#F2F5F6" d="M83.791,19.075c3-1.301,4.979-0.856,6.5-0.26
	c0.332,0.13,0.374,0.477,0.374,0.477l0.001,9.673c0,0-1.043,1.604-6,0.521c-0.531-0.117-0.918-0.738-0.918-0.738l-0.083-9.369
	L83.791,19.075z"/>
<rect x="71.417" y="16.771" fill="#A6ABAE" width="8.5" height="0.938"/>
<rect x="72.042" y="20.458" fill="#A6ABAE" width="6.625" height="0.938"/>
<rect x="69.167" y="24.146" fill="#A6ABAE" width="9.688" height="0.938"/>
<rect x="73.167" y="27.458" fill="#A6ABAE" width="6.625" height="0.938"/>
<rect x="96.042" y="16.771" fill="#A6ABAE" width="8.5" height="0.938"/>
<rect x="97.292" y="20.458" fill="#A6ABAE" width="6.625" height="0.938"/>
<rect x="97.104" y="24.146" fill="#A6ABAE" width="9.688" height="0.938"/>
<rect x="96.167" y="27.458" fill="#A6ABAE" width="6.625" height="0.938"/>
<path fill-rule="evenodd" clip-rule="evenodd" fill="#C6CCCF" d="M84.665,20.316l0.126-0.304c2.644-1.146,4.494-0.937,5.937-0.463
	v-0.258c0,0-0.042-0.347-0.374-0.477c-1.521-0.596-3.5-1.041-6.5,0.26l-0.126,0.304l0.083,9.369c0,0,0.387,0.621,0.918,0.738
	c0.006,0.001,0.012,0.002,0.018,0.003L84.665,20.316z"/>
<rect x="86.792" y="18.333" fill-rule="evenodd" clip-rule="evenodd" fill="#8D9194" width="0.707" height="3.167"/>
<path fill-rule="evenodd" clip-rule="evenodd" fill="#DEE1E3" d="M166.25,210.652l0.081-2.316c-0.026,0.001-0.055,0.002-0.081,0.003
	V120.25l-4.917,76.417L143.667,206c-20.088,1.323-39.266,7.457-45.668,6.002c-7.333-1.667-14.333,0-14.333,2.667
	s-4.001,1.667-6.334,2.667s2.001,2.666-0.999,4.333s-15.332,3-13.666,5.667s103,0,103,0l0.508-14.504l0.076,0.002V210.652z"/>
<rect x="4.999" y="202.417" fill-rule="evenodd" clip-rule="evenodd" fill="#A6ABAE" width="162.167" height="1.667"/>
<rect x="126.917" y="29.001" fill-rule="evenodd" clip-rule="evenodd" fill="#7F878D" width="33.25" height="5.584"/>
<rect x="127.334" y="29.508" fill-rule="evenodd" clip-rule="evenodd" fill="#DEE1E3" width="32.166" height="4.497"/>
<path fill-rule="evenodd" clip-rule="evenodd" fill="#F2F5F6" d="M127.833,30.089c0,0.507,0,2.828,0,2.828s10.16-3.263,26.857-1.088
	c3.695,0.481,4.726-1.74,4.726-1.74H127.833z"/>
<rect x="134.5" y="29.581" fill-rule="evenodd" clip-rule="evenodd" fill="#7F878D" width="0.667" height="4.351"/>
<rect x="142.583" y="29.581" fill-rule="evenodd" clip-rule="evenodd" fill="#7F878D" width="0.667" height="4.351"/>
<rect x="150.916" y="29.653" fill-rule="evenodd" clip-rule="evenodd" fill="#7F878D" width="0.667" height="4.351"/>
<rect x="126.832" y="13.333" fill-rule="evenodd" clip-rule="evenodd" fill="#7F878D" width="33.167" height="13.75"/>
<rect x="128.166" y="14.5" fill-rule="evenodd" clip-rule="evenodd" fill="#44535C" width="31.002" height="11.833"/>
<circle fill-rule="evenodd" clip-rule="evenodd" fill="#F2F5F6" cx="84.667" cy="110" r="59.667"/>
<path fill-rule="evenodd" clip-rule="evenodd" fill="#A6ABAE" d="M138.656,84.804c-7.696-15.308-20.101-25.878-36.468-32.465
	c2.936,0.486,5.193,1.653,7.978,2.292c-0.104-0.788-1.414-0.361-1.52-1.146c-1.271-0.122-2.394-0.394-3.038-1.146
	c-19.26-7.007-45.451-2.101-56.981,8.785c2.945-1.625,6.296-4.871,9.497-4.966c-7.587,3.956-13.814,9.281-18.993,15.66
	c0.542-0.093,0.641-0.629,1.139-0.764c1.781-2.286,3.806-4.322,6.079-6.111c1.61-1.693,3.384-3.219,5.698-4.201
	c0.5-0.771,1.247-1.293,2.278-1.528c9.211-7.15,28.838-10.552,43.686-6.111c0.127,0,0.254,0,0.38,0
	c22.732,5.662,37.487,21.381,42.925,43.158c-0.552,0.209-1.963-0.446-1.898,0.382c0.886,0,1.771,0,2.658,0
	c2.153,8.203,1.91,22.279-0.324,30.356c0,0-0.066,0.197-0.056,0.199c-8.374,24.837-28.38,46.745-63.059,43.923
	c-7.025-0.571-12.995-2.95-18.614-5.729c-5.042-2.061-9.2-5.008-12.915-8.403c-4.138-3.225-7.288-7.441-10.637-11.458
	c-3.042-2.797-4.291-7.398-6.838-10.695c0,0.255,0,0.51,0,0.764c4.719,9.517,11.039,17.42,18.614,24.062
	c1.388,0.262,1.854,1.449,3.04,1.91c7.945,5.125,16.679,9.456,28.87,10.313c29.124,0.126,45.428-12.634,56.601-30.556
	C146.021,128.583,147.553,99.925,138.656,84.804z"/>
<path fill-rule="evenodd" clip-rule="evenodd" fill="#44535C" d="M97.526,168.87c22.049-4.405,38.534-21.097,43.831-43.224
	c0.024-0.102-0.636,0.302,0-0.752c3.154-5.224,2.569-18.966,1.087-25.934c-4.333-20.369-16.395-33.541-31.877-42.848
	c-0.451-0.271-3.279-1.014-1.811-1.503c20.722,9.811,38.317,27.744,36.224,60.137c-1.738,26.904-21.438,49.553-45.643,54.5
	C99.365,169.24,93.822,170.328,97.526,168.87z"/>
<path fill-rule="evenodd" clip-rule="evenodd" fill="#44535C" d="M26.254,90.65c4.64-12.181,11.371-22.199,21.373-28.837
	c-10.436,9.684-19.415,20.874-22.097,38.573c-0.508,2.345-0.859,4.854-0.724,7.865c-0.601,0.768-0.601,4.101,0,4.868
	c0.093,9.142,2.237,16.162,5.071,22.47c-0.177,1.087,1.5,2.154,0.725,2.622c-4.288-8.675-7.673-18.282-7.245-31.832
	c0-0.125,0-0.25,0-0.374c0.524-3.328,0.827-6.885,1.449-10.112C25.424,94.287,26.015,92.65,26.254,90.65z"/>
<path fill="#E6EAEA" d="M45,123.25c-6.75,5-7.75,18.75-7.75,18.75s11.759,25.824,47.25,26.75c28.75,0.75,47.5-25,48.5-27
	S122.5,125,122.5,125s-6.5,26.5-40.75,25.5C56.241,149.755,45,123.25,45,123.25z"/>
<path fill-rule="evenodd" clip-rule="evenodd" fill="#E2E6E7" d="M34.352,83l12.226-12.667L56.286,68l6.473-4l3.236,1.333
	c0,0-29.126,18.999-24.092,45.333s13.665,39,29.127,37s18.699-9.333,21.575-4.333c2.876,5,1.136-9.001,9.349-9.667
	c8.213-0.666,5.753-17,10.788-12.333s10.068-9.001,10.788-19.667s3.956-17.333,0.72-21.333s-4.585-5.833-7.103-9.167
	C114.63,67.834,107.708,62,107.708,62s20.766,9.917,28.317,26.917c7.551,17,8.719,39.083-7.102,54.083s-35.657,7.167-38.476,20.167
	c-2.819,13-25.172,1.833-34.881-4.167s-25.89-24.334-26.969-46.334C27.519,90.667,31.115,92.667,34.352,83z"/>
<path fill-rule="evenodd" clip-rule="evenodd" fill="#FFFFFF" d="M27.75,114.562c-0.908-0.157,1.992-2.973,1.75-3.729
	c-0.26-1.47,1.059-4.448,0.125-5.312c0-0.365,0.938-2.885,0.938-3.25c0.942-1.953-0.607-1.538-0.34-4.098
	c0.403,0.785,0.903-0.1,0.903-0.465c1.713-0.529,1.406-3.633,1.562-5.562c0-0.122,1.188-2.691,1.188-2.812
	c1.538-3.365,1.868-5.281,4.125-8c0.907-1.01,2.3-3.391,2.75-4.812c7.625-10.25,18.188-14.938,28.454-22.181
	C44.25,63.771,26.306,82.854,27.75,114.562z"/>
<path fill-rule="evenodd" clip-rule="evenodd" fill="#E2E6E7" d="M123.295,110.415c-2.205,3.529-1.961,20.988,0.588,21.772
	c2.55,0.785,20.988,0.589,21.577,0c0.588-0.588,4.493-12.477,1.373-34.522c-2.942-20.792-0.196,0.588-9.219,5.688
	C128.591,108.453,124.276,108.846,123.295,110.415z"/>
<path fill="#F3F8FA" d="M19,13c10.167-0.999-11.25-1.5-12-0.25s-1.5,17.75-0.75,18s2-2,2-2s2,2.75,2-1.25s2-1.75,3.25,0
	s0-12.75,0-12.75S12.775,13.612,19,13z"/>
<path fill-rule="evenodd" clip-rule="evenodd" fill="#E6EAEA" d="M126.06,90.819c-2.942,9.611-2.157,21.184-2.157,21.184
	s9.022-1.765,14.515-6.865c5.492-5.1,7.061-8.228,7.061-15.692C145.479,88.857,126.06,90.819,126.06,90.819z"/>
<path fill-rule="evenodd" clip-rule="evenodd" fill="#A6ABAE" d="M148.291,97.998c-1.103-7.794-1.407-9.658-1.831-8.678v-0.07
	h-19.615v1.177h19.288c-0.061,0.245-0.126,0.516-0.197,0.813c0.189,1.252,0.414,2.822,0.688,4.759
	c3.12,22.045-0.784,33.934-1.373,34.522c-0.559,0.559-17.208,0.763-21.066,0.11c0.31,1.053,0.695,1.747,1.156,1.889
	c2.55,0.785,20.988,0.589,21.577,0C147.506,131.932,151.411,120.043,148.291,97.998z"/>
<linearGradient id="SVGID_1_" gradientUnits="userSpaceOnUse" x1="86.459" y1="207.625" x2="86.459" y2="210.7724">
	<stop  offset="0" style="stop-color:#C2C6C9"/>
	<stop  offset="0.1464" style="stop-color:#BABDC2"/>
	<stop  offset="0.3321" style="stop-color:#A7AAB1"/>
	<stop  offset="0.5391" style="stop-color:#8C8F99"/>
	<stop  offset="0.7615" style="stop-color:#6B6E7B"/>
	<stop  offset="0.994" style="stop-color:#454D5D"/>
	<stop  offset="1" style="stop-color:#444C5C"/>
</linearGradient>
<rect x="15.125" y="207.996" fill-rule="evenodd" clip-rule="evenodd" fill="url(#SVGID_1_)" width="142.667" height="2.414"/>
<linearGradient id="SVGID_2_" gradientUnits="userSpaceOnUse" x1="86.209" y1="212.75" x2="86.209" y2="216.5332">
	<stop  offset="0" style="stop-color:#C2C6C9"/>
	<stop  offset="0.1464" style="stop-color:#BABDC2"/>
	<stop  offset="0.3321" style="stop-color:#A7AAB1"/>
	<stop  offset="0.5391" style="stop-color:#8C8F99"/>
	<stop  offset="0.7615" style="stop-color:#6B6E7B"/>
	<stop  offset="0.994" style="stop-color:#454D5D"/>
	<stop  offset="1" style="stop-color:#444C5C"/>
</linearGradient>
<rect x="14.875" y="213.326" fill-rule="evenodd" clip-rule="evenodd" fill="url(#SVGID_2_)" width="142.667" height="2.414"/>
<linearGradient id="SVGID_3_" gradientUnits="userSpaceOnUse" x1="86.334" y1="218.25" x2="86.334" y2="221.8836">
	<stop  offset="0" style="stop-color:#C2C6C9"/>
	<stop  offset="0.1464" style="stop-color:#BABDC2"/>
	<stop  offset="0.3321" style="stop-color:#A7AAB1"/>
	<stop  offset="0.5391" style="stop-color:#8C8F99"/>
	<stop  offset="0.7615" style="stop-color:#6B6E7B"/>
	<stop  offset="0.994" style="stop-color:#454D5D"/>
	<stop  offset="1" style="stop-color:#444C5C"/>
</linearGradient>
<rect x="15" y="218.756" fill-rule="evenodd" clip-rule="evenodd" fill="url(#SVGID_3_)" width="142.667" height="2.414"/>
<linearGradient id="SVGID_4_" gradientUnits="userSpaceOnUse" x1="86.084" y1="223.25" x2="86.084" y2="227.3617">
	<stop  offset="0" style="stop-color:#C2C6C9"/>
	<stop  offset="0.1464" style="stop-color:#BABDC2"/>
	<stop  offset="0.3321" style="stop-color:#A7AAB1"/>
	<stop  offset="0.5391" style="stop-color:#8C8F99"/>
	<stop  offset="0.7615" style="stop-color:#6B6E7B"/>
	<stop  offset="0.994" style="stop-color:#454D5D"/>
	<stop  offset="1" style="stop-color:#444C5C"/>
</linearGradient>
<rect x="14.75" y="224.086" fill-rule="evenodd" clip-rule="evenodd" fill="url(#SVGID_4_)" width="142.667" height="2.414"/>
</svg>
