<?xml version="1.0" encoding="utf-8"?>
<!-- Generator: Adobe Illustrator 15.0.2, SVG Export Plug-In . SVG Version: 6.00 Build 0)  -->
<!DOCTYPE svg PUBLIC "-//W3C//DTD SVG 1.1//EN" "http://www.w3.org/Graphics/SVG/1.1/DTD/svg11.dtd">
<svg version="1.1" id="Layer_1" xmlns="http://www.w3.org/2000/svg" xmlns:xlink="http://www.w3.org/1999/xlink" x="0px" y="0px"
	 width="595.28px" height="841.89px" viewBox="0 0 595.28 841.89" enable-background="new 0 0 595.28 841.89" xml:space="preserve">
<rect x="4.415" y="4.333" fill-rule="evenodd" clip-rule="evenodd" fill="#E6EAEA" stroke="#27292B" stroke-miterlimit="10" width="163.895" height="226.875"/>
<g>
	<path fill-rule="evenodd" clip-rule="evenodd" fill="#44535C" d="M123.788,100.638C123.788,100.396,123.591,88.128,123.788,100.638
		L123.788,100.638z"/>
	<path fill-rule="evenodd" clip-rule="evenodd" fill="#44535C" d="M119.481,128.229c-0.77,1.85-1.639,3.576-2.589,5.188
		C119.634,131.259,120.946,129.37,119.481,128.229z"/>
	<path fill-rule="evenodd" clip-rule="evenodd" fill="#44535C" d="M95.615,145.096c-0.652,0.407-1.301,0.703-1.88,0.823
		c-2.18,0.935-3.694,1.512-4.039,1.55c0.902-0.738,1.707-1.377,2.466-1.974c-0.124-0.152-0.235-0.33-0.312-0.567
		c0.602-0.181,1.192-0.368,1.772-0.562c6.409-4.869,6.778-3.893,5.179-2.019c17.941-8.082,23.247-23.172,20.352-38.882
		c0.247,2.176,1.3,5.407,1.512,8.431c-0.361-0.233-1.496-1.043-1.77-1.165c0.458,2.487-0.966,5.469-1.566,7.639
		c-1.992-2.464,1.151-4.948,1.416-7.7c-3.476-1.367-0.032,6.451-7.158,8.056c3.459-5.411,4.417-11.221,2.871-17.43
		c3.891,5.822,0.541-1.675,0.04-0.177c0.864-3.915,1.329-3.843,2.04-3.952c-2.78-7.722,1.037-6.543-4.788-13.257
		c10.446,6.344,9.087,4.681,12.039,16.729c-0.061-3.886-0.72-7.404-1.852-10.574c-6.356-11.475-18.089-19.604-31.838-21.058
		c-7.054-0.451-14.369,0.62-21.039,3.21c-14.574,6.341-24.757,20.763-24.757,37.551c0,10.548,4.021,20.162,10.622,27.427
		c0.125,0.136,0.252,0.271,0.379,0.407c0.248,0.264,0.5,0.525,0.755,0.784c0.223,0.224,0.444,0.45,0.671,0.668
		c0.11,0.107,0.222,0.209,0.333,0.315c3.818,3.604,8.25,6.416,12.981,8.363c4.82,1.951,10.091,3.034,15.619,3.034
		c4.967,0,9.729-0.87,14.141-2.461c6.769-2.72,12.796-7.604,17.09-14.889C111.856,137.38,101.998,142.254,95.615,145.096z
		 M118.764,116.946c0.155-0.811,0.143-2.389,0.359-3.912C120.122,115.28,117.815,121.921,118.764,116.946z M46.633,112.323
		c0.807,1.689,0.829,4.157,1.435,6.047C47.347,118.009,46.268,114.944,46.633,112.323z M49.877,113.062
		c0.251,0.47,0.357,0.668-0.015-0.027c-3.866-5.826-3.985-11.755-0.358-17.787C51.685,98.854,58.064,128.376,49.877,113.062z
		 M55.246,103.074C61.706,109.659,51.489,114.19,55.246,103.074L55.246,103.074z M74.265,130.109
		C74.906,130.107,74.256,131.312,74.265,130.109c-0.055,7.263-6.143-0.479-9.33-5.692C77.97,128.574,81.081,130.471,74.265,130.109z
		 M74.265,126.907c-0.556-0.518-5.112-2.948-8.998-7.068c-2.604-2.35-4.733-5.479-5.356-9.651c0.762,3.844,2.928,7.077,5.356,9.651
		C72.946,126.769,84.754,126.907,74.265,126.907z M81.442,127.263c0.984,0.066,1.735,0.648,2.512,0.356
		C81.744,128.617,76.375,126.92,81.442,127.263z M80.007,100.583c0.572-0.711,2.709-1.049,3.588-0.355
		C82.866,101.525,81.448,100.523,80.007,100.583z M82.16,91.335c-11.271,0.031-0.203-10.213-4.307-13.518
		c2.179,1.755,1.059-3.017,0.173-0.587C80.49,69.707,89.685,86.073,82.16,91.335z M92.926,140.068c1.629-1.586,5.45-1,7.536-2.134
		C101.175,139.061,95.498,139.844,92.926,140.068z M110.51,103.785c1.878,1.381-0.217,4.682,0,6.759
		C109.346,108.978,110.146,105.862,110.51,103.785z M106.562,104.852c0.994,1.241-0.471,3.077-0.359,4.625
		C105.644,108.667,106.374,106.101,106.562,104.852z M104.639,114.245c0.463-1.057,0.871-2.167,1.206-3.346
		C105.698,112.008,105.267,113.132,104.639,114.245c-1.833,4.18-4.665,7.413-8.502,9.692c0.801-0.108-0.603,0.87-5.005,2.258
		C95.036,123.963,101.839,119.21,104.639,114.245z M97.371,126.912c-0.207,0.189-0.484,0.422-0.856,0.707
		c0.223-0.892,1.277-1.518,1.346-1.333c1.161-1.151,2.322-2.302,3.483-3.453c-0.022,0.001-0.055,0.012-0.081,0.017
		c-2.522,2.083-5.415,3.68-8.696,4.77c4.963-3.032,7.844-4.61,8.696-4.77c0.122-0.101,0.246-0.198,0.366-0.301
		c0.927-0.918,1.854-1.836,2.78-2.755c-0.865,0.999-1.795,1.912-2.78,2.755c-0.095,0.094-0.19,0.189-0.286,0.284
		C102.072,122.757,100.742,124.122,97.371,126.912z M91.491,72.481c-0.055,1.109-2.196,0.685-2.154-0.355
		C90.434,71.869,90.645,72.489,91.491,72.481z M91.491,77.817c-1.127,1.073-2.425,0.332-3.948,0
		C87.875,75.255,91.158,75.255,91.491,77.817z M89.696,79.241c4.102,1.164,5.376,10.996,0,11.739
		C87.299,88.765,87.216,81.37,89.696,79.241z M91.552,132.539c5.721-2.944,11.442-5.889,17.163-8.833
		C115.734,129.434,98.178,131.525,91.552,132.539c-0.499,0.257-0.998,0.514-1.498,0.771c7.009-2.42,5.931,0.663,0,0
		C88.277,133.112,89.266,132.889,91.552,132.539z"/>
	<path fill-rule="evenodd" clip-rule="evenodd" fill="#44535C" d="M116.859,95.08c1.005,2.791,2.301,5.354,2.815,8.142
		C119.027,97.501,117.741,94.945,116.859,95.08z"/>
	<path fill-rule="evenodd" clip-rule="evenodd" fill="#44535C" d="M97.86,126.285c-0.449,0.444-0.897,0.889-1.346,1.333
		c0.308-0.251,0.577-0.475,0.856-0.707C97.758,126.557,97.887,126.357,97.86,126.285z"/>
	<path fill-rule="evenodd" clip-rule="evenodd" fill="#44535C" d="M118.744,110.67c0.05,0.02,0.099,0.038,0.15,0.062
		c-0.034-0.184-0.075-0.366-0.131-0.543C118.77,110.35,118.759,110.51,118.744,110.67z"/>
	<path fill-rule="evenodd" clip-rule="evenodd" fill="#44535C" d="M92.162,145.495c0.37,0.452,0.924,0.557,1.573,0.424
		c0.582-0.25,1.212-0.524,1.88-0.823c1.211-0.754,2.419-1.851,3.186-2.749c-1.624,0.73-3.346,1.407-5.179,2.019
		C93.166,144.711,92.679,145.088,92.162,145.495z"/>
	<path fill-rule="evenodd" clip-rule="evenodd" fill="#44535C" d="M74.265,126.907C74.385,126.907,73.031,125.758,74.265,126.907
		L74.265,126.907z"/>
	<path fill-rule="evenodd" clip-rule="evenodd" fill="#44535C" d="M49.863,113.034c0.005,0.009,0.01,0.018,0.015,0.027
		C49.301,111.98,47.952,109.453,49.863,113.034z"/>
	<path fill-rule="evenodd" clip-rule="evenodd" fill="#44535C" d="M96.137,123.938c-0.586,0.079-2.345,0.737-5.005,2.258
		C92.957,125.592,94.623,124.837,96.137,123.938z"/>
	<path fill-rule="evenodd" clip-rule="evenodd" fill="#44535C" d="M55.246,103.074C54.566,105.084,56.543,104.396,55.246,103.074
		L55.246,103.074z"/>
</g>
<path fill-rule="evenodd" clip-rule="evenodd" fill="#EFF3F5" d="M5.708,6.182c0,1.142,0,3.711,0,3.711s133.625,0.38,137.25-1.903
	S85.833,9.037,67.333,6.848C48.833,4.66,5.708,6.182,5.708,6.182z"/>
<path fill-rule="evenodd" clip-rule="evenodd" fill="#F3F8FA" d="M5.666,5.333c0,1.667,0.167,4.5,0.167,4.5S61.831,7,86.165,7.667
	C110.5,8.333,5.666,5.333,5.666,5.333z"/>
<path fill-rule="evenodd" clip-rule="evenodd" fill="#F2F5F6" d="M23,38.833c0.038,9.316,129.057-1.276,141,1.75
	c3.517,8.89-51.837,8.765-51.25,14.25c-29.551-13.462-51-3.25-68.5,7.5c-40,29.5-21.25,99.25,25.25,108.25
	c1.155,11.121-35.071,4.191-30.5,15.25c1.424,4.535-26.75,7.627-26.75,10.25C0.119,129.574,7.916,40.344,7.5,39.333
	C10.52,39.333,17.5,56.333,23,38.833z"/>
<path fill-rule="evenodd" clip-rule="evenodd" fill="#DEE1E3" d="M5.917,33.25c3.75-0.625,7.25-0.75,10.375-7
	s150.625-0.625,150.625-0.625l-0.25,10.875L5.792,36.625L5.917,33.25z"/>
<g>
	<path fill="#A6ABAE" d="M45.728,36.667H19.963c-1.335,0-2.422-2.086-2.422-3.422v-17.37c0-1.335,1.087-3.422,2.422-3.422h26.765
		c1.334,0,2.422,2.087,2.422,3.422v17.37C49.15,34.58,47.062,36.667,45.728,36.667z M19.917,13.167
		c-1.023,0-1.583,1.893-1.583,2.917l-0.226,17.161c0,1.023,0.832,2.856,1.855,2.856h25.765c1.023,0,2.855-1.833,2.855-2.856v-17.37
		c0-1.023-1-2.708-2.334-2.708H19.917z"/>
</g>
<rect x="5.083" y="10.333" fill-rule="evenodd" clip-rule="evenodd" fill="#A6ABAE" width="162.5" height="1"/>
<path fill="#C6CCCF" d="M85.024,31.583c-0.958,0.499,1.5,2.738,1.219,2.915c-0.281,0.177,4.689-0.265,4.971-0.441
	c0.281-0.176,1.969-2.473,3.001-2.473s2.439-7.596-2.063-10.864s-1.595,3.004-1.595,4.151
	C90.558,26.019,88.588,29.729,85.024,31.583z"/>
<path fill-rule="evenodd" clip-rule="evenodd" fill="#A6ABAE" d="M90.957,20.291l0.001,8.716c0,0-0.987,1.494-5.538,0.611
	l-0.004,0.007c1.167,1.167-0.282,1.498,0.584,1.917C91.47,34.195,96.277,25.388,90.957,20.291z"/>
<path fill-rule="evenodd" clip-rule="evenodd" fill="#F2F5F6" d="M84.124,19.075c3-1.301,4.979-0.856,6.5-0.26
	c0.332,0.13,0.374,0.477,0.374,0.477l0.001,9.673c0,0-1.043,1.604-6,0.521c-0.531-0.117-0.918-0.738-0.918-0.738l-0.083-9.369
	L84.124,19.075z"/>
<rect x="71.75" y="16.771" fill="#A6ABAE" width="8.5" height="0.938"/>
<rect x="72.375" y="20.458" fill="#A6ABAE" width="6.625" height="0.938"/>
<rect x="69.5" y="24.146" fill="#A6ABAE" width="9.688" height="0.938"/>
<rect x="73.5" y="27.458" fill="#A6ABAE" width="6.625" height="0.938"/>
<rect x="96.375" y="16.771" fill="#A6ABAE" width="8.5" height="0.938"/>
<rect x="97.625" y="20.458" fill="#A6ABAE" width="6.625" height="0.938"/>
<rect x="97.438" y="24.146" fill="#A6ABAE" width="9.688" height="0.938"/>
<rect x="96.5" y="27.458" fill="#A6ABAE" width="6.625" height="0.938"/>
<path fill-rule="evenodd" clip-rule="evenodd" fill="#C6CCCF" d="M84.998,20.316l0.126-0.304c2.644-1.146,4.494-0.937,5.937-0.463
	v-0.258c0,0-0.042-0.347-0.374-0.477c-1.521-0.596-3.5-1.041-6.5,0.26l-0.126,0.304l0.083,9.369c0,0,0.387,0.621,0.918,0.738
	c0.006,0.001,0.012,0.002,0.018,0.003L84.998,20.316z"/>
<rect x="87.125" y="18.333" fill-rule="evenodd" clip-rule="evenodd" fill="#8D9194" width="0.707" height="3.167"/>
<path fill-rule="evenodd" clip-rule="evenodd" fill="#DEE1E3" d="M166.583,210.652l0.081-2.316
	c-0.026,0.001-0.055,0.002-0.081,0.003V120.25l-4.917,76.417L144,206c-20.088,1.323-39.266,7.457-45.668,6.002
	c-7.333-1.667-14.333,0-14.333,2.667s-4.001,1.667-6.334,2.667s2.001,2.666-0.999,4.333s-15.332,3-13.666,5.667s103,0,103,0
	l0.508-14.504l0.076,0.002V210.652z"/>
<rect x="5.332" y="202.417" fill-rule="evenodd" clip-rule="evenodd" fill="#A6ABAE" width="162.167" height="1.667"/>
<rect x="127.25" y="29.001" fill-rule="evenodd" clip-rule="evenodd" fill="#7F878D" width="33.25" height="5.584"/>
<rect x="127.667" y="29.508" fill-rule="evenodd" clip-rule="evenodd" fill="#DEE1E3" width="32.166" height="4.497"/>
<path fill-rule="evenodd" clip-rule="evenodd" fill="#F2F5F6" d="M128.166,30.089c0,0.507,0,2.828,0,2.828s10.16-3.263,26.857-1.088
	c3.695,0.481,4.726-1.74,4.726-1.74H128.166z"/>
<rect x="134.833" y="29.581" fill-rule="evenodd" clip-rule="evenodd" fill="#7F878D" width="0.667" height="4.351"/>
<rect x="142.916" y="29.581" fill-rule="evenodd" clip-rule="evenodd" fill="#7F878D" width="0.667" height="4.351"/>
<rect x="151.249" y="29.653" fill-rule="evenodd" clip-rule="evenodd" fill="#7F878D" width="0.667" height="4.351"/>
<rect x="127.165" y="13.333" fill-rule="evenodd" clip-rule="evenodd" fill="#7F878D" width="33.167" height="13.75"/>
<rect x="128.499" y="14.5" fill-rule="evenodd" clip-rule="evenodd" fill="#44535C" width="31.002" height="11.833"/>
<path fill="#DEE1E3" d="M45,124.583c-6.75,5-7.75,18.75-7.75,18.75s11.759,25.824,47.25,26.75c28.75,0.75,47.5-25,48.5-27
	s-10.5-16.75-10.5-16.75s-6.5,26.5-40.75,25.5C56.241,151.089,45,124.583,45,124.583z"/>
<path fill-rule="evenodd" clip-rule="evenodd" fill="#C6CCCF" d="M115.268,80.173c0,0-22.624-25.142-44.62-12.75
	c-25.834,14.554-18.564,16.63-18.564,16.63s8.218-10.914,21.693-14.844C86.173,65.595,100.877,66.568,115.268,80.173z"/>
<path fill-rule="evenodd" clip-rule="evenodd" fill="#A6ABAE" d="M138.989,84.804c-7.696-15.308-20.101-25.878-36.468-32.465
	c2.936,0.486,5.193,1.653,7.978,2.292c-0.104-0.788-1.414-0.361-1.52-1.146c-1.271-0.122-2.394-0.394-3.038-1.146
	c-19.26-7.007-45.451-2.101-56.981,8.785c2.945-1.625,6.296-4.871,9.497-4.966c-7.587,3.956-13.814,9.281-18.993,15.66
	c0.542-0.093,0.641-0.629,1.139-0.764c1.781-2.286,3.806-4.322,6.079-6.111c1.61-1.693,3.384-3.219,5.698-4.201
	c0.5-0.771,1.247-1.293,2.278-1.528c9.211-7.15,28.838-10.552,43.686-6.111c0.127,0,0.254,0,0.38,0
	c22.732,5.662,37.487,21.381,42.925,43.158c-0.552,0.209-1.963-0.446-1.898,0.382c0.886,0,1.771,0,2.658,0
	c2.153,8.203,1.91,22.279-0.324,30.356c0,0-0.066,0.197-0.056,0.199c-8.374,24.837-28.38,46.745-63.059,43.923
	c-7.025-0.571-12.995-2.95-18.614-5.729c-5.042-2.061-9.2-5.008-12.915-8.403c-4.138-3.225-7.288-7.441-10.637-11.458
	c-3.042-2.797-4.291-7.398-6.838-10.695c0,0.255,0,0.51,0,0.764c4.719,9.517,11.039,17.42,18.614,24.062
	c1.388,0.262,1.854,1.449,3.04,1.91c7.945,5.125,16.679,9.456,28.87,10.313c29.124,0.126,45.428-12.634,56.601-30.556
	C146.354,128.583,147.886,99.925,138.989,84.804z"/>
<path fill-rule="evenodd" clip-rule="evenodd" fill="#44535C" d="M97.859,168.87c22.049-4.405,38.534-21.097,43.831-43.224
	c0.024-0.102-0.636,0.302,0-0.752c3.154-5.224,2.569-18.966,1.087-25.934c-4.333-20.369-16.395-33.541-31.877-42.848
	c-0.451-0.271-3.279-1.014-1.811-1.503c20.722,9.811,38.317,27.744,36.224,60.137c-1.738,26.904-21.438,49.553-45.643,54.5
	C99.698,169.24,94.155,170.328,97.859,168.87z"/>
<path fill-rule="evenodd" clip-rule="evenodd" fill="#44535C" d="M26.587,90.65c4.64-12.181,11.371-22.199,21.373-28.837
	c-10.436,9.684-19.415,20.874-22.097,38.573c-0.508,2.345-0.859,4.854-0.724,7.865c-0.601,0.768-0.601,4.101,0,4.868
	c0.093,9.142,2.237,16.162,5.071,22.47c-0.177,1.087,1.5,2.154,0.725,2.622c-4.288-8.675-7.673-18.282-7.245-31.832
	c0-0.125,0-0.25,0-0.374c0.524-3.328,0.827-6.885,1.449-10.112C25.757,94.287,26.348,92.65,26.587,90.65z"/>
<g>
	<path fill="#A6ABAE" d="M158.729,228.667h-31.765c-1.335,0-2.422-2.086-2.422-3.422v-15.37c0-1.335,1.087-3.422,2.422-3.422h32.765
		c1.334,0,2.422,2.087,2.422,3.422v15.37C162.15,226.581,160.062,228.667,158.729,228.667z M126.917,207.167
		c-1.023,0-1.583,1.893-1.583,2.917l-0.226,15.161c0,1.023,0.832,2.856,1.855,2.856h31.765c1.023,0,2.855-1.833,2.855-2.856v-15.37
		c0-1.023-1-2.708-2.334-2.708H126.917z"/>
</g>
<path fill-rule="evenodd" clip-rule="evenodd" fill="#FFFFFF" d="M26.25,114.75c-0.908-0.157,1.992-2.973,1.75-3.729
	c-0.26-1.47,1.059-4.448,0.125-5.312c0-0.365,0.938-2.885,0.938-3.25c0.942-1.953-0.607-1.538-0.34-4.098
	c0.403,0.785,0.903-0.1,0.903-0.465c1.713-0.529,1.406-3.633,1.562-5.562c0-0.122,1.188-2.691,1.188-2.812
	c1.538-3.365,1.868-5.281,4.125-8c0.907-1.01,2.3-3.391,2.75-4.812c7.625-10.25,18.188-14.938,28.454-22.181
	C42.75,63.958,24.806,83.042,26.25,114.75z"/>
<path fill="#F3F8FA" d="M16.188,12.583c7.207-0.999-8.528-0.792-9.06,0.458s-1.063,17.75-0.532,18c0.532,0.25,1.418-2,1.418-2
	s0.697,1.278,0.528-2.708c-0.064-1.5-0.503-9.312,0.382-7.562s3.377-4.75,3.377-4.75S11.776,13.195,16.188,12.583z"/>
<linearGradient id="SVGID_1_" gradientUnits="userSpaceOnUse" x1="33.1841" y1="30.3613" x2="33.1841" y2="23.2116">
	<stop  offset="0" style="stop-color:#C2C6C9"/>
	<stop  offset="0.1464" style="stop-color:#BABDC2"/>
	<stop  offset="0.3321" style="stop-color:#A7AAB1"/>
	<stop  offset="0.5391" style="stop-color:#8C8F99"/>
	<stop  offset="0.7615" style="stop-color:#6B6E7B"/>
	<stop  offset="0.994" style="stop-color:#454D5D"/>
	<stop  offset="1" style="stop-color:#444C5C"/>
</linearGradient>
<path fill="url(#SVGID_1_)" d="M44.368,25.581c0-1.365-0.91-2.473-2.034-2.473H24.033c-1.123,0-2.033,1.107-2.033,2.473
	c0,0.12,0.015,0.236,0.029,0.352h0.025c0.186,2.409,0.993,4.235,1.979,4.235h18.301c0.986,0,1.794-1.826,1.979-4.235h0.025
	C44.353,25.817,44.368,25.701,44.368,25.581z"/>
</svg>
