<?xml version="1.0" encoding="utf-8"?>
<!-- Generator: Adobe Illustrator 26.5.0, SVG Export Plug-In . SVG Version: 6.00 Build 0)  -->
<svg version="1.1" xmlns="http://www.w3.org/2000/svg" xmlns:xlink="http://www.w3.org/1999/xlink" x="0px" y="0px"
	 viewBox="0 0 595.3 841.9" enable-background="new 0 0 595.3 841.9" xml:space="preserve">
<g id="Sun">
	<radialGradient id="SVGID_1_" cx="37.9017" cy="41.9372" r="35.4802" gradientUnits="userSpaceOnUse">
		<stop  offset="0.4911" style="stop-color:#F26522"/>
		<stop  offset="0.9349" style="stop-color:#FFDE17"/>
	</radialGradient>
	<path fill="url(#SVGID_1_)" d="M79.4,35.6c-2-2.3-5-5.2-9.9-6.5c-0.5-0.1-0.9-0.2-1.2-0.3c-0.2-0.3-0.4-0.6-0.7-0.9
		c-3.1-3.1,14.7-2.3,7.8-5.9c-2.7-1.4-6.6-2.9-11.6-2.3c-0.5,0.1-0.9,0.1-1.3,0.1c-0.3-0.2-0.6-0.4-0.9-0.5c-4-1.7,12.7-7.8,4.9-8.5
		c-3-0.3-7.2-0.2-11.6,2.4c-0.4,0.2-0.8,0.4-1.1,0.6c-0.3-0.1-0.7-0.1-1.1-0.1c-4.4,0,8.8-12,1.3-9.7c-2.9,0.9-6.8,2.6-9.8,6.6
		c-0.3,0.4-0.5,0.7-0.8,1c-0.4,0.1-0.7,0.1-1,0.3c-4,1.6,3.5-14.5-2.5-9.4c-2.3,2-5.2,5-6.5,9.9c-0.1,0.5-0.2,0.9-0.3,1.2
		c-0.3,0.2-0.6,0.4-0.9,0.7c-3.1,3.1-2.3-14.7-5.9-7.8c-1.4,2.7-2.9,6.6-2.3,11.6c0.1,0.5,0.1,0.9,0.1,1.3c-0.2,0.3-0.4,0.6-0.5,0.9
		c-1.7,4-7.8-12.7-8.5-4.9c-0.3,3-0.2,7.2,2.4,11.6c0.2,0.4,0.4,0.8,0.6,1.1c-0.1,0.3-0.1,0.7-0.1,1.1c0,1-0.6,1.1-1.6,0.7
		c0,0,0,0,0,0c-0.1,0-0.1,0-0.2-0.1c-1.4-0.6-3.4-2.1-5.1-3.2c0,0,0,0,0,0c-0.1,0-0.1-0.1-0.2-0.1c-2.1-1.3-3.6-1.7-2.6,1.4
		c0.5,1.6,1.3,3.6,2.6,5.5c1,1.5,2.3,3,4.1,4.3c0.4,0.3,0.7,0.5,1,0.8c0.1,0.4,0.1,0.7,0.3,1c1.6,4-14.5-3.5-9.4,2.5
		c2,2.3,5,5.2,9.9,6.5c0.5,0.1,0.9,0.2,1.2,0.3c0.2,0.3,0.4,0.6,0.7,0.9c3.1,3.1-14.7,2.3-7.8,5.9c2.7,1.4,6.6,2.9,11.6,2.3
		c0.5-0.1,0.9-0.1,1.3-0.1c0.3,0.2,0.6,0.4,0.9,0.5c4,1.7-12.7,7.8-4.9,8.5c3,0.3,7.2,0.2,11.6-2.4c0.4-0.2,0.8-0.4,1.1-0.6
		C32.7,64,33,64,33.4,64c4.4,0-8.8,12-1.3,9.7c2.9-0.9,6.8-2.6,9.8-6.6c0.3-0.4,0.5-0.7,0.8-1c0.4-0.1,0.7-0.1,1-0.3
		c4-1.6-3.5,14.5,2.5,9.4c2.3-2,5.2-5,6.5-9.9c0.1-0.5,0.2-0.9,0.3-1.2c0.3-0.2,0.6-0.4,0.9-0.7c3.1-3.1,2.3,14.7,5.9,7.8
		c1.4-2.7,2.9-6.6,2.3-11.6c-0.1-0.5-0.1-0.9-0.1-1.3c0.2-0.3,0.4-0.6,0.5-0.9c1.7-4,7.8,12.8,8.5,4.9c0.3-3,0.2-7.2-2.4-11.6
		c-0.2-0.4-0.4-0.8-0.6-1.1c0.1-0.3,0.1-0.7,0.1-1.1c0-4.4,12,8.8,9.7,1.3c-0.9-2.9-2.6-6.8-6.6-9.8c-0.4-0.3-0.7-0.5-1-0.8
		c-0.1-0.4-0.1-0.7-0.3-1C68.3,34,84.5,41.6,79.4,35.6z"/>
	
		<radialGradient id="SVGID_00000098932338632597938590000011041584737746945698_" cx="37.9017" cy="39.3019" r="26.7539" gradientUnits="userSpaceOnUse">
		<stop  offset="0.402" style="stop-color:#FFDE17"/>
		<stop  offset="0.9172" style="stop-color:#F26522"/>
	</radialGradient>
	<circle fill="url(#SVGID_00000098932338632597938590000011041584737746945698_)" cx="42.8" cy="39.1" r="23.4"/>
	
		<radialGradient id="SVGID_00000075159186202564447320000010986930687734151826_" cx="12.1135" cy="37.6078" r="7.9906" gradientUnits="userSpaceOnUse">
		<stop  offset="0.402" style="stop-color:#FFDE17"/>
		<stop  offset="0.9172" style="stop-color:#F26522"/>
	</radialGradient>
	<path fill="url(#SVGID_00000075159186202564447320000010986930687734151826_)" d="M20.7,42.4c0.5-0.6,4.8,5.3-4.5,5
		c-5-0.2-8.7-3.9-9.2-5.2c-0.5-1.4-2-5.5,2.7-7.3c4.8-1.8,5.5,1.2,6,1.9c0.5,0.7,2.1,3.3,2.7,4.5C19.3,42.4,19.9,43.2,20.7,42.4z"/>
	
		<radialGradient id="SVGID_00000131349976355595887390000011758592188857872017_" cx="57.4781" cy="34.4078" r="9.9195" gradientUnits="userSpaceOnUse">
		<stop  offset="0.402" style="stop-color:#FFDE17"/>
		<stop  offset="0.9172" style="stop-color:#F26522"/>
	</radialGradient>
	<path fill="url(#SVGID_00000131349976355595887390000011758592188857872017_)" d="M69.2,35.4c0.8,5.3-4.4,6.3-8.5,6.7
		c-0.6,0.1-1.5,0-2.1,0c-2.5,0-5-0.1-7.3-0.1c4.3-2.5,0-7.2,3.7-9.5C58.8,33.7,66.6,32.7,69.2,35.4z"/>
	<path fill="#FFFFFF" d="M64.2,28.1c2.2,0.4,4.2,1.3,4.7,3.2c-0.6-1.1-1.9-2-4.3-2c-3.8,0-3.1,1.1-4.5,2.3c-0.6,0.5-2.3,0.7-3.3,0.8
		c0,0,0,0,0,0c0.1-0.2,1.3-1.8,2.3-2.6C61.2,28.4,63.6,28,64.2,28.1z"/>
	<path d="M63.9,27.6C63.9,27.5,63.9,27.5,63.9,27.6L63.9,27.6z"/>
	<path fill="#FFFFFF" d="M46.9,31c1.7,0.2,4.4,1.5,5.2,2.7c-7.1,1.6-0.3-2.6-10.4,0.6c-1.8,0.6-3.4,2.6-3.8,4.7
		c-0.7-2.6,0.5-5.6,3.3-7C43.1,31,44.1,30.7,46.9,31z"/>
	<path d="M70.2,36.9c-0.1-0.5,0-1.8-1-2.5c0.6-1,2.2-5.8-4.7-6.7c-0.4-0.1-0.6-0.1-0.6-0.1c0,0-0.2,0-0.6,0.1
		c-2.7-4.4-6.3-10.3-17.6-11.8c10.6,3.5,13.3,5.7,16.6,12c-1.5,0.5-4.3,1.9-5.3,3.1c-0.2,0.1-0.4,0.3-0.5,0.5
		c-1.8,0-0.3-1.3-1.7-1.4c0.3,1.5,0.2,1.9-0.5,2.5c-0.3,0.2-0.7,0.5-1.2,0.9c-3.5-4.7-14.8-3.9-16,2.3c-6,1-12.8,1.1-18.7,2.2
		c-2.7-1.1-2-3.1-4.7-3.7c-4.1-0.9-6.6,1.4-7.4,4.2c-0.6,2.1-0.2,4.5,1.2,6.1c3.4,3,10.2,3.6,13.1,4.9c1.7,0.6,1.2,1.2,3,3.1
		c0.6,0.6,2.4,2.9,2.9,3.5L29,58c-3.2-3.3-4.3-8-9.6-10.3c0.4-1.3,2.9-0.3,2.9-2.1C14.7,50,5.4,43.5,6.7,38.4c0.3-1,0.9-1.9,2.1-2.7
		c7.5-5.1,8.3,8.6,11.6,6.8c2.1-1.1,0.5-0.8,0-3.5c-0.7,1.2,0.6,2.2-0.4,2.9c-1.8-0.9-1.4-1.1-1.9-3.2c6.4-0.4,11.8-1.9,18.5-1.9
		c-0.8,2,0,3.8,1.6,5c0.7,1.2,2.3,2,5,2c2.6,0.4,5.4,0,7.3-1.5c2.6,1.5,5.3,0.2,7.9,0.2c0,0,0.1,0,0.1,0c0,2.4,2.7,3.7,0.9,6.8
		c-5.1,0.4-12.9,1.2-18-1.4c2.2,3.1,9.9,6.7,13.8,2.6c-0.2,2.1-2.1,2.2-2.9,3.6c3.4-0.6,3.7-4.6,8-4.3c2.7-3.5-2-5.3-0.2-7.5
		c3.5,2.7,3.8,5.5,3,7.9c-1.2,4.1-9.2,9.5-15.3,11.9L58.8,58c2.1-2.6,4.6-4.4,5.6-7.7c0.4-1.2,0.5-2.5,0.2-3.8c-0.9-3.9-2.6-4-2.6-4
		s3.8,0,6.2-1.6C69.5,40.1,70.4,38.8,70.2,36.9z M59.2,29.8c2-1.5,4.5-1.8,5.1-1.7c2.2,0.4,4.2,1.3,4.7,3.2c-0.6-1.1-1.9-2-4.3-2
		c-3.8,0-3.1,1.1-4.5,2.3c-0.6,0.5-2.3,0.7-3.3,0.8c0,0,0,0,0,0C56.9,32.2,58.1,30.6,59.2,29.8z M41.6,34.3
		c-1.8,0.6-3.4,2.6-3.8,4.7c-0.7-2.6,0.5-5.6,3.3-7c1.9-0.9,2.9-1.2,5.7-0.9c1.7,0.2,4.4,1.5,5.2,2.7C45,35.3,51.7,31.1,41.6,34.3z
		 M59.5,41.8l0.2,0.1c-0.7,0-1.1,0-1.2,0l0,0c-2.4,0-5,0-7.2,0.1c4.3-2.5,0-7.2,3.7-9.5c3.8,1.2,11.7,0.1,14.2,2.8
		C69.9,40.7,64.8,41.7,59.5,41.8z"/>
	<path d="M17.4,44.3c-2.1,1.7-6.9,0.4-7-1.8c0.4-1.5,2.5-1.2,3-2.5c0.8-2.2-3.5-1.5-3.4-2.8C17.6,37,11.7,43,17.4,44.3z M15.1,44.7
		c-0.2-1.4-2-2.2-2.7-3.4C11,42.9,11.9,44.3,15.1,44.7z"/>
	<path d="M36.1,32.6c0,0-1.3-3.9,4.4-3.8c2.6,0,3.5,0-1.5-0.7c-0.9-0.1-6.7,1.4-4.8,4C35.4,33.5,36.1,32.6,36.1,32.6z"/>
	<path d="M52.4,30.5c-0.2,0.8,0.3-2.3,0.3-2.3s2-4.1,6.1-1.6C61.5,28.2,54.2,24.6,52.4,30.5z"/>
</g>
<g id="Cloud">
	<g>
		<path fill-rule="evenodd" clip-rule="evenodd" fill="#FFFFFF" d="M26.7,55.6c-1,1.1-3.7,0.5-4.7,1.6c-2-2.1-6.8-1.6-11-1.6
			C-6.6,49.3,8.7,20,27.5,29.8c-1.6-2.8-6.2-2.6-10.2-3.1C18,8.9,54.6-2,58,21.2c-0.4,3-2.4,4.3-2.3,7.8c4.5-1.6,5.3-8.2,3.1-12.5
			C80,2.2,98,36.9,76.8,44.7c2.8,1.8,9.1-3.1,10.2-7.8c4,2.5,8.4,4.7,9.4,8.6c4.1,17.2-23,26.2-30.5,11c-3.1,2.2,3.4,3.7,0.8,5.5
			c-6.5,0.5-11.6-0.4-14.9-3.1c-0.6-2,2.4-4.3,0-5.5C48.6,63,27,68,23.6,57.2C25.4,57.4,26.5,57,26.7,55.6z"/>
		<g>
			<path fill="#BABABA" d="M90.3,60.2c-6.1,2.7-10.4,1.2-18.7-1c-7.1-1.9-15.8,1.7-20.4-3.7c-5.3,2.4-11.9,7.7-21.1,4.7
				c-3-1-4.4-4.9-8.6-6.3c-2.8-0.9-6.4,0.1-8.6-0.8C4.7,50,1.9,43,3.5,36.4c-4.2,7.4-2,16.9,7.7,20.7c2.3,0.9,5.8-0.2,8.6,0.8
				c4.2,1.4,5.6,5.3,8.6,6.3c9.2,3,15.9-2.3,21.1-4.7c4.7,5.4,13.3,1.8,20.4,3.7c8.4,2.2,12.6,3.7,18.7,1c3.2-1.4,8.1-5.9,9.4-10.2
				c0.1-0.4,0.2-0.8,0.3-1.2C96.4,56.1,92.8,59.1,90.3,60.2z"/>
		</g>
		<path fill-rule="evenodd" clip-rule="evenodd" d="M58,14.1c15.5-4.9,34.5,2.6,29.8,20.4c5.2,4.9,13.2,9.3,10.2,19.6
			c-1.3,4.3-6.1,8.8-9.4,10.2c-6.1,2.7-10.4,1.2-18.7-1c-7.1-1.9-15.8,1.7-20.4-3.7c-5.3,2.4-11.9,7.7-21.1,4.7
			c-3-1-4.4-4.9-8.6-6.3c-2.8-0.9-6.4,0.1-8.6-0.8c-14.9-5.8-12-25.4,4.7-29.8C16.6,9.7,45.9-0.8,58,14.1z M24.5,58.2
			C28,69,48.6,63,51.8,53.3c2.4,1.2-0.6,3.4,0,5.5c3.3,2.7,7.3,3.2,13.8,2.7c4.4-0.8-2.9-2.9,0.3-5c8.2,14.4,34.7,6.2,30.5-11
			c-0.9-3.9-5.4-6.1-9.4-8.6c-1.1,4.7-7.4,9.6-10.2,7.8C98,36.9,80,2.2,58.8,16.5c2.2,4.3,1.4,10.9-3.1,12.5
			c-0.1-3.5,1.9-4.9,2.3-7.8C54.6-2,18,8.9,17.3,26.6c3.9,0.5,8.6,0.3,10.2,3.1C8.7,20-6.6,49.3,11.1,55.6c4.2,0,8.9-0.6,11,1.6
			c1-1.1,7.6,1.6,6.1-4.6C32.1,59.9,25.1,58.5,24.5,58.2z"/>
		<path fill-rule="evenodd" clip-rule="evenodd" d="M21.6,17.6c-0.5,2.4-0.7,8.9,2.1,5.6s2.8-4.2,2.8-4.2s-4.2,4.3-4.6,1.9
			C21.5,18.5,21.6,17.6,21.6,17.6z"/>
		<path fill-rule="evenodd" clip-rule="evenodd" d="M27.6,19.3c-0.5,2.4-0.7,8.9,2.1,5.6c2.8-3.3,2.8-4.2,2.8-4.2s-4.2,4.3-4.6,1.9
			C27.4,20.2,27.6,19.3,27.6,19.3z"/>
	</g>
</g>
<g id="SnowFlakeA">
	<path fill="#9DD7ED" d="M40,69.6v-5.6l3.1-1.8v-3.8l-6,3.4l-1.5-2.6l7.5-4.3v-2.5l-2.1,1.2l-1.5-2.6l3.6-2.1v-2.6l-3.7-2.1
		l-2.1,1.2l0,4.2l-3.1,0l0-2.4l-2.2,1.3l0.1,8.6l-3.1,0l0-6.9l-3.3,1.9l0,3.6L21,58.5l-4.8-2.8l0-5.6l4.8-2.8l3.2,1.8l3.3-1.9
		l-6-3.4l1.5-2.7l7.5,4.3l2.2-1.3L30.5,43l1.5-2.7l3.7,2.1l2.1-1.2V37l-2.1-1.2L32,37.8l-1.5-2.7l2.1-1.2l-2.2-1.3L23,37l-1.5-2.7
		l6-3.4L24.1,29L21,30.8l-4.8-2.8l0-5.6l4.8-2.8l4.8,2.8l0,3.6l3.3,1.9l0-6.9l3.1,0l-0.1,8.6l2.2,1.3l0-2.4l3.1,0l0,4.2l2.1,1.2
		l3.7-2.1v-2.6l-3.6-2.1l1.5-2.6l2.1,1.2v-2.5L35.7,19l1.5-2.6l6,3.4v-3.8L40,14.1V8.5l4.8-2.8l4.8,2.8v5.6l-3.1,1.8v3.8l6-3.4
		L54,19l-7.5,4.3v2.5l2.1-1.2l1.5,2.6l-3.6,2.1v2.6l3.7,2.1l2.1-1.2l0-4.2l3.1,0l0,2.4l2.2-1.3l-0.1-8.6l3.1,0l0,6.9l3.3-1.9l0-3.6
		l4.8-2.8l4.8,2.8l0,5.6l-4.8,2.8L65.6,29l-3.3,1.9l6,3.4L66.8,37l-7.5-4.3L57.1,34l2.1,1.2l-1.5,2.7L54,35.7L51.9,37v4.2l2.2,1.3
		l3.7-2.1l1.5,2.7l-2.1,1.2l2.2,1.3l7.5-4.3l1.5,2.7l-6,3.4l3.3,1.9l3.2-1.8l4.8,2.8l0,5.6l-4.8,2.8l-4.8-2.8l0-3.6l-3.3-1.9l0,6.9
		l-3.1,0l0.1-8.6l-2.2-1.3l0,2.4l-3.1,0l0-4.2l-2.1-1.2l-3.7,2.1v2.6l3.6,2.1l-1.5,2.6l-2.1-1.2v2.5l7.5,4.3l-1.5,2.6l-6-3.4v3.8
		l3.1,1.8v5.6l-4.8,2.8L40,69.6z M44.9,70l2.6-1.5v-3.1l-2.6-1.5l-2.6,1.5v3.1L44.9,70z M20.9,56.1l2.6-1.5l0-3.1l-2.7-1.5l-2.6,1.5
		l0,3.1L20.9,56.1z M68.8,56.1l2.7-1.5l0-3.1l-2.6-1.5l-2.7,1.5l0,3.1L68.8,56.1z M44.9,43.9l4.3-2.5v-4.9L44.9,34l-4.3,2.5v4.9
		L44.9,43.9z M20.9,28.2l2.7-1.5l0-3.1l-2.6-1.5l-2.7,1.5l0,3.1L20.9,28.2z M68.8,28.2l2.6-1.5l0-3.1l-2.7-1.5l-2.6,1.5l0,3.1
		L68.8,28.2z M44.9,14.3l2.6-1.5V9.7l-2.6-1.5l-2.6,1.5v3.1L44.9,14.3z"/>
	<path fill="#B2E7F7" d="M65.6,49.8l-4.3-2.5l6.3-3.6l-1-1.8l-7.3,4.2l-3.2-1.9l2.5-1.4l-1-1.8L54,43l-2.7-1.6v-4.7l2.7-1.6l3.5,2
		l1-1.8L56.1,34l3.2-1.9l7.3,4.2l1-1.8l-6.3-3.6l4.3-2.5l3.2,1.8l4.3-2.5l0-5l-4.3-2.5l-4.3,2.5l0,3.6l-4.3,2.5l0-7.3l-2,0l0,8.4
		l-3.2,1.9l0-2.8l-2,0l0,4l-2.6,1.5L46,32.2V29l3.5-2l-1-1.8L46,26.7V23l7.3-4.2l-1-1.8L46,20.6v-5l3.1-1.8v-5l-4.3-2.5l-4.3,2.5v5
		l3.1,1.8v5L37.4,17l-1,1.8l7.3,4.2v3.7l-2.4-1.4l-1,1.8l3.5,2v3.2l-4.2,2.4l-2.6-1.5l0-4l-2,0l0,2.8l-3.2-1.9l0-8.4l-2,0l0,7.3
		l-4.3-2.5l0-3.6L21,20.2l-4.3,2.5l0,5l4.3,2.5l3.2-1.8l4.3,2.5l-6.3,3.6l1,1.8l7.3-4.2l3.2,1.9l-2.5,1.4l1,1.8l3.5-2l2.6,1.5v4.8
		L35.7,43l-3.5-2l-1,1.8l2.5,1.4l-3.2,1.9l-7.3-4.2l-1,1.8l6.3,3.6l-4.3,2.5L21,48l-4.3,2.5l0,5L21,58l4.3-2.5l0-3.6l4.3-2.5l0,7.3
		l2,0l0-8.4l3.2-1.9l0,2.8l2,0l0-4l2.6-1.5l4.2,2.4v3.2l-3.5,2l1,1.8l2.4-1.4v3.7l-7.3,4.2l1,1.8l6.3-3.6v5l-3.1,1.8v5l4.3,2.5
		l4.3-2.5v-5L46,62.5v-5l6.3,3.6l1-1.8L46,55.2v-3.7l2.4,1.4l1-1.8l-3.5-2v-3.2l4.2-2.4l2.6,1.5l0,4l2,0l0-2.8l3.2,1.9l0,8.4l2,0
		l0-7.3l4.3,2.5l0,3.6l4.3,2.5l4.3-2.5l0-5L68.8,48L65.6,49.8z M68.8,21.5l3.2,1.8l0,3.6l-3.1,1.8L65.7,27l0-3.6L68.8,21.5z
		 M24.1,27l-3.2,1.8L17.8,27l0-3.6l3.2-1.8l3.1,1.8L24.1,27z M20.9,56.6l-3.2-1.8l0-3.6l3.1-1.8l3.2,1.8l0,3.6L20.9,56.6z
		 M41.7,13.1V9.4l3.2-1.8L48,9.4v3.6l-3.2,1.8L41.7,13.1z M48,65.1v3.6l-3.2,1.8l-3.2-1.8v-3.6l3.2-1.8L48,65.1z M49.6,41.7
		l-4.8,2.8l-4.8-2.8v-5.5l4.8-2.8l4.8,2.8V41.7z M72,51.2l0,3.6l-3.2,1.8l-3.1-1.8l0-3.6l3.2-1.8L72,51.2z"/>
</g>
<g id="SnowFlakeB">
	<polygon fill="#9DD7ED" points="80.9,44.7 74.4,40.9 64.9,46.4 58.2,42.6 60.1,39.2 58,35.6 64.7,31.8 74.1,37.2 80.7,33.5 
		71.4,27.9 77.6,24.4 74.1,18.3 67.9,21.9 67.7,10.8 61,14.6 60.7,25.9 54.5,29.5 52.6,26.3 48.4,26.3 48.4,18.8 58.1,13 58,5.3 
		48.4,10.6 48.4,5.3 41.3,5.3 41.3,10.6 31.9,5.3 31.9,12.8 41.3,18.3 41.3,26.4 37.7,26.4 35.7,29.9 28.8,25.9 28.5,14.6 
		21.8,10.8 21.6,21.9 15.4,18.3 11.9,24.4 18.1,27.9 8.8,33.5 15.3,37.2 24.8,31.8 32.2,36 30.3,39.3 32.1,42.4 25.1,46.4 
		15.6,40.9 9,44.7 18.3,50.2 12.1,53.8 15.6,59.9 21.9,56.3 22,67.4 28.7,63.6 29,52.2 35.6,48.5 37.8,52.2 41.6,52.2 41.6,59.8 
		32.1,65.4 32.1,72.9 41.6,67.6 41.6,72.9 48.6,72.9 48.6,67.5 58.3,72.9 58.3,65.2 48.6,59.3 48.6,52.2 52.8,52.2 54.7,48.7 
		61,52.2 61.3,63.6 68,67.4 68.1,56.3 74.4,59.9 77.9,53.8 71.6,50.2 	"/>
</g>
<g id="Thermometer">
	<path d="M51.1,46.7c0-7.1,0-35.4,0-35.4c0-3.4-2.8-6.1-6.2-6.1c-3.4,0-6.2,2.7-6.2,6.1c0,0.1,0,28.3,0,35.4c-2,1-3.7,2.5-5,4.3
		C32,53.2,31.1,56,31.1,59c0,3.6,1.3,6.8,3.6,9.2c2.5,2.8,6.2,4.6,10.2,4.6c3.6,0,6.8-1.3,9.3-3.6c2.8-2.5,4.6-6.2,4.6-10.2
		c0-3.1-1-6-2.8-8.3C54.6,49,53,47.6,51.1,46.7z M44.9,71.6c-3.8,0-7.1-1.7-9.4-4.3c-2-2.2-3.1-5.1-3.1-8.3c0-2.8,0.9-5.4,2.5-7.5
		c1.3-1.8,3.1-3.2,5.1-4.1c0-5.5,0-36.1,0-36.2c0-2.7,2.2-4.9,5-4.9c2.7,0,5,2.2,5,4.9c0,0,0,30.7,0,36.2c2.6,1.1,4.7,3,6,5.4
		c1,1.8,1.6,4,1.6,6.2c0,3.1-1.2,6-3.1,8.2C52.1,69.9,48.7,71.6,44.9,71.6z"/>
	
		<linearGradient id="SVGID_00000088126506955449685050000015288564556288284088_" gradientUnits="userSpaceOnUse" x1="44.8663" y1="771.8338" x2="44.8663" y2="833.6781" gradientTransform="matrix(1 0 0 -1 0 842)">
		<stop  offset="0.3376" style="stop-color:#1C75BC"/>
		<stop  offset="0.375" style="stop-color:#4F71AE"/>
		<stop  offset="0.4591" style="stop-color:#836696"/>
		<stop  offset="0.5454" style="stop-color:#A55982"/>
		<stop  offset="0.6325" style="stop-color:#BE4B72"/>
		<stop  offset="0.7206" style="stop-color:#D03B67"/>
		<stop  offset="0.8102" style="stop-color:#DD2B5E"/>
		<stop  offset="0.9021" style="stop-color:#E51D5A"/>
		<stop  offset="1" style="stop-color:#E71758"/>
	</linearGradient>
	<path fill="url(#SVGID_00000088126506955449685050000015288564556288284088_)" d="M48.6,48.3c0,0,0-37,0-37c0-2-1.7-3.6-3.7-3.6
		s-3.7,1.6-3.7,3.6c0,0,0,37,0,37c-4.4,1.5-7.6,5.8-7.6,10.7c0,6.3,5.1,11.4,11.4,11.4c6.3,0,11.4-5.1,11.4-11.4
		C56.2,54.1,53,49.8,48.6,48.3z"/>
	<ellipse transform="matrix(0.7909 -0.6119 0.6119 0.7909 -24.74 36.1017)" fill="#FFFFFF" cx="40.5" cy="54.3" rx="2.6" ry="1.7"/>
	<circle fill="#FFFFFF" cx="37.1" cy="59.8" r="2"/>
	<circle fill="#FFFFFF" cx="43.4" cy="11.4" r="0.9"/>
	<g>
		<path d="M56.4,15.1h-5.8c-0.4,0-0.7-0.3-0.7-0.7c0-0.4,0.3-0.7,0.7-0.7h5.8c0.4,0,0.7,0.3,0.7,0.7C57.2,14.8,56.8,15.1,56.4,15.1z
			"/>
	</g>
	<g>
		<path d="M56.4,44.4h-5.8c-0.4,0-0.7-0.3-0.7-0.7c0-0.4,0.3-0.7,0.7-0.7h5.8c0.4,0,0.7,0.3,0.7,0.7C57.2,44.1,56.8,44.4,56.4,44.4z
			"/>
	</g>
	<g>
		<path d="M56.4,24.9h-5.8c-0.4,0-0.7-0.3-0.7-0.7c0-0.4,0.3-0.7,0.7-0.7h5.8c0.4,0,0.7,0.3,0.7,0.7C57.2,24.6,56.8,24.9,56.4,24.9z
			"/>
	</g>
	<g>
		<path d="M56.4,34.6h-5.8c-0.4,0-0.7-0.3-0.7-0.7c0-0.4,0.3-0.7,0.7-0.7h5.8c0.4,0,0.7,0.3,0.7,0.7C57.2,34.3,56.8,34.6,56.4,34.6z
			"/>
	</g>
	<g>
		<path d="M54.3,39.5h-3.6c-0.4,0-0.7-0.3-0.7-0.7c0-0.4,0.3-0.7,0.7-0.7h3.6c0.4,0,0.7,0.3,0.7,0.7C55,39.2,54.7,39.5,54.3,39.5z"
			/>
	</g>
	<g>
		<path d="M54.3,29.8h-3.6c-0.4,0-0.7-0.3-0.7-0.7c0-0.4,0.3-0.7,0.7-0.7h3.6c0.4,0,0.7,0.3,0.7,0.7C55,29.4,54.7,29.8,54.3,29.8z"
			/>
	</g>
	<g>
		<path d="M54.3,20h-3.6c-0.4,0-0.7-0.3-0.7-0.7s0.3-0.7,0.7-0.7h3.6c0.4,0,0.7,0.3,0.7,0.7S54.7,20,54.3,20z"/>
	</g>
	<path d="M53.2,68.5"/>
	<path d="M53.2,68.5"/>
</g>
</svg>
