<?xml version="1.0" encoding="utf-8"?>
<!-- Generator: Adobe Illustrator 16.0.4, SVG Export Plug-In . SVG Version: 6.00 Build 0)  -->
<!DOCTYPE svg PUBLIC "-//W3C//DTD SVG 1.1//EN" "http://www.w3.org/Graphics/SVG/1.1/DTD/svg11.dtd">
<svg version="1.1" id="Layer_1" xmlns="http://www.w3.org/2000/svg" xmlns:xlink="http://www.w3.org/1999/xlink" x="0px" y="0px"
	 width="727px" height="426.2px" viewBox="0 0 727 426.2" enable-background="new 0 0 727 426.2" xml:space="preserve">
<polygon id="Australia" fill="none" stroke="#231F20" stroke-width="2" stroke-miterlimit="10" points="647.7,317.7 641,341.9 
	627.5,343.9 614.2,332.4 597.2,327.6 576,337.4 568.7,326.2 568.7,309.7 583.6,300.3 595.4,291.3 607,285.7 614.2,286.9 613,295.3 
	622.2,300.7 622.2,300.7 625.9,288.9 631.7,300.7 631.7,300.7 "/>
<g id="Japan">
	<polygon fill="none" stroke="#231F20" stroke-width="2" stroke-miterlimit="10" points="621.7,176.9 624.3,183 615.5,192 
		610.7,193.9 600.3,199.5 600.3,193.9 610.7,186.7 618,184.3 618.4,183 	"/>
	<polygon fill="none" stroke="#231F20" stroke-width="2" stroke-miterlimit="10" points="633.3,168 625.2,176.9 621.3,171.7 
		625.2,164.7 	"/>
</g>
<g id="Africa">
	<polygon fill="none" stroke="#231F20" stroke-width="2" stroke-miterlimit="10" points="443.1,290 439.9,308.6 433.8,315.4 
		429.5,307.9 433.8,301.8 434.3,302.3 433.8,293.2 	"/>
	<path id="Af" fill="none" stroke="#231F20" stroke-width="2" stroke-miterlimit="10" d="M444.8,239.9l-16.6-1.8l-18.5-28.7
		l-3.6-9.7l-13.9-2.8l-12.6,1.6l-14.2-6.9l-5.5-6.4l-25,5l-18,21.5l-5.5,23.5l18.2,19.2l24.7-4.5L366,259l-2,5.9l5.4,8l5,12.8
		l-5.1,10.7l3.9,7.2v11.1l11.3,18.4L396,332l11.2-9.6l6.9-7.9l-2.2-9.9l12.1-10.5l-2.2-22.6l13.6-14.3L444.8,239.9z"/>
</g>
<path id="SouthAmerica" fill="none" stroke="#231F20" stroke-width="2" stroke-miterlimit="10" d="M266.8,268.5l-21.4-4.1l-3.3-11.2
	l-16.5-8l-22.4-7l-12.2,8.5l1.1,13l-8.8,10.3l5.3,13.5l7.9,10.1l9.9,8l-7.4,38.2l-2.5,32.3l10.4,14l9.1-0.5l-7.5-11.2l8.2-22.4
	l15.6-12.2l-4.2-5.2h9.3l12.5-13.9l4.9-11.2l9.5-3l4.4-20.1l9.2-8.7L266.8,268.5z"/>
<g id="NewZealand">
	<polygon fill="none" stroke="#231F20" stroke-width="2" stroke-miterlimit="10" points="698.7,342.4 688.7,350.4 688.7,337.4 	"/>
	<polygon fill="none" stroke="#231F20" stroke-width="2" stroke-miterlimit="10" points="675.7,354.9 688.7,350.4 679.7,364.7 
		671.7,361.9 	"/>
</g>
<g id="Cuba">
	<polygon fill="none" stroke="#231F20" stroke-width="2" stroke-miterlimit="10" points="209.6,223 204.8,229.2 197.1,228.3 
		197.8,223 192.1,223.7 183.4,214.9 197.9,223 197.9,223 	"/>
	<polygon fill="none" stroke="#231F20" stroke-width="2" stroke-miterlimit="10" points="176.3,216.6 183.4,214.9 180.7,219.3 	"/>
</g>
<g id="Europe">
	<polygon fill="none" stroke="#231F20" stroke-width="2" stroke-miterlimit="10" points="537.2,242.1 537.2,242.1 546.5,250.7 
		547.6,257.2 541.9,252.3 541.8,252.2 541.8,252.2 	"/>
	<path fill="none" stroke="#231F20" stroke-width="2" stroke-miterlimit="10" d="M715.5,95.4l-48-1l-40.8-9.8l-72.8-3.2l1.7-16.8
		l-29.3,4.5l-0.1-0.1l-14.1,15.5v0.1l-21.9-1.9l-17.9,14.3h-25.2l-27.4,12.6v-10l-14.2-5.1l-7.4-6.2l-13.3,4.4l-13.3,12.9l-6,9.2
		l-9.7,5.2v8l6.4,2.9l5.8-3.9l4.6,11.1l6.8-3.8l2.4-17.5l11.7-10.7l-4.2,10.8l1.1,8.2h10.6l-12.8,9.2L384,143l-16.4-0.4v-8.9
		l-5.4,4.5l-9.4,13.6l-14.3,8.3l4.5,8.4l-15.9,2.1l4.1,13l10,3.2l9.8-14.2l0.9,0.5l12.7-7l10,12.5l14.8,0.3l16.9-14.6l13.1,2.2
		l6.5,5l-4.2,6.1l-12-2.5l-12.8,3.8l7.2,9.1l12.5-2.7v8.6l-10.4,5.9l0.9,0l8.3,8.1l9.4,13l6.9,14.3l28.7-12.6l-2.7-9.3l-9.2-2.2
		l-8.2-9.7l18.8,7.8l20,4.8L491,231l8.2,17.7l6.7-18.8l19.1-11.4l6.5,13.6l5.8,9.9l0,0v0l0,0l4.3-4l8.5,6.8l10.2-9.2l-7.7-10.5
		l5-6.7l13.6-1l12.9-14.7l-6.1-23.8l13.3,0.8l3.2,12.1l8.8-19.4l18.2-10.1l-0.2-16l-9.9-8.1l18.5-13.4l40.5-6.5l13,8.8l33.2-15.9
		L715.5,95.4z M450.6,185.3l-11.7-7.8l2.6-15.6l9.9,0.6l-5.8,7.9L450.6,185.3z"/>
	<polygon fill="none" stroke="#231F20" stroke-width="2" stroke-miterlimit="10" points="648.7,139.2 670.2,118.4 654.5,151.9 	"/>
	<polygon fill="none" stroke="#231F20" stroke-width="2" stroke-miterlimit="10" points="317.6,106.2 309.4,118.2 302.5,114 
		301.7,107 306.9,110.1 	"/>
	<polygon fill="none" stroke="#231F20" stroke-width="2" stroke-miterlimit="10" points="331.8,141.8 331.7,142 329.7,151.7 
		325.9,149.3 325.8,149.3 325.8,149.3 326.4,140.8 	"/>
	<polygon fill="none" stroke="#231F20" stroke-width="2" stroke-miterlimit="10" points="348.9,148.4 343.5,153.1 336.4,154.1 
		342.9,148.2 337.9,148.2 339.8,143 335.7,139.9 332.4,135.7 340.4,128.2 341.1,137.7 344.6,142.4 	"/>
	<polygon fill="none" stroke="#231F20" stroke-width="2" stroke-miterlimit="10" points="509.3,248.7 504.3,251.7 504.3,243.9 	"/>
	<polygon fill="none" stroke="#231F20" stroke-width="2" stroke-miterlimit="10" points="481.1,67.2 460.9,78.2 460.3,78.5 
		459.9,92.1 447.5,86.4 464.5,67.8 	"/>
	<polygon fill="none" stroke="#231F20" stroke-width="2" stroke-miterlimit="10" points="368.2,55.3 388.4,60.2 379.6,68.8 	"/>
	<polygon fill="none" stroke="#231F20" stroke-width="2" stroke-miterlimit="10" points="398.2,52.2 388.4,60.2 381.9,49.9 	"/>
</g>
<g id="Oceania">
	<polygon fill="none" stroke="#231F20" stroke-width="2" stroke-miterlimit="10" points="640.4,286.3 631,279.6 618.5,281.1 
		616.3,273 615.5,272.4 607.7,271.7 602.6,266.4 607.7,262.2 608.6,266.4 619.2,265.2 635.2,274.2 	"/>
	<polygon fill="none" stroke="#231F20" stroke-width="2" stroke-miterlimit="10" points="552.5,274.2 542.4,268 532.6,253.5 
		541.5,257.2 549.4,264.2 	"/>
	<polygon fill="none" stroke="#231F20" stroke-width="2" stroke-miterlimit="10" points="573.8,282.1 558.7,281.1 553.4,274.2 
		568.7,277 	"/>
	<polygon fill="none" stroke="#231F20" stroke-width="2" stroke-miterlimit="10" points="584.5,218.5 579.9,217.1 584,212 	"/>
	<polygon fill="none" stroke="#231F20" stroke-width="2" stroke-miterlimit="10" points="595.6,244.9 589.6,251.7 582.2,245.6 
		587,235 	"/>
	<polygon fill="none" stroke="#231F20" stroke-width="2" stroke-miterlimit="10" points="583.6,222.6 587,235 579.9,235 	"/>
	<polygon fill="none" stroke="#231F20" stroke-width="2" stroke-miterlimit="10" points="577.2,265.5 567.2,271.7 558.7,269.2 
		558.7,259.7 565.5,258.5 574.8,248.7 574.8,261.8 	"/>
	<polygon fill="none" stroke="#231F20" stroke-width="2" stroke-miterlimit="10" points="584,264.6 587.6,271.7 578.4,275.2 	"/>
	<polygon fill="none" stroke="#231F20" stroke-width="2" stroke-miterlimit="10" points="593.7,259.7 584,264.6 580.2,262.2 	"/>
</g>
<g id="NorthAmerica">
	<polygon fill="none" stroke="#231F20" stroke-width="2" stroke-miterlimit="10" points="119.9,209.6 113.5,196.9 119.9,204.9 
		128.6,217.2 	"/>
	<polygon fill="none" stroke="#231F20" stroke-width="2" stroke-miterlimit="10" points="228,158 233.2,149.4 241.6,162.9 	"/>
	<polygon fill="none" stroke="#231F20" stroke-width="2" stroke-miterlimit="10" points="206.2,122.4 186.8,148.8 191,116.2 	"/>
	<path fill="none" stroke="#231F20" stroke-width="2" stroke-miterlimit="10" d="M217.5,124.4l-10.1,6.2l-7,13.6l-5.1,23l-19.6-6.4
		l-4.4-5.1l15.6-6.9l-6.9-9.2l-23.5-15.1L171,108l13.3-8l-19.9-2.2l-9.6-8.6l-16.6,14.6l-26-3.9l-10.9-4.5l-14.6-3.2l-21.5,2.2
		L34,89.2l-21,8l7.5,7.5l-7.5,6h15.5l-8,4.8l-4.8,7.8l16,4.6l-9,13.5l18-13.2l25.1-4.4l31.5,32.9l2.1,18.1l3.1,9.6l11,12.3l13.4,8.7
		l8.8,11l2.6,7.6l12.7,5.4l11,2.9l8.4,4l6.4,9.9l14.2,0.4l-12.4-5.5l1.5-8.7l-9.6-5.6l2.2-9.5L162,223l-10.5-2.9l-0.5-10.5l8.2-7.6
		l19.3-0.7l5.4,9.5l1-14l8.6-8.9l7.8-13.5l13.1-7.9l2.5-12.9l0.1-0.6l0.4,0.2l15.8-3.9L217.5,124.4z"/>
	<polygon fill="none" stroke="#231F20" stroke-width="2" stroke-miterlimit="10" points="225.4,105.3 224.9,105.3 214.4,106.1 
		211.6,120.1 191.9,110.7 202.5,102.7 189.9,92.2 175.2,79.8 189.1,78.4 205.6,90.5 	"/>
	<polygon fill="none" stroke="#231F20" stroke-width="2" stroke-miterlimit="10" points="165.5,85.9 175.2,79.8 173.1,94 	"/>
	<polygon fill="none" stroke="#231F20" stroke-width="2" stroke-miterlimit="10" points="223.8,41.5 211.5,47 198.9,53 198.8,53.2 
		189.1,68.2 168.8,68.2 178.7,55.7 166.3,60.2 153,52.2 167,43.7 189.9,38.4 207.4,40.4 	"/>
	<polygon fill="none" stroke="#231F20" stroke-width="2" stroke-miterlimit="10" points="163.4,66.2 164.4,74.4 154.6,66.2 	"/>
	<polygon fill="none" stroke="#231F20" stroke-width="2" stroke-miterlimit="10" points="186.8,72.1 174.3,76 164.4,74.4 
		175.2,72.1 	"/>
	<polygon fill="none" stroke="#231F20" stroke-width="2" stroke-miterlimit="10" points="150.1,76.9 150.1,89.2 144.3,82.5 	"/>
	<polygon fill="none" stroke="#231F20" stroke-width="2" stroke-miterlimit="10" points="109.4,76.9 115.6,80.7 102.1,90.5 94,84 
		100.6,76.9 	"/>
	<polygon fill="none" stroke="#231F20" stroke-width="2" stroke-miterlimit="10" points="125,83 121.7,94.4 115.6,80.7 	"/>
	<polygon fill="none" stroke="#231F20" stroke-width="2" stroke-miterlimit="10" points="142.4,93.2 133.7,94 121.7,94.4 
		132.9,81.4 	"/>
	<polygon fill="none" stroke="#231F20" stroke-width="2" stroke-miterlimit="10" points="111.8,64.7 116.5,68.8 108.6,72.1 
		102.1,70.3 	"/>
	<polygon fill="none" stroke="#231F20" stroke-width="2" stroke-miterlimit="10" points="133.7,74.4 119.9,76.9 116.5,68.8 
		126.2,70.3 129.2,66.2 	"/>
</g>
<path id="Greenland" fill="none" stroke="#231F20" stroke-width="2" stroke-miterlimit="10" d="M300.1,41.5L268,37l-26.2,4.5
	l-28,9.9L203,58.4l3.3,10.7h11.2l15.8,7.9l12.5,13.5l0,0.1l-7.2,11.6l10,20.8l10.5,2.2l5.8-14.8L299,92.4l7-24.2l11.6-22.5
	L300.1,41.5z"/>
</svg>
