<?xml version="1.0" encoding="utf-8"?>
<!-- Generator: Adobe Illustrator 16.0.4, SVG Export Plug-In . SVG Version: 6.00 Build 0)  -->
<!DOCTYPE svg PUBLIC "-//W3C//DTD SVG 1.1//EN" "http://www.w3.org/Graphics/SVG/1.1/DTD/svg11.dtd">
<svg version="1.1" xmlns="http://www.w3.org/2000/svg" xmlns:xlink="http://www.w3.org/1999/xlink" x="0px" y="0px"
	 width="595.28px" height="425.2px" viewBox="0 0 595.28 425.2" enable-background="new 0 0 595.28 425.2" xml:space="preserve">
<g id="Dessert">
	<polygon fill="#F47D40" points="107.538,183.423 99.337,178.736 107.538,178.547 	"/>
	<polygon fill="#F47D40" points="121.063,184.214 107.538,183.423 107.538,178.547 	"/>
	<polygon fill="#EA6334" points="98.886,182.334 107.538,183.423 99.337,178.736 	"/>
	<polygon fill="#F47D40" points="107.248,194.839 107.538,183.423 98.886,182.334 	"/>
	<polygon fill="#EA6334" points="121.063,184.214 107.248,194.839 107.538,183.423 	"/>
	<polygon fill="#EA6334" points="104.977,199.086 113.072,199.512 107.248,194.839 	"/>
	<polygon fill="#F47D40" points="125.931,201.882 118.678,198.126 125.199,208.882 	"/>
	<polygon fill="#F47D40" points="125.199,208.882 104.977,199.086 113.072,199.512 	"/>
	<polygon fill="#EA6334" points="118.678,198.126 113.072,199.512 125.199,208.882 	"/>
	<polygon fill="#EA6334" points="129.908,210.465 125.199,208.882 125.931,201.882 	"/>
	<polygon fill="#F47D40" points="373.729,149.548 367.563,168.382 399.563,168.382 	"/>
	<polygon fill="#F47D40" points="301.265,171.548 298.537,182.548 301.265,186.104 	"/>
	<polygon fill="#EA6334" points="373.729,149.548 347.66,160.249 367.563,168.382 	"/>
	<polygon fill="#F47D40" points="447.459,252.299 432.318,252.697 439.528,267.943 	"/>
	<polygon fill="#EA6334" points="449.896,257.549 451.021,275.865 453.646,248.799 	"/>
	<polygon fill="#EA6334" points="439.528,267.943 449.896,257.549 447.459,252.299 	"/>
	<polygon fill="#F47D40" points="451.021,275.865 449.896,257.549 439.528,267.943 	"/>
	<polygon fill="#F47D40" points="279.062,182.592 270.73,172.266 253.48,196.139 	"/>
	<polygon fill="#F47D40" points="289.23,197.415 298.537,182.548 279.062,182.592 	"/>
	<polygon fill="#EA6334" points="298.537,182.548 289.23,197.415 309.901,203.502 	"/>
	<polygon fill="#EA6334" points="279.062,182.592 289.23,197.415 253.48,196.139 	"/>
	<polygon fill="#F47D40" points="271.99,213.648 253.48,196.139 289.23,197.415 	"/>
	<polygon fill="#F47D40" points="319.977,181.238 301.265,186.104 301.265,171.548 	"/>
	<polygon fill="#F47D40" points="301.265,171.548 319.977,181.238 312.934,171.548 	"/>
	<polygon fill="#F47D40" points="325.146,193.548 319.977,181.238 301.265,186.104 	"/>
	<polygon fill="#F47D40" points="302.2,210.25 309.901,203.502 289.23,197.415 	"/>
	<polygon fill="#F47D40" points="131.146,201.298 125.931,201.882 129.908,210.465 	"/>
</g>
<g id="Arctic">
	<polygon fill="#928B8D" points="158.332,301.148 161.286,290.564 155.378,275.402 	"/>
	<polygon fill="#928B8D" points="164.246,312.205 168.496,305.988 158.332,301.148 	"/>
	<polygon fill="#5B5C5C" points="177.334,321.051 168.496,305.988 164.246,312.205 	"/>
	<polygon fill="#5B5C5C" points="161.286,290.564 158.332,301.148 168.496,305.988 	"/>
	<polygon fill="#5B5C5C" points="115.889,122.798 129.107,119.574 129.107,136.173 	"/>
	<polygon fill="#928B8D" points="138.022,125.153 129.107,136.173 129.107,119.574 	"/>
	<polygon fill="#5B5C5C" points="154.007,131.548 129.107,136.173 138.022,125.153 	"/>
	<polygon fill="#928B8D" points="168.456,125.153 138.022,125.153 154.007,131.548 	"/>
	<polygon fill="#5B5C5C" points="275.271,122.173 268.771,130.173 271.896,130.923 	"/>
	<polygon fill="#5B5C5C" points="278.562,129.298 275.271,122.173 276.021,130.173 	"/>
	<polygon fill="#928B8D" points="275.271,122.173 271.896,130.923 276.021,130.173 	"/>
	<polygon fill="#928B8D" points="282.102,128.132 278.562,129.298 275.271,122.173 	"/>
	<polygon fill="#5B5C5C" points="293.312,122.798 275.271,122.173 282.102,128.132 	"/>
	<polygon fill="#5B5C5C" points="192.302,112.995 202.894,118.208 213.16,106.477 	"/>
	<polygon fill="#928B8D" points="245.146,108.106 213.16,106.477 202.894,118.208 	"/>
	<polygon fill="#5B5C5C" points="206.642,135.173 202.894,118.208 245.146,108.106 	"/>
	<polygon fill="#5B5C5C" points="358.229,111.217 298.537,128.132 343.563,125.736 	"/>
	<polygon fill="#928B8D" points="389.729,120.383 358.229,111.217 343.563,125.736 	"/>
	<polygon fill="#5B5C5C" points="383.729,132.017 343.563,125.736 389.729,120.383 	"/>
	<polygon fill="#928B8D" points="420.063,136.217 389.729,120.383 383.729,132.017 	"/>
	<polygon fill="#5B5C5C" points="432.063,121.717 420.063,136.217 389.729,120.383 	"/>
	<polygon fill="#5B5C5C" points="233.691,126.548 233.691,130.923 240.697,125.736 	"/>
	<polygon fill="#928B8D" points="240.697,129.298 240.697,125.736 233.691,130.923 	"/>
	<polygon fill="#928B8D" points="168.456,133.548 159.848,145.076 182.596,137.048 	"/>
	<polygon fill="#928B8D" points="435.563,132.017 420.063,136.217 432.063,121.717 	"/>
	<polygon fill="#928B8D" points="461.063,128.967 432.063,121.717 446.229,134.882 	"/>
	<polygon fill="#928B8D" points="447.563,149.548 435.563,132.017 446.229,134.882 	"/>
	<polygon fill="#5B5C5C" points="446.229,134.882 432.063,121.717 435.563,132.017 	"/>
	<polygon fill="#5B5C5C" points="70.392,131.548 76.848,137.048 96.214,119.574 	"/>
	<polygon fill="#928B8D" points="94.985,129.298 76.848,137.048 96.214,119.574 	"/>
	<polygon fill="#5B5C5C" points="115.889,122.798 94.985,129.298 96.214,119.574 	"/>
</g>
<g id="Mountain">
	<polygon fill="#8D6C54" points="138.396,237.424 143.118,222.549 145.896,230.219 	"/>
	<polygon fill="#836245" points="149.242,220.938 145.896,230.219 143.118,222.549 	"/>
	<polygon fill="#836245" points="144.146,237.424 138.396,237.424 145.896,230.219 	"/>
	<polygon fill="#8D6C54" points="145.896,256.762 138.396,237.424 144.146,237.424 	"/>
	<polygon fill="#836245" points="144.146,237.424 145.896,256.762 147.48,250.76 	"/>
	<polygon fill="#836245" points="155.378,275.402 156.5,260.348 161.286,268.768 	"/>
	<polygon fill="#8D6C54" points="161.286,290.564 155.378,275.402 161.286,268.768 	"/>
	<polygon fill="#8E7062" points="58.096,145.361 76.848,137.048 89.144,137.048 	"/>
	<polygon fill="#6D5532" points="89.144,137.048 94.985,129.298 76.848,137.048 	"/>
	<polygon fill="#8E7062" points="96.969,136.173 89.144,137.048 94.985,129.298 	"/>
	<polygon fill="#6D5532" points="96.611,142.308 96.969,136.173 89.144,137.048 	"/>
	<polygon fill="#8E7062" points="104.169,146.601 96.611,142.308 96.969,136.173 	"/>
	<polygon fill="#6D5532" points="104.169,140.558 104.169,146.601 96.969,136.173 	"/>
	<polygon fill="#8E7062" points="105.437,157.548 104.169,146.601 111.229,152.174 	"/>
	<polygon fill="#8E7062" points="96.611,142.308 100.39,153.979 105.437,157.548 	"/>
	<polygon fill="#6D5532" points="104.169,146.601 96.611,142.308 105.437,157.548 	"/>
	<polygon fill="#6D5532" points="102.063,166.215 100.39,153.979 105.437,157.548 	"/>
	<polygon fill="#8E7062" points="107.538,166.215 105.437,157.548 102.063,166.215 	"/>
	<polygon fill="#6D5532" points="105.437,157.548 107.538,166.215 111.229,152.174 	"/>
	<polygon fill="#6D5532" points="99.337,178.736 102.063,166.215 107.538,166.215 	"/>
	<polygon fill="#8E7062" points="107.538,178.547 99.337,178.736 107.538,166.215 	"/>
	<polygon fill="#8E7062" points="149.771,156.332 146.578,152.174 159.848,145.076 	"/>
	<polygon fill="#6D5532" points="154.646,156.868 149.771,156.332 159.848,145.076 	"/>
	<polygon fill="#8E7062" points="161.312,158.208 154.646,156.868 159.848,145.076 	"/>
	<polygon fill="#836F5B" points="146.578,163.382 154.646,168.298 155.313,161.965 	"/>
	<polygon fill="#6D5532" points="145.896,169.215 154.646,168.298 146.578,163.382 	"/>
	<polygon fill="#6D5532" points="136.063,175.548 145.896,169.215 139.658,166.081 	"/>
	<polygon fill="#836F5B" points="145.896,169.215 146.578,163.382 139.658,166.081 	"/>
	<polygon fill="#977568" points="260.888,161.996 257.725,162.824 260.888,156.987 	"/>
	<polygon fill="#7D5F49" points="260.888,156.987 265.439,158.211 260.888,161.996 	"/>
	<polygon fill="#977568" points="271.99,158.501 265.439,158.211 276.021,154.502 	"/>
	<polygon fill="#7D5F49" points="276.021,158.211 276.021,154.502 271.99,158.501 	"/>
	<polygon fill="#977568" points="265.439,158.211 268.771,152.423 260.888,156.987 	"/>
	<polygon fill="#7D5F49" points="276.021,154.502 268.771,152.423 265.439,158.211 	"/>
	<polygon fill="#7D5F49" points="281.318,168.618 282.102,162.31 276.021,158.211 	"/>
	<polygon fill="#977568" points="276.021,154.502 276.021,158.211 282.102,162.31 	"/>
	<polygon fill="#8F7464" points="309.901,203.502 302.2,210.25 307.1,221.529 	"/>
	<polygon fill="#8F7464" points="308.188,238.947 300.368,238.285 301.265,264.645 	"/>
	<polygon fill="#826055" points="316.998,215.482 307.1,221.529 309.901,203.502 	"/>
	<polygon fill="#8F7464" points="308.188,238.947 307.1,221.529 316.998,215.482 	"/>
	<polygon fill="#826055" points="300.368,238.285 307.1,221.529 308.188,238.947 	"/>
	<polygon fill="#8F7464" points="347.66,160.249 351.913,177.161 367.563,168.382 	"/>
	<polygon fill="#95776A" points="378.261,177.161 387.381,186.841 395.979,172.647 	"/>
	<polygon fill="#95776A" points="399.563,168.382 395.979,172.647 406.466,176.15 	"/>
	<polygon fill="#826055" points="351.913,177.161 378.261,177.161 367.563,168.382 	"/>
	<polygon fill="#8F7464" points="378.261,177.161 370.748,184.403 351.913,177.161 	"/>
	<polygon fill="#826055" points="387.381,186.841 370.748,184.403 378.261,177.161 	"/>
	<polygon fill="#826055" points="309.09,162.31 308.188,165.241 319.041,166.199 	"/>
	<polygon fill="#8F7464" points="314.804,158.965 319.041,166.199 309.09,162.31 	"/>
	<polygon fill="#8F7464" points="319.977,181.238 319.041,166.199 334.385,170.923 	"/>
	<polygon fill="#8F7464" points="319.041,166.199 308.188,165.241 312.934,171.548 	"/>
	<polygon fill="#826055" points="312.934,171.548 319.977,181.238 319.041,166.199 	"/>
	<polygon fill="#8D6C54" points="147.48,250.76 145.896,256.762 156.5,260.348 	"/>
	<polygon fill="#977568" points="264.998,161.996 260.888,161.996 265.439,158.211 	"/>
	<polygon fill="#826055" points="387.381,186.841 406.466,176.15 395.979,172.647 	"/>
</g>
<g id="Savannah">
	<polygon fill="#F3C055" points="98.886,182.334 92.504,179.881 99.337,178.736 	"/>
	<polygon fill="#FCE272" points="432.318,252.697 424.659,262.311 426.762,273.574 	"/>
	<polygon fill="#FDBD69" points="418.229,144.382 373.729,149.548 399.563,168.382 	"/>
	<polygon fill="#F8E37B" points="413.229,166.215 418.229,144.382 399.563,168.382 	"/>
	<polygon fill="#FDBD69" points="422.28,156.382 418.229,144.382 413.229,166.215 	"/>
	<polygon fill="#FDBD69" points="395.979,172.647 367.563,168.382 378.261,177.161 	"/>
	<polygon fill="#FDBD69" points="334.385,170.923 347.66,160.249 351.913,177.161 	"/>
	<polygon fill="#FCE272" points="412.192,266.516 412.644,282.436 426.762,273.574 	"/>
	<polygon fill="#FAC062" points="424.659,262.311 412.192,266.516 426.762,273.574 	"/>
	<polygon fill="#FAC062" points="439.528,267.943 432.318,252.697 426.762,273.574 	"/>
	<polygon fill="#FCE272" points="438.026,283.787 439.528,267.943 426.762,273.574 	"/>
	<polygon fill="#FAC062" points="412.644,282.436 426.762,273.574 438.026,283.787 	"/>
	<polygon fill="#FAC062" points="451.021,275.865 439.528,267.943 438.026,283.787 	"/>
	<polygon fill="#FCE272" points="441.271,294.049 438.026,283.787 451.021,275.865 	"/>
	<polygon fill="#FAC062" points="453.646,294.049 451.021,275.865 441.271,294.049 	"/>
	<polygon fill="#F8E37B" points="367.563,168.382 399.563,168.382 395.979,172.647 	"/>
	<polygon fill="#F9C163" points="289.23,167.004 293.312,172.647 301.265,171.548 	"/>
	<polygon fill="#F9E373" points="298.537,163.941 289.23,167.004 301.265,171.548 	"/>
	<polygon fill="#F9C163" points="308.188,165.241 298.537,163.941 301.265,171.548 	"/>
	<polygon fill="#F9E373" points="312.934,171.548 301.265,171.548 308.188,165.241 	"/>
	<polygon fill="#FDBD69" points="329.282,188.023 319.977,181.238 351.913,177.161 	"/>
	<polygon fill="#F8E37B" points="319.977,181.238 334.385,170.923 351.913,177.161 	"/>
	<polygon fill="#F8E37B" points="329.282,188.023 342.793,188.023 351.913,177.161 	"/>
	<polygon fill="#F9C163" points="325.146,193.548 316.998,210.25 301.265,186.104 	"/>
	<polygon fill="#F9C163" points="337.813,195.624 325.146,193.548 330.396,204.546 	"/>
	<polygon fill="#F9E373" points="325.146,193.548 316.998,210.25 330.396,204.546 	"/>
	<polygon fill="#FAE273" points="242.18,169.999 248.11,166.199 243.793,160.17 	"/>
	<polygon fill="#F3C055" points="249.319,172.647 242.18,169.999 248.11,166.199 	"/>
	<polygon fill="#F8E461" points="248.11,176.081 229.198,195.54 253.48,196.139 	"/>
	<polygon fill="#F3C055" points="270.73,172.266 248.11,176.081 253.48,196.139 	"/>
	<polygon fill="#F3C055" points="229.198,195.54 229.198,211.465 253.48,196.139 	"/>
	<polygon fill="#F3C055" points="243.23,215.074 253.48,196.139 229.198,211.465 	"/>
	<polygon fill="#F3C055" points="270.73,257.797 279.973,286.24 286.616,272.211 	"/>
	<polygon fill="#F8E461" points="290.061,255.152 286.616,272.211 270.73,257.797 	"/>
	<polygon fill="#F8E461" points="295.248,282.602 279.973,286.24 286.616,272.211 	"/>
	<polygon fill="#F8E461" points="271.99,213.648 243.23,215.074 257.725,220.486 	"/>
	<polygon fill="#F8E461" points="302.2,210.25 271.99,213.648 287.396,224.697 	"/>
	<polygon fill="#F3C055" points="289.23,197.415 271.99,213.648 302.2,210.25 	"/>
	<polygon fill="#F3C055" points="253.48,196.139 271.99,213.648 243.23,215.074 	"/>
	<polygon fill="#F9BF63" points="316.998,215.482 308.188,238.947 321.96,225.477 	"/>
	<polygon fill="#FAE37B" points="326.875,213.648 316.998,215.482 321.96,225.477 	"/>
	<polygon fill="#F3C055" points="302.2,210.25 287.396,224.697 307.1,221.529 	"/>
	<polygon fill="#F8E461" points="202.894,241.615 194.278,268.053 173.989,246.227 	"/>
	<polygon fill="#F8E461" points="107.538,166.215 107.538,178.547 111.229,164.048 	"/>
	<polygon fill="#F3C055" points="120.168,166.882 107.538,178.547 111.229,164.048 	"/>
	<polygon fill="#F8E461" points="121.063,184.214 107.538,178.547 120.168,166.882 	"/>
	<polygon fill="#F8E461" points="92.504,179.881 99.337,178.736 96.611,171.298 	"/>
	<polygon fill="#F8E461" points="98.509,192.73 92.504,179.881 98.886,182.334 	"/>
	<polygon fill="#F8E461" points="113.072,199.512 107.248,194.839 121.063,184.214 	"/>
	<polygon fill="#F3C055" points="118.678,198.126 121.063,184.214 113.072,199.512 	"/>
	<polygon fill="#F3C055" points="131.896,197.176 125.931,201.882 131.146,201.298 	"/>
	<polygon fill="#F8E461" points="131.896,206.173 129.908,210.465 135.521,206.173 	"/>
	<polygon fill="#F3C055" points="136.063,209.923 129.908,210.465 135.521,206.173 	"/>
	<polygon fill="#F8E461" points="161.286,290.564 161.286,268.768 168.496,282.035 	"/>
	<polygon fill="#D6B664" points="168.496,306.361 168.496,282.035 161.286,290.564 	"/>
	<polygon fill="#F8E461" points="152.553,212.021 154.396,219.562 167.615,215.074 	"/>
	<polygon fill="#F3C055" points="154.396,219.562 149.242,220.938 152.553,212.021 	"/>
	<polygon fill="#F3C055" points="131.146,201.298 129.908,210.465 131.896,206.173 	"/>
</g>
<g id="Grassland">
	<polygon fill="#90C570" points="156.5,260.348 148.583,244.953 147.48,250.76 	"/>
	<polygon fill="#53A168" points="152.553,212.021 145.722,217.07 149.242,220.938 	"/>
	<polygon fill="#4EA068" points="262.146,132.423 262.146,136.173 266.896,130.923 	"/>
	<polygon fill="#90C577" points="269.521,135.173 262.146,136.173 266.896,130.923 	"/>
	<polygon fill="#4EA068" points="268.771,130.173 266.896,130.923 269.521,135.173 	"/>
	<polygon fill="#4EA068" points="264.521,138.298 262.146,136.173 269.521,135.173 	"/>
	<polygon fill="#90C577" points="271.896,130.923 268.771,130.173 269.521,135.173 	"/>
	<polygon fill="#4EA068" points="270.334,138.923 269.521,135.173 276.021,135.173 273.646,138.298 	"/>
	<polygon fill="#4EA068" points="276.021,131.548 271.896,130.923 269.521,135.173 	"/>
	<polygon fill="#90C577" points="276.021,131.548 269.521,135.173 276.021,135.173 	"/>
	<polygon fill="#4EA068" points="272.771,140.111 271.459,140.111 270.334,138.923 	"/>
	<polygon fill="#90C577" points="273.646,138.298 272.771,140.111 270.334,138.923 	"/>
	<polygon fill="#90C577" points="276.021,131.548 276.021,130.173 271.896,130.923 	"/>
	<polygon fill="#5BA062" points="281.48,131.548 282.102,128.132 293.312,122.798 	"/>
	<polygon fill="#93C56E" points="282.73,134.715 281.48,131.548 293.312,122.798 	"/>
	<polygon fill="#5BA062" points="298.537,128.132 293.312,122.798 282.73,134.715 	"/>
	<polygon fill="#93C56E" points="298.537,128.132 282.73,134.715 285.73,138.298 	"/>
	<polygon fill="#5BA062" points="297.393,142.848 298.537,128.132 285.73,138.298 	"/>
	<polygon fill="#93C56E" points="303.376,154.502 292.731,155.513 297.393,142.848 	"/>
	<polygon fill="#53A065" points="312.934,138.298 297.393,142.848 303.376,154.502 	"/>
	<polygon fill="#93C56E" points="298.537,128.132 312.934,138.298 297.393,142.848 	"/>
	<polygon fill="#93C56E" points="286.616,150.388 285.73,138.298 297.393,142.848 	"/>
	<polygon fill="#5BA062" points="282.102,162.31 285.73,164.828 286.616,150.388 	"/>
	<polygon fill="#93C56E" points="292.731,155.513 285.73,164.828 286.616,150.388 	"/>
	<polygon fill="#5BA062" points="297.393,142.848 286.616,150.388 292.731,155.513 	"/>
	<polygon fill="#5BA062" points="276.021,154.502 285.73,138.298 286.616,150.388 	"/>
	<polygon fill="#93C56E" points="282.102,162.31 276.021,154.502 286.616,150.388 	"/>
	<polygon fill="#5BA062" points="291.562,164.828 285.73,164.828 292.731,155.513 	"/>
	<polygon fill="#5BA062" points="272.771,142.848 285.73,138.298 268.771,152.423 	"/>
	<polygon fill="#93C56E" points="276.021,154.502 268.771,152.423 285.73,138.298 	"/>
	<polygon fill="#93C56E" points="265.439,144.343 272.771,142.848 268.771,152.423 	"/>
	<polygon fill="#5BA062" points="259.222,149.18 268.771,152.423 265.439,144.343 	"/>
	<polygon fill="#93C56E" points="253.004,151.46 259.222,149.18 268.771,152.423 	"/>
	<polygon fill="#93C56E" points="252.428,161.362 253.004,151.46 260.888,156.987 	"/>
	<polygon fill="#5BA062" points="268.771,152.423 260.888,156.987 253.004,151.46 	"/>
	<polygon fill="#5BA062" points="243.793,160.17 252.428,161.362 248.11,166.199 	"/>
	<polygon fill="#93C56E" points="252.428,161.362 249.319,172.647 248.11,166.199 	"/>
	<polygon fill="#5BA062" points="253.004,168.156 249.319,172.647 252.428,161.362 	"/>
	<polygon fill="#93C56E" points="257.725,162.824 252.428,161.362 253.004,168.156 	"/>
	<polygon fill="#5BA062" points="260.888,156.987 257.725,162.824 252.428,161.362 	"/>
	<polygon fill="#4EA068" points="245.146,143.132 243.23,148.048 246.896,146.4 	"/>
	<polygon fill="#8FC473" points="246.896,144.343 245.146,143.132 246.896,146.4 	"/>
	<polygon fill="#8FC473" points="252.428,138.923 250.713,138.004 250.27,140.798 	"/>
	<polygon fill="#50A16A" points="252.428,138.923 250.27,140.798 250.27,143.715 	"/>
	<polygon fill="#8FC473" points="253.48,142.848 250.27,143.715 252.428,138.923 253.48,142.848 251.875,146.4 256.658,148.048 	"/>
	<polygon fill="#50A16A" points="250.27,143.715 251.875,146.4 253.48,142.848 	"/>
	<polygon fill="#50A16A" points="249.812,148.736 251.875,146.4 256.658,148.132 	"/>
	<polygon fill="#5BA062" points="264.998,161.996 271.99,158.501 265.439,158.211 	"/>
	<polygon fill="#91C575" points="272.771,161.815 264.998,161.996 271.99,158.501 	"/>
	<polygon fill="#5BA062" points="272.96,165.086 264.998,161.996 272.771,161.815 	"/>
	<polygon fill="#91C575" points="277.064,166.067 272.771,161.815 272.96,165.086 	"/>
	<polygon fill="#91C575" points="272.471,169.424 277.064,166.067 274.162,166.396 	"/>
	<polygon fill="#5BA062" points="272.96,165.086 274.162,166.396 277.064,166.067 	"/>
	<polygon fill="#93C56E" points="285.73,164.828 281.18,168.344 282.102,162.31 	"/>
	<polygon fill="#5BA062" points="283.23,170.923 283.09,170.746 281.18,168.344 285.73,164.828 	"/>
	<polygon fill="#93C56E" points="285.021,170.09 283.23,170.923 285.73,164.828 	"/>
	<path fill="#FFFFFF" stroke="#000000" stroke-width="0.1" stroke-miterlimit="10" d="M287.48,171.548"/>
	<polygon fill="#4BA06B" points="343.563,125.736 298.537,128.132 312.934,138.298 	"/>
	<polygon fill="#53A065" points="383.729,132.017 418.229,144.382 420.063,136.217 	"/>
	<polygon fill="#93C56E" points="314.804,158.965 312.934,138.298 303.376,154.502 	"/>
	<polygon fill="#93C56E" points="303.376,158.965 309.09,162.31 303.376,154.502 	"/>
	<polygon fill="#53A065" points="314.804,158.965 309.09,162.31 303.376,154.502 	"/>
	<polygon fill="#53A065" points="323.018,155.317 312.934,138.298 314.804,158.965 	"/>
	<polygon fill="#93C56E" points="343.563,125.736 323.018,155.317 312.934,138.298 	"/>
	<polygon fill="#93C56E" points="347.66,160.249 373.729,149.548 343.563,125.736 	"/>
	<polygon fill="#53A065" points="323.018,155.317 343.563,125.736 347.66,160.249 	"/>
	<polygon fill="#4BA06B" points="383.729,132.017 373.729,149.548 343.563,125.736 	"/>
	<polygon fill="#90C474" points="418.229,144.382 383.729,132.017 373.729,149.548 	"/>
	<polygon fill="#90C474" points="430.99,174.439 432.063,179.883 434.412,176.15 	"/>
	<polygon fill="#53A065" points="438.301,171.795 430.99,174.439 434.412,176.15 	"/>
	<polygon fill="#90C474" points="442.188,173.973 438.301,171.795 434.412,176.15 	"/>
	<polygon fill="#53A065" points="442.188,168.382 438.301,171.795 442.188,173.973 	"/>
	<polygon fill="#90C474" points="439.146,165.263 438.301,171.795 442.188,168.382 	"/>
	<polygon fill="#90C474" points="436.278,158.406 438.301,163.708 441.563,161.057 	"/>
	<polygon fill="#90C474" points="430.213,153.754 418.229,144.382 422.28,156.382 	"/>
	<polygon fill="#53A065" points="427.103,162.31 422.28,156.382 430.213,153.754 	"/>
	<polygon fill="#53A065" points="422.28,166.215 413.229,166.215 427.103,162.31 	"/>
	<polygon fill="#90C474" points="422.28,156.382 413.229,166.215 427.103,162.31 	"/>
	<polygon fill="#90C474" points="425.702,173.973 413.229,166.215 422.28,166.215 	"/>
	<polygon fill="#53A065" points="334.385,170.923 323.018,155.317 319.041,166.199 	"/>
	<polygon fill="#90C474" points="378.261,195.624 389.729,204.237 387.381,186.841 	"/>
	<polygon fill="#90C474" points="342.793,188.023 358.229,186.242 351.913,177.161 	"/>
	<polygon fill="#93C56E" points="323.018,155.317 334.385,170.923 347.66,160.249 	"/>
	<polygon fill="#90C573" points="412.644,282.436 408.738,288.594 438.026,283.787 	"/>
	<polygon fill="#93C56E" points="466.021,275.299 451.021,275.865 453.646,294.049 	"/>
	<polygon fill="#6BAD68" points="453.646,248.799 451.021,275.865 466.021,275.299 	"/>
	<polygon fill="#6BC06B" points="426.246,200.037 422.28,208.858 427.103,207.054 	"/>
	<polygon fill="#90C474" points="426.762,211.465 427.103,207.054 422.28,208.858 	"/>
	<polygon fill="#6BC06B" points="430.99,211.465 426.762,211.465 427.103,207.054 	"/>
	<polygon fill="#90C474" points="428.488,218.682 426.762,211.465 430.99,211.465 	"/>
	<polygon fill="#90C474" points="432.701,222.09 428.488,218.682 430.99,211.465 	"/>
	<polygon fill="#6BC06B" points="433.145,213.648 430.99,211.465 432.701,222.09 	"/>
	<polygon fill="#90C474" points="408.896,227.904 410.59,236.324 422.28,228.906 	"/>
	<polygon fill="#6BC06B" points="421.015,220.486 408.896,227.904 422.28,228.906 	"/>
	<polygon fill="#6BC06B" points="418.229,238.33 410.59,236.324 422.28,228.906 	"/>
	<polygon fill="#90C474" points="388.737,224.697 402.771,241.938 406.466,239.131 	"/>
	<polygon fill="#6BC06B" points="425.335,247.752 402.771,241.938 406.466,239.131 	"/>
	<polygon fill="#90C573" points="449.896,236.324 451.771,243.441 459.909,238.33 	"/>
	<polygon fill="#6BC06B" points="458.555,241.938 451.771,243.441 459.909,238.33 	"/>
	<polygon fill="#90C573" points="466.021,247.752 458.555,241.938 459.909,238.33 	"/>
	<polygon fill="#6BC06B" points="455.84,245.748 451.771,243.441 458.555,241.938 	"/>
	<polygon fill="#53A065" points="402.797,197.484 387.381,186.841 389.729,204.237 	"/>
	<polygon fill="#53A065" points="417.755,192.657 406.466,176.15 402.797,197.484 	"/>
	<polygon fill="#90C474" points="417.755,177.161 406.466,176.15 417.755,192.657 	"/>
	<polygon fill="#53A065" points="413.229,166.215 406.466,176.15 417.755,177.161 	"/>
	<polygon fill="#90C474" points="413.229,166.215 399.563,168.382 406.466,176.15 	"/>
	<polygon fill="#90C573" points="466.021,304.811 472.062,306.283 477.106,298.715 	"/>
	<polygon fill="#90C573" points="481.311,300.188 481.311,296.402 477.106,298.715 	"/>
	<polygon fill="#62A66D" points="472.062,306.283 481.311,300.188 477.106,298.715 	"/>
	<polygon fill="#90C573" points="487.406,285.516 485.305,296.402 489.298,293.039 	"/>
	<polygon fill="#95C664" points="318.052,257.076 319.117,272.211 323.94,252.91 	"/>
	<polygon fill="#5BA062" points="314.88,272.211 318.052,257.076 319.117,272.211 	"/>
	<polygon fill="#95C664" points="314.142,264.643 314.88,272.211 318.052,257.076 	"/>
	<polygon fill="#90C474" points="396.924,209.259 389.729,204.237 402.843,197.392 	"/>
	<polygon fill="#53A065" points="403.665,215.098 396.852,209.282 402.771,197.415 	"/>
	<polygon fill="#90C474" points="408.283,212.123 402.771,197.415 403.665,215.098 	"/>
	<polygon fill="#90C474" points="387.381,186.841 402.797,197.484 406.466,176.15 	"/>
	<polygon fill="#53A065" points="395.979,222.09 389.729,204.237 396.924,209.259 	"/>
	<polygon fill="#90C474" points="401.223,227.904 395.73,221.379 396.924,209.259 	"/>
	<polygon fill="#53A065" points="353.907,197.392 365.305,217.857 366.646,206.036 	"/>
	<polygon fill="#90C474" points="358.229,186.242 353.907,197.392 366.646,206.036 	"/>
	<polygon fill="#FFFFFF" stroke="#000000" stroke-width="0.1" stroke-miterlimit="10" points="370.748,184.403 358.229,186.242 
		378.261,195.624 	"/>
	<polygon fill="#53A065" points="370.748,184.403 351.913,177.161 358.229,186.242 	"/>
	<polygon fill="#4C9E6C" points="378.261,195.624 387.381,186.841 370.748,184.403 	"/>
	<polygon fill="#53A065" points="366.646,206.036 378.261,195.624 358.229,186.242 	"/>
	<polygon fill="#53A065" points="342.793,188.023 353.907,197.392 358.229,186.242 	"/>
	<polygon fill="#5BA062" points="269.105,227.904 275.271,248.799 287.396,224.697 	"/>
	<polygon fill="#95C664" points="229.198,211.465 243.23,224.697 243.23,215.074 	"/>
	<polygon fill="#5BA062" points="257.725,220.486 243.23,215.074 243.23,224.697 	"/>
	<polygon fill="#5BA062" points="300.368,238.285 275.271,248.799 270.73,257.797 	"/>
	<polygon fill="#95C664" points="290.061,255.152 300.368,238.285 270.73,257.797 	"/>
	<polygon fill="#95C664" points="301.265,264.645 312.934,255.152 308.188,238.947 	"/>
	<polygon fill="#5BA062" points="286.616,272.211 301.265,264.645 295.248,282.602 	"/>
	<polygon fill="#95C664" points="290.061,255.152 301.265,264.645 286.616,272.211 	"/>
	<polygon fill="#5BA062" points="300.368,238.285 301.265,264.645 290.061,255.152 	"/>
	<polygon fill="#95C664" points="266.875,223.938 257.725,220.486 271.99,213.648 	"/>
	<polygon fill="#5BA062" points="287.396,224.697 271.99,213.648 266.875,223.938 	"/>
	<polygon fill="#95C664" points="269.105,227.904 287.396,224.697 266.875,223.938 	"/>
	<polygon fill="#95C664" points="300.368,238.285 287.396,224.697 275.271,248.799 	"/>
	<polygon fill="#5BA062" points="300.368,238.285 307.1,221.529 287.396,224.697 	"/>
	<polygon fill="#95C664" points="182.596,232.393 173.989,246.227 202.894,241.615 	"/>
	<polygon fill="#95C664" points="192.302,147.568 159.848,145.076 182.596,137.048 	"/>
	<polygon fill="#5BA062" points="140.634,153.979 129.107,136.173 150.188,139.223 	"/>
	<polygon fill="#5BA062" points="159.848,145.076 146.578,152.174 150.188,139.223 	"/>
	<polygon fill="#95C664" points="140.634,153.979 146.578,152.174 150.188,139.223 	"/>
	<polygon fill="#5BA062" points="111.229,152.174 115.889,122.798 129.107,136.173 	"/>
	<polygon fill="#95C664" points="140.634,153.979 111.229,152.174 129.107,136.173 	"/>
	<polygon fill="#95C664" points="154.007,131.548 150.188,139.223 129.107,136.173 	"/>
	<polygon fill="#5BA062" points="96.969,136.173 104.169,140.558 115.889,122.798 	"/>
	<polygon fill="#95C664" points="111.229,152.174 104.169,140.558 115.889,122.798 	"/>
	<polygon fill="#5BA062" points="94.985,129.298 96.969,136.173 115.889,122.798 	"/>
	<polygon fill="#5BA062" points="104.169,146.601 111.229,152.174 104.169,140.558 	"/>
	<polygon fill="#5BA062" points="111.229,164.048 111.229,152.174 107.538,166.215 	"/>
	<polygon fill="#95C664" points="120.168,166.882 121.063,184.214 136.063,175.548 	"/>
	<polygon fill="#5BA062" points="111.229,152.174 120.168,166.882 140.634,153.979 	"/>
	<polygon fill="#95C664" points="111.229,164.048 120.168,166.882 111.229,152.174 	"/>
	<polygon fill="#92C56E" points="139.647,166.215 120.168,166.882 140.634,153.979 	"/>
	<polygon fill="#5BA062" points="136.063,175.548 139.647,166.215 120.168,166.882 	"/>
	<polygon fill="#5BA062" points="131.521,183.423 136.896,183.423 136.063,175.548 	"/>
	<polygon fill="#95C664" points="121.063,184.214 131.521,183.423 136.063,175.548 	"/>
	<polygon fill="#95C664" points="146.578,174.048 136.063,175.548 136.896,183.423 	"/>
	<polygon fill="#5BA062" points="144.896,181.048 136.896,183.423 146.578,174.048 	"/>
	<polygon fill="#6BC06B" points="141.557,191.048 136.896,183.423 144.896,181.048 	"/>
	<polygon fill="#95C664" points="154.646,175.548 146.578,174.048 144.896,181.048 	"/>
	<polygon fill="#5BA062" points="154.646,168.298 146.578,174.048 154.646,175.548 	"/>
	<polygon fill="#5BA062" points="92.504,165.635 92.504,179.881 96.611,171.298 	"/>
	<polygon fill="#95C664" points="100.39,153.979 92.504,165.635 96.611,171.298 	"/>
	<polygon fill="#5BA062" points="102.063,166.215 96.611,171.298 100.39,153.979 	"/>
	<polygon fill="#95C664" points="102.063,166.215 96.611,171.298 99.337,178.736 	"/>
	<polygon fill="#5BA062" points="175.383,156.868 159.848,145.076 161.312,158.208 	"/>
	<polygon fill="#95C664" points="176.573,149.759 159.848,145.076 175.383,156.868 	"/>
	<polygon fill="#5BA062" points="192.302,147.568 176.573,149.759 159.848,145.076 	"/>
	<polygon fill="#5BA062" points="143.48,155.465 140.634,153.979 139.658,166.081 	"/>
	<polygon fill="#5BA062" points="146.578,163.382 139.658,166.081 146.578,159.528 	"/>
	<polygon fill="#5BA062" points="154.646,156.868 149.771,161.548 155.313,161.965 	"/>
	<polygon fill="#5BA062" points="146.578,174.048 145.896,169.215 136.063,175.548 	"/>
	<polygon fill="#95C664" points="154.646,168.298 145.896,169.215 146.578,174.048 	"/>
	<polygon fill="#95C664" points="161.312,160.43 154.646,156.868 155.313,161.965 	"/>
	<polygon fill="#95C664" points="175.383,156.868 154.396,168.298 161.312,160.43 	"/>
	<polygon fill="#5BA062" points="155.313,161.965 154.646,168.162 161.312,160.43 	"/>
	<polygon fill="#5BA062" points="161.312,158.208 161.312,160.43 154.646,156.868 	"/>
	<polygon fill="#95C664" points="175.383,156.868 161.312,158.208 161.312,160.43 	"/>
	<polygon fill="#95C664" points="143.118,222.549 136.063,209.923 129.908,210.465 	"/>
	<polygon fill="#5BA062" points="145.896,217.199 145.722,217.07 136.063,209.923 143.118,222.549 	"/>
	<polygon fill="#95C664" points="156.5,260.348 173.989,246.227 184.65,273.322 	"/>
	<polygon fill="#5BA062" points="194.278,268.053 184.65,273.322 173.989,246.227 	"/>
	<polygon fill="#5BA062" points="148.583,244.953 156.5,260.348 173.989,246.227 	"/>
	<polygon fill="#95C664" points="145.896,230.219 148.583,244.953 173.989,246.227 	"/>
	<polygon fill="#5BA062" points="182.596,232.393 145.896,230.219 173.989,246.227 	"/>
	<polygon fill="#95C664" points="154.396,219.562 145.896,230.219 182.596,232.393 	"/>
	<polygon fill="#5BA062" points="167.615,215.074 154.396,219.562 182.596,232.393 	"/>
	<polygon fill="#95C664" points="176.723,220.486 182.596,232.393 167.615,215.074 	"/>
	<polygon fill="#5BA062" points="148.583,244.953 144.146,237.424 145.896,230.219 	"/>
	<polygon fill="#95C664" points="144.146,237.424 147.48,250.76 148.583,244.953 	"/>
	<polygon fill="#5BA062" points="161.286,268.768 184.65,273.322 156.5,260.348 	"/>
	<polygon fill="#5BA062" points="184.65,273.322 168.496,282.035 179.546,287.564 	"/>
	<polygon fill="#95C664" points="161.286,268.768 168.496,282.035 184.65,273.322 	"/>
	<polygon fill="#95C664" points="168.496,306.361 179.546,287.564 168.496,282.035 	"/>
	<polygon fill="#95C664" points="143.118,222.549 149.242,220.938 145.722,217.07 	"/>
	<polygon fill="#5BA062" points="145.896,230.219 149.242,220.938 154.396,219.562 	"/>
	<polygon fill="#93C56E" points="358.229,186.242 378.261,195.624 370.748,184.403 	"/>
</g>
<g id="Outline">
	<g>
		<polygon fill="none" stroke="#000000" stroke-width="1.5" stroke-miterlimit="10" points="243.242,148.36 246.908,146.712 
			246.908,144.655 245.157,143.444 		"/>
		<polygon fill="none" stroke="#000000" stroke-width="1.5" stroke-miterlimit="10" points="253.492,143.16 252.439,139.235 
			250.724,138.316 250.281,141.11 250.281,144.027 251.886,146.712 256.669,148.36 		"/>
		<polygon fill="none" stroke="#000000" stroke-width="1.5" stroke-miterlimit="10" points="256.669,148.444 251.886,146.712 
			249.824,149.048 		"/>
		<polygon fill="none" stroke="#000000" stroke-width="1.5" stroke-miterlimit="10" points="213.171,106.789 192.313,113.307 
			202.905,118.521 206.653,135.485 245.157,108.418 		"/>
		<polygon fill="none" stroke="#000000" stroke-width="1.5" stroke-miterlimit="10" points="240.708,129.61 240.708,126.048 
			233.703,126.86 233.703,131.235 		"/>
		<polygon fill="none" stroke="#000000" stroke-width="1.5" stroke-miterlimit="10" points="442.199,174.285 442.199,168.694 
			439.158,165.575 438.312,172.107 431.002,174.751 432.074,180.195 434.424,176.462 		"/>
		<polygon fill="none" stroke="#000000" stroke-width="1.5" stroke-miterlimit="10" points="441.574,161.369 436.289,158.718 
			438.312,164.02 		"/>
		<polygon fill="none" stroke="#000000" stroke-width="1.5" stroke-miterlimit="10" points="453.658,249.11 449.908,257.86 
			447.471,252.61 432.33,253.009 424.67,262.622 412.203,266.827 412.654,282.747 408.75,288.905 438.037,284.099 441.283,294.36 
			453.658,294.36 466.033,275.61 		"/>
		<polygon fill="none" stroke="#000000" stroke-width="1.5" stroke-miterlimit="10" points="427.113,207.366 426.258,200.349 
			422.291,209.17 426.773,211.777 428.5,218.993 432.713,222.401 433.156,213.96 431.002,211.777 		"/>
		<polygon fill="none" stroke="#000000" stroke-width="1.5" stroke-miterlimit="10" points="410.602,236.636 418.24,238.642 
			422.291,229.218 421.025,220.798 408.908,228.216 		"/>
		<polygon fill="none" stroke="#000000" stroke-width="1.5" stroke-miterlimit="10" points="406.477,239.442 388.748,225.009 
			402.781,242.249 425.346,248.063 		"/>
		<polygon fill="none" stroke="#000000" stroke-width="1.5" stroke-miterlimit="10" points="449.908,236.636 451.783,243.753 
			455.852,246.06 458.566,242.249 466.033,248.063 459.92,238.642 		"/>
		<polygon fill="none" stroke="#000000" stroke-width="1.5" stroke-miterlimit="10" points="466.033,305.122 472.072,306.595 
			481.322,300.499 481.322,296.714 477.117,299.026 		"/>
		<polygon fill="none" stroke="#000000" stroke-width="1.5" stroke-miterlimit="10" points="487.418,285.827 485.316,296.714 
			489.309,293.351 		"/>
		<polygon fill="none" stroke="#000000" stroke-width="1.5" stroke-miterlimit="10" points="314.152,264.954 314.891,272.522 
			319.129,272.522 323.951,253.222 318.062,257.388 		"/>
		<path fill="none" stroke="#000000" stroke-width="1.5" stroke-miterlimit="10" d="M395.742,221.69L395.742,221.69L395.742,221.69
			l0.248,0.711l0.029-0.381l5.215,6.195l-4.275-18.539l6.717,5.732l4.619-2.975l-5.486-14.638l0,0l14.957-4.828v-15.496
			l-4.525-10.946l12.473,7.757l-3.422-7.757l4.822-3.906l3.111-8.556l-11.984-9.372l1.834-8.165l15.5-4.2l12,17.531l-1.334-14.667
			l14.834-5.915l-29-7.25l-42.334-1.333l-31.5-9.167l-59.692,16.915l-5.225-5.333l-18.041-0.625l-6.5,8l-1.875,0.75l-4.75,1.5v3.75
			l2.375,2.125l5-3.125l0.812,3.75l1.125,1.188h1.312l0.875-1.812l2.375-3.125v-3.625v-1.375l2.541-0.875l3.539-1.167l-0.621,3.417
			l1.25,3.167l3,3.583l-12.959,4.549l-7.332,1.496l-6.218,4.837l-6.218,2.28l-0.576,9.902l-8.635-1.192l-1.613,9.828l7.14,2.648
			l3.685-4.491l4.721-5.333l3.163-0.828h4.11l7.962,3.09l1.202,1.31l-1.691,3.029l4.594-3.357l-4.293-4.252l-0.781-3.314l4.031-0.29
			l5.297,10.407l0.011-0.086l1.761,2.214l0.141,0.177l1.791-0.833l0.709-5.262h5.831l1.17-9.315l10.644-1.01v4.463l5.715,3.344
			l-0.902,2.931l-9.651-1.3l-9.307,3.063l4.082,5.643l7.952-1.099l-2.727,11l2.727,3.555l15.734,24.146l13.398-5.703l7.416-8.923
			l-12.666-2.075l-5.17-12.31l9.305,6.785h13.512l11.113,9.368l11.398,20.465l1.342-11.821l11.613-10.412l11.469,8.614
			L395.742,221.69z M314.814,159.277l8.215-3.648l-3.977,10.881L314.814,159.277z"/>
		<polygon fill="none" stroke="#000000" stroke-width="1.5" stroke-miterlimit="10" points="270.742,172.578 248.122,176.393 
			229.209,195.852 229.209,211.777 243.242,225.009 257.736,220.798 266.875,223.938 269.117,228.216 275.283,249.11 
			270.742,258.108 279.984,286.552 295.259,282.913 301.275,264.956 312.945,255.464 308.199,239.259 321.971,225.788 
			326.887,213.96 317.01,215.794 309.912,203.814 298.548,182.86 279.073,182.904 		"/>
		<path fill="none" stroke="#000000" stroke-width="1.5" stroke-miterlimit="10" d="M176.734,220.798l-9.107-5.412l-15.062-3.052
			l-6.831,5.048l-9.659-7.146l-0.542-3.75h-3.625l-0.75-4.875l0.75-4.123l-5.965,4.706l-7.253-3.755l2.385-13.913l10.458-0.791
			h5.375l4.661,7.625l3.339-10l9.75-5.5v-7.25l0.015-0.145l20.721-11.286l1.179-7.421l15.74-1.879l-9.706-10.52l-14.141-3.5
			l-8.619,11.216l-9.649-5.541l3.82-7.675l14.448-6.396h-30.434l-8.915-5.579L115.9,123.11l-19.674-3.224L70.403,131.86l6.456,5.5
			l-18.752,8.312l31.048-8.312l7.467,5.26l3.779,11.67l-7.886,11.657v14.246l6.005,12.849l0.376-10.396l8.362,12.505l-2.271,4.247
			l20.222,9.796l4.708,1.583l13.21,12.083l-4.722,14.875l7.5,19.338l10.604,3.586l-1.122,15.055l2.954,25.746l5.914,11.057
			l13.088,8.846l-8.729-14.875l10.94-18.611l5.104-14.242l9.627-5.27l8.616-26.438l-20.298-9.223L176.734,220.798z M146.589,152.486
			l3.193,4.158l4.875,0.536l-4.875,4.68l5.542,0.417l-8.735,1.417v-3.854l-6.92,6.553v0l3.822-10.615l-2.846-1.486L146.589,152.486z
			"/>
	</g>
</g>
<g id="Palette">
	<rect x="125.5" y="348.5" fill="#95C664" width="15" height="24"/>
	<rect x="140.5" y="348.5" fill="#5BA062" width="15" height="24"/>
	<rect x="155.5" y="348.5" fill="#F8E461" width="15" height="24"/>
	<rect x="170.5" y="348.5" fill="#F3C055" width="15" height="24"/>
	<rect x="185.5" y="348.5" fill="#F47D40" width="15" height="24"/>
	<rect x="200.5" y="348.5" fill="#EA6334" width="15" height="24"/>
	<rect x="215.5" y="348.5" fill="#997B64" width="15" height="24"/>
	<rect x="230.5" y="348.5" fill="#6D5532" width="15" height="24"/>
	<rect x="245.5" y="348.5" fill="#928B8D" width="15" height="24"/>
	<rect x="260.5" y="348.5" fill="#5B5C5C" width="15" height="24"/>
</g>
</svg>
